<svg xmlns="http://www.w3.org/2000/svg" xmlns:xlink="http://www.w3.org/1999/xlink" width="48" height="48" viewBox="0 0 48 48">
  <defs>
    <path id="icon-cloud-done-a" d="M38.7,12.08 C37.34,5.18 31.28,0 24,0 C18.22,0 13.2,3.28 10.7,8.08 C4.68,8.72 0,13.82 0,20 C0,26.62 5.38,32 12,32 L38,32 C43.52,32 48,27.52 48,22 C48,16.72 43.9,12.44 38.7,12.08 L38.7,12.08 Z M20,26 L13,19 L15.82,16.18 L20,20.34 L30.36,10 L33.18,12.82 L20,26 L20,26 Z"/>
  </defs>
  <g fill="none" fill-rule="evenodd" transform="translate(0 8)">
    <mask id="icon-cloud-done-b" fill="#fff">
      <use xlink:href="#icon-cloud-done-a"/>
    </mask>
    <use fill="#575C5F" xlink:href="#icon-cloud-done-a"/>
    <g fill="#87B09A" mask="url(#icon-cloud-done-b)">
      <rect width="96" height="96" transform="translate(-23 -29)"/>
    </g>
  </g>
</svg>
