<svg xmlns="http://www.w3.org/2000/svg" width="255" height="255" viewBox="0 0 255 255">
  <defs>
    <linearGradient id="icon-ruby-gray-a" x1="50%" x2="50%" y1="0%" y2="100%">
      <stop offset="0%" stop-opacity="0"/>
      <stop offset="100%"/>
    </linearGradient>
  </defs>
  <g fill="none" opacity=".301">
    <polygon fill="url(#icon-ruby-gray-a)" points="197.467 167.764 51.947 254.174 240.369 241.387 254.88 51.393 197.466 167.763"/>
    <polygon fill="url(#icon-ruby-gray-a)" points="240.677 241.257 224.482 129.48 180.369 187.73 240.677 241.258"/>
    <polygon fill="url(#icon-ruby-gray-a)" points="240.896 241.257 122.25 231.944 52.576 253.93"/>
    <polygon fill="url(#icon-ruby-gray-a)" points="52.744 253.955 82.384 156.855 17.16 170.8 52.743 253.954"/>
    <polygon fill="url(#icon-ruby-gray-a)" points="180.358 188.05 153.085 81.226 75.038 154.386 180.358 188.052"/>
    <polygon fill="url(#icon-ruby-gray-a)" points="248.693 82.73 174.916 22.474 154.372 88.892 248.693 82.73"/>
    <polygon fill="url(#icon-ruby-gray-a)" points="214.191 .99 170.8 24.97 143.424 .669 214.191 .991"/>
    <polygon fill="url(#icon-ruby-gray-a)" points="0 203.372 18.177 170.221 3.473 130.727"/>
    <path fill="#FFF" d="M2.496,129.48 L17.29,171.443 L81.573,157.021 L154.963,88.814 L175.675,23.027 L143.063,0 L87.618,20.75 C70.149,36.998 36.252,69.146 35.03,69.75 C33.82,70.368 12.646,110.389 2.496,129.48 Z"/>
    <path fill="url(#icon-ruby-gray-a)" d="M54.442 54.094C92.302 16.556 141.109-5.622 159.839 13.276 178.559 32.174 158.707 78.099 120.847 115.625 82.987 153.15 34.785 176.55 16.067 157.652-2.663 138.767 16.582 91.62 54.442 54.094zM52.744 253.916L82.152 156.507 179.817 187.883C144.505 220.996 105.23 248.989 52.744 253.916zM155.092 88.622L180.165 187.935C209.663 156.919 236.137 123.575 249.103 82.332L155.093 88.622 155.092 88.622z"/>
    <path fill="url(#icon-ruby-gray-a)" d="M248.847,82.833 C258.882,52.551 261.197,9.108 213.881,1.042 L175.056,22.487 L248.847,82.833 L248.847,82.833 Z"/>
    <path fill="#595F62" d="M0,202.935 C1.39,252.914 37.448,253.659 52.808,254.097 L17.328,171.237 L0,202.935 Z"/>
    <path fill="url(#icon-ruby-gray-a)" d="M224.508 131.203C225.948 132.013 244.203 100.419 248.346 82.563L155.232 88.777C177.899 102.709 223.582 130.689 224.508 131.203zM82.113 156.507L121.426 232.355C144.672 219.748 162.876 204.388 179.547 187.935L82.113 156.507zM17.174 171.34L11.604 237.668C22.114 252.025 36.574 253.273 51.74 252.154 40.767 224.843 18.846 170.234 17.174 171.34zM252.926 33.614C248.757 15.952 235.957 4.554 214.139.991L174.826 22.654 252.926 33.614z"/>
  </g>
</svg>
