<svg xmlns="http://www.w3.org/2000/svg" xmlns:xlink="http://www.w3.org/1999/xlink" width="48" height="48" viewBox="0 0 48 48">
  <defs>
    <path id="icon-touch-app-a" d="M8.36887477,16.4438596 L8.36887477,8.98026316 C8.36887477,6.22631579 10.5743194,3.99122807 13.2917423,3.99122807 C16.0091652,3.99122807 18.2146098,6.22631579 18.2146098,8.98026316 L18.2146098,16.4438596 C20.5972777,14.8274123 22.1529038,12.0934211 22.1529038,8.98026316 C22.1529038,4.01118421 18.1949183,0 13.2917423,0 C8.38856624,0 4.43058076,4.01118421 4.43058076,8.98026316 C4.43058076,12.0934211 5.9862069,14.8274123 8.36887477,16.4438596 L8.36887477,16.4438596 Z M27.7452813,25.6835526 L18.8053539,21.1734649 C18.4705989,21.0337719 18.1161525,20.9539474 17.7420145,20.9539474 L16.2454628,20.9539474 L16.2454628,8.98026316 C16.2454628,7.32390351 14.9261343,5.98684211 13.2917423,5.98684211 C11.6573503,5.98684211 10.3380218,7.32390351 10.3380218,8.98026316 L10.3380218,30.4131579 L3.58384755,28.9763158 C3.42631579,28.9563596 3.2884755,28.9164474 3.11125227,28.9164474 C2.5008167,28.9164474 1.94945554,29.1758772 1.55562613,29.575 L0,31.1714912 L9.72758621,41.0298246 C10.2592559,41.5686404 11.0075318,41.9078947 11.814882,41.9078947 L25.1853902,41.9078947 C26.6622505,41.9078947 27.8043557,40.810307 28.0209619,39.3535088 L29.4978221,28.8366228 C29.5175136,28.6969298 29.5372051,28.5572368 29.5372051,28.4375 C29.5372051,27.2002193 28.7889292,26.1225877 27.7452813,25.6835526 L27.7452813,25.6835526 Z"/>
  </defs>
  <g fill="none" fill-rule="evenodd" transform="translate(9 3)">
    <mask id="icon-touch-app-b" fill="#fff">
      <use xlink:href="#icon-touch-app-a"/>
    </mask>
    <use fill="#575C5F" xlink:href="#icon-touch-app-a"/>
    <g fill="#87B09A" mask="url(#icon-touch-app-b)">
      <rect width="96" height="96" transform="translate(-31 -25)"/>
    </g>
  </g>
</svg>
