<?xml version="1.0" encoding="UTF-8"?>
<svg width="16px" height="16px" viewBox="0 0 16 16" version="1.1" xmlns="http://www.w3.org/2000/svg" xmlns:xlink="http://www.w3.org/1999/xlink">
    <!-- Generator: sketchtool 49.1 (51147) - http://www.bohemiancoding.com/sketch -->
    <title>DF1AAF5A-75FB-44A9-8651-73C507118970</title>
    <desc>Created with sketchtool.</desc>
    <defs></defs>
    <g id="Symbols" stroke="none" stroke-width="1" fill="none" fill-rule="evenodd">
        <g id="nav/main" transform="translate(-927.000000, -16.000000)" fill="#FFFFFF">
            <g id="topnav" transform="translate(0.000000, -24.000000)">
                <g id="links-[32h-m]" transform="translate(436.000000, 35.000000)">
                    <g id="label" transform="translate(491.000000, 0.000000)">
                        <g id="icon-cloud-download" transform="translate(0.000000, 5.000000)">
                            <path d="M12.9,6.1525 C12.4466667,3.780625 10.4266667,2 8,2 C6.07333333,2 4.4,3.1275 3.56666667,4.7775 C1.56,4.9975 0,6.750625 0,8.875 C0,11.150625 1.79333333,13 4,13 L12.6666667,13 C14.5066667,13 16,11.46 16,9.5625 C16,7.7475 14.6333333,6.27625 12.9,6.1525 L12.9,6.1525 Z M11.3333333,8.1875 L8,11.625 L4.66666667,8.1875 L6.66666667,8.1875 L6.66666667,5.4375 L9.33333333,5.4375 L9.33333333,8.1875 L11.3333333,8.1875 L11.3333333,8.1875 Z" id="Shape"></path>
                        </g>
                    </g>
                </g>
            </g>
        </g>
    </g>
</svg>