<?xml version="1.0" encoding="utf-8"?>
<!-- Generator: Adobe Illustrator 22.1.0, SVG Export Plug-In . SVG Version: 6.00 Build 0)  -->
<svg version="1.1" id="Layer_1" xmlns="http://www.w3.org/2000/svg" xmlns:xlink="http://www.w3.org/1999/xlink" x="0px" y="0px"
	 viewBox="0 0 125.1 125.1" style="enable-background:new 0 0 125.1 125.1;" xml:space="preserve">
<style type="text/css">
	.st0{fill:#FFFFFF;}
</style>
<g>
	
		<rect x="53.7" y="54.1" transform="matrix(0.9482 -0.3176 0.3176 0.9482 -16.6563 23.1069)" class="st0" width="17.6" height="17"/>
	<path class="st0" d="M119.8,45.3c-12.9-43-31.5-53-74.5-40.1s-53,31.5-40.1,74.5s31.5,53,74.5,40.1S132.7,88.3,119.8,45.3z
		 M98.1,73.2L90,75.9l2.8,8.4c1.1,3.4-0.7,7.1-4.1,8.2c-0.7,0.2-1.5,0.4-2.2,0.3c-2.6-0.1-5.1-1.8-6-4.4L77.7,80L61,85.6l2.8,8.4
		c1.1,3.4-0.7,7.1-4.1,8.2c-0.7,0.2-1.5,0.4-2.2,0.3c-2.6-0.1-5.1-1.8-6-4.4l-2.8-8.4l-8.1,2.7c-0.7,0.2-1.5,0.4-2.2,0.3
		c-2.6-0.1-5.1-1.8-6-4.4c-1.1-3.4,0.7-7.1,4.1-8.2l8.1-2.7l-5.4-16.1L31.1,64c-0.7,0.2-1.5,0.4-2.2,0.3c-2.6-0.1-5.1-1.8-6-4.4
		c-1.1-3.4,0.7-7.1,4.1-8.2l8.1-2.7l-2.8-8.4c-1.1-3.4,0.7-7.1,4.1-8.2s7.1,0.7,8.2,4.1l2.8,8.4l16.7-5.6l-2.8-8.4
		c-1.1-3.4,0.7-7.1,4.1-8.2c3.4-1.1,7.1,0.7,8.2,4.1l2.8,8.4l8.1-2.7c3.4-1.1,7.1,0.7,8.2,4.1c1.1,3.4-0.7,7.1-4.1,8.2l-8.1,2.7
		l5.4,16.1l8.1-2.7c3.4-1.1,7.1,0.7,8.2,4.1C103.3,68.4,101.5,72.1,98.1,73.2z"/>
</g>
</svg>
