<?xml version="1.0" encoding="UTF-8"?>
<svg width="20px" height="14px" viewBox="0 0 20 14" version="1.1" xmlns="http://www.w3.org/2000/svg" xmlns:xlink="http://www.w3.org/1999/xlink">
    <!-- Generator: Sketch 45.2 (43514) - http://www.bohemiancoding.com/sketch -->
    <title>icon/video@1x</title>
    <desc>Created with Sketch.</desc>
    <defs>
        <linearGradient x1="0%" y1="100%" x2="59.1222426%" y2="16.2642045%" id="linearGradient-1">
            <stop stop-color="#87B09A" offset="0%"></stop>
            <stop stop-color="#9AC7AF" offset="100%"></stop>
        </linearGradient>
    </defs>
    <g id="Symbols" stroke="none" stroke-width="1" fill="none" fill-rule="evenodd">
        <g id="left-nav/get-started" transform="translate(-282.000000, -58.000000)" fill-rule="nonzero" fill="url(#linearGradient-1)">
            <g id="icon/video" transform="translate(277.000000, 50.000000)">
                <path d="M24.0172379,9.19548341 C23.3029353,8.34636336 21.9841246,8 19.4654897,8 L10.3228631,8 C7.74658612,8 6.40543348,8.36870526 5.6938119,9.27272257 C5,10.1541426 5,11.4528456 5,13.2502838 L5,16.6761915 C5,20.1584008 5.82320344,21.9264115 10.3228631,21.9264115 L19.4655536,21.9264115 C21.6496982,21.9264115 22.8599911,21.6207742 23.6429791,20.8714267 C24.4459472,20.1029929 24.7885443,18.8483353 24.7885443,16.6761915 L24.7885443,13.2502838 C24.7885443,11.3547328 24.7348599,10.0483697 24.0172379,9.19548341 Z M17.7043093,15.4362158 L13.5526727,17.6059978 C13.459858,17.6545116 13.358362,17.678577 13.2569935,17.678577 C13.14222,17.678577 13.0277018,17.6476814 12.9262695,17.586273 C12.7352781,17.470542 12.6186534,17.2635283 12.6186534,17.0402369 L12.6186534,12.7145888 C12.6186534,12.4916804 12.734959,12.2848582 12.9255673,12.1690633 C13.1162395,12.0532684 13.3533829,12.045353 13.5512045,12.1481257 L17.7028411,14.303928 C17.9140679,14.4135949 18.0467149,14.6316519 18.0470341,14.8695612 C18.0472894,15.1076621 17.9152169,15.3260383 17.7043093,15.4362158 Z" id="video-icon"></path>
            </g>
        </g>
    </g>
</svg>
