<?xml version="1.0" encoding="UTF-8"?>
<svg width="90px" height="32px" viewBox="0 0 90 32" version="1.1" xmlns="http://www.w3.org/2000/svg" xmlns:xlink="http://www.w3.org/1999/xlink">
    <!-- Generator: sketchtool 49.1 (51147) - http://www.bohemiancoding.com/sketch -->
    <title>6B455936-0134-4307-B76C-50F8F0D43D3F</title>
    <desc>Created with sketchtool.</desc>
    <defs></defs>
    <g id="Symbols" stroke="none" stroke-width="1" fill="none" fill-rule="evenodd">
        <g id="hero/centered" transform="translate(-165.000000, -259.000000)" fill="#FFFFFF" fill-rule="nonzero">
            <g id="buttons" transform="translate(31.000000, 245.000000)">
                <g id="cta-button">
                    <g id="logo-chef-monotone" transform="translate(134.000000, 14.000000)">
                        <path d="M88.8711864,11.2660317 L88.4288136,10.5904762 L88.4288136,11.5453968 L88.2508475,11.5453968 L88.2508475,10.3009524 L88.4389831,10.3009524 L88.8864407,10.9866667 L89.3288136,10.3009524 L89.4915254,10.3009524 L89.4915254,11.5453968 L89.3186441,11.5453968 L89.3186441,10.5904762 L88.8711864,11.2660317 Z M87.5491525,11.5453968 L87.3711864,11.5453968 L87.3711864,10.4685714 L86.9491525,10.4685714 L86.9491525,10.3009524 L87.9661017,10.3009524 L87.9661017,10.4685714 L87.5644068,10.4685714 L87.5491525,11.5453968 Z" id="Shape"></path>
                        <path d="M38.6440678,15.7866667 L38.6440678,15.7460317 C38.6186178,14.1659449 39.2396198,12.6438844 40.3635045,11.5317353 C41.4873892,10.4195861 43.0168551,9.81363375 44.5983051,9.85396825 C46.2833282,9.77022303 47.9234799,10.4119052 49.1033898,11.6165079 L47.5016949,13.4603175 C46.7323676,12.6722187 45.6846893,12.2163957 44.5830508,12.1904762 C42.6559322,12.1904762 41.2728814,13.7853968 41.2728814,15.7460317 C41.2728814,17.7015873 42.6254237,19.3320635 44.5830508,19.3320635 C45.8898305,19.3320635 46.6881356,18.824127 47.5830508,17.9961905 L49.179661,19.6114286 C48.0136235,20.9708857 46.2870788,21.7199488 44.4966102,21.6431746 C42.9355246,21.666777 41.4315836,21.0570015 40.3285616,19.9532322 C39.2255397,18.8494629 38.6177303,17.346057 38.6440678,15.7866667" id="Shape"></path>
                        <polygon id="Shape" points="52.0932203 10.0520635 54.6050847 10.0520635 54.6050847 14.567619 59.2423729 14.567619 59.2423729 10.0520635 61.7542373 10.0520635 61.7542373 21.4603175 59.2423729 21.4603175 59.2423729 16.8787302 54.6050847 16.8787302 54.6050847 21.4603175 52.0932203 21.4603175"></polygon>
                        <polygon id="Shape" points="64.820339 10.0520635 73.4389831 10.0520635 73.4389831 12.2869841 67.3169492 12.2869841 67.3169492 14.5980952 72.7016949 14.5980952 72.7016949 16.8330159 67.3169492 16.8330159 67.3169492 19.2304762 73.520339 19.2304762 73.520339 21.4603175 64.820339 21.4603175"></polygon>
                        <polygon id="Shape" points="76.8050847 10.0520635 85.5 10.0520635 85.5 12.3326984 79.3169492 12.3326984 79.3169492 14.7606349 84.7627119 14.7606349 84.7627119 17.0463492 79.3169492 17.0463492 79.3169492 21.4603175 76.8050847 21.4603175"></polygon>
                        <path d="M16.0830508,23.0806349 C12.3782024,23.0840929 9.27999279,20.2690888 8.93326062,16.5844028 C8.58652844,12.8997167 11.1053162,9.55726638 14.7459094,8.87097399 C18.3865025,8.1846816 21.9514859,10.3802733 22.9728814,13.9377778 L25.7491525,13.9377778 C24.7278698,8.98372056 20.1192999,5.60534751 15.0820126,6.11808987 C10.0447252,6.63083223 6.21301402,10.8683363 6.21301402,15.9263492 C6.21301402,20.9843622 10.0447252,25.2218662 15.0820126,25.7346085 C20.1192999,26.2473509 24.7278698,22.8689779 25.7491525,17.9149206 L22.9728814,17.9149206 C22.0788909,20.9737726 19.2729754,23.0775337 16.0830508,23.0806349" id="Shape"></path>
                        <path d="M11.2423729,20.744127 C12.5230219,22.0286497 14.2631498,22.7506509 16.0779661,22.7504763 L16.0779661,19.8907937 C15.0214769,19.8928178 14.0077283,19.4742207 13.2610169,18.727619 L11.2423729,20.744127 Z" id="Shape"></path>
                        <path d="M9.23898305,15.9136508 C9.237723,16.8616805 9.43517946,17.7994713 9.81864407,18.6666667 L12.4372881,17.5187302 C11.8916812,16.2877558 12.0064936,14.8646208 12.742397,13.7368145 C13.4783003,12.6090083 14.7353886,11.9296415 16.0830508,11.9314286 L16.0830508,9.0768254 C12.3043387,9.07962667 9.24178729,12.1389373 9.23898305,15.9136508" id="Shape"></path>
                        <path d="M18.5644068,9.54412698 L17.5474576,12.2107937 C18.3906222,12.5399064 19.0969619,13.1452115 19.5508475,13.927619 L22.6271186,13.927619 C22.0122445,11.9227031 20.5140891,10.3082781 18.559322,9.54412698" id="Shape"></path>
                        <path d="M17.5271186,19.6215873 L18.5440678,22.288254 C20.4988348,21.5241029 21.9969903,19.9096778 22.6118644,17.9047619 L19.5305085,17.9047619 C19.076623,18.6871695 18.3702832,19.2924745 17.5271186,19.6215873" id="Shape"></path>
                        <path d="M16.0830508,29.1301587 C12.5740177,29.1327952 9.20869007,27.7380003 6.73220339,25.2546032 L4.82033898,27.1644444 C9.12042701,31.4575756 15.4916766,32.931551 21.2432645,30.9638544 C26.9948525,28.9961577 31.1238569,23.9299022 31.8864407,17.9047619 L29.1610169,17.9047619 C28.1682052,24.3556039 22.616592,29.120799 16.0830508,29.1301587" id="Shape"></path>
                        <path d="M16.0830508,2.69714286 C18.9344546,2.69494156 21.709369,3.61834002 23.9898305,5.32825397 L25.6067797,3.15936508 C21.6168205,0.186467249 16.4651424,-0.752554384 11.6812386,0.621088413 C6.89733481,1.99473121 3.03114409,5.52312985 1.23050847,10.1587302 L3.77288136,11.1390476 C5.74744413,6.06358829 10.6320408,2.71389434 16.0830508,2.69714286" id="Shape"></path>
                        <path d="M29.1610169,13.9225397 L31.8864407,13.9225397 C31.6004171,11.6361028 30.8177601,9.43970124 29.5932203,7.48698413 L27.2949153,8.91936508 C28.2516139,10.4422226 28.8850378,12.1451251 29.1559322,13.9225397" id="Shape"></path>
                        <path d="M26.0898305,13.9225397 L28.8254237,13.9225397 C28.1056622,9.39093266 25.0343036,5.58044638 20.7559322,3.91111111 L19.779661,6.42031746 C23.0237471,7.68582278 25.4010868,10.5122651 26.0898305,13.9225397" id="Shape"></path>
                        <path d="M16.0830508,5.72444444 L16.0830508,3.04761905 C10.7726917,3.05137528 6.00586777,6.30179875 4.06779661,11.2406349 L6.57966102,12.215873 C8.10918501,8.30233243 11.8824626,5.72430292 16.0881356,5.71936508" id="Shape"></path>
                        <path d="M5.8779661,15.9136508 L3.18305085,15.9136508 C3.19065455,21.1790557 6.40061425,25.9115003 11.2932203,27.8704762 L12.3101695,25.3714286 C8.43331288,23.8274489 5.88660733,20.0828262 5.8779661,15.9136508" id="Shape"></path>
                        <path d="M16.0830508,26.1028571 L16.0830508,28.7949206 C22.4329245,28.7875759 27.835447,24.1703567 28.8254237,17.9047619 L26.0898305,17.9047619 C25.1316832,22.6677423 20.9463911,26.09656 16.0830508,26.1028571" id="Shape"></path>
                        <path d="M1.49490967,22.3187302 C0.607383589,20.2998809 0.150229933,18.1185952 0.152525109,15.9136508 L2.8576246,15.9136508 C2.85874872,17.7445087 3.23963785,19.5552725 3.97627119,21.231746 L1.49490967,22.3187302 Z" id="Shape"></path>
                    </g>
                </g>
            </g>
        </g>
    </g>
</svg>