<?xml version="1.0" encoding="UTF-8"?>
<svg width="1440px" height="88px" viewBox="0 0 1440 88" version="1.1" xmlns="http://www.w3.org/2000/svg" xmlns:xlink="http://www.w3.org/1999/xlink">
    <!-- Generator: Sketch 43.2 (39069) - http://www.bohemiancoding.com/sketch -->
    <title>footer-background</title>
    <desc>Created with Sketch.</desc>
    <defs></defs>
    <g id="--Habitat-Web-Event-V1" stroke="none" stroke-width="1" fill="none" fill-rule="evenodd">
        <g id="Habitat-Web-Event-V2-(desktop)" transform="translate(0.000000, -1836.000000)" fill="#87B09A">
            <g id="footer-background" transform="translate(0.000000, 1836.000000)">
                <path d="M1440,10 C1240.06014,10 1152.5,23.5686344 1021,40 C889.5,56.4313656 767.439787,60.1259571 573.375232,56.4313656 C379.310676,52.7367741 189.944325,11.0014164 0,10 L0,86.2048193 L1440,86.2048193 L1440,10 Z" id="hill-back" fill-opacity="0.731289629"></path>
                <path d="M0,26 C65,47 135,58.5 176,58.5 C276.5,58.5 374.873582,26 479,26 C583.126418,26 711,70.2504573 799.993768,68.8464831 C897.785114,67.3037174 992.079642,19.5808086 1122.55216,6.46243968 C1210.1403,-2.34411732 1324.5,-5 1440,26 L1440,86.5060241 L0,86.5060241 L0,26 Z" id="hill-middle" fill-opacity="0.731289629"></path>
                <path d="M0,58 C61,58 308.09375,76.2757976 410.992188,76.1253258 C513.890625,75.9748539 594.898438,75.6111462 866.851563,75.8744719 C1138.80469,76.1377977 1250.00597,58.3842403 1440,58 L1440,87.1565815 L0,87.1565815 C0,87.1565815 3.54184421e-13,69.3971116 0,58 Z" id="hill-front"></path>
            </g>
        </g>
    </g>
</svg>