
<svg width="101px" height="102px" viewBox="0 0 101 102" version="1.1" xmlns="http://www.w3.org/2000/svg" xmlns:xlink="http://www.w3.org/1999/xlink">
    <!-- Generator: Sketch 48.2 (47327) - http://www.bohemiancoding.com/sketch -->
    <desc>Created with Sketch.</desc>
    <defs></defs>
    <g id="Page-1" stroke="none" stroke-width="1" fill="none" fill-rule="evenodd">
        <g id="Group-29" transform="translate(50.988437, 50.962748) scale(-1, 1) translate(-50.988437, -50.962748) translate(-1.511563, -2.037252)">
            <rect id="Rectangle-3" fill-opacity="0.1" fill="#000000" fill-rule="nonzero" x="27" y="87" width="8.01005386" height="3"></rect>
            <path d="M56.8745117,8.078125 C48.597168,9.24169922 45.5877949,18.9077148 45.5877949,23.2456055" id="Path-3" stroke="#DEBFA5"></path>
            <path d="M65.6296776,106.267449 C63.4171103,106.267449 62.0250165,104.977899 61.5503695,102.687161 C59.0396059,92.656548 60.0472908,85.9669776 64.5734243,82.6184505 C71.3626246,77.5956598 73.5270221,84.5986209 69.5964643,88.8213882 C66.9760924,91.6365664 66.9888391,96.1212256 69.6347045,102.275366 C69.6347045,104.480782 67.8422449,106.267449 65.6296776,106.267449 Z" id="Shape-Copy" fill="#DDC7AE" fill-rule="nonzero" transform="translate(65.878278, 93.570958) rotate(-51.000000) translate(-65.878278, -93.570958) "></path>
            <path d="M38.0057805,106.267449 C35.7932132,106.267449 34.4011194,104.977899 33.9264724,102.687161 C31.4157088,92.656548 32.4233937,85.9669776 36.9495273,82.6184505 C43.7387275,77.5956598 45.903125,84.5986209 41.9725672,88.8213882 C39.3521953,91.6365664 39.3649421,96.1212256 42.0108074,102.275366 C42.0108074,104.480782 40.2183478,106.267449 38.0057805,106.267449 Z" id="Shape-Copy-2" fill="#DDC7AE" fill-rule="nonzero" transform="translate(38.254381, 93.570958) rotate(-51.000000) translate(-38.254381, -93.570958) "></path>
            <path d="M9.90711013,61.5613025 C7.6945428,61.5613025 5.9020832,59.7746359 5.9020832,57.5692192 L5.9020832,42.8152609 L13.912137,42.8152609 L13.912137,57.5692192 C13.912137,59.7746359 12.1196774,61.5613025 9.90711013,61.5613025 Z" id="Shape-Copy-3" fill="#DDC7AE" fill-rule="nonzero" transform="translate(9.907110, 52.188282) rotate(140.000000) translate(-9.907110, -52.188282) "></path>
            <rect id="Rectangle-6" fill="#DDC7AE" fill-rule="nonzero" x="12" y="22" width="78.5451895" height="65.3091967" rx="6"></rect>
            <path d="M18,69 L90.5451895,69 L90.5451895,81.7460417 C90.5451895,85.0597502 87.858898,87.7460417 84.5451895,87.7460417 L18,87.7460417 C14.6862915,87.7460417 12,85.0597502 12,81.7460417 L12,75 C12,71.6862915 14.6862915,69 18,69 Z" id="Rectangle-6" fill="#A2BD7C" fill-rule="nonzero"></path>
            <rect id="Rectangle-6-Copy" fill="#FFE9D1" fill-rule="nonzero" x="12" y="25" width="63.8520978" height="61.8445602" rx="4"></rect>
            <path d="M43.7701059,43.87081 C50.836804,43.87081 56.5654947,49.5995007 56.5654947,56.6661989 L56.5654947,69.7279529 L30.974717,69.7279529 L30.974717,56.6661989 C30.974717,49.5995007 36.7034077,43.87081 43.7701059,43.87081 Z" id="Rectangle-Copy-9" fill="#FFFFFF" fill-rule="nonzero"></path>
            <path d="M45.6266372,43.4140379 L45.2024423,43.9288138 C44.5661498,44.7254909 43.42318,44.8235435 42.6572725,44.1616887 C42.5747901,44.0881492 42.5040909,44.0146098 42.4333918,43.9288138 L42.0091968,43.4140379 C41.8677985,43.2424459 41.8913649,42.9850579 42.0563296,42.8379791 C42.1270288,42.7766962 42.2212943,42.7399265 42.3155598,42.7399265 L45.3202742,42.7399265 C45.5441549,42.7399265 45.7209028,42.923775 45.7209028,43.1566499 C45.7209028,43.2424459 45.6855532,43.3404984 45.6266372,43.4140379 Z" id="Shape-Copy-5" fill="#837365" fill-rule="nonzero"></path>
            <ellipse id="Oval-Copy" fill="#837365" fill-rule="nonzero" cx="28.7224417" cy="40.716875" rx="1.72244165" ry="1.716875"></ellipse>
            <ellipse id="Oval-Copy-2" fill="#837365" fill-rule="nonzero" cx="58.7224417" cy="40.716875" rx="1.72244165" ry="1.716875"></ellipse>
            <path d="M47.3909668,49.0143943 L46.431632,49.7890226 C44.9926297,50.9878522 42.4077553,51.1354004 40.6756229,50.1394497 C40.4890856,50.0287885 40.3291964,49.9181273 40.1693073,49.7890226 L39.2099724,49.0143943 C38.8901942,48.7561848 38.9434905,48.3688706 39.3165652,48.1475483 C39.4764543,48.0553306 39.6896399,48 39.9028254,48 L46.6981139,48 C47.2044295,48 47.6041523,48.276653 47.6041523,48.6270801 C47.6041523,48.7561848 47.5242078,48.9037331 47.3909668,49.0143943 Z" id="Shape-Copy-4" fill="#837365" fill-rule="nonzero"></path>
            <path d="M14,49 L17,49" id="Line-6" stroke="#827365" stroke-linecap="round" stroke-linejoin="round"></path>
            <path d="M70.1893763,49.3662659 L73.1893763,49.3662659" id="Line-6-Copy-3" stroke="#827365" stroke-linecap="round" stroke-linejoin="round"></path>
            <path d="M14,45 L17,45" id="Line-6-Copy" stroke="#827365" stroke-linecap="round" stroke-linejoin="round"></path>
            <path d="M70.1893763,44.8662659 L73.1893763,44.8662659" id="Line-6-Copy-4" stroke="#827365" stroke-linecap="round" stroke-linejoin="round"></path>
            <path d="M14,54 L17,54" id="Line-6-Copy-2" stroke="#827365" stroke-linecap="round" stroke-linejoin="round"></path>
            <path d="M70.1893763,53.8662659 L73.1893763,53.8662659" id="Line-6-Copy-5" stroke="#827365" stroke-linecap="round" stroke-linejoin="round"></path>
            <g id="Group-2" transform="translate(51.000000, 14.000000)" fill-rule="nonzero">
                <path d="M10.3242716,1.86558247 L14.7437844,9.59972995 L0.695299856,9.59972995 L5.1148127,1.86558247 C5.93684261,0.42703013 7.7694066,-0.0727600504 9.20795894,0.749269858 C9.67305277,1.01503776 10.0585037,1.40048864 10.3242716,1.86558247 Z" id="Triangle-Copy-4" fill="#DDC7AE"></path>
                <path d="M8.58778527,6.45964674 L10.3821185,9.59972995 L5.05696573,9.59972995 L6.85129899,6.45964674 C7.12530896,5.9801293 7.73616362,5.81353257 8.21568107,6.08754254 C8.37071234,6.17613184 8.49919597,6.30461547 8.58778527,6.45964674 Z" id="Triangle-Copy-5" fill="#827365"></path>
            </g>
            <g id="Group-2-Copy" transform="translate(22.000000, 14.000000)" fill-rule="nonzero">
                <path d="M10.3242716,1.86558247 L14.7437844,9.59972995 L0.695299856,9.59972995 L5.1148127,1.86558247 C5.93684261,0.42703013 7.7694066,-0.0727600504 9.20795894,0.749269858 C9.67305277,1.01503776 10.0585037,1.40048864 10.3242716,1.86558247 Z" id="Triangle-Copy-4" fill="#DDC7AE"></path>
                <path d="M8.58778527,6.45964674 L10.3821185,9.59972995 L5.05696573,9.59972995 L6.85129899,6.45964674 C7.12530896,5.9801293 7.73616362,5.81353257 8.21568107,6.08754254 C8.37071234,6.17613184 8.49919597,6.30461547 8.58778527,6.45964674 Z" id="Triangle-Copy-5" fill="#827365"></path>
            </g>
            <polygon id="Rectangle-3-Copy" fill-opacity="0.1" fill="#000000" fill-rule="nonzero" points="56.4398564 87 64.4499102 87 65.2600098 90 56.4398564 90"></polygon>
            <polygon id="Rectangle-3-Copy-3" fill-opacity="0.1" fill="#000000" fill-rule="nonzero" points="28.8159593 87 36.8260132 87 37.6361127 90 28.8159593 90"></polygon>
            <path d="M94.4868891,59.9014842 C92.2743218,59.9014842 90.4818622,58.1148175 90.4818622,55.9094008 L90.4818622,41.1554425 L98.4919161,41.1554425 L98.4919161,55.9094008 C98.4919161,58.1148175 96.6994565,59.9014842 94.4868891,59.9014842 Z" id="Shape-Copy-6" fill="#DDC7AE" fill-rule="nonzero" transform="translate(94.486889, 50.528463) rotate(-125.000000) translate(-94.486889, -50.528463) "></path>
            <g id="Group-28" transform="translate(48.500000, 0.000000)" fill-rule="nonzero">
                <g id="Group-27" fill="#FF9012">
                    <g id="Group-25" transform="translate(3.250000, 2.250000)">
                        <ellipse id="Oval-2" transform="translate(8.250000, 5.250000) rotate(90.000000) translate(-8.250000, -5.250000) " cx="8.25" cy="5.25" rx="1.5" ry="2.25"></ellipse>
                        <ellipse id="Oval-2" cx="5.25" cy="2.25" rx="1.5" ry="2.25"></ellipse>
                        <ellipse id="Oval-2" transform="translate(2.250000, 5.250000) rotate(-90.000000) translate(-2.250000, -5.250000) " cx="2.25" cy="5.25" rx="1.5" ry="2.25"></ellipse>
                        <ellipse id="Oval-2" transform="translate(5.250000, 8.250000) rotate(-180.000000) translate(-5.250000, -8.250000) " cx="5.25" cy="8.25" rx="1.5" ry="2.25"></ellipse>
                    </g>
                    <g id="Group-25" transform="translate(8.500000, 7.853553) rotate(45.000000) translate(-8.500000, -7.853553) translate(3.000000, 2.353553)">
                        <ellipse id="Oval-2" transform="translate(8.250000, 5.250000) rotate(90.000000) translate(-8.250000, -5.250000) " cx="8.25" cy="5.25" rx="1.5" ry="2.25"></ellipse>
                        <ellipse id="Oval-2" cx="5.25" cy="2.25" rx="1.5" ry="2.25"></ellipse>
                        <ellipse id="Oval-2" transform="translate(2.250000, 5.250000) rotate(-90.000000) translate(-2.250000, -5.250000) " cx="2.25" cy="5.25" rx="1.5" ry="2.25"></ellipse>
                        <ellipse id="Oval-2" transform="translate(5.250000, 8.250000) rotate(-180.000000) translate(-5.250000, -8.250000) " cx="5.25" cy="8.25" rx="1.5" ry="2.25"></ellipse>
                    </g>
                </g>
                <path d="M8.5,9 C7.67263564,9 7,8.32716744 7,7.49991958 C7,6.67267171 7.67263564,6 8.5,6 C9.32720352,6 10,6.67267171 10,7.49991958 C10,8.32716744 9.32720352,9 8.5,9" id="Fill-4" fill="#FFE48F"></path>
            </g>
            <path d="M12,69 L75.8520978,69 L75.8520978,83.7460417 C75.8520978,85.9551807 74.0612368,87.7460417 71.8520978,87.7460417 L16,87.7460417 C13.790861,87.7460417 12,85.9551807 12,83.7460417 L12,69 Z" id="Rectangle-6-Copy" fill="#B9DA8D" fill-rule="nonzero"></path>
            <path d="M51.2508673,78.013885 L49.5466404,79.7181119 C49.4707348,79.7951635 49.3556494,79.8184126 49.2557857,79.7768693 C49.1559219,79.7353259 49.0912823,79.6373113 49.0924222,79.5291571 L49.0924222,78.9223215 C49.0924222,78.7758206 48.9736597,78.6570581 48.8271587,78.6570581 L47.893286,78.6570581 C47.7467851,78.6570581 47.6280226,78.7758206 47.6280226,78.9223215 L47.6280226,80.1396264 C47.6280226,80.2861274 47.7467851,80.4048899 47.893286,80.4048899 L48.2057882,80.4048899 C48.3139423,80.40375 48.411957,80.4683896 48.4535003,80.5682533 C48.4950437,80.6681171 48.4717946,80.7832025 48.394743,80.8591081 L46.6905161,82.563335 C46.5884079,82.6593224 46.4292497,82.6593224 46.3271415,82.563335 L44.6229146,80.8591081 C44.545863,80.7832025 44.5226139,80.6681171 44.5641573,80.5682533 C44.6057006,80.4683896 44.7037153,80.40375 44.8118694,80.4048899 L45.175244,80.4048899 C45.321745,80.4048899 45.4405075,80.2861274 45.4405075,80.1396264 L45.4405075,78.9404903 C45.4405075,78.7939893 45.321745,78.6752268 45.175244,78.6752268 L43.1330788,78.6752268 C42.9865778,78.6752268 42.8678153,78.7939893 42.8678153,78.9404903 L42.8678153,80.1396264 C42.8678153,80.2861274 42.9865778,80.4048899 43.1330788,80.4048899 L43.5182559,80.4048899 C43.62641,80.40375 43.7244247,80.4683896 43.765968,80.5682533 C43.8075114,80.6681171 43.7842623,80.7832025 43.7072107,80.8591081 L42.0029838,82.563335 C41.9008756,82.6593224 41.7417174,82.6593224 41.6396092,82.563335 L39.9353823,80.8591081 C39.8583307,80.7832025 39.8350816,80.6681171 39.876625,80.5682533 C39.9181683,80.4683896 40.016183,80.40375 40.1243371,80.4048899 L40.4005018,80.4048899 C40.5470028,80.4048899 40.6657653,80.2861274 40.6657653,80.1396264 L40.6657653,78.9223215 C40.6657653,78.7758206 40.5470028,78.6570581 40.4005018,78.6570581 L39.4811641,78.6570581 C39.3346631,78.6570581 39.2159006,78.7758206 39.2159006,78.9223215 L39.2159006,79.5218896 C39.2170406,79.6300438 39.152401,79.7280585 39.0525372,79.7696018 C38.9526734,79.8111451 38.8375881,79.787896 38.7616824,79.7108444 L37.0719905,78.013885 C36.9760032,77.9117769 36.9760032,77.7526186 37.0719905,77.6505104 L38.7762174,75.9462836 C38.8521231,75.869232 38.9672084,75.8459829 39.0670722,75.8875262 C39.1669359,75.9290695 39.2315756,76.0270842 39.2304356,76.1352384 L39.2304356,76.7348065 C39.2304356,76.8813074 39.3491981,77.0000699 39.4956991,77.0000699 L40.4005018,77.0000699 C40.5470028,77.0000699 40.6657653,76.8813074 40.6657653,76.7348065 L40.6657653,75.4993328 C40.6657653,75.3528319 40.5470028,75.2340694 40.4005018,75.2340694 L40.0989009,75.2340694 C39.9907468,75.2352093 39.8927321,75.1705697 39.8511887,75.0707059 C39.8096454,74.9708421 39.8328945,74.8557568 39.9099461,74.7798511 L41.614173,73.0756243 C41.7162812,72.9796369 41.8754394,72.9796369 41.9775476,73.0756243 L43.6708732,74.7762174 C43.7479248,74.8521231 43.7711739,74.9672084 43.7296306,75.0670722 C43.6880873,75.1669359 43.5900726,75.2315756 43.4819184,75.2304356 L43.0967413,75.2304356 C42.9502404,75.2304356 42.8314779,75.3491981 42.8314779,75.4956991 L42.8314779,76.6875678 C42.8314779,76.8340687 42.9502404,76.9528312 43.0967413,76.9528312 L45.1389066,76.9528312 C45.2854075,76.9528312 45.40417,76.8340687 45.40417,76.6875678 L45.40417,75.4956991 C45.40417,75.3491981 45.2854075,75.2304356 45.1389066,75.2304356 L44.775532,75.2304356 C44.6673778,75.2315756 44.5693631,75.1669359 44.5278198,75.0670722 C44.4862765,74.9672084 44.5095256,74.8521231 44.5865772,74.7762174 L46.2908041,73.0719905 C46.3929122,72.9760032 46.5520705,72.9760032 46.6541786,73.0719905 L48.394743,74.7762174 C48.4717946,74.8521231 48.4950437,74.9672084 48.4535003,75.0670722 C48.411957,75.1669359 48.3139423,75.2315756 48.2057882,75.2304356 L47.893286,75.2304356 C47.7467851,75.2304356 47.6280226,75.3491981 47.6280226,75.4956991 L47.6280226,76.713004 C47.6280226,76.8595049 47.7467851,76.9782674 47.893286,76.9782674 L48.8271587,76.9782674 C48.9736597,76.9782674 49.0924222,76.8595049 49.0924222,76.713004 L49.0924222,76.1170696 C49.0912823,76.0089155 49.1559219,75.9109008 49.2557857,75.8693575 C49.3556494,75.8278141 49.4707348,75.8510632 49.5466404,75.9281149 L51.2508673,77.6505104 C51.3468547,77.7526186 51.3468547,77.9117769 51.2508673,78.013885 Z" id="Shape" fill="#FFFFFF" fill-rule="nonzero"></path>
        </g>
    </g>
</svg>
