
<svg width="100px" height="100px" viewBox="0 0 100 100" version="1.1" xmlns="http://www.w3.org/2000/svg" xmlns:xlink="http://www.w3.org/1999/xlink">
  <g>
    <path d="M41.5037594,96.1940299 L3.53383459,58.5074627 C-1.12781955,53.880597 -1.12781955,46.4179104 3.53383459,41.7910448 L41.5037594,4.10447761 C46.1654135,-0.52238806 53.6842105,-0.52238806 58.3458647,4.10447761 L96.2406015,41.8656716 C100.902256,46.4925373 100.902256,53.9552239 96.2406015,58.5820896 L58.2706767,96.2686567 C53.6842105,100.820896 46.1654135,100.820896 41.5037594,96.1940299" id="Shape" fill="#88B09A"></path>
    <path d="M78.9473684,49.4776119 L71.9548872,42.5373134 C71.2781955,41.8656716 70.075188,42.3134328 70.075188,43.2835821 L70.075188,45.7462687 C70.075188,46.3432836 69.6240602,46.7910448 69.0225564,46.7910448 L65.1879699,46.7910448 C64.5864662,46.7910448 64.1353383,46.3432836 64.1353383,45.7462687 L64.1353383,40.8208955 C64.1353383,40.2238806 64.5864662,39.7761194 65.1879699,39.7761194 L66.4661654,39.7761194 C67.443609,39.7761194 67.8947368,38.5820896 67.2180451,37.9104478 L60.2255639,30.9701493 C59.7744361,30.5223881 59.0977444,30.5223881 58.7218045,30.9701493 L51.7293233,37.9104478 C51.0526316,38.5820896 51.5037594,39.7761194 52.481203,39.7761194 L53.9849624,39.7761194 C54.5864662,39.7761194 55.037594,40.2238806 55.037594,40.8208955 L55.037594,45.6716418 C55.037594,46.2686567 54.5864662,46.7164179 53.9849624,46.7164179 L45.6390977,46.7164179 C45.037594,46.7164179 44.5864662,46.2686567 44.5864662,45.6716418 L44.5864662,40.8208955 C44.5864662,40.2238806 45.037594,39.7761194 45.6390977,39.7761194 L47.2180451,39.7761194 C48.1954887,39.7761194 48.6466165,38.5820896 47.9699248,37.9104478 L40.9774436,30.9701493 C40.5263158,30.5223881 39.8496241,30.5223881 39.4736842,30.9701493 L32.481203,37.9104478 C31.8045113,38.5820896 32.2556391,39.7761194 33.2330827,39.7761194 L34.4360902,39.7761194 C35.037594,39.7761194 35.4887218,40.2238806 35.4887218,40.8208955 L35.4887218,45.7462687 C35.4887218,46.3432836 35.037594,46.7910448 34.4360902,46.7910448 L30.6766917,46.7910448 C30.075188,46.7910448 29.6240602,46.3432836 29.6240602,45.7462687 L29.6240602,43.2835821 C29.6240602,42.3134328 28.4210526,41.8656716 27.7443609,42.5373134 L20.7518797,49.4776119 C20.3007519,49.9253731 20.3007519,50.5970149 20.7518797,50.9701493 L27.7443609,57.9104478 C28.4210526,58.5820896 29.6240602,58.1343284 29.6240602,57.1641791 L29.6240602,54.7014925 C29.6240602,54.1044776 30.075188,53.6567164 30.6766917,53.6567164 L34.4360902,53.6567164 C35.037594,53.6567164 35.4887218,54.1044776 35.4887218,54.7014925 L35.4887218,59.6268657 C35.4887218,60.2238806 35.037594,60.6716418 34.4360902,60.6716418 L33.2330827,60.6716418 C32.2556391,60.6716418 31.8045113,61.8656716 32.481203,62.5373134 L39.4736842,69.4776119 C39.924812,69.9253731 40.6015038,69.9253731 40.9774436,69.4776119 L47.9699248,62.5373134 C48.6466165,61.8656716 48.1954887,60.6716418 47.2180451,60.6716418 L45.6390977,60.6716418 C45.037594,60.6716418 44.5864662,60.2238806 44.5864662,59.6268657 L44.5864662,54.7761194 C44.5864662,54.1791045 45.037594,53.7313433 45.6390977,53.7313433 L53.9849624,53.7313433 C54.5864662,53.7313433 55.037594,54.1791045 55.037594,54.7761194 L55.037594,59.6268657 C55.037594,60.2238806 54.5864662,60.6716418 53.9849624,60.6716418 L52.481203,60.6716418 C51.5037594,60.6716418 51.0526316,61.8656716 51.7293233,62.5373134 L58.7218045,69.4776119 C59.1729323,69.9253731 59.8496241,69.9253731 60.2255639,69.4776119 L67.2180451,62.5373134 C67.8947368,61.8656716 67.443609,60.6716418 66.4661654,60.6716418 L65.1879699,60.6716418 C64.5864662,60.6716418 64.1353383,60.2238806 64.1353383,59.6268657 L64.1353383,54.7014925 C64.1353383,54.1044776 64.5864662,53.6567164 65.1879699,53.6567164 L69.0225564,53.6567164 C69.6240602,53.6567164 70.075188,54.1044776 70.075188,54.7014925 L70.075188,57.1641791 C70.075188,58.1343284 71.2781955,58.5820896 71.9548872,57.9104478 L78.9473684,50.9701493 C79.3984962,50.5223881 79.3984962,49.8507463 78.9473684,49.4776119" id="Shape" fill="#FFFFFF"></path>
  </g>
</svg>
