<svg xmlns="http://www.w3.org/2000/svg" viewBox="0 0 400 300"><defs><style>.cls-1{fill:#87af9a;}.cls-2{fill:#fff;}</style></defs><title>Asset 1</title><g id="Layer_2" data-name="Layer 2"><g id="Layer_1-2" data-name="Layer 1"><rect class="cls-1" width="400" height="300"/><g id="Layer_2-2" data-name="Layer 2"><g id="Layer_1-2-2" data-name="Layer 1-2"><path class="cls-2" d="M177.76,166.51c-6.68,0-11.37-4.61-11.42-11.24S171,144,177.71,143.89c6.51,0,11.29,4.49,11.35,10.79a11.89,11.89,0,0,1-3.13,8.71,11.11,11.11,0,0,1-8.07,3.13Zm11.56-24.46a16.53,16.53,0,0,0-12.45-3.8,16.16,16.16,0,0,0-9.1,3.7.91.91,0,0,1-1.53-.67V126.6a.91.91,0,0,0-.91-.91h-3.88a.91.91,0,0,0-.91.84V127a8.34,8.34,0,0,0-.07.95v26.71a20.59,20.59,0,0,0,.35,4.25c1.83,8.45,8.06,13.23,17.14,13.23h.46c7.27-.13,13.23-4.19,15.62-10.6A17.63,17.63,0,0,0,189.36,142"/><path class="cls-2" d="M150.21,155.06a10.93,10.93,0,0,1-10.38,11.46q-.46,0-.91,0h-.07c-6.61,0-11.32-4.55-11.35-11.1,0-6.87,4.52-11.51,11.32-11.54h.07a10.93,10.93,0,0,1,11.33,10.53q0,.32,0,.65m2.3-10.72c-5-6.23-14.58-8-22.16-4.22-7,3.5-10.44,11.51-8.46,19.48,1.57,6.32,5.61,10.47,11.69,12a20.41,20.41,0,0,0,5,.66,14.58,14.58,0,0,0,10.92-4.74,12.4,12.4,0,0,0,1-1.22v4.12a.91.91,0,0,0,.91.91H155a.91.91,0,0,0,.91-.91h0v-5.29c0-4.16.06-8.45-.09-12.66a13.7,13.7,0,0,0-3.39-8.12"/><path class="cls-2" d="M268.44,155.06a10.93,10.93,0,0,1-10.38,11.46q-.47,0-.94,0h0c-6.61,0-11.32-4.55-11.35-11.1,0-6.87,4.52-11.51,11.32-11.54h0a10.93,10.93,0,0,1,11.33,10.53q0,.32,0,.65m2.3-10.72c-5-6.23-14.58-8-22.16-4.22-6.9,3.5-10.4,11.51-8.43,19.48,1.57,6.32,5.61,10.47,11.69,12a20.41,20.41,0,0,0,5,.66,14.58,14.58,0,0,0,10.92-4.74,12.4,12.4,0,0,0,1-1.22v4.12a.91.91,0,0,0,.91.91h3.56a.91.91,0,0,0,.91-.91h0v-5.29c0-4.16.06-8.45-.09-12.66a13.7,13.7,0,0,0-3.39-8.12"/><path class="cls-2" d="M105.81,138.44c-5-.82-9,.15-12.12,2.87a.91.91,0,0,1-1.53-.68v-14a.91.91,0,0,0-.91-.91h-4a.91.91,0,0,0-.91.91h0v43.86a.91.91,0,0,0,.91.91h4.06a.91.91,0,0,0,.91-.91h0V154.28a10.6,10.6,0,0,1,3-7.91c1.93-1.81,4.75-2.65,8.19-2.42,5.11.32,8.46,3.55,8.73,8.43.2,3.69.21,7.47.22,11.12v6.91a.91.91,0,0,0,.91.91h4a.91.91,0,0,0,.91-.91h0V153.06c-.12-7.9-4.75-13.37-12.38-14.63"/><path class="cls-2" d="M236,157.7h-4.5a.91.91,0,0,0-.91.85v.66c0,.46-.08.9-.11,1.34-.25,3.6-2.44,5.7-6.15,5.92-2.57.14-6.94-.31-7.31-5-.32-4-.32-8-.33-12v-3.95a.91.91,0,0,1,.9-.93h11.57a.91.91,0,0,0,.61-1.61l-4.41-3.85a.91.91,0,0,0-.61-.23h-7.27a.91.91,0,0,1-.91-.91h0v-6.14a.91.91,0,0,0-.91-.91h-3.82a.91.91,0,0,0-.91.91h0v1.84c0,.18-.09,17.51.07,28.25a9.92,9.92,0,0,0,3.6,7.16,13,13,0,0,0,9,3.09,16,16,0,0,0,2.2-.1,11.73,11.73,0,0,0,8.39-4.82,11,11,0,0,0,2-8.91Z"/><path class="cls-2" d="M303.18,158.49l-.11-.79h-4.65a.91.91,0,0,0-.91.85v.71c0,.41-.06.79-.08,1.17-.24,3.65-2.39,5.78-6.06,6-2.61.15-7-.29-7.42-5.06-.37-4-.37-8.19-.37-12.21v-3.66a.91.91,0,0,1,.9-.93h11.35a.91.91,0,0,0,.57-1.64l-4.82-3.8a.91.91,0,0,0-.57-.2H284.4a.91.91,0,0,1-.91-.91h0v-5.9a.91.91,0,0,0-.91-.91h-4a.91.91,0,0,0-.91.91h0V134c0,.18-.08,17.27.17,27.89a10.59,10.59,0,0,0,8.6,9.83,20.94,20.94,0,0,0,4.54.43h.78a11.69,11.69,0,0,0,8.82-4.07,12,12,0,0,0,2.65-9.56"/><path class="cls-2" d="M200.37,171.3h3.85a.91.91,0,0,0,.91-.91h0V140a.91.91,0,0,0-.9-.91l-3.88-.08a.91.91,0,0,0-.94.89v30.51a.91.91,0,0,0,.91.91h0"/><path class="cls-2" d="M200.37,135.1h3.85a.91.91,0,0,0,.91-.91h0V130.3a.91.91,0,0,0-.91-.91h-3.88a.91.91,0,0,0-.91.91h0v3.88a.91.91,0,0,0,.91.91h0"/><path class="cls-2" d="M360.15,104.3,332.07,76.2a8.82,8.82,0,0,0-12.44,0L291.53,104.3a8.82,8.82,0,0,0,0,12.44l28.08,28.09a8.82,8.82,0,0,0,12.44,0l28.09-28.09A8.82,8.82,0,0,0,360.15,104.3Zm-12.81,6.8-5.17,5.17a.8.8,0,0,1-1.38-.57v-1.83a.8.8,0,0,0-.8-.8h-2.83a.8.8,0,0,0-.8.8v3.69a.8.8,0,0,0,.8.8h.95a.8.8,0,0,1,.57,1.38l-5.17,5.17a.8.8,0,0,1-1.1,0l-5.17-5.17a.8.8,0,0,1,.57-1.38h1.1a.8.8,0,0,0,.8-.8v-3.64a.8.8,0,0,0-.8-.8h-6.19a.8.8,0,0,0-.8.8v3.64a.8.8,0,0,0,.8.8h1.17a.8.8,0,0,1,.57,1.38l-5.17,5.17a.8.8,0,0,1-1.1,0L313,119.74a.8.8,0,0,1,.57-1.38h.84a.8.8,0,0,0,.8-.8v-3.69a.8.8,0,0,0-.8-.8h-2.79a.8.8,0,0,0-.8.8v1.82a.8.8,0,0,1-1.38.57l-5.13-5.16a.8.8,0,0,1,0-1.1l5.17-5.17a.8.8,0,0,1,1.38.57v1.82a.8.8,0,0,0,.8.8h2.74a.8.8,0,0,0,.8-.8v-3.75a.8.8,0,0,0-.8-.8h-.91a.8.8,0,0,1-.57-1.38l5.17-5.17a.8.8,0,0,1,1.1,0l5.17,5.17a.8.8,0,0,1-.57,1.38h-1.17a.8.8,0,0,0-.8.8v3.62a.8.8,0,0,0,.8.8h6.19a.8.8,0,0,0,.8-.8v-3.62a.8.8,0,0,0-.8-.8h-1.1a.8.8,0,0,1-.57-1.38l5.17-5.17a.8.8,0,0,1,1.1,0l5.25,5.17a.8.8,0,0,1-.57,1.38h-.95a.8.8,0,0,0-.8.8v3.69a.8.8,0,0,0,.8.8H340a.8.8,0,0,0,.8-.8v-1.81a.8.8,0,0,1,1.38-.57l5.17,5.21A.8.8,0,0,1,347.34,111.1Z"/></g></g></g></g></svg>