<?xml version="1.0" encoding="UTF-8" standalone="no"?>
<svg width="24px" height="24px" viewBox="0 0 24 24" version="1.1" xmlns="http://www.w3.org/2000/svg" xmlns:xlink="http://www.w3.org/1999/xlink">
    <!-- Generator: Sketch 39.1 (31720) - http://www.bohemiancoding.com/sketch -->
    <title>icon-gear</title>
    <desc>Created with Sketch.</desc>
    <defs></defs>
    <g id="Symbols" stroke="none" stroke-width="1" fill="none" fill-rule="evenodd">
        <g id="Origin-Package" transform="translate(-443.000000, -20.000000)" fill="#87B09A">
            <g id="Settings" transform="translate(443.000000, 20.000000)">
                <path d="M19.6406455,12.98 C19.6817687,12.66 19.7126111,12.34 19.7126111,12 C19.7126111,11.66 19.6817687,11.34 19.6406455,11.02 L21.8098936,9.37 C22.0052287,9.22 22.0566327,8.95 21.9332631,8.73 L19.8771038,5.27 C19.7537343,5.05 19.4761528,4.97 19.2499752,5.05 L16.690571,6.05 C16.1559696,5.65 15.580245,5.32 14.9531164,5.07 L14.5624461,2.42 C14.5316037,2.18 14.315707,2 14.0586871,2 L9.94636849,2 C9.68934858,2 9.47345186,2.18 9.44260947,2.42 L9.0519392,5.07 C8.42481062,5.32 7.84908602,5.66 7.3144846,6.05 L4.75456629,5.05 C4.51810797,4.96 4.25080726,5.05 4.1274377,5.27 L2.07127841,8.73 C1.93762806,8.95 1.99931284,9.22 2.19464797,9.37 L4.36389602,11.02 C4.32277283,11.34 4.29193044,11.67 4.29193044,12 C4.29193044,12.33 4.32277283,12.66 4.36389602,12.98 L2.19464797,14.63 C1.99931284,14.78 1.94790885,15.05 2.07127841,15.27 L4.1274377,18.73 C4.25080726,18.95 4.52838876,19.03 4.75456629,18.95 L7.3144846,17.95 C7.84908602,18.35 8.42481062,18.68 9.0519392,18.93 L9.44260947,21.58 C9.47345186,21.82 9.68934858,22 9.94636849,22 L14.0586871,22 C14.315707,22 14.5316037,21.82 14.5624461,21.58 L14.9531164,18.93 C15.580245,18.68 16.1559696,18.34 16.690571,17.95 L19.2499752,18.95 C19.4864336,19.04 19.7537343,18.95 19.8771038,18.73 L21.9332631,15.27 C22.0566327,15.05 22.0052287,14.78 21.8098936,14.63 L19.6406455,12.98 L19.6406455,12.98 Z M12.0025278,15.5 C10.0183341,15.5 8.40424903,13.93 8.40424903,12 C8.40424903,10.07 10.0183341,8.5 12.0025278,8.5 C13.9867215,8.5 15.6008065,10.07 15.6008065,12 C15.6008065,13.93 13.9867215,15.5 12.0025278,15.5 L12.0025278,15.5 Z" id="Fill-90"></path>
            </g>
        </g>
    </g>
</svg>