<?xml version="1.0" encoding="UTF-8"?>
<svg width="20px" height="148px" viewBox="0 0 20 148" version="1.1" xmlns="http://www.w3.org/2000/svg" xmlns:xlink="http://www.w3.org/1999/xlink">
    <!-- Generator: Sketch 43.2 (39069) - http://www.bohemiancoding.com/sketch -->
    <title>icons-social</title>
    <desc>Created with Sketch.</desc>
    <defs></defs>
    <g id="Symbols" stroke="none" stroke-width="1" fill="none" fill-rule="evenodd">
        <g id="footer" transform="translate(-1076.000000, -113.000000)" fill="#FFFFFF">
            <g id="icons-social" transform="translate(1076.000000, 113.000000)">
                <path d="M11.9661458,79.2994792 L11.9661458,77.2552083 C11.9661458,76.8211784 11.840279,76.6041667 11.5885417,76.6041667 C11.4409715,76.6041667 11.2977438,76.6736104 11.1588542,76.8125 L11.1588542,79.7291667 C11.2977438,79.8680562 11.4409715,79.9375 11.5885417,79.9375 C11.840279,79.9375 11.9661458,79.7248285 11.9661458,79.2994792 Z M14.3619792,77.7109375 L15.2213542,77.7109375 L15.2213542,77.2682292 C15.2213542,76.8255186 15.0781264,76.6041667 14.7916667,76.6041667 C14.5052069,76.6041667 14.3619792,76.8255186 14.3619792,77.2682292 L14.3619792,77.7109375 Z M6.92708333,74.2473958 L6.92708333,75.1588542 L5.88541667,75.1588542 L5.88541667,80.6666667 L4.921875,80.6666667 L4.921875,75.1588542 L3.90625,75.1588542 L3.90625,74.2473958 L6.92708333,74.2473958 Z M9.54427083,75.8880208 L9.54427083,80.6666667 L8.671875,80.6666667 L8.671875,80.1458333 C8.33333164,80.5364603 8.00347383,80.7317708 7.68229167,80.7317708 C7.3958319,80.7317708 7.21354206,80.6102443 7.13541667,80.3671875 C7.08333307,80.2196173 7.05729167,79.9852447 7.05729167,79.6640625 L7.05729167,75.8880208 L7.91666667,75.8880208 L7.91666667,79.4036458 C7.91666667,79.6119802 7.9210069,79.7248263 7.9296875,79.7421875 C7.9383681,79.8723965 8.00347161,79.9375 8.125,79.9375 C8.29861198,79.9375 8.48090182,79.8029527 8.671875,79.5338542 L8.671875,75.8880208 L9.54427083,75.8880208 Z M12.8255208,77.3333333 L12.8255208,79.234375 C12.8255208,79.6857661 12.7951392,80.0026033 12.734375,80.1848958 C12.6302078,80.549481 12.4001754,80.7317708 12.0442708,80.7317708 C11.7404499,80.7317708 11.4453139,80.5538212 11.1588542,80.1979167 L11.1588542,80.6666667 L10.2864583,80.6666667 L10.2864583,74.2473958 L11.1588542,74.2473958 L11.1588542,76.34375 C11.4366333,75.996526 11.7317693,75.8229167 12.0442708,75.8229167 C12.4001754,75.8229167 12.6302078,76.0052065 12.734375,76.3697917 C12.7951392,76.5520842 12.8255208,76.8732616 12.8255208,77.3333333 Z M16.09375,79.0130208 L16.09375,79.1302083 C16.09375,79.3819457 16.0850695,79.5685758 16.0677083,79.6901042 C16.0416665,79.8810773 15.976563,80.0546867 15.8723958,80.2109375 C15.6380197,80.5581615 15.2908009,80.7317708 14.8307292,80.7317708 C14.379338,80.7317708 14.027779,80.5668419 13.7760417,80.2369792 C13.5937491,80.002603 13.5026042,79.6293428 13.5026042,79.1171875 L13.5026042,77.4375 C13.5026042,76.9253447 13.5894089,76.5520845 13.7630208,76.3177083 C14.0147582,75.9878456 14.361977,75.8229167 14.8046875,75.8229167 C15.247398,75.8229167 15.5859363,75.9878456 15.8203125,76.3177083 C16.0026051,76.5694457 16.09375,76.9427059 16.09375,77.4375 L16.09375,78.4270833 L14.3619792,78.4270833 L14.3619792,79.2734375 C14.3619792,79.716148 14.5095471,79.9375 14.8046875,79.9375 C15.0130219,79.9375 15.1432289,79.8246539 15.1953125,79.5989583 C15.1953125,79.5902777 15.1974826,79.5598961 15.2018229,79.5078125 C15.2061632,79.4557289 15.2083333,79.384115 15.2083333,79.2929688 L15.2083333,79.0130208 L16.09375,79.0130208 Z M10.2213542,68.2838542 L10.2213542,70.3151042 C10.2213542,70.7578147 10.0824667,70.9791667 9.8046875,70.9791667 C9.52690833,70.9791667 9.38802083,70.7578147 9.38802083,70.3151042 L9.38802083,68.2838542 C9.38802083,67.832463 9.52690833,67.6067708 9.8046875,67.6067708 C10.0824667,67.6067708 10.2213542,67.832463 10.2213542,68.2838542 Z M17.1614583,77.5677083 C17.1614583,76.0312423 17.0789939,74.9027814 16.9140625,74.1822917 C16.8272565,73.8003453 16.6406264,73.4813381 16.3541667,73.2252604 C16.0677069,72.9691827 15.7378491,72.8194447 15.3645833,72.7760417 C14.1840219,72.6458327 12.3958453,72.5807292 10,72.5807292 C7.61283529,72.5807292 5.82899896,72.6458327 4.6484375,72.7760417 C4.26649115,72.8194447 3.93446322,72.9691827 3.65234375,73.2252604 C3.37022428,73.4813381 3.18576432,73.8003453 3.09895833,74.1822917 C2.92534635,74.9375038 2.83854167,76.0659647 2.83854167,77.5677083 C2.83854167,79.0954938 2.92534635,80.2239547 3.09895833,80.953125 C3.18576432,81.3263908 3.37022428,81.6432279 3.65234375,81.9036458 C3.93446322,82.1640638 4.26215091,82.315972 4.63541667,82.359375 C5.82465872,82.489584 7.61283529,82.5546875 10,82.5546875 C12.3871647,82.5546875 14.1753413,82.489584 15.3645833,82.359375 C15.7378491,82.315972 16.0655368,82.1640638 16.3476562,81.9036458 C16.6297757,81.6432279 16.8142357,81.3263908 16.9010417,80.953125 C17.0746536,80.2239547 17.1614583,79.0954938 17.1614583,77.5677083 Z M7.33072917,69.0911458 L8.50260417,65.2369792 L7.52604167,65.2369792 L6.86197917,67.7760417 L6.171875,65.2369792 L5.15625,65.2369792 C5.21701419,65.4366329 5.31683958,65.7361091 5.45572917,66.1354167 L5.76822917,67.0338542 C6.07205013,67.9279559 6.27170091,68.6137129 6.3671875,69.0911458 L6.3671875,71.7083333 L7.33072917,71.7083333 L7.33072917,69.0911458 Z M11.09375,70.1458333 L11.09375,68.453125 C11.09375,67.9496503 11.0026051,67.5720499 10.8203125,67.3203125 C10.5685751,66.9904497 10.2300368,66.8255208 9.8046875,66.8255208 C9.36197695,66.8255208 9.02343867,66.9904497 8.7890625,67.3203125 C8.60676992,67.5720499 8.515625,67.9496503 8.515625,68.453125 L8.515625,70.1458333 C8.515625,70.6493081 8.60676992,71.0269085 8.7890625,71.2786458 C9.02343867,71.6085086 9.36197695,71.7734375 9.8046875,71.7734375 C10.2300368,71.7734375 10.5685751,71.6085086 10.8203125,71.2786458 C11.0026051,71.0442697 11.09375,70.6666693 11.09375,70.1458333 Z M13.4505208,71.7083333 L14.3229167,71.7083333 L14.3229167,66.890625 L13.4505208,66.890625 L13.4505208,70.5755208 C13.2595477,70.8446194 13.0772578,70.9791667 12.9036458,70.9791667 C12.7734368,70.9791667 12.7039931,70.9097229 12.6953125,70.7708333 C12.6866319,70.7534721 12.6822917,70.640626 12.6822917,70.4322917 L12.6822917,66.890625 L11.8098958,66.890625 L11.8098958,70.7057292 C11.8098958,71.0269113 11.8359372,71.2656242 11.8880208,71.421875 C11.9835074,71.6562512 12.1701375,71.7734375 12.4479167,71.7734375 C12.7604182,71.7734375 13.0946163,71.578127 13.4505208,71.1875 L13.4505208,71.7083333 Z M20,67.75 L20,80.25 C20,81.2829913 19.6332502,82.166229 18.8997396,82.8997396 C18.166229,83.6332502 17.2829913,84 16.25,84 L3.75,84 C2.71700872,84 1.83377103,83.6332502 1.10026042,82.8997396 C0.366749805,82.166229 0,81.2829913 0,80.25 L0,67.75 C0,66.7170087 0.366749805,65.833771 1.10026042,65.1002604 C1.83377103,64.3667498 2.71700872,64 3.75,64 L16.25,64 C17.2829913,64 18.166229,64.3667498 18.8997396,65.1002604 C19.6332502,65.833771 20,66.7170087 20,67.75 Z" id="youtube"></path>
                <path d="M20,35.75 L20,48.25 C20,49.2829913 19.6332502,50.166229 18.8997396,50.8997396 C18.166229,51.6332502 17.2829913,52 16.25,52 L3.75,52 C2.71700872,52 1.83377103,51.6332502 1.10026042,50.8997396 C0.366749805,50.166229 0,49.2829913 0,48.25 L0,35.75 C0,34.7170087 0.366749805,33.833771 1.10026042,33.1002604 C1.83377103,32.3667498 2.71700872,32 3.75,32 L16.25,32 C17.2829913,32 18.166229,32.3667498 18.8997396,33.1002604 C19.6332502,33.833771 20,34.7170087 20,35.75 Z M15.7783565,41.3287037 C15.651041,41.3287037 15.5179405,41.3518516 15.3790509,41.3981481 L13.9554398,41.8842593 L13.0439815,39.1412037 L14.4068287,38.6724537 C14.6614596,38.5856477 14.8755778,38.436633 15.0491898,38.2254051 C15.2228018,38.0141772 15.3096065,37.7783578 15.3096065,37.5179398 C15.3096065,37.1765029 15.1866332,36.8914942 14.9406829,36.6629051 C14.6947326,36.434316 14.3981499,36.3200231 14.0509259,36.3200231 C13.9236105,36.3200231 13.7991904,36.3373841 13.677662,36.3721065 L12.271412,36.849537 L11.8113426,35.4519676 C11.7245366,35.1973367 11.5697349,34.9904522 11.3469329,34.8313079 C11.1241308,34.6721636 10.8767375,34.5925926 10.6047454,34.5925926 C10.2633085,34.5925926 9.96961929,34.7170126 9.72366898,34.9658565 C9.47771868,35.2147003 9.35474537,35.5098363 9.35474537,35.8512731 C9.35474537,35.9843757 9.37789329,36.1203697 9.42418981,36.2592593 L9.89293981,37.6481481 L7.20196759,38.5596065 L6.73321759,37.1707176 C6.6464116,36.9102996 6.49305666,36.7019684 6.27314815,36.5457176 C6.05323964,36.3894668 5.80729303,36.3113426 5.53530093,36.3113426 C5.18807697,36.3113426 4.89294103,36.4343159 4.64988426,36.6802662 C4.40682749,36.9262165 4.28530093,37.2227992 4.28530093,37.5700231 C4.28530093,37.7031257 4.30844884,37.8391197 4.35474537,37.9780093 L4.81481481,39.3582176 L3.45196759,39.818287 C3.19733669,39.905093 2.99045218,40.058448 2.83130787,40.2783565 C2.67216356,40.498265 2.59259259,40.7442116 2.59259259,41.0162037 C2.59259259,41.3634277 2.71122567,41.6542234 2.94849537,41.8885995 C3.18576508,42.1229757 3.47800752,42.240162 3.82523148,42.240162 C3.95254693,42.240162 4.09143443,42.2170141 4.24189815,42.1707176 L5.59606481,41.7019676 L6.50752315,44.4189815 L5.15335648,44.8790509 C4.89872558,44.9658569 4.69184107,45.1192119 4.53269676,45.3391204 C4.37355245,45.5590289 4.29398148,45.8049755 4.29398148,46.0769676 C4.29398148,46.4299786 4.41116781,46.7222211 4.64554398,46.9537037 C4.87992015,47.1851863 5.17360935,47.3009259 5.52662037,47.3009259 C5.64814876,47.3009259 5.79282323,47.2748845 5.96064815,47.2228009 L7.28877315,46.7627315 L7.7662037,48.177662 C7.85300969,48.43808 8.00636464,48.6464113 8.22627315,48.802662 C8.44618166,48.9589128 8.69212827,49.037037 8.96412037,49.037037 C9.31134433,49.037037 9.60648027,48.912617 9.84953704,48.6637731 C10.0925938,48.4149293 10.2141204,48.1197934 10.2141204,47.7783565 C10.2141204,47.645254 10.1909725,47.50926 10.1446759,47.3703704 L9.66724537,45.9467593 L12.3582176,45.0266204 L12.8356481,46.458912 C12.9224541,46.71933 13.0772558,46.9276613 13.3000579,47.083912 C13.5228599,47.2401628 13.7702533,47.318287 14.0422454,47.318287 C14.3836823,47.318287 14.6759247,47.193867 14.9189815,46.9450231 C15.1620383,46.6961793 15.2835648,46.4010434 15.2835648,46.0596065 C15.2835648,45.9091428 15.2633104,45.7731488 15.2228009,45.6516204 L14.7366898,44.2019676 L16.2297454,43.6898148 C16.7679425,43.4988416 17.037037,43.122688 17.037037,42.5613426 C17.037037,42.2083316 16.9169572,41.9146424 16.676794,41.6802662 C16.4366307,41.44589 16.1371546,41.3287037 15.7783565,41.3287037 Z M8.88599537,43.6030093 L7.97453704,40.8859954 L10.6655093,39.9571759 L11.5769676,42.6915509 L8.88599537,43.6030093 Z" id="slack"></path>
                <path d="M6.7578125,13.9583333 C6.7925349,13.9062497 6.77951419,13.8498267 6.71875,13.7890625 C6.64062461,13.7282983 6.57986133,13.7196178 6.53645833,13.7630208 C6.50173594,13.8151044 6.51475664,13.8715275 6.57552083,13.9322917 C6.65364622,13.9930559 6.71440951,14.0017363 6.7578125,13.9583333 Z M6.39322917,13.4244792 C6.34982617,13.363715 6.29774336,13.346354 6.23697917,13.3723958 C6.18489557,13.4071182 6.18489557,13.459201 6.23697917,13.5286458 C6.29774336,13.5980906 6.34982617,13.6197918 6.39322917,13.59375 C6.44531276,13.5590276 6.44531276,13.5026046 6.39322917,13.4244792 Z M5.859375,12.9036458 C5.8767362,12.8689234 5.85503503,12.8342016 5.79427083,12.7994792 C5.73350664,12.782118 5.69878477,12.7907984 5.69010417,12.8255208 C5.66406237,12.8689238 5.68142331,12.9036457 5.7421875,12.9296875 C5.81163229,12.9470487 5.8506944,12.9383682 5.859375,12.9036458 Z M6.1328125,13.203125 C6.1501737,13.1944444 6.15668405,13.1749133 6.15234375,13.1445313 C6.14800345,13.1141492 6.13281263,13.0902779 6.10677083,13.0729167 C6.05468724,13.0121525 6.0112849,12.9991318 5.9765625,13.0338542 C5.9418401,13.0685766 5.94618034,13.1163191 5.98958333,13.1770833 C6.04166693,13.2291669 6.08940951,13.2378474 6.1328125,13.203125 Z M7.25260417,14.1796875 C7.26996536,14.1189233 7.23090326,14.0711807 7.13541667,14.0364583 C7.05729128,14.0104165 7.00086823,14.0277775 6.96614583,14.0885417 C6.94878464,14.1493059 6.98784674,14.1970484 7.08333333,14.2317708 C7.16145872,14.2578126 7.21788177,14.2404517 7.25260417,14.1796875 Z M7.79947917,14.21875 C7.79947917,14.1493052 7.74739635,14.1145833 7.64322917,14.1145833 C7.55642318,14.1145833 7.51302083,14.1493052 7.51302083,14.21875 C7.51302083,14.2881948 7.56076341,14.3229167 7.65625,14.3229167 C7.75173659,14.3229167 7.79947917,14.2881948 7.79947917,14.21875 Z M8.30729167,14.1276042 C8.28993047,14.06684 8.23350742,14.0451388 8.13802083,14.0625 C8.04253424,14.0798612 8.00347214,14.1189233 8.02083333,14.1796875 C8.03819453,14.2491323 8.09027734,14.2751737 8.17708333,14.2578125 C8.26388932,14.2404513 8.30729167,14.197049 8.30729167,14.1276042 Z M16.6666667,10 C16.6666667,8.15971302 16.0156315,6.58854818 14.7135417,5.28645833 C13.4114518,3.98436849 11.840287,3.33333333 10,3.33333333 C8.15971302,3.33333333 6.58854818,3.98436849 5.28645833,5.28645833 C3.98436849,6.58854818 3.33333333,8.15971302 3.33333333,10 C3.33333333,11.44966 3.7586763,12.7539005 4.609375,13.9127604 C5.4600737,15.0716204 6.55381276,15.8767339 7.890625,16.328125 C8.04687578,16.3541668 8.16189199,16.3324656 8.23567708,16.2630208 C8.30946217,16.193576 8.34635417,16.1067714 8.34635417,16.0026042 C8.34635417,15.551213 8.34201393,15.1388908 8.33333333,14.765625 C8.28124974,14.7743056 8.21397611,14.7851562 8.13151042,14.7981771 C8.04904473,14.811198 7.89496641,14.8198785 7.66927083,14.8242188 C7.44357526,14.828559 7.23524401,14.8111981 7.04427083,14.7721354 C6.85329766,14.7330727 6.66449746,14.646268 6.47786458,14.5117188 C6.29123171,14.3771695 6.16319479,14.1970497 6.09375,13.9713542 C5.89409622,13.4591988 5.64670286,13.1380215 5.3515625,13.0078125 C5.3342013,12.9991319 5.31467025,12.9839411 5.29296875,12.9622396 L5.18880208,12.8580729 C5.14105879,12.8103296 5.11067715,12.7690974 5.09765625,12.734375 C5.08463535,12.6996526 5.10199629,12.6671008 5.14973958,12.6367188 C5.19748288,12.6063367 5.28211745,12.5911458 5.40364583,12.5911458 C5.45572943,12.5911458 5.52083294,12.5998263 5.59895833,12.6171875 C5.67708372,12.6345487 5.80729076,12.7018223 5.98958333,12.8190104 C6.17187591,12.9361985 6.31510365,13.0902768 6.41927083,13.28125 C6.55816042,13.5243068 6.72091921,13.7065966 6.90755208,13.828125 C7.09418496,13.9496534 7.28298516,14.0104167 7.47395833,14.0104167 C7.66493151,14.0104167 7.82986042,13.9952258 7.96875,13.9648438 C8.10763958,13.9344617 8.23784661,13.8932294 8.359375,13.8411458 C8.42013919,13.4331577 8.56336693,13.1336815 8.7890625,12.9427083 C8.36371315,12.8906247 7.99045299,12.8103304 7.66927083,12.7018229 C7.34808867,12.5933154 7.03125156,12.4240463 6.71875,12.1940104 C6.40624844,11.9639745 6.16536543,11.6341167 5.99609375,11.2044271 C5.82682207,10.7747374 5.7421875,10.2560794 5.7421875,9.6484375 C5.7421875,8.96267018 5.97221992,8.36805807 6.43229167,7.86458333 C6.22395729,7.3263862 6.24565846,6.73611432 6.49739583,6.09375 C6.66232721,6.04166641 6.89886999,6.07421816 7.20703125,6.19140625 C7.51519251,6.30859434 7.77777669,6.43663125 7.99479167,6.57552083 L8.33333333,6.78385417 C8.83680807,6.63628398 9.39235807,6.5625 10,6.5625 C10.6076419,6.5625 11.1631919,6.63628398 11.6666667,6.78385417 C11.7621533,6.72308997 11.8858499,6.64496576 12.0377604,6.54947917 C12.1896709,6.45399258 12.4305539,6.34114648 12.7604167,6.2109375 C13.0902794,6.08072852 13.3376728,6.04166641 13.5026042,6.09375 C13.7543415,6.73611432 13.7760427,7.3263862 13.5677083,7.86458333 C14.0277801,8.36805807 14.2578125,8.96267018 14.2578125,9.6484375 C14.2578125,10.1432316 14.1970492,10.5794252 14.0755208,10.9570313 C13.9539924,11.3346373 13.7999141,11.6384537 13.6132812,11.8684896 C13.4266484,12.0985255 13.1944458,12.2916659 12.9166667,12.4479167 C12.6388875,12.6041674 12.3676229,12.7170135 12.1028646,12.7864583 C11.8381063,12.8559031 11.5408003,12.9079859 11.2109375,12.9427083 C11.5147585,13.2118069 11.6666667,13.6241292 11.6666667,14.1796875 C11.6666667,14.5269115 11.6644965,14.9131923 11.6601563,15.3385417 C11.655816,15.763891 11.6536458,15.985243 11.6536458,16.0026042 C11.6536458,16.1067714 11.6905378,16.193576 11.7643229,16.2630208 C11.838108,16.3324656 11.9531242,16.3541668 12.109375,16.328125 C13.4461872,15.8767339 14.5399263,15.0716204 15.390625,13.9127604 C16.2413237,12.7539005 16.6666667,11.44966 16.6666667,10 Z M20,3.75 L20,16.25 C20,17.2829913 19.6332502,18.166229 18.8997396,18.8997396 C18.166229,19.6332502 17.2829913,20 16.25,20 L3.75,20 C2.71700872,20 1.83377103,19.6332502 1.10026042,18.8997396 C0.366749805,18.166229 0,17.2829913 0,16.25 L0,3.75 C0,2.71700872 0.366749805,1.83377103 1.10026042,1.10026042 C1.83377103,0.366749805 2.71700872,0 3.75,0 L16.25,0 C17.2829913,0 18.166229,0.366749805 18.8997396,1.10026042 C19.6332502,1.83377103 20,2.71700872 20,3.75 Z" id="github"></path>
                <path d="M6.66666667,111 C6.66666667,110.539928 6.50390788,110.147137 6.17838542,109.821615 C5.85286296,109.496092 5.46007174,109.333333 5,109.333333 C4.53992826,109.333333 4.14713704,109.496092 3.82161458,109.821615 C3.49609212,110.147137 3.33333333,110.539928 3.33333333,111 C3.33333333,111.460072 3.49609212,111.852863 3.82161458,112.178385 C4.14713704,112.503908 4.53992826,112.666667 5,112.666667 C5.46007174,112.666667 5.85286296,112.503908 6.17838542,112.178385 C6.50390788,111.852863 6.66666667,111.460072 6.66666667,111 Z M11.2369792,112.223958 C11.1241314,110.201379 10.35808,108.480476 8.93880208,107.061198 C7.51952415,105.64192 5.79862122,104.875869 3.77604167,104.763021 C3.65451328,104.75434 3.55034766,104.793402 3.46354167,104.880208 C3.37673568,104.967014 3.33333333,105.06684 3.33333333,105.179688 L3.33333333,106.846354 C3.33333333,106.959202 3.37022533,107.054687 3.44401042,107.132812 C3.51779551,107.210938 3.61111055,107.25434 3.72395833,107.263021 C5.06077057,107.358507 6.20659245,107.883676 7.16145833,108.838542 C8.11632422,109.793408 8.64149258,110.939229 8.73697917,112.276042 C8.74565977,112.388889 8.78906211,112.482204 8.8671875,112.55599 C8.94531289,112.629775 9.04079805,112.666667 9.15364583,112.666667 L10.8203125,112.666667 C10.9331603,112.666667 11.0329857,112.623264 11.1197917,112.536458 C11.2065977,112.449652 11.2456598,112.345487 11.2369792,112.223958 Z M16.2369792,112.236979 C16.1935762,110.900167 15.950523,109.608947 15.5078125,108.363281 C15.065102,107.117615 14.4596393,105.989154 13.6914062,104.977865 C12.9231732,103.966575 12.0334252,103.076827 11.0221354,102.308594 C10.0108456,101.540361 8.8823847,100.934898 7.63671875,100.492188 C6.3910528,100.049477 5.09983307,99.8064238 3.76302083,99.7630208 C3.64149245,99.7543402 3.54166706,99.7934023 3.46354167,99.8802083 C3.37673568,99.9670143 3.33333333,100.06684 3.33333333,100.179688 L3.33333333,101.846354 C3.33333333,101.959202 3.37239544,102.054687 3.45052083,102.132812 C3.52864622,102.210938 3.62413138,102.25434 3.73697917,102.263021 C5.50782135,102.323785 7.14842995,102.807721 8.65885417,103.714844 C10.1692784,104.621966 11.3780337,105.830722 12.2851563,107.341146 C13.1922788,108.85157 13.676215,110.492179 13.7369792,112.263021 C13.7456598,112.375869 13.7890621,112.471354 13.8671875,112.549479 C13.9453129,112.627605 14.040798,112.666667 14.1536458,112.666667 L15.8203125,112.666667 C15.9331603,112.666667 16.0329857,112.623264 16.1197917,112.536458 C16.2152783,112.458333 16.2543404,112.358508 16.2369792,112.236979 Z M20,99.75 L20,112.25 C20,113.282991 19.6332502,114.166229 18.8997396,114.89974 C18.166229,115.63325 17.2829913,116 16.25,116 L3.75,116 C2.71700872,116 1.83377103,115.63325 1.10026042,114.89974 C0.366749805,114.166229 0,113.282991 0,112.25 L0,99.75 C0,98.7170087 0.366749805,97.833771 1.10026042,97.1002604 C1.83377103,96.3667498 2.71700872,96 3.75,96 L16.25,96 C17.2829913,96 18.166229,96.3667498 18.8997396,97.1002604 C19.6332502,97.833771 20,98.7170087 20,99.75 Z" id="rss"></path>
                <path d="M0,131.99923 C0,129.790516 1.79246765,128 3.99922997,128 L16.00077,128 C18.2094838,128 20,129.792468 20,131.99923 L20,144.00077 C20,146.209484 18.2075324,148 16.00077,148 L3.99922997,148 C1.79051625,148 0,146.207532 0,144.00077 L0,131.99923 Z M17,134.302203 C16.4855902,134.523077 15.9317368,134.672445 15.350766,134.739184 C15.9440629,134.395955 16.3993074,133.851715 16.6137818,133.203395 C16.0582849,133.521199 15.4444444,133.752402 14.7886952,133.876345 C14.266068,133.336873 13.5191055,133 12.6924341,133 C11.1072959,133 9.82127135,134.243409 9.82127135,135.776815 C9.82127135,135.994511 9.84592358,136.20585 9.89522803,136.409245 C7.50807067,136.293247 5.39208781,135.188877 3.97458473,133.506898 C3.72724071,133.918454 3.58590127,134.395955 3.58590127,134.904442 C3.58590127,135.867389 4.09291542,136.717515 4.8637084,137.215674 C4.39367259,137.202167 3.9499325,137.07584 3.56207079,136.869267 L3.56207079,136.903431 C3.56207079,138.249332 4.55226859,139.371975 5.86705406,139.626219 C5.62628397,139.691369 5.37236603,139.723944 5.11023067,139.723944 C4.92533897,139.723944 4.74455597,139.707259 4.56952515,139.674684 C4.93519986,140.777465 5.99524564,141.580715 7.25250924,141.602167 C6.26970711,142.347418 5.03052181,142.791549 3.68533192,142.791549 C3.45360099,142.791549 3.22433527,142.778837 3,142.753413 C4.2712332,143.539978 5.781593,144 7.40288783,144 C12.6866819,144 15.5751013,139.769231 15.5751013,136.099386 C15.5751013,135.97862 15.572636,135.857855 15.5677056,135.739473 C16.1289546,135.347779 16.616247,134.859155 17,134.302203 Z" id="Combined-Shape"></path>
            </g>
        </g>
    </g>
</svg>