<?xml version="1.0" encoding="UTF-8" standalone="no"?>
<svg width="24px" height="24px" viewBox="0 0 24 24" version="1.1" xmlns="http://www.w3.org/2000/svg" xmlns:xlink="http://www.w3.org/1999/xlink">
    <!-- Generator: Sketch 39.1 (31720) - http://www.bohemiancoding.com/sketch -->
    <title>icon-link</title>
    <desc>Created with Sketch.</desc>
    <defs></defs>
    <g id="Web-App---Origins" stroke="none" stroke-width="1" fill="none" fill-rule="evenodd">
        <g id="Web-App---Origin-Packages-List-dotnet-connected" transform="translate(-796.000000, -607.000000)" fill="#87B09A">
            <g id="Body" transform="translate(330.000000, 100.000000)">
                <g id="Desc" transform="translate(25.000000, 265.000000)">
                    <g id="link-copy" transform="translate(434.000000, 241.000000)">
                        <g id="icon-link" transform="translate(7.000000, 1.000000)">
                            <path d="M2.28,12 C2.28,9.948 3.948,8.28 6,8.28 L10.8,8.28 L10.8,6 L6,6 C2.688,6 0,8.688 0,12 C0,15.312 2.688,18 6,18 L10.8,18 L10.8,15.72 L6,15.72 C3.948,15.72 2.28,14.052 2.28,12 L2.28,12 Z M7.2,13.2 L16.8,13.2 L16.8,10.8 L7.2,10.8 L7.2,13.2 Z M18,6 L13.2,6 L13.2,8.28 L18,8.28 C20.052,8.28 21.72,9.948 21.72,12 C21.72,14.052 20.052,15.72 18,15.72 L13.2,15.72 L13.2,18 L18,18 C21.312,18 24,15.312 24,12 C24,8.688 21.312,6 18,6 L18,6 Z" id="Fill-69"></path>
                        </g>
                    </g>
                </g>
            </g>
        </g>
    </g>
</svg>