<?xml version="1.0" encoding="UTF-8" standalone="no"?>
<svg width="291px" height="120px" viewBox="0 0 291 120" version="1.1" xmlns="http://www.w3.org/2000/svg" xmlns:xlink="http://www.w3.org/1999/xlink">
    <!-- Generator: Sketch 3.8.3 (29802) - http://www.bohemiancoding.com/sketch -->
    <title>logo-chef-habitat-lockup</title>
    <desc>Created with Sketch.</desc>
    <defs></defs>
    <g id="Symbols" stroke="none" stroke-width="1" fill="none" fill-rule="evenodd">
        <g id="Footer" transform="translate(0.000000, -68.000000)">
            <g id="Logos" transform="translate(0.000000, 68.000000)">
                <g id="habitat-logo-by-chef-white" transform="translate(0.000000, 26.000000)" fill="#FFFFFF">
                    <g id="Mark" transform="translate(109.271523, 0.605934)">
                        <path d="M16.9986755,38.507854 L1.79652318,23.3160584 C-0.0635761589,21.4572263 -0.0635761589,18.4443796 1.79652318,16.5855474 L16.9986755,1.39375182 C18.8577815,-0.464583942 21.8731788,-0.464583942 23.7332781,1.39375182 L38.9354305,16.5855474 C40.7950331,18.4443796 40.7950331,21.4572263 38.9354305,23.3160584 L23.7332781,38.507854 C21.8736755,40.3661898 18.8577815,40.3661898 16.9986755,38.507854 Z M32.0011589,19.6425693 L29.2062914,16.8491095 C28.9306291,16.5746277 28.4612583,16.7691971 28.4612583,17.1578394 L28.4612583,18.1386277 C28.4612583,18.3793577 28.2655629,18.5744234 28.0241722,18.5744234 L26.4938742,18.5744234 C26.2534768,18.5744234 26.0577815,18.3793577 26.0577815,18.1386277 L26.0577815,16.1428029 C26.0577815,15.902073 26.2534768,15.7070073 26.4938742,15.7070073 L27.0089404,15.7070073 C27.3978477,15.7070073 27.5930464,15.2374599 27.3173841,14.9624818 L24.5225166,12.1695182 C24.3521523,11.9992701 24.0764901,11.9992701 23.9056291,12.1695182 L21.1102649,14.9624818 C20.835596,15.2374599 21.0307947,15.7070073 21.4187086,15.7070073 L22.0311258,15.7070073 C22.2720199,15.7070073 22.4672185,15.902073 22.4672185,16.1428029 L22.4672185,18.1004088 C22.4672185,18.3411387 22.2720199,18.5362044 22.0311258,18.5362044 L18.6769868,18.5362044 C18.4360927,18.5362044 18.240894,18.3411387 18.240894,18.1004088 L18.240894,16.1428029 C18.240894,15.902073 18.4360927,15.7070073 18.6769868,15.7070073 L19.311755,15.7070073 C19.7001656,15.7070073 19.8953642,15.2374599 19.6201987,14.9624818 L16.8248344,12.1695182 C16.6544702,11.9992701 16.3788079,11.9992701 16.2084437,12.1695182 L13.4125828,14.9624818 C13.1379139,15.2374599 13.3331126,15.7070073 13.7215232,15.7070073 L14.2137417,15.7070073 C14.4546358,15.7070073 14.6503311,15.902073 14.6503311,16.1428029 L14.6503311,18.1386277 C14.6503311,18.3793577 14.4546358,18.5744234 14.2137417,18.5744234 L12.7057947,18.5744234 C12.4653974,18.5744234 12.269702,18.3793577 12.269702,18.1386277 L12.269702,17.1578394 C12.269702,16.7691971 11.8003311,16.5746277 11.5246689,16.8491095 L8.72980132,19.6425693 C8.55943709,19.8128175 8.55943709,20.0887883 8.72980132,20.2590365 L11.5246689,23.0524964 C11.8003311,23.3269781 12.269702,23.1324088 12.269702,22.7442628 L12.269702,21.7629781 C12.269702,21.5222482 12.4653974,21.3271825 12.7057947,21.3271825 L14.2137417,21.3271825 C14.4546358,21.3271825 14.6503311,21.5222482 14.6503311,21.7629781 L14.6503311,23.7588029 C14.6503311,23.9995328 14.4546358,24.1945985 14.2137417,24.1945985 L13.7215232,24.1945985 C13.3331126,24.1945985 13.1379139,24.664146 13.4125828,24.9391241 L16.2084437,27.7320876 C16.3788079,27.9023358 16.6544702,27.9023358 16.8248344,27.7320876 L19.6201987,24.9391241 C19.8953642,24.664146 19.7001656,24.1945985 19.311755,24.1945985 L18.6769868,24.1945985 C18.4360927,24.1945985 18.240894,23.9995328 18.240894,23.7588029 L18.240894,21.7932555 C18.240894,21.5520292 18.4360927,21.3569635 18.6769868,21.3569635 L22.0311258,21.3569635 C22.2720199,21.3569635 22.4672185,21.5520292 22.4672185,21.7932555 L22.4672185,23.7588029 C22.4672185,23.9995328 22.2720199,24.1945985 22.0311258,24.1945985 L21.4187086,24.1945985 C21.0307947,24.1945985 20.835596,24.664146 21.1102649,24.9391241 L23.9056291,27.7320876 C24.0764901,27.9023358 24.3521523,27.9023358 24.5225166,27.7320876 L27.3178808,24.9391241 C27.593543,24.664146 27.3983444,24.1945985 27.0094371,24.1945985 L26.4943709,24.1945985 C26.2539735,24.1945985 26.0582781,23.9995328 26.0582781,23.7588029 L26.0582781,21.7629781 C26.0582781,21.5222482 26.2539735,21.3271825 26.4943709,21.3271825 L28.0246689,21.3271825 C28.2660596,21.3271825 28.461755,21.5222482 28.461755,21.7629781 L28.461755,22.7442628 C28.461755,23.1324088 28.9311258,23.3269781 29.2067881,23.0524964 L32.0016556,20.2590365 C32.1715232,20.0887883 32.1715232,19.8128175 32.0011589,19.6425693 Z" id="Combined-Shape"></path>
                    </g>
                    <g id="Logotype" transform="translate(0.000000, 28.401555)">
                        <path d="M49.5014901,22.4395036 C45.8875828,22.4395036 43.3475166,19.9448467 43.3192053,16.3592117 C43.2913907,12.7676204 45.8195364,10.2367299 49.4682119,10.2049635 C52.9956954,10.1791533 55.5740066,12.629635 55.6102649,16.0420438 C55.6306291,17.9743358 55.0445364,19.6018686 53.9150662,20.7489343 C52.836755,21.8443796 51.3263245,22.4285839 49.5471854,22.4395036 L49.5014901,22.4395036 L49.5014901,22.4395036 Z M55.7607616,9.21176642 C53.9950331,7.66910949 51.539404,6.92061314 49.0187086,7.15538686 C47.130298,7.33208759 45.3998344,8.05576642 44.0965232,9.18843796 C43.7706954,9.47135766 43.2655629,9.25445255 43.2655629,8.82362044 L43.2655629,0.854218978 C43.2655629,0.579737226 43.0430464,0.357372263 42.7678808,0.357372263 L40.6743377,0.357372263 C40.4165563,0.357372263 40.2014901,0.553927007 40.1786424,0.810540146 C40.1706954,0.900379562 40.161755,0.983766423 40.1528146,1.06318248 C40.1334437,1.23740146 40.1150662,1.40218978 40.1150662,1.57591241 L40.1140728,3.45112409 C40.110596,7.56884672 40.1076159,11.8275328 40.1210265,16.0157372 C40.1230132,16.7612555 40.1478477,17.5564088 40.3127483,18.3188029 C41.3001656,22.8931679 44.6731788,25.4995036 49.5864238,25.4990073 C49.6688742,25.4990073 49.7528146,25.4980146 49.8362583,25.4965255 C53.775,25.4265401 57.0134106,23.2296934 58.2879139,19.7611971 C59.6970199,15.9263942 58.7051325,11.7853431 55.7607616,9.21176642 L55.7607616,9.21176642 Z" id="Shape"></path>
                        <path d="M34.5740066,16.2475328 C34.5869205,17.9922044 33.981457,19.5720876 32.8693709,20.6963212 C31.7607616,21.8160876 30.194702,22.4370219 28.4587748,22.4439708 L28.4254967,22.4439708 C24.8235099,22.4439708 22.2993377,19.9800876 22.2824503,16.4421022 C22.2645695,12.7279124 24.7256623,10.2203504 28.4061258,10.2014891 L28.4423841,10.2014891 C31.972351,10.2014891 34.5491722,12.7388321 34.5740066,16.2475328 M35.8201987,10.4496642 C33.0859272,7.08440876 27.9293046,6.10411679 23.8256623,8.16943066 C20.0751656,10.0575474 18.2006623,14.3852263 19.2680464,18.6945401 C20.1149007,22.1124088 22.3028146,24.3583942 25.5958609,25.1902774 C26.5430464,25.4295182 27.4470199,25.5491387 28.3062914,25.5491387 C30.6099338,25.5486423 32.5917219,24.6909489 34.2193709,22.9835036 C34.4175497,22.7750365 34.5933775,22.5566423 34.7672185,22.3208759 L34.7672185,24.5499854 C34.7672185,24.8244672 34.9897351,25.0468321 35.264404,25.0468321 L37.1925497,25.0468321 C37.4672185,25.0468321 37.6897351,24.8244672 37.6897351,24.5499854 L37.6897351,24.5494891 C37.6897351,23.5910365 37.6966887,22.6390365 37.7036424,21.6910073 C37.7195364,19.4430365 37.7359272,17.117635 37.6549669,14.842365 C37.6018212,13.3602628 36.9844371,11.881635 35.8201987,10.4496642" id="Shape"></path>
                        <path d="M98.5743377,16.2475328 C98.5872517,17.9922044 97.9822848,19.5720876 96.869702,20.6963212 C95.7610927,21.8160876 94.1950331,22.4370219 92.459106,22.4439708 L92.4263245,22.4439708 C88.8243377,22.4439708 86.3001656,19.9800876 86.2832781,16.4421022 C86.2653974,12.7279124 88.7264901,10.2203504 92.4069536,10.2014891 L92.4432119,10.2014891 C95.9726821,10.2014891 98.55,12.7388321 98.5743377,16.2475328 M99.8205298,10.4496642 C97.0862583,7.08440876 91.9296358,6.10411679 87.8264901,8.16943066 C84.0754967,10.0575474 82.2014901,14.3852263 83.2688742,18.6945401 C84.1152318,22.1124088 86.3031457,24.3583942 89.5961921,25.1902774 C90.5433775,25.4295182 91.4478477,25.5491387 92.3066225,25.5491387 C94.6107616,25.5486423 96.592053,24.6909489 98.219702,22.9835036 C98.4178808,22.7750365 98.5937086,22.5566423 98.7675497,22.3208759 L98.7675497,24.5499854 C98.7675497,24.8244672 98.9900662,25.0468321 99.2647351,25.0468321 L101.193377,25.0468321 C101.468046,25.0468321 101.690563,24.8244672 101.690563,24.5499854 L101.690563,24.5494891 C101.690563,23.5910365 101.697517,22.6390365 101.703974,21.6910073 C101.719868,19.4430365 101.736258,17.117635 101.655298,14.842365 C101.602152,13.3602628 100.985265,11.881635 99.8205298,10.4496642" id="Shape"></path>
                        <path d="M10.5715232,7.25664234 C7.88741722,6.81737226 5.67913907,7.3380438 3.98543046,8.80624818 C3.66059603,9.08718248 3.15794702,8.86432117 3.15794702,8.4349781 L3.15794702,0.847766423 C3.15794702,0.572788321 2.93493377,0.350423358 2.6602649,0.350423358 L0.497682119,0.350423358 C0.222516556,0.350919708 0,0.572788321 0,0.847766423 L0,24.566365 C0,24.8413431 0.222516556,25.063708 0.497682119,25.063708 L2.69056291,25.063708 C2.96523179,25.063708 3.18824503,24.8433285 3.18824503,24.5683504 C3.18874172,23.7091679 3.19023179,21.9585401 3.19072848,21.1896934 C3.19221854,19.4053139 3.19321192,17.6209343 3.20364238,15.8370511 C3.21357616,13.9975766 3.76788079,12.5129927 4.80596026,11.5436204 C5.84950331,10.5692847 7.37731788,10.1156204 9.23543046,10.2302774 C12.0054636,10.4025109 13.815894,12.1501606 13.9594371,14.7907445 C14.0687086,16.7865693 14.0751656,18.8295474 14.0816225,20.8040292 C14.0846026,21.6790949 14.0875828,22.5536642 14.0990066,23.4277372 C14.1019868,23.6774015 14.1009934,23.927562 14.1,24.1816934 L14.1,24.5440292 C14.0995033,24.8195036 14.3225166,25.0418686 14.5971854,25.0418686 L16.7801325,25.0418686 C17.0548013,25.0418686 17.2778146,24.82 17.2778146,24.5445255 C17.2778146,23.5682044 17.2812914,22.5973431 17.2847682,21.6299562 C17.2927152,19.5090511 17.3011589,17.3151825 17.2683775,15.1654891 C17.2028146,10.8889343 14.6995033,7.93217518 10.5715232,7.25664234" id="Shape"></path>
                        <path d="M80.9970199,17.6705693 L78.5657285,17.6705693 C78.3069536,17.6705693 78.090894,17.8691095 78.0700331,18.127708 L78.0412252,18.4825985 C78.0198675,18.7362336 78.0004967,18.9744818 77.9836093,19.2127299 C77.8465232,21.1599124 76.664404,22.2960584 74.6557947,22.4112117 C73.2640728,22.4906277 70.9013245,22.2469197 70.6991722,19.7150365 C70.5288079,17.5688175 70.5248344,15.3620438 70.5203642,13.2292263 C70.5188742,12.5154745 70.5173841,11.8017226 70.5099338,11.0949197 C70.5069536,10.8179562 70.7294702,10.5945985 71.0061258,10.5945985 L77.2653974,10.5945985 C77.7248344,10.5945985 77.9384106,10.0252847 77.5922185,9.7230073 L75.2066225,7.64032117 C75.1157285,7.56090511 74.9995033,7.51722628 74.8793046,7.51722628 L70.9425497,7.51722628 C70.6678808,7.51722628 70.4448675,7.29486131 70.4448675,7.02037956 L70.4448675,3.70972263 C70.4448675,3.43524088 70.222351,3.21237956 69.9476821,3.21237956 L67.8789735,3.21237956 C67.6043046,3.21237956 67.3817881,3.43474453 67.3812914,3.70922628 L67.380298,4.70341606 C67.3798013,4.79772263 67.3331126,14.1762628 67.4165563,19.9766131 C67.4364238,21.3743358 68.1283113,22.750219 69.3645695,23.8511241 C70.8844371,25.2046715 72.6576159,25.518365 74.2281457,25.518365 C74.6403974,25.518365 75.0387417,25.4965255 75.4152318,25.4667445 C77.2241722,25.3218102 78.8960265,24.3772555 80.002649,22.8752993 C81.0566225,21.4458102 81.4504967,19.690219 81.0844371,18.0592117 L80.9970199,17.6705693 L80.9970199,17.6705693 Z" id="Shape"></path>
                        <path d="M117.374007,18.1138102 L117.314404,17.6844672 L114.795695,17.6844672 C114.534934,17.6844672 114.318377,17.8859854 114.299503,18.146073 L114.271689,18.5307445 C114.256291,18.7521168 114.240894,18.9566131 114.227483,19.1616058 C114.097848,21.1331095 112.933609,22.2851387 110.947848,22.4067445 C109.534768,22.4931095 107.134272,22.254365 106.936093,19.6733431 C106.768212,17.4809635 106.775166,15.2280292 106.781623,13.0490511 C106.783113,12.3884088 106.785099,11.7282628 106.782616,11.0676204 C106.781623,10.792146 107.003146,10.5687883 107.278808,10.5687883 L113.414901,10.5687883 C113.886755,10.5687883 114.093377,9.97267153 113.722351,9.68081752 L111.112748,7.62791241 C111.025331,7.55842336 110.916556,7.52119708 110.805298,7.52119708 L107.219702,7.52119708 C106.944536,7.52119708 106.72202,7.29883212 106.72202,7.02435036 L106.72202,3.83728467 C106.72202,3.56280292 106.499503,3.34043796 106.224834,3.34043796 L104.064238,3.34043796 C103.790066,3.34043796 103.567053,3.56230657 103.567053,3.83678832 L103.56606,4.84884672 C103.565563,4.94116788 103.522848,14.1861898 103.654967,19.9269781 C103.713576,22.4613431 105.626821,24.6487591 108.306457,25.2443796 C109.018212,25.402219 109.825828,25.480146 110.765563,25.480146 C110.904139,25.480146 111.045199,25.4786569 111.189735,25.4756788 C113.084106,25.4315036 114.772351,24.6517372 115.94106,23.2778394 C117.133113,21.8806131 117.641225,20.0461022 117.374007,18.1138102" id="Shape"></path>
                        <path d="M61.7379139,25.024 L63.839404,25.024 C64.1140728,25.024 64.3370861,24.8021314 64.3370861,24.5271533 L64.3370861,8.07909489 C64.3370861,7.80808759 64.1200331,7.58721168 63.8488411,7.58175182 L61.747351,7.5430365 C61.4687086,7.53757664 61.2407285,7.76143066 61.2407285,8.03988321 L61.2407285,24.5271533 C61.2407285,24.8021314 61.463245,25.024 61.7379139,25.024" id="Shape"></path>
                        <path d="M61.7379139,5.44943066 L63.839404,5.44943066 C64.1140728,5.44943066 64.3370861,5.22656934 64.3370861,4.95208759 L64.3370861,2.8520292 C64.3370861,2.57754745 64.1140728,2.35518248 63.839404,2.35518248 L61.7379139,2.35518248 C61.463245,2.35518248 61.2407285,2.57754745 61.2407285,2.8520292 L61.2407285,4.95208759 C61.2407285,5.22656934 61.463245,5.44943066 61.7379139,5.44943066" id="Shape"></path>
                        <path d="M117.429636,32.5198832 L117.22649,32.8320876 L117.020861,32.5198832 L116.93245,32.5198832 L116.93245,33.0936642 L117.015397,33.0936642 L117.015397,32.6524088 L117.219536,32.9636204 L117.229967,32.9636204 L117.435596,32.6524088 L117.435596,33.0936642 L117.515563,33.0936642 L117.515563,32.5198832 L117.429636,32.5198832 L117.429636,32.5198832 Z M116.355298,32.5198832 L116.355298,32.5953285 L116.540563,32.5953285 L116.540563,33.0936642 L116.62202,33.0936642 L116.62202,32.5953285 L116.806788,32.5953285 L116.806788,32.5198832 L116.355298,32.5198832 L116.355298,32.5198832 Z" id="Shape"></path>
                        <g id="BY-CHEF" transform="translate(82.941176, 31.792208)">
                            <path d="M8.37455201,3.56729586 L8.37455201,3.55141265 C8.37455201,1.94522286 9.58647254,0.6328725 11.321903,0.6328725 C12.387797,0.6328725 13.0265388,0.984784909 13.5520354,1.50198199 L12.7603136,2.41278491 C12.3237242,2.01967542 11.8806778,1.77596739 11.3149494,1.77596739 C10.362797,1.77596739 9.67587651,2.56714987 9.67587651,3.53453673 L9.67587651,3.55141265 C9.67587651,4.52028856 10.3459096,5.3268579 11.3149494,5.3268579 C11.9611414,5.3268579 12.357499,5.06825936 12.8000487,4.66373381 L13.5917705,5.4628579 C13.0106447,6.08677031 12.363956,6.47392359 11.2747176,6.47392359 C9.61180366,6.47441995 8.37455201,5.19036155 8.37455201,3.56729586" id="Shape"></path>
                            <polygon id="Shape" points="15.2194196 0.727675419 16.4616381 0.727675419 16.4616381 2.96323746 18.7558434 2.96323746 18.7558434 0.727675419 19.9990553 0.727675419 19.9990553 6.37713527 18.7558434 6.37713527 18.7558434 4.10732505 16.4616381 4.10732505 16.4616381 6.37713527 15.2194196 6.37713527"></polygon>
                            <polygon id="Shape" points="22.0026977 0.729660821 26.3313401 0.729660821 26.3313401 1.8509163 23.2563401 1.8509163 23.2563401 3.0158506 25.9618037 3.0158506 25.9618037 4.13760243 23.2563401 4.13760243 23.2563401 5.34423016 26.3740553 5.34423016 26.3740553 6.46796739 22.0026977 6.46796739"></polygon>
                            <polygon id="Shape" points="28.1844858 0.727675419 32.4873004 0.727675419 32.4873004 1.8568725 29.4267043 1.8568725 29.4267043 3.05952943 32.1257109 3.05952943 32.1257109 4.18773381 29.4267043 4.18773381 29.4267043 6.37713527 28.1844858 6.37713527"></polygon>
                            <path d="M4.61263148,6.4778944 L4.61263148,5.09506228 L5.8379626,3.23672651 L5.10385664,3.23672651 L4.29574406,4.53517907 L4.2853136,4.53517907 L3.48763148,3.23672651 L2.73862485,3.23672651 L3.97835995,5.10995279 L3.97835995,6.4778944 L4.61263148,6.4778944 L4.61263148,6.4778944 Z M1.57786326,3.8258944 C1.87090962,3.8258944 1.97024737,3.97976301 1.97024737,4.18773381 C1.97024737,4.39123746 1.84607519,4.55006958 1.58283015,4.55006958 L0.744419556,4.55006958 L0.744419556,3.82539805 L1.57786326,3.82539805 L1.57786326,3.8258944 Z M1.6866381,5.11441995 C1.94988313,5.11441995 2.09839307,5.28814257 2.09839307,5.50604038 C2.09839307,5.71947104 1.97968446,5.89319367 1.68167121,5.89319367 L0.743426178,5.89319367 L0.743426178,5.11441995 L1.6866381,5.11441995 L1.6866381,5.11441995 Z M1.79094273,6.4778944 C2.42074406,6.4778944 2.74756525,6.10662432 2.74756525,5.60034695 C2.74756525,5.21418637 2.53448578,4.91637615 2.17835995,4.80271192 L2.17835995,4.79228856 C2.4455785,4.65877031 2.59955201,4.40662432 2.59955201,4.07853673 C2.59955201,3.58764622 2.27720101,3.23623016 1.66230035,3.23623016 L0.110148033,3.23623016 L0.110148033,6.47739805 L1.79094273,6.47739805 L1.79094273,6.4778944 Z" id="Shape"></path>
                        </g>
                    </g>
                </g>
                <g id="chef-logo-white" transform="translate(211.000000, 21.000000)" fill="#FFFFFF">
                    <path d="M77.0770318,63.7447292 L76.8110247,63.7447292 L76.8110247,62.1233755 L76.2131449,62.1233755 L76.2131449,61.8675523 L77.674629,61.8675523 L77.674629,62.1233755 L77.0770318,62.1233755 L77.0770318,63.7447292 L77.0770318,63.7447292 Z M79.0465018,63.3237762 L79.010318,63.3237762 L78.3519435,62.3067581 L78.3519435,63.7447292 L78.0856537,63.7447292 L78.0856537,61.8675523 L78.3697527,61.8675523 L79.0343463,62.8974043 L79.6924382,61.8675523 L79.9706007,61.8675523 L79.9706007,63.7447292 L79.7108127,63.7447292 L79.7108127,62.3067581 L79.0465018,63.3237762 L79.0465018,63.3237762 Z" id="Fill-1"></path>
                    <path d="M0.103745583,70.1343177 L0.103745583,70.0852635 C0.103745583,65.1989567 3.75434629,61.1967653 8.98713781,61.1967653 C12.199576,61.1967653 14.1224028,62.2770975 15.704311,63.8485415 L13.3192933,66.6232383 C12.0048057,65.4199856 10.6662898,64.6836029 8.96282686,64.6836029 C6.09074205,64.6836029 4.02204947,67.0895379 4.02204947,70.0359242 L4.02204947,70.0852635 C4.02204947,73.0316498 6.04212014,75.4872094 8.96282686,75.4872094 C10.909682,75.4872094 12.1023322,74.7014874 13.4408481,73.4737076 L15.8258657,75.9044549 C14.0737809,77.7950361 12.1266431,78.9737617 8.84070671,78.9737617 C3.82756184,78.9737617 0.103745583,75.0699639 0.103745583,70.1343177" id="Fill-2"></path>
                    <polyline id="Fill-3" points="21.0812721 61.4913755 24.8291166 61.4913755 24.8291166 68.2927906 31.7410601 68.2927906 31.7410601 61.4913755 35.4891873 61.4913755 35.4891873 78.6791516 31.7410601 78.6791516 31.7410601 71.7796282 24.8291166 71.7796282 24.8291166 78.6791516 21.0812721 78.6791516 21.0812721 61.4913755"></polyline>
                    <polyline id="Fill-4" points="41.7611307 61.4913755 54.6117314 61.4913755 54.6117314 64.8550072 45.4846643 64.8550072 45.4846643 68.3418448 53.5163251 68.3418448 53.5163251 71.7057617 45.4846643 71.7057617 45.4846643 75.3152347 54.7330035 75.3152347 54.7330035 78.6791516 41.7611307 78.6791516 41.7611307 61.4913755"></polyline>
                    <polyline id="Fill-5" points="60.250742 61.4913755 73.2228975 61.4913755 73.2228975 64.9288736 63.9988693 64.9288736 63.9988693 68.5874007 72.1274912 68.5874007 72.1274912 72.0251841 63.9988693 72.0251841 63.9988693 78.6791516 60.250742 78.6791516 60.250742 61.4913755"></polyline>
                    <path d="M37.4609187,36.783769 C31.2367491,36.783769 26.1724382,31.674722 26.1724382,25.3952202 C26.1724382,19.1148628 31.2367491,14.0061011 37.4609187,14.0061011 C42.5987279,14.0061011 46.9421908,17.4875199 48.3038869,22.2340794 L52.6719435,22.2340794 C51.2180919,15.1055415 44.9515194,9.72812274 37.4609187,9.72812274 C28.8986572,9.72812274 21.9324382,16.7559856 21.9324382,25.3952202 C21.9324382,34.0335993 28.8986572,41.0617473 37.4609187,41.0617473 C44.9515194,41.0617473 51.2180919,35.6843285 52.6719435,28.5555054 L48.3038869,28.5555054 C46.9421908,33.3023502 42.5987279,36.783769 37.4609187,36.783769" id="Fill-6"></path>
                    <path d="M29.8513074,33.0719097 C31.8009894,35.0383538 34.4924382,36.256722 37.4609187,36.256722 L37.4609187,31.716361 C35.7306007,31.716361 34.164523,31.0087834 33.0303887,29.8645668 L29.8513074,33.0719097" id="Fill-7"></path>
                    <path d="M26.6945583,25.3946498 C26.6945583,26.9492671 27.0221908,28.4277365 27.6081979,29.7661733 L31.7255124,27.9394765 C31.385159,27.1605993 31.195477,26.3001552 31.195477,25.3946498 C31.195477,21.9035343 34.0005654,19.073509 37.4612014,19.073509 L37.4612014,14.533148 C31.5242403,14.533148 26.6945583,19.4054801 26.6945583,25.3946498" id="Fill-8"></path>
                    <path d="M41.3648057,15.2726679 L39.7322968,19.50587 C41.0654417,20.030065 42.1778092,20.9983141 42.8859364,22.2340794 L47.7608481,22.2340794 C46.7983039,19.0464152 44.4180919,16.4759206 41.3648057,15.2726679" id="Fill-9"></path>
                    <path d="M39.7325795,31.284 L41.3648057,35.5172022 C44.4180919,34.3139495 46.7983039,31.7431697 47.7614134,28.5555054 L42.8862191,28.5555054 C42.1778092,29.7912708 41.0654417,30.7598051 39.7325795,31.284" id="Fill-10"></path>
                    <path d="M17.5426148,31.4710903 C17.4708127,31.2332347 17.4035336,30.9936679 17.3399293,30.7526751 C17.3362544,30.73813 17.3325795,30.7232996 17.3289046,30.7084693 C17.2706714,30.4857292 17.2163958,30.2615632 17.1652297,30.0362563 C17.1553357,29.9903394 17.1454417,29.9444224 17.1355477,29.8985054 C17.0931449,29.7051408 17.0532862,29.5106354 17.015689,29.3152744 C16.9998587,29.2280036 16.985159,29.1413032 16.9701767,29.0543177 C16.9421908,28.8983141 16.9156184,28.7423105 16.8915901,28.5857365 C16.8712367,28.4519783 16.8537102,28.317935 16.8359011,28.1833213 C16.7137809,27.2681191 16.6476325,26.3369458 16.6484806,25.3946498 L12.3974558,25.3946498 C12.3960424,26.4225054 12.4604947,27.4378123 12.5800707,28.4391444 L12.579788,28.4391444 C12.5820495,28.4611047 12.5860071,28.4822094 12.5885512,28.5044549 C12.6221908,28.7773899 12.6589399,29.0491841 12.7010601,29.3195523 C12.7126502,29.3939892 12.7259364,29.4678556 12.7380919,29.5425776 C12.774841,29.7644621 12.8127208,29.9866318 12.8551237,30.2068051 C12.8777385,30.3243069 12.9026148,30.4406679 12.9266431,30.5573141 C12.9628269,30.7329964 12.9992933,30.9083935 13.0391519,31.0832202 C13.0744876,31.236657 13.1123675,31.3889531 13.1508127,31.5415343 C13.1844523,31.6778592 13.2178092,31.8147545 13.2539929,31.950509 C13.3023322,32.1307545 13.3534982,32.3101444 13.404947,32.4889639 C13.4272792,32.5636859 13.4462191,32.6392635 13.4685512,32.7142708 L13.4708127,32.7134152 C13.7642403,33.6930722 14.1119435,34.6490578 14.5164664,35.5748123 L18.4121555,33.8462238 C18.0763251,33.0776137 17.7868551,32.2839061 17.5426148,31.4710903" id="Fill-11"></path>
                    <path d="M37.4609187,46.3923935 C31.7224028,46.3923935 26.5215548,44.0355126 22.7536396,40.2326751 L19.7419081,43.2711805 C24.2767491,47.8474765 30.5399293,50.680639 37.4609187,50.680639 C50.2416961,50.680639 60.7869965,41.0286643 62.3287633,28.5555054 L58.0378799,28.5555054 C56.5224028,38.639556 47.8722261,46.3923935 37.4609187,46.3923935" id="Fill-12"></path>
                    <path d="M37.4609187,4.39719134 C42.1224028,4.39719134 46.4293993,5.95237906 49.9019081,8.57420939 L52.4500353,5.12986643 C48.2693993,1.97756679 43.0815548,0.109231047 37.4609187,0.109231047 C26.8257244,0.109231047 17.739364,6.79285921 14.099788,16.2238051 L18.065583,17.780704 C21.0937102,9.95571119 28.6456537,4.39719134 37.4609187,4.39719134" id="Fill-13"></path>
                    <path d="M58.0381625,22.2343646 L62.3290459,22.2343646 C61.8688339,18.5130939 60.6074912,15.0433682 58.7242403,12.0057184 L55.1109541,14.2807473 C56.5865724,16.6570217 57.6039576,19.3498664 58.0381625,22.2343646" id="Fill-14"></path>
                    <path d="M53.2033922,22.2343646 L57.5089753,22.2343646 C56.3858657,14.9512491 51.4414134,8.92899639 44.8180919,6.3197148 L43.2797173,10.308787 C48.3174558,12.2931986 52.1277739,16.7708159 53.2033922,22.2343646" id="Fill-15"></path>
                    <path d="M37.4609187,9.20164621 L37.4612014,9.20164621 L37.4612014,4.92423827 L37.4609187,4.92423827 C28.8664311,4.92423827 21.504735,10.343296 18.5526502,17.971787 L22.5034629,19.5229819 C24.8384452,13.4878953 30.6626148,9.20164621 37.4609187,9.20164621" id="Fill-16"></path>
                    <path d="M21.410318,25.3946498 L21.410318,25.3943646 L17.1706007,25.3943646 L17.1706007,25.3946498 C17.1706007,33.9970939 22.4587986,41.3728989 29.9259364,44.3974296 L31.500212,40.4268953 C25.5929329,38.0343646 21.410318,32.1997726 21.410318,25.3946498" id="Fill-17"></path>
                    <path d="M37.4609187,41.5882238 L37.4609187,45.8656318 C47.5836042,45.8656318 55.9988693,38.348083 57.5089753,28.5555054 L53.2031095,28.5555054 C51.7424735,35.9769422 45.2392933,41.5882238 37.4609187,41.5882238" id="Fill-18"></path>
                </g>
                <rect id="Rectangle-27" fill="#D8D8D8" x="180" y="0" width="1" height="120"></rect>
            </g>
        </g>
    </g>
</svg>