<svg xmlns="http://www.w3.org/2000/svg" viewBox="0 0 313 285.59"><defs><style>.cls-1{fill:#799987;}.cls-2{fill:#87b09a;}.cls-3{fill:#96bca6;}.cls-4{fill:#4296b4;}.cls-5{fill:#847264;}.cls-6{fill:#9b8676;}.cls-7{fill:#80c4d6;}</style></defs><title>scaffolding</title><g id="Layer_2" data-name="Layer 2"><g id="Layer_1-2" data-name="Layer 1"><path class="cls-1" d="M313,209.37v25.41c0,3.12-3.7,6.21-10.94,8.56L182.9,282c-14.6,4.73-38.21,4.73-52.8,0L10.94,243.34C3.7,241,0,237.9,0,234.78V209.37Z"/><path class="cls-2" d="M130.11,256.64,10.94,217.94c-14.58-4.73-14.58-12.41,0-17.14l119.17-38.7c14.58-4.73,38.21-4.73,52.79,0l119.17,38.7c14.57,4.73,14.57,12.41,0,17.14L182.9,256.64c-14.58,4.73-38.21,4.73-52.79,0Z"/><path class="cls-1" d="M302,209.36c-.68.29-1.47.58-2.41.89l-15,4.88L266.62,221l-86.21-28c-12.95-4.2-34.85-4.2-47.8,0L46.4,221l-17.92-5.82-15-4.88c-.94-.31-1.74-.6-2.42-.89q1-.41,2.42-.87l119.17-38.71c13-4.2,34.85-4.2,47.8,0l119.17,38.71C300.52,208.8,301.31,209.09,302,209.36Z"/><path class="cls-3" d="M266.61,221l-7.26,2.35-11.6,3.78-19.34,6.28-3.86,1.24L211.21,239l-9.9,3.21L189.44,246l-9,2.94c-.84.27-1.7.51-2.62.76-12.22,3.18-30.37,3.18-42.59,0-.54-.16-1.11-.3-1.62-.46a8.23,8.23,0,0,1-1-.3l-9.31-3-.51-.16-11.09-3.61-11.6-3.75-14.24-4.64-6.8-2.18-2.21-.73-8.58-2.81-3-1-11.6-3.78L46.4,221l4.37-1.43,11.6-3.78,5.91-1.92,6.2-2,4.59-1.51,6.8-2.21,11.84-3.83,5.64-1.83L121,196.74l1.83-.59,2.24-.73,7.23-2.35.3-.11h.05a6.54,6.54,0,0,1,1-.27c13.05-3.94,34.2-3.83,46.83.27h.05l11.6,3.78,11.65,3.78,11.6,3.78L226.88,208l1.54.51,8.31,2.7,1.81.59,12.08,3.91,11.63,3.78Z"/><rect class="cls-4" x="126.11" y="50.65" width="10.79" height="166.5" rx="2" ry="2" transform="translate(132.75 -53.78) rotate(44.86)"/><rect class="cls-4" x="184.75" width="10.79" height="202.3" rx="5.39" ry="5.39"/><path class="cls-5" d="M72.56,50.13c0,7-.58,13.67,1.76,14.43l51.13,16.53a2.55,2.55,0,0,0,1.57,0L242.19,43.85c2.35-.76,1.76-8.11,1.76-15.75"/><path class="cls-6" d="M74.32,53.67,125.45,70.2a2.55,2.55,0,0,0,1.57,0L242.19,33a2.55,2.55,0,0,0,0-4.84l-49.36-16a9.54,9.54,0,0,0-5.91,0L74.31,48.83A2.55,2.55,0,0,0,74.32,53.67Z"/><rect class="cls-4" x="125.48" y="65.51" width="10.49" height="128.44" rx="1.94" ry="1.94" transform="translate(-35.96 208.04) rotate(-69.95)"/><rect class="cls-7" x="180.79" y="80.82" width="10.49" height="131.47" rx="1.94" ry="1.94" transform="translate(-15.43 271.05) rotate(-69.95)"/><rect class="cls-7" x="181.43" y="60.93" width="10.79" height="172.85" rx="5.39" ry="5.39" transform="translate(158.34 -88.88) rotate(44.86)"/><path class="cls-7" d="M133.58,59.39V249.26a8.23,8.23,0,0,1-1-.3l-9.31-3-.51-.16v-186a5.66,5.66,0,0,1,4.29-5.64,5.36,5.36,0,0,1,4.9,1.48A5.27,5.27,0,0,1,133.58,59.39Z"/><rect class="cls-7" x="239.27" y="18.16" width="10.79" height="202.3" rx="5.39" ry="5.39"/><path class="cls-4" d="M79.07,41.24V231.59l-2.21-.73-8.58-2.81V41.24a5.39,5.39,0,0,1,5.39-5.39,5.27,5.27,0,0,1,3.8,1.59A5.38,5.38,0,0,1,79.07,41.24Z"/></g></g></svg>