<svg width="827px" height="265px" viewBox="0 0 827 265" version="1.1" xmlns="http://www.w3.org/2000/svg" xmlns:xlink="http://www.w3.org/1999/xlink">
    <!-- Generator: Sketch 43.2 (39069) - http://www.bohemiancoding.com/sketch -->
    <desc>Created with Sketch.</desc>
    <defs>
        <linearGradient x1="31.157065%" y1="100%" x2="86.3897503%" y2="28.6559568%" id="linearGradient-1">
            <stop stop-color="#87B09A" offset="0%"></stop>
            <stop stop-color="#9AC7AF" offset="100%"></stop>
        </linearGradient>
    </defs>
    <g id="Depot-Explore" stroke="none" stroke-width="1" fill="none" fill-rule="evenodd" fill-opacity="0.700000048">
        <g id="depot-home" transform="translate(-383.000000, -808.000000)" fill="url(#linearGradient-1)">
            <g id="Body">
                <g id="Hero">
                    <g id="Chart" transform="translate(230.000000, 799.000000)">
                        <g id="Bars" transform="translate(153.000000, 9.000000)">
                            <path d="M41,259.359909 C41,256.244973 43.5336787,253.719818 46.6340656,253.719818 L62.5572858,253.719818 C65.6688943,253.719818 68.1913514,256.251311 68.1913514,259.359909 L68.1913514,265 L41,265 L41,259.359909 Z M0,260.5 C0,258.014719 2.02145563,256 4.50512722,256 L22.6848733,256 C25.1729864,256 27.1900005,258.019776 27.1900005,260.5 L27.1900005,265 L0,265 L0,260.5 Z M80.9372973,256.672495 C80.9372973,253.384922 83.5940272,250.719818 86.8877468,250.719818 L102.178199,250.719818 C105.464542,250.719818 108.128649,253.389059 108.128649,256.672495 L108.128649,265 L80.9372973,265 L80.9372973,256.672495 Z M120.874595,252.426362 C120.874595,249.140113 123.531325,246.476082 126.825044,246.476082 L142.115496,246.476082 C145.401839,246.476082 148.065946,249.130108 148.065946,252.426362 L148.065946,265 L120.874595,265 L120.874595,252.426362 Z M160.811892,247.183929 C160.811892,243.89696 163.468622,241.232346 166.762341,241.232346 L182.052794,241.232346 C185.339136,241.232346 188.003243,243.889615 188.003243,247.183929 L188.003243,265 L160.811892,265 L160.811892,247.183929 Z M200.749189,243.189205 C200.749189,239.899323 203.405919,237.232346 206.699639,237.232346 L221.990091,237.232346 C225.276434,237.232346 227.940541,239.894826 227.940541,243.189205 L227.940541,265 L200.749189,265 L200.749189,243.189205 Z M240.686486,237.947607 C240.686486,234.656544 243.343216,231.98861 246.636936,231.98861 L261.927388,231.98861 C265.213731,231.98861 267.877838,234.662108 267.877838,237.947607 L267.877838,265 L240.686486,265 L240.686486,237.947607 Z M280.623784,232.897138 C280.623784,229.61382 283.280514,226.952164 286.574233,226.952164 L301.864686,226.952164 C305.151028,226.952164 307.815135,229.612492 307.815135,232.897138 L307.815135,265 L280.623784,265 L280.623784,232.897138 Z M320.561081,227.892585 C320.561081,224.611781 323.217811,221.952164 326.511531,221.952164 L341.801983,221.952164 C345.088325,221.952164 347.752432,224.612512 347.752432,227.892585 L347.752432,265 L320.561081,265 L320.561081,227.892585 Z M360.498378,223.25536 C360.498378,219.972973 363.155108,217.312073 366.448828,217.312073 L381.73928,217.312073 C385.025623,217.312073 387.68973,219.978167 387.68973,223.25536 L387.68973,265 L360.498378,265 L360.498378,223.25536 Z M400.435676,217.230344 C400.435676,213.941644 403.092406,211.275626 406.386125,211.275626 L421.676577,211.275626 C424.96292,211.275626 427.627027,213.939826 427.627027,217.230344 L427.627027,265 L400.435676,265 L400.435676,217.230344 Z M440.372973,208.772151 C440.372973,205.48741 443.029703,202.824601 446.323423,202.824601 L461.613875,202.824601 C464.900217,202.824601 467.564324,205.496201 467.564324,208.772151 L467.564324,265 L440.372973,265 L440.372973,208.772151 Z M480.31027,201.921804 C480.31027,198.638701 482.967,195.977221 486.26072,195.977221 L501.551172,195.977221 C504.837515,195.977221 507.501622,198.640703 507.501622,201.921804 L507.501622,265 L480.31027,265 L480.31027,201.921804 Z M520.247568,194.893165 C520.247568,191.605751 522.904298,188.940774 526.198017,188.940774 L541.488469,188.940774 C544.774812,188.940774 547.438919,191.603165 547.438919,194.893165 L547.438919,265 L520.247568,265 L520.247568,194.893165 Z M560.184865,187.847016 C560.184865,184.56496 562.841595,181.904328 566.135314,181.904328 L581.425767,181.904328 C584.712109,181.904328 587.376216,184.574956 587.376216,187.847016 L587.376216,265 L560.184865,265 L560.184865,187.847016 Z M600.122162,178.401001 C600.122162,175.116178 602.778892,172.453303 606.072612,172.453303 L621.363064,172.453303 C624.649407,172.453303 627.313514,175.123238 627.313514,178.401001 L627.313514,265 L600.122162,265 L600.122162,178.401001 Z M640.059459,162.31892 C640.059459,159.029107 642.716189,156.362187 646.009909,156.362187 L661.300361,156.362187 C664.586704,156.362187 667.250811,159.020653 667.250811,162.31892 L667.250811,265 L640.059459,265 L640.059459,162.31892 Z M679.996757,136.94378 C679.996757,133.656089 682.653487,130.990888 685.947206,130.990888 L701.237659,130.990888 C704.524001,130.990888 707.188108,133.652689 707.188108,136.94378 L707.188108,265 L679.996757,265 L679.996757,136.94378 Z M719.934054,99.5158888 C719.934054,96.2292597 722.590784,93.5649203 725.884504,93.5649203 L741.174956,93.5649203 C744.461298,93.5649203 747.125405,96.2233506 747.125405,99.5158888 L747.125405,265 L719.934054,265 L719.934054,99.5158888 Z M759.871351,59.0645267 C759.871351,55.7818578 762.528081,53.1207289 765.821801,53.1207289 L781.112253,53.1207289 C784.398596,53.1207289 787.062703,55.7804568 787.062703,59.0645267 L787.062703,265 L759.871351,265 L759.871351,59.0645267 Z M799.808649,5.95368572 C799.808649,2.66555589 802.465379,0 805.759098,0 L821.04955,0 C824.335893,0 827,2.66579017 827,5.95368572 L827,265 L799.808649,265 L799.808649,5.95368572 Z" id="Combined-Shape"></path>
                        </g>
                    </g>
                </g>
            </g>
        </g>
    </g>
</svg>
