<svg xmlns="http://www.w3.org/2000/svg" width="50" height="50" viewBox="0 0 50 50">
  <g fill="none" transform="translate(12 10)">
    <path fill="#009639" d="M25.8713473,7.53339833 C25.9506523,7.61005621 26,7.71777715 26,7.83707865 L26,22.1629213 C26,22.2822228 25.9506523,22.3899438 25.8713473,22.4666017 C25.8449262,22.5739373 25.7767523,22.6707372 25.673923,22.730388 L13.326077,29.8933094 C13.2232477,29.9529601 13.1057261,29.9638811 13,29.9332033 C12.8942739,29.9638811 12.7767523,29.9529601 12.673923,29.8933094 L0.32607696,22.730388 C0.223247647,22.6707372 0.155073781,22.5739373 0.128652714,22.4666017 C0.0493476794,22.3899438 1.45410965e-17,22.2822228 0,22.1629213 L0,7.83707865 C-1.45410965e-17,7.71777715 0.0493476794,7.61005621 0.128652714,7.53339833 C0.155073781,7.42606272 0.223247647,7.32926275 0.32607696,7.269612 L12.673923,0.106690653 L12.673923,0.106690653 C12.7767523,0.0470399025 12.8942739,0.0361189297 13,0.0667966447 C13.1057261,0.0361189297 13.2232477,0.0470399025 13.326077,0.106690653 L13.326077,0.106690653 L25.673923,7.269612 C25.7767523,7.32926275 25.8449262,7.42606272 25.8713473,7.53339833 Z"/>
    <path fill="#FFF" d="M6.96129032,7.5 C6.06840033,7.55221592 5.28387097,8.25457626 5.28387097,9.18539326 L5.28387097,20.8146067 C5.28387097,21.7454237 6.03487719,22.5 6.96129032,22.5 C7.88770345,22.5 8.63870968,21.7454237 8.63870968,20.8146067 L8.63870968,12.4434967 L16.2448898,21.5512797 C16.683873,22.0769263 17.480606,22.4865985 18.464042,22.5092581 C18.5622887,22.5115219 18.6525994,22.5079675 18.7357314,22.4996899 C19.6471426,22.4822852 20.3806452,21.7345125 20.3806452,20.8146067 L20.3806452,9.18539326 C20.3806452,8.25457626 19.6296389,7.5 18.7032258,7.5 C17.7768127,7.5 17.0258065,8.25457626 17.0258065,9.18539326 L17.0258065,17.5045518 L9.25188437,8.19591123 C8.59480843,7.26603647 6.9779476,7.49902588 6.96129032,7.5 Z"/>
  </g>
</svg>
