<svg xmlns="http://www.w3.org/2000/svg" width="50" height="50" viewBox="0 0 50 50">
  <defs>
    <linearGradient id="icon-ruby-a" x1="84.698%" x2="58.242%" y1="111.399%" y2="64.584%">
      <stop offset="0%" stop-color="#FB7655"/>
      <stop offset="0%" stop-color="#FB7655"/>
      <stop offset="41%" stop-color="#E42B1E"/>
      <stop offset="99%" stop-color="#900"/>
      <stop offset="100%" stop-color="#900"/>
    </linearGradient>
    <linearGradient id="icon-ruby-b" x1="116.651%" x2="1.746%" y1="53.17%" y2="41.06%">
      <stop offset="0%" stop-color="#871101"/>
      <stop offset="0%" stop-color="#871101"/>
      <stop offset="99%" stop-color="#911209"/>
      <stop offset="100%" stop-color="#911209"/>
    </linearGradient>
    <linearGradient id="icon-ruby-c" x1="50.351%" x2="49.85%" y1="219.327%" y2="7.829%">
      <stop offset="0%" stop-color="#871101"/>
      <stop offset="0%" stop-color="#871101"/>
      <stop offset="99%" stop-color="#911209"/>
      <stop offset="100%" stop-color="#911209"/>
    </linearGradient>
    <linearGradient id="icon-ruby-d" x1="50.012%" x2="66.483%" y1="30.704%" y2="63.146%">
      <stop offset="0%" stop-color="#FFF"/>
      <stop offset="0%" stop-color="#FFF"/>
      <stop offset="23%" stop-color="#E57252"/>
      <stop offset="46%" stop-color="#DE3B20"/>
      <stop offset="99%" stop-color="#A60003"/>
      <stop offset="100%" stop-color="#A60003"/>
    </linearGradient>
    <linearGradient id="icon-ruby-e" x1="46.174%" x2="49.932%" y1="17.29%" y2="82.122%">
      <stop offset="0%" stop-color="#FFF"/>
      <stop offset="0%" stop-color="#FFF"/>
      <stop offset="23%" stop-color="#E4714E"/>
      <stop offset="56%" stop-color="#BE1A0D"/>
      <stop offset="99%" stop-color="#A80D00"/>
      <stop offset="100%" stop-color="#A80D00"/>
    </linearGradient>
    <linearGradient id="icon-ruby-f" x1="43.537%" x2="49.766%" y1="15.594%" y2="92.478%">
      <stop offset="0%" stop-color="#FFF"/>
      <stop offset="0%" stop-color="#FFF"/>
      <stop offset="18%" stop-color="#E46342"/>
      <stop offset="40%" stop-color="#C82410"/>
      <stop offset="99%" stop-color="#A80D00"/>
      <stop offset="100%" stop-color="#A80D00"/>
    </linearGradient>
    <linearGradient id="icon-ruby-g" x1="45.709%" x2="54.217%" y1="58.346%" y2="-46.717%">
      <stop offset="0%" stop-color="#FFF"/>
      <stop offset="0%" stop-color="#FFF"/>
      <stop offset="54%" stop-color="#C81F11"/>
      <stop offset="99%" stop-color="#BF0905"/>
      <stop offset="100%" stop-color="#BF0905"/>
    </linearGradient>
    <linearGradient id="icon-ruby-h" x1="27.624%" x2="50.745%" y1="48.193%" y2="51.819%">
      <stop offset="0%" stop-color="#FFF"/>
      <stop offset="0%" stop-color="#FFF"/>
      <stop offset="31%" stop-color="#DE4024"/>
      <stop offset="99%" stop-color="#BF190B"/>
      <stop offset="100%" stop-color="#BF190B"/>
    </linearGradient>
    <linearGradient id="icon-ruby-i" x1="-20.466%" x2="104.087%" y1="122.282%" y2="-6.342%">
      <stop offset="0%" stop-color="#BD0012"/>
      <stop offset="0%" stop-color="#BD0012"/>
      <stop offset="7%" stop-color="#FFF"/>
      <stop offset="17%" stop-color="#FFF"/>
      <stop offset="27%" stop-color="#C82F1C"/>
      <stop offset="33%" stop-color="#820C01"/>
      <stop offset="46%" stop-color="#A31601"/>
      <stop offset="72%" stop-color="#B31301"/>
      <stop offset="99%" stop-color="#E82609"/>
      <stop offset="100%" stop-color="#E82609"/>
    </linearGradient>
    <linearGradient id="icon-ruby-j" x1="55.166%" x2="27.65%" y1="65.205%" y2="50.128%">
      <stop offset="0%" stop-color="#8C0C01"/>
      <stop offset="0%" stop-color="#8C0C01"/>
      <stop offset="54%" stop-color="#990C00"/>
      <stop offset="99%" stop-color="#A80D0E"/>
      <stop offset="100%" stop-color="#A80D0E"/>
    </linearGradient>
    <linearGradient id="icon-ruby-k" x1="79.319%" x2="23.088%" y1="60.108%" y2="24.551%">
      <stop offset="0%" stop-color="#7E110B"/>
      <stop offset="0%" stop-color="#7E110B"/>
      <stop offset="99%" stop-color="#9E0C00"/>
      <stop offset="100%" stop-color="#9E0C00"/>
    </linearGradient>
    <linearGradient id="icon-ruby-l" x1="92.88%" x2="59.841%" y1="72.906%" y2="40.223%">
      <stop offset="0%" stop-color="#79130D"/>
      <stop offset="0%" stop-color="#79130D"/>
      <stop offset="99%" stop-color="#9E120B"/>
      <stop offset="100%" stop-color="#9E120B"/>
    </linearGradient>
    <radialGradient id="icon-ruby-m" cx="32.001%" cy="40.21%" r="69.573%" fx="32.001%" fy="40.21%" gradientTransform="matrix(.52253 0 0 1 .153 0)">
      <stop offset="0%" stop-color="#A80D00"/>
      <stop offset="0%" stop-color="#A80D00"/>
      <stop offset="99%" stop-color="#7E0E08"/>
      <stop offset="100%" stop-color="#7E0E08"/>
    </radialGradient>
    <radialGradient id="icon-ruby-n" cx="13.549%" cy="40.86%" r="88.386%" fx="13.549%" fy="40.86%" gradientTransform="matrix(.77846 0 0 1 .03 0)">
      <stop offset="0%" stop-color="#A30C00"/>
      <stop offset="0%" stop-color="#A30C00"/>
      <stop offset="99%" stop-color="#800E08"/>
      <stop offset="100%" stop-color="#800E08"/>
    </radialGradient>
    <linearGradient id="icon-ruby-o" x1="56.57%" x2="3.105%" y1="62.653%" y2="40.701%">
      <stop offset="0%" stop-color="#8B2114"/>
      <stop offset="0%" stop-color="#8B2114"/>
      <stop offset="43%" stop-color="#9E100A"/>
      <stop offset="99%" stop-color="#B3100C"/>
      <stop offset="100%" stop-color="#B3100C"/>
    </linearGradient>
    <linearGradient id="icon-ruby-p" x1="46.662%" x2="57.41%" y1="35.599%" y2="100.694%">
      <stop offset="0%" stop-color="#B31000"/>
      <stop offset="0%" stop-color="#B31000"/>
      <stop offset="44%" stop-color="#910F08"/>
      <stop offset="99%" stop-color="#791C12"/>
      <stop offset="100%" stop-color="#791C12"/>
    </linearGradient>
  </defs>
  <g fill="none" transform="translate(13 13)">
    <polygon fill="url(#icon-ruby-a)" points="18.083 16.139 4.856 23.993 21.982 22.831 23.301 5.561 18.083 16.139"/>
    <polygon fill="url(#icon-ruby-b)" points="22.01 22.819 20.538 12.659 16.529 17.954 22.01 22.819"/>
    <polygon fill="url(#icon-ruby-c)" points="22.03 22.819 11.246 21.972 4.913 23.971"/>
    <polygon fill="url(#icon-ruby-d)" points="4.928 23.973 7.622 15.147 1.694 16.415 4.928 23.973"/>
    <polygon fill="url(#icon-ruby-e)" points="16.528 17.983 14.049 8.273 6.955 14.923 16.528 17.983"/>
    <polygon fill="url(#icon-ruby-f)" points="22.739 8.41 16.033 2.933 14.166 8.97 22.739 8.41"/>
    <polygon fill="url(#icon-ruby-g)" points="19.603 .98 15.659 3.16 13.171 .951 19.603 .98"/>
    <polygon fill="url(#icon-ruby-h)" points=".134 19.375 1.786 16.362 .45 12.772"/>
    <path fill="#FFF" d="M0.361035814,12.6590183 L1.70572377,16.4732092 L7.54867201,15.1623339 L14.2193932,8.96271702 L16.1019927,2.98306399 L13.1377529,0.890044548 L8.09812711,2.77609803 C6.51029731,4.25294607 3.42925853,7.175011 3.31818588,7.22991107 C3.20820397,7.28608365 1.28361137,10.9237582 0.361035814,12.6590183 Z"/>
    <path fill="url(#icon-ruby-i)" d="M5.082623,5.80687235 C8.52387528,2.39488799 12.9601457,0.379037672 14.6625931,2.0967552 C16.3641314,3.81447272 14.5597009,7.98878627 11.1184486,11.3996799 C7.67719633,14.8104826 3.29591682,16.9374056 1.59456024,15.2196881 C-0.107887073,13.5031522 1.64137072,9.21776599 5.082623,5.80687235 Z"/>
    <path fill="url(#icon-ruby-j)" d="M4.92828474,23.9695219 L7.60129972,15.1156143 L16.4784763,17.9675089 C13.2688223,20.9772867 9.69895476,23.5216865 4.92828474,23.9695219 Z"/>
    <path fill="url(#icon-ruby-k)" d="M14.2311186,8.94526534 L16.5101074,17.9722354 C19.1913029,15.1530627 21.5976344,12.1222883 22.7761679,8.37354118 L14.2312094,8.94526534 L14.2311186,8.94526534 Z"/>
    <path fill="url(#icon-ruby-l)" d="M22.752899,8.41907915 C23.6650217,5.66662269 23.8754417,1.71790841 19.5746944,0.984756245 L16.0457292,2.93398116 L22.752899,8.41907915 L22.752899,8.41907915 Z"/>
    <path fill="#9E1209" d="M0.134164031,19.3356476 C0.260506891,23.878446 3.53796792,23.9461621 4.93410197,23.9859738 L1.70917775,16.454485 L0.134164031,19.3356476 Z"/>
    <path fill="url(#icon-ruby-m)" d="M14.2438437,8.95935394 C16.3041413,10.2256911 20.4564584,12.7689093 20.5406264,12.8156289 C20.671514,12.8892531 22.3307866,10.0175436 22.707361,8.39453773 L14.2438437,8.95935394 L14.2438437,8.95935394 Z"/>
    <path fill="url(#icon-ruby-n)" d="M7.59775485,15.1156143 L11.1710763,22.0097533 C13.2840016,20.8638508 14.9386386,19.4677168 16.4539348,17.9722354 L7.59775485,15.1156143 Z"/>
    <path fill="url(#icon-ruby-o)" d="M1.69518005,16.4638471 L1.18889967,22.4926739 C2.14419712,23.7976411 3.45852644,23.911077 4.83702702,23.8093664 C3.83964558,21.3269565 1.84715506,16.3633182 1.69518005,16.4638471 Z"/>
    <path fill="url(#icon-ruby-p)" d="M16.0248236,2.94916048 L23.1236562,3.94536029 C22.7447185,2.33998793 21.5812735,1.30397648 19.5981451,0.980120644 L16.0248236,2.94916048 L16.0248236,2.94916048 Z"/>
  </g>
</svg>
