<svg xmlns="http://www.w3.org/2000/svg" width="50" height="50" viewBox="0 0 50 50">
  <g fill="none" transform="translate(10 10)">
    <path fill="#435363" d="M15.0212014,21.7816901 C11.2897527,21.7816901 8.25795053,18.7605634 8.25795053,15.0422535 C8.25795053,11.3239437 11.2897527,8.3028169 15.0212014,8.3028169 C18.0954064,8.3028169 20.7031802,10.3626761 21.5194346,13.1725352 L24.1378092,13.1725352 C23.2685512,8.95774648 19.5159011,5.77816901 15.0212014,5.77816901 C9.89045936,5.77816901 5.72438163,9.94014085 5.72438163,15.0422535 C5.72438163,20.1549296 9.90106007,24.306338 15.0212014,24.306338 C19.5053004,24.306338 23.2579505,21.1267606 24.1378092,16.9119718 L21.5088339,16.9119718 C20.6925795,19.721831 18.0954064,21.7816901 15.0212014,21.7816901"/>
    <path fill="#435363" d="M10.4628975,19.584507 C11.6289753,20.7464789 13.2402827,21.4647887 15.0212014,21.4647887 L15.0212014,18.7816901 C13.9823322,18.7816901 13.04947,18.3591549 12.3710247,17.6830986 L10.4628975,19.584507 Z"/>
    <path fill="#F38B00" d="M8.56537102,15.0422535 C8.56537102,15.9612676 8.76678445,16.8380282 9.11660777,17.6302817 L11.5865724,16.5528169 C11.385159,16.0880282 11.2685512,15.5809859 11.2685512,15.0422535 C11.2685512,12.971831 12.9540636,11.3028169 15.0212014,11.3028169 L15.0212014,8.61971831 C11.459364,8.61971831 8.56537102,11.5035211 8.56537102,15.0422535"/>
    <path fill="#435363" d="M17.3533569,9.0528169 L16.3780919,11.556338 C17.1731449,11.8626761 17.8409894,12.443662 18.2650177,13.1725352 L21.1908127,13.1725352 C20.6077739,11.2922535 19.1872792,9.77112676 17.3533569,9.0528169"/>
    <path fill="#F38B00" d="M16.3780919,18.528169 L17.3533569,21.0316901 C19.1872792,20.3239437 20.6077739,18.8028169 21.180212,16.9119718 L18.2650177,16.9119718 C17.8409894,17.6408451 17.1731449,18.221831 16.3780919,18.528169"/>
    <path fill="#F38B00" d="M15.0212014 27.4647887C11.5865724 27.4647887 8.46996466 26.0704225 6.21201413 23.8204225L4.40989399 25.6161972C7.12367491 28.3204225 10.8763251 30 15.0212014 30 22.6749117 30 28.9929329 24.2852113 29.9151943 16.9119718L27.3392226 16.9119718C26.4381625 22.8802817 21.254417 27.4647887 15.0212014 27.4647887M15.0212014 2.61971831C17.8091873 2.61971831 20.3957597 3.53873239 22.4734982 5.0915493L24 3.0528169C21.4876325 1.19366197 18.3816254.0845070423 15.0212014.0845070423 8.65017668.0845070423 3.21201413 4.03521127 1.02826855 9.62323944L3.40282686 10.5422535C5.2155477 5.90492958 9.74204947 2.61971831 15.0212014 2.61971831"/>
    <path fill="#435363" d="M27.3392226,13.1725352 L29.9151943,13.1725352 C29.639576,10.9753521 28.8869258,8.91549296 27.7526502,7.11971831 L25.590106,8.46126761 C26.4699647,9.87676056 27.0848057,11.471831 27.3392226,13.1725352"/>
    <path fill="#F38B00" d="M24.4452297,13.1725352 L27.0212014,13.1725352 C26.3533569,8.86267606 23.385159,5.3028169 19.4204947,3.76056338 L18.4982332,6.11619718 C21.5194346,7.28873239 23.7985866,9.94014085 24.4452297,13.1725352"/>
    <path fill="#435363" d="M15.0212014,5.46126761 L15.0212014,5.46126761 L15.0212014,2.92605634 L15.0212014,2.92605634 C9.86925795,2.92605634 5.45936396,6.13732394 3.69964664,10.6478873 L6.06360424,11.5669014 C7.45229682,7.99647887 10.9399293,5.46126761 15.0212014,5.46126761"/>
    <path fill="#F38B00" d="M5.40636042,15.0422535 L5.40636042,15.0422535 L2.86219081,15.0422535 L2.86219081,15.0422535 C2.86219081,20.1338028 6.03180212,24.4964789 10.5053004,26.2816901 L11.4487633,23.9366197 C7.90812721,22.5211268 5.40636042,19.0669014 5.40636042,15.0422535"/>
    <path fill="#435363" d="M15.0212014 24.6232394L15.0212014 27.1584507C21.0848057 27.1584507 26.1201413 22.7112676 27.0318021 16.9119718L24.4558304 16.9119718C23.5759717 21.306338 19.6749117 24.6232394 15.0212014 24.6232394M1.27208481 21.0633803C.424028269 19.1514085 0 17.0915493 0 15.0422535L2.55477032 15.0422535C2.55477032 16.7429577 2.90459364 18.4542254 3.60424028 20.0387324L1.27208481 21.0633803z"/>
  </g>
</svg>
