<svg xmlns="http://www.w3.org/2000/svg" width="50" height="50" viewBox="0 0 50 50">
  <defs>
    <linearGradient id="icon-scala-a" x1="0%" y1="50%" y2="50%">
      <stop offset="0%" stop-color="#3C3C3C"/>
      <stop offset="100%"/>
    </linearGradient>
    <linearGradient id="icon-scala-b" x1="0%" y1="50%" y2="50%">
      <stop offset="0%" stop-color="#C70813"/>
      <stop offset="100%" stop-color="#F80D1C"/>
    </linearGradient>
  </defs>
  <g fill="none" transform="translate(16 11)">
    <path fill="url(#icon-scala-a)" d="M1.13686838e-13,19.6511031 L1.13686838e-13,17.4676472 C1.13686838e-13,17.0995984 7.94075147,16.4831815 13.114382,15.2841913 C15.6136202,15.8634894 17.4676472,16.578503 17.4676472,17.4676472 L17.4676472,19.6511031 C17.4676472,20.5397696 15.6136202,21.2552608 13.114382,21.834559 C7.94068323,20.635364 1.13686838e-13,20.0188789 1.13686838e-13,19.6511031" transform="matrix(1 0 0 -1 0 37.119)"/>
    <path fill="url(#icon-scala-a)" d="M1.13686838e-13,10.9172795 L1.13686838e-13,8.73382359 C1.13686838e-13,8.3657748 7.94075147,7.74935791 13.114382,6.55036769 C15.6136202,7.12966583 17.4676472,7.84467941 17.4676472,8.73382359 L17.4676472,10.9172795 C17.4676472,11.805946 15.6136202,12.5214372 13.114382,13.1007354 C7.94068323,11.9015405 1.13686838e-13,11.2850553 1.13686838e-13,10.9172795" transform="matrix(1 0 0 -1 0 19.651)"/>
    <path fill="url(#icon-scala-b)" d="M1.13686838e-13,15.2841913 L1.13686838e-13,8.73382359 C1.13686838e-13,9.27968756 17.4676472,10.3714155 17.4676472,13.1007354 L17.4676472,19.6511031 C17.4676472,16.9217832 1.13686838e-13,15.8300553 1.13686838e-13,15.2841913" transform="matrix(1 0 0 -1 0 28.385)"/>
    <path fill="url(#icon-scala-b)" d="M1.13686838e-13,6.55036769 L1.13686838e-13,-3.69482223e-13 C1.13686838e-13,0.545863974 17.4676472,1.63759192 17.4676472,4.36691179 L17.4676472,10.9172795 C17.4676472,8.18795961 1.13686838e-13,7.09623166 1.13686838e-13,6.55036769" transform="matrix(1 0 0 -1 0 10.917)"/>
    <path fill="url(#icon-scala-b)" d="M1.13686838e-13,24.0180149 L1.13686838e-13,17.4676472 C1.13686838e-13,18.0135111 17.4676472,19.1052391 17.4676472,21.834559 L17.4676472,28.3849267 C17.4676472,25.6556068 1.13686838e-13,24.5638788 1.13686838e-13,24.0180149" transform="matrix(1 0 0 -1 0 45.853)"/>
  </g>
</svg>
