<svg xmlns="http://www.w3.org/2000/svg" width="50" height="50" viewBox="0 0 50 50">
  <defs>
    <linearGradient id="icon-cloudfoundry-contrast-a" x1="50.109%" x2="50.109%" y1="1.516%" y2="99.952%">
      <stop offset="0%" stop-color="#41B5E7"/>
      <stop offset="4%" stop-color="#3AB4E7"/>
      <stop offset="9%" stop-color="#25B3E7"/>
      <stop offset="13%" stop-color="#14B1E7"/>
      <stop offset="43%" stop-color="#238ECE"/>
      <stop offset="80%" stop-color="#3469B3"/>
    </linearGradient>
  </defs>
  <g fill="none" transform="translate(15 10)">
    <path fill="#FFF" d="M7.5764524 17.7543262C7.5764524 17.7543262 8.0713469 15.879131 5.91305729 13.4427461L5.844322 13.3606207C3.69977945 10.8421105 4.02970908 7.06434491 6.55916949 4.94277373 7.63144072 4.03939509 9.01989453 3.546643 10.4358424 3.546643L10.5733131 3.546643C13.8863563 3.546643 16.5807815 6.21571645 16.5807815 9.51441745 16.5807815 10.9242357 16.0858871 12.2929914 15.1648335 13.3743083 15.1510865 13.3879958 15.1373394 13.4153709 15.0960982 13.4427461 13.9550917 14.5788132 13.3502206 16.1391946 13.432703 17.7543262 16.9519523 16.5498213 19.3164478 13.2784954 19.3439419 9.56916773 19.371436 4.95646127 15.6322338 1.02813272 11.0132193.809131818 10.958231.809131818 10.9032427.809131818 10.8482544.809131818L10.5183248.809131818 10.1883952.809131818C10.1334069.809131818 10.0784187.809131818 10.0234304.809131818 5.37692172 1.02813272 1.65146648 4.97014882 1.66521353 9.56916773 1.69270765 13.2648078 4.07095034 16.5498213 7.5764524 17.7543262M18.9315299 24.6939172C19.0964947 24.6254794 19.2752066 24.5707292 19.4539185 24.543354 19.6601245 24.5022914 19.8525835 24.4749163 20.0587894 24.4749163L20.0312953 24.3106655C20.0175482 24.1874775 19.9763071 24.0642895 19.9350658 23.9411015L19.8663305 23.7494758C19.8388363 23.6947255 19.8113422 23.6399754 19.7838481 23.5852251L19.7013657 23.434662C19.4951597 23.4072869 19.2752066 23.3525366 19.0690006 23.2977865 18.8765416 23.2430362 18.6840827 23.1745985 18.5053708 23.1061606 18.2166825 22.9966602 17.9554881 22.8324095 17.721788 22.6270962 17.5705703 22.5175957 17.4880879 22.3259699 17.501835 22.1343442 17.515582 22.0522188 17.5568232 21.983781 17.6118115 21.9153433 17.6805468 21.8469055 17.7492822 21.7784677 17.8455117 21.737405L17.6530527 21.6279045C17.5980644 21.6005295 17.5293291 21.5594668 17.4605937 21.5184041L17.2268936 21.4089037C17.0619288 21.3267784 16.9107111 21.2583405 16.7732403 21.2035904L16.5670344 21.121465C16.4020695 21.1488401 16.2371048 21.1488401 16.0721399 21.1488401 15.8934281 21.1488401 15.7147162 21.1488401 15.5360043 21.1351525 15.1923277 21.1077775 14.862398 21.0530273 14.5462155 20.9709019 14.4087448 20.9435268 14.2712741 20.8887765 14.1338035 20.8340264 14.0238269 20.7929636 13.9275974 20.7382135 13.831368 20.6697756 13.6664032 20.5602752 13.5564266 20.4370872 13.5701737 20.3138992L13.3227265 20.2728365C13.1715088 20.2454615 12.8553262 20.2043987 12.6491202 20.1770236 12.6491202 20.2043987 12.6216261 20.2454615 12.6216261 20.3002116L12.5666378 20.5465876C12.4566613 21.0393396 12.7453497 21.5320917 13.2402441 21.6826548 14.436239 22.0248437 15.3297983 22.5997211 15.5909926 23.2977865 16.1133812 24.7076047 13.9138504 26.0900478 10.545819 26.0900478 7.17778749 26.0900478 4.96450966 24.7349798 5.48689826 23.311474 5.73434546 22.6270962 6.60041066 22.0659064 7.75516432 21.7237175 8.26380578 21.5594668 8.5662413 21.0530273 8.45626475 20.5329001L8.38752938 20.2043987 7.93387615 20.259149C7.72767021 20.2865241 7.54895829 20.3138992 7.39774058 20.3412743L7.15029338 20.382337C7.13654632 20.5329001 7.05406389 20.6697756 6.91659323 20.7382135 6.82036375 20.8066512 6.73788132 20.8614015 6.62790477 20.9024641 6.50418117 20.9572144 6.36671052 21.0119645 6.24298692 21.0530273 6.0917692 21.0940899 5.92680434 21.1351525 5.76183957 21.1625276 5.5968748 21.1899028 5.41816289 21.2172779 5.23945106 21.2309655 4.89577437 21.2720281 4.55209769 21.2720281 4.19467394 21.2309655L4.13968563 21.2583405C4.09844446 21.2720281 4.04345614 21.2994033 3.98846791 21.3267784L3.54856174 21.5320917C3.39734403 21.614217 3.24612631 21.6963424 3.13614977 21.7647802L2.99867911 21.8469055 2.9436908 21.8742806C3.16364388 21.983781 3.28736748 22.1206566 3.3148616 22.2712197 3.36984991 22.4217828 3.30111454 22.5997211 3.14989683 22.7639717 3.05366734 22.8597846 2.9436908 22.94191 2.83371425 23.0240353 2.6962436 23.1198482 2.54502588 23.2019735 2.38006102 23.2567237 1.99514317 23.434662 1.59647825 23.55785 1.18406619 23.6262877 1.15657208 23.681038 1.12907797 23.7357882 1.11533091 23.7905385L.991607309 24.1464149.936618991 24.5159789C.950366048 24.5570415.950366048 24.6117918.950366048 24.6802295 1.34903105 24.6802295 1.76144302 24.7486674 2.13261382 24.8855429 2.43504934 24.9676683 2.68249654 25.1592941 2.87495542 25.3919825 3.02617323 25.6246709 3.03992028 25.8984221 2.9436908 26.1584856 2.8199672 26.5006745 2.57252 26.8018008 2.27008448 27.0208016L2.3250728 27.0755519 2.49003757 27.1987399C2.64125537 27.2945528 2.8199672 27.4451159 3.03992028 27.5683039L3.67228534 27.9104928C3.75476777 27.965243 3.85099726 27.9926182 3.90598548 28.0199933L4.00221497 28.0610559C4.52460348 27.8557426 5.0744862 27.718867 5.63811597 27.6641168 5.91305729 27.6367417 6.17425154 27.6230542 6.44919295 27.6504293 6.7103872 27.6641168 6.98532852 27.6914919 7.24652287 27.7462422 7.49397007 27.8009924 7.72767021 27.8831177 7.96137035 27.965243 8.16757629 28.0610559 8.37378232 28.1705564 8.55249424 28.2937444 8.90991798 28.5264328 9.17111224 28.8686217 9.32232995 29.2655609L9.78973024 29.2792485C10.0784187 29.292936 10.4495895 29.3066235 10.8345074 29.292936 11.2194252 29.2792485 11.590596 29.2792485 11.8655374 29.2518733L12.3329377 29.2108106C12.3741789 29.0191848 12.4566613 28.8275591 12.5803849 28.676996 12.6353731 28.5948706 12.7041085 28.5127453 12.7728438 28.4443075 12.8415792 28.3621822 12.9240616 28.2937444 13.0065439 28.2253066 13.1715088 28.088431 13.3639678 27.965243 13.5701737 27.8831177 13.7901268 27.7736173 14.0238269 27.6914919 14.2575271 27.6367417 14.5049743 27.5819915 14.7661685 27.5409288 15.0273629 27.5135537 15.3023042 27.4998661 15.5634985 27.4998661 15.8384399 27.5135537 16.4020695 27.5546164 16.9519523 27.6641168 17.4880879 27.8694302L17.7767763 27.7051795C17.9829823 27.595679 18.1754412 27.4861785 18.3541531 27.349303 18.5328649 27.2124275 18.739071 27.0892395 18.8490475 26.979739L19.0415065 26.8018008C18.7253239 26.5964875 18.4641297 26.3090487 18.2854177 25.9668598 18.2304295 25.8436718 18.2029354 25.7067963 18.2029354 25.5836083 18.1891883 25.4604203 18.2166825 25.3372323 18.2854177 25.2277318 18.3816472 24.9950434 18.6428415 24.8307927 18.9315299 24.6939172"/>
    <path fill="url(#icon-cloudfoundry-contrast-a)" d="M6.05052794,9.54179255 C6.03678089,10.6367971 6.57291655,11.6359886 7.43898175,12.334054 C8.51125298,13.1963701 9.37731827,14.9483773 9.4323065,16.8646351 C9.48729481,18.9862063 9.33607701,21.4499664 9.25359467,22.695534 C8.11258807,22.8597846 7.30151109,23.2430362 7.30151109,23.681038 C7.30151109,24.2696029 8.71745901,24.9539807 10.4770836,24.9539807 C12.2367082,24.9539807 13.6526561,24.2696029 13.6526561,23.681038 C13.6526561,23.2430362 12.8553262,22.8597846 11.7005726,22.695534 C11.6043432,21.4499664 11.4668724,18.9862063 11.5218607,16.8646351 C11.576849,14.9483773 12.4566613,13.1963701 13.5151855,12.334054 C14.3812507,11.6359886 14.9173863,10.6367971 14.9036393,9.54179255 C14.8898921,7.44759655 12.8965675,5.76402709 10.4633366,5.76402709 C8.03010563,5.76402709 6.06427509,7.44759655 6.05052794,9.54179255"/>
  </g>
</svg>
