<svg xmlns="http://www.w3.org/2000/svg" width="51" height="50" viewBox="0 0 51 50">
  <g fill="none" transform="translate(12 11)">
    <path fill="#39719F" d="M14.0571928,0 C6.86819908,0 7.31706764,3.11063697 7.31706764,3.11063697 L7.32505147,6.33335201 L14.1853776,6.33335201 L14.1853776,7.30089675 L4.60023744,7.30089675 C4.60023744,7.30089675 0,6.78033666 0,14.0178368 C0,21.2555583 4.01520025,20.998874 4.01520025,20.998874 L6.41145757,20.998874 L6.41145757,17.6402933 C6.41145757,17.6402933 6.2822748,13.6340275 10.3625654,13.6340275 L17.166783,13.6340275 C17.166783,13.6340275 20.9895952,13.6956538 20.9895952,9.94762118 L20.9895952,3.75046672 C20.9895952,3.75046672 21.5701969,0 14.0571928,0 Z M10.2744107,2.1672117 C10.6018223,2.16691779 10.9159086,2.29656198 11.1474236,2.52756188 C11.3789387,2.75856178 11.508872,3.07194922 11.5085774,3.39863227 C11.508872,3.72531533 11.3789387,4.03870277 11.1474236,4.26970266 C10.9159086,4.50070256 10.6018223,4.63034676 10.2744107,4.63005285 C9.94699906,4.63034676 9.63291274,4.50070256 9.40139769,4.26970266 C9.16988263,4.03870277 9.03994932,3.72531533 9.04024388,3.39863227 C9.03994932,3.07194922 9.16988263,2.75856178 9.40139769,2.52756188 C9.63291274,2.29656198 9.94699906,2.16691779 10.2744107,2.1672117 L10.2744107,2.1672117 Z"/>
    <path fill="#FECD50" d="M13.9429146,28 C21.1319101,28 20.6830415,24.889363 20.6830415,24.889363 L20.6750576,21.6667586 L13.8146189,21.6667586 L13.8146189,20.6992139 L23.3997614,20.6992139 C23.3997614,20.6992139 28,21.219774 28,13.9820526 C28,6.74444176 23.9847988,7.00112602 23.9847988,7.00112602 L21.5885409,7.00112602 L21.5885409,10.359596 C21.5885409,10.359596 21.7177237,14.3658619 17.637432,14.3658619 L10.8332128,14.3658619 C10.8332128,14.3658619 7.01039968,14.3042355 7.01039968,18.0523788 L7.01039968,24.2496439 C7.01039968,24.2496439 6.4299087,28 13.9428037,28 L13.9429146,28 Z M17.7256977,25.8330096 C17.398286,25.8333035 17.0841996,25.7036593 16.8526845,25.4726594 C16.6211694,25.2416595 16.4912361,24.9282721 16.4915306,24.601589 C16.4912066,24.2748868 16.6211269,23.9614709 16.8526452,23.7304471 C17.0841636,23.4994232 17.3982668,23.3697638 17.7256977,23.3700578 C18.0531094,23.3697639 18.3671958,23.4994081 18.5987109,23.730408 C18.830226,23.9614079 18.9601593,24.2747953 18.9598648,24.6014784 C18.9601593,24.9281614 18.830226,25.2415489 18.5987109,25.4725488 C18.3671958,25.7035487 18.0531094,25.8331929 17.7256977,25.8328989 L17.7256977,25.8330096 Z"/>
  </g>
</svg>
