<svg xmlns="http://www.w3.org/2000/svg" width="50" height="50" viewBox="0 0 50 50">
  <defs>
    <linearGradient id="icon-mesosphere-a" x1=".024%" x2="100.048%" y1="49.981%" y2="49.981%">
      <stop offset="0%" stop-color="#9351E5"/>
      <stop offset="100%" stop-color="#EF468B"/>
    </linearGradient>
  </defs>
  <path fill="url(#icon-mesosphere-a)" d="M14.77174,21.6296313 C14.3077987,21.6296313 13.8718807,21.3754757 13.5695058,20.9377952 L8.76045333,13.8008263 L1.98976978,17.9870423 C1.72256822,18.1564407 1.44833189,18.234019 1.18113033,18.234019 C0.611669111,18.234019 0,17.8105806 0,16.8716521 L0,1.84948907 C0,1.17189501 0.379640778,0.53644789 0.977240556,0.21884016 C1.23048822,0.0211893 1.58914033,0 1.84907667,0 L27.6874841,0 C28.0319516,0 28.2991532,0.0635679 28.4958929,0.19058776 C29.121862,0.50136405 29.5224914,1.15070571 29.5224914,1.84948907 L29.5224914,13.3773879 C29.5224914,13.7655109 29.4100522,14.1114867 29.1920932,14.3656424 C28.9600649,14.6408715 28.6225168,14.7962597 28.2499106,14.7962597 C28.0178822,14.7962597 27.7717847,14.7397549 27.5327217,14.6196823 L22.0416536,11.9018956 L15.9600203,20.9307322 C15.6717148,21.3753598 15.2357967,21.6296313 14.77174,21.6296313 Z M9.81507522,13.1512531 L14.5889543,20.2387803 C14.6593009,20.3447268 14.7296474,20.3869896 14.77174,20.3869896 C14.813948,20.3869896 14.8842946,20.3376637 14.9546411,20.2387803 L20.9448238,11.3512057 L16.381869,9.09217287 L9.81507522,13.1512531 Z M1.188165,17.0058508 L1.188165,17.6270559 L1.188165,17.0058508 Z M1.23740756,2.62608225 L1.23740756,16.8788309 C1.23740756,16.9282726 1.24444222,16.9634722 1.24444222,16.9917246 C1.27258078,16.9847774 1.30071944,16.9634722 1.34292744,16.9423988 L8.071403,12.7774879 L1.23740756,2.62608225 Z M22.7519232,10.8713783 L28.0883441,13.5115868 C28.2359567,13.5822177 28.2781646,13.5609126 28.2781646,13.5609126 C28.2781646,13.5539654 28.3063032,13.4974606 28.3063032,13.3773879 L28.3063032,2.62608225 L22.7519232,10.8712625 L22.7519232,10.8713783 Z M2.43272244,2.19546492 L9.12602489,12.1277989 L15.0741149,8.44989431 L2.43272244,2.19546492 Z M17.6122419,8.32993744 L21.6338741,10.3206884 L26.8086133,2.64020845 L17.6122419,8.32993744 L17.6122419,8.32993744 Z M3.262466,1.22828398 L16.3116378,7.68047995 L26.7524514,1.22828398 L3.26235067,1.22828398 L3.262466,1.22828398 Z" transform="translate(10 14)"/>
</svg>
