<?xml version="1.0" encoding="UTF-8"?>
<svg width="150px" height="60px" viewBox="0 0 150 60" version="1.1" xmlns="http://www.w3.org/2000/svg" xmlns:xlink="http://www.w3.org/1999/xlink">
    <!-- Generator: Sketch 46.2 (44496) - http://www.bohemiancoding.com/sketch -->
    <title>logo-coreos@1x</title>
    <desc>Created with Sketch.</desc>
    <defs></defs>
    <g id="Symbols" stroke="none" stroke-width="1" fill="none" fill-rule="evenodd">
        <g id="home-v4---bg" transform="translate(-1059.000000, -2724.000000)" fill-rule="nonzero" fill="#FFFFFF">
            <g id="testimonial" transform="translate(130.000000, 2609.000000)">
                <g id="Group-11" transform="translate(932.062500, 125.500000)">
                    <path d="M21.1098653,0.0260802313 L21.1101441,0.0260802313 C32.5998013,0.0260802313 41.9489631,9.3746846 41.9489631,20.8660143 C41.9489631,32.3581802 32.60008,41.7065058 21.1101441,41.7065058 C9.6171419,41.7065058 0.268816278,32.3581802 0.268816278,20.8660143 C0.268816278,9.3746846 9.61686315,0.0260802313 21.1098653,0.0260802313 Z M21.1098653,1.93828209 C17.7584946,1.93828209 14.9161153,7.29885847 13.8897702,14.7497558 C13.8568781,14.9894779 13.825101,15.2319875 13.7969476,15.4761695 C13.656738,16.6488566 13.5616854,17.8680943 13.5142985,19.1232904 C13.49172,19.6975084 13.4802914,20.2781377 13.4802914,20.8660143 C13.4802914,21.4536122 13.4914413,22.0353564 13.5142985,22.6081807 C13.5616854,23.8633768 13.656738,25.0834508 13.7969476,26.2561378 C15.3685211,26.4596229 17.0488057,26.5976024 18.8012858,26.6631079 C19.5589191,26.69154 20.3277023,26.7082648 21.1101441,26.7082648 C21.8903559,26.7082648 22.661369,26.6912613 23.4167724,26.6631079 C25.1714824,26.5976024 26.8503734,26.4596229 28.4230618,26.2561378 C28.5961635,26.2338381 28.7664777,26.2098659 28.9387431,26.1847787 C35.4842714,25.2654723 40.0373188,23.2311794 40.0373188,20.866293 C40.0373188,10.4119008 31.5623063,1.93828209 21.1098653,1.93828209 Z" id="Combined-Shape"></path>
                    <path d="M28.9387431,15.5469712 C28.7492946,15.2707727 28.5455313,15.0046708 28.328288,14.7497558 C26.5916965,12.7029193 24.004649,11.4020088 21.1101441,11.4020088 C20.1718829,11.4020088 19.3362005,12.8383902 18.8012858,15.0689207 C18.5886021,15.9581224 18.4235841,16.9727602 18.3173816,18.0738093 C18.2337576,18.9565999 18.1886007,19.8951398 18.1886007,20.8660143 C18.1886007,21.8371675 18.2337576,22.7759862 18.3173816,23.6576618 C19.2004509,23.7412857 20.1375971,23.7864427 21.1101441,23.7864427 C22.0815761,23.7864427 23.0187222,23.7415645 23.9017915,23.6576618 C25.842983,23.473689 27.5188078,23.1001685 28.7057109,22.6084595 C29.8781192,22.1234403 30.5719196,21.5196751 30.5719196,20.866293 C30.5719196,18.8944394 29.9698269,17.0630741 28.9384643,15.5469712 L28.9387431,15.5469712 Z" id="Shape"></path>
                    <path d="M61.5835968,10.5992185 C64.0240235,10.5992185 66.0078632,11.7894666 67.2577631,13.1319104 L65.306258,15.3284338 C64.2682056,14.3213222 63.1392817,13.6810412 61.6139802,13.6810412 C58.3487422,13.6810412 55.9997444,16.4266955 55.9997444,20.9120075 C55.9997444,25.4589225 58.1656057,28.2045767 61.4910529,28.2045767 C63.261094,28.2045767 64.5734331,27.4725881 65.7023569,26.2212945 L67.6544196,28.3871558 C66.0382466,30.248347 63.962978,31.2861207 61.4300074,31.2861207 C56.3651812,31.2861207 52.3685121,27.6250625 52.3685121,21.0039939 C52.3685121,14.4740754 56.4571676,10.5992185 61.5835968,10.5992185 L61.5835968,10.5992185 Z M75.5588377,15.5726158 C79.3113248,15.5726158 82.6989325,18.4409186 82.6989325,23.4446993 C82.6989325,28.4180967 79.311046,31.2863994 75.5588377,31.2863994 C71.8361765,31.2863994 68.4499624,28.4180967 68.4499624,23.4446993 C68.4499624,18.4411974 71.8361765,15.5726158 75.5588377,15.5726158 Z M75.5588377,28.4180967 C77.7556398,28.4180967 79.0975261,26.4345357 79.0975261,23.4446993 C79.0975261,20.4242009 77.7556398,18.4411974 75.5588377,18.4411974 C73.3617568,18.4411974 72.0499751,20.4242009 72.0499751,23.4446993 C72.0499751,26.4345357 73.3617568,28.4180967 75.5588377,28.4180967 Z M83.8599122,15.9386102 L86.7577621,15.9386102 L87.0019442,18.5928355 L87.1240352,18.5928355 C88.1916348,16.6402154 89.7788181,15.5723371 91.3648864,15.5723371 C92.1286522,15.5723371 92.6164587,15.663766 93.0736032,15.8775647 L92.4631481,18.9284465 C91.9452369,18.7765296 91.5483017,18.6848219 90.9082994,18.6848219 C89.7180513,18.6848219 88.2830637,19.5079607 87.3682173,21.7666446 L87.3682173,30.9198476 L83.8599122,30.9198476 L83.8599122,15.9386102 Z M99.6347413,15.5726158 C103.692735,15.5726158 105.828491,18.5019641 105.828491,22.6826061 C105.828491,23.3532704 105.767446,23.9631681 105.675738,24.3299986 L96.1565409,24.3299986 C96.461211,27.0452695 98.1690916,28.5705711 100.579971,28.5705711 C101.862206,28.5705711 102.95991,28.1747508 104.058729,27.4725881 L105.248698,29.6691115 C103.814547,30.6148988 102.014959,31.2863994 100.123105,31.2863994 C95.9725681,31.2863994 92.7391073,28.3874345 92.7391073,23.4446993 C92.7391073,18.5624522 96.1253213,15.5726158 99.6347413,15.5726158 L99.6347413,15.5726158 Z M102.777052,22.1025343 C102.777052,19.7220381 101.770777,18.2881655 99.726449,18.2881655 C97.9569654,18.2881655 96.4305488,19.6005046 96.1256,22.1025343 L102.777052,22.1025343 Z" id="Shape"></path>
                    <path d="M111.168719,20.7899165 C111.168719,14.4434133 114.617373,10.4459079 119.467843,10.4459079 C124.289044,10.4459079 127.736304,14.4434133 127.736304,20.7899165 C127.736304,27.1676393 124.289323,31.2863994 119.467843,31.2863994 C114.617373,31.2863994 111.168719,27.1673605 111.168719,20.7899165 Z M126.272048,20.7899165 C126.272048,15.2364474 123.526393,11.7284211 119.467843,11.7284211 C115.379187,11.7284211 112.632697,15.2367262 112.632697,20.7899165 C112.632697,26.3737689 115.379187,30.0047224 119.467564,30.0047224 C123.526672,30.0047224 126.271769,26.3737689 126.271769,20.7899165 L126.272048,20.7899165 Z" id="Shape"></path>
                    <path d="M130.392202,27.2894516 C131.857573,28.9368441 133.962388,30.0047224 136.312222,30.0047224 C139.362826,30.0047224 141.316282,28.3567724 141.316282,25.9779487 C141.316282,23.4756402 139.669168,22.6513864 137.685886,21.7666446 L134.634447,20.39326 C132.895068,19.6300517 130.575059,18.3795944 130.575059,15.3889218 C130.575059,12.4905144 133.077368,10.4456291 136.403651,10.4456291 C138.844636,10.4456291 140.797534,11.5441696 142.01733,12.8567875 L141.19447,13.8028535 C140.034326,12.5518387 138.417596,11.7281424 136.40393,11.7281424 C133.748868,11.7281424 131.979664,13.1319104 131.979664,15.3281551 C131.979664,17.6476057 133.993329,18.5315113 135.457585,19.2032907 L138.509303,20.5454557 C140.736489,21.552846 142.719771,22.8038608 142.719771,25.8854048 C142.719771,28.9672275 140.187079,31.2861207 136.28156,31.2861207 C133.352212,31.2861207 131.094643,30.0351058 129.508017,28.265901 L130.392202,27.2894516 L130.392202,27.2894516 Z" id="Shape"></path>
                </g>
            </g>
        </g>
    </g>
</svg>