<?xml version="1.0" encoding="UTF-8"?>
<svg width="150px" height="60px" viewBox="0 0 150 60" version="1.1" xmlns="http://www.w3.org/2000/svg" xmlns:xlink="http://www.w3.org/1999/xlink">
    <!-- Generator: Sketch 46.2 (44496) - http://www.bohemiancoding.com/sketch -->
    <title>logo-etsy@1x</title>
    <desc>Created with Sketch.</desc>
    <defs></defs>
    <g id="Symbols" stroke="none" stroke-width="1" fill="none" fill-rule="evenodd">
        <g id="home-v4---bg" transform="translate(-824.000000, -2724.000000)" fill-rule="nonzero" fill="#FFFFFF">
            <g id="testimonial" transform="translate(130.000000, 2609.000000)">
                <path d="M732.000648,140.751842 L732.000648,128.032754 C732.000648,127.561459 732.047722,127.278794 732.849941,127.278794 L743.650331,127.278794 C745.537212,127.278794 746.5748,128.880749 747.329665,131.89547 L747.942747,134.298403 L749.781993,134.298403 C750.111791,127.467983 750.394515,124.5 750.394515,124.5 C750.394515,124.5 745.772582,125.018033 743.036968,125.018033 L729.218522,125.018033 L721.8125,124.782385 L721.8125,126.761041 L724.312743,127.232056 C726.057842,127.562018 726.481508,127.938439 726.62413,129.540674 C726.62413,129.540674 726.765913,134.251385 726.765913,142.024675 C726.765913,149.796845 726.62413,154.461099 726.62413,154.461099 C726.62413,155.874144 726.057842,156.392177 724.312743,156.722979 L721.8125,157.194274 L721.8125,159.17181 L729.218522,158.936722 L741.575714,158.936722 C744.358402,158.936722 750.819862,159.17181 750.819862,159.17181 C750.960804,157.47554 751.904804,149.796845 752.046307,148.949969 L750.301208,148.949969 L748.461681,153.142648 C746.999306,156.439474 744.877336,156.675402 742.518595,156.675402 L735.490565,156.675402 C733.132104,156.675402 732.000088,155.733091 732.000088,153.707698 L732.000088,142.966705 C732.000088,142.966705 737.140956,142.966705 738.932848,143.108318 C740.253721,143.202912 741.055099,143.579613 741.480166,145.416656 L742.046454,147.866326 L744.073436,147.866326 L743.932494,141.694433 L744.215218,135.47664 L742.187676,135.47664 L741.5278,138.208696 C741.102733,139.998722 740.82029,140.329244 738.980483,140.517035 C736.905586,140.753242 731.999808,140.705944 731.999808,140.705944 L731.999808,140.752682 L732.000648,140.752682 L732.000648,140.751842 Z M759.969301,129.352044 C759.308865,132.27273 758.648428,134.533771 756.337321,136.041411 C754.922581,136.983161 753.50728,137.312564 752.942113,137.359862 L752.942113,139.149887 L757.13954,139.149887 L757.13954,153.611984 C757.13954,157.66389 759.828359,159.642825 763.412424,159.642825 C766.195392,159.642825 769.071946,158.465147 770.062741,156.014917 L769.071946,154.742924 C768.600086,155.544182 767.091758,156.72158 765.204877,156.72158 C763.129981,156.72158 761.997964,155.307974 761.997964,151.728483 L761.997964,138.962377 L768.978919,139.480969 L769.355791,136.276779 L761.998244,136.559723 L761.998244,129.398782 L759.969301,129.352044 L759.969301,129.352044 Z M774.873811,151.596946 L773.081639,151.643963 C773.175786,152.680029 773.223421,153.999599 773.223421,155.224294 C773.223421,156.496287 773.176347,157.673965 773.081639,158.239015 C773.081639,158.239015 776.666264,159.556906 780.297963,159.556906 C785.203181,159.556906 789.118165,157.20155 789.118165,152.584874 C789.118165,144.671651 777.232552,145.849609 777.232552,140.525431 C777.232552,138.311687 779.213301,137.463412 781.382906,137.463412 C783.080931,137.463412 784.495671,138.07576 784.778675,138.971612 L785.958046,142.504646 L787.703425,142.410611 C787.845207,140.52599 787.939075,138.358985 788.222359,136.616257 C786.71263,135.956611 783.552231,135.579072 781.572883,135.579072 C776.949548,135.579072 773.224261,137.605025 773.224261,142.127666 C773.224261,149.994431 784.82631,148.392755 784.82631,154.187949 C784.82631,156.2598 783.552231,157.720423 780.675956,157.720423 C778.035331,157.720423 776.714179,156.354675 776.196365,154.987807 L774.873811,151.596946 L774.873811,151.596946 Z M803.301155,157.039228 C800.570585,164.657472 797.228054,166.631089 794.215321,166.631089 C792.943484,166.631089 792.332083,166.066319 792.142947,165.174385 L791.436837,161.505616 L789.459171,161.599651 C789.082579,163.763018 788.705988,166.162033 788.188735,168.136491 C789.365864,169.028705 791.342129,169.5 792.89641,169.5 C796.145634,169.5 801.088399,169.076002 805.607218,158.35544 L813.187525,140.487369 C813.800047,139.029265 814.034576,138.888212 815.823667,138.182389 L816.8125,137.807088 L816.8125,136.161194 L812.339634,136.396282 L807.537811,136.161194 L807.537811,137.807088 L808.761173,138.182389 C809.984815,138.559369 810.550824,139.029265 810.550824,139.875861 C810.550824,140.298739 810.409041,140.722177 810.173111,141.379863 C809.467002,143.167929 805.088564,153.794457 803.912836,156.052139 L805.088284,155.628142 C803.016469,150.502948 799.863635,141.944073 799.392335,140.487649 C799.298188,140.205263 799.251114,139.970176 799.251114,139.733968 C799.251114,138.981967 799.768927,138.370459 800.898982,138.135651 L802.452703,137.807368 L802.452703,136.161474 L796.00217,136.396561 L790.870829,136.161474 L790.870829,137.807368 L791.718441,138.089193 C792.895289,138.465334 793.178013,138.794737 793.884123,140.440351 C797.79042,149.375086 799.627705,154.264632 802.121784,160.660419 L803.301155,157.039228 L803.301155,157.039228 Z" id="Shape"></path>
            </g>
        </g>
    </g>
</svg>