<?xml version="1.0" encoding="UTF-8"?>
<svg width="120px" height="33px" viewBox="0 0 120 33" version="1.1" xmlns="http://www.w3.org/2000/svg" xmlns:xlink="http://www.w3.org/1999/xlink">
    <!-- Generator: Sketch 46.2 (44496) - http://www.bohemiancoding.com/sketch -->
    <title>smartb-logo-white</title>
    <desc>Created with Sketch.</desc>
    <defs></defs>
    <g id="Symbols" stroke="none" stroke-width="1" fill="none" fill-rule="evenodd">
        <g id="home-v4---bg" transform="translate(-269.000000, -2740.000000)" fill-rule="nonzero" fill="#FFFFFF">
            <g id="smartb-logo-white" transform="translate(269.503606, 2740.695652)">
                <path d="M27.3987243,13.2182385 C30.2854661,10.0676118 33.81726,9.57982442 37.7222246,10.6220368 C38.9376018,10.9448762 40.0003078,11.6857502 40.7235831,12.7144581 C41.3019976,13.5141096 41.6751683,13.4661305 42.322886,12.7810957 C45.2549413,9.62780351 50.0848361,9.54250736 53.4540342,11.0005385 C55.9596088,12.085399 57.2710372,14.1538307 57.3110197,16.8859732 C57.3723263,21.1028019 57.3110197,25.3222961 57.3456713,29.5417902 C57.3456713,30.4134103 57.1004449,30.6692988 56.2181627,30.6666333 C53.5233373,30.6666333 53.5526579,30.6986193 53.5153408,28.0437765 C53.4646962,24.5386376 53.7285812,21.0281677 53.3767346,17.5310254 C53.0888601,14.6629422 51.2443307,13.1862525 48.389575,13.3861653 C47.813826,13.4261479 47.2407424,13.5007821 46.6703244,13.5860782 C43.9008648,14.001897 42.2455863,15.8597538 42.2189313,18.679858 C42.1842797,22.275624 42.1789487,25.8767211 42.2189313,29.4698216 C42.2189313,30.4054138 41.9523808,30.6746298 41.0274506,30.6666333 C38.4659005,30.6426437 38.463235,30.6852918 38.463235,28.0651005 C38.463235,25.0450836 38.3326252,22.0197355 38.4925555,19.0023841 C38.785761,13.4821235 34.7608487,12.6878031 31.1117726,13.7566705 C28.606198,14.4896844 27.3160937,16.3821928 27.2867731,19.2076279 C27.2547871,22.6274707 27.244125,26.0473134 27.2867731,29.4644906 C27.3001007,30.3974173 27.0202226,30.6692988 26.0952925,30.6613023 C23.5284113,30.6346472 23.5284113,30.6772953 23.5284113,28.0651005 C23.5284113,22.6914428 23.5550663,17.317785 23.5044217,11.9467927 C23.5044217,10.9445629 23.7709722,10.6566884 24.767871,10.6806779 C27.0788637,10.74465 27.0788637,10.6913399 27.3987243,13.2182385 Z" id="Shape"></path>
                <path d="M76.9104769,30.1388633 C76.9104769,29.6786195 76.9166964,29.2183756 76.9291354,28.7581318 C77.0650762,28.5875395 77.0624107,28.3663026 76.8411738,28.3689681 C76.641213,28.3497359 76.4418737,28.4113433 76.2876328,28.5400443 C76.133392,28.6687453 76.0370843,28.8538303 76.0201983,29.0540028 C72.9761917,31.6075565 66.3977258,32.0127132 63.0498517,29.8936369 C61.2186498,28.7368078 60.6215768,26.9988986 60.7042074,24.9891079 C60.7868381,22.9793173 61.7544163,21.5506067 63.5749561,20.6869831 C66.2058094,19.4395269 69.0632306,19.3275757 71.8753382,18.9783945 C72.9735262,18.8424538 74.0717142,18.685189 75.1619057,18.4852761 C76.0281948,18.3280113 76.8011912,17.9868267 76.9397974,16.9632729 C77.0864002,15.8970709 76.9051459,14.9268271 75.9535606,14.2417924 C74.0104076,12.8424024 68.3835269,12.9330295 66.4990149,14.4123847 C65.8992764,14.8841791 65.3048688,15.4332731 65.2062451,16.208935 C65.0969594,17.069893 64.625165,17.1152066 63.9347993,17.1178721 C61.3332665,17.1178721 61.1893293,16.9286213 62.1995556,14.4710258 C63.0738412,12.3386219 64.7984229,11.2377684 66.9148337,10.739319 C70.0343523,9.95859104 73.3023648,9.9943923 76.404031,10.8432737 C78.373839,11.4003642 79.9038388,12.5705209 80.2610165,14.7935519 C80.183196,15.0435737 80.1305135,15.3007356 80.1037517,15.5612173 C80.0717656,19.804701 80.0468876,24.0481847 80.0291176,28.2916685 C80.0291176,28.6035325 80.005128,28.9260586 80.3782987,29.0699959 C80.4892406,29.3250025 80.4892406,29.6146407 80.3782987,29.8696473 C79.9758075,29.9656055 80.0291176,30.2934626 80.0184555,30.5866681 L77.3529507,30.5866681 C77.3551077,30.4681807 77.3093571,30.3538368 77.2260633,30.2695394 C77.1427694,30.185242 77.0289816,30.1381255 76.9104769,30.1388633 Z M76.9104769,20.5590389 C75.2178813,21.3027147 73.4186655,21.4546485 71.6194498,21.6518959 C70.078788,21.8198227 68.5194676,21.8811293 67.0214539,22.3315996 C65.2142416,22.8647006 64.6224995,23.5070873 64.6011755,24.8878188 C64.5851825,26.0872959 65.5527607,27.3614073 66.9708093,27.7745605 C69.292464,28.4542643 71.5581431,28.1077486 73.690547,27.0495432 C76.3613829,25.7194563 77.3689437,23.6350315 76.8971494,20.5590389 L76.9104769,20.5590389 Z" id="Shape"></path>
                <path d="M9.14268163,9.93433657 C11.2537615,9.93433657 13.0263222,10.1022634 14.6975937,10.7606431 C16.9157466,11.5684913 18.5701266,13.4498839 19.0876802,15.7531337 C19.2795966,16.5021405 19.0876802,16.7393704 18.3466699,16.6807293 C17.9486188,16.6431255 17.5479093,16.6431255 17.1498582,16.6807293 C16.1396319,16.790015 15.3666354,16.6807293 15.0920884,15.4412696 C14.8902084,14.7385879 14.3715456,14.1706226 13.6900329,13.9059388 C11.0405211,12.8157473 8.3590232,12.650486 5.69351835,13.8659562 C4.66196798,14.3377506 4.19550463,15.1987086 4.32611437,16.3661998 C4.45672411,17.5336909 5.24304804,17.9175236 6.19196776,18.1600845 C8.78017297,18.8157987 11.4536743,18.959736 14.0658691,19.492837 C14.8499422,19.6393444 15.6196647,19.8542959 16.3661998,20.1352236 C18.2320532,20.8629064 19.5328195,22.1210247 19.6820878,24.2321046 C19.8366871,26.4284806 19.1783074,28.3716336 17.1791787,29.4564941 C12.7677682,31.8554484 8.18043438,31.8821035 3.58510402,29.989595 C2.0870903,29.3765289 1.13017406,28.1237416 0.455801329,26.668376 C0.361102772,26.467946 0.28006431,26.2613425 0.213240388,26.0499789 C-0.245226446,24.5572962 -0.0293205533,24.3200662 1.51134125,24.2560941 C2.75346651,24.1947875 3.53712493,24.2934112 3.97959874,25.823411 C4.37142795,27.1801529 5.98672389,27.7212504 7.32480732,27.9558148 C9.3438984,28.3356683 11.4250918,28.2185726 13.3888309,27.6146302 C13.6848964,27.5212822 13.9699886,27.3961633 14.2391269,27.2414595 C15.1720536,26.6923655 15.8864089,25.9486897 15.7504681,24.7891951 C15.6065309,23.5683939 14.7242488,22.9233417 13.6047367,22.7207633 C11.5949461,22.3529237 9.56383139,22.1236902 7.54071321,21.8571398 C6.18130574,21.6705544 4.80857075,21.5639342 3.54245594,20.8948925 C1.59930291,19.8446836 0.311864067,18.3919835 0.381167193,16.0596667 C0.450470319,13.72735 1.67393704,12.0374199 3.76369285,11.0405211 C5.44410637,10.251981 7.28747007,9.87289486 9.14268163,9.93433657 Z" id="Shape"></path>
                <path d="M84.2512772,30.1335323 C84.2512772,29.7781317 84.2512772,29.428062 84.2512772,29.0833234 C84.5578103,28.8994036 84.5604758,28.7154837 84.2512772,28.5315639 C84.2512772,22.7616344 84.2512772,16.9925934 84.2512772,11.2244409 C84.5551448,11.0698416 84.9069914,10.987211 85.0935768,10.6566884 C85.8932282,10.45411 86.6928797,10.5873853 87.4925311,10.6566884 C87.5911548,11.2084479 87.2393082,11.8508346 87.8203882,12.3093014 C87.9296739,12.4665662 88.0869387,12.5891794 88.257531,12.4585697 C90.4805621,10.7099985 93.0900913,10.6726814 95.7342721,10.7099985 C98.2398467,10.7473155 98.2665017,10.7099985 98.2718327,8.23640998 C98.2718327,7.49539963 98.3517979,7.13022547 99.260735,7.15154951 C101.307843,7.19952859 101.393139,7.15154951 101.275857,9.16134016 C101.193226,10.4940926 101.657024,10.9285699 102.907146,10.723326 C103.173264,10.7018528 103.440679,10.7018528 103.706797,10.723326 C105.284776,10.723326 105.75657,11.3737092 105.332755,12.9063745 C105.297747,13.1734538 105.069008,13.3724569 104.799654,13.3701723 C104.621065,13.3701723 104.445142,13.3701723 104.266553,13.3701723 C101.310508,13.4501375 101.310508,13.452803 101.310508,16.3582033 C101.310508,17.5576804 101.347825,18.7571576 101.310508,19.9539693 C101.198557,22.9046832 102.37671,25.1943518 104.759672,26.8976094 C105.234131,27.2361285 105.652616,29.8483233 105.266117,30.2108319 C104.879619,30.5733406 104.495787,30.2108319 104.199916,30.0322431 C100.518853,27.9531493 98.4504216,24.8398397 98.3144808,20.5670354 C98.2478432,18.5279242 98.2744982,16.483482 98.3144808,14.4363743 C98.3304738,13.6500503 98.1065714,13.3301897 97.2696029,13.3435173 C95.7582617,13.3648413 94.2602479,13.3808343 92.7782272,13.7406775 C89.915475,14.4363743 88.1135938,16.4195099 88.0096391,19.3728892 C87.8896913,22.6967738 87.9163464,26.0366514 87.9536635,29.3552049 C87.9536635,30.2055009 87.8177227,30.6186542 86.8874615,30.5040375 C86.0584895,30.4000828 85.2081935,30.6426437 84.3845525,30.3787588 C84.403211,30.3441072 84.4485246,30.2854661 84.4378626,30.2748041 C84.3794467,30.2229197 84.3170613,30.175685 84.2512772,30.1335323 L84.2512772,30.1335323 Z" id="Shape"></path>
                <path d="M98.4984006,4.1795116 C99.7965015,0.844965037 104.19725,-0.86895458 107.864985,0.447804814 C111.943207,1.90850147 113.761081,5.88810021 112.145785,9.88635748 C111.951204,10.3661484 111.695315,10.6540229 112.438991,10.9525594 C116.898381,12.7357822 118.465697,15.4386041 118.732248,20.2338473 C119.022788,25.4795608 114.622039,29.8749783 110.16265,30.5200305 C110.034509,30.5544076 109.903241,30.575839 109.770821,30.5840026 C109.221727,30.5493511 108.376762,30.9518423 108.190176,30.3814243 C107.942284,29.6270864 108.02758,28.7021562 108.190176,27.8971737 C108.280803,27.4546999 108.965838,27.6306233 109.386988,27.5666511 C112.081813,27.0975223 114.064949,25.6421566 115.136482,23.1392476 C116.208015,20.6363385 115.83751,18.1920706 114.182231,15.9876981 C113.116029,14.5749805 111.644671,13.9992315 109.941413,13.7939876 C109.328347,13.7193535 108.323452,14.1218447 108.174183,13.3648413 C107.97427,12.3572805 107.755699,11.2324374 108.707284,10.2568627 C110.367894,8.521619 110.381221,6.1573162 108.917859,4.32877987 C107.539793,2.60952925 104.887616,2.03111469 102.901815,3.34787409 C101.491763,4.26480776 100.111031,4.30745583 98.4984006,4.1795116 Z" id="Shape"></path>
                <path d="M80.3729677,29.0673304 C79.999797,28.9233931 80.0237865,28.600867 80.0237865,28.2890029 C80.0468876,24.0455192 80.0717656,19.8020355 80.0984207,15.5585518 C80.1251825,15.2980701 80.177865,15.0409082 80.2556855,14.7908864 C80.3368906,14.9455579 80.3935434,15.1119193 80.4236123,15.2840048 C80.4715914,19.8793352 80.5862081,24.4746655 80.3729677,29.0673304 Z" id="Shape"></path>
                <path d="M76.0201983,29.0540028 C76.0377289,28.8538002 76.1346994,28.6689545 76.2894567,28.5407414 C76.444214,28.4125282 76.6438689,28.3516258 76.8438393,28.3716336 C77.0650762,28.3716336 77.0677417,28.590205 76.9318009,28.7607973 C76.5426372,28.5982015 76.3400588,29.0086893 76.0201983,29.0540028 Z" id="Shape"></path>
                <path d="M87.882648,12.3013049 C87.190563,11.842838 87.6083655,11.2031169 87.4903602,10.6486919 L87.8092934,10.7099985 L87.8539441,11.0778381 L87.882648,12.3013049 Z" id="Shape"></path>
                <path d="M80.0237865,30.5919991 C80.0237865,30.2987936 79.9811385,29.9709365 80.3836297,29.8749783 C80.4982464,30.226825 80.6155286,30.5919991 80.0237865,30.5919991 Z" id="Shape"></path>
                <path d="M85.0962423,10.6620194 C84.9096569,10.992542 84.5631413,11.0751726 84.2539427,11.2297719 C84.149988,10.4621065 84.6590995,10.6140403 85.0962423,10.6620194 Z" id="Shape"></path>
                <path d="M76.9104769,30.1388633 C77.0318089,30.1365467 77.1487062,30.1844661 77.2335012,30.27128 C77.3182961,30.3580939 77.3634522,30.4760862 77.3582817,30.5973301 C76.9877765,30.6533058 76.8331772,30.5146995 76.9104769,30.1388633 Z" id="Shape"></path>
                <path d="M84.2539427,28.5209019 C84.7313152,28.7048217 84.7271999,28.8887415 84.2539427,29.0726614 C84.2539427,28.8949611 84.2539427,28.7110412 84.2539427,28.5209019 Z" id="Shape"></path>
                <path d="M87.81403,11.124192 L87.7564161,10.712664 C88.1555983,10.8230012 87.9951024,10.9721056 87.81403,11.124192 Z" id="Shape"></path>
                <path d="M84.2512772,30.1335323 C84.3447643,30.2035887 84.4328089,30.2806278 84.5146552,30.363988 C84.5146552,30.363988 84.4611565,30.46687 84.4323496,30.5244839 L84.2512772,30.1335323 Z" id="Shape"></path>
            </g>
        </g>
    </g>
</svg>