<?xml version="1.0" encoding="utf-8"?>
<!-- Generator: Adobe Illustrator 22.1.0, SVG Export Plug-In . SVG Version: 6.00 Build 0)  -->
<svg version="1.1" id="Layer_1" xmlns="http://www.w3.org/2000/svg" xmlns:xlink="http://www.w3.org/1999/xlink" x="0px" y="0px"
	 viewBox="0 0 133.2 57.4" style="enable-background:new 0 0 133.2 57.4;" xml:space="preserve">
<style type="text/css">
	.st0{fill:#FFFFFF;}
</style>
<title>habitat-logo-by-chef-white</title>
<desc>Created with Sketch.</desc>
<g id="Symbols">
	<g id="Footer" transform="translate(-15.000000, -60.000000)">
		<g id="habitat-logo-by-chef-white" transform="translate(15.000000, 60.000000)">
			<g id="Logotype" transform="translate(0.000000, 32.160584)">
				<path id="Shape_2_" class="st0" d="M56.1,7.4c-4.1,0-7-2.8-7-6.9s2.8-6.9,7-7c4,0,6.9,2.7,7,6.6c0,2.2-0.6,4-1.9,5.3
					C59.9,6.7,58.2,7.3,56.1,7.4L56.1,7.4L56.1,7.4z M63.2-7.6c-2-1.7-4.8-2.6-7.6-2.3c-2.1,0.2-4.1,1-5.6,2.3
					c-0.4,0.3-0.9,0.1-0.9-0.4v-9c0-0.3-0.3-0.6-0.6-0.6h-2.4c-0.3,0-0.5,0.2-0.6,0.5c0,0.1,0,0.2,0,0.3c0,0.2,0,0.4,0,0.6v2.1
					c0,4.7,0,9.5,0,14.2c0,0.8,0,1.7,0.2,2.6c1.1,5.2,4.9,8.1,10.5,8.1c0.1,0,0.2,0,0.3,0c4.5-0.1,8.1-2.6,9.6-6.5
					C67.7,0,66.5-4.7,63.2-7.6L63.2-7.6z"/>
				<path id="Shape_3_" class="st0" d="M39.2,0.3c0,2-0.7,3.8-1.9,5c-1.3,1.3-3,2-5,2l0,0c-4.1,0-6.9-2.8-7-6.8c0-4.2,2.8-7,6.9-7.1
					l0,0C36.2-6.5,39.2-3.6,39.2,0.3 M40.6-6.2C37.5-10,31.7-11.1,27-8.8c-4.3,2.1-6.4,7-5.2,11.9c1,3.9,3.5,6.4,7.2,7.4
					c1.1,0.3,2.1,0.4,3.1,0.4c2.6,0,4.9-1,6.7-2.9c0.2-0.3,0.4-0.5,0.6-0.8v2.5c0,0.3,0.3,0.6,0.6,0.6h2.2c0.3,0,0.6-0.3,0.6-0.6
					l0,0c0-1.1,0-2.2,0-3.2c0-2.5,0-5.2-0.1-7.8C42.6-2.9,41.9-4.6,40.6-6.2"/>
				<path id="Shape_4_" class="st0" d="M111.7,0.3c0,2-0.7,3.8-1.9,5c-1.3,1.3-3,2-5,2l0,0c-4.1,0-6.9-2.8-7-6.8
					c0-4.2,2.8-7,6.9-7.1l0,0C108.8-6.5,111.7-3.6,111.7,0.3 M113.1-6.2c-3.1-3.8-8.9-4.9-13.6-2.6c-4.3,2.1-6.4,7-5.2,11.9
					c1,3.9,3.4,6.4,7.2,7.4c1.1,0.3,2.1,0.4,3.1,0.4c2.6,0,4.9-1,6.7-2.9c0.2-0.2,0.4-0.5,0.6-0.8v2.5c0,0.3,0.3,0.6,0.6,0.6h2.2
					c0.3,0,0.6-0.3,0.6-0.6l0,0c0-1.1,0-2.2,0-3.2c0-2.5,0-5.2-0.1-7.8C115.1-2.9,114.4-4.6,113.1-6.2"/>
				<path id="Shape_5_" class="st0" d="M12-9.8C9-10.3,6.5-9.7,4.5-8C4.1-7.7,3.6-7.9,3.6-8.4V-17c0-0.3-0.3-0.6-0.6-0.6H0.6
					C0.3-17.6,0-17.3,0-17V9.9c0,0.3,0.3,0.6,0.6,0.6H3c0.3,0,0.6-0.2,0.6-0.6c0-1,0-3,0-3.8c0-2,0-4,0-6.1s0.6-3.8,1.8-4.9
					s2.9-1.6,5-1.5c3.1,0.2,5.2,2.2,5.4,5.2C15.9,1,16,3.3,16,5.5c0,1,0,2,0,3c0,0.3,0,0.6,0,0.9v0.4c0,0.3,0.3,0.6,0.6,0.6H19
					c0.3,0,0.6-0.3,0.6-0.6c0-1.1,0-2.2,0-3.3c0-2.4,0-4.9,0-7.3C19.5-5.7,16.7-9.1,12-9.8"/>
				<path id="Shape_6_" class="st0" d="M91.8,2H89c-0.3,0-0.5,0.2-0.6,0.5v0.4c0,0.3,0,0.6-0.1,0.8c-0.2,2.2-1.5,3.5-3.8,3.6
					c-1.6,0.1-4.3-0.2-4.5-3.1c-0.2-2.4-0.2-4.9-0.2-7.3c0-0.8,0-1.6,0-2.4c0-0.3,0.2-0.6,0.6-0.6h7.1c0.5,0,0.8-0.6,0.4-1l-2.7-2.4
					c-0.1,0-0.2,0-0.3,0h-4.5c-0.3,0-0.6-0.3-0.6-0.6v-3.7c0-0.3-0.3-0.6-0.6-0.6h-2.3c-0.3,0-0.6,0.3-0.6,0.6v1.1
					c0,0.1-0.1,10.7,0,17.3c0,1.6,0.8,3.1,2.2,4.4c1.7,1.5,3.7,1.9,5.5,1.9c0.5,0,0.9,0,1.3-0.1c2.1-0.2,3.9-1.2,5.2-2.9
					c1.2-1.6,1.6-3.6,1.2-5.5L91.8,2L91.8,2z"/>
				<path id="Shape_7_" class="st0" d="M133,2.5L132.9,2H130c-0.3,0-0.5,0.2-0.6,0.5v0.4c0,0.3,0,0.5-0.1,0.7
					c-0.1,2.2-1.5,3.5-3.7,3.7c-1.6,0.1-4.3-0.2-4.5-3.1c-0.2-2.5-0.2-5-0.2-7.5c0-0.7,0-1.5,0-2.2c0-0.3,0.2-0.6,0.6-0.6h7
					c0.5,0,0.8-0.7,0.3-1l-3-2.3c-0.1-0.1-0.2-0.1-0.3-0.1h-4.1c-0.3,0-0.6-0.3-0.6-0.6v-3.6c0-0.3-0.3-0.6-0.6-0.6h-2.4
					c-0.3,0-0.6,0.3-0.6,0.6v1.1c0,0.1,0,10.6,0.1,17.1c0.1,2.9,2.2,5.3,5.3,6c0.8,0.2,1.7,0.3,2.8,0.3c0.2,0,0.3,0,0.5,0
					c2.1-0.1,4.1-0.9,5.4-2.5C132.8,6.7,133.3,4.6,133,2.5"/>
				<path id="Shape_8_" class="st0" d="M70,10.3h2.4c0.3,0,0.6-0.3,0.6-0.6V-8.9c0-0.3-0.2-0.6-0.6-0.6H70c-0.3,0-0.6,0.2-0.6,0.6
					V9.8C69.4,10,69.7,10.3,70,10.3"/>
				<path id="Shape_9_" class="st0" d="M70-11.9h2.4c0.3,0,0.6-0.3,0.6-0.6v-2.4c0-0.3-0.3-0.6-0.6-0.6H70c-0.3,0-0.6,0.3-0.6,0.6
					v2.4C69.4-12.1,69.7-11.9,70-11.9"/>
				<path id="Shape_10_" class="st0" d="M133.1,18.8l-0.2,0.4l-0.2-0.4h-0.1v0.6h0.1v-0.5l0.2,0.4l0,0l0.2-0.4v0.5h0.1L133.1,18.8
					L133.1,18.8L133.1,18.8z M131.9,18.8L131.9,18.8l0.2,0.1v0.6h0.1v-0.6h0.2v-0.1H131.9L131.9,18.8z"/>
				<g id="BY-CHEF" transform="translate(94.000000, 36.000000)">
					<path id="Shape_11_" class="st0" d="M9.5-14L9.5-14c0-1.8,1.4-3.3,3.3-3.3c1.2,0,1.9,0.4,2.5,1l-0.9,1c-0.5-0.4-1-0.7-1.6-0.7
						c-1.1,0-1.9,0.9-1.9,2l0,0c0,1.1,0.8,2,1.9,2c0.7,0,1.2-0.3,1.7-0.8l0.9,0.9c-0.7,0.7-1.4,1.1-2.6,1.1
						C10.9-10.7,9.5-12.2,9.5-14"/>
					<polygon id="Shape_12_" class="st0" points="17.2,-17.2 18.7,-17.2 18.7,-14.7 21.3,-14.7 21.3,-17.2 22.7,-17.2 22.7,-10.8 
						21.3,-10.8 21.3,-13.4 18.7,-13.4 18.7,-10.8 17.2,-10.8 					"/>
					<polygon id="Shape_13_" class="st0" points="24.9,-17.2 29.8,-17.2 29.8,-16 26.4,-16 26.4,-14.6 29.4,-14.6 29.4,-13.4 
						26.4,-13.4 26.4,-12 29.9,-12 29.9,-10.7 24.9,-10.7 					"/>
					<polygon id="Shape_14_" class="st0" points="31.9,-17.2 36.8,-17.2 36.8,-16 33.4,-16 33.4,-14.6 36.4,-14.6 36.4,-13.3 
						33.4,-13.3 33.4,-10.8 31.9,-10.8 					"/>
					<path id="Shape_15_" class="st0" d="M5.2-10.7v-1.6l1.4-2.1H5.8l-0.9,1.5l0,0L4-14.4H3.1l1.4,2.1v1.5L5.2-10.7L5.2-10.7z
						 M1.8-13.7c0.3,0,0.4,0.2,0.4,0.4c0,0.2-0.1,0.4-0.4,0.4h-1v-0.8H1.8L1.8-13.7z M1.9-12.3c0.3,0,0.5,0.2,0.5,0.4
						c0,0.2-0.1,0.4-0.5,0.4H0.8v-0.9h1.1V-12.3z M2-10.7c0.7,0,1.1-0.4,1.1-1c0-0.4-0.2-0.8-0.6-0.9l0,0C2.8-12.8,3-13,3-13.4
						c0-0.6-0.4-1-1.1-1H0.1v3.7L2-10.7L2-10.7z"/>
				</g>
			</g>
		</g>
	</g>
</g>
</svg>
