<?xml version="1.0" encoding="utf-8"?>
<!-- Generator: Adobe Illustrator 22.1.0, SVG Export Plug-In . SVG Version: 6.00 Build 0)  -->
<svg version="1.1" id="Layer_1" xmlns="http://www.w3.org/2000/svg" xmlns:xlink="http://www.w3.org/1999/xlink" x="0px" y="0px"
	 viewBox="0 0 126.6 27.2" style="enable-background:new 0 0 126.6 27.2;" xml:space="preserve">
<style type="text/css">
	.st0{fill:#FFFFFF;}
</style>
<title>HabitatLogoAsset 11</title>
<g id="Layer_2_1_">
	<g id="Layer_1-2">
		<path class="st0" d="M53.3,23.8c-3.5,0.2-6.5-2.5-6.7-6c0-0.2,0-0.4,0-0.5c-0.2-3.5,2.6-6.5,6.1-6.6c0.2,0,0.4,0,0.6,0
			c3.5-0.2,6.4,2.4,6.6,5.9c0,0.1,0,0.3,0,0.4c0.1,1.9-0.6,3.7-1.8,5.1C56.8,23.2,55.1,23.8,53.3,23.8L53.3,23.8z M60.1,9.5
			c-2-1.7-4.6-2.5-7.3-2.2c-2,0.2-3.8,0.9-5.3,2.2c-0.2,0.2-0.6,0.2-0.8,0c-0.1-0.1-0.1-0.2-0.1-0.3V0.6c0-0.3-0.2-0.5-0.5-0.5l0,0
			h-2.2c-0.3,0-0.5,0.2-0.5,0.5c0,0.1,0,0.2,0,0.3c0,0.2,0,0.4,0,0.5v2c0,4.4,0,9,0,13.5c0,0.8,0.1,1.7,0.2,2.5
			c1.1,4.9,4.7,7.7,10,7.7h0.3c4,0.1,7.7-2.4,9.1-6.2C64.4,16.9,63.3,12.3,60.1,9.5"/>
		<path class="st0" d="M37.3,17.1c0.2,3.5-2.5,6.5-6,6.7c-0.2,0-0.4,0-0.5,0l0,0c-3.5,0.2-6.4-2.4-6.7-5.9c0-0.2,0-0.4,0-0.6
			c-0.2-3.5,2.4-6.5,5.9-6.7c0.2,0,0.5,0,0.7,0l0,0c3.5-0.1,6.5,2.6,6.6,6.1C37.2,16.9,37.2,17,37.3,17.1 M38.6,10.9
			C35.4,7.2,30,6.2,25.7,8.4c-4.1,2.2-6.1,6.9-4.9,11.4c0.7,3.5,3.4,6.2,6.8,7c1,0.3,1.9,0.4,2.9,0.4c2.4,0,4.7-1,6.4-2.8
			c0.2-0.2,0.4-0.5,0.6-0.7v2.4c0,0.3,0.3,0.5,0.5,0.5l0,0h2.1c0.3,0,0.5-0.2,0.5-0.5l0,0l0,0c0-1,0-2.1,0-3.1c0-2.4,0-4.9,0-7.4
			C40.4,13.8,39.7,12.2,38.6,10.9"/>
		<path class="st0" d="M106.2,17.1c0.2,3.5-2.5,6.5-6,6.7c-0.2,0-0.4,0-0.5,0l0,0c-3.5,0.2-6.4-2.4-6.6-5.9c0-0.2,0-0.4,0-0.6
			c-0.2-3.5,2.4-6.5,5.9-6.7c0.2,0,0.5,0,0.7,0l0,0c3.5-0.1,6.5,2.6,6.6,6.1C106.2,16.9,106.2,17,106.2,17.1 M107.5,10.9
			c-3.2-3.7-8.6-4.7-12.9-2.5c-4.1,2.2-6.1,6.9-4.9,11.4c0.7,3.5,3.4,6.2,6.8,7c1,0.3,1.9,0.4,2.9,0.4c2.4,0,4.7-1,6.4-2.8
			c0.2-0.2,0.4-0.5,0.6-0.7v2.4c0,0.3,0.2,0.5,0.5,0.5c0,0,0,0,0.1,0h2.1c0.3,0,0.5-0.2,0.5-0.5l0,0l0,0c0-1,0-2.1,0-3.1
			c0-2.4,0-4.9-0.1-7.4C109.4,13.8,108.7,12.2,107.5,10.9"/>
		<path class="st0" d="M11.4,7.4c-2.5-0.6-5.1,0-7.1,1.7C4.1,9.3,3.7,9.3,3.5,9C3.4,8.9,3.4,8.8,3.4,8.7V0.5C3.4,0.2,3.2,0,2.9,0
			l0,0H0.5C0.2,0,0,0.2,0,0.5l0,0v25.6c0,0.3,0.2,0.5,0.5,0.5h2.4c0.3,0,0.5-0.2,0.5-0.5l0,0c0-0.9,0-2.8,0-3.6c0-1.9,0-3.8,0-5.8
			c-0.1-1.7,0.5-3.4,1.7-4.6c1.3-1.1,3.1-1.7,4.8-1.4c2.7,0,5,2.2,5,4.9C15,17.8,15,20,15,22.1c0,0.9,0,1.9,0,2.8c0,0.3,0,0.5,0,0.8
			v0.4c0,0.3,0.2,0.5,0.5,0.5l0,0H18c0.3,0,0.5-0.2,0.5-0.5l0,0c0-1.1,0-2.1,0-3.1c0-2.3,0-4.7,0-7C18.5,11.3,15.8,8.1,11.4,7.4"/>
		<path class="st0" d="M87.3,18.6h-2.6c-0.3,0-0.5,0.2-0.5,0.5v0.4c0,0.3,0,0.5-0.1,0.8c0,1.9-1.5,3.5-3.4,3.5h-0.1
			c-1.5,0.1-4-0.2-4.3-2.9c-0.2-2.3-0.2-4.7-0.2-7c0-0.8,0-1.5,0-2.3c0-0.3,0.2-0.5,0.5-0.5l0,0h6.8c0.3,0,0.5-0.3,0.5-0.6
			c0-0.1-0.1-0.3-0.2-0.4l-2.6-2.2c-0.1-0.2-0.2-0.3-0.3-0.3h-4.3c-0.3,0-0.5-0.2-0.5-0.5l0,0V3.6c0-0.3-0.2-0.5-0.5-0.5l0,0h-2.2
			c-0.3,0-0.5,0.2-0.5,0.5l0,0v1c0,0.1-0.1,10.2,0,16.5c0.1,1.6,0.8,3.1,2.1,4.2c1.5,1.3,3.3,1.9,5.3,1.8c0.4,0,0.9,0,1.3-0.1
			c2-0.2,3.8-1.2,4.9-2.8c1.1-1.5,1.5-3.4,1.2-5.2L87.3,18.6z"/>
		<path class="st0" d="M126.5,19.1l-0.1-0.5h-2.7c-0.3,0-0.5,0.2-0.5,0.5v0.5c0,0.2,0,0.5,0,0.7c0,1.9-1.5,3.5-3.4,3.5h-0.1
			c-1.5,0.1-4.1-0.2-4.3-3c-0.2-2.4-0.2-4.8-0.2-7.1c0-0.7,0-1.4,0-2.1c0-0.3,0.2-0.5,0.5-0.5l0,0h6.6c0.3,0,0.6-0.2,0.6-0.5
			c0-0.2-0.1-0.4-0.3-0.5l-2.8-2.2c-0.1-0.1-0.2-0.1-0.3-0.1h-3.9c-0.3,0-0.5-0.2-0.5-0.5l0,0V3.9c0-0.3-0.2-0.5-0.5-0.5l0,0h-2.3
			c-0.3,0-0.5,0.2-0.5,0.5l0,0V5c0,0.1,0,10.1,0.1,16.3c0.2,2.8,2.2,5.2,5,5.7c0.9,0.2,1.8,0.3,2.7,0.2h0.5c2,0,3.8-0.9,5.1-2.4
			C126.3,23.1,126.9,21.1,126.5,19.1"/>
		<path class="st0" d="M66.5,26.6h2.3c0.3,0,0.5-0.2,0.5-0.5l0,0V8.3c0-0.3-0.2-0.5-0.5-0.5h-2.3C66.2,7.8,66,8,66,8.3l0,0V26
			C66,26.3,66.2,26.6,66.5,26.6L66.5,26.6"/>
		<path class="st0" d="M66.5,5.4h2.3c0.3,0,0.5-0.2,0.5-0.5l0,0V2.6c0-0.3-0.2-0.5-0.5-0.5l0,0h-2.3c-0.3,0-0.5,0.2-0.5,0.5l0,0v2.3
			C66,5.2,66.2,5.4,66.5,5.4L66.5,5.4"/>
	</g>
</g>
</svg>
