<?xml version="1.0" encoding="utf-8"?>
<!-- Generator: Adobe Illustrator 22.1.0, SVG Export Plug-In . SVG Version: 6.00 Build 0)  -->
<svg version="1.1" id="Layer_1" xmlns="http://www.w3.org/2000/svg" xmlns:xlink="http://www.w3.org/1999/xlink" x="0px" y="0px"
	 viewBox="0 0 133.2 42.9" style="enable-background:new 0 0 133.2 42.9;" xml:space="preserve">
<style type="text/css">
	.st0{fill:#5D6771;}
</style>
<title>habitat-logo-by-chef-white</title>
<desc>Created with Sketch.</desc>
<g id="Symbols">
	<g id="Footer" transform="translate(-15.000000, -60.000000)">
		<g id="habitat-logo-by-chef-white" transform="translate(15.000000, 60.000000)">
			<g id="Logotype" transform="translate(0.000000, 32.160584)">
				<path id="Shape_2_" class="st0" d="M56.1-7.2c-4.1,0-7-2.8-7-6.9s2.8-6.9,7-7c4,0,6.9,2.7,7,6.6c0,2.2-0.6,4-1.9,5.3
					C59.9-7.9,58.2-7.3,56.1-7.2L56.1-7.2L56.1-7.2z M63.2-22.2c-2-1.7-4.8-2.6-7.6-2.3c-2.1,0.2-4.1,1-5.6,2.3
					c-0.4,0.3-0.9,0.1-0.9-0.4v-9c0-0.3-0.3-0.6-0.6-0.6h-2.4c-0.3,0-0.5,0.2-0.6,0.5c0,0.1,0,0.2,0,0.3c0,0.2,0,0.4,0,0.6v2.1
					c0,4.7,0,9.5,0,14.2c0,0.8,0,1.7,0.2,2.6c1.1,5.2,4.9,8.1,10.5,8.1c0.1,0,0.2,0,0.3,0c4.5-0.1,8.1-2.6,9.6-6.5
					C67.7-14.6,66.5-19.3,63.2-22.2L63.2-22.2z"/>
				<path id="Shape_3_" class="st0" d="M39.2-14.3c0,2-0.7,3.8-1.9,5c-1.3,1.3-3,2-5,2l0,0c-4.1,0-6.9-2.8-7-6.8
					c0-4.2,2.8-7,6.9-7.1l0,0C36.2-21.1,39.2-18.2,39.2-14.3 M40.6-20.8c-3.1-3.8-8.9-4.9-13.6-2.6c-4.3,2.1-6.4,7-5.2,11.9
					c1,3.9,3.5,6.4,7.2,7.4c1.1,0.3,2.1,0.4,3.1,0.4c2.6,0,4.9-1,6.7-2.9c0.2-0.3,0.4-0.5,0.6-0.8v2.5c0,0.3,0.3,0.6,0.6,0.6h2.2
					c0.3,0,0.6-0.3,0.6-0.6l0,0c0-1.1,0-2.2,0-3.2c0-2.5,0-5.2-0.1-7.8C42.6-17.5,41.9-19.2,40.6-20.8"/>
				<path id="Shape_4_" class="st0" d="M111.7-14.3c0,2-0.7,3.8-1.9,5c-1.3,1.3-3,2-5,2l0,0c-4.1,0-6.9-2.8-7-6.8
					c0-4.2,2.8-7,6.9-7.1l0,0C108.8-21.1,111.7-18.2,111.7-14.3 M113.1-20.8c-3.1-3.8-8.9-4.9-13.6-2.6c-4.3,2.1-6.4,7-5.2,11.9
					c1,3.9,3.4,6.4,7.2,7.4c1.1,0.3,2.1,0.4,3.1,0.4c2.6,0,4.9-1,6.7-2.9c0.2-0.2,0.4-0.5,0.6-0.8v2.5c0,0.3,0.3,0.6,0.6,0.6h2.2
					c0.3,0,0.6-0.3,0.6-0.6l0,0c0-1.1,0-2.2,0-3.2c0-2.5,0-5.2-0.1-7.8C115.1-17.5,114.4-19.2,113.1-20.8"/>
				<path id="Shape_5_" class="st0" d="M12-24.4c-3-0.5-5.5,0.1-7.5,1.8c-0.4,0.3-0.9,0.1-0.9-0.4v-8.6c0-0.3-0.3-0.6-0.6-0.6H0.6
					c-0.3,0-0.6,0.3-0.6,0.6v26.9c0,0.3,0.3,0.6,0.6,0.6H3c0.3,0,0.6-0.2,0.6-0.6c0-1,0-3,0-3.8c0-2,0-4,0-6.1s0.6-3.8,1.8-4.9
					c1.2-1.1,2.9-1.6,5-1.5c3.1,0.2,5.2,2.2,5.4,5.2c0.1,2.2,0.2,4.5,0.2,6.7c0,1,0,2,0,3c0,0.3,0,0.6,0,0.9v0.4
					c0,0.3,0.3,0.6,0.6,0.6H19c0.3,0,0.6-0.3,0.6-0.6c0-1.1,0-2.2,0-3.3c0-2.4,0-4.9,0-7.3C19.5-20.3,16.7-23.7,12-24.4"/>
				<path id="Shape_6_" class="st0" d="M91.8-12.6H89c-0.3,0-0.5,0.2-0.6,0.5v0.4c0,0.3,0,0.6-0.1,0.8c-0.2,2.2-1.5,3.5-3.8,3.6
					c-1.6,0.1-4.3-0.2-4.5-3.1c-0.2-2.4-0.2-4.9-0.2-7.3c0-0.8,0-1.6,0-2.4c0-0.3,0.2-0.6,0.6-0.6h7.1c0.5,0,0.8-0.6,0.4-1l-2.7-2.4
					c-0.1,0-0.2,0-0.3,0h-4.5c-0.3,0-0.6-0.3-0.6-0.6v-3.7c0-0.3-0.3-0.6-0.6-0.6h-2.3c-0.3,0-0.6,0.3-0.6,0.6v1.1
					c0,0.1-0.1,10.7,0,17.3c0,1.6,0.8,3.1,2.2,4.4c1.7,1.5,3.7,1.9,5.5,1.9c0.5,0,0.9,0,1.3-0.1C87.4-4,89.2-5,90.5-6.7
					c1.2-1.6,1.6-3.6,1.2-5.5L91.8-12.6L91.8-12.6z"/>
				<path id="Shape_7_" class="st0" d="M133-12.1l-0.1-0.5H130c-0.3,0-0.5,0.2-0.6,0.5v0.4c0,0.3,0,0.5-0.1,0.7
					c-0.1,2.2-1.5,3.5-3.7,3.7c-1.6,0.1-4.3-0.2-4.5-3.1c-0.2-2.5-0.2-5-0.2-7.5c0-0.7,0-1.5,0-2.2c0-0.3,0.2-0.6,0.6-0.6h7
					c0.5,0,0.8-0.7,0.3-1l-3-2.3c-0.1-0.1-0.2-0.1-0.3-0.1h-4.1c-0.3,0-0.6-0.3-0.6-0.6v-3.6c0-0.3-0.3-0.6-0.6-0.6h-2.4
					c-0.3,0-0.6,0.3-0.6,0.6v1.1c0,0.1,0,10.6,0.1,17.1c0.1,2.9,2.2,5.3,5.3,6c0.8,0.2,1.7,0.3,2.8,0.3c0.2,0,0.3,0,0.5,0
					c2.1-0.1,4.1-0.9,5.4-2.5C132.8-7.9,133.3-10,133-12.1"/>
				<path id="Shape_8_" class="st0" d="M70-4.3h2.4c0.3,0,0.6-0.3,0.6-0.6v-18.6c0-0.3-0.2-0.6-0.6-0.6H70c-0.3,0-0.6,0.2-0.6,0.6
					v18.7C69.4-4.6,69.7-4.3,70-4.3"/>
				<path id="Shape_9_" class="st0" d="M70-26.5h2.4c0.3,0,0.6-0.3,0.6-0.6v-2.4c0-0.3-0.3-0.6-0.6-0.6H70c-0.3,0-0.6,0.3-0.6,0.6
					v2.4C69.4-26.7,69.7-26.5,70-26.5"/>
				<path id="Shape_10_" class="st0" d="M133.1,4.2l-0.2,0.4l-0.2-0.4h-0.1v0.6h0.1V4.3l0.2,0.4l0,0L133.1,4.2v0.6h0.1L133.1,4.2
					L133.1,4.2L133.1,4.2z M131.9,4.2L131.9,4.2l0.2,0.1v0.6h0.1V4.3h0.2V4.2L131.9,4.2L131.9,4.2z"/>
				<g id="BY-CHEF" transform="translate(94.000000, 36.000000)">
					<path id="Shape_11_" class="st0" d="M9.5-28.6L9.5-28.6c0-1.8,1.4-3.3,3.3-3.3c1.2,0,1.9,0.4,2.5,1l-0.9,1
						c-0.5-0.4-1-0.7-1.6-0.7c-1.1,0-1.9,0.9-1.9,2l0,0c0,1.1,0.8,2,1.9,2c0.7,0,1.2-0.3,1.7-0.8l0.9,0.9c-0.7,0.7-1.4,1.1-2.6,1.1
						C10.9-25.3,9.5-26.8,9.5-28.6"/>
					<polygon id="Shape_12_" class="st0" points="17.2,-31.8 18.7,-31.8 18.7,-29.3 21.3,-29.3 21.3,-31.8 22.7,-31.8 22.7,-25.4 
						21.3,-25.4 21.3,-28 18.7,-28 18.7,-25.4 17.2,-25.4 					"/>
					<polygon id="Shape_13_" class="st0" points="24.9,-31.8 29.8,-31.8 29.8,-30.6 26.4,-30.6 26.4,-29.2 29.4,-29.2 29.4,-28 
						26.4,-28 26.4,-26.6 29.9,-26.6 29.9,-25.3 24.9,-25.3 					"/>
					<polygon id="Shape_14_" class="st0" points="31.9,-31.8 36.8,-31.8 36.8,-30.6 33.4,-30.6 33.4,-29.2 36.4,-29.2 36.4,-27.9 
						33.4,-27.9 33.4,-25.4 31.9,-25.4 					"/>
					<path id="Shape_15_" class="st0" d="M5.2-25.3v-1.6L6.6-29H5.8l-0.9,1.5l0,0L4-29H3.1l1.4,2.1v1.5L5.2-25.3L5.2-25.3z
						 M1.8-28.3c0.3,0,0.4,0.2,0.4,0.4c0,0.2-0.1,0.4-0.4,0.4h-1v-0.8H1.8L1.8-28.3z M1.9-26.9c0.3,0,0.5,0.2,0.5,0.4
						c0,0.2-0.1,0.4-0.5,0.4H0.8V-27h1.1V-26.9z M2-25.3c0.7,0,1.1-0.4,1.1-1c0-0.4-0.2-0.8-0.6-0.9l0,0C2.8-27.4,3-27.6,3-28
						c0-0.6-0.4-1-1.1-1H0.1v3.7L2-25.3L2-25.3z"/>
				</g>
			</g>
		</g>
	</g>
</g>
</svg>
