<?xml version="1.0" encoding="utf-8"?>
<!-- Generator: Adobe Illustrator 22.1.0, SVG Export Plug-In . SVG Version: 6.00 Build 0)  -->
<svg version="1.1" id="Layer_1" xmlns="http://www.w3.org/2000/svg" xmlns:xlink="http://www.w3.org/1999/xlink" x="0px" y="0px"
	 viewBox="0 0 389.9 83.8" style="enable-background:new 0 0 389.9 83.8;" xml:space="preserve">
<style type="text/css">
	.st0{fill:#5D6771;}
</style>
<path class="st0" d="M185.1,29.4c-5.9-5.1-14-7.6-22.4-6.8c-6.3,0.6-12,3-16.3,6.8c-1.1,0.9-2.8,0.2-2.8-1.2V1.7
	c0-0.9-0.7-1.7-1.7-1.7h-7c-0.9,0-1.6,0.7-1.6,1.5c0,0.3-0.1,0.6-0.1,0.8c-0.1,0.6-0.1,1.1-0.1,1.7v6.2c0,13.7,0,27.8,0,41.7
	c0,2.5,0.1,5.1,0.6,7.6c3.3,15.2,14.5,23.9,30.8,23.9c0.3,0,0.6,0,0.8,0c13.1-0.2,23.8-7.5,28.1-19.1
	C198.2,51.8,194.9,38,185.1,29.4 M164.3,73.4c-12,0-20.4-8.3-20.5-20.2s8.3-20.3,20.4-20.4c11.7-0.1,20.3,8.1,20.4,19.4
	c0.1,6.4-1.9,11.8-5.6,15.6c-3.6,3.6-8.6,5.6-14.5,5.6L164.3,73.4L164.3,73.4z"/>
<path class="st0" d="M118.9,33.6c-9.1-11.2-26.2-14.4-39.8-7.6C66.6,32.3,60.4,46.7,64,61c2.8,11.4,10.1,18.8,21,21.6
	c3.1,0.8,6.1,1.2,9,1.2c7.6,0,14.2-2.9,19.6-8.5c0.7-0.7,1.2-1.4,1.8-2.2v7.4c0,0.9,0.7,1.7,1.7,1.7h6.4c0.9,0,1.7-0.7,1.7-1.7l0,0
	c0-3.2,0-6.3,0-9.5c0.1-7.5,0.1-15.2-0.2-22.8C124.8,43.2,122.8,38.3,118.9,33.6 M114.8,52.8c0,5.8-2,11-5.7,14.8
	c-3.7,3.7-8.9,5.8-14.6,5.8h-0.1c-12,0-20.3-8.2-20.4-19.9c-0.1-12.3,8.1-20.7,20.3-20.7h0.1C106.1,32.7,114.7,41.2,114.8,52.8"/>
<path class="st0" d="M331.4,33.6c-9.1-11.2-26.2-14.4-39.8-7.6c-12.5,6.3-18.7,20.7-15.1,35c2.8,11.4,10.1,18.8,21,21.6
	c3.1,0.8,6.1,1.2,9,1.2c7.6,0,14.2-2.9,19.6-8.5c0.7-0.7,1.2-1.4,1.8-2.2v7.4c0,0.9,0.7,1.7,1.7,1.7h6.4c0.9,0,1.7-0.7,1.7-1.7l0,0
	c0-3.2,0-6.3,0-9.5c0.1-7.5,0.1-15.2-0.2-22.8C337.3,43.2,335.3,38.3,331.4,33.6 M327.3,52.8c0,5.8-2,11-5.7,14.8
	c-3.7,3.7-8.9,5.8-14.6,5.8h-0.1c-12,0-20.3-8.2-20.4-19.9c-0.1-12.3,8.1-20.7,20.3-20.7h0.1C318.6,32.7,327.2,41.2,327.3,52.8"/>
<path class="st0" d="M35.1,23c-8.9-1.5-16.2,0.3-21.9,5.1c-1.1,0.9-2.7,0.2-2.7-1.2V1.7C10.5,0.8,9.8,0,8.8,0H1.7C0.8,0,0,0.7,0,1.7
	v78.8c0,0.9,0.7,1.7,1.7,1.7H9c0.9,0,1.7-0.7,1.7-1.6c0-2.9,0-8.7,0-11.2c0-5.9,0-11.9,0-17.8c0-6.1,1.9-11,5.3-14.3
	c3.5-3.2,8.5-4.7,14.7-4.4c9.2,0.6,15.2,6.4,15.7,15.2c0.4,6.6,0.4,13.4,0.4,20c0,2.9,0,5.8,0.1,8.7c0,0.8,0,1.7,0,2.5v1.2
	c0,0.9,0.7,1.7,1.7,1.7h7.2c0.9,0,1.7-0.7,1.7-1.7l0,0c0-3.2,0-6.5,0-9.7c0-7,0.1-14.3-0.1-21.5C57.1,35,48.8,25.2,35.1,23"/>
<path class="st0" d="M268.9,57.5h-8.1c-0.9,0-1.6,0.7-1.6,1.5l-0.1,1.2c-0.1,0.8-0.1,1.6-0.2,2.4c-0.5,6.5-4.4,10.2-11,10.6
	c-4.6,0.3-12.5-0.5-13.1-9c-0.6-7.1-0.6-14.5-0.6-21.5c0-2.4,0-4.7,0-7.1c0-0.9,0.7-1.7,1.6-1.7h20.8c1.5,0,2.2-1.9,1.1-2.9
	l-7.9-6.9c-0.3-0.3-0.7-0.4-1.1-0.4h-13.1c-0.9,0-1.7-0.7-1.7-1.7V11c0-0.9-0.7-1.7-1.7-1.7h-6.9c-0.9,0-1.7,0.7-1.7,1.6v3.3
	c0,0.3-0.2,31.5,0.1,50.7c0.1,4.6,2.4,9.2,6.5,12.9c5,4.5,10.9,5.5,16.1,5.5c1.4,0,2.7-0.1,3.9-0.2c6-0.5,11.6-3.6,15.2-8.6
	c3.5-4.7,4.8-10.6,3.6-16L268.9,57.5z"/>
<path class="st0" d="M389.7,59l-0.2-1.4h-8.4c-0.9,0-1.6,0.7-1.6,1.5l-0.1,1.3c-0.1,0.7-0.1,1.4-0.1,2.1
	c-0.4,6.5-4.3,10.4-10.9,10.8c-4.7,0.3-12.7-0.5-13.3-9.1c-0.6-7.3-0.5-14.8-0.5-22c0-2.2,0-4.4,0-6.6c0-0.9,0.7-1.7,1.6-1.7h20.4
	c1.6,0,2.3-2,1-3l-8.7-6.8c-0.3-0.2-0.7-0.4-1-0.4H356c-0.9,0-1.7-0.7-1.7-1.7V11.4c0-0.9-0.7-1.7-1.7-1.7h-7.2
	c-0.9,0-1.7,0.7-1.7,1.6v3.4c0,0.3-0.1,31,0.3,50.1c0.2,8.4,6.5,15.7,15.4,17.7c2.4,0.5,5,0.8,8.2,0.8c0.5,0,0.9,0,1.4,0
	c6.3-0.1,11.9-2.7,15.8-7.3C388.9,71.5,390.6,65.4,389.7,59"/>
<path class="st0" d="M205,82h7c0.9,0,1.7-0.7,1.7-1.7V25.7c0-0.9-0.7-1.6-1.6-1.6l-7-0.1c-0.9,0-1.7,0.7-1.7,1.6v54.8
	C203.3,81.2,204.1,82,205,82"/>
<path class="st0" d="M205,17h7c0.9,0,1.7-0.7,1.7-1.7v-7c0-0.9-0.7-1.7-1.7-1.7h-7c-0.9,0-1.7,0.7-1.7,1.7v7
	C203.3,16.2,204.1,17,205,17"/>
</svg>
