<?xml version="1.0" encoding="UTF-8"?>
<svg width="127px" height="105px" viewBox="0 0 127 105" version="1.1" xmlns="http://www.w3.org/2000/svg" xmlns:xlink="http://www.w3.org/1999/xlink">
    <!-- Generator: Sketch 46.2 (44496) - http://www.bohemiancoding.com/sketch -->
    <title>habicat-and-tux</title>
    <desc>Created with Sketch.</desc>
    <defs>
        <path d="M0.526952748,13.9100168 C9.01519722,14.0737725 12.9603083,9.26930633 15.5900604,3.11953166 C18.2198124,-3.03024301 25.2284591,0.777197408 22.2253054,7.06415973 C19.2221518,13.351122 11.7008071,21.7876796 0.526952748,21.6524242 C0.526952748,13.9100168 0.526952748,19.7148901 0.526952748,13.9100168 Z" id="path-1"></path>
    </defs>
    <g id="Habitat-SaaS-Onboarding/desktop" stroke="none" stroke-width="1" fill="none" fill-rule="evenodd">
        <g id="Habitat-5-mins-flow-V2---5" transform="translate(-590.000000, -481.000000)">
            <g id="habicat-and-tux" transform="translate(590.000000, 479.500000)">
                <g id="habicat" transform="translate(12.000000, 0.430000)">
                    <path d="M33.6089575,98.6784473 L33.6089575,98.6784473 C31.4200716,98.6784473 29.6467969,96.9109036 29.6467969,94.7290917 L29.6467969,80.1330469 L37.5711181,80.1330469 L37.5711181,94.7290917 C37.5711181,96.9109036 35.7978434,98.6784473 33.6089575,98.6784473 Z" id="Shape" fill="#DDC7AE" fill-rule="nonzero"></path>
                    <rect id="Rectangle-3" fill-opacity="0.1" fill="#000000" x="29.6467969" y="86.0688281" width="7.92432125" height="2.96789062"></rect>
                    <path d="M59.201558,7.99166382 C51.0128077,9.14278416 48.0356443,18.7053432 48.0356443,22.9968048" id="Path-3" stroke="#DEBFA5"></path>
                    <path d="M61.30927,98.6784473 L61.30927,98.6784473 C59.1203841,98.6784473 57.3471094,96.9109036 57.3471094,94.7290917 L57.3471094,80.1330469 L65.2714306,80.1330469 L65.2714306,94.7290917 C65.2714306,96.9109036 63.4981559,98.6784473 61.30927,98.6784473 Z" id="Shape-Copy" fill="#DDC7AE" fill-rule="nonzero"></path>
                    <path d="M10.0541181,71.4771052 C7.86523218,71.4771052 6.0919575,69.7095614 6.0919575,67.5277496 L6.0919575,52.9317047 L14.0162787,52.9317047 L14.0162787,67.5277496 C14.0162787,69.7095614 12.2430041,71.4771052 10.0541181,71.4771052 Z" id="Shape-Copy-3" fill="#DDC7AE" fill-rule="nonzero" transform="translate(10.054118, 62.204405) rotate(-309.000000) translate(-10.054118, -62.204405) "></path>
                    <rect id="Rectangle-6" fill="#DDC7AE" x="14.8073438" y="21.7645313" width="77.7045105" height="64.6101842" rx="6"></rect>
                    <path d="M20.8073438,68.2614844 L92.5118543,68.2614844 L92.5118543,80.8068848 L92.5118543,80.8068848 C92.5118543,84.1205933 89.8255628,86.8068848 86.5118543,86.8068848 L20.8073438,86.8068848 L20.8073438,86.8068848 C17.4936353,86.8068848 14.8073438,84.1205933 14.8073438,80.8068848 L14.8073438,74.2614844 L14.8073438,74.2614844 C14.8073438,70.9477759 17.4936353,68.2614844 20.8073438,68.2614844 Z" id="Rectangle-6" fill="#A2BD7C"></path>
                    <rect id="Rectangle-6-Copy" fill="#FFE9D1" x="14.8073438" y="24.7324219" width="63.1686808" height="61.1826301" rx="4"></rect>
                    <path d="M14.8073438,68.2614844 L77.9760245,68.2614844 L77.9760245,82.8068848 L77.9760245,82.8068848 C77.9760245,85.0160238 76.1851635,86.8068848 73.9760245,86.8068848 L18.8073438,86.8068848 L18.8073438,86.8068848 C16.5982048,86.8068848 14.8073438,85.0160238 14.8073438,82.8068848 L14.8073438,68.2614844 Z" id="Rectangle-6-Copy" fill="#B9DA8D"></path>
                    <ellipse id="Oval-Copy" fill="#837365" fill-rule="nonzero" cx="31.350803" cy="40.2810772" rx="1.70400614" ry="1.69849907"></ellipse>
                    <ellipse id="Oval-Copy-2" fill="#837365" fill-rule="nonzero" cx="61.0297093" cy="40.2810772" rx="1.70400614" ry="1.69849907"></ellipse>
                    <path d="M49.8195166,46.7111753 L48.8704497,47.4775127 C47.4468492,48.663511 44.889641,48.8094801 43.1760479,47.8241891 C42.9915071,47.7147124 42.8333292,47.6052356 42.6751514,47.4775127 L41.7260845,46.7111753 C41.4097288,46.4557295 41.4624547,46.0725608 41.8315363,45.8536073 C41.9897142,45.7623766 42.2006179,45.7076382 42.4115217,45.7076382 L49.1340794,45.7076382 C49.6349758,45.7076382 50.0304204,45.9813302 50.0304204,46.3280066 C50.0304204,46.4557295 49.9513315,46.6016985 49.8195166,46.7111753 Z" id="Shape-Copy-4" fill="#837365" fill-rule="nonzero"></path>
                    <path d="M16.7859375,48.4755469 L19.7538281,48.4755469" id="Line-6" stroke="#827365" stroke-linecap="round" stroke-linejoin="round"></path>
                    <path d="M72.3739119,48.8378926 L75.3418025,48.8378926" id="Line-6-Copy-3" stroke="#827365" stroke-linecap="round" stroke-linejoin="round"></path>
                    <path d="M16.7859375,44.5183594 L19.7538281,44.5183594" id="Line-6-Copy" stroke="#827365" stroke-linecap="round" stroke-linejoin="round"></path>
                    <path d="M72.3739119,44.3860566 L75.3418025,44.3860566" id="Line-6-Copy-4" stroke="#827365" stroke-linecap="round" stroke-linejoin="round"></path>
                    <path d="M16.7859375,53.4220313 L19.7538281,53.4220313" id="Line-6-Copy-2" stroke="#827365" stroke-linecap="round" stroke-linejoin="round"></path>
                    <path d="M72.3739119,53.2897285 L75.3418025,53.2897285" id="Line-6-Copy-5" stroke="#827365" stroke-linecap="round" stroke-linejoin="round"></path>
                    <g id="Group-2" transform="translate(53.389922, 13.850156)">
                        <path d="M10.2416483,1.89440271 L14.5859798,9.49698284 L0.687857975,9.49698284 L5.03218948,1.89440271 L5.03218948,1.89440271 C5.85421939,0.45585037 7.68678338,-0.0439398096 9.12533572,0.778090099 C9.59042955,1.043858 9.97588043,1.42930888 10.2416483,1.89440271 Z" id="Triangle-Copy-4" fill="#DDC7AE"></path>
                        <path d="M8.50516205,6.40677094 L10.2709974,9.49698284 L5.00284039,9.49698284 L6.76867576,6.40677094 L6.76867576,6.40677094 C7.04268573,5.92725349 7.6535404,5.76065677 8.13305784,6.03466674 C8.28808912,6.12325604 8.41657274,6.25173966 8.50516205,6.40677094 Z" id="Triangle-Copy-5" fill="#827365"></path>
                    </g>
                    <g id="Group-2-Copy" transform="translate(24.700312, 13.850156)">
                        <path d="M10.2416483,1.89440271 L14.5859798,9.49698284 L0.687857975,9.49698284 L5.03218948,1.89440271 L5.03218948,1.89440271 C5.85421939,0.45585037 7.68678338,-0.0439398096 9.12533572,0.778090099 C9.59042955,1.043858 9.97588043,1.42930888 10.2416483,1.89440271 Z" id="Triangle-Copy-4" fill="#DDC7AE"></path>
                        <path d="M8.50516205,6.40677094 L10.2709974,9.49698284 L5.00284039,9.49698284 L6.76867576,6.40677094 L6.76867576,6.40677094 C7.04268573,5.92725349 7.6535404,5.76065677 8.13305784,6.03466674 C8.28808912,6.12325604 8.41657274,6.25173966 8.50516205,6.40677094 Z" id="Triangle-Copy-5" fill="#827365"></path>
                    </g>
                    <path d="M92.4994527,71.2892356 C100.987697,71.4529912 104.932808,66.6485251 107.56256,60.4987504 C110.192312,54.3489757 117.200959,58.1564162 114.197805,64.4433785 C111.194652,70.7303408 103.673307,79.1668984 92.4994527,79.0316429 C92.4994527,71.2892356 92.4994527,77.0941089 92.4994527,71.2892356 Z" id="Path-2" fill="#DDC7AE"></path>
                    <path d="M53.6381041,77.1788927 L51.9521178,78.864879 C51.8770246,78.9411059 51.763171,78.9641062 51.6643761,78.9230075 C51.5655811,78.8819088 51.5016334,78.7849432 51.5027611,78.6779466 L51.5027611,78.0776061 C51.5027611,77.9326731 51.3852697,77.8151818 51.2403368,77.8151818 L50.3164594,77.8151818 C50.1715265,77.8151818 50.0540351,77.9326731 50.0540351,78.0776061 L50.0540351,79.281882 C50.0540351,79.4268149 50.1715265,79.5443063 50.3164594,79.5443063 L50.6256168,79.5443063 C50.7326134,79.5431786 50.829579,79.6071263 50.8706777,79.7059213 C50.9117764,79.8047162 50.8887761,79.9185697 50.8125492,79.993663 L49.1265629,81.6796493 C49.0255476,81.7746093 48.8680929,81.7746093 48.7670776,81.6796493 L47.0810913,79.993663 C47.0048644,79.9185697 46.9818641,79.8047162 47.0229628,79.7059213 C47.0640615,79.6071263 47.1610271,79.5431786 47.2680236,79.5443063 L47.627509,79.5443063 C47.7724419,79.5443063 47.8899333,79.4268149 47.8899333,79.281882 L47.8899333,78.0955803 C47.8899333,77.9506474 47.7724419,77.833156 47.627509,77.833156 L45.6072013,77.833156 C45.4622684,77.833156 45.344777,77.9506474 45.344777,78.0955803 L45.344777,79.281882 C45.344777,79.4268149 45.4622684,79.5443063 45.6072013,79.5443063 L45.9882558,79.5443063 C46.0952524,79.5431786 46.192218,79.6071263 46.2333167,79.7059213 C46.2744154,79.8047162 46.2514151,79.9185697 46.1751882,79.993663 L44.4892019,81.6796493 C44.3881866,81.7746093 44.2307318,81.7746093 44.1297165,81.6796493 L42.4437302,79.993663 C42.3675033,79.9185697 42.344503,79.8047162 42.3856017,79.7059213 C42.4267004,79.6071263 42.523666,79.5431786 42.6306626,79.5443063 L42.9038715,79.5443063 C43.0488044,79.5443063 43.1662958,79.4268149 43.1662958,79.281882 L43.1662958,78.0776061 C43.1662958,77.9326731 43.0488044,77.8151818 42.9038715,77.8151818 L41.9943735,77.8151818 C41.8494406,77.8151818 41.7319492,77.9326731 41.7319492,78.0776061 L41.7319492,78.6707569 C41.7330769,78.7777535 41.6691292,78.8747191 41.5703343,78.9158178 C41.4715393,78.9569165 41.3576858,78.9339162 41.2825925,78.8576893 L39.6109856,77.1788927 C39.5160256,77.0778774 39.5160256,76.9204226 39.6109856,76.8194073 L41.2969719,75.133421 C41.3720652,75.0571941 41.4859187,75.0341938 41.5847137,75.0752925 C41.6835086,75.1163912 41.7474563,75.2133568 41.7463286,75.3203534 L41.7463286,75.9135042 C41.7463286,76.0584372 41.86382,76.1759285 42.0087529,76.1759285 L42.9038715,76.1759285 C43.0488044,76.1759285 43.1662958,76.0584372 43.1662958,75.9135042 L43.1662958,74.691254 C43.1662958,74.5463211 43.0488044,74.4288297 42.9038715,74.4288297 L42.6054986,74.4288297 C42.498502,74.4299574 42.4015364,74.3660097 42.3604377,74.2672148 C42.3193391,74.1684198 42.3423393,74.0545663 42.4185662,73.979473 L44.1045525,72.2934867 C44.2055678,72.1985267 44.3630226,72.1985267 44.4640379,72.2934867 L46.1392396,73.9758782 C46.2154666,74.0509714 46.2384668,74.164825 46.1973681,74.2636199 C46.1562694,74.3624148 46.0593038,74.4263626 45.9523073,74.4252349 L45.5712528,74.4252349 C45.4263198,74.4252349 45.3088285,74.5427262 45.3088285,74.6876592 L45.3088285,75.8667711 C45.3088285,76.0117041 45.4263198,76.1291954 45.5712528,76.1291954 L47.5915605,76.1291954 C47.7364934,76.1291954 47.8539848,76.0117041 47.8539848,75.8667711 L47.8539848,74.6876592 C47.8539848,74.5427262 47.7364934,74.4252349 47.5915605,74.4252349 L47.2320751,74.4252349 C47.1250785,74.4263626 47.0281129,74.3624148 46.9870142,74.2636199 C46.9459156,74.164825 46.9689158,74.0509714 47.0451427,73.9758782 L48.731129,72.2898919 C48.8321443,72.1949319 48.9895991,72.1949319 49.0906144,72.2898919 L50.8125492,73.9758782 C50.8887761,74.0509714 50.9117764,74.164825 50.8706777,74.2636199 C50.829579,74.3624148 50.7326134,74.4263626 50.6256168,74.4252349 L50.3164594,74.4252349 C50.1715265,74.4252349 50.0540351,74.5427262 50.0540351,74.6876592 L50.0540351,75.8919351 C50.0540351,76.0368681 50.1715265,76.1543594 50.3164594,76.1543594 L51.2403368,76.1543594 C51.3852697,76.1543594 51.5027611,76.0368681 51.5027611,75.8919351 L51.5027611,75.3023791 C51.5016334,75.1953826 51.5655811,75.0984169 51.6643761,75.0573183 C51.763171,75.0162196 51.8770246,75.0392198 51.9521178,75.1154468 L53.6381041,76.8194073 C53.7330641,76.9204226 53.7330641,77.0778774 53.6381041,77.1788927 L53.6381041,77.1788927 Z" id="Shape" fill="#FFFFFF" fill-rule="nonzero"></path>
                    <rect id="Rectangle-3-Copy" fill-opacity="0.1" fill="#000000" x="57.3471094" y="86.0688281" width="7.92432125" height="2.96789062"></rect>
                    <g id="Rectangle-3-Copy-2" transform="translate(91.972500, 57.379219)">
                        <mask id="mask-2" fill="white">
                            <use xlink:href="#path-1"></use>
                        </mask>
                        <use id="Mask" fill="#DDC7AE" xlink:href="#path-1"></use>
                        <rect fill-opacity="0.1" fill="#000000" mask="url(#mask-2)" transform="translate(2.225452, 17.593299) rotate(-90.000000) translate(-2.225452, -17.593299) " x="-1.95572685" y="15.8947998" width="8.36235734" height="3.39699814"></rect>
                    </g>
                    <g id="Group-28" transform="translate(50.916680, 0.000000)">
                        <g id="Group-27" fill="#FF9012">
                            <g id="Group-25" transform="translate(3.215215, 2.225918)">
                                <ellipse id="Oval-2" transform="translate(8.161699, 5.193809) rotate(-270.000000) translate(-8.161699, -5.193809) " cx="8.16169922" cy="5.19380859" rx="1.48394531" ry="2.22591797"></ellipse>
                                <ellipse id="Oval-2" cx="5.19380859" cy="2.22591797" rx="1.48394531" ry="2.22591797"></ellipse>
                                <ellipse id="Oval-2" transform="translate(2.225918, 5.193809) rotate(-90.000000) translate(-2.225918, -5.193809) " cx="2.22591797" cy="5.19380859" rx="1.48394531" ry="2.22591797"></ellipse>
                                <ellipse id="Oval-2" transform="translate(5.193809, 8.161699) rotate(-180.000000) translate(-5.193809, -8.161699) " cx="5.19380859" cy="8.16169922" rx="1.48394531" ry="2.22591797"></ellipse>
                            </g>
                            <g id="Group-25" transform="translate(8.409023, 7.852747) rotate(45.000000) translate(-8.409023, -7.852747) translate(2.909023, 2.352747)">
                                <ellipse id="Oval-2" transform="translate(8.161699, 5.193809) rotate(-270.000000) translate(-8.161699, -5.193809) " cx="8.16169922" cy="5.19380859" rx="1.48394531" ry="2.22591797"></ellipse>
                                <ellipse id="Oval-2" cx="5.19380859" cy="2.22591797" rx="1.48394531" ry="2.22591797"></ellipse>
                                <ellipse id="Oval-2" transform="translate(2.225918, 5.193809) rotate(-90.000000) translate(-2.225918, -5.193809) " cx="2.22591797" cy="5.19380859" rx="1.48394531" ry="2.22591797"></ellipse>
                                <ellipse id="Oval-2" transform="translate(5.193809, 8.161699) rotate(-180.000000) translate(-5.193809, -8.161699) " cx="5.19380859" cy="8.16169922" rx="1.48394531" ry="2.22591797"></ellipse>
                            </g>
                        </g>
                        <path d="M8.40902344,8.90367188 C7.59051446,8.90367188 6.92507812,8.23804073 6.92507812,7.419647 C6.92507812,6.60125327 7.59051446,5.93578125 8.40902344,5.93578125 C9.22737329,5.93578125 9.89296875,6.60125327 9.89296875,7.419647 C9.89296875,8.23804073 9.22737329,8.90367188 8.40902344,8.90367188" id="Fill-4" fill="#FFE48F"></path>
                    </g>
                    <g id="Group" transform="translate(61.120054, 74.308940)" fill-rule="nonzero" fill="#54C7F1">
                        <path d="M0.614795714,6.93577802 C0.297702201,6.93577802 0.0403443419,6.67900581 0.0403443419,6.36132665 L0.0403443419,0.617073217 C0.0403443419,0.29939406 0.297702201,0.0426218451 0.614795714,0.0426218451 C0.931889227,0.0426218451 1.18924709,0.29939406 1.18924709,0.617073217 L1.18924709,6.36132665 C1.18924709,6.67900581 0.931889227,6.93577802 0.614795714,6.93577802" id="Shape"></path>
                        <path d="M2.33808476,6.93577802 C2.02099124,6.93577802 1.76363339,6.67900581 1.76363339,6.36132665 L1.76363339,1.19152459 C1.76363339,0.873845432 2.02099124,0.617073217 2.33808476,0.617073217 C2.65517827,0.617073217 2.91253613,0.873845432 2.91253613,1.19152459 L2.91253613,6.36132665 C2.91253613,6.67900581 2.65517827,6.93577802 2.33808476,6.93577802" id="Shape"></path>
                        <path d="M4.0613738,6.93577802 C3.74428029,6.93577802 3.48692243,6.67900581 3.48692243,6.36132665 L3.48692243,1.76591089 C3.48692243,1.44823173 3.74428029,1.19145952 4.0613738,1.19145952 C4.37846732,1.19145952 4.63582517,1.44823173 4.63582517,1.76591089 L4.63582517,6.36132665 C4.6357601,6.67900581 4.37846732,6.93577802 4.0613738,6.93577802" id="Shape"></path>
                        <path d="M5.78466285,6.93577802 C5.46756933,6.93577802 5.21021148,6.67900581 5.21021148,6.36132665 L5.21021148,2.34036226 C5.21021148,2.0226831 5.46756933,1.76591089 5.78466285,1.76591089 C6.10175636,1.76591089 6.35911422,2.0226831 6.35911422,2.34036226 L6.35911422,6.36132665 C6.35904915,6.67900581 6.10169129,6.93577802 5.78466285,6.93577802" id="Shape"></path>
                        <path d="M7.50788682,6.93577802 C7.19079331,6.93577802 6.93343545,6.67900581 6.93343545,6.36132665 L6.93343545,2.34036226 C6.93343545,2.0226831 7.19079331,1.76591089 7.50788682,1.76591089 C7.82498033,1.76591089 8.08233819,2.0226831 8.08233819,2.34036226 L8.08233819,6.36132665 C8.08233819,6.67900581 7.82498033,6.93577802 7.50788682,6.93577802" id="Shape"></path>
                    </g>
                    <polygon id="Shape" fill="#48ADD1" fill-rule="nonzero" points="69.2023917 62.2887338 69.2023917 77.798205 61.160463 75.5004646 61.160463 62.2887338"></polygon>
                    <path d="M70.1200536,72.6459222 C67.9311676,72.6459222 66.1578929,70.8783785 66.1578929,68.6965667 L66.1578929,54.1005218 L74.0822142,54.1005218 L74.0822142,68.6965667 C74.0822142,70.8783785 72.3089395,72.6459222 70.1200536,72.6459222 Z" id="Shape-Copy-6" fill="#DDC7AE" fill-rule="nonzero" transform="translate(70.120054, 63.373222) rotate(-303.000000) translate(-70.120054, -63.373222) "></path>
                    <g id="Group-Copy" transform="translate(27.620054, 48.475547)" fill-rule="nonzero" fill="#48ADD1">
                        <path d="M66.4675972,8.06665596 L66.4675972,11.5155115 C66.4675972,12.7844062 65.4388165,13.8131869 64.1699219,13.8131869 L2.29780549,13.8131869 C1.02891086,13.8131869 0.000130143039,12.7844062 0.000130143039,11.5155115 L0.000130143039,8.06893346 C0.000130143039,6.80003883 1.02891086,5.77125811 2.29780549,5.77125811 C1.02891086,5.77125811 0.000130143039,4.74247739 0.000130143039,3.47358277 L0.000130143039,2.32468003 C0.000130143039,1.0557854 1.02891086,0.0270046805 2.29780549,0.0270046805 L64.1698568,0.0270046805 C65.4387514,0.0270046805 66.4675321,1.0557854 66.4675321,2.32468003 L66.4675321,3.4735177 C66.4675321,4.74241232 65.4387514,5.77119304 64.1698568,5.77119304 C65.4399878,5.77125811 66.4675972,6.79893262 66.4675972,8.06665596 Z" id="Shape"></path>
                    </g>
                    <g id="Group-3" transform="translate(33.000000, 42.570000)">
                        <path d="M12.623617,1.60187571 L12.623617,1.60187571 L12.623617,1.60187571 C19.1827622,1.60187571 24.5,6.91911351 24.5,13.4782587 L24.5,25.6018757 L0.747233943,25.6018757 L0.747233943,13.4782587 L0.747233943,13.4782587 C0.747233943,6.91911351 6.06447174,1.60187571 12.623617,1.60187571 Z" id="Rectangle-Copy-9" fill="#FFFFFF"></path>
                        <path d="M14.5653861,1.27251854 L14.1098085,2.04714688 C13.4264422,3.24597645 12.1989138,3.3935247 11.3763433,2.39757398 C11.2877588,2.28691279 11.2118292,2.1762516 11.1358996,2.04714688 L10.680322,1.27251854 C10.5284628,1.01430909 10.5537727,0.626994923 10.7309418,0.405672541 C10.8068713,0.313454881 10.9081108,0.258124286 11.0093503,0.258124286 L14.2363578,0.258124286 C14.4768015,0.258124286 14.6666255,0.534777264 14.6666255,0.885204369 C14.6666255,1.01430909 14.6286607,1.16185735 14.5653861,1.27251854 Z" id="Shape-Copy-11" fill="#837365" fill-rule="nonzero"></path>
                    </g>
                    <path d="M79.4675972,56.5422028 L79.4675972,59.9910584 C79.4675972,61.259953 78.4388165,62.2887338 77.1699219,62.2887338 L15.2978055,62.2887338 C14.0289109,62.2887338 13.0001301,61.259953 13.0001301,59.9910584 L13.0001301,56.5444803 C13.0001301,55.2755857 14.0289109,54.246805 15.2978055,54.246805 C14.0289109,54.246805 13.0001301,53.2180243 13.0001301,51.9491296 L13.0001301,50.8002269 C13.0001301,49.5313323 14.0289109,48.5025516 15.2978055,48.5025516 L77.1698568,48.5025516 C78.4387514,48.5025516 79.4675321,49.5313323 79.4675321,50.8002269 L79.4675321,51.9490646 C79.4675321,53.2179592 78.4387514,54.2467399 77.1698568,54.2467399 C78.4399878,54.246805 79.4675972,55.2744795 79.4675972,56.5422028 Z" id="Shape" fill="#54C7F1" fill-rule="nonzero"></path>
                </g>
                <g id="linux-tux" transform="translate(0.408203, 66.451611)" fill-rule="nonzero">
                    <polygon id="Shape" fill="#FFFFFF" points="11.6161622 10.0037812 11.5515597 5.60164359 14.1709802 4.06750097 18.0603213 1.44830395 19.6590664 1.38325434 21.3226376 3.17133635 22.2188023 9.11253445 21.0038722 11.2837609 15.9588387 11.1541088"></polygon>
                    <polygon id="Shape" fill="#FFFFFF" points="6.44192366 22.5885344 7.78158805 18.8185628 10.4010086 15.6910399 11.740673 13.0070169 12.3182957 12.115323 21.8948954 10.64623 23.812406 13.6492421 29.176205 26.4830168 27.3230734 28.7785306 22.4678238 36.89632 21.3226376 37.1500359 12.44303 37.4039753 6.2478925 30.5067043 5.22677004 24.7597609 6.44192366 22.5885344"></polygon>
                    <path d="M18.7029936,12.81768 C18.7029936,12.81768 18.3842281,12.7528539 19.2756984,12.5585992 C20.1720866,12.3694859 20.1767809,12.1801491 20.4258024,11.9210683 C20.6799653,11.6671289 20.8096175,11.0892827 20.8096175,10.4519753 C20.8096175,9.81466792 21.128383,7.96198337 21.0633333,7.4541046 C21.0038722,6.94108444 19.9130058,5.0287152 19.4697296,4.76985797 C19.021759,4.51591858 14.0415516,4.06750097 14.0415516,4.06750097 L12.5076325,5.28287812 L11.357305,6.36346175 L11.6161622,9.81466792 C11.6161622,9.81466792 11.2924789,10.9001694 11.357305,11.3434456 C11.4221311,11.7916397 12.0643563,12.3046599 12.3182957,12.5585992 C12.5722351,12.81768 13.5285315,13.8434968 13.8470734,14.1571209 C14.1707567,14.4758863 14.2355828,14.7946518 14.9974009,14.5404889 C15.7643605,14.2865495 16.2125545,14.2865495 16.7904008,13.8383554 C17.3631056,13.3901613 18.7029936,12.81768 18.7029936,12.81768 L18.7029936,12.81768 Z" id="Shape" fill="#F6D330"></path>
                    <path d="M15.764584,7.38950206 C15.9588387,6.8764819 16.2127781,5.92040905 16.6560543,5.60164359 C17.1040249,5.28287812 18.0654626,5.01910306 18.638391,5.08862343 C19.2160137,5.15344951 20.2965973,5.72615436 20.5554546,6.1741249 C20.8096175,6.62231898 20.8096175,8.41017745 20.8096175,8.41017745 L20.6799653,9.87927046 L19.788495,9.81466792 L17.8714315,9.04748484 L17.552666,9.04748484 C17.552666,9.04748484 17.2339006,9.17199561 16.2726863,8.66411684 C15.3163899,8.15132022 15.5703293,7.90229867 15.764584,7.38950206 L15.764584,7.38950206 Z M13.7227862,8.79376899 C13.7527403,8.76381487 13.812425,8.72402507 13.8922281,8.6790939 C14.2805139,8.46494431 15.1270531,8.15132022 15.1270531,8.15132022 C15.1270531,8.15132022 15.9536973,6.04983767 15.2515639,5.21805205 C14.5543482,4.38648997 13.0206527,4.51591858 13.0206527,4.51591858 C13.0206527,4.51591858 11.3624464,5.47221497 11.4221311,5.85558297 C11.4869571,6.23917451 11.5515597,7.57861537 11.6163858,7.76795222 C11.676294,7.96220691 11.9351512,10.0040048 11.9351512,10.0040048 L12.5078561,9.75006538 L13.3396417,9.11253445 C13.3394182,9.11253445 13.5334493,8.98802368 13.7227862,8.79376899 L13.7227862,8.79376899 Z" id="Shape" fill="#FFFFFF"></path>
                    <path d="M25.91903,28.0813149 L26.8451487,28.1510588 C26.9797187,28.1611181 27.1140652,28.1658124 27.2486352,28.1709537 C27.9357916,28.1957665 28.5386741,28.3003824 29.1811228,28.3801855 C29.6047277,28.430258 30.3066376,28.6991745 30.3564867,29.231866 C30.4262306,30.018944 30.1971039,30.8851545 30.8641419,31.2090613 C31.546604,31.6722325 33.0702403,32.7429804 33.0702403,32.7429804 L33.5186579,33.5694011 L32.1792171,34.7847783 L25.6004881,38.7438632 L22.6023938,37.7229643 L22.6023938,35.2975749 L22.7269046,32.0408469 L22.4081391,29.1024374 L22.9162414,27.9521099 L24.1959976,27.5685183 L25.91903,28.0813149 L25.91903,28.0813149 Z M6.89525911,26.6470939 C6.83043304,26.5871856 5.66512843,26.9312109 5.59046668,26.9459644 C5.04771594,27.025544 4.36055954,27.3990764 4.36055954,27.9918996 C4.36055954,28.2956881 4.3357468,28.6095357 4.19625897,28.88337 C4.08672525,29.097296 3.8377037,29.4209793 3.84262154,29.4909468 C3.75790057,29.7249913 3.60365922,30.0535924 3.38950963,30.1930802 C3.14048808,30.2181165 2.03486817,30.3178146 2.03486817,30.3178146 L1.07365394,30.3178146 L0.500949091,31.0148066 L0.949143169,32.8726326 L0.819491017,34.3368077 L0.376214779,35.9999319 L1.45679841,36.5726367 L9.63404906,38.7438632 L11.4867336,38.1711584 L12.4428065,35.8056772 L12.2485518,34.9142069 L11.357305,33.1263484 C11.357305,33.1261249 7.4728818,27.4837973 6.89525911,26.6470939 Z" id="Shape" fill="#F6D330"></path>
                    <path d="M11.0584344,6.60242408 C10.924088,2.14551958 12.6620974,0.17815994 16.2724628,0.113557402 C19.8781338,0.0438134859 22.1389991,1.94612351 22.6021703,4.44125683 C23.0602,6.93124876 22.796425,10.213013 23.7176259,11.916374 C24.6341324,13.6244293 25.2218144,14.9341396 26.8004411,16.9012757 C28.3739264,18.8684118 29.3550356,20.8704199 29.8135124,23.3005036 C30.2762364,25.725893 30.5355408,26.8713027 29.3550356,28.1211047 C28.1749774,29.3659889 26.0784127,31.3979511 24.5044803,29.1022139 C23.7129316,27.9518863 23.6282106,26.5225831 24.9629571,26.2190182 C25.8144141,26.0196222 26.4269088,26.0844482 27.0595218,26.4130494 C27.6970528,26.7418741 27.8463763,26.5871856 27.0843346,26.0196222 C26.3171515,25.4518352 26.1631337,25.974691 26.4269088,25.0584079 C26.6911309,24.1419013 27.0347091,22.4935307 26.317375,20.6808595 C25.9838561,19.8443796 24.8534234,17.5535602 23.7925111,16.990691 C23.697731,16.9359241 23.4192024,16.8214726 23.6083157,17.0555171 C23.8922092,17.4091545 25.4209869,19.6599606 25.8542039,20.999625 C26.317375,22.4389874 26.3819776,23.8135237 26.1432388,24.6848756 C25.9045,25.5613689 25.485813,25.9098649 24.982852,25.9098649 C24.4798911,25.9098649 24.0218613,26.1488272 24.0218613,24.9935819 C24.0218613,23.8331951 24.1414543,22.0851264 23.5189004,20.6059742 C22.8963465,19.1319634 22.1392227,18.1159823 21.9751456,17.4934284 C21.8157629,16.8708745 21.4520663,15.1976912 20.7003073,14.2465361 C19.9431835,13.2953811 19.6145823,12.6728273 20.007786,11.5873258 C20.4012132,10.5067422 20.1072605,10.2127894 19.3206296,9.98366279 C18.5337751,9.75475968 17.4829221,9.425935 17.2240649,8.89816132 C16.9600663,8.37530549 17.1245904,7.32445244 17.7122723,7.06559522 C18.3046485,6.80159661 19.2857576,7.16015187 19.3206296,7.91727573 C19.3555015,8.66925821 18.9918049,9.06268544 19.09195,9.22698601 C19.1914245,9.39128658 19.7140568,9.65528519 19.978279,9.361556 C20.2371362,9.06268544 20.3071036,8.14617884 20.0428815,7.29472186 C19.7786593,6.44304135 19.6494543,5.8504416 18.6980757,5.65618691 C17.7471442,5.45679084 17.3188451,5.52161691 16.8605918,6.11421666 C16.4023385,6.70189858 16.2033895,7.65305359 16.3377359,8.34535137 C16.4671646,9.03250778 16.2031659,8.63908056 15.7451362,8.6042086 C15.2868829,8.57425448 15.416535,8.53938252 14.9582817,8.57425448 C14.5000285,8.6042086 14.6645526,8.31025588 14.6294571,7.81735416 C14.5995029,7.32422891 14.5349004,6.30847135 13.8426026,5.91504413 C13.1552227,5.52161691 11.9751646,5.97987021 12.0048951,7.62332301 C12.0397671,9.26185797 12.5974949,10.0484889 12.9263196,9.45588912 C13.2549207,8.86820721 13.0906201,9.16215993 12.762019,8.89816132 C12.4334179,8.6393041 12.2042912,7.55357909 12.5628465,7.22989579 C12.9263196,6.90129464 13.3497009,6.90129464 13.5837454,7.09554933 C13.812872,7.29472186 14.1714273,7.95214769 14.1066012,8.37530549 C14.0417752,8.80360467 14.0069032,8.83355879 13.5837454,9.13220581 C13.1554462,9.425935 12.9911456,9.68993361 12.4982439,10.0136169 C12.0051187,10.3422181 11.8110875,11.0993419 12.2045147,11.2935966 C12.597942,11.4927691 12.6328139,11.4578972 12.9564972,11.9510224 C13.2850984,12.4441477 13.8428262,12.6730508 15.2222804,12.4441477 C16.5968167,12.215021 17.1643802,11.8864199 18.2053975,11.5227233 C18.9625214,11.2636425 18.6982993,11.2935966 18.9625214,10.9998674 C19.2213786,10.7061382 19.6496778,11.129296 19.2562506,11.3932946 C18.8628234,11.6572932 17.9760474,11.9161505 17.3190686,12.1452771 C16.6665606,12.3793216 15.9096603,13.0318296 14.5351239,12.9670035 C13.1556698,12.9021774 14.1068248,12.9321316 13.6785256,12.9021774 C13.2551443,12.8673055 13.0559717,12.9321316 13.514225,13.2607327 C13.9773962,13.5895574 13.9425242,13.6890319 14.3359514,13.8184605 C14.7293786,13.9530305 15.2522345,13.9530305 15.8797062,13.7239038 C16.50226,13.4898594 18.0761925,12.8024794 18.5690942,12.4738783 C19.0573016,12.1452771 19.4505053,12.5735763 18.9625214,12.9021774 C18.4696197,13.2307786 18.3350497,13.1313041 17.8767964,13.4250333 C17.4187666,13.7239038 16.5670861,14.2118877 16.0093583,14.7396614 C15.4516305,15.2625172 15.3222019,15.2973892 14.6299041,15.3273433 C13.9427477,15.3622153 13.5144486,14.6401869 13.2204958,14.3115858 C12.9267666,13.9827611 12.9564972,13.7887299 12.597942,13.3950792 C12.2393867,13.0016519 12.2045147,13.0962086 12.1396887,13.5245078 C12.0748626,13.952807 11.5819609,15.0333906 11.1536617,15.7556425 C10.7302804,16.4776708 10.6954084,17.3642233 10.7602345,17.9867772 C10.8250606,18.6093311 10.66076,18.6739336 10.1727761,19.395962 C9.67965085,20.1179903 8.85792445,22.249427 8.72849584,22.9368069 C8.59884368,23.6239634 8.43476665,25.0382895 8.49936919,25.8550981 C8.56419526,26.6768245 8.33506862,26.841125 7.74246887,26.2833972 C7.15478695,25.7256694 6.95539089,25.1031156 6.99048638,24.2813892 C7.0204405,23.5792557 7.11499716,23.0861305 7.20463597,22.8272732 C7.29427479,22.568416 7.20955381,22.3891384 7.0204405,22.7079038 C6.61695406,23.4048959 6.59705916,24.6102139 6.6967572,25.038513 C6.79131385,25.4618944 6.82618581,26.2187947 7.90699298,27.2345522 C8.99249444,28.2505333 10.5662033,29.6599416 11.8761371,30.6110967 C13.1907653,31.5622517 13.6490185,32.7425333 11.7118366,33.5942139 C12.9269902,35.2376666 13.5841925,36.0891236 13.0564188,37.1697073 C14.1419203,36.5471534 13.7236803,35.0782839 13.2008245,34.6846332 C12.6728273,34.2912059 12.9915927,33.9876411 13.449846,34.2865116 C13.9080993,34.5802408 14.0723999,35.1679227 15.8801533,35.1379686 C17.6827652,35.1033202 19.6250886,34.9240426 20.7110372,33.3451923 C21.7916208,31.7714834 22.0008525,33.0961708 21.7366304,34.0175952 C21.4777732,34.9338782 20.830183,37.0056302 21.8461641,36.8113755 C21.9758163,35.5959984 22.2744633,34.5453689 22.2744633,33.2356586 C22.2744633,31.9208069 22.4041154,31.2884174 22.3046409,29.3861074 C22.2047194,27.5533177 22.9967152,27.4288069 23.8135237,27.4288069 C24.6352501,27.4288069 24.371028,27.9565806 23.8483957,27.9217087 C23.320622,27.8870602 22.767365,28.0862328 22.7329401,29.430815 C22.6980682,30.7753972 22.7329401,30.6459686 22.9616197,31.8562044 C23.1907463,33.071358 23.2258418,33.4299133 23.0266693,34.7744955 C22.8324146,36.1193013 22.6678905,36.8411061 23.554443,37.663056 C24.4358541,38.4847824 25.7802128,38.250738 26.4727341,37.7276586 C27.1598905,37.2048027 28.4698243,35.9898727 29.6498824,35.5962219 C30.8353055,35.2027947 32.0804132,34.9090655 32.737392,34.2516397 C33.3901235,33.5944374 33.2255994,33.1361841 32.5382194,32.7774053 C31.851063,32.4139322 31.1934137,32.5782328 30.6707814,31.9905509 C30.1425606,31.3979511 29.8837034,30.0880173 30.0779581,29.395943 C30.2771306,28.7087866 30.5062572,29.0025158 30.5062572,29.4956411 C30.5062572,29.9885428 30.5364349,30.4467961 31.0293366,31.0691264 C31.5222383,31.6916803 31.9802681,31.9905509 32.7673461,32.4785347 C33.5542005,32.97166 34.0471022,33.7585144 33.0610753,34.4505887 C32.0799661,35.1377451 31.5220148,35.5313958 30.7002884,35.859997 C29.8834798,36.1888217 28.5391211,36.9754526 27.7169477,37.7924847 C26.8952213,38.6142111 26.4371915,39.3362394 24.8288342,39.3362394 C23.2251712,39.3362394 22.4881658,38.94773 22.0102411,37.9914337 C21.6814165,37.3342314 21.5168923,37.4339294 20.7651334,37.3990574 C20.0080095,37.3691033 17.4831456,37.3342314 15.5162331,37.3691033 C13.549097,37.3990574 12.8918947,37.7276586 12.0053422,38.4496869 C11.1239311,39.1717153 10.7951064,39.7296666 9.12192306,39.1717153 C7.44873968,38.613764 6.5621872,37.9914337 4.07219527,37.4985319 C1.57706195,37.0056302 2.92186773,37.2345333 1.41276138,36.9059322 C-0.0961214231,36.5822489 0.0033530729,35.859997 0.202749141,35.2676208 C0.397003831,34.6799389 0.889905548,33.7585144 0.461606369,32.5485022 C0.0382250311,31.333125 0.202749141,30.0882408 1.34793531,30.0882408 C2.49826285,30.0882408 3.57907001,30.3173675 4.03709977,28.8082611 C4.49535307,27.2993783 4.62969952,28.47966 4.49535307,28.8730872 C4.36592445,29.2665144 4.30109838,30.3470981 3.28511729,30.5116222 C2.2691362,30.6756992 2.04023309,30.4467961 1.41253784,30.4467961 C0.790207514,30.4467961 0.531126747,30.8750953 0.854810051,31.5971236 C1.1834112,32.3189285 1.5468843,33.0711345 1.48228176,33.6936883 C1.41253784,34.3160187 1.34771177,34.5453689 0.88968201,35.1377451 C0.431428713,35.725427 0.496254789,36.0242976 1.31798119,36.2185522 C2.13456621,36.4179483 3.61371843,36.811152 4.98825478,37.1399767 C6.36770898,37.4634364 6.46740701,37.4634364 8.85770091,38.0911317 C11.2531362,38.713462 11.910562,37.5980064 12.1048167,36.2534242 C12.3039892,34.9086184 11.3827883,33.6288623 10.5311078,32.3488826 C9.67942731,31.0689029 8.76269718,29.5955626 7.64701806,28.2507569 C6.53156247,26.9061746 5.87413665,26.8064766 5.31640885,27.1004293 C4.75845752,27.3992999 4.65898303,27.3344738 4.62902891,26.5775735 C4.59415695,25.825591 4.52933087,25.3326893 5.15188474,24.2170102 C5.77443861,23.1015546 6.3321664,21.8861774 6.98959223,20.0187394 C7.64679452,18.1513013 8.23447643,17.7878282 9.35015555,16.1792474 C10.4658347,14.5758079 9.97270942,15.1981382 10.7595639,14.1175546 C11.5464183,13.0320531 11.3172917,13.2310021 11.2526891,11.5229468 C11.187863,9.81958576 11.1232605,8.83355879 11.0584344,6.60242408 Z M7.92599372,19.9389362 C8.09543567,20.1432501 8.334398,19.6601841 8.58341955,19.4759886 C8.80173046,19.2790426 8.90333111,18.9836153 8.852336,18.694052 C8.82752326,18.5398107 8.57827817,18.5894362 8.52865269,18.644203 C8.37441134,18.7984444 8.40905976,19.0476895 8.29952604,19.261839 C8.17501527,19.5206963 7.75677531,19.729928 7.92599372,19.9389362 L7.92599372,19.9389362 Z M22.0245476,13.0863729 C22.378185,13.3852435 22.5972524,13.6443242 22.7912836,13.201048 C22.9909032,12.7577718 22.9909032,12.5784941 22.512755,12.3992165 C22.0395246,12.2147975 21.8255986,12.0207663 21.6112255,11.7766626 C21.3972994,11.5276411 21.3226376,11.9510224 21.4967739,12.3643446 C21.7107,12.8724469 21.8352107,12.9321316 22.0245476,13.0863729 L22.0245476,13.0863729 Z M14.6341514,9.01775426 C14.3900477,8.96790524 14.0963185,8.98780014 13.9317944,9.18205483 C13.8669683,9.24688091 13.8969224,9.43107638 14.011374,9.48092539 C14.1606975,9.54575147 14.2603955,9.39642796 14.2903496,9.28175286 C14.3053267,9.23190385 14.3252216,9.16730131 14.3750706,9.15232425 C14.4398967,9.11745229 14.5344533,9.14740641 14.6041972,9.11745229 C14.6840004,9.08749817 14.6540463,9.01775426 14.6341514,9.01775426 L14.6341514,9.01775426 Z M15.7945381,9.06268544 C15.8942362,9.21200895 16.0735138,9.21200895 16.2228373,9.27683502 C16.3024169,9.31170698 16.466941,9.361556 16.5165665,9.24688091 C16.6312416,8.8834078 16.1381163,8.99785936 15.9089897,8.99785936 C15.8593642,8.99785936 15.7446891,8.98310584 15.7945381,9.06268544 Z M18.1852791,7.47399949 C18.4092644,7.48383518 18.7130528,7.88240377 18.7427834,8.34557491 C18.7474777,8.41531883 18.9370381,8.41017745 18.9768278,8.34065707 C19.0816673,8.1564616 19.0070055,7.95214769 18.9571565,7.73308026 C18.9169196,7.55380263 18.7029936,7.36960716 18.5237159,7.28980402 C18.404123,7.22989579 18.2796122,7.21022443 18.1202295,7.22989579 C18.0804397,7.25001423 17.9411754,7.45902244 18.1852791,7.47399949 L18.1852791,7.47399949 Z M13.2996284,7.35954794 C13.0953144,7.37430146 13.1701997,7.53368419 13.1800354,7.66311281 C13.4639289,7.82249554 13.4887417,8.1810508 13.5484264,8.46494431 C13.5533442,8.57447802 13.7176448,8.52485254 13.7326218,8.48998058 C13.8571326,8.26085394 13.7026677,8.00199671 13.6481244,7.73308026 C13.5982754,7.59359243 13.5037187,7.4342097 13.3740666,7.33965304 C13.3543952,7.31975814 13.3192997,7.35954794 13.2996284,7.35954794 Z M19.5642862,2.33463289 C19.3599723,2.17033232 19.0412068,2.10550624 18.9468737,2.37442269 C18.8473992,2.60354934 18.8869655,2.83759383 18.8319751,3.08661537 C18.8319751,3.16619497 18.7325006,3.18608987 18.6779573,3.26075163 C18.5981541,3.35530828 18.618049,3.47490122 18.6578388,3.50977317 C18.8473992,3.70402786 19.1956717,3.32043632 19.4498347,3.18608987 C19.638948,3.06649694 19.9125587,3.22096183 20.1222376,3.08661537 C20.1816987,3.04682558 20.2015936,2.95204538 20.1419089,2.87738362 C20.0075625,2.64333914 19.773518,2.50899268 19.5642862,2.33463289 Z" id="Shape" fill="#000000"></path>
                    <path d="M25.4706124,28.4101396 C25.50079,28.2755696 25.5700869,28.0117945 25.699739,27.9720047 C25.7446702,27.9570277 25.78446,27.9769226 25.7992135,28.0218538 C25.8289441,28.1063512 25.7393053,28.5896408 25.7744008,28.6991745 C25.8141906,28.813626 25.948537,28.798649 26.0433172,28.7689184 C26.2673025,28.6940331 26.3969546,28.430258 26.3868954,28.4054453 C26.3868954,28.3953861 26.381754,28.3953861 26.3721419,28.3953861 C26.3372699,28.4054453 26.3070923,28.5299561 26.2076178,28.5594631 C26.1430153,28.5795816 26.0931662,28.5695223 26.0730478,28.5049198 C26.0533764,28.4351759 26.1380974,27.9371328 26.0978605,27.8224577 C26.0634357,27.7080061 25.948537,27.678052 25.8390033,27.712924 C25.5948996,27.7927271 25.4905073,28.1660359 25.4259047,28.3853269 L25.4207633,28.3853269 L25.4556353,27.8723067 L25.1518469,27.9720047 L25.1370934,29.0326935 L25.4209869,28.9379133 C25.4261283,28.7537178 25.4357404,28.5444861 25.4706124,28.4101396 L25.4706124,28.4101396 Z M26.7856876,28.5245912 C27.0293442,28.4450116 27.1388779,28.1562002 27.1288187,28.1211047 C27.1241244,28.111269 27.1192065,28.1061277 27.1091473,28.1061277 C27.0890289,28.1161869 27.0445448,28.2804875 26.9048334,28.3251951 C26.8449252,28.3453135 26.7903819,28.3301129 26.7756283,28.2905467 C26.7555099,28.2306384 26.770487,28.1262461 26.770487,28.0363837 L26.7805462,27.5582356 L27.1140652,27.4487018 L27.1093709,27.3340267 L26.7758519,27.4435605 L26.7906054,26.9904485 L26.4919584,27.1598905 L26.4767578,28.1707302 C26.4767578,28.2802639 26.4671456,28.3748206 26.486817,28.4248931 C26.5263833,28.5545453 26.6609532,28.5695223 26.7856876,28.5245912 L26.7856876,28.5245912 Z" id="Shape" fill="#000000"></path>
                </g>
            </g>
        </g>
    </g>
</svg>