<?xml version="1.0" encoding="UTF-8"?>
<svg width="248px" height="251px" viewBox="0 0 248 251" version="1.1" xmlns="http://www.w3.org/2000/svg" xmlns:xlink="http://www.w3.org/1999/xlink">
    <!-- Generator: Sketch 46.2 (44496) - http://www.bohemiancoding.com/sketch -->
    <title>snorkelling-habicat</title>
    <desc>Created with Sketch.</desc>
    <defs>
        <path d="M0.639876107,16.8908644 C10.9471092,17.0897121 15.7376381,11.2556727 18.930933,3.78803181 C22.1242278,-3.67960904 30.6347927,0.943746955 26.9880781,8.5779741 C23.3413635,16.2122012 14.208232,26.4566712 0.639876107,26.2924312 C0.639876107,16.8908644 0.639876107,23.9396932 0.639876107,16.8908644 Z" id="path-1"></path>
    </defs>
    <g id="Habitat-SaaS-Onboarding/desktop" stroke="none" stroke-width="1" fill="none" fill-rule="evenodd">
        <g id="Habitat-5-mins-flow-V2---cover" transform="translate(-936.000000, -54.000000)">
            <g id="snorkelling-habicat" transform="translate(1037.345214, 149.250575) rotate(-37.000000) translate(-1037.345214, -149.250575) translate(951.845214, 19.250575)">
                <circle id="Oval-5-Copy-5" fill="#627B8F" cx="30.1162109" cy="53.1162109" r="4.11621094"></circle>
                <circle id="Oval-5-Copy-6" fill="#627B8F" cx="40.4833984" cy="37.4833984" r="3.48339844"></circle>
                <circle id="Oval-5-Copy-7" fill="#627B8F" cx="53.4833984" cy="30.4833984" r="3.48339844"></circle>
                <circle id="Oval-5-Copy-8" fill="#627B8F" cx="40.4833984" cy="27.4833984" r="3.48339844"></circle>
                <circle id="Oval-5-Copy-9" fill="#627B8F" cx="69.5996094" cy="2.59960938" r="2.59960938"></circle>
                <g id="Group-24-Copy" transform="translate(19.000000, 67.000000)">
                    <path d="M68.2891092,15.6012921 C58.3455504,16.9990918 54.7303957,28.6108598 54.7303957,33.8219604" id="Path-3" stroke="#DEBFA5"></path>
                    <path d="M11.8672498,79.8505422 C9.20929642,79.8505422 7.05601777,77.7042226 7.05601777,75.0548593 L7.05601777,57.3309545 L16.6784817,57.3309545 L16.6784817,75.0548593 C16.6784817,77.7042226 14.5252031,79.8505422 11.8672498,79.8505422 Z" id="Shape-Copy-3" fill="#DDC7AE" fill-rule="nonzero" transform="translate(11.867250, 68.590748) rotate(-220.000000) translate(-11.867250, -68.590748) "></path>
                    <rect id="Rectangle-6" fill="#DDC7AE" x="14.3814353" y="32.3256167" width="94.3562015" height="78.455826" rx="6"></rect>
                    <path d="M20.3814353,88.7866361 L108.737637,88.7866361 L108.737637,105.306224 L108.737637,105.306224 C108.737637,108.619932 106.051345,111.306224 102.737637,111.306224 L20.3814353,111.306224 L20.3814353,111.306224 C17.0677268,111.306224 14.3814353,108.619932 14.3814353,105.306224 L14.3814353,94.7866361 L14.3814353,94.7866361 C14.3814353,91.4729276 17.0677268,88.7866361 20.3814353,88.7866361 Z" id="Rectangle-6" fill="#A2BD7C"></path>
                    <rect id="Rectangle-6-Copy" fill="#FFE9D1" x="14.3814353" y="35.9295115" width="76.7054156" height="74.2937641" rx="4"></rect>
                    <ellipse id="Oval-Copy" fill="#837365" fill-rule="nonzero" cx="34.4700757" cy="54.8101665" rx="2.0691662" ry="2.06247899"></ellipse>
                    <ellipse id="Oval-Copy-2" fill="#837365" fill-rule="nonzero" cx="70.5090243" cy="54.8101665" rx="2.0691662" ry="2.06247899"></ellipse>
                    <path d="M56.896543,64.7779622 L55.7440957,65.7085218 C54.0154247,67.1486738 50.9102195,67.3259232 48.8294119,66.1294893 C48.6053249,65.9965522 48.4132504,65.8636151 48.2211758,65.7085218 L47.0687285,64.7779622 C46.6845794,64.4677756 46.7486043,64.0024957 47.1967782,63.7366215 C47.3888528,63.6258406 47.6449522,63.5593721 47.9010516,63.5593721 L56.06422,63.5593721 C56.672456,63.5593721 57.1526424,63.8917148 57.1526424,64.3126823 C57.1526424,64.4677756 57.0566051,64.6450251 56.896543,64.7779622 Z" id="Shape-Copy-4" fill="#837365" fill-rule="nonzero"></path>
                    <path d="M16.7840318,64.7606704 L20.3879267,64.7606704" id="Line-6" stroke="#827365" stroke-linecap="round" stroke-linejoin="round"></path>
                    <path d="M84.2842333,65.2006649 L87.8881281,65.2006649" id="Line-6-Copy-3" stroke="#827365" stroke-linecap="round" stroke-linejoin="round"></path>
                    <path d="M16.7840318,59.9554772 L20.3879267,59.9554772" id="Line-6-Copy" stroke="#827365" stroke-linecap="round" stroke-linejoin="round"></path>
                    <path d="M84.2842333,59.7948227 L87.8881281,59.7948227" id="Line-6-Copy-4" stroke="#827365" stroke-linecap="round" stroke-linejoin="round"></path>
                    <path d="M16.7840318,70.7671618 L20.3879267,70.7671618" id="Line-6-Copy-2" stroke="#827365" stroke-linecap="round" stroke-linejoin="round"></path>
                    <path d="M84.2842333,70.6065072 L87.8881281,70.6065072" id="Line-6-Copy-5" stroke="#827365" stroke-linecap="round" stroke-linejoin="round"></path>
                    <g id="Group-2" transform="translate(61.232068, 21.736701)">
                        <path d="M11.8782021,2.30207728 L17.7116829,12.5106686 L0.835262525,12.5106686 L6.6687433,2.30207728 L6.6687433,2.30207728 C7.4907732,0.863524942 9.3233372,0.363734762 10.7618895,1.18576467 C11.2269834,1.45153257 11.6124342,1.83698345 11.8782021,2.30207728 Z" id="Triangle-Copy-4" fill="#DDC7AE"></path>
                        <path d="M10.1417159,8.43263431 L12.4720212,12.5106686 L6.07492426,12.5106686 L8.40522958,8.43263431 L8.40522958,8.43263431 C8.67923955,7.95311687 9.29009421,7.78652014 9.76961166,8.06053011 C9.92464294,8.14911941 10.0531266,8.27760304 10.1417159,8.43263431 Z" id="Triangle-Copy-5" fill="#827365"></path>
                    </g>
                    <g id="Group-2-Copy" transform="translate(26.394418, 21.736701)">
                        <path d="M11.8782021,2.30207728 L17.7116829,12.5106686 L0.835262525,12.5106686 L6.6687433,2.30207728 L6.6687433,2.30207728 C7.4907732,0.863524942 9.3233372,0.363734762 10.7618895,1.18576467 C11.2269834,1.45153257 11.6124342,1.83698345 11.8782021,2.30207728 Z" id="Triangle-Copy-4" fill="#DDC7AE"></path>
                        <path d="M10.1417159,8.43263431 L12.4720212,12.5106686 L6.07492426,12.5106686 L8.40522958,8.43263431 L8.40522958,8.43263431 C8.67923955,7.95311687 9.29009421,7.78652014 9.76961166,8.06053011 C9.92464294,8.14911941 10.0531266,8.27760304 10.1417159,8.43263431 Z" id="Triangle-Copy-5" fill="#827365"></path>
                    </g>
                    <path d="M108.722578,92.4632193 C119.029811,92.662067 123.82034,86.8280276 127.013634,79.3603867 C130.206929,71.8927459 138.717494,76.5161019 135.07078,84.150329 C131.424065,91.7845562 122.290934,102.029026 108.722578,101.864786 C108.722578,92.4632193 108.722578,99.5120482 108.722578,92.4632193 Z" id="Path-2" fill="#DDC7AE"></path>
                    <g id="Rectangle-3-Copy-2" transform="translate(108.082702, 75.572355)">
                        <mask id="mask-2" fill="white">
                            <use xlink:href="#path-1"></use>
                        </mask>
                        <use id="Mask" fill="#DDC7AE" xlink:href="#path-1"></use>
                        <rect fill-opacity="0.1" fill="#000000" mask="url(#mask-2)" transform="translate(2.702355, 21.363455) rotate(-90.000000) translate(-2.702355, -21.363455) " x="-2.37482941" y="19.3009765" width="10.154369" height="4.12495799"></rect>
                    </g>
                    <path d="M113.472794,77.8566059 C110.814841,77.8566059 108.661562,75.7102863 108.661562,73.0609231 L108.661562,55.3370182 L118.284026,55.3370182 L118.284026,73.0609231 C118.284026,75.7102863 116.130747,77.8566059 113.472794,77.8566059 Z" id="Shape-Copy-6" fill="#DDC7AE" fill-rule="nonzero" transform="translate(113.472794, 66.596812) rotate(-125.000000) translate(-113.472794, -66.596812) "></path>
                    <g id="Group-28" transform="translate(59.207352, 5.897054)">
                        <g id="Group-27" fill="#FF9012">
                            <g id="Group-25" transform="translate(2.925690, 2.702921)">
                                <ellipse id="Oval-2" transform="translate(9.910711, 6.306816) rotate(-270.000000) translate(-9.910711, -6.306816) " cx="9.91071085" cy="6.306816" rx="1.80194743" ry="2.70292114"></ellipse>
                                <ellipse id="Oval-2" cx="6.306816" cy="2.70292114" rx="1.80194743" ry="2.70292114"></ellipse>
                                <ellipse id="Oval-2" transform="translate(2.702921, 6.306816) rotate(-90.000000) translate(-2.702921, -6.306816) " cx="2.70292114" cy="6.306816" rx="1.80194743" ry="2.70292114"></ellipse>
                                <ellipse id="Oval-2" transform="translate(6.306816, 9.910711) rotate(-180.000000) translate(-6.306816, -9.910711) " cx="6.306816" cy="9.91071085" rx="1.80194743" ry="2.70292114"></ellipse>
                            </g>
                            <g id="Group-25" transform="translate(9.232506, 9.282941) rotate(45.000000) translate(-9.232506, -9.282941) translate(2.732506, 2.782941)">
                                <ellipse id="Oval-2" transform="translate(9.910711, 6.306816) rotate(-270.000000) translate(-9.910711, -6.306816) " cx="9.91071085" cy="6.306816" rx="1.80194743" ry="2.70292114"></ellipse>
                                <ellipse id="Oval-2" cx="6.306816" cy="2.70292114" rx="1.80194743" ry="2.70292114"></ellipse>
                                <ellipse id="Oval-2" transform="translate(2.702921, 6.306816) rotate(-90.000000) translate(-2.702921, -6.306816) " cx="2.70292114" cy="6.306816" rx="1.80194743" ry="2.70292114"></ellipse>
                                <ellipse id="Oval-2" transform="translate(6.306816, 9.910711) rotate(-180.000000) translate(-6.306816, -9.910711) " cx="6.306816" cy="9.91071085" rx="1.80194743" ry="2.70292114"></ellipse>
                            </g>
                        </g>
                        <path d="M9.23250592,10.8116846 C8.23859454,10.8116846 7.43055849,10.003412 7.43055849,9.00964053 C7.43055849,8.01586908 8.23859454,7.20778971 9.23250592,7.20778971 C10.2262241,7.20778971 11.0344534,8.01586908 11.0344534,9.00964053 C11.0344534,10.003412 10.2262241,10.8116846 9.23250592,10.8116846" id="Fill-4" fill="#FFE48F"></path>
                    </g>
                    <path d="M21.1427597,142.815186 C20.7747317,142.529217 20.6064969,142.022827 20.7208192,141.550386 L25.7476735,114.90632 C25.9964289,113.92833 26.5645596,113.158156 27.35097,112.723867 C27.8016071,112.474201 28.2979576,112.347477 28.8257893,112.347477 C28.8459775,112.347477 28.8661656,112.347645 28.8868179,112.348066 C30.392809,112.377982 31.5892481,113.425385 31.9356956,115.016321 L36.2929369,141.858708 C36.3919441,142.336695 36.2070019,142.837118 35.8303881,143.107457 C35.6514791,143.235777 35.4437189,143.303593 35.2293839,143.303593 C34.9938553,143.303593 34.7695423,143.22334 34.5809647,143.07149 C34.5688982,143.061994 33.0132483,139.220096 31.7280895,139.194297 C30.407118,139.193877 29.132402,142.951909 29.118247,142.962245 C28.9387966,143.096868 28.7247711,143.169222 28.5024692,143.169222 C28.2668632,143.169222 28.0430143,143.089305 27.8551328,142.938044 C27.8446906,142.929808 26.4162381,139.338099 25.1415215,139.313225 C23.8383403,139.312805 22.44509,142.789639 22.3863819,142.831992 C22.2096387,142.964094 21.9969281,143.035859 21.7763279,143.035859 C21.5483021,143.035859 21.3292489,142.959556 21.1427597,142.815186 Z" id="Shape-Copy-7" fill="#627B8F" fill-rule="nonzero" transform="translate(28.502375, 127.825535) rotate(90.000000) translate(-28.502375, -127.825535) "></path>
                    <path d="M58.7140605,142.815186 C58.3460325,142.529217 58.1777977,142.022827 58.29212,141.550386 L63.3189743,114.90632 C63.5677297,113.92833 64.1358604,113.158156 64.9222708,112.723867 C65.3729079,112.474201 65.8692584,112.347477 66.3970901,112.347477 C66.4172783,112.347477 66.4374664,112.347645 66.4581187,112.348066 C67.9641097,112.377982 69.1605489,113.425385 69.5069964,115.016321 L73.8642377,141.858708 C73.9632449,142.336695 73.7783027,142.837118 73.4016889,143.107457 C73.2227799,143.235777 73.0150197,143.303593 72.8006847,143.303593 C72.5651561,143.303593 72.3408431,143.22334 72.1522655,143.07149 C72.140199,143.061994 70.5845491,139.220096 69.2993903,139.194297 C67.9784188,139.193877 66.7037027,142.951909 66.6895478,142.962245 C66.5100974,143.096868 66.2960719,143.169222 66.07377,143.169222 C65.838164,143.169222 65.6143151,143.089305 65.4264336,142.938044 C65.4159914,142.929808 63.9875389,139.338099 62.7128223,139.313225 C61.4096411,139.312805 60.0163908,142.789639 59.9576827,142.831992 C59.7809395,142.964094 59.5682289,143.035859 59.3476287,143.035859 C59.1196029,143.035859 58.9005497,142.959556 58.7140605,142.815186 Z" id="Shape-Copy-9" fill="#627B8F" fill-rule="nonzero" transform="translate(66.073676, 127.825535) rotate(90.000000) translate(-66.073676, -127.825535) "></path>
                    <path d="M14.3814353,88.7866361 L91.0868508,88.7866361 L91.0868508,107.306224 L91.0868508,107.306224 C91.0868508,109.515363 89.2959898,111.306224 87.0868508,111.306224 L18.3814353,111.306224 L18.3814353,111.306224 C16.1722963,111.306224 14.3814353,109.515363 14.3814353,107.306224 L14.3814353,88.7866361 Z" id="Rectangle-6-Copy" fill="#B9DA8D"></path>
                    <path d="M61.5334349,99.6150007 L59.48615,101.662286 C59.3949647,101.754847 59.2567129,101.782777 59.1367467,101.732871 C59.0167805,101.682965 58.9391291,101.56522 58.9404984,101.435294 L58.9404984,100.706304 C58.9404984,100.530313 58.7978293,100.387643 58.6218379,100.387643 L57.4999782,100.387643 C57.3239869,100.387643 57.1813177,100.530313 57.1813177,100.706304 L57.1813177,102.16865 C57.1813177,102.344642 57.3239869,102.487311 57.4999782,102.487311 L57.8753865,102.487311 C58.0053119,102.485941 58.1230568,102.563593 58.1729627,102.683559 C58.2228687,102.803525 58.1949395,102.941777 58.1023776,103.032962 L56.0550928,105.080247 C55.9324304,105.195557 55.7412339,105.195557 55.6185715,105.080247 L53.5712867,103.032962 C53.4787247,102.941777 53.4507956,102.803525 53.5007016,102.683559 C53.5506075,102.563593 53.6683524,102.485941 53.7982778,102.487311 L54.234799,102.487311 C54.4107904,102.487311 54.5534596,102.344642 54.5534596,102.16865 L54.5534596,100.72813 C54.5534596,100.552139 54.4107904,100.409469 54.234799,100.409469 L51.7815494,100.409469 C51.6055581,100.409469 51.4628889,100.552139 51.4628889,100.72813 L51.4628889,102.16865 C51.4628889,102.344642 51.6055581,102.487311 51.7815494,102.487311 L52.244262,102.487311 C52.3741874,102.485941 52.4919323,102.563593 52.5418382,102.683559 C52.5917441,102.803525 52.563815,102.941777 52.4712531,103.032962 L50.4239683,105.080247 C50.3013059,105.195557 50.1101094,105.195557 49.987447,105.080247 L47.9401622,103.032962 C47.8476002,102.941777 47.8196711,102.803525 47.869577,102.683559 C47.919483,102.563593 48.0372278,102.485941 48.1671532,102.487311 L48.4989094,102.487311 C48.6749008,102.487311 48.81757,102.344642 48.81757,102.16865 L48.81757,100.706304 C48.81757,100.530313 48.6749008,100.387643 48.4989094,100.387643 L47.3945106,100.387643 C47.2185192,100.387643 47.07585,100.530313 47.07585,100.706304 L47.07585,101.426564 C47.0772194,101.556489 46.999568,101.674234 46.8796018,101.72414 C46.7596356,101.774046 46.6213838,101.746117 46.5301984,101.653555 L44.5003745,99.6150007 C44.385065,99.4923383 44.385065,99.3011418 44.5003745,99.1784794 L46.5476593,97.1311946 C46.6388447,97.0386327 46.7770965,97.0107036 46.8970627,97.0606095 C47.0170288,97.1105154 47.0946803,97.2282603 47.0933109,97.3581857 L47.0933109,98.0784458 C47.0933109,98.2544372 47.2359801,98.3971063 47.4119714,98.3971063 L48.4989094,98.3971063 C48.6749008,98.3971063 48.81757,98.2544372 48.81757,98.0784458 L48.81757,96.5942735 C48.81757,96.4182821 48.6749008,96.2756129 48.4989094,96.2756129 L48.1365968,96.2756129 C48.0066713,96.2769823 47.8889265,96.1993309 47.8390206,96.0793647 C47.7891146,95.9593985 47.8170437,95.8211467 47.9096057,95.7299613 L49.9568905,93.6826765 C50.0795529,93.5673671 50.2707494,93.5673671 50.3934118,93.6826765 L52.4276009,95.7255961 C52.5201629,95.8167815 52.548092,95.9550333 52.4981861,96.0749995 C52.4482801,96.1949657 52.3305353,96.2726171 52.2006099,96.2712477 L51.7378973,96.2712477 C51.561906,96.2712477 51.4192368,96.4139169 51.4192368,96.5899082 L51.4192368,98.021698 C51.4192368,98.1976894 51.561906,98.3403586 51.7378973,98.3403586 L54.1911469,98.3403586 C54.3671383,98.3403586 54.5098074,98.1976894 54.5098074,98.021698 L54.5098074,96.5899082 C54.5098074,96.4139169 54.3671383,96.2712477 54.1911469,96.2712477 L53.7546256,96.2712477 C53.6247002,96.2726171 53.5069554,96.1949657 53.4570494,96.0749995 C53.4071435,95.9550333 53.4350726,95.8167815 53.5276346,95.7255961 L55.5749194,93.6783113 C55.6975818,93.5630018 55.8887783,93.5630018 56.0114407,93.6783113 L58.1023776,95.7255961 C58.1949395,95.8167815 58.2228687,95.9550333 58.1729627,96.0749995 C58.1230568,96.1949657 58.0053119,96.2726171 57.8753865,96.2712477 L57.4999782,96.2712477 C57.3239869,96.2712477 57.1813177,96.4139169 57.1813177,96.5899082 L57.1813177,98.0522545 C57.1813177,98.2282459 57.3239869,98.3709151 57.4999782,98.3709151 L58.6218379,98.3709151 C58.7978293,98.3709151 58.9404984,98.2282459 58.9404984,98.0522545 L58.9404984,97.3363596 C58.9391291,97.2064342 59.0167805,97.0886894 59.1367467,97.0387834 C59.2567129,96.9888775 59.3949647,97.0168066 59.48615,97.1093686 L61.5334349,99.1784794 C61.6487443,99.3011418 61.6487443,99.4923383 61.5334349,99.6150007 L61.5334349,99.6150007 Z" id="Shape" fill="#FFFFFF" fill-rule="nonzero"></path>
                    <path d="M37.2121415,127.825535 C34.5541882,127.825535 32.4009095,125.679215 32.4009095,123.029852 L32.4009095,111.216949 L42.0233735,111.216949 L42.0233735,123.029852 C42.0233735,125.679215 39.8700949,127.825535 37.2121415,127.825535 Z" id="Shape" fill="#DDC7AE" fill-rule="nonzero"></path>
                    <path d="M74.7363198,127.825535 C72.0783665,127.825535 69.9250878,125.679215 69.9250878,123.029852 L69.9250878,111.149819 L79.5475518,111.149819 L79.5475518,123.029852 C79.5475518,125.679215 77.3942731,127.825535 74.7363198,127.825535 Z" id="Shape-Copy-2" fill="#DDC7AE" fill-rule="nonzero"></path>
                    <rect id="Rectangle-3" fill-opacity="0.1" fill="#000000" x="32.4009095" y="111.306224" width="9.62246397" height="3.60389486"></rect>
                    <rect id="Rectangle-3-Copy" fill-opacity="0.1" fill="#000000" x="69.9250878" y="111.306224" width="9.62246397" height="3.60389486"></rect>
                    <path d="M53.2782869,62.9294932 L53.2782869,62.9294932 L53.2782869,62.9294932 C60.344985,62.9294932 66.0736757,68.6581839 66.0736757,75.7248821 L66.0736757,88.7866361 L40.482898,88.7866361 L40.482898,75.7248821 L40.482898,75.7248821 C40.482898,68.6581839 46.2115887,62.9294932 53.2782869,62.9294932 Z" id="Rectangle-Copy-9" fill="#FFFFFF"></path>
                    <g id="Group-4" transform="translate(7.828236, 0.069432)" fill-rule="nonzero">
                        <path d="M0,3.58079216 L0,63.74246 C0,72.0701886 6.77614849,78.8463371 15.1038771,78.8463371 L30.2805274,78.8463371 C30.2544389,78.7268791 30.2077542,78.6142866 30.2077542,78.4865902 L30.2077542,70.9689786 C30.2077542,70.8412822 30.2544389,70.7286897 30.2805274,70.6092317 L15.1038771,70.6092317 C11.3182963,70.6092317 8.23847841,67.5294139 8.23847841,63.7438331 L8.23847841,3.58079216 L8.23847841,3.58079216 C8.23847841,1.92393791 6.89533266,0.580792162 5.23847841,0.580792162 L3,0.580792162 L3,0.580792162 C1.34314575,0.580792162 2.41183085e-16,1.92393791 4.4408921e-16,3.58079216 Z" id="Shape" fill="#627B8F"></path>
                        <path d="M3,0.580792162 L5.23847841,0.580792162 L5.23847841,0.580792162 C6.89533266,0.580792162 8.23847841,1.92393791 8.23847841,3.58079216 L8.23847841,12.9385098 L0,12.9385098 L0,3.58079216 L0,3.58079216 C-2.02906125e-16,1.92393791 1.34314575,0.580792162 3,0.580792162 Z" id="Rectangle-path" fill="#54C7F1"></path>
                        <path d="M47.6980438,80.2194168 L31.9405808,80.2194168 C30.9835442,80.2194168 30.2077542,79.4436268 30.2077542,78.4865902 L30.2077542,70.9689786 C30.2077542,70.010569 30.9835442,69.2347789 31.9405808,69.2347789 L47.6966708,69.2347789 C48.6550804,69.2347789 49.4308705,70.010569 49.4308705,70.9676055 L49.4308705,78.4852171 C49.4308705,79.4436268 48.6550804,80.2194168 47.6980438,80.2194168 Z" id="Shape" fill="#BDC3C7"></path>
                    </g>
                    <g id="Group-3" transform="translate(15.656472, 35.728841)" fill-rule="nonzero">
                        <path d="M70.1410054,14.2451019 L70.1326005,21.0167073 L70.1326005,25.2893919 C70.1816295,26.5977658 69.9967201,30.0157875 67.1852571,33.1228253 C64.2379137,36.378351 59.5731545,38.0299279 53.218996,38.0299279 C47.2724787,37.9192624 41.017779,35.8138171 37.6375796,31.5090708 C37.0534341,30.76383 35.9719944,30.76383 35.3864481,31.5090708 C32.0076495,35.8152179 25.7529499,37.9192624 19.8008292,38.0299279 C13.4480715,38.0299279 8.78751478,36.378351 5.84017142,33.1214245 C3.02870844,30.0143867 2.84519989,26.5963649 2.93625375,25.9001531 L2.93625375,17.4263836 C2.89282807,16.7707959 2.90123304,16.7315727 2.90123304,16.6895478 L2.90123304,14.2451019 C2.90123304,6.38085019 9.27780479,0.00427844243 17.1420565,0.00427844243 L22.7285609,0.00427844243 L50.2982684,0.00427844243 L55.900182,0.00427844243 C63.7644337,0.00427844243 70.1410054,6.38085019 70.1410054,14.2451019 Z M22.7285609,5.60759281 C19.704172,5.60759281 16.688188,6.31921373 14.0994568,7.88393927 C11.2977996,9.57614021 8.49614243,12.3777974 8.49614243,16.8142215 L8.49614243,25.4224706 C8.49614243,25.4224706 7.79572814,32.4266135 19.7027712,32.4266135 C19.7027712,32.4266135 32.3102285,32.1926751 32.3102285,24.021642 C32.3186335,21.700469 34.1999463,19.8191562 36.5211192,19.8191562 C38.8422922,19.8191562 40.723605,21.700469 40.723605,24.021642 C40.7152,32.1926751 53.3226574,32.4266135 53.3226574,32.4266135 C65.2297004,32.4266135 64.5292861,25.4224706 64.5292861,25.4224706 L64.5292861,16.8142215 C64.5292861,12.3777974 61.7276289,9.57614021 58.9259717,7.88393927 C56.3372405,6.31921373 53.3226574,5.60759281 50.2968676,5.60759281 L22.7285609,5.60759281 Z" id="Combined-Shape" fill="#FF9012"></path>
                        <rect id="Rectangle-path" fill="#BDC3C7" x="0.26374428" y="16.215446" width="2.63683418" height="5.60331437"></rect>
                    </g>
                </g>
            </g>
        </g>
    </g>
</svg>