<svg xmlns="http://www.w3.org/2000/svg" width="1090" height="622" viewBox="0 0 1090 622">
  <g fill="none" fill-rule="evenodd" transform="translate(163 103)">
    <g fill-rule="nonzero" opacity=".24">
      <path fill="#87B09A" d="M182.769882,422.327481 L15.4041406,256.006378 C-5.07223147,235.661107 -5.07223147,202.671715 15.4041406,182.326445 L182.769882,16.0053415 C203.242938,-4.33992893 236.439531,-4.33992893 256.909271,16.0053415 L424.278328,182.326445 C444.751384,202.671715 444.751384,235.661107 424.278328,256.006378 L256.909271,422.327481 C236.439531,442.672751 203.242938,442.672751 182.769882,422.327481"/>
      <path fill="#FFF" d="M347.937107,215.790361 L317.164519,185.209845 C314.140316,182.204518 308.964022,184.333291 308.964022,188.587542 L308.964022,199.323676 C308.964022,201.959928 306.815247,204.098587 304.162437,204.098587 L287.310466,204.098587 C284.657657,204.098587 282.508881,201.959928 282.508881,199.323676 L282.508881,177.479038 C282.508881,174.842786 284.657657,172.704127 287.310466,172.704127 L292.984162,172.704127 C297.261817,172.704127 299.410593,167.563437 296.379758,164.554815 L265.60717,133.974298 C263.736939,132.112446 260.69284,132.112446 258.815978,133.974298 L228.043389,164.554815 C225.015871,167.563437 227.16133,172.704127 231.438985,172.704127 L238.180437,172.704127 C240.833246,172.704127 242.978706,174.842786 242.978706,177.479038 L242.978706,198.905171 C242.978706,201.541423 240.833246,203.680082 238.180437,203.680082 L201.253331,203.680082 C198.600522,203.680082 196.451746,201.541423 196.451746,198.905171 L196.451746,177.479038 C196.451746,174.842786 198.600522,172.704127 201.253331,172.704127 L208.243484,172.704127 C212.521139,172.704127 214.669914,167.563437 211.63908,164.554815 L180.866491,133.974298 C178.989629,132.112446 175.948846,132.112446 174.071983,133.974298 L143.302711,164.554815 C140.275193,167.563437 142.417336,172.704127 146.698307,172.704127 L152.119986,172.704127 C154.772795,172.704127 156.924887,174.842786 156.924887,177.479038 L156.924887,199.323676 C156.924887,201.959928 154.772795,204.098587 152.119986,204.098587 L135.520031,204.098587 C132.863906,204.098587 130.718447,201.959928 130.718447,199.323676 L130.718447,188.587542 C130.718447,184.333291 125.538836,182.204518 122.51795,185.209845 L91.7453611,215.790361 C89.8684988,217.65551 89.8684988,220.677313 91.7453611,222.54246 L122.51795,253.119682 C125.538836,256.128304 130.718447,253.999531 130.718447,249.74528 L130.718447,239.005851 C130.718447,236.3696 132.863906,234.234236 135.520031,234.234236 L152.119986,234.234236 C154.772795,234.234236 156.924887,236.3696 156.924887,239.005851 L156.924887,260.853785 C156.924887,263.490036 154.772795,265.628695 152.119986,265.628695 L146.698307,265.628695 C142.417336,265.628695 140.271876,270.769385 143.302711,273.774712 L174.071983,304.355229 C175.94553,306.220377 178.986312,306.220377 180.866491,304.355229 L211.63908,273.774712 C214.666598,270.769385 212.521139,265.628695 208.243484,265.628695 L201.253331,265.628695 C198.600522,265.628695 196.451746,263.490036 196.451746,260.853785 L196.451746,239.335382 C196.451746,236.699131 198.600522,234.560472 201.253331,234.560472 L238.180437,234.560472 C240.833246,234.560472 242.978706,236.699131 242.978706,239.335382 L242.978706,260.853785 C242.978706,263.490036 240.833246,265.628695 238.180437,265.628695 L231.438985,265.628695 C227.16133,265.628695 225.012555,270.769385 228.043389,273.774712 L258.815978,304.355229 C260.689524,306.220377 263.733623,306.220377 265.60717,304.355229 L296.379758,273.774712 C299.407276,270.769385 297.261817,265.628695 292.984162,265.628695 L287.310466,265.628695 C284.657657,265.628695 282.508881,263.490036 282.508881,260.853785 L282.508881,239.005851 C282.508881,236.3696 284.657657,234.234236 287.310466,234.234236 L304.162437,234.234236 C306.815247,234.234236 308.964022,236.3696 308.964022,239.005851 L308.964022,249.74528 C308.964022,253.999531 314.140316,256.128304 317.164519,253.119682 L347.937107,222.54246 C349.81397,220.677313 349.81397,217.65551 347.937107,215.790361"/>
    </g>
    <g transform="translate(306.297 183.497)">
      <path fill="#4296B4" fill-rule="nonzero" d="M152.70129,78.8507661 L152.70129,254.726613 L141.687802,254.726613 L141.687802,86.5211855 C141.401737,69.6061935 136.910523,53.1205161 127.098507,40.2983226 L125.496545,38.2089919 C113.911914,22.3252684 95.4882451,12.8751645 75.8357285,12.7363306 L75.8357285,12.7363306 C56.1749679,13.1281604 37.8565762,22.7960918 26.4323701,38.8100323 C16.3665491,52.5296113 10.9895931,69.1303486 11.0993069,86.1491129 L11.0993069,243.020637 C10.9899115,247.525291 12.93801,251.834352 16.3915022,254.726613 L14.7609339,254.726613 C10.8536755,254.734211 7.10343222,253.188555 4.33521852,250.429672 C1.56700483,247.67079 0.00757954366,243.924675 3.55271368e-15,240.015435 L3.55271368e-15,78.4500726 C0.0296715867,60.6178917 6.38590109,43.3753562 17.9362511,29.7944274 C32.3121916,12.7971282 53.4093256,2.95447685 75.6640897,2.86209677 L75.6640897,2.86209677 C97.8982484,2.68844302 119.09516,12.2569882 133.677993,29.0502823 L135.537413,31.2254758 C146.69135,44.5797569 152.770439,61.4476466 152.70129,78.8507661 L152.70129,78.8507661 Z"/>
      <path fill="#80C4D6" fill-rule="nonzero" d="M141.687802,86.5211855 L141.687802,254.726613 L109.562746,254.726613 L109.562746,159.361548 C109.555186,156.502443 108.410764,153.763872 106.382054,151.750243 C104.353345,149.736613 101.607129,148.613467 98.7495039,148.628685 L51.8921205,148.628685 C49.034495,148.613467 46.2882796,149.736613 44.2595702,151.750243 C42.2308608,153.763872 41.0864379,156.502443 41.0788782,159.361548 L41.0788782,254.726613 L11.0134875,254.726613 L11.0134875,86.1777339 C10.9037737,69.1589695 16.2807297,52.5582322 26.3465507,38.8386532 C37.7707568,22.8247127 56.0891485,13.1567813 75.7499091,12.7649516 L75.7499091,12.7649516 C95.4024258,12.9037855 113.826095,22.3538894 125.410726,38.2376129 L127.012687,40.3269435 C136.910523,53.1205161 141.401737,69.6061935 141.687802,86.5211855 Z"/>
      <path fill="#E2F0F7" fill-rule="nonzero" d="M109.44832 254.726613L109.44832 159.361548C109.440761 156.502443 108.296338 153.763872 106.267628 151.750243 104.238919 149.736613 101.492704 148.613467 98.635078 148.628685L51.7776947 148.628685C48.9200691 148.613467 46.1738538 149.736613 44.1451443 151.750243 42.1164349 153.763872 40.9720121 156.502443 40.9644524 159.361548L40.9644524 254.726613 109.44832 254.726613zM338.986565 254.726613L152.70129 254.726613 152.70129 78.7076613 354.720118 78.7076613 354.720118 238.985081C354.735392 243.164661 353.08266 247.177466 350.128729 250.132895 347.174798 253.088325 343.164026 254.741895 338.986565 254.726613L338.986565 254.726613z"/>
      <path fill="#EEFAFF" fill-rule="nonzero" d="M134.192909,29.5654597 C146.069919,43.2171218 152.630792,60.6945575 152.672683,78.7935242 L354.691512,78.936629 C354.684059,60.7883821 348.121002,43.2543043 336.211738,29.5654597 L335.782641,29.0789032 C321.142501,12.1952424 299.821833,2.60759007 277.482673,2.86209677 L75.7785156,2.86209677 C98.0081069,2.7001538 119.195186,12.2794366 133.763812,29.0789032 L134.192909,29.5654597 Z"/>
      <path fill="#FFF" fill-rule="nonzero" d="M27.9199061 125.932258L29.1785904 124.100516C30.9346656 125.336222 33.0395247 125.978028 35.1859472 125.932258 37.3600383 125.932258 38.3898709 125.073629 38.3898709 124.014653 38.3898709 122.955677 37.8177416 122.411879 34.2705404 121.667734 30.7233393 120.923589 28.7780999 119.635645 28.7780999 117.517694 28.7780999 115.399742 30.894978 113.424895 34.8140632 113.424895 36.8555338 113.484142 38.8387637 114.119097 40.5353554 115.256637L39.2194582 117.031137C37.8280772 116.107663 36.1976621 115.610333 34.5279986 115.600089 32.382514 115.600089 31.6673525 116.401476 31.6673525 117.374589 31.6673525 118.347702 32.7830045 118.920121 35.5292247 119.49254 40.134865 120.494274 41.250517 121.667734 41.250517 123.842927 41.250517 126.018121 38.9333936 128.107452 34.7854567 128.107452 32.333769 128.068525 29.9471024 127.312364 27.9199061 125.932258L27.9199061 125.932258zM49.0028679 122.097048L49.0028679 115.914919 45.1409957 115.914919 45.1409957 113.768347 49.1172938 113.768347 49.4891778 109.332097 51.8635141 109.332097 51.8635141 113.625242 58.5288195 113.625242 58.5288195 115.914919 51.8635141 115.914919 51.8635141 122.097048C51.8635141 124.50121 52.6931014 125.674669 55.2676829 125.674669 56.3734648 125.680399 57.4703192 125.476456 58.500213 125.073629L59.0723423 127.16296C57.641604 127.683627 56.1321466 127.954693 54.6097343 127.964347 50.433191 127.992968 49.0028679 125.617427 49.0028679 122.097048zM62.7053628 122.326016L62.7053628 113.739726 65.5660089 113.739726 65.5660089 122.039806C65.5660089 124.50121 66.3669899 125.646048 68.4266551 125.646048 70.0421472 125.56518 71.5161872 124.699543 72.3743467 123.32775L72.3743467 113.625242 75.2349928 113.625242 75.2349928 127.649516 72.889263 127.649516 72.6604113 125.331218 72.6604113 125.331218C71.4519997 126.942352 69.5804651 127.920672 67.5684612 127.992968 64.2215053 127.992968 62.7053628 125.932258 62.7053628 122.326016zM79.525962 120.637379C79.3600828 118.821386 79.9351482 117.015443 81.1204168 115.630131 82.3056854 114.24482 84.0004421 113.397854 85.8193834 113.28179 87.3474349 113.280217 88.8078025 113.912328 89.8528944 115.027669L89.8528944 115.027669 89.7098621 112.537645 89.7098621 107.328629 92.5705083 107.328629 92.5705083 127.649516 90.2247784 127.649516 90.1103526 125.932258 90.1103526 125.932258C88.9570875 127.154461 87.3818486 127.89131 85.7049576 127.992968 81.9289047 127.992968 79.525962 125.302597 79.525962 120.637379zM89.824288 123.728444L89.824288 117.088379C88.9465802 116.180159 87.7400077 115.664269 86.477332 115.657331 84.2746345 115.657331 82.4724275 117.574935 82.4724275 120.608758 82.4724275 123.642581 83.8741441 125.617427 86.2770868 125.617427 87.6779334 125.558782 88.9791408 124.876351 89.824288 123.757065L89.824288 123.728444zM104.041699 115.914919L97.7196713 115.914919 97.7196713 113.625242 106.902345 113.625242 106.902345 127.649516 104.041699 127.649516 104.041699 115.914919zM102.98326 108.759677C102.936439 107.882565 103.428444 107.065409 104.225313 106.696794 105.022181 106.328178 105.963111 106.482486 106.600661 107.08634 107.23821 107.690193 107.443728 108.621739 107.119483 109.437998 106.795238 110.254257 106.006661 110.790516 105.128745 110.791766 104.570537 110.823281 104.024031 110.623182 103.618012 110.238622 103.211993 109.854063 102.982372 109.319056 102.98326 108.759677zM114.111173 120.637379C114.267621 116.79003 117.484153 113.782061 121.331348 113.885368 125.178543 113.988674 128.229182 117.164932 128.179141 121.015139 128.129099 124.865346 124.996942 127.961164 121.148363 127.964347 119.223611 127.990891 117.374027 127.217722 116.040271 125.829045 114.706516 124.440367 114.008011 122.560522 114.111173 120.637379zM125.239087 120.637379C125.239087 117.632177 123.665732 115.62871 121.148363 115.62871 118.630994 115.62871 117.057639 117.632177 117.057639 120.637379 117.057639 123.642581 118.630994 125.646048 121.148363 125.646048 123.665732 125.646048 125.267693 123.671202 125.267693 120.637379L125.239087 120.637379z"/>
      <path fill="#87AF9A" fill-rule="nonzero" d="M92.3130501,254.726613 C91.2182021,254.726725 90.3262385,253.847058 90.3105978,252.751766 L90.3105978,232.717089 C90.3105978,231.610604 91.2071262,230.713621 92.3130501,230.713621 C93.418974,230.713621 94.3155024,231.610604 94.3155024,232.717089 L94.3155024,252.751766 C94.2998617,253.847058 93.4078981,254.726725 92.3130501,254.726613 L92.3130501,254.726613 Z"/>
      <path fill="#759684" d="M75.2063863,222.842855 C78.7176141,220.691811 83.1377431,220.691811 86.6489708,222.842855 C90.3108406,224.786825 92.5349318,228.658706 92.370263,232.802952 C88.8590353,234.953996 84.4389063,234.953996 80.9276786,232.802952 C77.2658088,230.858982 75.0417176,226.9871 75.2063863,222.842855 L75.2063863,222.842855 Z"/>
      <path fill="#87AF9A" d="M75.2063863,222.842855 C78.7176141,220.691811 83.1377431,220.691811 86.6489708,222.842855 C90.3108406,224.786825 92.5349318,228.658706 92.370263,232.802952 L75.2063863,222.842855 Z"/>
      <path fill="#759684" d="M109.505533,222.842855 C105.994306,220.691811 101.574177,220.691811 98.0629488,222.842855 C94.401079,224.786825 92.1769878,228.658706 92.3416566,232.802952 C95.8528843,234.953996 100.273013,234.953996 103.784241,232.802952 C107.446111,230.858982 109.670202,226.9871 109.505533,222.842855 L109.505533,222.842855 Z"/>
      <path fill="#87AF9A" d="M109.505533,222.842855 C105.994306,220.691811 101.574177,220.691811 98.0629488,222.842855 C94.401079,224.786825 92.1769878,228.658706 92.3416566,232.802952 L109.505533,222.842855 Z"/>
      <g opacity=".42" transform="translate(168.778 203.209)">
        <path fill="#87AF9A" fill-rule="nonzero" d="M50.6906491,51.5177419 C49.5958012,51.5178537 48.7038375,50.6381866 48.6881969,49.5428952 L48.6881969,29.5082177 C48.6881969,28.4017331 49.5847253,27.50475 50.6906491,27.50475 C51.796573,27.50475 52.6931014,28.4017331 52.6931014,29.5082177 L52.6931014,49.5428952 C52.6774607,50.6381866 51.7854971,51.5178537 50.6906491,51.5177419 Z"/>
        <path fill="#759684" d="M33.5839854,19.6339839 C37.0952131,17.4829396 41.5153421,17.4829396 45.0265698,19.6339839 C48.6884396,21.577954 50.9125309,25.4498352 50.7478621,29.5940806 C47.2366344,31.7451249 42.8165053,31.7451249 39.3052776,29.5940806 C35.6434078,27.6501105 33.4193166,23.7782293 33.5839854,19.6339839 L33.5839854,19.6339839 Z"/>
        <path fill="#87AF9A" d="M33.5839854,19.6339839 C37.0952131,17.4829396 41.5153421,17.4829396 45.0265698,19.6339839 C48.6884396,21.577954 50.9125309,25.4498352 50.7478621,29.5940806 L33.5839854,19.6339839 Z"/>
        <path fill="#759684" d="M67.8545258,19.6339839 C64.3432981,17.4829396 59.9231691,17.4829396 56.4119414,19.6339839 C52.7500716,21.577954 50.5259804,25.4498352 50.6906491,29.5940806 C54.2018769,31.7451249 58.6220059,31.7451249 62.1332336,29.5940806 C65.7951034,27.6501105 68.0191946,23.7782293 67.8545258,19.6339839 L67.8545258,19.6339839 Z"/>
        <path fill="#87AF9A" d="M67.8545258,19.6339839 C64.3432981,17.4829396 59.9231691,17.4829396 56.4119414,19.6339839 C52.7500716,21.577954 50.5259804,25.4498352 50.6906491,29.5940806 L67.8545258,19.6339839 Z"/>
        <path fill="#87AF9A" fill-rule="nonzero" d="M26.6898282,51.5177419 C25.5949803,51.5178537 24.7030166,50.6381866 24.687376,49.5428952 L24.687376,18.63225 C24.687376,17.5257653 25.5839044,16.6287823 26.6898282,16.6287823 C27.7957521,16.6287823 28.6922805,17.5257653 28.6922805,18.63225 L28.6922805,49.4570323 C28.7077419,49.9982321 28.5036154,50.5226524 28.1263939,50.9108484 C27.7491724,51.2990444 27.2309746,51.517963 26.6898282,51.5177419 L26.6898282,51.5177419 Z"/>
        <path fill="#759684" d="M0.200245228,3.26279032 C5.65540761,-0.0990685696 12.5383017,-0.0990685696 17.9934641,3.26279032 C23.5566094,6.35067662 26.8839562,12.3318413 26.5754024,18.6894919 C21.12024,22.0513508 14.2373459,22.0513508 8.78218357,18.6894919 C3.21903826,15.6016056 -0.108308537,9.620441 0.200245228,3.26279032 L0.200245228,3.26279032 Z"/>
        <path fill="#87AF9A" d="M0.200245228,3.26279032 C5.65540761,-0.0990685696 12.5383017,-0.0990685696 17.9934641,3.26279032 C23.5566094,6.35067662 26.8839562,12.3318413 26.5754024,18.6894919 L0.200245228,3.26279032 Z"/>
        <path fill="#759684" d="M53.2652306,3.26279032 C47.8100683,-0.0990685696 40.9271742,-0.0990685696 35.4720118,3.26279032 C29.9088665,6.35067662 26.5815197,12.3318413 26.8900735,18.6894919 C32.3452359,22.0513508 39.2281299,22.0513508 44.6832923,18.6894919 C50.2464376,15.6016056 53.5737844,9.620441 53.2652306,3.26279032 L53.2652306,3.26279032 Z"/>
        <path fill="#87AF9A" d="M53.2652306,3.26279032 C47.8100683,-0.0990685696 40.9271742,-0.0990685696 35.4720118,3.26279032 C29.9088665,6.35067662 26.5815197,12.3318413 26.8900735,18.6894919 L53.2652306,3.26279032 Z"/>
        <path fill="#87AF9A" fill-rule="nonzero" d="M115.369858,51.5177419 C114.27501,51.5178537 113.383046,50.6381866 113.367406,49.5428952 L113.367406,29.5082177 C113.367406,28.4017331 114.263934,27.50475 115.369858,27.50475 C116.475782,27.50475 117.37231,28.4017331 117.37231,29.5082177 L117.37231,49.5428952 C117.356669,50.6381866 116.464706,51.5178537 115.369858,51.5177419 Z"/>
        <path fill="#759684" d="M98.263194,19.6339839 C101.774422,17.4829396 106.194551,17.4829396 109.705778,19.6339839 C113.367648,21.577954 115.591739,25.4498352 115.427071,29.5940806 C111.915843,31.7451249 107.495714,31.7451249 103.984486,29.5940806 C100.322616,27.6501105 98.0985252,23.7782293 98.263194,19.6339839 L98.263194,19.6339839 Z"/>
        <path fill="#87AF9A" d="M98.263194,19.6339839 C101.774422,17.4829396 106.194551,17.4829396 109.705778,19.6339839 C113.367648,21.577954 115.591739,25.4498352 115.427071,29.5940806 L98.263194,19.6339839 Z"/>
        <path fill="#759684" d="M132.533734,19.6339839 C129.022507,17.4829396 124.602378,17.4829396 121.09115,19.6339839 C117.42928,21.577954 115.205189,25.4498352 115.369858,29.5940806 C118.881086,31.7451249 123.301215,31.7451249 126.812442,29.5940806 C130.474312,27.6501105 132.698403,23.7782293 132.533734,19.6339839 L132.533734,19.6339839 Z"/>
        <path fill="#87AF9A" d="M132.533734,19.6339839 C129.022507,17.4829396 124.602378,17.4829396 121.09115,19.6339839 C117.42928,21.577954 115.205189,25.4498352 115.369858,29.5940806 L132.533734,19.6339839 Z"/>
        <path fill="#87AF9A" fill-rule="nonzero" d="M86.3629062,51.5177419 C85.2680582,51.5178537 84.3760946,50.6381866 84.3604539,49.5428952 L84.3604539,18.63225 C84.3604539,17.5257653 85.2569823,16.6287823 86.3629062,16.6287823 C87.46883,16.6287823 88.3653585,17.5257653 88.3653585,18.63225 L88.3653585,49.4570323 C88.3808198,49.9982321 88.1766933,50.5226524 87.7994718,50.9108484 C87.4222503,51.2990444 86.9040526,51.517963 86.3629062,51.5177419 L86.3629062,51.5177419 Z"/>
        <path fill="#759684" d="M59.8733232,3.26279032 C65.3284855,-0.0990685696 72.2113796,-0.0990685696 77.666542,3.26279032 C83.2296873,6.35067662 86.5570341,12.3318413 86.2484803,18.6894919 C80.793318,22.0513508 73.9104239,22.0513508 68.4552615,18.6894919 C62.8921162,15.6016056 59.5647694,9.620441 59.8733232,3.26279032 L59.8733232,3.26279032 Z"/>
        <path fill="#87AF9A" d="M59.8733232,3.26279032 C65.3284855,-0.0990685696 72.2113796,-0.0990685696 77.666542,3.26279032 C83.2296873,6.35067662 86.5570341,12.3318413 86.2484803,18.6894919 L59.8733232,3.26279032 Z"/>
        <path fill="#759684" d="M112.938309,3.26279032 C107.483146,-0.0990685696 100.600252,-0.0990685696 95.1450898,3.26279032 C89.5819444,6.35067662 86.2545977,12.3318413 86.5631514,18.6894919 C92.0183138,22.0513508 98.9012079,22.0513508 104.35637,18.6894919 C109.919516,15.6016056 113.246862,9.620441 112.938309,3.26279032 L112.938309,3.26279032 Z"/>
        <path fill="#87AF9A" d="M112.938309,3.26279032 C107.483146,-0.0990685696 100.600252,-0.0990685696 95.1450898,3.26279032 C89.5819444,6.35067662 86.2545977,12.3318413 86.5631514,18.6894919 L112.938309,3.26279032 Z"/>
      </g>
    </g>
    <g fill-rule="nonzero" transform="translate(519.415 224.998)">
      <path fill="#87B09A" d="M33.319006,75.9085341 L2.96494661,46.0142182 C-0.748722691,42.3573885 -0.748722691,36.4279227 2.96494661,32.771093 L33.319006,2.87677708 C37.032074,-0.780052586 43.0527287,-0.780052586 46.7651952,2.87677708 L77.1198561,32.771093 C80.8329239,36.4279227 80.8329239,42.3573885 77.1198561,46.0142182 L46.7651952,75.9085341 C43.0527287,79.5653638 37.032074,79.5653638 33.319006,75.9085341"/>
      <path fill="#FFF" d="M63.2743346,38.7858493 L57.6933061,33.2893512 C57.1448257,32.7491781 56.2060342,33.1318007 56.2060342,33.8964536 L56.2060342,35.8261509 C56.2060342,36.299987 55.8163245,36.6843865 55.3352013,36.6843865 L52.2788665,36.6843865 C51.7977434,36.6843865 51.4080337,36.299987 51.4080337,35.8261509 L51.4080337,31.899827 C51.4080337,31.4259909 51.7977434,31.0415915 52.2788665,31.0415915 L53.3078687,31.0415915 C54.0836797,31.0415915 54.4733895,30.1176112 53.9237063,29.5768458 L48.3426778,24.0803477 C48.0034859,23.745701 47.4513971,23.745701 47.1110025,24.0803477 L41.529974,29.5768458 C40.9808922,30.1176112 41.3700005,31.0415915 42.1458116,31.0415915 L43.3684659,31.0415915 C43.8495889,31.0415915 44.2386973,31.4259909 44.2386973,31.899827 L44.2386973,35.7509294 C44.2386973,36.2247655 43.8495889,36.609165 43.3684659,36.609165 L36.6712316,36.609165 C36.1901084,36.609165 35.8003987,36.2247655 35.8003987,35.7509294 L35.8003987,31.899827 C35.8003987,31.4259909 36.1901084,31.0415915 36.6712316,31.0415915 L37.9389911,31.0415915 C38.7148022,31.0415915 39.1045119,30.1176112 38.5548287,29.5768458 L32.9738002,24.0803477 C32.6334056,23.745701 32.0819181,23.745701 31.7415236,24.0803477 L26.1610964,29.5768458 C25.6120147,30.1176112 26.0005216,31.0415915 26.776934,31.0415915 L27.7602294,31.0415915 C28.2413526,31.0415915 28.6316638,31.4259909 28.6316638,31.899827 L28.6316638,35.8261509 C28.6316638,36.299987 28.2413526,36.6843865 27.7602294,36.6843865 L24.7496013,36.6843865 C24.2678768,36.6843865 23.8787685,36.299987 23.8787685,35.8261509 L23.8787685,33.8964536 C23.8787685,33.1318007 22.9393755,32.7491781 22.3914965,33.2893512 L16.810468,38.7858493 C16.4700734,39.1210883 16.4700734,39.6642229 16.810468,39.9994618 L22.3914965,45.4953676 C22.9393755,46.036133 23.8787685,45.6535105 23.8787685,44.8888576 L23.8787685,42.9585679 C23.8787685,42.484732 24.2678768,42.1009247 24.7496013,42.1009247 L27.7602294,42.1009247 C28.2413526,42.1009247 28.6316638,42.484732 28.6316638,42.9585679 L28.6316638,46.8854842 C28.6316638,47.3593202 28.2413526,47.7437197 27.7602294,47.7437197 L26.776934,47.7437197 C26.0005216,47.7437197 25.6114132,48.6677 26.1610964,49.2078731 L31.7415236,54.7043711 C32.0813168,55.0396102 32.6328041,55.0396102 32.9738002,54.7043711 L38.5548287,49.2078731 C39.1039105,48.6677 38.7148022,47.7437197 37.9389911,47.7437197 L36.6712316,47.7437197 C36.1901084,47.7437197 35.8003987,47.3593202 35.8003987,46.8854842 L35.8003987,43.0177975 C35.8003987,42.5439614 36.1901084,42.1595619 36.6712316,42.1595619 L43.3684659,42.1595619 C43.8495889,42.1595619 44.2386973,42.5439614 44.2386973,43.0177975 L44.2386973,46.8854842 C44.2386973,47.3593202 43.8495889,47.7437197 43.3684659,47.7437197 L42.1458116,47.7437197 C41.3700005,47.7437197 40.9802908,48.6677 41.529974,49.2078731 L47.1110025,54.7043711 C47.4507958,55.0396102 48.0028846,55.0396102 48.3426778,54.7043711 L53.9237063,49.2078731 C54.4727881,48.6677 54.0836797,47.7437197 53.3078687,47.7437197 L52.2788665,47.7437197 C51.7977434,47.7437197 51.4080337,47.3593202 51.4080337,46.8854842 L51.4080337,42.9585679 C51.4080337,42.484732 51.7977434,42.1009247 52.2788665,42.1009247 L55.3352013,42.1009247 C55.8163245,42.1009247 56.2060342,42.484732 56.2060342,42.9585679 L56.2060342,44.8888576 C56.2060342,45.6535105 57.1448257,46.036133 57.6933061,45.4953676 L63.2743346,39.9994618 C63.6147293,39.6642229 63.6147293,39.1210883 63.2743346,38.7858493"/>
    </g>
    <g transform="translate(565.185 332.326)">
      <rect width="20.467" height="19.046" x="40.11" y="49.523" fill="#099CEC" fill-rule="nonzero"/>
      <rect width="20.467" height="19.046" x="15.915" y="49.523" fill="#099CEC" fill-rule="nonzero"/>
      <rect width="20.467" height="19.046" x="64.291" y="49.523" fill="#099CEC" fill-rule="nonzero"/>
      <rect width="20.467" height="19.046" x="88.486" y="49.523" fill="#099CEC" fill-rule="nonzero"/>
      <rect width="20.467" height="19.046" x="112.681" y="49.523" fill="#099CEC" fill-rule="nonzero"/>
      <rect width="20.467" height="19.046" x="40.11" y="26.662" fill="#099CEC" fill-rule="nonzero"/>
      <rect width="20.467" height="19.046" x="64.291" y="26.662" fill="#099CEC" fill-rule="nonzero"/>
      <rect width="20.467" height="19.046" x="88.486" y="26.662" fill="#099CEC" fill-rule="nonzero"/>
      <rect width="20.467" height="19.046" x="88.486" y="3.815" fill="#099CEC" fill-rule="nonzero"/>
      <path fill="#099CEC" fill-rule="nonzero" d="M194.124447,55.3930992 C189.929169,52.4932318 178.883896,51.2685305 170.864726,53.4786236 C170.438321,45.2998712 166.311818,38.4021283 158.774073,32.3630839 L156.023071,30.4486083 L154.166145,33.2640136 C150.496748,39.3066947 148.845748,46.4061916 149.461932,53.4927006 C149.826905,58.0123748 151.439248,62.332876 154.111124,65.9508693 C151.979098,67.6401124 145.362939,70.9200592 136.435938,70.7511351 L3.36997729,70.7511351 C1.00411568,85.1378559 5.06184343,139.728565 66.6430202,139.728565 C112.364671,139.728565 149.929602,118.68341 167.137118,74.5378551 C172.804182,74.6363945 187.769632,75.5795552 195.046032,61.1224492 C195.224848,60.8831394 196.902959,57.2934978 196.902959,57.2934978 L194.124447,55.3930992 Z"/>
      <path fill="#FFF" fill-rule="nonzero" d="M82.7226263,137.405855 C49.2704435,147.808778 28.9818047,129.508643 17.5926569,119.809572 C29.47153,119.659124 41.2564048,117.631585 52.5303806,113.798682 C59.3270947,125.281226 70.1107331,133.712902 82.7226263,137.405855 Z"/>
      <path d="M82.7226263,137.405855 C49.2704435,147.808778 28.9818047,129.508643 17.5926569,119.809572 C29.47153,119.659124 41.2564048,117.631585 52.5303806,113.798682 C59.3270947,125.281226 70.1107331,133.712902 82.7226263,137.405855 Z"/>
      <path fill="#026FB6" fill-rule="nonzero" d="M50.8385145,110.44835 C43.2933179,114.837571 34.7583968,117.132865 26.0794977,117.106783 C21.6389715,117.111814 17.2173225,116.515401 12.9297088,115.333078 L15.5844256,119.908112 C28.2531159,122.457625 41.3950237,120.290915 52.6404207,113.798682 C51.9939353,112.700674 51.3887149,111.588589 50.8385145,110.44835 Z"/>
      <ellipse cx="64.992" cy="101.298" fill="#FFF" fill-rule="nonzero" rx="6.465" ry="6.673"/>
      <path fill="#4D5C64" fill-rule="nonzero" d="M65.9690246,99.4260379 C65.9764699,98.8446923 66.2454453,98.2993409 66.6980404,97.9479504 C66.1824482,97.6612438 65.6066464,97.5066779 65.0199292,97.4974856 C62.9631169,97.48208 61.2828221,99.1745902 61.265178,101.279534 C61.2475345,103.384477 62.8992103,105.106239 64.9559782,105.126947 C67.0127468,105.147655 68.6972016,103.459482 68.7200264,101.354591 C68.7200264,101.284206 68.7200264,101.21382 68.7200264,101.129358 C68.4298724,101.292202 68.1015029,101.370128 67.7709309,101.354591 C66.7593794,101.316539 65.960899,100.461936 65.9690246,99.4260379 Z"/>
      <path fill="#000" fill-rule="nonzero" d="M193.588001,55.0552506 C189.461499,52.2398453 177.948556,50.8321426 170.300771,53.1126209 L168.595149,55.5761006 C143.657317,108.393104 112.447201,130.733345 69.8066727,131.718737 C23.3147408,131.592044 11.6780029,106.506783 8.39055572,72.285531 L0.949095647,72.285531 C-0.0137550086,86.6722518 3.57630243,139.545564 65.5976395,139.545564 C111.374311,139.545564 149.063036,118.556717 166.463123,74.4533931 C172.143942,74.5519325 187.962202,74.5519325 194.935992,60.0666718 L196.311493,56.9978803 L193.588001,55.0552506 Z" opacity=".05"/>
      <rect width="5.907" height="11.431" x="19.628" y="53.324" fill="#066DA5" fill-rule="nonzero"/>
      <rect width="5.907" height="11.431" x="25.213" y="53.324" fill="#066DA5" fill-rule="nonzero"/>
      <rect width="5.907" height="11.431" x="30.797" y="53.324" fill="#066DA5" fill-rule="nonzero"/>
      <rect width="5.907" height="11.431" x="43.823" y="53.324" fill="#066DA5" fill-rule="nonzero"/>
      <rect width="5.907" height="11.431" x="49.408" y="53.324" fill="#066DA5" fill-rule="nonzero"/>
      <rect width="5.907" height="11.431" x="54.993" y="53.324" fill="#066DA5" fill-rule="nonzero"/>
      <rect width="5.907" height="11.431" x="68.019" y="53.324" fill="#066DA5" fill-rule="nonzero"/>
      <rect width="5.907" height="11.431" x="73.603" y="53.324" fill="#066DA5" fill-rule="nonzero"/>
      <rect width="5.907" height="11.431" x="79.188" y="53.324" fill="#066DA5" fill-rule="nonzero"/>
      <rect width="5.907" height="11.431" x="92.214" y="53.324" fill="#066DA5" fill-rule="nonzero"/>
      <rect width="5.907" height="11.431" x="97.798" y="53.324" fill="#066DA5" fill-rule="nonzero"/>
      <rect width="5.907" height="11.431" x="103.383" y="53.324" fill="#066DA5" fill-rule="nonzero"/>
      <rect width="5.907" height="11.431" x="116.409" y="53.324" fill="#066DA5" fill-rule="nonzero"/>
      <rect width="5.907" height="11.431" x="121.993" y="53.324" fill="#066DA5" fill-rule="nonzero"/>
      <rect width="5.907" height="11.431" x="127.578" y="53.324" fill="#066DA5" fill-rule="nonzero"/>
      <rect width="5.907" height="11.431" x="49.408" y="30.477" fill="#066DA5" fill-rule="nonzero"/>
      <rect width="5.907" height="11.431" x="54.993" y="30.477" fill="#066DA5" fill-rule="nonzero"/>
      <rect width="5.907" height="11.431" x="68.019" y="30.477" fill="#066DA5" fill-rule="nonzero"/>
      <rect width="5.907" height="11.431" x="73.603" y="30.477" fill="#066DA5" fill-rule="nonzero"/>
      <rect width="5.907" height="11.431" x="79.188" y="30.477" fill="#066DA5" fill-rule="nonzero"/>
      <rect width="5.907" height="11.431" x="92.214" y="30.477" fill="#066DA5" fill-rule="nonzero"/>
      <rect width="5.907" height="11.431" x="97.798" y="30.477" fill="#066DA5" fill-rule="nonzero"/>
      <rect width="5.907" height="11.431" x="103.383" y="30.477" fill="#066DA5" fill-rule="nonzero"/>
      <rect width="5.907" height="11.431" x="97.798" y="7.616" fill="#066DA5" fill-rule="nonzero"/>
      <rect width="5.907" height="11.431" x="92.214" y="7.616" fill="#066DA5" fill-rule="nonzero"/>
      <rect width="5.907" height="11.431" x="103.383" y="7.616" fill="#066DA5" fill-rule="nonzero"/>
      <rect width="5.907" height="11.431" x="43.823" y="30.477" fill="#066DA5" fill-rule="nonzero"/>
      <path fill="#066DA5" fill-rule="nonzero" d="M194.509587,53.4927006 C190.039209,50.4098318 179.846747,49.2695927 171.855086,50.8180656 C170.823461,43.1179321 166.600673,36.4313445 159.200478,30.5189934 L154.81263,27.5065098 L151.924078,31.9830042 C148.059328,38.3655014 146.321778,45.8587556 146.972275,53.3378534 C147.337264,57.5264498 148.651245,61.5703169 150.809922,65.1484784 C146.487456,67.359065 141.721973,68.5108576 136.889853,68.5128878 L136.889853,45.708105 L112.681037,45.708105 L112.681037,0 L84.7721226,0 L84.7721226,22.861091 L36.3819997,22.861091 L36.3819997,45.708105 L12.1869383,45.708105 L12.1869383,68.5269652 L1.18293081,68.5269652 L0.880320598,70.1176689 C0.129164586,75.9164915 0.203295358,81.7961251 1.10040075,87.573182 C2.22229703,95.884717 4.81383837,103.917674 8.74818594,111.278894 C19.0644429,130.240649 37.8262757,141.375577 65.996535,141.375577 C113.918987,141.375577 150.644862,118.725641 167.783604,76.2130214 C172.617819,76.5205624 177.464776,75.8754204 182.061303,74.3126227 C188.156468,72.1900567 193.187922,67.6933201 196.063903,61.7981465 C196.242718,61.4884515 196.504063,60.9535246 197.068019,59.7851316 L197.700749,58.4478139 L197.989605,57.8425019 L198.69111,56.33626 L194.509587,53.4927006 Z M112.681037,49.5229792 L133.148491,49.5229792 L133.148491,68.5269652 L112.681037,68.5269652 L112.681037,49.5229792 Z M88.485975,3.81487418 L108.967184,3.81487418 L108.967184,22.861091 L88.485975,22.861091 L88.485975,3.81487418 Z M88.485975,26.6759652 L108.967184,26.6759652 L108.967184,45.708105 L88.485975,45.708105 L88.485975,26.6759652 Z M88.485975,49.5370562 L108.967184,49.5370562 L108.967184,68.541042 L88.485975,68.541042 L88.485975,49.5370562 Z M64.2909134,26.6618882 L84.7721226,26.6618882 L84.7721226,45.708105 L64.2909134,45.708105 L64.2909134,26.6618882 Z M64.2909134,49.5229792 L84.7721226,49.5229792 L84.7721226,68.5269652 L64.2909134,68.5269652 L64.2909134,49.5229792 Z M40.1096072,26.6618882 L60.577061,26.6618882 L60.577061,45.708105 L40.1096072,45.708105 L40.1096072,26.6618882 Z M40.1096072,49.5229792 L60.577061,49.5229792 L60.577061,68.5269652 L40.1096072,68.5269652 L40.1096072,49.5229792 Z M15.9145458,49.5229792 L36.3819997,49.5229792 L36.3819997,68.5269652 L15.9145458,68.5269652 L15.9145458,49.5229792 Z M193.656776,58.1521964 L193.079066,59.3346667 C192.996536,59.5035907 192.927761,59.6302843 192.748946,59.9540556 C190.310262,65.0141949 186.004717,68.873543 180.782088,70.6807499 C176.494725,72.1084952 171.978677,72.677255 167.480994,72.3559162 L166.518143,72.3559162 L165.238927,72.3559162 L164.757502,73.5806177 C148.471571,115.361232 112.928627,137.57478 65.996535,137.57478 C39.1605116,137.57478 21.6641397,127.171857 11.9943681,109.420727 C8.28352981,102.464776 5.8411633,94.8755094 4.78674325,87.0241778 C4.06252991,82.1708174 3.91473596,77.2456108 4.34658295,72.3559162 L136.876098,72.3559162 L136.876098,72.3559162 C144.248783,72.2714542 151.140043,69.9346675 154.59255,67.1896475 L156.119356,65.9790229 L154.89516,64.444627 C152.450489,61.1184351 150.981093,57.1489996 150.658617,53.0000047 C150.085379,46.3928776 151.609698,39.7727315 155.0052,34.1227122 L155.830501,32.8417028 L157.013431,33.6581703 C164.234812,39.4297512 167.948664,45.8488753 168.333805,53.3660074 L168.4576,55.7309478 L170.672156,55.1256357 C177.921046,53.1266979 188.553668,54.0980128 192.418826,56.7867248 L193.794327,57.7721167 L193.656776,58.1521964 Z"/>
    </g>
  </g>
</svg>
