<svg xmlns="http://www.w3.org/2000/svg" width="1090" height="372" viewBox="0 0 1090 372">
  <g fill="none" fill-rule="evenodd">
    <g fill-rule="nonzero" transform="translate(164 48)">
      <path fill="#87B09A" d="M115.641753,266.184449 L10.2905718,161.355629 C-2.59862507,148.532418 -2.59862507,127.739873 10.2905718,114.916662 L115.641753,10.0878423 C128.528863,-2.73536922 149.425016,-2.73536922 162.310039,10.0878423 L267.663307,114.916662 C280.550417,127.739873 280.550417,148.532418 267.663307,161.355629 L162.310039,266.184449 C149.425016,279.00766 128.528863,279.00766 115.641753,266.184449"/>
      <path fill="#FFF" d="M219.609041,136.00829 L200.238718,116.73401 C198.335083,114.839814 195.076777,116.181536 195.076777,118.862904 L195.076777,125.629672 C195.076777,127.291248 193.724195,128.639201 192.054339,128.639201 L181.446582,128.639201 C179.776727,128.639201 178.424144,127.291248 178.424144,125.629672 L178.424144,111.861439 C178.424144,110.199863 179.776727,108.85191 181.446582,108.85191 L185.017986,108.85191 C187.710627,108.85191 189.063211,105.611837 187.155401,103.715563 L167.785077,84.4412839 C166.607829,83.2677959 164.69167,83.2677959 163.510247,84.4412839 L144.139924,103.715563 C142.234201,105.611837 143.584697,108.85191 146.277339,108.85191 L150.520859,108.85191 C152.190714,108.85191 153.54121,110.199863 153.54121,111.861439 L153.54121,125.365897 C153.54121,127.027472 152.190714,128.375426 150.520859,128.375426 L127.276471,128.375426 C125.606616,128.375426 124.254033,127.027472 124.254033,125.365897 L124.254033,111.861439 C124.254033,110.199863 125.606616,108.85191 127.276471,108.85191 L131.67654,108.85191 C134.369182,108.85191 135.721765,105.611837 133.813955,103.715563 L114.443632,84.4412839 C113.262209,83.2677959 111.348137,83.2677959 110.166715,84.4412839 L90.7984783,103.715563 C88.892756,105.611837 90.2411641,108.85191 92.9358933,108.85191 L96.3486603,108.85191 C98.018516,108.85191 99.3731864,110.199863 99.3731864,111.861439 L99.3731864,125.629672 C99.3731864,127.291248 98.018516,128.639201 96.3486603,128.639201 L85.8995398,128.639201 C84.227597,128.639201 82.8771017,127.291248 82.8771017,125.629672 L82.8771017,118.862904 C82.8771017,116.181536 79.6167087,114.839814 77.7151606,116.73401 L58.3448372,136.00829 C57.1634147,137.183855 57.1634147,139.088436 58.3448372,140.264001 L77.7151606,159.536204 C79.6167087,161.432477 82.8771017,160.090755 82.8771017,157.409387 L82.8771017,150.640542 C82.8771017,148.978966 84.227597,147.63309 85.8995398,147.63309 L96.3486603,147.63309 C98.018516,147.63309 99.3731864,148.978966 99.3731864,150.640542 L99.3731864,164.410852 C99.3731864,166.072427 98.018516,167.420381 96.3486603,167.420381 L92.9358933,167.420381 C90.2411641,167.420381 88.8906684,170.660454 90.7984783,172.55465 L110.166715,191.82893 C111.34605,193.004495 113.260122,193.004495 114.443632,191.82893 L133.813955,172.55465 C135.719678,170.660454 134.369182,167.420381 131.67654,167.420381 L127.276471,167.420381 C125.606616,167.420381 124.254033,166.072427 124.254033,164.410852 L124.254033,150.848239 C124.254033,149.186663 125.606616,147.83871 127.276471,147.83871 L150.520859,147.83871 C152.190714,147.83871 153.54121,149.186663 153.54121,150.848239 L153.54121,164.410852 C153.54121,166.072427 152.190714,167.420381 150.520859,167.420381 L146.277339,167.420381 C143.584697,167.420381 142.232114,170.660454 144.139924,172.55465 L163.510247,191.82893 C164.689583,193.004495 166.605742,193.004495 167.785077,191.82893 L187.155401,172.55465 C189.061123,170.660454 187.710627,167.420381 185.017986,167.420381 L181.446582,167.420381 C179.776727,167.420381 178.424144,166.072427 178.424144,164.410852 L178.424144,150.640542 C178.424144,148.978966 179.776727,147.63309 181.446582,147.63309 L192.054339,147.63309 C193.724195,147.63309 195.076777,148.978966 195.076777,150.640542 L195.076777,157.409387 C195.076777,160.090755 198.335083,161.432477 200.238718,159.536204 L219.609041,140.264001 C220.790464,139.088436 220.790464,137.183855 219.609041,136.00829"/>
    </g>
    <g transform="translate(649 87)">
      <rect width="28.516" height="26.484" x="55.883" y="68.863" fill="#099CEC" fill-rule="nonzero"/>
      <rect width="28.516" height="26.484" x="22.173" y="68.863" fill="#099CEC" fill-rule="nonzero"/>
      <rect width="28.516" height="26.484" x="89.574" y="68.863" fill="#099CEC" fill-rule="nonzero"/>
      <rect width="28.516" height="26.484" x="123.284" y="68.863" fill="#099CEC" fill-rule="nonzero"/>
      <rect width="28.516" height="26.484" x="156.993" y="68.863" fill="#099CEC" fill-rule="nonzero"/>
      <rect width="28.516" height="26.484" x="55.883" y="37.074" fill="#099CEC" fill-rule="nonzero"/>
      <rect width="28.516" height="26.484" x="89.574" y="37.074" fill="#099CEC" fill-rule="nonzero"/>
      <rect width="28.516" height="26.484" x="123.284" y="37.074" fill="#099CEC" fill-rule="nonzero"/>
      <rect width="28.516" height="26.484" x="123.284" y="5.305" fill="#099CEC" fill-rule="nonzero"/>
      <path fill="#099CEC" fill-rule="nonzero" d="M270.464992,77.0251189 C264.619897,72.9928001 249.231008,71.2898306 238.058254,74.3630055 C237.464162,62.9903005 231.714889,53.3988626 221.212882,45.0014609 L217.380033,42.3393474 L214.79286,46.25422 C209.680452,54.6566788 207.380188,64.5286592 208.238689,74.3825799 C208.747189,80.6672696 210.993596,86.6750056 214.716203,91.7058915 C211.745745,94.054815 202.527744,98.6156411 190.090148,98.3807491 L4.69524007,98.3807491 C1.3989899,118.385748 7.05244222,194.295129 92.8507679,194.295129 C156.552719,194.295129 208.890272,165.031456 232.864743,103.646253 C240.760413,103.783273 261.611111,105.094756 271.748997,84.991885 C271.998132,84.6591204 274.33617,79.667658 274.33617,79.667658 L270.464992,77.0251189 Z"/>
      <path fill="#FFF" fill-rule="nonzero" d="M115.253771,191.065358 C68.6463263,205.530812 40.3790646,180.08414 24.5110696,166.597404 C41.0613772,166.388203 57.4807212,163.568874 73.1882524,158.239152 C82.657813,174.205839 97.6821786,185.930238 115.253771,191.065358 Z"/>
      <path d="M115.253771,191.065358 C68.6463263,205.530812 40.3790646,180.08414 24.5110696,166.597404 C41.0613772,166.388203 57.4807212,163.568874 73.1882524,158.239152 C82.657813,174.205839 97.6821786,185.930238 115.253771,191.065358 Z"/>
      <path fill="#026FB6" fill-rule="nonzero" d="M70.8310502,153.580453 C60.318662,159.683746 48.4273346,162.875394 36.3354089,162.839127 C30.1486204,162.846122 23.9881328,162.016799 18.0143905,160.372758 L21.7130898,166.734425 C39.3638148,170.27957 57.6738528,167.266721 73.3415663,158.239152 C72.4408469,156.712351 71.59762,155.165976 70.8310502,153.580453 Z"/>
      <ellipse cx="90.551" cy="140.857" fill="#FFF" fill-rule="nonzero" rx="9.007" ry="9.278"/>
      <path fill="#4D5C64" fill-rule="nonzero" d="M91.9117197,138.253726 C91.9220928,137.445355 92.2968444,136.687034 92.9274251,136.198419 C92.2090734,135.799748 91.4068342,135.584821 90.5893871,135.572039 C87.7237217,135.550617 85.3826413,137.904084 85.3580586,140.831047 C85.3334767,143.758008 87.6346834,146.15215 90.5002871,146.180945 C93.3658916,146.20974 95.7127679,143.862304 95.7445686,140.935415 C95.7445686,140.837543 95.7445686,140.739671 95.7445686,140.622225 C95.3403099,140.848663 94.8828073,140.95702 94.4222359,140.935415 C93.0128861,140.882502 91.9003986,139.694162 91.9117197,138.253726 Z"/>
      <path fill="#000" fill-rule="nonzero" d="M269.717587,76.5553342 C263.968314,72.6404616 247.92784,70.6830253 237.27252,73.8540721 L234.896153,77.2795856 C200.151376,150.722596 156.667704,181.78711 97.2585448,183.157315 C32.4833956,182.981146 16.2704442,148.099632 11.6901896,100.514355 L1.32233292,100.514355 C-0.0191642442,120.519353 4.98270375,194.040662 91.3942852,194.040662 C155.172893,194.040662 207.682925,164.855287 231.925695,103.528807 C239.840528,103.665828 261.87941,103.665828 271.595683,83.5238071 L273.512108,79.2565963 L269.717587,76.5553342 Z" opacity=".05"/>
      <rect width="8.229" height="15.894" x="27.347" y="74.148" fill="#066DA5" fill-rule="nonzero"/>
      <rect width="8.229" height="15.894" x="35.128" y="74.148" fill="#066DA5" fill-rule="nonzero"/>
      <rect width="8.229" height="15.894" x="42.909" y="74.148" fill="#066DA5" fill-rule="nonzero"/>
      <rect width="8.229" height="15.894" x="61.057" y="74.148" fill="#066DA5" fill-rule="nonzero"/>
      <rect width="8.229" height="15.894" x="68.838" y="74.148" fill="#066DA5" fill-rule="nonzero"/>
      <rect width="8.229" height="15.894" x="76.619" y="74.148" fill="#066DA5" fill-rule="nonzero"/>
      <rect width="8.229" height="15.894" x="94.767" y="74.148" fill="#066DA5" fill-rule="nonzero"/>
      <rect width="8.229" height="15.894" x="102.548" y="74.148" fill="#066DA5" fill-rule="nonzero"/>
      <rect width="8.229" height="15.894" x="110.329" y="74.148" fill="#066DA5" fill-rule="nonzero"/>
      <rect width="8.229" height="15.894" x="128.477" y="74.148" fill="#066DA5" fill-rule="nonzero"/>
      <rect width="8.229" height="15.894" x="136.258" y="74.148" fill="#066DA5" fill-rule="nonzero"/>
      <rect width="8.229" height="15.894" x="144.038" y="74.148" fill="#066DA5" fill-rule="nonzero"/>
      <rect width="8.229" height="15.894" x="162.187" y="74.148" fill="#066DA5" fill-rule="nonzero"/>
      <rect width="8.229" height="15.894" x="169.968" y="74.148" fill="#066DA5" fill-rule="nonzero"/>
      <rect width="8.229" height="15.894" x="177.748" y="74.148" fill="#066DA5" fill-rule="nonzero"/>
      <rect width="8.229" height="15.894" x="68.838" y="42.378" fill="#066DA5" fill-rule="nonzero"/>
      <rect width="8.229" height="15.894" x="76.619" y="42.378" fill="#066DA5" fill-rule="nonzero"/>
      <rect width="8.229" height="15.894" x="94.767" y="42.378" fill="#066DA5" fill-rule="nonzero"/>
      <rect width="8.229" height="15.894" x="102.548" y="42.378" fill="#066DA5" fill-rule="nonzero"/>
      <rect width="8.229" height="15.894" x="110.329" y="42.378" fill="#066DA5" fill-rule="nonzero"/>
      <rect width="8.229" height="15.894" x="128.477" y="42.378" fill="#066DA5" fill-rule="nonzero"/>
      <rect width="8.229" height="15.894" x="136.258" y="42.378" fill="#066DA5" fill-rule="nonzero"/>
      <rect width="8.229" height="15.894" x="144.038" y="42.378" fill="#066DA5" fill-rule="nonzero"/>
      <rect width="8.229" height="15.894" x="136.258" y="10.59" fill="#066DA5" fill-rule="nonzero"/>
      <rect width="8.229" height="15.894" x="128.477" y="10.59" fill="#066DA5" fill-rule="nonzero"/>
      <rect width="8.229" height="15.894" x="144.038" y="10.59" fill="#066DA5" fill-rule="nonzero"/>
      <rect width="8.229" height="15.894" x="61.057" y="42.378" fill="#066DA5" fill-rule="nonzero"/>
      <path fill="#066DA5" fill-rule="nonzero" d="M271.001591,74.3825799 C264.773212,70.0957944 250.572506,68.5102709 239.438079,70.6634509 C238.000761,59.9562743 232.117338,50.6584518 221.806974,42.4372193 L215.69358,38.2483056 L211.669088,44.472953 C206.284503,53.3479323 203.863651,63.7674395 204.76996,74.1672619 C205.278483,79.9915819 207.109194,85.6146533 210.116784,90.5901524 C204.094484,93.6640135 197.454947,95.2656022 190.722568,95.2684252 L190.722568,63.557957 L156.993497,63.557957 L156.993497,0 L118.109243,0 L118.109243,31.7887657 L50.6894285,31.7887657 L50.6894285,63.557957 L16.9795212,63.557957 L16.9795212,95.2880001 L1.64812509,95.2880001 L1.22651169,97.4999027 C0.179959296,105.563272 0.283242416,113.73901 1.53313962,121.772113 C3.09622801,133.329455 6.70690776,144.499429 12.1884599,154.73534 C26.5616438,181.102008 52.7016743,196.585329 91.9500488,196.585329 C158.718279,196.585329 209.886813,165.090178 233.765463,105.975602 C240.500761,106.403243 247.253811,105.506162 253.657949,103.333063 C262.150072,100.381596 269.160173,94.1288013 273.167151,85.9314544 C273.416286,85.5008178 273.780407,84.7569923 274.566141,83.1323203 L275.447696,81.2727557 L275.850146,80.4310581 L276.827522,78.3366012 L271.001591,74.3825799 Z M156.993497,68.8626095 L185.509894,68.8626095 L185.509894,95.2880001 L156.993497,95.2880001 L156.993497,68.8626095 Z M123.283589,5.30465241 L151.819151,5.30465241 L151.819151,31.7887657 L123.283589,31.7887657 L123.283589,5.30465241 Z M123.283589,37.0934182 L151.819151,37.0934182 L151.819151,63.557957 L123.283589,63.557957 L123.283589,37.0934182 Z M123.283589,68.8821839 L151.819151,68.8821839 L151.819151,95.3075742 L123.283589,95.3075742 L123.283589,68.8821839 Z M89.5736817,37.0738438 L118.109243,37.0738438 L118.109243,63.557957 L89.5736817,63.557957 L89.5736817,37.0738438 Z M89.5736817,68.8626095 L118.109243,68.8626095 L118.109243,95.2880001 L89.5736817,95.2880001 L89.5736817,68.8626095 Z M55.882939,37.0738438 L84.3993357,37.0738438 L84.3993357,63.557957 L55.882939,63.557957 L55.882939,37.0738438 Z M55.882939,68.8626095 L84.3993357,68.8626095 L84.3993357,95.2880001 L55.882939,95.2880001 L55.882939,68.8626095 Z M22.1730317,68.8626095 L50.6894285,68.8626095 L50.6894285,95.2880001 L22.1730317,95.2880001 L22.1730317,68.8626095 Z M269.813408,80.8616941 L269.00851,82.5059407 C268.893524,82.7408327 268.797703,82.9170024 268.548568,83.3672122 C265.150858,90.4034287 259.152132,95.7699228 251.875675,98.2828772 C245.902282,100.268183 239.610272,101.059054 233.34385,100.612227 L232.002352,100.612227 L230.220078,100.612227 L229.549329,102.315196 C206.858862,160.411906 157.338453,191.300251 91.9500488,191.300251 C54.5606061,191.300251 30.1836862,176.834797 16.7112218,152.151524 C11.5410751,142.479147 8.13823408,131.926133 6.66915733,121.008713 C5.66014296,114.260026 5.45422819,107.411437 6.05590148,100.612227 L190.703404,100.612227 L190.703404,100.612227 C200.975439,100.494781 210.576727,97.2454359 215.386952,93.4284354 L217.514183,91.7450396 L215.808565,89.6114341 C212.402513,84.9863033 210.355268,79.4667306 209.905978,73.6974772 C209.107311,64.5101459 211.231077,55.3047115 215.961879,47.4482562 L217.111733,45.6669892 L218.759859,46.8023023 C228.821088,54.8277911 233.995434,63.7537007 234.532033,74.2064106 L234.704511,77.4949036 L237.789955,76.653206 C247.889511,73.8736464 262.703473,75.2242775 268.088626,78.9629808 L270.005051,80.3331863 L269.813408,80.8616941 Z"/>
    </g>
    <path fill="#3F5364" d="M545,177 L545,143 C545,141.895431 544.104569,141 543,141 L532,141 C530.895431,141 530,141.895431 530,143 L530,143 L530,177 L496,177 C494.895431,177 494,177.895431 494,179 L494,190 C494,191.104569 494.895431,192 496,192 L530,192 L530,226 C530,227.104569 530.895431,228 532,228 L543,228 C544.104569,228 545,227.104569 545,226 L545,192 L579,192 C580.104569,192 581,191.104569 581,190 L581,179 C581,177.895431 580.104569,177 579,177 L545,177 Z"/>
  </g>
</svg>
