<?xml version="1.0" encoding="UTF-8"?>
<svg width="566px" height="128px" viewBox="0 0 566 128" version="1.1" xmlns="http://www.w3.org/2000/svg" xmlns:xlink="http://www.w3.org/1999/xlink">
    <!-- Generator: Sketch 46.2 (44496) - http://www.bohemiancoding.com/sketch -->
    <title>habicat-and-moby@1x</title>
    <desc>Created with Sketch.</desc>
    <defs>
        <polygon id="path-1" points="0.000515023421 12.4544183 13.7759007 12.4544183 13.7759007 0.0733831121 0.000515023421 0.0733831121"></polygon>
        <polygon id="path-3" points="13.7763344 2.13366576 13.7763344 0.0194932638 0.000989387097 0.0194932638 0.000989387097 2.13366576"></polygon>
        <polygon id="path-5" points="0.000515023421 12.4544183 13.7759007 12.4544183 13.7759007 0.0733831121 0.000515023421 0.0733831121"></polygon>
        <polygon id="path-7" points="13.7763344 2.13366576 13.7763344 0.0194932638 0.000989387097 0.0194932638 0.000989387097 2.13366576"></polygon>
        <polygon id="path-9" points="0.000515023421 12.4544183 13.7759007 12.4544183 13.7759007 0.0733831121 0.000515023421 0.0733831121"></polygon>
        <polygon id="path-11" points="13.7763344 2.13366576 13.7763344 0.0194932638 0.000989387097 0.0194932638 0.000989387097 2.13366576"></polygon>
        <polygon id="path-13" points="0.000515023421 12.4544183 13.7759007 12.4544183 13.7759007 0.0733831121 0.000515023421 0.0733831121"></polygon>
        <polygon id="path-15" points="13.7763344 2.13366576 13.7763344 0.0194932638 0.000989387097 0.0194932638 0.000989387097 2.13366576"></polygon>
        <polygon id="path-17" points="0.000515023421 12.4544183 13.7759007 12.4544183 13.7759007 0.0733831121 0.000515023421 0.0733831121"></polygon>
        <polygon id="path-19" points="13.7763344 2.13366576 13.7763344 0.0194932638 0.000989387097 0.0194932638 0.000989387097 2.13366576"></polygon>
        <path d="M84.5321813,11.3511016 C82.6833737,10.0882344 77.8158573,9.55488755 74.281907,10.517364 C74.0939954,6.95558802 72.2754962,3.95168053 68.9537041,1.32172887 L67.7413713,0.487991285 L66.9230466,1.71407597 C65.3059884,4.3456114 64.5784132,7.43738096 64.8499574,10.5234945 C65.0107966,12.4917735 65.7213366,14.3733145 66.8987999,15.9489192 C65.959242,16.68457 63.0435815,18.1129587 59.1095614,18.0393936 L0.469021272,18.0393936 C-0.573584981,24.3046864 1.21460598,48.0784685 28.3526769,48.0784685 C48.5016489,48.0784685 65.056054,38.9134854 72.639196,19.6884775 C75.1366017,19.7313905 81.7316924,20.1421288 84.9383128,13.846184 C85.0171144,13.7419668 85.7566375,12.1787088 85.7566375,12.1787088 L84.5321813,11.3511016 Z" id="path-21"></path>
    </defs>
    <g id="Habitat-SaaS-Onboarding/desktop" stroke="none" stroke-width="1" fill="none" fill-rule="evenodd">
        <g id="Habitat-5-mins-flow-V2---end-2" transform="translate(-434.000000, -29.000000)">
            <g id="habicat-and-moby" transform="translate(434.000000, 26.844297)">
                <g id="Group-12-Copy" transform="translate(0.000000, 3.452745)">
                    <g id="Group-9" fill="#627B8F">
                        <ellipse id="Oval-5" cx="2.28121454" cy="16.5304595" rx="1.93117479" ry="1.9122417"></ellipse>
                        <ellipse id="Oval-5-Copy" cx="11.2686225" cy="12.9999577" rx="1.63428244" ry="1.61826006"></ellipse>
                        <ellipse id="Oval-5-Copy-3" cx="6.88075516" cy="9.76343758" rx="1.63428244" ry="1.61826006"></ellipse>
                        <ellipse id="Oval-5-Copy-4" cx="3.61219028" cy="2.16437505" rx="1.63428244" ry="1.61826006"></ellipse>
                    </g>
                    <g id="Group-8" transform="translate(0.000000, 17.060623)">
                        <g id="Group-5">
                            <path d="M23.2958328,87.6328037 C22.8841636,87.4562427 22.6959793,87.14359 22.8238581,86.8518985 L28.4468034,70.4014715 C28.7250565,69.7976462 29.3605569,69.3221298 30.2402209,69.0539936 C30.7442951,68.8998464 31.2995035,68.8216054 31.8899262,68.8216054 C31.9125083,68.8216054 31.9350904,68.8217092 31.9581917,68.8219686 C33.6427651,68.8404393 34.9810796,69.4871208 35.3686093,70.4693876 L40.2425381,87.0422607 C40.3532856,87.3373765 40.1464127,87.6463454 39.7251395,87.8132561 C39.5250153,87.8924829 39.2926186,87.9343532 39.0528675,87.9343532 C38.7894096,87.9343532 38.5384973,87.884804 38.3275579,87.7910497 C38.3140605,87.7851869 36.5739396,85.4131438 35.136385,85.3972154 C33.6587709,85.396956 32.2328974,87.7172189 32.217064,87.7236006 C32.0163341,87.8067187 31.7769291,87.8513908 31.5282664,87.8513908 C31.2647219,87.8513908 31.0143287,87.8020491 30.804168,87.708658 C30.7924876,87.7035734 29.1946473,85.4860008 27.7687731,85.4706432 C26.311059,85.4703838 24.7525952,87.617031 24.6869254,87.6431805 C24.4892238,87.7247421 24.2512897,87.769051 24.0045304,87.769051 C23.749465,87.769051 23.5044362,87.7219403 23.2958328,87.6328037 Z" id="Shape-Copy-5" fill="#627B8F" fill-rule="nonzero" transform="translate(31.528161, 78.377979) rotate(45.000000) translate(-31.528161, -78.377979) "></path>
                            <path d="M45.4863546,83.5167628 C45.0746853,83.3402018 44.8865011,83.0275491 45.0143798,82.7358576 L50.6373251,66.2854306 C50.9155783,65.6816053 51.5510786,65.2060889 52.4307426,64.9379527 C52.9348168,64.7838055 53.4900253,64.7055645 54.0804479,64.7055645 C54.10303,64.7055645 54.1256122,64.7056683 54.1487134,64.7059277 C55.8332869,64.7243984 57.1716013,65.3710799 57.5591311,66.3533467 L62.4330598,82.9262198 C62.5438073,83.2213357 62.3369344,83.5303045 61.9156613,83.6972152 C61.7155371,83.776442 61.4831403,83.8183123 61.2433893,83.8183123 C60.9799313,83.8183123 60.729019,83.7687631 60.5180796,83.6750089 C60.5045822,83.669146 58.7644613,81.2971029 57.3269067,81.2811745 C55.8492927,81.2809151 54.4234191,83.601178 54.4075857,83.6075597 C54.2068558,83.6906778 53.9674509,83.7353499 53.7187881,83.7353499 C53.4552436,83.7353499 53.2048504,83.6860083 52.9946897,83.5926172 C52.9830093,83.5875325 51.385169,81.36996 49.9592948,81.3546023 C48.5015807,81.3543429 46.943117,83.5009901 46.8774471,83.5271396 C46.6797455,83.6087012 46.4418114,83.6530101 46.1950521,83.6530101 C45.9399868,83.6530101 45.6949579,83.6058994 45.4863546,83.5167628 Z" id="Shape-Copy-7" fill="#627B8F" fill-rule="nonzero" transform="translate(53.718683, 74.261938) rotate(26.000000) translate(-53.718683, -74.261938) "></path>
                            <rect id="Rectangle-3" fill-opacity="0.1" fill="#000000" transform="translate(59.439161, 60.784475) scale(-1, 1) rotate(18.000000) translate(-59.439161, -60.784475) " x="56.5623037" y="59.7175708" width="5.75371479" height="2.13380806"></rect>
                            <path d="M33.5073556,10.5640886 C27.5616433,11.3917033 25.3999757,18.266844 25.3999757,21.3522526" id="Path-3" stroke="#DEBFA5" transform="translate(29.453666, 15.958171) scale(-1, 1) rotate(18.000000) translate(-29.453666, -15.958171) "></path>
                            <path d="M38.271672,75.7741745 C36.5132082,76.8497735 34.4748033,75.8174829 34.4064921,73.288706 C34.3381809,70.759929 34.7838782,67.7158668 37.5844847,64.6118598 C40.3850912,61.5078528 44.0159581,66.0202943 41.1925927,69.0238193 C38.3692273,72.0273443 40.0301357,74.6985756 38.271672,75.7741745 Z" id="Shape-Copy" fill="#DDC7AE" fill-rule="nonzero" transform="translate(38.307172, 69.881714) scale(-1, 1) rotate(-33.000000) translate(-38.307172, -69.881714) "></path>
                            <path d="M58.3085212,69.8162529 C56.5500575,70.8918518 54.5116526,69.8595613 54.4433414,67.3307844 C54.3750301,64.8020074 54.8207275,61.7579451 57.621334,58.6539382 C60.4219405,55.5499312 64.0528073,60.0623727 61.229442,63.0658977 C58.4060766,66.0694226 60.066985,68.740654 58.3085212,69.8162529 Z" id="Shape-Copy-8" fill="#DDC7AE" fill-rule="nonzero" transform="translate(58.344022, 63.923792) scale(-1, 1) rotate(-33.000000) translate(-58.344022, -63.923792) "></path>
                            <path d="M37.341283,64.3716673 C36.5802411,65.085644 36.1048722,66.2073747 36.3544979,67.5907103 C37.0865344,71.6473933 34.2387225,72.9830809 35.1276811,74.842882 C36.0166398,76.7026832 38.2884157,76.9471264 39.7229769,74.8635205 C39.8980011,74.6093095 40.0707859,74.3444986 40.2380771,74.0679604 C38.8036438,75.7391736 36.7617365,75.4130601 35.9300901,73.6731627 C35.0411314,71.8133615 37.8889433,70.4776739 37.1569068,66.420991 C37.0173471,65.6476012 37.1043961,64.9559802 37.341283,64.3716673 Z" id="Combined-Shape" fill="#C6B29C" fill-rule="nonzero"></path>
                            <path d="M57.3781323,58.4137456 C56.6170904,59.1277224 56.1417215,60.2494531 56.3913471,61.6327887 C57.1233836,65.6894716 54.2755717,67.0251592 55.1645304,68.8849604 C56.0534891,70.7447616 58.3252649,70.9892047 59.7598262,68.9055989 C59.9348503,68.6513879 60.1076351,68.3865769 60.2749264,68.1100388 C58.8404931,69.781252 56.7985857,69.4551385 55.9669394,67.7152411 C55.0779807,65.8554399 57.9257926,64.5197523 57.1937561,60.4630693 C57.0541964,59.6896795 57.1412453,58.9980585 57.3781323,58.4137456 Z" id="Combined-Shape-Copy" fill="#C6B29C" fill-rule="nonzero"></path>
                            <path d="M65.7921776,38.2506865 C64.2028647,38.2506865 62.9153202,36.9798852 62.9153202,35.4112399 L62.9153202,24.9172015 L68.669035,24.9172015 L68.669035,35.4112399 C68.669035,36.9798852 67.3814904,38.2506865 65.7921776,38.2506865 Z" id="Shape-Copy-3" fill="#DDC7AE" fill-rule="nonzero" transform="translate(65.792178, 31.583944) scale(-1, 1) rotate(-202.000000) translate(-65.792178, -31.583944) "></path>
                            <rect id="Rectangle-6" fill="#DDC7AE" transform="translate(38.080591, 42.344200) scale(-1, 1) rotate(18.000000) translate(-38.080591, -42.344200) " x="9.87062983" y="19.1179852" width="56.4199226" height="46.45243" rx="6"></rect>
                            <path d="M21.1354199,51.7219591 L71.5553425,51.7219591 L71.5553425,59.055444 L71.5553425,59.055444 C71.5553425,62.3691525 68.869051,65.055444 65.5553425,65.055444 L21.1354199,65.055444 L21.1354199,65.055444 C17.8217114,65.055444 15.1354199,62.3691525 15.1354199,59.055444 L15.1354199,57.7219591 L15.1354199,57.7219591 C15.1354199,54.4082506 17.8217114,51.7219591 21.1354199,51.7219591 Z" id="Rectangle-6" fill="#A2BD7C" transform="translate(43.345381, 58.388702) scale(-1, 1) rotate(18.000000) translate(-43.345381, -58.388702) "></path>
                            <rect id="Rectangle-6-Copy" fill="#FFE9D1" transform="translate(43.380808, 41.587004) scale(-1, 1) rotate(18.000000) translate(-43.380808, -41.587004) " x="20.4479563" y="19.5929337" width="45.865704" height="43.9881403" rx="4"></rect>
                            <ellipse id="Oval-Copy" fill="#837365" fill-rule="nonzero" transform="translate(50.392076, 27.959529) scale(-1, 1) rotate(18.000000) translate(-50.392076, -27.959529) " cx="50.3920764" cy="27.9595293" rx="1.23724986" ry="1.22116057"></ellipse>
                            <ellipse id="Oval-Copy-2" fill="#837365" fill-rule="nonzero" transform="translate(29.897428, 34.553359) scale(-1, 1) rotate(18.000000) translate(-29.897428, -34.553359) " cx="29.8974279" cy="34.5533588" rx="1.23724986" ry="1.22116057"></ellipse>
                            <path d="M45.2961841,36.7635817 L44.6070827,37.3145511 C43.5734307,38.1672418 41.7166853,38.2721883 40.4724745,37.5637991 C40.3384826,37.4850892 40.2236323,37.4063793 40.1087821,37.3145511 L39.4196807,36.7635817 C39.1899803,36.5799252 39.2282637,36.3044405 39.4962476,36.1470207 C39.6110978,36.0814291 39.7642314,36.0420741 39.9173651,36.0420741 L44.7984998,36.0420741 C45.1621922,36.0420741 45.4493177,36.2388489 45.4493177,36.488097 C45.4493177,36.5799252 45.3918926,36.6848717 45.2961841,36.7635817 Z" id="Shape-Copy-4" fill="#837365" fill-rule="nonzero" transform="translate(42.359086, 37.037088) scale(-1, 1) rotate(18.000000) translate(-42.359086, -37.037088) "></path>
                            <path d="M60.1861949,30.6564926 L62.3411297,30.6564926" id="Line-6" stroke="#827365" stroke-linecap="round" stroke-linejoin="round" transform="translate(61.263662, 30.656493) scale(-1, 1) rotate(18.000000) translate(-61.263662, -30.656493) "></path>
                            <path d="M21.8814445,43.2543614 L24.0363794,43.2543614" id="Line-6-Copy-3" stroke="#827365" stroke-linecap="round" stroke-linejoin="round" transform="translate(22.958912, 43.254361) scale(-1, 1) rotate(18.000000) translate(-22.958912, -43.254361) "></path>
                            <path d="M59.2983129,27.9506632 L61.4532477,27.9506632" id="Line-6-Copy" stroke="#827365" stroke-linecap="round" stroke-linejoin="round" transform="translate(60.375780, 27.950663) scale(-1, 1) rotate(18.000000) translate(-60.375780, -27.950663) "></path>
                            <path d="M20.8825773,40.2103033 L23.0375121,40.2103033" id="Line-6-Copy-4" stroke="#827365" stroke-linecap="round" stroke-linejoin="round" transform="translate(21.960045, 40.210303) scale(-1, 1) rotate(18.000000) translate(-21.960045, -40.210303) "></path>
                            <path d="M61.2960474,34.0387793 L63.4509822,34.0387793" id="Line-6-Copy-2" stroke="#827365" stroke-linecap="round" stroke-linejoin="round" transform="translate(62.373515, 34.038779) scale(-1, 1) rotate(18.000000) translate(-62.373515, -34.038779) "></path>
                            <path d="M22.8803117,46.2984195 L25.0352466,46.2984195" id="Line-6-Copy-5" stroke="#827365" stroke-linecap="round" stroke-linejoin="round" transform="translate(23.957779, 46.298420) scale(-1, 1) rotate(18.000000) translate(-23.957779, -46.298420) "></path>
                            <g id="Group-2" transform="translate(24.735809, 20.132572) scale(-1, 1) rotate(18.000000) translate(-24.735809, -20.132572) translate(19.235809, 16.632572)">
                                <path d="M7.6889573,2.37878219 L10.136179,6.6194335 L0.044989249,6.6194335 L2.49221094,2.37878219 L2.49221094,2.37878219 C3.32035392,0.943740309 5.15502775,0.451751541 6.59006963,1.27989452 C7.04652835,1.54331059 7.42554124,1.92232347 7.6889573,2.37878219 Z" id="Triangle-Copy-4" fill="#DDC7AE"></path>
                                <path d="M5.95670851,4.80612547 L7.00314369,6.6194335 L3.17802454,6.6194335 L4.22445972,4.80612547 L4.22445972,4.80612547 C4.50050738,4.32777818 5.11206533,4.16378192 5.59041262,4.43982958 C5.74256553,4.52763494 5.86890316,4.65397256 5.95670851,4.80612547 Z" id="Triangle-Copy-5" fill="#827365"></path>
                            </g>
                            <g id="Group-2-Copy" transform="translate(44.547302, 13.758537) scale(-1, 1) rotate(18.000000) translate(-44.547302, -13.758537) translate(39.047302, 10.258537)">
                                <path d="M7.6889573,2.37878219 L10.136179,6.6194335 L0.044989249,6.6194335 L2.49221094,2.37878219 L2.49221094,2.37878219 C3.32035392,0.943740309 5.15502775,0.451751541 6.59006963,1.27989452 C7.04652835,1.54331059 7.42554124,1.92232347 7.6889573,2.37878219 Z" id="Triangle-Copy-4" fill="#DDC7AE"></path>
                                <path d="M5.95670851,4.80612547 L7.00314369,6.6194335 L3.17802454,6.6194335 L4.22445972,4.80612547 L4.22445972,4.80612547 C4.50050738,4.32777818 5.11206533,4.16378192 5.59041262,4.43982958 C5.74256553,4.52763494 5.86890316,4.65397256 5.95670851,4.80612547 Z" id="Triangle-Copy-5" fill="#827365"></path>
                            </g>
                            <polygon id="Rectangle-3-Copy" fill-opacity="0.1" fill="#000000" transform="translate(39.050466, 67.344216) scale(-1, 1) rotate(18.000000) translate(-39.050466, -67.344216) " points="35.8826564 66.2773115 41.6363712 66.2773115 42.2182751 68.4111196 35.8826564 68.4111196"></polygon>
                            <polygon id="Rectangle-3-Copy-3" fill-opacity="0.1" fill="#000000" transform="translate(59.087315, 61.386294) scale(-1, 1) rotate(18.000000) translate(-59.087315, -61.386294) " points="55.9195057 60.3193899 61.6732205 60.3193899 62.2551244 62.453198 55.9195057 62.453198"></polygon>
                            <path d="M7.6426518,55.7180455 C6.05333897,55.7180455 4.7657944,54.4472442 4.7657944,52.878599 L4.7657944,42.3845606 L10.5195092,42.3845606 L10.5195092,52.878599 C10.5195092,54.4472442 9.23196462,55.7180455 7.6426518,55.7180455 Z" id="Shape-Copy-6" fill="#DDC7AE" fill-rule="nonzero" transform="translate(7.642652, 49.051303) scale(-1, 1) rotate(-107.000000) translate(-7.642652, -49.051303) "></path>
                            <g id="Group-28" transform="translate(23.791240, 12.375440) scale(-1, 1) rotate(18.000000) translate(-23.791240, -12.375440) translate(17.291240, 6.375440)">
                                <g id="Group-27" transform="translate(-0.000000, 0.000000)" fill="#FF9012">
                                    <g id="Group-25" transform="translate(2.606433, 1.600356)">
                                        <ellipse id="Oval-2" transform="translate(5.926071, 3.734164) rotate(-270.000000) translate(-5.926071, -3.734164) " cx="5.92607089" cy="3.7341641" rx="1.07746743" ry="1.60035604"></ellipse>
                                        <ellipse id="Oval-2" cx="3.77113602" cy="1.60035604" rx="1.07746743" ry="1.60035604"></ellipse>
                                        <ellipse id="Oval-2" transform="translate(1.616201, 3.734164) rotate(-90.000000) translate(-1.616201, -3.734164) " cx="1.61620115" cy="3.7341641" rx="1.07746743" ry="1.60035604"></ellipse>
                                        <ellipse id="Oval-2" transform="translate(3.771136, 5.867972) rotate(-180.000000) translate(-3.771136, -5.867972) " cx="3.77113602" cy="5.86797216" rx="1.07746743" ry="1.60035604"></ellipse>
                                    </g>
                                    <g id="Group-25" transform="translate(6.350196, 5.683097) rotate(45.000000) translate(-6.350196, -5.683097) translate(2.350196, 1.683097)">
                                        <ellipse id="Oval-2" transform="translate(5.926071, 3.734164) rotate(-270.000000) translate(-5.926071, -3.734164) " cx="5.92607089" cy="3.7341641" rx="1.07746743" ry="1.60035604"></ellipse>
                                        <ellipse id="Oval-2" cx="3.77113602" cy="1.60035604" rx="1.07746743" ry="1.60035604"></ellipse>
                                        <ellipse id="Oval-2" transform="translate(1.616201, 3.734164) rotate(-90.000000) translate(-1.616201, -3.734164) " cx="1.61620115" cy="3.7341641" rx="1.07746743" ry="1.60035604"></ellipse>
                                        <ellipse id="Oval-2" transform="translate(3.771136, 5.867972) rotate(-180.000000) translate(-3.771136, -5.867972) " cx="3.77113602" cy="5.86797216" rx="1.07746743" ry="1.60035604"></ellipse>
                                    </g>
                                </g>
                                <path d="M6.37756861,6.40142417 C5.78326317,6.40142417 5.30010117,5.922859 5.30010117,5.33446294 C5.30010117,4.74606688 5.78326317,4.26761611 6.37756861,4.26761611 C6.97175851,4.26761611 7.45503604,4.74606688 7.45503604,5.33446294 C7.45503604,5.922859 6.97175851,6.40142417 6.37756861,6.40142417" id="Fill-4" fill="#FFE48F"></path>
                            </g>
                            <path d="M25.4313584,50.10723 L71.2970624,50.10723 L71.2970624,59.4407149 L71.2970624,59.4407149 C71.2970624,61.6498539 69.5062014,63.4407149 67.2970624,63.4407149 L29.4313584,63.4407149 L29.4313584,63.4407149 C27.2222194,63.4407149 25.4313584,61.6498539 25.4313584,59.4407149 L25.4313584,50.10723 Z" id="Rectangle-6-Copy" fill="#B9DA8D" transform="translate(48.364210, 56.773972) scale(-1, 1) rotate(18.000000) translate(-48.364210, -56.773972) "></path>
                            <path d="M44.190986,33.4691616 L44.190986,33.4691616 L44.190986,33.4691616 C48.8997799,33.4691616 52.7170115,37.2863932 52.7170115,41.9951871 L52.7170115,50.5297842 L35.6649604,50.5297842 L35.6649604,41.9951871 L35.6649604,41.9951871 C35.6649604,37.2863932 39.4821921,33.4691616 44.190986,33.4691616 Z" id="Rectangle-Copy-9" fill="#FFFFFF" transform="translate(44.190986, 41.999473) rotate(-18.000000) translate(-44.190986, -41.999473) "></path>
                            <path d="M53.1725622,56.5895985 L51.9483963,57.8017629 C51.8938723,57.8565673 51.8112052,57.8731037 51.7394719,57.8435552 C51.6677386,57.8140067 51.6213072,57.7442918 51.622126,57.6673651 L51.622126,57.2357416 C51.622126,57.1315399 51.5368175,57.0470678 51.4315842,57.0470678 L50.7607726,57.0470678 C50.6555392,57.0470678 50.5702308,57.1315399 50.5702308,57.2357416 L50.5702308,58.1015732 C50.5702308,58.2057749 50.6555392,58.290247 50.7607726,58.290247 L50.9852465,58.290247 C51.0629349,58.2894362 51.13334,58.3354124 51.163181,58.4064424 C51.1930221,58.4774725 51.176322,58.5593291 51.1209749,58.6133185 L49.896809,59.8254828 C49.8234635,59.8937557 49.7091383,59.8937557 49.6357928,59.8254828 L48.4116268,58.6133185 C48.3562797,58.5593291 48.3395796,58.4774725 48.3694207,58.4064424 C48.3992618,58.3354124 48.4696668,58.2894362 48.5473552,58.290247 L48.8083714,58.290247 C48.9136048,58.290247 48.9989132,58.2057749 48.9989132,58.1015732 L48.9989132,57.2486644 C48.9989132,57.1444628 48.9136048,57.0599907 48.8083714,57.0599907 L47.3414604,57.0599907 C47.2362271,57.0599907 47.1509186,57.1444628 47.1509186,57.2486644 L47.1509186,58.1015732 C47.1509186,58.2057749 47.2362271,58.290247 47.3414604,58.290247 L47.6181376,58.290247 C47.695826,58.2894362 47.766231,58.3354124 47.7960721,58.4064424 C47.8259132,58.4774725 47.8092131,58.5593291 47.753866,58.6133185 L46.5297,59.8254828 C46.4563545,59.8937557 46.3420293,59.8937557 46.2686838,59.8254828 L45.0445179,58.6133185 C44.9891708,58.5593291 44.9724707,58.4774725 45.0023118,58.4064424 C45.0321528,58.3354124 45.1025579,58.2894362 45.1802463,58.290247 L45.3786186,58.290247 C45.4838519,58.290247 45.5691604,58.2057749 45.5691604,58.1015732 L45.5691604,57.2357416 C45.5691604,57.1315399 45.4838519,57.0470678 45.3786186,57.0470678 L44.7182476,57.0470678 C44.6130143,57.0470678 44.5277058,57.1315399 44.5277058,57.2357416 L44.5277058,57.662196 C44.5285246,57.7391227 44.4820932,57.8088375 44.4103599,57.838386 C44.3386266,57.8679345 44.2559595,57.8513982 44.2014356,57.7965937 L42.9877102,56.5895985 C42.9187614,56.5169721 42.9187614,56.4037677 42.9877102,56.3311413 L44.2118762,55.118977 C44.2664001,55.0641725 44.3490673,55.0476362 44.4208006,55.0771847 C44.4925339,55.1067332 44.5389653,55.176448 44.5381464,55.2533747 L44.5381464,55.6798291 C44.5381464,55.7840308 44.6234549,55.8685029 44.7286883,55.8685029 L45.3786186,55.8685029 C45.4838519,55.8685029 45.5691604,55.7840308 45.5691604,55.6798291 L45.5691604,54.8010746 C45.5691604,54.696873 45.4838519,54.6124008 45.3786186,54.6124008 L45.1619752,54.6124008 C45.0842868,54.6132116 45.0138817,54.5672355 44.9840406,54.4962054 C44.9541996,54.4251754 44.9708997,54.3433187 45.0262467,54.2893293 L46.2504127,53.077165 C46.3237582,53.0088921 46.4380834,53.0088921 46.5114289,53.077165 L47.7277644,54.2867447 C47.7831114,54.3407341 47.7998115,54.4225908 47.7699705,54.4936208 C47.7401294,54.5646509 47.6697243,54.6106271 47.5920359,54.6098163 L47.3153588,54.6098163 C47.2101254,54.6098163 47.124817,54.6942884 47.124817,54.79849 L47.124817,55.6462297 C47.124817,55.7504313 47.2101254,55.8349035 47.3153588,55.8349035 L48.7822698,55.8349035 C48.8875031,55.8349035 48.9728116,55.7504313 48.9728116,55.6462297 L48.9728116,54.79849 C48.9728116,54.6942884 48.8875031,54.6098163 48.7822698,54.6098163 L48.5212536,54.6098163 C48.4435652,54.6106271 48.3731601,54.5646509 48.3433191,54.4936208 C48.313478,54.4225908 48.3301781,54.3407341 48.3855252,54.2867447 L49.6096911,53.0745804 C49.6830366,53.0063075 49.7973619,53.0063075 49.8707073,53.0745804 L51.1209749,54.2867447 C51.176322,54.3407341 51.1930221,54.4225908 51.163181,54.4936208 C51.13334,54.5646509 51.0629349,54.6106271 50.9852465,54.6098163 L50.7607726,54.6098163 C50.6555392,54.6098163 50.5702308,54.6942884 50.5702308,54.79849 L50.5702308,55.6643217 C50.5702308,55.7685233 50.6555392,55.8529955 50.7607726,55.8529955 L51.4315842,55.8529955 C51.5368175,55.8529955 51.622126,55.7685233 51.622126,55.6643217 L51.622126,55.2404519 C51.6213072,55.1635251 51.6677386,55.0938103 51.7394719,55.0642618 C51.8112052,55.0347133 51.8938723,55.0512497 51.9483963,55.1060541 L53.1725622,56.3311413 C53.2415111,56.4037677 53.2415111,56.5169721 53.1725622,56.5895985 L53.1725622,56.5895985 Z" id="Shape" fill="#FFFFFF" fill-rule="nonzero" transform="translate(48.080136, 56.450032) scale(-1, 1) rotate(18.000000) translate(-48.080136, -56.450032) "></path>
                            <g id="Group-4" transform="translate(24.023437, 26.171700) rotate(-18.000000) translate(-24.023437, -26.171700) translate(10.023437, 3.671700)" fill-rule="nonzero">
                                <path d="M0,2.65391524 L0,35.6831164 C0,40.3449903 3.83085461,44.1382875 8.53888565,44.1382875 L17.1189132,44.1382875 C17.1041642,44.0714148 17.0777713,44.0083853 17.0777713,43.9369007 L17.0777713,39.7285315 C17.0777713,39.6570468 17.1041642,39.5940174 17.1189132,39.5271447 L8.53888565,39.5271447 C6.3987304,39.5271447 4.65757399,37.8030584 4.65757399,35.6838851 L4.65757399,2.65391524 L4.65757399,2.65391524 C4.65757399,1.3677617 3.61494054,0.325128248 2.328787,0.325128248 L2.328787,0.325128248 L2.328787,0.325128248 C1.04263345,0.325128248 -1.57508382e-16,1.3677617 0,2.65391524 Z" id="Shape" fill="#627B8F"></path>
                                <path d="M2.328787,0.325128248 L2.328787,0.325128248 L2.328787,0.325128248 C3.61494054,0.325128248 4.65757399,1.3677617 4.65757399,2.65391524 L4.65757399,7.2429955 L0,7.2429955 L0,2.65391524 L0,2.65391524 C-1.57508382e-16,1.3677617 1.04263345,0.325128248 2.328787,0.325128248 Z" id="Rectangle-path" fill="#54C7F1"></path>
                                <path d="M26.9658009,44.9069394 L18.0574144,44.9069394 C17.5163595,44.9069394 17.0777713,44.4726511 17.0777713,43.9369007 L17.0777713,39.7285315 C17.0777713,39.1920124 17.5163595,38.7577241 18.0574144,38.7577241 L26.9650246,38.7577241 C27.5068557,38.7577241 27.945444,39.1920124 27.945444,39.7277628 L27.945444,43.9361321 C27.945444,44.4726511 27.5068557,44.9069394 26.9658009,44.9069394 Z" id="Shape" fill="#BDC3C7"></path>
                            </g>
                            <g id="Group-3" transform="translate(38.255586, 31.102353) rotate(-18.000000) translate(-38.255586, -31.102353) translate(16.755586, 20.602353)" fill-rule="nonzero">
                                <path d="M42.0265245,7.79878659 L42.0218774,11.5060472 L42.0218774,13.84522 C42.0489852,14.5615174 41.9467503,16.4327867 40.392315,18.1338012 C38.7627525,19.9161085 36.1836447,20.8202998 32.6704815,20.8202998 C29.3826999,20.7597136 25.9245268,19.6070423 24.0556417,17.2503167 C23.7326723,16.8423186 23.134753,16.8423186 22.8110092,17.2503167 C20.9428986,19.6078093 17.4847255,20.7597136 14.1938458,20.8202998 C10.6814572,20.8202998 8.10467283,19.9161085 6.47511038,18.1330343 C4.92067511,16.4320198 4.81921471,14.5607505 4.86955765,14.1795944 L4.86955765,9.54044751 C4.84554794,9.18153192 4.85019498,9.16005834 4.85019498,9.13705093 L4.85019498,7.79878659 C4.85019498,3.4933333 8.37575023,0.00234232508 12.7238318,0.00234232508 L15.8125651,0.00234232508 L31.0556347,0.00234232508 L34.1528877,0.00234232508 C38.5009692,0.00234232508 42.0265245,3.4933333 42.0265245,7.79878659 Z M15.8125651,3.06999696 C14.1404048,3.06999696 12.4728915,3.4595891 11.0416029,4.31623166 C9.49258913,5.24266336 7.9435754,6.77649068 7.9435754,9.20530624 L7.9435754,13.9180768 C7.9435754,13.9180768 7.55632197,17.7526451 14.1396303,17.7526451 C14.1396303,17.7526451 21.1101921,17.6245705 21.1101921,13.1511632 C21.1148391,11.8803872 22.1550019,10.8504222 23.4383597,10.8504222 C24.7217176,10.8504222 25.7618803,11.8803872 25.7618803,13.1511632 C25.7572333,17.6245705 32.7277951,17.7526451 32.7277951,17.7526451 C39.3111034,17.7526451 38.92385,13.9180768 38.92385,13.9180768 L38.92385,9.20530624 C38.92385,6.77649068 37.3748362,5.24266336 35.8258225,4.31623166 C34.3945338,3.4595891 32.7277951,3.06999696 31.0548602,3.06999696 L15.8125651,3.06999696 Z" id="Combined-Shape" fill="#FF9012"></path>
                                <rect id="Rectangle-path" fill="#BDC3C7" x="0.00142420172" y="8.87749372" width="4.84840887" height="3.06765464"></rect>
                            </g>
                        </g>
                    </g>
                </g>
                <g id="containers" transform="translate(511.304702, 21.493440) rotate(8.000000) translate(-511.304702, -21.493440) translate(490.304702, 3.493440)">
                    <g id="container" transform="translate(7.077037, 0.260966)">
                        <g id="Group-3" transform="translate(0.000000, 10.864311)">
                            <mask id="mask-2" fill="white">
                                <use xlink:href="#path-1"></use>
                            </mask>
                            <g id="Clip-2"></g>
                            <path d="M13.7759007,0.0733831121 L13.7759007,10.8766814 C13.7759007,11.7483508 13.0921393,12.4544743 12.2479075,12.4544743 L1.52864373,12.4544743 C0.684411913,12.4544743 0.000515023421,11.7483508 0.000515023421,10.8766814 L0.000515023421,0.0733831121 L0.737947242,0.0733831121 L0.737947242,0.164062473 C0.737947242,0.373128776 1.04343745,0.542732765 1.42536798,0.542732765 L12.2744719,0.542732765 C12.652743,0.542732765 12.9622992,0.373128776 12.9622992,0.164062473 L12.9622992,0.0733831121 L13.7759007,0.0733831121 Z" id="Fill-1" fill="#009AD7" mask="url(#mask-2)"></path>
                        </g>
                        <path d="M12.9627736,10.9376941 L12.9627736,11.0456457 C12.9627736,11.2945342 12.6533529,11.4964437 12.2750818,11.4964437 L1.42597787,11.4964437 C1.04391181,11.4964437 0.738421606,11.2945342 0.738421606,11.0456457 L0.738421606,10.9376941 L12.9627736,10.9376941 Z" id="Fill-4" fill="#E2F0F7"></path>
                        <path d="M12.9627736,10.783875 L12.9627736,11.0283455 C12.9627736,11.2374118 12.6533529,11.4070157 12.2750818,11.4070157 L1.42597787,11.4070157 C1.04391181,11.4070157 0.738421606,11.2374118 0.738421606,11.0283455 L0.738421606,10.783875 C0.738421606,10.5748087 1.04391181,10.4052047 1.42597787,10.4052047 L12.2750818,10.4052047 C12.6533529,10.4052047 12.9627736,10.5748087 12.9627736,10.783875" id="Fill-6" fill="#F3FCFF"></path>
                        <path d="M12.9627736,10.783875 L12.9627736,11.0283455 C12.9627736,11.2374118 12.6533529,11.4070157 12.2750818,11.4070157 L1.42597787,11.4070157 C1.04391181,11.4070157 0.738421606,11.2374118 0.738421606,11.0283455 L0.738421606,10.783875 C0.738421606,10.5748087 1.04391181,10.4052047 1.42597787,10.4052047 L12.2750818,10.4052047 C12.6533529,10.4052047 12.9627736,10.5748087 12.9627736,10.783875" id="Fill-8" fill="#009AD7"></path>
                        <g id="Group-12" transform="translate(0.000000, 9.884750)">
                            <mask id="mask-4" fill="white">
                                <use xlink:href="#path-3"></use>
                            </mask>
                            <g id="Clip-11"></g>
                            <path d="M12.9627736,1.14360947 C12.9627736,1.35267577 12.6533529,1.52227976 12.2750818,1.52227976 L1.42597787,1.52227976 C1.04391181,1.52227976 0.738421606,1.35267577 0.738421606,1.14360947 L0.738421606,0.899139035 C0.738421606,0.690072732 1.04391181,0.520468743 1.42597787,0.520468743 L12.2750818,0.520468743 C12.6533529,0.520468743 12.9627736,0.690072732 12.9627736,0.899139035 L12.9627736,1.14360947 Z M13.0008582,0.0194932638 L0.7763707,0.0194932638 C0.344835287,0.0194932638 0.000989387097,0.378432399 0.000989387097,0.820214407 L0.000989387097,1.33294462 C0.000989387097,1.77472663 0.344835287,2.13366576 0.7763707,2.13366576 L13.0008582,2.13366576 C13.4287342,2.13366576 13.776375,1.77472663 13.776375,1.33294462 L13.776375,0.820214407 C13.776375,0.378432399 13.4287342,0.0194932638 13.0008582,0.0194932638 L13.0008582,0.0194932638 Z" id="Fill-10" fill="#35CCFF" mask="url(#mask-4)"></path>
                        </g>
                        <path d="M6.58639057,2.79874569e-05 C4.48550161,2.79874569e-05 3.36410588,6.76501614 3.36410588,8.0800068 C3.36410588,9.9145846 4.80955977,11.4071557 6.58639057,11.4071557 C8.36322137,11.4071557 9.80867526,9.9145846 9.80867526,8.0800068 C9.80881079,6.76515608 8.68741506,2.79874569e-05 6.58639057,2.79874569e-05" id="Fill-13" fill="#BFEC80"></path>
                        <path d="M4.74505986,8.08004878 C4.74505986,6.91758976 5.62209053,1.49893822 7.2769421,0.257134761 C7.0599546,0.0942477612 6.82995598,6.99686423e-05 6.58640412,6.99686423e-05 C4.48551516,6.99686423e-05 3.36411943,6.76505812 3.36411943,8.08004878 C3.36411943,9.91462659 4.80970885,11.4070577 6.58640412,11.4070577 C6.82358596,11.4070577 7.05426224,11.3786505 7.2769421,11.328273 C5.83121715,11.0008198 4.74505986,9.66973634 4.74505986,8.08004878" id="Fill-15" fill="#AAE655"></path>
                        <path d="M7.83251684,7.74400339 C7.65266524,7.55830661 7.36140594,7.55830661 7.18155434,7.74400339 L7.04683506,7.88324099 L7.04683506,7.12939883 C7.04683506,6.86687649 6.84069016,6.65403188 6.58643123,6.65403188 C6.3321723,6.65403188 6.12602739,6.86687649 6.12602739,7.12939883 L6.12602739,8.83383496 L5.99130811,8.69459736 C5.81145651,8.50890059 5.52006168,8.50890059 5.34021008,8.69459736 C5.16049401,8.88029414 5.16049401,9.18101937 5.34021008,9.36671614 L6.12616293,10.1780725 L6.12616293,11.4070018 L7.04683506,11.4070018 L7.04683506,9.22747854 L7.83251684,8.41612217 C8.01236844,8.23042539 8.01236844,7.92970017 7.83251684,7.74400339" id="Fill-17" fill="#759684"></path>
                        <g id="Group-21" transform="translate(0.000000, 10.864311)" fill="#35CCFF">
                            <path d="M13.7753721,0.0733831121 L13.7753721,0.353397619 C13.7753721,0.795179626 13.4277313,1.15411876 12.9998552,1.15411876 L0.775503292,1.15411876 C0.343696814,1.15411876 -1.35532479e-05,0.795179626 -1.35532479e-05,0.353397619 L-1.35532479e-05,0.0733831121 L0.737418665,0.0733831121 L0.737418665,0.164062473 C0.737418665,0.373128776 1.04290887,0.542732765 1.4248394,0.542732765 L12.2739433,0.542732765 C12.6522144,0.542732765 12.9617706,0.373128776 12.9617706,0.164062473 L12.9617706,0.0733831121 L13.7753721,0.0733831121 Z" id="Fill-19"></path>
                        </g>
                        <path d="M2.95890442,21.9059505 L2.54837654,21.9059505 C2.28828972,21.9059505 2.07740118,21.688208 2.07740118,21.4195285 L2.07740118,13.6325783 C2.07740118,13.3640387 2.28828972,13.1462963 2.54837654,13.1462963 L2.95890442,13.1462963 C3.21899125,13.1462963 3.43001532,13.3640387 3.43001532,13.6325783 L3.43001532,21.4195285 C3.43001532,21.688208 3.21899125,21.9059505 2.95890442,21.9059505" id="Fill-22" fill="#35CCFF"></path>
                        <path d="M5.7215036,21.9059505 L5.31097573,21.9059505 C5.05075337,21.9059505 4.83986483,21.688208 4.83986483,21.4195285 L4.83986483,13.6325783 C4.83986483,13.3640387 5.05075337,13.1462963 5.31097573,13.1462963 L5.7215036,13.1462963 C5.98159043,13.1462963 6.1926145,13.3640387 6.1926145,13.6325783 L6.1926145,21.4195285 C6.1926145,21.688208 5.98159043,21.9059505 5.7215036,21.9059505" id="Fill-24" fill="#35CCFF"></path>
                        <path d="M8.47523896,21.9059505 L8.06471108,21.9059505 C7.80462425,21.9059505 7.59373572,21.688208 7.59373572,21.4195285 L7.59373572,13.6325783 C7.59373572,13.3640387 7.80462425,13.1462963 8.06471108,13.1462963 L8.47523896,13.1462963 C8.73546132,13.1462963 8.94634986,13.3640387 8.94634986,13.6325783 L8.94634986,21.4195285 C8.94634986,21.688208 8.73546132,21.9059505 8.47523896,21.9059505" id="Fill-26" fill="#35CCFF"></path>
                        <path d="M11.2290421,21.9059505 L10.8185142,21.9059505 C10.5584274,21.9059505 10.3475388,21.688208 10.3475388,21.4195285 L10.3475388,13.6325783 C10.3475388,13.3640387 10.5584274,13.1462963 10.8185142,13.1462963 L11.2290421,13.1462963 C11.4891289,13.1462963 11.700153,13.3640387 11.700153,13.6325783 L11.700153,21.4195285 C11.700153,21.688208 11.4891289,21.9059505 11.2290421,21.9059505" id="Fill-28" fill="#35CCFF"></path>
                    </g>
                    <g id="container-copy-2" transform="translate(0.000000, 11.743459)">
                        <g id="Group-3" transform="translate(0.000000, 10.864311)">
                            <mask id="mask-6" fill="white">
                                <use xlink:href="#path-5"></use>
                            </mask>
                            <g id="Clip-2"></g>
                            <path d="M13.7759007,0.0733831121 L13.7759007,10.8766814 C13.7759007,11.7483508 13.0921393,12.4544743 12.2479075,12.4544743 L1.52864373,12.4544743 C0.684411913,12.4544743 0.000515023421,11.7483508 0.000515023421,10.8766814 L0.000515023421,0.0733831121 L0.737947242,0.0733831121 L0.737947242,0.164062473 C0.737947242,0.373128776 1.04343745,0.542732765 1.42536798,0.542732765 L12.2744719,0.542732765 C12.652743,0.542732765 12.9622992,0.373128776 12.9622992,0.164062473 L12.9622992,0.0733831121 L13.7759007,0.0733831121 Z" id="Fill-1" fill="#009AD7" mask="url(#mask-6)"></path>
                        </g>
                        <path d="M12.9627736,10.9376941 L12.9627736,11.0456457 C12.9627736,11.2945342 12.6533529,11.4964437 12.2750818,11.4964437 L1.42597787,11.4964437 C1.04391181,11.4964437 0.738421606,11.2945342 0.738421606,11.0456457 L0.738421606,10.9376941 L12.9627736,10.9376941 Z" id="Fill-4" fill="#E2F0F7"></path>
                        <path d="M12.9627736,10.783875 L12.9627736,11.0283455 C12.9627736,11.2374118 12.6533529,11.4070157 12.2750818,11.4070157 L1.42597787,11.4070157 C1.04391181,11.4070157 0.738421606,11.2374118 0.738421606,11.0283455 L0.738421606,10.783875 C0.738421606,10.5748087 1.04391181,10.4052047 1.42597787,10.4052047 L12.2750818,10.4052047 C12.6533529,10.4052047 12.9627736,10.5748087 12.9627736,10.783875" id="Fill-6" fill="#F3FCFF"></path>
                        <path d="M12.9627736,10.783875 L12.9627736,11.0283455 C12.9627736,11.2374118 12.6533529,11.4070157 12.2750818,11.4070157 L1.42597787,11.4070157 C1.04391181,11.4070157 0.738421606,11.2374118 0.738421606,11.0283455 L0.738421606,10.783875 C0.738421606,10.5748087 1.04391181,10.4052047 1.42597787,10.4052047 L12.2750818,10.4052047 C12.6533529,10.4052047 12.9627736,10.5748087 12.9627736,10.783875" id="Fill-8" fill="#009AD7"></path>
                        <g id="Group-12" transform="translate(0.000000, 9.884750)">
                            <mask id="mask-8" fill="white">
                                <use xlink:href="#path-7"></use>
                            </mask>
                            <g id="Clip-11"></g>
                            <path d="M12.9627736,1.14360947 C12.9627736,1.35267577 12.6533529,1.52227976 12.2750818,1.52227976 L1.42597787,1.52227976 C1.04391181,1.52227976 0.738421606,1.35267577 0.738421606,1.14360947 L0.738421606,0.899139035 C0.738421606,0.690072732 1.04391181,0.520468743 1.42597787,0.520468743 L12.2750818,0.520468743 C12.6533529,0.520468743 12.9627736,0.690072732 12.9627736,0.899139035 L12.9627736,1.14360947 Z M13.0008582,0.0194932638 L0.7763707,0.0194932638 C0.344835287,0.0194932638 0.000989387097,0.378432399 0.000989387097,0.820214407 L0.000989387097,1.33294462 C0.000989387097,1.77472663 0.344835287,2.13366576 0.7763707,2.13366576 L13.0008582,2.13366576 C13.4287342,2.13366576 13.776375,1.77472663 13.776375,1.33294462 L13.776375,0.820214407 C13.776375,0.378432399 13.4287342,0.0194932638 13.0008582,0.0194932638 L13.0008582,0.0194932638 Z" id="Fill-10" fill="#35CCFF" mask="url(#mask-8)"></path>
                        </g>
                        <path d="M6.58639057,2.79874569e-05 C4.48550161,2.79874569e-05 3.36410588,6.76501614 3.36410588,8.0800068 C3.36410588,9.9145846 4.80955977,11.4071557 6.58639057,11.4071557 C8.36322137,11.4071557 9.80867526,9.9145846 9.80867526,8.0800068 C9.80881079,6.76515608 8.68741506,2.79874569e-05 6.58639057,2.79874569e-05" id="Fill-13" fill="#BFEC80"></path>
                        <path d="M4.74505986,8.08004878 C4.74505986,6.91758976 5.62209053,1.49893822 7.2769421,0.257134761 C7.0599546,0.0942477612 6.82995598,6.99686423e-05 6.58640412,6.99686423e-05 C4.48551516,6.99686423e-05 3.36411943,6.76505812 3.36411943,8.08004878 C3.36411943,9.91462659 4.80970885,11.4070577 6.58640412,11.4070577 C6.82358596,11.4070577 7.05426224,11.3786505 7.2769421,11.328273 C5.83121715,11.0008198 4.74505986,9.66973634 4.74505986,8.08004878" id="Fill-15" fill="#AAE655"></path>
                        <path d="M7.83251684,7.74400339 C7.65266524,7.55830661 7.36140594,7.55830661 7.18155434,7.74400339 L7.04683506,7.88324099 L7.04683506,7.12939883 C7.04683506,6.86687649 6.84069016,6.65403188 6.58643123,6.65403188 C6.3321723,6.65403188 6.12602739,6.86687649 6.12602739,7.12939883 L6.12602739,8.83383496 L5.99130811,8.69459736 C5.81145651,8.50890059 5.52006168,8.50890059 5.34021008,8.69459736 C5.16049401,8.88029414 5.16049401,9.18101937 5.34021008,9.36671614 L6.12616293,10.1780725 L6.12616293,11.4070018 L7.04683506,11.4070018 L7.04683506,9.22747854 L7.83251684,8.41612217 C8.01236844,8.23042539 8.01236844,7.92970017 7.83251684,7.74400339" id="Fill-17" fill="#759684"></path>
                        <g id="Group-21" transform="translate(0.000000, 10.864311)" fill="#35CCFF">
                            <path d="M13.7753721,0.0733831121 L13.7753721,0.353397619 C13.7753721,0.795179626 13.4277313,1.15411876 12.9998552,1.15411876 L0.775503292,1.15411876 C0.343696814,1.15411876 -1.35532479e-05,0.795179626 -1.35532479e-05,0.353397619 L-1.35532479e-05,0.0733831121 L0.737418665,0.0733831121 L0.737418665,0.164062473 C0.737418665,0.373128776 1.04290887,0.542732765 1.4248394,0.542732765 L12.2739433,0.542732765 C12.6522144,0.542732765 12.9617706,0.373128776 12.9617706,0.164062473 L12.9617706,0.0733831121 L13.7753721,0.0733831121 Z" id="Fill-19"></path>
                        </g>
                        <path d="M2.95890442,21.9059505 L2.54837654,21.9059505 C2.28828972,21.9059505 2.07740118,21.688208 2.07740118,21.4195285 L2.07740118,13.6325783 C2.07740118,13.3640387 2.28828972,13.1462963 2.54837654,13.1462963 L2.95890442,13.1462963 C3.21899125,13.1462963 3.43001532,13.3640387 3.43001532,13.6325783 L3.43001532,21.4195285 C3.43001532,21.688208 3.21899125,21.9059505 2.95890442,21.9059505" id="Fill-22" fill="#35CCFF"></path>
                        <path d="M5.7215036,21.9059505 L5.31097573,21.9059505 C5.05075337,21.9059505 4.83986483,21.688208 4.83986483,21.4195285 L4.83986483,13.6325783 C4.83986483,13.3640387 5.05075337,13.1462963 5.31097573,13.1462963 L5.7215036,13.1462963 C5.98159043,13.1462963 6.1926145,13.3640387 6.1926145,13.6325783 L6.1926145,21.4195285 C6.1926145,21.688208 5.98159043,21.9059505 5.7215036,21.9059505" id="Fill-24" fill="#35CCFF"></path>
                        <path d="M8.47523896,21.9059505 L8.06471108,21.9059505 C7.80462425,21.9059505 7.59373572,21.688208 7.59373572,21.4195285 L7.59373572,13.6325783 C7.59373572,13.3640387 7.80462425,13.1462963 8.06471108,13.1462963 L8.47523896,13.1462963 C8.73546132,13.1462963 8.94634986,13.3640387 8.94634986,13.6325783 L8.94634986,21.4195285 C8.94634986,21.688208 8.73546132,21.9059505 8.47523896,21.9059505" id="Fill-26" fill="#35CCFF"></path>
                        <path d="M11.2290421,21.9059505 L10.8185142,21.9059505 C10.5584274,21.9059505 10.3475388,21.688208 10.3475388,21.4195285 L10.3475388,13.6325783 C10.3475388,13.3640387 10.5584274,13.1462963 10.8185142,13.1462963 L11.2290421,13.1462963 C11.4891289,13.1462963 11.700153,13.3640387 11.700153,13.6325783 L11.700153,21.4195285 C11.700153,21.688208 11.4891289,21.9059505 11.2290421,21.9059505" id="Fill-28" fill="#35CCFF"></path>
                    </g>
                    <g id="container-copy" transform="translate(20.725609, 0.260966)">
                        <g id="Group-3" transform="translate(0.000000, 10.864311)">
                            <mask id="mask-10" fill="white">
                                <use xlink:href="#path-9"></use>
                            </mask>
                            <g id="Clip-2"></g>
                            <path d="M13.7759007,0.0733831121 L13.7759007,10.8766814 C13.7759007,11.7483508 13.0921393,12.4544743 12.2479075,12.4544743 L1.52864373,12.4544743 C0.684411913,12.4544743 0.000515023421,11.7483508 0.000515023421,10.8766814 L0.000515023421,0.0733831121 L0.737947242,0.0733831121 L0.737947242,0.164062473 C0.737947242,0.373128776 1.04343745,0.542732765 1.42536798,0.542732765 L12.2744719,0.542732765 C12.652743,0.542732765 12.9622992,0.373128776 12.9622992,0.164062473 L12.9622992,0.0733831121 L13.7759007,0.0733831121 Z" id="Fill-1" fill="#009AD7" mask="url(#mask-10)"></path>
                        </g>
                        <path d="M12.9627736,10.9376941 L12.9627736,11.0456457 C12.9627736,11.2945342 12.6533529,11.4964437 12.2750818,11.4964437 L1.42597787,11.4964437 C1.04391181,11.4964437 0.738421606,11.2945342 0.738421606,11.0456457 L0.738421606,10.9376941 L12.9627736,10.9376941 Z" id="Fill-4" fill="#E2F0F7"></path>
                        <path d="M12.9627736,10.783875 L12.9627736,11.0283455 C12.9627736,11.2374118 12.6533529,11.4070157 12.2750818,11.4070157 L1.42597787,11.4070157 C1.04391181,11.4070157 0.738421606,11.2374118 0.738421606,11.0283455 L0.738421606,10.783875 C0.738421606,10.5748087 1.04391181,10.4052047 1.42597787,10.4052047 L12.2750818,10.4052047 C12.6533529,10.4052047 12.9627736,10.5748087 12.9627736,10.783875" id="Fill-6" fill="#F3FCFF"></path>
                        <path d="M12.9627736,10.783875 L12.9627736,11.0283455 C12.9627736,11.2374118 12.6533529,11.4070157 12.2750818,11.4070157 L1.42597787,11.4070157 C1.04391181,11.4070157 0.738421606,11.2374118 0.738421606,11.0283455 L0.738421606,10.783875 C0.738421606,10.5748087 1.04391181,10.4052047 1.42597787,10.4052047 L12.2750818,10.4052047 C12.6533529,10.4052047 12.9627736,10.5748087 12.9627736,10.783875" id="Fill-8" fill="#009AD7"></path>
                        <g id="Group-12" transform="translate(0.000000, 9.884750)">
                            <mask id="mask-12" fill="white">
                                <use xlink:href="#path-11"></use>
                            </mask>
                            <g id="Clip-11"></g>
                            <path d="M12.9627736,1.14360947 C12.9627736,1.35267577 12.6533529,1.52227976 12.2750818,1.52227976 L1.42597787,1.52227976 C1.04391181,1.52227976 0.738421606,1.35267577 0.738421606,1.14360947 L0.738421606,0.899139035 C0.738421606,0.690072732 1.04391181,0.520468743 1.42597787,0.520468743 L12.2750818,0.520468743 C12.6533529,0.520468743 12.9627736,0.690072732 12.9627736,0.899139035 L12.9627736,1.14360947 Z M13.0008582,0.0194932638 L0.7763707,0.0194932638 C0.344835287,0.0194932638 0.000989387097,0.378432399 0.000989387097,0.820214407 L0.000989387097,1.33294462 C0.000989387097,1.77472663 0.344835287,2.13366576 0.7763707,2.13366576 L13.0008582,2.13366576 C13.4287342,2.13366576 13.776375,1.77472663 13.776375,1.33294462 L13.776375,0.820214407 C13.776375,0.378432399 13.4287342,0.0194932638 13.0008582,0.0194932638 L13.0008582,0.0194932638 Z" id="Fill-10" fill="#35CCFF" mask="url(#mask-12)"></path>
                        </g>
                        <path d="M6.58639057,2.79874569e-05 C4.48550161,2.79874569e-05 3.36410588,6.76501614 3.36410588,8.0800068 C3.36410588,9.9145846 4.80955977,11.4071557 6.58639057,11.4071557 C8.36322137,11.4071557 9.80867526,9.9145846 9.80867526,8.0800068 C9.80881079,6.76515608 8.68741506,2.79874569e-05 6.58639057,2.79874569e-05" id="Fill-13" fill="#BFEC80"></path>
                        <path d="M4.74505986,8.08004878 C4.74505986,6.91758976 5.62209053,1.49893822 7.2769421,0.257134761 C7.0599546,0.0942477612 6.82995598,6.99686423e-05 6.58640412,6.99686423e-05 C4.48551516,6.99686423e-05 3.36411943,6.76505812 3.36411943,8.08004878 C3.36411943,9.91462659 4.80970885,11.4070577 6.58640412,11.4070577 C6.82358596,11.4070577 7.05426224,11.3786505 7.2769421,11.328273 C5.83121715,11.0008198 4.74505986,9.66973634 4.74505986,8.08004878" id="Fill-15" fill="#AAE655"></path>
                        <path d="M7.83251684,7.74400339 C7.65266524,7.55830661 7.36140594,7.55830661 7.18155434,7.74400339 L7.04683506,7.88324099 L7.04683506,7.12939883 C7.04683506,6.86687649 6.84069016,6.65403188 6.58643123,6.65403188 C6.3321723,6.65403188 6.12602739,6.86687649 6.12602739,7.12939883 L6.12602739,8.83383496 L5.99130811,8.69459736 C5.81145651,8.50890059 5.52006168,8.50890059 5.34021008,8.69459736 C5.16049401,8.88029414 5.16049401,9.18101937 5.34021008,9.36671614 L6.12616293,10.1780725 L6.12616293,11.4070018 L7.04683506,11.4070018 L7.04683506,9.22747854 L7.83251684,8.41612217 C8.01236844,8.23042539 8.01236844,7.92970017 7.83251684,7.74400339" id="Fill-17" fill="#759684"></path>
                        <g id="Group-21" transform="translate(0.000000, 10.864311)" fill="#35CCFF">
                            <path d="M13.7753721,0.0733831121 L13.7753721,0.353397619 C13.7753721,0.795179626 13.4277313,1.15411876 12.9998552,1.15411876 L0.775503292,1.15411876 C0.343696814,1.15411876 -1.35532479e-05,0.795179626 -1.35532479e-05,0.353397619 L-1.35532479e-05,0.0733831121 L0.737418665,0.0733831121 L0.737418665,0.164062473 C0.737418665,0.373128776 1.04290887,0.542732765 1.4248394,0.542732765 L12.2739433,0.542732765 C12.6522144,0.542732765 12.9617706,0.373128776 12.9617706,0.164062473 L12.9617706,0.0733831121 L13.7753721,0.0733831121 Z" id="Fill-19"></path>
                        </g>
                        <path d="M2.95890442,21.9059505 L2.54837654,21.9059505 C2.28828972,21.9059505 2.07740118,21.688208 2.07740118,21.4195285 L2.07740118,13.6325783 C2.07740118,13.3640387 2.28828972,13.1462963 2.54837654,13.1462963 L2.95890442,13.1462963 C3.21899125,13.1462963 3.43001532,13.3640387 3.43001532,13.6325783 L3.43001532,21.4195285 C3.43001532,21.688208 3.21899125,21.9059505 2.95890442,21.9059505" id="Fill-22" fill="#35CCFF"></path>
                        <path d="M5.7215036,21.9059505 L5.31097573,21.9059505 C5.05075337,21.9059505 4.83986483,21.688208 4.83986483,21.4195285 L4.83986483,13.6325783 C4.83986483,13.3640387 5.05075337,13.1462963 5.31097573,13.1462963 L5.7215036,13.1462963 C5.98159043,13.1462963 6.1926145,13.3640387 6.1926145,13.6325783 L6.1926145,21.4195285 C6.1926145,21.688208 5.98159043,21.9059505 5.7215036,21.9059505" id="Fill-24" fill="#35CCFF"></path>
                        <path d="M8.47523896,21.9059505 L8.06471108,21.9059505 C7.80462425,21.9059505 7.59373572,21.688208 7.59373572,21.4195285 L7.59373572,13.6325783 C7.59373572,13.3640387 7.80462425,13.1462963 8.06471108,13.1462963 L8.47523896,13.1462963 C8.73546132,13.1462963 8.94634986,13.3640387 8.94634986,13.6325783 L8.94634986,21.4195285 C8.94634986,21.688208 8.73546132,21.9059505 8.47523896,21.9059505" id="Fill-26" fill="#35CCFF"></path>
                        <path d="M11.2290421,21.9059505 L10.8185142,21.9059505 C10.5584274,21.9059505 10.3475388,21.688208 10.3475388,21.4195285 L10.3475388,13.6325783 C10.3475388,13.3640387 10.5584274,13.1462963 10.8185142,13.1462963 L11.2290421,13.1462963 C11.4891289,13.1462963 11.700153,13.3640387 11.700153,13.6325783 L11.700153,21.4195285 C11.700153,21.688208 11.4891289,21.9059505 11.2290421,21.9059505" id="Fill-28" fill="#35CCFF"></path>
                    </g>
                    <g id="container-copy-3" transform="translate(13.648572, 11.743459)">
                        <g id="Group-3" transform="translate(0.000000, 10.864311)">
                            <mask id="mask-14" fill="white">
                                <use xlink:href="#path-13"></use>
                            </mask>
                            <g id="Clip-2"></g>
                            <path d="M13.7759007,0.0733831121 L13.7759007,10.8766814 C13.7759007,11.7483508 13.0921393,12.4544743 12.2479075,12.4544743 L1.52864373,12.4544743 C0.684411913,12.4544743 0.000515023421,11.7483508 0.000515023421,10.8766814 L0.000515023421,0.0733831121 L0.737947242,0.0733831121 L0.737947242,0.164062473 C0.737947242,0.373128776 1.04343745,0.542732765 1.42536798,0.542732765 L12.2744719,0.542732765 C12.652743,0.542732765 12.9622992,0.373128776 12.9622992,0.164062473 L12.9622992,0.0733831121 L13.7759007,0.0733831121 Z" id="Fill-1" fill="#009AD7" mask="url(#mask-14)"></path>
                        </g>
                        <path d="M12.9627736,10.9376941 L12.9627736,11.0456457 C12.9627736,11.2945342 12.6533529,11.4964437 12.2750818,11.4964437 L1.42597787,11.4964437 C1.04391181,11.4964437 0.738421606,11.2945342 0.738421606,11.0456457 L0.738421606,10.9376941 L12.9627736,10.9376941 Z" id="Fill-4" fill="#E2F0F7"></path>
                        <path d="M12.9627736,10.783875 L12.9627736,11.0283455 C12.9627736,11.2374118 12.6533529,11.4070157 12.2750818,11.4070157 L1.42597787,11.4070157 C1.04391181,11.4070157 0.738421606,11.2374118 0.738421606,11.0283455 L0.738421606,10.783875 C0.738421606,10.5748087 1.04391181,10.4052047 1.42597787,10.4052047 L12.2750818,10.4052047 C12.6533529,10.4052047 12.9627736,10.5748087 12.9627736,10.783875" id="Fill-6" fill="#F3FCFF"></path>
                        <path d="M12.9627736,10.783875 L12.9627736,11.0283455 C12.9627736,11.2374118 12.6533529,11.4070157 12.2750818,11.4070157 L1.42597787,11.4070157 C1.04391181,11.4070157 0.738421606,11.2374118 0.738421606,11.0283455 L0.738421606,10.783875 C0.738421606,10.5748087 1.04391181,10.4052047 1.42597787,10.4052047 L12.2750818,10.4052047 C12.6533529,10.4052047 12.9627736,10.5748087 12.9627736,10.783875" id="Fill-8" fill="#009AD7"></path>
                        <g id="Group-12" transform="translate(0.000000, 9.884750)">
                            <mask id="mask-16" fill="white">
                                <use xlink:href="#path-15"></use>
                            </mask>
                            <g id="Clip-11"></g>
                            <path d="M12.9627736,1.14360947 C12.9627736,1.35267577 12.6533529,1.52227976 12.2750818,1.52227976 L1.42597787,1.52227976 C1.04391181,1.52227976 0.738421606,1.35267577 0.738421606,1.14360947 L0.738421606,0.899139035 C0.738421606,0.690072732 1.04391181,0.520468743 1.42597787,0.520468743 L12.2750818,0.520468743 C12.6533529,0.520468743 12.9627736,0.690072732 12.9627736,0.899139035 L12.9627736,1.14360947 Z M13.0008582,0.0194932638 L0.7763707,0.0194932638 C0.344835287,0.0194932638 0.000989387097,0.378432399 0.000989387097,0.820214407 L0.000989387097,1.33294462 C0.000989387097,1.77472663 0.344835287,2.13366576 0.7763707,2.13366576 L13.0008582,2.13366576 C13.4287342,2.13366576 13.776375,1.77472663 13.776375,1.33294462 L13.776375,0.820214407 C13.776375,0.378432399 13.4287342,0.0194932638 13.0008582,0.0194932638 L13.0008582,0.0194932638 Z" id="Fill-10" fill="#35CCFF" mask="url(#mask-16)"></path>
                        </g>
                        <path d="M6.58639057,2.79874569e-05 C4.48550161,2.79874569e-05 3.36410588,6.76501614 3.36410588,8.0800068 C3.36410588,9.9145846 4.80955977,11.4071557 6.58639057,11.4071557 C8.36322137,11.4071557 9.80867526,9.9145846 9.80867526,8.0800068 C9.80881079,6.76515608 8.68741506,2.79874569e-05 6.58639057,2.79874569e-05" id="Fill-13" fill="#BFEC80"></path>
                        <path d="M4.74505986,8.08004878 C4.74505986,6.91758976 5.62209053,1.49893822 7.2769421,0.257134761 C7.0599546,0.0942477612 6.82995598,6.99686423e-05 6.58640412,6.99686423e-05 C4.48551516,6.99686423e-05 3.36411943,6.76505812 3.36411943,8.08004878 C3.36411943,9.91462659 4.80970885,11.4070577 6.58640412,11.4070577 C6.82358596,11.4070577 7.05426224,11.3786505 7.2769421,11.328273 C5.83121715,11.0008198 4.74505986,9.66973634 4.74505986,8.08004878" id="Fill-15" fill="#AAE655"></path>
                        <path d="M7.83251684,7.74400339 C7.65266524,7.55830661 7.36140594,7.55830661 7.18155434,7.74400339 L7.04683506,7.88324099 L7.04683506,7.12939883 C7.04683506,6.86687649 6.84069016,6.65403188 6.58643123,6.65403188 C6.3321723,6.65403188 6.12602739,6.86687649 6.12602739,7.12939883 L6.12602739,8.83383496 L5.99130811,8.69459736 C5.81145651,8.50890059 5.52006168,8.50890059 5.34021008,8.69459736 C5.16049401,8.88029414 5.16049401,9.18101937 5.34021008,9.36671614 L6.12616293,10.1780725 L6.12616293,11.4070018 L7.04683506,11.4070018 L7.04683506,9.22747854 L7.83251684,8.41612217 C8.01236844,8.23042539 8.01236844,7.92970017 7.83251684,7.74400339" id="Fill-17" fill="#759684"></path>
                        <g id="Group-21" transform="translate(0.000000, 10.864311)" fill="#35CCFF">
                            <path d="M13.7753721,0.0733831121 L13.7753721,0.353397619 C13.7753721,0.795179626 13.4277313,1.15411876 12.9998552,1.15411876 L0.775503292,1.15411876 C0.343696814,1.15411876 -1.35532479e-05,0.795179626 -1.35532479e-05,0.353397619 L-1.35532479e-05,0.0733831121 L0.737418665,0.0733831121 L0.737418665,0.164062473 C0.737418665,0.373128776 1.04290887,0.542732765 1.4248394,0.542732765 L12.2739433,0.542732765 C12.6522144,0.542732765 12.9617706,0.373128776 12.9617706,0.164062473 L12.9617706,0.0733831121 L13.7753721,0.0733831121 Z" id="Fill-19"></path>
                        </g>
                        <path d="M2.95890442,21.9059505 L2.54837654,21.9059505 C2.28828972,21.9059505 2.07740118,21.688208 2.07740118,21.4195285 L2.07740118,13.6325783 C2.07740118,13.3640387 2.28828972,13.1462963 2.54837654,13.1462963 L2.95890442,13.1462963 C3.21899125,13.1462963 3.43001532,13.3640387 3.43001532,13.6325783 L3.43001532,21.4195285 C3.43001532,21.688208 3.21899125,21.9059505 2.95890442,21.9059505" id="Fill-22" fill="#35CCFF"></path>
                        <path d="M5.7215036,21.9059505 L5.31097573,21.9059505 C5.05075337,21.9059505 4.83986483,21.688208 4.83986483,21.4195285 L4.83986483,13.6325783 C4.83986483,13.3640387 5.05075337,13.1462963 5.31097573,13.1462963 L5.7215036,13.1462963 C5.98159043,13.1462963 6.1926145,13.3640387 6.1926145,13.6325783 L6.1926145,21.4195285 C6.1926145,21.688208 5.98159043,21.9059505 5.7215036,21.9059505" id="Fill-24" fill="#35CCFF"></path>
                        <path d="M8.47523896,21.9059505 L8.06471108,21.9059505 C7.80462425,21.9059505 7.59373572,21.688208 7.59373572,21.4195285 L7.59373572,13.6325783 C7.59373572,13.3640387 7.80462425,13.1462963 8.06471108,13.1462963 L8.47523896,13.1462963 C8.73546132,13.1462963 8.94634986,13.3640387 8.94634986,13.6325783 L8.94634986,21.4195285 C8.94634986,21.688208 8.73546132,21.9059505 8.47523896,21.9059505" id="Fill-26" fill="#35CCFF"></path>
                        <path d="M11.2290421,21.9059505 L10.8185142,21.9059505 C10.5584274,21.9059505 10.3475388,21.688208 10.3475388,21.4195285 L10.3475388,13.6325783 C10.3475388,13.3640387 10.5584274,13.1462963 10.8185142,13.1462963 L11.2290421,13.1462963 C11.4891289,13.1462963 11.700153,13.3640387 11.700153,13.6325783 L11.700153,21.4195285 C11.700153,21.688208 11.4891289,21.9059505 11.2290421,21.9059505" id="Fill-28" fill="#35CCFF"></path>
                    </g>
                    <g id="container-copy-4" transform="translate(27.297143, 11.743459)">
                        <g id="Group-3" transform="translate(0.000000, 10.864311)">
                            <mask id="mask-18" fill="white">
                                <use xlink:href="#path-17"></use>
                            </mask>
                            <g id="Clip-2"></g>
                            <path d="M13.7759007,0.0733831121 L13.7759007,10.8766814 C13.7759007,11.7483508 13.0921393,12.4544743 12.2479075,12.4544743 L1.52864373,12.4544743 C0.684411913,12.4544743 0.000515023421,11.7483508 0.000515023421,10.8766814 L0.000515023421,0.0733831121 L0.737947242,0.0733831121 L0.737947242,0.164062473 C0.737947242,0.373128776 1.04343745,0.542732765 1.42536798,0.542732765 L12.2744719,0.542732765 C12.652743,0.542732765 12.9622992,0.373128776 12.9622992,0.164062473 L12.9622992,0.0733831121 L13.7759007,0.0733831121 Z" id="Fill-1" fill="#009AD7" mask="url(#mask-18)"></path>
                        </g>
                        <path d="M12.9627736,10.9376941 L12.9627736,11.0456457 C12.9627736,11.2945342 12.6533529,11.4964437 12.2750818,11.4964437 L1.42597787,11.4964437 C1.04391181,11.4964437 0.738421606,11.2945342 0.738421606,11.0456457 L0.738421606,10.9376941 L12.9627736,10.9376941 Z" id="Fill-4" fill="#E2F0F7"></path>
                        <path d="M12.9627736,10.783875 L12.9627736,11.0283455 C12.9627736,11.2374118 12.6533529,11.4070157 12.2750818,11.4070157 L1.42597787,11.4070157 C1.04391181,11.4070157 0.738421606,11.2374118 0.738421606,11.0283455 L0.738421606,10.783875 C0.738421606,10.5748087 1.04391181,10.4052047 1.42597787,10.4052047 L12.2750818,10.4052047 C12.6533529,10.4052047 12.9627736,10.5748087 12.9627736,10.783875" id="Fill-6" fill="#F3FCFF"></path>
                        <path d="M12.9627736,10.783875 L12.9627736,11.0283455 C12.9627736,11.2374118 12.6533529,11.4070157 12.2750818,11.4070157 L1.42597787,11.4070157 C1.04391181,11.4070157 0.738421606,11.2374118 0.738421606,11.0283455 L0.738421606,10.783875 C0.738421606,10.5748087 1.04391181,10.4052047 1.42597787,10.4052047 L12.2750818,10.4052047 C12.6533529,10.4052047 12.9627736,10.5748087 12.9627736,10.783875" id="Fill-8" fill="#009AD7"></path>
                        <g id="Group-12" transform="translate(0.000000, 9.884750)">
                            <mask id="mask-20" fill="white">
                                <use xlink:href="#path-19"></use>
                            </mask>
                            <g id="Clip-11"></g>
                            <path d="M12.9627736,1.14360947 C12.9627736,1.35267577 12.6533529,1.52227976 12.2750818,1.52227976 L1.42597787,1.52227976 C1.04391181,1.52227976 0.738421606,1.35267577 0.738421606,1.14360947 L0.738421606,0.899139035 C0.738421606,0.690072732 1.04391181,0.520468743 1.42597787,0.520468743 L12.2750818,0.520468743 C12.6533529,0.520468743 12.9627736,0.690072732 12.9627736,0.899139035 L12.9627736,1.14360947 Z M13.0008582,0.0194932638 L0.7763707,0.0194932638 C0.344835287,0.0194932638 0.000989387097,0.378432399 0.000989387097,0.820214407 L0.000989387097,1.33294462 C0.000989387097,1.77472663 0.344835287,2.13366576 0.7763707,2.13366576 L13.0008582,2.13366576 C13.4287342,2.13366576 13.776375,1.77472663 13.776375,1.33294462 L13.776375,0.820214407 C13.776375,0.378432399 13.4287342,0.0194932638 13.0008582,0.0194932638 L13.0008582,0.0194932638 Z" id="Fill-10" fill="#35CCFF" mask="url(#mask-20)"></path>
                        </g>
                        <path d="M6.58639057,2.79874569e-05 C4.48550161,2.79874569e-05 3.36410588,6.76501614 3.36410588,8.0800068 C3.36410588,9.9145846 4.80955977,11.4071557 6.58639057,11.4071557 C8.36322137,11.4071557 9.80867526,9.9145846 9.80867526,8.0800068 C9.80881079,6.76515608 8.68741506,2.79874569e-05 6.58639057,2.79874569e-05" id="Fill-13" fill="#BFEC80"></path>
                        <path d="M4.74505986,8.08004878 C4.74505986,6.91758976 5.62209053,1.49893822 7.2769421,0.257134761 C7.0599546,0.0942477612 6.82995598,6.99686423e-05 6.58640412,6.99686423e-05 C4.48551516,6.99686423e-05 3.36411943,6.76505812 3.36411943,8.08004878 C3.36411943,9.91462659 4.80970885,11.4070577 6.58640412,11.4070577 C6.82358596,11.4070577 7.05426224,11.3786505 7.2769421,11.328273 C5.83121715,11.0008198 4.74505986,9.66973634 4.74505986,8.08004878" id="Fill-15" fill="#AAE655"></path>
                        <path d="M7.83251684,7.74400339 C7.65266524,7.55830661 7.36140594,7.55830661 7.18155434,7.74400339 L7.04683506,7.88324099 L7.04683506,7.12939883 C7.04683506,6.86687649 6.84069016,6.65403188 6.58643123,6.65403188 C6.3321723,6.65403188 6.12602739,6.86687649 6.12602739,7.12939883 L6.12602739,8.83383496 L5.99130811,8.69459736 C5.81145651,8.50890059 5.52006168,8.50890059 5.34021008,8.69459736 C5.16049401,8.88029414 5.16049401,9.18101937 5.34021008,9.36671614 L6.12616293,10.1780725 L6.12616293,11.4070018 L7.04683506,11.4070018 L7.04683506,9.22747854 L7.83251684,8.41612217 C8.01236844,8.23042539 8.01236844,7.92970017 7.83251684,7.74400339" id="Fill-17" fill="#759684"></path>
                        <g id="Group-21" transform="translate(0.000000, 10.864311)" fill="#35CCFF">
                            <path d="M13.7753721,0.0733831121 L13.7753721,0.353397619 C13.7753721,0.795179626 13.4277313,1.15411876 12.9998552,1.15411876 L0.775503292,1.15411876 C0.343696814,1.15411876 -1.35532479e-05,0.795179626 -1.35532479e-05,0.353397619 L-1.35532479e-05,0.0733831121 L0.737418665,0.0733831121 L0.737418665,0.164062473 C0.737418665,0.373128776 1.04290887,0.542732765 1.4248394,0.542732765 L12.2739433,0.542732765 C12.6522144,0.542732765 12.9617706,0.373128776 12.9617706,0.164062473 L12.9617706,0.0733831121 L13.7753721,0.0733831121 Z" id="Fill-19"></path>
                        </g>
                        <path d="M2.95890442,21.9059505 L2.54837654,21.9059505 C2.28828972,21.9059505 2.07740118,21.688208 2.07740118,21.4195285 L2.07740118,13.6325783 C2.07740118,13.3640387 2.28828972,13.1462963 2.54837654,13.1462963 L2.95890442,13.1462963 C3.21899125,13.1462963 3.43001532,13.3640387 3.43001532,13.6325783 L3.43001532,21.4195285 C3.43001532,21.688208 3.21899125,21.9059505 2.95890442,21.9059505" id="Fill-22" fill="#35CCFF"></path>
                        <path d="M5.7215036,21.9059505 L5.31097573,21.9059505 C5.05075337,21.9059505 4.83986483,21.688208 4.83986483,21.4195285 L4.83986483,13.6325783 C4.83986483,13.3640387 5.05075337,13.1462963 5.31097573,13.1462963 L5.7215036,13.1462963 C5.98159043,13.1462963 6.1926145,13.3640387 6.1926145,13.6325783 L6.1926145,21.4195285 C6.1926145,21.688208 5.98159043,21.9059505 5.7215036,21.9059505" id="Fill-24" fill="#35CCFF"></path>
                        <path d="M8.47523896,21.9059505 L8.06471108,21.9059505 C7.80462425,21.9059505 7.59373572,21.688208 7.59373572,21.4195285 L7.59373572,13.6325783 C7.59373572,13.3640387 7.80462425,13.1462963 8.06471108,13.1462963 L8.47523896,13.1462963 C8.73546132,13.1462963 8.94634986,13.3640387 8.94634986,13.6325783 L8.94634986,21.4195285 C8.94634986,21.688208 8.73546132,21.9059505 8.47523896,21.9059505" id="Fill-26" fill="#35CCFF"></path>
                        <path d="M11.2290421,21.9059505 L10.8185142,21.9059505 C10.5584274,21.9059505 10.3475388,21.688208 10.3475388,21.4195285 L10.3475388,13.6325783 C10.3475388,13.3640387 10.5584274,13.1462963 10.8185142,13.1462963 L11.2290421,13.1462963 C11.4891289,13.1462963 11.700153,13.3640387 11.700153,13.6325783 L11.700153,21.4195285 C11.700153,21.688208 11.4891289,21.9059505 11.2290421,21.9059505" id="Fill-28" fill="#35CCFF"></path>
                    </g>
                </g>
                <g id="Shape-+-Shape-+-Shape-+-Oval-+-Shape-+-Shape-Mask" transform="translate(521.160705, 45.191079) rotate(8.000000) translate(-521.160705, -45.191079) translate(478.160705, 20.691079)">
                    <mask id="mask-22" fill="white">
                        <use xlink:href="#path-21"></use>
                    </mask>
                    <use id="Mask" fill="#099CEC" xlink:href="#path-21"></use>
                    <path d="M35.7442845,47.7352845 C21.002317,52.2656674 11.124693,44.3363119 6.27891336,39.737297 C11.5137873,39.671778 17.1651062,38.4554246 22.1334094,36.7862285 C25.1286379,41.7867772 30.1863775,46.1270351 35.7442845,47.7352845 Z" id="Shape" fill="#FFFFFF" fill-rule="nonzero" mask="url(#mask-22)"></path>
                    <path d="M21.3878247,35.3271877 C18.0627489,37.2386559 14.3015136,38.2382362 10.476829,38.226878 C8.51994343,38.2290688 6.57137684,37.9693362 4.68187794,37.4544446 L5.85177914,39.4468323 C11.4347159,40.557123 17.2261938,39.6135399 22.1819027,36.7862285 C21.8970044,36.3080555 21.6302912,35.823752 21.3878247,35.3271877 Z" id="Shape" fill="#026FB6" mask="url(#mask-22)"></path>
                    <ellipse id="Oval" fill="#FFFFFF" fill-rule="nonzero" mask="url(#mask-22)" cx="27.6252772" cy="31.3424125" rx="2.8489822" ry="2.90582071"></ellipse>
                    <path d="M28.0556553,30.5270661 C28.0589363,30.2738951 28.1774705,30.0363993 28.3769235,29.8833717 C28.1497086,29.7585134 27.8959597,29.6912013 27.6374005,29.6871981 C26.7309884,29.6804891 25.9905031,30.4175628 25.9827277,31.3342474 C25.9749524,32.250932 26.7028258,33.0007446 27.6092182,33.0097628 C28.5156107,33.0187809 29.2579296,32.283596 29.2679882,31.3669342 C29.2679882,31.336282 29.2679882,31.3056299 29.2679882,31.2688474 C29.1401207,31.3397646 28.9954125,31.3737008 28.8497334,31.3669342 C28.4039551,31.3503627 28.0520743,30.978191 28.0556553,30.5270661 Z" id="Shape" fill="#4D5C64" fill-rule="nonzero" mask="url(#mask-22)"></path>
                    <path d="M84.2957764,11.2039715 C82.4772771,9.97788677 77.4036641,9.36484443 74.0333788,10.357973 L73.2817324,11.4307971 C62.2919351,34.4321459 48.5380189,44.1611279 29.7468597,44.5902575 C9.25843446,44.5350837 4.13026649,32.5344625 2.68152873,17.6314031 L-0.597831638,17.6314031 C-1.02214814,23.8966959 0.559946236,47.998773 27.8919904,47.998773 C48.0652091,47.998773 64.6741692,38.8583116 72.3421745,19.651695 C74.8456418,19.6946079 81.8165557,19.6946079 84.8898195,13.3864022 L85.4959859,12.0499699 L84.2957764,11.2039715 Z" id="Shape" fill="#000000" fill-rule="nonzero" opacity="0.05" mask="url(#mask-22)"></path>
                </g>
                <g id="banner" transform="translate(69.054901, 50.064803)">
                    <path d="M1.13686838e-13,1.42108547e-14 C93.8381821,64.1214533 351.295594,73.2129485 415.500078,4.5846714" id="Path-4" stroke="#EB6852"></path>
                    <polygon id="Triangle" fill="#54C7F1" transform="translate(48.089212, 37.914668) rotate(199.000000) translate(-48.089212, -37.914668) " points="48.0892119 24.2060109 61.8580083 51.6233259 34.3204156 51.6233259"></polygon>
                    <polygon id="Triangle-Copy-2" fill="#54C7F1" transform="translate(146.880695, 59.405645) rotate(187.000000) translate(-146.880695, -59.405645) " points="146.880695 45.6969877 160.649492 73.1143026 133.111899 73.1143026"></polygon>
                    <polygon id="Triangle-Copy-6" fill="#54C7F1" transform="translate(261.101533, 64.941582) rotate(177.000000) translate(-261.101533, -64.941582) " points="261.101533 51.232924 274.87033 78.650239 247.332737 78.650239"></polygon>
                    <polygon id="Triangle-Copy-8" fill="#54C7F1" transform="translate(368.352080, 46.455669) rotate(162.000000) translate(-368.352080, -46.455669) " points="368.35208 32.7470119 382.120877 60.1643269 354.583284 60.1643269"></polygon>
                    <polygon id="Triangle-Copy" fill="#EB6852" transform="translate(97.760334, 52.493085) rotate(191.000000) translate(-97.760334, -52.493085) " points="97.7603341 38.0738941 112.242781 66.9122757 83.2778873 66.9122757"></polygon>
                    <polygon id="Triangle-Copy-3" fill="#EB6852" transform="translate(203.232012, 65.688327) rotate(183.000000) translate(-203.232012, -65.688327) " points="203.232012 51.2691367 217.714459 80.1075183 188.749566 80.1075183"></polygon>
                    <polygon id="Triangle-Copy-7" fill="#EB6852" transform="translate(313.956647, 60.625830) rotate(171.000000) translate(-313.956647, -60.625830) " points="313.956647 46.2066391 328.439093 75.0450207 299.4742 75.0450207"></polygon>
                </g>
                <g id="fish" style="mix-blend-mode: luminosity;" transform="translate(380.392044, 104.558715) scale(-1, 1) rotate(-16.000000) translate(-380.392044, -104.558715) translate(372.392044, 100.058715)" fill="#708496" fill-rule="nonzero">
                    <path d="M14.6909301,2.99781675 C13.839959,2.99781675 12.5087619,3.49468759 11.8723775,4.20542206 C11.0106319,3.47018678 9.14211829,2.8465585 7.42057944,2.44459754 C6.79439111,1.52597527 6.73993995,0.81756082 6.7981875,0.397391223 C6.81373464,0.285256946 6.77240817,0.172806303 6.687622,0.0956480777 C6.60254658,0.018419549 6.48453291,-0.0142013316 6.37074951,0.00826067558 C5.24802879,0.228416468 4.63069871,1.19136518 4.30822203,1.962385 C4.29426575,1.96210379 4.27788702,1.9613656 4.26447309,1.9613656 C2.52496463,1.9613656 0.0160171738,3.33225108 0.0160171738,5.02343985 C0.0160171738,6.71462863 2.52496463,8.08551411 4.26447309,8.08551411 C4.32243139,8.08551411 4.38628315,8.08372137 4.45443749,8.08083892 C5.0822167,8.40975441 5.81676501,8.61187733 6.35787792,8.61187733 C7.02242793,8.61187733 6.69727569,8.30830629 6.30447529,7.83699081 C8.25755812,7.47338047 10.8187874,6.74014885 11.8723414,5.84110613 C12.5089788,6.55215696 13.8399228,7.0487466 14.6908939,7.0487466 C15.8412379,7.0487466 14.0268863,6.14182987 14.0268863,5.02315864 C14.0269586,3.90469832 15.8413103,2.99781675 14.6909301,2.99781675 Z M1.96219418,5.05831045 C1.69659111,5.05831045 1.48146203,4.84912202 1.48146203,4.59093197 C1.48146203,4.33274192 1.69662727,4.12351834 1.96219418,4.12351834 C2.22779724,4.12351834 2.44296248,4.33270677 2.44296248,4.59093197 C2.44296248,4.84915718 2.22779724,5.05831045 1.96219418,5.05831045 Z"></path>
                </g>
                <g id="fish-copy" style="mix-blend-mode: luminosity;" transform="translate(433.909593, 90.747735) scale(-1, 1) rotate(-16.000000) translate(-433.909593, -90.747735) translate(425.909593, 86.247735)" fill-rule="nonzero" fill="#708496">
                    <path d="M14.6909301,2.99781675 C13.839959,2.99781675 12.5087619,3.49468759 11.8723775,4.20542206 C11.0106319,3.47018678 9.14211829,2.8465585 7.42057944,2.44459754 C6.79439111,1.52597527 6.73993995,0.81756082 6.7981875,0.397391223 C6.81373464,0.285256946 6.77240817,0.172806303 6.687622,0.0956480777 C6.60254658,0.018419549 6.48453291,-0.0142013316 6.37074951,0.00826067558 C5.24802879,0.228416468 4.63069871,1.19136518 4.30822203,1.962385 C4.29426575,1.96210379 4.27788702,1.9613656 4.26447309,1.9613656 C2.52496463,1.9613656 0.0160171738,3.33225108 0.0160171738,5.02343985 C0.0160171738,6.71462863 2.52496463,8.08551411 4.26447309,8.08551411 C4.32243139,8.08551411 4.38628315,8.08372137 4.45443749,8.08083892 C5.0822167,8.40975441 5.81676501,8.61187733 6.35787792,8.61187733 C7.02242793,8.61187733 6.69727569,8.30830629 6.30447529,7.83699081 C8.25755812,7.47338047 10.8187874,6.74014885 11.8723414,5.84110613 C12.5089788,6.55215696 13.8399228,7.0487466 14.6908939,7.0487466 C15.8412379,7.0487466 14.0268863,6.14182987 14.0268863,5.02315864 C14.0269586,3.90469832 15.8413103,2.99781675 14.6909301,2.99781675 Z M1.96219418,5.05831045 C1.69659111,5.05831045 1.48146203,4.84912202 1.48146203,4.59093197 C1.48146203,4.33274192 1.69662727,4.12351834 1.96219418,4.12351834 C2.22779724,4.12351834 2.44296248,4.33270677 2.44296248,4.59093197 C2.44296248,4.84915718 2.22779724,5.05831045 1.96219418,5.05831045 Z" id="fish"></path>
                </g>
                <g id="fish-copy-2" style="mix-blend-mode: luminosity;" transform="translate(328.600868, 108.011460) scale(-1, 1) rotate(-16.000000) translate(-328.600868, -108.011460) translate(320.600868, 103.511460)" fill-rule="nonzero" fill="#708496">
                    <path d="M14.6909301,2.99781675 C13.839959,2.99781675 12.5087619,3.49468759 11.8723775,4.20542206 C11.0106319,3.47018678 9.14211829,2.8465585 7.42057944,2.44459754 C6.79439111,1.52597527 6.73993995,0.81756082 6.7981875,0.397391223 C6.81373464,0.285256946 6.77240817,0.172806303 6.687622,0.0956480777 C6.60254658,0.018419549 6.48453291,-0.0142013316 6.37074951,0.00826067558 C5.24802879,0.228416468 4.63069871,1.19136518 4.30822203,1.962385 C4.29426575,1.96210379 4.27788702,1.9613656 4.26447309,1.9613656 C2.52496463,1.9613656 0.0160171738,3.33225108 0.0160171738,5.02343985 C0.0160171738,6.71462863 2.52496463,8.08551411 4.26447309,8.08551411 C4.32243139,8.08551411 4.38628315,8.08372137 4.45443749,8.08083892 C5.0822167,8.40975441 5.81676501,8.61187733 6.35787792,8.61187733 C7.02242793,8.61187733 6.69727569,8.30830629 6.30447529,7.83699081 C8.25755812,7.47338047 10.8187874,6.74014885 11.8723414,5.84110613 C12.5089788,6.55215696 13.8399228,7.0487466 14.6908939,7.0487466 C15.8412379,7.0487466 14.0268863,6.14182987 14.0268863,5.02315864 C14.0269586,3.90469832 15.8413103,2.99781675 14.6909301,2.99781675 Z M1.96219418,5.05831045 C1.69659111,5.05831045 1.48146203,4.84912202 1.48146203,4.59093197 C1.48146203,4.33274192 1.69662727,4.12351834 1.96219418,4.12351834 C2.22779724,4.12351834 2.44296248,4.33270677 2.44296248,4.59093197 C2.44296248,4.84915718 2.22779724,5.05831045 1.96219418,5.05831045 Z" id="fish"></path>
                </g>
                <g id="fish-copy-3" style="mix-blend-mode: luminosity;" transform="translate(271.630575, 108.011460) scale(-1, 1) rotate(-16.000000) translate(-271.630575, -108.011460) translate(263.630575, 103.511460)" fill-rule="nonzero" fill="#708496">
                    <path d="M14.6909301,2.99781675 C13.839959,2.99781675 12.5087619,3.49468759 11.8723775,4.20542206 C11.0106319,3.47018678 9.14211829,2.8465585 7.42057944,2.44459754 C6.79439111,1.52597527 6.73993995,0.81756082 6.7981875,0.397391223 C6.81373464,0.285256946 6.77240817,0.172806303 6.687622,0.0956480777 C6.60254658,0.018419549 6.48453291,-0.0142013316 6.37074951,0.00826067558 C5.24802879,0.228416468 4.63069871,1.19136518 4.30822203,1.962385 C4.29426575,1.96210379 4.27788702,1.9613656 4.26447309,1.9613656 C2.52496463,1.9613656 0.0160171738,3.33225108 0.0160171738,5.02343985 C0.0160171738,6.71462863 2.52496463,8.08551411 4.26447309,8.08551411 C4.32243139,8.08551411 4.38628315,8.08372137 4.45443749,8.08083892 C5.0822167,8.40975441 5.81676501,8.61187733 6.35787792,8.61187733 C7.02242793,8.61187733 6.69727569,8.30830629 6.30447529,7.83699081 C8.25755812,7.47338047 10.8187874,6.74014885 11.8723414,5.84110613 C12.5089788,6.55215696 13.8399228,7.0487466 14.6908939,7.0487466 C15.8412379,7.0487466 14.0268863,6.14182987 14.0268863,5.02315864 C14.0269586,3.90469832 15.8413103,2.99781675 14.6909301,2.99781675 Z M1.96219418,5.05831045 C1.69659111,5.05831045 1.48146203,4.84912202 1.48146203,4.59093197 C1.48146203,4.33274192 1.69662727,4.12351834 1.96219418,4.12351834 C2.22779724,4.12351834 2.44296248,4.33270677 2.44296248,4.59093197 C2.44296248,4.84915718 2.22779724,5.05831045 1.96219418,5.05831045 Z" id="fish"></path>
                </g>
                <g id="fish-copy-4" style="mix-blend-mode: luminosity;" transform="translate(214.660281, 102.832342) scale(-1, 1) rotate(-16.000000) translate(-214.660281, -102.832342) translate(206.660281, 98.332342)" fill-rule="nonzero" fill="#708496">
                    <path d="M14.6909301,2.99781675 C13.839959,2.99781675 12.5087619,3.49468759 11.8723775,4.20542206 C11.0106319,3.47018678 9.14211829,2.8465585 7.42057944,2.44459754 C6.79439111,1.52597527 6.73993995,0.81756082 6.7981875,0.397391223 C6.81373464,0.285256946 6.77240817,0.172806303 6.687622,0.0956480777 C6.60254658,0.018419549 6.48453291,-0.0142013316 6.37074951,0.00826067558 C5.24802879,0.228416468 4.63069871,1.19136518 4.30822203,1.962385 C4.29426575,1.96210379 4.27788702,1.9613656 4.26447309,1.9613656 C2.52496463,1.9613656 0.0160171738,3.33225108 0.0160171738,5.02343985 C0.0160171738,6.71462863 2.52496463,8.08551411 4.26447309,8.08551411 C4.32243139,8.08551411 4.38628315,8.08372137 4.45443749,8.08083892 C5.0822167,8.40975441 5.81676501,8.61187733 6.35787792,8.61187733 C7.02242793,8.61187733 6.69727569,8.30830629 6.30447529,7.83699081 C8.25755812,7.47338047 10.8187874,6.74014885 11.8723414,5.84110613 C12.5089788,6.55215696 13.8399228,7.0487466 14.6908939,7.0487466 C15.8412379,7.0487466 14.0268863,6.14182987 14.0268863,5.02315864 C14.0269586,3.90469832 15.8413103,2.99781675 14.6909301,2.99781675 Z M1.96219418,5.05831045 C1.69659111,5.05831045 1.48146203,4.84912202 1.48146203,4.59093197 C1.48146203,4.33274192 1.69662727,4.12351834 1.96219418,4.12351834 C2.22779724,4.12351834 2.44296248,4.33270677 2.44296248,4.59093197 C2.44296248,4.84915718 2.22779724,5.05831045 1.96219418,5.05831045 Z" id="fish"></path>
                </g>
                <g id="fish-copy-5" style="mix-blend-mode: luminosity;" transform="translate(168.048223, 95.926852) scale(-1, 1) rotate(-16.000000) translate(-168.048223, -95.926852) translate(160.048223, 91.426852)" fill-rule="nonzero" fill="#708496">
                    <path d="M14.6909301,2.99781675 C13.839959,2.99781675 12.5087619,3.49468759 11.8723775,4.20542206 C11.0106319,3.47018678 9.14211829,2.8465585 7.42057944,2.44459754 C6.79439111,1.52597527 6.73993995,0.81756082 6.7981875,0.397391223 C6.81373464,0.285256946 6.77240817,0.172806303 6.687622,0.0956480777 C6.60254658,0.018419549 6.48453291,-0.0142013316 6.37074951,0.00826067558 C5.24802879,0.228416468 4.63069871,1.19136518 4.30822203,1.962385 C4.29426575,1.96210379 4.27788702,1.9613656 4.26447309,1.9613656 C2.52496463,1.9613656 0.0160171738,3.33225108 0.0160171738,5.02343985 C0.0160171738,6.71462863 2.52496463,8.08551411 4.26447309,8.08551411 C4.32243139,8.08551411 4.38628315,8.08372137 4.45443749,8.08083892 C5.0822167,8.40975441 5.81676501,8.61187733 6.35787792,8.61187733 C7.02242793,8.61187733 6.69727569,8.30830629 6.30447529,7.83699081 C8.25755812,7.47338047 10.8187874,6.74014885 11.8723414,5.84110613 C12.5089788,6.55215696 13.8399228,7.0487466 14.6908939,7.0487466 C15.8412379,7.0487466 14.0268863,6.14182987 14.0268863,5.02315864 C14.0269586,3.90469832 15.8413103,2.99781675 14.6909301,2.99781675 Z M1.96219418,5.05831045 C1.69659111,5.05831045 1.48146203,4.84912202 1.48146203,4.59093197 C1.48146203,4.33274192 1.69662727,4.12351834 1.96219418,4.12351834 C2.22779724,4.12351834 2.44296248,4.33270677 2.44296248,4.59093197 C2.44296248,4.84915718 2.22779724,5.05831045 1.96219418,5.05831045 Z" id="fish"></path>
                </g>
                <g id="fish-copy-6" style="mix-blend-mode: luminosity;" transform="translate(117.983420, 80.389499) scale(-1, 1) rotate(-16.000000) translate(-117.983420, -80.389499) translate(109.983420, 75.889499)" fill-rule="nonzero" fill="#708496">
                    <path d="M14.6909301,2.99781675 C13.839959,2.99781675 12.5087619,3.49468759 11.8723775,4.20542206 C11.0106319,3.47018678 9.14211829,2.8465585 7.42057944,2.44459754 C6.79439111,1.52597527 6.73993995,0.81756082 6.7981875,0.397391223 C6.81373464,0.285256946 6.77240817,0.172806303 6.687622,0.0956480777 C6.60254658,0.018419549 6.48453291,-0.0142013316 6.37074951,0.00826067558 C5.24802879,0.228416468 4.63069871,1.19136518 4.30822203,1.962385 C4.29426575,1.96210379 4.27788702,1.9613656 4.26447309,1.9613656 C2.52496463,1.9613656 0.0160171738,3.33225108 0.0160171738,5.02343985 C0.0160171738,6.71462863 2.52496463,8.08551411 4.26447309,8.08551411 C4.32243139,8.08551411 4.38628315,8.08372137 4.45443749,8.08083892 C5.0822167,8.40975441 5.81676501,8.61187733 6.35787792,8.61187733 C7.02242793,8.61187733 6.69727569,8.30830629 6.30447529,7.83699081 C8.25755812,7.47338047 10.8187874,6.74014885 11.8723414,5.84110613 C12.5089788,6.55215696 13.8399228,7.0487466 14.6908939,7.0487466 C15.8412379,7.0487466 14.0268863,6.14182987 14.0268863,5.02315864 C14.0269586,3.90469832 15.8413103,2.99781675 14.6909301,2.99781675 Z M1.96219418,5.05831045 C1.69659111,5.05831045 1.48146203,4.84912202 1.48146203,4.59093197 C1.48146203,4.33274192 1.69662727,4.12351834 1.96219418,4.12351834 C2.22779724,4.12351834 2.44296248,4.33270677 2.44296248,4.59093197 C2.44296248,4.84915718 2.22779724,5.05831045 1.96219418,5.05831045 Z" id="fish"></path>
                </g>
            </g>
        </g>
    </g>
</svg>