<?xml version="1.0" encoding="UTF-8"?>
<svg width="51px" height="51px" viewBox="0 0 51 51" version="1.1" xmlns="http://www.w3.org/2000/svg" xmlns:xlink="http://www.w3.org/1999/xlink">
    <!-- Generator: Sketch 46.2 (44496) - http://www.bohemiancoding.com/sketch -->
    <title>cloud-foundry-logo@1x</title>
    <desc>Created with Sketch.</desc>
    <defs>
        <linearGradient x1="50.1086893%" y1="1.51569187%" x2="50.1086893%" y2="99.9524251%" id="linearGradient-1">
            <stop stop-color="#41B5E7" offset="0%"></stop>
            <stop stop-color="#3AB4E7" offset="4%"></stop>
            <stop stop-color="#25B3E7" offset="9%"></stop>
            <stop stop-color="#14B1E7" offset="13%"></stop>
            <stop stop-color="#238ECE" offset="43%"></stop>
            <stop stop-color="#3469B3" offset="80%"></stop>
        </linearGradient>
    </defs>
    <g id="Habitat-SaaS-Home-&amp;-Pricing/desktop" stroke="none" stroke-width="1" fill="none" fill-rule="evenodd">
        <g id="Home-V4---2" transform="translate(-1149.000000, -737.000000)" fill-rule="nonzero">
            <g id="k8s-copy" transform="translate(1149.000000, 737.000000)">
                <g id="cloud-foundry" transform="translate(0.890314, 0.890045)">
                    <path d="M21.4077053,27.6397138 C21.4077053,27.6397138 21.9497326,25.5769991 19.5858916,22.8969757 L19.5106101,22.8066378 C17.1618254,20.0362765 17.5231769,15.8807344 20.2935383,13.5470061 C21.4679306,12.5532896 22.9886181,12.0112623 24.5394182,12.0112623 L24.6899813,12.0112623 C28.3185524,12.0112623 31.2695895,14.9472431 31.2695895,18.5758142 C31.2695895,20.1266143 30.7275623,21.6322455 29.7187894,22.8216941 C29.7037331,22.8367504 29.6886768,22.866863 29.6435078,22.8969757 C28.393834,24.1466495 27.7313562,25.8630691 27.8216941,27.6397138 C31.6761099,26.3147584 34.2657955,22.7162999 34.2959081,18.6360395 C34.3260207,13.5620624 30.230704,9.24090099 25.1717833,9 C25.111558,9 25.0513328,9 24.9911075,9 L24.629756,9 L24.2684046,9 C24.2081793,9 24.1479541,9 24.0877288,9 C18.9986955,9.24090099 14.918435,13.5771187 14.9334913,18.6360395 C14.9636039,22.7012436 17.5683459,26.3147584 21.4077053,27.6397138" id="Shape" fill="#3A3A3A"></path>
                    <path d="M33.8442188,35.2732639 C34.0248945,35.1979823 34.2206266,35.1377571 34.4163586,35.1076444 C34.6422033,35.0624755 34.8529917,35.0323629 35.0788363,35.0323629 L35.0487237,34.8516871 C35.0336674,34.7161803 34.9884985,34.5806735 34.9433295,34.4451667 L34.868048,34.2343784 C34.8379353,34.1741531 34.8078227,34.1139279 34.7777101,34.0537026 L34.6873722,33.8880832 C34.4615276,33.8579706 34.2206266,33.7977453 33.9947819,33.7375201 C33.7839935,33.6772948 33.5732052,33.6020133 33.3774731,33.5267317 C33.0612906,33.4062812 32.7752206,33.2256055 32.5192633,32.9997608 L32.5192633,32.9997608 C32.3536439,32.8793103 32.2633061,32.6685219 32.2783624,32.4577336 C32.2934187,32.3673957 32.3385876,32.2921141 32.3988129,32.2168326 C32.4740944,32.141551 32.549376,32.0662695 32.6547702,32.0211005 L32.4439818,31.90065 C32.3837565,31.8705374 32.308475,31.8253685 32.2331934,31.7801995 L31.9772361,31.6597491 C31.7965604,31.5694112 31.630941,31.4941296 31.4803778,31.4339044 L31.2545332,31.3435665 C31.0738574,31.3736791 30.8931817,31.3736791 30.7125059,31.3736791 C30.5167739,31.3736791 30.3210418,31.3736791 30.1253098,31.3586228 C29.748902,31.3285102 29.3875505,31.268285 29.0412554,31.1779471 C28.8906922,31.1478345 28.7401291,31.0876092 28.589566,31.027384 C28.4691155,30.982215 28.3637213,30.9219898 28.2583271,30.8467082 C28.0776514,30.7262577 27.9572009,30.5907509 27.9722572,30.4552441 L27.7012436,30.4100752 C27.5356242,30.3799626 27.189329,30.3347936 26.9634843,30.304681 C26.9634843,30.3347936 26.9333717,30.3799626 26.9333717,30.4401878 L26.8731465,30.7112014 C26.752696,31.2532286 27.0688785,31.7952559 27.6109057,31.9608753 C28.9208049,32.3372831 29.8994651,32.9696482 30.185535,33.7375201 C30.7576749,35.2883202 28.348665,36.8090076 24.6598687,36.8090076 C20.9710723,36.8090076 18.5470061,35.3184328 19.119146,33.7525764 C19.3901596,32.9997608 20.3387072,32.382452 21.6034374,32.0060442 C22.1605209,31.8253685 22.4917598,31.268285 22.3713093,30.6961451 L22.2960277,30.3347936 L21.7991694,30.3950189 C21.5733248,30.4251315 21.3775927,30.4552441 21.2119733,30.4853567 L20.9409597,30.5305257 C20.9259034,30.6961451 20.8355655,30.8467082 20.6850024,30.9219898 C20.5796082,30.9972713 20.4892703,31.0574966 20.3688198,31.1026655 C20.233313,31.1628908 20.0827499,31.223116 19.9472431,31.268285 L19.9472431,31.268285 C19.7816237,31.3134539 19.6009479,31.3586228 19.4202722,31.3887354 C19.2395965,31.4188481 19.0438644,31.4489607 18.8481324,31.464017 C18.4717246,31.5091859 18.0953168,31.5091859 17.7038527,31.464017 L17.6436274,31.4941296 C17.5984585,31.5091859 17.5382332,31.5392986 17.478008,31.5694112 L16.996206,31.7952559 C16.8305866,31.8855937 16.6649672,31.9759316 16.5445167,32.0512132 L16.3939536,32.141551 L16.3337283,32.1716637 C16.5746293,32.2921141 16.7101361,32.4426773 16.7402487,32.6082967 C16.800474,32.7739161 16.7251924,32.9696482 16.559573,33.1503239 C16.4541788,33.2557181 16.3337283,33.346056 16.2132778,33.4363938 C16.0627147,33.541788 15.8970953,33.6321259 15.7164195,33.6923511 C15.2948428,33.8880832 14.8582098,34.02359 14.4065204,34.0988715 C14.3764078,34.1590968 14.3462952,34.219322 14.3312389,34.2795473 L14.1957321,34.6710114 L14.1355068,35.0775318 C14.1505631,35.1227007 14.1505631,35.182926 14.1505631,35.2582075 C14.5871962,35.2582075 15.0388855,35.3334891 15.4454059,35.4840522 C15.7766448,35.5743901 16.0476584,35.7851785 16.2584467,36.0411358 C16.4240662,36.297093 16.4391225,36.5982193 16.3337283,36.8842892 C16.1982215,37.260697 15.9272079,37.5919359 15.595969,37.8328368 L15.6561943,37.8930621 L15.83687,38.0285689 C16.0024895,38.1339631 16.1982215,38.2995825 16.4391225,38.4350893 L17.1317128,38.8114971 C17.2220507,38.8717223 17.3274449,38.901835 17.3876701,38.9319476 L17.4930643,38.9771165 C18.0652041,38.7512719 18.6674566,38.6007087 19.2847654,38.5404835 C19.5858916,38.5103709 19.8719615,38.4953146 20.1730878,38.5254272 C20.4591577,38.5404835 20.7602839,38.5705961 21.0463539,38.6308214 L21.0463539,38.6308214 C21.3173675,38.6910466 21.5733248,38.7813845 21.8292821,38.8717223 C22.0551267,38.9771165 22.2809714,39.097567 22.4767035,39.2330738 C22.8681676,39.4890311 23.1542375,39.8654389 23.3198569,40.302072 L23.8317715,40.3171283 C24.1479541,40.3321846 24.5544745,40.3472409 24.9760512,40.3321846 C25.3976279,40.3171283 25.8041483,40.3171283 26.1052746,40.2870156 L26.6171892,40.2418467 C26.6623581,40.0310583 26.752696,39.82027 26.8882028,39.6546506 C26.948428,39.5643127 27.0237096,39.4739748 27.0989911,39.3986933 C27.1742727,39.3083554 27.2646106,39.2330738 27.3549484,39.1577923 C27.5356242,39.0072291 27.7464126,38.8717223 27.9722572,38.7813845 C28.2131582,38.660934 28.4691155,38.5705961 28.7250728,38.5103709 C28.9960864,38.4501456 29.2821563,38.4049767 29.5682263,38.3748641 C29.8693525,38.3598077 30.1554224,38.3598077 30.4565487,38.3748641 C31.0738574,38.420033 31.6761099,38.5404835 32.2633061,38.7663282 L32.5794886,38.5856524 C32.8053333,38.4652019 33.0161216,38.3447514 33.2118537,38.1941883 C33.4075857,38.0436252 33.6334304,37.9081184 33.7538809,37.7876679 L33.9646693,37.5919359 C33.6183741,37.3660912 33.3323042,37.0499086 33.1365721,36.6735008 C33.0763469,36.537994 33.0462343,36.3874309 33.0462343,36.2519241 C33.0311779,36.1164173 33.0612906,35.9809105 33.1365721,35.86046 C33.2419663,35.6045027 33.5280362,35.423827 33.8442188,35.2732639" id="Shape" fill="#3A3A3A"></path>
                    <path d="M19.7364547,18.6059268 C19.7213984,19.8104318 20.3085946,20.9095425 21.2571422,21.6774144 C22.4315345,22.6259621 23.3800822,24.55317 23.4403074,26.6610536 C23.5005327,28.9947819 23.3349132,31.704918 23.2445754,33.0750424 C21.9949015,33.2557181 21.1065791,33.6772948 21.1065791,34.1590968 C21.1065791,34.8065182 22.6573792,35.5593338 24.5845871,35.5593338 C26.511795,35.5593338 28.0625951,34.8065182 28.0625951,34.1590968 C28.0625951,33.6772948 27.189329,33.2557181 25.9245988,33.0750424 C25.8192047,31.704918 25.6686415,28.9947819 25.7288668,26.6610536 C25.789092,24.55317 26.752696,22.6259621 27.912032,21.6774144 C28.8605796,20.9095425 29.4477758,19.8104318 29.4327195,18.6059268 C29.4176631,16.3023112 27.234498,14.4503848 24.5695308,14.4503848 C21.9045636,14.4503848 19.7515111,16.3023112 19.7364547,18.6059268" id="Shape" fill="url(#linearGradient-1)"></path>
                </g>
            </g>
        </g>
    </g>
</svg>