<?xml version="1.0" encoding="UTF-8"?>
<svg width="51px" height="50px" viewBox="0 0 51 50" version="1.1" xmlns="http://www.w3.org/2000/svg" xmlns:xlink="http://www.w3.org/1999/xlink">
    <!-- Generator: Sketch 46.2 (44496) - http://www.bohemiancoding.com/sketch -->
    <title>python-logo@1x</title>
    <desc>Created with Sketch.</desc>
    <defs>
        <linearGradient x1="12.959%" y1="12.2077494%" x2="79.639%" y2="78.0756371%" id="linearGradient-1">
            <stop stop-color="#387EB8" offset="0%"></stop>
            <stop stop-color="#366994" offset="100%"></stop>
        </linearGradient>
        <linearGradient x1="19.128%" y1="20.7098007%" x2="90.742%" y2="88.2581512%" id="linearGradient-2">
            <stop stop-color="#FFE052" offset="0%"></stop>
            <stop stop-color="#FFC331" offset="100%"></stop>
        </linearGradient>
    </defs>
    <g id="Habitat-SaaS-Home-&amp;-Pricing/desktop" stroke="none" stroke-width="1" fill="none" fill-rule="evenodd">
        <g id="Habitat-Web-SaaS-Message-Home-(desktop)-V4" transform="translate(-1149.000000, -738.000000)" fill-rule="nonzero">
            <g id="python" transform="translate(1148.333333, 738.000000)">
                <g style="mix-blend-mode: luminosity;" id="python-5">
                    <g>
                        <path d="M26.0571928,11 C18.8681991,11 19.3170676,14.110637 19.3170676,14.110637 L19.3250515,17.333352 L26.1853776,17.333352 L26.1853776,18.3008967 L16.6002374,18.3008967 C16.6002374,18.3008967 12,17.7803367 12,25.0178368 C12,32.2555583 16.0152003,31.998874 16.0152003,31.998874 L18.4114576,31.998874 L18.4114576,28.6402933 C18.4114576,28.6402933 18.2822748,24.6340275 22.3625654,24.6340275 L29.166783,24.6340275 C29.166783,24.6340275 32.9895952,24.6956538 32.9895952,20.9476212 L32.9895952,14.7504667 C32.9895952,14.7504667 33.5701969,11 26.0571928,11 Z M22.2744107,13.1672117 C22.6018223,13.1669178 22.9159086,13.296562 23.1474236,13.5275619 C23.3789387,13.7585618 23.508872,14.0719492 23.5085774,14.3986323 C23.508872,14.7253153 23.3789387,15.0387028 23.1474236,15.2697027 C22.9159086,15.5007026 22.6018223,15.6303468 22.2744107,15.6300528 C21.9469991,15.6303468 21.6329127,15.5007026 21.4013977,15.2697027 C21.1698826,15.0387028 21.0399493,14.7253153 21.0402439,14.3986323 C21.0399493,14.0719492 21.1698826,13.7585618 21.4013977,13.5275619 C21.6329127,13.296562 21.9469991,13.1669178 22.2744107,13.1672117 L22.2744107,13.1672117 Z" id="Shape" fill="url(#linearGradient-1)"></path>
                        <path d="M25.9429146,39 C33.1319101,39 32.6830415,35.889363 32.6830415,35.889363 L32.6750576,32.6667586 L25.8146189,32.6667586 L25.8146189,31.6992139 L35.3997614,31.6992139 C35.3997614,31.6992139 40,32.219774 40,24.9820526 C40,17.7444418 35.9847988,18.001126 35.9847988,18.001126 L33.5885409,18.001126 L33.5885409,21.359596 C33.5885409,21.359596 33.7177237,25.3658619 29.637432,25.3658619 L22.8332128,25.3658619 C22.8332128,25.3658619 19.0103997,25.3042355 19.0103997,29.0523788 L19.0103997,35.2496439 C19.0103997,35.2496439 18.4299087,39 25.9428037,39 L25.9429146,39 Z M29.7256977,36.8330096 C29.398286,36.8333035 29.0841996,36.7036593 28.8526845,36.4726594 C28.6211694,36.2416595 28.4912361,35.9282721 28.4915306,35.601589 C28.4912066,35.2748868 28.6211269,34.9614709 28.8526452,34.7304471 C29.0841636,34.4994232 29.3982668,34.3697638 29.7256977,34.3700578 C30.0531094,34.3697639 30.3671958,34.4994081 30.5987109,34.730408 C30.830226,34.9614079 30.9601593,35.2747953 30.9598648,35.6014784 C30.9601593,35.9281614 30.830226,36.2415489 30.5987109,36.4725488 C30.3671958,36.7035487 30.0531094,36.8331929 29.7256977,36.8328989 L29.7256977,36.8330096 Z" id="Shape" fill="url(#linearGradient-2)"></path>
                    </g>
                </g>
            </g>
        </g>
    </g>
</svg>