<?xml version="1.0" encoding="UTF-8"?>
<svg width="50px" height="50px" viewBox="0 0 50 50" version="1.1" xmlns="http://www.w3.org/2000/svg" xmlns:xlink="http://www.w3.org/1999/xlink">
    <!-- Generator: Sketch 46.2 (44496) - http://www.bohemiancoding.com/sketch -->
    <title>mesos-logo@1x</title>
    <desc>Created with Sketch.</desc>
    <defs></defs>
    <g id="Habitat-SaaS-Home-&amp;-Pricing/desktop" stroke="none" stroke-width="1" fill="none" fill-rule="evenodd">
        <g id="Home-V4---2" transform="translate(-1026.000000, -738.000000)">
            <g id="mesos" transform="translate(1026.000000, 738.000000)">
                <g id="mesos-logo">
                    <g id="Group-9" transform="translate(11.000000, 10.000000)">
                        <polygon id="Fill-4" fill="#00AADE" points="20.8266793 18.4974095 26.4196288 15.3014383 26.4196288 21.6933806"></polygon>
                        <path d="M20.9599779,10.9067117 L23.0906253,9.70955413 L26.153431,7.84390597 C26.2865965,7.71207216 26.419762,7.71207216 26.419762,7.97707143 L26.419762,13.8363519 C26.419762,13.9695174 26.419762,14.1026828 26.153431,13.9695174 L20.9599779,11.0412088 L20.9599779,10.9067117 Z" id="Fill-6" fill="#00AADE"></path>
                        <path d="M19.4950246,10.9067117 L17.0980463,12.2383663 L14.168406,13.9695174 C13.9020751,14.1026828 13.9020751,14.1026828 13.9020751,13.8363519 L13.9020751,7.97707143 C13.9020751,7.84390597 13.9020751,7.71207216 14.168406,7.84390597 L19.3618592,10.7735462 L19.4950246,10.9067117 Z" id="Fill-8" fill="#00AADE"></path>
                        <polygon id="Fill-10" fill="#004463" points="14.0351074 15.3009057 19.4948915 18.6300423 14.0351074 21.8260135"></polygon>
                        <polygon id="Fill-12" fill="#004463" points="14.0351074 6.51251765 14.0351074 0.120575333 19.4948915 3.31654649"></polygon>
                        <polygon id="Fill-14" fill="#004463" points="19.4950246 26.0881073 14.0352406 29.2827468 14.0352406 22.8921362"></polygon>
                        <path d="M6.44440957,10.9067117 L4.18059667,12.2383663 L1.11779098,13.9695174 C0.984625511,14.1026828 0.851460046,14.1026828 0.851460046,13.8363519 L0.851460046,7.71207216 L6.44440957,10.9067117 Z" id="Fill-16" fill="#00AADE"></path>
                        <path d="M6.44440957,18.4974095 L4.97958946,19.2964023 L1.25095644,21.4270497 C1.11779098,21.4270497 0.984625511,21.6933806 0.984625511,21.2938843 L0.984625511,15.3014383 L0.984625511,15.1682729 L6.44440957,18.4974095 Z" id="Fill-18" fill="#00AADE"></path>
                        <path d="M13.2359814,15.3009057 L13.2359814,21.4278487 C13.2359814,21.5596825 13.2359814,21.5596825 13.102816,21.5596825 L7.77619739,18.4968768 L13.2359814,15.3009057 Z" id="Fill-20" fill="#004764"></path>
                        <polygon id="Fill-22" fill="#004764" points="7.77606422 26.0881073 13.2358483 22.8921362 13.2358483 29.2827468"></polygon>
                        <path d="M7.77606422,3.31601383 L13.2358483,0.121374326 L13.2358483,0.387705255 L13.2358483,6.24565406 C13.2358483,6.51198499 13.2358483,6.51198499 12.9695174,6.38015118 L7.90922969,3.45051095 L7.77606422,3.31601383 Z" id="Fill-24" fill="#004764"></path>
                        <path d="M7.90936285,10.9067117 L13.3691469,7.71207216 L13.3691469,7.97707143 L13.3691469,13.8363519 C13.3691469,14.1026828 13.3691469,14.1026828 13.102816,13.9695174 L8.04252832,11.0412088 L7.90936285,10.9067117 Z" id="Fill-26" fill="#00AADE"></path>
                        <path d="M20.560082,3.98184115 L26.0198661,7.17781231 C25.7535351,7.31097778 25.6203697,7.4454749 25.3540388,7.57730871 L20.6932475,10.240618 C20.560082,10.3751151 20.4269166,10.3751151 20.4269166,10.1087842 L20.4269166,4.11633827 C20.560082,4.11633827 20.560082,3.98184115 20.560082,3.98184115" id="Fill-28" fill="#00A9DD"></path>
                        <polygon id="Fill-30" fill="#00A9DD" points="20.560082 17.964215 20.560082 11.5722727 26.1530315 14.7695755"></polygon>
                        <polygon id="Fill-32" fill="#00A9DD" points="20.560082 19.1632368 26.1530315 22.359208 20.560082 25.5551791"></polygon>
                        <path d="M7.51013279,3.98184115 L12.9699168,7.17781231 L11.7714277,7.84363964 L7.77646372,10.240618 C7.64329825,10.240618 7.51013279,10.3751151 7.51013279,10.1087842 L7.51013279,3.98184115 Z" id="Fill-34" fill="#00A9DD"></path>
                        <polygon id="Fill-36" fill="#004463" points="7.51013279 19.1632368 12.9699168 22.359208 7.51013279 25.5551791"></polygon>
                        <path d="M14.4343375,7.17834497 L19.8941215,3.98237382 L19.8941215,10.1079852 C19.8941215,10.3743161 19.8941215,10.3743161 19.6277906,10.2411507 L14.7006684,7.31151044 L14.4343375,7.17834497 Z" id="Fill-38" fill="#00A9DD"></path>
                        <polygon id="Fill-40" fill="#004463" points="12.8367514 14.6350783 7.37696732 17.8310495 7.37696732 11.4404388"></polygon>
                        <polygon id="Fill-42" fill="#004463" points="19.8942547 19.1632368 19.8942547 25.5551791 14.4344706 22.359208"></polygon>
                        <polygon id="Fill-44" fill="#004463" points="19.8942547 11.572539 19.8942547 17.9644813 14.4344706 14.7685101"></polygon>
                        <path d="M1.25108961,7.17834497 L6.71087367,3.98237382 L6.71087367,10.1079852 C6.71087367,10.2411507 6.71087367,10.3743161 6.44454274,10.2411507 L1.25108961,7.17834497 Z" id="Fill-46" fill="#00A9DD"></path>
                        <path d="M6.71100683,25.5549128 L1.25122277,22.3602733 C1.25122277,22.2257762 1.38438824,22.2257762 1.38438824,22.2257762 L6.4446759,19.2961359 C6.71100683,19.1629705 6.71100683,19.1629705 6.71100683,19.4293014 L6.71100683,25.2885819 L6.71100683,25.5549128 Z" id="Fill-48" fill="#00A9DD"></path>
                        <path d="M6.71100683,11.572539 L6.71100683,17.699482 C6.71100683,17.8313158 6.71100683,17.9644813 6.4446759,17.8313158 L1.38438824,14.9016756 L1.25122277,14.7685101 L6.71100683,11.572539 Z" id="Fill-50" fill="#00A9DD"></path>
                    </g>
                </g>
            </g>
        </g>
    </g>
</svg>