<svg xmlns="http://www.w3.org/2000/svg" width="50" height="50" viewBox="0 0 50 50">
  <g fill="none" transform="translate(10 15)">
    <g transform="translate(.69 .79)">
      <path fill="#D1A41A" d="M4.56666443 12.983871C4.90688982 13.3960118 5.28505523 13.8136656 5.70116066 14.2336347 4.48966191 14.5916394 3.69539108 15.2565997 3.19998205 15.8437185 2.41609421 16.772965 2.00116739 18.0002363 2.09657867 19.0535219L.0103268736 19.0535219C.428733391 18.1616526 2.09882363 15.5851657 4.56666443 12.983871zM28.7345097 19.6124149L26.1976922 19.6124149C20.3781654 16.6295205 15.2689476 14.5261467 9.84139278 14.0665953 9.85289826 13.3247858 9.98737203 12.4848475 10.2459927 11.5488754L9.74598149 11.4167874C9.48045752 12.37867 9.34138155 13.2491494 9.32527387 14.0282258 8.75976561 13.9909589 8.19077764 13.9728767 7.616065 13.9728767 7.12986034 13.9728767 6.6861979 14.0169796 6.28159795 14.0937185 5.7540297 13.5766129 5.30458646 13.08211 4.92299747 12.6136278 7.42642106 10.0529076 11.549423 7.73607609 15.1379535 6.86449407 16.1483028 10.1634955 18.3172818 12.4238754 20.9493983 13.9446509 21.1424659 13.8362683 21.3321659 13.723365 21.5183863 13.6037361L26.1103628 18.4596774 26.3115122 18.4426978C27.5654409 18.3366305 28.278107 19.0050088 28.4666846 19.2127331 28.6057606 19.3640058 28.6884878 19.5029297 28.7345097 19.6124149z"/>
      <path fill="#FFDC76" d="M26.4942529,3.37011719 C26.5874192,7.85129474 24.259833,11.41789 21.0011449,13.2469443 C15.470097,10.5406849 14.4287109,3.68291647 15.3712621,0.00452054355 C15.6333064,1.41129032 16.1103628,2.29312626 17.1402434,2.72555444 C19.3862249,2.09433279 22.476989,2.04460685 24.7540634,2.66116431 C25.7023393,1.98374496 26.0701778,0.948431197 26.2713272,0.0441028226 C26.521866,1.09628591 26.4931304,3.37011719 26.4942529,3.37011719 Z"/>
    </g>
    <g fill="#000" transform="translate(7.816 2.823)">
      <polygon points="5.455 5.581 6.299 8.037 3.736 6.348"/>
      <polygon points="2.986 6.655 3.892 8.19 1.985 7.239"/>
      <polygon points=".923 7.853 1.36 9.388 .047 8.497"/>
      <polygon points="14.895 11.967 14.082 13.195 15.52 12.55"/>
      <polygon points="16.176 13.379 14.864 14.362 16.677 13.901"/>
      <polygon points="12.988 .054 13.957 2.142 14.582 .023"/>
      <polygon points="8.081 3.094 9.612 3.892 8.237 3.984"/>
      <polygon points="8.456 4.721 9.393 5.089 8.612 5.304"/>
      <polygon points="19.396 3.677 18.146 4.199 19.177 4.353"/>
      <polygon points="18.896 5.181 17.927 5.458 18.708 5.734"/>
    </g>
    <g fill="#000" transform="translate(18.16 4.403)">
      <path d="M5.38085938,2.85830394 L2.25585938,2.85830394 L1.90867457,2.85830394 L0.464933552,2.85830394 L0.464933552,2.52907637 L1.99476922,2.52907637 C2.18312231,1.73676916 2.22038883,0.979523695 1.99319774,0.595608627 C1.89621498,0.432428184 1.7621902,0.356130295 1.57091864,0.356130295 C0.696277839,0.356130295 0.334949713,1.26464844 0.319908402,1.30323841 L0.320132897,1.3030179 L0.00628590805,1.18735825 C0.0242456782,1.13994771 0.46201508,0.0269027274 1.57091863,0.0269027274 C1.88038792,0.0269027274 2.12654902,0.166488158 2.28257453,0.430002526 C2.55960399,0.897492445 2.5270519,1.70633821 2.3393723,2.52907637 L5.02379669,2.52907637 C5.38041038,1.499937 6.12506734,1.0146957 7.36923041,1.0146957 L7.36923041,1.34381302 C6.02067617,1.34381302 5.64295976,1.90535221 5.37311422,2.52907638 L6.83784572,2.52907638 L6.83447826,2.8566501 L5.38085938,2.85830394 Z"/>
      <path d="M5.60120331,4.48426474 L5.60333603,4.48393397 C5.20575162,3.90806136 5.07980874,3.41642515 5.24604886,2.85665007 L4.90458874,2.85830393 C4.78560525,3.23097278 4.8333109,3.79240171 5.12627964,4.27411479 L1.71538255,4.27411479 C1.92293015,3.86583292 2.11532418,3.3680223 2.25585938,2.85830393 L1.90867457,2.85830393 C1.75377155,3.39878402 1.5361216,3.933641 1.29119523,4.35735887 L1.21194775,4.49429813 L3.12601025,5.67779738 L2.04842405,6.37528352 L2.23296069,6.65026462 L3.43738777,5.87030621 L4.73756287,6.70373929 L4.91615033,6.42511972 L3.71060076,5.69257183 C3.71060076,5.69257183 5.51308818,4.54248048 5.60266254,4.48635962 C5.6021013,4.48558783 5.60176455,4.48492628 5.60120331,4.48426474 Z M3.4333468,5.47878339 L2.01755568,4.60323211 L4.78437052,4.60389365 L3.4333468,5.47878339 Z"/>
    </g>
    <g fill="#000">
      <path d="M27.7464417,3.76340411 C27.744309,3.19094947 27.5628031,0.771468623 27.2292003,0.10529549 C26.3247014,0.4429026 24.6786885,1.53687311 24.3061355,2.6555412 C22.5208221,2.3936807 20.5082054,2.42466292 18.7451172,2.72434161 C18.450577,1.52077557 16.9722073,0.599688126 15.8569055,0.080818421 C15.3864718,0.860556324 15.1780262,2.66855154 15.2310637,3.95106162 C15.2290432,3.95238471 15.2268543,3.95370779 15.2248339,3.95514113 C15.431708,9.34064705 18.1213519,12.6937847 21.6385484,14.7260427 C25.2571053,12.6951077 27.8421897,8.73577685 27.742064,3.76097846 C27.7435233,3.7618605 27.7450947,3.76252205 27.7464417,3.76340411 Z M24.735374,2.72511341 C24.7485071,2.72742881 24.7616402,2.72985447 24.7748855,2.73228013 C24.7617524,2.72985446 24.7486193,2.72742881 24.735374,2.72511341 Z M24.5103156,2.68696446 C24.5419697,2.69192603 24.5739606,2.69754914 24.6057269,2.70284148 C24.5739606,2.69754914 24.5421942,2.69214655 24.5103156,2.68696446 Z M27.1835152,4.15194998 C27.2765692,8.63312753 24.948983,12.1996125 21.6904072,14.0287771 C16.1595838,11.3217459 15.1176926,4.464639 16.0608612,0.786463594 C16.3232422,2.19268209 16.7992883,3.07462829 17.8302353,3.50727697 C20.0753749,2.87605533 23.1662513,2.82621913 25.4429889,3.44299711 C26.391826,2.76535725 26.7597768,1.730264 26.9607018,0.825935623 C27.2116896,1.87833922 27.1827294,4.15150895 27.1835152,4.15194998 Z"/>
      <path d="M29.5421942,19.6554152 C28.9742165,19.03125 27.8613842,18.7358713 26.9321906,18.7577022 C26.2726181,17.9865644 22.448983,14.0314233 22.448983,14.0314233 L22.1839641,14.3592175 L26.8002986,19.2409589 L27.0006623,19.2240896 C28.2549277,19.1185736 28.9679306,19.7867313 29.1566204,19.9940146 C29.2950229,20.1460591 29.3785358,20.2847625 29.4239965,20.3935862 L26.8866177,20.3935862 C21.0677644,17.4111328 15.9580976,15.3079795 10.5305989,14.8486486 C10.5424973,14.1067288 10.6769711,13.2669008 10.9349744,12.3310389 L10.4357489,12.1981792 C10.1705056,13.160172 10.0307561,14.031313 10.0149852,14.8099483 C9.44947691,14.7731225 8.88026445,14.754048 8.30605692,14.754048 C7.81906653,14.754048 7.37557246,14.7984816 6.97108476,14.8756615 C6.44351651,14.3577841 5.99407326,13.8641633 5.61214753,13.3956811 C8.13353089,10.8158865 12.2960443,8.48461126 15.9033203,7.62725239 L15.7866379,7.13087512 C11.9025009,8.05086 7.65103043,10.5557901 5.28196838,12.9749401 C4.18254983,11.5173418 3.74635191,10.3212733 3.61681707,9.41485004 C3.45315867,8.27005103 3.73136672,7.21985256 4.42130252,6.37781942 C5.50141432,5.05980657 7.03613279,4.96697012 8.61406698,5.2276178 C8.58325475,5.47238848 8.61603132,5.70635395 8.7158203,5.85112145 C9.13316046,6.45654295 11.375999,6.66922882 12.7147876,6.08255102 C11.7268319,4.72264048 9.72560837,4.05867248 9.17110047,4.32472277 C8.9874057,4.41281815 8.84883485,4.57467552 8.75387256,4.7634356 C8.20845679,4.66762222 7.66674523,4.5962859 7.27078843,4.59915259 C5.87913074,4.60918598 4.81523885,5.08681955 4.01838631,6.05928679 C3.23657507,7.0133411 2.92059536,8.19816342 3.10457076,9.48552482 C3.27883666,10.7048576 3.89345367,12.0017011 4.92355872,13.3466167 C4.75243579,13.526887 4.58703753,13.7049521 4.42786907,13.8798198 C1.91714933,16.6393334 0.0818853218,19.5984123 0.0818853218,20.0887254 L0.0818853218,20.3427577 L3.3940598,20.3427577 L3.3360273,20.0415354 C3.14896507,19.0705015 3.52252829,17.8567918 4.28767062,16.949707 C4.76803834,16.3802293 5.56348779,15.730264 6.81270205,15.4303648 C7.92340157,16.4951172 9.33851922,17.6259136 10.9137033,18.7169071 L13.3750337,18.7169071 L13.3750337,18.4628749 C13.3750337,18.1762065 13.2303453,17.9252615 12.9675714,17.7564579 C12.5787424,17.5067257 11.9784932,17.4723255 11.4271282,17.657006 C10.9014682,17.0820155 10.6067596,16.3138546 10.5431147,15.3598003 C15.8849677,15.8244235 20.9944661,17.9433436 26.7597768,20.9016507 L29.9319212,20.9016507 L29.9734532,20.6974546 C30.0327205,20.4067068 29.8714193,20.0171686 29.5421942,19.6554152 Z M3.88941271,16.6255513 C3.10597386,17.5543567 2.69071031,18.7812973 2.78584097,19.8346932 L0.699308552,19.8346932 C1.11855693,18.9434854 2.78853493,16.367219 5.25603898,13.7650422 C5.59603987,14.1778446 5.97476653,14.5948368 6.3907597,15.015247 C5.17926095,15.3729209 4.38499013,16.0381017 3.88941271,16.6255513 Z"/>
    </g>
  </g>
</svg>
