<?xml version="1.0" encoding="UTF-8"?>
<svg width="50px" height="50px" viewBox="0 0 50 50" version="1.1" xmlns="http://www.w3.org/2000/svg" xmlns:xlink="http://www.w3.org/1999/xlink">
    <!-- Generator: Sketch 46.2 (44496) - http://www.bohemiancoding.com/sketch -->
    <title>python@1x</title>
    <desc>Created with Sketch.</desc>
    <defs></defs>
    <g id="Habitat-SaaS-Home-&amp;-Pricing/desktop" stroke="none" stroke-width="1" fill="none" fill-rule="evenodd">
        <g id="Home-V4---2" transform="translate(-1088.000000, -738.000000)">
            <g id="k8s" transform="translate(1088.000000, 738.000000)">
                <g id="k8s-logo">
                    <g id="Group-8" transform="translate(10.000000, 10.000000)">
                        <path d="M15.0565683,0.28558231 C14.7707459,0.28558231 14.4834873,0.428088452 14.3384216,0.428088452 L3.99854517,5.41580344 C3.42259151,5.70081572 2.99313977,6.12833415 2.84807413,6.69835872 L0.262745946,17.8138378 C0.120552896,18.3824373 0.262745946,18.8113808 0.550004633,19.2388993 L0.693633977,19.3799803 L7.87510116,28.2167862 C8.30742548,28.6428796 8.88050656,28.929317 9.45646023,28.929317 L20.9468077,28.929317 C21.5198888,28.929317 22.0944062,28.6428796 22.5252942,28.2167862 L29.7067614,19.3799803 C30.1376494,18.953887 30.2827151,18.2413563 30.1376494,17.6699066 L27.5523212,6.55442752 C27.4101282,5.98582801 26.9792402,5.41580344 26.4032865,5.2732973 L16.0619737,0.28558231 C15.6310857,0.428088452 15.343827,0.28558231 15.0565683,0.28558231" id="Fill-4" fill="#326CE5"></path>
                        <path d="M15.0565683,18.2407862 C15.343827,18.2407862 15.4888927,18.2407862 15.6310857,18.5257985 L17.2110085,21.3759214 L16.6379274,21.5184275 C15.4888927,21.8034398 14.1947923,21.6609337 13.0471938,21.3759214 L14.6256803,18.5257985 C14.7707459,18.2407862 14.912939,18.2407862 15.0565683,18.2407862 L15.0565683,18.2407862 Z M12.3290471,16.8157248 C12.6163058,16.8157248 12.9021282,17.1007371 12.9021282,17.3857494 L12.9021282,17.5282555 L11.6109004,20.5208845 C10.4618656,19.8083538 9.45646023,18.6683047 9.0255722,17.2432432 L12.3290471,16.8157248 Z M17.7855259,16.8157248 L17.7855259,16.8157248 L21.2340664,17.3857494 C20.8017421,18.6683047 19.797773,19.8083538 18.6473019,20.6633907 L17.4982672,17.6707617 C17.3560741,17.3857494 17.3560741,17.1007371 17.7855259,16.8157248 L17.7855259,16.8157248 Z M14.6256803,14.2506143 L15.6310857,14.2506143 L16.2070394,14.963145 L16.0619737,15.960688 L15.201634,16.3882064 L14.3384216,15.960688 L14.1947923,14.963145 L14.6256803,14.2506143 Z M20.5159197,11.8280098 C21.2340664,12.968059 21.5198888,14.3931204 21.3762595,15.8181818 L18.2164139,14.963145 C17.9291552,14.8206388 17.7855259,14.5356265 17.7855259,14.2506143 C17.7855259,14.1081081 17.9291552,14.1081081 17.9291552,13.965602 L20.5159197,11.8280098 Z M9.59865328,11.8280098 L12.0403521,13.965602 C12.3290471,14.1081081 12.3290471,14.5356265 12.0403521,14.6781327 C11.8981591,14.8206388 11.8981591,14.8206388 11.7530934,14.8206388 L8.59324788,15.6756757 C8.59324788,14.5356265 8.88050656,13.1105651 9.59865328,11.8280098 L9.59865328,11.8280098 Z M15.9197807,8.97788698 C17.3560741,9.12039312 18.6473019,9.83292383 19.5105143,10.8304668 L16.7801205,12.6830467 C16.4928618,12.8255528 16.2070394,12.8255528 16.0619737,12.5405405 C16.0619737,12.3980344 15.9197807,12.3980344 15.9197807,12.2555283 L15.9197807,8.97788698 Z M14.3384216,8.97788698 L14.1947923,12.2555283 C14.1947923,12.5405405 13.9075336,12.8255528 13.6202749,12.8255528 C13.4766456,12.8255528 13.3344525,12.8255528 13.3344525,12.6830467 L10.6040587,10.8304668 C11.4658347,9.97542998 12.4712402,9.40540541 13.6202749,9.12039312 L14.3384216,8.97788698 Z M15.0565683,4.13267813 C14.6256803,4.13267813 14.4834873,4.41769042 14.4834873,4.84520885 L14.4834873,4.98771499 L14.4834873,5.55773956 L14.4834873,6.6977887 C14.4834873,6.84029484 14.3384216,6.98280098 14.3384216,6.98280098 L14.3384216,7.26781327 C13.9075336,7.26781327 13.6202749,7.41031941 13.1893869,7.41031941 C11.6109004,7.6953317 10.1746069,8.55036855 9.16776525,9.69041769 L9.0255722,9.54791155 L8.73831351,9.54791155 C8.44961853,9.26289926 8.16235985,9.12039312 7.87510116,8.83538084 C7.73147181,8.69287469 7.58927876,8.55036855 7.44421313,8.40786241 L7.30202008,8.26535627 C7.15695444,8.12285012 7.0133251,8.12285012 6.87113205,8.12285012 C6.72606641,8.12285012 6.43880772,8.12285012 6.43880772,8.26535627 C6.29517838,8.55036855 6.29517838,8.97788698 6.58387336,9.12039312 L6.72606641,9.26289926 L7.30202008,9.54791155 C7.58927876,9.69041769 7.87510116,9.97542998 8.16235985,10.2604423 C8.30742548,10.4029484 8.30742548,10.5454545 8.30742548,10.5454545 L8.44961853,10.6879607 C7.30202008,12.2555283 6.87113205,14.2506143 7.15695444,16.2457002 L6.87113205,16.2457002 C6.87113205,16.3882064 6.72606641,16.3882064 6.58387336,16.5307125 C6.15298533,16.6732187 5.86572664,16.6732187 5.43483861,16.6732187 L4.71669189,16.6732187 C4.4294332,16.8157248 4.28436757,17.1007371 4.28436757,17.5282555 C4.4294332,17.8132678 4.71669189,17.955774 4.85888494,17.955774 L5.00251429,17.955774 L5.57703166,17.8132678 C5.86572664,17.6707617 6.29517838,17.5282555 6.72606641,17.5282555 C6.87113205,17.5282555 7.0133251,17.5282555 7.0133251,17.6707617 L7.30202008,17.6707617 C7.87510116,19.5233415 9.16776525,21.0909091 10.8927537,22.0884521 L10.747688,22.3734644 L10.747688,22.6584767 C10.6040587,22.9434889 10.4618656,23.3710074 10.1746069,23.6560197 C10.0295413,23.7985258 9.88591197,23.9410319 9.88591197,24.0835381 L9.88591197,24.2260442 C9.74371892,24.5110565 9.88591197,24.9385749 10.1746069,25.0810811 C10.4618656,25.2235872 10.8927537,25.0810811 11.0349467,24.7960688 L11.0349467,24.6535627 C11.1800124,24.5110565 11.1800124,24.2260442 11.1800124,24.0835381 C11.3222054,23.6560197 11.4658347,23.3710074 11.6109004,22.9434889 C11.7530934,22.9434889 11.7530934,22.8009828 11.8981591,22.8009828 L12.0403521,22.5159705 C13.9075336,23.2285012 15.9197807,23.2285012 17.7855259,22.5159705 L17.9291552,22.8009828 C18.0742208,22.8009828 18.2164139,22.9434889 18.2164139,22.9434889 C18.3614795,23.2285012 18.5036726,23.6560197 18.6473019,23.9410319 C18.6473019,24.0849631 18.7923676,24.3685504 18.7923676,24.5110565 L18.7923676,24.6535627 C18.9345606,24.9385749 19.3654486,25.0810811 19.6527073,24.9385749 C19.939966,24.7974939 20.0835954,24.3685504 19.939966,24.0849631 C19.797773,23.9410319 19.797773,23.7985258 19.6527073,23.6560197 C19.5105143,23.3724324 19.2218193,23.0859951 19.0796263,22.6599017 L19.0796263,22.3734644 C19.0796263,22.2309582 18.9345606,22.2309582 18.9345606,22.0884521 C20.6581127,21.0909091 21.9522131,19.5233415 22.5252942,17.6707617 L22.8125529,17.6707617 C22.9576185,17.5282555 23.1012479,17.5282555 23.1012479,17.5282555 C23.5306996,17.6707617 23.8193946,17.6707617 24.2488463,17.8132678 L24.8248,17.955774 L24.9669931,17.955774 C25.255688,17.955774 25.6851398,17.6707617 25.6851398,17.3857494 C25.6851398,17.1007371 25.5429467,16.8157248 25.255688,16.8157248 L24.5375413,16.8157248 C24.1066533,16.8157248 23.8193946,16.6732187 23.3885066,16.6732187 C23.2434409,16.6732187 23.2434409,16.5307125 23.1012479,16.3882064 L22.8125529,16.3882064 C23.1012479,14.3931204 22.6703598,12.5405405 21.5198888,10.8304668 L21.6649544,10.6879607 C21.6649544,10.5454545 21.6649544,10.4029484 21.8071475,10.4029484 C22.0944062,10.1179361 22.3831012,9.97542998 22.6703598,9.69041769 L23.2434409,9.40540541 L23.3885066,9.26289926 C23.674329,8.97788698 23.674329,8.69287469 23.5306996,8.40786241 C23.2434409,8.12285012 22.9561822,8.12285012 22.6703598,8.26535627 L22.5252942,8.40786241 C22.3831012,8.55036855 22.2380355,8.69287469 22.0944062,8.83538084 C21.8071475,9.12039312 21.5198888,9.40540541 21.2340664,9.54791155 L20.8017421,9.54791155 L20.5159197,9.69041769 C19.2218193,8.26535627 17.3560741,7.41031941 15.343827,7.26781327 L15.343827,6.98280098 C15.201634,6.84029484 15.201634,6.84029484 15.201634,6.6977887 L15.201634,5.55773956 L15.201634,4.98771499 L15.201634,4.84520885 C15.201634,4.41769042 14.912939,4.13267813 14.6256803,4.13267813 L15.0565683,4.13267813 Z" id="Fill-6" fill="#FFFFFF"></path>
                    </g>
                </g>
            </g>
        </g>
    </g>
</svg>