<svg xmlns="http://www.w3.org/2000/svg" width="50" height="50" viewBox="0 0 50 50">
  <g fill="none" fill-rule="evenodd" transform="translate(10 15)">
    <rect width="3.058" height="2.813" x="6.142" y="7.315" fill="#099CEC" fill-rule="nonzero"/>
    <rect width="3.058" height="2.813" x="2.527" y="7.315" fill="#099CEC" fill-rule="nonzero"/>
    <rect width="3.058" height="2.813" x="9.754" y="7.315" fill="#099CEC" fill-rule="nonzero"/>
    <rect width="3.058" height="2.813" x="13.368" y="7.315" fill="#099CEC" fill-rule="nonzero"/>
    <rect width="3.058" height="2.813" x="16.983" y="7.315" fill="#099CEC" fill-rule="nonzero"/>
    <rect width="3.058" height="2.813" x="6.142" y="3.938" fill="#099CEC" fill-rule="nonzero"/>
    <rect width="3.058" height="2.813" x="9.754" y="3.938" fill="#099CEC" fill-rule="nonzero"/>
    <rect width="3.058" height="2.813" x="13.368" y="3.938" fill="#099CEC" fill-rule="nonzero"/>
    <rect width="3.058" height="2.813" x="13.368" y=".563" fill="#099CEC" fill-rule="nonzero"/>
    <path fill="#099CEC" fill-rule="nonzero" d="M29.1493151,8.18168317 C28.5226027,7.75336634 26.8726027,7.57247525 25.6746575,7.89891089 C25.6109589,6.69089109 24.9945206,5.67207921 23.8684931,4.78009901 L23.4575343,4.49732673 L23.180137,4.91316831 C22.6319835,5.80568567 22.3853486,6.85429705 22.4773973,7.9009901 C22.5319189,8.56855596 22.7727791,9.20670354 23.1719178,9.74108914 C22.8534246,9.99059408 21.8650685,10.4750495 20.5315069,10.450099 L0.653424657,10.450099 C0.3,12.5750495 0.906164382,20.6382179 10.1054794,20.6382179 C16.9356164,20.6382179 22.5472602,17.529802 25.1178082,11.0094059 C25.9643836,11.0239604 28.2,11.1632673 29.2869863,9.02792083 C29.3136986,8.99257424 29.5643836,8.46237624 29.5643836,8.46237624 L29.1493151,8.18168317 Z"/>
    <path fill="#FFF" fill-rule="nonzero" d="M12.5075343,20.2951485 C7.51027398,21.8316831 4.47945206,19.1287128 2.77808219,17.6961386 C4.55260976,17.673917 6.31309538,17.3744451 7.99726027,16.8083169 C9.01258862,18.504314 10.6235044,19.7496911 12.5075343,20.2951485 Z"/>
    <path d="M12.5075343,20.2951485 C7.51027398,21.8316831 4.47945206,19.1287128 2.77808219,17.6961386 C4.55260976,17.673917 6.31309538,17.3744451 7.99726027,16.8083169 C9.01258862,18.504314 10.6235044,19.7496911 12.5075343,20.2951485 Z"/>
    <path fill="#026FB6" fill-rule="nonzero" d="M7.74452055,16.3134653 C6.61738001,16.9617631 5.34238931,17.300783 4.04589041,17.2969307 C3.38254161,17.2976737 2.72201279,17.2095822 2.08150685,17.0349505 L2.47808219,17.7106931 C4.37059675,18.0872618 6.33380299,17.767234 8.01369863,16.8083169 C7.91712329,16.6461386 7.82671233,16.4818811 7.74452055,16.3134653 Z"/>
    <ellipse cx="9.859" cy="14.962" fill="#FFF" fill-rule="nonzero" rx="1" ry="1"/>
    <path fill="#4D5C64" fill-rule="nonzero" d="M10.0047945,14.6854455 C10.0059067,14.5995795 10.0460876,14.5190299 10.1136986,14.4671287 C10.0366768,14.4247815 9.95066056,14.4019518 9.86301371,14.4005941 C9.55575644,14.3983186 9.30474529,14.6483061 9.30210953,14.959211 C9.29947385,15.2701157 9.54620974,15.5244238 9.85346038,15.5274824 C10.1607111,15.530541 10.4123437,15.2811941 10.4157534,14.970297 C10.4157534,14.959901 10.4157534,14.9495049 10.4157534,14.9370297 C10.3724087,14.9610821 10.3233551,14.972592 10.2739726,14.970297 C10.1228618,14.9646766 10.0035806,14.83845 10.0047945,14.6854455 Z"/>
    <path fill="#000" fill-rule="nonzero" d="M29.0691781,8.13178218 C28.4527398,7.71594059 26.7328767,7.5080198 25.590411,7.84485148 L25.3356164,8.20871287 C21.6102739,16.009901 16.9479452,19.309604 10.5780822,19.4551485 C3.63287671,19.4364356 1.89452055,15.7312872 1.40342466,10.6767327 L0.291780822,10.6767327 C0.147945206,12.8016831 0.684246575,20.6111882 9.94931506,20.6111882 C16.7876712,20.6111882 22.4178082,17.5110891 25.0171233,10.9969307 C25.8657534,11.0114852 28.2287671,11.0114852 29.270548,8.87198016 L29.4760274,8.41871287 L29.0691781,8.13178218 Z" opacity=".05"/>
    <rect width="1" height="1.688" x="3.082" y="7.876" fill="#066DA5" fill-rule="nonzero"/>
    <rect width="1" height="1.688" x="3.916" y="7.876" fill="#066DA5" fill-rule="nonzero"/>
    <rect width="1" height="1.688" x="4.751" y="7.876" fill="#066DA5" fill-rule="nonzero"/>
    <rect width="1" height="1.688" x="6.697" y="7.876" fill="#066DA5" fill-rule="nonzero"/>
    <rect width="1" height="1.688" x="7.531" y="7.876" fill="#066DA5" fill-rule="nonzero"/>
    <rect width="1" height="1.688" x="8.365" y="7.876" fill="#066DA5" fill-rule="nonzero"/>
    <rect width="1" height="1.688" x="10.311" y="7.876" fill="#066DA5" fill-rule="nonzero"/>
    <rect width="1" height="1.688" x="11.145" y="7.876" fill="#066DA5" fill-rule="nonzero"/>
    <rect width="1" height="1.688" x="11.979" y="7.876" fill="#066DA5" fill-rule="nonzero"/>
    <rect width="1" height="1.688" x="13.925" y="7.876" fill="#066DA5" fill-rule="nonzero"/>
    <rect width="1" height="1.688" x="14.76" y="7.876" fill="#066DA5" fill-rule="nonzero"/>
    <rect width="1" height="1.688" x="15.594" y="7.876" fill="#066DA5" fill-rule="nonzero"/>
    <rect width="1" height="1.688" x="17.54" y="7.876" fill="#066DA5" fill-rule="nonzero"/>
    <rect width="1" height="1.688" x="18.374" y="7.876" fill="#066DA5" fill-rule="nonzero"/>
    <rect width="1" height="1.688" x="19.208" y="7.876" fill="#066DA5" fill-rule="nonzero"/>
    <rect width="1" height="1.688" x="7.531" y="4.501" fill="#066DA5" fill-rule="nonzero"/>
    <rect width="1" height="1.688" x="8.365" y="4.501" fill="#066DA5" fill-rule="nonzero"/>
    <rect width="1" height="1.688" x="10.311" y="4.501" fill="#066DA5" fill-rule="nonzero"/>
    <rect width="1" height="1.688" x="11.145" y="4.501" fill="#066DA5" fill-rule="nonzero"/>
    <rect width="1" height="1.688" x="11.979" y="4.501" fill="#066DA5" fill-rule="nonzero"/>
    <rect width="1" height="1.688" x="13.925" y="4.501" fill="#066DA5" fill-rule="nonzero"/>
    <rect width="1" height="1.688" x="14.76" y="4.501" fill="#066DA5" fill-rule="nonzero"/>
    <rect width="1" height="1.688" x="15.594" y="4.501" fill="#066DA5" fill-rule="nonzero"/>
    <rect width="1" height="1.688" x="14.76" y="1.125" fill="#066DA5" fill-rule="nonzero"/>
    <rect width="1" height="1.688" x="13.925" y="1.125" fill="#066DA5" fill-rule="nonzero"/>
    <rect width="1" height="1.688" x="15.594" y="1.125" fill="#066DA5" fill-rule="nonzero"/>
    <rect width="1" height="1.688" x="6.697" y="4.501" fill="#066DA5" fill-rule="nonzero"/>
    <path fill="#066DA5" fill-rule="nonzero" d="M29.2068493,7.9009901 C28.5390411,7.44564356 27.0164383,7.27722772 25.8226027,7.50594059 C25.6684931,6.36861386 25.0376712,5.3809901 23.9321918,4.50772277 L23.2767124,4.06277228 L22.8452055,4.72396039 C22.2678691,5.66666934 22.0083049,6.77343954 22.1054794,7.87811881 C22.1600034,8.49678376 22.3562927,9.09407187 22.6787671,9.62257424 C22.0330548,9.94908276 21.3211622,10.1192051 20.5993151,10.1195049 L20.5993151,6.75118811 L16.9828767,6.75118811 L16.9828767,0 L12.8136986,0 L12.8136986,3.37663366 L5.58493151,3.37663366 L5.58493151,6.75118811 L1.97054794,6.75118811 L1.97054794,10.1215842 L0.326712329,10.1215842 L0.281506849,10.3565346 C0.169295275,11.2130336 0.180369313,12.0814684 0.314383562,12.9347525 C0.481978238,14.1623846 0.869116103,15.3488702 1.45684931,16.4361386 C2.9979452,19.2368317 5.80068493,20.8814852 10.0089041,20.8814852 C17.1678082,20.8814852 22.6541096,17.5360396 25.2143836,11.2568317 C25.9365437,11.3022562 26.6606072,11.2069673 27.3472602,10.9761386 C28.2577875,10.6626309 29.0094121,9.99845297 29.4390411,9.1277228 C29.4657534,9.08198016 29.5047945,9.00297029 29.5890411,8.83039605 L29.6835617,8.63287128 L29.7267124,8.54346535 L29.8315069,8.3209901 L29.2068493,7.9009901 Z M16.9828767,7.31465347 L20.040411,7.31465347 L20.040411,10.1215842 L16.9828767,10.1215842 L16.9828767,7.31465347 Z M13.3684931,0.563465346 L16.4280822,0.563465346 L16.4280822,3.37663366 L13.3684931,3.37663366 L13.3684931,0.563465346 Z M13.3684931,3.94009901 L16.4280822,3.94009901 L16.4280822,6.75118811 L13.3684931,6.75118811 L13.3684931,3.94009901 Z M13.3684931,7.31673267 L16.4280822,7.31673267 L16.4280822,10.1236634 L13.3684931,10.1236634 L13.3684931,7.31673267 Z M9.75410956,3.9380198 L12.8136986,3.9380198 L12.8136986,6.75118811 L9.75410956,6.75118811 L9.75410956,3.9380198 Z M9.75410956,7.31465347 L12.8136986,7.31465347 L12.8136986,10.1215842 L9.75410956,10.1215842 L9.75410956,7.31465347 Z M6.14178082,3.9380198 L9.19931506,3.9380198 L9.19931506,6.75118811 L6.14178082,6.75118811 L6.14178082,3.9380198 Z M6.14178082,7.31465347 L9.19931506,7.31465347 L9.19931506,10.1215842 L6.14178082,10.1215842 L6.14178082,7.31465347 Z M2.52739726,7.31465347 L5.58493151,7.31465347 L5.58493151,10.1215842 L2.52739726,10.1215842 L2.52739726,7.31465347 Z M29.079452,8.58920792 L28.9931507,8.7638614 C28.9808219,8.78881185 28.970548,8.80752477 28.9438356,8.8553465 C28.5795324,9.60274026 27.9363477,10.1727745 27.1561644,10.439703 C26.515696,10.6505841 25.8410652,10.7345912 25.1691781,10.6871287 L25.0253425,10.6871287 L24.8342466,10.6871287 L24.7623288,10.8680198 C22.329452,17.0391089 17.019863,20.320099 10.0089041,20.320099 C6,20.320099 3.38630137,18.7835644 1.94178082,16.1616831 C1.38743658,15.1342738 1.02258322,14.0133224 0.865068493,12.8536634 C0.756881754,12.1368113 0.734803528,11.4093474 0.799315069,10.6871287 L20.5972602,10.6871287 L20.5972602,10.6871287 C21.6986301,10.6746535 22.7280822,10.3295049 23.2438356,9.92405942 L23.4719178,9.74524749 L23.2890411,9.51861382 C22.9238434,9.02732792 22.7043374,8.44103354 22.6561644,7.82821782 C22.5705311,6.85233055 22.7982418,5.87452033 23.3054794,5.04 L23.4287671,4.85079208 L23.6054794,4.97138614 C24.6842466,5.82386138 25.2390411,6.7719802 25.2965754,7.88227723 L25.3150685,8.23158416 L25.6458904,8.14217821 C26.7287671,7.84693069 28.3171233,7.99039604 28.8945206,8.38752475 L29.1,8.53306931 L29.079452,8.58920792 Z"/>
  </g>
</svg>
