<svg xmlns="http://www.w3.org/2000/svg" width="50" height="50" viewBox="0 0 50 50">
  <g fill="none" transform="translate(10 10)">
    <path fill="#0E0F0D" d="M29.8413281,10.561063 C29.8272656,10.4512205 29.8105078,10.341378 29.7880078,10.2338976 C29.7677975,10.1209725 29.7419838,10.0091392 29.7106641,9.8988189 L29.6273437,9.76559055 C29.2841016,9.49393701 28.9137891,9.28866142 28.5378516,9.10724409 C28.2275391,8.9596063 27.9123047,8.83086614 27.5933203,8.71228346 C26.7044531,6.22594488 25.1764453,4.02129921 23.1673828,2.48515748 C21.0908203,0.897401575 18.6483984,0.0569291339 16.1047266,0.0569291339 C13.5609375,0.0569291339 11.1183984,0.897401575 9.04183594,2.48527559 C7.03265625,4.02129921 5.50453125,6.22606299 4.61578125,8.71299213 C4.29761719,8.83110236 3.98179687,8.96019685 3.67195312,9.10724409 C3.2953125,9.28866142 2.92523437,9.49393701 2.58199219,9.76559055 L2.4984375,9.8988189 C2.46854787,10.0094766 2.44271006,10.1212058 2.42097656,10.2337795 C2.39941406,10.3414961 2.38324219,10.4511024 2.36777344,10.5609449 C2.33719003,10.7784738 2.31630965,10.9972767 2.30519531,11.2166929 C2.28317183,11.6559244 2.29606456,12.0962278 2.34375,12.5333858 C2.39028193,12.9716599 2.47115948,13.4055344 2.585625,13.8309449 C2.64570033,14.0449914 2.7158977,14.2560198 2.79597656,14.4633071 C2.83628906,14.5679528 2.88035156,14.6718898 2.92921875,14.7757087 C2.95335938,14.8273228 2.97960938,14.8777559 3.0065625,14.9305512 C3.06621094,15.0359055 3.07710938,15.0564567 3.1021875,15.0938976 L3.21492188,15.1985433 C3.28839844,15.2365748 3.34921875,15.2655118 3.41566406,15.2972835 L3.60984375,15.3850394 C3.64582031,15.3999213 3.67957031,15.4145669 3.71625,15.4294488 C2.83441406,16.2511417 1.87675781,17.318622 1.04742188,18.6379134 L0,20.3031496 L1.47035156,19.0024016 C1.4953125,18.9804331 2.72824219,17.904685 4.78441406,16.6860236 L4.81324219,16.924252 C4.67871094,16.9947638 4.0321875,17.3366929 3.84,17.4987402 C3.52148437,17.765315 3.50601562,18.1790551 3.59132812,18.9509055 C3.63503906,19.3465748 3.78222656,20.1145276 3.98074219,20.8187008 C4.32269531,22.0303937 4.57335937,22.2446457 4.7934375,22.2948425 C4.89269531,22.3188189 5.02078125,22.3298031 5.16492187,22.3298031 C5.55878906,22.3298031 6.06328125,22.2525591 6.39246094,22.1524016 C6.77859375,23.3625591 7.32550781,24.4550787 7.99230469,25.4138976 C7.96007812,25.4226378 7.92832031,25.4331496 7.89609375,25.4423622 C7.49507813,25.2549213 6.0928125,24.6002362 5.62148438,24.3866929 L4.63652344,23.9397638 L5.2190625,24.8565354 C5.26148438,24.9226772 6.26707031,26.5029921 7.08796875,27.5681102 C7.85589844,28.5614173 8.90730469,29.5782283 10.8912891,29.5782283 C11.1301172,29.5782283 11.3799609,29.5626378 11.6374219,29.5340551 C12.2289844,29.4655512 12.6735938,29.411811 13.0115625,29.3681102 C15.0942188,30.1393701 17.3907422,30.1868504 19.5700781,29.3545276 C20.1408781,29.1357769 20.6896561,28.8626088 21.2089453,28.5387402 C22.0491797,28.3353543 22.9682813,28.1147244 23.4222656,27.9861024 C23.4950391,27.9662598 23.5862109,27.9444094 23.6810156,27.9218504 C24.3135937,27.7752756 25.3708594,27.5279528 25.9345312,26.391378 C26.5026563,25.2446457 27.4290234,23.4875197 27.43875,23.4695669 L27.8719922,22.6498819 L27.0278906,23.019685 C26.9827734,23.0403543 25.9133203,23.5097244 25.3577344,23.8032283 C25.74375,22.9074803 25.9712109,22.1659843 26.0504297,21.8812205 C26.3615625,21.956811 26.8228125,21.947126 27.1620703,21.947126 C27.3288281,21.947126 27.5003906,21.9178346 27.6117187,21.889252 C27.8322656,21.8327953 28.0025391,21.6851575 28.3226953,20.4348425 C28.5091406,19.7081102 28.6428516,18.9167717 28.6795312,18.51 C28.7504297,17.7184252 28.7274609,17.2941732 28.4069531,17.0264173 C28.2472266,16.8934252 27.7784766,16.6390157 27.5401172,16.5138189 C27.6734766,16.4562992 27.7388672,16.473189 27.7440234,16.4746063 L27.9603516,15.6474803 C28.0365234,15.6146457 28.1171484,15.5816929 28.2087891,15.5462598 C28.3394531,15.4938189 28.4701172,15.4417323 28.6008984,15.3849213 L28.7939062,15.2971654 C28.8611719,15.2653937 28.9216406,15.2365748 28.9952344,15.1984252 L29.1079687,15.0937795 C29.1323437,15.0563386 29.1454687,15.0357874 29.1603516,15.0072047 C29.2318359,14.8776378 29.2570312,14.8272047 29.2808203,14.7757087 C29.3296875,14.6717717 29.3730469,14.5678346 29.4140625,14.463189 C29.4940833,14.2559176 29.5641643,14.0448863 29.6240625,13.8308268 C29.7387171,13.4054423 29.8197133,12.971562 29.8662891,12.5332677 C29.9149219,12.0962598 29.9258203,11.656063 29.9040234,11.2165748 C29.8934441,10.9971537 29.8725221,10.7783635 29.8413281,10.5609449 L29.8413281,10.561063 Z"/>
    <path fill="#E1C5A2" d="M17.4686719,27.5940945 C17.3092969,27.618189 17.1499219,27.6377953 16.9924219,27.6505512 C16.8898828,27.6556299 16.7823047,27.6659055 16.6842188,27.6659055 L16.6476563,27.6668504 C16.7707031,27.3904724 16.8642188,27.1755118 16.9346484,27.0127559 C17.0787891,27.1755118 17.2620703,27.3766535 17.4686719,27.5940945"/>
    <path fill="#A89983" d="M17.2753125,15.2366929 C17.0261719,15.4405512 16.7636719,15.6303543 16.4902734,15.7968898 L15.5784375,16.3512992 C15.0065625,16.4216929 14.5101562,16.5641339 14.4817969,16.572874 C14.4651562,16.5764173 14.4494531,16.5843307 14.4346875,16.5933071 C14.3895242,16.6201945 14.3558987,16.6630521 14.3403516,16.7135433 L13.4116406,19.7974016 L8.44792969,20.91 L6.8840625,19.8062598 L6.429375,16.092874 C7.31753906,15.9284646 8.50476562,15.7387795 9.9309375,15.5774409 C9.77550438,15.7646115 9.62810345,15.9584115 9.48914062,16.1583071 L8.64011719,17.3865354 L9.8765625,16.5558661 C9.8953125,16.542874 10.6821094,16.0208268 11.97,15.3856299 C13.3729747,15.2796791 14.7793815,15.2264925 16.1862891,15.2261811 C16.5566016,15.2261811 16.9191797,15.2306693 17.2753125,15.236811 L17.2753125,15.2366929 Z M9.54914062,19.4201575 C9.901875,19.2279921 10.3003125,19.2562205 10.9241016,19.2576378 C10.9905469,19.2588189 11.0598047,19.2581102 11.1315234,19.2562205 C11.1930469,19.2562205 11.2545703,19.2550394 11.3198438,19.2531496 C11.9627344,19.2466535 12.4967578,19.3079528 12.4870312,18.2914961 C12.4775391,17.2749213 12.0291797,16.4527559 11.3867578,16.4591339 C10.7445703,16.4649213 10.1227734,17.2980709 10.1612109,18.3141732 C10.1714063,18.5787402 10.2104297,18.7699606 10.2720703,18.9073228 C9.71226562,19.0491732 9.55722656,19.398189 9.54902344,19.4201575 L9.54914062,19.4201575 Z M25.8785156,16.0807087 L25.4315625,19.2381496 L23.8550391,20.3509843 L18.8977734,19.7831102 L17.9728125,16.7134252 C17.9522918,16.6454076 17.8990203,16.5924722 17.83125,16.5727559 C17.8007813,16.5634252 17.1870703,16.3866142 16.5364453,16.3299213 L16.6555078,16.3220079 C16.7580469,16.3142126 18.4675781,16.1032677 20.5095703,15.3941339 C22.7701172,15.568937 24.6167578,15.8485039 25.8786328,16.0807087 L25.8785156,16.0807087 Z M22.7112891,19.0033465 C22.7048438,18.9787795 22.5687891,18.5703543 21.9720703,18.6420472 C22.0405078,18.4908661 22.0714453,18.2868898 22.0497656,18.0069685 C21.9710156,16.9924016 21.3848438,16.186063 20.743125,16.2088583 C20.1007031,16.2312992 19.6898438,17.0723622 19.7253516,18.0903543 C19.7607422,19.1058661 20.2991016,19.0988976 20.9415234,19.075748 C21.8042578,19.0592126 22.2779297,18.7922835 22.7112891,19.0033465 L22.7112891,19.0033465 Z"/>
    <path fill="#FFF" d="M21.0152344,17.1767717 C21.0184356,17.3593321 20.8743325,17.5100136 20.6932031,17.5135039 C20.6062083,17.5150837 20.52216,17.4817369 20.4595785,17.4208117 C20.396997,17.3598865 20.3610183,17.2763827 20.3595703,17.1887008 C20.3578447,17.1010628 20.3907723,17.0163313 20.4510935,16.9531865 C20.5114147,16.8900418 20.5941766,16.8536688 20.6811328,16.8520866 C20.768271,16.8501573 20.8525666,16.8833742 20.9152987,16.9443603 C20.9780307,17.0053464 21.0140058,17.089053 21.0152344,17.1768898 M11.8140234,17.4200787 C11.8185505,17.6023617 11.6758842,17.7539695 11.4950391,17.7590551 C11.4077955,17.7616915 11.3231025,17.7291983 11.2596822,17.6687583 C11.1962618,17.6083182 11.159337,17.5249089 11.1570703,17.4369685 C11.154805,17.3491938 11.1872906,17.2641188 11.2473569,17.2005215 C11.3074232,17.1369243 11.3901317,17.1000336 11.4772266,17.0979921 C11.6584388,17.0932988 11.8091683,17.2374449 11.8140234,17.4200787"/>
    <path fill="#E1C5A2" d="M28.0423828,17.469685 C27.9649219,17.4051969 27.7060547,17.2561417 27.45375,17.1186614 L27.0383203,20.0537008 C27.0294288,20.1108686 26.9979839,20.1619855 26.9511328,20.1954331 L26.3566406,20.6144882 C26.3425781,20.6853543 26.3315625,20.7445276 26.3210156,20.7999213 C26.9050781,20.9448425 27.4723828,20.5203543 27.7908984,20.2140945 C27.9382031,19.6358268 28.0665234,18.9493701 28.1108203,18.4580315 C28.1786719,17.6964567 28.1186719,17.5329921 28.0423828,17.4698031 M18.8615625,28.6201181 C18.4758984,28.4819291 18.1223437,28.2563386 17.8146094,27.9497244 C17.7889453,27.9233858 17.7645703,27.8979921 17.7387891,27.8722441 C17.4979569,27.9217601 17.2544541,27.9570173 17.0095312,27.9778346 C16.905,27.9825591 16.8052734,27.9915354 16.6962891,27.9915354 L16.5350391,27.9929528 L16.4729297,27.9915354 C16.1042578,28.5433465 15.4845703,28.8466535 14.9989453,29.0081102 C16.4415234,29.2575591 18.0288281,28.8758268 18.8615625,28.6201181 M6.16230469,21.4321654 C6.14941406,21.387874 6.13582031,21.3440551 6.12328125,21.2996457 L5.35101563,20.7548031 C5.30288261,20.7205187 5.27128136,20.6674067 5.26394531,20.6084646 L4.88742188,17.5264961 C4.60875,17.676378 4.28660156,17.8613386 4.2009375,17.9337402 C4.12640625,17.995748 4.06957031,18.1537795 4.15007813,18.8880709 C4.21125,19.4402362 4.40367188,20.2883858 4.60019531,20.923937 C4.99125,21.2254724 5.56722656,21.543189 6.16230469,21.4321654 M17.7072656,21.2914961 C17.6246501,21.2819888 17.5556027,21.2237794 17.5317187,21.1435039 L16.57875,17.9782677 C16.4189062,17.9572441 16.2771094,17.9454331 16.1573437,17.9454331 C16.0371094,17.9454331 15.8960156,17.9572441 15.7364062,17.9782677 L14.8100391,21.0524409 C14.7879928,21.1245539 14.7292537,21.1792015 14.6561719,21.1955906 L14.2132031,21.2950394 C14.1757031,21.4527165 14.0482031,21.6840945 13.6374609,21.8109449 C12.9746484,22.014685 8.77875,23.2752756 8.30027344,23.2066535 C8.02089844,23.1672047 7.48933594,22.8715748 7.09617187,22.6326378 C6.93878906,22.2591732 6.85171875,22.0053543 6.83179687,21.9451181 L6.83179687,21.943937 L6.830625,21.9451181 C6.88628906,22.1090551 7.43378906,23.6975197 8.54625,25.2512598 C9.73886719,24.8970472 10.7689453,24.566811 11.0983594,24.461811 C11.7691406,23.4191339 12.7249219,22.3846063 13.4036719,22.3492913 C13.5232647,22.3431815 13.6429882,22.3400309 13.7627344,22.3398425 C14.0953125,22.3398425 14.4127734,22.3635827 14.7075,22.3987795 C14.4571875,22.1697638 14.4058594,21.9020079 14.3695312,21.7830709 C14.3695312,21.7830709 15.2363672,22.4664567 16.3389844,22.3227165 C17.4433594,22.1802756 18.1284375,21.5392913 18.1284375,21.5392913 L18.1501172,21.3421654 L17.7071484,21.2914961"/>
    <path fill="#E1C5A2" d="M18.6035156,21.692126 C18.3747656,21.6324803 18.2307422,21.5374016 18.1394531,21.438189 L18.1282031,21.5392913 C18.1282031,21.5392913 18.1244531,22.0064173 17.6442188,22.3683071 C18.5689453,22.0860236 18.9513281,21.9903543 19.2132422,21.9903543 C19.5015234,21.9903543 19.6440234,22.1116535 19.7690625,22.218189 C19.7927344,22.2380315 19.8164062,22.258937 19.8447656,22.2812598 C20.4515848,22.7628548 21.0569392,23.2463216 21.6608203,23.7316535 C21.9502734,23.765315 22.8691406,23.8712598 23.4474609,23.9244094 C23.7803906,23.9557087 24.0820312,23.9809843 24.3773437,23.9809843 C24.4720312,23.9809843 24.5615625,23.9776772 24.6462891,23.9718898 C24.9512109,23.3832283 25.2319922,22.7322047 25.4818359,22.0143307 C25.1398828,22.2561024 24.3607031,22.7852362 23.9955469,22.8533858 C23.5207031,22.9430315 19.2732422,21.8671654 18.6035156,21.692126"/>
    <path fill="#E0D896" d="M29.2914844,10.6229528 C29.2832327,10.5218306 29.2728006,10.4209013 29.2601953,10.3202362 C29.2517815,10.248313 29.2411906,10.1766654 29.2284375,10.1053937 C28.9601953,9.8780315 28.6551563,9.67547244 28.3378125,9.49216535 C27.9941016,9.28877953 27.6342188,9.10795276 27.2667187,8.93964567 C26.9025,8.76602362 26.5275,8.60905512 26.1512109,8.45610236 C25.9630017,8.37870362 25.7735221,8.30448066 25.5828516,8.23346457 C25.3930078,8.15870079 25.2016406,8.08901575 25.0094531,8.01850394 C25.4122266,8.08594488 25.8117188,8.17877953 26.2082812,8.28141732 C26.4662109,8.34779528 26.7225,8.42326772 26.9770312,8.50405512 C25.1647266,3.7315748 20.8338281,0.623976378 16.1046094,0.623976378 C11.3748047,0.623976378 7.04414063,3.73169291 5.233125,8.50405512 C5.48742188,8.42326772 5.74429688,8.34779528 6.00105469,8.28141732 C6.39714844,8.17866142 6.79699219,8.08594488 7.20046875,8.01862205 C7.00710938,8.08901575 6.81609375,8.15870079 6.6253125,8.23358268 C6.43504942,8.30481495 6.24588636,8.37899698 6.05789063,8.45610236 C5.68136719,8.60905512 5.3071875,8.76602362 4.94167969,8.93964567 C4.57546875,9.10795276 4.21570313,9.28877953 3.87152344,9.49216535 C3.5540625,9.67547244 3.24972656,9.8780315 2.98089844,10.1053937 C2.96915186,10.1768232 2.95860348,10.2484476 2.94925781,10.3202362 C2.93713461,10.4209719 2.92654742,10.5218893 2.9175,10.6229528 C2.90087877,10.8265446 2.89227826,11.0307209 2.89171875,11.235 C2.88738281,11.6440157 2.91492188,12.0531496 2.96601563,12.4574409 C3.02179688,12.8633858 3.09550781,13.2666142 3.20460938,13.6567323 C3.25747804,13.850756 3.31942225,14.042151 3.39023438,14.2302756 C3.42597656,14.3232283 3.46453125,14.4154724 3.50484375,14.5041732 C3.52464844,14.5485827 3.54515625,14.5925197 3.56648438,14.6344488 L3.5925,14.6840551 C3.62214844,14.6990551 3.6534375,14.715 3.68273438,14.7292913 L3.86273438,14.8158661 C3.96328125,14.8624016 4.1025,14.9288976 4.21746094,14.9806299 C4.22390625,14.9747244 4.23035156,14.9688189 4.23550781,14.9631496 L3.90128906,13.6798819 C3.97230469,13.6606299 4.60699219,13.4952756 5.70082031,13.2849213 C5.61219392,13.2682852 5.52400138,13.2493814 5.43632813,13.2282283 C5.18730469,13.1653937 4.94144531,13.0893307 4.70296875,12.9924803 C4.58507813,12.9420472 4.46871094,12.8873622 4.35785156,12.8240551 C4.24710938,12.7595669 4.13824219,12.6871654 4.05351563,12.5904331 C5.25503906,12.9861024 7.73859375,12.8072835 9.94640625,12.5769685 C11.9649609,12.3670866 13.9896094,12.2316142 16.0238672,12.2270079 C18.0576563,12.2316142 20.0830078,12.3670866 22.1005078,12.5769685 C24.3092578,12.8072835 26.7926953,12.9861024 27.9941016,12.5904331 C27.9103125,12.6872835 27.8007422,12.7595669 27.6909375,12.8240551 C27.5791406,12.8872441 27.4625391,12.9421654 27.3446484,12.9924803 C27.1064063,13.0893307 26.8614844,13.1653937 26.6121094,13.2282283 C26.5750781,13.2370866 26.5376953,13.2448819 26.5007813,13.2532677 C27.7007813,13.4774409 28.3989844,13.6599213 28.4730469,13.6797638 L28.1535938,14.9022047 C28.2185156,14.8738583 28.2836719,14.8455118 28.34625,14.815748 L28.5267188,14.7291732 C28.5563672,14.7148819 28.5871875,14.698937 28.6177734,14.683937 L28.6420313,14.6343307 C28.6638281,14.5924016 28.6850391,14.5484646 28.7046094,14.5040551 C28.7450391,14.4154724 28.7835938,14.3231102 28.81875,14.2301575 C28.8893505,14.0419336 28.9513685,13.8505524 29.0046094,13.6566142 C29.1139453,13.2664961 29.1876563,12.8631496 29.2426172,12.4573228 C29.2947656,12.0530315 29.3223047,11.6438976 29.3185547,11.2348819 C29.3179278,11.0306186 29.3089358,10.8264685 29.2916016,10.6229528"/>
    <path fill="#D7C184" d="M21.0805078,8.24905512 C21.0990234,8.79496063 21.0857812,9.78566929 20.8332422,10.7125984 C20.8230469,10.7480315 20.8244531,10.785 20.8332422,10.819252 C20.512209,10.7853907 20.190779,10.7554672 19.8690234,10.7294882 C20.2294922,9.96767717 20.3082422,9.15649606 20.3258203,8.87055118 C20.6028516,8.67248031 20.8783594,8.43425197 21.0805078,8.24905512 M11.8844531,8.87055118 C11.9012109,9.15637795 11.9799609,9.96566929 12.3403125,10.7275984 C12.0188672,10.7532283 11.6974219,10.7829921 11.3766797,10.8173622 C11.3853516,10.7845276 11.3860547,10.7481496 11.3766797,10.7127165 C11.1247266,9.78720472 11.1113672,8.79649606 11.1287109,8.24917323 C11.3317969,8.43425197 11.6066016,8.67248031 11.8844531,8.87055118 M25.0282031,11.5755118 C25.0266073,11.5847127 25.0243753,11.59379 25.0215234,11.6026772 C25.0567969,11.6129528 25.0913672,11.6233465 25.1266406,11.6349213 C25.4238281,11.7330709 25.7213672,11.8357087 26.0055469,11.9679921 C25.5311719,11.6573622 25.2303516,10.7612598 25.0626562,10.0762205 C25.1088281,10.9729134 25.0325391,11.5416142 25.0282031,11.5755118 M10.7332031,8.07673228 L7.66476563,8.95629921 C7.48101563,10.159252 7.53703125,11.0779134 7.5665625,11.3966929 L7.58214844,11.3872441 C7.58214844,11.3872441 7.68210938,10.0769291 7.88589844,9.57401575 C7.99089844,9.31582677 8.63320313,9.1511811 9.1228125,9.03318898 C9.61359375,8.9157874 10.3960547,8.68027559 10.5479297,9.37464567 C10.6416797,9.80374016 10.7708203,10.1605512 10.8945703,10.4237008 C10.6974609,9.46972441 10.71,8.53688976 10.7332031,8.07673228 M21.4757812,8.07673228 C21.5008594,8.55484252 21.5124609,9.54307087 21.2900391,10.5351969 C21.4294922,10.2656693 21.5842969,9.86811024 21.6922266,9.37464567 C21.8438672,8.68027559 22.6263281,8.9157874 23.1169922,9.03330709 C23.6076562,9.15129921 24.2491406,9.31582677 24.3541406,9.57401575 C24.5271094,9.99968504 24.6248437,11.0031496 24.650625,11.3017323 C24.6798047,10.9179921 24.7121484,10.0555512 24.5449219,8.9561811 L21.4757812,8.07673228 M11.8600781,8.34448819 C11.9681349,8.43192249 12.0795484,8.51505709 12.1940625,8.59370079 C12.2476172,8.63125984 12.2804297,8.69244094 12.2816016,8.75834646 C12.2823047,8.76862205 12.3052734,9.78755906 12.7522266,10.6551969 C12.7586719,10.668189 12.7632422,10.6823622 12.7675781,10.6958268 C13.87875,10.6196457 14.9932031,10.5888189 16.1048438,10.5881102 C17.2171875,10.5888189 18.3309375,10.6217717 19.4415234,10.6984252 C19.4459766,10.6836614 19.4500781,10.6693701 19.4579297,10.6551969 C19.9041797,9.78755906 19.9282031,8.76862205 19.9282031,8.75834646 C19.9296815,8.69236805 19.962508,8.63111919 20.0164453,8.59370079 C20.1265623,8.51766695 20.2337501,8.43741131 20.3377734,8.35311024 L20.3518359,8.3134252 C20.5841016,6.03425197 20.1580078,3.93389764 19.8871875,2.8961811 C19.8728906,3.6057874 19.7060156,9.68586614 18.2090625,9.68586614 L14.0772656,9.68586614 C12.4876172,9.68586614 12.3597656,2.83074803 12.3597656,2.83074803 L12.2778516,3.07417323 C12.0066797,4.16728346 11.634375,6.17645669 11.8599609,8.34448819 M7.18792969,11.6020866 C7.18652344,11.5932283 7.1840625,11.5846063 7.18207031,11.5755118 C7.17714844,11.5416142 7.10050781,10.9722047 7.14667969,10.074685 C6.97886719,10.7601969 6.67722656,11.6578346 6.20214844,11.9683465 C6.48632813,11.8354724 6.78515625,11.7325984 7.0828125,11.6343307 C7.1175,11.6233465 7.153125,11.6129528 7.18792969,11.6020866"/>
    <path fill="#9F8F78" d="M26.3211328,20.7999213 C26.2959676,20.9348989 26.2666566,21.0690578 26.2332422,21.2022047 C26.5740234,21.2822835 27.1311328,21.3444094 27.3975,21.2919685 C27.5115234,21.167126 27.6588281,20.7341339 27.7910156,20.2139764 C27.4725,20.5203543 26.9050781,20.9448425 26.3211328,20.7998031 M14.1098437,29.2062992 C14.9237109,29.4309449 15.7550391,29.5283858 16.5740625,29.4737008 C17.3957812,29.4173622 18.4625391,29.2386614 19.5949219,28.775315 C19.3446803,28.7569624 19.0980202,28.7048028 18.8615625,28.6202362 C18.0288281,28.876063 16.4416406,29.2577953 14.9990625,29.0083465 C14.6170312,29.1350787 14.3177344,29.1744094 14.2885547,29.1780709 C14.2283203,29.1850394 14.1783984,29.1934252 14.1098437,29.2064173 M6.21609375,21.616063 C6.19734375,21.555 6.18011719,21.4934646 6.1621875,21.4321654 C5.56710937,21.543189 4.99113281,21.2254724 4.60042969,20.9241732 C4.72699219,21.332126 4.85460937,21.6527953 4.95011719,21.7502362 C5.24484375,21.8022047 5.89675781,21.7110236 6.21609375,21.616063 M7.09605469,22.6326378 C7.48910156,22.8715748 8.02066406,23.1673228 8.30015625,23.2066535 C8.77863281,23.2751575 12.9745313,22.014685 13.6373438,21.8109449 C14.0479687,21.6840945 14.1757031,21.4527165 14.2132031,21.2950394 L8.15976563,22.6535433 C8.1447989,22.6563264 8.12963081,22.657867 8.11441406,22.6581496 L8.11371094,22.6581496 C8.07199219,22.6581496 8.03015625,22.6451575 7.99453125,22.6202362 L7.75875,22.4544094 L7.05164063,21.9552756 L7.05164063,21.9542126 L6.76628906,21.7534252 C6.77121094,21.7697244 6.77707031,21.7859055 6.78234375,21.8019685 C6.79851563,21.8493307 6.81445312,21.8972835 6.8315625,21.9438189 L6.8315625,21.945 C6.85148438,22.0052362 6.93855469,22.2591732 7.0959375,22.6324016 M25.6648828,21.4606299 C25.7035547,21.3165354 25.7415234,21.1706693 25.7760937,21.0233858 L25.5659766,21.1722047 L25.0003125,21.5714173 L24.3884766,22.0037008 C24.3570703,22.0255512 24.3205078,22.0386614 24.2830078,22.0414961 C24.270586,22.042325 24.2581158,22.0420484 24.2457422,22.0406693 L18.1501172,21.3421654 L18.1398047,21.4379528 C18.2309766,21.5372835 18.375,21.6323622 18.6036328,21.6920079 C19.2733594,21.8670472 23.5207031,22.9427953 23.9955469,22.8530315 C24.3607031,22.785 25.1401172,22.2558661 25.4817187,22.0140945 C25.4846484,22.0057087 25.4875781,21.9975591 25.4902734,21.9892913 C25.5507977,21.8138187 25.6090059,21.6375433 25.6648828,21.4605118"/>
    <path fill="#6E6A67" d="M19.2152344,13.1834646 C19.1671875,13.246063 19.1146875,13.3145669 19.0582031,13.3860236 C18.76875,13.7547638 18.3677344,14.2250787 17.8927734,14.6865354 C17.3242376,14.668539 16.7554568,14.6595222 16.1866406,14.6594882 C15.2201953,14.6594882 14.2935938,14.6851181 13.41375,14.7277559 C14.6574609,14.2083071 16.1508984,13.7004331 17.7684375,13.3957087 C18.247405,13.303722 18.7301307,13.232867 19.2152344,13.1833465 M11.9395313,13.7443701 C11.4950391,14.0587795 10.9942969,14.4594094 10.5083203,14.9460236 C9.42916474,15.0545653 8.35348503,15.1957313 7.28273438,15.3693307 C8.65945313,14.7318898 10.2309375,14.1445276 11.9395313,13.7443701 M27.1453125,16.333937 L26.6385938,19.902874 L24.2135156,21.6154724 L17.8889063,20.8906299 L16.9373438,17.7304724 C16.9143255,17.6537633 16.8499961,17.596946 16.7715234,17.5840157 C16.5373828,17.5458661 16.3303125,17.5273228 16.1573438,17.5273228 C15.9839063,17.5273228 15.7769531,17.5458661 15.5412891,17.5840157 C15.4632639,17.5976798 15.3994066,17.6542401 15.3759375,17.7304724 L14.4475781,20.8137402 L8.15871094,22.2239764 L5.66636719,20.4644882 L5.17453125,16.4590157 C5.28298218,16.3980871 5.39157624,16.3374177 5.5003125,16.2770079 C5.65488281,16.2434646 5.8284375,16.2080315 6.02039063,16.1712992 L6.48328125,19.9509449 C6.48972656,20.0096457 6.52253906,20.0619685 6.57070313,20.095748 L8.28574219,21.3067323 C8.32019531,21.3307087 8.3625,21.3442913 8.40386719,21.3442913 C8.41921875,21.3442913 8.43398438,21.3421654 8.45015625,21.3390945 L13.6207031,20.1797244 C13.6385185,20.1752712 13.6558058,20.1688958 13.6722656,20.1607087 C13.7198438,20.1347244 13.7580469,20.0906693 13.7736328,20.0359843 L14.7053906,16.9462205 C14.9551172,16.8818504 15.5950781,16.7306693 16.1572266,16.7306693 C16.7183203,16.7306693 17.3580469,16.8818504 17.6084766,16.9462205 L18.5396484,20.0359843 C18.5634375,20.1158268 18.6330469,20.1741732 18.7149609,20.183622 L23.8864453,20.7758268 C23.9360156,20.7817323 23.9871094,20.7677953 24.0282422,20.7387402 L25.7438672,19.53 C25.7900391,19.4963386 25.8217969,19.4441339 25.8297656,19.3873228 L26.2877344,16.1575984 C26.6315625,16.2239764 26.9190234,16.2848031 27.1453125,16.333937 M27.78375,14.0953937 L27.3384375,15.7974803 C26.4280078,15.5950394 24.4286719,15.1978346 21.7069922,14.9305512 C22.5958594,14.5484646 23.5013672,14.0697638 24.3288281,13.47 C25.9483594,13.7005512 27.1374609,13.9481102 27.78375,14.0953937 M4.5909375,14.0953937 L4.7146875,14.5666535 C5.0164499,14.3243579 5.32701441,14.0934121 5.64574219,13.8742913 C5.2096875,13.958622 4.85402344,14.0353937 4.5909375,14.0953937"/>
    <path fill="#93232C" d="M22.0528125,13.1461417 C21.37125,13.1071654 20.6900391,13.0743307 20.0080078,13.0458661 C19.9318052,13.1592854 19.8534707,13.2712347 19.7730469,13.3816535 C19.4076563,13.8798425 18.6874219,14.7881102 17.7641016,15.5674016 C18.4587891,15.3455906 21.2145703,14.4138189 22.6103906,13.180748 C22.4245715,13.1685635 22.238711,13.157028 22.0528125,13.1461417 M17.0585156,12.9647244 L17.0613281,12.9640157 C16.715625,12.9595276 16.3696875,12.955748 16.0245703,12.9544488 L16.0238672,12.9544488 C15.5153906,12.9558661 15.0082031,12.9623622 14.4997266,12.9712205 L13.5622266,13.4190945 C13.5572659,13.4210532 13.5526092,13.423718 13.5483984,13.4270079 C13.4073047,13.4959843 12.1766016,14.1219685 11.0178516,15.2387008 C11.1192188,15.1848425 11.2266797,15.1290945 11.3374219,15.0725197 C11.9711719,14.6433071 13.6613672,13.6269685 16.2896484,12.9571654 C16.5459375,12.9587008 16.8023437,12.9602362 17.0583984,12.9647244 M11.2974609,13.0788189 C10.8633984,13.0990157 10.4291016,13.1214567 9.99550781,13.1461417 C9.49253906,13.1744882 8.99121094,13.2087402 8.49023438,13.2467717 C8.24039062,13.2661417 7.99019531,13.2876378 7.74246094,13.3138583 C7.67050781,13.3209449 7.60019531,13.3287402 7.52976563,13.3378346 C6.87515625,13.7322047 4.36992188,15.3173622 2.64867188,17.3918504 C2.67832031,17.3558268 2.70890625,17.3202756 2.73925781,17.2847244 C5.9259375,14.5445669 9.41964844,13.4780315 11.2974609,13.0788189 M25.7142188,24.3472441 L25.6567969,24.3770079 C25.3372266,24.546378 24.9185156,24.6291732 24.3773437,24.6291732 C24.0551953,24.6291732 23.7392578,24.6020079 23.3891016,24.5701181 C22.6899609,24.5056299 21.5063672,24.365315 21.4942969,24.3630709 L21.4038281,24.3535039 L21.3322266,24.2952756 C21.3213281,24.2880709 20.2850391,23.4549213 19.4471484,22.7910236 C19.4129297,22.7631496 19.3822266,22.7366929 19.3541016,22.714252 C19.2657422,22.6380709 19.2657422,22.6380709 19.2130078,22.6380709 C18.9440625,22.6380709 18.1627734,22.8825591 16.4517188,23.4167717 L16.3467188,23.4506693 L16.2427734,23.4108661 C16.2310547,23.4079134 15.1086328,22.9883858 13.7630859,22.9883858 C13.6529297,22.9883858 13.5430078,22.9911024 13.4361328,22.9964173 C13.3014844,23.0033858 12.5452734,23.3655118 11.5775391,24.9074409 L11.5155469,25.0068898 L11.4042188,25.0427953 C11.3880469,25.0481102 9.72328125,25.5895276 7.9575,26.0984646 L7.84359375,26.1309449 L7.73460938,26.0802756 C7.72324219,26.076378 7.03371094,25.7531102 6.37652344,25.4495669 C6.42492188,25.4722441 6.47367188,25.4944488 6.5221875,25.517126 C7.1709375,26.0814567 8.41324219,27.1668898 8.55117188,27.3172441 C8.57027344,27.3388583 8.596875,27.365315 8.62851563,27.395315 C8.59654327,27.3586387 8.56536406,27.3212677 8.535,27.2832283 L8.53382812,27.2820472 L8.53394531,27.2821654 C8.82011719,27.5555906 9.13957031,27.7919291 9.48855469,27.9582283 C9.66269531,28.0406693 9.84527344,28.1045669 10.0308984,28.1356299 C10.1245313,28.1509843 10.2153516,28.1587795 10.3101562,28.1587795 C10.4061328,28.1587795 10.5042187,28.1559449 10.6021875,28.1511024 C10.9903125,28.1310236 11.3820703,28.1010236 11.7728906,28.062874 C12.163125,28.0274409 12.5537109,27.9881102 12.9435938,27.9403937 C13.3330078,27.8981102 13.7224219,27.8487402 14.1084375,27.7883858 C14.3017969,27.7600394 14.4939844,27.7277953 14.6817187,27.6858661 C14.7739453,27.6638976 14.8700391,27.639685 14.9430469,27.6066142 C15.0097266,27.5744882 15.0904687,27.5098819 15.1614844,27.4483465 C15.3067969,27.3223228 15.4470703,27.1825984 15.5859375,27.0432283 C15.7251569,26.9028549 15.8620508,26.760158 15.9965625,26.6151969 C16.2251953,26.3738976 16.4211328,26.1175984 16.6425,25.8692126 C16.6708594,25.8382677 16.6998047,25.8054331 16.7292187,25.7735433 C16.7292187,25.7741339 16.7292187,25.7741339 16.7296875,25.7741339 L16.7322656,25.7770866 C16.7784375,25.8105118 16.8244922,25.8444094 16.8696094,25.8800787 C17.1359766,26.0802756 17.4110156,26.2970079 17.6763281,26.4840945 C18.0183984,26.7263386 18.3646875,26.9690551 18.7229297,27.1710236 C18.8123438,27.2212205 18.9048047,27.2681102 18.9930469,27.2975197 C19.0045313,27.3017717 19.0141406,27.3037795 19.0229297,27.3050787 C19.0294922,27.3090945 19.0530469,27.312874 19.0557422,27.312874 C19.0732031,27.3154724 19.0965234,27.3166535 19.1190234,27.318189 C19.1673047,27.3187795 19.2172266,27.3166535 19.2672656,27.3142913 C19.4692969,27.3001181 19.6742578,27.2704724 19.8794531,27.2381102 C20.2890234,27.1737402 20.6997656,27.0994488 21.1080469,27.0170079 C21.5172656,26.9381102 21.9260156,26.8535433 22.3321875,26.7624803 C22.7398873,26.6750854 23.1458985,26.5798713 23.55,26.4768898 C23.7505078,26.4224409 23.95125,26.3722441 24.1301953,26.2856693 C24.3130078,26.1999213 24.4825781,26.0822835 24.6387891,25.9474016 C24.9540234,25.676811 25.2189844,25.341378 25.4391797,24.976063 L25.4385937,24.9772441 C25.54675,24.7748694 25.6389105,24.564217 25.7142187,24.3472441 M18.0752344,4.93901575 L18.7958203,4.93901575 L18.7958203,3.4638189 L13.5270703,3.4638189 L13.5270703,4.93901575 L14.2477734,4.93901575 L14.2477734,4.18984252 L15.7375781,4.18984252 L15.7375781,8.74594488 L15.1242187,8.74594488 L15.1242187,9.59161417 L17.1984375,9.59161417 L17.1984375,8.74594488 L16.5849609,8.74594488 L16.5849609,4.18984252 L18.0752344,4.18984252 L18.0752344,4.93901575"/>
    <path fill="#731B2A" d="M23.5267969,13.246063 C23.5255322,13.2452552 23.5240747,13.2448064 23.5225781,13.2447638 C23.2242553,13.2221541 22.9258135,13.2011695 22.6272656,13.181811 L22.6101563,13.180748 C21.2142188,14.4138189 18.4586719,15.3455906 17.7638672,15.5674016 C17.7503906,15.5789764 17.7371484,15.5905512 17.7236719,15.6018898 C18.6180469,15.4396063 19.9539844,15.117874 21.3405469,14.4990945 C22.0224609,14.1948425 22.7165625,13.8191339 23.3767969,13.3546063 C23.4277734,13.318937 23.4772266,13.2816142 23.5267969,13.246063 M16.2896484,12.9570472 C13.6613672,13.6267323 11.9711719,14.6430709 11.3373047,15.0722835 C11.9225112,14.7721919 12.5185447,14.4940485 13.1241797,14.2384252 C13.1972446,14.2077896 13.2704091,14.1773957 13.3436719,14.1472441 C13.3666406,14.1377953 13.389375,14.1283465 13.4124609,14.1190157 C13.4732812,14.0942126 13.5348047,14.0697638 13.5965625,14.0448425 C13.6310156,14.031378 13.665,14.0176772 13.6996875,14.0042126 C13.7552344,13.9822441 13.8113672,13.9605118 13.8678516,13.9386614 C13.9101562,13.9224803 13.9524609,13.9061811 13.9952344,13.8902362 C14.0470312,13.8701575 14.0991797,13.8505512 14.1517969,13.8311811 C14.2008984,13.812874 14.2507031,13.7948031 14.3000391,13.7768504 C14.3487891,13.7588976 14.3971875,13.7414173 14.4462891,13.7237008 C14.5021875,13.7038583 14.5585547,13.684252 14.6152734,13.6642913 C14.6600391,13.6488189 14.7045703,13.6331102 14.7495703,13.6176378 C14.8158984,13.5951969 14.8826953,13.5727559 14.9498437,13.5505512 C14.9867578,13.5382677 15.0233203,13.5259843 15.0603516,13.5138189 C15.1653516,13.4795669 15.2715234,13.4455512 15.3783984,13.4125984 C15.6116016,13.3404331 15.8498437,13.2715748 16.0920703,13.205315 C16.4122605,13.1172931 16.7345018,13.0370337 17.0585156,12.9646063 C16.8023437,12.9602362 16.5459375,12.9587008 16.2896484,12.9570472 M11.2974609,13.0788189 C9.41964844,13.4780315 5.9259375,14.5445669 2.73925781,17.2847244 C2.70890625,17.3202756 2.67832031,17.3557087 2.64867188,17.3918504 C4.26855469,16.256811 7.05292969,14.5697244 10.4951953,13.5433465 C10.6061719,13.5102756 10.7182031,13.4780315 10.8304688,13.4461417 C11.4123509,13.281758 12.000654,13.1414047 12.5939062,13.0254331 C12.1620703,13.0409055 11.7297656,13.0589764 11.2974609,13.0788189 M26.3346094,24.0446457 C26.3016157,24.0598945 26.2687243,24.0753673 26.2359375,24.091063 C26.2180078,24.0993307 26.2007812,24.1075984 26.1827344,24.1158661 L26.1400781,24.1362992 L26.0749219,24.1675984 C26.0660156,24.1722047 26.0565234,24.1764567 26.0472656,24.1812992 C26.0225391,24.1931102 25.9980469,24.2045669 25.9742578,24.2164961 L25.9582031,24.2245276 C25.9320703,24.2375197 25.9060547,24.2501575 25.8808594,24.2627953 L25.8727734,24.2666929 C25.8167578,24.2945669 25.7637891,24.3214961 25.7142188,24.3470079 C25.6386835,24.5642493 25.5462478,24.7751408 25.4377734,24.9777165 L25.4389453,24.9761811 C25.4383594,24.9768898 25.4377734,24.9773622 25.4374219,24.9784252 C25.2175781,25.3422047 24.9528516,25.6766929 24.6384375,25.9469291 C24.4822266,26.081811 24.3124219,26.1994488 24.1299609,26.2851969 C23.9506641,26.3717717 23.7500391,26.4218504 23.5496484,26.4764173 C23.1465234,26.5787008 22.7401172,26.6748425 22.3317187,26.7618898 C21.9250392,26.8529121 21.5170243,26.9377642 21.1078125,27.0164173 C20.6992969,27.0992126 20.2887891,27.1733858 19.8788672,27.2376378 C19.6739062,27.27 19.4690625,27.2996457 19.2667969,27.3137008 C19.2175125,27.3165361 19.1681531,27.3178359 19.1187891,27.3175984 C19.0975545,27.3166944 19.0763652,27.3149213 19.0552734,27.3122835 C19.0441155,27.311246 19.0331529,27.3086626 19.0226953,27.3046063 C19.0124146,27.3033301 19.0023348,27.3007507 18.9926953,27.2969291 C18.9042187,27.267874 18.8121094,27.2205118 18.7225781,27.1705512 C18.3644531,26.9683465 18.0179297,26.7258661 17.6758594,26.483622 C17.4110156,26.2964173 17.1353906,26.079685 16.8691406,25.8794882 L16.8459375,25.9126772 L16.8475781,25.9144488 C16.8641016,25.9295669 16.8808594,25.9435039 16.8973828,25.9581496 L16.8962109,25.9574409 C16.8840234,25.9482283 16.8724219,25.939252 16.8610547,25.9309843 L17.0842969,26.1993307 C17.085,26.2001575 17.0934375,26.2105512 17.1098437,26.2298031 C17.22375,26.364685 17.7004687,26.9220472 18.2664844,27.4880315 C18.6973828,27.9185433 19.2172266,28.1359843 19.8135937,28.1359843 C20.0171484,28.1359843 20.2311328,28.1090551 20.4473437,28.0572047 C20.6472656,28.0077165 20.8648828,27.9555118 21.0877734,27.9011811 C21.7488281,27.7426772 22.4811328,27.5658661 22.9672266,27.4386614 C22.9995703,27.4300394 23.0310937,27.4218898 23.0613281,27.4137402 C23.1301172,27.3954331 23.1924609,27.3786614 23.2482422,27.3630709 C23.3432653,27.3365577 23.4390059,27.3127295 23.5353516,27.2916142 C24.1248047,27.1537795 24.9310547,26.9652756 25.3579687,26.1027165 C25.4859989,25.8455345 25.6152973,25.5889959 25.7458594,25.3331102 C25.9596982,24.9143828 26.1752469,24.4965446 26.3925,24.0796063 C26.3925,24.0793701 26.3927344,24.0793701 26.3927344,24.0793701 L26.4351562,23.9976378 L26.3346094,24.0446457 M16.6808203,25.9053543 L16.6425,25.8687402 C16.4210156,26.1172441 16.2249609,26.3735433 15.9965625,26.6149606 C15.8620498,26.7598821 15.7251559,26.9025396 15.5859375,27.042874 C15.4470703,27.1822441 15.3066797,27.3224409 15.1614844,27.4479921 C15.0903516,27.5096457 15.0096094,27.5743701 14.9430469,27.6062598 C14.8701563,27.6393307 14.7739453,27.6636614 14.6817187,27.6855118 C14.4942188,27.7275591 14.3017969,27.759685 14.1084375,27.7881496 C13.7225391,27.8483858 13.3330078,27.8981102 12.9435938,27.9400394 C12.5537109,27.9877559 12.163125,28.0272047 11.7728906,28.0625197 C11.3821875,28.1006693 10.9903125,28.1306693 10.6021875,28.1509843 C10.5042187,28.1554724 10.4061328,28.1585433 10.3101563,28.1585433 C10.2153516,28.1585433 10.1242969,28.1509843 10.0308984,28.1352756 C9.84515625,28.1043307 9.66257812,28.040315 9.48855469,27.9579921 C9.1396875,27.7916929 8.82023437,27.5552362 8.53394531,27.2819291 L8.535,27.282874 C8.57367187,27.3308268 8.61621094,27.3758268 8.656875,27.4215354 C8.64703125,27.4124409 8.63765625,27.4033465 8.62851563,27.3948425 C8.596875,27.3649606 8.57027344,27.3385039 8.55105469,27.3168898 C8.41300781,27.1662992 7.17058594,26.0811024 6.52207031,25.5167717 C6.47355469,25.4939764 6.42480469,25.4718898 6.37640625,25.4490945 C6.49905022,25.6322314 6.62288099,25.8145582 6.74789063,25.996063 C6.93905524,26.2742759 7.13435066,26.5495825 7.33371094,26.8218898 C7.41957691,26.9388771 7.50677014,27.054869 7.59527344,27.1698425 C8.30039063,28.0843701 9.18796875,28.9294488 10.8912891,28.9294488 C11.1045703,28.9294488 11.3315625,28.9162205 11.5645313,28.8896457 C11.6187891,28.8837402 11.6715234,28.8775984 11.7234375,28.8713386 C11.7733594,28.8656693 11.8224609,28.8601181 11.8700391,28.8544488 C13.3511719,28.6828346 13.7574609,28.6096063 13.9829297,28.5703937 C14.0412891,28.5602362 14.0910938,28.551378 14.145,28.5433465 C14.1659766,28.5403937 14.1874219,28.5369685 14.2101563,28.5338976 C14.2183594,28.533189 14.7192188,28.4683465 15.2088281,28.2282283 C15.5463281,28.0631102 15.8782031,27.8148425 16.0405078,27.447874 C16.4504297,26.5236614 16.53375,26.3027953 16.5370313,26.2945276 L16.6808203,25.9053543"/>
    <path fill="#0E0F0D" d="M20.6932031,17.513622 C20.8742023,17.5099384 21.0181756,17.3594454 21.0152344,17.1770079 C21.0139753,17.0891395 20.9779581,17.0054149 20.9151819,16.9444287 C20.8524058,16.8834425 20.7680677,16.8502434 20.6808984,16.8522047 C20.5938803,16.8537554 20.5110522,16.8901473 20.450699,16.9533469 C20.3903458,17.0165464 20.3574303,17.1013566 20.3592188,17.1890551 C20.3625539,17.3716201 20.5120631,17.5169136 20.6932031,17.513622 Z M22.7112891,19.0033465 C22.2779297,18.7922835 21.8042578,19.0594488 20.9415234,19.075748 C20.2991016,19.0988976 19.7607422,19.1058661 19.7253516,18.0902362 C19.6898437,17.0723622 20.1007031,16.2311811 20.7430078,16.2087402 C21.3848437,16.186063 21.9708984,16.9924016 22.0496484,18.0069685 C22.0714453,18.2868898 22.0407422,18.4908661 21.9720703,18.6420472 C22.5687891,18.5702362 22.7048437,18.9786614 22.7112891,19.0033465 L22.7112891,19.0033465 Z M11.4951562,17.7590551 C11.6760014,17.7539695 11.8186677,17.6023617 11.8141406,17.4200787 C11.8093489,17.2373983 11.6586006,17.0931813 11.4773437,17.097874 C11.3601788,17.101081 11.2536114,17.1670433 11.1977845,17.2709135 C11.1419576,17.3747838 11.1453527,17.5007817 11.2066908,17.601445 C11.2680289,17.7021084 11.3779913,17.762144 11.4951562,17.758937 L11.4951562,17.7590551 Z M12.4870312,18.291378 C12.4965234,19.3078346 11.9625,19.2466535 11.3197266,19.2530315 C11.2544531,19.2551575 11.1929297,19.2559843 11.1312891,19.2559843 C11.0596875,19.2579921 10.9904297,19.2588189 10.9239844,19.2575197 C10.3000781,19.2559843 9.90175781,19.2279921 9.54890625,19.4200394 C9.55710937,19.3980709 9.71226562,19.0491732 10.2719531,18.9068504 C10.2101953,18.7694882 10.1714062,18.5783858 10.1612109,18.313937 C10.1226563,17.2979528 10.7445703,16.4648031 11.3867578,16.4588976 C12.0290625,16.4525197 12.4774219,17.2748031 12.4870312,18.291378 Z M24.6508594,11.3017323 C24.6461856,11.3642805 24.6403251,11.4267328 24.6332812,11.4890551 C24.3787849,11.4198791 24.1230798,11.3553018 23.8662891,11.2953543 C23.0178516,11.1075591 22.1589844,10.9683071 21.2958984,10.8689764 C21.2661328,10.8650787 21.2357812,10.8630709 21.2053125,10.8592913 C21.2111719,10.8462992 21.2164453,10.8334252 21.2203125,10.8205512 C21.2460938,10.7255906 21.2685938,10.6305118 21.2900391,10.535315 C21.5124609,9.54318898 21.5008594,8.55507874 21.4757813,8.07685039 L24.5449219,8.95641732 C24.7121484,10.0556693 24.6796875,10.9179921 24.6508594,11.3017323 L24.6508594,11.3017323 Z M20.8333594,10.7125984 C20.8230469,10.7480315 20.8244531,10.785 20.8333594,10.819252 C20.5122872,10.7853898 20.1908181,10.7554663 19.8690234,10.7294882 C20.2294922,9.96767717 20.3082422,9.15649606 20.3258203,8.87055118 C20.6028516,8.67248031 20.8782422,8.43425197 21.0805078,8.24905512 C21.0990234,8.79496063 21.0857812,9.78566929 20.8332422,10.7125984 L20.8333594,10.7125984 Z M11.3766797,10.8172441 C11.3853516,10.7844094 11.3860547,10.7480315 11.3766797,10.7125984 C11.1247266,9.7869685 11.1113672,8.79637795 11.1287109,8.24905512 C11.3316797,8.43425197 11.6064844,8.67248031 11.8844531,8.87055118 C11.9012109,9.15637795 11.9799609,9.96566929 12.3403125,10.7275984 C12.0188672,10.7531102 11.6975391,10.7829921 11.3766797,10.8173622 L11.3766797,10.8172441 Z M10.9132031,10.8682677 C10.4826562,10.9211811 10.0516406,10.9758661 9.62273437,11.0475591 C9.195,11.121378 8.76714844,11.1998031 8.34304687,11.2947638 C8.08582031,11.355 7.8309375,11.4187795 7.57582031,11.4883465 C7.57347656,11.4680315 7.5703125,11.4367323 7.56667969,11.3964567 C7.53714844,11.0775591 7.48113281,10.1591339 7.66488281,8.95606299 L10.7332031,8.07637795 C10.71,8.53665354 10.6974609,9.46937008 10.8946875,10.4232283 C10.9221094,10.555748 10.9532812,10.6882677 10.9891406,10.8200787 C10.993125,10.8330709 10.9982812,10.846063 11.0039062,10.8576378 C10.9730859,10.8615354 10.9435547,10.864252 10.9130859,10.8681496 L10.9132031,10.8682677 Z M26.2958203,12.1171654 C26.2696875,12.1045276 26.2439062,12.0916535 26.2191797,12.0793701 C26.1812109,12.0609449 26.1391406,12.0399213 26.0909766,12.0162992 C26.0614992,12.0019475 26.0329292,11.985775 26.0054297,11.967874 C25.7214844,11.8355906 25.4238281,11.7330709 25.1266406,11.6348031 C25.0914844,11.6232283 25.0567969,11.6128346 25.0216406,11.6024409 C25.024427,11.5935751 25.0266579,11.5845415 25.0283203,11.5753937 C25.0326562,11.5414961 25.1089453,10.9726772 25.0628906,10.0761024 C25.0434375,9.69318898 25.0013672,9.25051181 24.9217969,8.76401575 C24.9089759,8.68672816 24.8532886,8.62371295 24.7785937,8.6019685 L24.3411328,8.47724409 C24.2470312,5.06551181 22.8533203,3.46228346 22.8097266,3.41255906 C24.0547266,5.43224409 24.0438281,7.82740157 24.0221484,8.38559055 L21.3099609,7.60854331 C21.3079687,7.60854331 21.3062109,7.60854331 21.3036328,7.6073622 C21.2921631,7.60482802 21.2805341,7.60309165 21.2688281,7.60216535 C21.26625,7.60216535 21.2633203,7.60169291 21.2588672,7.60169291 C21.2440007,7.60097287 21.2291051,7.6022438 21.2145703,7.60547244 C21.2124609,7.60547244 21.2101172,7.60748031 21.2073047,7.60748031 C21.1951311,7.61005186 21.1833219,7.6141383 21.1721484,7.61964567 C21.1679297,7.62165354 21.1640625,7.62437008 21.1601953,7.62555118 C21.1510547,7.63181102 21.1421484,7.63700787 21.1332422,7.64350394 C21.13125,7.64492126 21.1285547,7.64610236 21.1266797,7.64799213 C21.1239844,7.64988189 21.1231641,7.65188976 21.1215234,7.65318898 C21.1189453,7.65590551 21.1158984,7.65767717 21.1137891,7.65968504 C21.1112109,7.66240157 21.0382031,7.73444882 20.9247656,7.84240157 C20.9327344,7.58669291 20.9347266,7.1953937 20.9058984,6.7176378 L20.8971094,6.57980315 C20.8117969,5.37944882 20.5303125,3.6934252 19.6890234,2.21740157 C19.6962891,2.23866142 19.7794922,2.48350394 19.8870703,2.89606299 C20.1577734,3.93377953 20.5841016,6.03413386 20.3517187,8.31330709 C20.3505469,8.32370079 20.3498437,8.33397638 20.3487891,8.34448819 C20.3452734,8.34744094 20.3414062,8.35015748 20.3377734,8.35299213 C20.233687,8.43726328 20.1264612,8.51751802 20.0163281,8.59358268 C19.9623752,8.63101576 19.929479,8.69223227 19.9278516,8.75822835 C19.9278516,8.76850394 19.9040625,9.78744094 19.4579297,10.6550787 C19.4499609,10.669252 19.4458594,10.6835433 19.4412891,10.6983071 C18.3308203,10.6215354 17.2170703,10.5888189 16.1047266,10.5879921 C14.9929687,10.5887008 13.8786328,10.6195276 12.7674609,10.6957087 C12.7630078,10.682126 12.7585547,10.6679528 12.7521094,10.6549606 C12.3051562,9.78744094 12.2821875,8.76850394 12.2814844,8.75811024 C12.2802178,8.69225143 12.2475986,8.63102646 12.1938281,8.59358268 C12.0793237,8.51497919 11.9679476,8.43184339 11.8599609,8.34437008 C11.6342578,6.17622047 12.0066797,4.16716535 12.2777344,3.07393701 C12.4064062,2.55496063 12.5125781,2.24125984 12.5210156,2.21728346 C11.3002734,4.35814961 11.2579687,6.94133858 11.2850391,7.84228346 C11.1696094,7.73433071 11.0980078,7.66240157 11.0961328,7.65956693 C11.0940234,7.65755906 11.0902734,7.6557874 11.0876953,7.65307087 L11.0833594,7.64775591 C11.08125,7.64598425 11.0787891,7.64480315 11.0762109,7.64338583 C11.0675796,7.63727403 11.0585777,7.63171201 11.0492578,7.62673228 C11.0448047,7.62425197 11.0415234,7.62153543 11.0363672,7.61952756 C11.0260521,7.61389932 11.01482,7.61017914 11.0032031,7.60854331 C10.9999219,7.6073622 10.9974609,7.60535433 10.9953516,7.60535433 C10.980567,7.60220554 10.9654493,7.60093581 10.9503516,7.6015748 C10.9466016,7.6015748 10.9426172,7.60204724 10.9388672,7.60204724 C10.9278516,7.60322835 10.9171875,7.60452756 10.9057031,7.60724409 C10.9030078,7.6084252 10.9017187,7.6084252 10.8991406,7.6084252 L8.18789062,8.38547244 C8.16609375,7.82716535 8.154375,5.43200787 9.399375,3.41244094 C9.35625,3.46240157 7.96277344,5.06574803 7.86796875,8.47748031 L7.43261719,8.60208661 C7.35705159,8.6229879 7.30053707,8.68640959 7.28800781,8.76437008 C7.21688703,9.19821039 7.16970514,9.63569383 7.14667969,10.0748031 C7.10074219,10.9724409 7.17714844,11.5417323 7.18207031,11.5756299 C7.1840625,11.5846063 7.18652344,11.5933465 7.18792969,11.6022047 C7.15324219,11.6130709 7.1175,11.6234646 7.0828125,11.6344488 C6.78515625,11.7327165 6.48644531,11.8357087 6.20226562,11.9684646 C6.17645717,11.9852327 6.14969217,12.0004559 6.12210937,12.0140551 L6.11765625,12.0165354 C6.06925781,12.0401575 6.0271875,12.0611811 5.98921875,12.0796063 L5.92253906,12.1124409 C5.90847656,12.1207087 5.89394531,12.1277953 5.88011719,12.1361811 C6.08132812,12.0565748 6.28945312,11.9984646 6.49734375,11.9469685 C6.70561696,11.894725 6.91530957,11.8484074 7.12617187,11.8080709 C7.54839844,11.728937 7.9715625,11.6601969 8.39742187,11.6079921 C8.82210937,11.5517717 9.24855469,11.5053543 9.67570312,11.4693307 C10.1029687,11.4325984 10.5295312,11.3963386 10.9577344,11.3714173 C12.6701953,11.269252 14.3871094,11.2370079 16.1046094,11.2364173 C17.8226953,11.2375984 19.539375,11.2647638 21.2516016,11.3708268 C21.6800391,11.395748 22.1064844,11.4317717 22.5344531,11.4682677 C22.9621875,11.5048819 23.3872266,11.5518898 23.8117969,11.6081102 C24.2377734,11.6597244 24.6617578,11.7281102 25.0832812,11.8077165 C25.2939614,11.8477461 25.503393,11.8941846 25.7112891,11.9469685 C25.9208203,11.9985827 26.1277734,12.0566929 26.3294531,12.1362992 C26.3182031,12.1294488 26.3067188,12.1235433 26.2958203,12.1171654 L26.2958203,12.1171654 Z"/>
    <path fill="#0E0F0D" d="M16.5849609,4.18984252 L16.5849609,8.74594488 L17.1984375,8.74594488 L17.1984375,9.59161417 L15.1242188,9.59161417 L15.1242188,8.74594488 L15.7375781,8.74594488 L15.7375781,4.18984252 L14.2476562,4.18984252 L14.2476562,4.93913386 L13.5273047,4.93913386 L13.5273047,3.46393701 L18.7958203,3.46393701 L18.7958203,4.93913386 L18.0753516,4.93913386 L18.0753516,4.18972441 L16.5849609,4.18972441 L16.5849609,4.18984252 Z M19.3382812,5.48456693 L19.3382812,2.91767717 L12.9861328,2.91767717 L12.9861328,5.48456693 L14.79,5.48456693 L14.79,4.73527559 L15.1952344,4.73527559 L15.1952344,8.19944882 L14.5832813,8.19944882 L14.5832813,10.1362205 L17.7403125,10.1362205 L17.7403125,8.1992126 L17.12625,8.1992126 L17.12625,4.73503937 L17.5330078,4.73503937 L17.5330078,5.48444882 L19.3382813,5.48444882 L19.3382812,5.48456693 Z"/>
  </g>
</svg>
