<?xml version="1.0" encoding="UTF-8"?>
<svg width="51px" height="50px" viewBox="0 0 51 50" version="1.1" xmlns="http://www.w3.org/2000/svg" xmlns:xlink="http://www.w3.org/1999/xlink">
    <!-- Generator: Sketch 46.2 (44496) - http://www.bohemiancoding.com/sketch -->
    <title>php-logo@1x</title>
    <desc>Created with Sketch.</desc>
    <defs></defs>
    <g id="Habitat-SaaS-Home-&amp;-Pricing/desktop" stroke="none" stroke-width="1" fill="none" fill-rule="evenodd">
        <g id="Habitat-Web-SaaS-Message-Home-(desktop)-V4" transform="translate(-1087.000000, -738.000000)">
            <g id="php" transform="translate(1085.666667, 737.000000)">
                <g style="mix-blend-mode: luminosity;" id="php-logo">
                    <g style="mix-blend-mode: luminosity;" transform="translate(0.500000, 0.890045)">
                        <ellipse id="Oval" fill="#8993BE" fill-rule="nonzero" cx="26.4296875" cy="26.5935162" rx="18.4296875" ry="9.59351624"></ellipse>
                        <path d="M13.1754306,32.2738915 L15.1952092,22.0491584 L19.8655511,22.0491584 C21.8851857,22.1754306 22.895075,23.1851759 22.895075,24.9525541 C22.895075,27.982078 20.4967679,29.7493123 18.3507172,29.6230401 L16.0788263,29.6230401 L15.5738817,32.2738915 L13.1754306,32.2738915 Z M16.583627,27.7296777 L16.5837709,27.7296777 L18.0984609,27.7296777 C19.2344783,27.6034055 20.2443676,27.224733 20.3704958,25.0786823 C20.3704958,24.3213373 19.739423,23.9426649 18.8558058,23.9426649 L17.2148437,23.9426649 L16.583627,27.7296777 Z M22.4258379,29.6230401 L24.4454725,19.398451 L26.8439235,19.398451 L26.3389789,22.0491584 L28.6110138,22.0491584 C30.6307924,22.1754306 31.3881373,23.1851759 31.135737,24.4476095 L30.2521199,29.6230401 L27.7275406,29.6230401 L28.6111578,24.9525541 C28.7372859,24.3213373 28.7372859,23.9426649 27.8538128,23.9426649 L25.9603064,23.9426649 L24.8242889,29.6230401 L22.4258379,29.6230401 L22.4258379,29.6230401 Z" id="Shape" fill="#232531" fill-rule="nonzero"></path>
                        <path d="M30.0904282,32.2738915 L32.1100627,22.0491584 L36.7805487,22.0491584 C38.8003273,22.1754306 39.8102166,23.1851759 39.8102166,24.9525541 C39.8102166,27.982078 37.4117655,29.7493123 35.2658588,29.6230401 L32.9936799,29.6230401 L32.4887352,32.2738915 L30.0904282,32.2738915 L30.0904282,32.2738915 Z M33.4984805,27.7296777 L33.4986245,27.7296777 L35.0134584,27.7296777 C36.1494759,27.6034055 37.1593652,27.224733 37.2854933,25.0786823 C37.2854933,24.3213373 36.6544205,23.9426649 35.7708034,23.9426649 L34.1296973,23.9426649 L33.4984805,27.7296777 Z" id="Combined-Shape" fill="#232531"></path>
                    </g>
                </g>
            </g>
        </g>
    </g>
</svg>