<?xml version="1.0" encoding="UTF-8"?>
<svg width="50px" height="50px" viewBox="0 0 50 50" version="1.1" xmlns="http://www.w3.org/2000/svg" xmlns:xlink="http://www.w3.org/1999/xlink">
    <!-- Generator: Sketch 46.2 (44496) - http://www.bohemiancoding.com/sketch -->
    <title>php-logo@1x</title>
    <desc>Created with Sketch.</desc>
    <defs></defs>
    <g id="Habitat-SaaS-Home-&amp;-Pricing/desktop" stroke="none" stroke-width="1" fill="none" fill-rule="evenodd">
        <g id="Habitat-Web-SaaS-Message-Home-(desktop)-V4" transform="translate(-1088.000000, -736.000000)">
            <g id="php-disabled" transform="translate(1088.000000, 736.000000)">
                <g id="php">
                    <g id="php-logo">
                        <ellipse id="Oval" fill="#8898A6" fill-rule="nonzero" cx="25.4296875" cy="26.5935162" rx="18.4296875" ry="9.59351624"></ellipse>
                        <path d="M12.1754306,32.2738915 L14.1952092,22.0491584 L18.8655511,22.0491584 C20.8851857,22.1754306 21.895075,23.1851759 21.895075,24.9525541 C21.895075,27.982078 19.4967679,29.7493123 17.3507172,29.6230401 L15.0788263,29.6230401 L14.5738817,32.2738915 L12.1754306,32.2738915 Z M15.583627,27.7296777 L15.5837709,27.7296777 L17.0984609,27.7296777 C18.2344783,27.6034055 19.2443676,27.224733 19.3704958,25.0786823 C19.3704958,24.3213373 18.739423,23.9426649 17.8558058,23.9426649 L16.2148437,23.9426649 L15.583627,27.7296777 Z M21.4258379,29.6230401 L23.4454725,19.398451 L25.8439235,19.398451 L25.3389789,22.0491584 L27.6110138,22.0491584 C29.6307924,22.1754306 30.3881373,23.1851759 30.135737,24.4476095 L29.2521199,29.6230401 L26.7275406,29.6230401 L27.6111578,24.9525541 C27.7372859,24.3213373 27.7372859,23.9426649 26.8538128,23.9426649 L24.9603064,23.9426649 L23.8242889,29.6230401 L21.4258379,29.6230401 L21.4258379,29.6230401 Z" id="Shape" fill="#232531" fill-rule="nonzero"></path>
                        <path d="M29.0904282,32.2738915 L31.1100627,22.0491584 L35.7805487,22.0491584 C37.8003273,22.1754306 38.8102166,23.1851759 38.8102166,24.9525541 C38.8102166,27.982078 36.4117655,29.7493123 34.2658588,29.6230401 L31.9936799,29.6230401 L31.4887352,32.2738915 L29.0904282,32.2738915 L29.0904282,32.2738915 Z M32.4984805,27.7296777 L32.4986245,27.7296777 L34.0134584,27.7296777 C35.1494759,27.6034055 36.1593652,27.224733 36.2854933,25.0786823 C36.2854933,24.3213373 35.6544205,23.9426649 34.7708034,23.9426649 L33.1296973,23.9426649 L32.4984805,27.7296777 Z" id="Combined-Shape" fill="#232531"></path>
                    </g>
                </g>
            </g>
        </g>
    </g>
</svg>