<?xml version="1.0" encoding="UTF-8"?>
<svg width="51px" height="50px" viewBox="0 0 51 50" version="1.1" xmlns="http://www.w3.org/2000/svg" xmlns:xlink="http://www.w3.org/1999/xlink">
    <!-- Generator: Sketch 46.2 (44496) - http://www.bohemiancoding.com/sketch -->
    <title>java-logo@1x</title>
    <desc>Created with Sketch.</desc>
    <defs></defs>
    <g id="Habitat-SaaS-Home-&amp;-Pricing/desktop" stroke="none" stroke-width="1" fill="none" fill-rule="evenodd">
        <g id="Habitat-Web-SaaS-Message-Home-(desktop)-V4" transform="translate(-964.000000, -738.000000)" fill-rule="nonzero">
            <g id="java-copy" transform="translate(963.582031, 738.000000)">
                <g id="java-14">
                    <path d="M20.3884348,33.2905441 C20.3884348,33.2905441 19.0473664,34.0736322 21.3428716,34.3386068 C24.1238764,34.6571477 25.5451163,34.6115398 28.6098204,34.0290447 C28.6098204,34.0290447 29.4155995,34.5363429 30.5407435,34.9757906 C23.6706892,37.9323436 14.9922551,34.8044805 20.3884348,33.2905441 M19.5489207,29.432343 C19.5489207,29.432343 18.0447659,30.550399 20.3419984,30.7889475 C23.3127119,31.0966731 25.6587179,31.1218747 29.7183001,30.33695 C29.7183001,30.33695 30.2798052,30.9085278 31.1627074,31.2211509 C22.8562731,33.6601005 13.6044454,31.4134794 19.5489207,29.432343" id="Shape" fill="#5382A1"></path>
                    <path d="M26.6261609,22.887665 C28.3190083,24.84462 26.1814074,26.6056755 26.1814074,26.6056755 C26.1814074,26.6056755 30.479675,24.377624 28.5056686,21.5874836 C26.6620298,18.9856925 25.2481059,17.6927554 32.9021945,13.2354281 C32.9021945,13.2354281 20.8878553,16.2484042 26.6261609,22.8875629" id="Shape" fill="#E76F00"></path>
                    <path d="M35.7124635,36.1442499 C35.7124635,36.1442499 36.7049029,36.9652935 34.6194287,37.6005387 C30.6539387,38.8068515 18.1144713,39.1711022 14.6310263,37.6485953 C13.3788679,37.101709 15.7271094,36.3425982 16.4657233,36.1832257 C17.23604,36.0154867 17.6763226,36.0468102 17.6763226,36.0468102 C16.2837371,35.0617007 8.67527209,37.9810124 13.8116312,38.8169525 C27.8190798,41.0979581 39.3457855,37.7899082 35.7124635,36.1442499 M21.0332613,25.4348695 C21.0332613,25.4348695 14.6550066,26.9561521 18.7746412,27.508446 C20.5140266,27.7423011 23.9815187,27.689449 27.2114431,27.4176384 C29.8511063,27.1941904 32.501642,26.7187259 32.501642,26.7187259 C32.501642,26.7187259 31.5708808,27.1189936 30.8975015,27.580684 C24.4203787,29.2912341 11.9077368,28.4954941 15.5099657,26.7457641 C18.5563797,25.2671305 21.033363,25.4348695 21.033363,25.4348695 M32.4753247,31.8569062 C39.0597491,28.4213176 36.0153673,25.1197977 33.8904679,25.564653 C33.3696074,25.673418 33.1374251,25.7676947 33.1374251,25.7676947 C33.1374251,25.7676947 33.3307918,25.4636422 33.7000479,25.3320222 C37.9037152,23.847981 41.136688,29.7088471 32.3430265,32.0300529 C32.3430265,32.0301549 32.4449428,31.9387351 32.4753247,31.8569062" id="Shape" fill="#5382A1"></path>
                    <path d="M28.5056686,6.03785351 C28.5056686,6.03785351 32.1522001,9.70076728 25.0471184,15.3329818 C19.3496606,19.8511197 23.7479139,22.427199 25.0447813,25.3704879 C21.7190373,22.3575118 19.2783293,19.7051133 20.9157985,17.2365747 C23.3190118,13.6127388 29.9769014,11.8558666 28.5056686,6.03775148" id="Shape" fill="#E76F00"></path>
                    <path d="M21.6803233,41.166523 C28.0004563,41.5728105 37.7056744,40.9411364 37.9355196,37.9382614 C37.9355196,37.9382614 37.4937129,39.0767235 32.7122826,39.9807184 C27.3179319,41.0000083 20.6648181,40.8810402 16.7187359,40.2277355 C16.7188375,40.2277355 17.5265473,40.8990996 21.6804249,41.166523" id="Shape" fill="#5382A1"></path>
                </g>
            </g>
        </g>
    </g>
</svg>