<?xml version="1.0" encoding="UTF-8"?>
<svg width="50px" height="50px" viewBox="0 0 50 50" version="1.1" xmlns="http://www.w3.org/2000/svg" xmlns:xlink="http://www.w3.org/1999/xlink">
    <!-- Generator: Sketch 46.2 (44496) - http://www.bohemiancoding.com/sketch -->
    <title>docker logo@1x</title>
    <desc>Created with Sketch.</desc>
    <defs></defs>
    <g id="Habitat-SaaS-Home-&amp;-Pricing/desktop" stroke="none" stroke-width="1" fill="none" fill-rule="evenodd">
        <g id="Home-V4---2" transform="translate(-841.000000, -738.000000)">
            <g id="docker" transform="translate(841.000000, 738.000000)">
                <g id="moby">
                    <g transform="translate(8.000000, 13.000000)">
                        <rect id="Rectangle-path" fill="#099CEC" fill-rule="nonzero" x="6.96068493" y="8.35960396" width="3.46520548" height="3.2150495"></rect>
                        <rect id="Rectangle-path" fill="#099CEC" fill-rule="nonzero" x="2.86438356" y="8.35960396" width="3.46520548" height="3.2150495"></rect>
                        <rect id="Rectangle-path" fill="#099CEC" fill-rule="nonzero" x="11.0546575" y="8.35960396" width="3.46520548" height="3.2150495"></rect>
                        <rect id="Rectangle-path" fill="#099CEC" fill-rule="nonzero" x="15.1509589" y="8.35960396" width="3.46520548" height="3.2150495"></rect>
                        <rect id="Rectangle-path" fill="#099CEC" fill-rule="nonzero" x="19.2472603" y="8.35960396" width="3.46520548" height="3.2150495"></rect>
                        <rect id="Rectangle-path" fill="#099CEC" fill-rule="nonzero" x="6.96068493" y="4.50059406" width="3.46520548" height="3.2150495"></rect>
                        <rect id="Rectangle-path" fill="#099CEC" fill-rule="nonzero" x="11.0546575" y="4.50059406" width="3.46520548" height="3.2150495"></rect>
                        <rect id="Rectangle-path" fill="#099CEC" fill-rule="nonzero" x="15.1509589" y="4.50059406" width="3.46520548" height="3.2150495"></rect>
                        <rect id="Rectangle-path" fill="#099CEC" fill-rule="nonzero" x="15.1509589" y="0.643960396" width="3.46520548" height="3.2150495"></rect>
                        <path d="M33.0358904,9.35049505 C32.3256164,8.8609901 30.4556164,8.65425743 29.0979452,9.02732673 C29.0257534,7.64673267 28.3271233,6.48237624 27.0509589,5.4629703 L26.5852055,5.13980198 L26.2708219,5.6150495 C25.6495813,6.63506934 25.3700618,7.83348234 25.4743836,9.02970297 C25.5361747,9.79263538 25.8091496,10.5219469 26.2615068,11.1326733 C25.9005479,11.4178218 24.780411,11.9714851 23.2690411,11.9429703 L0.740547945,11.9429703 C0.34,14.3714851 1.0269863,23.5865347 11.4528767,23.5865347 C19.1936986,23.5865347 25.5535616,20.0340594 28.4668493,12.5821782 C29.4263014,12.5988119 31.96,12.7580198 33.1919178,10.3176238 C33.2221918,10.2772277 33.5063014,9.67128713 33.5063014,9.67128713 L33.0358904,9.35049505 Z" id="Shape" fill="#099CEC"></path>
                        <path d="M14.1752055,23.1944554 C8.51164384,24.950495 5.07671233,21.8613861 3.14849315,20.2241584 C5.15962439,20.1987623 7.15484143,19.8565087 9.06356164,19.209505 C10.2142671,21.1477874 12.0399716,22.5710755 14.1752055,23.1944554 Z" id="Shape" fill="#FFFFFF" fill-rule="nonzero"></path>
                        <path d="M14.1752055,23.1944554 C8.51164384,24.950495 5.07671233,21.8613861 3.14849315,20.2241584 C5.15962439,20.1987623 7.15484143,19.8565087 9.06356164,19.209505 C10.2142671,21.1477874 12.0399716,22.5710755 14.1752055,23.1944554 Z" id="Shape"></path>
                        <path d="M8.77712329,18.6439604 C7.49969734,19.3848721 6.05470788,19.7723234 4.58534247,19.7679208 C3.83354716,19.76877 3.08494783,19.668094 2.3590411,19.4685149 L2.80849315,20.2407921 C4.95334298,20.6711563 7.17831006,20.3054103 9.08219178,19.209505 C8.97273973,19.0241584 8.87027397,18.8364356 8.77712329,18.6439604 Z" id="Shape" fill="#026FB6"></path>
                        <ellipse id="Oval" fill="#FFFFFF" fill-rule="nonzero" cx="11.1734247" cy="17.0994059" rx="1.09452055" ry="1.12633663"></ellipse>
                        <path d="M11.3387671,16.7833663 C11.3400276,16.6852337 11.385566,16.593177 11.4621918,16.5338614 C11.3749004,16.4854646 11.2774153,16.4593735 11.1780822,16.4578218 C10.8298573,16.4552213 10.545378,16.7409213 10.5423908,17.0962411 C10.5394037,17.4515608 10.8190377,17.7421986 11.1672551,17.7456942 C11.5154726,17.7491897 11.8006562,17.4642218 11.8045205,17.1089109 C11.8045205,17.0970297 11.8045205,17.0851485 11.8045205,17.0708911 C11.7553965,17.0983796 11.6998025,17.1115337 11.6438356,17.1089109 C11.4725767,17.1024876 11.3373914,16.9582286 11.3387671,16.7833663 Z" id="Shape" fill="#4D5C64" fill-rule="nonzero"></path>
                        <path d="M32.9450685,9.29346535 C32.2464384,8.81821782 30.2972603,8.58059406 29.0024658,8.96554455 L28.7136986,9.38138614 C24.4916438,18.2970297 19.2076712,22.0681188 11.9884932,22.2344554 C4.11726027,22.2130693 2.14712329,17.9786139 1.59054795,12.2019802 L0.330684932,12.2019802 C0.167671233,14.630495 0.775479452,23.5556436 11.2758904,23.5556436 C19.0260274,23.5556436 25.4068493,20.0126733 28.3527397,12.5679208 C29.3145205,12.5845545 31.9926027,12.5845545 33.1732877,10.1394059 L33.4061644,9.62138614 L32.9450685,9.29346535 Z" id="Shape" fill="#000000" fill-rule="nonzero" opacity="0.05"></path>
                        <rect id="Rectangle-path" fill="#066DA5" fill-rule="nonzero" x="3.49315068" y="9.00118812" width="1" height="1.92950495"></rect>
                        <rect id="Rectangle-path" fill="#066DA5" fill-rule="nonzero" x="4.43863014" y="9.00118812" width="1" height="1.92950495"></rect>
                        <rect id="Rectangle-path" fill="#066DA5" fill-rule="nonzero" x="5.38410959" y="9.00118812" width="1" height="1.92950495"></rect>
                        <rect id="Rectangle-path" fill="#066DA5" fill-rule="nonzero" x="7.58945205" y="9.00118812" width="1" height="1.92950495"></rect>
                        <rect id="Rectangle-path" fill="#066DA5" fill-rule="nonzero" x="8.53493151" y="9.00118812" width="1" height="1.92950495"></rect>
                        <rect id="Rectangle-path" fill="#066DA5" fill-rule="nonzero" x="9.48041096" y="9.00118812" width="1" height="1.92950495"></rect>
                        <rect id="Rectangle-path" fill="#066DA5" fill-rule="nonzero" x="11.6857534" y="9.00118812" width="1" height="1.92950495"></rect>
                        <rect id="Rectangle-path" fill="#066DA5" fill-rule="nonzero" x="12.6312329" y="9.00118812" width="1" height="1.92950495"></rect>
                        <rect id="Rectangle-path" fill="#066DA5" fill-rule="nonzero" x="13.5767123" y="9.00118812" width="1" height="1.92950495"></rect>
                        <rect id="Rectangle-path" fill="#066DA5" fill-rule="nonzero" x="15.7820548" y="9.00118812" width="1" height="1.92950495"></rect>
                        <rect id="Rectangle-path" fill="#066DA5" fill-rule="nonzero" x="16.7275342" y="9.00118812" width="1" height="1.92950495"></rect>
                        <rect id="Rectangle-path" fill="#066DA5" fill-rule="nonzero" x="17.6730137" y="9.00118812" width="1" height="1.92950495"></rect>
                        <rect id="Rectangle-path" fill="#066DA5" fill-rule="nonzero" x="19.8783562" y="9.00118812" width="1" height="1.92950495"></rect>
                        <rect id="Rectangle-path" fill="#066DA5" fill-rule="nonzero" x="20.8238356" y="9.00118812" width="1" height="1.92950495"></rect>
                        <rect id="Rectangle-path" fill="#066DA5" fill-rule="nonzero" x="21.7693151" y="9.00118812" width="1" height="1.92950495"></rect>
                        <rect id="Rectangle-path" fill="#066DA5" fill-rule="nonzero" x="8.53493151" y="5.14455446" width="1" height="1.92950495"></rect>
                        <rect id="Rectangle-path" fill="#066DA5" fill-rule="nonzero" x="9.48041096" y="5.14455446" width="1" height="1.92950495"></rect>
                        <rect id="Rectangle-path" fill="#066DA5" fill-rule="nonzero" x="11.6857534" y="5.14455446" width="1" height="1.92950495"></rect>
                        <rect id="Rectangle-path" fill="#066DA5" fill-rule="nonzero" x="12.6312329" y="5.14455446" width="1" height="1.92950495"></rect>
                        <rect id="Rectangle-path" fill="#066DA5" fill-rule="nonzero" x="13.5767123" y="5.14455446" width="1" height="1.92950495"></rect>
                        <rect id="Rectangle-path" fill="#066DA5" fill-rule="nonzero" x="15.7820548" y="5.14455446" width="1" height="1.92950495"></rect>
                        <rect id="Rectangle-path" fill="#066DA5" fill-rule="nonzero" x="16.7275342" y="5.14455446" width="1" height="1.92950495"></rect>
                        <rect id="Rectangle-path" fill="#066DA5" fill-rule="nonzero" x="17.6730137" y="5.14455446" width="1" height="1.92950495"></rect>
                        <rect id="Rectangle-path" fill="#066DA5" fill-rule="nonzero" x="16.7275342" y="1.28554455" width="1" height="1.92950495"></rect>
                        <rect id="Rectangle-path" fill="#066DA5" fill-rule="nonzero" x="15.7820548" y="1.28554455" width="1" height="1.92950495"></rect>
                        <rect id="Rectangle-path" fill="#066DA5" fill-rule="nonzero" x="17.6730137" y="1.28554455" width="1" height="1.92950495"></rect>
                        <rect id="Rectangle-path" fill="#066DA5" fill-rule="nonzero" x="7.58945205" y="5.14455446" width="1" height="1.92950495"></rect>
                        <path d="M33.1010959,9.02970297 C32.3442466,8.50930693 30.6186301,8.31683168 29.2656164,8.57821782 C29.0909589,7.27841584 28.3760274,6.14970297 27.1231507,5.15168317 L26.380274,4.64316832 L25.8912329,5.39881188 C25.2369183,6.47619353 24.9427455,7.74107376 25.0528767,9.00356436 C25.1146705,9.71061001 25.3371317,10.393225 25.7026027,10.9972277 C24.9707954,11.3703803 24.1639838,11.5648058 23.3458904,11.5651485 L23.3458904,7.71564356 L19.2472603,7.71564356 L19.2472603,0 L14.5221918,0 L14.5221918,3.8590099 L6.32958904,3.8590099 L6.32958904,7.71564356 L2.23328767,7.71564356 L2.23328767,11.5675248 L0.370273973,11.5675248 L0.319041096,11.8360396 C0.191867978,12.8148955 0.204418555,13.8073925 0.35630137,14.7825743 C0.546242003,16.1855824 0.98499825,17.5415659 1.65109589,18.7841584 C3.39767123,21.9849505 6.57410959,23.8645545 11.3434247,23.8645545 C19.4568493,23.8645545 25.6746575,20.0411881 28.5763014,12.8649505 C29.3947495,12.9168642 30.2153548,12.8079626 30.9935616,12.5441584 C32.0254925,12.1858639 32.8773337,11.4268034 33.3642466,10.4316832 C33.3945205,10.3794059 33.4387671,10.2891089 33.5342466,10.0918812 L33.6413699,9.86613861 L33.690274,9.7639604 L33.8090411,9.50970297 L33.1010959,9.02970297 Z M19.2472603,8.35960396 L22.7124658,8.35960396 L22.7124658,11.5675248 L19.2472603,11.5675248 L19.2472603,8.35960396 Z M15.1509589,0.643960396 L18.6184932,0.643960396 L18.6184932,3.8590099 L15.1509589,3.8590099 L15.1509589,0.643960396 Z M15.1509589,4.5029703 L18.6184932,4.5029703 L18.6184932,7.71564356 L15.1509589,7.71564356 L15.1509589,4.5029703 Z M15.1509589,8.3619802 L18.6184932,8.3619802 L18.6184932,11.569901 L15.1509589,11.569901 L15.1509589,8.3619802 Z M11.0546575,4.50059406 L14.5221918,4.50059406 L14.5221918,7.71564356 L11.0546575,7.71564356 L11.0546575,4.50059406 Z M11.0546575,8.35960396 L14.5221918,8.35960396 L14.5221918,11.5675248 L11.0546575,11.5675248 L11.0546575,8.35960396 Z M6.96068493,4.50059406 L10.4258904,4.50059406 L10.4258904,7.71564356 L6.96068493,7.71564356 L6.96068493,4.50059406 Z M6.96068493,8.35960396 L10.4258904,8.35960396 L10.4258904,11.5675248 L6.96068493,11.5675248 L6.96068493,8.35960396 Z M2.86438356,8.35960396 L6.32958904,8.35960396 L6.32958904,11.5675248 L2.86438356,11.5675248 L2.86438356,8.35960396 Z M32.9567123,9.81623762 L32.8589041,10.0158416 C32.8449315,10.0443564 32.8332877,10.0657426 32.8030137,10.120396 C32.3901367,10.9745603 31.6611941,11.626028 30.7769863,11.9310891 C30.0511221,12.1720961 29.2865406,12.2681042 28.5250685,12.2138614 L28.3620548,12.2138614 L28.1454795,12.2138614 L28.0639726,12.4205941 C25.3067123,19.4732673 19.2891781,23.2229703 11.3434247,23.2229703 C6.8,23.2229703 3.83780822,21.4669307 2.20068493,18.470495 C1.57242812,17.2963129 1.15892765,16.0152256 0.980410959,14.689901 C0.857799321,13.8706415 0.832777332,13.0392542 0.905890411,12.2138614 L23.3435616,12.2138614 L23.3435616,12.2138614 C24.5917808,12.199604 25.7584932,11.8051485 26.3430137,11.3417822 L26.6015068,11.1374257 L26.3942466,10.8784158 C25.9803559,10.3169462 25.7315824,9.64689547 25.6769863,8.94653465 C25.5799353,7.83123491 25.8380074,6.71373752 26.4128767,5.76 L26.5526027,5.54376238 L26.7528767,5.68158416 C27.9754795,6.65584158 28.6042466,7.73940594 28.6694521,9.00831683 L28.690411,9.40752475 L29.0653425,9.30534653 C30.2926027,8.96792079 32.0927397,9.13188119 32.7471233,9.58574257 L32.98,9.75207921 L32.9567123,9.81623762 Z" id="Shape" fill="#066DA5" fill-rule="nonzero"></path>
                    </g>
                </g>
            </g>
        </g>
    </g>
</svg>