<svg xmlns="http://www.w3.org/2000/svg" width="50" height="50" viewBox="0 0 50 50">
  <g fill="none" transform="translate(10 10)">
    <path fill="#87B09A" d="M12.5642384,28.4377055 L1.32786496,17.2187004 C-0.046991074,15.8459695 -0.046991074,13.6210092 1.32786496,12.2482783 L12.5642384,1.02927325 C13.9383602,-0.343091082 16.1671321,-0.343091082 17.5419882,1.02927325 L28.7783617,12.2482783 C30.1528506,13.6210092 30.1528506,15.8459695 28.7783617,17.2187004 L17.5419882,28.4377055 C16.1674993,29.8100698 13.9383602,29.8100698 12.5642384,28.4377055"/>
    <path fill="#FFF" d="M23.6530305,14.5058617 L21.5872589,12.4429165 C21.3835085,12.2402142 21.0365822,12.3839019 21.0365822,12.6709108 L21.0365822,13.3952142 C21.0365822,13.5729911 20.8919378,13.7170454 20.7135186,13.7170454 L19.5824287,13.7170454 C19.4047437,13.7170454 19.2600993,13.5729911 19.2600993,13.3952142 L19.2600993,11.9213155 C19.2600993,11.7435385 19.4047437,11.5994843 19.5824287,11.5994843 L19.9631299,11.5994843 C20.250583,11.5994843 20.3948603,11.2527277 20.19111,11.0496588 L18.1253383,8.9870803 C17.999417,8.86135357 17.7956665,8.86135357 17.6693781,8.9870803 L15.6032393,11.0496588 C15.4002232,11.2527277 15.5445005,11.5994843 15.8312194,11.5994843 L16.2838756,11.5994843 C16.4619277,11.5994843 16.606205,11.7435385 16.606205,11.9213155 L16.606205,13.3669898 C16.606205,13.5447667 16.4619277,13.688821 16.2838756,13.688821 L13.8047294,13.688821 C13.6266772,13.688821 13.4823999,13.5447667 13.4823999,13.3669898 L13.4823999,11.9213155 C13.4823999,11.7435385 13.6266772,11.5994843 13.8047294,11.5994843 L14.2739058,11.5994843 C14.5609919,11.5994843 14.7052692,11.2527277 14.501886,11.0496588 L12.4357472,8.9870803 C12.3098258,8.86135357 12.1060754,8.86135357 11.980154,8.9870803 L9.91364817,11.0496588 C9.71063204,11.2527277 9.85490928,11.5994843 10.1419954,11.5994843 L10.5058091,11.5994843 C10.6838612,11.5994843 10.8285056,11.7435385 10.8285056,11.9213155 L10.8285056,13.3952142 C10.8285056,13.5729911 10.6838612,13.7170454 10.5058091,13.7170454 L9.39123959,13.7170454 C9.21355454,13.7170454 9.0689102,13.5729911 9.0689102,13.3952142 L9.0689102,12.6709108 C9.0689102,12.3839019 8.72198387,12.2402142 8.51823352,12.4429165 L6.45246185,14.5058617 C6.32654045,14.6315884 6.32654045,14.8353903 6.45246185,14.9611171 L8.51823352,17.0240622 C8.72198387,17.2267645 9.0689102,17.0830768 9.0689102,16.7964344 L9.0689102,16.0717645 C9.0689102,15.8939876 9.21355454,15.7499333 9.39123959,15.7499333 L10.5058091,15.7499333 C10.6838612,15.7499333 10.8285056,15.8939876 10.8285056,16.0717645 L10.8285056,17.5456633 C10.8285056,17.7234402 10.6838612,17.8674944 10.5058091,17.8674944 L10.1419954,17.8674944 C9.85490928,17.8674944 9.71063204,18.214251 9.91364817,18.4173199 L11.980154,20.4798984 C12.1060754,20.6056252 12.3098258,20.6056252 12.4357472,20.4798984 L14.501886,18.4173199 C14.7052692,18.214251 14.5609919,17.8674944 14.2739058,17.8674944 L13.8047294,17.8674944 C13.6266772,17.8674944 13.4823999,17.7234402 13.4823999,17.5456633 L13.4823999,16.0941241 C13.4823999,15.9159806 13.6266772,15.7719263 13.8047294,15.7719263 L16.2838756,15.7719263 C16.4619277,15.7719263 16.606205,15.9159806 16.606205,16.0941241 L16.606205,17.5456633 C16.606205,17.7234402 16.4619277,17.8674944 16.2838756,17.8674944 L15.8312194,17.8674944 C15.5445005,17.8674944 15.4002232,18.214251 15.6032393,18.4173199 L17.6693781,20.4798984 C17.7956665,20.6056252 17.999417,20.6056252 18.1253383,20.4798984 L20.1914771,18.4173199 C20.3952275,18.214251 20.2509502,17.8674944 19.963497,17.8674944 L19.5827958,17.8674944 C19.4051108,17.8674944 19.2604664,17.7234402 19.2604664,17.5456633 L19.2604664,16.0717645 C19.2604664,15.8939876 19.4051108,15.7499333 19.5827958,15.7499333 L20.7138857,15.7499333 C20.8923049,15.7499333 21.0369493,15.8939876 21.0369493,16.0717645 L21.0369493,16.7964344 C21.0369493,17.0830768 21.3838756,17.2267645 21.587626,17.0240622 L23.6533976,14.9611171 C23.7789519,14.8353903 23.7789519,14.6315884 23.6530305,14.5058617"/>
  </g>
</svg>
