<?xml version="1.0" encoding="UTF-8"?>
<svg width="51px" height="50px" viewBox="0 0 51 50" version="1.1" xmlns="http://www.w3.org/2000/svg" xmlns:xlink="http://www.w3.org/1999/xlink">
    <!-- Generator: Sketch 46.2 (44496) - http://www.bohemiancoding.com/sketch -->
    <title>Fill 1@1x</title>
    <desc>Created with Sketch.</desc>
    <defs></defs>
    <g id="Habitat-SaaS-Home-&amp;-Pricing/desktop" stroke="none" stroke-width="1" fill="none" fill-rule="evenodd">
        <g id="Home-V4---2" transform="translate(-902.000000, -738.000000)" fill-rule="nonzero">
            <g id="core-os" transform="translate(901.666667, 738.000000)">
                <g id="coreos-logo">
                    <g id="coreos-1" transform="translate(13.000000, 12.000000)">
                        <path d="M12.8962117,0 C5.78459695,0 0,5.78479844 0,12.8954058 C0,20.0064161 5.7844962,25.7908116 12.8962117,25.7908116 C20.0058116,25.7908116 25.7908116,20.0064161 25.7908116,12.8954058 C25.7908116,5.78479844 20.0058116,0 12.8962117,0 Z" id="Shape" fill="#53A3DA"></path>
                        <path d="M12.8241509,0.904940757 C10.7684955,0.904940757 9.02516171,4.23431158 8.39547605,8.8617735 C8.37530675,9.01065777 8.35584337,9.161278 8.33859861,9.31291939 C8.25058781,10.0652783 8.19272167,10.8209396 8.1651426,11.5780434 C8.15121611,11.9386782 8.14432359,12.2995564 8.14446907,12.6604668 C8.14446907,13.0253251 8.15132663,13.3866094 8.16524345,13.7425838 C8.19438809,14.5220307 8.25267738,15.2798291 8.33869946,16.0081162 C9.30248964,16.134433 10.3331411,16.2201078 11.4080641,16.2608519 C11.8727649,16.2784157 12.3443232,16.2889336 12.8242518,16.2889336 C13.3026676,16.2889336 13.7757387,16.2783136 14.2390276,16.2608519 C15.3152616,16.2201078 16.3451063,16.134433 17.3098041,16.0081162 C17.4158946,15.9943307 17.5203716,15.9793197 17.6260587,15.9637982 C21.6406578,15.392973 24.4334004,14.1292948 24.4334004,12.6604668 C24.4332996,6.16776476 19.2351658,0.904940757 12.8241509,0.904940757 L12.8241509,0.904940757 Z" id="Shape" fill="#F1606D"></path>
                        <path d="M17.9892281,9.36150478 C17.8715429,9.19001689 17.7449712,9.02479922 17.6100312,8.86652839 C16.5313678,7.59503034 14.9244023,6.78705568 13.1265618,6.78705568 C12.5437241,6.78705568 12.0246135,7.67917735 11.6923949,9.06443725 C11.5603449,9.61690729 11.4579117,10.2469886 11.3918357,10.9310916 C11.337921,11.5075472 11.3112022,12.0862231 11.3117683,12.6651939 C11.3117683,13.2684177 11.3398531,13.8514216 11.3918357,14.399092 C11.9403588,14.4511733 12.5224817,14.4790521 13.1265618,14.4790521 C13.7298249,14.4790521 14.3119478,14.4510712 14.8604709,14.399092 C16.0662822,14.2847175 17.1072609,14.0529047 17.8446165,13.7473612 C18.5727807,13.4461067 19.0037559,13.0711215 19.0037559,12.6651939 C19.0036538,11.440569 18.6296654,10.3031547 17.9892281,9.36150478 L17.9892281,9.36150478 Z" id="Shape" fill="#FFFFFF"></path>
                    </g>
                </g>
            </g>
        </g>
    </g>
</svg>