<?xml version="1.0" encoding="UTF-8"?>
<svg width="50px" height="50px" viewBox="0 0 50 50" version="1.1" xmlns="http://www.w3.org/2000/svg" xmlns:xlink="http://www.w3.org/1999/xlink">
    <!-- Generator: Sketch 46.2 (44496) - http://www.bohemiancoding.com/sketch -->
    <title>nodejs-logo@1x</title>
    <desc>Created with Sketch.</desc>
    <defs></defs>
    <g id="Habitat-SaaS-Home-&amp;-Pricing/desktop" stroke="none" stroke-width="1" fill="none" fill-rule="evenodd">
        <g id="Habitat-Web-SaaS-Message-Home-(desktop)-V4" transform="translate(-841.000000, -738.000000)" fill-rule="nonzero" fill="#8CC84B">
            <g id="nodeJS" transform="translate(841.000000, 738.000000)">
                <g id="nodejs-icon">
                    <path d="M23.7366775,10.3307263 C24.5017516,9.89075212 25.4982601,9.88876478 26.2626748,10.3307263 C30.1083756,12.5139259 33.9552852,14.6937028 37.8003266,16.8782273 C38.5235315,17.2875082 39.0072799,18.0961333 38.9999171,18.933354 L38.9999171,32.0683234 C39.0053019,32.9402121 38.4737501,33.7681585 37.7107639,34.1681652 C33.8777008,36.3393303 30.0466158,38.5131453 26.2142121,40.6843104 C25.4333134,41.1328964 24.4168044,41.0983388 23.6603019,40.6129871 C22.5111523,39.9436963 21.3600245,39.2777178 20.210765,38.6090894 C19.9759239,38.4684302 19.711192,38.3564769 19.5453637,38.1277124 C19.6919607,37.9291995 19.9540552,37.9044682 20.1670276,37.8177983 C20.6467099,37.6645526 21.0872704,37.4185645 21.5279408,37.1798633 C21.6393722,37.1032404 21.7754195,37.1326088 21.8822354,37.2011719 C22.8648974,37.7672316 23.8388778,38.349742 24.8248366,38.9103917 C25.0351716,39.0323921 25.2481439,38.8704242 25.4279287,38.7697325 C29.1893416,36.6338978 32.95537,34.5061228 36.7161236,32.3696257 C36.8554678,32.3022771 36.9325027,32.1536684 36.9211837,32.0003123 C36.9238211,27.6673667 36.9218431,23.3336482 36.9225024,19.0007026 C36.9384369,18.8267003 36.8382146,18.6667197 36.6816173,18.5955068 C32.8618512,16.4342784 29.0440632,14.2697377 25.2249565,12.1079572 C25.0895172,12.0144081 24.9107669,12.0141449 24.7750552,12.1072948 C20.9559485,14.2697377 17.1388198,16.4362657 13.3197132,18.5973837 C13.1636653,18.668707 13.0589374,18.8260378 13.0775093,19.0007026 C13.0781686,23.3336482 13.0775093,27.6673667 13.0775093,32.0009748 C13.0639459,32.1542271 13.1468265,32.2997492 13.2852068,32.365651 C14.3043532,32.9462845 15.3248183,33.5228329 16.3446241,34.101479 C16.919144,34.412166 17.6245463,34.5967675 18.2575292,34.3587287 C18.8161146,34.1574557 19.2076629,33.5847715 19.1970033,32.9889018 C19.2022781,28.6812395 19.1943659,24.3729148 19.2009594,20.065915 C19.187003,19.8746891 19.367557,19.7166958 19.5526166,19.7346922 C20.0422992,19.73138 20.5326412,19.7280678 21.0223238,19.7360171 C21.2267245,19.73138 21.3673873,19.9372902 21.342112,20.1299514 C21.3401339,24.4648843 21.3473868,28.7999277 21.3388152,33.1348606 C21.3401339,34.2901656 20.8677045,35.5472663 19.8040515,36.1125532 C18.493689,36.7945408 16.8740879,36.6499069 15.57955,35.9959628 C14.4588626,35.4339882 13.3893852,34.7707698 12.2885884,34.1687173 C11.5236242,33.7709187 10.9947098,32.93966 11.0000946,32.0684338 L11.0000946,18.933354 C10.9920724,18.0787993 11.495052,17.25549 12.240785,16.8521711 C16.0731887,14.6792394 19.9049331,12.5046517 23.7366775,10.3307263 Z" id="Shape"></path>
                    <path d="M26.6723543,19.040827 C28.3584272,18.9377543 30.1634454,18.9797625 31.6806894,19.7686534 C32.8553978,20.3731925 33.5066587,21.6419666 33.5273882,22.8814718 C33.4945757,23.0486623 33.3105599,23.1408908 33.1425069,23.1294149 C32.6533129,23.1287832 32.1640081,23.1357319 31.6748141,23.1262564 C31.4672975,23.1338368 31.3466895,22.9521171 31.3206391,22.7778726 C31.1800775,22.1848094 30.8395374,21.5974315 30.2517952,21.3113757 C29.3495632,20.8823445 28.3034442,20.9039277 27.3196245,20.9128768 C26.6014084,20.9490944 25.8290961,21.0081586 25.2206244,21.4092895 C24.7534902,21.7131383 24.6115984,22.3265213 24.7783212,22.8205125 C24.9355107,23.1752133 25.3666177,23.2896567 25.7193517,23.395151 C27.7512858,23.8998812 29.904493,23.8496608 31.8976285,24.5138958 C32.7228177,24.7846855 33.5300487,25.3111041 33.8125019,26.1316854 C34.1819747,27.2314791 34.0200186,28.5460517 33.1961597,29.4289609 C32.5280491,30.1555238 31.5549821,30.5509695 30.5844648,30.7657483 C29.2933608,31.0391701 27.9534815,31.0461188 26.6423131,30.9247267 C25.4094069,30.7912269 24.1263952,30.4835879 23.174612,29.6857479 C22.3607298,29.0145642 21.9632112,27.968781 22.0026749,26.959426 C22.0120974,26.7889717 22.1907923,26.6701064 22.3627252,26.6841091 C22.8553555,26.6803189 23.3479859,26.6790555 23.8406163,26.6847408 C24.0373803,26.6713698 24.1832627,26.832875 24.1933503,27.0090147 C24.2842497,27.5740724 24.5078401,28.1671355 25.0266318,28.5021483 C26.0278554,29.1156366 27.2841515,29.0736284 28.4305925,29.0907896 C29.3803803,29.0507818 30.4465638,29.0386742 31.2216474,28.4424525 C31.6305838,28.1023861 31.7517461,27.5334329 31.6412257,27.0439688 C31.5215046,26.6307303 31.0663424,26.4381663 30.675475,26.312247 C28.6695914,25.709603 26.4923291,25.9282773 24.5058447,25.2467758 C23.6993897,24.9760913 22.9195394,24.4643072 22.6097055,23.6774167 C22.1773791,22.5637255 22.3754732,21.1861933 23.2856866,20.3330794 C24.1731751,19.4844926 25.4543023,19.1576919 26.6723543,19.0407217 L26.6723543,19.040827 Z" id="Shape"></path>
                </g>
            </g>
        </g>
    </g>
</svg>