<?xml version="1.0" encoding="UTF-8"?>
<svg width="16px" height="16px" viewBox="0 0 16 16" version="1.1" xmlns="http://www.w3.org/2000/svg" xmlns:xlink="http://www.w3.org/1999/xlink">
    <!-- Generator: Sketch 46.2 (44496) - http://www.bohemiancoding.com/sketch -->
    <title>github icon@1x</title>
    <desc>Created with Sketch.</desc>
    <defs></defs>
    <g id="Symbols" stroke="none" stroke-width="1" fill="none" fill-rule="evenodd">
        <g id="global-nav/not-signed-in/desktop" transform="translate(-8.000000, -7.000000)" fill="#FFFFFF">
            <g id="find-us-on-github-tab">
                <g id="Group" transform="translate(8.000000, 7.000000)">
                    <g id="github-icon">
                        <path d="M8.03835591,4.29743338e-06 C4.09695683,-0.00408777405 0.735386669,2.9146484 0.104320678,6.88885519 C-0.526745312,10.863062 1.75929928,14.7175652 5.49988212,15.9863194 C5.89913722,16.0618453 6.04700948,15.8100923 6.04700948,15.5885497 C6.04700948,15.3670071 6.04700948,14.8786063 6.04700948,14.1938381 C3.80428021,14.692309 3.33108898,13.09116 3.33108898,13.09116 C3.18321748,12.5957592 2.86677391,12.1707153 2.43892634,11.8928157 C1.70942319,11.3893098 2.49314617,11.3893098 2.49314617,11.3893098 C3.00988285,11.4613759 3.46486871,11.7737007 3.725415,12.2351998 C3.94556653,12.6433408 4.3162085,12.9447328 4.75494812,13.0723771 C5.19368773,13.2000214 5.66416599,13.14334 6.06179671,12.9149329 C6.09358035,12.5009478 6.26826439,12.1119484 6.55470424,11.8172898 C4.79009527,11.6209225 2.91704665,10.9160141 2.91704665,7.77413676 C2.90613238,6.95926737 3.20265678,6.17136614 3.7451313,5.57381559 C3.50039018,4.86650782 3.52859044,4.09052953 3.82399651,3.40370478 C3.82399651,3.40370478 4.49927983,3.18216215 6.03222226,4.24455978 C7.34867157,3.8761133 8.73789841,3.8761133 10.0543477,4.24455978 C11.5872902,3.18216215 12.2625735,3.40370478 12.2625735,3.40370478 C12.5552599,4.09170713 12.5799407,4.86786075 12.3315805,5.57381559 C12.8727006,6.17186866 13.1674961,6.95986663 13.1547361,7.77413676 C13.1547361,10.9260842 11.2767584,11.6158875 9.48750406,11.8021847 C9.87347834,12.2022573 10.0727284,12.7523499 10.0346314,13.3127026 C10.0346314,14.4103457 10.0346314,15.2914812 10.0346314,15.5633744 C10.0346314,15.8352676 10.1775746,16.03667 10.5866879,15.9561091 C14.2828538,14.654536 16.5240271,10.8227409 15.8945217,6.88116094 C15.2650163,2.93958096 11.9478384,0.03408977 8.03835591,4.29743338e-06 Z" id="Shape"></path>
                    </g>
                </g>
            </g>
        </g>
    </g>
</svg>