<?xml version="1.0" encoding="UTF-8"?>
<svg width="50px" height="50px" viewBox="0 0 50 50" version="1.1" xmlns="http://www.w3.org/2000/svg" xmlns:xlink="http://www.w3.org/1999/xlink">
    <!-- Generator: Sketch 46.2 (44496) - http://www.bohemiancoding.com/sketch -->
    <title>mesosphere-logo@1x</title>
    <desc>Created with Sketch.</desc>
    <defs>
        <linearGradient x1="0.024%" y1="49.981%" x2="100.048%" y2="49.981%" id="linearGradient-1">
            <stop stop-color="#9351E5" offset="0%"></stop>
            <stop stop-color="#EF468B" offset="100%"></stop>
        </linearGradient>
    </defs>
    <g id="Habitat-SaaS-Home-&amp;-Pricing/desktop" stroke="none" stroke-width="1" fill="none" fill-rule="evenodd">
        <g id="Home-V4---2" transform="translate(-964.000000, -738.000000)" fill-rule="nonzero" fill="url(#linearGradient-1)">
            <g id="mesosphere" transform="translate(964.000000, 738.000000)">
                <g id="Shape">
                    <path d="M25.294566,36.6633012 C24.8770188,36.6633012 24.4846926,36.4322506 24.2125552,36.0343593 L19.884408,29.5462057 L13.7907928,33.3518566 C13.5503114,33.5058552 13.3034987,33.5763809 13.0630173,33.5763809 C12.5505022,33.5763809 12,33.1914369 12,32.3378655 L12,18.6813537 C12,18.0653591 12.3416767,17.4876799 12.8795165,17.1989456 C13.1074394,17.019263 13.4302263,17 13.664169,17 L36.9187357,17 C37.2287564,17 37.4692379,17.057789 37.6463036,17.1732616 C38.2096758,17.4557855 38.5702423,18.0460961 38.5702423,18.6813537 L38.5702423,29.1612617 C38.5702423,29.5141008 38.469047,29.8286243 38.2728839,30.0596749 C38.0640584,30.3098832 37.7602651,30.4511452 37.4249195,30.4511452 C37.216094,30.4511452 36.9946062,30.3997772 36.7794495,30.2906203 L31.8374882,27.8199051 L26.3640183,36.0279384 C26.1045433,36.4321453 25.712217,36.6633012 25.294566,36.6633012 Z M20.8335677,28.9556846 L25.1300589,35.3988912 C25.1933708,35.4952062 25.2566827,35.5336269 25.294566,35.5336269 C25.3325532,35.5336269 25.3958651,35.4887852 25.459177,35.3988912 L30.8503414,27.3192779 L26.7436821,25.2656117 L20.8335677,28.9556846 Z M13.0693485,32.4598644 L13.0693485,33.0245963 L13.0693485,32.4598644 Z M13.1136668,19.3873475 L13.1136668,32.3443917 C13.1136668,32.3893387 13.119998,32.4213384 13.119998,32.4470224 C13.1453227,32.4407067 13.1706475,32.4213384 13.2086347,32.4021807 L19.2642627,28.6158981 L13.1136668,19.3873475 Z M32.4767309,26.8830712 L37.2795097,29.2832607 C37.412361,29.3474706 37.4503481,29.3281024 37.4503481,29.3281024 C37.4503481,29.3217867 37.4756729,29.2704187 37.4756729,29.1612617 L37.4756729,19.3873475 L32.4767309,26.8829659 L32.4767309,26.8830712 Z M14.1894502,18.9958772 L20.2134224,28.0252717 L25.5667034,24.6817221 L14.1894502,18.9958772 Z M27.8510177,24.5726704 L31.4704867,26.382444 L36.127752,19.4001895 L27.8510177,24.5726704 L27.8510177,24.5726704 Z M14.9362194,18.1166218 L26.680474,23.9822545 L36.0772063,18.1166218 L14.9361156,18.1166218 L14.9362194,18.1166218 Z"></path>
                </g>
            </g>
        </g>
    </g>
</svg>