<?xml version="1.0" encoding="UTF-8"?>
<svg width="150px" height="60px" viewBox="0 0 150 60" version="1.1" xmlns="http://www.w3.org/2000/svg" xmlns:xlink="http://www.w3.org/1999/xlink">
    <!-- Generator: Sketch 46.2 (44496) - http://www.bohemiancoding.com/sketch -->
    <title>logo-rancher@1x</title>
    <desc>Created with Sketch.</desc>
    <defs></defs>
    <g id="Symbols" stroke="none" stroke-width="1" fill="none" fill-rule="evenodd">
        <g id="home-v4---bg" transform="translate(-214.000000, -2724.000000)" fill-rule="nonzero" fill="#FFFFFF">
            <g id="testimonial" transform="translate(130.000000, 2609.000000)">
                <g id="rancher-logo-horiz-white" transform="translate(87.000000, 136.000000)">
                    <g id="Group">
                        <path d="M45.7612748,4.66826136 L45.2601558,1.72227118 C45.1007089,0.770489739 44.7362587,0 44.4401429,0 C44.1440272,0 43.8934677,0.793151202 43.8934677,1.74493265 L43.8934677,2.51542238 C43.8934677,3.46720383 43.0962329,4.26035503 42.1395512,4.26035503 L41.3650946,4.26035503 C41.3195383,4.26035503 41.2512039,4.26035503 41.2056477,4.26035503 L41.2056477,6.39053254 C41.2512039,6.39053254 41.3195383,6.39053254 41.3650946,6.39053254 L44.280696,6.39053254 C45.2601558,6.39053254 45.9207218,5.6200428 45.7612748,4.66826136" id="Shape"></path>
                        <path d="M38.7683871,2.17550044 L34.0305349,2.17550044 C33.9849786,2.17550044 33.9622005,2.17550044 33.9166442,2.17550044 L29.0649013,2.17550044 C28.9965669,2.17550044 28.9510106,2.17550044 28.9054543,2.1981619 L28.9054543,1.74493265 C28.9054543,0.793151202 28.6548948,-8.8817842e-16 28.3587791,-8.8817842e-16 C28.0626633,-8.8817842e-16 27.6982131,0.770489739 27.5387662,1.72227118 L27.0376472,4.66826136 C26.8782002,5.6200428 27.5387662,6.39053254 28.4954479,6.39053254 L31.4338274,6.39053254 C31.7299432,6.39053254 32.0260589,6.34520962 32.2538403,6.25456377 C32.1627278,6.75311595 31.7299432,7.11569936 31.206046,7.11569936 L27.1059816,7.11569936 C26.4454157,7.11569936 25.9442967,6.52650132 26.0581874,5.8693189 L26.4681938,3.39921944 C26.5820845,2.74203701 26.0809655,2.15283898 25.4203996,2.15283898 L5.07952428,2.15283898 C4.6467397,2.15283898 4.28228953,2.40211507 4.10006444,2.78735994 L0.27333763,8.61135591 C0.205003222,8.70200176 0.205003222,8.83797054 0.296115765,8.92861639 L1.04779425,9.81241345 C1.13890679,9.92572076 1.29835374,9.94838222 1.41224442,9.85773637 L4.0089519,7.81820471 L4.0089519,20.2366864 C4.0089519,20.8258844 4.48729275,21.3017751 5.07952428,21.3017751 L10.8651708,21.3017751 C11.4574023,21.3017751 11.9357432,20.8258844 11.9357432,20.2366864 L11.9357432,15.9310084 C11.9357432,15.3418104 12.414084,14.8659197 13.0063155,14.8659197 L27.4248755,14.8659197 C28.017107,14.8659197 28.4954479,15.3418104 28.4954479,15.9310084 L28.4954479,20.2366864 C28.4954479,20.8258844 28.9737887,21.3017751 29.5660203,21.3017751 L35.3516668,21.3017751 C35.9438983,21.3017751 36.4222391,20.8258844 36.4222391,20.2366864 L36.4222391,15.5457636 L33.3471908,15.5457636 C32.3905091,15.5457636 31.5932744,14.7526124 31.5932744,13.8008309 L31.5932744,10.8321793 C31.5932744,10.2656427 31.866612,9.76709052 32.2993966,9.44983004 L32.2993966,13.0076797 C32.2993966,13.9594612 33.0966313,14.7526124 34.053313,14.7526124 L38.7911653,14.7526124 C39.747847,14.7526124 40.5450817,13.9594612 40.5450817,13.0076797 L40.5450817,3.94309455 C40.5223036,2.96865164 39.7250688,2.17550044 38.7683871,2.17550044" id="Shape"></path>
                    </g>
                    <g id="Group" transform="translate(49.420118, 2.556213)">
                        <g id="Shape">
                            <path d="M0.202671175,0.269822485 L6.64311074,0.269822485 C9.70569738,0.269822485 11.7549281,1.75384615 11.7549281,4.60946746 C11.7549281,6.94792899 10.1560778,8.34201183 8.60226543,8.83668639 C9.07516484,9.21893491 9.41295013,9.75857988 9.68317836,10.3207101 C10.3362299,11.6473373 10.7640913,13.0863905 12.1377515,13.0863905 C12.4755368,13.0863905 12.768284,12.9739645 12.768284,12.9739645 L12.4755368,15.739645 C12.4755368,15.739645 11.6423331,15.9420118 10.9217244,15.9420118 C9.07516484,15.9420118 8.01677092,15.2224852 6.91333897,12.7491124 C6.44043956,11.6473373 5.80990702,9.69112426 4.95418428,9.69112426 L4.07594252,9.69112426 L4.07594252,15.852071 L0.202671175,15.852071 L0.202671175,0.269822485 Z M4.07594252,3.08047337 L4.07594252,6.90295858 L5.47212172,6.90295858 C6.57555368,6.90295858 7.8816568,6.56568047 7.8816568,4.90177515 C7.8816568,3.53017751 7.00341505,3.08047337 5.94502113,3.08047337 L4.07594252,3.08047337 Z"></path>
                            <path d="M16.9793407,0.269822485 L20.89765,0.269822485 L26.1671006,15.852071 L22.2487912,15.852071 L21.2804734,12.9065089 L16.0560609,12.9065089 L15.110262,15.852071 L11.7324091,15.852071 L16.9793407,0.269822485 Z M16.9793407,10.0508876 L20.3346746,10.0508876 L19.2762806,6.76804734 C18.9159763,5.66627219 18.7358242,4.09230769 18.7358242,4.09230769 L18.6457481,4.09230769 C18.6457481,4.09230769 18.4205579,5.6887574 18.0602536,6.74556213 L16.9793407,10.0508876 Z"></path>
                            <path d="M26.3247337,0.269822485 L30.4682333,0.269822485 L34.5666948,8.00473373 C34.9044801,8.67928994 35.3773795,9.84852071 35.7376839,10.7704142 L35.8277599,10.7704142 C35.7827219,9.89349112 35.6701268,8.65680473 35.6701268,7.73491124 L35.6701268,0.269822485 L38.8453085,0.269822485 L38.8453085,15.852071 L34.791885,15.852071 L30.5357904,8.13964497 C30.152967,7.44260355 29.7251057,6.43076923 29.4098394,5.59881657 L29.3197633,5.59881657 C29.3873204,6.47573964 29.4999155,7.51005917 29.4999155,8.36449704 L29.4999155,15.852071 L26.3247337,15.852071 L26.3247337,0.269822485 Z"></path>
                            <path d="M39.6559932,7.98224852 C39.6559932,2.33846154 42.4483516,0.0224852071 46.7720034,0.0224852071 C51.3208453,0.0224852071 53.1448859,2.5183432 52.6494675,5.89112426 L49.0464243,6.20591716 C49.4292477,3.73254438 48.4609298,2.74319527 46.7044463,2.74319527 C45.0155199,2.74319527 43.6418597,3.97988166 43.6418597,8.00473373 C43.6418597,12.2544379 45.128115,13.3337278 46.8170414,13.3337278 C48.4158918,13.3337278 49.6994759,12.3443787 49.4292477,10.2982249 L52.8071006,10.635503 C53.0548098,13.8059172 50.7803888,16.1218935 46.6143702,16.1218935 C42.4033136,16.1443787 39.6559932,13.6485207 39.6559932,7.98224852"></path>
                            <polygon points="53.6177853 0.269822485 57.4685376 0.269822485 57.4685376 6.16094675 62.2200507 6.16094675 62.2200507 0.269822485 66.070803 0.269822485 66.070803 15.8745562 62.2200507 15.8745562 62.2200507 9.26390533 57.4685376 9.26390533 57.4685376 15.8745562 53.6177853 15.8745562"></polygon>
                            <polygon points="67.6246154 0.269822485 77.9608453 0.269822485 77.9608453 3.14792899 71.4753677 3.14792899 71.4753677 6.49822485 76.9249704 6.49822485 76.9249704 9.35384615 71.4753677 9.35384615 71.4753677 12.9964497 78.1860355 12.9964497 78.1860355 15.8745562 67.6246154 15.8745562"></polygon>
                            <path d="M78.9291631,0.269822485 L85.3696027,0.269822485 C88.4321893,0.269822485 90.4814201,1.75384615 90.4814201,4.60946746 C90.4814201,6.94792899 88.8825697,8.34201183 87.3287574,8.83668639 C87.8016568,9.21893491 88.1394421,9.75857988 88.4096703,10.3207101 C89.0627219,11.6473373 89.4905833,13.0863905 90.8642434,13.0863905 C91.2020287,13.0863905 91.494776,12.9739645 91.494776,12.9739645 L91.1795097,15.739645 C91.1795097,15.739645 90.346306,15.9420118 89.6256974,15.9420118 C87.7791378,15.9420118 86.7207439,15.2224852 85.6173119,12.7491124 C85.1444125,11.6473373 84.51388,9.69112426 83.6581572,9.69112426 L82.7799155,9.69112426 L82.7799155,15.852071 L78.9066441,15.852071 L78.9066441,0.269822485 L78.9291631,0.269822485 Z M82.8024345,3.08047337 L82.8024345,6.90295858 L84.1986137,6.90295858 C85.3020456,6.90295858 86.6081488,6.56568047 86.6081488,4.90177515 C86.6081488,3.53017751 85.729907,3.08047337 84.6715131,3.08047337 L82.8024345,3.08047337 Z"></path>
                        </g>
                        <path d="M91.9001183,1.2591716 C91.9001183,0.382248521 92.5531699,1.77635684e-15 93.1611834,1.77635684e-15 C93.769197,1.77635684e-15 94.4222485,0.382248521 94.4222485,1.2591716 C94.4222485,2.11360947 93.769197,2.49585799 93.1611834,2.49585799 C92.5531699,2.5183432 91.9001183,2.13609467 91.9001183,1.2591716 Z M94.1069822,1.2591716 C94.1069822,0.562130178 93.6566019,0.269822485 93.1611834,0.269822485 C92.665765,0.269822485 92.1928656,0.562130178 92.1928656,1.2591716 C92.1928656,1.93372781 92.665765,2.24852071 93.1611834,2.24852071 C93.6566019,2.24852071 94.1069822,1.95621302 94.1069822,1.2591716 Z M92.7333221,0.629585799 L93.1837025,0.629585799 C93.4088926,0.629585799 93.6340828,0.69704142 93.6340828,1.01183432 C93.6340828,1.19171598 93.4989687,1.30414201 93.3413356,1.34911243 L93.6340828,1.86627219 L93.3638546,1.86627219 L93.0936264,1.37159763 L92.9810313,1.37159763 L92.9810313,1.86627219 L92.7333221,1.86627219 L92.7333221,0.629585799 L92.7333221,0.629585799 Z M93.2062215,1.19171598 C93.3188166,1.19171598 93.4088926,1.12426036 93.4088926,1.01183432 C93.4088926,0.876923077 93.2962975,0.85443787 93.2062215,0.85443787 L92.9810313,0.85443787 L92.9810313,1.19171598 L93.2062215,1.19171598 Z" id="Shape"></path>
                    </g>
                </g>
            </g>
        </g>
    </g>
</svg>