<?xml version="1.0" encoding="UTF-8"?>
<svg width="150px" height="60px" viewBox="0 0 150 60" version="1.1" xmlns="http://www.w3.org/2000/svg" xmlns:xlink="http://www.w3.org/1999/xlink">
    <!-- Generator: Sketch 46.2 (44496) - http://www.bohemiancoding.com/sketch -->
    <title>logo-mesosphere@1x</title>
    <desc>Created with Sketch.</desc>
    <defs></defs>
    <g id="Symbols" stroke="none" stroke-width="1" fill="none" fill-rule="evenodd">
        <g id="home-v4---bg" transform="translate(-629.000000, -2724.000000)" fill-rule="nonzero" fill="#FFFFFF">
            <g id="testimonial" transform="translate(130.000000, 2609.000000)">
                <g id="mesosphere-(1)" transform="translate(540.562500, 122.500000)">
                    <path d="M32.5257812,47.4343514 C31.5042323,47.4343514 30.5443877,46.8769813 29.8785907,45.9171367 L19.2895751,30.2655757 L4.38125886,39.4460575 C3.79290968,39.8175529 3.18907094,39.9876841 2.60072176,39.9876841 C1.34682955,39.9876841 0,39.0590725 0,36.9999774 L0,4.05597819 C0,2.56999657 0.835928142,1.17644444 2.15177858,0.479922293 C2.70940257,0.0464686664 3.49911598,0 4.07146775,0 L60.964859,0 C61.7233393,0 62.3116885,0.139405999 62.7448882,0.417964071 C64.1232047,1.09950451 65.0053476,2.52352791 65.0053476,4.05597819 L65.0053476,29.3369642 C65.0053476,30.1881279 64.7577686,30.9468622 64.2778463,31.5042323 C63.7669449,32.1078171 63.0237002,32.4485873 62.2032616,32.4485873 C61.6923602,32.4485873 61.1504797,32.3246709 60.6240887,32.0613484 L48.533348,26.1011706 L35.1422464,45.9016471 C34.5074286,46.8767274 33.547584,47.4343514 32.5257812,47.4343514 Z M21.6117388,28.8410445 L32.1233067,44.3841786 C32.2782022,44.6165219 32.4330978,44.7092053 32.5257812,44.7092053 C32.6187185,44.7092053 32.7736141,44.6010323 32.9285096,44.3841786 L46.118247,24.8934931 L36.0711119,19.9393747 L21.6117388,28.8410445 Z M2.61621131,37.2942789 L2.61621131,38.656598 L2.61621131,37.2942789 Z M2.7246382,5.75906751 L2.7246382,37.0157208 C2.7246382,37.1241477 2.74012776,37.2013416 2.74012776,37.2632998 C2.80208598,37.2480642 2.8640442,37.2013416 2.95698153,37.1551268 L17.7723605,28.0213676 L2.7246382,5.75906751 Z M50.0972853,23.8412191 L61.8475097,29.6312657 C62.1725364,29.7861613 62.2654738,29.7394387 62.2654738,29.7394387 C62.2654738,29.724203 62.327432,29.6002866 62.327432,29.3369642 L62.327432,5.75906751 L50.0972853,23.8409652 L50.0972853,23.8412191 Z M5.356593,4.81471248 L20.0945241,26.5965825 L33.1915781,18.5308408 L5.356593,4.81471248 Z M38.7802605,18.2677723 L47.6354616,22.6335416 L59.0296802,5.79004662 L38.7802605,18.2677723 L38.7802605,18.2677723 Z M7.18359876,2.69365909 L35.9164703,16.843495 L58.9060177,2.69365909 L7.18334484,2.69365909 L7.18359876,2.69365909 Z" id="Shape"></path>
                </g>
            </g>
        </g>
    </g>
</svg>