<?xml version="1.0" encoding="UTF-8"?>
<svg width="150px" height="60px" viewBox="0 0 150 60" version="1.1" xmlns="http://www.w3.org/2000/svg" xmlns:xlink="http://www.w3.org/1999/xlink">
    <!-- Generator: Sketch 46.2 (44496) - http://www.bohemiancoding.com/sketch -->
    <title>logo-intel@1x</title>
    <desc>Created with Sketch.</desc>
    <defs></defs>
    <g id="Symbols" stroke="none" stroke-width="1" fill="none" fill-rule="evenodd">
        <g id="home-v4---bg" transform="translate(-441.000000, -2724.000000)" fill-rule="nonzero" fill="#FFFFFF">
            <g id="testimonial" transform="translate(130.000000, 2609.000000)">
                <g id="logo-intel" transform="translate(346.312500, 120.500000)">
                    <path d="M37.0735409,45.8810384 C21.6511024,47.3037817 5.5765562,45.0628548 3.32507833,33.0101653 C2.22366155,27.0685712 4.93404024,20.7681055 8.52467539,16.852033 L8.52467539,14.7608758 C2.05648956,20.4336244 -1.44891528,27.6114691 0.570166114,36.0905148 C3.14927369,46.965875 16.9416482,53.1245186 37.9995641,51.0794022 C46.3347322,50.2716326 57.2354423,47.5916738 64.8188846,43.4262136 L64.8188846,37.513258 C57.9363315,41.6140418 46.5550704,45.0014671 37.0735409,45.8810384 L37.0735409,45.8810384 Z M77.701405,14.6196018 C74.0432159,-3.24053315 39.3654415,-4.37278083 17.0115315,9.23447123 L17.0115315,10.7373748 C39.3398176,-0.741859972 71.0113737,-0.672113624 73.8949535,15.7803509 C74.8626327,21.2227585 71.796808,26.8927666 66.3198698,30.1575533 L66.3198698,34.4264683 C72.9082277,32.0098738 79.666224,24.193624 77.701405,14.6196018 L77.701405,14.6196018 Z" id="Shape"></path>
                    <path d="M63.571946,12.0188441 L59.5283021,12.0188441 L59.5283021,30.0284746 C59.5283021,32.1390896 60.5485994,33.9745558 63.571946,34.2677919 L63.571946,12.0188441 Z M15.4238087,18.5944585 L11.3727654,18.5944585 L11.370573,30.3607632 C11.370573,32.4787776 12.3941589,34.3123255 15.4238087,34.6000805 L15.4238087,18.5944585 L15.4238087,18.5944585 Z M11.3727654,12.5666749 L15.4112023,12.5666749 L15.4112023,16.3997095 L11.3727654,16.3997095 L11.3727654,12.5666749 Z M39.6404531,34.4137249 C36.3674447,34.4137249 34.9823837,32.1388155 34.9823837,29.8980257 L34.9823837,14.2751179 L38.9908118,14.2751179 L38.9908118,18.5944585 L42.0096365,18.5944585 L42.0096365,21.8321141 L38.9908118,21.8321141 L38.9908118,29.6504193 C38.9908118,30.5641101 39.4246368,31.0731626 40.3773801,31.0731626 L42.0096365,31.0731626 L42.0096365,34.4138619 L39.6404531,34.4137249 L39.6404531,34.4137249 Z M47.0164377,27.7578131 C47.0164377,29.8092327 48.2991402,31.3167952 50.5688425,31.3167952 C52.3473059,31.3167952 53.2238626,30.8232267 54.2504631,29.8092327 L56.7273491,32.1686872 C55.1393522,33.7375004 53.4755798,34.69134 50.5392448,34.69134 C46.7031957,34.69134 43.0277414,32.5977163 43.0277414,26.4940202 C43.0277414,21.2759246 46.239362,18.3262982 50.4503148,18.3262982 C54.731014,18.3262982 57.1910458,21.779359 57.1910458,26.3120494 L57.1910458,27.7582242 L47.0164377,27.7582242 L47.0164377,27.7578131 Z M50.2746472,21.6415106 C48.9026036,21.6415106 47.8484609,22.3481548 47.4016184,23.3013092 C47.1414056,23.8742159 47.0460353,24.3206473 47.0163007,25.0246881 L53.1939909,25.0246881 C53.1158859,23.3013092 52.3345624,21.6415106 50.2746472,21.6415106 Z M26.3108162,21.8321141 C27.4862271,21.8321141 27.9748626,22.4132423 27.9748626,23.3563938 L27.9748626,34.4371563 L31.9842499,34.4371563 L31.9842499,23.3330993 C31.9842499,21.0831287 30.7854075,18.5987063 27.2646557,18.5987063 L18.9826538,18.5944585 L18.9826538,34.4371563 L22.9935483,34.4371563 L22.9935483,21.8321141 L26.3108162,21.8321141 L26.3108162,21.8321141 Z M67.9226656,15.2369049 C67.03131,15.2369049 66.3198698,14.5180654 66.3198698,13.627806 C66.3198698,12.7417944 67.03131,12.0188441 67.9226656,12.0188441 C68.8096363,12.0188441 69.5379307,12.7417944 69.5379307,13.627806 C69.5379307,14.5180654 68.8094993,15.2369049 67.9226656,15.2369049 Z M67.9226656,12.2871414 C67.188068,12.2871414 66.5972109,12.8943046 66.5972109,13.627806 C66.5972109,14.3655552 67.188068,14.9620303 67.9226656,14.9620303 C68.6571261,14.9620303 69.2670298,14.3655552 69.2670298,13.627806 C69.2668928,12.8943046 68.6572632,12.2871414 67.9226656,12.2871414 Z M68.6360241,14.5921966 L68.3353886,14.5921966 C68.30893,14.5918799 68.285071,14.5762057 68.2742749,14.5520479 L67.867581,13.8607506 C67.8548376,13.8459517 67.8209921,13.8290975 67.8105781,13.8290975 L67.6243595,13.8290975 L67.6243595,14.5182024 C67.6243595,14.5521849 67.600928,14.5923336 67.5566685,14.5923336 L67.2854936,14.5923336 C67.2450709,14.5923336 67.2178027,14.5521849 67.2178027,14.5182024 L67.2178027,12.7800248 C67.2178027,12.6783513 67.2516482,12.6365583 67.3405782,12.6238149 C67.4380038,12.6132638 67.6920504,12.6005204 67.8341466,12.6005204 C68.3357996,12.6005204 68.630269,12.7482347 68.630269,13.2134387 L68.630269,13.2474212 C68.630269,13.5347652 68.4884468,13.6913862 68.2682457,13.7612695 L68.6916567,14.4821645 C68.6985879,14.4982664 68.7021774,14.515608 68.7022078,14.5331383 C68.7016596,14.5604065 68.6869978,14.5921966 68.6360241,14.5921966 Z M68.2465956,13.2134387 C68.2465956,13.0192725 68.1258755,12.9578848 67.867444,12.9578848 L67.611342,12.9578848 L67.611342,13.5092783 C67.6516277,13.5092783 67.8337355,13.5177739 67.867444,13.5177739 C68.1258755,13.5177739 68.2465956,13.4315844 68.2465956,13.2474212 L68.2465956,13.2134387 Z" id="Shape"></path>
                </g>
            </g>
        </g>
    </g>
</svg>