<?xml version="1.0" encoding="utf-8"?>
<!-- Generator: Adobe Illustrator 22.1.0, SVG Export Plug-In . SVG Version: 6.00 Build 0)  -->
<svg version="1.1" id="Layer_1" xmlns="http://www.w3.org/2000/svg" xmlns:xlink="http://www.w3.org/1999/xlink" x="0px" y="0px"
	 viewBox="0 0 127 105" style="enable-background:new 0 0 127 105;" xml:space="preserve">
<style type="text/css">
	.st0{fill:#DDC7AE;}
	.st1{fill-opacity:0.1;}
	.st2{fill:none;stroke:#DEBFA5;}
	.st3{fill:#A2BD7C;}
	.st4{fill:#FFE9D1;}
	.st5{fill:#B9DA8D;}
	.st6{fill:#837365;}
	.st7{fill:none;stroke:#827365;stroke-linecap:round;stroke-linejoin:round;}
	.st8{fill:#827365;}
	.st9{filter:url(#Adobe_OpacityMaskFilter);}
	.st10{fill:#FFFFFF;}
	.st11{mask:url(#mask-2_1_);fill-opacity:0.1;}
	.st12{fill:#FF9012;}
	.st13{fill:#FFE48F;}
	.st14{fill:#54C7F1;}
	.st15{fill:#48ADD1;}
	.st16{fill:#F6D330;}
</style>
<title>habicat-and-tux</title>
<desc>Created with Sketch.</desc>
<g id="Habitat-SaaS-Onboarding_x2F_desktop">
	<g id="Habitat-5-mins-flow-V2---5" transform="translate(-590.000000, -481.000000)">
		<g id="habicat-and-tux" transform="translate(590.000000, 479.500000)">
			<g id="habicat" transform="translate(12.000000, 0.430000)">
				<path id="Shape" class="st0" d="M33.6,98.7L33.6,98.7c-2.2,0-4-1.8-4-3.9V80.1h7.9v14.6C37.6,96.9,35.8,98.7,33.6,98.7z"/>
				<rect id="Rectangle-3" x="29.6" y="86.1" class="st1" width="7.9" height="3"/>
				<path id="Path-3" class="st2" d="M59.2,8C51,9.1,48,18.7,48,23"/>
				<path id="Shape-Copy" class="st0" d="M61.3,98.7L61.3,98.7c-2.2,0-4-1.8-4-3.9V80.1h7.9v14.6C65.3,96.9,63.5,98.7,61.3,98.7z"/>
				<path id="Shape-Copy-3" class="st0" d="M2.8,68c-1.4-1.7-1.1-4.2,0.6-5.6l11.3-9.2l5,6.2L8.4,68.6C6.7,70,4.2,69.7,2.8,68z"/>
				<path id="Rectangle-6" class="st0" d="M20.8,21.8h65.7c3.3,0,6,2.7,6,6v52.6c0,3.3-2.7,6-6,6H20.8c-3.3,0-6-2.7-6-6V27.8
					C14.8,24.5,17.5,21.8,20.8,21.8z"/>
				<path id="Rectangle-6_1_" class="st3" d="M20.8,68.3h71.7v12.5l0,0c0,3.3-2.7,6-6,6H20.8l0,0c-3.3,0-6-2.7-6-6v-6.5l0,0
					C14.8,70.9,17.5,68.3,20.8,68.3z"/>
				<path id="Rectangle-6-Copy" class="st4" d="M18.8,24.7H74c2.2,0,4,1.8,4,4v53.2c0,2.2-1.8,4-4,4H18.8c-2.2,0-4-1.8-4-4V28.7
					C14.8,26.5,16.6,24.7,18.8,24.7z"/>
				<path id="Rectangle-6-Copy_1_" class="st5" d="M14.8,68.3H78v14.5l0,0c0,2.2-1.8,4-4,4H18.8l0,0c-2.2,0-4-1.8-4-4V68.3z"/>
				<ellipse id="Oval-Copy" class="st6" cx="31.4" cy="40.3" rx="1.7" ry="1.7"/>
				<ellipse id="Oval-Copy-2" class="st6" cx="61" cy="40.3" rx="1.7" ry="1.7"/>
				<path id="Shape-Copy-4" class="st6" d="M49.8,46.7l-0.9,0.8c-1.4,1.2-4,1.3-5.7,0.3c-0.2-0.1-0.3-0.2-0.5-0.3l-0.9-0.8
					c-0.3-0.3-0.3-0.6,0.1-0.9c0.2-0.1,0.4-0.1,0.6-0.1h6.7c0.5,0,0.9,0.3,0.9,0.6C50,46.5,50,46.6,49.8,46.7z"/>
				<path id="Line-6" class="st7" d="M16.8,48.5h3"/>
				<path id="Line-6-Copy-3" class="st7" d="M72.4,48.8h3"/>
				<path id="Line-6-Copy" class="st7" d="M16.8,44.5h3"/>
				<path id="Line-6-Copy-4" class="st7" d="M72.4,44.4h3"/>
				<path id="Line-6-Copy-2" class="st7" d="M16.8,53.4h3"/>
				<path id="Line-6-Copy-5" class="st7" d="M72.4,53.3h3"/>
				<g id="Group-2" transform="translate(53.389922, 13.850156)">
					<path id="Triangle-Copy-4" class="st0" d="M10.2,1.9l4.3,7.6H0.7L5,1.9l0,0C5.9,0.5,7.7,0,9.1,0.8C9.6,1,10,1.4,10.2,1.9z"/>
					<path id="Triangle-Copy-5" class="st8" d="M8.5,6.4l1.8,3.1H5l1.8-3.1l0,0C7,5.9,7.7,5.8,8.1,6C8.3,6.1,8.4,6.3,8.5,6.4z"/>
				</g>
				<g id="Group-2-Copy" transform="translate(24.700312, 13.850156)">
					<path id="Triangle-Copy-4_1_" class="st0" d="M10.2,1.9l4.3,7.6H0.7L5,1.9l0,0C5.9,0.5,7.7,0,9.1,0.8C9.6,1,10,1.4,10.2,1.9z"
						/>
					<path id="Triangle-Copy-5_1_" class="st8" d="M8.5,6.4l1.8,3.1H5l1.8-3.1l0,0C7,5.9,7.7,5.8,8.1,6C8.3,6.1,8.4,6.3,8.5,6.4z"/>
				</g>
				<path id="Path-2" class="st0" d="M92.5,71.3c8.5,0.2,12.4-4.6,15.1-10.8s9.6-2.3,6.6,3.9c-3,6.3-10.5,14.7-21.7,14.6
					C92.5,71.3,92.5,77.1,92.5,71.3z"/>
				<rect id="Rectangle-3-Copy" x="57.3" y="86.1" class="st1" width="7.9" height="3"/>
				<g id="Rectangle-3-Copy-2" transform="translate(91.972500, 57.379219)">
					<g id="Mask">
						<path id="path-1_1_" class="st0" d="M0.5,13.9C9,14.1,13,9.3,15.6,3.1s9.6-2.3,6.6,3.9S11.7,21.8,0.5,21.7
							C0.5,13.9,0.5,19.7,0.5,13.9z"/>
					</g>
					<defs>
						<filter id="Adobe_OpacityMaskFilter" filterUnits="userSpaceOnUse" x="0.5" y="13.4" width="3.4" height="8.4">
							<feColorMatrix  type="matrix" values="1 0 0 0 0  0 1 0 0 0  0 0 1 0 0  0 0 0 1 0"/>
						</filter>
					</defs>
					<mask maskUnits="userSpaceOnUse" x="0.5" y="13.4" width="3.4" height="8.4" id="mask-2_1_">
						<g class="st9">
							<path id="path-1_2_" class="st10" d="M0.5,13.9C9,14.1,13,9.3,15.6,3.1s9.6-2.3,6.6,3.9S11.7,21.8,0.5,21.7
								C0.5,13.9,0.5,19.7,0.5,13.9z"/>
						</g>
					</mask>
					<rect x="0.5" y="13.4" class="st11" width="3.4" height="8.4"/>
				</g>
				<g id="Group-28" transform="translate(50.916680, 0.000000)">
					<g id="Group-27">
						<g id="Group-25" transform="translate(3.215215, 2.225918)">
							<ellipse id="Oval-2" class="st12" cx="8.2" cy="5.2" rx="2.2" ry="1.5"/>
							<ellipse id="Oval-2_1_" class="st12" cx="5.2" cy="2.2" rx="1.5" ry="2.2"/>
							<ellipse id="Oval-2_2_" class="st12" cx="2.2" cy="5.2" rx="2.2" ry="1.5"/>
							<ellipse id="Oval-2_3_" class="st12" cx="5.2" cy="8.2" rx="1.5" ry="2.2"/>
						</g>
						
							<g id="Group-25_1_" transform="translate(8.409023, 7.852747) rotate(45.000000) translate(-8.409023, -7.852747) translate(2.909023, 2.352747)">
							
								<ellipse id="Oval-2_4_" transform="matrix(2.438782e-06 1 -1 2.438782e-06 13.3555 -2.9679)" class="st12" cx="8.2" cy="5.2" rx="1.5" ry="2.2"/>
							
								<ellipse id="Oval-2_5_" transform="matrix(2.535182e-06 1 -1 2.535182e-06 7.4197 -2.9679)" class="st12" cx="5.2" cy="2.2" rx="2.2" ry="1.5"/>
							
								<ellipse id="Oval-2_6_" transform="matrix(2.535182e-06 1 -1 2.535182e-06 7.4197 2.9679)" class="st12" cx="2.2" cy="5.2" rx="1.5" ry="2.2"/>
							
								<ellipse id="Oval-2_7_" transform="matrix(2.535182e-06 1 -1 2.535182e-06 13.3555 2.9679)" class="st12" cx="5.2" cy="8.2" rx="2.2" ry="1.5"/>
						</g>
					</g>
					<path id="Fill-4" class="st13" d="M8.4,8.9c-0.8,0-1.5-0.7-1.5-1.5s0.7-1.5,1.5-1.5c0.8,0,1.5,0.7,1.5,1.5S9.2,8.9,8.4,8.9"/>
				</g>
				<g id="Group" transform="translate(61.120054, 74.308940)">
					<path id="Shape_2_" class="st14" d="M0.6,6.9C0.3,6.9,0,6.7,0,6.4V0.6C0,0.3,0.3,0,0.6,0s0.6,0.3,0.6,0.6v5.7
						C1.2,6.7,0.9,6.9,0.6,6.9"/>
					<path id="Shape_3_" class="st14" d="M2.3,6.9C2,6.9,1.8,6.7,1.8,6.4V1.2c0-0.3,0.3-0.6,0.6-0.6s0.6,0.3,0.6,0.6v5.2
						C2.9,6.7,2.7,6.9,2.3,6.9"/>
					<path id="Shape_4_" class="st14" d="M4.1,6.9c-0.3,0-0.6-0.3-0.6-0.6V1.8c0-0.3,0.3-0.6,0.6-0.6s0.6,0.3,0.6,0.6v4.6
						C4.6,6.7,4.4,6.9,4.1,6.9"/>
					<path id="Shape_5_" class="st14" d="M5.8,6.9c-0.3,0-0.6-0.3-0.6-0.6v-4c0-0.3,0.3-0.6,0.6-0.6c0.3,0,0.6,0.3,0.6,0.6v4
						C6.4,6.7,6.1,6.9,5.8,6.9"/>
					<path id="Shape_6_" class="st14" d="M7.5,6.9c-0.3,0-0.6-0.3-0.6-0.6v-4c0-0.3,0.3-0.6,0.6-0.6S8.1,2,8.1,2.3v4
						C8.1,6.7,7.8,6.9,7.5,6.9"/>
				</g>
				<polygon id="Shape_7_" class="st15" points="69.2,62.3 69.2,77.8 61.2,75.5 61.2,62.3 				"/>
				<path id="Shape-Copy-6" class="st0" d="M62.3,68.4c-1.2-1.8-0.7-4.3,1.2-5.5L75.7,55l4.3,6.6l-12.2,7.9
					C66,70.8,63.5,70.3,62.3,68.4z"/>
				<g id="Group-Copy" transform="translate(27.620054, 48.475547)">
					<path id="Shape_8_" class="st15" d="M66.5,8.1v3.4c0,1.3-1,2.3-2.3,2.3H2.3c-1.3,0-2.3-1-2.3-2.3V8.1c0-1.3,1-2.3,2.3-2.3
						C1,5.8,0,4.7,0,3.5V2.3C0,1.1,1,0,2.3,0h61.9c1.3,0,2.3,1,2.3,2.3v1.1c0,1.3-1,2.3-2.3,2.3C65.4,5.8,66.5,6.8,66.5,8.1z"/>
				</g>
				<g id="Group-3" transform="translate(33.000000, 42.570000)">
					<path id="Rectangle-Copy-9" class="st10" d="M12.6,1.6L12.6,1.6L12.6,1.6c6.6,0,11.9,5.3,11.9,11.9v12.1H0.7V13.5l0,0
						C0.7,6.9,6.1,1.6,12.6,1.6z"/>
					<path id="Shape-Copy-11" class="st6" d="M14.6,1.3L14.1,2c-0.7,1.2-1.9,1.3-2.7,0.4c-0.1-0.1-0.2-0.2-0.2-0.4l-0.5-0.8
						c-0.2-0.3-0.1-0.6,0.1-0.9c0.1-0.1,0.2-0.1,0.3-0.1h3.2c0.2,0,0.4,0.3,0.4,0.6C14.7,1,14.6,1.2,14.6,1.3z"/>
				</g>
				<path id="Shape_9_" class="st14" d="M79.5,56.5V60c0,1.3-1,2.3-2.3,2.3H15.3c-1.3,0-2.3-1-2.3-2.3v-3.4c0-1.3,1-2.3,2.3-2.3
					c-1.3,0-2.3-1-2.3-2.3v-1.1c0-1.3,1-2.3,2.3-2.3h61.9c1.3,0,2.3,1,2.3,2.3v1.1c0,1.3-1,2.3-2.3,2.3
					C78.4,54.2,79.5,55.3,79.5,56.5z"/>
			</g>
			<g id="linux-tux" transform="translate(0.408203, 66.451611)">
				<polygon id="Shape_10_" class="st10" points="11.6,10 11.6,5.6 14.2,4.1 18.1,1.4 19.7,1.4 21.3,3.2 22.2,9.1 21,11.3 16,11.2 
									"/>
				<polygon id="Shape_11_" class="st10" points="6.4,22.6 7.8,18.8 10.4,15.7 11.7,13 12.3,12.1 21.9,10.6 23.8,13.6 29.2,26.5 
					27.3,28.8 22.5,36.9 21.3,37.2 12.4,37.4 6.2,30.5 5.2,24.8 				"/>
				<path id="Shape_12_" class="st16" d="M18.7,12.8c0,0-0.3-0.1,0.6-0.3c0.9-0.2,0.9-0.4,1.2-0.6c0.3-0.3,0.4-0.8,0.4-1.5
					c0-0.6,0.3-2.5,0.3-3C21,6.9,19.9,5,19.5,4.8C19,4.5,14,4.1,14,4.1l-1.5,1.2l-1.2,1.1l0.3,3.5c0,0-0.3,1.1-0.3,1.5
					c0.1,0.4,0.7,1,1,1.2c0.3,0.3,1.2,1.3,1.5,1.6c0.3,0.3,0.4,0.6,1.2,0.4c0.8-0.3,1.2-0.3,1.8-0.7C17.4,13.4,18.7,12.8,18.7,12.8
					L18.7,12.8z"/>
				<path id="Shape_13_" class="st10" d="M15.8,7.4c0.2-0.5,0.4-1.5,0.9-1.8c0.4-0.3,1.4-0.6,2-0.5c0.6,0.1,1.7,0.6,1.9,1.1
					c0.3,0.4,0.3,2.2,0.3,2.2l-0.1,1.5l-0.9-0.1L17.9,9h-0.3c0,0-0.3,0.1-1.3-0.4C15.3,8.2,15.6,7.9,15.8,7.4L15.8,7.4z M13.7,8.8
					c0,0,0.1-0.1,0.2-0.1c0.4-0.2,1.2-0.5,1.2-0.5S16,6,15.3,5.2C14.6,4.4,13,4.5,13,4.5s-1.7,1-1.6,1.3c0.1,0.4,0.1,1.7,0.2,1.9
					C11.7,8,11.9,10,11.9,10l0.6-0.3l0.8-0.6C13.3,9.1,13.5,9,13.7,8.8L13.7,8.8z"/>
				<path id="Shape_14_" class="st16" d="M25.9,28.1l0.9,0.1c0.1,0,0.3,0,0.4,0c0.7,0,1.3,0.1,1.9,0.2c0.4,0.1,1.1,0.3,1.2,0.9
					c0.1,0.8-0.2,1.7,0.5,2c0.7,0.5,2.2,1.5,2.2,1.5l0.4,0.8l-1.3,1.2l-6.6,4l-3-1v-2.4l0.1-3.3l-0.3-2.9l0.5-1.2l1.3-0.4L25.9,28.1
					L25.9,28.1z M6.9,26.6c-0.1-0.1-1.2,0.3-1.3,0.3C5,27,4.4,27.4,4.4,28c0,0.3,0,0.6-0.2,0.9c-0.1,0.2-0.4,0.5-0.4,0.6
					c-0.1,0.2-0.2,0.6-0.5,0.7c-0.2,0-1.4,0.1-1.4,0.1h-1L0.5,31l0.4,1.9l-0.1,1.5L0.4,36l1.1,0.6l8.2,2.2l1.9-0.6l1-2.4l-0.2-0.9
					l-0.9-1.8C11.4,33.1,7.5,27.5,6.9,26.6z"/>
				<path id="Shape_15_" d="M11.1,6.6c-0.1-4.5,1.6-6.4,5.2-6.5c3.6-0.1,5.9,1.8,6.3,4.3c0.5,2.5,0.2,5.8,1.1,7.5
					c0.9,1.7,1.5,3,3.1,5c1.6,2,2.6,4,3,6.4c0.5,2.4,0.7,3.6-0.5,4.8c-1.2,1.2-3.3,3.3-4.9,1c-0.8-1.2-0.9-2.6,0.5-2.9
					c0.9-0.2,1.5-0.1,2.1,0.2c0.6,0.3,0.8,0.2,0-0.4c-0.8-0.6-0.9,0-0.7-1c0.3-0.9,0.6-2.6-0.1-4.4c-0.3-0.8-1.5-3.1-2.5-3.7
					c-0.1-0.1-0.4-0.2-0.2,0.1c0.3,0.4,1.8,2.6,2.2,3.9c0.5,1.4,0.5,2.8,0.3,3.7c-0.2,0.9-0.7,1.2-1.2,1.2c-0.5,0-1,0.2-1-0.9
					c0-1.2,0.1-2.9-0.5-4.4c-0.6-1.5-1.4-2.5-1.5-3.1c-0.2-0.6-0.5-2.3-1.3-3.2c-0.8-1-1.1-1.6-0.7-2.7c0.4-1.1,0.1-1.4-0.7-1.6
					c-0.8-0.2-1.8-0.6-2.1-1.1c-0.3-0.5-0.1-1.6,0.5-1.8c0.6-0.3,1.6,0.1,1.6,0.9c0,0.8-0.3,1.1-0.2,1.3c0.1,0.2,0.6,0.4,0.9,0.1
					c0.3-0.3,0.3-1.2,0.1-2.1c-0.3-0.9-0.4-1.4-1.3-1.6c-1-0.2-1.4-0.1-1.8,0.5c-0.5,0.6-0.7,1.5-0.5,2.2c0.1,0.7-0.1,0.3-0.6,0.3
					c-0.5,0-0.3-0.1-0.8,0c-0.5,0-0.3-0.3-0.3-0.8c0-0.5-0.1-1.5-0.8-1.9C13.2,5.5,12,6,12,7.6c0,1.6,0.6,2.4,0.9,1.8
					c0.3-0.6,0.2-0.3-0.2-0.6c-0.3-0.3-0.6-1.3-0.2-1.7c0.4-0.3,0.8-0.3,1-0.1c0.2,0.2,0.6,0.9,0.5,1.3C14,8.8,14,8.8,13.6,9.1
					C13.2,9.4,13,9.7,12.5,10c-0.5,0.3-0.7,1.1-0.3,1.3c0.4,0.2,0.4,0.2,0.8,0.7c0.3,0.5,0.9,0.7,2.3,0.5c1.4-0.2,1.9-0.6,3-0.9
					c0.8-0.3,0.5-0.2,0.8-0.5c0.3-0.3,0.7,0.1,0.3,0.4c-0.4,0.3-1.3,0.5-1.9,0.8c-0.7,0.2-1.4,0.9-2.8,0.8c-1.4-0.1-0.4,0-0.9-0.1
					c-0.4,0-0.6,0-0.2,0.4c0.5,0.3,0.4,0.4,0.8,0.6c0.4,0.1,0.9,0.1,1.5-0.1c0.6-0.2,2.2-0.9,2.7-1.3c0.5-0.3,0.9,0.1,0.4,0.4
					c-0.5,0.3-0.6,0.2-1.1,0.5c-0.5,0.3-1.3,0.8-1.9,1.3c-0.6,0.5-0.7,0.6-1.4,0.6c-0.7,0-1.1-0.7-1.4-1c-0.3-0.3-0.3-0.5-0.6-0.9
					c-0.4-0.4-0.4-0.3-0.5,0.1c-0.1,0.4-0.6,1.5-1,2.2c-0.4,0.7-0.5,1.6-0.4,2.2c0.1,0.6-0.1,0.7-0.6,1.4c-0.5,0.7-1.3,2.9-1.4,3.5
					c-0.1,0.7-0.3,2.1-0.2,2.9c0.1,0.8-0.2,1-0.8,0.4c-0.6-0.6-0.8-1.2-0.8-2c0-0.7,0.1-1.2,0.2-1.5c0.1-0.3,0-0.4-0.2-0.1
					c-0.4,0.7-0.4,1.9-0.3,2.3c0.1,0.4,0.1,1.2,1.2,2.2c1.1,1,2.7,2.4,4,3.4c1.3,1,1.8,2.1-0.2,3c1.2,1.6,1.9,2.5,1.3,3.6
					c1.1-0.6,0.7-2.1,0.1-2.5c-0.5-0.4-0.2-0.7,0.2-0.4c0.5,0.3,0.6,0.9,2.4,0.9c1.8,0,3.7-0.2,4.8-1.8c1.1-1.6,1.3-0.2,1,0.7
					c-0.3,0.9-0.9,3,0.1,2.8c0.1-1.2,0.4-2.3,0.4-3.6c0-1.3,0.1-1.9,0-3.8c-0.1-1.8,0.7-2,1.5-2c0.8,0,0.6,0.5,0,0.5
					c-0.5,0-1.1,0.2-1.1,1.5c0,1.3,0,1.2,0.2,2.4c0.2,1.2,0.3,1.6,0.1,2.9c-0.2,1.3-0.4,2.1,0.5,2.9c0.9,0.8,2.2,0.6,2.9,0.1
					c0.7-0.5,2-1.7,3.2-2.1c1.2-0.4,2.4-0.7,3.1-1.3c0.7-0.7,0.5-1.1-0.2-1.5c-0.7-0.4-1.3-0.2-1.9-0.8c-0.5-0.6-0.8-1.9-0.6-2.6
					c0.2-0.7,0.4-0.4,0.4,0.1c0,0.5,0,1,0.5,1.6c0.5,0.6,1,0.9,1.7,1.4c0.8,0.5,1.3,1.3,0.3,2c-1,0.7-1.5,1.1-2.4,1.4
					c-0.8,0.3-2.2,1.1-3,1.9c-0.8,0.8-1.3,1.5-2.9,1.5c-1.6,0-2.3-0.4-2.8-1.3c-0.3-0.7-0.5-0.6-1.2-0.6c-0.8,0-3.3-0.1-5.2,0
					c-2,0-2.6,0.4-3.5,1.1c-0.9,0.7-1.2,1.3-2.9,0.7c-1.7-0.6-2.6-1.2-5-1.7c-2.5-0.5-1.2-0.3-2.7-0.6c-1.5-0.3-1.4-1-1.2-1.6
					c0.2-0.6,0.7-1.5,0.3-2.7c-0.4-1.2-0.3-2.5,0.9-2.5c1.2,0,2.2,0.2,2.7-1.3c0.5-1.5,0.6-0.3,0.5,0.1c-0.1,0.4-0.2,1.5-1.2,1.6
					c-1,0.2-1.2-0.1-1.9-0.1c-0.6,0-0.9,0.4-0.6,1.2c0.3,0.7,0.7,1.5,0.6,2.1c-0.1,0.6-0.1,0.9-0.6,1.4c-0.5,0.6-0.4,0.9,0.4,1.1
					c0.8,0.2,2.3,0.6,3.7,0.9c1.4,0.3,1.5,0.3,3.9,1c2.4,0.6,3.1-0.5,3.2-1.8c0.2-1.3-0.7-2.6-1.6-3.9c-0.9-1.3-1.8-2.8-2.9-4.1
					c-1.1-1.3-1.8-1.4-2.3-1.2c-0.6,0.3-0.7,0.2-0.7-0.5c0-0.8-0.1-1.2,0.5-2.4C5.8,23.1,6.3,21.9,7,20c0.7-1.9,1.2-2.2,2.4-3.8
					c1.1-1.6,0.6-1,1.4-2.1c0.8-1.1,0.6-0.9,0.5-2.6C11.2,9.8,11.1,8.8,11.1,6.6z M7.9,19.9c0.2,0.2,0.4-0.3,0.7-0.5
					c0.2-0.2,0.3-0.5,0.3-0.8c0-0.2-0.3-0.1-0.3,0c-0.2,0.2-0.1,0.4-0.2,0.6C8.2,19.5,7.8,19.7,7.9,19.9L7.9,19.9z M22,13.1
					c0.4,0.3,0.6,0.6,0.8,0.1c0.2-0.4,0.2-0.6-0.3-0.8c-0.5-0.2-0.7-0.4-0.9-0.6c-0.2-0.2-0.3,0.2-0.1,0.6
					C21.7,12.9,21.8,12.9,22,13.1L22,13.1z M14.6,9c-0.2,0-0.5,0-0.7,0.2c-0.1,0.1,0,0.2,0.1,0.3c0.1,0.1,0.2-0.1,0.3-0.2
					c0,0,0-0.1,0.1-0.1C14.4,9.1,14.5,9.1,14.6,9C14.7,9.1,14.7,9,14.6,9L14.6,9z M15.8,9.1c0.1,0.1,0.3,0.1,0.4,0.2
					c0.1,0,0.2,0.1,0.3,0C16.6,8.9,16.1,9,15.9,9C15.9,9,15.7,9,15.8,9.1z M18.2,7.5c0.2,0,0.5,0.4,0.6,0.9c0,0.1,0.2,0.1,0.2,0
					c0.1-0.2,0-0.4,0-0.6c0-0.2-0.3-0.4-0.4-0.4c-0.1-0.1-0.2-0.1-0.4-0.1C18.1,7.3,17.9,7.5,18.2,7.5L18.2,7.5z M13.3,7.4
					c-0.2,0-0.1,0.2-0.1,0.3c0.3,0.2,0.3,0.5,0.4,0.8c0,0.1,0.2,0.1,0.2,0c0.1-0.2,0-0.5-0.1-0.8C13.6,7.6,13.5,7.4,13.3,7.4
					C13.4,7.3,13.3,7.4,13.3,7.4z M19.6,2.3c-0.2-0.2-0.5-0.2-0.6,0c-0.1,0.2-0.1,0.5-0.1,0.7c0,0.1-0.1,0.1-0.2,0.2
					c-0.1,0.1-0.1,0.2,0,0.2c0.2,0.2,0.5-0.2,0.8-0.3c0.2-0.1,0.5,0,0.7-0.1c0.1,0,0.1-0.1,0-0.2C20,2.6,19.8,2.5,19.6,2.3z"/>
				<path id="Shape_16_" d="M25.5,28.4c0-0.1,0.1-0.4,0.2-0.4c0,0,0.1,0,0.1,0c0,0.1-0.1,0.6,0,0.7c0,0.1,0.2,0.1,0.3,0.1
					c0.2-0.1,0.4-0.3,0.3-0.4c0,0,0,0,0,0c0,0-0.1,0.1-0.2,0.2c-0.1,0-0.1,0-0.1-0.1c0-0.1,0.1-0.6,0-0.7c0-0.1-0.1-0.1-0.3-0.1
					C25.6,27.8,25.5,28.2,25.5,28.4L25.5,28.4l0-0.5L25.2,28l0,1.1l0.3-0.1C25.4,28.8,25.4,28.5,25.5,28.4L25.5,28.4z M26.8,28.5
					c0.2-0.1,0.4-0.4,0.3-0.4c0,0,0,0,0,0c0,0-0.1,0.2-0.2,0.2c-0.1,0-0.1,0-0.1,0c0-0.1,0-0.2,0-0.3l0-0.5l0.3-0.1l0-0.1l-0.3,0.1
					l0-0.5l-0.3,0.2l0,1c0,0.1,0,0.2,0,0.3C26.5,28.6,26.7,28.6,26.8,28.5L26.8,28.5z"/>
			</g>
		</g>
	</g>
</g>
</svg>
