<?xml version="1.0" encoding="UTF-8"?>
<svg width="50px" height="92px" viewBox="0 0 50 92" version="1.1" xmlns="http://www.w3.org/2000/svg" xmlns:xlink="http://www.w3.org/1999/xlink">
    <!-- Generator: Sketch 46.2 (44496) - http://www.bohemiancoding.com/sketch -->
    <title>box2-graph</title>
    <desc>Created with Sketch.</desc>
    <defs>
        <polygon id="path-1" points="49.2086271 7.43079243 49.2086271 0.0678880448 0.00353405916 0.0678880448 0.00353405916 7.43079243"></polygon>
        <polygon id="path-3" points="0.00183964724 43.3742712 49.2070779 43.3742712 49.2070779 0.255567054 0.00183964724 0.255567054"></polygon>
    </defs>
    <g id="Habitat-SaaS-Onboarding/desktop" stroke="none" stroke-width="1" fill="none" fill-rule="evenodd">
        <g id="Habitat-5-mins-flow-V2---cover" transform="translate(-803.000000, -393.000000)">
            <g id="overview-box-copy" transform="translate(530.000000, 330.000000)">
                <g id="box2-graph" transform="translate(273.000000, 63.500000)">
                    <path d="M46.3333411,46.8093066 L46.3333411,47.1251103 C46.3333411,47.8532132 45.2281004,48.4438831 43.8769279,48.4438831 L5.12427481,48.4438831 C3.75954703,48.4438831 2.66834575,47.8532132 2.66834575,47.1251103 L2.66834575,46.8093066 L46.3333411,46.8093066 Z" id="Fill-4" fill="#E2F0F7"></path>
                    <path d="M46.3333411,46.27361 L46.3333411,47.1250128 C46.3333411,47.8531158 45.2281004,48.4437856 43.8769279,48.4437856 L5.12427481,48.4437856 C3.75954703,48.4437856 2.66834575,47.8531158 2.66834575,47.1250128 L2.66834575,46.27361 C2.66834575,45.5455071 3.75954703,44.9548372 5.12427481,44.9548372 L43.8769279,44.9548372 C45.2281004,44.9548372 46.3333411,45.5455071 46.3333411,46.27361" id="Fill-6" fill="#F3FCFF"></path>
                    <path d="M46.3333411,46.27361 L46.3333411,47.1250128 C46.3333411,47.8531158 45.2281004,48.4437856 43.8769279,48.4437856 L5.12427481,48.4437856 C3.75954703,48.4437856 2.66834575,47.8531158 2.66834575,47.1250128 L2.66834575,46.27361 C2.66834575,45.5455071 3.75954703,44.9548372 5.12427481,44.9548372 L43.8769279,44.9548372 C45.2281004,44.9548372 46.3333411,45.5455071 46.3333411,46.27361" id="Fill-8" fill="#009AD7"></path>
                    <g id="Group-12" transform="translate(0.030727, 43.142280)">
                        <mask id="mask-2" fill="white">
                            <use xlink:href="#path-1"></use>
                        </mask>
                        <g id="Clip-11"></g>
                        <path d="M46.3026138,3.98278154 C46.3026138,4.71088447 45.1973731,5.30155432 43.8462006,5.30155432 L5.09354749,5.30155432 C3.72881971,5.30155432 2.63761843,4.71088447 2.63761843,3.98278154 L2.63761843,3.13137871 C2.63761843,2.40327577 3.72881971,1.81260592 5.09354749,1.81260592 L43.8462006,1.81260592 C45.1973731,1.81260592 46.3026138,2.40327577 46.3026138,3.13137871 L46.3026138,3.98278154 Z M46.4386509,0.0678880448 L2.77317138,0.0678880448 C1.23174065,0.0678880448 0.00353405916,1.31794429 0.00353405916,2.85651254 L0.00353405916,4.64216793 C0.00353405916,6.18073618 1.23174065,7.43079243 2.77317138,7.43079243 L46.4386509,7.43079243 C47.9670104,7.43079243 49.2087723,6.18073618 49.2087723,4.64216793 L49.2087723,2.85651254 C49.2087723,1.31794429 47.9670104,0.0678880448 46.4386509,0.0678880448 L46.4386509,0.0678880448 Z" id="Fill-10" fill="#35CCFF" mask="url(#mask-2)"></path>
                    </g>
                    <g id="Group-8-Copy-2" transform="translate(2.542373, 0.769474)">
                        <g id="Asset-268-Copy-7" transform="translate(0.701219, 0.000000)">
                            <path d="M42.7511332,32.924835 L42.7511332,65.4327933 C42.7511332,68.0537471 40.6288234,70.1784499 38.0108216,70.1784499 L4.74451773,70.1784499 C3.48658032,70.1795674 2.27978267,69.6800734 1.38989188,68.789969 C0.500001097,67.8998646 -4.95200938e-07,66.6921496 0,65.4327933 L0,32.924835 L2.28813621,32.924835 L2.28813621,33.1985419 C2.28813621,33.8259623 3.23451608,34.3396891 4.42064551,34.3396891 L38.0697074,34.3396891 C39.2432185,34.3396891 40.2022167,33.8301732 40.2022167,33.1985419 L40.2022167,32.924835 L42.7511332,32.924835 Z" id="Shape" fill="#E2F0F7" fill-rule="nonzero"></path>
                            <path d="M40.2274535,32.924835 L40.2274535,33.1985419 C40.2274535,33.8259623 39.2684553,34.3396891 38.0949442,34.3396891 L4.44588231,34.3396891 C3.25975287,34.3396891 2.31337301,33.8301732 2.31337301,33.1985419 L2.31337301,32.924835 L40.2274535,32.924835 Z" id="Shape" fill="#E2F0F7" fill-rule="nonzero"></path>
                            <path d="M40.2274535,32.4616387 L40.2274535,33.1985419 C40.2274535,33.8259623 39.2684553,34.3396891 38.0949442,34.3396891 L4.44588231,34.3396891 C3.25975287,34.3396891 2.31337301,33.8301732 2.31337301,33.1985419 L2.31337301,32.4616387 C2.31337301,31.8342183 3.25975287,31.3204915 4.44588231,31.3204915 L38.0949442,31.3204915 C39.2684553,31.3247023 40.2274535,31.8342183 40.2274535,32.4616387 Z" id="Shape" fill="#F3FCFF" fill-rule="nonzero"></path>
                            <path d="M40.2274535,32.4616387 L40.2274535,33.1985419 C40.2274535,33.8259623 39.2684553,34.3396891 38.0949442,34.3396891 L4.44588231,34.3396891 C3.25975287,34.3396891 2.31337301,33.8301732 2.31337301,33.1985419 L2.31337301,32.4616387 C2.31337301,31.8342183 3.25975287,31.3204915 4.44588231,31.3204915 L38.0949442,31.3204915 C39.2684553,31.3247023 40.2274535,31.8342183 40.2274535,32.4616387 Z" id="Shape" fill="#E2F0F7" fill-rule="nonzero"></path>
                            <path d="M40.3452252,29.8172089 L2.41011406,29.8172089 C1.7709573,29.8149667 1.1572717,30.0678762 0.704922303,30.5199453 C0.252572902,30.9720144 -0.00112329493,31.5859493 -1.86783894e-16,32.2258297 L-1.86783894e-16,33.7670101 C-0.00111907158,34.4061588 0.252000408,35.0194521 0.703438479,35.4713992 C1.15487655,35.9233463 1.76747906,36.1767512 2.40590793,36.1756308 L40.3452252,36.1756308 C41.6730113,36.173313 42.7488179,35.0962933 42.7511332,33.7670101 L42.7511332,32.2258297 C42.7488179,30.8965464 41.6730113,29.8195268 40.3452252,29.8172089 L40.3452252,29.8172089 Z M40.2274535,33.1859093 C40.2274535,33.8133297 39.2684553,34.3270565 38.0949442,34.3270565 L4.44588231,34.3270565 C3.25975287,34.3270565 2.31337301,33.8175406 2.31337301,33.1859093 L2.31337301,32.4616387 C2.31337301,31.8342183 3.25975287,31.3204915 4.44588231,31.3204915 L38.0949442,31.3204915 C39.2684553,31.3204915 40.2274535,31.8300074 40.2274535,32.4616387 L40.2274535,33.1859093 Z" id="Shape" fill="#F3FCFF" fill-rule="nonzero"></path>
                            <rect id="Rectangle-path" fill="#847264" fill-rule="nonzero" x="2.90643772" y="45.9111748" width="36.9424638" height="12.3841846"></rect>
                            <path d="M2.90643772,58.2953595 L39.8446954,58.2953595 L39.8446954,66.6707907 C39.8446954,67.1359112 39.4680655,67.5129658 39.0034689,67.5129658 L3.74766427,67.5129658 C3.28306768,67.5129658 2.90643772,67.1359112 2.90643772,66.6707907 L2.90643772,58.2953595 Z" id="Shape" fill="#685A50" fill-rule="nonzero"></path>
                            <path d="M16.8207723,27.7959887 L16.8119126,27.7959887" id="Shape" stroke="#5C6670" stroke-width="1.27118644" stroke-linecap="round" stroke-linejoin="round"></path>
                            <rect id="Rectangle-path" fill="#9B8676" fill-rule="nonzero" x="2.90643772" y="42.6435355" width="36.9424638" height="6.53527867" rx="2.54237288"></rect>
                            <path d="M34.7889239,45.8269573 L31.1253823,45.8269573 C31.1906784,44.8634452 31.9904106,44.11529 32.95505,44.11529 C33.9196894,44.11529 34.7194216,44.8634452 34.7847178,45.8269573 L34.7889239,45.8269573 Z" id="Shape" fill="#B3B3B3" fill-rule="nonzero"></path>
                            <path d="M34.1874469,45.8269573 L30.5281114,45.8269573 C30.5934076,44.8634452 31.3931398,44.11529 32.3577792,44.11529 C33.3224185,44.11529 34.1221508,44.8634452 34.1874469,45.8269573 Z" id="Shape" fill="#C3C6C8" fill-rule="nonzero"></path>
                            <path d="M12.3029383,45.8269573 L8.64360278,45.8269573 C8.68907316,44.8582649 9.50525802,44.1069038 10.4732705,44.1426072 C11.441283,44.1069038 12.2574679,44.8582649 12.3029383,45.8269573 Z" id="Shape" fill="#B3B3B3" fill-rule="nonzero"></path>
                            <path d="M11.7056674,45.8269573 L8.04633193,45.8269573 C8.09180231,44.8582649 8.90798717,44.1069038 9.87599967,44.1426072 C10.8440122,44.1069038 11.660197,44.8582649 11.7056674,45.8269573 Z" id="Shape" fill="#C3C6C8" fill-rule="nonzero"></path>
                            <ellipse id="Oval" fill="#9B8676" fill-rule="nonzero" cx="28.2063261" cy="64.6285161" rx="1.15248037" ry="1.15377987"></ellipse>
                            <ellipse id="Oval" fill="#9B8676" fill-rule="nonzero" cx="15.3187354" cy="64.6285161" rx="1.15248037" ry="1.15377987"></ellipse>
                            <ellipse id="Oval" fill="#847264" fill-rule="nonzero" cx="22.7720026" cy="61.6472163" rx="1.15248037" ry="1.15377987"></ellipse>
                            <ellipse id="Oval" fill="#9B8676" fill-rule="nonzero" cx="34.3598983" cy="61.9840864" rx="1.15248037" ry="1.15377987"></ellipse>
                            <ellipse id="Oval" fill="#847264" fill-rule="nonzero" cx="7.73507811" cy="61.4872031" rx="1.15248037" ry="1.15377987"></ellipse>
                            <path d="M17.9475684,45.940651 L25.5816993,45.940651 C25.5816993,45.1499462 24.9414284,44.5089533 24.1516142,44.5089533 C24.0086052,44.5114332 23.8667947,44.5355682 23.7310009,44.5805382 C23.2864019,43.9370213 22.5546151,43.5529653 21.7730461,43.5529653 C20.9914772,43.5529653 20.2596904,43.9370213 19.8150913,44.5805382 C19.6792975,44.5355682 19.5374871,44.5114332 19.3944781,44.5089533 C19.0122892,44.5044516 18.6442043,44.6533011 18.3723614,44.9222859 C18.1005185,45.1912708 17.9475419,45.5580047 17.9475684,45.940651 Z" id="Shape" fill="#847264" fill-rule="nonzero"></path>
                            <path d="M21.834035,0 C15.3145293,0 11.8360575,20.3553718 11.8360575,24.3135947 C11.9476922,29.7627077 16.3920178,34.1217251 21.8361381,34.1217251 C27.2802584,34.1217251 31.7245841,29.7627077 31.8362187,24.3135947 C31.8362187,20.3553718 28.3535408,0 21.834035,0 Z" id="Shape" fill="#BFEC80" fill-rule="nonzero"></path>
                            <path d="M16.1221068,24.3135947 C16.1221068,20.8143573 18.8434747,4.52248021 23.9791627,0.774801079 C23.3658276,0.292536466 22.6136513,0.0208570631 21.834035,0 C15.3145293,-4.03453437e-16 11.8360575,20.3553718 11.8360575,24.3135947 C11.824404,27.3498702 13.1923605,30.2267404 15.5537597,32.1320793 C17.9151589,34.0374181 21.0138018,34.7645065 23.9749566,34.108091 C19.3859967,33.0923801 16.1198529,29.01867 16.1221068,24.3135947 Z" id="Shape" fill="#AAE655" fill-rule="nonzero"></path>
                            <path d="M25.7036772,23.3029846 C25.1455971,22.7462052 24.2428135,22.7462052 23.6847335,23.3029846 L23.2641202,23.7240722 L23.2641202,21.4544103 C23.2229354,20.6949823 22.595828,20.1003288 21.8361381,20.1003288 C21.0764483,20.1003288 20.4493409,20.6949823 20.408156,21.4544103 L20.408156,26.5832566 L19.9875428,26.1621691 C19.4215981,25.658643 18.5617106,25.6839843 18.0263317,26.2199668 C17.4909528,26.7559494 17.4656401,27.6168064 17.9685991,28.1833893 L20.408156,30.625697 L20.408156,44.3363074 L23.2641202,44.3363074 L23.2641202,27.7665126 L25.7036772,25.3242048 C26.2598295,24.7654955 26.2598295,23.861694 25.7036772,23.3029846 L25.7036772,23.3029846 Z" id="Shape" fill="#759684" fill-rule="nonzero"></path>
                            <g id="Group" opacity="0.5" transform="translate(0.000000, 32.844828)" fill-rule="nonzero" fill="#F3FCFF">
                                <path d="M42.7511332,0.0800066332 L42.7511332,0.92218172 C42.7488179,2.25146496 41.6730113,3.32848462 40.3452252,3.33080247 L2.40590793,3.33080247 C1.76747906,3.3319228 1.15487655,3.07851791 0.703438479,2.62657081 C0.252000408,2.17462372 -0.00111907158,1.56133045 0,0.92218172 L0,0.0800066332 L2.28813621,0.0800066332 L2.28813621,0.353713536 C2.28813621,0.981133976 3.23451608,1.49486078 4.42064551,1.49486078 L38.0697074,1.49486078 C39.2432185,1.49486078 40.2022167,0.985344851 40.2022167,0.353713536 L40.2022167,0.0800066332 L42.7511332,0.0800066332 Z" id="Shape"></path>
                            </g>
                        </g>
                    </g>
                    <g id="Group-3" transform="translate(0.030727, 46.903954)">
                        <mask id="mask-4" fill="white">
                            <use xlink:href="#path-3"></use>
                        </mask>
                        <g id="Clip-2"></g>
                        <path d="M49.2070779,0.255567054 L49.2070779,37.8795796 C49.2070779,40.9152912 46.7647041,43.3744662 43.749135,43.3744662 L5.46026664,43.3744662 C2.44469753,43.3744662 0.00183964724,40.9152912 0.00183964724,37.8795796 L0.00183964724,0.255567054 L2.63592402,0.255567054 L2.63592402,0.571370737 C2.63592402,1.29947367 3.7271253,1.89014352 5.09136896,1.89014352 L43.8440221,1.89014352 C45.1951946,1.89014352 46.3009194,1.29947367 46.3009194,0.571370737 L46.3009194,0.255567054 L49.2070779,0.255567054 Z" id="Fill-1" fill="#009AD7" mask="url(#mask-4)"></path>
                    </g>
                    <path d="M10.5998396,85.3580238 L9.13344708,85.3580238 C8.20442522,85.3580238 7.45113809,84.599705 7.45113809,83.6639904 L7.45113809,56.5448365 C7.45113809,55.6096093 8.20442522,54.8512905 9.13344708,54.8512905 L10.5998396,54.8512905 C11.5288614,54.8512905 12.2826327,55.6096093 12.2826327,56.5448365 L12.2826327,83.6639904 C12.2826327,84.599705 11.5288614,85.3580238 10.5998396,85.3580238" id="Fill-22" fill="#35CCFF"></path>
                    <path d="M20.4677558,85.3580238 L19.0013633,85.3580238 C18.0718573,85.3580238 17.3185702,84.599705 17.3185702,83.6639904 L17.3185702,56.5448365 C17.3185702,55.6096093 18.0718573,54.8512905 19.0013633,54.8512905 L20.4677558,54.8512905 C21.3967776,54.8512905 22.1505489,55.6096093 22.1505489,56.5448365 L22.1505489,83.6639904 C22.1505489,84.599705 21.3967776,85.3580238 20.4677558,85.3580238" id="Fill-24" fill="#35CCFF"></path>
                    <path d="M30.3040106,85.3580238 L28.8376181,85.3580238 C27.9085963,85.3580238 27.1553092,84.599705 27.1553092,83.6639904 L27.1553092,56.5448365 C27.1553092,55.6096093 27.9085963,54.8512905 28.8376181,54.8512905 L30.3040106,54.8512905 C31.2335166,54.8512905 31.9868037,55.6096093 31.9868037,56.5448365 L31.9868037,83.6639904 C31.9868037,84.599705 31.2335166,85.3580238 30.3040106,85.3580238" id="Fill-26" fill="#35CCFF"></path>
                    <path d="M40.1405076,85.3580238 L38.6741151,85.3580238 C37.7450932,85.3580238 36.9918061,84.599705 36.9918061,83.6639904 L36.9918061,56.5448365 C36.9918061,55.6096093 37.7450932,54.8512905 38.6741151,54.8512905 L40.1405076,54.8512905 C41.0695294,54.8512905 41.8233007,55.6096093 41.8233007,56.5448365 L41.8233007,83.6639904 C41.8233007,84.599705 41.0695294,85.3580238 40.1405076,85.3580238" id="Fill-28" fill="#35CCFF"></path>
                    <g id="Group-21" transform="translate(0.030727, 46.553740)" fill="#35CCFF">
                        <path d="M49.2051898,0.255567054 L49.2051898,1.23075713 C49.2051898,2.76932538 47.963428,4.01938163 46.4350684,4.01938163 L2.77007303,4.01938163 C1.22767406,4.01938163 -4.84117693e-05,2.76932538 -4.84117693e-05,1.23075713 L-4.84117693e-05,0.255567054 L2.63403596,0.255567054 L2.63403596,0.571370737 C2.63403596,1.29947367 3.72523724,1.89014352 5.0894809,1.89014352 L43.842134,1.89014352 C45.1933065,1.89014352 46.2990313,1.29947367 46.2990313,0.571370737 L46.2990313,0.255567054 L49.2051898,0.255567054 Z" id="Fill-19"></path>
                    </g>
                </g>
            </g>
        </g>
    </g>
</svg>