<svg xmlns="http://www.w3.org/2000/svg" xmlns:xlink="http://www.w3.org/1999/xlink" width="155" height="78" viewBox="0 0 155 78">
  <defs>
    <polygon id="box3-graph-a" points="17.368 2.606 17.368 .024 .001 .024 .001 2.606"/>
    <polygon id="box3-graph-c" points=".001 15.209 17.367 15.209 17.367 .09 .001 .09"/>
    <polygon id="box3-graph-e" points="17.368 2.606 17.368 .024 .001 .024 .001 2.606"/>
    <polygon id="box3-graph-g" points=".001 15.209 17.367 15.209 17.367 .09 .001 .09"/>
    <polygon id="box3-graph-i" points="17.368 2.606 17.368 .024 .001 .024 .001 2.606"/>
    <polygon id="box3-graph-k" points=".001 15.209 17.367 15.209 17.367 .09 .001 .09"/>
    <polygon id="box3-graph-m" points="17.368 2.606 17.368 .024 .001 .024 .001 2.606"/>
    <polygon id="box3-graph-o" points=".001 15.209 17.367 15.209 17.367 .09 .001 .09"/>
    <polygon id="box3-graph-q" points="17.368 2.606 17.368 .024 .001 .024 .001 2.606"/>
    <polygon id="box3-graph-s" points=".001 15.209 17.367 15.209 17.367 .09 .001 .09"/>
  </defs>
  <g fill="none" fill-rule="evenodd" transform="translate(0 -.5)">
    <g transform="translate(61)">
      <path fill="#748496" d="M91.2386557,37.8569616 C89.1374823,36.4512901 84.3099173,35.9360809 80.5940552,36.636472 C80.1155157,33.1369611 78.1646881,30.102544 74.6175065,27.3602622 L72.5780605,25.9998167 L71.2163926,28.0410962 C69.4745822,30.6690908 68.6042882,34.3091689 68.8897006,37.8001236 C69.0180445,39.0279471 69.4214111,41.2244617 70.684682,43.1557321 C69.4220223,43.8341215 66.9260386,44.7691986 63.636156,44.706249 L0.359546332,44.706249 L0.23548054,45.4347535 C-0.359179635,48.9434319 -0.346345243,59.8905573 6.76085227,68.3050294 C12.1641314,74.7002237 20.2644664,77.943658 30.8363387,77.943658 C53.7548963,77.943658 70.710962,67.3937875 78.6511727,48.2167608 C81.7742081,48.2784881 88.496985,48.2344845 91.9506589,41.6363846 C92.0404996,41.4848165 92.2470722,41.0887838 92.8508998,39.8389585 L93.1815382,39.1532352 L91.2386557,37.8569616 Z"/>
      <g transform="translate(6.4 .861)">
        <g transform="translate(26.6 .639)">
          <path fill="#E2F0F7" d="M16.3529439,14.5045621 L16.3529439,14.6152984 C16.3529439,14.8706072 15.962859,15.0777252 15.4859746,15.0777252 L1.80856758,15.0777252 C1.32689895,15.0777252 0.941769088,14.8706072 0.941769088,14.6152984 L0.941769088,14.5045621 L16.3529439,14.5045621 Z"/>
          <path fill="#F3FCFF" d="M16.3529439,14.3167204 L16.3529439,14.6152642 C16.3529439,14.8705731 15.962859,15.0776911 15.4859746,15.0776911 L1.80856758,15.0776911 C1.32689895,15.0776911 0.941769088,14.8705731 0.941769088,14.6152642 L0.941769088,14.3167204 C0.941769088,14.0614116 1.32689895,13.8542936 1.80856758,13.8542936 L15.4859746,13.8542936 C15.962859,13.8542936 16.3529439,14.0614116 16.3529439,14.3167204"/>
          <path fill="#009AD7" d="M16.3529439,14.3167204 L16.3529439,14.6152642 C16.3529439,14.8705731 15.962859,15.0776911 15.4859746,15.0776911 L1.80856758,15.0776911 C1.32689895,15.0776911 0.941769088,14.8705731 0.941769088,14.6152642 L0.941769088,14.3167204 C0.941769088,14.0614116 1.32689895,13.8542936 1.80856758,13.8542936 L15.4859746,13.8542936 C15.962859,13.8542936 16.3529439,14.0614116 16.3529439,14.3167204"/>
          <g transform="translate(.01 13.219)">
            <mask id="box3-graph-b" fill="#fff">
              <use xlink:href="#box3-graph-a"/>
            </mask>
            <path fill="#35CCFF" d="M16.342099,1.39655976 C16.342099,1.65186858 15.952014,1.85898658 15.4751296,1.85898658 L1.79772264,1.85898658 C1.31605402,1.85898658 0.930924152,1.65186858 0.930924152,1.39655976 L0.930924152,1.09801591 C0.930924152,0.842707089 1.31605402,0.635589089 1.79772264,0.635589089 L15.4751296,0.635589089 C15.952014,0.635589089 16.342099,0.842707089 16.342099,1.09801591 L16.342099,1.39655976 Z M16.3901121,0.0238048988 L0.978766371,0.0238048988 C0.434731993,0.0238048988 0.001247315,0.462136309 0.001247315,1.00163427 L0.001247315,1.62777317 C0.001247315,2.16727113 0.434731993,2.60560254 0.978766371,2.60560254 L16.3901121,2.60560254 C16.9295331,2.60560254 17.367802,2.16727113 17.367802,1.62777317 L17.367802,1.00163427 C17.367802,0.462136309 16.9295331,0.0238048988 16.3901121,0.0238048988 L16.3901121,0.0238048988 Z" mask="url(#box3-graph-b)"/>
          </g>
          <g fill-rule="nonzero" transform="translate(.306)">
            <path fill="#685A50" d="M0.395113879,25.7185409 L16.4964057,25.7185409 L16.4964057,29.4135841 C16.4964057,29.6187843 16.3322337,29.785132 16.1297172,29.785132 L0.761802374,29.785132 C0.55928591,29.785132 0.395113879,29.6187843 0.395113879,29.4135841 L0.395113879,25.7185409 Z"/>
            <ellipse cx="11.423" cy="28.513" fill="#9B8676" rx="1" ry="1"/>
            <ellipse cx="5.806" cy="28.513" fill="#9B8676" rx="1" ry="1"/>
            <ellipse cx="9.054" cy="27.197" fill="#847264" rx="1" ry="1"/>
            <ellipse cx="14.106" cy="27.346" fill="#9B8676" rx="1" ry="1"/>
            <ellipse cx="2.5" cy="27.127" fill="#847264" rx="1" ry="1"/>
            <path fill="#BFEC80" d="M8.64560502,0 C5.80376918,0 4.28751226,8.9803111 4.28751226,10.7265859 C4.33617351,13.1306063 6.27344365,15.0537022 8.64652174,15.0537022 C11.0195998,15.0537022 12.95687,13.1306063 13.0055312,10.7265859 C13.0055312,8.9803111 11.4874409,0 8.64560502,0 Z"/>
            <path fill="#AAE655" d="M6.15579014,10.7265859 C6.15579014,9.18280467 7.34202742,1.99521186 9.58066068,0.341824006 C9.31330947,0.129060206 8.98543775,0.0092016455 8.64560502,0 C5.80376918,-1.77994163e-16 4.28751226,8.9803111 4.28751226,10.7265859 C4.2824325,12.0661192 4.87872124,13.3353267 5.9080491,14.1759173 C6.93737697,15.016508 8.28806743,15.3372823 9.57882724,15.0476872 C7.57851139,14.5995795 6.15480766,12.8023544 6.15579014,10.7265859 Z"/>
            <path fill="#759684" d="M10.3323721,10.2807285 C10.0891064,10.0350905 9.69558537,10.0350905 9.45231971,10.2807285 L9.26897546,10.4665024 L9.26897546,9.46518103 C9.25102311,9.13013926 8.9776686,8.86779213 8.64652174,8.86779213 C8.31537488,8.86779213 8.04202038,9.13013926 8.02406802,9.46518103 L8.02406802,11.7279073 L7.84072377,11.5421334 C7.59402993,11.3199896 7.21920719,11.3311695 6.98583691,11.5676324 C6.75246662,11.8040953 6.74143287,12.1838852 6.96067139,12.4338482 L8.02406802,13.5113369 L8.02406802,19.5601356 L9.26897546,19.5601356 L9.26897546,12.249932 L10.3323721,11.1724433 C10.5747975,10.9259539 10.5747975,10.5272179 10.3323721,10.2807285 L10.3323721,10.2807285 Z"/>
          </g>
          <g transform="translate(.01 14.538)">
            <mask id="box3-graph-d" fill="#fff">
              <use xlink:href="#box3-graph-c"/>
            </mask>
            <path fill="#009AD7" d="M17.367204,0.0896144217 L17.367204,13.28245 C17.367204,14.3469203 16.5051897,15.2092284 15.4408712,15.2092284 L1.92715293,15.2092284 C0.862834422,15.2092284 0.00064928726,14.3469203 0.00064928726,13.28245 L0.00064928726,0.0896144217 L0.930326124,0.0896144217 L0.930326124,0.200350778 C0.930326124,0.455659599 1.31545599,0.662777599 1.79695375,0.662777599 L15.4743607,0.662777599 C15.9512451,0.662777599 16.341501,0.455659599 16.341501,0.200350778 L16.341501,0.0896144217 L17.367204,0.0896144217 Z" mask="url(#box3-graph-d)"/>
          </g>
          <path fill="#35CCFF" d="M3.74111985 28.0216447L3.22356956 28.0216447C2.89567949 28.0216447 2.62981344 27.7557407 2.62981344 27.427633L2.62981344 17.9183193C2.62981344 17.5903825 2.89567949 17.3244785 3.22356956 17.3244785L3.74111985 17.3244785C4.06900991 17.3244785 4.33504683 17.5903825 4.33504683 17.9183193L4.33504683 27.427633C4.33504683 27.7557407 4.06900991 28.0216447 3.74111985 28.0216447M7.2239138 28.0216447L6.7063635 28.0216447C6.37830257 28.0216447 6.11243653 27.7557407 6.11243653 27.427633L6.11243653 17.9183193C6.11243653 17.5903825 6.37830257 17.3244785 6.7063635 17.3244785L7.2239138 17.3244785C7.55180386 17.3244785 7.81784077 17.5903825 7.81784077 17.9183193L7.81784077 27.427633C7.81784077 27.7557407 7.55180386 28.0216447 7.2239138 28.0216447M10.6955332 28.0216447L10.1779829 28.0216447C9.85009281 28.0216447 9.58422676 27.7557407 9.58422676 27.427633L9.58422676 17.9183193C9.58422676 17.5903825 9.85009281 17.3244785 10.1779829 17.3244785L10.6955332 17.3244785C11.0235941 17.3244785 11.2894601 17.5903825 11.2894601 17.9183193L11.2894601 27.427633C11.2894601 27.7557407 11.0235941 28.0216447 10.6955332 28.0216447M14.167238 28.0216447L13.6496877 28.0216447C13.3217976 28.0216447 13.0559316 27.7557407 13.0559316 27.427633L13.0559316 17.9183193C13.0559316 17.5903825 13.3217976 17.3244785 13.6496877 17.3244785L14.167238 17.3244785C14.495128 17.3244785 14.7611649 17.5903825 14.7611649 17.9183193L14.7611649 27.427633C14.7611649 27.7557407 14.495128 28.0216447 14.167238 28.0216447"/>
          <path fill="#35CCFF" d="M17.3665376,0.0896144217 L17.3665376,0.431564189 C17.3665376,0.971062147 16.9282687,1.40939356 16.3888477,1.40939356 L0.977672834,1.40939356 C0.433296727,1.40939356 -1.70865068e-05,0.971062147 -1.70865068e-05,0.431564189 L-1.70865068e-05,0.0896144217 L0.92965975,0.0896144217 L0.92965975,0.200350778 C0.92965975,0.455659599 1.31478961,0.662777599 1.79628738,0.662777599 L15.4736944,0.662777599 C15.9505788,0.662777599 16.3408346,0.455659599 16.3408346,0.200350778 L16.3408346,0.0896144217 L17.3665376,0.0896144217 Z" transform="translate(.01 14.415)"/>
        </g>
        <g transform="translate(9.6 .639)">
          <path fill="#E2F0F7" d="M16.3529439,14.5045621 L16.3529439,14.6152984 C16.3529439,14.8706072 15.962859,15.0777252 15.4859746,15.0777252 L1.80856758,15.0777252 C1.32689895,15.0777252 0.941769088,14.8706072 0.941769088,14.6152984 L0.941769088,14.5045621 L16.3529439,14.5045621 Z"/>
          <path fill="#F3FCFF" d="M16.3529439,14.3167204 L16.3529439,14.6152642 C16.3529439,14.8705731 15.962859,15.0776911 15.4859746,15.0776911 L1.80856758,15.0776911 C1.32689895,15.0776911 0.941769088,14.8705731 0.941769088,14.6152642 L0.941769088,14.3167204 C0.941769088,14.0614116 1.32689895,13.8542936 1.80856758,13.8542936 L15.4859746,13.8542936 C15.962859,13.8542936 16.3529439,14.0614116 16.3529439,14.3167204"/>
          <path fill="#009AD7" d="M16.3529439,14.3167204 L16.3529439,14.6152642 C16.3529439,14.8705731 15.962859,15.0776911 15.4859746,15.0776911 L1.80856758,15.0776911 C1.32689895,15.0776911 0.941769088,14.8705731 0.941769088,14.6152642 L0.941769088,14.3167204 C0.941769088,14.0614116 1.32689895,13.8542936 1.80856758,13.8542936 L15.4859746,13.8542936 C15.962859,13.8542936 16.3529439,14.0614116 16.3529439,14.3167204"/>
          <g transform="translate(.01 13.219)">
            <mask id="box3-graph-f" fill="#fff">
              <use xlink:href="#box3-graph-e"/>
            </mask>
            <path fill="#35CCFF" d="M16.342099,1.39655976 C16.342099,1.65186858 15.952014,1.85898658 15.4751296,1.85898658 L1.79772264,1.85898658 C1.31605402,1.85898658 0.930924152,1.65186858 0.930924152,1.39655976 L0.930924152,1.09801591 C0.930924152,0.842707089 1.31605402,0.635589089 1.79772264,0.635589089 L15.4751296,0.635589089 C15.952014,0.635589089 16.342099,0.842707089 16.342099,1.09801591 L16.342099,1.39655976 Z M16.3901121,0.0238048988 L0.978766371,0.0238048988 C0.434731993,0.0238048988 0.001247315,0.462136309 0.001247315,1.00163427 L0.001247315,1.62777317 C0.001247315,2.16727113 0.434731993,2.60560254 0.978766371,2.60560254 L16.3901121,2.60560254 C16.9295331,2.60560254 17.367802,2.16727113 17.367802,1.62777317 L17.367802,1.00163427 C17.367802,0.462136309 16.9295331,0.0238048988 16.3901121,0.0238048988 L16.3901121,0.0238048988 Z" mask="url(#box3-graph-f)"/>
          </g>
          <g fill-rule="nonzero" transform="translate(.306)">
            <path fill="#685A50" d="M0.395113879,25.7185409 L16.4964057,25.7185409 L16.4964057,29.4135841 C16.4964057,29.6187843 16.3322337,29.785132 16.1297172,29.785132 L0.761802374,29.785132 C0.55928591,29.785132 0.395113879,29.6187843 0.395113879,29.4135841 L0.395113879,25.7185409 Z"/>
            <ellipse cx="11.423" cy="28.513" fill="#9B8676" rx="1" ry="1"/>
            <ellipse cx="5.806" cy="28.513" fill="#9B8676" rx="1" ry="1"/>
            <ellipse cx="9.054" cy="27.197" fill="#847264" rx="1" ry="1"/>
            <ellipse cx="14.106" cy="27.346" fill="#9B8676" rx="1" ry="1"/>
            <ellipse cx="2.5" cy="27.127" fill="#847264" rx="1" ry="1"/>
            <path fill="#BFEC80" d="M8.64560502,0 C5.80376918,0 4.28751226,8.9803111 4.28751226,10.7265859 C4.33617351,13.1306063 6.27344365,15.0537022 8.64652174,15.0537022 C11.0195998,15.0537022 12.95687,13.1306063 13.0055312,10.7265859 C13.0055312,8.9803111 11.4874409,0 8.64560502,0 Z"/>
            <path fill="#AAE655" d="M6.15579014,10.7265859 C6.15579014,9.18280467 7.34202742,1.99521186 9.58066068,0.341824006 C9.31330947,0.129060206 8.98543775,0.0092016455 8.64560502,0 C5.80376918,-1.77994163e-16 4.28751226,8.9803111 4.28751226,10.7265859 C4.2824325,12.0661192 4.87872124,13.3353267 5.9080491,14.1759173 C6.93737697,15.016508 8.28806743,15.3372823 9.57882724,15.0476872 C7.57851139,14.5995795 6.15480766,12.8023544 6.15579014,10.7265859 Z"/>
            <path fill="#759684" d="M10.3323721,10.2807285 C10.0891064,10.0350905 9.69558537,10.0350905 9.45231971,10.2807285 L9.26897546,10.4665024 L9.26897546,9.46518103 C9.25102311,9.13013926 8.9776686,8.86779213 8.64652174,8.86779213 C8.31537488,8.86779213 8.04202038,9.13013926 8.02406802,9.46518103 L8.02406802,11.7279073 L7.84072377,11.5421334 C7.59402993,11.3199896 7.21920719,11.3311695 6.98583691,11.5676324 C6.75246662,11.8040953 6.74143287,12.1838852 6.96067139,12.4338482 L8.02406802,13.5113369 L8.02406802,19.5601356 L9.26897546,19.5601356 L9.26897546,12.249932 L10.3323721,11.1724433 C10.5747975,10.9259539 10.5747975,10.5272179 10.3323721,10.2807285 L10.3323721,10.2807285 Z"/>
          </g>
          <g transform="translate(.01 14.538)">
            <mask id="box3-graph-h" fill="#fff">
              <use xlink:href="#box3-graph-g"/>
            </mask>
            <path fill="#009AD7" d="M17.367204,0.0896144217 L17.367204,13.28245 C17.367204,14.3469203 16.5051897,15.2092284 15.4408712,15.2092284 L1.92715293,15.2092284 C0.862834422,15.2092284 0.00064928726,14.3469203 0.00064928726,13.28245 L0.00064928726,0.0896144217 L0.930326124,0.0896144217 L0.930326124,0.200350778 C0.930326124,0.455659599 1.31545599,0.662777599 1.79695375,0.662777599 L15.4743607,0.662777599 C15.9512451,0.662777599 16.341501,0.455659599 16.341501,0.200350778 L16.341501,0.0896144217 L17.367204,0.0896144217 Z" mask="url(#box3-graph-h)"/>
          </g>
          <path fill="#35CCFF" d="M3.74111985 28.0216447L3.22356956 28.0216447C2.89567949 28.0216447 2.62981344 27.7557407 2.62981344 27.427633L2.62981344 17.9183193C2.62981344 17.5903825 2.89567949 17.3244785 3.22356956 17.3244785L3.74111985 17.3244785C4.06900991 17.3244785 4.33504683 17.5903825 4.33504683 17.9183193L4.33504683 27.427633C4.33504683 27.7557407 4.06900991 28.0216447 3.74111985 28.0216447M7.2239138 28.0216447L6.7063635 28.0216447C6.37830257 28.0216447 6.11243653 27.7557407 6.11243653 27.427633L6.11243653 17.9183193C6.11243653 17.5903825 6.37830257 17.3244785 6.7063635 17.3244785L7.2239138 17.3244785C7.55180386 17.3244785 7.81784077 17.5903825 7.81784077 17.9183193L7.81784077 27.427633C7.81784077 27.7557407 7.55180386 28.0216447 7.2239138 28.0216447M10.6955332 28.0216447L10.1779829 28.0216447C9.85009281 28.0216447 9.58422676 27.7557407 9.58422676 27.427633L9.58422676 17.9183193C9.58422676 17.5903825 9.85009281 17.3244785 10.1779829 17.3244785L10.6955332 17.3244785C11.0235941 17.3244785 11.2894601 17.5903825 11.2894601 17.9183193L11.2894601 27.427633C11.2894601 27.7557407 11.0235941 28.0216447 10.6955332 28.0216447M14.167238 28.0216447L13.6496877 28.0216447C13.3217976 28.0216447 13.0559316 27.7557407 13.0559316 27.427633L13.0559316 17.9183193C13.0559316 17.5903825 13.3217976 17.3244785 13.6496877 17.3244785L14.167238 17.3244785C14.495128 17.3244785 14.7611649 17.5903825 14.7611649 17.9183193L14.7611649 27.427633C14.7611649 27.7557407 14.495128 28.0216447 14.167238 28.0216447"/>
          <path fill="#35CCFF" d="M17.3665376,0.0896144217 L17.3665376,0.431564189 C17.3665376,0.971062147 16.9282687,1.40939356 16.3888477,1.40939356 L0.977672834,1.40939356 C0.433296727,1.40939356 -1.70865068e-05,0.971062147 -1.70865068e-05,0.431564189 L-1.70865068e-05,0.0896144217 L0.92965975,0.0896144217 L0.92965975,0.200350778 C0.92965975,0.455659599 1.31478961,0.662777599 1.79628738,0.662777599 L15.4736944,0.662777599 C15.9505788,0.662777599 16.3408346,0.455659599 16.3408346,0.200350778 L16.3408346,0.0896144217 L17.3665376,0.0896144217 Z" transform="translate(.01 14.415)"/>
        </g>
        <g transform="translate(.6 15.639)">
          <path fill="#E2F0F7" d="M16.3529439,14.5045621 L16.3529439,14.6152984 C16.3529439,14.8706072 15.962859,15.0777252 15.4859746,15.0777252 L1.80856758,15.0777252 C1.32689895,15.0777252 0.941769088,14.8706072 0.941769088,14.6152984 L0.941769088,14.5045621 L16.3529439,14.5045621 Z"/>
          <path fill="#F3FCFF" d="M16.3529439,14.3167204 L16.3529439,14.6152642 C16.3529439,14.8705731 15.962859,15.0776911 15.4859746,15.0776911 L1.80856758,15.0776911 C1.32689895,15.0776911 0.941769088,14.8705731 0.941769088,14.6152642 L0.941769088,14.3167204 C0.941769088,14.0614116 1.32689895,13.8542936 1.80856758,13.8542936 L15.4859746,13.8542936 C15.962859,13.8542936 16.3529439,14.0614116 16.3529439,14.3167204"/>
          <path fill="#009AD7" d="M16.3529439,14.3167204 L16.3529439,14.6152642 C16.3529439,14.8705731 15.962859,15.0776911 15.4859746,15.0776911 L1.80856758,15.0776911 C1.32689895,15.0776911 0.941769088,14.8705731 0.941769088,14.6152642 L0.941769088,14.3167204 C0.941769088,14.0614116 1.32689895,13.8542936 1.80856758,13.8542936 L15.4859746,13.8542936 C15.962859,13.8542936 16.3529439,14.0614116 16.3529439,14.3167204"/>
          <g transform="translate(.01 13.219)">
            <mask id="box3-graph-j" fill="#fff">
              <use xlink:href="#box3-graph-i"/>
            </mask>
            <path fill="#35CCFF" d="M16.342099,1.39655976 C16.342099,1.65186858 15.952014,1.85898658 15.4751296,1.85898658 L1.79772264,1.85898658 C1.31605402,1.85898658 0.930924152,1.65186858 0.930924152,1.39655976 L0.930924152,1.09801591 C0.930924152,0.842707089 1.31605402,0.635589089 1.79772264,0.635589089 L15.4751296,0.635589089 C15.952014,0.635589089 16.342099,0.842707089 16.342099,1.09801591 L16.342099,1.39655976 Z M16.3901121,0.0238048988 L0.978766371,0.0238048988 C0.434731993,0.0238048988 0.001247315,0.462136309 0.001247315,1.00163427 L0.001247315,1.62777317 C0.001247315,2.16727113 0.434731993,2.60560254 0.978766371,2.60560254 L16.3901121,2.60560254 C16.9295331,2.60560254 17.367802,2.16727113 17.367802,1.62777317 L17.367802,1.00163427 C17.367802,0.462136309 16.9295331,0.0238048988 16.3901121,0.0238048988 L16.3901121,0.0238048988 Z" mask="url(#box3-graph-j)"/>
          </g>
          <g fill-rule="nonzero" transform="translate(.306)">
            <path fill="#685A50" d="M0.395113879,25.7185409 L16.4964057,25.7185409 L16.4964057,29.4135841 C16.4964057,29.6187843 16.3322337,29.785132 16.1297172,29.785132 L0.761802374,29.785132 C0.55928591,29.785132 0.395113879,29.6187843 0.395113879,29.4135841 L0.395113879,25.7185409 Z"/>
            <ellipse cx="11.423" cy="28.513" fill="#9B8676" rx="1" ry="1"/>
            <ellipse cx="5.806" cy="28.513" fill="#9B8676" rx="1" ry="1"/>
            <ellipse cx="9.054" cy="27.197" fill="#847264" rx="1" ry="1"/>
            <ellipse cx="14.106" cy="27.346" fill="#9B8676" rx="1" ry="1"/>
            <ellipse cx="2.5" cy="27.127" fill="#847264" rx="1" ry="1"/>
            <path fill="#BFEC80" d="M8.64560502,0 C5.80376918,0 4.28751226,8.9803111 4.28751226,10.7265859 C4.33617351,13.1306063 6.27344365,15.0537022 8.64652174,15.0537022 C11.0195998,15.0537022 12.95687,13.1306063 13.0055312,10.7265859 C13.0055312,8.9803111 11.4874409,0 8.64560502,0 Z"/>
            <path fill="#AAE655" d="M6.15579014,10.7265859 C6.15579014,9.18280467 7.34202742,1.99521186 9.58066068,0.341824006 C9.31330947,0.129060206 8.98543775,0.0092016455 8.64560502,0 C5.80376918,-1.77994163e-16 4.28751226,8.9803111 4.28751226,10.7265859 C4.2824325,12.0661192 4.87872124,13.3353267 5.9080491,14.1759173 C6.93737697,15.016508 8.28806743,15.3372823 9.57882724,15.0476872 C7.57851139,14.5995795 6.15480766,12.8023544 6.15579014,10.7265859 Z"/>
            <path fill="#759684" d="M10.3323721,10.2807285 C10.0891064,10.0350905 9.69558537,10.0350905 9.45231971,10.2807285 L9.26897546,10.4665024 L9.26897546,9.46518103 C9.25102311,9.13013926 8.9776686,8.86779213 8.64652174,8.86779213 C8.31537488,8.86779213 8.04202038,9.13013926 8.02406802,9.46518103 L8.02406802,11.7279073 L7.84072377,11.5421334 C7.59402993,11.3199896 7.21920719,11.3311695 6.98583691,11.5676324 C6.75246662,11.8040953 6.74143287,12.1838852 6.96067139,12.4338482 L8.02406802,13.5113369 L8.02406802,19.5601356 L9.26897546,19.5601356 L9.26897546,12.249932 L10.3323721,11.1724433 C10.5747975,10.9259539 10.5747975,10.5272179 10.3323721,10.2807285 L10.3323721,10.2807285 Z"/>
          </g>
          <g transform="translate(.01 14.538)">
            <mask id="box3-graph-l" fill="#fff">
              <use xlink:href="#box3-graph-k"/>
            </mask>
            <path fill="#009AD7" d="M17.367204,0.0896144217 L17.367204,13.28245 C17.367204,14.3469203 16.5051897,15.2092284 15.4408712,15.2092284 L1.92715293,15.2092284 C0.862834422,15.2092284 0.00064928726,14.3469203 0.00064928726,13.28245 L0.00064928726,0.0896144217 L0.930326124,0.0896144217 L0.930326124,0.200350778 C0.930326124,0.455659599 1.31545599,0.662777599 1.79695375,0.662777599 L15.4743607,0.662777599 C15.9512451,0.662777599 16.341501,0.455659599 16.341501,0.200350778 L16.341501,0.0896144217 L17.367204,0.0896144217 Z" mask="url(#box3-graph-l)"/>
          </g>
          <path fill="#35CCFF" d="M3.74111985 28.0216447L3.22356956 28.0216447C2.89567949 28.0216447 2.62981344 27.7557407 2.62981344 27.427633L2.62981344 17.9183193C2.62981344 17.5903825 2.89567949 17.3244785 3.22356956 17.3244785L3.74111985 17.3244785C4.06900991 17.3244785 4.33504683 17.5903825 4.33504683 17.9183193L4.33504683 27.427633C4.33504683 27.7557407 4.06900991 28.0216447 3.74111985 28.0216447M7.2239138 28.0216447L6.7063635 28.0216447C6.37830257 28.0216447 6.11243653 27.7557407 6.11243653 27.427633L6.11243653 17.9183193C6.11243653 17.5903825 6.37830257 17.3244785 6.7063635 17.3244785L7.2239138 17.3244785C7.55180386 17.3244785 7.81784077 17.5903825 7.81784077 17.9183193L7.81784077 27.427633C7.81784077 27.7557407 7.55180386 28.0216447 7.2239138 28.0216447M10.6955332 28.0216447L10.1779829 28.0216447C9.85009281 28.0216447 9.58422676 27.7557407 9.58422676 27.427633L9.58422676 17.9183193C9.58422676 17.5903825 9.85009281 17.3244785 10.1779829 17.3244785L10.6955332 17.3244785C11.0235941 17.3244785 11.2894601 17.5903825 11.2894601 17.9183193L11.2894601 27.427633C11.2894601 27.7557407 11.0235941 28.0216447 10.6955332 28.0216447M14.167238 28.0216447L13.6496877 28.0216447C13.3217976 28.0216447 13.0559316 27.7557407 13.0559316 27.427633L13.0559316 17.9183193C13.0559316 17.5903825 13.3217976 17.3244785 13.6496877 17.3244785L14.167238 17.3244785C14.495128 17.3244785 14.7611649 17.5903825 14.7611649 17.9183193L14.7611649 27.427633C14.7611649 27.7557407 14.495128 28.0216447 14.167238 28.0216447"/>
          <path fill="#35CCFF" d="M17.3665376,0.0896144217 L17.3665376,0.431564189 C17.3665376,0.971062147 16.9282687,1.40939356 16.3888477,1.40939356 L0.977672834,1.40939356 C0.433296727,1.40939356 -1.70865068e-05,0.971062147 -1.70865068e-05,0.431564189 L-1.70865068e-05,0.0896144217 L0.92965975,0.0896144217 L0.92965975,0.200350778 C0.92965975,0.455659599 1.31478961,0.662777599 1.79628738,0.662777599 L15.4736944,0.662777599 C15.9505788,0.662777599 16.3408346,0.455659599 16.3408346,0.200350778 L16.3408346,0.0896144217 L17.3665376,0.0896144217 Z" transform="translate(.01 14.415)"/>
        </g>
        <g transform="translate(17.6 15.639)">
          <path fill="#E2F0F7" d="M16.3529439,14.5045621 L16.3529439,14.6152984 C16.3529439,14.8706072 15.962859,15.0777252 15.4859746,15.0777252 L1.80856758,15.0777252 C1.32689895,15.0777252 0.941769088,14.8706072 0.941769088,14.6152984 L0.941769088,14.5045621 L16.3529439,14.5045621 Z"/>
          <path fill="#F3FCFF" d="M16.3529439,14.3167204 L16.3529439,14.6152642 C16.3529439,14.8705731 15.962859,15.0776911 15.4859746,15.0776911 L1.80856758,15.0776911 C1.32689895,15.0776911 0.941769088,14.8705731 0.941769088,14.6152642 L0.941769088,14.3167204 C0.941769088,14.0614116 1.32689895,13.8542936 1.80856758,13.8542936 L15.4859746,13.8542936 C15.962859,13.8542936 16.3529439,14.0614116 16.3529439,14.3167204"/>
          <path fill="#009AD7" d="M16.3529439,14.3167204 L16.3529439,14.6152642 C16.3529439,14.8705731 15.962859,15.0776911 15.4859746,15.0776911 L1.80856758,15.0776911 C1.32689895,15.0776911 0.941769088,14.8705731 0.941769088,14.6152642 L0.941769088,14.3167204 C0.941769088,14.0614116 1.32689895,13.8542936 1.80856758,13.8542936 L15.4859746,13.8542936 C15.962859,13.8542936 16.3529439,14.0614116 16.3529439,14.3167204"/>
          <g transform="translate(.01 13.219)">
            <mask id="box3-graph-n" fill="#fff">
              <use xlink:href="#box3-graph-m"/>
            </mask>
            <path fill="#35CCFF" d="M16.342099,1.39655976 C16.342099,1.65186858 15.952014,1.85898658 15.4751296,1.85898658 L1.79772264,1.85898658 C1.31605402,1.85898658 0.930924152,1.65186858 0.930924152,1.39655976 L0.930924152,1.09801591 C0.930924152,0.842707089 1.31605402,0.635589089 1.79772264,0.635589089 L15.4751296,0.635589089 C15.952014,0.635589089 16.342099,0.842707089 16.342099,1.09801591 L16.342099,1.39655976 Z M16.3901121,0.0238048988 L0.978766371,0.0238048988 C0.434731993,0.0238048988 0.001247315,0.462136309 0.001247315,1.00163427 L0.001247315,1.62777317 C0.001247315,2.16727113 0.434731993,2.60560254 0.978766371,2.60560254 L16.3901121,2.60560254 C16.9295331,2.60560254 17.367802,2.16727113 17.367802,1.62777317 L17.367802,1.00163427 C17.367802,0.462136309 16.9295331,0.0238048988 16.3901121,0.0238048988 L16.3901121,0.0238048988 Z" mask="url(#box3-graph-n)"/>
          </g>
          <g fill-rule="nonzero" transform="translate(.306)">
            <path fill="#685A50" d="M0.395113879,25.7185409 L16.4964057,25.7185409 L16.4964057,29.4135841 C16.4964057,29.6187843 16.3322337,29.785132 16.1297172,29.785132 L0.761802374,29.785132 C0.55928591,29.785132 0.395113879,29.6187843 0.395113879,29.4135841 L0.395113879,25.7185409 Z"/>
            <ellipse cx="11.423" cy="28.513" fill="#9B8676" rx="1" ry="1"/>
            <ellipse cx="5.806" cy="28.513" fill="#9B8676" rx="1" ry="1"/>
            <ellipse cx="9.054" cy="27.197" fill="#847264" rx="1" ry="1"/>
            <ellipse cx="14.106" cy="27.346" fill="#9B8676" rx="1" ry="1"/>
            <ellipse cx="2.5" cy="27.127" fill="#847264" rx="1" ry="1"/>
            <path fill="#BFEC80" d="M8.64560502,0 C5.80376918,0 4.28751226,8.9803111 4.28751226,10.7265859 C4.33617351,13.1306063 6.27344365,15.0537022 8.64652174,15.0537022 C11.0195998,15.0537022 12.95687,13.1306063 13.0055312,10.7265859 C13.0055312,8.9803111 11.4874409,0 8.64560502,0 Z"/>
            <path fill="#AAE655" d="M6.15579014,10.7265859 C6.15579014,9.18280467 7.34202742,1.99521186 9.58066068,0.341824006 C9.31330947,0.129060206 8.98543775,0.0092016455 8.64560502,0 C5.80376918,-1.77994163e-16 4.28751226,8.9803111 4.28751226,10.7265859 C4.2824325,12.0661192 4.87872124,13.3353267 5.9080491,14.1759173 C6.93737697,15.016508 8.28806743,15.3372823 9.57882724,15.0476872 C7.57851139,14.5995795 6.15480766,12.8023544 6.15579014,10.7265859 Z"/>
            <path fill="#759684" d="M10.3323721,10.2807285 C10.0891064,10.0350905 9.69558537,10.0350905 9.45231971,10.2807285 L9.26897546,10.4665024 L9.26897546,9.46518103 C9.25102311,9.13013926 8.9776686,8.86779213 8.64652174,8.86779213 C8.31537488,8.86779213 8.04202038,9.13013926 8.02406802,9.46518103 L8.02406802,11.7279073 L7.84072377,11.5421334 C7.59402993,11.3199896 7.21920719,11.3311695 6.98583691,11.5676324 C6.75246662,11.8040953 6.74143287,12.1838852 6.96067139,12.4338482 L8.02406802,13.5113369 L8.02406802,19.5601356 L9.26897546,19.5601356 L9.26897546,12.249932 L10.3323721,11.1724433 C10.5747975,10.9259539 10.5747975,10.5272179 10.3323721,10.2807285 L10.3323721,10.2807285 Z"/>
          </g>
          <g transform="translate(.01 14.538)">
            <mask id="box3-graph-p" fill="#fff">
              <use xlink:href="#box3-graph-o"/>
            </mask>
            <path fill="#009AD7" d="M17.367204,0.0896144217 L17.367204,13.28245 C17.367204,14.3469203 16.5051897,15.2092284 15.4408712,15.2092284 L1.92715293,15.2092284 C0.862834422,15.2092284 0.00064928726,14.3469203 0.00064928726,13.28245 L0.00064928726,0.0896144217 L0.930326124,0.0896144217 L0.930326124,0.200350778 C0.930326124,0.455659599 1.31545599,0.662777599 1.79695375,0.662777599 L15.4743607,0.662777599 C15.9512451,0.662777599 16.341501,0.455659599 16.341501,0.200350778 L16.341501,0.0896144217 L17.367204,0.0896144217 Z" mask="url(#box3-graph-p)"/>
          </g>
          <path fill="#35CCFF" d="M3.74111985 28.0216447L3.22356956 28.0216447C2.89567949 28.0216447 2.62981344 27.7557407 2.62981344 27.427633L2.62981344 17.9183193C2.62981344 17.5903825 2.89567949 17.3244785 3.22356956 17.3244785L3.74111985 17.3244785C4.06900991 17.3244785 4.33504683 17.5903825 4.33504683 17.9183193L4.33504683 27.427633C4.33504683 27.7557407 4.06900991 28.0216447 3.74111985 28.0216447M7.2239138 28.0216447L6.7063635 28.0216447C6.37830257 28.0216447 6.11243653 27.7557407 6.11243653 27.427633L6.11243653 17.9183193C6.11243653 17.5903825 6.37830257 17.3244785 6.7063635 17.3244785L7.2239138 17.3244785C7.55180386 17.3244785 7.81784077 17.5903825 7.81784077 17.9183193L7.81784077 27.427633C7.81784077 27.7557407 7.55180386 28.0216447 7.2239138 28.0216447M10.6955332 28.0216447L10.1779829 28.0216447C9.85009281 28.0216447 9.58422676 27.7557407 9.58422676 27.427633L9.58422676 17.9183193C9.58422676 17.5903825 9.85009281 17.3244785 10.1779829 17.3244785L10.6955332 17.3244785C11.0235941 17.3244785 11.2894601 17.5903825 11.2894601 17.9183193L11.2894601 27.427633C11.2894601 27.7557407 11.0235941 28.0216447 10.6955332 28.0216447M14.167238 28.0216447L13.6496877 28.0216447C13.3217976 28.0216447 13.0559316 27.7557407 13.0559316 27.427633L13.0559316 17.9183193C13.0559316 17.5903825 13.3217976 17.3244785 13.6496877 17.3244785L14.167238 17.3244785C14.495128 17.3244785 14.7611649 17.5903825 14.7611649 17.9183193L14.7611649 27.427633C14.7611649 27.7557407 14.495128 28.0216447 14.167238 28.0216447"/>
          <path fill="#35CCFF" d="M17.3665376,0.0896144217 L17.3665376,0.431564189 C17.3665376,0.971062147 16.9282687,1.40939356 16.3888477,1.40939356 L0.977672834,1.40939356 C0.433296727,1.40939356 -1.70865068e-05,0.971062147 -1.70865068e-05,0.431564189 L-1.70865068e-05,0.0896144217 L0.92965975,0.0896144217 L0.92965975,0.200350778 C0.92965975,0.455659599 1.31478961,0.662777599 1.79628738,0.662777599 L15.4736944,0.662777599 C15.9505788,0.662777599 16.3408346,0.455659599 16.3408346,0.200350778 L16.3408346,0.0896144217 L17.3665376,0.0896144217 Z" transform="translate(.01 14.415)"/>
        </g>
        <g transform="translate(34.6 15.639)">
          <path fill="#E2F0F7" d="M16.3529439,14.5045621 L16.3529439,14.6152984 C16.3529439,14.8706072 15.962859,15.0777252 15.4859746,15.0777252 L1.80856758,15.0777252 C1.32689895,15.0777252 0.941769088,14.8706072 0.941769088,14.6152984 L0.941769088,14.5045621 L16.3529439,14.5045621 Z"/>
          <path fill="#F3FCFF" d="M16.3529439,14.3167204 L16.3529439,14.6152642 C16.3529439,14.8705731 15.962859,15.0776911 15.4859746,15.0776911 L1.80856758,15.0776911 C1.32689895,15.0776911 0.941769088,14.8705731 0.941769088,14.6152642 L0.941769088,14.3167204 C0.941769088,14.0614116 1.32689895,13.8542936 1.80856758,13.8542936 L15.4859746,13.8542936 C15.962859,13.8542936 16.3529439,14.0614116 16.3529439,14.3167204"/>
          <path fill="#009AD7" d="M16.3529439,14.3167204 L16.3529439,14.6152642 C16.3529439,14.8705731 15.962859,15.0776911 15.4859746,15.0776911 L1.80856758,15.0776911 C1.32689895,15.0776911 0.941769088,14.8705731 0.941769088,14.6152642 L0.941769088,14.3167204 C0.941769088,14.0614116 1.32689895,13.8542936 1.80856758,13.8542936 L15.4859746,13.8542936 C15.962859,13.8542936 16.3529439,14.0614116 16.3529439,14.3167204"/>
          <g transform="translate(.01 13.219)">
            <mask id="box3-graph-r" fill="#fff">
              <use xlink:href="#box3-graph-q"/>
            </mask>
            <path fill="#35CCFF" d="M16.342099,1.39655976 C16.342099,1.65186858 15.952014,1.85898658 15.4751296,1.85898658 L1.79772264,1.85898658 C1.31605402,1.85898658 0.930924152,1.65186858 0.930924152,1.39655976 L0.930924152,1.09801591 C0.930924152,0.842707089 1.31605402,0.635589089 1.79772264,0.635589089 L15.4751296,0.635589089 C15.952014,0.635589089 16.342099,0.842707089 16.342099,1.09801591 L16.342099,1.39655976 Z M16.3901121,0.0238048988 L0.978766371,0.0238048988 C0.434731993,0.0238048988 0.001247315,0.462136309 0.001247315,1.00163427 L0.001247315,1.62777317 C0.001247315,2.16727113 0.434731993,2.60560254 0.978766371,2.60560254 L16.3901121,2.60560254 C16.9295331,2.60560254 17.367802,2.16727113 17.367802,1.62777317 L17.367802,1.00163427 C17.367802,0.462136309 16.9295331,0.0238048988 16.3901121,0.0238048988 L16.3901121,0.0238048988 Z" mask="url(#box3-graph-r)"/>
          </g>
          <g fill-rule="nonzero" transform="translate(.306)">
            <path fill="#685A50" d="M0.395113879,25.7185409 L16.4964057,25.7185409 L16.4964057,29.4135841 C16.4964057,29.6187843 16.3322337,29.785132 16.1297172,29.785132 L0.761802374,29.785132 C0.55928591,29.785132 0.395113879,29.6187843 0.395113879,29.4135841 L0.395113879,25.7185409 Z"/>
            <ellipse cx="11.423" cy="28.513" fill="#9B8676" rx="1" ry="1"/>
            <ellipse cx="5.806" cy="28.513" fill="#9B8676" rx="1" ry="1"/>
            <ellipse cx="9.054" cy="27.197" fill="#847264" rx="1" ry="1"/>
            <ellipse cx="14.106" cy="27.346" fill="#9B8676" rx="1" ry="1"/>
            <ellipse cx="2.5" cy="27.127" fill="#847264" rx="1" ry="1"/>
            <path fill="#BFEC80" d="M8.64560502,0 C5.80376918,0 4.28751226,8.9803111 4.28751226,10.7265859 C4.33617351,13.1306063 6.27344365,15.0537022 8.64652174,15.0537022 C11.0195998,15.0537022 12.95687,13.1306063 13.0055312,10.7265859 C13.0055312,8.9803111 11.4874409,0 8.64560502,0 Z"/>
            <path fill="#AAE655" d="M6.15579014,10.7265859 C6.15579014,9.18280467 7.34202742,1.99521186 9.58066068,0.341824006 C9.31330947,0.129060206 8.98543775,0.0092016455 8.64560502,0 C5.80376918,-1.77994163e-16 4.28751226,8.9803111 4.28751226,10.7265859 C4.2824325,12.0661192 4.87872124,13.3353267 5.9080491,14.1759173 C6.93737697,15.016508 8.28806743,15.3372823 9.57882724,15.0476872 C7.57851139,14.5995795 6.15480766,12.8023544 6.15579014,10.7265859 Z"/>
            <path fill="#759684" d="M10.3323721,10.2807285 C10.0891064,10.0350905 9.69558537,10.0350905 9.45231971,10.2807285 L9.26897546,10.4665024 L9.26897546,9.46518103 C9.25102311,9.13013926 8.9776686,8.86779213 8.64652174,8.86779213 C8.31537488,8.86779213 8.04202038,9.13013926 8.02406802,9.46518103 L8.02406802,11.7279073 L7.84072377,11.5421334 C7.59402993,11.3199896 7.21920719,11.3311695 6.98583691,11.5676324 C6.75246662,11.8040953 6.74143287,12.1838852 6.96067139,12.4338482 L8.02406802,13.5113369 L8.02406802,19.5601356 L9.26897546,19.5601356 L9.26897546,12.249932 L10.3323721,11.1724433 C10.5747975,10.9259539 10.5747975,10.5272179 10.3323721,10.2807285 L10.3323721,10.2807285 Z"/>
          </g>
          <g transform="translate(.01 14.538)">
            <mask id="box3-graph-t" fill="#fff">
              <use xlink:href="#box3-graph-s"/>
            </mask>
            <path fill="#009AD7" d="M17.367204,0.0896144217 L17.367204,13.28245 C17.367204,14.3469203 16.5051897,15.2092284 15.4408712,15.2092284 L1.92715293,15.2092284 C0.862834422,15.2092284 0.00064928726,14.3469203 0.00064928726,13.28245 L0.00064928726,0.0896144217 L0.930326124,0.0896144217 L0.930326124,0.200350778 C0.930326124,0.455659599 1.31545599,0.662777599 1.79695375,0.662777599 L15.4743607,0.662777599 C15.9512451,0.662777599 16.341501,0.455659599 16.341501,0.200350778 L16.341501,0.0896144217 L17.367204,0.0896144217 Z" mask="url(#box3-graph-t)"/>
          </g>
          <path fill="#35CCFF" d="M3.74111985 28.0216447L3.22356956 28.0216447C2.89567949 28.0216447 2.62981344 27.7557407 2.62981344 27.427633L2.62981344 17.9183193C2.62981344 17.5903825 2.89567949 17.3244785 3.22356956 17.3244785L3.74111985 17.3244785C4.06900991 17.3244785 4.33504683 17.5903825 4.33504683 17.9183193L4.33504683 27.427633C4.33504683 27.7557407 4.06900991 28.0216447 3.74111985 28.0216447M7.2239138 28.0216447L6.7063635 28.0216447C6.37830257 28.0216447 6.11243653 27.7557407 6.11243653 27.427633L6.11243653 17.9183193C6.11243653 17.5903825 6.37830257 17.3244785 6.7063635 17.3244785L7.2239138 17.3244785C7.55180386 17.3244785 7.81784077 17.5903825 7.81784077 17.9183193L7.81784077 27.427633C7.81784077 27.7557407 7.55180386 28.0216447 7.2239138 28.0216447M10.6955332 28.0216447L10.1779829 28.0216447C9.85009281 28.0216447 9.58422676 27.7557407 9.58422676 27.427633L9.58422676 17.9183193C9.58422676 17.5903825 9.85009281 17.3244785 10.1779829 17.3244785L10.6955332 17.3244785C11.0235941 17.3244785 11.2894601 17.5903825 11.2894601 17.9183193L11.2894601 27.427633C11.2894601 27.7557407 11.0235941 28.0216447 10.6955332 28.0216447M14.167238 28.0216447L13.6496877 28.0216447C13.3217976 28.0216447 13.0559316 27.7557407 13.0559316 27.427633L13.0559316 17.9183193C13.0559316 17.5903825 13.3217976 17.3244785 13.6496877 17.3244785L14.167238 17.3244785C14.495128 17.3244785 14.7611649 17.5903825 14.7611649 17.9183193L14.7611649 27.427633C14.7611649 27.7557407 14.495128 28.0216447 14.167238 28.0216447"/>
          <path fill="#35CCFF" d="M17.3665376,0.0896144217 L17.3665376,0.431564189 C17.3665376,0.971062147 16.9282687,1.40939356 16.3888477,1.40939356 L0.977672834,1.40939356 C0.433296727,1.40939356 -1.70865068e-05,0.971062147 -1.70865068e-05,0.431564189 L-1.70865068e-05,0.0896144217 L0.92965975,0.0896144217 L0.92965975,0.200350778 C0.92965975,0.455659599 1.31478961,0.662777599 1.79628738,0.662777599 L15.4736944,0.662777599 C15.9505788,0.662777599 16.3408346,0.455659599 16.3408346,0.200350778 L16.3408346,0.0896144217 L17.3665376,0.0896144217 Z" transform="translate(.01 14.415)"/>
        </g>
      </g>
    </g>
    <g fill-rule="nonzero" transform="translate(.35 17.86)">
      <path fill="#9EDCF2" d="M11.1246575,29.8634195 L10.6265385,31.571256 C10.6265385,31.571256 10.5079387,32.1879748 11.0772175,32.3065745 C11.6939363,32.2828546 11.6464964,31.7135757 11.5990565,31.5475361 L11.1246575,29.8634195 Z"/>
      <path fill="#667B8F" d="M60.675637,22.676274 L60.7230769,22.4627945 C55.7181671,21.4665565 50.5946575,21.4428365 47.4873437,21.5851563 C47.9854627,19.75872 48.1515024,17.6239243 48.1515024,15.275649 C48.1515024,11.8836959 46.870625,9.17962139 44.8307091,7.13970553 C45.1865084,5.97742788 45.6609075,3.39195313 44.3563101,0.0948798077 C44.3563101,0.0948798077 42.0317548,-0.640438702 36.7422055,2.89383413 C34.6785697,2.37199519 32.4726142,2.11107572 30.2666587,2.11107572 C27.8472236,2.11107572 25.4040685,2.4194351 23.1032332,3.03615385 C17.6476442,-0.687878606 15.2519291,0.0711598558 15.2519291,0.0711598558 C13.6864123,3.98495192 14.6589303,6.90250601 14.9435697,7.61410457 C13.0934135,9.60658053 11.9785757,12.1446154 11.9785757,15.2519291 C11.9785757,17.6002043 12.2394952,19.71128 12.9036538,21.5377163 C9.77262019,21.4191166 4.83887019,21.4665565 0,22.4390745 L0.0474399038,22.6525541 C4.8863101,21.6800361 9.8675,21.6563161 12.9748137,21.7749159 C13.1171334,22.1544351 13.2831731,22.5339543 13.4492127,22.8897536 C10.365619,22.9846334 5.12350962,23.3878726 0.0948798077,24.8110697 L0.166039663,25.0245493 C5.24210937,23.6013522 10.5316587,23.2218329 13.5915325,23.1269531 C15.4416887,26.5426262 19.0471214,28.7723017 25.4989483,29.4601803 C24.5738702,30.076899 23.6487921,31.1205769 23.2692728,32.8995733 C22.0121154,33.4925721 18.0746034,34.9632091 15.7026082,30.8833774 C15.7026082,30.8833774 14.3742909,28.4639423 11.836256,28.2741827 C11.836256,28.2741827 9.36938101,28.2267428 11.6702163,29.8159796 C11.6702163,29.8159796 13.306893,30.598738 14.4454507,33.5162921 C14.4454507,33.5162921 15.9398077,38.497482 23.0795132,36.8845252 L23.0795132,41.9843149 C23.0795132,41.9843149 22.9371935,43.8107512 21.2530769,44.40375 C21.2530769,44.40375 20.2568389,45.0916286 21.3242368,45.4711478 C21.3242368,45.4711478 25.9496274,45.8506671 25.9496274,42.0554748 L25.9496274,36.4575661 C25.9496274,36.4575661 25.7598678,34.2278906 26.8509856,33.4688522 L26.8509856,42.6721935 C26.8509856,42.6721935 26.7798257,44.878149 25.641268,45.7083474 C25.641268,45.7083474 24.8822296,47.0603846 26.5426262,46.7045853 C26.5426262,46.7045853 29.7210998,46.2539063 29.8634195,42.5298738 L29.9345793,33.2079327 L30.6936178,33.2079327 L30.7647776,42.5298738 C30.9070974,46.2301863 34.0855709,46.7045853 34.0855709,46.7045853 C35.7459675,47.0841046 34.9869291,45.7083474 34.9869291,45.7083474 C33.8483714,44.878149 33.7772115,42.6721935 33.7772115,42.6721935 L33.7772115,33.540012 C34.8683293,34.3939303 34.6785697,36.4575661 34.6785697,36.4575661 L34.6785697,42.0554748 C34.6785697,45.8506671 39.3039603,45.4711478 39.3039603,45.4711478 C40.3713582,45.0916286 39.3751202,44.40375 39.3751202,44.40375 C37.7147236,43.7870313 37.5486839,41.9843149 37.5486839,41.9843149 L37.5486839,34.6311298 C37.5486839,31.7610156 36.3389663,30.2429387 35.1529687,29.4601803 C42.0317548,28.7723017 45.3288281,26.5663462 46.846905,23.1032332 C49.8593389,23.174393 55.2912079,23.5539123 60.4621575,25.0245493 L60.5333173,24.8110697 C55.3860877,23.3641526 50.0016587,22.9846334 46.9417849,22.8897536 C47.0841046,22.5339543 47.2027043,22.178155 47.3213041,21.7986358 C50.4997776,21.6800361 55.6470072,21.6800361 60.675637,22.676274 L60.675637,22.676274 Z"/>
      <path fill="#F5CCB3" d="M41.4150361,15.1096094 C42.8856731,16.4616466 43.7633113,18.0746034 43.7633113,19.8061599 C43.7633113,27.9658233 37.6910036,28.1793029 30.1954988,28.1793029 C22.699994,28.1793029 16.6276863,27.0407452 16.6276863,19.8061599 C16.6276863,18.0746034 17.4816046,16.4616466 18.9522416,15.1333293 C21.3953966,12.9036538 25.5226683,14.0896514 30.1954988,14.0896514 C34.8683293,14.0896514 38.971881,12.8799339 41.4150361,15.1096094 L41.4150361,15.1096094 Z"/>
      <path fill="#FFF" d="M25.6887079,20.233119 C25.6887079,22.4865144 24.4315505,24.2892308 22.8660337,24.2892308 C21.3005168,24.2892308 20.0433594,22.4627945 20.0433594,20.233119 C20.0433594,17.9797236 21.3005168,16.1770072 22.8660337,16.1770072 C24.4315505,16.1532873 25.6887079,17.9797236 25.6887079,20.233119 L25.6887079,20.233119 Z"/>
      <path fill="#AF5C51" d="M24.7873498,20.2805589 C24.7873498,21.7749159 23.9334315,22.9846334 22.9134736,22.9846334 C21.8697957,22.9846334 21.0395974,21.7749159 21.0395974,20.2805589 C21.0395974,18.7862019 21.8935156,17.5764844 22.9134736,17.5764844 C23.9334315,17.5764844 24.7873498,18.7862019 24.7873498,20.2805589 Z"/>
      <path fill="#FFF" d="M40.8457572,20.233119 C40.8457572,22.4865144 39.5885998,24.2892308 38.0230829,24.2892308 C36.4575661,24.2892308 35.2004087,22.4627945 35.2004087,20.233119 C35.2004087,17.9797236 36.4575661,16.1770072 38.0230829,16.1770072 C39.5648798,16.1532873 40.8457572,17.9797236 40.8457572,20.233119 L40.8457572,20.233119 Z"/>
      <path fill="#AF5C51" d="M39.9206791,20.2805589 C39.9206791,21.7749159 39.0667608,22.9846334 38.0468029,22.9846334 C37.003125,22.9846334 36.1729267,21.7749159 36.1729267,20.2805589 C36.1729267,18.7862019 37.026845,17.5764844 38.0468029,17.5764844 C39.0904808,17.5764844 39.9206791,18.7862019 39.9206791,20.2805589 Z M30.9545373,23.8385517 C30.9545373,24.2180709 30.6461779,24.5501502 30.2429387,24.5501502 C29.8634195,24.5501502 29.5313401,24.2417909 29.5313401,23.8385517 C29.5313401,23.4353125 29.8396995,23.1269531 30.2429387,23.1269531 C30.6224579,23.1269531 30.9545373,23.4353125 30.9545373,23.8385517 Z M28.606262,25.6175481 C28.5588221,25.4989483 28.629982,25.3803486 28.7485817,25.3329087 C28.8671815,25.2854687 28.9857812,25.3566286 29.0332212,25.4752284 C29.2229808,25.9970673 29.6973798,26.3291466 30.2429387,26.3291466 C30.7884976,26.3291466 31.2628966,25.9733474 31.4526562,25.4752284 C31.5000962,25.3566286 31.6186959,25.2854687 31.7372957,25.3329087 C31.8558954,25.3803486 31.9270553,25.4989483 31.8796154,25.6175481 C31.6424159,26.3054267 30.9782572,26.7798257 30.2429387,26.7798257 C29.5076202,26.7798257 28.8434615,26.3054267 28.606262,25.6175481 L28.606262,25.6175481 Z"/>
      <path fill="#C4E5D9" d="M12.9273738,28.8434615 C12.9273738,29.0332212 12.7138942,29.1755409 12.4292548,29.1755409 C12.1683353,29.1755409 11.9311358,29.0332212 11.9311358,28.8434615 C11.9311358,28.6537019 12.1446154,28.5113822 12.4292548,28.5113822 C12.7138942,28.5113822 12.9273738,28.6537019 12.9273738,28.8434615 Z M14.303131,29.6025 C14.303131,29.7922596 14.0896514,29.9345793 13.805012,29.9345793 C13.5440925,29.9345793 13.306893,29.7922596 13.306893,29.6025 C13.306893,29.4127404 13.5203726,29.2704207 13.805012,29.2704207 C14.0896514,29.2704207 14.303131,29.4127404 14.303131,29.6025 Z M15.1333293,30.598738 C15.1333293,30.7884976 14.9198498,30.9308173 14.6352103,30.9308173 C14.3742909,30.9308173 14.1370913,30.7884976 14.1370913,30.598738 C14.1370913,30.4089784 14.3505709,30.2666587 14.6352103,30.2666587 C14.9198498,30.2429387 15.1333293,30.4089784 15.1333293,30.598738 Z M15.8923678,31.7372957 C15.8923678,31.9270553 15.6788882,32.069375 15.3942488,32.069375 C15.1333293,32.069375 14.8961298,31.9270553 14.8961298,31.7372957 C14.8961298,31.5475361 15.1096094,31.4052163 15.3942488,31.4052163 C15.6788882,31.3814964 15.8923678,31.5475361 15.8923678,31.7372957 Z M16.7225661,32.7809736 C16.7225661,32.9707332 16.5090865,33.1130529 16.2244471,33.1130529 C15.9635276,33.1130529 15.7263281,32.9707332 15.7263281,32.7809736 C15.7263281,32.5912139 15.9398077,32.4488942 16.2244471,32.4488942 C16.5090865,32.4488942 16.7225661,32.5912139 16.7225661,32.7809736 Z M17.8611238,33.7060517 C17.8611238,33.8958113 17.6476442,34.038131 17.3630048,34.038131 C17.1020853,34.038131 16.8648858,33.8958113 16.8648858,33.7060517 C16.8648858,33.5162921 17.0783654,33.3739724 17.3630048,33.3739724 C17.6476442,33.3502524 17.8611238,33.5162921 17.8611238,33.7060517 Z M19.4503606,34.2990505 C19.4503606,34.4888101 19.236881,34.6311298 18.9522416,34.6311298 C18.6913221,34.6311298 18.4541226,34.4888101 18.4541226,34.2990505 C18.4541226,34.1092909 18.6676022,33.9669712 18.9522416,33.9669712 C19.236881,33.9669712 19.4503606,34.1092909 19.4503606,34.2990505 Z M21.0395974,34.2990505 C21.0395974,34.4888101 20.8261178,34.6311298 20.5414784,34.6311298 C20.2805589,34.6311298 20.0433594,34.4888101 20.0433594,34.2990505 C20.0433594,34.1092909 20.2568389,33.9669712 20.5414784,33.9669712 C20.8261178,33.9669712 21.0395974,34.1092909 21.0395974,34.2990505 Z M22.6525541,34.038131 C22.6525541,34.2278906 22.4390745,34.3702103 22.1544351,34.3702103 C21.8935156,34.3702103 21.6563161,34.2278906 21.6563161,34.038131 C21.6563161,33.8483714 21.8697957,33.7060517 22.1544351,33.7060517 C22.4153546,33.7060517 22.6525541,33.8483714 22.6525541,34.038131 Z"/>
    </g>
  </g>
</svg>
