<?xml version="1.0" encoding="utf-8"?>
<!-- Generator: Adobe Illustrator 22.1.0, SVG Export Plug-In . SVG Version: 6.00 Build 0)  -->
<svg version="1.1" id="Layer_1" xmlns="http://www.w3.org/2000/svg" xmlns:xlink="http://www.w3.org/1999/xlink" x="0px" y="0px"
	 viewBox="0 0 1090 622" style="enable-background:new 0 0 1090 622;" xml:space="preserve">
<style type="text/css">
	.st0{fill:#AABAC8;fill-opacity:0.1;}
	.st1{fill:#4296B4;}
	.st2{fill:#80C4D6;}
	.st3{fill:#E2F0F7;}
	.st4{fill:#EEFAFF;}
	.st5{fill:#FFFFFF;}
	.st6{fill:#87AF9A;}
	.st7{fill:#759684;}
	.st8{opacity:0.42;}
	.st9{fill:#099CEC;}
	.st10{fill:none;}
	.st11{fill:#026FB6;}
	.st12{fill:#4D5C64;}
	.st13{opacity:5.000000e-02;enable-background:new    ;}
	.st14{fill:#066DA5;}
</style>
<g transform="translate(73 103)">
	<path class="st0" d="M134.8,425.5C96.2,442.2-10.4,448.7,1.4,472.7c15.7,31.4,101.6,44.1,279.8,26c88.5-8.7,180.2-15.1,233.2-9.3
		c53.7,5.8,143.4,38.3,267.8,14.5c192.6-35.3,241.9-103.6,178.8-115c-174.8-32.9-265,12.2-338.9,11.8c-19.2-0.1-293.1-62-408.4-35.1
		C98.5,393.3,175.5,408,134.8,425.5z"/>
	<g transform="translate(396.297 183.497)">
		<path class="st1" d="M152.7,78.9v175.9h-11V86.5c-0.3-16.9-4.8-33.4-14.6-46.2l-1.6-2.1c-11.6-15.9-30-25.3-49.7-25.5l0,0
			c-19.7,0.4-38,10.1-49.4,26.1C16.4,52.5,11,69.1,11.1,86.1V243c-0.1,4.5,1.8,8.8,5.3,11.7h-1.6c-3.9,0-7.7-1.5-10.4-4.3
			S0,243.9,0,240V78.5c0-17.8,6.4-35.1,17.9-48.7C32.3,12.8,53.4,3,75.7,2.9l0,0c22.2-0.2,43.4,9.4,58,26.2l1.9,2.2
			C146.7,44.6,152.8,61.4,152.7,78.9L152.7,78.9z"/>
		<path class="st2" d="M141.7,86.5v168.2h-32.1v-95.4c0-2.9-1.2-5.6-3.2-7.6s-4.8-3.1-7.6-3.1H51.9c-2.9,0-5.6,1.1-7.6,3.1
			s-3.2,4.8-3.2,7.6v95.4H11V86.2c-0.1-17,5.3-33.6,15.3-47.3c11.4-16,29.7-25.7,49.4-26.1l0,0c19.7,0.1,38.1,9.6,49.7,25.5l1.6,2.1
			C136.9,53.1,141.4,69.6,141.7,86.5z"/>
		<path class="st3" d="M109.4,254.7v-95.4c0-2.9-1.2-5.6-3.2-7.6s-4.8-3.1-7.6-3.1H51.8c-2.9,0-5.6,1.1-7.6,3.1s-3.2,4.8-3.2,7.6
			v95.4H109.4z M339,254.7H152.7v-176h202V239c0,4.2-1.6,8.2-4.6,11.1C347.2,253.1,343.2,254.7,339,254.7L339,254.7z"/>
		<path class="st4" d="M134.2,29.6c11.9,13.7,18.4,31.1,18.5,49.2l202,0.1c0-18.1-6.6-35.7-18.5-49.4l-0.4-0.5
			c-14.6-16.9-36-26.5-58.3-26.2H75.8c22.2-0.2,43.4,9.4,58,26.2L134.2,29.6z"/>
		<path class="st5" d="M27.9,125.9l1.3-1.8c1.8,1.2,3.9,1.9,6,1.8c2.2,0,3.2-0.9,3.2-1.9c0-1.1-0.6-1.6-4.1-2.3
			c-3.5-0.7-5.5-2-5.5-4.2s2.1-4.1,6-4.1c2,0.1,4,0.7,5.7,1.8l-1.3,1.8c-1.4-0.9-3-1.4-4.7-1.4c-2.1,0-2.9,0.8-2.9,1.8
			s1.1,1.5,3.9,2.1c4.6,1,5.7,2.2,5.7,4.4s-2.3,4.3-6.5,4.3C32.3,128.1,29.9,127.3,27.9,125.9L27.9,125.9z M49,122.1v-6.2h-3.9v-2.1
			h4l0.4-4.4h2.4v4.3h6.7v2.3h-6.7v6.2c0,2.4,0.8,3.6,3.4,3.6c1.1,0,2.2-0.2,3.2-0.6l0.6,2.1c-1.4,0.5-2.9,0.8-4.5,0.8
			C50.4,128,49,125.6,49,122.1z M62.7,122.3v-8.6h2.9v8.3c0,2.5,0.8,3.6,2.9,3.6c1.6-0.1,3.1-0.9,3.9-2.3v-9.7h2.9v14h-2.3l-0.2-2.3
			l0,0c-1.2,1.6-3.1,2.6-5.1,2.7C64.2,128,62.7,125.9,62.7,122.3z M79.5,120.6c-0.2-1.8,0.4-3.6,1.6-5c1.2-1.4,2.9-2.2,4.7-2.3
			c1.5,0,3,0.6,4,1.7l0,0l-0.1-2.5v-5.2h2.9v20.3h-2.3l-0.1-1.7l0,0c-1.2,1.2-2.7,2-4.4,2.1C81.9,128,79.5,125.3,79.5,120.6z
			 M89.8,123.7v-6.6c-0.9-0.9-2.1-1.4-3.3-1.4c-2.2,0-4,1.9-4,5s1.4,5,3.8,5C87.7,125.6,89,124.9,89.8,123.7L89.8,123.7z M104,115.9
			h-6.3v-2.3h9.2v14H104V115.9z M103,108.8c0-0.9,0.4-1.7,1.2-2.1s1.7-0.2,2.4,0.4c0.6,0.6,0.8,1.5,0.5,2.4c-0.3,0.8-1.1,1.4-2,1.4
			c-0.6,0-1.1-0.2-1.5-0.6S103,109.3,103,108.8z M114.1,120.6c0.2-3.8,3.4-6.9,7.2-6.8c3.8,0.1,6.9,3.3,6.8,7.1
			c-0.1,3.9-3.2,6.9-7,6.9c-1.9,0-3.8-0.7-5.1-2.1C114.7,124.4,114,122.6,114.1,120.6z M125.2,120.6c0-3-1.6-5-4.1-5
			c-2.5,0-4.1,2-4.1,5c0,3,1.6,5,4.1,5C123.7,125.6,125.3,123.7,125.2,120.6L125.2,120.6z"/>
		<path class="st6" d="M92.3,254.7c-1.1,0-2-0.9-2-2v-20c0-1.1,0.9-2,2-2s2,0.9,2,2v20C94.3,253.8,93.4,254.7,92.3,254.7L92.3,254.7
			z"/>
		<path class="st7" d="M75.2,222.8c3.5-2.2,7.9-2.2,11.4,0c3.7,1.9,5.9,5.8,5.7,10c-3.5,2.2-7.9,2.2-11.4,0
			C77.3,230.9,75,227,75.2,222.8L75.2,222.8z"/>
		<path class="st6" d="M75.2,222.8c3.5-2.2,7.9-2.2,11.4,0c3.7,1.9,5.9,5.8,5.7,10L75.2,222.8z"/>
		<path class="st7" d="M109.5,222.8c-3.5-2.2-7.9-2.2-11.4,0c-3.7,1.9-5.9,5.8-5.7,10c3.5,2.2,7.9,2.2,11.4,0
			C107.4,230.9,109.7,227,109.5,222.8L109.5,222.8z"/>
		<path class="st6" d="M109.5,222.8c-3.5-2.2-7.9-2.2-11.4,0c-3.7,1.9-5.9,5.8-5.7,10L109.5,222.8z"/>
		<g transform="translate(168.778 203.209)" class="st8">
			<path class="st6" d="M50.7,51.5c-1.1,0-2-0.9-2-2v-20c0-1.1,0.9-2,2-2c1.1,0,2,0.9,2,2v20C52.7,50.6,51.8,51.5,50.7,51.5z"/>
			<path class="st7" d="M33.6,19.6c3.5-2.2,7.9-2.2,11.4,0c3.7,1.9,5.9,5.8,5.7,10c-3.5,2.2-7.9,2.2-11.4,0
				C35.6,27.7,33.4,23.8,33.6,19.6L33.6,19.6z"/>
			<path class="st6" d="M33.6,19.6c3.5-2.2,7.9-2.2,11.4,0c3.7,1.9,5.9,5.8,5.7,10L33.6,19.6z"/>
			<path class="st7" d="M67.9,19.6c-3.5-2.2-7.9-2.2-11.4,0c-3.7,1.9-5.9,5.8-5.7,10c3.5,2.2,7.9,2.2,11.4,0
				C65.8,27.7,68,23.8,67.9,19.6L67.9,19.6z"/>
			<path class="st6" d="M67.9,19.6c-3.5-2.2-7.9-2.2-11.4,0c-3.7,1.9-5.9,5.8-5.7,10L67.9,19.6z"/>
			<path class="st6" d="M26.7,51.5c-1.1,0-2-0.9-2-2V18.6c0-1.1,0.9-2,2-2c1.1,0,2,0.9,2,2v30.8c0,0.5-0.2,1.1-0.6,1.5
				C27.7,51.3,27.2,51.5,26.7,51.5L26.7,51.5z"/>
			<path class="st7" d="M0.2,3.3c5.5-3.4,12.3-3.4,17.8,0c5.6,3.1,8.9,9.1,8.6,15.4c-5.5,3.4-12.3,3.4-17.8,0
				C3.2,15.6-0.1,9.6,0.2,3.3L0.2,3.3z"/>
			<path class="st6" d="M0.2,3.3c5.5-3.4,12.3-3.4,17.8,0c5.6,3.1,8.9,9.1,8.6,15.4L0.2,3.3z"/>
			<path class="st7" d="M53.3,3.3c-5.5-3.4-12.3-3.4-17.8,0c-5.6,3.1-8.9,9.1-8.6,15.4c5.5,3.4,12.3,3.4,17.8,0
				C50.2,15.6,53.6,9.6,53.3,3.3L53.3,3.3z"/>
			<path class="st6" d="M53.3,3.3c-5.5-3.4-12.3-3.4-17.8,0c-5.6,3.1-8.9,9.1-8.6,15.4L53.3,3.3z"/>
			<path class="st6" d="M115.4,51.5c-1.1,0-2-0.9-2-2v-20c0-1.1,0.9-2,2-2s2,0.9,2,2v20C117.4,50.6,116.5,51.5,115.4,51.5z"/>
			<path class="st7" d="M98.3,19.6c3.5-2.2,7.9-2.2,11.4,0c3.7,1.9,5.9,5.8,5.7,10c-3.5,2.2-7.9,2.2-11.4,0
				C100.3,27.7,98.1,23.8,98.3,19.6L98.3,19.6z"/>
			<path class="st6" d="M98.3,19.6c3.5-2.2,7.9-2.2,11.4,0c3.7,1.9,5.9,5.8,5.7,10L98.3,19.6z"/>
			<path class="st7" d="M132.5,19.6c-3.5-2.2-7.9-2.2-11.4,0c-3.7,1.9-5.9,5.8-5.7,10c3.5,2.2,7.9,2.2,11.4,0
				C130.5,27.7,132.7,23.8,132.5,19.6L132.5,19.6z"/>
			<path class="st6" d="M132.5,19.6c-3.5-2.2-7.9-2.2-11.4,0c-3.7,1.9-5.9,5.8-5.7,10L132.5,19.6z"/>
			<path class="st6" d="M86.4,51.5c-1.1,0-2-0.9-2-2V18.6c0-1.1,0.9-2,2-2c1.1,0,2,0.9,2,2v30.8c0,0.5-0.2,1.1-0.6,1.5
				C87.4,51.3,86.9,51.5,86.4,51.5L86.4,51.5z"/>
			<path class="st7" d="M59.9,3.3c5.5-3.4,12.3-3.4,17.8,0c5.6,3.1,8.9,9.1,8.6,15.4c-5.5,3.4-12.3,3.4-17.8,0
				C62.9,15.6,59.6,9.6,59.9,3.3L59.9,3.3z"/>
			<path class="st6" d="M59.9,3.3c5.5-3.4,12.3-3.4,17.8,0c5.6,3.1,8.9,9.1,8.6,15.4L59.9,3.3z"/>
			<path class="st7" d="M112.9,3.3c-5.5-3.4-12.3-3.4-17.8,0c-5.6,3.1-8.9,9.1-8.6,15.4c5.5,3.4,12.3,3.4,17.8,0
				C109.9,15.6,113.2,9.6,112.9,3.3L112.9,3.3z"/>
			<path class="st6" d="M112.9,3.3c-5.5-3.4-12.3-3.4-17.8,0c-5.6,3.1-8.9,9.1-8.6,15.4L112.9,3.3z"/>
		</g>
	</g>
	<g transform="translate(655.185 332.326)">
		<rect x="40.1" y="49.5" class="st9" width="20.5" height="19"/>
		<rect x="15.9" y="49.5" class="st9" width="20.5" height="19"/>
		<rect x="64.3" y="49.5" class="st9" width="20.5" height="19"/>
		<rect x="88.5" y="49.5" class="st9" width="20.5" height="19"/>
		<rect x="112.7" y="49.5" class="st9" width="20.5" height="19"/>
		<rect x="40.1" y="26.7" class="st9" width="20.5" height="19"/>
		<rect x="64.3" y="26.7" class="st9" width="20.5" height="19"/>
		<rect x="88.5" y="26.7" class="st9" width="20.5" height="19"/>
		<rect x="88.5" y="3.8" class="st9" width="20.5" height="19"/>
		<path class="st9" d="M194.1,55.4c-4.2-2.9-15.2-4.1-23.3-1.9c-0.4-8.2-4.6-15.1-12.1-21.1l-2.8-1.9l-1.9,2.8
			c-3.7,6-5.3,13.1-4.7,20.2c0.4,4.5,2,8.8,4.6,12.5c-2.1,1.7-8.7,5-17.7,4.8H3.4c-2.4,14.4,1.7,69,63.3,69
			c45.7,0,83.3-21,100.5-65.2c5.7,0.1,20.6,1,27.9-13.4c0.2-0.2,1.9-3.8,1.9-3.8L194.1,55.4z"/>
		<path class="st5" d="M82.7,137.4c-33.5,10.4-53.7-7.9-65.1-17.6c11.9-0.2,23.7-2.2,34.9-6C59.3,125.3,70.1,133.7,82.7,137.4z"/>
		<path class="st10" d="M82.7,137.4c-33.5,10.4-53.7-7.9-65.1-17.6c11.9-0.2,23.7-2.2,34.9-6C59.3,125.3,70.1,133.7,82.7,137.4z"/>
		<path class="st11" d="M50.8,110.4c-7.5,4.4-16.1,6.7-24.8,6.7c-4.4,0-8.9-0.6-13.1-1.8l2.7,4.6c12.7,2.5,25.8,0.4,37.1-6.1
			C52,112.7,51.4,111.6,50.8,110.4z"/>
		<ellipse class="st5" cx="65" cy="101.3" rx="6.5" ry="6.7"/>
		<path class="st12" d="M66,99.4c0-0.6,0.3-1.1,0.7-1.5c-0.5-0.3-1.1-0.4-1.7-0.5c-2.1,0-3.7,1.7-3.8,3.8s1.6,3.8,3.7,3.8
			c2.1,0,3.7-1.7,3.8-3.8c0-0.1,0-0.1,0-0.2c-0.3,0.2-0.6,0.2-0.9,0.2C66.8,101.3,66,100.5,66,99.4z"/>
		<path class="st13" d="M193.6,55.1c-4.1-2.8-15.6-4.2-23.3-1.9l-1.7,2.5c-24.9,52.8-56.1,75.2-98.8,76.1
			c-46.5-0.1-58.1-25.2-61.4-59.4H0.9c-1,14.4,2.6,67.3,64.6,67.3c45.8,0,83.5-21,100.9-65.1c5.7,0.1,21.5,0.1,28.5-14.4l1.4-3.1
			L193.6,55.1z"/>
		<rect x="19.6" y="53.3" class="st14" width="5.9" height="11.4"/>
		<rect x="25.2" y="53.3" class="st14" width="5.9" height="11.4"/>
		<rect x="30.8" y="53.3" class="st14" width="5.9" height="11.4"/>
		<rect x="43.8" y="53.3" class="st14" width="5.9" height="11.4"/>
		<rect x="49.4" y="53.3" class="st14" width="5.9" height="11.4"/>
		<rect x="55" y="53.3" class="st14" width="5.9" height="11.4"/>
		<rect x="68" y="53.3" class="st14" width="5.9" height="11.4"/>
		<rect x="73.6" y="53.3" class="st14" width="5.9" height="11.4"/>
		<rect x="79.2" y="53.3" class="st14" width="5.9" height="11.4"/>
		<rect x="92.2" y="53.3" class="st14" width="5.9" height="11.4"/>
		<rect x="97.8" y="53.3" class="st14" width="5.9" height="11.4"/>
		<rect x="103.4" y="53.3" class="st14" width="5.9" height="11.4"/>
		<rect x="116.4" y="53.3" class="st14" width="5.9" height="11.4"/>
		<rect x="122" y="53.3" class="st14" width="5.9" height="11.4"/>
		<rect x="127.6" y="53.3" class="st14" width="5.9" height="11.4"/>
		<rect x="49.4" y="30.5" class="st14" width="5.9" height="11.4"/>
		<rect x="55" y="30.5" class="st14" width="5.9" height="11.4"/>
		<rect x="68" y="30.5" class="st14" width="5.9" height="11.4"/>
		<rect x="73.6" y="30.5" class="st14" width="5.9" height="11.4"/>
		<rect x="79.2" y="30.5" class="st14" width="5.9" height="11.4"/>
		<rect x="92.2" y="30.5" class="st14" width="5.9" height="11.4"/>
		<rect x="97.8" y="30.5" class="st14" width="5.9" height="11.4"/>
		<rect x="103.4" y="30.5" class="st14" width="5.9" height="11.4"/>
		<rect x="97.8" y="7.6" class="st14" width="5.9" height="11.4"/>
		<rect x="92.2" y="7.6" class="st14" width="5.9" height="11.4"/>
		<rect x="103.4" y="7.6" class="st14" width="5.9" height="11.4"/>
		<rect x="43.8" y="30.5" class="st14" width="5.9" height="11.4"/>
		<path class="st14" d="M194.5,53.5c-4.5-3.1-14.7-4.2-22.7-2.7c-1-7.7-5.3-14.4-12.7-20.3l-4.4-3l-2.9,4.5
			c-3.9,6.4-5.6,13.9-5,21.4c0.4,4.2,1.7,8.2,3.8,11.8c-4.3,2.2-9.1,3.4-13.9,3.4V45.7h-24.2V0H84.8v22.9H36.4v22.8H12.2v22.8h-11
			l-0.3,1.6c-0.8,5.8-0.7,11.7,0.2,17.5c1.1,8.3,3.7,16.3,7.6,23.7c10.3,19,29.1,30.1,57.2,30.1c47.9,0,84.6-22.6,101.8-65.2
			c4.8,0.3,9.7-0.3,14.3-1.9c6.1-2.1,11.1-6.6,14-12.5c0.2-0.3,0.4-0.8,1-2l0.6-1.3l0.3-0.6l0.7-1.5L194.5,53.5z M112.7,49.5h20.5
			v19h-20.5V49.5z M88.5,3.8H109v19H88.5V3.8z M88.5,26.7H109v19H88.5V26.7z M88.5,49.5H109v19H88.5V49.5z M64.3,26.7h20.5v19H64.3
			V26.7z M64.3,49.5h20.5v19H64.3V49.5z M40.1,26.7h20.5v19H40.1V26.7z M40.1,49.5h20.5v19H40.1V49.5z M15.9,49.5h20.5v19H15.9V49.5
			z M193.7,58.2l-0.6,1.2c-0.1,0.2-0.2,0.3-0.3,0.6c-2.4,5.1-6.7,8.9-12,10.7c-4.3,1.4-8.8,2-13.3,1.7h-1h-1.3l-0.5,1.2
			c-16.3,41.8-51.8,64-98.8,64c-26.8,0-44.3-10.4-54-28.2c-3.7-7-6.2-14.5-7.2-22.4c-0.7-4.9-0.9-9.8-0.4-14.7h132.5l0,0
			c7.4-0.1,14.3-2.4,17.7-5.2l1.5-1.2l-1.2-1.5c-2.4-3.3-3.9-7.3-4.2-11.4c-0.6-6.6,1-13.2,4.3-18.9l0.8-1.3l1.2,0.8
			c7.2,5.8,10.9,12.2,11.3,19.7l0.1,2.4l2.2-0.6c7.2-2,17.9-1,21.7,1.7l1.4,1L193.7,58.2z"/>
	</g>
</g>
</svg>
