<?xml version="1.0" encoding="utf-8"?>
<!-- Generator: Adobe Illustrator 22.1.0, SVG Export Plug-In . SVG Version: 6.00 Build 0)  -->
<svg version="1.1" id="Layer_1" xmlns="http://www.w3.org/2000/svg" xmlns:xlink="http://www.w3.org/1999/xlink" x="0px" y="0px"
	 viewBox="0 0 566 128" style="enable-background:new 0 0 566 128;" xml:space="preserve">
<style type="text/css">
	.st0{fill:#627B8F;}
	.st1{fill-opacity:0.1;}
	.st2{fill:none;stroke:#DEBFA5;}
	.st3{fill:#DDC7AE;}
	.st4{fill:#C6B29C;}
	.st5{fill:#A2BD7C;}
	.st6{fill:#FFE9D1;}
	.st7{fill:#837365;}
	.st8{fill:none;stroke:#827365;stroke-linecap:round;stroke-linejoin:round;}
	.st9{fill:#827365;}
	.st10{fill:#FF9012;}
	.st11{fill:#FFE48F;}
	.st12{fill:#B9DA8D;}
	.st13{fill:#FFFFFF;}
	.st14{fill:#54C7F1;}
	.st15{fill:#BDC3C7;}
	.st16{filter:url(#Adobe_OpacityMaskFilter);}
	.st17{mask:url(#mask-2_1_);fill:#009AD7;}
	.st18{fill:#E2F0F7;}
	.st19{fill:#F3FCFF;}
	.st20{fill:#009AD7;}
	.st21{filter:url(#Adobe_OpacityMaskFilter_1_);}
	.st22{mask:url(#mask-4_1_);fill:#35CCFF;}
	.st23{fill:#BFEC80;}
	.st24{fill:#AAE655;}
	.st25{fill:#759684;}
	.st26{fill:#35CCFF;}
	.st27{filter:url(#Adobe_OpacityMaskFilter_2_);}
	.st28{mask:url(#mask-6_1_);fill:#009AD7;}
	.st29{filter:url(#Adobe_OpacityMaskFilter_3_);}
	.st30{mask:url(#mask-8_1_);fill:#35CCFF;}
	.st31{filter:url(#Adobe_OpacityMaskFilter_4_);}
	.st32{mask:url(#mask-10_1_);fill:#009AD7;}
	.st33{filter:url(#Adobe_OpacityMaskFilter_5_);}
	.st34{mask:url(#mask-12_1_);fill:#35CCFF;}
	.st35{filter:url(#Adobe_OpacityMaskFilter_6_);}
	.st36{mask:url(#mask-14_1_);fill:#009AD7;}
	.st37{filter:url(#Adobe_OpacityMaskFilter_7_);}
	.st38{mask:url(#mask-16_1_);fill:#35CCFF;}
	.st39{filter:url(#Adobe_OpacityMaskFilter_8_);}
	.st40{mask:url(#mask-18_1_);fill:#009AD7;}
	.st41{filter:url(#Adobe_OpacityMaskFilter_9_);}
	.st42{mask:url(#mask-20_1_);fill:#35CCFF;}
	.st43{fill:#099CEC;}
	.st44{filter:url(#Adobe_OpacityMaskFilter_10_);}
	.st45{mask:url(#mask-22_1_);fill:#FFFFFF;}
	.st46{filter:url(#Adobe_OpacityMaskFilter_11_);}
	.st47{mask:url(#mask-22_2_);fill:#026FB6;}
	.st48{filter:url(#Adobe_OpacityMaskFilter_12_);}
	.st49{mask:url(#mask-22_3_);fill:#FFFFFF;}
	.st50{filter:url(#Adobe_OpacityMaskFilter_13_);}
	.st51{mask:url(#mask-22_4_);fill:#4D5C64;}
	.st52{filter:url(#Adobe_OpacityMaskFilter_14_);}
	.st53{opacity:5.000000e-02;mask:url(#mask-22_5_);enable-background:new    ;}
	.st54{fill:none;stroke:#EB6852;}
	.st55{fill:#EB6852;}
	.st56{fill:#708496;}
</style>
<title>habicat-and-moby@1x</title>
<desc>Created with Sketch.</desc>
<g id="Habitat-SaaS-Onboarding_x2F_desktop">
	<g id="Habitat-5-mins-flow-V2---end-2" transform="translate(-434.000000, -29.000000)">
		<g id="habicat-and-moby" transform="translate(434.000000, 26.844297)">
			<g id="Group-12-Copy" transform="translate(0.000000, 3.452745)">
				<g id="Group-9">
					<ellipse id="Oval-5" class="st0" cx="2.3" cy="16.5" rx="1.9" ry="1.9"/>
					<ellipse id="Oval-5-Copy" class="st0" cx="11.3" cy="13" rx="1.6" ry="1.6"/>
					<ellipse id="Oval-5-Copy-3" class="st0" cx="6.9" cy="9.8" rx="1.6" ry="1.6"/>
					<ellipse id="Oval-5-Copy-4" class="st0" cx="3.6" cy="2.2" rx="1.6" ry="1.6"/>
				</g>
				<g id="Group-8" transform="translate(0.000000, 17.060623)">
					<g id="Group-5">
						<path id="Shape-Copy-5" class="st0" d="M19.2,79.1c-0.2-0.4-0.1-0.8,0.2-0.9L35,70.6c0.6-0.2,1.4-0.1,2.2,0.3
							c0.5,0.2,0.9,0.6,1.3,1c0,0,0,0,0,0c1.2,1.2,1.7,2.6,1.2,3.6l-8.3,15.2c-0.1,0.3-0.5,0.4-0.9,0.2c-0.2-0.1-0.4-0.2-0.6-0.4
							c-0.2-0.2-0.3-0.4-0.4-0.6c0,0,0.4-2.9-0.6-3.9c-1-1-3.7-0.4-3.7-0.4c-0.2-0.1-0.4-0.2-0.6-0.4c-0.2-0.2-0.3-0.4-0.4-0.6
							c0,0,0.4-2.7-0.6-3.7c-1-1-3.7-0.6-3.7-0.6c-0.2-0.1-0.4-0.2-0.6-0.4C19.4,79.5,19.2,79.3,19.2,79.1z"/>
						<path id="Shape-Copy-7" class="st0" d="M42.3,79c-0.3-0.3-0.3-0.7-0.1-0.9l12.3-12.3c0.5-0.4,1.3-0.6,2.2-0.4
							c0.5,0.1,1.1,0.3,1.6,0.5c0,0,0,0,0.1,0c1.5,0.8,2.4,1.9,2.3,3l-2.9,17c0,0.3-0.4,0.5-0.8,0.5c-0.2,0-0.4-0.1-0.7-0.2
							c-0.2-0.1-0.4-0.3-0.6-0.4c0,0-0.5-2.9-1.8-3.6c-1.3-0.6-3.6,0.8-3.6,0.8c-0.2,0-0.5-0.1-0.7-0.2c-0.2-0.1-0.4-0.3-0.6-0.4
							c0,0-0.5-2.7-1.7-3.3c-1.3-0.6-3.7,0.6-3.7,0.6c-0.2,0-0.4-0.1-0.7-0.2C42.6,79.3,42.4,79.1,42.3,79z"/>
						
							<rect id="Rectangle-3" x="56.6" y="59.7" transform="matrix(0.9511 -0.309 0.309 0.9511 -15.8743 21.3427)" class="st1" width="5.8" height="2.1"/>
						<path id="Path-3" class="st2" d="M23.9,12.1c5.9-1.1,10.1,4.8,11,7.8"/>
						<path id="Shape-Copy" class="st3" d="M35.1,74.8c0.9,1.9,3.2,2.1,4.6,0c1.4-2.1,2.7-4.9,2.1-9s-6.2-2.3-5.4,1.7
							C37.1,71.6,34.2,73,35.1,74.8z"/>
						<path id="Shape-Copy-8" class="st3" d="M55.2,68.9c0.9,1.9,3.2,2.1,4.6,0c1.4-2.1,2.7-4.9,2.1-9s-6.2-2.3-5.4,1.7
							C57.1,65.7,54.3,67,55.2,68.9z"/>
						<path id="Combined-Shape" class="st4" d="M37.3,64.4c-0.8,0.7-1.2,1.8-1,3.2c0.7,4.1-2.1,5.4-1.2,7.3s3.2,2.1,4.6,0
							c0.2-0.3,0.3-0.5,0.5-0.8c-1.4,1.7-3.5,1.3-4.3-0.4c-0.9-1.9,2-3.2,1.2-7.3C37,65.6,37.1,65,37.3,64.4z"/>
						<path id="Combined-Shape-Copy" class="st4" d="M57.4,58.4c-0.8,0.7-1.2,1.8-1,3.2c0.7,4.1-2.1,5.4-1.2,7.3
							c0.9,1.9,3.2,2.1,4.6,0c0.2-0.3,0.3-0.5,0.5-0.8c-1.4,1.7-3.5,1.3-4.3-0.4c-0.9-1.9,2-3.2,1.2-7.3
							C57.1,59.7,57.1,59,57.4,58.4z"/>
						<path id="Shape-Copy-3" class="st3" d="M68.3,25.4c-1.5-0.6-3.1,0.1-3.7,1.6l-3.9,9.7l5.3,2.2l3.9-9.7
							C70.5,27.7,69.8,26,68.3,25.4z"/>
						<path id="Rectangle-6" class="st3" d="M52,13.4L9.8,27.1c-3.2,1-4.9,4.4-3.9,7.6l10.6,32.8c1,3.2,4.4,4.9,7.6,3.9l42.2-13.7
							c3.2-1,4.9-4.4,3.9-7.6L59.6,17.2C58.6,14.1,55.2,12.4,52,13.4z"/>
						<path id="Rectangle-6_1_" class="st5" d="M62.4,45.2l-48,15.6l2.3,7l0,0c1,3.2,4.4,4.9,7.6,3.9l42.2-13.7l0,0
							c3.2-1,4.9-4.4,3.9-7.6L70,49l0,0C68.9,45.9,65.6,44.2,62.4,45.2z"/>
						<path id="Rectangle-6-Copy" class="st6" d="M54.6,14.8l-36,11.7c-2.1,0.7-3.3,2.9-2.6,5l11.1,34.2c0.7,2.1,2.9,3.3,5,2.6
							l36-11.7c2.1-0.7,3.3-2.9,2.6-5L59.6,17.4C58.9,15.3,56.7,14.1,54.6,14.8z"/>
						
							<ellipse id="Oval-Copy" transform="matrix(0.9511 -0.309 0.309 0.9511 -6.1736 16.9404)" class="st7" cx="50.4" cy="28" rx="1.2" ry="1.2"/>
						
							<ellipse id="Oval-Copy-2" transform="matrix(0.9511 -0.309 0.309 0.9511 -9.2143 10.93)" class="st7" cx="29.9" cy="34.6" rx="1.2" ry="1.2"/>
						<path id="Shape-Copy-4" class="st7" d="M39.5,37.7l0.8,0.3c1.2,0.5,3,0,4-1c0.1-0.1,0.2-0.2,0.3-0.3l0.5-0.7
							c0.2-0.2,0-0.5-0.3-0.6c-0.1,0-0.3,0-0.4,0l-4.6,1.5c-0.3,0.1-0.6,0.4-0.5,0.6C39.3,37.6,39.4,37.6,39.5,37.7z"/>
						<path id="Line-6" class="st8" d="M62.3,30.3l-2,0.7"/>
						<path id="Line-6-Copy-3" class="st8" d="M24,42.9l-2,0.7"/>
						<path id="Line-6-Copy" class="st8" d="M61.4,27.6l-2,0.7"/>
						<path id="Line-6-Copy-4" class="st8" d="M23,39.9l-2,0.7"/>
						<path id="Line-6-Copy-2" class="st8" d="M63.4,33.7l-2,0.7"/>
						<path id="Line-6-Copy-5" class="st8" d="M25,46l-2,0.7"/>
						
							<g id="Group-2" transform="translate(24.735809, 20.132572) scale(-1, 1) rotate(18.000000) translate(-24.735809, -20.132572) translate(19.235809, 16.632572)">
							<path id="Triangle-Copy-4" class="st3" d="M7.7,2.4l2.4,4.2L0,6.6l2.4-4.2l0,0c0.8-1.4,2.7-1.9,4.1-1.1
								C7,1.5,7.4,1.9,7.7,2.4z"/>
							<path id="Triangle-Copy-5" class="st9" d="M6,4.8l1,1.8l-3.8,0l1-1.8l0,0c0.3-0.5,0.9-0.6,1.4-0.4C5.7,4.5,5.9,4.7,6,4.8z"/>
						</g>
						
							<g id="Group-2-Copy" transform="translate(44.547302, 13.758537) scale(-1, 1) rotate(18.000000) translate(-44.547302, -13.758537) translate(39.047302, 10.258537)">
							<path id="Triangle-Copy-4_1_" class="st3" d="M7.7,2.4l2.4,4.2L0,6.6l2.4-4.2l0,0c0.8-1.4,2.7-1.9,4.1-1.1
								C7,1.5,7.4,1.9,7.7,2.4z"/>
							<path id="Triangle-Copy-5_1_" class="st9" d="M6,4.8l1,1.8l-3.8,0l1-1.8l0,0c0.3-0.5,0.9-0.6,1.4-0.4C5.7,4.5,5.9,4.7,6,4.8z
								"/>
						</g>
						<polygon id="Rectangle-3-Copy" class="st1" points="41.7,65.4 36.3,67.1 36.4,69.3 42.4,67.4 						"/>
						<polygon id="Rectangle-3-Copy-3" class="st1" points="61.8,59.4 56.3,61.2 56.4,63.4 62.4,61.4 						"/>
						<path id="Shape-Copy-6" class="st3" d="M1.3,47.1c-0.5,1.5,0.4,3.1,1.9,3.6l10,3.1l1.7-5.5l-10-3.1
							C3.3,44.7,1.7,45.6,1.3,47.1z"/>
						
							<g id="Group-28" transform="translate(23.791240, 12.375440) scale(-1, 1) rotate(18.000000) translate(-23.791240, -12.375440) translate(17.291240, 6.375440)">
							<g id="Group-27" transform="translate(-0.000000, 0.000000)">
								<g id="Group-25" transform="translate(2.606433, 1.600356)">
									<ellipse id="Oval-2" class="st10" cx="5.9" cy="3.7" rx="1.6" ry="-1.1"/>
									<ellipse id="Oval-2_1_" class="st10" cx="3.8" cy="1.6" rx="1.1" ry="-1.6"/>
									<ellipse id="Oval-2_2_" class="st10" cx="1.6" cy="3.7" rx="1.6" ry="-1.1"/>
									<ellipse id="Oval-2_3_" class="st10" cx="3.8" cy="5.9" rx="1.1" ry="-1.6"/>
								</g>
								
									<g id="Group-25_1_" transform="translate(6.350196, 5.683097) rotate(45.000000) translate(-6.350196, -5.683097) translate(2.350196, 1.683097)">
									<ellipse id="Oval-2_4_" class="st10" cx="5.9" cy="3.7" rx="1.6" ry="-1.1"/>
									<ellipse id="Oval-2_5_" class="st10" cx="3.8" cy="1.6" rx="1.1" ry="-1.6"/>
									<ellipse id="Oval-2_6_" class="st10" cx="1.6" cy="3.7" rx="1.6" ry="-1.1"/>
									<ellipse id="Oval-2_7_" class="st10" cx="3.8" cy="5.9" rx="1.1" ry="-1.6"/>
								</g>
							</g>
							<path id="Fill-4" class="st11" d="M6.4,6.4c-0.6,0-1.1-0.5-1.1-1.1c0-0.6,0.5-1.1,1.1-1.1c0.6,0,1.1,0.5,1.1,1.1
								C7.5,5.9,7,6.4,6.4,6.4"/>
						</g>
						<path id="Rectangle-6-Copy_1_" class="st12" d="M68.1,43.3L24.5,57.5l2.9,8.9l0,0c0.7,2.1,2.9,3.3,5,2.6l36-11.7l0,0
							c2.1-0.7,3.3-2.9,2.6-5L68.1,43.3z"/>
						<path id="Rectangle-Copy-9" class="st13" d="M41.6,33.9L41.6,33.9L41.6,33.9c4.5-1.5,9.3,1,10.7,5.5l2.6,8.1l-16.2,5.3
							l-2.6-8.1l0,0C34.6,40.2,37.1,35.3,41.6,33.9z"/>
						
							<g id="Group-4" transform="translate(24.023437, 26.171700) rotate(-18.000000) translate(-24.023437, -26.171700) translate(10.023437, 3.671700)">
							<path id="Shape_1_" class="st0" d="M0,2.7l0,33c0,4.7,3.8,8.5,8.5,8.5l8.6,0c0-0.1,0-0.1,0-0.2v-4.2c0-0.1,0-0.1,0-0.2H8.5
								c-2.1,0-3.9-1.7-3.9-3.8l0-33l0,0c0-1.3-1-2.3-2.3-2.3l0,0l0,0C1,0.3,0,1.4,0,2.7z"/>
							<path id="Rectangle-path" class="st14" d="M2.3,0.3L2.3,0.3L2.3,0.3c1.3,0,2.3,1,2.3,2.3l0,4.6L0,7.2l0-4.6l0,0
								C0,1.4,1,0.3,2.3,0.3z"/>
							<path id="Shape_2_" class="st15" d="M27,44.9h-8.9c-0.5,0-1-0.4-1-1v-4.2c0-0.5,0.4-1,1-1H27c0.5,0,1,0.4,1,1v4.2
								C27.9,44.5,27.5,44.9,27,44.9z"/>
						</g>
						
							<g id="Group-3" transform="translate(38.255586, 31.102353) rotate(-18.000000) translate(-38.255586, -31.102353) translate(16.755586, 20.602353)">
							<path id="Combined-Shape_1_" class="st10" d="M42,7.8l0,3.7v2.3c0,0.7-0.1,2.6-1.6,4.3c-1.6,1.8-4.2,2.7-7.7,2.7
								c-3.3-0.1-6.7-1.2-8.6-3.6c-0.3-0.4-0.9-0.4-1.2,0c-1.9,2.4-5.3,3.5-8.6,3.6c-3.5,0-6.1-0.9-7.7-2.7c-1.6-1.7-1.7-3.6-1.6-4
								l0-4.6c0-0.4,0-0.4,0-0.4l0-1.3C4.9,3.5,8.4,0,12.7,0l3.1,0l15.2,0l3.1,0C38.5,0,42,3.5,42,7.8z M15.8,3.1
								c-1.7,0-3.3,0.4-4.8,1.2C9.5,5.2,7.9,6.8,7.9,9.2l0,4.7c0,0-0.4,3.8,6.2,3.8c0,0,7-0.1,7-4.6c0-1.3,1-2.3,2.3-2.3
								c1.3,0,2.3,1,2.3,2.3c0,4.5,7,4.6,7,4.6c6.6,0,6.2-3.8,6.2-3.8V9.2c0-2.4-1.5-4-3.1-4.9c-1.4-0.9-3.1-1.2-4.8-1.2L15.8,3.1z"
								/>
							
								<rect id="Rectangle-path_1_" x="0" y="8.9" transform="matrix(2.679782e-06 1 -1 2.679782e-06 12.8369 7.9857)" class="st15" width="4.8" height="3.1"/>
						</g>
					</g>
				</g>
			</g>
			
				<g id="containers" transform="translate(511.304702, 21.493440) rotate(8.000000) translate(-511.304702, -21.493440) translate(490.304702, 3.493440)">
				<g id="container" transform="translate(7.077037, 0.260966)">
					<g id="Group-3_1_" transform="translate(0.000000, 10.864311)">
						<g id="Clip-2">
						</g>
						<defs>
							<filter id="Adobe_OpacityMaskFilter" filterUnits="userSpaceOnUse" x="0.4" y="-1.8" width="13.1" height="16">
								<feColorMatrix  type="matrix" values="1 0 0 0 0  0 1 0 0 0  0 0 1 0 0  0 0 0 1 0"/>
							</filter>
						</defs>
						<mask maskUnits="userSpaceOnUse" x="0.4" y="-1.8" width="13.1" height="16" id="mask-2_1_">
							<g class="st16">
								<polygon id="path-1_1_" class="st13" points="0,12.5 13.8,12.5 13.8,0.1 0,0.1 								"/>
							</g>
						</mask>
						<path id="Fill-1" class="st17" d="M13.8,0.1l0,10.8c0,0.9-0.7,1.6-1.5,1.6l-10.7,0c-0.8,0-1.5-0.7-1.5-1.6L0,0.1l0.7,0v0.1
							c0,0.2,0.3,0.4,0.7,0.4l10.8,0c0.4,0,0.7-0.2,0.7-0.4V0.1L13.8,0.1z"/>
					</g>
					<path id="Fill-4_1_" class="st18" d="M13,10.9V11c0,0.2-0.3,0.5-0.7,0.5l-10.8,0c-0.4,0-0.7-0.2-0.7-0.5v-0.1L13,10.9z"/>
					<path id="Fill-6" class="st19" d="M13,10.8V11c0,0.2-0.3,0.4-0.7,0.4l-10.8,0c-0.4,0-0.7-0.2-0.7-0.4l0-0.2
						c0-0.2,0.3-0.4,0.7-0.4l10.8,0C12.7,10.4,13,10.6,13,10.8"/>
					<path id="Fill-8" class="st20" d="M13,10.8V11c0,0.2-0.3,0.4-0.7,0.4l-10.8,0c-0.4,0-0.7-0.2-0.7-0.4l0-0.2
						c0-0.2,0.3-0.4,0.7-0.4l10.8,0C12.7,10.4,13,10.6,13,10.8"/>
					<g id="Group-12" transform="translate(0.000000, 9.884750)">
						<g id="Clip-11">
						</g>
						<defs>
							<filter id="Adobe_OpacityMaskFilter_1_" filterUnits="userSpaceOnUse" x="0.4" y="-1.8" width="13.1" height="5.7">
								<feColorMatrix  type="matrix" values="1 0 0 0 0  0 1 0 0 0  0 0 1 0 0  0 0 0 1 0"/>
							</filter>
						</defs>
						<mask maskUnits="userSpaceOnUse" x="0.4" y="-1.8" width="13.1" height="5.7" id="mask-4_1_">
							<g class="st21">
								<polygon id="path-3_1_" class="st13" points="13.8,2.1 13.8,0 0,0 0,2.1 								"/>
							</g>
						</mask>
						<path id="Fill-10" class="st22" d="M13,1.1c0,0.2-0.3,0.4-0.7,0.4l-10.8,0C1,1.5,0.7,1.4,0.7,1.1l0-0.2c0-0.2,0.3-0.4,0.7-0.4
							l10.8,0c0.4,0,0.7,0.2,0.7,0.4V1.1z M13,0L0.8,0C0.3,0,0,0.4,0,0.8l0,0.5c0,0.4,0.3,0.8,0.8,0.8l12.2,0c0.4,0,0.8-0.4,0.8-0.8
							V0.8C13.8,0.4,13.4,0,13,0L13,0z"/>
					</g>
					<path id="Fill-13" class="st23" d="M6.6,0C4.5,0,3.4,6.8,3.4,8.1c0,1.8,1.4,3.3,3.2,3.3c1.8,0,3.2-1.5,3.2-3.3
						C9.8,6.8,8.7,0,6.6,0"/>
					<path id="Fill-15" class="st24" d="M4.7,8.1c0-1.2,0.9-6.6,2.5-7.8C7.1,0.1,6.8,0,6.6,0C4.5,0,3.4,6.8,3.4,8.1
						c0,1.8,1.4,3.3,3.2,3.3c0.2,0,0.5,0,0.7-0.1C5.8,11,4.7,9.7,4.7,8.1"/>
					<path id="Fill-17" class="st25" d="M7.8,7.7c-0.2-0.2-0.5-0.2-0.7,0L7,7.9l0-0.8c0-0.3-0.2-0.5-0.5-0.5c-0.3,0-0.5,0.2-0.5,0.5
						v1.7L6,8.7c-0.2-0.2-0.5-0.2-0.7,0c-0.2,0.2-0.2,0.5,0,0.7l0.8,0.8v1.2l0.9,0V9.2l0.8-0.8C8,8.2,8,7.9,7.8,7.7"/>
					<g id="Group-21" transform="translate(0.000000, 10.864311)">
						<path id="Fill-19" class="st26" d="M13.8,0.1v0.3c0,0.4-0.3,0.8-0.8,0.8l-12.2,0C0.3,1.2,0,0.8,0,0.4l0-0.3l0.7,0v0.1
							c0,0.2,0.3,0.4,0.7,0.4l10.8,0c0.4,0,0.7-0.2,0.7-0.4V0.1L13.8,0.1z"/>
					</g>
					<path id="Fill-22" class="st26" d="M3,21.9H2.5c-0.3,0-0.5-0.2-0.5-0.5l0-7.8c0-0.3,0.2-0.5,0.5-0.5H3c0.3,0,0.5,0.2,0.5,0.5
						l0,7.8C3.4,21.7,3.2,21.9,3,21.9"/>
					<path id="Fill-24" class="st26" d="M5.7,21.9H5.3c-0.3,0-0.5-0.2-0.5-0.5l0-7.8c0-0.3,0.2-0.5,0.5-0.5h0.4
						c0.3,0,0.5,0.2,0.5,0.5l0,7.8C6.2,21.7,6,21.9,5.7,21.9"/>
					<path id="Fill-26" class="st26" d="M8.5,21.9H8.1c-0.3,0-0.5-0.2-0.5-0.5l0-7.8c0-0.3,0.2-0.5,0.5-0.5h0.4
						c0.3,0,0.5,0.2,0.5,0.5l0,7.8C8.9,21.7,8.7,21.9,8.5,21.9"/>
					<path id="Fill-28" class="st26" d="M11.2,21.9h-0.4c-0.3,0-0.5-0.2-0.5-0.5l0-7.8c0-0.3,0.2-0.5,0.5-0.5h0.4
						c0.3,0,0.5,0.2,0.5,0.5l0,7.8C11.7,21.7,11.5,21.9,11.2,21.9"/>
				</g>
				<g id="container-copy-2" transform="translate(0.000000, 11.743459)">
					<g id="Group-3_2_" transform="translate(0.000000, 10.864311)">
						<g id="Clip-2_1_">
						</g>
						<defs>
							<filter id="Adobe_OpacityMaskFilter_2_" filterUnits="userSpaceOnUse" x="0.4" y="-1.8" width="13.1" height="16">
								<feColorMatrix  type="matrix" values="1 0 0 0 0  0 1 0 0 0  0 0 1 0 0  0 0 0 1 0"/>
							</filter>
						</defs>
						<mask maskUnits="userSpaceOnUse" x="0.4" y="-1.8" width="13.1" height="16" id="mask-6_1_">
							<g class="st27">
								<polygon id="path-5_1_" class="st13" points="0,12.5 13.8,12.5 13.8,0.1 0,0.1 								"/>
							</g>
						</mask>
						<path id="Fill-1_1_" class="st28" d="M13.8,0.1l0,10.8c0,0.9-0.7,1.6-1.5,1.6l-10.7,0c-0.8,0-1.5-0.7-1.5-1.6L0,0.1l0.7,0v0.1
							c0,0.2,0.3,0.4,0.7,0.4l10.8,0c0.4,0,0.7-0.2,0.7-0.4V0.1L13.8,0.1z"/>
					</g>
					<path id="Fill-4_2_" class="st18" d="M13,10.9V11c0,0.2-0.3,0.5-0.7,0.5l-10.8,0c-0.4,0-0.7-0.2-0.7-0.5v-0.1L13,10.9z"/>
					<path id="Fill-6_1_" class="st19" d="M13,10.8V11c0,0.2-0.3,0.4-0.7,0.4l-10.8,0c-0.4,0-0.7-0.2-0.7-0.4l0-0.2
						c0-0.2,0.3-0.4,0.7-0.4l10.8,0C12.7,10.4,13,10.6,13,10.8"/>
					<path id="Fill-8_1_" class="st20" d="M13,10.8V11c0,0.2-0.3,0.4-0.7,0.4l-10.8,0c-0.4,0-0.7-0.2-0.7-0.4l0-0.2
						c0-0.2,0.3-0.4,0.7-0.4l10.8,0C12.7,10.4,13,10.6,13,10.8"/>
					<g id="Group-12_1_" transform="translate(0.000000, 9.884750)">
						<g id="Clip-11_1_">
						</g>
						<defs>
							<filter id="Adobe_OpacityMaskFilter_3_" filterUnits="userSpaceOnUse" x="0.4" y="-1.8" width="13.1" height="5.7">
								<feColorMatrix  type="matrix" values="1 0 0 0 0  0 1 0 0 0  0 0 1 0 0  0 0 0 1 0"/>
							</filter>
						</defs>
						<mask maskUnits="userSpaceOnUse" x="0.4" y="-1.8" width="13.1" height="5.7" id="mask-8_1_">
							<g class="st29">
								<polygon id="path-7_1_" class="st13" points="13.8,2.1 13.8,0 0,0 0,2.1 								"/>
							</g>
						</mask>
						<path id="Fill-10_1_" class="st30" d="M13,1.1c0,0.2-0.3,0.4-0.7,0.4l-10.8,0C1,1.5,0.7,1.4,0.7,1.1l0-0.2
							c0-0.2,0.3-0.4,0.7-0.4l10.8,0c0.4,0,0.7,0.2,0.7,0.4V1.1z M13,0L0.8,0C0.3,0,0,0.4,0,0.8l0,0.5c0,0.4,0.3,0.8,0.8,0.8l12.2,0
							c0.4,0,0.8-0.4,0.8-0.8V0.8C13.8,0.4,13.4,0,13,0L13,0z"/>
					</g>
					<path id="Fill-13_1_" class="st23" d="M6.6,0C4.5,0,3.4,6.8,3.4,8.1c0,1.8,1.4,3.3,3.2,3.3c1.8,0,3.2-1.5,3.2-3.3
						C9.8,6.8,8.7,0,6.6,0"/>
					<path id="Fill-15_1_" class="st24" d="M4.7,8.1c0-1.2,0.9-6.6,2.5-7.8C7.1,0.1,6.8,0,6.6,0C4.5,0,3.4,6.8,3.4,8.1
						c0,1.8,1.4,3.3,3.2,3.3c0.2,0,0.5,0,0.7-0.1C5.8,11,4.7,9.7,4.7,8.1"/>
					<path id="Fill-17_1_" class="st25" d="M7.8,7.7c-0.2-0.2-0.5-0.2-0.7,0L7,7.9l0-0.8c0-0.3-0.2-0.5-0.5-0.5
						c-0.3,0-0.5,0.2-0.5,0.5v1.7L6,8.7c-0.2-0.2-0.5-0.2-0.7,0c-0.2,0.2-0.2,0.5,0,0.7l0.8,0.8v1.2H7V9.2l0.8-0.8
						C8,8.2,8,7.9,7.8,7.7"/>
					<g id="Group-21_1_" transform="translate(0.000000, 10.864311)">
						<path id="Fill-19_1_" class="st26" d="M13.8,0.1v0.3c0,0.4-0.3,0.8-0.8,0.8l-12.2,0C0.3,1.2,0,0.8,0,0.4l0-0.3l0.7,0v0.1
							c0,0.2,0.3,0.4,0.7,0.4l10.8,0c0.4,0,0.7-0.2,0.7-0.4V0.1L13.8,0.1z"/>
					</g>
					<path id="Fill-22_1_" class="st26" d="M3,21.9H2.5c-0.3,0-0.5-0.2-0.5-0.5l0-7.8c0-0.3,0.2-0.5,0.5-0.5H3
						c0.3,0,0.5,0.2,0.5,0.5l0,7.8C3.4,21.7,3.2,21.9,3,21.9"/>
					<path id="Fill-24_1_" class="st26" d="M5.7,21.9H5.3c-0.3,0-0.5-0.2-0.5-0.5l0-7.8c0-0.3,0.2-0.5,0.5-0.5h0.4
						c0.3,0,0.5,0.2,0.5,0.5l0,7.8C6.2,21.7,6,21.9,5.7,21.9"/>
					<path id="Fill-26_1_" class="st26" d="M8.5,21.9H8.1c-0.3,0-0.5-0.2-0.5-0.5l0-7.8c0-0.3,0.2-0.5,0.5-0.5h0.4
						c0.3,0,0.5,0.2,0.5,0.5l0,7.8C8.9,21.7,8.7,21.9,8.5,21.9"/>
					<path id="Fill-28_1_" class="st26" d="M11.2,21.9h-0.4c-0.3,0-0.5-0.2-0.5-0.5v-7.8c0-0.3,0.2-0.5,0.5-0.5h0.4
						c0.3,0,0.5,0.2,0.5,0.5v7.8C11.7,21.7,11.5,21.9,11.2,21.9"/>
				</g>
				<g id="container-copy" transform="translate(20.725609, 0.260966)">
					<g id="Group-3_3_" transform="translate(0.000000, 10.864311)">
						<g id="Clip-2_2_">
						</g>
						<defs>
							<filter id="Adobe_OpacityMaskFilter_4_" filterUnits="userSpaceOnUse" x="0.4" y="-1.8" width="13.1" height="16">
								<feColorMatrix  type="matrix" values="1 0 0 0 0  0 1 0 0 0  0 0 1 0 0  0 0 0 1 0"/>
							</filter>
						</defs>
						<mask maskUnits="userSpaceOnUse" x="0.4" y="-1.8" width="13.1" height="16" id="mask-10_1_">
							<g class="st31">
								<polygon id="path-9_1_" class="st13" points="0,12.5 13.8,12.5 13.8,0.1 0,0.1 								"/>
							</g>
						</mask>
						<path id="Fill-1_2_" class="st32" d="M13.8,0.1l0,10.8c0,0.9-0.7,1.6-1.5,1.6l-10.7,0c-0.8,0-1.5-0.7-1.5-1.6L0,0.1l0.7,0v0.1
							c0,0.2,0.3,0.4,0.7,0.4l10.8,0c0.4,0,0.7-0.2,0.7-0.4V0.1L13.8,0.1z"/>
					</g>
					<path id="Fill-4_3_" class="st18" d="M13,10.9V11c0,0.2-0.3,0.5-0.7,0.5l-10.8,0c-0.4,0-0.7-0.2-0.7-0.5v-0.1L13,10.9z"/>
					<path id="Fill-6_2_" class="st19" d="M13,10.8V11c0,0.2-0.3,0.4-0.7,0.4l-10.8,0c-0.4,0-0.7-0.2-0.7-0.4v-0.2
						c0-0.2,0.3-0.4,0.7-0.4l10.8,0C12.7,10.4,13,10.6,13,10.8"/>
					<path id="Fill-8_2_" class="st20" d="M13,10.8V11c0,0.2-0.3,0.4-0.7,0.4l-10.8,0c-0.4,0-0.7-0.2-0.7-0.4v-0.2
						c0-0.2,0.3-0.4,0.7-0.4l10.8,0C12.7,10.4,13,10.6,13,10.8"/>
					<g id="Group-12_2_" transform="translate(0.000000, 9.884750)">
						<g id="Clip-11_2_">
						</g>
						<defs>
							<filter id="Adobe_OpacityMaskFilter_5_" filterUnits="userSpaceOnUse" x="0.4" y="-1.8" width="13.1" height="5.7">
								<feColorMatrix  type="matrix" values="1 0 0 0 0  0 1 0 0 0  0 0 1 0 0  0 0 0 1 0"/>
							</filter>
						</defs>
						<mask maskUnits="userSpaceOnUse" x="0.4" y="-1.8" width="13.1" height="5.7" id="mask-12_1_">
							<g class="st33">
								<polygon id="path-11_1_" class="st13" points="13.8,2.1 13.8,0 0,0 0,2.1 								"/>
							</g>
						</mask>
						<path id="Fill-10_2_" class="st34" d="M13,1.1c0,0.2-0.3,0.4-0.7,0.4l-10.8,0C1,1.5,0.7,1.4,0.7,1.1V0.9
							c0-0.2,0.3-0.4,0.7-0.4l10.8,0c0.4,0,0.7,0.2,0.7,0.4V1.1z M13,0L0.8,0C0.3,0,0,0.4,0,0.8l0,0.5c0,0.4,0.3,0.8,0.8,0.8l12.2,0
							c0.4,0,0.8-0.4,0.8-0.8V0.8C13.8,0.4,13.4,0,13,0L13,0z"/>
					</g>
					<path id="Fill-13_2_" class="st23" d="M6.6,0C4.5,0,3.4,6.8,3.4,8.1c0,1.8,1.4,3.3,3.2,3.3s3.2-1.5,3.2-3.3
						C9.8,6.8,8.7,0,6.6,0"/>
					<path id="Fill-15_2_" class="st24" d="M4.7,8.1c0-1.2,0.9-6.6,2.5-7.8C7.1,0.1,6.8,0,6.6,0C4.5,0,3.4,6.8,3.4,8.1
						c0,1.8,1.4,3.3,3.2,3.3c0.2,0,0.5,0,0.7-0.1C5.8,11,4.7,9.7,4.7,8.1"/>
					<path id="Fill-17_2_" class="st25" d="M7.8,7.7c-0.2-0.2-0.5-0.2-0.7,0L7,7.9V7.1c0-0.3-0.2-0.5-0.5-0.5
						c-0.3,0-0.5,0.2-0.5,0.5v1.7L6,8.7c-0.2-0.2-0.5-0.2-0.7,0c-0.2,0.2-0.2,0.5,0,0.7l0.8,0.8l0,1.2H7V9.2l0.8-0.8
						C8,8.2,8,7.9,7.8,7.7"/>
					<g id="Group-21_2_" transform="translate(0.000000, 10.864311)">
						<path id="Fill-19_2_" class="st26" d="M13.8,0.1v0.3c0,0.4-0.3,0.8-0.8,0.8l-12.2,0C0.3,1.2,0,0.8,0,0.4l0-0.3l0.7,0v0.1
							c0,0.2,0.3,0.4,0.7,0.4l10.8,0c0.4,0,0.7-0.2,0.7-0.4V0.1L13.8,0.1z"/>
					</g>
					<path id="Fill-22_2_" class="st26" d="M3,21.9H2.5c-0.3,0-0.5-0.2-0.5-0.5l0-7.8c0-0.3,0.2-0.5,0.5-0.5H3
						c0.3,0,0.5,0.2,0.5,0.5l0,7.8C3.4,21.7,3.2,21.9,3,21.9"/>
					<path id="Fill-24_2_" class="st26" d="M5.7,21.9H5.3c-0.3,0-0.5-0.2-0.5-0.5l0-7.8c0-0.3,0.2-0.5,0.5-0.5h0.4
						c0.3,0,0.5,0.2,0.5,0.5l0,7.8C6.2,21.7,6,21.9,5.7,21.9"/>
					<path id="Fill-26_2_" class="st26" d="M8.5,21.9H8.1c-0.3,0-0.5-0.2-0.5-0.5l0-7.8c0-0.3,0.2-0.5,0.5-0.5h0.4
						c0.3,0,0.5,0.2,0.5,0.5l0,7.8C8.9,21.7,8.7,21.9,8.5,21.9"/>
					<path id="Fill-28_2_" class="st26" d="M11.2,21.9h-0.4c-0.3,0-0.5-0.2-0.5-0.5l0-7.8c0-0.3,0.2-0.5,0.5-0.5l0.4,0
						c0.3,0,0.5,0.2,0.5,0.5l0,7.8C11.7,21.7,11.5,21.9,11.2,21.9"/>
				</g>
				<g id="container-copy-3" transform="translate(13.648572, 11.743459)">
					<g id="Group-3_4_" transform="translate(0.000000, 10.864311)">
						<g id="Clip-2_3_">
						</g>
						<defs>
							<filter id="Adobe_OpacityMaskFilter_6_" filterUnits="userSpaceOnUse" x="0.4" y="-1.8" width="13.1" height="16">
								<feColorMatrix  type="matrix" values="1 0 0 0 0  0 1 0 0 0  0 0 1 0 0  0 0 0 1 0"/>
							</filter>
						</defs>
						<mask maskUnits="userSpaceOnUse" x="0.4" y="-1.8" width="13.1" height="16" id="mask-14_1_">
							<g class="st35">
								<polygon id="path-13_1_" class="st13" points="0,12.5 13.8,12.5 13.8,0.1 0,0.1 								"/>
							</g>
						</mask>
						<path id="Fill-1_3_" class="st36" d="M13.8,0.1l0,10.8c0,0.9-0.7,1.6-1.5,1.6l-10.7,0c-0.8,0-1.5-0.7-1.5-1.6L0,0.1l0.7,0v0.1
							c0,0.2,0.3,0.4,0.7,0.4l10.8,0c0.4,0,0.7-0.2,0.7-0.4V0.1L13.8,0.1z"/>
					</g>
					<path id="Fill-4_4_" class="st18" d="M13,10.9V11c0,0.2-0.3,0.5-0.7,0.5l-10.8,0c-0.4,0-0.7-0.2-0.7-0.5v-0.1L13,10.9z"/>
					<path id="Fill-6_3_" class="st19" d="M13,10.8V11c0,0.2-0.3,0.4-0.7,0.4l-10.8,0c-0.4,0-0.7-0.2-0.7-0.4v-0.2
						c0-0.2,0.3-0.4,0.7-0.4l10.8,0C12.7,10.4,13,10.6,13,10.8"/>
					<path id="Fill-8_3_" class="st20" d="M13,10.8V11c0,0.2-0.3,0.4-0.7,0.4l-10.8,0c-0.4,0-0.7-0.2-0.7-0.4v-0.2
						c0-0.2,0.3-0.4,0.7-0.4l10.8,0C12.7,10.4,13,10.6,13,10.8"/>
					<g id="Group-12_3_" transform="translate(0.000000, 9.884750)">
						<g id="Clip-11_3_">
						</g>
						<defs>
							<filter id="Adobe_OpacityMaskFilter_7_" filterUnits="userSpaceOnUse" x="0.4" y="-1.8" width="13.1" height="5.7">
								<feColorMatrix  type="matrix" values="1 0 0 0 0  0 1 0 0 0  0 0 1 0 0  0 0 0 1 0"/>
							</filter>
						</defs>
						<mask maskUnits="userSpaceOnUse" x="0.4" y="-1.8" width="13.1" height="5.7" id="mask-16_1_">
							<g class="st37">
								<polygon id="path-15_1_" class="st13" points="13.8,2.1 13.8,0 0,0 0,2.1 								"/>
							</g>
						</mask>
						<path id="Fill-10_3_" class="st38" d="M13,1.1c0,0.2-0.3,0.4-0.7,0.4l-10.8,0C1,1.5,0.7,1.4,0.7,1.1V0.9
							c0-0.2,0.3-0.4,0.7-0.4l10.8,0c0.4,0,0.7,0.2,0.7,0.4V1.1z M13,0L0.8,0C0.3,0,0,0.4,0,0.8l0,0.5c0,0.4,0.3,0.8,0.8,0.8l12.2,0
							c0.4,0,0.8-0.4,0.8-0.8V0.8C13.8,0.4,13.4,0,13,0L13,0z"/>
					</g>
					<path id="Fill-13_3_" class="st23" d="M6.6,0C4.5,0,3.4,6.8,3.4,8.1c0,1.8,1.4,3.3,3.2,3.3s3.2-1.5,3.2-3.3
						C9.8,6.8,8.7,0,6.6,0"/>
					<path id="Fill-15_3_" class="st24" d="M4.7,8.1c0-1.2,0.9-6.6,2.5-7.8C7.1,0.1,6.8,0,6.6,0C4.5,0,3.4,6.8,3.4,8.1
						c0,1.8,1.4,3.3,3.2,3.3c0.2,0,0.5,0,0.7-0.1C5.8,11,4.7,9.7,4.7,8.1"/>
					<path id="Fill-17_3_" class="st25" d="M7.8,7.7c-0.2-0.2-0.5-0.2-0.7,0L7,7.9V7.1c0-0.3-0.2-0.5-0.5-0.5
						c-0.3,0-0.5,0.2-0.5,0.5v1.7L6,8.7c-0.2-0.2-0.5-0.2-0.7,0c-0.2,0.2-0.2,0.5,0,0.7l0.8,0.8l0,1.2H7l0-2.2l0.8-0.8
						C8,8.2,8,7.9,7.8,7.7"/>
					<g id="Group-21_3_" transform="translate(0.000000, 10.864311)">
						<path id="Fill-19_3_" class="st26" d="M13.8,0.1v0.3c0,0.4-0.3,0.8-0.8,0.8l-12.2,0C0.3,1.2,0,0.8,0,0.4l0-0.3l0.7,0v0.1
							c0,0.2,0.3,0.4,0.7,0.4l10.8,0c0.4,0,0.7-0.2,0.7-0.4V0.1L13.8,0.1z"/>
					</g>
					<path id="Fill-22_3_" class="st26" d="M3,21.9H2.5c-0.3,0-0.5-0.2-0.5-0.5l0-7.8c0-0.3,0.2-0.5,0.5-0.5H3
						c0.3,0,0.5,0.2,0.5,0.5l0,7.8C3.4,21.7,3.2,21.9,3,21.9"/>
					<path id="Fill-24_3_" class="st26" d="M5.7,21.9H5.3c-0.3,0-0.5-0.2-0.5-0.5l0-7.8c0-0.3,0.2-0.5,0.5-0.5h0.4
						c0.3,0,0.5,0.2,0.5,0.5l0,7.8C6.2,21.7,6,21.9,5.7,21.9"/>
					<path id="Fill-26_3_" class="st26" d="M8.5,21.9H8.1c-0.3,0-0.5-0.2-0.5-0.5l0-7.8c0-0.3,0.2-0.5,0.5-0.5h0.4
						c0.3,0,0.5,0.2,0.5,0.5l0,7.8C8.9,21.7,8.7,21.9,8.5,21.9"/>
					<path id="Fill-28_3_" class="st26" d="M11.2,21.9h-0.4c-0.3,0-0.5-0.2-0.5-0.5l0-7.8c0-0.3,0.2-0.5,0.5-0.5h0.4
						c0.3,0,0.5,0.2,0.5,0.5v7.8C11.7,21.7,11.5,21.9,11.2,21.9"/>
				</g>
				<g id="container-copy-4" transform="translate(27.297143, 11.743459)">
					<g id="Group-3_5_" transform="translate(0.000000, 10.864311)">
						<g id="Clip-2_4_">
						</g>
						<defs>
							<filter id="Adobe_OpacityMaskFilter_8_" filterUnits="userSpaceOnUse" x="0.4" y="-1.8" width="13.1" height="16">
								<feColorMatrix  type="matrix" values="1 0 0 0 0  0 1 0 0 0  0 0 1 0 0  0 0 0 1 0"/>
							</filter>
						</defs>
						<mask maskUnits="userSpaceOnUse" x="0.4" y="-1.8" width="13.1" height="16" id="mask-18_1_">
							<g class="st39">
								<polygon id="path-17_1_" class="st13" points="0,12.5 13.8,12.5 13.8,0.1 0,0.1 								"/>
							</g>
						</mask>
						<path id="Fill-1_4_" class="st40" d="M13.8,0.1l0,10.8c0,0.9-0.7,1.6-1.5,1.6l-10.7,0c-0.8,0-1.5-0.7-1.5-1.6L0,0.1l0.7,0v0.1
							c0,0.2,0.3,0.4,0.7,0.4l10.8,0c0.4,0,0.7-0.2,0.7-0.4V0.1L13.8,0.1z"/>
					</g>
					<path id="Fill-4_5_" class="st18" d="M13,10.9V11c0,0.2-0.3,0.5-0.7,0.5l-10.8,0c-0.4,0-0.7-0.2-0.7-0.5v-0.1L13,10.9z"/>
					<path id="Fill-6_4_" class="st19" d="M13,10.8V11c0,0.2-0.3,0.4-0.7,0.4l-10.8,0c-0.4,0-0.7-0.2-0.7-0.4l0-0.2
						c0-0.2,0.3-0.4,0.7-0.4l10.8,0C12.7,10.4,13,10.6,13,10.8"/>
					<path id="Fill-8_4_" class="st20" d="M13,10.8V11c0,0.2-0.3,0.4-0.7,0.4l-10.8,0c-0.4,0-0.7-0.2-0.7-0.4l0-0.2
						c0-0.2,0.3-0.4,0.7-0.4l10.8,0C12.7,10.4,13,10.6,13,10.8"/>
					<g id="Group-12_4_" transform="translate(0.000000, 9.884750)">
						<g id="Clip-11_4_">
						</g>
						<defs>
							<filter id="Adobe_OpacityMaskFilter_9_" filterUnits="userSpaceOnUse" x="0.4" y="-1.8" width="13.1" height="5.7">
								<feColorMatrix  type="matrix" values="1 0 0 0 0  0 1 0 0 0  0 0 1 0 0  0 0 0 1 0"/>
							</filter>
						</defs>
						<mask maskUnits="userSpaceOnUse" x="0.4" y="-1.8" width="13.1" height="5.7" id="mask-20_1_">
							<g class="st41">
								<polygon id="path-19_1_" class="st13" points="13.8,2.1 13.8,0 0,0 0,2.1 								"/>
							</g>
						</mask>
						<path id="Fill-10_4_" class="st42" d="M13,1.1c0,0.2-0.3,0.4-0.7,0.4l-10.8,0C1,1.5,0.7,1.4,0.7,1.1l0-0.2
							c0-0.2,0.3-0.4,0.7-0.4l10.8,0c0.4,0,0.7,0.2,0.7,0.4V1.1z M13,0L0.8,0C0.3,0,0,0.4,0,0.8l0,0.5c0,0.4,0.3,0.8,0.8,0.8l12.2,0
							c0.4,0,0.8-0.4,0.8-0.8V0.8C13.8,0.4,13.4,0,13,0L13,0z"/>
					</g>
					<path id="Fill-13_4_" class="st23" d="M6.6,0C4.5,0,3.4,6.8,3.4,8.1c0,1.8,1.4,3.3,3.2,3.3s3.2-1.5,3.2-3.3
						C9.8,6.8,8.7,0,6.6,0"/>
					<path id="Fill-15_4_" class="st24" d="M4.7,8.1c0-1.2,0.9-6.6,2.5-7.8C7.1,0.1,6.8,0,6.6,0C4.5,0,3.4,6.8,3.4,8.1
						c0,1.8,1.4,3.3,3.2,3.3c0.2,0,0.5,0,0.7-0.1C5.8,11,4.7,9.7,4.7,8.1"/>
					<path id="Fill-17_4_" class="st25" d="M7.8,7.7c-0.2-0.2-0.5-0.2-0.7,0L7,7.9V7.1c0-0.3-0.2-0.5-0.5-0.5
						c-0.3,0-0.5,0.2-0.5,0.5v1.7L6,8.7c-0.2-0.2-0.5-0.2-0.7,0c-0.2,0.2-0.2,0.5,0,0.7l0.8,0.8v1.2H7l0-2.2l0.8-0.8
						C8,8.2,8,7.9,7.8,7.7"/>
					<g id="Group-21_4_" transform="translate(0.000000, 10.864311)">
						<path id="Fill-19_4_" class="st26" d="M13.8,0.1v0.3c0,0.4-0.3,0.8-0.8,0.8l-12.2,0C0.3,1.2,0,0.8,0,0.4l0-0.3l0.7,0v0.1
							c0,0.2,0.3,0.4,0.7,0.4l10.8,0c0.4,0,0.7-0.2,0.7-0.4V0.1L13.8,0.1z"/>
					</g>
					<path id="Fill-22_4_" class="st26" d="M3,21.9H2.5c-0.3,0-0.5-0.2-0.5-0.5l0-7.8c0-0.3,0.2-0.5,0.5-0.5H3
						c0.3,0,0.5,0.2,0.5,0.5l0,7.8C3.4,21.7,3.2,21.9,3,21.9"/>
					<path id="Fill-24_4_" class="st26" d="M5.7,21.9H5.3c-0.3,0-0.5-0.2-0.5-0.5l0-7.8c0-0.3,0.2-0.5,0.5-0.5h0.4
						c0.3,0,0.5,0.2,0.5,0.5l0,7.8C6.2,21.7,6,21.9,5.7,21.9"/>
					<path id="Fill-26_4_" class="st26" d="M8.5,21.9H8.1c-0.3,0-0.5-0.2-0.5-0.5l0-7.8c0-0.3,0.2-0.5,0.5-0.5h0.4
						c0.3,0,0.5,0.2,0.5,0.5l0,7.8C8.9,21.7,8.7,21.9,8.5,21.9"/>
					<path id="Fill-28_4_" class="st26" d="M11.2,21.9h-0.4c-0.3,0-0.5-0.2-0.5-0.5l0-7.8c0-0.3,0.2-0.5,0.5-0.5h0.4
						c0.3,0,0.5,0.2,0.5,0.5l0,7.8C11.7,21.7,11.5,21.9,11.2,21.9"/>
				</g>
			</g>
			
				<g id="Shape-_x2B_-Shape-_x2B_-Shape-_x2B_-Oval-_x2B_-Shape-_x2B_-Shape-Mask" transform="translate(521.160705, 45.191079) rotate(8.000000) translate(-521.160705, -45.191079) translate(478.160705, 20.691079)">
				<g id="Mask">
					<path id="path-21_1_" class="st43" d="M84.5,11.4c-1.8-1.3-6.7-1.8-10.3-0.8C74.1,7,72.3,4,69,1.3l-1.2-0.8l-0.8,1.2
						c-1.6,2.6-2.3,5.7-2.1,8.8c0.2,2,0.9,3.8,2,5.4C66,16.7,63,18.1,59.1,18L0.5,18c-1,6.3,0.7,30,27.9,30
						c20.1,0,36.7-9.2,44.3-28.4c2.5,0,9.1,0.5,12.3-5.8c0.1-0.1,0.8-1.7,0.8-1.7L84.5,11.4z"/>
				</g>
				<defs>
					<filter id="Adobe_OpacityMaskFilter_10_" filterUnits="userSpaceOnUse" x="8" y="35.1" width="26" height="16.9">
						<feColorMatrix  type="matrix" values="1 0 0 0 0  0 1 0 0 0  0 0 1 0 0  0 0 0 1 0"/>
					</filter>
				</defs>
				<mask maskUnits="userSpaceOnUse" x="8" y="35.1" width="26" height="16.9" id="mask-22_1_">
					<g class="st44">
						<path id="path-21_2_" class="st13" d="M84.5,11.4c-1.8-1.3-6.7-1.8-10.3-0.8C74.1,7,72.3,4,69,1.3l-1.2-0.8l-0.8,1.2
							c-1.6,2.6-2.3,5.7-2.1,8.8c0.2,2,0.9,3.8,2,5.4C66,16.7,63,18.1,59.1,18L0.5,18c-1,6.3,0.7,30,27.9,30
							c20.1,0,36.7-9.2,44.3-28.4c2.5,0,9.1,0.5,12.3-5.8c0.1-0.1,0.8-1.7,0.8-1.7L84.5,11.4z"/>
					</g>
				</mask>
				<path id="Shape_3_" class="st45" d="M35.7,47.7c-14.7,4.5-24.6-3.4-29.5-8c5.2-0.1,10.9-1.3,15.9-3
					C25.1,41.8,30.2,46.1,35.7,47.7z"/>
				<defs>
					<filter id="Adobe_OpacityMaskFilter_11_" filterUnits="userSpaceOnUse" x="5.2" y="35" width="16.8" height="5.8">
						<feColorMatrix  type="matrix" values="1 0 0 0 0  0 1 0 0 0  0 0 1 0 0  0 0 0 1 0"/>
					</filter>
				</defs>
				<mask maskUnits="userSpaceOnUse" x="5.2" y="35" width="16.8" height="5.8" id="mask-22_2_">
					<g class="st46">
						<path id="path-21_3_" class="st13" d="M84.5,11.4c-1.8-1.3-6.7-1.8-10.3-0.8C74.1,7,72.3,4,69,1.3l-1.2-0.8l-0.8,1.2
							c-1.6,2.6-2.3,5.7-2.1,8.8c0.2,2,0.9,3.8,2,5.4C66,16.7,63,18.1,59.1,18L0.5,18c-1,6.3,0.7,30,27.9,30
							c20.1,0,36.7-9.2,44.3-28.4c2.5,0,9.1,0.5,12.3-5.8c0.1-0.1,0.8-1.7,0.8-1.7L84.5,11.4z"/>
					</g>
				</mask>
				<path id="Shape_4_" class="st47" d="M21.4,35.3c-3.3,1.9-7.1,2.9-10.9,2.9c-2,0-3.9-0.3-5.8-0.8l1.2,2
					c5.6,1.1,11.4,0.2,16.3-2.7C21.9,36.3,21.6,35.8,21.4,35.3z"/>
				<defs>
					<filter id="Adobe_OpacityMaskFilter_12_" filterUnits="userSpaceOnUse" x="25.2" y="28.1" width="4.8" height="6.5">
						<feColorMatrix  type="matrix" values="1 0 0 0 0  0 1 0 0 0  0 0 1 0 0  0 0 0 1 0"/>
					</filter>
				</defs>
				<mask maskUnits="userSpaceOnUse" x="25.2" y="28.1" width="4.8" height="6.5" id="mask-22_3_">
					<g class="st48">
						<path id="path-21_4_" class="st13" d="M84.5,11.4c-1.8-1.3-6.7-1.8-10.3-0.8C74.1,7,72.3,4,69,1.3l-1.2-0.8l-0.8,1.2
							c-1.6,2.6-2.3,5.7-2.1,8.8c0.2,2,0.9,3.8,2,5.4C66,16.7,63,18.1,59.1,18L0.5,18c-1,6.3,0.7,30,27.9,30
							c20.1,0,36.7-9.2,44.3-28.4c2.5,0,9.1,0.5,12.3-5.8c0.1-0.1,0.8-1.7,0.8-1.7L84.5,11.4z"/>
					</g>
				</mask>
				<ellipse id="Oval" class="st49" cx="27.6" cy="31.3" rx="2.9" ry="2.8"/>
				<defs>
					<filter id="Adobe_OpacityMaskFilter_13_" filterUnits="userSpaceOnUse" x="26.2" y="29.5" width="2.8" height="3.7">
						<feColorMatrix  type="matrix" values="1 0 0 0 0  0 1 0 0 0  0 0 1 0 0  0 0 0 1 0"/>
					</filter>
				</defs>
				<mask maskUnits="userSpaceOnUse" x="26.2" y="29.5" width="2.8" height="3.7" id="mask-22_4_">
					<g class="st50">
						<path id="path-21_5_" class="st13" d="M84.5,11.4c-1.8-1.3-6.7-1.8-10.3-0.8C74.1,7,72.3,4,69,1.3l-1.2-0.8l-0.8,1.2
							c-1.6,2.6-2.3,5.7-2.1,8.8c0.2,2,0.9,3.8,2,5.4C66,16.7,63,18.1,59.1,18L0.5,18c-1,6.3,0.7,30,27.9,30
							c20.1,0,36.7-9.2,44.3-28.4c2.5,0,9.1,0.5,12.3-5.8c0.1-0.1,0.8-1.7,0.8-1.7L84.5,11.4z"/>
					</g>
				</mask>
				<path id="Shape_5_" class="st51" d="M28.1,30.5c0-0.3,0.1-0.5,0.3-0.6c-0.2-0.1-0.5-0.2-0.7-0.2c-0.9,0-1.6,0.7-1.7,1.6
					c0,0.9,0.7,1.7,1.6,1.7c0.9,0,1.6-0.7,1.7-1.6c0,0,0-0.1,0-0.1c-0.1,0.1-0.3,0.1-0.4,0.1C28.4,31.4,28.1,31,28.1,30.5z"/>
				<defs>
					<filter id="Adobe_OpacityMaskFilter_14_" filterUnits="userSpaceOnUse" x="3.6" y="5.7" width="81" height="46.4">
						<feColorMatrix  type="matrix" values="1 0 0 0 0  0 1 0 0 0  0 0 1 0 0  0 0 0 1 0"/>
					</filter>
				</defs>
				<mask maskUnits="userSpaceOnUse" x="3.6" y="5.7" width="81" height="46.4" id="mask-22_5_">
					<g class="st52">
						<path id="path-21_6_" class="st13" d="M84.5,11.4c-1.8-1.3-6.7-1.8-10.3-0.8C74.1,7,72.3,4,69,1.3l-1.2-0.8l-0.8,1.2
							c-1.6,2.6-2.3,5.7-2.1,8.8c0.2,2,0.9,3.8,2,5.4C66,16.7,63,18.1,59.1,18L0.5,18c-1,6.3,0.7,30,27.9,30
							c20.1,0,36.7-9.2,44.3-28.4c2.5,0,9.1,0.5,12.3-5.8c0.1-0.1,0.8-1.7,0.8-1.7L84.5,11.4z"/>
					</g>
				</mask>
				<path id="Shape_6_" class="st53" d="M84.3,11.2C82.5,10,77.4,9.4,74,10.4l-0.8,1.1c-11,23-24.7,32.7-43.5,33.2
					C9.3,44.5,4.1,32.5,2.7,17.6h-3.3C-1,23.9,0.6,48,27.9,48c20.2,0,36.8-9.1,44.5-28.3c2.5,0,9.5,0,12.5-6.3l0.6-1.3L84.3,11.2z"
					/>
			</g>
			<g id="banner" transform="translate(69.054901, 50.064803)">
				<path id="Path-4" class="st54" d="M0,0c93.8,64.1,351.3,73.2,415.5,4.6"/>
				<polygon id="Triangle" class="st14" points="43.6,50.9 39.5,20.5 65.6,29.4 				"/>
				<polygon id="Triangle-Copy-2" class="st14" points="145.2,73 134.9,44.1 162.2,47.5 				"/>
				<polygon id="Triangle-Copy-6" class="st14" points="261.8,78.6 246.6,52 274.1,50.5 				"/>
				<polygon id="Triangle-Copy-8" class="st14" points="372.6,59.5 351,37.7 377.2,29.2 				"/>
				<polygon id="Triangle-Copy" class="st55" points="95,66.6 86.3,35.6 114.7,41.1 				"/>
				<polygon id="Triangle-Copy-3" class="st55" points="202.5,80.1 189.5,50.5 218.4,52 				"/>
				<polygon id="Triangle-Copy-7" class="st55" points="316.2,74.9 297.4,48.6 326,44.1 				"/>
			</g>
			
				<g id="fish" transform="translate(380.392044, 104.558715) scale(-1, 1) rotate(-16.000000) translate(-380.392044, -104.558715) translate(372.392044, 100.058715)">
				<path class="st56" d="M14.7,3c-0.9,0-2.2,0.5-2.8,1.2C11,3.5,9.1,2.8,7.4,2.4c-0.6-0.9-0.7-1.6-0.6-2c0-0.1,0-0.2-0.1-0.3
					C6.6,0,6.5,0,6.4,0C5.2,0.2,4.6,1.2,4.3,2c0,0,0,0,0,0C2.5,2,0,3.3,0,5c0,1.7,2.5,3.1,4.2,3.1c0.1,0,0.1,0,0.2,0
					c0.6,0.3,1.4,0.5,1.9,0.5c0.7,0,0.3-0.3-0.1-0.8c2-0.4,4.5-1.1,5.6-2c0.6,0.7,2,1.2,2.8,1.2C15.8,7,14,6.1,14,5
					C14,3.9,15.8,3,14.7,3z M2,5.1c-0.3,0-0.5-0.2-0.5-0.5S1.7,4.1,2,4.1c0.3,0,0.5,0.2,0.5,0.5C2.4,4.8,2.2,5.1,2,5.1z"/>
			</g>
			
				<g id="fish-copy" transform="translate(433.909593, 90.747735) scale(-1, 1) rotate(-16.000000) translate(-433.909593, -90.747735) translate(425.909593, 86.247735)">
				<path id="fish_1_" class="st56" d="M14.7,3c-0.9,0-2.2,0.5-2.8,1.2C11,3.5,9.1,2.8,7.4,2.4c-0.6-0.9-0.7-1.6-0.6-2
					c0-0.1,0-0.2-0.1-0.3C6.6,0,6.5,0,6.4,0C5.2,0.2,4.6,1.2,4.3,2c0,0,0,0,0,0C2.5,2,0,3.3,0,5c0,1.7,2.5,3.1,4.2,3.1
					c0.1,0,0.1,0,0.2,0c0.6,0.3,1.4,0.5,1.9,0.5c0.7,0,0.3-0.3-0.1-0.8c2-0.4,4.5-1.1,5.6-2c0.6,0.7,2,1.2,2.8,1.2
					C15.8,7,14,6.1,14,5C14,3.9,15.8,3,14.7,3z M2,5.1c-0.3,0-0.5-0.2-0.5-0.5S1.7,4.1,2,4.1c0.3,0,0.5,0.2,0.5,0.5
					C2.4,4.8,2.2,5.1,2,5.1z"/>
			</g>
			
				<g id="fish-copy-2" transform="translate(328.600868, 108.011460) scale(-1, 1) rotate(-16.000000) translate(-328.600868, -108.011460) translate(320.600868, 103.511460)">
				<path id="fish_2_" class="st56" d="M14.7,3c-0.9,0-2.2,0.5-2.8,1.2C11,3.5,9.1,2.8,7.4,2.4c-0.6-0.9-0.7-1.6-0.6-2
					c0-0.1,0-0.2-0.1-0.3C6.6,0,6.5,0,6.4,0C5.2,0.2,4.6,1.2,4.3,2c0,0,0,0,0,0C2.5,2,0,3.3,0,5c0,1.7,2.5,3.1,4.2,3.1
					c0.1,0,0.1,0,0.2,0c0.6,0.3,1.4,0.5,1.9,0.5c0.7,0,0.3-0.3-0.1-0.8c2-0.4,4.5-1.1,5.6-2c0.6,0.7,2,1.2,2.8,1.2
					C15.8,7,14,6.1,14,5C14,3.9,15.8,3,14.7,3z M2,5.1c-0.3,0-0.5-0.2-0.5-0.5S1.7,4.1,2,4.1c0.3,0,0.5,0.2,0.5,0.5
					C2.4,4.8,2.2,5.1,2,5.1z"/>
			</g>
			
				<g id="fish-copy-3" transform="translate(271.630575, 108.011460) scale(-1, 1) rotate(-16.000000) translate(-271.630575, -108.011460) translate(263.630575, 103.511460)">
				<path id="fish_3_" class="st56" d="M14.7,3c-0.9,0-2.2,0.5-2.8,1.2C11,3.5,9.1,2.8,7.4,2.4c-0.6-0.9-0.7-1.6-0.6-2
					c0-0.1,0-0.2-0.1-0.3C6.6,0,6.5,0,6.4,0C5.2,0.2,4.6,1.2,4.3,2c0,0,0,0,0,0C2.5,2,0,3.3,0,5c0,1.7,2.5,3.1,4.2,3.1
					c0.1,0,0.1,0,0.2,0c0.6,0.3,1.4,0.5,1.9,0.5c0.7,0,0.3-0.3-0.1-0.8c2-0.4,4.5-1.1,5.6-2c0.6,0.7,2,1.2,2.8,1.2
					C15.8,7,14,6.1,14,5C14,3.9,15.8,3,14.7,3z M2,5.1c-0.3,0-0.5-0.2-0.5-0.5c0-0.3,0.2-0.5,0.5-0.5c0.3,0,0.5,0.2,0.5,0.5
					C2.4,4.8,2.2,5.1,2,5.1z"/>
			</g>
			
				<g id="fish-copy-4" transform="translate(214.660281, 102.832342) scale(-1, 1) rotate(-16.000000) translate(-214.660281, -102.832342) translate(206.660281, 98.332342)">
				<path id="fish_4_" class="st56" d="M14.7,3c-0.9,0-2.2,0.5-2.8,1.2C11,3.5,9.1,2.8,7.4,2.4c-0.6-0.9-0.7-1.6-0.6-2
					c0-0.1,0-0.2-0.1-0.3C6.6,0,6.5,0,6.4,0C5.2,0.2,4.6,1.2,4.3,2c0,0,0,0,0,0C2.5,2,0,3.3,0,5c0,1.7,2.5,3.1,4.2,3.1
					c0.1,0,0.1,0,0.2,0c0.6,0.3,1.4,0.5,1.9,0.5c0.7,0,0.3-0.3-0.1-0.8c2-0.4,4.5-1.1,5.6-2c0.6,0.7,2,1.2,2.8,1.2
					C15.8,7,14,6.1,14,5C14,3.9,15.8,3,14.7,3z M2,5.1c-0.3,0-0.5-0.2-0.5-0.5S1.7,4.1,2,4.1c0.3,0,0.5,0.2,0.5,0.5
					C2.4,4.8,2.2,5.1,2,5.1z"/>
			</g>
			
				<g id="fish-copy-5" transform="translate(168.048223, 95.926852) scale(-1, 1) rotate(-16.000000) translate(-168.048223, -95.926852) translate(160.048223, 91.426852)">
				<path id="fish_5_" class="st56" d="M14.7,3c-0.9,0-2.2,0.5-2.8,1.2C11,3.5,9.1,2.8,7.4,2.4c-0.6-0.9-0.7-1.6-0.6-2
					c0-0.1,0-0.2-0.1-0.3C6.6,0,6.5,0,6.4,0C5.2,0.2,4.6,1.2,4.3,2c0,0,0,0,0,0C2.5,2,0,3.3,0,5c0,1.7,2.5,3.1,4.2,3.1
					c0.1,0,0.1,0,0.2,0c0.6,0.3,1.4,0.5,1.9,0.5c0.7,0,0.3-0.3-0.1-0.8c2-0.4,4.5-1.1,5.6-2c0.6,0.7,2,1.2,2.8,1.2
					C15.8,7,14,6.1,14,5C14,3.9,15.8,3,14.7,3z M2,5.1c-0.3,0-0.5-0.2-0.5-0.5c0-0.3,0.2-0.5,0.5-0.5c0.3,0,0.5,0.2,0.5,0.5
					C2.4,4.8,2.2,5.1,2,5.1z"/>
			</g>
			
				<g id="fish-copy-6" transform="translate(117.983420, 80.389499) scale(-1, 1) rotate(-16.000000) translate(-117.983420, -80.389499) translate(109.983420, 75.889499)">
				<path id="fish_6_" class="st56" d="M14.7,3c-0.9,0-2.2,0.5-2.8,1.2C11,3.5,9.1,2.8,7.4,2.4c-0.6-0.9-0.7-1.6-0.6-2
					c0-0.1,0-0.2-0.1-0.3C6.6,0,6.5,0,6.4,0C5.2,0.2,4.6,1.2,4.3,2c0,0,0,0,0,0C2.5,2,0,3.3,0,5c0,1.7,2.5,3.1,4.2,3.1
					c0.1,0,0.1,0,0.2,0c0.6,0.3,1.4,0.5,1.9,0.5c0.7,0,0.3-0.3-0.1-0.8c2-0.4,4.5-1.1,5.6-2c0.6,0.7,2,1.2,2.8,1.2
					C15.8,7,14,6.1,14,5C14,3.9,15.8,3,14.7,3z M2,5.1c-0.3,0-0.5-0.2-0.5-0.5S1.7,4.1,2,4.1c0.3,0,0.5,0.2,0.5,0.5
					C2.4,4.8,2.2,5.1,2,5.1z"/>
			</g>
		</g>
	</g>
</g>
</svg>
