<?xml version="1.0" encoding="UTF-8" standalone="no"?>
<svg width="165px" height="44px" viewBox="0 0 165 44" version="1.1" xmlns="http://www.w3.org/2000/svg" xmlns:xlink="http://www.w3.org/1999/xlink">
    <!-- Generator: Sketch 3.7.2 (28276) - http://www.bohemiancoding.com/sketch -->
    <title>habitat-logo</title>
    <desc>Created with Sketch.</desc>
    <defs></defs>
    <g id="Page-1" stroke="none" stroke-width="1" fill="none" fill-rule="evenodd">
        <g id="Habitat-Green-Copy-4" transform="translate(-105.000000, -47.000000)">
            <g id="habitat-logo" transform="translate(105.000000, 47.000000)">
                <g id="Logo" transform="translate(119.614094, 2.324324)"></g>
                <path d="M54.7752363,35.9234642 C51.2145128,35.9234642 48.7115695,33.4551401 48.6833621,29.907396 C48.6560948,26.353047 51.1477551,23.848868 54.7423275,23.8177309 C58.2184286,23.7922551 60.7589818,26.2162324 60.7947113,29.5931942 C60.8144565,31.5048244 60.2371435,33.1154625 59.1248288,34.2505519 C58.0623473,35.3346897 56.5739329,35.9130852 54.8203682,35.9234642 L54.7752363,35.9234642 Z M60.9423304,22.8345529 C59.2028695,21.3078906 56.7826682,20.5672047 54.2994702,20.8002613 C52.4387171,20.9757614 50.7340454,21.691915 49.4496651,22.8119077 C49.1280999,23.0921417 48.6307081,22.8770126 48.6307081,22.4505284 L48.6307081,14.5652897 C48.6307081,14.2935475 48.4106898,14.0737006 48.1398981,14.0737006 L46.0769914,14.0737006 C45.8231242,14.0737006 45.6115681,14.2680717 45.5890021,14.5218864 C45.5814801,14.6115236 45.5720776,14.6936123 45.5636154,14.7719269 C45.5438702,14.9445963 45.5260054,15.1078303 45.5260054,15.2795562 L45.5250652,17.1345735 C45.5222444,21.2097615 45.5184834,25.4227077 45.5316469,29.5677183 C45.5344677,30.3055736 45.5589142,31.0924935 45.7215773,31.8463891 C46.6937949,36.3725935 50.0175756,38.9513129 54.8589184,38.9503693 C54.9397799,38.9503693 55.0225218,38.9494258 55.1052637,38.9484822 C58.9856719,38.8796032 62.1768775,36.7047228 63.4321101,33.2739787 C64.8217984,29.4790247 63.8439392,25.3811915 60.9423304,22.8345529 Z M29.4758585,21.80382 C25.7797392,23.6720469 23.9330898,27.9538722 24.9852286,32.21777 C25.8192296,35.600393 27.9752209,37.8224509 31.2200207,38.6452256 C32.1536881,38.8820564 33.044104,39 33.8912685,39 C36.1600897,39 38.1129872,38.1508059 39.7170522,36.4618533 C39.912624,36.255216 40.0856299,36.0391433 40.2567552,35.8060867 L40.2567552,38.0121042 C40.2567552,38.2829028 40.4758333,38.5036932 40.746625,38.5036932 L42.6468685,38.5036932 C42.9176603,38.5036932 43.1367383,38.2829028 43.1367383,38.0121042 C43.1367383,37.062894 43.1433201,36.1212321 43.1499018,35.1833444 C43.1658861,32.9584559 43.1818703,30.6580835 43.1019491,28.4067757 C43.0502354,26.939557 42.4418942,25.4770561 41.2947903,24.0598456 C38.6000362,20.7291177 33.5189299,19.7600929 29.4758585,21.80382 Z M40.0668249,29.7966233 C40.0790481,31.5233179 39.4829302,33.0867786 38.3865997,34.1992228 C37.2949704,35.3069493 35.7510813,35.9211997 34.0407681,35.9278045 L34.0087997,35.9278045 C30.4593591,35.9278045 27.9724002,33.489674 27.9554757,29.9891073 C27.9385512,26.3139841 30.3634537,23.8324502 33.9890544,23.8145228 L34.0257241,23.8145228 C37.5027655,23.8145228 40.0423784,26.3253066 40.0668249,29.7966233 Z M104.357206,24.0598456 C101.662452,20.7291177 96.5813459,19.7600929 92.5382745,21.80382 C88.8421552,23.6720469 86.9955058,27.9538722 88.0476446,32.21777 C88.8816456,35.600393 91.0376369,37.8224509 94.2824367,38.6452256 C95.2161041,38.8820564 96.10652,39 96.9536845,39 C99.2225057,39 101.175403,38.1508059 102.779468,36.4618533 C102.97504,36.255216 103.148046,36.0391433 103.319171,35.8060867 L103.319171,38.0121042 C103.319171,38.2829028 103.538249,38.5036932 103.809041,38.5036932 L105.709285,38.5036932 C105.980076,38.5036932 106.199154,38.2829028 106.199154,38.0121042 L106.199154,38.0111607 C106.199154,37.062894 106.205736,36.1212321 106.212318,35.1833444 C106.228302,32.9584559 106.244286,30.6580835 106.164365,28.4067757 C106.112651,26.939557 105.50431,25.4770561 104.357206,24.0598456 Z M103.129241,29.7966233 C103.141464,31.5233179 102.545346,33.0867786 101.449016,34.1992228 C100.357386,35.3069493 98.8134973,35.9211997 97.1041244,35.9278045 L97.0712157,35.9278045 C93.5217752,35.9278045 91.0348162,33.489674 91.0178917,29.9891073 C91.0009672,26.3139841 93.4258697,23.8324502 97.0514704,23.8145228 L97.0881402,23.8145228 C100.565181,23.8145228 103.104794,26.3253066 103.129241,29.7966233 Z M16.41608,20.9007492 C13.7730397,20.4667167 11.5991836,20.9800073 9.93024142,22.4302421 C9.60867621,22.7095326 9.11128442,22.4934599 9.11128442,22.0669758 L9.11128442,14.5591566 C9.11128442,14.2874145 8.89126612,14.0675676 8.62047436,14.0675676 L6.4898698,14.0675676 C6.21907805,14.0675676 6,14.2874145 6,14.5591566 L6,38.0280502 C6,38.2997923 6.21907805,38.5205828 6.4898698,38.5205828 L8.92605533,38.5205828 L9.03606448,38.179018 C9.05016822,38.1346712 9.06239146,38.101647 9.0727342,38.0733406 C9.10282217,37.9959695 9.13855164,37.898784 9.13949189,37.773292 C9.14231264,36.74388 9.14231264,35.7163552 9.14325289,34.6869433 C9.14513338,32.9215632 9.14607363,31.156183 9.15641637,29.3908029 C9.16581887,27.5706969 9.71210362,26.1015912 10.7350947,25.1420019 C11.7637272,24.1786384 13.2690661,23.7285655 15.0997312,23.8427349 C17.8292745,24.0125737 19.6129271,25.742099 19.7549047,28.3547861 C19.8620931,30.3305777 19.8686749,32.3516596 19.8752566,34.3057495 C19.8780774,35.1709839 19.8808981,36.0362183 19.8921811,36.9014527 C19.8950018,37.1486626 19.8940616,37.3958724 19.8931213,37.6468564 L19.8931213,38.0063486 C19.8921811,38.2780907 20.1121994,38.4988811 20.3829911,38.4988811 L22.5333409,38.4988811 C22.8041327,38.4988811 23.024151,38.2780907 23.024151,38.0072921 L23.024151,38.0063486 C23.024151,37.041098 23.0269717,36.0805651 23.0307327,35.1228629 C23.039195,33.0234664 23.046717,30.8533038 23.0147485,28.7256009 C22.9498713,24.4947273 20.4835978,21.5697255 16.41608,20.9007492 Z M85.8092875,31.2045871 L83.4135327,31.2045871 C83.1587252,31.2045871 82.9462289,31.4008453 82.9255434,31.656547 L82.8963957,32.0084908 C82.8757102,32.2585313 82.8569052,32.4944185 82.8399807,32.7303058 C82.7045849,34.6570328 81.5405564,35.7817432 79.561332,35.894969 C78.1895085,35.9742272 75.8614516,35.7326786 75.6621188,33.2275561 C75.4947544,31.1036274 75.4900532,28.9211986 75.4862922,26.8104795 C75.4844117,26.1037613 75.4834714,25.3970432 75.4759494,24.6978734 C75.4731287,24.4242442 75.6922067,24.2034537 75.964879,24.2034537 L82.6856644,24.2034537 C83.1388645,24.2034537 83.3494803,23.640155 83.0081699,23.3410499 L80.1038557,21.2793954 C80.0145321,21.2010809 79.8998217,21.1586212 79.7813503,21.1586212 L75.9018823,21.1586212 C75.6310906,21.1586212 75.4120125,20.9378307 75.4120125,20.6660886 L75.4120125,17.3910301 C75.4120125,17.119288 75.1919942,16.8984976 74.9221427,16.8984976 L72.8836826,16.8984976 C72.6128908,16.8984976 72.3938128,17.1183445 72.3928725,17.3900866 L72.3919323,18.3742081 C72.3919323,18.4676195 72.34586,27.7474237 72.4276617,33.4870321 C72.447407,34.8693313 73.1290876,36.2308725 74.3476505,37.3206715 C75.8454674,38.6595675 77.59151,38.9699951 79.1391601,38.9699951 C79.546288,38.9699951 79.9383719,38.9482935 80.3097703,38.9190435 C82.0915424,38.7756241 83.7388589,37.840567 84.8295479,36.3554209 C85.8685232,34.941041 86.2568461,33.2030238 85.8957905,31.5886115 L85.8092875,31.2045871 Z M121.5947,31.2188347 L119.112442,31.2188347 C118.854814,31.2188347 118.641377,31.4179235 118.623513,31.6755124 L118.596245,32.0557626 C118.580261,32.274666 118.566157,32.477529 118.552054,32.680392 C118.42512,34.6307078 117.277076,35.7714585 115.321358,35.8922327 C113.928849,35.9771522 111.563182,35.7403214 111.36855,33.1870778 C111.203066,31.0178587 111.209648,28.7882525 111.21623,26.6322431 C111.21717,25.9793072 111.219991,25.3254278 111.21717,24.6715484 C111.21623,24.3998062 111.434368,24.1780722 111.7061,24.1780722 L118.305593,24.1780722 C118.771016,24.1780722 118.97411,23.5883541 118.608353,23.2996281 L115.484021,21.2681672 C115.397518,21.2002317 115.290329,21.1624897 115.18032,21.1624897 L111.647804,21.1624897 C111.377012,21.1624897 111.156994,20.9426428 111.156994,20.6709007 L111.156994,17.51756 C111.156994,17.2458179 110.937916,17.025971 110.667124,17.025971 L108.53934,17.025971 C108.268549,17.025971 108.049471,17.2458179 108.04853,17.51756 L108.04759,18.5186655 C108.04759,18.6101897 108.005279,27.7569535 108.135974,33.4390054 C108.193329,35.946015 110.077588,38.1095728 112.718748,38.6992909 C113.419233,38.8559201 114.215625,38.9323475 115.14177,38.9323475 C115.278106,38.9323475 115.417263,38.931404 115.559241,38.9276298 C117.426575,38.8851701 119.088936,38.1124035 120.241681,36.753693 C121.415112,35.3704502 121.916265,33.5560055 121.652995,31.6434317 L121.5947,31.2188347 Z M66.8324271,38.4811424 L68.9028557,38.4811424 C69.1736475,38.4811424 69.3936658,38.2612955 69.3936658,37.9895534 L69.3936658,21.7142772 C69.3936658,21.4463093 69.179289,21.2274059 68.9122582,21.2226881 L66.8418296,21.1840026 C66.5672769,21.1792849 66.3425573,21.4010189 66.3425573,21.6755917 L66.3425573,37.9895534 C66.3425573,38.2612955 66.5616354,38.4811424 66.8324271,38.4811424 Z M66.8324271,19.1126296 L68.9028557,19.1126296 C69.1736475,19.1126296 69.3936658,18.8927827 69.3936658,18.6210406 L69.3936658,16.5424022 C69.3936658,16.2706601 69.1736475,16.0508132 68.9028557,16.0508132 L66.8324271,16.0508132 C66.5616354,16.0508132 66.3425573,16.2706601 66.3425573,16.5424022 L66.3425573,18.6210406 C66.3425573,18.8927827 66.5616354,19.1126296 66.8324271,19.1126296 Z" id="Combined-Shape" fill="#FFFFFF"></path>
            </g>
        </g>
    </g>
</svg>