<?xml version="1.0" encoding="UTF-8" standalone="no"?>
<svg width="128px" height="55px" viewBox="0 0 128 55" version="1.1" xmlns="http://www.w3.org/2000/svg" xmlns:xlink="http://www.w3.org/1999/xlink">
    <!-- Generator: Sketch 3.6.1 (26313) - http://www.bohemiancoding.com/sketch -->
    <title>habitat-logo</title>
    <desc>Created with Sketch.</desc>
    <defs>
        <filter x="-50%" y="-50%" width="200%" height="200%" filterUnits="objectBoundingBox" id="filter-1">
            <feOffset dx="0" dy="2" in="SourceAlpha" result="shadowOffsetOuter1"></feOffset>
            <feGaussianBlur stdDeviation="4" in="shadowOffsetOuter1" result="shadowBlurOuter1"></feGaussianBlur>
            <feColorMatrix values="0 0 0 0 0.787521259   0 0 0 0 0.38059721   0 0 0 0 0.207212181  0 0 0 0.7 0" in="shadowBlurOuter1" type="matrix" result="shadowMatrixOuter1"></feColorMatrix>
            <feMerge>
                <feMergeNode in="shadowMatrixOuter1"></feMergeNode>
                <feMergeNode in="SourceGraphic"></feMergeNode>
            </feMerge>
        </filter>
    </defs>
    <g id="Mockups" stroke="none" stroke-width="1" fill="none" fill-rule="evenodd" filter="url(#filter-1)">
        <g id="Web-App-Light---Projects" transform="translate(-131.000000, -16.000000)" stroke-width="2" stroke="#FFFFFF" fill="#FFFFFF">
            <g id="Header">
                <g id="habitat-logo" transform="translate(131.000000, 16.000000)">
                    <path d="M29.896,33.824 L29.896,36 L23.72,36 L23.72,33.824 L25.256,33.824 L25.256,21.984 L18.888,25.984 L18.888,33.824 L20.456,33.824 L20.456,36 L14.28,36 L14.28,33.824 L16.296,33.824 L16.296,14.176 L14.28,14.176 L14.28,12 L18.888,12 L18.888,23.392 L24.2,20.064 C24.6053354,19.8079987 25.0853306,19.68 25.64,19.68 C26.1946694,19.68 26.701331,19.8986645 27.16,20.336 C27.618669,20.7733355 27.848,21.3973293 27.848,22.208 L27.848,33.824 L29.896,33.824 Z M46.856,33.824 L46.856,36 L35.72,36 C34.6319946,36 33.8960019,35.7866688 33.512,35.36 C33.170665,34.9759981 33,34.250672 33,33.184 L33,32 C33,31.2319962 33.095999,30.7093347 33.288,30.432 C33.5653347,30.0266646 34.1946618,29.5253363 35.176,28.928 L42.216,24.544 L42.216,22.176 L35.944,22.176 L35.944,24.032 L33.896,24.032 L33.896,20 L41.896,20 C42.9840054,20 43.7466645,20.2346643 44.184,20.704 C44.6213355,21.1733357 44.84,21.8559955 44.84,22.752 L44.84,33.824 L46.856,33.824 Z M42.2159976,27.0999985 L35.5599976,31.2599985 L35.5599976,33.8199985 L42.2159976,33.8199985 L42.2159976,27.0999985 Z M60.4453337,20.128 C60.9146694,19.8293318 61.4639972,19.68 62.0933337,19.68 C62.7226702,19.68 63.2559982,19.9146643 63.6933337,20.384 C64.1306692,20.8533357 64.3493337,21.5359955 64.3493337,22.432 L64.3493337,33.184 C64.3493337,34.058671 64.2106684,34.6773315 63.9333337,35.04 C63.4213311,35.6800032 62.6426722,36 61.5973337,36 L50.3653337,36 L50.3653337,33.824 L52.3813337,33.824 L52.3813337,14.176 L50.3653337,14.176 L50.3653337,12 L55.0053337,12 L55.0053337,23.552 L60.4453337,20.128 Z M61.7893337,21.856 L55.0053337,26.112 L55.0053337,33.824 L61.7893337,33.824 L61.7893337,21.856 Z M73.2560005,33.824 L75.3360005,33.824 L75.3360005,36 L68.6160005,36 L68.6160005,33.824 L70.6320005,33.824 L70.6320005,22.176 L68.6160005,22.176 L68.6160005,20 L73.2560005,20 L73.2560005,33.824 Z M73.0800005,14.608 C73.3893354,14.9386683 73.5440005,15.333331 73.5440005,15.792 C73.5440005,16.250669 73.3893354,16.6346651 73.0800005,16.944 C72.7706656,17.2533349 72.3866695,17.408 71.9280005,17.408 C71.4693316,17.408 71.0853354,17.2533349 70.7760005,16.944 C70.4666656,16.6346651 70.3120005,16.250669 70.3120005,15.792 C70.3120005,15.333331 70.4719989,14.9386683 70.7920005,14.608 C71.1120021,14.2773317 71.4959983,14.112 71.9440005,14.112 C72.3920028,14.112 72.7706656,14.2773317 73.0800005,14.608 L73.0800005,14.608 Z M82.8266674,14.176 L82.8266674,20 L85.4186674,20 L85.4186674,22.304 L82.8266674,22.304 L82.8266674,33.824 L85.8666674,33.824 L85.8666674,36 L83.1786674,36 C82.2186626,36 81.504003,35.7493358 81.0346674,35.248 C80.5653317,34.7466642 80.3306674,33.8880061 80.3306674,32.672 L80.3306674,22.304 L77.9626674,22.304 L77.9626674,20 L80.3306674,20 L80.3306674,14.176 L82.8266674,14.176 Z M103.389334,33.824 L103.389334,36 L92.2533342,36 C91.1653288,36 90.4293361,35.7866688 90.0453342,35.36 C89.7039992,34.9759981 89.5333342,34.250672 89.5333342,33.184 L89.5333342,32 C89.5333342,31.2319962 89.6293332,30.7093347 89.8213342,30.432 C90.0986689,30.0266646 90.727996,29.5253363 91.7093342,28.928 L98.7493342,24.544 L98.7493342,22.176 L92.4773342,22.176 L92.4773342,24.032 L90.4293342,24.032 L90.4293342,20 L98.4293342,20 C99.5173396,20 100.279999,20.2346643 100.717334,20.704 C101.15467,21.1733357 101.373334,21.8559955 101.373334,22.752 L101.373334,33.824 L103.389334,33.824 Z M98.7493342,27.104 L92.0933342,31.264 L92.0933342,33.824 L98.7493342,33.824 L98.7493342,27.104 Z M110.364,14.1800003 L110.364,20.0040003 L112.956,20.0040003 L112.956,22.3080003 L110.364,22.3080003 L110.364,33.8280003 L113.404,33.8280003 L113.404,36.0040003 L110.716,36.0040003 C109.755995,36.0040003 109.041336,35.7533361 108.572,35.2520003 C108.102664,34.7506645 107.868,33.8920064 107.868,32.6760003 L107.868,22.3080003 L105.5,22.3080003 L105.5,20.0040003 L107.868,20.0040003 L107.868,14.1800003 L110.364,14.1800003 Z" id="Type-something"></path>
                </g>
            </g>
        </g>
    </g>
</svg>