<?xml version="1.0" encoding="UTF-8"?>
<svg width="64px" height="38px" viewBox="0 0 64 38" version="1.1" xmlns="http://www.w3.org/2000/svg" xmlns:xlink="http://www.w3.org/1999/xlink">
    <!-- Generator: Sketch 46.2 (44496) - http://www.bohemiancoding.com/sketch -->
    <title>hab cube@1x</title>
    <desc>Created with Sketch.</desc>
    <defs>
        <ellipse id="path-1" cx="4.0142998" cy="25.7765847" rx="1.1469428" ry="1.14562599"></ellipse>
        <filter x="-130.8%" y="-130.9%" width="361.6%" height="361.9%" filterUnits="objectBoundingBox" id="filter-2">
            <feOffset dx="0" dy="0" in="SourceAlpha" result="shadowOffsetOuter1"></feOffset>
            <feGaussianBlur stdDeviation="1" in="shadowOffsetOuter1" result="shadowBlurOuter1"></feGaussianBlur>
            <feColorMatrix values="0 0 0 0 0.725490196   0 0 0 0 0.854901961   0 0 0 0 0.552941176  0 0 0 1 0" type="matrix" in="shadowBlurOuter1"></feColorMatrix>
        </filter>
        <ellipse id="path-3" cx="4.0142998" cy="16.0387638" rx="1.1469428" ry="1.14562599"></ellipse>
        <filter x="-130.8%" y="-130.9%" width="361.6%" height="361.9%" filterUnits="objectBoundingBox" id="filter-4">
            <feOffset dx="0" dy="0" in="SourceAlpha" result="shadowOffsetOuter1"></feOffset>
            <feGaussianBlur stdDeviation="1" in="shadowOffsetOuter1" result="shadowBlurOuter1"></feGaussianBlur>
            <feColorMatrix values="0 0 0 0 0.725490196   0 0 0 0 0.854901961   0 0 0 0 0.552941176  0 0 0 1 0" type="matrix" in="shadowBlurOuter1"></feColorMatrix>
        </filter>
    </defs>
    <g id="Symbols" stroke="none" stroke-width="1" fill="none" fill-rule="evenodd">
        <g id="home-v4---bg" transform="translate(-923.000000, -3560.000000)">
            <g id="footer-graph" transform="translate(345.000000, 3396.000000)">
                <g id="hab-cube" transform="translate(578.865627, 164.189199)">
                    <g id="Group-7">
                        <g id="Group-6">
                            <path d="M2.2377009,22.0929692 C-0.7459003,21.1347199 -0.7459003,19.6441099 2.2377009,18.6858607 L26.2130677,10.9133944 C29.7294548,9.95514514 33.3523991,9.95514514 36.8687863,10.9133944 L60.8441531,18.6858607 C63.8277543,19.6441099 63.8277543,21.1347199 60.8441531,22.0929692 L36.8687863,29.8654354 C33.4589563,30.8236847 29.7294548,30.8236847 26.2130677,29.8654354 L2.2377009,22.0929692 Z" id="Fill-202-Copy" fill="#87B09A"></path>
                            <path d="M63.081854,10.1947075 L63.081854,16.5486517 C63.081854,17.2059562 62.3359537,17.8632608 60.8430875,18.3014639 L36.8677207,26.2986695 C33.3523991,27.2846264 29.7283893,27.2846264 26.2120021,26.2986695 L2.23663533,18.3014639 C0.7459003,17.8632608 0,17.2059562 0,16.5486517 L0,10.1947075 C0.105491614,10.7424613 0.852457486,11.2902151 2.13114372,11.7284181 L26.1065105,19.7256238 C29.6228976,20.7115806 33.245842,20.7115806 36.7622291,19.7256238 L60.7375959,11.7284181 C62.0162821,11.2902151 62.7611169,10.7424613 62.8687396,10.1947075 L63.081854,10.1947075 Z" id="Fill-199" fill="#799987"></path>
                            <path d="M63.081854,20.3894149 L63.081854,26.7433591 C63.081854,27.4006637 62.3359537,28.0579683 60.8430875,28.4961713 L36.8677207,36.493377 C33.3523991,37.4793338 29.7283893,37.4793338 26.2120021,36.493377 L2.23663533,28.4961713 C0.7459003,28.0579683 0,27.4006637 0,26.7433591 L0,20.3894149 C0.105491614,20.9371687 0.852457486,21.4849225 2.13114372,21.9231256 L26.1065105,29.9203312 C29.6228976,30.9062881 33.245842,30.9062881 36.7622291,29.9203312 L60.7375959,21.9231256 C62.0162821,21.4849225 62.7611169,20.9371687 62.8687396,20.3894149 L63.081854,20.3894149 Z" id="Fill-200" fill="#799987"></path>
                            <path d="M2.2377009,11.8982617 C-0.7459003,10.9400124 -0.7459003,9.44940247 2.2377009,8.49115321 L26.2130677,0.718686948 C29.7294548,-0.239562316 33.3523991,-0.239562316 36.8687863,0.718686948 L60.8441531,8.49115321 C63.8277543,9.44940247 63.8277543,10.9400124 60.8441531,11.8982617 L36.8687863,19.670728 C33.4589563,20.6289772 29.7294548,20.6289772 26.2130677,19.670728 L2.2377009,11.8982617 Z" id="Fill-202" fill="#87B09A"></path>
                            <path d="M50.828177,9.76032427 L46.4049674,8.05825137 C45.9734348,7.84549226 45.2193315,8.05825137 45.2193315,8.27101048 L45.2193315,8.90928782 C45.2193315,9.01566737 44.8946032,9.12204693 44.4641494,9.12204693 L41.9828367,9.12204693 C41.5502253,9.12204693 41.2276546,9.01566737 41.2276546,8.90928782 L41.2276546,7.7391127 C41.2276546,7.63273315 41.5502253,7.52635359 41.9828367,7.52635359 L42.845902,7.52635359 C43.4921221,7.52635359 43.8157716,7.20721492 43.3853178,7.10083537 L38.9610295,5.39876247 C38.63738,5.29238291 38.3137305,5.29238291 37.9911599,5.39876247 L33.5668715,7.10083537 C33.1364177,7.31359448 33.4589884,7.52635359 34.1062873,7.52635359 L35.0772357,7.52635359 C35.5098472,7.52635359 35.8334967,7.63273315 35.8334967,7.7391127 L35.8334967,8.90928782 C35.8334967,9.01566737 35.5098472,9.12204693 35.0772357,9.12204693 L29.6830778,9.12204693 C29.2515451,9.12204693 28.9278957,9.01566737 28.9278957,8.90928782 L28.9278957,7.7391127 C28.9278957,7.63273315 29.2515451,7.52635359 29.6830778,7.52635359 L30.655105,7.52635359 C31.3013252,7.52635359 31.6249746,7.20721492 31.1945208,7.10083537 L26.7702325,5.39876247 C26.446583,5.29238291 26.1240124,5.29238291 25.8003629,5.39876247 L21.3760745,7.10083537 C20.9456207,7.31359448 21.2692702,7.52635359 21.9154903,7.52635359 L22.6706724,7.52635359 C23.1032839,7.52635359 23.4269334,7.63273315 23.4269334,7.7391127 L23.4269334,8.90928782 C23.4269334,9.01566737 23.1032839,9.12204693 22.6706724,9.12204693 L20.2972429,9.12204693 C19.8667891,9.12204693 19.5420608,9.01566737 19.5420608,8.90928782 L19.5420608,8.27101048 C19.5420608,8.05825137 18.7879576,7.95187181 18.3553461,8.05825137 L13.9332154,9.76032427 C13.7174491,9.86670382 13.7174491,10.0794629 13.9332154,10.1858425 L18.3553461,11.8879154 C18.7879576,12.1006745 19.5420608,11.8879154 19.5420608,11.6751563 L19.5420608,11.0368789 C19.5420608,10.9304994 19.8667891,10.8241198 20.2972429,10.8241198 L22.6706724,10.8241198 C23.1032839,10.8241198 23.4269334,10.9304994 23.4269334,11.0368789 L23.4269334,12.2070541 C23.4269334,12.3134336 23.1032839,12.4198132 22.6706724,12.4198132 L21.5918409,12.4198132 C20.9456207,12.4198132 20.6208924,12.7389518 21.0524251,12.8453314 L25.4756346,14.5474043 C25.8003629,14.6537838 26.1240124,14.6537838 26.446583,14.5474043 L30.8697925,12.8453314 C31.3013252,12.6325723 30.9787545,12.4198132 30.3303767,12.4198132 L29.3605071,12.4198132 C28.9278957,12.4198132 28.6042462,12.3134336 28.6042462,12.2070541 L28.6042462,11.0368789 C28.6042462,10.9304994 28.9278957,10.8241198 29.3605071,10.8241198 L34.7546651,10.8241198 C35.1851189,10.8241198 35.5098472,10.9304994 35.5098472,11.0368789 L35.5098472,12.2070541 C35.5098472,12.3134336 35.1851189,12.4198132 34.7546651,12.4198132 L33.7826378,12.4198132 C33.1364177,12.4198132 32.8127682,12.7389518 33.243222,12.8453314 L37.6675104,14.5474043 C37.9911599,14.6537838 38.3137305,14.6537838 38.63738,14.5474043 L43.0616683,12.8453314 C43.4921221,12.6325723 43.1684727,12.4198132 42.5222525,12.4198132 L42.0896411,12.4198132 C41.6581084,12.4198132 41.334459,12.3134336 41.334459,12.2070541 L41.334459,11.0368789 C41.334459,10.9304994 41.6581084,10.8241198 42.0896411,10.8241198 L44.5709537,10.8241198 C45.0035652,10.8241198 45.3261358,10.9304994 45.3261358,11.0368789 L45.3261358,11.6751563 C45.3261358,11.8879154 46.0823968,11.9942949 46.5128506,11.8879154 L50.937139,10.1858425 C51.1529053,10.0794629 51.1529053,9.86670382 50.828177,9.76032427" id="Fill-203" fill="#FFFFFF"></path>
                        </g>
                    </g>
                    <g id="light">
                        <use fill="black" fill-opacity="1" filter="url(#filter-2)" xlink:href="#path-1"></use>
                        <use fill="#B9DA8D" fill-rule="evenodd" xlink:href="#path-1"></use>
                    </g>
                    <g id="light-copy">
                        <use fill="black" fill-opacity="1" filter="url(#filter-4)" xlink:href="#path-3"></use>
                        <use fill="#B9DA8D" fill-rule="evenodd" xlink:href="#path-3"></use>
                    </g>
                </g>
            </g>
        </g>
    </g>
</svg>