<?xml version="1.0" encoding="UTF-8"?>
<svg width="121px" height="115px" viewBox="0 0 121 115" version="1.1" xmlns="http://www.w3.org/2000/svg" xmlns:xlink="http://www.w3.org/1999/xlink">
    <!-- Generator: Sketch 46.2 (44496) - http://www.bohemiancoding.com/sketch -->
    <title>dockerhub@1x</title>
    <desc>Created with Sketch.</desc>
    <defs>
        <radialGradient cx="52.6621282%" cy="63.240681%" fx="52.6621282%" fy="63.240681%" r="57.0196281%" gradientTransform="translate(0.526621,0.632407),scale(0.757576,1.000000),rotate(-90.000000),scale(1.000000,2.117049),translate(-0.526621,-0.632407)" id="radialGradient-1">
            <stop stop-color="#FFFFFF" offset="0%"></stop>
            <stop stop-color="#B9C7CE" offset="100%"></stop>
        </radialGradient>
    </defs>
    <g id="Symbols" stroke="none" stroke-width="1" fill="none" fill-rule="evenodd">
        <g id="home-v4---bg" transform="translate(-345.000000, -3483.000000)">
            <g id="footer-graph" transform="translate(345.000000, 3396.000000)">
                <g id="dockerhub" transform="translate(0.000000, 87.000000)">
                    <g id="Group-3" fill="#E2F0F7">
                        <path d="M111.876701,57.256982 C92.1493195,86.3420752 60.4533864,93.1635442 60.4533864,93.1635442 C60.4533864,93.1635442 28.7574532,86.3420752 9.03007159,57.256982 C-10.6939396,28.1718889 7.4358376,21.7562584 11.5343334,21.0798609 C15.6328292,20.4034634 20.6851691,21.7122926 24.2207958,12.9529448 C27.759793,4.19697894 37.9891802,10.0681094 42.6505451,9.82122429 C47.31191,9.5709572 51.4980382,0.273873354 60.4533864,0.273873354 C69.4087345,0.273873354 73.5982331,9.5709572 78.2595981,9.82122429 C82.920963,10.0681094 93.1503501,4.19697894 96.6859769,12.9529448 C100.221604,21.7122926 105.273943,20.4034634 109.372439,21.0798609 C113.470935,21.7562584 131.604083,28.1718889 111.876701,57.256982" id="Fill-1"></path>
                    </g>
                    <path d="M38.7359752,13.3219805 C34.1590002,12.3680904 28.6654192,11.4138636 26.3111715,16.7776014 C22.9750623,24.3878464 18.2080387,23.2507879 14.3408026,23.8383411 C10.4735664,24.426231 -6.63349579,30.0000738 11.9778093,55.2699123 C30.5918053,80.5397507 60.4993956,92.1904762 60.4993956,92.1904762 C60.4993956,92.1904762 90.4069858,80.5397507 109.020982,55.2699123 C127.634978,30.0000738 110.525225,24.426231 106.658325,23.8383411 C102.790752,23.2507879 98.0237289,24.3878464 94.6876196,16.7776014 C92.3350538,11.4138636 86.842482,12.3680904 82.2658433,13.3219805 C80.3515665,13.7209779 78.5977377,14.1199754 77.3010346,14.0566745 C72.9026716,13.839162 68.9496614,5.76190476 60.4993956,5.76190476 C52.0494662,5.76190476 48.0994832,13.839162 43.7011202,14.0566745 C42.4037444,14.1199754 40.650252,13.7209779 38.7359752,13.3219805 Z" id="Fill-4" fill="url(#radialGradient-1)"></path>
                    <g id="Group-73" transform="translate(7.490476, 34.571429)">
                        <path d="M110.006206,59.8904645 C110.006206,63.3945068 85.4328893,79.5142519 55.1082418,79.5142519 C24.7839308,79.5142519 0.210614006,63.3945068 0.210614006,59.8904645 C0.210614006,56.3860839 24.7839308,55.6850047 55.1082418,55.6850047 C85.4328893,55.6850047 110.006206,56.3860839 110.006206,59.8904645" id="Fill-7" fill="#E2F0F7"></path>
                        <path d="M91.1842873,59.8904645 C91.1842873,63.3945068 74.9762976,79.5142519 55.1086456,79.5142519 C35.2406571,79.5142519 19.0326674,63.3945068 19.0326674,59.8904645 C19.0326674,56.3860839 35.2406571,55.6850047 55.1083091,55.6850047 C74.9762976,55.6850047 91.1842873,56.3860839 91.1842873,59.8904645" id="Fill-9" fill="#D0DDE2"></path>
                        <path d="M103.906544,59.7151609 C103.906544,62.8686636 82.1215578,68.1254038 55.1082418,68.1254038 C28.0952622,68.1254038 6.31027563,62.869002 6.31027563,59.7151609 C6.31027563,56.5609814 28.0952622,56.0355104 55.1082418,56.0355104 C82.1215578,56.0355104 103.906544,56.5613198 103.906544,59.7151609" id="Fill-11" fill="#EEFAFF"></path>
                        <path d="M103.906544,57.5236118 C103.906544,61.9100935 82.1215578,65.3217639 55.1082418,65.3217639 C28.0952622,65.3217639 6.31027563,61.9104319 6.31027563,57.5236118 C6.31027563,53.1367918 28.0952622,52.4059371 55.1082418,52.4059371 C82.1215578,52.4059371 103.906544,53.1371301 103.906544,57.5236118" id="Fill-13" fill="#C6C6C6"></path>
                        <path d="M7.35617712,56.0614626 C11.8875082,59.7167512 31.5808264,62.3975669 55.1088139,62.3975669 C78.6364648,62.3975669 98.3297831,59.7167512 102.861114,56.0614626 C98.3297831,52.8934104 78.6364648,52.4061739 55.1088139,52.4061739 C31.5808264,52.4061739 11.8875082,52.8934104 7.35617712,56.0614626" id="Fill-15" fill="#DBDBDB"></path>
                        <path d="M57.4428667,26.6974459 L57.4428667,52.819073 C57.4428667,54.9267091 55.7449638,56.6340669 53.6485837,56.6340669 L27.0307158,56.6340669 C24.9343357,56.6340669 23.2360962,54.9267091 23.2360962,52.819073 L23.2360962,26.6974459 L25.0672736,26.6974459 L25.0672736,26.9167023 C25.0672736,27.4222101 25.825861,27.8323008 26.7746,27.8323008 L53.7145478,27.8323008 C54.6542,27.8323008 55.4225473,27.4222101 55.4225473,26.9167023 L55.4225473,26.6974459 L57.4428667,26.6974459 Z" id="Fill-17" fill="#009AD7"></path>
                        <path d="M55.4237253,26.6974459 L55.4237253,26.9167023 C55.4237253,27.4222101 54.6553779,27.8323008 53.7160623,27.8323008 L26.7757779,27.8323008 C25.8273755,27.8323008 25.0684516,27.4222101 25.0684516,26.9167023 L25.0684516,26.6974459 L55.4237253,26.6974459 Z" id="Fill-19" fill="#E2F0F7"></path>
                        <path d="M55.4237253,26.3253867 L55.4237253,26.9168376 C55.4237253,27.4223455 54.6553779,27.8324362 53.7160623,27.8324362 L26.7757779,27.8324362 C25.8273755,27.8324362 25.0684516,27.4223455 25.0684516,26.9168376 L25.0684516,26.3253867 C25.0684516,25.8198789 25.8273755,25.4097882 26.7757779,25.4097882 L53.7160623,25.4097882 C54.6553779,25.4097882 55.4237253,25.8198789 55.4237253,26.3253867" id="Fill-21" fill="#F3FCFF"></path>
                        <path d="M55.4237253,26.3253867 L55.4237253,26.9168376 C55.4237253,27.4223455 54.6553779,27.8324362 53.7160623,27.8324362 L26.7757779,27.8324362 C25.8273755,27.8324362 25.0684516,27.4223455 25.0684516,26.9168376 L25.0684516,26.3253867 C25.0684516,25.8198789 25.8273755,25.4097882 26.7757779,25.4097882 L53.7160623,25.4097882 C54.6553779,25.4097882 55.4237253,25.8198789 55.4237253,26.3253867" id="Fill-23" fill="#009AD7"></path>
                        <path d="M55.4237253,26.9166685 C55.4237253,27.4221763 54.6553779,27.832267 53.7160623,27.832267 L26.7757779,27.832267 C25.8273755,27.832267 25.0684516,27.4221763 25.0684516,26.9166685 L25.0684516,26.3252175 C25.0684516,25.820048 25.8273755,25.4099573 26.7757779,25.4099573 L53.7160623,25.4099573 C54.6553779,25.4099573 55.4237253,25.820048 55.4237253,26.3252175 L55.4237253,26.9166685 Z M55.5182963,24.1986333 L25.1630226,24.1986333 C24.0911056,24.1986333 23.2376107,25.0665233 23.2376107,26.1347216 L23.2376107,27.3744677 C23.2376107,28.442666 24.0911056,29.310556 25.1630226,29.310556 L55.5182963,29.310556 C56.5807897,29.310556 57.4440447,28.442666 57.4440447,27.3744677 L57.4440447,26.1347216 C57.4440447,25.0665233 56.5807897,24.1986333 55.5182963,24.1986333 L55.5182963,24.1986333 Z" id="Fill-25" fill="#35CCFF"></path>
                        <path d="M39.5900147,0.25096062 C34.3731279,0.25096062 31.5884998,16.6082334 31.5884998,19.7877898 C31.5884998,24.2236719 35.1778229,27.8326054 39.5900147,27.8326054 C44.0022065,27.8326054 47.5915295,24.2236719 47.5915295,19.7877898 C47.5918661,16.6085718 44.8072379,0.25096062 39.5900147,0.25096062" id="Fill-27" fill="#BFEC80"></path>
                        <path d="M35.0178262,19.7878575 C35.0178262,16.9771121 37.1956518,3.87518793 41.3049471,0.872593155 C40.7657914,0.478743672 40.1949999,0.251028292 39.5902166,0.251028292 C34.3729933,0.251028292 31.5887017,16.6083011 31.5887017,19.7878575 C31.5887017,24.2237395 35.1780248,27.8323347 39.5902166,27.8323347 C40.1791819,27.8323347 40.7516563,27.7636479 41.3049471,27.6418387 C37.7146144,26.8500795 35.0178262,23.6316119 35.0178262,19.7878575" id="Fill-29" fill="#AAE655"></path>
                        <path d="M42.6845395,18.975323 C42.2379355,18.526321 41.5143495,18.526321 41.0680821,18.975323 L40.7335498,19.3119898 L40.7335498,17.4892517 C40.7335498,16.8544909 40.2216548,16.3398474 39.5902839,16.3398474 C38.9589131,16.3398474 38.447018,16.8544909 38.447018,17.4892517 L38.447018,21.6104602 L38.1121492,21.2737934 C37.6655452,20.8247914 36.9422957,20.8247914 36.4956917,21.2737934 C36.0494243,21.7227953 36.0494243,22.4499281 36.4956917,22.89893 L38.4473546,24.8607336 L38.4473546,27.8321993 L40.7332132,27.8321993 L40.7332132,22.5622632 L42.6845395,20.6004596 C43.1311435,20.1514577 43.1311435,19.4243249 42.6845395,18.975323" id="Fill-31" fill="#759684"></path>
                        <path d="M57.4417224,26.6974459 L57.4417224,27.3745016 C57.4417224,28.4426999 56.5784675,29.3105898 55.5156375,29.3105898 L25.1603638,29.3105898 C24.0884469,29.3105898 23.234952,28.4426999 23.234952,27.3745016 L23.234952,26.6974459 L25.0657928,26.6974459 L25.0657928,26.9167023 C25.0657928,27.4222101 25.8247167,27.8323008 26.7731192,27.8323008 L53.7134036,27.8323008 C54.6527191,27.8323008 55.421403,27.4222101 55.421403,26.9167023 L55.421403,26.6974459 L57.4417224,26.6974459 Z" id="Fill-33" fill="#35CCFF"></path>
                        <path d="M30.5825134,53.217964 L29.5630985,53.217964 C28.9169194,53.217964 28.393245,52.6914779 28.393245,52.0418293 L28.393245,33.2135232 C28.393245,32.5638745 28.9169194,32.0373885 29.5630985,32.0373885 L30.5825134,32.0373885 C31.2283559,32.0373885 31.7523668,32.5638745 31.7523668,33.2135232 L31.7523668,52.0418293 C31.7523668,52.6914779 31.2283559,53.217964 30.5825134,53.217964" id="Fill-35" fill="#35CCFF"></path>
                        <path d="M37.4423778,53.217964 L36.4229629,53.217964 C35.7771204,53.217964 35.253446,52.6914779 35.253446,52.0418293 L35.253446,33.2135232 C35.253446,32.5638745 35.7771204,32.0373885 36.4229629,32.0373885 L37.4423778,32.0373885 C38.0882204,32.0373885 38.6122312,32.5638745 38.6122312,33.2135232 L38.6122312,52.0418293 C38.6122312,52.6914779 38.0882204,53.217964 37.4423778,53.217964" id="Fill-37" fill="#35CCFF"></path>
                        <path d="M44.2805346,53.217964 L43.2611198,53.217964 C42.6149407,53.217964 42.0912663,52.6914779 42.0912663,52.0418293 L42.0912663,33.2135232 C42.0912663,32.5638745 42.6149407,32.0373885 43.2611198,32.0373885 L44.2805346,32.0373885 C44.9263772,32.0373885 45.4503881,32.5638745 45.4503881,33.2135232 L45.4503881,52.0418293 C45.4503881,52.6914779 44.9263772,53.217964 44.2805346,53.217964" id="Fill-39" fill="#35CCFF"></path>
                        <path d="M51.1185569,53.217964 L50.099142,53.217964 C49.4532994,53.217964 48.9296251,52.6914779 48.9296251,52.0418293 L48.9296251,33.2135232 C48.9296251,32.5638745 49.4532994,32.0373885 50.099142,32.0373885 L51.1185569,32.0373885 C51.764736,32.0373885 52.2884103,32.5638745 52.2884103,33.2135232 L52.2884103,52.0418293 C52.2884103,52.6914779 51.764736,53.217964 51.1185569,53.217964" id="Fill-41" fill="#35CCFF"></path>
                        <path d="M82.0106304,29.1105522 L82.0106304,55.2321793 C82.0106304,57.3398154 80.3127275,59.0471732 78.2163474,59.0471732 L51.5984795,59.0471732 C49.5020994,59.0471732 47.8038599,57.3398154 47.8038599,55.2321793 L47.8038599,29.1105522 L49.6350373,29.1105522 L49.6350373,29.3298086 C49.6350373,29.8353164 50.3936247,30.2454071 51.3423637,30.2454071 L78.2823115,30.2454071 C79.2216271,30.2454071 79.990311,29.8353164 79.990311,29.3298086 L79.990311,29.1105522 L82.0106304,29.1105522 Z" id="Fill-43" fill="#009AD7"></path>
                        <path d="M79.991489,29.1105522 L79.991489,29.3298086 C79.991489,29.8353164 79.2231416,30.2454071 78.2834895,30.2454071 L51.3435416,30.2454071 C50.3948026,30.2454071 49.6362153,29.8353164 49.6362153,29.3298086 L49.6362153,29.1105522 L79.991489,29.1105522 Z" id="Fill-45" fill="#E2F0F7"></path>
                        <path d="M79.991489,28.738493 L79.991489,29.329944 C79.991489,29.8354518 79.2231416,30.2455425 78.2834895,30.2455425 L51.3435416,30.2455425 C50.3948026,30.2455425 49.6362153,29.8354518 49.6362153,29.329944 L49.6362153,28.738493 C49.6362153,28.2329852 50.3948026,27.8228945 51.3435416,27.8228945 L78.2834895,27.8228945 C79.2231416,27.8228945 79.991489,28.2329852 79.991489,28.738493" id="Fill-47" fill="#F3FCFF"></path>
                        <path d="M79.991489,28.738493 L79.991489,29.329944 C79.991489,29.8354518 79.2231416,30.2455425 78.2834895,30.2455425 L51.3435416,30.2455425 C50.3948026,30.2455425 49.6362153,29.8354518 49.6362153,29.329944 L49.6362153,28.738493 C49.6362153,28.2329852 50.3948026,27.8228945 51.3435416,27.8228945 L78.2834895,27.8228945 C79.2231416,27.8228945 79.991489,28.2329852 79.991489,28.738493" id="Fill-49" fill="#009AD7"></path>
                        <path d="M79.991489,29.3298086 C79.991489,29.8353164 79.2231416,30.2454071 78.2834895,30.2454071 L51.3435416,30.2454071 C50.3948026,30.2454071 49.6362153,29.8353164 49.6362153,29.3298086 L49.6362153,28.7383577 C49.6362153,28.2331882 50.3948026,27.8230975 51.3435416,27.8230975 L78.2834895,27.8230975 C79.2231416,27.8230975 79.991489,28.2331882 79.991489,28.7383577 L79.991489,29.3298086 Z M80.08606,26.6117735 L49.7304497,26.6117735 C48.6588693,26.6117735 47.8050379,27.4796634 47.8050379,28.5478617 L47.8050379,29.7876079 C47.8050379,30.8558062 48.6588693,31.7236961 49.7304497,31.7236961 L80.08606,31.7236961 C81.1485534,31.7236961 82.0118084,30.8558062 82.0118084,29.7876079 L82.0118084,28.5478617 C82.0118084,27.4796634 81.1485534,26.6117735 80.08606,26.6117735 L80.08606,26.6117735 Z" id="Fill-51" fill="#35CCFF"></path>
                        <path d="M64.157812,2.66406693 C58.9409253,2.66406693 56.1562972,19.0213398 56.1562972,22.2008961 C56.1562972,26.6367782 59.7456202,30.2457117 64.157812,30.2457117 C68.5700038,30.2457117 72.1593269,26.6367782 72.1593269,22.2008961 C72.1593269,19.0216781 69.3750353,2.66406693 64.157812,2.66406693" id="Fill-53" fill="#BFEC80"></path>
                        <path d="M59.5854217,22.2009638 C59.5854217,19.3902184 61.7632472,6.28829424 65.8725425,3.28569947 C65.3337234,2.89184998 64.7625953,2.6641346 64.157812,2.6641346 C58.9409253,2.6641346 56.1562972,19.0214074 56.1562972,22.2009638 C56.1562972,26.6368458 59.7459568,30.245441 64.157812,30.245441 C64.7467774,30.245441 65.3195882,30.1767542 65.8725425,30.0549451 C62.2822098,29.2631858 59.5854217,26.0447182 59.5854217,22.2009638" id="Fill-55" fill="#AAE655"></path>
                        <path d="M67.2521686,21.3884631 C66.8055646,20.9394612 66.0823152,20.9394612 65.6357112,21.3884631 L65.3011789,21.72513 L65.3011789,19.9023919 C65.3011789,19.267631 64.7892838,18.7529875 64.157913,18.7529875 C63.5265421,18.7529875 63.0146471,19.267631 63.0146471,19.9023919 L63.0146471,24.0236004 L62.6801148,23.6869335 C62.2335108,23.2379316 61.5099248,23.2379316 61.0633208,23.6869335 C60.6170534,24.1359355 60.6170534,24.8630682 61.0633208,25.3120702 L63.0149837,27.2738737 L63.0149837,30.2453395 L65.3011789,30.2453395 L65.3011789,24.9754033 L67.2521686,23.0135998 C67.6987726,22.5645978 67.6987726,21.8374651 67.2521686,21.3884631" id="Fill-57" fill="#759684"></path>
                        <path d="M82.0093179,29.1105522 L82.0093179,29.7876079 C82.0093179,30.8558062 81.146063,31.7236961 80.0832329,31.7236961 L49.7279592,31.7236961 C48.6560423,31.7236961 47.8025474,30.8558062 47.8025474,29.7876079 L47.8025474,29.1105522 L49.6333882,29.1105522 L49.6333882,29.3298086 C49.6333882,29.8353164 50.3923121,30.2454071 51.3410512,30.2454071 L78.280999,30.2454071 C79.2203146,30.2454071 79.9889985,29.8353164 79.9889985,29.3298086 L79.9889985,29.1105522 L82.0093179,29.1105522 Z" id="Fill-59" fill="#35CCFF"></path>
                        <path d="M55.1501088,55.6310703 L54.1306939,55.6310703 C53.4848513,55.6310703 52.961177,55.1045843 52.961177,54.4549356 L52.961177,35.6266295 C52.961177,34.9769809 53.4848513,34.4504948 54.1306939,34.4504948 L55.1501088,34.4504948 C55.7959513,34.4504948 56.3199622,34.9769809 56.3199622,35.6266295 L56.3199622,54.4549356 C56.3199622,55.1045843 55.7959513,55.6310703 55.1501088,55.6310703" id="Fill-61" fill="#35CCFF"></path>
                        <path d="M62.0099732,55.6310703 L60.9905584,55.6310703 C60.3447158,55.6310703 59.8210415,55.1045843 59.8210415,54.4549356 L59.8210415,35.6266295 C59.8210415,34.9769809 60.3447158,34.4504948 60.9905584,34.4504948 L62.0099732,34.4504948 C62.6561523,34.4504948 63.1798267,34.9769809 63.1798267,35.6266295 L63.1798267,54.4549356 C63.1798267,55.1045843 62.6561523,55.6310703 62.0099732,55.6310703" id="Fill-63" fill="#35CCFF"></path>
                        <path d="M68.8481637,55.6310703 L67.8287489,55.6310703 C67.1829063,55.6310703 66.659232,55.1045843 66.659232,54.4549356 L66.659232,35.6266295 C66.659232,34.9769809 67.1829063,34.4504948 67.8287489,34.4504948 L68.8481637,34.4504948 C69.4940063,34.4504948 70.0180172,34.9769809 70.0180172,35.6266295 L70.0180172,54.4549356 C70.0180172,55.1045843 69.4940063,55.6310703 68.8481637,55.6310703" id="Fill-65" fill="#35CCFF"></path>
                        <path d="M75.6863206,55.6310703 L74.6669057,55.6310703 C74.0207266,55.6310703 73.4970523,55.1045843 73.4970523,54.4549356 L73.4970523,35.6266295 C73.4970523,34.9769809 74.0207266,34.4504948 74.6669057,34.4504948 L75.6863206,34.4504948 C76.3321632,34.4504948 76.856174,34.9769809 76.856174,35.6266295 L76.856174,54.4549356 C76.856174,55.1045843 76.3321632,55.6310703 75.6863206,55.6310703" id="Fill-67" fill="#35CCFF"></path>
                        <path d="M45.4502535,58.3615571 L20.8739077,58.3615571 C20.8739077,55.345428 26.3755171,52.9004483 33.1620806,52.9004483 C39.9486441,52.9004483 45.4502535,55.345428 45.4502535,58.3615571" id="Fill-69" fill="#DBDBDB"></path>
                        <path d="M85.3015668,60.1323233 L65.0563039,60.1323233 C65.0563039,57.1161942 69.5883081,54.6715528 75.1787671,54.6715528 C80.7695627,54.6715528 85.3015668,57.1161942 85.3015668,60.1323233" id="Fill-71" fill="#DBDBDB"></path>
                    </g>
                </g>
            </g>
        </g>
    </g>
</svg>