
<svg width="233px" height="189px" viewBox="0 0 233 189" version="1.1" xmlns="http://www.w3.org/2000/svg" xmlns:xlink="http://www.w3.org/1999/xlink">
    <!-- Generator: Sketch 49.3 (51167) - http://www.bohemiancoding.com/sketch -->
    <desc>Created with Sketch.</desc>
    <defs>
        <polygon id="path-1" points="0.00090015155 22.2537467 25.4149289 22.2537467 25.4149289 0.13114708 0.00090015155 0.13114708"></polygon>
        <polygon id="path-3" points="25.415779 3.81249187 25.415779 0.0348558684 0.00190031994 0.0348558684 0.00190031994 3.81249187"></polygon>
        <polygon id="path-5" points="0 0.13114708 0 2.0622222 25.4139537 2.0622222 25.4139537 0.13114708"></polygon>
    </defs>
    <g id="Page-1" stroke="none" stroke-width="1" fill="none" fill-rule="evenodd">
        <g id="jumping-habicat" transform="translate(0.000000, -20.000000)">
            <g id="Group-31-Copy-2" transform="translate(125.779754, 67.539660) scale(-1, 1) rotate(18.000000) translate(-125.779754, -67.539660) translate(73.279754, 14.039660)">
                <g id="Group-30">
                    <g id="Group-29" transform="translate(0.000000, 0.555176)">
                        <rect id="Rectangle-3" fill-opacity="0.1" fill="#000000" fill-rule="nonzero" x="27" y="87" width="8.01005386" height="3"></rect>
                        <path d="M56.8745117,8.078125 C48.597168,9.24169922 45.5877949,18.9077148 45.5877949,23.2456055" id="Path-3" stroke="#DEBFA5"></path>
                        <path d="M65.6296776,106.267449 C63.4171103,106.267449 62.0250165,104.977899 61.5503695,102.687161 C59.0396059,92.656548 60.0472908,85.9669776 64.5734243,82.6184505 C71.3626246,77.5956598 73.5270221,84.5986209 69.5964643,88.8213882 C66.9760924,91.6365664 66.9888391,96.1212256 69.6347045,102.275366 C69.6347045,104.480782 67.8422449,106.267449 65.6296776,106.267449 Z" id="Shape-Copy" fill="#DDC7AE" fill-rule="nonzero" transform="translate(65.878278, 93.570958) rotate(-51.000000) translate(-65.878278, -93.570958) "></path>
                        <path d="M38.0057805,106.267449 C35.7932132,106.267449 34.4011194,104.977899 33.9264724,102.687161 C31.4157088,92.656548 32.4233937,85.9669776 36.9495273,82.6184505 C43.7387275,77.5956598 45.903125,84.5986209 41.9725672,88.8213882 C39.3521953,91.6365664 39.3649421,96.1212256 42.0108074,102.275366 C42.0108074,104.480782 40.2183478,106.267449 38.0057805,106.267449 Z" id="Shape-Copy-2" fill="#DDC7AE" fill-rule="nonzero" transform="translate(38.254381, 93.570958) rotate(-51.000000) translate(-38.254381, -93.570958) "></path>
                        <path d="M9.90711013,61.5613025 C7.6945428,61.5613025 5.9020832,59.7746359 5.9020832,57.5692192 L5.9020832,42.8152609 L13.912137,42.8152609 L13.912137,57.5692192 C13.912137,59.7746359 12.1196774,61.5613025 9.90711013,61.5613025 Z" id="Shape-Copy-3" fill="#DDC7AE" fill-rule="nonzero" transform="translate(9.907110, 52.188282) rotate(140.000000) translate(-9.907110, -52.188282) "></path>
                        <rect id="Rectangle-6" fill="#DDC7AE" fill-rule="nonzero" x="12" y="22" width="78.5451895" height="65.3091967" rx="6"></rect>
                        <path d="M18,69 L90.5451895,69 L90.5451895,81.7460417 C90.5451895,85.0597502 87.858898,87.7460417 84.5451895,87.7460417 L18,87.7460417 C14.6862915,87.7460417 12,85.0597502 12,81.7460417 L12,75 C12,71.6862915 14.6862915,69 18,69 Z" id="Rectangle-6" fill="#A2BD7C" fill-rule="nonzero"></path>
                        <rect id="Rectangle-6-Copy" fill="#FFE9D1" fill-rule="nonzero" x="12" y="25" width="63.8520978" height="61.8445602" rx="4"></rect>
                        <path d="M43.7701059,43.87081 C50.836804,43.87081 56.5654947,49.5995007 56.5654947,56.6661989 L56.5654947,69.7279529 L30.974717,69.7279529 L30.974717,56.6661989 C30.974717,49.5995007 36.7034077,43.87081 43.7701059,43.87081 Z" id="Rectangle-Copy-9" fill="#FFFFFF" fill-rule="nonzero"></path>
                        <path d="M45.6266372,43.4140379 L45.2024423,43.9288138 C44.5661498,44.7254909 43.42318,44.8235435 42.6572725,44.1616887 C42.5747901,44.0881492 42.5040909,44.0146098 42.4333918,43.9288138 L42.0091968,43.4140379 C41.8677985,43.2424459 41.8913649,42.9850579 42.0563296,42.8379791 C42.1270288,42.7766962 42.2212943,42.7399265 42.3155598,42.7399265 L45.3202742,42.7399265 C45.5441549,42.7399265 45.7209028,42.923775 45.7209028,43.1566499 C45.7209028,43.2424459 45.6855532,43.3404984 45.6266372,43.4140379 Z" id="Shape-Copy-5" fill="#837365" fill-rule="nonzero"></path>
                        <ellipse id="Oval-Copy" fill="#837365" fill-rule="nonzero" cx="28.7224417" cy="40.716875" rx="1.72244165" ry="1.716875"></ellipse>
                        <ellipse id="Oval-Copy-2" fill="#837365" fill-rule="nonzero" cx="58.7224417" cy="40.716875" rx="1.72244165" ry="1.716875"></ellipse>
                        <path d="M47.3909668,49.0143943 L46.431632,49.7890226 C44.9926297,50.9878522 42.4077553,51.1354004 40.6756229,50.1394497 C40.4890856,50.0287885 40.3291964,49.9181273 40.1693073,49.7890226 L39.2099724,49.0143943 C38.8901942,48.7561848 38.9434905,48.3688706 39.3165652,48.1475483 C39.4764543,48.0553306 39.6896399,48 39.9028254,48 L46.6981139,48 C47.2044295,48 47.6041523,48.276653 47.6041523,48.6270801 C47.6041523,48.7561848 47.5242078,48.9037331 47.3909668,49.0143943 Z" id="Shape-Copy-4" fill="#837365" fill-rule="nonzero"></path>
                        <path d="M14,49 L17,49" id="Line-6" stroke="#827365" stroke-linecap="round" stroke-linejoin="round"></path>
                        <path d="M70.1893763,49.3662659 L73.1893763,49.3662659" id="Line-6-Copy-3" stroke="#827365" stroke-linecap="round" stroke-linejoin="round"></path>
                        <path d="M14,45 L17,45" id="Line-6-Copy" stroke="#827365" stroke-linecap="round" stroke-linejoin="round"></path>
                        <path d="M70.1893763,44.8662659 L73.1893763,44.8662659" id="Line-6-Copy-4" stroke="#827365" stroke-linecap="round" stroke-linejoin="round"></path>
                        <path d="M14,54 L17,54" id="Line-6-Copy-2" stroke="#827365" stroke-linecap="round" stroke-linejoin="round"></path>
                        <path d="M70.1893763,53.8662659 L73.1893763,53.8662659" id="Line-6-Copy-5" stroke="#827365" stroke-linecap="round" stroke-linejoin="round"></path>
                        <g id="Group-2" transform="translate(51.000000, 14.000000)" fill-rule="nonzero">
                            <path d="M10.3242716,1.86558247 L14.7437844,9.59972995 L0.695299856,9.59972995 L5.1148127,1.86558247 C5.93684261,0.42703013 7.7694066,-0.0727600504 9.20795894,0.749269858 C9.67305277,1.01503776 10.0585037,1.40048864 10.3242716,1.86558247 Z" id="Triangle-Copy-4" fill="#DDC7AE"></path>
                            <path d="M8.58778527,6.45964674 L10.3821185,9.59972995 L5.05696573,9.59972995 L6.85129899,6.45964674 C7.12530896,5.9801293 7.73616362,5.81353257 8.21568107,6.08754254 C8.37071234,6.17613184 8.49919597,6.30461547 8.58778527,6.45964674 Z" id="Triangle-Copy-5" fill="#827365"></path>
                        </g>
                        <g id="Group-2-Copy" transform="translate(22.000000, 14.000000)" fill-rule="nonzero">
                            <path d="M10.3242716,1.86558247 L14.7437844,9.59972995 L0.695299856,9.59972995 L5.1148127,1.86558247 C5.93684261,0.42703013 7.7694066,-0.0727600504 9.20795894,0.749269858 C9.67305277,1.01503776 10.0585037,1.40048864 10.3242716,1.86558247 Z" id="Triangle-Copy-4" fill="#DDC7AE"></path>
                            <path d="M8.58778527,6.45964674 L10.3821185,9.59972995 L5.05696573,9.59972995 L6.85129899,6.45964674 C7.12530896,5.9801293 7.73616362,5.81353257 8.21568107,6.08754254 C8.37071234,6.17613184 8.49919597,6.30461547 8.58778527,6.45964674 Z" id="Triangle-Copy-5" fill="#827365"></path>
                        </g>
                        <polygon id="Rectangle-3-Copy" fill-opacity="0.1" fill="#000000" fill-rule="nonzero" points="56.4398564 87 64.4499102 87 65.2600098 90 56.4398564 90"></polygon>
                        <polygon id="Rectangle-3-Copy-3" fill-opacity="0.1" fill="#000000" fill-rule="nonzero" points="28.8159593 87 36.8260132 87 37.6361127 90 28.8159593 90"></polygon>
                        <path d="M94.4868891,59.9014842 C92.2743218,59.9014842 90.4818622,58.1148175 90.4818622,55.9094008 L90.4818622,41.1554425 L98.4919161,41.1554425 L98.4919161,55.9094008 C98.4919161,58.1148175 96.6994565,59.9014842 94.4868891,59.9014842 Z" id="Shape-Copy-6" fill="#DDC7AE" fill-rule="nonzero" transform="translate(94.486889, 50.528463) rotate(-125.000000) translate(-94.486889, -50.528463) "></path>
                        <g id="Group-28" transform="translate(48.500000, 0.000000)" fill-rule="nonzero">
                            <g id="Group-27" fill="#FF9012">
                                <g id="Group-25" transform="translate(3.250000, 2.250000)">
                                    <ellipse id="Oval-2" transform="translate(8.250000, 5.250000) rotate(90.000000) translate(-8.250000, -5.250000) " cx="8.25" cy="5.25" rx="1.5" ry="2.25"></ellipse>
                                    <ellipse id="Oval-2" cx="5.25" cy="2.25" rx="1.5" ry="2.25"></ellipse>
                                    <ellipse id="Oval-2" transform="translate(2.250000, 5.250000) rotate(-90.000000) translate(-2.250000, -5.250000) " cx="2.25" cy="5.25" rx="1.5" ry="2.25"></ellipse>
                                    <ellipse id="Oval-2" transform="translate(5.250000, 8.250000) rotate(-180.000000) translate(-5.250000, -8.250000) " cx="5.25" cy="8.25" rx="1.5" ry="2.25"></ellipse>
                                </g>
                                <g id="Group-25" transform="translate(8.500000, 7.853553) rotate(45.000000) translate(-8.500000, -7.853553) translate(3.000000, 2.353553)">
                                    <ellipse id="Oval-2" transform="translate(8.250000, 5.250000) rotate(90.000000) translate(-8.250000, -5.250000) " cx="8.25" cy="5.25" rx="1.5" ry="2.25"></ellipse>
                                    <ellipse id="Oval-2" cx="5.25" cy="2.25" rx="1.5" ry="2.25"></ellipse>
                                    <ellipse id="Oval-2" transform="translate(2.250000, 5.250000) rotate(-90.000000) translate(-2.250000, -5.250000) " cx="2.25" cy="5.25" rx="1.5" ry="2.25"></ellipse>
                                    <ellipse id="Oval-2" transform="translate(5.250000, 8.250000) rotate(-180.000000) translate(-5.250000, -8.250000) " cx="5.25" cy="8.25" rx="1.5" ry="2.25"></ellipse>
                                </g>
                            </g>
                            <path d="M8.5,9 C7.67263564,9 7,8.32716744 7,7.49991958 C7,6.67267171 7.67263564,6 8.5,6 C9.32720352,6 10,6.67267171 10,7.49991958 C10,8.32716744 9.32720352,9 8.5,9" id="Fill-4" fill="#FFE48F"></path>
                        </g>
                        <path d="M12,69 L75.8520978,69 L75.8520978,83.7460417 C75.8520978,85.9551807 74.0612368,87.7460417 71.8520978,87.7460417 L16,87.7460417 C13.790861,87.7460417 12,85.9551807 12,83.7460417 L12,69 Z" id="Rectangle-6-Copy" fill="#B9DA8D" fill-rule="nonzero"></path>
                    </g>
                </g>
            </g>
            <g id="Asset-268-Copy-3" transform="translate(0.986328, 149.930236)" fill-rule="nonzero">
                <path d="M24.6325909,18.9276959 L24.6325909,37.6157394 C24.6325909,39.1224627 23.4097464,40.3439032 21.9012912,40.3439032 L2.7337232,40.3439032 C2.00891767,40.3445456 1.31357814,40.0573985 0.800835807,39.5456989 C0.288093474,39.0339993 -2.85327692e-07,38.339713 0,37.6157394 L0,18.9276959 L1.31839133,18.9276959 L1.31839133,19.0850434 C1.31839133,19.4457323 1.86368186,19.7410615 2.54711266,19.7410615 L21.9352204,19.7410615 C22.6113807,19.7410615 23.1639418,19.448153 23.1639418,19.0850434 L23.1639418,18.9276959 L24.6325909,18.9276959 Z" id="Shape" fill="#E2F0F7"></path>
                <path d="M23.1784828,18.9276959 L23.1784828,19.0850434 C23.1784828,19.4457323 22.6259218,19.7410615 21.9497615,19.7410615 L2.56165374,19.7410615 C1.87822294,19.7410615 1.33293241,19.448153 1.33293241,19.0850434 L1.33293241,18.9276959 L23.1784828,18.9276959 Z" id="Shape" fill="#E2F0F7"></path>
                <path d="M23.1784828,18.6614155 L23.1784828,19.0850434 C23.1784828,19.4457323 22.6259218,19.7410615 21.9497615,19.7410615 L2.56165374,19.7410615 C1.87822294,19.7410615 1.33293241,19.448153 1.33293241,19.0850434 L1.33293241,18.6614155 C1.33293241,18.3007265 1.87822294,18.0053973 2.56165374,18.0053973 L21.9497615,18.0053973 C22.6259218,18.0078181 23.1784828,18.3007265 23.1784828,18.6614155 Z" id="Shape" fill="#F3FCFF"></path>
                <path d="M23.1784828,18.6614155 L23.1784828,19.0850434 C23.1784828,19.4457323 22.6259218,19.7410615 21.9497615,19.7410615 L2.56165374,19.7410615 C1.87822294,19.7410615 1.33293241,19.448153 1.33293241,19.0850434 L1.33293241,18.6614155 C1.33293241,18.3007265 1.87822294,18.0053973 2.56165374,18.0053973 L21.9497615,18.0053973 C22.6259218,18.0078181 23.1784828,18.3007265 23.1784828,18.6614155 Z" id="Shape" fill="#E2F0F7"></path>
                <path d="M23.2463412,17.1411964 L1.38867322,17.1411964 C1.02040024,17.1399074 0.66680339,17.2852989 0.40616614,17.5451826 C0.14552889,17.8050663 -0.00064722646,18.1580027 -1.07625277e-16,18.5258545 L-1.07625277e-16,19.4118421 C-0.000644793023,19.7792733 0.145199027,20.1318409 0.405311182,20.3916544 C0.665423336,20.6514679 1.01839613,20.7971443 1.38624971,20.7965002 L23.2463412,20.7965002 C24.0113926,20.7951677 24.6312569,20.176015 24.6325909,19.4118421 L24.6325909,18.5258545 C24.6312569,17.7616815 24.0113926,17.1425288 23.2463412,17.1411964 Z M23.1784828,19.0777812 C23.1784828,19.4384701 22.6259218,19.7337993 21.9497615,19.7337993 L2.56165374,19.7337993 C1.87822294,19.7337993 1.33293241,19.4408908 1.33293241,19.0777812 L1.33293241,18.6614155 C1.33293241,18.3007265 1.87822294,18.0053973 2.56165374,18.0053973 L21.9497615,18.0053973 C22.6259218,18.0053973 23.1784828,18.2983058 23.1784828,18.6614155 L23.1784828,19.0777812 Z" id="Shape" fill="#F3FCFF"></path>
                <rect id="Rectangle-path" fill="#847264" x="1.67464781" y="26.3932303" width="21.2857188" height="7.11936994"></rect>
                <path d="M1.67464781,33.5126003 L22.9579431,33.5126003 L22.9579431,38.3274343 C22.9579431,38.5948208 22.7409343,38.8115805 22.4732404,38.8115805 L2.1593505,38.8115805 C1.8916566,38.8115805 1.67464781,38.5948208 1.67464781,38.3274343 L1.67464781,33.5126003 Z" id="Shape" fill="#685A50"></path>
                <rect id="Rectangle-path" fill="#9B8676" x="1.67464781" y="24.5147431" width="21.2857188" height="3.75697455" rx="1.87848727"></rect>
                <path d="M20.0448799,26.3448157 L17.9339997,26.3448157 C17.9716224,25.7909158 18.4324167,25.3608193 18.9882281,25.3608193 C19.5440394,25.3608193 20.0048337,25.7909158 20.0424564,26.3448157 L20.0448799,26.3448157 Z" id="Shape" fill="#B3B3B3"></path>
                <path d="M19.6983175,26.3448157 L17.5898608,26.3448157 C17.6274835,25.7909158 18.0882777,25.3608193 18.6440891,25.3608193 C19.1999005,25.3608193 19.6606948,25.7909158 19.6983175,26.3448157 Z" id="Shape" fill="#C3C6C8"></path>
                <path d="M7.08877691,26.3448157 L4.98032019,26.3448157 C5.00651957,25.7879377 5.4767936,25.3559983 6.03454855,25.3765233 C6.59230349,25.3559983 7.06257752,25.7879377 7.08877691,26.3448157 Z" id="Shape" fill="#B3B3B3"></path>
                <path d="M6.74463799,26.3448157 L4.63618127,26.3448157 C4.66238066,25.7879377 5.13265468,25.3559983 5.69040963,25.3765233 C6.24816458,25.3559983 6.71843861,25.7879377 6.74463799,26.3448157 Z" id="Shape" fill="#C3C6C8"></path>
                <circle id="Oval" fill="#9B8676" cx="16.2520813" cy="37.1533797" r="1"></circle>
                <circle id="Oval" fill="#9B8676" cx="8.82643607" cy="37.1533797" r="1"></circle>
                <circle id="Oval" fill="#847264" cx="13.1209019" cy="35.4395022" r="1"></circle>
                <circle id="Oval" fill="#9B8676" cx="19.7976816" cy="35.6331607" r="1"></circle>
                <circle id="Oval" fill="#847264" cx="4.45684128" cy="35.3475144" r="1"></circle>
                <path d="M10.341132,26.4101755 L14.7398089,26.4101755 C14.7398089,25.9556183 14.370894,25.5871269 13.9158144,25.5871269 C13.8334146,25.5885525 13.7517055,25.6024271 13.673463,25.6282793 C13.4172914,25.2583369 12.9956463,25.0375524 12.5453175,25.0375524 C12.0949886,25.0375524 11.6733436,25.2583369 11.417172,25.6282793 C11.3389295,25.6024271 11.2572204,25.5885525 11.1748206,25.5871269 C10.9546089,25.584539 10.7425236,25.670109 10.5858916,25.8247419 C10.4292597,25.9793748 10.3411167,26.1902013 10.341132,26.4101755 Z" id="Shape" fill="#847264"></path>
                <path d="M12.5804584,0 C8.82401255,0 6.81976691,11.7018138 6.81976691,13.9773009 C6.88408919,17.1098649 9.444846,19.6157592 12.5816702,19.6157592 C15.7184944,19.6157592 18.2792512,17.1098649 18.3435735,13.9773009 C18.3435735,11.7018138 16.3369043,0 12.5804584,0 Z" id="Shape" fill="#BFEC80"></path>
                <path d="M9.28932714,13.9773009 C9.28932714,11.9656734 10.8573404,2.59986512 13.8164503,0.445414508 C13.4630554,0.168172179 13.0296622,0.011990224 12.5804584,0 C8.82401255,-2.31935679e-16 6.81976691,11.7018138 6.81976691,13.9773009 C6.8130523,15.7227826 7.60124926,17.3766262 8.96185369,18.4719597 C10.3224581,19.5672931 12.1078518,19.9852788 13.8140268,19.6079213 C11.1699338,19.0240135 9.28802846,16.6821355 9.28932714,13.9773009 Z" id="Shape" fill="#AAE655"></path>
                <path d="M14.8100908,13.3963255 C14.4885331,13.0762464 13.9683621,13.0762464 13.6468044,13.3963255 L13.404453,13.6383986 L13.404453,12.3336246 C13.3807229,11.8970477 13.0193926,11.5551957 12.5816702,11.5551957 C12.1439478,11.5551957 11.7826175,11.8970477 11.7588874,12.3336246 L11.7588874,15.2820749 L11.516536,15.0400018 C11.1904468,14.7505368 10.6949919,14.7651049 10.3865143,15.0732284 C10.0780366,15.3813519 10.0634518,15.8762379 10.3532496,16.2019527 L11.7588874,17.6059767 L11.7588874,25.4878769 L13.404453,25.4878769 L13.404453,15.9623004 L14.8100908,14.5582764 C15.1305378,14.2370878 15.1305378,13.717514 14.8100908,13.3963255 Z" id="Shape" fill="#759684"></path>
                <g id="Group" opacity="0.5" transform="translate(0.000000, 18.881702)" fill="#F3FCFF">
                    <path d="M24.6325909,0.0459938894 L24.6325909,0.530140094 C24.6312569,1.29431306 24.0113926,1.91346576 23.2463412,1.91479824 L1.38624971,1.91479824 C1.01839613,1.91544229 0.665423336,1.76976592 0.405311182,1.5099524 C0.145199027,1.25013888 -0.000644793023,0.897571331 0,0.530140094 L-2.12896319e-06,0.0459938894 L1.31839133,0.0459938894 L1.31839133,0.203341406 C1.31839133,0.564030328 1.86368186,0.859359513 2.54711266,0.859359513 L21.9352204,0.859359513 C22.6113807,0.859359513 23.1639418,0.566451059 23.1639418,0.203341406 L23.1639418,0.0459938894 L24.6325909,0.0459938894 Z" id="Shape"></path>
                </g>
            </g>
            <g id="Page-1-Copy-2" transform="translate(206.742607, 167.219299)">
                <g id="Group-13" transform="translate(0.000000, 17.140886)">
                    <g id="Group-3" transform="translate(0.000000, 1.750295)">
                        <g id="Fill-1-Clipped">
                            <mask id="mask-2" fill="white">
                                <use xlink:href="#path-1"></use>
                            </mask>
                            <g id="path-1"></g>
                            <path d="M25.4149289,0.13114708 L25.4149289,19.434647 C25.4149289,20.9921593 24.1534665,22.2538717 22.5959543,22.2538717 L2.8201248,22.2538717 C1.26261257,22.2538717 0.00090015155,20.9921593 0.00090015155,19.434647 L0.00090015155,0.13114708 L1.3613792,0.13114708 L1.3613792,0.293174359 C1.3613792,0.666737252 1.92497409,0.969788274 2.62984276,0.969788274 L22.6452126,0.969788274 C23.3430801,0.969788274 23.9139262,0.666737252 23.9139262,0.293174359 L23.9139262,0.13114708 L25.4149289,0.13114708 Z" id="Fill-1" fill="#E2F0F7" fill-rule="nonzero" mask="url(#mask-2)"></path>
                        </g>
                    </g>
                    <path d="M23.9149263,1.88144176 L23.9149263,2.04346904 C23.9149263,2.41703193 23.3440802,2.72008296 22.6459627,2.72008296 L2.63084293,2.72008296 C1.92597426,2.72008296 1.36237937,2.41703193 1.36237937,2.04346904 L1.36237937,1.88144176 L23.9149263,1.88144176 Z" id="Fill-4" fill="#E2F0F7" fill-rule="nonzero"></path>
                    <path d="M23.9149263,1.60649547 L23.9149263,2.04356906 C23.9149263,2.41713195 23.3440802,2.72018297 22.6459627,2.72018297 L2.63084293,2.72018297 C1.92597426,2.72018297 1.36237937,2.41713195 1.36237937,2.04356906 L1.36237937,1.60649547 C1.36237937,1.23293258 1.92597426,0.929881556 2.63084293,0.929881556 L22.6459627,0.929881556 C23.3440802,0.929881556 23.9149263,1.23293258 23.9149263,1.60649547" id="Fill-6" fill="#F3FCFF" fill-rule="nonzero"></path>
                    <path d="M23.9149263,1.60649547 L23.9149263,2.04356906 C23.9149263,2.41713195 23.3440802,2.72018297 22.6459627,2.72018297 L2.63084293,2.72018297 C1.92597426,2.72018297 1.36237937,2.41713195 1.36237937,2.04356906 L1.36237937,1.60649547 C1.36237937,1.23293258 1.92597426,0.929881556 2.63084293,0.929881556 L22.6459627,0.929881556 C23.3440802,0.929881556 23.9149263,1.23293258 23.9149263,1.60649547" id="Fill-8" fill="#E2F0F7" fill-rule="nonzero"></path>
                    <g id="Group-12">
                        <g id="Fill-10-Clipped">
                            <mask id="mask-4" fill="white">
                                <use xlink:href="#path-3"></use>
                            </mask>
                            <g id="path-3"></g>
                            <path d="M23.9149263,2.04344404 C23.9149263,2.41700693 23.3440802,2.72005795 22.6459627,2.72005795 L2.63084293,2.72005795 C1.92597426,2.72005795 1.36237937,2.41700693 1.36237937,2.04344404 L1.36237937,1.60637045 C1.36237937,1.2330576 1.92597426,0.930006577 2.63084293,0.930006577 L22.6459627,0.930006577 C23.3440802,0.930006577 23.9149263,1.2330576 23.9149263,1.60637045 L23.9149263,2.04344404 Z M23.9849381,0.0348558684 L1.43239116,0.0348558684 C0.636007079,0.0348558684 0.00190031994,0.676213848 0.00190031994,1.46559675 L0.00190031994,2.38175099 C0.00190031994,3.17113389 0.636007079,3.81249187 1.43239116,3.81249187 L23.9849381,3.81249187 C24.7745711,3.81249187 25.415929,3.17113389 25.415929,2.38175099 L25.415929,1.46559675 C25.415929,0.676213848 24.7745711,0.0348558684 23.9849381,0.0348558684 Z" id="Fill-10" fill="#F3FCFF" fill-rule="nonzero" mask="url(#mask-4)"></path>
                        </g>
                    </g>
                </g>
                <polygon id="Fill-14" fill="#847264" fill-rule="nonzero" points="1.72754085 34.087239 23.6882382 34.087239 23.6882382 26.734251 1.72754085 26.734251"></polygon>
                <g id="Group-39" transform="translate(1.500253, 23.890675)" fill-rule="nonzero">
                    <path d="M21.6870012,15.6712353 L0.726472309,15.6712353 C0.450175792,15.6712353 0.226388115,15.4364147 0.226388115,15.1470822 L0.226388115,9.9330694 L22.1870854,9.9330694 L22.1870854,15.1470822 C22.1870854,15.4364147 21.9630477,15.6712353 21.6870012,15.6712353" id="Fill-15" fill="#685A50"></path>
                    <path d="M21.6870012,4.7844024 L0.726472309,4.7844024 C0.450175792,4.7844024 0.226388115,4.5603647 0.226388115,4.2843182 L0.226388115,1.40308311 C0.226388115,1.12678659 0.450175792,0.90299892 0.726472309,0.90299892 L21.6870012,0.90299892 C21.9630477,0.90299892 22.1870854,1.12678659 22.1870854,1.40308311 L22.1870854,4.2843182 C22.1870854,4.5603647 21.9630477,4.7844024 21.6870012,4.7844024" id="Fill-19" fill="#9B8676"></path>
                </g>
                <g id="Group-59" transform="translate(0.000000, 0.138023)">
                    <path d="M20.6614536,20.3563522 C19.897575,20.6536523 19.0689355,20.8151795 18.2022896,20.8151795 C14.3811462,20.8151795 11.2826246,17.6543973 11.2826246,13.7569911 C11.2826246,9.85758463 14.3811462,6.69655244 18.2022896,6.69655244 C18.6788698,6.69655244 19.1449483,6.74631081 19.5942739,6.84032664 C14.053341,7.83599427 9.95015022,19.3704362 20.6614536,20.3563522" id="Fill-40" fill="#AAE655" fill-rule="nonzero"></path>
                    <path d="M25.124605,13.7569661 C25.124605,16.7722238 23.2722931,19.3446569 20.6613536,20.3563272 C9.9500502,19.3704112 14.0534911,7.83596927 19.5944239,6.84030164 C22.7522056,7.49666214 25.124605,10.3446416 25.124605,13.7569661" id="Fill-42" fill="#BFEC80" fill-rule="nonzero"></path>
                    <path d="M15.995368,13.7718686 C15.2314894,14.0691687 14.4028499,14.2306959 13.536204,14.2306959 C9.71506064,14.2306959 6.61653897,11.0699137 6.61653897,7.17250757 C6.61653897,3.27310106 9.71506064,0.112068868 13.536204,0.112068868 C14.0127842,0.112068868 14.4788627,0.162077287 14.9281883,0.255843074 C9.38725545,1.25151071 5.28406463,12.7862027 15.995368,13.7718686" id="Fill-44" fill="#AAE655" fill-rule="nonzero"></path>
                    <path d="M20.4585194,7.17248257 C20.4585194,10.1877402 18.6062076,12.7601733 15.995268,13.7718436 C5.28396461,12.7861777 9.38740547,1.2514857 14.9283383,0.25581807 C18.08612,0.912178575 20.4585194,3.76015806 20.4585194,7.17248257" id="Fill-46" fill="#BFEC80" fill-rule="nonzero"></path>
                    <path d="M10.5037184,20.3563522 C9.73983981,20.6536523 8.9112003,20.8151795 8.04455439,20.8151795 C4.22341106,20.8151795 1.12488939,17.6543973 1.12488939,13.7569911 C1.12488939,9.85758463 4.22341106,6.69655244 8.04455439,6.69655244 C8.52113463,6.69655244 8.98721309,6.74631081 9.43653874,6.84032664 C3.89560587,7.83599427 -0.207584949,19.3704362 10.5037184,20.3563522" id="Fill-48" fill="#AAE655" fill-rule="nonzero"></path>
                    <path d="M14.9668948,13.7569661 C14.9668948,16.7722238 13.114583,19.3446569 10.5036434,20.3563272 C-0.207659962,19.3704112 3.8957809,7.83596927 9.43671377,6.84030164 C12.5944954,7.49666214 14.9668948,10.3446416 14.9668948,13.7569661" id="Fill-50" fill="#BFEC80" fill-rule="nonzero"></path>
                    <path d="M15.2794475,13.1700923 C14.9476416,12.8382865 14.4100511,12.8382865 14.0782452,13.1700923 L13.8297034,13.4188842 L13.8297034,12.0719074 C13.8297034,11.6028285 13.4493894,11.2225144 12.9805604,11.2225144 C12.5114814,11.2225144 12.1311674,11.6028285 12.1311674,12.0719074 L12.1311674,15.1174202 L11.8823755,14.8686283 C11.5505697,14.5368224 11.0132292,14.5368224 10.6814233,14.8686283 C10.3496175,15.2004342 10.3496175,15.7377746 10.6814233,16.0695805 L12.1311674,17.5193246 L12.1311674,25.6601952 L13.8297034,25.6601952 L13.8297034,15.8205386 L15.2794475,14.3710445 C15.6110033,14.0392387 15.6110033,13.5018982 15.2794475,13.1700923" id="Fill-52" fill="#759684" fill-rule="nonzero"></path>
                    <g id="Group-56" opacity="0.5" transform="translate(0.000000, 18.753157)">
                        <g id="Fill-54-Clipped">
                            <mask id="mask-6" fill="white">
                                <use xlink:href="#path-5"></use>
                            </mask>
                            <g id="path-5"></g>
                            <path d="M25.4139537,0.13114708 L25.4139537,0.631481317 C25.4139537,1.42086422 24.7725957,2.0622222 23.9829628,2.0622222 L1.43041583,2.0622222 C0.634031746,2.0622222 -7.50126292e-05,1.42086422 -7.50126292e-05,0.631481317 L-7.50126292e-05,0.13114708 L1.36040404,0.13114708 L1.36040404,0.293174359 C1.36040404,0.666737252 1.92399893,0.969788274 2.6288676,0.969788274 L22.6442374,0.969788274 C23.3421049,0.969788274 23.912951,0.666737252 23.912951,0.293174359 L23.912951,0.13114708 L25.4139537,0.13114708 Z" id="Fill-54" fill="#F3FCFF" fill-rule="nonzero" mask="url(#mask-6)"></path>
                        </g>
                    </g>
                    <path d="M10.6692963,26.6126555 L15.2075604,26.6126555 C15.2075604,26.1428264 14.8267462,25.7617623 14.3566671,25.7617623 C14.2676521,25.7617623 14.1831379,25.7792652 14.1021242,25.8047695 C13.8460811,25.4364575 13.4210096,25.1944168 12.9384283,25.1944168 C12.4560971,25.1944168 12.0310256,25.4364575 11.7747324,25.8047695 C11.6939688,25.7792652 11.6097046,25.7617623 11.5201895,25.7617623 C11.0503604,25.7617623 10.6692963,26.1428264 10.6692963,26.6126555" id="Fill-57" fill="#847264" fill-rule="nonzero"></path>
                </g>
            </g>
        </g>
    </g>
</svg>
