
<svg width="355px" height="143px" viewBox="0 0 355 143" version="1.1" xmlns="http://www.w3.org/2000/svg" xmlns:xlink="http://www.w3.org/1999/xlink">
    <!-- Generator: Sketch 49.3 (51167) - http://www.bohemiancoding.com/sketch -->
    <desc>Created with Sketch.</desc>
    <defs>
        <path d="M0.532653809,14.0605082 C9.11273193,14.2260355 13.1005249,9.36959022 15.758728,3.15328163 C18.4169312,-3.06302697 25.5014038,0.785605845 22.4657593,7.14058631 C19.4301147,13.4955668 11.8273972,22.0233988 0.532653809,21.8866801 C0.532653809,14.0605082 0.532653809,19.928184 0.532653809,14.0605082 Z" id="path-1"></path>
    </defs>
    <g id="Page-1" stroke="none" stroke-width="1" fill="none" fill-rule="evenodd">
        <g id="standing-habicat" transform="translate(0.000000, -3.000000)">
            <g id="Group-15-Copy-2" transform="translate(327.500000, 25.930236)" fill-rule="nonzero">
                <path d="M18.81089,11.9880997 C20.7348567,8.87954741 20.2698858,4.71690626 17.415113,2.17933042 C17.415113,2.17933042 17.2981648,2.06238218 17.2981648,1.94543394 C14.1405623,-0.744375536 9.22873632,-0.393530821 6.53892684,2.76407161 C3.84911736,5.92167404 4.19996208,10.7165518 7.35756451,13.5233095 L6.30503036,14.6927919 L12.035494,19.7215661 L12.0908091,19.6598805 L15.0761482,22.2947782 L16.1286824,21.1252958 C18.3506989,23.1134159 21.7421978,22.8795194 23.7303179,20.6575029 L27.238765,16.6812628 L23.2625249,13.1728157 C21.9862334,12.0974779 20.3615544,11.7173704 18.81089,11.9880997 Z" id="Combined-Shape" fill="#CAD3D9"></path>
                <path d="M3.16710401,13.2659053 C3.94247974,12.8361575 4.90205104,12.9220368 5.60380873,13.5235434 L13.6720677,20.6573859 C14.4918748,21.3590754 15.8952537,23.9319366 15.076616,24.633626 C14.2568089,25.3353155 11.6851171,24.0488849 10.8664794,23.3471954 L2.79705101,16.2133529 C2.29617177,15.7124737 2.09264423,15.0328259 2.27281674,14.3870902 L0.575736176,13.6403747 C0.340670218,13.5234265 0.22372198,13.28953 0.340670218,13.0556335 C0.457618456,12.821737 0.691514932,12.7047888 1.04235965,12.821737 L2.23605509,13.346963 L1.62733473,11.8860342 C1.5103865,11.6521377 1.62733473,11.4182412 1.86123121,11.301293 C2.09512769,11.1843448 2.32902416,11.301293 2.4459724,11.5351895 L3.16710401,13.2659053 Z" id="Combined-Shape" fill="#DEBFA5"></path>
                <path d="M14.0368355,14.7864395 L15.7876225,12.833263 C15.9045707,12.7163148 15.9045707,12.5993666 16.021519,12.4824183 C18.5943802,9.20786766 18.1265873,4.41298989 14.8520366,1.84012865 C11.6944342,-0.498836109 7.36851883,-0.264939632 4.56059163,2.54181808 C4.44481288,2.54181808 4.44481288,2.65876632 4.32669516,2.77571456 C1.63688568,5.93331699 1.87078216,10.7281948 5.02955407,13.5349525 C4.44481288,14.1196937 4.56059163,15.0552796 5.14533282,15.6400208 L9.70748359,19.6162609 L9.70859566,19.6150202 L13.0873265,22.6452721 C13.4393407,22.8791686 14.0240819,22.8791686 14.2568089,22.5283239 C14.4918748,22.1774791 14.9596678,22.1774791 15.3105125,22.4113756 C17.532529,23.8147545 20.5731832,23.4639098 22.3274068,21.4757897 L25.3668915,18.0842908 L25.4850092,17.9673426 C25.7189057,17.6164979 25.7189057,17.1487049 25.3668915,16.9148084 L22.5613033,14.4588954 C20.0769435,12.313312 16.3931324,12.4575901 14.0368355,14.7864395 Z" id="Combined-Shape" fill="#E8F0F6"></path>
                <path d="M8.76164506,9.43035508 C9.69723096,10.365941 11.2175581,10.2489927 12.0361957,9.31340684 C12.9717816,8.37782094 12.8548334,6.85749384 11.918078,6.03885617 C10.9824921,5.22021851 9.46333448,5.22021851 8.64352733,6.15580441 C8.64352733,6.15580441 8.64352733,6.27275265 8.52774858,6.27275265 C7.70911091,7.20833856 7.82488967,8.61171741 8.76164506,9.43035508" id="Fill-15" fill="#FF9012"></path>
            </g>
            <g id="Group-31-Copy" transform="translate(171.342422, 0.430236)">
                <g id="Group-30">
                    <g id="Group-29" transform="translate(0.000000, 0.555176)">
                        <path d="M31.0050269,99.7460417 C28.7924596,99.7460417 27,97.959375 27,95.7539583 L27,81 L35.0100539,81 L35.0100539,95.7539583 C35.0100539,97.959375 33.2175943,99.7460417 31.0050269,99.7460417 Z" id="Shape" fill="#DDC7AE" fill-rule="nonzero"></path>
                        <rect id="Rectangle-3" fill-opacity="0.1" fill="#000000" fill-rule="nonzero" x="27" y="87" width="8.01005386" height="3"></rect>
                        <path d="M56.8745117,8.078125 C48.597168,9.24169922 45.5877949,18.9077148 45.5877949,23.2456055" id="Path-3" stroke="#DEBFA5"></path>
                        <path d="M59.0050269,99.7460417 C56.7924596,99.7460417 55,97.959375 55,95.7539583 L55,81 L63.0100539,81 L63.0100539,95.7539583 C63.0100539,97.959375 61.2175943,99.7460417 59.0050269,99.7460417 Z" id="Shape-Copy" fill="#DDC7AE" fill-rule="nonzero"></path>
                        <path d="M9.90711015,61.5613031 C7.69454282,61.5613031 5.90208322,59.7746365 5.90208322,57.5692198 L5.90208322,42.8152615 L13.912137,42.8152615 L13.912137,57.5692198 C13.912137,59.7746365 12.1196774,61.5613031 9.90711015,61.5613031 Z" id="Shape-Copy-3" fill="#DDC7AE" fill-rule="nonzero" transform="translate(9.907110, 52.188282) rotate(140.000000) translate(-9.907110, -52.188282) "></path>
                        <rect id="Rectangle-6" fill="#DDC7AE" fill-rule="nonzero" x="12" y="22" width="78.5451895" height="65.3091967" rx="6"></rect>
                        <path d="M18,69 L90.5451895,69 L90.5451895,81.7460417 C90.5451895,85.0597502 87.858898,87.7460417 84.5451895,87.7460417 L18,87.7460417 C14.6862915,87.7460417 12,85.0597502 12,81.7460417 L12,75 C12,71.6862915 14.6862915,69 18,69 Z" id="Rectangle-6" fill="#A2BD7C" fill-rule="nonzero"></path>
                        <rect id="Rectangle-6-Copy" fill="#FFE9D1" fill-rule="nonzero" x="12" y="25" width="63.8520978" height="61.8445602" rx="4"></rect>
                        <path d="M44.2046111,43.1627372 C51.2713093,43.1627372 57,48.8914279 57,55.958126 L57,69.01988 L31.4092223,69.01988 L31.4092223,55.958126 C31.4092223,48.8914279 37.137913,43.1627372 44.2046111,43.1627372 Z" id="Rectangle-Copy-9" fill="#FFFFFF" fill-rule="nonzero"></path>
                        <ellipse id="Oval-Copy" fill="#837365" fill-rule="nonzero" cx="28.7224417" cy="40.716875" rx="1.72244165" ry="1.716875"></ellipse>
                        <ellipse id="Oval-Copy-2" fill="#837365" fill-rule="nonzero" cx="58.7224417" cy="40.716875" rx="1.72244165" ry="1.716875"></ellipse>
                        <path d="M47.3909668,49.0143943 L46.431632,49.7890226 C44.9926297,50.9878522 42.4077553,51.1354004 40.6756229,50.1394497 C40.4890856,50.0287885 40.3291964,49.9181273 40.1693073,49.7890226 L39.2099724,49.0143943 C38.8901942,48.7561848 38.9434905,48.3688706 39.3165652,48.1475483 C39.4764543,48.0553306 39.6896399,48 39.9028254,48 L46.6981139,48 C47.2044295,48 47.6041523,48.276653 47.6041523,48.6270801 C47.6041523,48.7561848 47.5242078,48.9037331 47.3909668,49.0143943 Z" id="Shape-Copy-4" fill="#837365" fill-rule="nonzero"></path>
                        <path d="M45.110086,43.014982 L44.685891,43.529758 C44.0495986,44.3264351 42.9066288,44.4244876 42.1407212,43.7626328 C42.0582389,43.6890934 41.9875397,43.615554 41.9168405,43.529758 L41.4926456,43.014982 C41.3512473,42.84339 41.3748136,42.586002 41.5397784,42.4389232 C41.6104775,42.3776404 41.7047431,42.3408706 41.7990086,42.3408706 L44.803723,42.3408706 C45.0276036,42.3408706 45.2043516,42.5247192 45.2043516,42.757594 C45.2043516,42.84339 45.169002,42.9414426 45.110086,43.014982 Z" id="Shape-Copy-5" fill="#837365" fill-rule="nonzero"></path>
                        <path d="M14,49 L17,49" id="Line-6" stroke="#827365" stroke-linecap="round" stroke-linejoin="round"></path>
                        <path d="M70.1893763,49.3662659 L73.1893763,49.3662659" id="Line-6-Copy-3" stroke="#827365" stroke-linecap="round" stroke-linejoin="round"></path>
                        <path d="M14,45 L17,45" id="Line-6-Copy" stroke="#827365" stroke-linecap="round" stroke-linejoin="round"></path>
                        <path d="M70.1893763,44.8662659 L73.1893763,44.8662659" id="Line-6-Copy-4" stroke="#827365" stroke-linecap="round" stroke-linejoin="round"></path>
                        <path d="M14,54 L17,54" id="Line-6-Copy-2" stroke="#827365" stroke-linecap="round" stroke-linejoin="round"></path>
                        <path d="M70.1893763,53.8662659 L73.1893763,53.8662659" id="Line-6-Copy-5" stroke="#827365" stroke-linecap="round" stroke-linejoin="round"></path>
                        <g id="Group-2" transform="translate(51.000000, 14.000000)" fill-rule="nonzero">
                            <path d="M10.3242716,1.86558247 L14.7437844,9.59972995 L0.695299856,9.59972995 L5.1148127,1.86558247 C5.93684261,0.42703013 7.7694066,-0.0727600504 9.20795894,0.749269858 C9.67305277,1.01503776 10.0585037,1.40048864 10.3242716,1.86558247 Z" id="Triangle-Copy-4" fill="#DDC7AE"></path>
                            <path d="M8.58778527,6.45964674 L10.3821185,9.59972995 L5.05696573,9.59972995 L6.85129899,6.45964674 C7.12530896,5.9801293 7.73616362,5.81353257 8.21568107,6.08754254 C8.37071234,6.17613184 8.49919597,6.30461547 8.58778527,6.45964674 Z" id="Triangle-Copy-5" fill="#827365"></path>
                        </g>
                        <g id="Group-2-Copy" transform="translate(22.000000, 14.000000)" fill-rule="nonzero">
                            <path d="M10.3242716,1.86558247 L14.7437844,9.59972995 L0.695299856,9.59972995 L5.1148127,1.86558247 C5.93684261,0.42703013 7.7694066,-0.0727600504 9.20795894,0.749269858 C9.67305277,1.01503776 10.0585037,1.40048864 10.3242716,1.86558247 Z" id="Triangle-Copy-4" fill="#DDC7AE"></path>
                            <path d="M8.58778527,6.45964674 L10.3821185,9.59972995 L5.05696573,9.59972995 L6.85129899,6.45964674 C7.12530896,5.9801293 7.73616362,5.81353257 8.21568107,6.08754254 C8.37071234,6.17613184 8.49919597,6.30461547 8.58778527,6.45964674 Z" id="Triangle-Copy-5" fill="#827365"></path>
                        </g>
                        <path d="M90.5326538,72.0605082 C99.1127319,72.2260355 103.100525,67.3695902 105.758728,61.1532816 C108.416931,54.936973 115.501404,58.7856058 112.465759,65.1405863 C109.430115,71.4955668 101.827397,80.0233988 90.5326538,79.8866801 C90.5326538,72.0605082 90.5326538,77.928184 90.5326538,72.0605082 Z" id="Path-2" fill="#DDC7AE" fill-rule="nonzero"></path>
                        <rect id="Rectangle-3-Copy" fill-opacity="0.1" fill="#000000" fill-rule="nonzero" x="55" y="87" width="8.01005386" height="3"></rect>
                        <g id="Rectangle-3-Copy-2" transform="translate(90.000000, 58.000000)">
                            <g id="Mask" fill="#DDC7AE" fill-rule="nonzero">
                                <path d="M0.532653809,14.0605082 C9.11273193,14.2260355 13.1005249,9.36959022 15.758728,3.15328163 C18.4169312,-3.06302697 25.5014038,0.785605845 22.4657593,7.14058631 C19.4301147,13.4955668 11.8273972,22.0233988 0.532653809,21.8866801 C0.532653809,14.0605082 0.532653809,19.928184 0.532653809,14.0605082 Z" id="path-1"></path>
                            </g>
                            <g id="Clipped">
                                <g id="Rectangle-path-Clipped">
                                    <mask id="mask-2" fill="white">
                                        <use xlink:href="#path-1"></use>
                                    </mask>
                                    <g id="path-1"></g>
                                    <rect id="Rectangle-path" fill-opacity="0.1" fill="#000000" fill-rule="nonzero" mask="url(#mask-2)" transform="translate(2.249529, 17.783639) rotate(-90.000000) translate(-2.249529, -17.783639) " x="-1.97688531" y="16.0667637" width="8.45282903" height="3.43375"></rect>
                                </g>
                            </g>
                        </g>
                        <path d="M94.4868892,59.9014835 C92.2743219,59.9014835 90.4818623,58.1148168 90.4818623,55.9094001 L90.4818623,41.1554418 L98.4919162,41.1554418 L98.4919162,55.9094001 C98.4919162,58.1148168 96.6994566,59.9014835 94.4868892,59.9014835 Z" id="Shape-Copy-6" fill="#DDC7AE" fill-rule="nonzero" transform="translate(94.486889, 50.528463) rotate(-125.000000) translate(-94.486889, -50.528463) "></path>
                        <g id="Group-28" transform="translate(48.500000, 0.000000)" fill-rule="nonzero">
                            <g id="Group-27" fill="#FF9012">
                                <g id="Group-25" transform="translate(3.250000, 2.250000)">
                                    <ellipse id="Oval-2" transform="translate(8.250000, 5.250000) rotate(90.000000) translate(-8.250000, -5.250000) " cx="8.25" cy="5.25" rx="1.5" ry="2.25"></ellipse>
                                    <ellipse id="Oval-2" cx="5.25" cy="2.25" rx="1.5" ry="2.25"></ellipse>
                                    <ellipse id="Oval-2" transform="translate(2.250000, 5.250000) rotate(-90.000000) translate(-2.250000, -5.250000) " cx="2.25" cy="5.25" rx="1.5" ry="2.25"></ellipse>
                                    <ellipse id="Oval-2" transform="translate(5.250000, 8.250000) rotate(-180.000000) translate(-5.250000, -8.250000) " cx="5.25" cy="8.25" rx="1.5" ry="2.25"></ellipse>
                                </g>
                                <g id="Group-25" transform="translate(8.500000, 7.853553) rotate(45.000000) translate(-8.500000, -7.853553) translate(3.000000, 2.353553)">
                                    <ellipse id="Oval-2" transform="translate(8.250000, 5.250000) rotate(90.000000) translate(-8.250000, -5.250000) " cx="8.25" cy="5.25" rx="1.5" ry="2.25"></ellipse>
                                    <ellipse id="Oval-2" cx="5.25" cy="2.25" rx="1.5" ry="2.25"></ellipse>
                                    <ellipse id="Oval-2" transform="translate(2.250000, 5.250000) rotate(-90.000000) translate(-2.250000, -5.250000) " cx="2.25" cy="5.25" rx="1.5" ry="2.25"></ellipse>
                                    <ellipse id="Oval-2" transform="translate(5.250000, 8.250000) rotate(-180.000000) translate(-5.250000, -8.250000) " cx="5.25" cy="8.25" rx="1.5" ry="2.25"></ellipse>
                                </g>
                            </g>
                            <path d="M8.5,9 C7.67263564,9 7,8.32716744 7,7.49991958 C7,6.67267171 7.67263564,6 8.5,6 C9.32720352,6 10,6.67267171 10,7.49991958 C10,8.32716744 9.32720352,9 8.5,9" id="Fill-4" fill="#FFE48F"></path>
                        </g>
                        <path d="M12,69 L75.8520978,69 L75.8520978,83.7460417 C75.8520978,85.9551807 74.0612368,87.7460417 71.8520978,87.7460417 L16,87.7460417 C13.790861,87.7460417 12,85.9551807 12,83.7460417 L12,69 Z" id="Rectangle-6-Copy" fill="#B9DA8D" fill-rule="nonzero"></path>
                    </g>
                </g>
            </g>
            <g id="Asset-268-Copy-3" transform="translate(78.000000, 94.102539)" fill-rule="nonzero">
                <path d="M24.6325909,18.9276959 L24.6325909,37.6157394 C24.6325909,39.1224627 23.4097464,40.3439032 21.9012912,40.3439032 L2.7337232,40.3439032 C2.00891767,40.3445456 1.31357814,40.0573985 0.800835807,39.5456989 C0.288093474,39.0339993 -2.85327692e-07,38.339713 0,37.6157394 L0,18.9276959 L1.31839133,18.9276959 L1.31839133,19.0850434 C1.31839133,19.4457323 1.86368186,19.7410615 2.54711266,19.7410615 L21.9352204,19.7410615 C22.6113807,19.7410615 23.1639418,19.448153 23.1639418,19.0850434 L23.1639418,18.9276959 L24.6325909,18.9276959 Z" id="Shape" fill="#E2F0F7"></path>
                <path d="M23.1784828,18.9276959 L23.1784828,19.0850434 C23.1784828,19.4457323 22.6259218,19.7410615 21.9497615,19.7410615 L2.56165374,19.7410615 C1.87822294,19.7410615 1.33293241,19.448153 1.33293241,19.0850434 L1.33293241,18.9276959 L23.1784828,18.9276959 Z" id="Shape" fill="#E2F0F7"></path>
                <path d="M23.1784828,18.6614155 L23.1784828,19.0850434 C23.1784828,19.4457323 22.6259218,19.7410615 21.9497615,19.7410615 L2.56165374,19.7410615 C1.87822294,19.7410615 1.33293241,19.448153 1.33293241,19.0850434 L1.33293241,18.6614155 C1.33293241,18.3007265 1.87822294,18.0053973 2.56165374,18.0053973 L21.9497615,18.0053973 C22.6259218,18.0078181 23.1784828,18.3007265 23.1784828,18.6614155 Z" id="Shape" fill="#F3FCFF"></path>
                <path d="M23.1784828,18.6614155 L23.1784828,19.0850434 C23.1784828,19.4457323 22.6259218,19.7410615 21.9497615,19.7410615 L2.56165374,19.7410615 C1.87822294,19.7410615 1.33293241,19.448153 1.33293241,19.0850434 L1.33293241,18.6614155 C1.33293241,18.3007265 1.87822294,18.0053973 2.56165374,18.0053973 L21.9497615,18.0053973 C22.6259218,18.0078181 23.1784828,18.3007265 23.1784828,18.6614155 Z" id="Shape" fill="#E2F0F7"></path>
                <path d="M23.2463412,17.1411964 L1.38867322,17.1411964 C1.02040024,17.1399074 0.66680339,17.2852989 0.40616614,17.5451826 C0.14552889,17.8050663 -0.00064722646,18.1580027 -1.076257e-16,18.5258545 L-1.076257e-16,19.4118421 C-0.000644793023,19.7792733 0.145199027,20.1318409 0.405311182,20.3916544 C0.665423336,20.6514679 1.01839613,20.7971443 1.38624971,20.7965002 L23.2463412,20.7965002 C24.0113926,20.7951677 24.6312569,20.176015 24.6325909,19.4118421 L24.6325909,18.5258545 C24.6312569,17.7616815 24.0113926,17.1425288 23.2463412,17.1411964 Z M23.1784828,19.0777812 C23.1784828,19.4384701 22.6259218,19.7337993 21.9497615,19.7337993 L2.56165374,19.7337993 C1.87822294,19.7337993 1.33293241,19.4408908 1.33293241,19.0777812 L1.33293241,18.6614155 C1.33293241,18.3007265 1.87822294,18.0053973 2.56165374,18.0053973 L21.9497615,18.0053973 C22.6259218,18.0053973 23.1784828,18.2983058 23.1784828,18.6614155 L23.1784828,19.0777812 Z" id="Shape" fill="#F3FCFF"></path>
                <rect id="Rectangle-path" fill="#847264" x="1.67464781" y="26.3932303" width="21.2857188" height="7.11936994"></rect>
                <path d="M1.67464781,33.5126003 L22.9579431,33.5126003 L22.9579431,38.3274343 C22.9579431,38.5948208 22.7409343,38.8115805 22.4732404,38.8115805 L2.1593505,38.8115805 C1.8916566,38.8115805 1.67464781,38.5948208 1.67464781,38.3274343 L1.67464781,33.5126003 Z" id="Shape" fill="#685A50"></path>
                <rect id="Rectangle-path" fill="#9B8676" x="1.67464781" y="24.5147431" width="21.2857188" height="3.75697455" rx="1.87848727"></rect>
                <path d="M20.0448799,26.3448157 L17.9339997,26.3448157 C17.9716224,25.7909158 18.4324167,25.3608193 18.9882281,25.3608193 C19.5440394,25.3608193 20.0048337,25.7909158 20.0424564,26.3448157 L20.0448799,26.3448157 Z" id="Shape" fill="#B3B3B3"></path>
                <path d="M19.6983175,26.3448157 L17.5898608,26.3448157 C17.6274835,25.7909158 18.0882777,25.3608193 18.6440891,25.3608193 C19.1999005,25.3608193 19.6606948,25.7909158 19.6983175,26.3448157 Z" id="Shape" fill="#C3C6C8"></path>
                <path d="M7.08877691,26.3448157 L4.98032019,26.3448157 C5.00651957,25.7879377 5.4767936,25.3559983 6.03454855,25.3765233 C6.59230349,25.3559983 7.06257752,25.7879377 7.08877691,26.3448157 Z" id="Shape" fill="#B3B3B3"></path>
                <path d="M6.74463799,26.3448157 L4.63618127,26.3448157 C4.66238066,25.7879377 5.13265468,25.3559983 5.69040963,25.3765233 C6.24816458,25.3559983 6.71843861,25.7879377 6.74463799,26.3448157 Z" id="Shape" fill="#C3C6C8"></path>
                <circle id="Oval" fill="#9B8676" cx="16.2520813" cy="37.1533797" r="1"></circle>
                <circle id="Oval" fill="#9B8676" cx="8.82643607" cy="37.1533797" r="1"></circle>
                <circle id="Oval" fill="#847264" cx="13.1209019" cy="35.4395022" r="1"></circle>
                <circle id="Oval" fill="#9B8676" cx="19.7976816" cy="35.6331607" r="1"></circle>
                <circle id="Oval" fill="#847264" cx="4.45684128" cy="35.3475144" r="1"></circle>
                <path d="M10.341132,26.4101755 L14.7398089,26.4101755 C14.7398089,25.9556183 14.370894,25.5871269 13.9158144,25.5871269 C13.8334146,25.5885525 13.7517055,25.6024271 13.673463,25.6282793 C13.4172914,25.2583369 12.9956463,25.0375524 12.5453175,25.0375524 C12.0949886,25.0375524 11.6733436,25.2583369 11.417172,25.6282793 C11.3389295,25.6024271 11.2572204,25.5885525 11.1748206,25.5871269 C10.9546089,25.584539 10.7425236,25.670109 10.5858916,25.8247419 C10.4292597,25.9793748 10.3411167,26.1902013 10.341132,26.4101755 Z" id="Shape" fill="#847264"></path>
                <path d="M12.5804584,0 C8.82401255,0 6.81976691,11.7018138 6.81976691,13.9773009 C6.88408919,17.1098649 9.444846,19.6157592 12.5816702,19.6157592 C15.7184944,19.6157592 18.2792512,17.1098649 18.3435735,13.9773009 C18.3435735,11.7018138 16.3369043,0 12.5804584,0 Z" id="Shape" fill="#BFEC80"></path>
                <path d="M9.28932714,13.9773009 C9.28932714,11.9656734 10.8573404,2.59986512 13.8164503,0.445414508 C13.4630554,0.168172179 13.0296622,0.011990224 12.5804584,0 C8.82401255,-2.31935679e-16 6.81976691,11.7018138 6.81976691,13.9773009 C6.8130523,15.7227826 7.60124926,17.3766262 8.96185369,18.4719597 C10.3224581,19.5672931 12.1078518,19.9852788 13.8140268,19.6079213 C11.1699338,19.0240135 9.28802846,16.6821355 9.28932714,13.9773009 Z" id="Shape" fill="#AAE655"></path>
                <path d="M14.8100908,13.3963255 C14.4885331,13.0762464 13.9683621,13.0762464 13.6468044,13.3963255 L13.404453,13.6383986 L13.404453,12.3336246 C13.3807229,11.8970477 13.0193926,11.5551957 12.5816702,11.5551957 C12.1439478,11.5551957 11.7826175,11.8970477 11.7588874,12.3336246 L11.7588874,15.2820749 L11.516536,15.0400018 C11.1904468,14.7505368 10.6949919,14.7651049 10.3865143,15.0732284 C10.0780366,15.3813519 10.0634518,15.8762379 10.3532496,16.2019527 L11.7588874,17.6059767 L11.7588874,25.4878769 L13.404453,25.4878769 L13.404453,15.9623004 L14.8100908,14.5582764 C15.1305378,14.2370878 15.1305378,13.717514 14.8100908,13.3963255 Z" id="Shape" fill="#759684"></path>
                <g id="Group" opacity="0.5" transform="translate(0.000000, 18.881702)" fill="#F3FCFF">
                    <path d="M24.6325909,0.0459938894 L24.6325909,0.530140094 C24.6312569,1.29431306 24.0113926,1.91346576 23.2463412,1.91479824 L1.38624971,1.91479824 C1.01839613,1.91544229 0.665423336,1.76976592 0.405311182,1.5099524 C0.145199027,1.25013888 -0.000644793023,0.897571331 -4.23516474e-22,0.530140094 L-2.12896319e-06,0.0459938894 L1.31839133,0.0459938894 L1.31839133,0.203341406 C1.31839133,0.564030328 1.86368186,0.859359513 2.54711266,0.859359513 L21.9352204,0.859359513 C22.6113807,0.859359513 23.1639418,0.566451059 23.1639418,0.203341406 L23.1639418,0.0459938894 L24.6325909,0.0459938894 Z" id="Shape"></path>
                </g>
            </g>
            <g id="Group-8-Copy-6" transform="translate(0.101562, 113.219299)" fill-rule="nonzero">
                <g id="Group-7">
                    <g id="Group-6">
                        <path d="M74.5902265,12.0684403 L74.5902265,19.5902056 C74.5902265,20.3683193 73.7082475,21.1464329 71.9430295,21.6651753 L43.5937035,31.1322248 C39.4370623,32.2993952 35.1519042,32.2993952 30.9940031,31.1322248 L2.64467712,21.6651753 C0.88197903,21.1464329 0,20.3683193 0,19.5902056 L0,12.0684403 C0.124737034,12.7168684 1.00797603,13.3652964 2.51994008,13.8840388 L30.869266,23.3510883 C35.0271672,24.5182587 39.3110653,24.5182587 43.4689665,23.3510883 L71.8182924,13.8840388 C73.3302565,13.3652964 74.2109755,12.7168684 74.3382325,12.0684403 L74.5902265,12.0684403 Z" id="Fill-199" fill="#799987"></path>
                        <path d="M2.64593709,14.0850988 C-0.88197903,12.9507284 -0.88197903,11.1861523 2.64593709,10.0517819 L30.995263,0.850777778 C35.1531642,-0.283592593 39.4370623,-0.283592593 43.5949635,0.850777778 L71.9442894,10.0517819 C75.4722055,11.1861523 75.4722055,12.9507284 71.9442894,14.0850988 L43.5949635,23.2861029 C39.5630593,24.4204732 35.1531642,24.4204732 30.995263,23.2861029 L2.64593709,14.0850988 Z" id="Fill-202" fill="#87B09A"></path>
                    </g>
                </g>
                <g id="light-copy" transform="translate(3.000000, 16.000000)">
                    <g id="path-3-link" fill="#000000">
                        <circle id="path-3" cx="1.74665078" cy="2.1839664" r="1.35618594"></circle>
                    </g>
                    <g id="path-3-link" fill="#B9DA8D">
                        <circle id="path-3" cx="1.74665078" cy="2.1839664" r="1.35618594"></circle>
                    </g>
                </g>
            </g>
        </g>
    </g>
</svg>
