<?xml version="1.0" encoding="UTF-8"?>
<svg width="67px" height="74px" viewBox="0 0 67 74" version="1.1" xmlns="http://www.w3.org/2000/svg" xmlns:xlink="http://www.w3.org/1999/xlink">
    <!-- Generator: Sketch 46.2 (44496) - http://www.bohemiancoding.com/sketch -->
    <title>tree@1x</title>
    <desc>Created with Sketch.</desc>
    <defs></defs>
    <g id="Symbols" stroke="none" stroke-width="1" fill="none" fill-rule="evenodd">
        <g id="home-v4---bg" transform="translate(-771.000000, -3520.000000)">
            <g id="footer-graph" transform="translate(345.000000, 3396.000000)">
                <g id="tree" transform="translate(426.000000, 124.000000)">
                    <g id="Asset-268-Copy-2" transform="translate(0.577942, 0.860134)">
                        <path d="M41.3827528,31.7985291 L41.3827528,63.1944421 C41.3827528,65.7257373 39.328374,67.7777574 36.7941693,67.7777574 L4.59265497,67.7777574 C3.37498169,67.7788366 2.20681127,67.2964295 1.34540416,66.4367741 C0.483997037,65.5771188 -4.79350522e-07,64.4107179 0,63.1944421 L0,31.7985291 L2.21489743,31.7985291 L2.21489743,32.0628729 C2.21489743,32.6688303 3.13098552,33.1649833 4.27914927,33.1649833 L36.8511703,33.1649833 C37.9871196,33.1649833 38.9154222,32.6728971 38.9154222,32.0628729 L38.9154222,31.7985291 L41.3827528,31.7985291 Z" id="Shape" fill="#E2F0F7" fill-rule="nonzero"></path>
                        <path d="M38.9398512,31.7985291 L38.9398512,32.0628729 C38.9398512,32.6688303 38.0115486,33.1649833 36.8755993,33.1649833 L4.30357828,33.1649833 C3.15541454,33.1649833 2.23932645,32.6728971 2.23932645,32.0628729 L2.23932645,31.7985291 L38.9398512,31.7985291 Z" id="Shape" fill="#E2F0F7" fill-rule="nonzero"></path>
                        <path d="M38.9398512,31.351178 L38.9398512,32.0628729 C38.9398512,32.6688303 38.0115486,33.1649833 36.8755993,33.1649833 L4.30357828,33.1649833 C3.15541454,33.1649833 2.23932645,32.6728971 2.23932645,32.0628729 L2.23932645,31.351178 C2.23932645,30.7452206 3.15541454,30.2490675 4.30357828,30.2490675 L36.8755993,30.2490675 C38.0115486,30.2531344 38.9398512,30.7452206 38.9398512,31.351178 Z" id="Shape" fill="#F3FCFF" fill-rule="nonzero"></path>
                        <path d="M38.9398512,31.351178 L38.9398512,32.0628729 C38.9398512,32.6688303 38.0115486,33.1649833 36.8755993,33.1649833 L4.30357828,33.1649833 C3.15541454,33.1649833 2.23932645,32.6728971 2.23932645,32.0628729 L2.23932645,31.351178 C2.23932645,30.7452206 3.15541454,30.2490675 4.30357828,30.2490675 L36.8755993,30.2490675 C38.0115486,30.2531344 38.9398512,30.7452206 38.9398512,31.351178 Z" id="Shape" fill="#E2F0F7" fill-rule="nonzero"></path>
                        <path d="M39.0538533,28.7972099 L2.33297101,28.7972099 C1.71427241,28.7950444 1.12022969,29.0393022 0.682359115,29.4759068 C0.244488536,29.9125113 -0.00108734045,30.5054445 -1.80811465e-16,31.1234356 L-1.80811465e-16,32.6118947 C-0.00108325228,33.2291792 0.243934366,33.8214926 0.680922786,34.2579793 C1.11791121,34.6944661 1.71090551,34.9392024 2.32889951,34.9381204 L39.0538533,34.9381204 C40.3391395,34.9358818 41.3805116,33.8957053 41.3827528,32.6118947 L41.3827528,31.1234356 C41.3805116,29.839625 40.3391395,28.7994485 39.0538533,28.7972099 L39.0538533,28.7972099 Z M38.9398512,32.0506724 C38.9398512,32.6566298 38.0115486,33.1527828 36.8755993,33.1527828 L4.30357828,33.1527828 C3.15541454,33.1527828 2.23932645,32.6606966 2.23932645,32.0506724 L2.23932645,31.351178 C2.23932645,30.7452206 3.15541454,30.2490675 4.30357828,30.2490675 L36.8755993,30.2490675 C38.0115486,30.2490675 38.9398512,30.7411537 38.9398512,31.351178 L38.9398512,32.0506724 Z" id="Shape" fill="#F3FCFF" fill-rule="nonzero"></path>
                        <rect id="Rectangle-path" fill="#847264" fill-rule="nonzero" x="2.81340832" y="44.340627" width="35.7600076" height="11.9605415"></rect>
                        <path d="M2.81340832,56.3011685 L38.5693444,56.3011685 L38.5693444,64.3900896 C38.5693444,64.839299 38.2047697,65.2034552 37.7550439,65.2034552 L3.62770885,65.2034552 C3.17798308,65.2034552 2.81340832,64.839299 2.81340832,64.3900896 L2.81340832,56.3011685 Z" id="Shape" fill="#685A50" fill-rule="nonzero"></path>
                        <path d="M16.278796,26.8451324 L16.273796,26.8451324" id="Shape" stroke="#5C6670" stroke-linecap="round" stroke-linejoin="round"></path>
                        <rect id="Rectangle-path" fill="#9B8676" fill-rule="nonzero" x="2.81340832" y="41.1847684" width="35.7600076" height="6.31171724" rx="2"></rect>
                        <path d="M33.6753983,44.2592904 L30.1291195,44.2592904 C30.1923256,43.3287385 30.96646,42.6061765 31.9002231,42.6061765 C32.8339863,42.6061765 33.6081206,43.3287385 33.6713268,44.2592904 L33.6753983,44.2592904 Z" id="Shape" fill="#B3B3B3" fill-rule="nonzero"></path>
                        <path d="M33.0931734,44.2592904 L29.5509661,44.2592904 C29.6141723,43.3287385 30.3883066,42.6061765 31.3220698,42.6061765 C32.2558329,42.6061765 33.0299673,43.3287385 33.0931734,44.2592904 Z" id="Shape" fill="#C3C6C8" fill-rule="nonzero"></path>
                        <path d="M11.9091452,44.2592904 L8.36693791,44.2592904 C8.41095288,43.3237354 9.20101324,42.5980772 10.1380416,42.6325592 C11.0750699,42.5980772 11.8651302,43.3237354 11.9091452,44.2592904 Z" id="Shape" fill="#B3B3B3" fill-rule="nonzero"></path>
                        <path d="M11.3309918,44.2592904 L7.78878454,44.2592904 C7.8327995,43.3237354 8.62285987,42.5980772 9.55988818,42.6325592 C10.4969165,42.5980772 11.2869769,43.3237354 11.3309918,44.2592904 Z" id="Shape" fill="#C3C6C8" fill-rule="nonzero"></path>
                        <ellipse id="Oval" fill="#9B8676" fill-rule="nonzero" cx="27.3034967" cy="62.417678" rx="1.11559172" ry="1.1143109"></ellipse>
                        <ellipse id="Oval" fill="#9B8676" fill-rule="nonzero" cx="14.8284126" cy="62.417678" rx="1.11559172" ry="1.1143109"></ellipse>
                        <ellipse id="Oval" fill="#847264" fill-rule="nonzero" cx="22.0431153" cy="59.5383636" rx="1.11559172" ry="1.1143109"></ellipse>
                        <ellipse id="Oval" fill="#9B8676" fill-rule="nonzero" cx="33.260105" cy="59.8637099" rx="1.11559172" ry="1.1143109"></ellipse>
                        <ellipse id="Oval" fill="#847264" fill-rule="nonzero" cx="7.48749334" cy="59.3838242" rx="1.11559172" ry="1.1143109"></ellipse>
                        <path d="M17.3731017,44.3690948 L24.762879,44.3690948 C24.762879,43.6054387 24.1431019,42.9863732 23.3785681,42.9863732 C23.2401365,42.9887683 23.1028652,43.0120776 22.9714179,43.0555093 C22.5410496,42.434006 21.8326858,42.063088 21.0761334,42.063088 C20.3195809,42.063088 19.6112172,42.434006 19.1808489,43.0555093 C19.0494016,43.0120776 18.9121302,42.9887683 18.7736986,42.9863732 C18.4037429,42.9820255 18.0474397,43.125783 17.7842979,43.3855664 C17.5211562,43.6453497 17.3730761,43.9995382 17.3731017,44.3690948 Z" id="Shape" fill="#847264" fill-rule="nonzero"></path>
                        <path d="M21.1351702,0 C14.8243411,0 11.4572084,19.6590471 11.4572084,23.4818656 C11.5652698,28.7445731 15.8673413,32.9544754 21.1372059,32.9544754 C26.4070706,32.9544754 30.709142,28.7445731 30.8172034,23.4818656 C30.8172034,19.6590471 27.4459992,0 21.1351702,0 Z" id="Shape" fill="#BFEC80" fill-rule="nonzero"></path>
                        <path d="M15.6060696,23.4818656 C15.6060696,20.1023314 18.2403318,4.3677734 23.2116365,0.748296374 C22.617933,0.282529262 21.8898324,0.0201435764 21.1351702,0 C14.8243411,-3.8965194e-16 11.4572084,19.6590471 11.4572084,23.4818656 C11.4459279,26.4142748 12.7700988,29.192732 15.0559142,31.0328922 C17.3417296,32.8730525 20.3411909,33.5752683 23.207565,32.9413078 C18.7654888,31.9603427 15.6038878,28.0259877 15.6060696,23.4818656 Z" id="Shape" fill="#AAE655" fill-rule="nonzero"></path>
                        <path d="M24.8809526,22.5058268 C24.3407356,21.9680939 23.4668483,21.9680939 22.9266313,22.5058268 L22.5194811,22.9125096 L22.5194811,20.7204893 C22.4796145,19.9870401 21.8725796,19.4127287 21.1372059,19.4127287 C20.4018323,19.4127287 19.7947973,19.9870401 19.7549308,20.7204893 L19.7549308,25.6738859 L19.3477805,25.2672031 C18.7999506,24.7809019 17.9675865,24.8053762 17.449344,25.3230237 C16.9311016,25.8406711 16.906599,26.6720796 17.3934592,27.2192806 L19.7549308,29.5780409 L19.7549308,42.8196333 L22.5194811,42.8196333 L22.5194811,26.8166646 L24.8809526,24.4579043 C25.4193035,23.9183075 25.4193035,23.0454236 24.8809526,22.5058268 L24.8809526,22.5058268 Z" id="Shape" fill="#759684" fill-rule="nonzero"></path>
                        <g id="Group" opacity="0.5" transform="translate(0.000000, 31.721259)" fill-rule="nonzero" fill="#F3FCFF">
                            <path d="M41.3827528,0.0772697342 L41.3827528,0.890635358 C41.3805116,2.17444594 40.3391395,3.21462248 39.0538533,3.21686104 L2.32889951,3.21686104 C1.71090551,3.21794305 1.11791121,2.97320674 0.680922786,2.53672003 C0.243934366,2.10023332 -0.00108325228,1.50791984 -8.47032947e-22,0.890635358 L-8.47032947e-22,0.0772697342 L2.21489743,0.0772697342 L2.21489743,0.341613562 C2.21489743,0.947570951 3.13098552,1.44372398 4.27914927,1.44372398 L36.8511703,1.44372398 C37.9871196,1.44372398 38.9154222,0.95163778 38.9154222,0.341613562 L38.9154222,0.0772697342 L41.3827528,0.0772697342 Z" id="Shape"></path>
                        </g>
                    </g>
                    <g id="Asset-268-Copy-3" transform="translate(25.100648, 6.168988)">
                        <path d="M41.3827528,31.7985291 L41.3827528,63.1944421 C41.3827528,65.7257373 39.328374,67.7777574 36.7941693,67.7777574 L4.59265497,67.7777574 C3.37498169,67.7788366 2.20681127,67.2964295 1.34540416,66.4367741 C0.483997037,65.5771188 -4.79350522e-07,64.4107179 0,63.1944421 L0,31.7985291 L2.21489743,31.7985291 L2.21489743,32.0628729 C2.21489743,32.6688303 3.13098552,33.1649833 4.27914927,33.1649833 L36.8511703,33.1649833 C37.9871196,33.1649833 38.9154222,32.6728971 38.9154222,32.0628729 L38.9154222,31.7985291 L41.3827528,31.7985291 Z" id="Shape" fill="#E2F0F7" fill-rule="nonzero"></path>
                        <path d="M38.9398512,31.7985291 L38.9398512,32.0628729 C38.9398512,32.6688303 38.0115486,33.1649833 36.8755993,33.1649833 L4.30357828,33.1649833 C3.15541454,33.1649833 2.23932645,32.6728971 2.23932645,32.0628729 L2.23932645,31.7985291 L38.9398512,31.7985291 Z" id="Shape" fill="#E2F0F7" fill-rule="nonzero"></path>
                        <path d="M38.9398512,31.351178 L38.9398512,32.0628729 C38.9398512,32.6688303 38.0115486,33.1649833 36.8755993,33.1649833 L4.30357828,33.1649833 C3.15541454,33.1649833 2.23932645,32.6728971 2.23932645,32.0628729 L2.23932645,31.351178 C2.23932645,30.7452206 3.15541454,30.2490675 4.30357828,30.2490675 L36.8755993,30.2490675 C38.0115486,30.2531344 38.9398512,30.7452206 38.9398512,31.351178 Z" id="Shape" fill="#F3FCFF" fill-rule="nonzero"></path>
                        <path d="M38.9398512,31.351178 L38.9398512,32.0628729 C38.9398512,32.6688303 38.0115486,33.1649833 36.8755993,33.1649833 L4.30357828,33.1649833 C3.15541454,33.1649833 2.23932645,32.6728971 2.23932645,32.0628729 L2.23932645,31.351178 C2.23932645,30.7452206 3.15541454,30.2490675 4.30357828,30.2490675 L36.8755993,30.2490675 C38.0115486,30.2531344 38.9398512,30.7452206 38.9398512,31.351178 Z" id="Shape" fill="#E2F0F7" fill-rule="nonzero"></path>
                        <path d="M39.0538533,28.7972099 L2.33297101,28.7972099 C1.71427241,28.7950444 1.12022969,29.0393022 0.682359115,29.4759068 C0.244488536,29.9125113 -0.00108734045,30.5054445 -1.80811465e-16,31.1234356 L-1.80811465e-16,32.6118947 C-0.00108325228,33.2291792 0.243934366,33.8214926 0.680922786,34.2579793 C1.11791121,34.6944661 1.71090551,34.9392024 2.32889951,34.9381204 L39.0538533,34.9381204 C40.3391395,34.9358818 41.3805116,33.8957053 41.3827528,32.6118947 L41.3827528,31.1234356 C41.3805116,29.839625 40.3391395,28.7994485 39.0538533,28.7972099 L39.0538533,28.7972099 Z M38.9398512,32.0506724 C38.9398512,32.6566298 38.0115486,33.1527828 36.8755993,33.1527828 L4.30357828,33.1527828 C3.15541454,33.1527828 2.23932645,32.6606966 2.23932645,32.0506724 L2.23932645,31.351178 C2.23932645,30.7452206 3.15541454,30.2490675 4.30357828,30.2490675 L36.8755993,30.2490675 C38.0115486,30.2490675 38.9398512,30.7411537 38.9398512,31.351178 L38.9398512,32.0506724 Z" id="Shape" fill="#F3FCFF" fill-rule="nonzero"></path>
                        <rect id="Rectangle-path" fill="#847264" fill-rule="nonzero" x="2.81340832" y="44.340627" width="35.7600076" height="11.9605415"></rect>
                        <path d="M2.81340832,56.3011685 L38.5693444,56.3011685 L38.5693444,64.3900896 C38.5693444,64.839299 38.2047697,65.2034552 37.7550439,65.2034552 L3.62770885,65.2034552 C3.17798308,65.2034552 2.81340832,64.839299 2.81340832,64.3900896 L2.81340832,56.3011685 Z" id="Shape" fill="#685A50" fill-rule="nonzero"></path>
                        <path d="M16.278796,26.8451324 L16.273796,26.8451324" id="Shape" stroke="#5C6670" stroke-linecap="round" stroke-linejoin="round"></path>
                        <rect id="Rectangle-path" fill="#9B8676" fill-rule="nonzero" x="2.81340832" y="41.1847684" width="35.7600076" height="6.31171724" rx="2"></rect>
                        <path d="M33.6753983,44.2592904 L30.1291195,44.2592904 C30.1923256,43.3287385 30.96646,42.6061765 31.9002231,42.6061765 C32.8339863,42.6061765 33.6081206,43.3287385 33.6713268,44.2592904 L33.6753983,44.2592904 Z" id="Shape" fill="#B3B3B3" fill-rule="nonzero"></path>
                        <path d="M33.0931734,44.2592904 L29.5509661,44.2592904 C29.6141723,43.3287385 30.3883066,42.6061765 31.3220698,42.6061765 C32.2558329,42.6061765 33.0299673,43.3287385 33.0931734,44.2592904 Z" id="Shape" fill="#C3C6C8" fill-rule="nonzero"></path>
                        <path d="M11.9091452,44.2592904 L8.36693791,44.2592904 C8.41095288,43.3237354 9.20101324,42.5980772 10.1380416,42.6325592 C11.0750699,42.5980772 11.8651302,43.3237354 11.9091452,44.2592904 Z" id="Shape" fill="#B3B3B3" fill-rule="nonzero"></path>
                        <path d="M11.3309918,44.2592904 L7.78878454,44.2592904 C7.8327995,43.3237354 8.62285987,42.5980772 9.55988818,42.6325592 C10.4969165,42.5980772 11.2869769,43.3237354 11.3309918,44.2592904 Z" id="Shape" fill="#C3C6C8" fill-rule="nonzero"></path>
                        <ellipse id="Oval" fill="#9B8676" fill-rule="nonzero" cx="27.3034967" cy="62.417678" rx="1.11559172" ry="1.1143109"></ellipse>
                        <ellipse id="Oval" fill="#9B8676" fill-rule="nonzero" cx="14.8284126" cy="62.417678" rx="1.11559172" ry="1.1143109"></ellipse>
                        <ellipse id="Oval" fill="#847264" fill-rule="nonzero" cx="22.0431153" cy="59.5383636" rx="1.11559172" ry="1.1143109"></ellipse>
                        <ellipse id="Oval" fill="#9B8676" fill-rule="nonzero" cx="33.260105" cy="59.8637099" rx="1.11559172" ry="1.1143109"></ellipse>
                        <ellipse id="Oval" fill="#847264" fill-rule="nonzero" cx="7.48749334" cy="59.3838242" rx="1.11559172" ry="1.1143109"></ellipse>
                        <path d="M17.3731017,44.3690948 L24.762879,44.3690948 C24.762879,43.6054387 24.1431019,42.9863732 23.3785681,42.9863732 C23.2401365,42.9887683 23.1028652,43.0120776 22.9714179,43.0555093 C22.5410496,42.434006 21.8326858,42.063088 21.0761334,42.063088 C20.3195809,42.063088 19.6112172,42.434006 19.1808489,43.0555093 C19.0494016,43.0120776 18.9121302,42.9887683 18.7736986,42.9863732 C18.4037429,42.9820255 18.0474397,43.125783 17.7842979,43.3855664 C17.5211562,43.6453497 17.3730761,43.9995382 17.3731017,44.3690948 Z" id="Shape" fill="#847264" fill-rule="nonzero"></path>
                        <path d="M21.1351702,0 C14.8243411,0 11.4572084,19.6590471 11.4572084,23.4818656 C11.5652698,28.7445731 15.8673413,32.9544754 21.1372059,32.9544754 C26.4070706,32.9544754 30.709142,28.7445731 30.8172034,23.4818656 C30.8172034,19.6590471 27.4459992,0 21.1351702,0 Z" id="Shape" fill="#BFEC80" fill-rule="nonzero"></path>
                        <path d="M15.6060696,23.4818656 C15.6060696,20.1023314 18.2403318,4.3677734 23.2116365,0.748296374 C22.617933,0.282529262 21.8898324,0.0201435764 21.1351702,0 C14.8243411,-3.8965194e-16 11.4572084,19.6590471 11.4572084,23.4818656 C11.4459279,26.4142748 12.7700988,29.192732 15.0559142,31.0328922 C17.3417296,32.8730525 20.3411909,33.5752683 23.207565,32.9413078 C18.7654888,31.9603427 15.6038878,28.0259877 15.6060696,23.4818656 Z" id="Shape" fill="#AAE655" fill-rule="nonzero"></path>
                        <path d="M24.8809526,22.5058268 C24.3407356,21.9680939 23.4668483,21.9680939 22.9266313,22.5058268 L22.5194811,22.9125096 L22.5194811,20.7204893 C22.4796145,19.9870401 21.8725796,19.4127287 21.1372059,19.4127287 C20.4018323,19.4127287 19.7947973,19.9870401 19.7549308,20.7204893 L19.7549308,25.6738859 L19.3477805,25.2672031 C18.7999506,24.7809019 17.9675865,24.8053762 17.449344,25.3230237 C16.9311016,25.8406711 16.906599,26.6720796 17.3934592,27.2192806 L19.7549308,29.5780409 L19.7549308,42.8196333 L22.5194811,42.8196333 L22.5194811,26.8166646 L24.8809526,24.4579043 C25.4193035,23.9183075 25.4193035,23.0454236 24.8809526,22.5058268 L24.8809526,22.5058268 Z" id="Shape" fill="#759684" fill-rule="nonzero"></path>
                        <g id="Group" opacity="0.5" transform="translate(0.000000, 31.721259)" fill-rule="nonzero" fill="#F3FCFF">
                            <path d="M41.3827528,0.0772697342 L41.3827528,0.890635358 C41.3805116,2.17444594 40.3391395,3.21462248 39.0538533,3.21686104 L2.32889951,3.21686104 C1.71090551,3.21794305 1.11791121,2.97320674 0.680922786,2.53672003 C0.243934366,2.10023332 -0.00108325228,1.50791984 -8.47032947e-22,0.890635358 L-8.47032947e-22,0.0772697342 L2.21489743,0.0772697342 L2.21489743,0.341613562 C2.21489743,0.947570951 3.13098552,1.44372398 4.27914927,1.44372398 L36.8511703,1.44372398 C37.9871196,1.44372398 38.9154222,0.95163778 38.9154222,0.341613562 L38.9154222,0.0772697342 L41.3827528,0.0772697342 Z" id="Shape"></path>
                        </g>
                    </g>
                </g>
            </g>
        </g>
    </g>
</svg>