<?xml version="1.0" encoding="UTF-8"?>
<svg width="80px" height="52px" viewBox="0 0 80 52" version="1.1" xmlns="http://www.w3.org/2000/svg" xmlns:xlink="http://www.w3.org/1999/xlink">
    <!-- Generator: Sketch 46.2 (44496) - http://www.bohemiancoding.com/sketch -->
    <title>left</title>
    <desc>Created with Sketch.</desc>
    <defs>
        <filter x="-33.3%" y="-39.5%" width="166.7%" height="178.9%" filterUnits="objectBoundingBox" id="filter-1">
            <feOffset dx="0" dy="0" in="SourceAlpha" result="shadowOffsetOuter1"></feOffset>
            <feGaussianBlur stdDeviation="4" in="shadowOffsetOuter1" result="shadowBlurOuter1"></feGaussianBlur>
            <feColorMatrix values="0 0 0 0 0.529411765   0 0 0 0 0.690196078   0 0 0 0 0.603921569  0 0 0 1 0" type="matrix" in="shadowBlurOuter1" result="shadowMatrixOuter1"></feColorMatrix>
            <feMerge>
                <feMergeNode in="shadowMatrixOuter1"></feMergeNode>
                <feMergeNode in="SourceGraphic"></feMergeNode>
            </feMerge>
        </filter>
    </defs>
    <g id="Habitat-SaaS-Onboarding/desktop" stroke="none" stroke-width="1" fill="none" fill-rule="evenodd">
        <g id="Habitat-5-mins-flow-V2---end-2" transform="translate(-160.000000, -272.000000)">
            <g id="left" transform="translate(160.000000, 271.200000)">
                <path d="M79.6867372,33.1053625 L79.6867372,39.5663804 C79.6867372,40.3597049 78.7469546,41.1454013 76.9080287,41.7429373 L46.6419492,51.5730416 C42.9336179,52.7757419 36.936789,52.7757419 33.2309976,51.5730416 L2.96491819,41.7429373 C1.12599225,41.147944 0.186209657,40.3597049 0.186209657,39.5663804 L0.186209657,33.1053625 L79.6867372,33.1053625 Z" id="Shape" fill="#799987" fill-rule="nonzero"></path>
                <path d="M33.2335376,45.1247373 L2.96491819,35.2844622 C-0.738333219,34.0817619 -0.738333219,32.1289632 2.96491819,30.9262629 L33.2335376,21.0859878 C36.936789,19.8832875 42.9386978,19.8832875 46.6419492,21.0859878 L76.9105686,30.9262629 C80.6112801,32.1289632 80.6112801,34.0817619 76.9105686,35.2844622 L46.6419492,45.1247373 C42.9386978,46.3274376 36.936789,46.3274376 33.2335376,45.1247373 Z" id="Shape" fill="#87B09A" fill-rule="nonzero"></path>
                <path d="M76.8927889,33.1028198 C76.7200721,33.1765583 76.5194158,33.2502968 76.2806603,33.3291207 L72.4707308,34.5699616 L67.9064354,36.0625305 L46.0095009,28.9429516 C42.7202619,27.8750148 37.1577649,27.8750148 33.8685258,28.9429516 L11.9715914,36.0625305 L7.41999568,34.5826752 L3.61006624,33.3418343 C3.37131066,33.2630104 3.16811443,33.1892719 2.99539763,33.1155334 C3.16472782,33.0460327 3.36961736,32.9722942 3.61006624,32.8943179 L33.8786856,23.0515001 C37.1806245,21.9835633 42.7304217,21.9835633 46.0196608,23.0515001 L76.2882801,32.8943179 C76.5168759,32.9604283 76.7175322,33.0341668 76.8927889,33.1028198 Z" id="Shape" fill="#799987" fill-rule="nonzero"></path>
                <path d="M67.9038954,36.0625305 L66.0598896,36.6600666 L63.1135441,37.6212097 L58.2012751,39.2180295 L57.2208533,39.5333252 L53.832556,40.6394026 L51.3180026,41.4556115 L48.3030785,42.4192973 L46.0171208,43.1668531 C45.8037648,43.2355062 45.5853288,43.2965312 45.3516531,43.3600988 C42.2478306,44.1686796 37.637816,44.1686796 34.5339935,43.3600988 C34.396836,43.3194155 34.2520587,43.2838176 34.1225211,43.2431343 C34.0363287,43.2231143 33.9514929,43.197636 33.8685258,43.1668531 L31.5038296,42.4040411 L31.374292,42.3633578 L28.5574842,41.4454406 L25.6111387,40.4919256 L21.9942457,39.3121097 L20.2670777,38.7577996 L19.7057481,38.572182 L17.5264685,37.8576814 L16.7644826,37.6034108 L13.8181372,36.6422676 L11.9715914,36.0625305 L13.0815508,35.6989234 L16.0278962,34.7377803 L17.5290084,34.2495806 L19.1037793,33.7410392 L20.2696177,33.3570905 L21.9967857,32.7951523 L25.00409,31.8212956 L26.4366235,31.3559803 L30.9196404,29.8939239 L31.3844518,29.7439042 L31.9534013,29.5582866 L33.7897873,28.9607506 L33.8659859,28.9327808 L33.8786856,28.9327808 C33.9614045,28.9032099 34.0463359,28.8802536 34.1326809,28.8641277 C37.4473195,27.8623012 42.81932,27.890271 46.0272806,28.9327808 L46.0399804,28.9327808 L48.9863258,29.8939239 L51.945371,30.8550671 L54.8917164,31.8162102 L57.8126623,32.7570117 L58.2038151,32.8866898 L60.314516,33.5732206 L60.7742475,33.7232403 L63.8425106,34.7174386 L66.7964759,35.6785818 L67.9038954,36.0625305 Z" id="Shape" fill="#96BCA6" fill-rule="nonzero"></path>
                <g id="Group-30" filter="url(#filter-1)" transform="translate(21.544093, 9.164910)">
                    <g id="Group" opacity="0.5" transform="translate(9.142122, 2.123338)"></g>
                    <g id="Group-19" transform="translate(4.792698, 0.000000)" fill-rule="nonzero">
                        <path d="M26.6979751,2.25280179 L26.6979751,22.1703176 C26.6986364,22.9424187 26.3922133,23.6830866 25.8462552,24.2290447 C25.3002971,24.7750028 24.5596292,25.081426 23.7875281,25.0807646 L3.37207436,25.0807646 C2.59997327,25.081426 1.85930538,24.7750028 1.31334727,24.2290447 C0.767389151,23.6830866 0.460966026,22.9424187 0.461627355,22.1703176 L0.461627355,2.25280179 L1.86581222,2.25280179 L1.86581222,2.41961099 C1.86581222,2.80551286 2.44839956,3.11672404 3.17538889,3.11672404 L23.8398116,3.11672404 C24.5593318,3.11672404 25.1493882,2.80302317 25.1493882,2.41961099 L25.1493882,2.25280179 L26.6979751,2.25280179 Z" id="Shape" fill="#E2F0F7"></path>
                        <path d="M25.1493882,2.25280179 L25.1493882,2.41961099 C25.1493882,2.80551286 24.5593318,3.11672404 23.8398116,3.11672404 L3.17538889,3.11672404 C2.44839956,3.11672404 1.86581222,2.80302317 1.86581222,2.41961099 L1.86581222,2.25280179 L25.1493882,2.25280179 Z" id="Shape" fill="#E2F0F7"></path>
                        <path d="M25.1493882,1.96897719 L25.1493882,2.41961099 C25.1493882,2.80551286 24.5593318,3.11672404 23.8398116,3.11672404 L3.17538889,3.11672404 C2.44839956,3.11672404 1.86581222,2.80302317 1.86581222,2.41961099 L1.86581222,1.96897719 C1.86581222,1.58307532 2.44839956,1.27186414 3.17538889,1.27186414 L23.8398116,1.27186414 C24.5618215,1.27186414 25.1493882,1.58307532 25.1493882,1.96897719 Z" id="Shape" fill="#F3FCFF"></path>
                        <path d="M25.1493882,1.96897719 L25.1493882,2.41961099 C25.1493882,2.80551286 24.5593318,3.11672404 23.8398116,3.11672404 L3.17538889,3.11672404 C2.44839956,3.11672404 1.86581222,2.80302317 1.86581222,2.41961099 L1.86581222,1.96897719 C1.86581222,1.58307532 2.44839956,1.27186414 3.17538889,1.27186414 L23.8398116,1.27186414 C24.5618215,1.27186414 25.1493882,1.58307532 25.1493882,1.96897719 Z" id="Shape" fill="#E2F0F7"></path>
                        <path d="M25.2215892,0.34569965 L1.94548228,0.34569965 C1.55371774,0.345037325 1.17780827,0.500371976 0.900788511,0.777391738 C0.623768749,1.0544115 0.468434098,1.43032097 0.469096424,1.82208551 L0.469096424,2.76816751 C0.468434098,3.15993206 0.623768749,3.53584153 0.900788511,3.81286129 C1.17780827,4.08988105 1.55371774,4.2452157 1.94548228,4.24455337 L25.2215892,4.24455337 C26.0364062,4.24318278 26.6966045,3.58298452 26.6979751,2.76816751 L26.6979751,1.8245752 C26.6979762,1.00878608 26.0373772,0.347073033 25.2215892,0.34569965 Z M25.1493882,2.41961099 C25.1493882,2.80551286 24.5593318,3.11672404 23.8398116,3.11672404 L3.17538889,3.11672404 C2.44839956,3.11672404 1.86581222,2.80302317 1.86581222,2.41961099 L1.86581222,1.96897719 C1.86581222,1.58307532 2.44839956,1.27186414 3.17538889,1.27186414 L23.8398116,1.27186414 C24.5593318,1.27186414 25.1493882,1.58556501 25.1493882,1.96897719 L25.1493882,2.41961099 Z" id="Shape" fill="#F3FCFF"></path>
                        <path d="M26.6979751,2.25280179 L26.6979751,2.76816751 C26.6966045,3.58298452 26.0364062,4.24318278 25.2215892,4.24455337 L1.94548228,4.24455337 C1.55371774,4.2452157 1.17780827,4.08988105 0.900788511,3.81286129 C0.623768749,3.53584153 0.468434098,3.15993206 0.469096424,2.76816751 L0.469096424,2.25280179 L1.87328129,2.25280179 L1.87328129,2.41961099 C1.87328129,2.80551286 2.45586863,3.11672404 3.18285796,3.11672404 L23.8472806,3.11672404 C24.5668009,3.11672404 25.1568573,2.80302317 25.1568573,2.41961099 L25.1568573,2.25280179 L26.6979751,2.25280179 Z" id="Shape" fill="#F3FCFF"></path>
                        <rect id="Rectangle-path" fill="#F3FCFF" opacity="0.34" x="1.87328129" y="4.24455337" width="23.3458182" height="17.8137282"></rect>
                        <path d="M25.1493882,22.2699052 L25.1493882,22.8574719 C25.1493882,23.3554098 24.5593318,23.7686983 23.8398116,23.7686983 L3.17538889,23.7686983 C2.44839956,23.7686983 1.86581222,23.3603892 1.86581222,22.8574719 L1.86581222,22.2699052 C1.86581222,21.7719673 2.44839956,21.3586789 3.17538889,21.3586789 L23.8398116,21.3586789 C24.5618215,21.3586789 25.1493882,21.7669879 25.1493882,22.2699052 Z" id="Shape" fill="#F3FCFF"></path>
                    </g>
                    <g id="Group-18" transform="translate(11.631812, 16.158679)">
                        <path d="M7.38383444,9.79041632 C7.0277049,9.79041632 6.73900487,9.61093423 6.73900487,9.38953186 L6.73900487,4.59130079 C6.73900487,4.36989841 7.0277049,4.19041632 7.38383444,4.19041632 C7.73996398,4.19041632 8.02866402,4.36989841 8.02866402,4.59130079 L8.02866402,9.38953186 C8.02866402,9.61093423 7.73996398,9.79041632 7.38383444,9.79041632 Z" id="Shape" fill="#87AF9A" fill-rule="nonzero"></path>
                        <path d="M0.788647012,0.966268448 C2.00610517,0.147160609 3.74390842,0.089897751 5.22278397,0.966268448 C6.70165952,1.84263914 7.50333954,3.37130848 7.38632413,4.8352459 C6.16886598,5.65435374 4.43106272,5.71161659 2.95218717,4.8352459 C1.47331162,3.9588752 0.671631606,2.43020586 0.788647012,0.966268448 Z" id="Shape" fill="#759684"></path>
                        <path d="M0.788647012,0.966268448 C2.00610517,0.147160609 3.74390842,0.089897751 5.22278397,0.966268448 C6.70165952,1.84263914 7.50333954,3.37130848 7.38632413,4.8352459 L0.788647012,0.966268448 Z" id="Shape" fill="#87AF9A"></path>
                        <path d="M14.0039188,0.966268448 C12.7864606,0.147160609 11.0486574,0.089897751 9.5697818,0.966268448 C8.09090625,1.84263914 7.28922624,3.37130848 7.40624165,4.8352459 C8.6236998,5.65435374 10.3615031,5.71161659 11.8403786,4.8352459 C13.3192542,3.9588752 14.1209342,2.43020586 14.0039188,0.966268448 Z" id="Shape" fill="#759684"></path>
                        <path d="M14.0039188,0.966268448 C12.7864606,0.147160609 11.0486574,0.089897751 9.5697818,0.966268448 C8.09090625,1.84263914 7.28922624,3.37130848 7.40624165,4.8352459 L14.0039188,0.966268448 Z" id="Shape" fill="#87AF9A"></path>
                    </g>
                    <path d="M16.4120155,28.3621754 L16.4120155,28.3621754 C16.4120155,26.5746526 17.8610891,25.125579 19.6486119,25.125579 C19.7835981,25.1258403 19.9183901,25.1358249 20.0519416,25.1554553 C20.2817039,25.1928474 20.516041,25.124194 20.6893021,24.9687286 C21.9168432,23.8315453 23.6645686,23.4495714 25.2545989,23.9709606 C26.8446292,24.4923499 28.0268067,25.8350727 28.3426075,27.4783356 C28.3837624,27.6988327 28.3236432,27.9261517 28.1788633,28.0974745 C28.0340835,28.2687973 27.8199733,28.3659832 27.5957007,28.3621754 L16.4120155,28.3621754 Z" id="Shape" fill="#847264" fill-rule="nonzero"></path>
                    <path d="M15.7846138,28.3621754 L1.51620339,28.3621754 C1.30917438,28.362636 1.11124129,28.2771464 0.969645291,28.1261107 C0.828049287,27.9750749 0.755494062,27.7720436 0.769296542,27.5654747 C1.17646125,23.5231856 4.5789512,20.4461989 8.64169467,20.4461989 C12.7044382,20.4461989 16.1069281,23.5231856 16.5140928,27.5654747 C16.5277403,27.7690493 16.4575138,27.9693454 16.3197299,28.1198262 C16.181946,28.2703069 15.9885999,28.3578716 15.7846138,28.3621754 Z" id="Shape" fill="#847264"></path>
                    <path d="M19.919988,26.8310163 C19.8046957,26.830898 19.6896529,26.8417354 19.5764109,26.8633823 C19.3266669,26.9173185 19.0684937,26.8198946 18.9166432,26.6144133 C18.1423497,25.51895 16.9896235,24.8193472 15.6974747,24.8193472 C14.4053258,24.8193472 13.2525996,25.51895 12.4783062,26.6144133 C12.3264556,26.8198946 12.0682824,26.9173185 11.8185385,26.8633823 C11.7052964,26.8417354 11.5902537,26.830898 11.4749613,26.8310163 C10.3048072,26.8310163 9.3213799,27.7820777 9.03008623,29.0717369 C8.98535991,29.2629063 9.03016386,29.4640388 9.15180408,29.6181487 C9.2734443,29.7722586 9.45866848,29.8625562 9.65499829,29.8634581 L21.739951,29.8634581 C21.9362808,29.8625562 22.121505,29.7722586 22.2431452,29.6181487 C22.3647855,29.4640388 22.4095894,29.2629063 22.3648631,29.0717369 C22.0760591,27.7820777 21.0926318,26.8310163 19.919988,26.8310163 Z" id="Shape" fill="#9B8676" fill-rule="nonzero"></path>
                    <circle id="Oval" fill="#BFA797" fill-rule="nonzero" cx="11.9529817" cy="24.3288784" r="1"></circle>
                    <circle id="Oval" fill="#BFA797" fill-rule="nonzero" cx="9.84919407" cy="22.431735" r="1"></circle>
                    <circle id="Oval" fill="#BFA797" fill-rule="nonzero" cx="6.8615667" cy="22.431735" r="1"></circle>
                    <circle id="Oval" fill="#BFA797" fill-rule="nonzero" cx="8.21844746" cy="24.5629092" r="1"></circle>
                    <circle id="Oval" fill="#BFA797" fill-rule="nonzero" cx="5.4175468" cy="24.1670486" r="1"></circle>
                    <path d="M26.5873764,28.3621754 C26.5839295,28.0691511 26.7175372,27.7913318 26.9485893,27.6110819 C27.1796413,27.4308319 27.4816205,27.3688383 27.7649996,27.4434799 C28.1424468,27.0323308 28.7337593,26.8953996 29.2535146,27.0987822 C29.77327,27.3021647 30.1146118,27.8040475 30.1127767,28.3621754 L26.5873764,28.3621754 Z" id="Shape" fill="#759684" fill-rule="nonzero"></path>
                    <path d="M28.5218652,27.0202327 C28.2348563,27.0738848 27.9728702,27.2188505 27.7749583,27.4335212 C27.4915792,27.3588795 27.1896001,27.4208732 26.958548,27.6011231 C26.727496,27.781373 26.5938882,28.0591924 26.5973352,28.3522166 L29.6347564,28.3522166 C29.6344168,27.6976238 29.1659679,27.1369523 28.5218652,27.0202327 Z" id="Shape" fill="#87B09A" fill-rule="nonzero"></path>
                </g>
            </g>
        </g>
    </g>
</svg>