<?xml version="1.0" encoding="UTF-8"?>
<svg width="80px" height="81px" viewBox="0 0 80 81" version="1.1" xmlns="http://www.w3.org/2000/svg" xmlns:xlink="http://www.w3.org/1999/xlink">
    <!-- Generator: Sketch 46.2 (44496) - http://www.bohemiancoding.com/sketch -->
    <title>right</title>
    <desc>Created with Sketch.</desc>
    <defs>
        <polygon id="path-1" points="79.2765591 19.6317486 0 19.6317486 0 0.351776395 79.2765591 0.351776395"></polygon>
        <filter x="-88.1%" y="-88.1%" width="276.2%" height="279.1%" filterUnits="objectBoundingBox" id="filter-3">
            <feOffset dx="0" dy="0" in="SourceAlpha" result="shadowOffsetOuter1"></feOffset>
            <feGaussianBlur stdDeviation="4" in="shadowOffsetOuter1" result="shadowBlurOuter1"></feGaussianBlur>
            <feColorMatrix values="0 0 0 0 0.529411765   0 0 0 0 0.690196078   0 0 0 0 0.603921569  0 0 0 1 0" type="matrix" in="shadowBlurOuter1" result="shadowMatrixOuter1"></feColorMatrix>
            <feMerge>
                <feMergeNode in="shadowMatrixOuter1"></feMergeNode>
                <feMergeNode in="SourceGraphic"></feMergeNode>
            </feMerge>
        </filter>
        <polygon id="path-4" points="1.32034625e-16 5.66836936 1.32034625e-16 0.0185842115 7.2421162 0.0185842115 7.2421162 5.66836936"></polygon>
        <polygon id="path-6" points="0.0135648386 0.347041072 5.68264473 0.347041072 5.68264473 7.37323091 0.0135648386 7.37323091 0.0135648386 0.347041072"></polygon>
        <filter x="-88.1%" y="-88.1%" width="276.3%" height="279.1%" filterUnits="objectBoundingBox" id="filter-8">
            <feOffset dx="0" dy="0" in="SourceAlpha" result="shadowOffsetOuter1"></feOffset>
            <feGaussianBlur stdDeviation="4" in="shadowOffsetOuter1" result="shadowBlurOuter1"></feGaussianBlur>
            <feColorMatrix values="0 0 0 0 0.529411765   0 0 0 0 0.690196078   0 0 0 0 0.603921569  0 0 0 1 0" type="matrix" in="shadowBlurOuter1" result="shadowMatrixOuter1"></feColorMatrix>
            <feMerge>
                <feMergeNode in="shadowMatrixOuter1"></feMergeNode>
                <feMergeNode in="SourceGraphic"></feMergeNode>
            </feMerge>
        </filter>
        <polygon id="path-9" points="1.32034625e-16 5.66836936 1.32034625e-16 0.0185842115 7.2421162 0.0185842115 7.2421162 5.66836936"></polygon>
        <polygon id="path-11" points="0.0135648386 0.347041072 5.68264473 0.347041072 5.68264473 7.37323091 0.0135648386 7.37323091 0.0135648386 0.347041072"></polygon>
        <filter x="-100.7%" y="-100.7%" width="302.1%" height="302.1%" filterUnits="objectBoundingBox" id="filter-13">
            <feOffset dx="0" dy="0" in="SourceAlpha" result="shadowOffsetOuter1"></feOffset>
            <feGaussianBlur stdDeviation="4" in="shadowOffsetOuter1" result="shadowBlurOuter1"></feGaussianBlur>
            <feColorMatrix values="0 0 0 0 0.529411765   0 0 0 0 0.690196078   0 0 0 0 0.603921569  0 0 0 1 0" type="matrix" in="shadowBlurOuter1" result="shadowMatrixOuter1"></feColorMatrix>
            <feMerge>
                <feMergeNode in="shadowMatrixOuter1"></feMergeNode>
                <feMergeNode in="SourceGraphic"></feMergeNode>
            </feMerge>
        </filter>
        <polygon id="path-14" points="6.02385029 5.20402294 0.338200945 5.20402294 0.338200945 0.0562661484 6.02385029 0.0562661484"></polygon>
        <filter x="-128.2%" y="-141.0%" width="356.4%" height="387.8%" filterUnits="objectBoundingBox" id="filter-16">
            <feOffset dx="0" dy="0" in="SourceAlpha" result="shadowOffsetOuter1"></feOffset>
            <feGaussianBlur stdDeviation="4" in="shadowOffsetOuter1" result="shadowBlurOuter1"></feGaussianBlur>
            <feColorMatrix values="0 0 0 0 0.529411765   0 0 0 0 0.690196078   0 0 0 0 0.603921569  0 0 0 1 0" type="matrix" in="shadowBlurOuter1" result="shadowMatrixOuter1"></feColorMatrix>
            <feMerge>
                <feMergeNode in="shadowMatrixOuter1"></feMergeNode>
                <feMergeNode in="SourceGraphic"></feMergeNode>
            </feMerge>
        </filter>
        <polygon id="path-17" points="0.0148022964 0.296628583 4.85931846 0.296628583 4.85931846 6.47366822 0.0148022964 6.47366822 0.0148022964 0.296628583"></polygon>
    </defs>
    <g id="Habitat-SaaS-Onboarding/desktop" stroke="none" stroke-width="1" fill="none" fill-rule="evenodd">
        <g id="Habitat-5-mins-flow-V2---end-2" transform="translate(-900.000000, -242.000000)">
            <g id="right" transform="translate(940.000000, 283.300000) scale(-1, 1) translate(-940.000000, -283.300000) translate(900.000000, 241.800000)">
                <g id="Page-1" transform="translate(0.000000, 48.937434)">
                    <g id="Group-3" transform="translate(0.000000, 12.504933)">
                        <mask id="mask-2" fill="white">
                            <use xlink:href="#path-1"></use>
                        </mask>
                        <g id="Clip-2"></g>
                        <path d="M79.2765591,0.351776395 L79.2765591,6.77912909 C79.2667432,7.56889797 78.3395521,8.34966897 76.5064375,8.94393836 L46.325896,18.734046 C42.6281744,19.9311737 36.64908,19.9311737 32.9513583,18.734046 L2.77081682,8.94393836 C0.936884302,8.34966897 0.0101021706,7.56889797 -0.000122698429,6.77912909 L-0.000122698429,0.351776395 L79.2765591,0.351776395 Z" id="Fill-1" fill="#799987" mask="url(#mask-2)"></path>
                    </g>
                    <path d="M32.953526,24.8149801 L2.77134851,15.0248725 C-0.921056205,13.8273358 -0.921056205,11.8854287 2.77134851,10.687892 L32.953526,0.898193398 C36.6459307,-0.299343267 42.631978,-0.299343267 46.3243828,0.898193398 L76.5065602,10.687892 C80.197738,11.8854287 80.197738,13.8273358 76.5065602,15.0248725 L46.3243828,24.8149801 C42.631978,26.0129258 36.6459307,26.0129258 32.953526,24.8149801" id="Fill-4" fill="#87B09A"></path>
                    <path d="M76.4866831,12.8551144 C76.3149053,12.9287334 76.1149069,13.0023525 75.8776899,13.0800615 L72.0695397,14.3152257 L67.5301068,15.7876068 L45.6934674,8.70381754 C42.4133294,7.64043116 36.8677695,7.64043116 33.5872225,8.70381754 L11.7514011,15.7876068 L7.21115025,14.3152257 L3.40381801,13.0800615 C3.16619205,13.0023525 2.96169467,12.9287334 2.79032587,12.8551144 C2.96169467,12.7855853 3.16619205,12.7119662 3.40381801,12.6342572 L33.5872225,2.84292259 C36.8677695,1.77953621 42.4133294,1.77953621 45.6934674,2.84292259 L75.8776899,12.6342572 C76.1149069,12.7119662 76.3149053,12.7855853 76.4866831,12.8551144" id="Fill-6" fill="#799987"></path>
                    <path d="M67.5287571,15.7869524 L65.6882807,16.3840848 L62.7516983,17.3370426 L57.85644,18.9239423 L56.8744436,19.2429582 L53.4961468,20.3390641 L50.9894179,21.1529637 L47.9788075,22.1304612 L45.6925268,22.8707417 C45.4843484,22.9402708 45.2634912,23.00162 45.0340452,23.0629693 C41.9383638,23.8686889 37.3408537,23.8686889 34.2447634,23.0629693 C34.0161353,23.00162 33.7952781,22.9402708 33.5866908,22.8707417 L31.230472,22.1059215 L28.2902086,21.1529637 L25.3532172,20.2000059 L21.7499734,19.0302809 L19.4677826,18.2900004 L16.5271103,17.3370426 L13.5905279,16.3840848 L11.7500514,15.7869524 L12.8584272,15.427037 L15.7995086,14.4740792 L18.8628793,13.480222 L21.7499734,12.543624 L24.747905,11.5702164 L26.1757057,11.1080523 L30.6374296,9.66021089 L31.6680964,9.32483518 L33.4963029,8.73179278 L33.5740119,8.70725309 L33.5866908,8.70316315 C36.8664198,7.63977676 42.4123888,7.63977676 45.6925268,8.70316315 L45.7052056,8.70725309 L48.641379,9.66021089 L51.5943212,10.6172586 L54.5313126,11.5702164 L57.467486,12.5231742 L57.85644,12.6499626 L59.9582641,13.3329839 L60.4163382,13.480222 L63.480118,14.4740792 L66.4203813,15.427037 L67.5287571,15.7869524 Z" id="Fill-8" fill="#96BCA6"></path>
                </g>
                <g id="Page-1" filter="url(#filter-3)" transform="translate(31.556232, 25.023288)">
                    <g id="Group-3" transform="translate(0.000000, 4.199790)">
                        <mask id="mask-5" fill="white">
                            <use xlink:href="#path-4"></use>
                        </mask>
                        <g id="Clip-2"></g>
                        <path d="M0.442802138,4.36943333 C1.32385962,5.73347177 3.15835213,6.0754093 4.46996325,5.14563616 L7.2421162,3.18123522 L5.92818529,1.33978333 C5.74677746,1.08553398 5.39277701,1.02614728 5.13759975,1.20709115 C4.20504285,-0.100808292 2.36034325,-0.378719525 1.07842549,0.621111372 C-0.0596650828,1.50820032 -0.33943215,3.1589652 0.442802138,4.36943333" id="Fill-1" fill="#80C4D6" mask="url(#mask-5)"></path>
                    </g>
                    <path d="M4.86581277,11.8500143 L5.67495666,12.9843933 C5.76914027,13.1161575 5.95240393,13.1472427 6.08463215,13.0535231 L7.46212539,12.0773541 C8.28379616,11.495086 8.52644654,10.4038552 8.0657356,9.53996422 C7.9961418,9.40912788 8.03140266,9.24813422 8.15203191,9.16230187 C8.28426012,9.06904618 8.31534535,8.88578252 8.2216257,8.75448222 L7.24220899,7.3811646 L5.40214897,8.68488842 C4.37726431,9.41098371 4.13693372,10.8283774 4.86581277,11.8500143" id="Fill-4" fill="#80C4D6"></path>
                    <path d="M3.52084303,6.55207049 C3.7927228,6.9334445 3.70317878,7.46282133 3.32041289,7.73377318 C2.937647,8.00518899 2.4068783,7.91564497 2.13499853,7.53427096 C1.8626548,7.15289695 1.95266278,6.62352012 2.33542867,6.35256827 C2.7177306,6.08115246 3.24896326,6.17069648 3.52084303,6.55207049" id="Fill-6" fill="#E2F0F7"></path>
                    <g id="Group-10" transform="translate(5.567504, 0.116871)">
                        <mask id="mask-7" fill="white">
                            <use xlink:href="#path-6"></use>
                        </mask>
                        <g id="Clip-9"></g>
                        <path d="M1.43349305,0.718207995 C0.0239866624,1.52967168 -0.406566968,3.33864647 0.461499672,4.69015802 C0.197971157,4.85811105 0.121417979,5.20747192 0.290298929,5.47007252 L1.51329394,7.37323091 L4.37684674,5.5443059 C5.73253393,4.67902301 6.09998918,2.85566551 5.15954499,1.53152751 C4.32534733,0.356320245 2.68478954,-0.00231979326 1.43349305,0.718207995" id="Fill-8" fill="#80C4D6" mask="url(#mask-7)"></path>
                    </g>
                    <path d="M8.9813116,6.27615428 L7.08093696,7.48987012 L7.99261571,8.90865568 C8.07983994,9.04459556 8.26171173,9.08403205 8.39811558,8.99680782 C8.52292045,8.91700693 8.6862339,8.94484445 8.78180938,9.05805036 C9.41372107,9.80687963 10.5202625,9.9901433 11.3688428,9.44823959 L12.792268,8.53934459 C12.9291358,8.45212036 12.9685723,8.27164045 12.881348,8.1352366 L12.1278792,6.96281309 C11.4491077,5.90777111 10.0405292,5.60016652 8.9813116,6.27615428" id="Fill-11" fill="#80C4D6"></path>
                    <path d="M7.9568909,2.56944942 C8.35218367,2.31705591 8.87831278,2.4316537 9.13163421,2.82601855 C9.38495563,3.21991945 9.26989388,3.74372877 8.87413715,3.99658623 C8.47884438,4.24897974 7.95317923,4.13391799 7.6998578,3.7400171 C7.44653638,3.3461162 7.56159812,2.82184292 7.9568909,2.56944942" id="Fill-13" fill="#E2F0F7"></path>
                    <path d="M5.10052945,5.66312571 L7.34840912,8.97207883 C7.57574886,9.30056155 8.44938301,9.92783365 8.76487489,9.6837914 C9.08036678,9.44021311 8.71847903,8.41718428 8.49067533,8.08870155 L6.32491634,4.89202643 C6.0975766,4.56354371 5.57515915,4.38259983 5.25966727,4.62710604 C4.94417538,4.87068433 4.87272575,5.33464299 5.10052945,5.66312571" id="Fill-15" fill="#9B8676"></path>
                    <path d="M5.00773772,3.88570011 L5.25781143,5.03910132 C5.27915353,5.13746056 5.37240922,5.19684727 5.46659283,5.17225746 C5.56031248,5.14813161 5.61923522,5.04884446 5.59789313,4.95094918 L5.34781941,3.79754797 C5.32647731,3.69965269 5.23322163,3.63980203 5.13903802,3.66392788 C5.04531837,3.68851769 4.98639562,3.78780484 5.00773772,3.88570011" id="Fill-17" fill="#9B8676"></path>
                    <path d="M4.43391366,4.44435273 L5.41472225,5.024765 C5.49777085,5.07394462 5.60448134,5.04239543 5.65226908,4.95424329 C5.70052078,4.86609114 5.67175534,4.75427711 5.58870675,4.70509749 L4.60789815,4.12514917 C4.5243856,4.0755056 4.41813906,4.10705479 4.37035132,4.19520693 C4.32209962,4.28335908 4.35086506,4.39517311 4.43391366,4.44435273" id="Fill-19" fill="#9B8676"></path>
                </g>
                <g id="Page-1-Copy" filter="url(#filter-8)" transform="translate(26.603971, 51.224403) rotate(90.000000) translate(-26.603971, -51.224403) translate(19.795460, 44.415892)">
                    <g id="Group-3" transform="translate(0.000000, 4.199790)">
                        <mask id="mask-10" fill="white">
                            <use xlink:href="#path-9"></use>
                        </mask>
                        <g id="Clip-2"></g>
                        <path d="M0.442802138,4.36943333 C1.32385962,5.73347177 3.15835213,6.0754093 4.46996325,5.14563616 L7.2421162,3.18123522 L5.92818529,1.33978333 C5.74677746,1.08553398 5.39277701,1.02614728 5.13759975,1.20709115 C4.20504285,-0.100808292 2.36034325,-0.378719525 1.07842549,0.621111372 C-0.0596650828,1.50820032 -0.33943215,3.1589652 0.442802138,4.36943333" id="Fill-1" fill="#80C4D6" mask="url(#mask-10)"></path>
                    </g>
                    <path d="M4.86581277,11.8500143 L5.67495666,12.9843933 C5.76914027,13.1161575 5.95240393,13.1472427 6.08463215,13.0535231 L7.46212539,12.0773541 C8.28379616,11.495086 8.52644654,10.4038552 8.0657356,9.53996422 C7.9961418,9.40912788 8.03140266,9.24813422 8.15203191,9.16230187 C8.28426012,9.06904618 8.31534535,8.88578252 8.2216257,8.75448222 L7.24220899,7.3811646 L5.40214897,8.68488842 C4.37726431,9.41098371 4.13693372,10.8283774 4.86581277,11.8500143" id="Fill-4" fill="#80C4D6"></path>
                    <path d="M3.52084303,6.55207049 C3.7927228,6.9334445 3.70317878,7.46282133 3.32041289,7.73377318 C2.937647,8.00518899 2.4068783,7.91564497 2.13499853,7.53427096 C1.8626548,7.15289695 1.95266278,6.62352012 2.33542867,6.35256827 C2.7177306,6.08115246 3.24896326,6.17069648 3.52084303,6.55207049" id="Fill-6" fill="#E2F0F7"></path>
                    <g id="Group-10" transform="translate(5.567504, 0.116871)">
                        <mask id="mask-12" fill="white">
                            <use xlink:href="#path-11"></use>
                        </mask>
                        <g id="Clip-9"></g>
                        <path d="M1.43349305,0.718207995 C0.0239866624,1.52967168 -0.406566968,3.33864647 0.461499672,4.69015802 C0.197971157,4.85811105 0.121417979,5.20747192 0.290298929,5.47007252 L1.51329394,7.37323091 L4.37684674,5.5443059 C5.73253393,4.67902301 6.09998918,2.85566551 5.15954499,1.53152751 C4.32534733,0.356320245 2.68478954,-0.00231979326 1.43349305,0.718207995" id="Fill-8" fill="#80C4D6" mask="url(#mask-12)"></path>
                    </g>
                    <path d="M8.9813116,6.27615428 L7.08093696,7.48987012 L7.99261571,8.90865568 C8.07983994,9.04459556 8.26171173,9.08403205 8.39811558,8.99680782 C8.52292045,8.91700693 8.6862339,8.94484445 8.78180938,9.05805036 C9.41372107,9.80687963 10.5202625,9.9901433 11.3688428,9.44823959 L12.792268,8.53934459 C12.9291358,8.45212036 12.9685723,8.27164045 12.881348,8.1352366 L12.1278792,6.96281309 C11.4491077,5.90777111 10.0405292,5.60016652 8.9813116,6.27615428" id="Fill-11" fill="#80C4D6"></path>
                    <path d="M7.9568909,2.56944942 C8.35218367,2.31705591 8.87831278,2.4316537 9.13163421,2.82601855 C9.38495563,3.21991945 9.26989388,3.74372877 8.87413715,3.99658623 C8.47884438,4.24897974 7.95317923,4.13391799 7.6998578,3.7400171 C7.44653638,3.3461162 7.56159812,2.82184292 7.9568909,2.56944942" id="Fill-13" fill="#E2F0F7"></path>
                    <path d="M5.10052945,5.66312571 L7.34840912,8.97207883 C7.57574886,9.30056155 8.44938301,9.92783365 8.76487489,9.6837914 C9.08036678,9.44021311 8.71847903,8.41718428 8.49067533,8.08870155 L6.32491634,4.89202643 C6.0975766,4.56354371 5.57515915,4.38259983 5.25966727,4.62710604 C4.94417538,4.87068433 4.87272575,5.33464299 5.10052945,5.66312571" id="Fill-15" fill="#9B8676"></path>
                    <path d="M5.00773772,3.88570011 L5.25781143,5.03910132 C5.27915353,5.13746056 5.37240922,5.19684727 5.46659283,5.17225746 C5.56031248,5.14813161 5.61923522,5.04884446 5.59789313,4.95094918 L5.34781941,3.79754797 C5.32647731,3.69965269 5.23322163,3.63980203 5.13903802,3.66392788 C5.04531837,3.68851769 4.98639562,3.78780484 5.00773772,3.88570011" id="Fill-17" fill="#9B8676"></path>
                    <path d="M4.43391366,4.44435273 L5.41472225,5.024765 C5.49777085,5.07394462 5.60448134,5.04239543 5.65226908,4.95424329 C5.70052078,4.86609114 5.67175534,4.75427711 5.58870675,4.70509749 L4.60789815,4.12514917 C4.5243856,4.0755056 4.41813906,4.10705479 4.37035132,4.19520693 C4.32209962,4.28335908 4.35086506,4.39517311 4.43391366,4.44435273" id="Fill-19" fill="#9B8676"></path>
                </g>
                <g id="Page-1" filter="url(#filter-13)" transform="translate(49.004972, 39.030653)">
                    <path d="M7.42514823,0.958186646 C8.79210373,2.16548661 8.91830763,4.2481044 7.70695292,5.61100516 L5.07542419,8.57096814 L2.6000031,6.38495439 L3.03892911,5.89128933 C1.67197361,4.68500305 1.54576971,2.60137157 2.75712442,1.2394845 C3.96797229,-0.123416265 6.05819272,-0.249113323 7.42514823,0.958186646" id="Fill-1" fill="#4296B4"></path>
                    <path d="M9.97446703,5.67273864 L11.7068563,7.20289758 L10.1716289,8.92920476 C9.32418749,9.88308324 7.86093182,9.97076707 6.90401228,9.12585983 L6.46559311,9.61901805 L4.73269697,8.08936595 L6.70685036,5.86939371 C7.55479866,4.91551523 9.01754749,4.82732455 9.97446703,5.67273864" id="Fill-3" fill="#4296B4"></path>
                    <g id="Group-7" transform="translate(0.506843, 5.541454)">
                        <mask id="mask-15" fill="white">
                            <use xlink:href="#path-14"></use>
                        </mask>
                        <g id="Clip-6"></g>
                        <path d="M1.80395552,0.281259856 L5.31181575,3.36590621 C5.65900319,3.67710779 6.25809159,4.77797074 5.92762997,5.10589814 C5.59767519,5.43331871 4.46336061,4.8636272 4.11617318,4.55242561 L0.60831294,1.46777926 C0.260618658,1.15657768 0.246933898,0.638077311 0.576888675,0.311163592 C0.907350295,-0.0167638133 1.45626124,-0.0299417307 1.80395552,0.281259856" id="Fill-5" fill="#9B8676" mask="url(#mask-15)"></path>
                    </g>
                    <path d="M0.306183842,5.5014764 L1.56720917,6.0640721 C1.67415303,6.11171534 1.72027574,6.23234397 1.66959145,6.33371256 C1.61890715,6.43457431 1.49118272,6.47765597 1.38373201,6.42950589 L0.122706684,5.86741703 C0.0157628165,5.81926694 -0.0298530513,5.69914516 0.0208312463,5.59777656 C0.0715155439,5.49691481 0.199239974,5.45383316 0.306183842,5.5014764" id="Fill-8" fill="#9B8676"></path>
                    <path d="M0.952611373,4.97876924 L1.48074175,6.19620606 C1.52534394,6.29960203 1.47313911,6.41769644 1.36315418,6.46027125 C1.2536761,6.50233922 1.12848589,6.45266861 1.0838837,6.34927264 L0.555753323,5.13183581 C0.510644298,5.02843985 0.563355968,4.91034543 0.67283405,4.86777062 C0.782818976,4.82570266 0.907502348,4.87537327 0.952611373,4.97876924" id="Fill-10" fill="#9B8676"></path>
                    <path d="M6.39894325,0.7201225 C7.87689737,1.90917612 8.04567608,4.0718751 6.80036289,5.47329593 L4.16832732,8.43325891 L2.18809181,6.68465064 C1.91490345,6.44288654 1.8895613,6.02676846 2.13183224,5.75408694 C0.726356669,4.51232164 0.632590718,2.34506108 1.95646457,0.987228748 C3.13081975,-0.217537005 5.08723363,-0.335124576 6.39894325,0.7201225" id="Fill-12" fill="#80C4D6"></path>
                    <path d="M9.66635718,6.24293699 L10.8858214,7.31997831 C11.0277374,7.44516852 11.0409153,7.66108363 10.9152183,7.80198598 L9.6075634,9.27335114 C8.82702521,10.1506963 7.52646614,10.2951466 6.57816293,9.65449706 C6.43472637,9.55769005 6.24313972,9.57847061 6.12808637,9.70771557 C6.00238931,9.84861792 5.78596736,9.86179583 5.64455817,9.73711246 L4.16863142,8.43300548 L5.91521232,6.46848211 C6.88835083,5.37370128 8.56802845,5.27283953 9.66635718,6.24293699" id="Fill-14" fill="#80C4D6"></path>
                    <path d="M3.6671103,4.02747565 C4.07714627,4.38936154 4.70411103,4.35185516 5.06751744,3.94283288 C5.43092385,3.53431744 5.39291063,2.90938005 4.98287466,2.54749416 C4.5728387,2.18510144 3.94587394,2.22260782 3.58246752,2.6316301 C3.21906111,3.04065238 3.25707433,3.66508293 3.6671103,4.02747565" id="Fill-16" fill="#E2F0F7"></path>
                </g>
                <g id="Page-1" filter="url(#filter-16)" transform="translate(22.646237, 8.193050)">
                    <path d="M3.13639248,1.07328314 C2.1351318,1.95760015 2.0426906,3.48306554 2.9299776,4.48098497 L4.85750651,6.649455 L6.67031924,5.04825465 L6.34918817,4.68665736 C7.35044885,3.8027116 7.44289005,2.27687497 6.55560305,1.27895553 C5.6686873,0.281036091 4.13765317,0.188966143 3.13639248,1.07328314" id="Fill-1" fill="#4296B4"></path>
                    <path d="M1.26908028,4.5262032 L0.000148499916,5.64700631 L1.12466412,6.91185435 C1.74539377,7.61017521 2.81719191,7.67440142 3.51811152,7.05552802 L3.83924258,7.41712532 L5.10854562,6.29669345 L3.66252768,4.67024812 C3.04142678,3.97192726 1.96999989,3.9073298 1.26908028,4.5262032" id="Fill-3" fill="#4296B4"></path>
                    <path d="M6.88252562,4.63642726 L4.31310582,6.89585348 C4.05879971,7.12380086 3.61998246,7.9301554 3.86203732,8.16998277 C4.10372094,8.40981013 4.93420672,7.99252537 5.18888407,7.76457799 L7.75830387,5.50515177 C8.01298123,5.2772044 8.02300497,4.89778711 7.78132136,4.65795975 C7.5392665,4.41776113 7.13720297,4.40810864 6.88252562,4.63642726" id="Fill-5" fill="#9B8676"></path>
                    <path d="M8.35081854,4.40112914 L7.42714906,4.81284516 C7.34881535,4.84811389 7.31503162,4.93610009 7.3521566,5.01035005 C7.38928158,5.08422876 7.48283653,5.11578499 7.56154148,5.08088751 L8.48521096,4.66880024 C8.56354467,4.63390276 8.59695715,4.54554531 8.55983217,4.47129535 C8.52270719,4.39741664 8.42915224,4.36586041 8.35081854,4.40112914" id="Fill-7" fill="#9B8676"></path>
                    <path d="M7.87732656,4.01792511 L7.49048427,4.90966711 C7.45781429,4.98540206 7.49605302,5.07227451 7.57661423,5.10308825 C7.65680418,5.13390198 7.74850288,5.0975195 7.78117286,5.02215579 L8.16801514,4.13041379 C8.20105637,4.05467884 8.1624464,3.96780639 8.08225644,3.93699265 C8.00169524,3.90580767 7.91036779,3.9425614 7.87732656,4.01792511" id="Fill-9" fill="#9B8676"></path>
                    <g id="Group-13" transform="translate(2.969998, 0.074547)">
                        <mask id="mask-18" fill="white">
                            <use xlink:href="#path-17"></use>
                        </mask>
                        <g id="Clip-12"></g>
                        <path d="M0.918026482,0.82398891 C-0.164537907,1.69494092 -0.288164087,3.27943503 0.623996648,4.30556945 L2.55189681,6.47366822 L4.00199849,5.1932277 C4.20247338,5.01614155 4.22103587,4.71097422 4.04357847,4.51161308 C5.07305414,3.60205109 5.14173535,2.01421574 4.1720309,1.0200088 C3.31184513,0.137176798 1.87882094,0.0510468462 0.918026482,0.82398891" id="Fill-11" fill="#80C4D6" mask="url(#mask-18)"></path>
                    </g>
                    <path d="M1.49476303,4.94385921 L0.601536036,5.73276502 C0.497586094,5.82446371 0.4879336,5.98261613 0.580003548,6.08582357 L1.53782801,7.16356171 C2.10955268,7.8061951 3.06217965,7.91200129 3.75678801,7.44274155 C3.86148045,7.37220409 4.00218412,7.38705408 4.08645782,7.48172278 C4.17852777,7.58493022 4.33705143,7.59495397 4.44063012,7.50325527 L5.52170951,6.54802956 L4.24238273,5.10906537 C3.52958313,4.30753707 2.29926133,4.23328711 1.49476303,4.94385921" id="Fill-14" fill="#80C4D6"></path>
                    <path d="M5.8889498,3.32108925 C5.58860872,3.58653285 5.12937273,3.55906037 4.86318663,3.25946179 C4.59700053,2.95986321 4.62484427,2.50248346 4.92518535,2.23703986 C5.22552643,1.97159626 5.68476242,1.99944 5.95094852,2.29866733 C6.21713462,2.59826591 6.18929088,3.0560169 5.8889498,3.32108925" id="Fill-16" fill="#E2F0F7"></path>
                </g>
            </g>
        </g>
    </g>
</svg>