<?xml version="1.0" encoding="UTF-8"?>
<svg width="79px" height="69px" viewBox="0 0 79 69" version="1.1" xmlns="http://www.w3.org/2000/svg" xmlns:xlink="http://www.w3.org/1999/xlink">
    <!-- Generator: Sketch 46.2 (44496) - http://www.bohemiancoding.com/sketch -->
    <title>mid</title>
    <desc>Created with Sketch.</desc>
    <defs>
        <polygon id="path-1" points="78.4640262 19.430536 0 19.430536 0 0.348170917 78.4640262 0.348170917"></polygon>
        <filter x="-80.0%" y="-86.7%" width="260.0%" height="273.3%" filterUnits="objectBoundingBox" id="filter-3">
            <feOffset dx="0" dy="0" in="SourceAlpha" result="shadowOffsetOuter1"></feOffset>
            <feGaussianBlur stdDeviation="4" in="shadowOffsetOuter1" result="shadowBlurOuter1"></feGaussianBlur>
            <feColorMatrix values="0 0 0 0 0.529411765   0 0 0 0 0.690196078   0 0 0 0 0.603921569  0 0 0 1 0" type="matrix" in="shadowBlurOuter1" result="shadowMatrixOuter1"></feColorMatrix>
            <feMerge>
                <feMergeNode in="shadowMatrixOuter1"></feMergeNode>
                <feMergeNode in="SourceGraphic"></feMergeNode>
            </feMerge>
        </filter>
        <filter x="-80.0%" y="-86.7%" width="260.0%" height="266.7%" filterUnits="objectBoundingBox" id="filter-4">
            <feOffset dx="0" dy="0" in="SourceAlpha" result="shadowOffsetOuter1"></feOffset>
            <feGaussianBlur stdDeviation="4" in="shadowOffsetOuter1" result="shadowBlurOuter1"></feGaussianBlur>
            <feColorMatrix values="0 0 0 0 0.529411765   0 0 0 0 0.690196078   0 0 0 0 0.603921569  0 0 0 1 0" type="matrix" in="shadowBlurOuter1" result="shadowMatrixOuter1"></feColorMatrix>
            <feMerge>
                <feMergeNode in="shadowMatrixOuter1"></feMergeNode>
                <feMergeNode in="SourceGraphic"></feMergeNode>
            </feMerge>
        </filter>
        <path d="M14.3816054,7.19072495 C14.3816054,11.1623802 11.1620692,14.3815276 7.19080269,14.3815276 C3.21953615,14.3815276 0,11.1623802 0,7.19072495 C0,3.21945841 3.21953615,-7.77384076e-05 7.19080269,-7.77384076e-05 C11.1620692,-7.77384076e-05 14.3816054,3.21945841 14.3816054,7.19072495 Z" id="path-5"></path>
        <linearGradient x1="0.024%" y1="49.981%" x2="100.048%" y2="49.981%" id="linearGradient-7">
            <stop stop-color="#9351E5" offset="0%"></stop>
            <stop stop-color="#EF468B" offset="100%"></stop>
        </linearGradient>
        <filter x="-80.0%" y="-80.0%" width="266.7%" height="260.0%" filterUnits="objectBoundingBox" id="filter-8">
            <feOffset dx="0" dy="0" in="SourceAlpha" result="shadowOffsetOuter1"></feOffset>
            <feGaussianBlur stdDeviation="4" in="shadowOffsetOuter1" result="shadowBlurOuter1"></feGaussianBlur>
            <feColorMatrix values="0 0 0 0 0.529411765   0 0 0 0 0.690196078   0 0 0 0 0.603921569  0 0 0 1 0" type="matrix" in="shadowBlurOuter1" result="shadowMatrixOuter1"></feColorMatrix>
            <feMerge>
                <feMergeNode in="shadowMatrixOuter1"></feMergeNode>
                <feMergeNode in="SourceGraphic"></feMergeNode>
            </feMerge>
        </filter>
        <polygon id="path-9" points="0 7.19076382 0 0 14.3816054 0 14.3816054 7.19076382 14.3816054 14.3815276 0 14.3815276"></polygon>
        <filter x="-80.0%" y="-80.0%" width="266.7%" height="260.0%" filterUnits="objectBoundingBox" id="filter-11">
            <feOffset dx="0" dy="0" in="SourceAlpha" result="shadowOffsetOuter1"></feOffset>
            <feGaussianBlur stdDeviation="4" in="shadowOffsetOuter1" result="shadowBlurOuter1"></feGaussianBlur>
            <feColorMatrix values="0 0 0 0 0.529411765   0 0 0 0 0.690196078   0 0 0 0 0.603921569  0 0 0 1 0" type="matrix" in="shadowBlurOuter1" result="shadowMatrixOuter1"></feColorMatrix>
            <feMerge>
                <feMergeNode in="shadowMatrixOuter1"></feMergeNode>
                <feMergeNode in="SourceGraphic"></feMergeNode>
            </feMerge>
        </filter>
        <polygon id="path-12" points="0 7.19076382 0 0 14.3816054 0 14.3816054 7.19076382 14.3816054 14.3815276 0 14.3815276"></polygon>
        <filter x="-80.0%" y="-80.0%" width="260.0%" height="260.0%" filterUnits="objectBoundingBox" id="filter-14">
            <feOffset dx="0" dy="0" in="SourceAlpha" result="shadowOffsetOuter1"></feOffset>
            <feGaussianBlur stdDeviation="4" in="shadowOffsetOuter1" result="shadowBlurOuter1"></feGaussianBlur>
            <feColorMatrix values="0 0 0 0 0.529411765   0 0 0 0 0.690196078   0 0 0 0 0.603921569  0 0 0 1 0" type="matrix" in="shadowBlurOuter1" result="shadowMatrixOuter1"></feColorMatrix>
            <feMerge>
                <feMergeNode in="shadowMatrixOuter1"></feMergeNode>
                <feMergeNode in="SourceGraphic"></feMergeNode>
            </feMerge>
        </filter>
    </defs>
    <g id="Habitat-SaaS-Onboarding/desktop" stroke="none" stroke-width="1" fill="none" fill-rule="evenodd">
        <g id="Habitat-5-mins-flow-V2---end-2" transform="translate(-530.000000, -254.000000)">
            <g id="mid" transform="translate(530.000000, 253.800000)">
                <g id="base" transform="translate(0.183722, 37.401204)">
                    <g id="Group-3" transform="translate(0.000000, 12.376766)">
                        <mask id="mask-2" fill="white">
                            <use xlink:href="#path-1"></use>
                        </mask>
                        <g id="Clip-2"></g>
                        <path d="M78.4640262,0.348170917 L78.4640262,6.70964744 C78.4543109,7.49132172 77.5366229,8.26409033 75.7222966,8.85226884 L45.8510859,18.5420343 C42.1912635,19.7268922 36.2734509,19.7268922 32.6136284,18.5420343 L2.74241776,8.85226884 C0.927281851,8.26409033 0.00999862999,7.49132172 -0.00012144085,6.70964744 L-0.00012144085,0.348170917 L78.4640262,0.348170917 Z" id="Fill-1" fill="#799987" mask="url(#mask-2)"></path>
                    </g>
                    <path d="M32.6157739,24.5606428 L2.742944,14.8708774 C-0.911615981,13.6856147 -0.911615981,11.7636108 2.742944,10.5783481 L32.6157739,0.888987503 C36.2703339,-0.296275194 42.1950281,-0.296275194 45.8495881,0.888987503 L75.722418,10.5783481 C79.3757636,11.7636108 79.3757636,13.6856147 75.722418,14.8708774 L45.8495881,24.5606428 C42.1950281,25.7463103 36.2703339,25.7463103 32.6157739,24.5606428" id="Fill-4" fill="#87B09A"></path>
                    <path d="M75.7027446,12.7233579 C75.5327274,12.7962224 75.3347788,12.8690869 75.0999932,12.9459994 L71.330874,14.168504 L66.8379674,15.6257942 L45.2251393,8.6146091 C41.9786206,7.56212173 36.4898989,7.56212173 33.2429754,8.6146091 L11.6309569,15.6257942 L7.13724068,14.168504 L3.3689311,12.9459994 C3.13374065,12.8690869 2.93133924,12.7962224 2.76172685,12.7233579 C2.93133924,12.6545414 3.13374065,12.5816769 3.3689311,12.5047643 L33.2429754,2.8137845 C36.4898989,1.76129713 41.9786206,1.76129713 45.2251393,2.8137845 L75.0999932,12.5047643 C75.3347788,12.5816769 75.5327274,12.6545414 75.7027446,12.7233579" id="Fill-6" fill="#799987"></path>
                    <path d="M66.8366315,15.6251465 L65.0150188,16.2161586 L62.1085344,17.1593492 L57.2634493,18.7299842 L56.2915177,19.0457304 L52.9478463,20.130602 L50.4668097,20.9361597 L47.4870561,21.9036384 L45.2242082,22.6363316 C45.0181636,22.705148 44.7995701,22.7658685 44.5724757,22.8265889 C41.508523,23.6240505 36.9581344,23.6240505 33.8937769,22.8265889 C33.6674921,22.7658685 33.4488986,22.705148 33.2424492,22.6363316 L30.91038,21.8793503 L28.0002525,20.9361597 L25.0933633,19.9929691 L21.5270504,18.835233 L19.2682505,18.1025398 L16.3577182,17.1593492 L13.4512338,16.2161586 L11.6296211,15.6251465 L12.7266368,15.26892 L15.6375739,14.3257294 L18.6695472,13.3420585 L21.5270504,12.41506 L24.4942551,11.4516293 L25.9074218,10.9942021 L30.3234159,9.56120004 L31.3435191,9.22926172 L33.1529877,8.64229761 L33.2299003,8.61800944 L33.2424492,8.61396141 C36.4885631,7.56147405 41.9776895,7.56147405 45.2242082,8.61396141 L45.2367571,8.61800944 L48.1428367,9.56120004 L51.0655131,10.5084387 L53.9724023,11.4516293 L56.8784818,12.3948199 L57.2634493,12.5203088 L59.3437311,13.1963295 L59.7971102,13.3420585 L62.8294883,14.3257294 L65.7396158,15.26892 L66.8366315,15.6251465 Z" id="Fill-8" fill="#96BCA6"></path>
                </g>
                <g id="k8s" filter="url(#filter-3)" transform="translate(24.986241, 25.066085)">
                    <g id="python" fill="#FFFFFF">
                        <g style="mix-blend-mode: luminosity;" id="Fill-1">
                            <path d="M7.19080269,-7.77384076e-05 C11.1620692,-7.77384076e-05 14.3816054,3.21945841 14.3816054,7.19072495 C14.3816054,11.1623802 11.1620692,14.3815276 7.19080269,14.3815276 C3.21953615,14.3815276 0,11.1623802 0,7.19072495 C0,3.21945841 3.21953615,-7.77384076e-05 7.19080269,-7.77384076e-05"></path>
                        </g>
                    </g>
                    <g id="Group-34" transform="translate(2.888996, 2.888996)">
                        <g id="Group-8">
                            <path d="M4.3498372,0.0825046269 C4.26726321,0.0825046269 4.18427428,0.1236746 4.14236487,0.1236746 L1.15517827,1.56462367 C0.98878546,1.64696362 0.864717007,1.77047354 0.822807596,1.93515344 L0.0759072097,5.14641137 C0.0348276884,5.31067956 0.0759072097,5.43460118 0.158896141,5.5581111 L0.200390607,5.59886938 L2.2751139,8.15181944 C2.40001225,8.27491766 2.56557516,8.3576693 2.73196797,8.3576693 L6.05152525,8.3576693 C6.21708817,8.3576693 6.38306603,8.27491766 6.50754943,8.15181944 L8.58227272,5.59886938 C8.70675612,5.47577116 8.74866553,5.26992129 8.70675612,5.1048297 L7.95985573,1.89357176 C7.91877621,1.72930357 7.79429282,1.56462367 7.62790001,1.5234537 L4.64029846,0.0825046269 C4.51581506,0.1236746 4.43282613,0.0825046269 4.3498372,0.0825046269" id="Fill-4" fill="#326CE5"></path>
                            <path d="M4.3498372,5.26975661 C4.43282613,5.26975661 4.47473554,5.26975661 4.51581506,5.35209656 L4.97225419,6.17549603 L4.80669127,6.216666 C4.47473554,6.29900595 4.1008704,6.25783597 3.76932962,6.17549603 L4.2253538,5.35209656 C4.26726321,5.26975661 4.30834273,5.26975661 4.3498372,5.26975661 L4.3498372,5.26975661 Z M3.56185729,4.85805688 C3.64484622,4.85805688 3.72742021,4.94039682 3.72742021,5.02273677 L3.72742021,5.06390674 L3.35438496,5.92847619 C3.02242923,5.72262632 2.73196797,5.39326653 2.60748458,4.9815668 L3.56185729,4.85805688 Z M5.13823205,4.85805688 L5.13823205,4.85805688 L6.13451418,5.02273677 C6.00961584,5.39326653 5.71956952,5.72262632 5.38719885,5.96964616 L5.05524312,5.10507672 C5.0141636,5.02273677 5.0141636,4.94039682 5.13823205,4.85805688 L5.13823205,4.85805688 Z M4.2253538,4.11699735 L4.51581506,4.11699735 L4.68220787,4.32284722 L4.64029846,4.61103703 L4.39174661,4.73454695 L4.14236487,4.61103703 L4.1008704,4.32284722 L4.2253538,4.11699735 Z M5.92704185,3.4171078 C6.13451418,3.74646759 6.21708817,4.15816733 6.1755937,4.56986706 L5.26271545,4.32284722 C5.17972652,4.28167725 5.13823205,4.1993373 5.13823205,4.11699735 C5.13823205,4.07582738 5.17972652,4.07582738 5.17972652,4.0346574 L5.92704185,3.4171078 Z M2.77304749,3.4171078 L3.47845342,4.0346574 C3.56185729,4.07582738 3.56185729,4.1993373 3.47845342,4.24050727 C3.43737389,4.28167725 3.43737389,4.28167725 3.39546448,4.28167725 L2.48258623,4.52869709 C2.48258623,4.1993373 2.56557516,3.78763756 2.77304749,3.4171078 L2.77304749,3.4171078 Z M4.59921894,2.59370833 C5.0141636,2.63487831 5.38719885,2.84072817 5.63658059,3.12891799 L4.84777079,3.66412764 C4.76478186,3.70529762 4.68220787,3.70529762 4.64029846,3.62295767 C4.64029846,3.5817877 4.59921894,3.5817877 4.59921894,3.54061772 L4.59921894,2.59370833 Z M4.14236487,2.59370833 L4.1008704,3.54061772 C4.1008704,3.62295767 4.01788147,3.70529762 3.93489254,3.70529762 C3.89339807,3.70529762 3.85231855,3.70529762 3.85231855,3.66412764 L3.06350876,3.12891799 C3.31247555,2.88189815 3.60293681,2.71721825 3.93489254,2.63487831 L4.14236487,2.59370833 Z M4.3498372,1.19392923 C4.2253538,1.19392923 4.18427428,1.27626918 4.18427428,1.3997791 L4.18427428,1.44094907 L4.18427428,1.60562897 L4.18427428,1.93498876 C4.18427428,1.97615873 4.14236487,2.0173287 4.14236487,2.0173287 L4.14236487,2.09966865 C4.01788147,2.09966865 3.93489254,2.14083862 3.81040914,2.14083862 C3.35438496,2.22317857 2.9394403,2.47019841 2.6485641,2.7995582 L2.60748458,2.75838823 L2.52449564,2.75838823 C2.44109177,2.67604828 2.35810284,2.63487831 2.2751139,2.55253836 C2.23361944,2.51136838 2.19253992,2.47019841 2.15063051,2.42902844 L2.10955098,2.38785846 C2.06764157,2.34668849 2.02614711,2.34668849 1.98506759,2.34668849 C1.94315818,2.34668849 1.86016924,2.34668849 1.86016924,2.38785846 C1.81867478,2.47019841 1.81867478,2.59370833 1.90207865,2.63487831 L1.94315818,2.67604828 L2.10955098,2.75838823 C2.19253992,2.7995582 2.2751139,2.88189815 2.35810284,2.96423809 C2.40001225,3.00540807 2.40001225,3.04657804 2.40001225,3.04657804 L2.44109177,3.08774801 C2.10955098,3.54061772 1.98506759,4.11699735 2.06764157,4.69337698 L1.98506759,4.69337698 C1.98506759,4.73454695 1.94315818,4.73454695 1.90207865,4.77571693 C1.77759526,4.8168869 1.69460633,4.8168869 1.57012293,4.8168869 L1.3626506,4.8168869 C1.27966167,4.85805688 1.23775226,4.94039682 1.23775226,5.06390674 C1.27966167,5.14624669 1.3626506,5.18741666 1.40373012,5.18741666 L1.44522459,5.18741666 L1.61120245,5.14624669 C1.69460633,5.10507672 1.81867478,5.06390674 1.94315818,5.06390674 C1.98506759,5.06390674 2.02614711,5.06390674 2.02614711,5.10507672 L2.10955098,5.10507672 C2.2751139,5.64028637 2.6485641,6.09315608 3.14691263,6.3813459 L3.10500322,6.46368584 L3.10500322,6.54602579 C3.06350876,6.62836574 3.02242923,6.75187566 2.9394403,6.8342156 C2.89753089,6.87538558 2.85603643,6.91655555 2.85603643,6.95772552 L2.85603643,6.9988955 C2.81495691,7.08123545 2.85603643,7.20474537 2.9394403,7.24591534 C3.02242923,7.28708531 3.14691263,7.24591534 3.18799215,7.16357539 L3.18799215,7.12240542 C3.22990156,7.08123545 3.22990156,6.9988955 3.22990156,6.95772552 C3.27098109,6.8342156 3.31247555,6.75187566 3.35438496,6.62836574 C3.39546448,6.62836574 3.39546448,6.58719576 3.43737389,6.58719576 L3.47845342,6.50485582 C4.01788147,6.71070568 4.59921894,6.71070568 5.13823205,6.50485582 L5.17972652,6.58719576 C5.22163593,6.58719576 5.26271545,6.62836574 5.26271545,6.62836574 C5.30462486,6.71070568 5.34570438,6.8342156 5.38719885,6.91655555 C5.38719885,6.95813722 5.42910826,7.04006547 5.42910826,7.08123545 L5.42910826,7.12240542 C5.47018778,7.20474537 5.59467118,7.24591534 5.67766011,7.20474537 C5.76064904,7.16398709 5.80214351,7.04006547 5.76064904,6.95813722 C5.71956952,6.91655555 5.71956952,6.87538558 5.67766011,6.8342156 C5.63658059,6.75228736 5.55317671,6.66953571 5.51209719,6.54643749 L5.51209719,6.46368584 C5.51209719,6.42251587 5.47018778,6.42251587 5.47018778,6.3813459 C5.96812137,6.09315608 6.34198651,5.64028637 6.50754943,5.10507672 L6.59053836,5.10507672 C6.63244777,5.06390674 6.67394224,5.06390674 6.67394224,5.06390674 C6.79801069,5.10507672 6.88141457,5.10507672 7.00548302,5.14624669 L7.17187583,5.18741666 L7.21295535,5.18741666 C7.29635922,5.18741666 7.42042768,5.10507672 7.42042768,5.02273677 C7.42042768,4.94039682 7.37934816,4.85805688 7.29635922,4.85805688 L7.08888689,4.85805688 C6.9644035,4.85805688 6.88141457,4.8168869 6.75693117,4.8168869 C6.71502176,4.8168869 6.71502176,4.77571693 6.67394224,4.73454695 L6.59053836,4.73454695 C6.67394224,4.15816733 6.54945884,3.62295767 6.21708817,3.12891799 L6.25899758,3.08774801 C6.25899758,3.04657804 6.25899758,3.00540807 6.3000771,3.00540807 C6.38306603,2.92306812 6.46646991,2.88189815 6.54945884,2.7995582 L6.71502176,2.71721825 L6.75693117,2.67604828 C6.83950515,2.59370833 6.83950515,2.51136838 6.79801069,2.42902844 C6.71502176,2.34668849 6.63203283,2.34668849 6.54945884,2.38785846 L6.50754943,2.42902844 C6.46646991,2.47019841 6.4245605,2.51136838 6.38306603,2.55253836 C6.3000771,2.63487831 6.21708817,2.71721825 6.13451418,2.75838823 L6.00961584,2.75838823 L5.92704185,2.7995582 C5.55317671,2.38785846 5.0141636,2.14083862 4.43282613,2.09966865 L4.43282613,2.0173287 C4.39174661,1.97615873 4.39174661,1.97615873 4.39174661,1.93498876 L4.39174661,1.60562897 L4.39174661,1.44094907 L4.39174661,1.3997791 C4.39174661,1.27626918 4.30834273,1.19392923 4.2253538,1.19392923 L4.3498372,1.19392923 Z" id="Fill-6" fill="#FFFFFF"></path>
                        </g>
                    </g>
                </g>
                <g id="mesosphere" filter="url(#filter-4)" transform="translate(35.274693, 8.000000)">
                    <g id="go-lang">
                        <mask id="mask-6" fill="white">
                            <use xlink:href="#path-5"></use>
                        </mask>
                        <use id="Mask" fill="#FFFFFF" xlink:href="#path-5"></use>
                    </g>
                    <g transform="translate(3.466796, 4.911294)" id="Shape" fill-rule="nonzero" fill="url(#linearGradient-7)">
                        <path d="M3.84079537,5.68072067 C3.72016613,5.68072067 3.60682322,5.61397024 3.52820282,5.4990196 L2.27780266,3.62459434 L0.517359403,4.7240455 C0.447884398,4.76853566 0.376580314,4.78891051 0.307105309,4.78891051 C0.159039891,4.78891051 0,4.67770032 0,4.43110384 L0,0.485742474 C0,0.307781855 0.098710279,0.140890558 0.254092012,0.0574753193 C0.319938845,0.0055650706 0.413191872,0 0.480777829,0 L7.19901381,0 C7.28857869,0 7.3580537,0.0166952118 7.40920793,0.0500552252 C7.57196595,0.131676261 7.67613348,0.302216785 7.67613348,0.485742474 L7.67613348,3.51338416 C7.67613348,3.61531922 7.64689821,3.70618497 7.59022675,3.7729354 C7.52989714,3.8452205 7.44213135,3.88603102 7.34525015,3.88603102 C7.28492054,3.88603102 7.22093277,3.87119083 7.15877408,3.83965543 L5.73104323,3.1258667 L4.14975974,5.49716457 C4.0747975,5.61393983 3.96145459,5.68072067 3.84079537,5.68072067 Z M2.55201453,3.453993 L3.7932693,5.31543309 C3.81156009,5.34325844 3.82985088,5.35435817 3.84079537,5.35435817 C3.85176984,5.35435817 3.87006062,5.34140342 3.88835141,5.31543309 L5.44585689,2.98123569 L4.25944449,2.38793226 L2.55201453,3.453993 Z M0.308934388,4.46634928 L0.308934388,4.62950012 L0.308934388,4.46634928 Z M0.321737938,0.689703832 L0.321737938,4.43298927 C0.321737938,4.44597443 0.323567017,4.45521914 0.323567017,4.46263924 C0.330883332,4.46081462 0.338199647,4.45521914 0.349174119,4.44968448 L2.0986429,3.3558288 L0.321737938,0.689703832 Z M5.91572021,2.85521573 L7.30324131,3.54862961 C7.34162198,3.56717984 7.35259645,3.56158436 7.35259645,3.56158436 C7.35259645,3.55975975 7.35991276,3.54491956 7.35991276,3.51338416 L7.35991276,0.689703832 L5.91572021,2.85518532 L5.91572021,2.85521573 Z M0.63253139,0.576608217 L2.37285478,3.18519705 L3.91941576,2.21924676 L0.63253139,0.576608217 Z M4.57935335,2.18774177 L5.62501664,2.71058471 L6.97049891,0.693413879 L4.57935335,2.18774177 L4.57935335,2.18774177 Z M0.848272719,0.322591633 L4.24118369,2.01717084 L6.95589627,0.322591633 L0.848242734,0.322591633 L0.848272719,0.322591633 Z"></path>
                    </g>
                </g>
                <g id="core-os" filter="url(#filter-8)" transform="translate(15.065234, 39.814943)">
                    <g id="ruby">
                        <g id="Group-3">
                            <mask id="mask-10" fill="white">
                                <use xlink:href="#path-9"></use>
                            </mask>
                            <g id="Clip-2"></g>
                            <path d="M7.19080269,-7.77384075e-05 C11.1620692,-7.77384075e-05 14.3816054,3.21945841 14.3816054,7.19072495 C14.3816054,11.1623802 11.1620692,14.3815276 7.19080269,14.3815276 C3.21953615,14.3815276 0,11.1623802 0,7.19072495 C0,3.21945841 3.21953615,-7.77384075e-05 7.19080269,-7.77384075e-05" id="Fill-1" fill="#FFFFFF" mask="url(#mask-10)"></path>
                        </g>
                    </g>
                    <g id="Group-32" transform="translate(3.466796, 3.466796)" fill-rule="nonzero">
                        <g id="coreos-1">
                            <path d="M3.72571095,0 C1.67116799,0 0,1.6712262 0,3.72547811 C0,5.77984645 1.67113888,7.45095622 3.72571095,7.45095622 C5.77967182,7.45095622 7.45095622,5.77984645 7.45095622,3.72547811 C7.45095622,1.6712262 5.77967182,0 3.72571095,0 Z" id="Shape" fill="#53A3DA"></path>
                            <path d="M3.7048926,0.26143706 C3.11101449,0.26143706 2.60736599,1.2232911 2.42545002,2.56016319 C2.41962312,2.6031758 2.41400016,2.64668993 2.40901815,2.69049907 C2.38359186,2.90785531 2.36687435,3.12616557 2.35890677,3.34489259 C2.35488341,3.44907987 2.35289217,3.55333743 2.3529342,3.65760431 C2.3529342,3.76301176 2.35491534,3.86738667 2.35893591,3.97022752 C2.36735578,4.19540946 2.38419554,4.41433716 2.40904729,4.62473905 C2.68748592,4.66123192 2.98524075,4.68598334 3.29578563,4.69775428 C3.43003751,4.70282847 3.56627054,4.70586709 3.70492174,4.70586709 C3.84313592,4.70586709 3.97980596,4.70279897 4.11364996,4.69775428 C4.42457359,4.68598334 4.72209534,4.66123192 5.00079619,4.62473905 C5.03144571,4.6207564 5.06162907,4.61641974 5.09216206,4.61193557 C6.25197828,4.44702439 7.05880063,4.08194821 7.05880063,3.65760431 C7.0587715,1.78186503 5.55703251,0.26143706 3.7048926,0.26143706 L3.7048926,0.26143706 Z" id="Shape" fill="#F1606D"></path>
                            <path d="M5.19708155,2.70453538 C5.16308236,2.65499259 5.12651583,2.60726126 5.08753171,2.56153688 C4.77590623,2.19420154 4.31165448,1.96077795 3.792259,1.96077795 C3.62387739,1.96077795 3.47390652,2.21851159 3.3779287,2.61871267 C3.33977951,2.77832107 3.3101866,2.96035135 3.29109725,3.15798844 C3.27552131,3.32452626 3.26780226,3.49170552 3.2679658,3.65896998 C3.2679658,3.83324111 3.27607951,4.00167075 3.29109725,4.15989253 C3.44956539,4.17493879 3.61774047,4.18299297 3.792259,4.18299297 C3.9665415,4.18299297 4.13471659,4.17490929 4.29318472,4.15989253 C4.64154319,4.12684975 4.94228154,4.05987913 5.15530332,3.97160773 C5.3656697,3.88457542 5.49017827,3.77624233 5.49017827,3.65896998 C5.49014876,3.30517629 5.38210365,2.97657771 5.19708155,2.70453538 L5.19708155,2.70453538 Z" id="Shape" fill="#FFFFFF"></path>
                        </g>
                    </g>
                </g>
                <g id="mesos" filter="url(#filter-11)" transform="translate(42.623588, 29.191977)">
                    <g id="java">
                        <g style="mix-blend-mode: luminosity;" id="Group-3-Copy">
                            <g>
                                <mask id="mask-13" fill="white">
                                    <use xlink:href="#path-12"></use>
                                </mask>
                                <g id="Clip-2"></g>
                                <path d="M7.19080269,-7.77384075e-05 C11.1620692,-7.77384075e-05 14.3816054,3.21945841 14.3816054,7.19072495 C14.3816054,11.1623802 11.1620692,14.3815276 7.19080269,14.3815276 C3.21953615,14.3815276 0,11.1623802 0,7.19072495 C0,3.21945841 3.21953615,-7.77384075e-05 7.19080269,-7.77384075e-05" id="Fill-1" fill="#FFFFFF" mask="url(#mask-13)"></path>
                            </g>
                        </g>
                    </g>
                    <g id="Group-33" transform="translate(3.177896, 3.466796)">
                        <g id="Group-9">
                            <polygon id="Fill-4" fill="#00AADE" points="6.01682018 5.34389498 7.6326213 4.42058005 7.6326213 6.2672099"></polygon>
                            <path d="M6.05533011,3.15094509 L6.67087339,2.80508671 L7.55571686,2.26610162 C7.59418831,2.22801488 7.63265977,2.22801488 7.63265977,2.30457308 L7.63265977,3.9973171 C7.63265977,4.03578856 7.63265977,4.07426001 7.55571686,4.03578856 L6.05533011,3.18980126 L6.05533011,3.15094509 Z" id="Fill-6" fill="#00AADE"></path>
                            <path d="M5.63210563,3.15094509 L4.93961944,3.53565964 L4.09324743,4.03578856 C4.01630452,4.07426001 4.01630452,4.07426001 4.01630452,3.9973171 L4.01630452,2.30457308 C4.01630452,2.26610162 4.01630452,2.22801488 4.09324743,2.26610162 L5.59363418,3.11247364 L5.63210563,3.15094509 Z" id="Fill-8" fill="#00AADE"></path>
                            <polygon id="Fill-10" fill="#004463" points="4.0547375 4.42042617 5.63206716 5.38221254 4.0547375 6.30552747"></polygon>
                            <polygon id="Fill-12" fill="#004463" points="4.0547375 1.88146402 4.0547375 0.0348341704 5.63206716 0.958149093"></polygon>
                            <polygon id="Fill-14" fill="#004463" points="5.63210563 7.53684486 4.05477597 8.45977507 4.05477597 6.61352994"></polygon>
                            <path d="M1.86178762,3.15094509 L1.20777288,3.53565964 L0.322929412,4.03578856 C0.284457957,4.07426001 0.245986502,4.07426001 0.245986502,3.9973171 L0.245986502,2.22801488 L1.86178762,3.15094509 Z" id="Fill-16" fill="#00AADE"></path>
                            <path d="M1.86178762,5.34389498 L1.43860161,5.57472371 L0.361400867,6.19026699 C0.322929412,6.19026699 0.284457957,6.2672099 0.284457957,6.15179553 L0.284457957,4.42058005 L0.284457957,4.3821086 L1.86178762,5.34389498 Z" id="Fill-18" fill="#00AADE"></path>
                            <path d="M3.8238703,4.42042617 L3.8238703,6.19049782 C3.8238703,6.22858456 3.8238703,6.22858456 3.78539884,6.22858456 L2.24654064,5.34374109 L3.8238703,4.42042617 Z" id="Fill-20" fill="#004764"></path>
                            <polygon id="Fill-22" fill="#004764" points="2.24650217 7.53684486 3.82383183 6.61352994 3.82383183 8.45977507"></polygon>
                            <path d="M2.24650217,0.957995207 L3.82383183,0.0350649992 L3.82383183,0.112007909 L3.82383183,1.80436722 C3.82383183,1.88131013 3.82383183,1.88131013 3.74688892,1.84322339 L2.28497362,0.996851377 L2.24650217,0.957995207 Z" id="Fill-24" fill="#004764"></path>
                            <path d="M2.28501209,3.15094509 L3.86234175,2.22801488 L3.86234175,2.30457308 L3.86234175,3.9973171 C3.86234175,4.07426001 3.86234175,4.07426001 3.78539884,4.03578856 L2.32348355,3.18980126 L2.28501209,3.15094509 Z" id="Fill-26" fill="#00AADE"></path>
                            <path d="M5.93980033,1.15035248 L7.51712999,2.07366741 C7.44018708,2.11213886 7.40171562,2.15099503 7.32477271,2.18908177 L5.97827178,2.95851087 C5.93980033,2.99736704 5.90132887,2.99736704 5.90132887,2.92042413 L5.90132887,1.18920865 C5.93980033,1.18920865 5.93980033,1.15035248 5.93980033,1.15035248" id="Fill-28" fill="#00A9DD"></path>
                            <polygon id="Fill-30" fill="#00A9DD" points="5.93980033 5.18985527 5.93980033 3.34322542 7.55560144 4.26692506"></polygon>
                            <polygon id="Fill-32" fill="#00A9DD" points="5.93980033 5.53625225 7.55560144 6.45956717 5.93980033 7.3828821"></polygon>
                            <path d="M2.16967467,1.15035248 L3.74700433,2.07366741 L3.40076124,2.26602468 L2.24661758,2.95851087 C2.20814613,2.95851087 2.16967467,2.99736704 2.16967467,2.92042413 L2.16967467,1.15035248 Z" id="Fill-34" fill="#00A9DD"></path>
                            <polygon id="Fill-36" fill="#004463" points="2.16967467 5.53625225 3.74700433 6.45956717 2.16967467 7.3828821"></polygon>
                            <path d="M4.17007492,2.07382129 L5.74740458,1.15050637 L5.74740458,2.9201933 C5.74740458,2.99713621 5.74740458,2.99713621 5.67046167,2.95866476 L4.24701783,2.11229275 L4.17007492,2.07382129 Z" id="Fill-38" fill="#00A9DD"></path>
                            <polygon id="Fill-40" fill="#004463" points="3.70853288 4.22806889 2.13120322 5.15138381 2.13120322 3.30513868"></polygon>
                            <polygon id="Fill-42" fill="#004463" points="5.74744305 5.53625225 5.74744305 7.3828821 4.17011339 6.45956717"></polygon>
                            <polygon id="Fill-44" fill="#004463" points="5.74744305 3.34330237 5.74744305 5.18993221 4.17011339 4.26661729"></polygon>
                            <path d="M0.361439339,2.07382129 L1.938769,1.15050637 L1.938769,2.9201933 C1.938769,2.95866476 1.938769,2.99713621 1.86182609,2.95866476 L0.361439339,2.07382129 Z" id="Fill-46" fill="#00A9DD"></path>
                            <path d="M1.93880747,7.38280515 L0.36147781,6.45987494 C0.36147781,6.42101878 0.399949265,6.42101878 0.399949265,6.42101878 L1.86186456,5.57464676 C1.93880747,5.53617531 1.93880747,5.53617531 1.93880747,5.61311822 L1.93880747,7.30586224 L1.93880747,7.38280515 Z" id="Fill-48" fill="#00A9DD"></path>
                            <path d="M1.93880747,3.34330237 L1.93880747,5.11337402 C1.93880747,5.15146076 1.93880747,5.18993221 1.86186456,5.15146076 L0.399949265,4.30508874 L0.36147781,4.26661729 L1.93880747,3.34330237 Z" id="Fill-50" fill="#00A9DD"></path>
                        </g>
                    </g>
                </g>
                <g id="docker" filter="url(#filter-14)" transform="translate(35.274693, 39.814943)">
                    <path d="M7.19080269,0 C11.1620692,0 14.3816054,3.21953615 14.3816054,7.19080269 C14.3816054,11.1624579 11.1620692,14.3816054 7.19080269,14.3816054 C3.21953615,14.3816054 0,11.1624579 0,7.19080269 C0,3.21953615 3.21953615,0 7.19080269,0" id="Fill-1" fill="#FFFFFF"></path>
                    <g id="Group-22" transform="translate(2.311197, 3.755695)">
                        <g id="moby">
                            <rect id="Rectangle-path" fill="#099CEC" fill-rule="nonzero" x="2.01093938" y="2.41508659" width="1.00109662" height="1"></rect>
                            <rect id="Rectangle-path" fill="#099CEC" fill-rule="nonzero" x="0.827519385" y="2.41508659" width="1.00109662" height="1"></rect>
                            <rect id="Rectangle-path" fill="#099CEC" fill-rule="nonzero" x="3.1936866" y="2.41508659" width="1.00109662" height="1"></rect>
                            <rect id="Rectangle-path" fill="#099CEC" fill-rule="nonzero" x="4.3771066" y="2.41508659" width="1.00109662" height="1"></rect>
                            <rect id="Rectangle-path" fill="#099CEC" fill-rule="nonzero" x="5.5605266" y="2.41508659" width="1.00109662" height="1"></rect>
                            <rect id="Rectangle-path" fill="#099CEC" fill-rule="nonzero" x="2.01093938" y="1.30022001" width="1.00109662" height="1"></rect>
                            <rect id="Rectangle-path" fill="#099CEC" fill-rule="nonzero" x="3.1936866" y="1.30022001" width="1.00109662" height="1"></rect>
                            <rect id="Rectangle-path" fill="#099CEC" fill-rule="nonzero" x="4.3771066" y="1.30022001" width="1.00109662" height="1"></rect>
                            <rect id="Rectangle-path" fill="#099CEC" fill-rule="nonzero" x="4.3771066" y="0.186039928" width="1.00109662" height="1"></rect>
                            <path d="M9.5440569,2.70135467 C9.33885901,2.55993687 8.79861668,2.50021187 8.40638595,2.60799146 C8.38552977,2.20913833 8.18369577,1.87275617 7.81501234,1.57825016 L7.68045634,1.48488695 L7.58963104,1.62218579 C7.41015485,1.91686915 7.32940178,2.26309024 7.35954029,2.60867795 C7.37739171,2.82908885 7.45625406,3.03978669 7.58693992,3.21622532 C7.48265902,3.29860462 7.15905185,3.45855777 6.72241764,3.45031984 L0.213944036,3.45031984 C0.0982258782,4.15191691 0.296695975,6.81414141 3.30873198,6.81414141 C5.54505266,6.81414141 7.3824148,5.78783259 8.22406257,3.63498678 C8.50124792,3.63979224 9.23323255,3.68578735 9.58913316,2.98075781 C9.5978793,2.96908741 9.67995846,2.79403139 9.67995846,2.79403139 L9.5440569,2.70135467 Z" id="Shape" fill="#099CEC"></path>
                            <path d="M4.09521178,6.70086987 C2.45901085,7.20818908 1.46666037,6.31574662 0.909598543,5.84275212 C1.49061364,5.8354152 2.06703112,5.73653824 2.61845971,5.5496191 C2.95089809,6.1095882 3.47834348,6.52077564 4.09521178,6.70086987 Z" id="Shape" fill="#FFFFFF" fill-rule="nonzero"></path>
                            <path d="M4.09521178,6.70086987 C2.45901085,7.20818908 1.46666037,6.31574662 0.909598543,5.84275212 C1.49061364,5.8354152 2.06703112,5.73653824 2.61845971,5.5496191 C2.95089809,6.1095882 3.47834348,6.52077564 4.09521178,6.70086987 Z" id="Shape"></path>
                            <path d="M2.53570777,5.38623348 C2.16665988,5.60028261 1.74920294,5.71221715 1.3247038,5.71094524 C1.1075104,5.71119057 0.891240324,5.68210531 0.681526127,5.62444697 L0.811372665,5.84755758 C1.43101901,5.97188964 2.0738112,5.86622576 2.62384195,5.5496191 C2.59222129,5.49607255 2.56261897,5.44183951 2.53570777,5.38623348 Z" id="Shape" fill="#026FB6"></path>
                            <ellipse id="Oval" fill="#FFFFFF" fill-rule="nonzero" cx="3.22799838" cy="4.94001225" rx="1" ry="1"></ellipse>
                            <path d="M3.30871075,4.86083665 C3.30912703,4.82883045 3.32416688,4.79880593 3.34947384,4.77945998 C3.32064439,4.76367523 3.28844827,4.75516556 3.25564181,4.75465947 C3.1406346,4.75381131 3.04668047,4.8469931 3.04569392,4.96288152 C3.04470736,5.07876994 3.13706127,5.1735622 3.25206599,5.17470229 C3.36707072,5.17584238 3.46125749,5.08289937 3.46253374,4.96701382 C3.46253374,4.96313874 3.46253374,4.95926366 3.46253374,4.95461357 C3.44630969,4.96357902 3.42794884,4.96786927 3.40946481,4.96701382 C3.35290365,4.96491884 3.30825638,4.91786842 3.30871075,4.86083665 Z" id="Shape" fill="#4D5C64" fill-rule="nonzero"></path>
                            <path d="M9.51781849,2.68487881 C9.31598449,2.54757997 8.75286764,2.47893055 8.37880197,2.59014261 L8.29537725,2.71027909 C7.07562713,5.28600533 5.54908934,6.37547162 3.46347138,6.42352621 C1.18947502,6.41734777 0.620303149,5.1940151 0.459508732,3.52514771 L0.0955347582,3.52514771 C0.0484401591,4.22674478 0.224035736,6.80521699 3.2576007,6.80521699 C5.4966125,6.80521699 7.34002967,5.78165414 8.19109635,3.63086781 C8.46895448,3.63567327 9.24265147,3.63567327 9.58375092,2.92927074 L9.65102892,2.77961501 L9.51781849,2.68487881 Z" id="Shape" fill="#000000" fill-rule="nonzero" opacity="0.05"></path>
                            <rect id="Rectangle-path" fill="#066DA5" fill-rule="nonzero" x="1.00916998" y="2.60044002" width="1" height="1"></rect>
                            <rect id="Rectangle-path" fill="#066DA5" fill-rule="nonzero" x="1.28231866" y="2.60044002" width="1" height="1"></rect>
                            <rect id="Rectangle-path" fill="#066DA5" fill-rule="nonzero" x="1.55546733" y="2.60044002" width="1" height="1"></rect>
                            <rect id="Rectangle-path" fill="#066DA5" fill-rule="nonzero" x="2.19258998" y="2.60044002" width="1" height="1"></rect>
                            <rect id="Rectangle-path" fill="#066DA5" fill-rule="nonzero" x="2.46573865" y="2.60044002" width="1" height="1"></rect>
                            <rect id="Rectangle-path" fill="#066DA5" fill-rule="nonzero" x="2.73888733" y="2.60044002" width="1" height="1"></rect>
                            <rect id="Rectangle-path" fill="#066DA5" fill-rule="nonzero" x="3.37600998" y="2.60044002" width="1" height="1"></rect>
                            <rect id="Rectangle-path" fill="#066DA5" fill-rule="nonzero" x="3.64915865" y="2.60044002" width="1" height="1"></rect>
                            <rect id="Rectangle-path" fill="#066DA5" fill-rule="nonzero" x="3.92230733" y="2.60044002" width="1" height="1"></rect>
                            <rect id="Rectangle-path" fill="#066DA5" fill-rule="nonzero" x="4.55942998" y="2.60044002" width="1" height="1"></rect>
                            <rect id="Rectangle-path" fill="#066DA5" fill-rule="nonzero" x="4.83257865" y="2.60044002" width="1" height="1"></rect>
                            <rect id="Rectangle-path" fill="#066DA5" fill-rule="nonzero" x="5.10572733" y="2.60044002" width="1" height="1"></rect>
                            <rect id="Rectangle-path" fill="#066DA5" fill-rule="nonzero" x="5.74284997" y="2.60044002" width="1" height="1"></rect>
                            <rect id="Rectangle-path" fill="#066DA5" fill-rule="nonzero" x="6.01599865" y="2.60044002" width="1" height="1"></rect>
                            <rect id="Rectangle-path" fill="#066DA5" fill-rule="nonzero" x="6.28914732" y="2.60044002" width="1" height="1"></rect>
                            <rect id="Rectangle-path" fill="#066DA5" fill-rule="nonzero" x="2.46573865" y="1.48625994" width="1" height="1"></rect>
                            <rect id="Rectangle-path" fill="#066DA5" fill-rule="nonzero" x="2.73888733" y="1.48625994" width="1" height="1"></rect>
                            <rect id="Rectangle-path" fill="#066DA5" fill-rule="nonzero" x="3.37600998" y="1.48625994" width="1" height="1"></rect>
                            <rect id="Rectangle-path" fill="#066DA5" fill-rule="nonzero" x="3.64915865" y="1.48625994" width="1" height="1"></rect>
                            <rect id="Rectangle-path" fill="#066DA5" fill-rule="nonzero" x="3.92230733" y="1.48625994" width="1" height="1"></rect>
                            <rect id="Rectangle-path" fill="#066DA5" fill-rule="nonzero" x="4.55942998" y="1.48625994" width="1" height="1"></rect>
                            <rect id="Rectangle-path" fill="#066DA5" fill-rule="nonzero" x="4.83257865" y="1.48625994" width="1" height="1"></rect>
                            <rect id="Rectangle-path" fill="#066DA5" fill-rule="nonzero" x="5.10572733" y="1.48625994" width="1" height="1"></rect>
                            <rect id="Rectangle-path" fill="#066DA5" fill-rule="nonzero" x="4.83257865" y="0.371393361" width="1" height="1"></rect>
                            <rect id="Rectangle-path" fill="#066DA5" fill-rule="nonzero" x="4.55942998" y="0.371393361" width="1" height="1"></rect>
                            <rect id="Rectangle-path" fill="#066DA5" fill-rule="nonzero" x="5.10572733" y="0.371393361" width="1" height="1"></rect>
                            <rect id="Rectangle-path" fill="#066DA5" fill-rule="nonzero" x="2.19258998" y="1.48625994" width="1" height="1"></rect>
                            <path d="M9.56289474,2.60867795 C9.34424125,2.45833572 8.84571128,2.40272969 8.4548261,2.47824406 C8.40436761,2.10273173 8.19782415,1.77664699 7.83586852,1.48831942 L7.6212517,1.34140966 L7.4799679,1.55971482 C7.29093666,1.87096999 7.20595024,2.23639344 7.23776711,2.60112652 C7.2556193,2.80539175 7.31988826,3.00259899 7.42547272,3.17709515 C7.21405386,3.28489878 6.98096627,3.34106825 6.74461938,3.34116726 L6.74461938,2.22904666 L5.5605266,2.22904666 L5.5605266,0 L4.195456,0 L4.195456,1.11486658 L1.82861601,1.11486658 L1.82861601,2.22904666 L0.645196008,2.22904666 L0.645196008,3.34185376 L0.106972018,3.34185376 L0.0921708583,3.4194276 C0.05543059,3.70221871 0.0590564473,3.98895075 0.102935338,4.27068041 C0.157809119,4.67600895 0.284565642,5.06775211 0.477001011,5.42673664 C0.981586002,6.35144432 1.89925791,6.89446123 3.27711132,6.89446123 C5.6210768,6.89446123 7.41739936,5.78989207 8.25568323,3.71667959 C8.49213261,3.73167745 8.72920516,3.7002158 8.95402886,3.62400287 C9.25215332,3.52049173 9.49824992,3.30119942 9.63891888,3.01370953 C9.64766502,2.99860666 9.66044784,2.97251988 9.68803182,2.91554086 L9.7189797,2.85032391 L9.73310808,2.82080466 L9.76741986,2.74734978 L9.56289474,2.60867795 Z M5.5605266,2.41508659 L6.56162322,2.41508659 L6.56162322,3.34185376 L5.5605266,3.34185376 L5.5605266,2.41508659 Z M4.3771066,0.186039928 L5.378876,0.186039928 L5.378876,1.11486658 L4.3771066,1.11486658 L4.3771066,0.186039928 Z M4.3771066,1.30090651 L5.378876,1.30090651 L5.378876,2.22904666 L4.3771066,2.22904666 L4.3771066,1.30090651 Z M4.3771066,2.41577308 L5.378876,2.41577308 L5.378876,3.34254025 L4.3771066,3.34254025 L4.3771066,2.41577308 Z M3.1936866,1.30022001 L4.195456,1.30022001 L4.195456,2.22904666 L3.1936866,2.22904666 L3.1936866,1.30022001 Z M3.1936866,2.41508659 L4.195456,2.41508659 L4.195456,3.34185376 L3.1936866,3.34185376 L3.1936866,2.41508659 Z M2.01093938,1.30022001 L3.012036,1.30022001 L3.012036,2.22904666 L2.01093938,2.22904666 L2.01093938,1.30022001 Z M2.01093938,2.41508659 L3.012036,2.41508659 L3.012036,3.34185376 L2.01093938,3.34185376 L2.01093938,2.41508659 Z M0.827519385,2.41508659 L1.82861601,2.41508659 L1.82861601,3.34185376 L0.827519385,3.34185376 L0.827519385,2.41508659 Z M9.52118239,2.83590753 L9.49292563,2.89357305 C9.48888895,2.90181098 9.48552505,2.90798942 9.47677891,2.92377879 C9.35749889,3.17054653 9.14690763,3.35875531 8.89146032,3.44688737 C8.6817584,3.51651419 8.46087109,3.54425091 8.24088207,3.52858018 L8.19378747,3.52858018 L8.13121893,3.52858018 L8.10767163,3.58830517 C7.31110013,5.62581995 5.57263664,6.7091078 3.27711132,6.7091078 C1.96451756,6.7091078 1.10874142,6.20178859 0.635777088,5.3361194 C0.454273919,4.99689859 0.334813783,4.62679295 0.283240375,4.24390713 C0.247817917,4.00722335 0.240589073,3.76703586 0.261711415,3.52858018 L6.7439466,3.52858018 L6.7439466,3.52858018 C7.10455667,3.52446121 7.44161944,3.41050318 7.61048722,3.27663681 L7.6851658,3.21759831 L7.62528838,3.14277044 C7.5057155,2.98056207 7.43384494,2.78698465 7.41807214,2.58465066 C7.39003416,2.26244096 7.46459109,1.93959636 7.63067062,1.66406194 L7.67103742,1.60159096 L7.7288965,1.64140763 C8.08210599,1.92287025 8.26375659,2.2359116 8.28259443,2.60249951 L8.28864945,2.71783053 L8.39696703,2.68831128 C8.75152208,2.5908291 9.27158101,2.6381972 9.46063219,2.7693176 L9.52791019,2.81737219 L9.52118239,2.83590753 Z" id="Shape" fill="#066DA5" fill-rule="nonzero"></path>
                        </g>
                    </g>
                </g>
            </g>
        </g>
    </g>
</svg>