
<svg width="127px" height="207px" viewBox="0 0 127 207" version="1.1" xmlns="http://www.w3.org/2000/svg" xmlns:xlink="http://www.w3.org/1999/xlink">
    <!-- Generator: Sketch 49.3 (51167) - http://www.bohemiancoding.com/sketch -->
    <desc>Created with Sketch.</desc>
    <defs>
        <path d="M0.593918155,15.6777084 C10.1608528,15.8622742 14.6073105,10.4472542 17.5712527,3.51596323 C20.5351949,-3.41532773 28.4345037,0.875964025 25.0497078,7.96187651 C21.664912,15.047789 13.1877513,24.5564683 0.593918155,24.4040246 C0.593918155,15.6777084 0.593918155,22.2202678 0.593918155,15.6777084 Z" id="path-1"></path>
    </defs>
    <g id="Page-1" stroke="none" stroke-width="1" fill="none" fill-rule="evenodd">
        <g id="snorkelling-habicat">
            <g id="Group-24" transform="translate(0.134373, 80.813855)">
                <path d="M63.3843666,14.4807573 C54.154986,15.7781626 50.7994833,26.5559362 50.7994833,31.3927588" id="Path-3" stroke="#DEBFA5"></path>
                <path d="M11.0149062,74.1154203 C8.54785554,74.1154203 6.54923226,72.1232562 6.54923226,69.6641787 L6.54923226,53.2132615 L15.48058,53.2132615 L15.48058,69.6641787 C15.48058,72.1232562 13.4819568,74.1154203 11.0149062,74.1154203 Z" id="Shape-Copy-3" fill="#DDC7AE" fill-rule="nonzero" transform="translate(11.014906, 63.664341) rotate(140.000000) translate(-11.014906, -63.664341) "></path>
                <rect id="Rectangle-6" fill="#DDC7AE" fill-rule="nonzero" x="13.3485145" y="30.0038873" width="87.5792367" height="72.8208771" rx="6"></rect>
                <path d="M19.3485145,82.4096954 L100.927751,82.4096954 L100.927751,97.3118541 C100.927751,100.625563 98.2414597,103.311854 94.9277512,103.311854 L19.3485145,103.311854 C16.034806,103.311854 13.3485145,100.625563 13.3485145,97.3118541 L13.3485145,88.4096954 C13.3485145,85.0959869 16.034806,82.4096954 19.3485145,82.4096954 Z" id="Rectangle-6" fill="#A2BD7C" fill-rule="nonzero"></path>
                <rect id="Rectangle-6-Copy" fill="#FFE9D1" fill-rule="nonzero" x="13.3485145" y="33.3489389" width="71.1961868" height="68.9577479" rx="4"></rect>
                <ellipse id="Oval-Copy" fill="#837365" fill-rule="nonzero" cx="31.9943245" cy="50.8735247" rx="1.92055206" ry="1.91434514"></ellipse>
                <ellipse id="Oval-Copy-2" fill="#837365" fill-rule="nonzero" cx="65.4448402" cy="50.8735247" rx="1.92055206" ry="1.91434514"></ellipse>
                <path d="M52.810051,60.1254013 L51.7403761,60.9891253 C50.1358639,62.3258408 47.2536844,62.4903597 45.3223271,61.3798575 C45.1143347,61.2564684 44.9360556,61.1330792 44.7577764,60.9891253 L43.6881016,60.1254013 C43.3315433,59.8374934 43.3909697,59.4056314 43.8069544,59.1588531 C43.9852335,59.0560289 44.222939,58.9943343 44.4606445,58.9943343 L52.037508,58.9943343 C52.6020586,58.9943343 53.0477565,59.3028071 53.0477565,59.6935394 C53.0477565,59.8374934 52.9586169,60.0020122 52.810051,60.1254013 Z" id="Shape-Copy-4" fill="#837365" fill-rule="nonzero"></path>
                <path d="M15.5785489,60.1093515 L18.9236005,60.1093515" id="Line-6" stroke="#827365" stroke-linecap="round" stroke-linejoin="round"></path>
                <path d="M78.2306695,60.5177442 L81.5757211,60.5177442" id="Line-6-Copy-3" stroke="#827365" stroke-linecap="round" stroke-linejoin="round"></path>
                <path d="M15.5785489,55.6492827 L18.9236005,55.6492827" id="Line-6-Copy" stroke="#827365" stroke-linecap="round" stroke-linejoin="round"></path>
                <path d="M78.2306695,55.5001669 L81.5757211,55.5001669" id="Line-6-Copy-4" stroke="#827365" stroke-linecap="round" stroke-linejoin="round"></path>
                <path d="M15.5785489,65.6844375 L18.9236005,65.6844375" id="Line-6-Copy-2" stroke="#827365" stroke-linecap="round" stroke-linejoin="round"></path>
                <path d="M78.2306695,65.5353216 L81.5757211,65.5353216" id="Line-6-Copy-5" stroke="#827365" stroke-linecap="round" stroke-linejoin="round"></path>
                <g id="Group-2" transform="translate(56.834185, 20.175501)" fill-rule="nonzero">
                    <path d="M11.2121516,2.46412474 L16.4395731,11.6121123 L0.775271294,11.6121123 L6.00269277,2.46412474 C6.82472268,1.0255724 8.65728667,0.525782219 10.095839,1.34781213 C10.5609328,1.61358003 10.9463837,1.99903091 11.2121516,2.46412474 Z" id="Triangle-Copy-4" fill="#DDC7AE"></path>
                    <path d="M9.47566534,7.9361055 L11.5762407,11.6121123 L5.63860373,11.6121123 L7.73917905,7.9361055 C8.01318902,7.45658806 8.62404369,7.28999133 9.10356113,7.5640013 C9.25859241,7.6525906 9.38707604,7.78107423 9.47566534,7.9361055 Z" id="Triangle-Copy-5" fill="#827365"></path>
                </g>
                <g id="Group-2-Copy" transform="translate(24.498686, 20.175501)" fill-rule="nonzero">
                    <path d="M11.2121516,2.46412474 L16.4395731,11.6121123 L0.775271294,11.6121123 L6.00269277,2.46412474 C6.82472268,1.0255724 8.65728667,0.525782219 10.095839,1.34781213 C10.5609328,1.61358003 10.9463837,1.99903091 11.2121516,2.46412474 Z" id="Triangle-Copy-4" fill="#DDC7AE"></path>
                    <path d="M9.47566534,7.9361055 L11.5762407,11.6121123 L5.63860373,11.6121123 L7.73917905,7.9361055 C8.01318902,7.45658806 8.62404369,7.28999133 9.10356113,7.5640013 C9.25859241,7.6525906 9.38707604,7.78107423 9.47566534,7.9361055 Z" id="Triangle-Copy-5" fill="#827365"></path>
                </g>
                <path d="M100.913774,85.8222146 C110.480708,86.0067804 114.927166,80.5917604 117.891108,73.6604695 C120.85505,66.7291785 128.754359,71.0204703 125.369563,78.1063827 C121.984768,85.1922952 113.507607,94.7009746 100.913774,94.5485308 C100.913774,85.8222146 100.913774,92.364774 100.913774,85.8222146 Z" id="Path-2" fill="#DDC7AE" fill-rule="nonzero"></path>
                <g id="Rectangle-3-Copy-2" transform="translate(100.319856, 70.144506)">
                    <g id="Mask" fill="#DDC7AE" fill-rule="nonzero">
                        <path d="M0.593918155,15.6777084 C10.1608528,15.8622742 14.6073105,10.4472542 17.5712527,3.51596323 C20.5351949,-3.41532773 28.4345037,0.875964025 25.0497078,7.96187651 C21.664912,15.047789 13.1877513,24.5564683 0.593918155,24.4040246 C0.593918155,15.6777084 0.593918155,22.2202678 0.593918155,15.6777084 Z" id="path-1"></path>
                    </g>
                    <g id="Clipped">
                        <mask id="mask-2" fill="white">
                            <use xlink:href="#path-1"></use>
                        </mask>
                        <g id="path-1"></g>
                        <rect id="Rectangle-path" fill-opacity="0.1" fill="#000000" fill-rule="nonzero" mask="url(#mask-2)" transform="translate(2.508263, 19.829064) rotate(-90.000000) translate(-2.508263, -19.829064) " x="-2.20426221" y="17.9147186" width="9.4250497" height="3.82869029"></rect>
                    </g>
                </g>
                <path d="M105.322813,72.2646952 C102.855763,72.2646952 100.85714,70.2725311 100.85714,67.8134536 L100.85714,51.3625364 L109.788487,51.3625364 L109.788487,67.8134536 C109.788487,70.2725311 107.789864,72.2646952 105.322813,72.2646952 Z" id="Shape-Copy-6" fill="#DDC7AE" fill-rule="nonzero" transform="translate(105.322813, 61.813616) rotate(-125.000000) translate(-105.322813, -61.813616) "></path>
                <g id="Group-28" transform="translate(54.954890, 5.473509)" fill-rule="nonzero">
                    <g id="Group-27" fill="#FF9012">
                        <g id="Group-25" transform="translate(2.715557, 2.508789)">
                            <ellipse id="Oval-2" transform="translate(9.198892, 5.853840) rotate(90.000000) translate(-9.198892, -5.853840) " cx="9.19889174" cy="5.85383984" rx="1.67252579" ry="2.50878868"></ellipse>
                            <ellipse id="Oval-2" cx="5.85384026" cy="2.50878868" rx="1.67252579" ry="2.50878868"></ellipse>
                            <ellipse id="Oval-2" transform="translate(2.508789, 5.853840) rotate(-90.000000) translate(-2.508789, -5.853840) " cx="2.50878926" cy="5.85384032" rx="1.67252579" ry="2.50878868"></ellipse>
                            <ellipse id="Oval-2" transform="translate(5.853840, 9.198892) rotate(-180.000000) translate(-5.853840, -9.198892) " cx="5.85383974" cy="9.19889216" rx="1.67252579" ry="2.50878868"></ellipse>
                        </g>
                        <g id="Group-25" transform="translate(8.569398, 8.569330) rotate(45.000000) translate(-8.569398, -8.569330) translate(2.569398, 2.569330)">
                            <ellipse id="Oval-2" transform="translate(9.198892, 5.853840) rotate(90.000000) translate(-9.198892, -5.853840) " cx="9.19889174" cy="5.85383984" rx="1.67252579" ry="2.50878868"></ellipse>
                            <ellipse id="Oval-2" cx="5.85384026" cy="2.50878868" rx="1.67252579" ry="2.50878868"></ellipse>
                            <ellipse id="Oval-2" transform="translate(2.508789, 5.853840) rotate(-90.000000) translate(-2.508789, -5.853840) " cx="2.50878926" cy="5.85384032" rx="1.67252579" ry="2.50878868"></ellipse>
                            <ellipse id="Oval-2" transform="translate(5.853840, 9.198892) rotate(-180.000000) translate(-5.853840, -9.198892) " cx="5.85383974" cy="9.19889216" rx="1.67252579" ry="2.50878868"></ellipse>
                        </g>
                    </g>
                    <path d="M8.56939776,10.0351547 C7.64687228,10.0351547 6.89687197,9.28493487 6.89687197,8.36253927 C6.89687197,7.44014368 7.64687228,6.69010316 8.56939776,6.69010316 C9.49174391,6.69010316 10.2419236,7.44014368 10.2419236,8.36253927 C10.2419236,9.28493487 9.49174391,10.0351547 8.56939776,10.0351547" id="Fill-4" fill="#FFE48F"></path>
                </g>
                <path d="M19.6242185,132.557741 C19.2826234,132.292312 19.1264718,131.822292 19.2325831,131.383784 L23.8983926,106.65338 C24.1292816,105.745632 24.6566073,105.030774 25.3865352,104.627677 C25.8048061,104.395943 26.2655071,104.278322 26.7554282,104.278322 C26.7741664,104.278322 26.7929046,104.278478 26.8120736,104.278868 C28.2098995,104.306635 29.3204066,105.27881 29.6419711,106.75548 L33.6862614,131.669961 C33.7781575,132.113617 33.6064985,132.578099 33.2569343,132.829021 C33.0908752,132.948124 32.8980369,133.011069 32.6990962,133.011069 C32.480484,133.011069 32.2722819,132.936581 32.0972485,132.795637 C32.0860486,132.786823 30.6421305,129.220862 29.4492759,129.196917 C28.2231808,129.196527 27.040019,132.684645 27.0268807,132.694239 C26.860319,132.819193 26.6616655,132.88635 26.45533,132.88635 C26.236646,132.88635 26.0288746,132.812173 25.8544874,132.671775 C25.8447952,132.664131 24.5189388,129.33039 23.3357764,129.307303 C22.1261938,129.306913 20.8330112,132.53403 20.7785197,132.573341 C20.6144708,132.695955 20.4170378,132.762566 20.2122818,132.762566 C20.0006335,132.762566 19.7973134,132.691743 19.6242185,132.557741 Z" id="Shape-Copy-7" fill="#627B8F" fill-rule="nonzero" transform="translate(26.455243, 118.644695) rotate(90.000000) translate(-26.455243, -118.644695) "></path>
                <path d="M54.4970284,132.55774 C54.1554334,132.292311 53.9992818,131.822291 54.1053931,131.383783 L58.7712026,106.653379 C59.0020915,105.745631 59.5294173,105.030773 60.2593452,104.627676 C60.677616,104.395942 61.1383171,104.278321 61.6282382,104.278321 C61.6469764,104.278321 61.6657146,104.278477 61.6848835,104.278867 C63.0827095,104.306634 64.1932165,105.278809 64.5147811,106.755479 L68.5590714,131.66996 C68.6509675,132.113616 68.4793084,132.578098 68.1297443,132.82902 C67.9636851,132.948123 67.7708469,133.011068 67.5719062,133.011068 C67.3532939,133.011068 67.1450918,132.93658 66.9700585,132.795636 C66.9588586,132.786822 65.5149405,129.220861 64.3220859,129.196916 C63.0959908,129.196526 61.912829,132.684644 61.8996907,132.694238 C61.733129,132.819192 61.5344755,132.886349 61.32814,132.886349 C61.109456,132.886349 60.9016846,132.812172 60.7272974,132.671774 C60.7176052,132.66413 59.3917487,129.330389 58.2085863,129.307302 C56.9990038,129.306912 55.7058212,132.534029 55.6513297,132.57334 C55.4872808,132.695954 55.2898477,132.762565 55.0850917,132.762565 C54.8734435,132.762565 54.6701234,132.691742 54.4970284,132.55774 Z" id="Shape-Copy-9" fill="#627B8F" fill-rule="nonzero" transform="translate(61.328052, 118.644695) rotate(90.000000) translate(-61.328052, -118.644695) "></path>
                <path d="M13.3485145,82.4096954 L84.5447013,82.4096954 L84.5447013,99.3118541 C84.5447013,101.520993 82.7538403,103.311854 80.5447013,103.311854 L17.3485145,103.311854 C15.1393755,103.311854 13.3485145,101.520993 13.3485145,99.3118541 L13.3485145,82.4096954 Z" id="Rectangle-6-Copy" fill="#B9DA8D" fill-rule="nonzero"></path>
                <path d="M34.5394463,118.644695 C32.0723957,118.644695 30.0737724,116.652531 30.0737724,114.193454 L30.0737724,103.228992 L39.0051202,103.228992 L39.0051202,114.193454 C39.0051202,116.652531 37.0064969,118.644695 34.5394463,118.644695 Z" id="Shape" fill="#DDC7AE" fill-rule="nonzero"></path>
                <path d="M69.3685178,118.644695 C66.9014672,118.644695 64.9028439,116.652531 64.9028439,114.193454 L64.9028439,103.166683 L73.8341917,103.166683 L73.8341917,114.193454 C73.8341917,116.652531 71.8355684,118.644695 69.3685178,118.644695 Z" id="Shape-Copy-2" fill="#DDC7AE" fill-rule="nonzero"></path>
                <rect id="Rectangle-3" fill-opacity="0.1" fill="#000000" fill-rule="nonzero" x="30.0737724" y="103.311854" width="8.93134777" height="3.34505158"></rect>
                <rect id="Rectangle-3-Copy" fill-opacity="0.1" fill="#000000" fill-rule="nonzero" x="64.9028439" y="103.311854" width="8.93134777" height="3.34505158"></rect>
                <path d="M49.4516696,58.4096954 C56.0108148,58.4096954 61.3280526,63.7269332 61.3280526,70.2860784 L61.3280526,82.4096954 L37.5752865,82.4096954 L37.5752865,70.2860784 C37.5752865,63.7269332 42.8925243,58.4096954 49.4516696,58.4096954 Z" id="Rectangle-Copy-9" fill="#FFFFFF" fill-rule="nonzero"></path>
                <g id="Group-4" transform="translate(7.265987, 0.064445)" fill-rule="nonzero">
                    <path d="M-9.86076132e-32,3.53907781 L-9.86076132e-32,59.1642722 C-9.86076132e-32,66.8938767 6.28946379,73.1833405 14.0190682,73.1833405 L28.1056829,73.1833405 C28.0814681,73.0724624 28.0381365,72.9679566 28.0381365,72.8494318 L28.0381365,65.8717592 C28.0381365,65.7532343 28.0814681,65.6487285 28.1056829,65.5378505 L14.0190682,65.5378505 C10.50538,65.5378505 7.64676449,62.679235 7.64676449,59.1655467 L7.64676449,3.53907781 C7.64676449,1.88222356 6.30361874,0.539077808 4.64676449,0.539077808 L3,0.539077808 C1.34314575,0.539077808 -6.46995335e-16,1.88222356 -9.86076132e-32,3.53907781 Z" id="Shape" fill="#627B8F"></path>
                    <path d="M3,0.539077808 L4.64676449,0.539077808 C6.30361874,0.539077808 7.64676449,1.88222356 7.64676449,3.53907781 L7.64676449,12.0092245 L0,12.0092245 L0,3.53907781 C-9.3869722e-16,1.88222356 1.34314575,0.539077808 3,0.539077808 Z" id="Rectangle-path" fill="#54C7F1"></path>
                    <path d="M44.2722175,74.4578012 L29.6465059,74.4578012 C28.7582068,74.4578012 28.0381365,73.7377309 28.0381365,72.8494318 L28.0381365,65.8717592 C28.0381365,64.9821856 28.7582068,64.2621152 29.6465059,64.2621152 L44.270943,64.2621152 C45.1605166,64.2621152 45.880587,64.9821856 45.880587,65.8704847 L45.880587,72.8481573 C45.880587,73.7377309 45.1605166,74.4578012 44.2722175,74.4578012 Z" id="Shape" fill="#BDC3C7"></path>
                </g>
                <g id="Group-3" transform="translate(14.531974, 33.162681)" fill-rule="nonzero">
                    <path d="M65.1032537,13.221973 L65.0954524,19.50722 L65.0954524,23.4730267 C65.1409599,24.687429 64.9693314,27.8599575 62.3597966,30.7438379 C59.6241409,33.7655412 55.2944197,35.2984966 49.3966372,35.2984966 C43.8772178,35.1957795 38.0717507,33.241554 34.934328,29.2459884 C34.3921377,28.5542731 33.3883705,28.5542731 32.84488,29.2459884 C29.7087576,33.2428542 23.9032905,35.1957795 18.3786702,35.2984966 C12.4821879,35.2984966 8.15636731,33.7655412 5.4207116,30.7425377 C2.81117689,27.8586573 2.64084852,24.6861288 2.7253626,24.0399211 L2.7253626,16.1747649 C2.68505589,15.5662636 2.69285718,15.5298575 2.69285718,15.490851 L2.69285718,13.221973 C2.69285718,5.92255708 8.61144312,0.00397115098 15.9108591,0.00397115098 L21.0961228,0.00397115098 L46.6856856,0.00397115098 L51.8852518,0.00397115098 C59.1846677,0.00397115098 65.1032537,5.92255708 65.1032537,13.221973 Z M21.0961228,5.20483752 C18.2889552,5.20483752 15.4895889,5.86534755 13.0867886,7.31768949 C10.4863554,8.88835113 7.88592226,11.4887843 7.88592226,15.6065703 L7.88592226,23.5965473 C7.88592226,23.5965473 7.23581396,30.0976302 18.287655,30.0976302 C18.287655,30.0976302 29.9896043,29.8804941 29.9896043,22.2963307 C29.9974056,20.1418718 31.7435965,18.3956809 33.8980554,18.3956809 C36.0525143,18.3956809 37.7987052,20.1418718 37.7987052,22.2963307 C37.7909039,29.8804941 49.4928532,30.0976302 49.4928532,30.0976302 C60.5446943,30.0976302 59.894586,23.5965473 59.894586,23.5965473 L59.894586,15.6065703 C59.894586,11.4887843 57.2941528,8.88835113 54.6937196,7.31768949 C52.2909194,5.86534755 49.4928532,5.20483752 46.6843854,5.20483752 L21.0961228,5.20483752 Z" id="Combined-Shape" fill="#FF9012"></path>
                    <rect id="Rectangle-path" fill="#BDC3C7" x="0.244801321" y="15.0508007" width="2.4474483" height="5.20086637"></rect>
                </g>
            </g>
            <g id="Group-5" fill="#627B8F" fill-rule="nonzero">
                <circle id="Oval-5" cx="3.87291486" cy="67.0622574" r="3.73854191"></circle>
                <circle id="Oval-5-Copy" cx="21.2715479" cy="60.1599246" r="3.16379098"></circle>
                <circle id="Oval-5-Copy-3" cx="12.7771194" cy="53.8323426" r="3.16379098"></circle>
                <circle id="Oval-5-Copy-4" cx="6.44953745" cy="38.9757407" r="3.16379098"></circle>
                <circle id="Oval-5-Copy-2" cx="20.4688479" cy="3.26579153" r="2.361091"></circle>
            </g>
        </g>
    </g>
</svg>
