<?xml version="1.0" encoding="UTF-8"?>
<svg width="500px" height="455px" viewBox="0 0 500 455" version="1.1" xmlns="http://www.w3.org/2000/svg" xmlns:xlink="http://www.w3.org/1999/xlink">
    <!-- Generator: Sketch 46.2 (44496) - http://www.bohemiancoding.com/sketch -->
    <title>build-graph-grey-center@1x</title>
    <desc>Created with Sketch.</desc>
    <defs>
        <linearGradient x1="8.18516048%" y1="12.0003612%" x2="100%" y2="100%" id="linearGradient-1">
            <stop stop-color="#62AAA7" offset="0%"></stop>
            <stop stop-color="#BADB8D" offset="100%"></stop>
        </linearGradient>
    </defs>
    <g id="Symbols" stroke="none" stroke-width="1" fill="none" fill-rule="evenodd">
        <g id="home-v4---bg" transform="translate(-166.000000, -1056.000000)">
            <g id="build-graph-grey-center" transform="translate(166.000000, 1056.000000)">
                <path d="M99.5,96.5 L99.5,336 C99.5,348.978692 110.021308,359.5 123,359.5 L405.5,359.5 L405.5,120 C405.5,107.021308 394.978692,96.5 382,96.5 L99.5,96.5 Z" id="Rectangle-15" stroke="url(#linearGradient-1)"></path>
                <g id="build-bg" transform="translate(146.000000, 135.000000)" fill-rule="nonzero">
                    <path d="M213.470474,142.948147 L213.470474,160.296919 C213.470474,162.427111 210.947021,164.53682 206.009237,166.141291 L124.740414,192.53655 C114.783005,195.765975 98.680648,195.765975 88.7300595,192.53655 L7.46123636,166.141291 C2.52345288,164.543647 0,162.427111 0,160.296919 L0,142.948147 L213.470474,142.948147 Z" id="Shape" fill="#516779"></path>
                    <path d="M88.7368796,175.221916 L7.46123636,148.799347 C-2.48253203,145.569921 -2.48253203,140.326373 7.46123636,137.096948 L88.7368796,110.674379 C98.680648,107.444954 114.796646,107.444954 124.740414,110.674379 L206.016057,137.096948 C215.953006,140.326373 215.953006,145.569921 206.016057,148.799347 L124.740414,175.221916 C114.796646,178.451341 98.680648,178.451341 88.7368796,175.221916 Z" id="Shape" fill="#5A7082"></path>
                    <path d="M205.968316,142.94132 C205.504547,143.139318 204.965755,143.337317 204.324662,143.54897 L194.094448,146.880809 L181.838651,150.888573 L123.042199,131.771469 C114.210113,128.903903 99.2740004,128.903903 90.4419154,131.771469 L31.6454632,150.888573 L19.4237671,146.914946 L9.19355267,143.583108 C8.55245923,143.371454 8.0068478,143.173456 7.54307808,142.975457 C7.99775427,142.788838 8.54791247,142.590839 9.19355267,142.381462 L90.4691959,115.952065 C99.3353817,113.084499 114.237394,113.084499 123.069479,115.952065 L204.345122,142.381462 C204.958935,142.558978 205.497727,142.756976 205.968316,142.94132 Z" id="Shape" fill="#516779"></path>
                    <path d="M181.831831,150.888573 L176.880407,152.493044 L168.969041,155.073853 L155.778885,159.361547 L153.146309,160.208161 L144.048239,163.17814 L137.296297,165.369779 L129.200788,167.957416 L123.062659,169.964712 C122.489767,170.149056 121.903235,170.312916 121.275782,170.483605 C112.941567,172.654762 100.563007,172.654762 92.2287928,170.483605 C91.8605051,170.374364 91.4717569,170.278779 91.1239296,170.169538 C90.8924904,170.115781 90.6646941,170.047368 90.4419154,169.964712 L84.0923623,167.916451 L83.744535,167.80721 L76.1809965,165.342469 L68.2696307,162.782143 L58.5577472,159.614166 L53.92005,158.125762 L52.4127984,157.627352 L46.5611158,155.708814 L44.5150729,155.026061 L36.6037071,152.445251 L31.6454632,150.888573 L34.6258656,149.912235 L42.5372314,147.331426 L46.5679359,146.020539 L50.7964245,144.655031 L53.9268701,143.624073 L58.5645673,142.115188 L66.6396165,139.500241 L70.4861771,138.250802 L82.5237294,134.324968 L83.7718156,133.922143 L85.2995276,133.423733 L90.2304909,131.819261 L90.4350952,131.744159 L90.4691959,131.744159 C90.691308,131.664757 90.9193612,131.603115 91.1512102,131.559815 C100.051497,128.869765 114.476099,128.944868 123.08994,131.744159 L123.12404,131.744159 L131.035406,134.324968 L138.980873,136.905777 L146.892238,139.486586 L154.735403,142.012775 L155.785705,142.360979 L161.453244,144.204414 L162.687689,144.607239 L170.926422,147.276806 L178.858248,149.857615 L181.831831,150.888573 Z" id="Shape" fill="#5E7587"></path>
                    <rect id="Rectangle-path" fill="#4B6173" transform="translate(89.695142, 91.416117) rotate(44.860000) translate(-89.695142, -91.416117) " x="86.0156749" y="34.5768696" width="7.35893422" height="113.678495" rx="2"></rect>
                    <rect id="Rectangle-path" fill="#4B6173" x="126.002141" y="0" width="7.35893422" height="138.121078" rx="3.67946711"></rect>
                    <path d="M49.4869571,34.2264442 C49.4869571,39.0057202 49.0913888,43.5596876 50.6873022,44.0785804 L85.558693,55.3644995 C85.9067316,55.4772315 86.2814169,55.4772315 86.6294555,55.3644995 L165.177042,29.9387508 C166.779775,29.419858 166.377387,24.4016181 166.377387,19.1853796" id="Shape" fill="#485D70"></path>
                    <path d="M50.6873022,36.6433924 L85.558693,47.9293114 C85.9067316,48.0420435 86.2814169,48.0420435 86.6294555,47.9293114 L165.177042,22.5308729 C165.888103,22.2944376 166.367973,21.6286803 166.367973,20.8786089 C166.367973,20.1285374 165.888103,19.4627802 165.177042,19.2263449 L131.512816,8.30228528 C130.20312,7.8751627 128.791807,7.8751627 127.482112,8.30228528 L50.6804821,33.3388643 C49.9699045,33.5767666 49.491405,34.2435176 49.4929531,34.9935916 C49.4945012,35.7436656 49.9757487,36.4084316 50.6873022,36.6433924 Z" id="Shape" fill="#506577"></path>
                    <rect id="Rectangle-path" fill="#4B6173" transform="translate(89.156538, 88.562980) rotate(-69.950000) translate(-89.156538, -88.562980) " x="85.5793733" y="44.7165358" width="7.15432993" height="87.6928883" rx="1.94"></rect>
                    <rect id="Rectangle-path" fill="#607789" transform="translate(126.870417, 100.047180) rotate(-69.950000) translate(-126.870417, -100.047180) " x="123.293252" y="55.1663636" width="7.15432993" height="89.7616321" rx="1.94"></rect>
                    <rect id="Rectangle-path" fill="#607789" transform="translate(127.418557, 100.605156) rotate(44.860000) translate(-127.418557, -100.605156) " x="123.73909" y="41.5981655" width="7.35893422" height="118.013981" rx="3.67946711"></rect>
                    <path d="M91.1034692,40.5487437 L91.1034692,170.183193 C90.87203,170.129436 90.6442336,170.061023 90.4214549,169.978367 L84.0719019,167.930106 L83.7240746,167.820865 L83.7240746,40.8286727 C83.6767959,39.0170982 84.893361,37.4159638 86.6499159,36.9779417 C87.862944,36.7261367 89.1208234,37.1064796 89.9917859,37.9884172 C90.6914534,38.6572995 91.0922186,39.580305 91.1034692,40.5487437 L91.1034692,40.5487437 Z" id="Shape" fill="#607789"></path>
                    <rect id="Rectangle-path" fill="#607789" x="163.18556" y="12.3988076" width="7.35893422" height="138.121078" rx="3.67946711"></rect>
                    <path d="M53.9268701,28.1567636 L53.9268701,158.118935 L52.4196185,157.620525 L46.5679359,155.701987 L46.5679359,28.1567636 C46.5679359,26.1243322 48.2137627,24.476721 50.2439929,24.476721 C51.2192204,24.4716087 52.1546575,24.8634396 52.8356473,25.5622994 C53.5291208,26.2477365 53.9217277,27.1811887 53.9268701,28.1567636 Z" id="Shape" fill="#4B6173"></path>
                </g>
                <g id="build-2" transform="translate(352.117448, 251.987165)">
                    <path d="M119.034411,93.6266887 L119.034411,105.240088 C119.034411,106.420524 117.628304,107.5836 114.868169,108.486285 L69.5602861,123.120211 C62.9852796,124.912202 56.050534,124.912202 49.4755275,123.120211 L4.16764504,108.468926 C1.40750967,107.5836 0.0014029737,106.420524 0.0014029737,105.240088 L0.0014029737,93.6266887 L119.034411,93.6266887 Z" id="Shape" fill="#799987" fill-rule="nonzero"></path>
                    <path d="M4.16764504,96.942323 C-1.36998504,95.2063888 -1.36998504,92.2379413 4.16764504,90.4499291 L49.4755275,75.7118478 C56.050534,73.9198566 62.9852796,73.9198566 69.5602861,75.7118478 L114.885528,90.3631324 C120.423158,92.0990666 120.423158,95.067514 114.885528,96.8555263 L69.5602861,111.506811 C62.9852796,113.298802 56.050534,113.298802 49.4755275,111.506811 L4.16764504,96.942323 Z" id="Shape" fill="#87B09A" fill-rule="nonzero"></path>
                    <path d="M94.2105517,92.6198468 L85.8780676,89.3910092 C85.0621785,89.0785411 83.6560718,89.3042125 83.6560718,89.7555554 L83.6560718,90.8665533 C83.6560718,91.1443028 83.0658542,91.3699742 82.3541212,91.3699742 L77.7886142,91.3699742 C77.0768812,91.3699742 76.4866636,91.1443028 76.4866636,90.8665533 L76.4866636,88.5577608 C76.4866636,88.2800113 77.0595219,88.0543399 77.7886142,88.0543399 L79.3162363,88.0543399 C80.4793122,88.0543399 81.0521705,87.5162003 80.2362814,87.1863728 L71.9037973,83.9575352 C71.3063057,83.7602011 70.6611987,83.7602011 70.0637071,83.9575352 L61.7312229,87.1863728 C60.9153339,87.498841 61.4881921,88.0543399 62.651268,88.0543399 L64.473999,88.0543399 C65.185732,88.0543399 65.7759496,88.2800113 65.7759496,88.5577608 L65.7759496,90.8144753 C65.7759496,91.0922247 65.185732,91.3178962 64.473999,91.3178962 L54.4923773,91.3178962 C53.7806443,91.3178962 53.1904267,91.0922247 53.1904267,90.8144753 L53.1904267,88.5577608 C53.1904267,88.2800113 53.7806443,88.0543399 54.4923773,88.0543399 L56.3845456,88.0543399 C57.5476215,88.0543399 58.1204798,87.5162003 57.3045907,87.1863728 L48.9721066,83.9575352 C48.374615,83.7602011 47.729508,83.7602011 47.1320164,83.9575352 L38.7995322,87.1863728 C37.9836431,87.498841 38.5565014,88.0543399 39.7195773,88.0543399 L41.1951214,88.0543399 C41.9068544,88.0543399 42.4970721,88.2800113 42.4970721,88.5577608 L42.4970721,90.8665533 C42.4970721,91.1443028 41.9242138,91.3699742 41.1951214,91.3699742 L36.6816925,91.3699742 C35.9699595,91.3699742 35.3797419,91.1443028 35.3797419,90.8665533 L35.3797419,89.7381961 C35.3797419,89.2868532 33.9736352,89.0611817 33.1577461,89.3736499 L24.825262,92.6024875 C24.321841,92.7934402 24.321841,93.1232677 24.825262,93.3142205 L33.1577461,96.5430581 C33.9736352,96.8555263 35.3797419,96.6298548 35.3797419,96.1785119 L35.3797419,95.0501547 C35.3797419,94.7724052 35.9699595,94.5467338 36.6816925,94.5467338 L41.1777621,94.5467338 C41.8894951,94.5467338 42.4797127,94.7724052 42.4797127,95.0501547 L42.4797127,97.3589472 C42.4797127,97.6366966 41.9068544,97.8623681 41.1777621,97.8623681 L39.702218,97.8623681 C38.5391421,97.8623681 37.9662838,98.4005077 38.7821729,98.7303352 L47.114657,101.959173 C47.7121486,102.156507 48.3572557,102.156507 48.9547473,101.959173 L57.2872314,98.6782572 C58.1031205,98.365789 57.5302622,97.8102901 56.3671863,97.8102901 L54.4923773,97.8102901 C53.7806443,97.8102901 53.1904267,97.5846186 53.1904267,97.3068691 L53.1904267,95.1022327 C53.1904267,94.8244833 53.7806443,94.5988118 54.4923773,94.5988118 L64.4913583,94.5988118 C65.2030913,94.5988118 65.7933089,94.8244833 65.7933089,95.1022327 L65.7933089,97.3763065 C65.7933089,97.654056 65.2030913,97.8797274 64.4913583,97.8797274 L62.6686274,97.8797274 C61.5055515,97.8797274 60.9326932,98.417867 61.7485823,98.7476945 L70.0810664,101.976532 C70.678558,102.173866 71.323665,102.173866 71.9211566,101.976532 L80.2536408,98.6782572 C81.0695298,98.365789 80.4966716,97.8102901 79.3335957,97.8102901 L77.8059736,97.8102901 C77.0942405,97.8102901 76.5040229,97.5846186 76.5040229,97.3068691 L76.5040229,95.067514 C76.5040229,94.7897646 77.0768812,94.5640931 77.8059736,94.5640931 L82.3714805,94.5640931 C83.0832135,94.5640931 83.6734311,94.7897646 83.6734311,95.067514 L83.6734311,96.1958713 C83.6734311,96.6472142 85.0795378,96.8728856 85.8954269,96.5604174 L94.227911,93.3315798 C94.731332,93.1406271 94.731332,92.8107996 94.227911,92.6198468" id="Shape" fill="#FFFFFF" fill-rule="nonzero"></path>
                    <polygon id="Shape" fill="#657C6E" fill-rule="nonzero" points="7.46592001 102.254282 7.46592001 104.649871 43.6775073 116.593098 43.6775073 113.919759"></polygon>
                    <path d="M105.952495,7.64198565 L105.952495,77.8408132 C105.952495,83.5066233 101.332085,88.0926168 95.6254049,88.0926168 L23.1873563,88.0926168 C17.4828277,88.0926168 12.8624177,83.5066233 12.8624177,77.8408132 L12.8624177,7.64198565 L17.8463516,7.64198565 L17.8463516,8.23136756 C17.8463516,9.58866679 19.9091883,10.6921446 22.490423,10.6921446 L95.8060913,10.6921446 C98.3636647,10.6921446 100.454465,9.58866679 100.454465,8.23136756 L100.454465,7.64198565 L105.952495,7.64198565 Z" id="Fill-1" fill="#E2F0F7"></path>
                    <path d="M100.457261,7.64198565 L100.457261,8.23136756 C100.457261,9.58866679 98.366461,10.6921446 95.8110387,10.6921446 L22.4953703,10.6921446 C19.9141357,10.6921446 17.8491479,9.58866679 17.8491479,8.23136756 L17.8491479,7.64198565 L100.457261,7.64198565 Z" id="Fill-3" fill="#E2F0F7"></path>
                    <path d="M100.457261,6.64218742 L100.457261,8.23179777 C100.457261,9.58909699 98.366461,10.6925748 95.8110387,10.6925748 L22.4953703,10.6925748 C19.9141357,10.6925748 17.8491479,9.58909699 17.8491479,8.23179777 L17.8491479,6.64218742 C17.8491479,5.28273717 19.9141357,4.18141038 22.4953703,4.18141038 L95.8110387,4.18141038 C98.366461,4.18141038 100.457261,5.28273717 100.457261,6.64218742" id="Fill-5" fill="#F3FCFF"></path>
                    <path d="M100.457261,6.64218742 L100.457261,8.23179777 C100.457261,9.58909699 98.366461,10.6925748 95.8110387,10.6925748 L22.4953703,10.6925748 C19.9141357,10.6925748 17.8491479,9.58909699 17.8491479,8.23179777 L17.8491479,6.64218742 C17.8491479,5.28273717 19.9141357,4.18141038 22.4953703,4.18141038 L95.8110387,4.18141038 C98.366461,4.18141038 100.457261,5.28273717 100.457261,6.64218742" id="Fill-7" fill="#E2F0F7"></path>
                    <path d="M100.457261,8.23222797 C100.457261,9.5895272 98.366461,10.693005 95.8110387,10.693005 L22.4953703,10.693005 C19.9141357,10.693005 17.8491479,9.5895272 17.8491479,8.23222797 L17.8491479,6.64261763 C17.8491479,5.28316738 19.9141357,4.18184059 22.4953703,4.18184059 L95.8110387,4.18184059 C98.366461,4.18184059 100.457261,5.28316738 100.457261,6.64261763 L100.457261,8.23222797 Z M100.715385,0.927333892 L18.1051204,0.927333892 C15.1883252,0.927333892 12.865214,3.2590492 12.865214,6.12852173 L12.865214,9.46046546 C12.865214,12.332089 15.1883252,14.6638043 18.1051204,14.6638043 L100.715385,14.6638043 C103.606367,14.6638043 105.955291,12.332089 105.955291,9.46046546 L105.955291,6.12852173 C105.955291,3.2590492 103.606367,0.927333892 100.715385,0.927333892 L100.715385,0.927333892 Z" id="Fill-9" fill="#F3FCFF"></path>
                    <polygon id="Fill-12" fill="#847264" points="19.1890238 62.4286913 99.6288999 62.4286913 99.6288999 35.6871002 19.1890238 35.6871002"></polygon>
                    <path d="M95.322325,82.3358182 L23.4865644,82.3358182 C21.1096775,82.3358182 19.1845067,80.4084964 19.1845067,78.0337605 L19.1845067,62.4280459 L99.6243827,62.4280459 L99.6243827,78.0337605 C99.6243827,80.4084964 97.6970608,82.3358182 95.322325,82.3358182" id="Fill-14" fill="#685A50"></path>
                    <path d="M95.322325,42.7454864 L23.4865644,42.7454864 C21.1096775,42.7454864 19.1845067,40.8181645 19.1845067,38.4434286 L19.1845067,32.9324926 C19.1845067,30.5556057 21.1096775,28.6304349 23.4865644,28.6304349 L95.322325,28.6304349 C97.6970608,28.6304349 99.6243827,30.5556057 99.6243827,32.9324926 L99.6243827,38.4434286 C99.6243827,40.8181645 97.6970608,42.7454864 95.322325,42.7454864" id="Fill-15" fill="#9B8676"></path>
                    <path d="M88.6081034,35.5003909 L80.6406924,35.5003909 C80.6406924,33.4719707 82.4238954,31.8285846 84.6243979,31.8285846 C86.8249005,31.8285846 88.6081034,33.4719707 88.6081034,35.5003909" id="Fill-16" fill="#B3B3B3"></path>
                    <path d="M87.3052252,35.5003909 L79.3378142,35.5003909 C79.3378142,33.4719707 81.1210172,31.8285846 83.3215197,31.8285846 C85.5220223,31.8285846 87.3052252,33.4719707 87.3052252,35.5003909" id="Fill-17" fill="#C3C6C8"></path>
                    <path d="M39.6506861,35.5003909 L31.6832751,35.5003909 C31.6832751,33.4719707 33.466478,31.8285846 35.6669806,31.8285846 C37.8674831,31.8285846 39.6506861,33.4719707 39.6506861,35.5003909" id="Fill-18" fill="#B3B3B3"></path>
                    <path d="M38.3478079,35.5003909 L30.3803969,35.5003909 C30.3803969,33.4719707 32.1635998,31.8285846 34.3641024,31.8285846 C36.5646049,31.8285846 38.3478079,33.4719707 38.3478079,35.5003909" id="Fill-19" fill="#C3C6C8"></path>
                    <path d="M76.7901356,76.1053631 C76.7901356,77.4841726 75.6651475,78.6005566 74.2777339,78.6005566 C72.8903203,78.6005566 71.7653322,77.4841726 71.7653322,76.1053631 C71.7653322,74.7265536 72.8903203,73.6101696 74.2777339,73.6101696 C75.6651475,73.6101696 76.7901356,74.7265536 76.7901356,76.1053631" id="Fill-20" fill="#9B8676"></path>
                    <path d="M48.730179,76.1053631 C48.730179,77.4841726 47.6051909,78.6005566 46.2177772,78.6005566 C44.8303636,78.6005566 43.7053755,77.4841726 43.7053755,76.1053631 C43.7053755,74.7265536 44.8303636,73.6101696 46.2177772,73.6101696 C47.6051909,73.6101696 48.730179,74.7265536 48.730179,76.1053631" id="Fill-21" fill="#9B8676"></path>
                    <path d="M64.9588315,69.6606655 C64.9588315,71.039475 63.8338434,72.155859 62.4464297,72.155859 C61.0590161,72.155859 59.934028,71.039475 59.934028,69.6606655 C59.934028,68.2818559 61.0590161,67.165472 62.4464297,67.165472 C63.8338434,67.165472 64.9588315,68.2818559 64.9588315,69.6606655" id="Fill-22" fill="#847264"></path>
                    <path d="M90.1921211,70.3874981 C90.1921211,71.7663076 89.067133,72.8826916 87.6797193,72.8826916 C86.2923057,72.8826916 85.1673176,71.7663076 85.1673176,70.3874981 C85.1673176,69.0108396 86.2923057,67.8944556 87.6797193,67.8944556 C89.067133,67.8944556 90.1921211,69.0108396 90.1921211,70.3874981" id="Fill-23" fill="#9B8676"></path>
                    <path d="M32.2124282,69.3203727 C32.2124282,70.6991822 31.0874401,71.8155662 29.7000265,71.8155662 C28.3126128,71.8155662 27.1876247,70.6991822 27.1876247,69.3203727 C27.1876247,67.9415632 28.3126128,66.8251792 29.7000265,66.8251792 C31.0874401,66.8251792 32.2124282,67.9415632 32.2124282,69.3203727" id="Fill-24" fill="#847264"></path>
                    <path d="M62.1829287,26.2744129 L62.1829287,30.9292394 C62.1829287,32.1854403 61.1568879,33.2028769 59.894234,33.2028769 C58.629429,33.2028769 57.6033882,32.1854403 57.6033882,30.9292394 L57.6033882,26.3023763 C58.4272323,26.0377997 59.1973006,25.6742759 59.9028381,25.2010495 C59.9200463,24.9665874 59.9308015,24.7364273 59.9308015,24.5019651 C59.9308015,24.7364273 59.9394056,24.9665874 59.9587648,25.2010495 C60.644943,25.6570676 61.387048,26.0205915 62.1829287,26.2744129" id="Fill-25" fill="#87AF9A"></path>
                    <path d="M43.2454855,15.5319596 C46.3214568,13.477727 50.7074047,13.3357591 54.4415909,15.5018452 C58.173626,17.6700823 60.1998952,21.5354812 59.9052042,25.2029854 C56.8292329,27.257218 52.443285,27.401337 48.7090989,25.2330998 C44.9770638,23.0648627 42.9507946,19.2016149 43.2454855,15.5319596" id="Fill-26" fill="#759684"></path>
                    <path d="M43.2454855,15.5319596 C46.3214568,13.477727 50.7074047,13.3357591 54.4415909,15.5018452 C58.173626,17.6700823 60.1998952,21.5354812 59.9052042,25.2029854 L43.2454855,15.5319596 Z" id="Fill-27" fill="#87AF9A"></path>
                    <path d="M76.6210648,15.5319596 C73.5450935,13.477727 69.1591456,13.3357591 65.4249594,15.5018452 C61.6929243,17.6700823 59.6666551,21.5354812 59.9613461,25.2029854 C63.0373174,27.257218 67.4232653,27.401337 71.1574514,25.2330998 C74.8894865,23.0648627 76.9157557,19.2016149 76.6210648,15.5319596" id="Fill-28" fill="#759684"></path>
                    <path d="M76.6210648,15.5319596 C73.5450935,13.477727 69.1591456,13.3357591 65.4249594,15.5018452 C61.6929243,17.6700823 59.6666551,21.5354812 59.9613461,25.2029854 L76.6210648,15.5319596 Z" id="Fill-29" fill="#87AF9A"></path>
                    <path d="M57.6036033,18.2080546 L57.6036033,26.3023763 C54.8567394,27.2015064 51.5871755,26.9025134 48.7090989,25.2290129 C44.9727617,23.0650778 42.9486435,19.1996789 43.2433345,15.5364767 C46.3193058,13.4800931 50.7074047,13.3338232 54.4437419,15.4977582 C55.6977917,16.2355611 56.7690041,17.1648056 57.6036033,18.2080546" id="Fill-30" fill="#759684"></path>
                    <path d="M57.6036033,18.2080546 L57.6036033,23.8652606 L43.2433345,15.5364767 C46.3193058,13.4800931 50.7074047,13.3338232 54.4437419,15.4977582 C55.6977917,16.2355611 56.7690041,17.1648056 57.6036033,18.2080546" id="Fill-31" fill="#87AF9A"></path>
                    <path d="M71.1583118,25.2283676 C68.2544228,26.9190763 64.9590466,27.2116162 62.1820683,26.2737676 L62.1820683,18.2891484 C63.0446309,17.2071809 64.1330515,16.2542751 65.4258198,15.4992639 C69.162157,13.3353289 73.5395008,13.4794478 76.6176231,15.5358314 C76.9187672,19.1990336 74.8860449,23.0644325 71.1583118,25.2283676" id="Fill-32" fill="#759684"></path>
                    <path d="M76.6184835,15.5362616 L62.1829287,23.9102171 L62.1829287,18.2895786 C63.0433403,17.2076111 64.1339119,16.2547053 65.4245292,15.4975431 C69.1630174,13.3357591 73.5403612,13.479878 76.6184835,15.5362616" id="Fill-33" fill="#87AF9A"></path>
                    <path d="M51.9399443,35.7462535 L68.5630955,35.7462535 C68.5630955,34.0383366 67.1692287,32.653074 65.4462546,32.653074 C65.1192982,32.653074 64.8095501,32.7176048 64.5148591,32.8100991 C63.5770105,31.4700081 62.0196656,30.5902373 60.2515199,30.5902373 C58.4833741,30.5902373 56.9281802,31.4700081 55.9903317,32.8100991 C55.6934897,32.7176048 55.3837415,32.653074 55.0567851,32.653074 C53.335962,32.653074 51.9399443,34.0383366 51.9399443,35.7462535" id="Fill-34" fill="#847264"></path>
                    <path d="M105.948838,7.64198565 L105.948838,9.46175608 C105.948838,12.3333796 103.599914,14.6650949 100.70678,14.6650949 L18.0986673,14.6650949 C15.1818721,14.6650949 12.8587609,12.3333796 12.8587609,9.46175608 L12.8587609,7.64198565 L17.8426949,7.64198565 L17.8426949,8.23136756 C17.8426949,9.58866679 19.9055315,10.6921446 22.4867662,10.6921446 L95.8024346,10.6921446 C98.3600079,10.6921446 100.450808,9.58866679 100.450808,8.23136756 L100.450808,7.64198565 L105.948838,7.64198565 Z" id="Fill-35" fill="#F3FCFF"></path>
                </g>
                <g id="build-1" transform="translate(12.000000, 20.651163)">
                    <rect id="Rectangle-path" fill="#4296B4" fill-rule="nonzero" x="0" y="0" width="103.005031" height="135.012244" rx="2.98"></rect>
                    <rect id="Rectangle-path" fill="#80C4D6" fill-rule="nonzero" x="5.52404209" y="15.6678666" width="91.4824345" height="112.978747"></rect>
                    <path d="M9.0873626,11.0749434 C7.81470713,11.078564 6.66551822,10.3142423 6.17682005,9.1391512 C5.68812188,7.96406007 5.95641358,6.61023497 6.85632054,5.71032801 C7.7562275,4.81042106 9.11005259,4.54212935 10.2851437,5.03082753 C11.4602348,5.5195257 12.2245566,6.6687146 12.2209359,7.94137008 C12.2160181,9.66995372 10.8159462,11.0700256 9.0873626,11.0749434 L9.0873626,11.0749434 Z" id="Shape" fill="#80C4D6" fill-rule="nonzero"></path>
                    <path d="M18.5149417,11.0749434 C17.2430948,11.0749382 16.0966533,10.3083139 15.6107792,9.13293275 C15.1249051,7.95755159 15.3954114,6.60519539 16.2960249,5.70714766 C17.1966385,4.80909993 18.549761,4.54245313 19.7237511,5.03167871 C20.8977413,5.52090428 21.6610916,6.66952834 21.6574681,7.94137008 C21.6525334,9.67344205 20.2470207,11.0749504 18.5149417,11.0749434 Z" id="Shape" fill="#80C4D6" fill-rule="nonzero"></path>
                    <path d="M18.0493823,31.8460579 L19.3386239,31.8460579 L19.4639668,32.795083 L19.5087321,32.795083 C20.1999882,32.1065083 21.121719,31.6982677 22.0961684,31.6490904 C24.1464206,31.6490904 25.2924131,33.206924 25.2924131,35.6063459 C25.2924131,38.2922659 23.6271428,39.796381 21.8007172,39.796381 C20.973139,39.7575762 20.1875937,39.4204595 19.5893097,38.847356 L19.5445444,38.847356 L19.6161689,40.2887997 L19.6161689,42.7956584 L18.0493823,42.7956584 L18.0493823,31.8460579 Z M23.6719081,35.624252 C23.6719081,34.003747 23.0720526,32.938332 21.6664212,32.938332 C20.8627261,33.0008133 20.1206599,33.3929095 19.6161689,34.0216531 L19.6161689,37.6924104 C20.1246382,38.1743583 20.7878229,38.4599402 21.4873598,38.4981864 C22.7318361,38.4981864 23.6719081,37.4775368 23.6719081,35.6332051 L23.6719081,35.624252 Z" id="Shape" fill="#FFFFFF" fill-rule="nonzero"></path>
                    <path d="M29.9301016,36.9045405 L29.9301016,29.6077912 L27.3874307,29.6077912 L27.3874307,28.3543619 L31.5058414,28.3543619 L31.5058414,36.9940712 C31.4551183,37.3984155 31.5907366,37.8039189 31.8745069,38.0963939 C32.1582772,38.3888688 32.5594993,38.5366733 32.9651912,38.4981864 C33.448336,38.4831556 33.9234374,38.3704713 34.3618696,38.1669229 L34.7468515,39.393493 C34.07269,39.6905394 33.3437684,39.8430335 32.6070686,39.8411464 C30.8701736,39.8053341 29.9301016,38.7757314 29.9301016,36.9045405 Z" id="Shape" fill="#FFFFFF" fill-rule="nonzero"></path>
                    <path d="M36.9224467,37.6028797 C36.9224467,35.8122664 38.4981864,35.0154435 42.4017234,34.7110392 C42.4251953,34.2057086 42.2225396,33.7161479 41.8487707,33.3752568 C41.4750018,33.0343657 40.968902,32.8775152 40.467861,32.9472851 C39.5245054,33.0104959 38.6140437,33.319127 37.8267064,33.8425918 L37.235804,32.7771768 C38.2823207,32.1100462 39.4873632,31.7330842 40.7275,31.6849027 C42.876236,31.6849027 43.9685101,32.9204259 43.9685101,34.9706781 L43.9685101,39.6441789 L42.6971746,39.6441789 L42.5718317,38.6414354 L42.5270664,38.6414354 C41.687709,39.3436973 40.6467036,39.7607265 39.5546482,39.8321933 C38.0505331,39.8053341 36.9224467,38.9368866 36.9224467,37.6028797 Z M42.4017234,37.5581144 L42.4017234,35.6779704 C39.3487277,35.9197032 38.444468,36.5195587 38.444468,37.4685837 C38.444468,38.2475005 39.1428072,38.5608579 39.9843954,38.5608579 C40.8900841,38.510606 41.7491212,38.1429 42.4106765,37.5223021 L42.4017234,37.5581144 Z" id="Shape" fill="#FFFFFF" fill-rule="nonzero"></path>
                    <path d="M46.6544301,31.8460579 L47.9436716,31.8460579 L48.0690146,33.0994872 L48.131686,33.0994872 C48.8442211,32.2215641 49.9024199,31.6957307 51.0324796,31.6580435 C52.8230929,31.6580435 53.6736343,32.7861299 53.6736343,34.8005699 L53.6736343,39.6173197 L52.0531292,39.6173197 L52.0531292,35.0154435 C52.0531292,33.6635304 51.6054759,33.0278627 50.4326242,33.0278627 C49.5495668,33.0941401 48.7405697,33.5461304 48.2212167,34.2633859 L48.2212167,39.6352258 L46.6544301,39.6352258 L46.6544301,31.8460579 Z" id="Shape" fill="#FFFFFF" fill-rule="nonzero"></path>
                    <path d="M58.1233084,38.3280781 C58.1478469,37.5432318 58.7996506,36.9244264 59.5847126,36.9406591 C60.3697746,36.9568918 60.9954421,37.6021114 60.9875171,38.3873012 C60.9795921,39.1724911 60.3410288,39.8049506 59.555799,39.8053341 C59.1664142,39.8106475 58.7920612,39.6552039 58.5209673,39.3756384 C58.2498734,39.0960728 58.1060193,38.7171152 58.1233084,38.3280781 L58.1233084,38.3280781 Z" id="Shape" fill="#FFFFFF" fill-rule="nonzero"></path>
                    <path d="M65.3573862,38.6056232 L66.0915376,37.6028797 C67.0551683,38.2878648 68.2131444,38.6456135 69.3952192,38.6235293 C70.5859771,38.6235293 71.1858325,38.1490168 71.1858325,37.5581144 C71.1858325,36.967212 70.8724752,36.6628077 68.9117536,36.2599197 C66.951032,35.8570317 65.8945702,35.1318333 65.8945702,33.9589816 C65.8945702,32.7861299 67.0495158,31.6849027 69.2161579,31.6849027 C70.3513408,31.7145765 71.4542761,32.0687586 72.3944965,32.7055523 L71.6245328,33.6635304 C70.8590993,33.1494238 69.9591394,32.8722735 69.0370966,32.8667075 C67.8642448,32.8667075 67.4344976,33.3143608 67.4344976,33.8515448 C67.4344976,34.3887288 68.0522592,34.7468515 69.5653275,35.0243965 C72.1079984,35.5794867 72.7436661,36.2330605 72.7436661,37.4417245 C72.7436661,38.6503885 71.4723307,39.8053341 69.1624395,39.8053341 C67.8033082,39.7908168 66.4790547,39.3732875 65.3573862,38.6056232 Z" id="Shape" fill="#FFFFFF" fill-rule="nonzero"></path>
                    <path d="M75.2594778,28.3543619 L76.8352176,28.3543619 L76.8352176,31.3357331 L76.7367338,33.1263464 L76.7814992,33.1263464 C77.4655921,32.2626398 78.4919111,31.7396747 79.5927621,31.6938558 C81.3833754,31.6938558 82.2339167,32.8219422 82.2339167,34.8363821 L82.2339167,39.653132 L80.658177,39.653132 L80.658177,35.0154435 C80.658177,33.6635304 80.2105237,33.0278627 79.037672,33.0278627 C78.1546146,33.0941401 77.3456175,33.5461304 76.8262645,34.2633859 L76.8262645,39.6352258 L75.2594778,39.6352258 L75.2594778,28.3543619 Z" id="Shape" fill="#FFFFFF" fill-rule="nonzero"></path>
                    <path d="M44.5683655,62.5998417 L27.020355,62.5998417 C26.5085845,62.5998417 26.0937126,62.1849697 26.0937126,61.6731993 C26.0937126,61.1614288 26.5085845,60.7465569 27.020355,60.7465569 L44.5683655,60.7465569 C45.080136,60.7465569 45.4950079,61.1614288 45.4950079,61.6731993 C45.4950079,62.1849697 45.080136,62.5998417 44.5683655,62.5998417 Z" id="Shape" fill="#FFFFFF" fill-rule="nonzero"></path>
                    <path d="M62.1342822,62.5998417 L50.7280754,62.5998417 C50.2163049,62.5998417 49.801433,62.1849697 49.801433,61.6731993 C49.801433,61.1614288 50.2163049,60.7465569 50.7280754,60.7465569 L62.1342822,60.7465569 C62.6460527,60.7465569 63.0609246,61.1614288 63.0609246,61.6731993 C63.0609246,62.1849697 62.6460527,62.5998417 62.1342822,62.5998417 Z" id="Shape" fill="#FFFFFF" fill-rule="nonzero"></path>
                    <path d="M81.598249,80.5775994 L70.1830891,80.5775994 C69.6713186,80.5775994 69.2564467,80.1627275 69.2564467,79.650957 C69.2564467,79.1391866 69.6713186,78.7243146 70.1830891,78.7243146 L81.598249,78.7243146 C82.1100195,78.7243146 82.5248914,79.1391866 82.5248914,79.650957 C82.5248914,80.1627275 82.1100195,80.5775994 81.598249,80.5775994 Z" id="Shape" fill="#FFFFFF" fill-rule="nonzero"></path>
                    <path d="M74.7939184,71.5439552 L41.1841064,71.5439552 C40.6723359,71.5439552 40.257464,71.1290833 40.257464,70.6173128 C40.257464,70.1055424 40.6723359,69.6906704 41.1841064,69.6906704 L74.7939184,69.6906704 C75.3056888,69.6906704 75.7205608,70.1055424 75.7205608,70.6173128 C75.7205608,71.1290833 75.3056888,71.5439552 74.7939184,71.5439552 Z" id="Shape" fill="#FFFFFF" fill-rule="nonzero"></path>
                    <path d="M63.9607078,80.5775994 L41.1841064,80.5775994 C40.6723359,80.5775994 40.257464,80.1627275 40.257464,79.650957 C40.257464,79.1391866 40.6723359,78.7243146 41.1841064,78.7243146 L63.9607078,78.7243146 C64.4724783,78.7243146 64.8873502,79.1391866 64.8873502,79.650957 C64.8873502,80.1627275 64.4724783,80.5775994 63.9607078,80.5775994 Z" id="Shape" fill="#FFFFFF" fill-rule="nonzero"></path>
                    <path d="M17.6644004,80.4074911 L16.6437508,80.4074911 C16.1319803,80.4074911 15.7171084,79.9926192 15.7171084,79.4808487 C15.7171084,78.9690783 16.1319803,78.5542064 16.6437508,78.5542064 L17.6644004,78.5542064 C18.1761709,78.5542064 18.5910428,78.9690783 18.5910428,79.4808487 C18.5910428,79.9926192 18.1761709,80.4074911 17.6644004,80.4074911 Z" id="Shape" fill="#FFFFFF" fill-rule="nonzero"></path>
                    <path d="M17.6644004,71.3917531 L16.6437508,71.3917531 C16.1319803,71.3917531 15.7171084,70.9768811 15.7171084,70.4651107 C15.7171084,69.9533402 16.1319803,69.5384683 16.6437508,69.5384683 L17.6644004,69.5384683 C18.1761709,69.5384683 18.5910428,69.9533402 18.5910428,70.4651107 C18.5910428,70.9768811 18.1761709,71.3917531 17.6644004,71.3917531 Z" id="Shape" fill="#FFFFFF" fill-rule="nonzero"></path>
                    <path d="M17.6644004,62.4476395 L16.6437508,62.4476395 C16.1319803,62.4476395 15.7171084,62.0327676 15.7171084,61.5209971 C15.7171084,61.0092267 16.1319803,60.5943548 16.6437508,60.5943548 L17.6644004,60.5943548 C18.1761709,60.5943548 18.5910428,61.0092267 18.5910428,61.5209971 C18.5910428,62.0327676 18.1761709,62.4476395 17.6644004,62.4476395 Z" id="Shape" fill="#FFFFFF" fill-rule="nonzero"></path>
                    <path d="M44.5683655,89.3426516 L27.020355,89.3426516 C26.5085845,89.3426516 26.0937126,88.9277797 26.0937126,88.4160092 C26.0937126,87.9042388 26.5085845,87.4893668 27.020355,87.4893668 L44.5683655,87.4893668 C45.080136,87.4893668 45.4950079,87.9042388 45.4950079,88.4160092 C45.4950079,88.9277797 45.080136,89.3426516 44.5683655,89.3426516 Z" id="Shape" fill="#FFFFFF" fill-rule="nonzero"></path>
                    <path d="M62.1342822,89.3426516 L50.7280754,89.3426516 C50.2163049,89.3426516 49.801433,88.9277797 49.801433,88.4160092 C49.801433,87.9042388 50.2163049,87.4893668 50.7280754,87.4893668 L62.1342822,87.4893668 C62.6460527,87.4893668 63.0609246,87.9042388 63.0609246,88.4160092 C63.0609246,88.9277797 62.6460527,89.3426516 62.1342822,89.3426516 Z" id="Shape" fill="#FFFFFF" fill-rule="nonzero"></path>
                    <path d="M74.7939184,98.2867651 L41.1841064,98.2867651 C40.6723359,98.2867651 40.257464,97.8718932 40.257464,97.3601228 C40.257464,96.8483523 40.6723359,96.4334804 41.1841064,96.4334804 L74.7939184,96.4334804 C75.3056888,96.4334804 75.7205608,96.8483523 75.7205608,97.3601228 C75.7205608,97.8718932 75.3056888,98.2867651 74.7939184,98.2867651 Z" id="Shape" fill="#FFFFFF" fill-rule="nonzero"></path>
                    <path d="M17.6644004,98.134563 L16.6437508,98.134563 C16.1319803,98.134563 15.7171084,97.7196911 15.7171084,97.2079206 C15.7171084,96.6961502 16.1319803,96.2812782 16.6437508,96.2812782 L17.6644004,96.2812782 C18.1761709,96.2812782 18.5910428,96.6961502 18.5910428,97.2079206 C18.5910428,97.7196911 18.1761709,98.134563 17.6644004,98.134563 Z" id="Shape" fill="#FFFFFF" fill-rule="nonzero"></path>
                    <path d="M17.6644004,89.1904495 L16.6437508,89.1904495 C16.1319803,89.1904495 15.7171084,88.7755775 15.7171084,88.2638071 C15.7171084,87.7520366 16.1319803,87.3371647 16.6437508,87.3371647 L17.6644004,87.3371647 C18.1761709,87.3371647 18.5910428,87.7520366 18.5910428,88.2638071 C18.5910428,88.7755775 18.1761709,89.1904495 17.6644004,89.1904495 Z" id="Shape" fill="#FFFFFF" fill-rule="nonzero"></path>
                    <path d="M178.935989,50.6027324 L178.935989,122.227265 C178.938367,125.003785 177.836452,127.66727 175.873155,129.630566 C173.909858,131.593863 171.246374,132.695778 168.469854,132.6934 L95.0547081,132.6934 C92.2781882,132.695778 89.6147038,131.593863 87.651407,129.630566 C85.6881103,127.66727 84.5861951,125.003785 84.5885732,122.227265 L84.5885732,50.6027324 L89.6381028,50.6027324 L89.6381028,51.2025879 C89.6381028,52.5903132 91.7331204,53.7094465 94.3474158,53.7094465 L168.657869,53.7094465 C171.245305,53.7094465 173.367182,52.5813601 173.367182,51.2025879 L173.367182,50.6027324 L178.935989,50.6027324 Z" id="Shape" fill="#E2F0F7" fill-rule="nonzero"></path>
                    <path d="M173.367182,50.6027324 L173.367182,51.2025879 C173.367182,52.5903132 171.245305,53.7094465 168.657869,53.7094465 L94.3474158,53.7094465 C91.7331204,53.7094465 89.6381028,52.5813601 89.6381028,51.2025879 L89.6381028,50.6027324 L173.367182,50.6027324 Z" id="Shape" fill="#E2F0F7" fill-rule="nonzero"></path>
                    <path d="M173.367182,49.5820828 L173.367182,51.2025879 C173.367182,52.5903132 171.245305,53.7094465 168.657869,53.7094465 L94.3474158,53.7094465 C91.7331204,53.7094465 89.6381028,52.5813601 89.6381028,51.2025879 L89.6381028,49.5820828 C89.6381028,48.1943575 91.7331204,47.0752242 94.3474158,47.0752242 L168.657869,47.0752242 C171.254258,47.0752242 173.367182,48.1943575 173.367182,49.5820828 Z" id="Shape" fill="#F3FCFF" fill-rule="nonzero"></path>
                    <path d="M173.367182,49.5820828 L173.367182,51.2025879 C173.367182,52.5903132 171.245305,53.7094465 168.657869,53.7094465 L94.3474158,53.7094465 C91.7331204,53.7094465 89.6381028,52.5813601 89.6381028,51.2025879 L89.6381028,49.5820828 C89.6381028,48.1943575 91.7331204,47.0752242 94.3474158,47.0752242 L168.657869,47.0752242 C171.254258,47.0752242 173.367182,48.1943575 173.367182,49.5820828 Z" id="Shape" fill="#E2F0F7" fill-rule="nonzero"></path>
                    <path d="M173.626821,43.7446834 L89.9246009,43.7446834 C88.5157931,43.7423017 87.164001,44.300894 86.167822,45.297073 C85.171643,46.293252 84.6130507,47.6450441 84.6154324,49.0538519 L84.6154324,52.4560172 C84.6130507,53.8648251 85.171643,55.2166171 86.167822,56.2127961 C87.164001,57.2089751 88.5157931,57.7675675 89.9246009,57.7651857 L173.626821,57.7651857 C176.556949,57.760257 178.93106,55.386146 178.935989,52.4560172 L178.935989,49.062805 C178.935993,46.1291804 176.560441,43.7496222 173.626821,43.7446834 Z M173.367182,51.2025879 C173.367182,52.5903132 171.245305,53.7094465 168.657869,53.7094465 L94.3474158,53.7094465 C91.7331204,53.7094465 89.6381028,52.5813601 89.6381028,51.2025879 L89.6381028,49.5820828 C89.6381028,48.1943575 91.7331204,47.0752242 94.3474158,47.0752242 L168.657869,47.0752242 C171.245305,47.0752242 173.367182,48.2033106 173.367182,49.5820828 L173.367182,51.2025879 Z" id="Shape" fill="#F3FCFF" fill-rule="nonzero"></path>
                    <g id="Group" opacity="0.5" transform="translate(84.158826, 50.137173)" fill-rule="nonzero" fill="#F3FCFF">
                        <path d="M94.777163,0.465559463 L94.777163,2.31884425 C94.7722343,5.24897306 92.3981234,7.62308401 89.4679945,7.62801274 L5.76577489,7.62801274 C4.35696705,7.6303945 3.00517498,7.07180216 2.00899598,6.07562316 C1.01281698,5.07944416 0.454224637,3.72765209 0.456606397,2.31884425 L0.456606397,0.465559463 L5.50613596,0.465559463 L5.50613596,1.06541493 C5.50613596,2.45314025 7.60115354,3.57227357 10.215449,3.57227357 L84.5259018,3.57227357 C87.113338,3.57227357 89.2352148,2.44418718 89.2352148,1.06541493 L89.2352148,0.465559463 L94.777163,0.465559463 Z" id="Shape"></path>
                    </g>
                    <rect id="Rectangle-path" fill="#F3FCFF" fill-rule="nonzero" opacity="0.34" x="89.664962" y="57.7651857" width="83.9529055" height="64.0591915"></rect>
                    <path d="M173.367182,122.585388 L173.367182,124.698312 C173.367182,126.488925 171.245305,127.975134 168.657869,127.975134 L94.3474158,127.975134 C91.7331204,127.975134 89.6381028,126.506831 89.6381028,124.698312 L89.6381028,122.585388 C89.6381028,120.794775 91.7331204,119.308566 94.3474158,119.308566 L168.657869,119.308566 C171.254258,119.308566 173.367182,120.776868 173.367182,122.585388 Z" id="Shape" fill="#F3FCFF" fill-rule="nonzero"></path>
                    <path d="M115.23492,144.493542 C113.954258,144.493542 112.916076,143.45536 112.916076,142.174698 L112.916076,114.420191 C112.916076,113.139529 113.954258,112.101347 115.23492,112.101347 C116.515583,112.101347 117.553764,113.139529 117.553764,114.420191 L117.553764,142.174698 C117.553764,143.45536 116.515583,144.493542 115.23492,144.493542 Z" id="Shape" fill="#87AF9A" fill-rule="nonzero"></path>
                    <path d="M91.5182468,100.507126 C95.8962964,97.5615668 102.145537,97.3556462 107.463658,100.507126 C112.78178,103.658605 115.664667,109.155788 115.243873,114.420191 C110.865824,117.36575 104.616583,117.571671 99.2984617,114.420191 C93.9803401,111.268712 91.0974527,105.771529 91.5182468,100.507126 Z" id="Shape" fill="#759684"></path>
                    <path d="M91.5182468,100.507126 C95.8962964,97.5615668 102.145537,97.3556462 107.463658,100.507126 C112.78178,103.658605 115.664667,109.155788 115.243873,114.420191 L91.5182468,100.507126 Z" id="Shape" fill="#87AF9A"></path>
                    <path d="M139.041124,100.507126 C134.663075,97.5615668 128.413834,97.3556462 123.095713,100.507126 C117.777591,103.658605 114.894704,109.155788 115.315498,114.420191 C119.693547,117.36575 125.942788,117.571671 131.260909,114.420191 C136.579031,111.268712 139.461918,105.771529 139.041124,100.507126 Z" id="Shape" fill="#759684"></path>
                    <path d="M139.041124,100.507126 C134.663075,97.5615668 128.413834,97.3556462 123.095713,100.507126 C117.777591,103.658605 114.894704,109.155788 115.315498,114.420191 L139.041124,100.507126 Z" id="Shape" fill="#87AF9A"></path>
                    <path d="M110.301781,144.493542 L110.301781,144.493542 C110.301781,138.065507 115.512732,132.854555 121.940767,132.854555 C122.426185,132.855495 122.910905,132.8914 123.391164,132.961992 C124.217402,133.096456 125.060092,132.849575 125.683149,132.290512 C130.097458,128.201136 136.382379,126.827535 142.100219,128.702481 C147.81806,130.577427 152.069238,135.405935 153.204876,141.315203 C153.352871,142.108124 153.136679,142.925576 152.616042,143.541663 C152.095406,144.157749 151.325453,144.507235 150.518956,144.493542 L110.301781,144.493542 Z" id="Shape" fill="#847264" fill-rule="nonzero"></path>
                    <path d="M108.045608,144.493542 L56.735583,144.493542 C55.9910948,144.495198 55.2793161,144.187773 54.7701287,143.64464 C54.2609413,143.101506 54.0000286,142.371394 54.0496631,141.628561 C55.5138508,127.092256 67.7494004,116.027235 82.3592597,116.027235 C96.9691189,116.027235 109.204669,127.092256 110.668856,141.628561 C110.717933,142.360626 110.465395,143.080903 109.969916,143.62204 C109.474437,144.163177 108.779153,144.478065 108.045608,144.493542 Z" id="Shape" fill="#847264"></path>
                    <path d="M122.916651,138.987406 C122.502053,138.986981 122.088353,139.025952 121.681128,139.103796 C120.783035,139.297753 119.854629,138.947412 119.308566,138.208489 C116.524162,134.26914 112.378892,131.753328 107.73225,131.753328 C103.085609,131.753328 98.940339,134.26914 96.1559353,138.208489 C95.609872,138.947412 94.6814662,139.297753 93.7833726,139.103796 C93.3761478,139.025952 92.9624474,138.986981 92.5478495,138.987406 C88.3399082,138.987406 84.8034468,142.407477 83.7559381,147.045166 C83.5950996,147.732622 83.7562172,148.455906 84.1936424,149.010094 C84.6310676,149.564282 85.2971445,149.888998 86.0031578,149.892241 L129.461343,149.892241 C130.167356,149.888998 130.833433,149.564282 131.270858,149.010094 C131.708284,148.455906 131.869401,147.732622 131.708563,147.045166 C130.670007,142.407477 127.133546,138.987406 122.916651,138.987406 Z" id="Shape" fill="#9B8676" fill-rule="nonzero"></path>
                    <circle id="Oval" fill="#BFA797" fill-rule="nonzero" cx="94.2668382" cy="129.989574" r="1.15494559"></circle>
                    <circle id="Oval" fill="#BFA797" fill-rule="nonzero" cx="86.701497" cy="123.167337" r="1.15494559"></circle>
                    <circle id="Oval" fill="#BFA797" fill-rule="nonzero" cx="75.957817" cy="123.167337" r="1.15494559"></circle>
                    <circle id="Oval" fill="#BFA797" fill-rule="nonzero" cx="80.8372383" cy="130.831162" r="1.15494559"></circle>
                    <circle id="Oval" fill="#BFA797" fill-rule="nonzero" cx="70.7650384" cy="129.407625" r="1.15494559"></circle>
                    <path d="M146.892964,144.493542 C146.880568,143.43981 147.361029,142.440755 148.191906,141.792566 C149.022782,141.144377 150.108717,140.921445 151.127764,141.18986 C152.485086,139.711344 154.61148,139.218932 156.48055,139.950307 C158.34962,140.681683 159.577105,142.486482 159.570506,144.493542 L146.892964,144.493542 Z" id="Shape" fill="#759684" fill-rule="nonzero"></path>
                    <path d="M153.849496,139.667839 C152.817396,139.860775 151.875279,140.38208 151.163576,141.154048 C150.144529,140.885632 149.058595,141.108565 148.227718,141.756754 C147.396842,142.404943 146.91638,143.403998 146.928776,144.45773 L157.851517,144.45773 C157.850296,142.103776 156.165727,140.087569 153.849496,139.667839 Z" id="Shape" fill="#87B09A" fill-rule="nonzero"></path>
                </g>
            </g>
        </g>
    </g>
</svg>