<?xml version="1.0" encoding="UTF-8" standalone="no"?>
<svg width="41px" height="38px" viewBox="0 0 41 38" version="1.1" xmlns="http://www.w3.org/2000/svg" xmlns:xlink="http://www.w3.org/1999/xlink">
    <!-- Generator: Sketch 42 (36781) - http://www.bohemiancoding.com/sketch -->
    <title>Group 6</title>
    <desc>Created with Sketch.</desc>
    <defs></defs>
    <g id="Habitat-Web-Home-V3" stroke="none" stroke-width="1" fill="none" fill-rule="evenodd">
        <g id="Habitat-Web-Home-V4-(desktop)-" transform="translate(-450.000000, -664.000000)" fill="#FFFFFF">
            <g id="promote-widget" transform="translate(434.000000, 647.000000)">
                <g id="Group-2">
                    <g id="Group-6" transform="translate(16.000000, 17.000000)">
                        <path d="M19.5,0.125 C21.3333425,0.125 22.7874946,0.487496375 23.8625,1.2125 C24.9375054,1.93750363 25.475,3.00832625 25.475,4.425 C25.475,5.4583385 25.2666687,6.24583063 24.85,6.7875 C24.4333312,7.32916938 23.725005,7.82499775 22.725,8.275 C23.725005,8.72500225 24.4749975,9.25416363 24.975,9.8625 C25.4750025,10.4708364 25.725,11.3249945 25.725,12.425 C25.725,15.5750158 23.6625206,17.15 19.5375,17.15 C15.4124794,17.15 13.35,15.6666815 13.35,12.7 C13.35,11.5166608 13.5791644,10.6166698 14.0375,10 C14.4958356,9.38333025 15.2166617,8.808336 16.2,8.275 C15.2999955,7.82499775 14.6458354,7.31250288 14.2375,6.7375 C13.8291646,6.16249713 13.625,5.38333825 13.625,4.4 C13.625,2.999993 14.1458281,1.93750363 15.1875,1.2125 C16.2291719,0.487496375 17.6666575,0.125 19.5,0.125 Z M15.4,12.375 C15.4,14.3916768 16.7791529,15.4 19.5375,15.4 C22.2958471,15.4 23.675,14.3416773 23.675,12.225 C23.675,11.3416623 23.4291691,10.6875021 22.9375,10.2625 C22.4458309,9.83749788 21.7166715,9.48333475 20.75,9.2 L18.125,9.2 C17.2083287,9.45000125 16.5250022,9.82083088 16.075,10.3125 C15.6249977,10.8041691 15.4,11.4916623 15.4,12.375 Z M23.425,4.65 C23.425,2.79999075 22.1333462,1.875 19.55,1.875 C16.9666537,1.875 15.675,2.7916575 15.675,4.625 C15.675,5.358337 15.874998,5.94999775 16.275,6.4 C16.675002,6.85000225 17.2916625,7.2249985 18.125,7.525 L20.75,7.525 C21.6500045,7.24166525 22.3208311,6.87500225 22.7625,6.425 C23.2041689,5.97499775 23.425,5.383337 23.425,4.65 Z" id="8"></path>
                        <path d="M0.371988131,37.4 L0.371988131,26.328 L2.59598813,26.328 L5.73198813,35.688 L8.86798813,26.328 L11.0919881,26.328 L11.0919881,37.4 L9.85998813,37.4 L9.85998813,27.64 L9.63598813,27.64 L6.41998813,37 L5.04398813,37 L1.82798813,27.64 L1.60398813,27.64 L1.60398813,37.4 L0.371988131,37.4 Z M19.2519881,31.816 L19.2519881,35.912 C19.2839883,36.3066686 19.5933185,36.541333 20.1799881,36.616 L20.1319881,37.56 C19.2893173,37.56 18.6546569,37.3466688 18.2279881,36.92 C17.2679833,37.3466688 16.3079929,37.56 15.3479881,37.56 C14.6119845,37.56 14.0519901,37.3520021 13.6679881,36.936 C13.2839862,36.5199979 13.0919881,35.9226706 13.0919881,35.144 C13.0919881,34.3653294 13.2893195,33.7920018 13.6839881,33.424 C14.0786568,33.0559982 14.6973173,32.8293338 15.5399881,32.744 L18.0519881,32.504 L18.0519881,31.816 C18.0519881,31.2719973 17.934656,30.8826678 17.6999881,30.648 C17.4653203,30.4133322 17.1453235,30.296 16.7399881,30.296 C15.8866505,30.296 15.0013261,30.3493328 14.0839881,30.456 L13.5879881,30.504 L13.5399881,29.592 C14.7133273,29.3573322 15.7533169,29.24 16.6599881,29.24 C17.5666593,29.24 18.2253194,29.4479979 18.6359881,29.864 C19.0466569,30.2800021 19.2519881,30.9306622 19.2519881,31.816 Z M14.3239881,35.08 C14.3239881,36.0613382 14.7293174,36.552 15.5399881,36.552 C16.2653251,36.552 16.9799846,36.4293346 17.6839881,36.184 L18.0519881,36.056 L18.0519881,33.416 L15.6839881,33.64 C15.2039857,33.6826669 14.8573225,33.8213322 14.6439881,34.056 C14.4306537,34.2906678 14.3239881,34.6319978 14.3239881,35.08 Z M21.6199881,37.4 L21.6199881,29.4 L22.8039881,29.4 L22.8039881,30.488 C23.7319928,29.8479968 24.707983,29.4266677 25.7319881,29.224 L25.7319881,30.44 C25.2839859,30.5253338 24.8173239,30.6586658 24.3319881,30.84 C23.8466524,31.0213342 23.4759894,31.1813326 23.2199881,31.32 L22.8199881,31.528 L22.8199881,37.4 L21.6199881,37.4 Z M30.1479881,29.24 C30.4999899,29.24 31.0973173,29.3039994 31.9399881,29.432 L32.3239881,29.48 L32.2759881,30.456 C31.4226505,30.3599995 30.7933235,30.312 30.3879881,30.312 C29.4813169,30.312 28.8653231,30.5279978 28.5399881,30.96 C28.2146532,31.3920022 28.0519881,32.1919942 28.0519881,33.36 C28.0519881,34.5280058 28.2039866,35.341331 28.5079881,35.8 C28.8119897,36.258669 29.4439833,36.488 30.4039881,36.488 L32.2919881,36.344 L32.3399881,37.336 C31.3479832,37.4853341 30.6066573,37.56 30.1159881,37.56 C28.8679819,37.56 28.0066572,37.2400032 27.5319881,36.6 C27.0573191,35.9599968 26.8199881,34.8800076 26.8199881,33.36 C26.8199881,31.8399924 27.0759856,30.7733364 27.5879881,30.16 C28.0999907,29.5466636 28.9533155,29.24 30.1479881,29.24 Z M35.3319881,37.4 L34.1319881,37.4 L34.1319881,25.912 L35.3319881,25.912 L35.3319881,29.848 C36.1853257,29.4426646 37.0066509,29.24 37.7959881,29.24 C38.8626601,29.24 39.5799863,29.5279971 39.9479881,30.104 C40.31599,30.6800029 40.4999881,31.7039926 40.4999881,33.176 L40.4999881,37.4 L39.2999881,37.4 L39.2999881,33.208 C39.2999881,32.0986611 39.1906559,31.3386687 38.9719881,30.928 C38.7533204,30.5173313 38.2919917,30.312 37.5879881,30.312 C36.9159848,30.312 36.2653246,30.4346654 35.6359881,30.68 L35.3319881,30.792 L35.3319881,37.4 Z" id="March"></path>
                    </g>
                </g>
            </g>
        </g>
    </g>
</svg>