<svg id="Layer_1" data-name="Layer 1" xmlns="http://www.w3.org/2000/svg" viewBox="0 0 186 128"><defs><style>.cls-1{fill:#e2f0f7;}.cls-2{fill:#f3fcff;}.cls-3{fill:#847264;}.cls-4{fill:#685a50;}.cls-5{fill:#9b8676;}.cls-6,.cls-8{fill:#87af9a;}.cls-7{fill:#759684;}.cls-7,.cls-8{fill-rule:evenodd;}.cls-9{fill:#ff9012;}.cls-10{fill:#ffc183;}.cls-11{opacity:0.5;}.cls-12{fill:#80c4d6;}.cls-13{fill:none;stroke:#80c4d6;stroke-linecap:round;stroke-linejoin:round;stroke-width:2px;}.cls-14{fill:#4296b4;}.cls-15{fill:#fff;}.cls-16{fill:#ffe85f;}</style></defs><title>run icon 3</title><path class="cls-1" d="M152.87,92.2v25.43a3.71,3.71,0,0,1-3.72,3.71H123.09a3.71,3.71,0,0,1-3.72-3.71V92.2h1.79v.21c0,.49.74.89,1.67.89h26.38c.92,0,1.67-.4,1.67-.89V92.2Z"/><path class="cls-1" d="M150.9,92.2v.21c0,.49-.75.89-1.67.89H122.84c-.93,0-1.67-.4-1.67-.89V92.2Z"/><path class="cls-2" d="M150.9,91.84v.58c0,.49-.75.89-1.67.89H122.84c-.93,0-1.67-.4-1.67-.89v-.58c0-.49.74-.89,1.67-.89h26.38C150.14,90.95,150.9,91.35,150.9,91.84Z"/><path class="cls-1" d="M150.9,91.84v.58c0,.49-.75.89-1.67.89H122.84c-.93,0-1.67-.4-1.67-.89v-.58c0-.49.74-.89,1.67-.89h26.38C150.14,90.95,150.9,91.35,150.9,91.84Z"/><path class="cls-2" d="M151,89.77H121.26a1.88,1.88,0,0,0-1.89,1.88v1.21a1.88,1.88,0,0,0,1.89,1.88H151a1.89,1.89,0,0,0,1.89-1.88V91.65A1.89,1.89,0,0,0,151,89.77Zm-.09,2.65c0,.49-.75.89-1.67.89H122.84c-.93,0-1.67-.4-1.67-.89v-.58c0-.49.74-.89,1.67-.89h26.38c.92,0,1.67.4,1.67.89Z"/><rect class="cls-3" x="121.65" y="102.36" width="28.95" height="9.69"/><path class="cls-4" d="M121.65,112H150.6a0,0,0,0,1,0,0v5.21a2,2,0,0,1-2,2H123.65a2,2,0,0,1-2-2V112A0,0,0,0,1,121.65,112Z"/><rect class="cls-5" x="121.65" y="99.8" width="28.95" height="5.11" rx="2" ry="2"/><path class="cls-6" d="M136.13,102.37a.93.93,0,0,1-.93-.93V89.17a.93.93,0,0,1,1.86,0v12.28A.93.93,0,0,1,136.13,102.37Z"/><path class="cls-7" d="M129.6,95.93a4.32,4.32,0,0,1,6.52,3.81,4.32,4.32,0,0,1-6.52-3.81Z"/><path class="cls-8" d="M129.6,95.93a4.32,4.32,0,0,1,6.52,3.81Z"/><path class="cls-7" d="M142.65,95.93a4.32,4.32,0,0,0-6.52,3.81,4.32,4.32,0,0,0,6.52-3.81Z"/><path class="cls-8" d="M142.65,95.93a4.32,4.32,0,0,0-6.52,3.81Z"/><path class="cls-3" d="M133.44,102.38h6a1.12,1.12,0,0,0-1.12-1.12,1.11,1.11,0,0,0-.34.06,1.86,1.86,0,0,0-3.07,0,1.11,1.11,0,0,0-.34-.06A1.12,1.12,0,0,0,133.44,102.38Z"/><path class="cls-9" d="M136.06,92A2.83,2.83,0,0,1,133.28,90a2.75,2.75,0,0,1-2.92-.71,2.66,2.66,0,0,1-.69-2.88,2.87,2.87,0,0,1,0-5.53,2.86,2.86,0,0,1,3.61-3.61,2.87,2.87,0,0,1,5.53,0,2.79,2.79,0,0,1,.61-.15,2.64,2.64,0,0,1,2.27.85,2.76,2.76,0,0,1,.72,2.92,2.89,2.89,0,0,1,0,5.54,2.9,2.9,0,0,1-2.94,3.72,2.83,2.83,0,0,1-.65-.14A2.83,2.83,0,0,1,136.06,92"/><path class="cls-10" d="M136.06,86.66a3.07,3.07,0,1,1,3.07-3.07,3.08,3.08,0,0,1-3.07,3.07"/><g class="cls-11"><path class="cls-2" d="M152.87,92.2v.66A1.89,1.89,0,0,1,151,94.74H121.26a1.88,1.88,0,0,1-1.89-1.88V92.2h1.79v.21c0,.49.74.89,1.67.89h26.38c.92,0,1.67-.4,1.67-.89V92.2Z"/></g><path class="cls-1" d="M66.63,91.66v25.43a3.71,3.71,0,0,1-3.72,3.71H36.85a3.71,3.71,0,0,1-3.72-3.71V91.66h1.79v.21c0,.49.74.89,1.67.89H63c.92,0,1.67-.4,1.67-.89v-.21Z"/><path class="cls-1" d="M64.65,91.66v.21c0,.49-.75.89-1.67.89H36.6c-.93,0-1.67-.4-1.67-.89v-.21Z"/><path class="cls-2" d="M64.65,91.3v.58c0,.49-.75.89-1.67.89H36.6c-.93,0-1.67-.4-1.67-.89V91.3c0-.49.74-.89,1.67-.89H63C63.9,90.41,64.65,90.81,64.65,91.3Z"/><path class="cls-1" d="M64.65,91.3v.58c0,.49-.75.89-1.67.89H36.6c-.93,0-1.67-.4-1.67-.89V91.3c0-.49.74-.89,1.67-.89H63C63.9,90.41,64.65,90.81,64.65,91.3Z"/><path class="cls-2" d="M64.74,89.23H35a1.88,1.88,0,0,0-1.89,1.88v1.21A1.88,1.88,0,0,0,35,94.2H64.74a1.89,1.89,0,0,0,1.89-1.88V91.11A1.89,1.89,0,0,0,64.74,89.23Zm-.09,2.65c0,.49-.75.89-1.67.89H36.6c-.93,0-1.67-.4-1.67-.89V91.3c0-.49.74-.89,1.67-.89H63c.92,0,1.67.4,1.67.89Z"/><rect class="cls-3" x="35.41" y="101.82" width="28.95" height="9.69"/><path class="cls-4" d="M35.41,111.51H64.35a0,0,0,0,1,0,0v5.21a2,2,0,0,1-2,2H37.41a2,2,0,0,1-2-2v-5.21A0,0,0,0,1,35.41,111.51Z"/><rect class="cls-5" x="35.41" y="99.26" width="28.95" height="5.11" rx="2" ry="2"/><path class="cls-6" d="M49.88,101.84a.93.93,0,0,1-.93-.93V88.63a.93.93,0,0,1,1.86,0v12.28A.93.93,0,0,1,49.88,101.84Z"/><path class="cls-7" d="M43.35,95.4a4.32,4.32,0,0,1,6.52,3.81,4.32,4.32,0,0,1-6.52-3.81Z"/><path class="cls-8" d="M43.35,95.4a4.32,4.32,0,0,1,6.52,3.81Z"/><path class="cls-7" d="M56.41,95.4a4.32,4.32,0,0,0-6.52,3.81,4.32,4.32,0,0,0,6.52-3.81Z"/><path class="cls-8" d="M56.41,95.4a4.32,4.32,0,0,0-6.52,3.81Z"/><path class="cls-3" d="M47.19,101.84h6a1.12,1.12,0,0,0-1.12-1.12,1.11,1.11,0,0,0-.34.06,1.86,1.86,0,0,0-3.07,0,1.11,1.11,0,0,0-.34-.06A1.12,1.12,0,0,0,47.19,101.84Z"/><path class="cls-9" d="M49.81,91.5A2.83,2.83,0,0,1,47,89.42a2.75,2.75,0,0,1-2.92-.71,2.66,2.66,0,0,1-.69-2.88,2.87,2.87,0,0,1,0-5.53A2.86,2.86,0,0,1,47,76.7a2.87,2.87,0,0,1,5.53,0,2.79,2.79,0,0,1,.61-.15,2.64,2.64,0,0,1,2.27.85,2.76,2.76,0,0,1,.72,2.92,2.89,2.89,0,0,1,0,5.54,2.9,2.9,0,0,1-2.94,3.72,2.83,2.83,0,0,1-.65-.14,2.83,2.83,0,0,1-2.77,2.07"/><path class="cls-10" d="M49.81,86.12A3.07,3.07,0,1,1,52.89,83a3.08,3.08,0,0,1-3.07,3.07"/><g class="cls-11"><path class="cls-2" d="M66.63,91.66v.66a1.89,1.89,0,0,1-1.89,1.88H35a1.88,1.88,0,0,1-1.89-1.88v-.66h1.79v.21c0,.49.74.89,1.67.89H63c.92,0,1.67-.4,1.67-.89v-.21Z"/></g><path class="cls-12" d="M90.53,50.68l-1.85-2.54a.54.54,0,0,0-.87,0L86,50.68a.54.54,0,0,0,.44.86h3.7A.54.54,0,0,0,90.53,50.68Z"/><line class="cls-13" x1="88.24" y1="49.73" x2="88.24" y2="56.21"/><path class="cls-12" d="M95.21,54l1.85,2.54a.54.54,0,0,0,.87,0L99.79,54a.54.54,0,0,0-.44-.86h-3.7A.54.54,0,0,0,95.21,54Z"/><line class="cls-13" x1="97.5" y1="54.94" x2="97.5" y2="48.46"/><path class="cls-12" d="M63.26,73.44l-1.09,2.95a.54.54,0,0,0,.48.73l3.14.13a.54.54,0,0,0,.47-.84l-2.05-3.08A.54.54,0,0,0,63.26,73.44Z"/><line class="cls-13" x1="63.73" y1="75.87" x2="73.11" y2="69.63"/><path class="cls-12" d="M121.44,73.33l-2.05,3.08a.54.54,0,0,0,.47.84l3.14-.13a.54.54,0,0,0,.48-.73l-1.09-2.95A.54.54,0,0,0,121.44,73.33Z"/><line class="cls-13" x1="121.92" y1="75.87" x2="112.54" y2="69.63"/><path class="cls-12" d="M31,120.72H155a3,3,0,0,1,3,3V128a0,0,0,0,1,0,0H28a0,0,0,0,1,0,0v-4.28A3,3,0,0,1,31,120.72Z"/><path class="cls-12" d="M74.33,100h37.33a3,3,0,0,1,3,3v18.07a0,0,0,0,1,0,0H71.33a0,0,0,0,1,0,0V103A3,3,0,0,1,74.33,100Z"/><path class="cls-14" d="M114.66,101.65v1.65H71.33v-1.65A1.62,1.62,0,0,1,72.95,100H113A1.62,1.62,0,0,1,114.66,101.65Z"/><path class="cls-14" d="M71.34,120.72V124H28v-1.65a1.62,1.62,0,0,1,1.62-1.62Z"/><path class="cls-14" d="M158,122.34V124H114.67v-3.27h41.71A1.62,1.62,0,0,1,158,122.34Z"/><rect class="cls-12" x="71.33" y="103.31" width="43.33" height="17.8"/><path class="cls-15" d="M80,115.32v-3.8H78.71v-.65h2.14v4.5a.7.7,0,0,0,.76.79,1.85,1.85,0,0,0,.73-.17l.2.61a2.76,2.76,0,0,1-1.12.23C80.52,116.83,80,116.3,80,115.32Z"/><path class="cls-15" d="M83.59,114.71a2,2,0,0,1,2.07-2.12,1.76,1.76,0,0,1,1.86,1.91,3.07,3.07,0,0,1,0,.45H84.41a1.35,1.35,0,0,0,1.48,1.24,2.16,2.16,0,0,0,1.18-.36l.29.52a2.85,2.85,0,0,1-1.57.48A2,2,0,0,1,83.59,114.71Zm.84-.36h2.36a1.05,1.05,0,0,0-1.1-1.11A1.25,1.25,0,0,0,84.42,114.34Z"/><path class="cls-15" d="M88.65,115.67c0-.91.82-1.35,2.86-1.51a.88.88,0,0,0-1-.9,2.82,2.82,0,0,0-1.37.45l-.31-.55a3.66,3.66,0,0,1,1.82-.57,1.54,1.54,0,0,1,1.69,1.71v2.43h-.67l-.07-.52h0a2.69,2.69,0,0,1-1.55.62A1.22,1.22,0,0,1,88.65,115.67Zm2.86,0v-1c-1.59.12-2.06.44-2.06.93s.36.57.8.57A2,2,0,0,0,91.51,115.64Z"/><path class="cls-15" d="M93.46,114.71a1.94,1.94,0,0,1,1.81-2.13,1.58,1.58,0,0,1,1.16.51h0l0-.72v-1.51h.82v5.87h-.67l-.07-.5h0a1.88,1.88,0,0,1-1.27.6C94.15,116.83,93.46,116.06,93.46,114.71Zm3,.89v-1.92a1.34,1.34,0,0,0-1-.41c-.63,0-1.15.55-1.15,1.43s.4,1.45,1.09,1.45A1.35,1.35,0,0,0,96.41,115.61Z"/><path class="cls-15" d="M98.5,114.71a2,2,0,0,1,2.07-2.12,1.76,1.76,0,0,1,1.86,1.91,3.07,3.07,0,0,1,0,.45H99.32a1.35,1.35,0,0,0,1.48,1.24,2.16,2.16,0,0,0,1.18-.36l.29.52a2.85,2.85,0,0,1-1.57.48A2,2,0,0,1,98.5,114.71Zm.84-.36h2.36a1.05,1.05,0,0,0-1.1-1.11A1.25,1.25,0,0,0,99.34,114.34Z"/><path class="cls-15" d="M104.08,112.69h.68l.07.94h0a2.08,2.08,0,0,1,1.76-1,1.75,1.75,0,0,1,.8.17l-.18.7a2,2,0,0,0-.74-.13,1.8,1.8,0,0,0-1.59,1.11v2.3h-.82Z"/><path class="cls-1" d="M109.75,70.89V96.32A3.71,3.71,0,0,1,106,100H80a3.71,3.71,0,0,1-3.72-3.71V70.89H78v.21c0,.49.74.89,1.67.89H106.1c.92,0,1.67-.4,1.67-.89v-.21Z"/><path class="cls-1" d="M107.77,70.89v.21c0,.49-.75.89-1.67.89H79.72c-.93,0-1.67-.4-1.67-.89v-.21Z"/><path class="cls-2" d="M107.77,70.53v.58c0,.49-.75.89-1.67.89H79.72c-.93,0-1.67-.4-1.67-.89v-.58c0-.49.74-.89,1.67-.89H106.1C107,69.64,107.77,70,107.77,70.53Z"/><path class="cls-1" d="M107.77,70.53v.58c0,.49-.75.89-1.67.89H79.72c-.93,0-1.67-.4-1.67-.89v-.58c0-.49.74-.89,1.67-.89H106.1C107,69.64,107.77,70,107.77,70.53Z"/><path class="cls-2" d="M107.86,68.46H78.14a1.88,1.88,0,0,0-1.89,1.88v1.21a1.88,1.88,0,0,0,1.89,1.88h29.73a1.89,1.89,0,0,0,1.89-1.88V70.35A1.89,1.89,0,0,0,107.86,68.46Zm-.09,2.65c0,.49-.75.89-1.67.89H79.72c-.93,0-1.67-.4-1.67-.89v-.58c0-.49.74-.89,1.67-.89H106.1c.92,0,1.67.4,1.67.89Z"/><rect class="cls-3" x="78.53" y="81.05" width="28.95" height="9.69"/><path class="cls-4" d="M78.53,90.74h28.95a0,0,0,0,1,0,0V96a2,2,0,0,1-2,2H80.53a2,2,0,0,1-2-2V90.74A0,0,0,0,1,78.53,90.74Z"/><rect class="cls-5" x="78.53" y="78.5" width="28.95" height="5.11" rx="2" ry="2"/><path class="cls-6" d="M93,81.07a.93.93,0,0,1-.93-.93V67.86a.93.93,0,0,1,1.86,0V80.14A.93.93,0,0,1,93,81.07Z"/><path class="cls-7" d="M86.47,74.63A4.32,4.32,0,0,1,93,78.44a4.32,4.32,0,0,1-6.52-3.81Z"/><path class="cls-8" d="M86.47,74.63A4.32,4.32,0,0,1,93,78.44Z"/><path class="cls-7" d="M99.53,74.63A4.32,4.32,0,0,0,93,78.44a4.32,4.32,0,0,0,6.52-3.81Z"/><path class="cls-8" d="M99.53,74.63A4.32,4.32,0,0,0,93,78.44Z"/><path class="cls-3" d="M90.31,81.07h6A1.12,1.12,0,0,0,95.17,80a1.11,1.11,0,0,0-.34.06,1.86,1.86,0,0,0-3.07,0,1.11,1.11,0,0,0-.34-.06A1.12,1.12,0,0,0,90.31,81.07Z"/><g class="cls-11"><path class="cls-2" d="M109.75,70.89v.66a1.89,1.89,0,0,1-1.89,1.88H78.14a1.88,1.88,0,0,1-1.89-1.88v-.66H78v.21c0,.49.74.89,1.67.89H106.1c.92,0,1.67-.4,1.67-.89v-.21Z"/></g><path class="cls-10" d="M93.14,70H93a.85.85,0,0,1,0-1.7h0A1,1,0,0,0,93.7,68a4.53,4.53,0,0,0,1-3.07,5.59,5.59,0,0,0-.35-2,.85.85,0,0,1,.1-.8,4.62,4.62,0,0,1,3.67-2.32.85.85,0,0,1,.7.36,6.54,6.54,0,0,1,.24,6.57A6.29,6.29,0,0,1,93.14,70"/><path class="cls-10" d="M92.86,70a6.28,6.28,0,0,1-5.92-3.29,6.54,6.54,0,0,1,.24-6.57.85.85,0,0,1,.7-.36,4.62,4.62,0,0,1,3.67,2.32.85.85,0,0,1,.1.8,5.61,5.61,0,0,0-.35,2,4.53,4.53,0,0,0,1,3.07,1,1,0,0,0,.69.34h0A.85.85,0,0,1,93,70h-.15"/><path class="cls-9" d="M93,70c-1.91,0-3.41-2.25-3.41-5.11S91.09,59.8,93,59.8s3.41,2.25,3.41,5.11S94.91,70,93,70"/><path class="cls-1" d="M109.75,16.79V42.22A3.71,3.71,0,0,1,106,45.94H80a3.71,3.71,0,0,1-3.72-3.71V16.79H78V17c0,.49.74.89,1.67.89H106.1c.92,0,1.67-.4,1.67-.89v-.21Z"/><path class="cls-1" d="M107.77,16.79V17c0,.49-.75.89-1.67.89H79.72c-.93,0-1.67-.4-1.67-.89v-.21Z"/><path class="cls-2" d="M107.77,16.43V17c0,.49-.75.89-1.67.89H79.72c-.93,0-1.67-.4-1.67-.89v-.58c0-.49.74-.89,1.67-.89H106.1C107,15.54,107.77,15.94,107.77,16.43Z"/><path class="cls-1" d="M107.77,16.43V17c0,.49-.75.89-1.67.89H79.72c-.93,0-1.67-.4-1.67-.89v-.58c0-.49.74-.89,1.67-.89H106.1C107,15.54,107.77,15.94,107.77,16.43Z"/><path class="cls-2" d="M107.86,14.36H78.14a1.88,1.88,0,0,0-1.89,1.88v1.21a1.88,1.88,0,0,0,1.89,1.88h29.73a1.89,1.89,0,0,0,1.89-1.88V16.25A1.89,1.89,0,0,0,107.86,14.36ZM107.77,17c0,.49-.75.89-1.67.89H79.72c-.93,0-1.67-.4-1.67-.89v-.58c0-.49.74-.89,1.67-.89H106.1c.92,0,1.67.4,1.67.89Z"/><rect class="cls-3" x="78.53" y="26.95" width="28.95" height="9.69"/><path class="cls-4" d="M78.53,36.64h28.95a0,0,0,0,1,0,0v5.21a2,2,0,0,1-2,2H80.53a2,2,0,0,1-2-2V36.64A0,0,0,0,1,78.53,36.64Z"/><rect class="cls-5" x="78.53" y="24.4" width="28.95" height="5.11" rx="2" ry="2"/><path class="cls-6" d="M93,27a.93.93,0,0,1-.93-.93V13.76a.93.93,0,0,1,1.86,0V26A.93.93,0,0,1,93,27Z"/><path class="cls-7" d="M86.47,20.53A4.32,4.32,0,0,1,93,24.34a4.32,4.32,0,0,1-6.52-3.81Z"/><path class="cls-8" d="M86.47,20.53A4.32,4.32,0,0,1,93,24.34Z"/><path class="cls-7" d="M99.53,20.53A4.32,4.32,0,0,0,93,24.34a4.32,4.32,0,0,0,6.52-3.81Z"/><path class="cls-8" d="M99.53,20.53A4.32,4.32,0,0,0,93,24.34Z"/><path class="cls-3" d="M90.31,27h6a1.12,1.12,0,0,0-1.12-1.12,1.11,1.11,0,0,0-.34.06,1.86,1.86,0,0,0-3.07,0,1.11,1.11,0,0,0-.34-.06A1.12,1.12,0,0,0,90.31,27Z"/><g class="cls-11"><path class="cls-2" d="M109.75,16.79v.66a1.89,1.89,0,0,1-1.89,1.88H78.14a1.88,1.88,0,0,1-1.89-1.88v-.66H78V17c0,.49.74.89,1.67.89H106.1c.92,0,1.67-.4,1.67-.89v-.21Z"/></g><path class="cls-10" d="M93.14,15.93H93a.85.85,0,0,1,0-1.7h0a1,1,0,0,0,.68-.34,4.53,4.53,0,0,0,1-3.07,5.59,5.59,0,0,0-.35-2,.85.85,0,0,1,.1-.8A4.62,4.62,0,0,1,98.12,5.7a.85.85,0,0,1,.7.36,6.54,6.54,0,0,1,.24,6.57,6.29,6.29,0,0,1-5.92,3.29"/><path class="cls-10" d="M92.86,15.93a6.28,6.28,0,0,1-5.92-3.29,6.54,6.54,0,0,1,.24-6.57.85.85,0,0,1,.7-.36A4.62,4.62,0,0,1,91.55,8a.85.85,0,0,1,.1.8,5.61,5.61,0,0,0-.35,2,4.53,4.53,0,0,0,1,3.07,1,1,0,0,0,.69.34h0a.85.85,0,0,1,0,1.7h-.15"/><path class="cls-9" d="M93,15.93c-1.91,0-3.41-2.25-3.41-5.11S91.09,5.7,93,5.7s3.41,2.25,3.41,5.11-1.5,5.11-3.41,5.11"/><path class="cls-16" d="M89.53,3.41l.31.62A.09.09,0,0,0,90,4l.31-.62a2.24,2.24,0,0,1,1.45-1.09l.83-.23a.06.06,0,0,0,0-.11l-.83-.23A2.24,2.24,0,0,1,90.3.66L90,0a.09.09,0,0,0-.15,0l-.31.62a2.24,2.24,0,0,1-1.45,1.09L87.25,2a.06.06,0,0,0,0,.11l.83.23A2.24,2.24,0,0,1,89.53,3.41Z"/><path class="cls-16" d="M103.94,4l-.39-.15a1.16,1.16,0,0,1-.69-.69l-.15-.39a0,0,0,0,0-.07,0l-.15.39a1.16,1.16,0,0,1-.69.69l-.39.15a0,0,0,0,0,0,.07l.39.15a1.16,1.16,0,0,1,.69.69l.15.39a0,0,0,0,0,.07,0l.15-.39a1.16,1.16,0,0,1,.69-.69l.39-.15a0,0,0,0,0,0-.07Z"/><path class="cls-16" d="M84.71,6.83l-.5-.18a1.46,1.46,0,0,1-.87-.87l-.18-.5a0,0,0,0,0-.09,0l-.18.5a1.46,1.46,0,0,1-.87.87l-.5.18a0,0,0,0,0,0,.09l.5.18A1.46,1.46,0,0,1,82.9,8l.18.5a0,0,0,0,0,.09,0l.18-.5a1.46,1.46,0,0,1,.87-.87l.5-.18a0,0,0,0,0,0-.09Z"/></svg>