<svg id="Layer_1" data-name="Layer 1" xmlns="http://www.w3.org/2000/svg" viewBox="0 0 186 128"><defs><style>.cls-1{fill:#799987;}.cls-2{fill:#79b39b;}.cls-3{fill:#96bca6;}.cls-4{fill:#4296b4;}.cls-5{fill:#80c4d6;}.cls-6{fill:#fff;}</style></defs><title>app icon 2</title><path class="cls-1" d="M151,99.74v9.42c0,1.16-1.37,2.3-4.05,3.17l-44.18,14.35a37.06,37.06,0,0,1-19.58,0L39,112.34c-2.68-.87-4-2-4.06-3.17V99.74Z"/><path class="cls-2" d="M83.22,117.27,39,102.92c-5.4-1.76-5.4-4.6,0-6.36L83.22,82.22a37,37,0,0,1,19.57,0L147,96.57c5.4,1.76,5.4,4.6,0,6.36l-44.18,14.35a37,37,0,0,1-19.57,0Z"/><path class="cls-1" d="M146.94,99.74c-.25.11-.54.22-.89.33l-5.57,1.81L133.83,104l-32-10.38a34.17,34.17,0,0,0-17.72,0L52.18,104l-6.65-2.16L40,100.07c-.35-.11-.65-.22-.9-.33q.38-.15.9-.32L84.14,85.07a34.17,34.17,0,0,1,17.72,0L146,99.42C146.39,99.53,146.69,99.64,146.94,99.74Z"/><path class="cls-3" d="M133.82,104l-2.69.88-4.3,1.4-7.17,2.33-1.44.47-4.95,1.61-3.67,1.19-4.41,1.43-3.35,1.08c-.31.1-.63.19-1,.28a35.65,35.65,0,0,1-15.79,0c-.34-.09-.66-.18-1-.28l-3.45-1.12-4.3-1.4-4.3-1.4-5.27-1.71-3.34-1.08-4.3-1.4-4.3-1.4L52.18,104l1.62-.53,4.3-1.4,4.48-1.46,4.23-1.37,4.39-1.43,2.09-.68,6.53-2.12,1.51-.49L84,93.7l.11,0h0a34.17,34.17,0,0,1,17.72,0h0l4.3,1.4,4.32,1.4,4.3,1.4,4.3,1.4.57.19,3.08,1,.67.22,4.48,1.46,4.3,1.4Z"/><rect class="cls-4" x="56.07" y="19.63" width="73.87" height="86.3" rx="2.98" ry="2.98"/><rect class="cls-5" x="60.03" y="30.88" width="65.61" height="69.94"/><circle class="cls-5" cx="62.58" cy="25.33" r="2.25"/><circle class="cls-5" cx="69.35" cy="25.33" r="2.26"/><path class="cls-6" d="M65.29,43.2h.85l.08.63h0a2.6,2.6,0,0,1,1.7-.75c1.35,0,2.1,1,2.1,2.61a2.47,2.47,0,0,1-2.3,2.76,2.26,2.26,0,0,1-1.45-.63h0l.05.92v1.68h-1ZM69,45.69c0-1.07-.4-1.75-1.32-1.75a1.92,1.92,0,0,0-1.35.69v2.42a1.94,1.94,0,0,0,1.23.53C68.38,47.59,69,46.9,69,45.69Z"/><path class="cls-6" d="M71.23,45.76a2.56,2.56,0,1,1,2.55,2.68A2.53,2.53,0,0,1,71.23,45.76Zm4,0c0-1.1-.58-1.83-1.49-1.83s-1.49.73-1.49,1.83.58,1.83,1.49,1.83S75.27,46.86,75.27,45.76Z"/><path class="cls-6" d="M78.37,43.2h.86l.08,1.19h0a2.63,2.63,0,0,1,2.23-1.32,2.21,2.21,0,0,1,1,.21l-.23.89a2.49,2.49,0,0,0-.93-.17,2.28,2.28,0,0,0-2,1.4v2.91h-1Z"/><path class="cls-6" d="M85.27,46.3V44h-1.4v-.79l1.44-.05.14-1.62h.86V43.2h2.42V44H86.31V46.3c0,.88.3,1.31,1.23,1.31a3.16,3.16,0,0,0,1.17-.22l.21.76a4.76,4.76,0,0,1-1.62.29C85.78,48.44,85.27,47.58,85.27,46.3Z"/><path class="cls-6" d="M90.32,43.33H94.9v.75H90.32Zm0,2.3H94.9v.75H90.32Z"/><path class="cls-6" d="M99.53,46.54H96.15v-.7l3.19-4.2h1.16v4.08h1v.82h-1v1.78h-1Zm0-.82V43.9c0-.38,0-.87.05-1.26h-.05c-.21.35-.46.68-.69,1l-1.6,2.06Z"/><path class="cls-6" d="M102.58,47.52l.5-.67a2.58,2.58,0,0,0,1.8.74,1.44,1.44,0,0,0,1.59-1.4c0-.86-.62-1.35-1.54-1.35a2.29,2.29,0,0,0-1.29.39l-.52-.34.21-3.25h3.86v.88h-2.95l-.16,1.79a2.78,2.78,0,0,1,1.14-.24,2,2,0,0,1,2.29,2.08A2.33,2.33,0,0,1,105,48.44,3.36,3.36,0,0,1,102.58,47.52Z"/><path class="cls-6" d="M112.08,46.54H108.7v-.7l3.19-4.2H113v4.08h1v.82h-1v1.78h-1Zm0-.82V43.9c0-.38,0-.87.05-1.26h-.05c-.21.35-.46.68-.69,1l-1.6,2.06Z"/><path class="cls-6" d="M115.13,47.52l.5-.67a2.58,2.58,0,0,0,1.8.74,1.44,1.44,0,0,0,1.59-1.4c0-.86-.62-1.35-1.54-1.35a2.29,2.29,0,0,0-1.29.39l-.52-.34.21-3.25h3.86v.88h-2.95l-.16,1.79a2.78,2.78,0,0,1,1.14-.24,2,2,0,0,1,2.29,2.08,2.33,2.33,0,0,1-2.51,2.28A3.36,3.36,0,0,1,115.13,47.52Z"/><path class="cls-6" d="M85.74,62.43H73.48a.65.65,0,0,1,0-1.3H85.74a.65.65,0,0,1,0,1.3Z"/><path class="cls-6" d="M98,62.43H90a.65.65,0,0,1,0-1.3h8a.65.65,0,0,1,0,1.3Z"/><path class="cls-6" d="M111.61,75h-8a.65.65,0,0,1,0-1.3h8a.65.65,0,0,1,0,1.3Z"/><path class="cls-6" d="M106.85,68.69H83.38a.65.65,0,0,1,0-1.3h23.47a.65.65,0,0,1,0,1.3Z"/><path class="cls-6" d="M99.29,75H83.38a.65.65,0,0,1,0-1.3H99.29a.65.65,0,0,1,0,1.3Z"/><path class="cls-6" d="M66.95,74.9h-.71a.65.65,0,0,1,0-1.3h.71a.65.65,0,0,1,0,1.3Z"/><path class="cls-6" d="M66.95,68.58h-.71a.65.65,0,0,1,0-1.3h.71a.65.65,0,0,1,0,1.3Z"/><path class="cls-6" d="M66.95,62.32h-.71a.65.65,0,0,1,0-1.3h.71a.65.65,0,0,1,0,1.3Z"/><path class="cls-6" d="M85.74,81.16H73.48a.65.65,0,0,1,0-1.3H85.74a.65.65,0,0,1,0,1.3Z"/><path class="cls-6" d="M98,81.16H90a.65.65,0,0,1,0-1.3h8a.65.65,0,0,1,0,1.3Z"/><path class="cls-6" d="M106.85,87.42H83.38a.65.65,0,0,1,0-1.3h23.47a.65.65,0,0,1,0,1.3Z"/><path class="cls-6" d="M66.95,87.32h-.71a.65.65,0,0,1,0-1.3h.71a.65.65,0,0,1,0,1.3Z"/><path class="cls-6" d="M66.95,81.06h-.71a.65.65,0,0,1,0-1.3h.71a.65.65,0,0,1,0,1.3Z"/></svg>