<svg id="Layer_1" data-name="Layer 1" xmlns="http://www.w3.org/2000/svg" viewBox="0 0 180 79"><defs><style>.cls-1{fill:#93bea7;}.cls-2{fill:#799987;}.cls-3{fill:#fff;}.cls-4{fill-rule:evenodd;}.cls-5{fill:#faaf34;}.cls-6{fill:#29a5de;}.cls-7{fill:#757575;}.cls-8{fill:#c9c8c1;}.cls-9{fill:#4d6eab;}.cls-10{fill:#4b6497;}.cls-11{fill:#dd2715;}.cls-12{fill:#c12c22;}.cls-13{fill:#f4b000;}.cls-14{fill:#cd971c;}</style></defs><title>app logo 1</title><path id="Rectangle-2-Copy-4" class="cls-1" d="M2.5,0h175A2.5,2.5,0,0,1,180,2.5h0A2.5,2.5,0,0,1,177.5,5H2.5A2.5,2.5,0,0,1,0,2.5H0A2.5,2.5,0,0,1,2.5,0Z"/><path class="cls-2" d="M180,3V75a4,4,0,0,1-4,4H4a4,4,0,0,1-4-4V3H0A2.5,2.5,0,0,0,2.5,5h175A2.49,2.49,0,0,0,180,3Z"/><rect id="Rectangle-13-Copy-12" class="cls-3" x="5" y="10" width="171" height="64" rx="3" ry="3"/><path class="cls-4" d="M149.5,39.63a.51.51,0,1,1,.51.51.51.51,0,0,1-.51-.51"/><path d="M150,40.2a.57.57,0,1,1,.57-.57A.57.57,0,0,1,150,40.2Zm0-1a.46.46,0,1,0,.45.46A.45.45,0,0,0,150,39.17Z"/><path d="M121.93,41.16a.15.15,0,0,0,0-.14.27.27,0,0,0-.22-.1h-.3a.3.3,0,0,0-.28.19l-.9,3.18-.89-3.18a.27.27,0,0,0-.25-.2h-.35a.26.26,0,0,0-.25.2l-.83,3.14-.86-3.15a.31.31,0,0,0-.29-.19h-.43a.27.27,0,0,0-.22.1.15.15,0,0,0,0,.13l1.33,4.7a.26.26,0,0,0,.24.2h.43a.26.26,0,0,0,.25-.2l.82-3.13.89,3.13a.26.26,0,0,0,.24.2h.42a.25.25,0,0,0,.24-.2Z"/><path d="M126.24,44.57a.25.25,0,0,0-.16-.12l-.42-.08a.28.28,0,0,0-.29.15,1.15,1.15,0,0,1-1,.75,1.22,1.22,0,0,1-1.06-.68,2.23,2.23,0,0,1-.18-1h3.06a.26.26,0,0,0,.18-.08.19.19,0,0,0,.06-.14c0-1.21-.56-2.51-2.1-2.51a2.34,2.34,0,0,0-2.21,2.59c0,1.56.86,2.57,2.19,2.57a2,2,0,0,0,2-1.32A.18.18,0,0,0,126.24,44.57Zm-3.12-1.66a1.32,1.32,0,0,1,1.16-1.31,1.2,1.2,0,0,1,1.09,1.31Z"/><path d="M131.12,43.36a3.24,3.24,0,0,0-.44-1.71,1.75,1.75,0,0,0-1.45-.82h-.08a1.4,1.4,0,0,0-1.21.64v-2a.24.24,0,0,0-.24-.21h-.44a.24.24,0,0,0-.24.21v6.18a.24.24,0,0,0,.24.21h.13a.26.26,0,0,0,.24-.19l.14-.44a1.62,1.62,0,0,0,1.32.72h.08C130.51,46,131.12,44.67,131.12,43.36Zm-1,.12c0,.29-.05,1.72-1.07,1.76a1.14,1.14,0,0,1-.88-.51,1.93,1.93,0,0,1-.25-.92V43a1.36,1.36,0,0,1,1.12-1.39C130.09,41.62,130.14,43.17,130.14,43.48Z"/><path d="M136.51,44.49a1.38,1.38,0,0,0-.58-1.14,2.42,2.42,0,0,0-1-.34l-.66-.12c-.47-.08-.75-.2-.75-.62s.46-.61.85-.62a1.07,1.07,0,0,1,1,.6.26.26,0,0,0,.23.15h0l.41-.09a.26.26,0,0,0,.16-.12.18.18,0,0,0,0-.15,1.75,1.75,0,0,0-1.86-1.12c-.87,0-1.81.39-1.81,1.48,0,.74.47,1.21,1.39,1.4l.74.14c.41.08.82.22.82.65,0,.64-.75.71-1,.72a1.25,1.25,0,0,1-1.22-.72.24.24,0,0,0-.28-.16l-.43.09a.25.25,0,0,0-.16.11.19.19,0,0,0,0,.15A2,2,0,0,0,134.51,46h0C135.49,46,136.51,45.63,136.51,44.49Z"/><path d="M141.15,44.58a.25.25,0,0,0-.16-.12l-.42-.08a.28.28,0,0,0-.29.15,1.15,1.15,0,0,1-1,.75,1.22,1.22,0,0,1-1.06-.68,2.22,2.22,0,0,1-.18-1h3.06a.26.26,0,0,0,.18-.08.19.19,0,0,0,.06-.14c0-1.21-.56-2.51-2.1-2.51A2.34,2.34,0,0,0,137,43.48c0,1.56.86,2.57,2.19,2.57a2,2,0,0,0,2-1.32A.18.18,0,0,0,141.15,44.58ZM138,42.92a1.32,1.32,0,0,1,1.16-1.31,1.2,1.2,0,0,1,1.1,1.31Z"/><path d="M142.86,43.53a1.91,1.91,0,0,1,.22-1,1.2,1.2,0,0,1,1.1-.72.23.23,0,0,0,.23-.23v-.42a.24.24,0,0,0-.22-.22H144a1.36,1.36,0,0,0-1.22.81v-.47a.23.23,0,0,0-.24-.21h-.38a.23.23,0,0,0-.24.21v4.53a.23.23,0,0,0,.24.21h.45a.24.24,0,0,0,.25-.21Z"/><path d="M149.1,41.1a.15.15,0,0,0,0-.14.28.28,0,0,0-.23-.11h-.35a.31.31,0,0,0-.29.2l-1.14,3.58-1.16-3.58a.31.31,0,0,0-.29-.2h-.5a.28.28,0,0,0-.23.1.15.15,0,0,0,0,.14l1.59,4.73a.27.27,0,0,0,.24.2h.61a.26.26,0,0,0,.24-.2Z"/><path d="M150.5,41a.24.24,0,0,0-.25-.22h-.48a.25.25,0,0,0-.25.22v4.81a.21.21,0,0,0,.08.16.27.27,0,0,0,.17.06h.49a.24.24,0,0,0,.25-.22Z"/><path d="M155,44.32a.19.19,0,0,0,0-.14.29.29,0,0,0-.2-.09h-.4a.26.26,0,0,0-.25.19c-.15.63-.48,1-1,1-1,0-1.06-1.4-1.06-1.82,0-.84.29-1.74,1.1-1.76a1,1,0,0,1,1,.94.26.26,0,0,0,.23.22h.43a.24.24,0,0,0,.23-.23,1.83,1.83,0,0,0-1.82-1.7h-.07c-1.39,0-2,1.3-2,2.58s.52,2.55,2,2.55h.07A1.89,1.89,0,0,0,155,44.32Z"/><path d="M159.6,44.58a.25.25,0,0,0-.16-.12l-.42-.08a.28.28,0,0,0-.29.15,1.16,1.16,0,0,1-1,.75,1.22,1.22,0,0,1-1.06-.68,2.22,2.22,0,0,1-.18-1h3.06a.26.26,0,0,0,.18-.08.19.19,0,0,0,.06-.14c0-1.21-.56-2.51-2.1-2.51a2.34,2.34,0,0,0-2.21,2.59c0,1.56.86,2.57,2.19,2.57a2,2,0,0,0,2-1.32A.18.18,0,0,0,159.6,44.58Zm-3.12-1.66a1.32,1.32,0,0,1,1.16-1.31,1.2,1.2,0,0,1,1.09,1.31Z"/><path d="M164.14,44.49a1.38,1.38,0,0,0-.57-1.14,2.43,2.43,0,0,0-1-.34l-.66-.12c-.47-.08-.75-.2-.75-.62,0-.57.71-.62.85-.62a1.06,1.06,0,0,1,1,.6.26.26,0,0,0,.23.15h0l.41-.09a.26.26,0,0,0,.16-.12.18.18,0,0,0,0-.15A1.75,1.75,0,0,0,162,40.89c-.87,0-1.81.39-1.81,1.48,0,.74.47,1.21,1.39,1.4l.74.14c.41.08.82.22.82.65,0,.64-.75.71-1,.72a1.24,1.24,0,0,1-1.22-.72.24.24,0,0,0-.28-.16l-.43.09a.25.25,0,0,0-.16.11.19.19,0,0,0,0,.15A2,2,0,0,0,162.14,46h0C163.12,46,164.14,45.63,164.14,44.49Z"/><path class="cls-4" d="M143.75,31.47V30.38a.27.27,0,0,1,.28-.28h4.9a.27.27,0,0,1,.28.28v.94a1.54,1.54,0,0,1-.37.69l-2.54,3.62a5.43,5.43,0,0,1,2.79.6.5.5,0,0,1,.26.43v1.17c0,.16-.18.35-.36.25a5.64,5.64,0,0,0-5.17,0c-.17.09-.35-.09-.35-.25V36.71a1.32,1.32,0,0,1,.18-.75l2.94-4.22H144a.27.27,0,0,1-.28-.27"/><path class="cls-4" d="M125.89,38.3H124.4a.28.28,0,0,1-.27-.25V30.4a.28.28,0,0,1,.29-.28h1.39a.28.28,0,0,1,.27.26v1h0a2,2,0,0,1,3.89,0,2.2,2.2,0,0,1,3.78-.58,4.06,4.06,0,0,1,.38,2.4V38a.28.28,0,0,1-.29.28h-1.49a.28.28,0,0,1-.27-.27V34a9.79,9.79,0,0,0,0-1.43.78.78,0,0,0-.88-.66,1,1,0,0,0-.89.63,4.63,4.63,0,0,0-.14,1.46V38a.28.28,0,0,1-.29.28h-1.49a.28.28,0,0,1-.27-.27V34c0-.85.14-2.11-.92-2.11s-1,1.22-1,2.11V38a.28.28,0,0,1-.29.28"/><path class="cls-4" d="M153.42,30c2.21,0,3.41,1.9,3.41,4.31s-1.32,4.18-3.41,4.18-3.35-1.9-3.35-4.26,1.2-4.23,3.35-4.23m0,1.56c-1.1,0-1.17,1.5-1.17,2.43s0,2.93,1.15,2.93,1.21-1.61,1.21-2.59a7.07,7.07,0,0,0-.22-2A.93.93,0,0,0,153.44,31.52Z"/><path class="cls-4" d="M159.7,38.3h-1.48a.28.28,0,0,1-.27-.27V30.37a.28.28,0,0,1,.29-.25h1.38a.28.28,0,0,1,.26.21v1.17h0a2,2,0,0,1,2-1.54,2,2,0,0,1,1.74.9,4.87,4.87,0,0,1,.39,2.38v4.81a.28.28,0,0,1-.28.24h-1.49a.28.28,0,0,1-.27-.24V33.9c0-.84.1-2.06-.93-2.06a1,1,0,0,0-.86.61A3.39,3.39,0,0,0,160,33.9V38a.29.29,0,0,1-.29.28"/><path class="cls-4" d="M139.85,34.64a2.92,2.92,0,0,1-.28,1.58,1.21,1.21,0,0,1-1,.68c-.57,0-.91-.44-.91-1.08,0-1.27,1.14-1.5,2.22-1.5v.32m1.5,3.63a.31.31,0,0,1-.35,0,3.64,3.64,0,0,1-.85-1,3,3,0,0,1-2.46,1.08,2.11,2.11,0,0,1-2.23-2.32A2.53,2.53,0,0,1,137,33.64a10.31,10.31,0,0,1,2.8-.52v-.19a1.9,1.9,0,0,0-.18-1.08,1,1,0,0,0-.84-.39,1.13,1.13,0,0,0-1.2.89.31.31,0,0,1-.26.27l-1.44-.16a.26.26,0,0,1-.22-.31c.33-1.75,1.91-2.28,3.33-2.28a3.38,3.38,0,0,1,2.24.74c.72.68.65,1.58.65,2.56v2.32a2,2,0,0,0,.56,1.38.28.28,0,0,1,0,.4l-1.14,1Z"/><path class="cls-4" d="M120.32,34.64a2.93,2.93,0,0,1-.28,1.58,1.21,1.21,0,0,1-1,.68c-.57,0-.91-.44-.91-1.08,0-1.27,1.14-1.5,2.22-1.5v.32m1.5,3.63a.31.31,0,0,1-.35,0,3.64,3.64,0,0,1-.85-1,3,3,0,0,1-2.46,1.08,2.11,2.11,0,0,1-2.23-2.32,2.53,2.53,0,0,1,1.59-2.43,10.31,10.31,0,0,1,2.8-.52v-.19a1.9,1.9,0,0,0-.18-1.08,1,1,0,0,0-.84-.39,1.13,1.13,0,0,0-1.2.89.31.31,0,0,1-.26.27l-1.44-.16a.26.26,0,0,1-.22-.31c.33-1.75,1.91-2.28,3.33-2.28a3.38,3.38,0,0,1,2.24.74c.72.68.65,1.58.65,2.56v2.32a2,2,0,0,0,.56,1.38.28.28,0,0,1,0,.4l-1.14,1Z"/><polygon class="cls-5" points="99.55 38.97 99.55 44.81 103.68 46.2 103.68 40.28 99.55 38.97"/><polygon class="cls-5" points="104.65 40.29 108.77 38.97 108.77 44.82 104.65 46.21 104.65 40.29"/><polyline class="cls-5" points="107.97 38.31 104.17 37.06 100.36 38.3 104.17 39.54 107.97 38.31"/><polygon class="cls-5" points="94.46 30.39 94.46 36.24 98.59 37.63 98.59 31.71 94.46 30.39"/><polygon class="cls-5" points="99.56 31.71 103.67 30.39 103.67 36.24 99.56 37.63 99.56 31.71"/><polyline class="cls-5" points="102.88 29.73 99.07 28.49 95.27 29.73 99.08 30.97 102.88 29.73"/><polygon class="cls-5" points="104.64 30.39 104.64 36.24 108.78 37.63 108.78 31.71 104.64 30.39"/><polygon class="cls-5" points="109.74 31.71 113.86 30.39 113.86 36.24 109.74 37.63 109.74 31.71"/><polyline class="cls-5" points="113.07 29.73 109.26 28.49 105.45 29.73 109.27 30.97 113.07 29.73"/><polygon class="cls-5" points="109.87 21.85 109.87 27.7 114 29.09 114 23.17 109.87 21.85"/><polygon class="cls-5" points="114.97 23.18 119.09 21.85 119.09 27.7 114.97 29.09 114.97 23.18"/><polyline class="cls-5" points="118.3 21.19 114.49 19.95 110.68 21.19 114.5 22.43 118.3 21.19"/><polygon class="cls-5" points="119.99 21.85 119.99 27.7 124.12 29.09 124.12 23.17 119.99 21.85"/><polygon class="cls-5" points="125.08 23.18 129.2 21.85 129.2 27.7 125.08 29.09 125.08 23.18"/><polyline class="cls-5" points="128.41 21.19 124.6 19.95 120.79 21.19 124.61 22.43 128.41 21.19"/><path id="path5" class="cls-6" d="M105.72,62.68h-.78V58c0-.35,0-.82,0-1.33h0c-.08.31-.16.55-.2.66l-2.38,5.31H102l-2.34-5.27a4.15,4.15,0,0,1-.2-.7h0v6h-.78V55.78h1.05l2.11,4.8a6.19,6.19,0,0,1,.31.82h0a7.41,7.41,0,0,1,.35-.86l2.15-4.8h1Z"/><path id="path7" class="cls-6" d="M107.59,56.48a.38.38,0,0,1-.35-.16.7.7,0,0,1-.16-.35.42.42,0,0,1,.16-.35.48.48,0,0,1,.35-.16.38.38,0,0,1,.35.16.48.48,0,0,1,.16.35.54.54,0,0,1-.51.51Zm.39,6.2h-.78v-5H108Z"/><path id="path9" class="cls-6" d="M112.67,62.45a2.54,2.54,0,0,1-1.37.35,2.24,2.24,0,0,1-1.72-.7,2.54,2.54,0,0,1-.66-1.8,2.72,2.72,0,0,1,.7-2,2.79,2.79,0,0,1,1.91-.74,2.36,2.36,0,0,1,1.17.27v.82a1.84,1.84,0,0,0-1.17-.39,1.68,1.68,0,0,0-1.25.55,2,2,0,0,0-.47,1.4,1.93,1.93,0,0,0,.47,1.37,1.51,1.51,0,0,0,1.21.51,2.08,2.08,0,0,0,1.21-.43v.74Z"/><path id="path11" class="cls-6" d="M116.22,58.55a1,1,0,0,0-.62-.16,1,1,0,0,0-.86.47,2.1,2.1,0,0,0-.35,1.29v2.54h-.78v-5h.78v1h0a1.73,1.73,0,0,1,.51-.82,1.19,1.19,0,0,1,.78-.27,1.46,1.46,0,0,1,.47.08v.82Z"/><path id="path13" class="cls-6" d="M118.75,62.8a2.26,2.26,0,0,1-1.76-.7,2.58,2.58,0,0,1-.66-1.83,2.81,2.81,0,0,1,.66-2,2.47,2.47,0,0,1,1.87-.7,2.23,2.23,0,0,1,1.72.66,3,3,0,0,1,0,3.75A2.33,2.33,0,0,1,118.75,62.8Zm0-4.53a1.51,1.51,0,0,0-1.21.51,2.51,2.51,0,0,0,0,2.81,1.51,1.51,0,0,0,1.21.51,1.38,1.38,0,0,0,1.17-.51,2.51,2.51,0,0,0,0-2.81A1.5,1.5,0,0,0,118.79,58.27Z"/><path id="path15" class="cls-6" d="M121.91,62.49v-.86a2.34,2.34,0,0,0,1.4.47q1.05,0,1.05-.7a1.14,1.14,0,0,0-.08-.35l-.23-.23c-.12-.08-.23-.12-.35-.2s-.27-.12-.43-.16a2.69,2.69,0,0,1-.59-.27,1.73,1.73,0,0,1-.43-.31.81.81,0,0,1-.23-.39A2,2,0,0,1,122,59a1.15,1.15,0,0,1,.16-.62,1.82,1.82,0,0,1,.39-.35,3.94,3.94,0,0,1,.59-.27,2.21,2.21,0,0,1,.7-.12,2.55,2.55,0,0,1,1.13.23v.78a2.23,2.23,0,0,0-1.25-.35,1.2,1.2,0,0,0-.39,0,.78.78,0,0,0-.31.16c-.08.08-.16.12-.2.23a.72.72,0,0,0-.08.27.74.74,0,0,0,.08.31,1,1,0,0,0,.2.23,2.18,2.18,0,0,0,.31.2,3.8,3.8,0,0,1,.43.2,2,2,0,0,1,.59.27,1.73,1.73,0,0,1,.43.31.89.89,0,0,1,.27.39,1.08,1.08,0,0,1,.12.51A1.06,1.06,0,0,1,125,62a1.13,1.13,0,0,1-.43.43,3,3,0,0,1-.62.27,4.32,4.32,0,0,1-.74.08A2.69,2.69,0,0,1,121.91,62.49Z"/><path id="path17" class="cls-6" d="M128.2,62.8a2.26,2.26,0,0,1-1.76-.7,2.58,2.58,0,0,1-.66-1.83,2.81,2.81,0,0,1,.66-2,2.59,2.59,0,0,1,1.87-.7,2.23,2.23,0,0,1,1.72.66A3,3,0,0,1,130,62,2.33,2.33,0,0,1,128.2,62.8Zm0-4.53a1.51,1.51,0,0,0-1.21.51,2.51,2.51,0,0,0,0,2.81,1.51,1.51,0,0,0,1.21.51,1.38,1.38,0,0,0,1.17-.51,2.51,2.51,0,0,0,0-2.81A1.44,1.44,0,0,0,128.24,58.27Z"/><path id="path19" class="cls-6" d="M136.78,58.43v-.7h-1.25V56.28l-.78.27v1.21h-2.15V57q0-1.05.82-1.05a1.08,1.08,0,0,1,.51.12v-.7a2.36,2.36,0,0,0-.59-.08,1.56,1.56,0,0,0-1.13.47,1.59,1.59,0,0,0-.43,1.21v.78h-.86v.66h.86v4.29h.78V58.43h2.15v2.93c0,1,.43,1.44,1.29,1.44a1.4,1.4,0,0,0,.74-.16V62a.78.78,0,0,1-.51.16.71.71,0,0,1-.55-.2,1.17,1.17,0,0,1-.16-.7V58.43Z"/><path id="path21" class="cls-6" d="M145.48,62.68h-.9l-.74-2h-2.93l-.7,2h-.9L142,55.78h.82ZM143.61,60l-1.09-2.93a2,2,0,0,1-.12-.47h0a4,4,0,0,1-.12.47L141.23,60Z"/><path id="path23" class="cls-6" d="M149.58,58l-2.93,4h2.89v.7h-4v-.23l2.93-4H145.8v-.7h3.79Z"/><path id="path25" class="cls-6" d="M154.34,62.68h-.78V61.9h0a1.61,1.61,0,0,1-1.52.9q-1.76,0-1.76-2.11v-3h.78v2.81c0,1.05.39,1.56,1.21,1.56a1.19,1.19,0,0,0,.94-.43,1.72,1.72,0,0,0,.39-1.13V57.73h.78v5Z"/><path id="path27" class="cls-6" d="M158.25,58.55a.94.94,0,0,0-.59-.16,1,1,0,0,0-.86.47,2.1,2.1,0,0,0-.35,1.29v2.54h-.78v-5h.78v1h0a1.73,1.73,0,0,1,.51-.82,1.19,1.19,0,0,1,.78-.27,1.46,1.46,0,0,1,.47.08v.82Z"/><path id="path29" class="cls-6" d="M162.69,60.38h-3.47a1.9,1.9,0,0,0,.43,1.29,1.45,1.45,0,0,0,1.17.43,2.51,2.51,0,0,0,1.52-.55v.74a2.88,2.88,0,0,1-1.72.47A2.11,2.11,0,0,1,159,62.1a2.76,2.76,0,0,1-.59-1.87,2.67,2.67,0,0,1,.66-1.87,2.14,2.14,0,0,1,1.6-.74,1.81,1.81,0,0,1,1.48.62,2.66,2.66,0,0,1,.55,1.72v.43Zm-.82-.66a1.62,1.62,0,0,0-.31-1.05,1.2,1.2,0,0,0-.9-.39,1.16,1.16,0,0,0-.94.39,1.65,1.65,0,0,0-.47,1.05Z"/><path class="cls-7" d="M20,58.59c.38,0,.76,0,1.14,0s.3.07.31.3a2.73,2.73,0,0,1-1.59,2.82,3.24,3.24,0,0,1-3.46-.61,3,3,0,0,1-.64-3.58,3.17,3.17,0,0,1,3.32-1.69,3,3,0,0,1,1.47.68c.11.09.15.16,0,.27s-.27.35-.45.41-.31-.18-.47-.27a2.22,2.22,0,0,0-2.54.29,2.25,2.25,0,0,0-.53,2.63,2.19,2.19,0,0,0,2.25,1.26,1.82,1.82,0,0,0,1.71-1.43c0-.17,0-.22-.18-.22H18.85c-.18,0-.25,0-.25-.24,0-.6,0-.6.59-.6Z"/><path class="cls-7" d="M83.67,58.59a1.4,1.4,0,0,1,2.32.08A1.6,1.6,0,0,1,87,58a1.24,1.24,0,0,1,1.53,1,21.17,21.17,0,0,1,.06,2.61c0,.1,0,.13-.14.14-.54.08-.59,0-.59-.51s0-1.08,0-1.61c0-.73-.23-1-.77-1a1,1,0,0,0-1,1.07c0,.61,0,1.21,0,1.82,0,.24-.07.31-.3.28s-.45.09-.42-.3c0-.56,0-1.13,0-1.7a3.4,3.4,0,0,0,0-.5.68.68,0,0,0-.49-.63.84.84,0,0,0-.89.23,1.22,1.22,0,0,0-.34.88c0,.59,0,1.17,0,1.76,0,.21-.05.29-.26.26a1.19,1.19,0,0,0-.26,0c-.14,0-.19,0-.19-.18q0-1.66,0-3.31c0-.16.06-.21.21-.2h.21c.21,0,.32,0,.28.27A1.1,1.1,0,0,0,83.67,58.59Z"/><path class="cls-7" d="M44.35,62a2.74,2.74,0,0,1-2.59-1.69,2.91,2.91,0,0,1,.6-3.15,2.83,2.83,0,0,1,3.07-.58,2.89,2.89,0,0,1,.75.5c.13.11.16.21,0,.32a1.46,1.46,0,0,0-.21.2c-.09.1-.15.09-.26,0a2,2,0,0,0-3.43,1.27,2.09,2.09,0,0,0,3.54,1.84c.15-.15.22-.14.36,0,.33.35.34.35,0,.67A2.77,2.77,0,0,1,44.35,62Z"/><path class="cls-7" d="M55.12,61.35a1.48,1.48,0,0,1-1.64.54,1.22,1.22,0,0,1-.92-1.16c0-.81,0-1.62,0-2.43,0-.11,0-.15.15-.16.52-.06.56,0,.56.49s0,1.11,0,1.67.28,1,.82,1a1,1,0,0,0,1-1c0-.63,0-1.27,0-1.91,0-.36.19-.29.4-.31s.34.06.33.32c0,1,0,2,0,3.05,0,.21,0,.36-.28.33s-.48.07-.4-.31A.92.92,0,0,0,55.12,61.35Z"/><path class="cls-7" d="M74.15,60.3c0-.42,0-.84,0-1.26,0-.21-.07-.28-.27-.25H73.8a.38.38,0,0,1-.35-.57.11.11,0,0,1,.11-.07h.15c.44,0,.44,0,.44-.46a1.15,1.15,0,0,1,.91-1.23,2,2,0,0,1,.73,0c.15,0,.24.07.16.26s-.17.43-.52.38-.56.2-.58.55c0,.1,0,.2,0,.29s0,.24.21.22a3.1,3.1,0,0,1,.32,0c.42,0,.51.12.42.54,0,.11-.09.11-.17.11a5.11,5.11,0,0,1-.53,0c-.21,0-.26.07-.26.27,0,.83,0,1.66,0,2.49,0,.23-.06.3-.29.29-.42,0-.42,0-.42-.42S74.15,60.67,74.15,60.3Z"/><path class="cls-7" d="M35.76,58.93c0,.88,0,1.76,0,2.64,0,.21-.06.26-.26.26-.62,0-.62,0-.62-.62,0-1.64,0-3.29,0-4.93,0-.23.06-.3.29-.29.59,0,.59,0,.59.6Z"/><path class="cls-7" d="M71.51,59.93c0-.29,0-.59,0-.88s0-.27-.26-.27c-.39,0-.48-.13-.39-.53,0-.17.16-.11.25-.11.39,0,.39,0,.39-.39a2.88,2.88,0,0,0,0-.41c0-.28.07-.35.34-.33.42,0,.37-.05.37.38,0,.23-.07.53,0,.69s.44.05.66.06.19.06.2.21c0,.44,0,.44-.43.44s-.48,0-.48.48,0,.94,0,1.41.2.61.65.57c.15,0,.35.24.37.48s-.16.15-.25.16a1.14,1.14,0,0,1-1.48-1.25C71.5,60.39,71.51,60.16,71.51,59.93Z"/><path class="cls-7" d="M47.73,59.14c0,.8,0,1.6,0,2.4,0,.23-.06.3-.29.29-.42,0-.42,0-.42-.42,0-1.56,0-3.13,0-4.69,0-.34.18-.28.38-.29s.35,0,.34.3C47.71,57.54,47.73,58.34,47.73,59.14Z"/><path class="cls-7" d="M66.65,59.13c0,.81,0,1.62,0,2.43,0,.19,0,.28-.25.27-.47,0-.47,0-.47-.46,0-1.55,0-3.11,0-4.66,0-.35.19-.27.38-.29s.36,0,.35.3C66.63,57.53,66.65,58.33,66.65,59.13Z"/><path class="cls-7" d="M81,58.67a1.32,1.32,0,0,1,1.31-.61c.21,0,.32.05.21.32s-.19.42-.55.39a.93.93,0,0,0-1,1c0,.6,0,1.19,0,1.79,0,.23-.07.3-.28.27h-.18c-.21,0-.26,0-.26-.26,0-1,0-2.07,0-3.11,0-.2,0-.36.28-.33s.47,0,.41.33A1.32,1.32,0,0,0,81,58.67Z"/><path class="cls-7" d="M34.29,58.6c0-.51,0-.5-.5-.52-.21,0-.38,0-.34.3a1.7,1.7,0,0,0-2.4.17,2,2,0,0,0-.14,2.65,1.8,1.8,0,0,0,2.54.34,1.61,1.61,0,0,1,0,.52.93.93,0,0,1-.72.82.94.94,0,0,1-1.09-.37c-.19-.29-.35-.3-.6-.14a.54.54,0,0,1-.16.07c-.23.05-.2.17-.1.33a2,2,0,0,0,2.2.88,1.79,1.79,0,0,0,1.34-1.87C34.3,60.74,34.29,59.67,34.29,58.6Zm-1.85,2.55a1.2,1.2,0,0,1,0-2.38,1.2,1.2,0,0,1,0,2.38Z"/><path class="cls-7" d="M60.07,58.48c0-.61,0-1.21,0-1.82,0-.09,0-.19-.11-.23-.45-.1-.59,0-.59.45s0,.92,0,1.38c0,.1,0,.2,0,.33A1.59,1.59,0,0,0,57.85,58a1.85,1.85,0,0,0-1.47,1.59,2,2,0,0,0,1,2.12,1.66,1.66,0,0,0,2.07-.42c-.14.49.09.5.38.5s.27-.07.27-.28C60.06,60.53,60.07,59.5,60.07,58.48Zm-.76,2a1.12,1.12,0,0,1-1.47.74A1.27,1.27,0,0,1,57.06,60a1.19,1.19,0,0,1,1.51-1.26A1.36,1.36,0,0,1,59.31,60.5Z"/><path class="cls-7" d="M23.78,58a2,2,0,1,0,2,2A2,2,0,0,0,23.78,58Zm0,3.2A1.16,1.16,0,0,1,22.67,60a1.12,1.12,0,1,1,2.23,0A1.16,1.16,0,0,1,23.78,61.16Z"/><path class="cls-7" d="M28.14,58a2,2,0,1,0,2,2.06A2,2,0,0,0,28.14,58Zm0,3.2A1.16,1.16,0,0,1,27,59.95a1.12,1.12,0,1,1,2.23,0A1.15,1.15,0,0,1,28.11,61.16Z"/><path class="cls-7" d="M37.42,60.47c.74-.29,1.46-.6,2.19-.91.08,0,.22,0,.19-.19a1.86,1.86,0,0,0-3.64.71,1.94,1.94,0,0,0,2,1.87,1.92,1.92,0,0,0,1.23-.4c.54-.42.53-.43,0-.81-.18-.12-.25-.1-.39.06a1.08,1.08,0,0,1-1.61,0C37.22,60.64,37.2,60.56,37.42,60.47Zm-.37-.58a1.07,1.07,0,0,1,.55-1,.9.9,0,0,1,.95,0c.1.06.23.13.21.26s-.15.1-.24.13Z"/><path class="cls-7" d="M64.13,56.48a14.53,14.53,0,0,0-2,0c-.18,0-.13.13-.13.23,0,.82,0,1.64,0,2.46s0,1.58,0,2.38c0,.24,0,.38.31.32h.15c.21,0,.26-.05.26-.26,0-.56,0-1.11,0-1.67,0-.19,0-.26.24-.25s.65,0,1,0a1.64,1.64,0,0,0,1.61-1.45A1.57,1.57,0,0,0,64.13,56.48Zm.59,1.78a.89.89,0,0,1-.81.7c-.36,0-.72,0-1.08,0-.12,0-.17,0-.17-.17s0-.53,0-.84-.13-.62.06-.79.54,0,.82,0a1.22,1.22,0,0,1,.84.18A.94.94,0,0,1,64.71,58.27Z"/><path class="cls-7" d="M70.51,59.42a1.43,1.43,0,0,0-1.15-1.34,1.71,1.71,0,0,0-1.89.65c0,.06-.1.14-.06.18a1.58,1.58,0,0,0,.52.25c.14.06.14-.1.2-.16a1,1,0,0,1,1-.3.83.83,0,0,1,.68.65c0,.18,0,.28-.21.2a2.17,2.17,0,0,0-1.6,0,1.21,1.21,0,0,0,.15,2.3,1.52,1.52,0,0,0,1.65-.5c.06.45.06.45.47.44h.06c.14,0,.18,0,.18-.18C70.51,60.9,70.53,60.16,70.51,59.42Zm-.81,1.32a1.12,1.12,0,0,1-1.31.51A.55.55,0,0,1,68,60.8a.6.6,0,0,1,.26-.58A1.21,1.21,0,0,1,69,60a1.44,1.44,0,0,1,.43.06C69.88,60.19,69.94,60.34,69.7,60.73Z"/><path class="cls-7" d="M77.88,58a2,2,0,1,0,1.9,2A1.88,1.88,0,0,0,77.88,58Zm0,3.29a1.33,1.33,0,0,1,0-2.65A1.26,1.26,0,0,1,79.08,60,1.25,1.25,0,0,1,77.88,61.31Z"/><path class="cls-7" d="M50.13,58a2,2,0,0,0,0,3.94A1.86,1.86,0,0,0,52,60.06,1.88,1.88,0,0,0,50.13,58Zm.36,3.23a1.15,1.15,0,0,1-1.26-.37,1.5,1.5,0,0,1-.11-1.62,1.15,1.15,0,0,1,1.3-.55,1.36,1.36,0,0,1,.08,2.54Z"/><path class="cls-8" d="M46.27,46.09,40.7,36.44l5.57-9.65H57.42L63,36.44l-5.57,9.65H46.27"/><path class="cls-3" d="M52,40.84a4.34,4.34,0,1,1,4.34-4.34A4.35,4.35,0,0,1,52,40.84"/><path class="cls-9" d="M60.77,23.55a2.39,2.39,0,0,0-1.86-1.08H45.17a2.39,2.39,0,0,0-1.86,1.08l-4,6.95a2.28,2.28,0,0,0,.25,1.26l2.72,4.64L47.11,28H62.44a2.24,2.24,0,0,1,1.12.35l-2.79-4.83"/><path class="cls-10" d="M39.47,30.2l-.18.3a2.28,2.28,0,0,0,.25,1.26l2.72,4.64,1.44-2.5L39.47,30.2"/><path class="cls-3" d="M45.53,26a.84.84,0,1,1,.84-.84.84.84,0,0,1-.84.84"/><path class="cls-3" d="M59.26,25.21a.78.78,0,1,1-.78-.78.78.78,0,0,1,.78.78Z"/><path class="cls-11" d="M67.63,35.44l-4.08-7.06A2.24,2.24,0,0,0,62.44,28H56.91l4.78,8.42L54.12,49.82a2.19,2.19,0,0,1-.78.74h5.56a2.39,2.39,0,0,0,1.86-1.08L67.63,37.6a2.39,2.39,0,0,0,0-2.15"/><path class="cls-12" d="M63.74,28.7l-.18-.32A2.23,2.23,0,0,0,62.44,28H56.91l1.44,2.54,5.39-1.87"/><path class="cls-3" d="M58.48,48.51a.84.84,0,1,1,.84-.84.84.84,0,0,1-.84.84"/><path class="cls-3" d="M65,37.34a.84.84,0,1,1,.84-.84.84.84,0,0,1-.84.84"/><path class="cls-13" d="M47.22,44.88,39.55,31.76a2.28,2.28,0,0,1-.25-1.26l-2.85,4.94a2.39,2.39,0,0,0,0,2.15l6.87,11.89a2.39,2.39,0,0,0,1.86,1.08h8.17a2.18,2.18,0,0,0,.78-.74l2.8-4.94h-9.7"/><path class="cls-14" d="M52.88,50.56h.48a2.18,2.18,0,0,0,.78-.74l2.8-4.94H54l-1.07,5.69"/><path class="cls-3" d="M45.53,48.51a.84.84,0,1,1,.84-.84.84.84,0,0,1-.84.84"/><path class="cls-3" d="M39,37.34a.84.84,0,1,1,.84-.84.84.84,0,0,1-.84.84"/></svg>