<svg id="Layer_1" data-name="Layer 1" xmlns="http://www.w3.org/2000/svg" viewBox="0 0 186 128"><defs><style>.cls-1{fill:#4296b4;}.cls-2{fill:#80c4d6;}.cls-3{fill:#fff;}.cls-4{fill:#e2f0f7;}.cls-5,.cls-7{fill:#f3fcff;}.cls-6{opacity:0.5;}.cls-7{opacity:0.34;}.cls-10,.cls-8{fill:#87af9a;}.cls-15,.cls-9{fill:#759684;}.cls-10,.cls-12,.cls-9{fill-rule:evenodd;}.cls-11,.cls-12{fill:#847264;}.cls-13{fill:#9b8676;}.cls-14{fill:#bfa797;}.cls-16{fill:#87b09a;}</style></defs><title>app icon 1</title><rect class="cls-1" x="30.5" y="23" width="71.95" height="94.57" rx="2.98" ry="2.98"/><rect class="cls-2" x="34.36" y="33.97" width="63.9" height="79.14"/><ellipse class="cls-2" cx="36.85" cy="28.56" rx="2.19" ry="2.2"/><circle class="cls-2" cx="43.44" cy="28.56" r="2.2"/><path class="cls-3" d="M43.11,45.31H44l.09.67h0a2.75,2.75,0,0,1,1.81-.8c1.43,0,2.23,1.09,2.23,2.77,0,1.86-1.17,2.94-2.44,2.94a2.39,2.39,0,0,1-1.54-.67h0l.06,1V53h-1.1ZM47,48c0-1.14-.42-1.86-1.4-1.86a2,2,0,0,0-1.43.73v2.57a2.06,2.06,0,0,0,1.31.57C46.38,50,47,49.25,47,48Z"/><path class="cls-3" d="M51.41,48.85V43.74H49.63v-.88h2.87v6.05a.94.94,0,0,0,1,1.07,2.48,2.48,0,0,0,1-.23l.27.82a3.68,3.68,0,0,1-1.5.31C52.06,50.88,51.41,50.16,51.41,48.85Z"/><path class="cls-3" d="M56.29,49.32c0-1.22,1.1-1.81,3.83-2a1.19,1.19,0,0,0-1.35-1.21,3.78,3.78,0,0,0-1.84.61l-.41-.75A4.88,4.88,0,0,1,59,45.18a2.06,2.06,0,0,1,2.26,2.3v3.27h-.9l-.09-.7h0a3.6,3.6,0,0,1-2.08.83A1.64,1.64,0,0,1,56.29,49.32Zm3.83,0V48c-2.13.17-2.76.59-2.76,1.25s.49.77,1.08.77A2.69,2.69,0,0,0,60.12,49.28Z"/><path class="cls-3" d="M63.09,45.31H64l.09.88h0a2.73,2.73,0,0,1,2-1c1.26,0,1.84.79,1.84,2.2v3.37h-1.1V47.52c0-.95-.31-1.39-1.13-1.39a2.1,2.1,0,0,0-1.54.87v3.75h-1.1Z"/><path class="cls-3" d="M71.11,49.85a1,1,0,1,1,1,1A1,1,0,0,1,71.11,49.85Z"/><path class="cls-3" d="M76.18,50l.49-.71A3.85,3.85,0,0,0,79,50c.83,0,1.23-.33,1.23-.75s-.22-.62-1.59-.91-2.11-.79-2.11-1.61.81-1.59,2.32-1.59a4.14,4.14,0,0,1,2.22.71l-.51.69A3.27,3.27,0,0,0,78.73,46c-.82,0-1.12.31-1.12.69s.43.6,1.49.82c1.78.39,2.22.85,2.22,1.69s-.89,1.66-2.49,1.66A4.79,4.79,0,0,1,76.18,50Z"/><path class="cls-3" d="M83.07,42.86h1.1V45l-.07,1.22h0a2.64,2.64,0,0,1,2-1c1.26,0,1.84.79,1.84,2.2v3.37h-1.1V47.52c0-.95-.31-1.39-1.13-1.39a2.1,2.1,0,0,0-1.54.87v3.75h-1.1Z"/><path class="cls-3" d="M61.64,66.85H49.38a.65.65,0,0,1,0-1.3H61.64a.65.65,0,0,1,0,1.3Z"/><path class="cls-3" d="M73.91,66.85h-8a.65.65,0,0,1,0-1.3h8a.65.65,0,0,1,0,1.3Z"/><path class="cls-3" d="M87.5,79.43h-8a.65.65,0,0,1,0-1.3h8a.65.65,0,0,1,0,1.3Z"/><path class="cls-3" d="M82.75,73.11H59.27a.65.65,0,0,1,0-1.3H82.75a.65.65,0,0,1,0,1.3Z"/><path class="cls-3" d="M75.18,79.43H59.27a.65.65,0,0,1,0-1.3H75.18a.65.65,0,0,1,0,1.3Z"/><path class="cls-3" d="M42.84,79.32h-.71a.65.65,0,0,1,0-1.3h.71a.65.65,0,0,1,0,1.3Z"/><path class="cls-3" d="M42.84,73h-.71a.65.65,0,0,1,0-1.3h.71a.65.65,0,0,1,0,1.3Z"/><path class="cls-3" d="M42.84,66.74h-.71a.65.65,0,0,1,0-1.3h.71a.65.65,0,0,1,0,1.3Z"/><path class="cls-3" d="M61.64,85.58H49.38a.65.65,0,0,1,0-1.3H61.64a.65.65,0,0,1,0,1.3Z"/><path class="cls-3" d="M73.91,85.58h-8a.65.65,0,0,1,0-1.3h8a.65.65,0,0,1,0,1.3Z"/><path class="cls-3" d="M82.75,91.84H59.27a.65.65,0,0,1,0-1.3H82.75a.65.65,0,0,1,0,1.3Z"/><path class="cls-3" d="M42.84,91.74h-.71a.65.65,0,0,1,0-1.3h.71a.65.65,0,0,1,0,1.3Z"/><path class="cls-3" d="M42.84,85.48h-.71a.65.65,0,0,1,0-1.3h.71a.65.65,0,0,1,0,1.3Z"/><path class="cls-4" d="M155.5,58.44v50.18a7.32,7.32,0,0,1-7.31,7.33H96.92a7.32,7.32,0,0,1-7.31-7.33V58.44h3.53v.42c0,1,1.46,1.76,3.29,1.76h51.89c1.81,0,3.29-.79,3.29-1.76v-.42Z"/><path class="cls-4" d="M151.61,58.44v.42c0,1-1.48,1.76-3.29,1.76H96.43c-1.83,0-3.29-.79-3.29-1.76v-.42Z"/><path class="cls-5" d="M151.61,57.73v1.14c0,1-1.48,1.76-3.29,1.76H96.43c-1.83,0-3.29-.79-3.29-1.76V57.73c0-1,1.46-1.76,3.29-1.76h51.89C150.13,56,151.61,56.76,151.61,57.73Z"/><path class="cls-4" d="M151.61,57.73v1.14c0,1-1.48,1.76-3.29,1.76H96.43c-1.83,0-3.29-.79-3.29-1.76V57.73c0-1,1.46-1.76,3.29-1.76h51.89C150.13,56,151.61,56.76,151.61,57.73Z"/><path class="cls-5" d="M151.79,53.64H93.32a3.71,3.71,0,0,0-3.71,3.72v2.38a3.71,3.71,0,0,0,3.71,3.72h58.47a3.72,3.72,0,0,0,3.71-3.72V57.36A3.72,3.72,0,0,0,151.79,53.64Zm-.18,5.22c0,1-1.48,1.76-3.29,1.76H96.43c-1.83,0-3.29-.79-3.29-1.76V57.73c0-1,1.46-1.76,3.29-1.76h51.89c1.81,0,3.29.79,3.29,1.76Z"/><g class="cls-6"><path class="cls-5" d="M155.5,58.44v1.3a3.72,3.72,0,0,1-3.71,3.72H93.31a3.71,3.71,0,0,1-3.71-3.72v-1.3h3.53v.42c0,1,1.46,1.76,3.29,1.76h51.89c1.81,0,3.29-.79,3.29-1.76v-.42Z"/></g><rect class="cls-7" x="93.14" y="63.46" width="58.65" height="44.87"/><path class="cls-5" d="M151.61,108.86v1.48c0,1.27-1.48,2.29-3.29,2.29H96.43c-1.83,0-3.29-1-3.29-2.29v-1.48c0-1.27,1.46-2.29,3.29-2.29h51.89C150.13,106.57,151.61,107.6,151.61,108.86Z"/><path class="cls-8" d="M111,124.21a1.62,1.62,0,0,1-1.62-1.63V103.12a1.62,1.62,0,1,1,3.24,0v19.47A1.62,1.62,0,0,1,111,124.21Z"/><path class="cls-9" d="M94.43,93.4A11,11,0,0,1,111,103.12,11,11,0,0,1,94.43,93.4Z"/><path class="cls-10" d="M94.43,93.4A11,11,0,0,1,111,103.12Z"/><path class="cls-9" d="M127.63,93.4a11,11,0,0,0-16.57,9.72,11,11,0,0,0,16.57-9.72Z"/><path class="cls-10" d="M127.63,93.4a11,11,0,0,0-16.57,9.72Z"/><path class="cls-11" d="M107.55,124.21h0a8.14,8.14,0,0,1,8.13-8.15,7,7,0,0,1,1,.08,1.93,1.93,0,0,0,1.6-.47,11.48,11.48,0,0,1,7.83-3.09,11.62,11.62,0,0,1,11.4,9.41,1.89,1.89,0,0,1-1.88,2.23Z"/><path class="cls-12" d="M106,124.21H70.13a1.85,1.85,0,0,1-1.85-2,19.87,19.87,0,0,1,39.55,0A1.85,1.85,0,0,1,106,124.21Z"/><path class="cls-13" d="M116.37,120.36a4.56,4.56,0,0,0-.86.08,1.63,1.63,0,0,1-1.66-.66,9.49,9.49,0,0,0-16.17,0,1.63,1.63,0,0,1-1.66.66,4.56,4.56,0,0,0-.86-.08c-2.94,0-5.41,2.39-6.14,5.65a1.62,1.62,0,0,0,1.57,2h30.35a1.62,1.62,0,0,0,1.57-2C121.78,122.75,119.3,120.36,116.37,120.36Z"/><circle class="cls-14" cx="96.35" cy="114.05" r="0.81"/><circle class="cls-14" cx="91.07" cy="109.27" r="0.81"/><circle class="cls-14" cx="83.56" cy="109.27" r="0.81"/><circle class="cls-14" cx="86.97" cy="114.64" r="0.81"/><circle class="cls-14" cx="79.94" cy="113.65" r="0.81"/><path class="cls-15" d="M133.12,124.21a2.39,2.39,0,0,1,2.39-2.39,2.36,2.36,0,0,1,.57.08,3.4,3.4,0,0,1,5.9,2.31Z"/><path class="cls-16" d="M138,120.86a3.4,3.4,0,0,0-1.9,1,2.36,2.36,0,0,0-.57-.08,2.39,2.39,0,0,0-2.39,2.39h7.63A3.41,3.41,0,0,0,138,120.86Z"/></svg>