<svg id="Layer_1" data-name="Layer 1" xmlns="http://www.w3.org/2000/svg" xmlns:xlink="http://www.w3.org/1999/xlink" viewBox="0 0 180 79"><defs><style>.cls-1{fill:#93bea7;}.cls-2{fill:#799987;}.cls-3{fill:#fff;}.cls-4{fill:#727175;}.cls-4,.cls-5,.cls-6{fill-rule:evenodd;}.cls-5{fill:#737276;}.cls-6{fill:#fefefe;}.cls-7{fill:#6e6d6e;}.cls-8{fill:#e00000;}.cls-9{fill:url(#linear-gradient);}.cls-10{opacity:0.7;}.cls-11{fill:url(#linear-gradient-2);}.cls-12{fill:#d40000;}.cls-13{fill:url(#linear-gradient-3);}.cls-14{fill:#960804;}.cls-15{fill:#ed0000;}.cls-16{fill:#f6000e;}.cls-17{fill:#8d0604;}.cls-18{fill:url(#linear-gradient-4);}.cls-19{fill:url(#linear-gradient-5);}.cls-20{fill:#fa0030;}</style><linearGradient id="linear-gradient" x1="-1141.39" y1="1409.29" x2="-1141.48" y2="1409.44" gradientTransform="matrix(57.94, 0, 0, -36.36, 66257.06, 51293.35)" gradientUnits="userSpaceOnUse"><stop offset="0" stop-color="#929192"/><stop offset="1" stop-color="#c7c7c7"/></linearGradient><linearGradient id="linear-gradient-2" x1="-1139.64" y1="1409.69" x2="-1139.61" y2="1409.71" gradientTransform="matrix(49.5, 0, 0, -31.37, 56552.09, 44263.07)" gradientUnits="userSpaceOnUse"><stop offset="0" stop-color="#d40000"/><stop offset="1" stop-color="#970704"/></linearGradient><linearGradient id="linear-gradient-3" x1="-1105.97" y1="1415.46" x2="-1105.95" y2="1415.48" gradientTransform="matrix(21.3, 0, 0, -18.8, 23683.95, 26652.97)" gradientUnits="userSpaceOnUse"><stop offset="0" stop-color="#970704"/><stop offset="1" stop-color="#d40000"/></linearGradient><linearGradient id="linear-gradient-4" x1="-1153.91" y1="1408.31" x2="-1153.89" y2="1408.37" gradientTransform="matrix(136.6, 0, 0, -27.3, 157765.23, 38463.33)" xlink:href="#linear-gradient-2"/><linearGradient id="linear-gradient-5" x1="-1117.67" y1="1405.41" x2="-1117.68" y2="1405.37" gradientTransform="matrix(27.3, 0, 0, -54.8, 30634.21, 77038.16)" xlink:href="#linear-gradient-2"/></defs><title>app logo 2</title><path id="Rectangle-2-Copy-4" class="cls-1" d="M2.5,0h175A2.5,2.5,0,0,1,180,2.5h0A2.5,2.5,0,0,1,177.5,5H2.5A2.5,2.5,0,0,1,0,2.5H0A2.5,2.5,0,0,1,2.5,0Z"/><path class="cls-2" d="M180,3V75a4,4,0,0,1-4,4H4a4,4,0,0,1-4-4V3H0A2.5,2.5,0,0,0,2.5,5h175A2.49,2.49,0,0,0,180,3Z"/><rect id="Rectangle-13-Copy-12" class="cls-3" x="5" y="10" width="171" height="64" rx="3" ry="3"/><path class="cls-4" d="M24.56,45.45l1.81-4.25c.24-.57.48-1.15.74-1.71a4,4,0,0,1,6.57-1.1c.35.34.51.25.81,0a5.07,5.07,0,0,1,4.93-1,3.18,3.18,0,0,1,1.52,1c.28.34.44.28.76,0a4.9,4.9,0,0,1,5.25-.85,3.78,3.78,0,0,1,2.42,3.64c0,2.24,0,4.49,0,6.73a1.77,1.77,0,0,1-2,1.91,1.74,1.74,0,0,1-1.56-1.9c0-1.84,0-3.69,0-5.53,0-.15,0-.3,0-.45a1.71,1.71,0,0,0-1.54-1.68,1.79,1.79,0,0,0-2.06,1.24,2.93,2.93,0,0,0-.08.84c0,1.83,0,3.66,0,5.48a1.81,1.81,0,0,1-1.31,1.94,1.72,1.72,0,0,1-2.22-1.41,4.5,4.5,0,0,1-.06-.75c0-1.84,0-3.69,0-5.53a1.64,1.64,0,0,0-.94-1.64,1.93,1.93,0,0,0-2.06.2,1.86,1.86,0,0,0-.67,1.62c0,1.9,0,3.81,0,5.71A1.72,1.72,0,0,1,33,49.83a1.75,1.75,0,0,1-1.69-2c0-2.23,0-4.46,0-6.69,0-.12,0-.24,0-.36a.5.5,0,0,0-.38-.54.49.49,0,0,0-.61.32L29.21,43c-.75,1.63-1.49,3.27-2.25,4.89a6.43,6.43,0,0,1-.58,1,2.22,2.22,0,0,1-3.64,0,10.23,10.23,0,0,1-1-2l-3.33-7.24a1.68,1.68,0,0,1,.77-2.4,1.72,1.72,0,0,1,2.38,1L24.35,45C24.4,45.12,24.46,45.24,24.56,45.45Z"/><path class="cls-5" d="M58.87,40.48,57.5,44.36,55.91,48.9c-.2.57-.49.82-1,.83a1,1,0,0,1-1.07-.78Q52,43.82,50.2,38.68a.87.87,0,0,1,.48-1.22.93.93,0,0,1,1.26.67q1.41,4,2.79,8.07l.22.62,1.29-3.72q.85-2.44,1.7-4.87c.23-.65.45-.82,1-.81s.78.21,1,.84l2.74,8,.22.61,1.37-3.92,1.65-4.75c.12-.35.29-.66.7-.73a.86.86,0,0,1,1,1.17c-.29.89-.63,1.76-.95,2.64L64,48.78l-.08.21a1.06,1.06,0,0,1-1,.75,1,1,0,0,1-1-.78c-.43-1.23-.85-2.47-1.28-3.7q-.77-2.23-1.55-4.45C59,40.69,59,40.55,58.87,40.48Z"/><path class="cls-5" d="M76.51,47.84a5.2,5.2,0,0,1-3,1.85,5.08,5.08,0,0,1-4.81-1.16A3.56,3.56,0,0,1,69.42,43a6.06,6.06,0,0,1,2.8-.79,12,12,0,0,1,3.88.38c.37.1.42,0,.41-.34a3,3,0,0,0-3-3.18,6.83,6.83,0,0,0-3.35.51.79.79,0,0,1-1.08-.41.75.75,0,0,1,.38-1A8,8,0,0,1,75.9,38a3.79,3.79,0,0,1,2.29,3.31A46.52,46.52,0,0,1,78.27,46c0,.92,0,1.84,0,2.76a.88.88,0,0,1-.77,1,.84.84,0,0,1-1-.85C76.5,48.58,76.51,48.27,76.51,47.84ZM73.13,43.5a4.6,4.6,0,0,0-2.64.66,2.2,2.2,0,0,0-.1,3.55,3.66,3.66,0,0,0,3.05.59,3.49,3.49,0,0,0,3-2.45,6.44,6.44,0,0,0,.09-1.46.4.4,0,0,0-.37-.49A14.61,14.61,0,0,0,73.13,43.5Z"/><path class="cls-5" d="M93.24,44.27c-1.32,0-2.65,0-4,0-.33,0-.41.09-.34.41A4,4,0,0,0,91.6,48a4.53,4.53,0,0,0,4.61-1,1,1,0,0,1,.74-.35.74.74,0,0,1,.68.5.76.76,0,0,1-.22.85,6.15,6.15,0,0,1-8.43.26,5.75,5.75,0,0,1-1.82-3.49,6.51,6.51,0,0,1,1.58-5.67A5.38,5.38,0,0,1,98,41.62a5.87,5.87,0,0,1,.21,1.63c0,.73-.28,1-1,1Zm-.6-1.36h2.67c1.23,0,1.23,0,.89-1.19A3.57,3.57,0,0,0,91.68,39a4.25,4.25,0,0,0-2.78,3.61c0,.3.17.25.34.25Z"/><path class="cls-4" d="M82.24,40.2a5.27,5.27,0,0,1,2.42-2.38,3.66,3.66,0,0,1,1.67-.4.84.84,0,0,1,.88.76.88.88,0,0,1-.69,1c-.22.05-.44.07-.66.13a4.65,4.65,0,0,0-3.57,4.22c-.19,1.72,0,3.44-.09,5.16a.9.9,0,0,1-1.1,1,.85.85,0,0,1-.7-.94c0-1.31,0-2.61,0-3.92q0-3.19,0-6.37c0-.64.35-1.06.87-1.07s.92.41.92,1.07,0,1.07,0,1.6C82.21,40.07,82.22,40.09,82.24,40.2Z"/><path class="cls-5" d="M101.3,38.88a1.48,1.48,0,1,1-3,0,1.48,1.48,0,0,1,1.49-1.51A1.45,1.45,0,0,1,101.3,38.88Zm-1.47-1.19a1.19,1.19,0,0,0-1.2,1.17,1.23,1.23,0,0,0,1.2,1.23A1.27,1.27,0,0,0,101,38.88,1.2,1.2,0,0,0,99.82,37.69Z"/><path class="cls-5" d="M99.7,38.13c.72,0,.89.26.6.84-.08.16,0,.22.07.31s.1.2,0,.27-.2,0-.27-.08l-.17-.21c-.14-.16-.29-.29-.33.07,0,.13,0,.25-.2.23s-.14-.16-.14-.28,0-.42,0-.62C99.21,38.28,99.28,38,99.7,38.13Zm.41.48c0-.14-.16-.18-.3-.18s-.21.05-.21.2.09.2.22.19S100.07,38.78,100.11,38.61Z"/><path class="cls-6" d="M100.11,38.61c0,.17-.15.21-.29.21s-.22,0-.22-.19.07-.2.21-.2S100.06,38.47,100.11,38.61Z"/><path class="cls-7" d="M115.13,61.34c0,3.11-1.44,4.15-2.67,4.15-1.44,0-2.61-1.32-2.61-4.13s1.32-4.15,2.69-4.15,2.59,1.34,2.59,4.13Zm-4,0c0,1.34.24,3.13,1.4,3.13s1.34-1.88,1.34-3.13-.24-3.13-1.36-3.13-1.38,1.9-1.38,3.13Z"/><path class="cls-7" d="M116.55,59.83c0-1.24,0-1.94-.06-2.51h1.14l.06,1h0a1.88,1.88,0,0,1,1.72-1.14c1.42,0,2.33,1.48,2.33,4.13,0,3-1.24,4.17-2.49,4.17a1.53,1.53,0,0,1-1.42-.94h0v4h-1.26V59.83Zm1.26,2.59a3.36,3.36,0,0,0,.06.66c.26,1.14.84,1.34,1.18,1.34,1.06,0,1.42-1.46,1.42-3.07s-.4-3.05-1.44-3.05c-.58,0-1.12.72-1.18,1.44a3,3,0,0,0,0,.62v2.07Z"/><path class="cls-7" d="M124.07,61.44c0,2.47,1,3,1.9,3a3,3,0,0,0,1.34-.3l.22.94a4,4,0,0,1-1.78.38c-1.94,0-2.93-1.58-2.93-4s1.12-4.21,2.73-4.21,2.29,1.74,2.29,3.53a6.81,6.81,0,0,1,0,.74h-3.73Zm2.53-.94c0-1.6-.58-2.31-1.2-2.31-.84,0-1.26,1.22-1.32,2.31Z"/><path class="cls-7" d="M129.22,59.39c0-.94,0-1.44-.06-2.07h1.12l.06,1h0a2,2,0,0,1,1.84-1.1c1.12,0,1.94.82,1.94,2.75v5.41h-1.28V60.19c0-1-.18-1.92-1.12-1.92-.54,0-1,.44-1.2,1.3a3.79,3.79,0,0,0-.06.74v5h-1.28v-6Z"/><path class="cls-8" d="M135.72,64a2.56,2.56,0,0,0,1.3.42,1.08,1.08,0,0,0,1.18-1.16c0-.62-.22-1-1-1.58-1-.66-1.62-1.36-1.62-2.27a2.15,2.15,0,0,1,2.21-2.23,2.73,2.73,0,0,1,1.44.42l-.34,1a1.79,1.79,0,0,0-1.08-.36,1,1,0,0,0-1,1c0,.54.2.84,1,1.38a2.93,2.93,0,0,1,1.66,2.43A2.25,2.25,0,0,1,137,65.45a2.73,2.73,0,0,1-1.58-.46l.34-1Z"/><path class="cls-8" d="M142.31,55.44v1.88h1.54v1h-1.54v4.79c0,1,.36,1.34.84,1.34a3.43,3.43,0,0,0,.52,0l.06,1a2.9,2.9,0,0,1-.94.14,1.6,1.6,0,0,1-1.26-.48c-.34-.36-.48-.92-.48-2V58.29h-1v-1h1V56l1.26-.54Z"/><path class="cls-8" d="M149.21,63.52a17.53,17.53,0,0,0,.08,1.84h-1.14l-.08-.84H148a1.8,1.8,0,0,1-1.62,1,2,2,0,0,1-1.9-2.29c0-2,1.62-2.91,3.43-2.93V60c0-1.08-.28-1.82-1.28-1.82a2.41,2.41,0,0,0-1.34.42l-.28-.9a3.55,3.55,0,0,1,1.88-.54c1.62,0,2.29,1,2.29,2.83v3.49ZM148,61.18c-.66,0-2.21.14-2.21,1.88,0,1.06.54,1.44,1,1.44s1-.42,1.18-1.22a1.81,1.81,0,0,0,.06-.46V61.18Z"/><path class="cls-8" d="M154.93,65.15a2.82,2.82,0,0,1-1.34.3c-1.76,0-2.93-1.42-2.93-4.07,0-2.31,1.16-4.19,3.17-4.19a2.52,2.52,0,0,1,1.14.26l-.24,1a2.11,2.11,0,0,0-.92-.22c-1.3,0-1.86,1.54-1.86,3.11,0,1.88.72,3,1.9,3a1.79,1.79,0,0,0,.92-.22l.16,1Z"/><path class="cls-8" d="M157.29,61h0a7.53,7.53,0,0,1,.44-.9l1.6-2.83h1.38l-2.13,3.39,2.33,4.65H159.5l-1.74-3.79-.46.74v3h-1.26V53.84h1.26V61Z"/><path class="cls-9" d="M120,42.73l-2.9.15c-.82.14-1.24.3-1,.58l6,6.24a1.14,1.14,0,0,0,.56.24,4,4,0,0,0,1.43,0l3.56-.53L120,42.73"/><polygon class="cls-10" points="119.43 45.94 123.14 49.65 123.21 49.72 123.35 49.58 123.28 49.51 119.57 45.8 119.5 45.73 119.36 45.87 119.43 45.94 119.43 45.94"/><path class="cls-11" d="M139.51,37.22v1.24a.55.55,0,0,1,0,.18.66.66,0,0,1-.14.32v0s-.06.1-.1.14a.87.87,0,0,1-.14.12s-.1.06-.14.1a.28.28,0,0,1-.12,0,1.06,1.06,0,0,1-.24.06L142.29,43h.2c.08,0,.16,0,.2,0l.2-.2a1.89,1.89,0,0,1,.2-.2.67.67,0,0,0,0-.2,1.89,1.89,0,0,1,.2-.2V42l-.18-1.26v0l5.39-.46,0-.06-3.59-3.52Z"/><path class="cls-12" d="M128.91,44.27l-3.67-3.65,13.36-1.18,3.77,3.63Z"/><path class="cls-13" d="M125.29,40.64a.75.75,0,0,1-.52-.12h0s-.1-.06-.14-.1l3.4,3.36.16.18,0,0,.06,0s0,0,0,0a0,0,0,0,1,0,0h0a.07.07,0,0,0,.06,0l.08,0a0,0,0,0,1,0,0h0l.06,0a.07.07,0,0,1,.06,0h.24l-3.61-3.54Z"/><path class="cls-14" d="M123.07,49.44s-.18-.16-.2-.2,0-.16,0-.2-.36-.64-.36-.66l-3.59-3.54V45s0,.06,0,.1,0,.1,0,.16a1.28,1.28,0,0,1,0,.14,1,1,0,0,0,.06.14l.06.12a.5.5,0,0,0,.08.14.28.28,0,0,1,.06.08l.12.14,1.84,1.83,1.84,1.83S123.11,49.48,123.07,49.44Z"/><path class="cls-14" d="M124.37,38.56l-5.43.46,0,5.85,3.75,3.77v-6l5.29-.52Z"/><path class="cls-15" d="M148.52,46.13A1.92,1.92,0,0,1,146.8,48l-22.55,2a1.56,1.56,0,0,1-1.72-1.56V42.59l5.43-.48v1.24a.81.81,0,0,0,.9.82L142.21,43a1,1,0,0,0,.9-1V40.78l5.41-.48Z"/><path class="cls-16" d="M148.48,30.45l0,8.59-5.43.48,0-8.59Z"/><path class="cls-14" d="M148.48,30.45l-3.59-3.54-5.41.48,0,8.59,3.59,3.54,0-8.59Z"/><path class="cls-16" d="M127.91,32.25l0,8.59-5.43.48,0-8.59Z"/><path class="cls-14" d="M127.91,32.25l-3.59-3.54-5.41.48,0,8.59,3.59,3.54,0-8.59Z"/><path class="cls-14" d="M143.09,29.65l-3.59-3.54V25l3.59,3.54Z"/><path class="cls-17" d="M143.09,28.51v-.06a.15.15,0,0,0,0-.08s0-.06,0-.08,0,0,0-.06,0-.06,0-.08,0,0,0-.06a.53.53,0,0,0-.1-.12l-3.59-3.54.1.12v0l.06.12a.07.07,0,0,0,0,0,.18.18,0,0,1,0,.1s0,.06,0,.08,0,.08,0,.12l3.59,3.54v-.06Z"/><path class="cls-18" d="M145.2,19.56c-.24-.24-.48-.48-.72-.7l-.06-.06,0,0-.06-.06a0,0,0,0,1,0,0s0,0,0,0l-.06,0h0l-.1-.06h0l-.06,0s0,0,0,0l-.1,0-.06,0h-.06a.07.07,0,0,1-.06,0h-.46l-22.53,1.92,3.59,3.54,22.57-2h.32a.18.18,0,0,1,.1,0,.07.07,0,0,1,.06,0h0l.14,0h0s.08,0,.1,0l.06,0s.06,0,.08,0a0,0,0,0,1,0,0l.06,0,.06,0,0,0s.08.06.1.1c-.92-.92-1.88-1.86-2.84-2.8Z"/><path class="cls-19" d="M120.34,20.42a1.57,1.57,0,0,0-.28.1s-.06,0-.08,0h0a.83.83,0,0,0-.22.14s0,0,0,0l-.08.06-.1.1,0,0,0,0,0,0-.08.08-.06.08s0,0,0,0l0,0a0,0,0,0,1,0,0,630283310189.08,630283310189.08,0,0,1-.08.16s0,.06,0,.08,0,.06,0,.08,0,.06,0,.1,0,.06,0,.1v.1s0,.08,0,.12v.14l0,5.69,3.59,3.54,0-5.65a2.21,2.21,0,0,1,0-.36s.06-.22.1-.32,0,0,0,0a.52.52,0,0,1,.1-.16,1.76,1.76,0,0,1,.2-.2,1.89,1.89,0,0,1,.2-.2c.08-.06.16-.1.2-.2s.38-.18.4-.2a6,6,0,0,0,.6,0l-3.79-3.65Z"/><path class="cls-20" d="M124.27,23.9l22.55-2a1.56,1.56,0,0,1,1.72,1.56l0,5.67-5.41.46V28.55a.81.81,0,0,0-.9-.82l-13.36,1.16a1,1,0,0,0-.9,1V31l-5.43.48,0-5.67a1.94,1.94,0,0,1,1.74-1.86Z"/><path class="cls-20" d="M124.27,23.9l22.55-2a1.56,1.56,0,0,1,1.72,1.56l0,5.67-5.41.46V28.55a.81.81,0,0,0-.9-.82l-13.36,1.16a1,1,0,0,0-.9,1V31l-5.43.48,0-5.67a1.94,1.94,0,0,1,1.74-1.86Z"/></svg>