<svg xmlns="http://www.w3.org/2000/svg" viewBox="0 0 1440 81.51" xml:space="preserve" preserveAspectRatio="xMinYMax slice"><defs><style>.cls-1,.cls-2{fill:#87b09a;}.cls-1{opacity:0.73;}</style></defs><title>Asset 3</title><g id="Layer_2" data-name="Layer 2"><g id="lines"><path id="hill-back" class="cls-1" d="M1440,51.07c-199.94,0-220-16.66-410.88-22.8s-261.68,26.5-455.74,22.8S189.94,5.64,0,4.64v76.2H1440Z"/><path id="hill-middle" class="cls-1" d="M0,68.18c32.3,0,61-1.32,87.06-3.53,135-11.47,196.56-47,300.68-47,124.19,0,140.37,37.25,412.25,38.17S1138-27.06,1440,9V81.51H0Z"/><path id="hill-front" class="cls-2" d="M0,69.87c200,0,308.09-8.6,411-8.75s183.91,8.49,455.86,8.75S1250,52.38,1440,52V81.16H0Z"/></g></g></svg>