<svg id="Layer_1" data-name="Layer 1" xmlns="http://www.w3.org/2000/svg" viewBox="0 0 186 128"><defs><style>.cls-1{fill:#4296b4;}.cls-2{fill:#80c4d6;}.cls-3{fill:#e2f0f7;}.cls-4{fill:#4fc497;}.cls-5{fill:#eefaff;}.cls-6{fill:#fff;}.cls-7,.cls-9{fill:#87af9a;}.cls-8{fill:#759684;}.cls-8,.cls-9{fill-rule:evenodd;}.cls-10{opacity:0.42;}</style></defs><title>build icon 2</title><path class="cls-1" d="M84.38,66.55V128H80.53V69.23c-.1-5.91-1.67-11.67-5.1-16.15l-.56-.73a21.68,21.68,0,0,0-17.36-8.9h0a21.75,21.75,0,0,0-17.27,9.11,27.65,27.65,0,0,0-5.36,16.54v54.81A5.17,5.17,0,0,0,36.73,128h-.57A5.15,5.15,0,0,1,31,122.86V66.41a26.3,26.3,0,0,1,6.27-17A26.58,26.58,0,0,1,57.45,40h0a26.59,26.59,0,0,1,20.28,9.15l.65.76A25.79,25.79,0,0,1,84.38,66.55Z"/><path class="cls-2" d="M80.53,69.23V128H69.3V94.68a3.76,3.76,0,0,0-3.78-3.75H49.14a3.76,3.76,0,0,0-3.78,3.75V128H34.85V69.11a27.65,27.65,0,0,1,5.36-16.54,21.75,21.75,0,0,1,17.27-9.11h0a21.68,21.68,0,0,1,17.36,8.9l.56.73C78.86,57.56,80.43,63.32,80.53,69.23Z"/><path class="cls-3" d="M69.26,128V94.68a3.76,3.76,0,0,0-3.78-3.75H49.1a3.76,3.76,0,0,0-3.78,3.75V128Z"/><path class="cls-3" d="M149.5,128H84.38V66.5H155v56A5.48,5.48,0,0,1,149.5,128Z"/><path class="cls-4" d="M57.44,40h0Z"/><path class="cls-5" d="M77.91,49.33a26.29,26.29,0,0,1,6.46,17.2l70.62.05a26.29,26.29,0,0,0-6.46-17.25l-.15-.17A26.58,26.58,0,0,0,128,40H57.49a26.58,26.58,0,0,1,20.27,9.16Z"/><path class="cls-6" d="M40.76,83l.44-.64a3.52,3.52,0,0,0,2.1.64c.76,0,1.12-.3,1.12-.67s-.2-.56-1.44-.82-1.92-.71-1.92-1.45.74-1.43,2.11-1.43a3.79,3.79,0,0,1,2,.64l-.46.62a3,3,0,0,0-1.64-.5c-.75,0-1,.28-1,.62s.39.54,1.35.74c1.61.35,2,.76,2,1.52s-.81,1.49-2.26,1.49A4.39,4.39,0,0,1,40.76,83Z"/><path class="cls-6" d="M48.13,81.66V79.5H46.78v-.75l1.39,0,.13-1.55h.83V78.7h2.33v.8H49.13v2.16c0,.84.29,1.25,1.19,1.25a3.06,3.06,0,0,0,1.13-.21l.2.73a4.65,4.65,0,0,1-1.56.28C48.63,83.72,48.13,82.89,48.13,81.66Z"/><path class="cls-6" d="M52.92,81.74v-3h1v2.9c0,.86.28,1.26,1,1.26a1.73,1.73,0,0,0,1.38-.81V78.7h1V83.6h-.82l-.08-.81h0a2.33,2.33,0,0,1-1.78.93C53.45,83.72,52.92,83,52.92,81.74Z"/><path class="cls-6" d="M58.8,81.15A2.36,2.36,0,0,1,61,78.58a1.93,1.93,0,0,1,1.41.61h0l-.05-.87V76.5h1V83.6h-.82L62.5,83h0a2.31,2.31,0,0,1-1.54.72C59.64,83.72,58.8,82.78,58.8,81.15Zm3.6,1.08V79.91a1.64,1.64,0,0,0-1.17-.5c-.77,0-1.4.67-1.4,1.73s.49,1.75,1.33,1.75A1.64,1.64,0,0,0,62.4,82.24Z"/><path class="cls-6" d="M67.37,79.5H65.16v-.8h3.21V83.6h-1ZM67,77a.75.75,0,1,1,.75.71A.71.71,0,0,1,67,77Z"/><path class="cls-6" d="M70.89,81.15a2.46,2.46,0,1,1,2.46,2.56A2.43,2.43,0,0,1,70.89,81.15Zm3.89,0c0-1.05-.55-1.75-1.43-1.75s-1.43.7-1.43,1.75.55,1.75,1.43,1.75S74.79,82.21,74.79,81.15Z"/><path class="cls-7" d="M63.27,128a.7.7,0,0,1-.7-.69v-7a.7.7,0,0,1,1.4,0v7A.7.7,0,0,1,63.27,128Z"/><path class="cls-8" d="M57.29,116.86a3.83,3.83,0,0,1,4,0,3.77,3.77,0,0,1,2,3.48,3.83,3.83,0,0,1-4,0A3.77,3.77,0,0,1,57.29,116.86Z"/><path class="cls-9" d="M57.29,116.86a3.83,3.83,0,0,1,4,0,3.77,3.77,0,0,1,2,3.48Z"/><path class="cls-8" d="M69.28,116.86a3.83,3.83,0,0,0-4,0,3.77,3.77,0,0,0-2,3.48,3.83,3.83,0,0,0,4,0A3.77,3.77,0,0,0,69.28,116.86Z"/><path class="cls-9" d="M69.28,116.86a3.83,3.83,0,0,0-4,0,3.77,3.77,0,0,0-2,3.48Z"/><g class="cls-10"><path class="cls-7" d="M107.72,128a.7.7,0,0,1-.7-.69v-7a.7.7,0,0,1,1.4,0v7A.7.7,0,0,1,107.72,128Z"/><path class="cls-8" d="M101.74,116.86a3.83,3.83,0,0,1,4,0,3.77,3.77,0,0,1,2,3.48,3.83,3.83,0,0,1-4,0A3.77,3.77,0,0,1,101.74,116.86Z"/><path class="cls-9" d="M101.74,116.86a3.83,3.83,0,0,1,4,0,3.77,3.77,0,0,1,2,3.48Z"/><path class="cls-8" d="M113.72,116.86a3.83,3.83,0,0,0-4,0,3.77,3.77,0,0,0-2,3.48,3.83,3.83,0,0,0,4,0A3.77,3.77,0,0,0,113.72,116.86Z"/><path class="cls-9" d="M113.72,116.86a3.83,3.83,0,0,0-4,0,3.77,3.77,0,0,0-2,3.48Z"/><path class="cls-7" d="M99.33,128a.7.7,0,0,1-.7-.69V116.51a.7.7,0,0,1,1.4,0v10.77A.7.7,0,0,1,99.33,128Z"/><path class="cls-8" d="M90.07,111.14a5.93,5.93,0,0,1,6.22,0,5.84,5.84,0,0,1,3,5.39,5.93,5.93,0,0,1-6.22,0A5.84,5.84,0,0,1,90.07,111.14Z"/><path class="cls-9" d="M90.07,111.14a5.93,5.93,0,0,1,6.22,0,5.84,5.84,0,0,1,3,5.39Z"/><path class="cls-8" d="M108.62,111.14a5.93,5.93,0,0,0-6.22,0,5.84,5.84,0,0,0-3,5.39,5.93,5.93,0,0,0,6.22,0A5.84,5.84,0,0,0,108.62,111.14Z"/><path class="cls-9" d="M108.62,111.14a5.93,5.93,0,0,0-6.22,0,5.84,5.84,0,0,0-3,5.39Z"/><path class="cls-7" d="M130.33,128a.7.7,0,0,1-.7-.69v-7a.7.7,0,0,1,1.4,0v7A.7.7,0,0,1,130.33,128Z"/><path class="cls-8" d="M124.35,116.86a3.83,3.83,0,0,1,4,0,3.77,3.77,0,0,1,2,3.48,3.83,3.83,0,0,1-4,0A3.77,3.77,0,0,1,124.35,116.86Z"/><path class="cls-9" d="M124.35,116.86a3.83,3.83,0,0,1,4,0,3.77,3.77,0,0,1,2,3.48Z"/><path class="cls-8" d="M136.33,116.86a3.83,3.83,0,0,0-4,0,3.77,3.77,0,0,0-2,3.48,3.83,3.83,0,0,0,4,0A3.77,3.77,0,0,0,136.33,116.86Z"/><path class="cls-9" d="M136.33,116.86a3.83,3.83,0,0,0-4,0,3.77,3.77,0,0,0-2,3.48Z"/><path class="cls-7" d="M120.19,128a.7.7,0,0,1-.7-.69V116.51a.7.7,0,0,1,1.4,0v10.77A.7.7,0,0,1,120.19,128Z"/><path class="cls-8" d="M110.93,111.14a5.93,5.93,0,0,1,6.22,0,5.84,5.84,0,0,1,3,5.39,5.93,5.93,0,0,1-6.22,0A5.84,5.84,0,0,1,110.93,111.14Z"/><path class="cls-9" d="M110.93,111.14a5.93,5.93,0,0,1,6.22,0,5.84,5.84,0,0,1,3,5.39Z"/><path class="cls-8" d="M129.48,111.14a5.93,5.93,0,0,0-6.22,0,5.84,5.84,0,0,0-3,5.39,5.93,5.93,0,0,0,6.22,0A5.84,5.84,0,0,0,129.48,111.14Z"/><path class="cls-9" d="M129.48,111.14a5.93,5.93,0,0,0-6.22,0,5.84,5.84,0,0,0-3,5.39Z"/></g></svg>