<svg id="Layer_1" data-name="Layer 1" xmlns="http://www.w3.org/2000/svg" viewBox="0 0 186 128"><defs><style>.cls-1{fill:#4296b4;}.cls-2{fill:#80c4d6;}.cls-3{fill:#fff;}.cls-4{fill:#e2f0f7;}.cls-5,.cls-7{fill:#f3fcff;}.cls-6{opacity:0.5;}.cls-7{opacity:0.34;}.cls-10,.cls-8{fill:#87af9a;}.cls-15,.cls-9{fill:#759684;}.cls-10,.cls-12,.cls-9{fill-rule:evenodd;}.cls-11,.cls-12{fill:#847264;}.cls-13{fill:#9b8676;}.cls-14{fill:#bfa797;}.cls-16{fill:#87b09a;}</style></defs><title>build icon 1</title><rect class="cls-1" x="31" y="33" width="71.38" height="95" rx="2.98" ry="2.98"/><rect class="cls-2" x="34.83" y="44.02" width="63.39" height="79.5"/><ellipse class="cls-2" cx="37.3" cy="38.58" rx="2.18" ry="2.21"/><ellipse class="cls-2" cx="43.83" cy="38.58" rx="2.18" ry="2.21"/><path class="cls-3" d="M43.51,55.41h.89l.09.67h0a2.71,2.71,0,0,1,1.79-.8c1.42,0,2.21,1.1,2.21,2.78,0,1.87-1.16,3-2.42,3a2.36,2.36,0,0,1-1.53-.67h0l.05,1v1.79H43.51Zm3.9,2.66c0-1.14-.42-1.87-1.39-1.87a2,2,0,0,0-1.42.74v2.58a2,2,0,0,0,1.3.57C46.75,60.1,47.4,59.37,47.4,58.07Z"/><path class="cls-3" d="M51.74,59V53.83H50V53h2.85V59a.94.94,0,0,0,1,1.07,2.43,2.43,0,0,0,1-.23l.26.83a3.61,3.61,0,0,1-1.49.31C52.39,61,51.74,60.29,51.74,59Z"/><path class="cls-3" d="M56.59,59.44c0-1.23,1.09-1.82,3.8-2A1.18,1.18,0,0,0,59,56.18a3.72,3.72,0,0,0-1.83.61L56.81,56a4.8,4.8,0,0,1,2.42-.77,2.06,2.06,0,0,1,2.25,2.31v3.29h-.89l-.09-.7h0a3.54,3.54,0,0,1-2.06.84A1.63,1.63,0,0,1,56.59,59.44Zm3.8,0v-1.3c-2.11.17-2.74.59-2.74,1.25s.48.77,1.07.77A2.65,2.65,0,0,0,60.39,59.4Z"/><path class="cls-3" d="M63.33,55.41h.89l.09.88h0a2.69,2.69,0,0,1,2-1c1.25,0,1.83.79,1.83,2.21v3.39H67.07V57.64c0-1-.31-1.4-1.12-1.4a2.08,2.08,0,0,0-1.53.87v3.77H63.33Z"/><path class="cls-3" d="M71.28,60a1,1,0,1,1,1,1A1,1,0,0,1,71.28,60Z"/><path class="cls-3" d="M76.31,60.16l.48-.72a3.79,3.79,0,0,0,2.29.72c.83,0,1.22-.34,1.22-.75s-.22-.63-1.57-.92-2.09-.79-2.09-1.62.8-1.6,2.3-1.6a4.07,4.07,0,0,1,2.2.72l-.51.69a3.22,3.22,0,0,0-1.79-.56c-.82,0-1.11.31-1.11.69s.43.6,1.48.83c1.76.39,2.2.85,2.2,1.7S80.53,61,78.94,61A4.71,4.71,0,0,1,76.31,60.16Z"/><path class="cls-3" d="M83.15,53h1.09v2.1l-.07,1.23h0a2.61,2.61,0,0,1,1.95-1c1.25,0,1.83.79,1.83,2.21v3.39H86.9V57.64c0-1-.31-1.4-1.12-1.4a2.08,2.08,0,0,0-1.53.87v3.77H83.15Z"/><path class="cls-3" d="M61.89,77H49.73a.65.65,0,0,1,0-1.31H61.89a.65.65,0,0,1,0,1.31Z"/><path class="cls-3" d="M74.06,77H66.15a.65.65,0,0,1,0-1.31h7.91a.65.65,0,0,1,0,1.31Z"/><path class="cls-3" d="M87.54,89.68H79.63a.65.65,0,0,1,0-1.31h7.91a.65.65,0,0,1,0,1.31Z"/><path class="cls-3" d="M82.83,83.34H59.54a.65.65,0,0,1,0-1.31H82.83a.65.65,0,0,1,0,1.31Z"/><path class="cls-3" d="M75.32,89.68H59.54a.65.65,0,0,1,0-1.31H75.32a.65.65,0,0,1,0,1.31Z"/><path class="cls-3" d="M43.24,89.58h-.71a.65.65,0,0,1,0-1.31h.71a.65.65,0,0,1,0,1.31Z"/><path class="cls-3" d="M43.24,83.23h-.71a.65.65,0,0,1,0-1.31h.71a.65.65,0,0,1,0,1.31Z"/><path class="cls-3" d="M43.24,76.94h-.71a.65.65,0,0,1,0-1.31h.71a.65.65,0,0,1,0,1.31Z"/><path class="cls-3" d="M61.89,95.87H49.73a.65.65,0,0,1,0-1.31H61.89a.65.65,0,0,1,0,1.31Z"/><path class="cls-3" d="M74.06,95.87H66.15a.65.65,0,0,1,0-1.31h7.91a.65.65,0,0,1,0,1.31Z"/><path class="cls-3" d="M82.83,102.16H59.54a.65.65,0,0,1,0-1.31H82.83a.65.65,0,0,1,0,1.31Z"/><path class="cls-3" d="M43.24,102.05h-.71a.65.65,0,0,1,0-1.31h.71a.65.65,0,0,1,0,1.31Z"/><path class="cls-3" d="M43.24,95.76h-.71a.65.65,0,0,1,0-1.31h.71a.65.65,0,0,1,0,1.31Z"/><path class="cls-4" d="M155,70.22v50.41a7.31,7.31,0,0,1-7.25,7.36H96.89a7.31,7.31,0,0,1-7.25-7.36V70.22h3.5v.42c0,1,1.45,1.77,3.26,1.77h51.48c1.79,0,3.26-.79,3.26-1.77v-.42Z"/><path class="cls-4" d="M151.14,70.22v.42c0,1-1.47,1.77-3.26,1.77H96.4c-1.81,0-3.26-.79-3.26-1.77v-.42Z"/><path class="cls-5" d="M151.14,69.51v1.14c0,1-1.47,1.77-3.26,1.77H96.4c-1.81,0-3.26-.79-3.26-1.77V69.51c0-1,1.45-1.77,3.26-1.77h51.48C149.67,67.74,151.14,68.53,151.14,69.51Z"/><path class="cls-4" d="M151.14,69.51v1.14c0,1-1.47,1.77-3.26,1.77H96.4c-1.81,0-3.26-.79-3.26-1.77V69.51c0-1,1.45-1.77,3.26-1.77h51.48C149.67,67.74,151.14,68.53,151.14,69.51Z"/><path class="cls-5" d="M151.32,65.4h-58a3.7,3.7,0,0,0-3.68,3.74v2.39a3.7,3.7,0,0,0,3.68,3.74h58A3.71,3.71,0,0,0,155,71.53V69.14A3.71,3.71,0,0,0,151.32,65.4Zm-.18,5.25c0,1-1.47,1.77-3.26,1.77H96.4c-1.81,0-3.26-.79-3.26-1.77V69.51c0-1,1.45-1.77,3.26-1.77h51.48c1.79,0,3.26.79,3.26,1.77Z"/><g class="cls-6"><path class="cls-5" d="M155,70.22v1.31a3.71,3.71,0,0,1-3.68,3.74h-58a3.7,3.7,0,0,1-3.68-3.74V70.22h3.5v.42c0,1,1.45,1.77,3.26,1.77h51.48c1.79,0,3.26-.79,3.26-1.77v-.42Z"/></g><rect class="cls-7" x="93.14" y="75.27" width="58.18" height="45.08"/><path class="cls-5" d="M151.14,120.87v1.49c0,1.27-1.47,2.3-3.26,2.3H96.4c-1.81,0-3.26-1-3.26-2.3v-1.49c0-1.27,1.45-2.3,3.26-2.3h51.48C149.67,118.57,151.14,119.6,151.14,120.87Z"/><path class="cls-8" d="M110.86,127.59a1.62,1.62,0,0,1-1.61-1.63V106.4a1.61,1.61,0,1,1,3.22,0V126A1.62,1.62,0,0,1,110.86,127.59Z"/><path class="cls-9" d="M94.42,96.64a10.33,10.33,0,0,1,11,0,10.66,10.66,0,0,1,5.39,9.79,10.33,10.33,0,0,1-11,0A10.66,10.66,0,0,1,94.42,96.64Z"/><path class="cls-10" d="M94.42,96.64a10.33,10.33,0,0,1,11,0,10.66,10.66,0,0,1,5.39,9.79Z"/><path class="cls-9" d="M127.35,96.64a10.33,10.33,0,0,0-11,0,10.66,10.66,0,0,0-5.39,9.79,10.33,10.33,0,0,0,11,0A10.66,10.66,0,0,0,127.35,96.64Z"/><path class="cls-10" d="M127.35,96.64a10.33,10.33,0,0,0-11,0,10.66,10.66,0,0,0-5.39,9.79Z"/><path class="cls-11" d="M107.43,128h0a8.12,8.12,0,0,1,8.06-8.18,6.9,6.9,0,0,1,1,.08,1.9,1.9,0,0,0,1.59-.48,11.31,11.31,0,0,1,7.77-3.11,11.57,11.57,0,0,1,11.3,9.46A1.9,1.9,0,0,1,135.3,128Z"/><path class="cls-12" d="M105.87,128H70.32a1.85,1.85,0,0,1-1.84-2,19.69,19.69,0,0,1,39.23,0A1.85,1.85,0,0,1,105.87,128Z"/><path class="cls-13" d="M116.18,120.32a4.47,4.47,0,0,0-.85.08,1.61,1.61,0,0,1-1.64-.66,9.35,9.35,0,0,0-16,0,1.61,1.61,0,0,1-1.64.66,4.47,4.47,0,0,0-.85-.08c-2.92,0-5.37,2.4-6.09,5.67a1.63,1.63,0,0,0,1.56,2h30.11a1.63,1.63,0,0,0,1.56-2C121.55,122.73,119.09,120.32,116.18,120.32Z"/><ellipse class="cls-14" cx="96.32" cy="117.38" rx="0.8" ry="0.81"/><ellipse class="cls-14" cx="91.08" cy="112.57" rx="0.8" ry="0.81"/><ellipse class="cls-14" cx="83.64" cy="112.57" rx="0.8" ry="0.81"/><ellipse class="cls-14" cx="87.02" cy="117.97" rx="0.8" ry="0.81"/><ellipse class="cls-14" cx="80.04" cy="116.97" rx="0.8" ry="0.81"/><path class="cls-15" d="M132.8,128a2.38,2.38,0,0,1,2.37-2.4,2.31,2.31,0,0,1,.57.08,3.34,3.34,0,0,1,2.47-1.11,3.41,3.41,0,0,1,3.38,3.43Z"/><path class="cls-16" d="M137.61,124.63a3.36,3.36,0,0,0-1.88,1,2.32,2.32,0,0,0-.57-.08,2.38,2.38,0,0,0-2.37,2.4h7.57A3.42,3.42,0,0,0,137.61,124.63Z"/></svg>