<svg id="Layer_1" data-name="Layer 1" xmlns="http://www.w3.org/2000/svg" xmlns:xlink="http://www.w3.org/1999/xlink" viewBox="0 0 180 79"><defs><style>.cls-1{fill:#93bea7;}.cls-2{fill:#799987;}.cls-3{fill:#fff;}.cls-4{fill:#323a43;}.cls-5{fill:url(#linear-gradient);}.cls-6{fill:#326ce5;}.cls-7{fill:#326de5;}.cls-8{fill:#040404;}.cls-9{fill:#0f1417;}.cls-10{fill:#008bcb;}.cls-11{fill:#6b97a4;}.cls-12{fill:#9ba9c2;}.cls-13{fill:#858588;}.cls-14{fill:#032a52;}.cls-15{fill:#012951;}.cls-16{fill:#181c23;}.cls-17{fill:#10262d;}.cls-18{fill:#272a84;}.cls-19{fill:#f0f0f0;}.cls-20{fill:#6ca4ff;}.cls-21{fill:#00c9ff;}.cls-22{fill:#cbdffb;}.cls-23{fill:#ccdefa;}.cls-24{fill:#cddffb;}.cls-25{fill:#6ca4fd;}.cls-26{fill:#008bcd;}.cls-27{fill:#6bddfa;}.cls-28{fill:#0091d2;}.cls-29{fill:#3676cb;}.cls-30{fill:#00a4e1;}.cls-31{fill:#00c2db;}.cls-32{fill:#fdfdfd;}.cls-33{fill:#f7f6f6;}.cls-34{fill:#184295;}.cls-35{fill:#0086ca;}</style><linearGradient id="linear-gradient" x1="-291.42" y1="1406.28" x2="-291.15" y2="1406.28" gradientTransform="matrix(62.26, 0, 0, -45.43, 18162.34, 63917.53)" gradientUnits="userSpaceOnUse"><stop offset="0" stop-color="#9351e5"/><stop offset="1" stop-color="#ef468b"/></linearGradient></defs><title>container logo 1</title><path id="Rectangle-2-Copy-4" class="cls-1" d="M2.5,0h175A2.5,2.5,0,0,1,180,2.5h0A2.5,2.5,0,0,1,177.5,5H2.5A2.5,2.5,0,0,1,0,2.5H0A2.5,2.5,0,0,1,2.5,0Z"/><path class="cls-2" d="M180,3V75a4,4,0,0,1-4,4H4a4,4,0,0,1-4-4V3H0A2.5,2.5,0,0,0,2.5,5h175A2.49,2.49,0,0,0,180,3Z"/><rect id="Rectangle-13-Copy-12" class="cls-3" x="5" y="10" width="171" height="64" rx="3" ry="3"/><g id="Logos"><g id="mesosphere"><g id="Logo"><path id="Mesosphere-2" data-name="Mesosphere" class="cls-4" d="M108.28,25.73v3.07h3.16v.71h-3.16v3.06h3.9v.71h-4.65V25h4.65v.71Zm-5.34,4,2.24,3.52h-.86l-2.24-3.52h-1v3.52h-.74V25h2.62a2,2,0,0,1,.79.16,2,2,0,0,1,1.08,1.08,2,2,0,0,1,.16.79v.67a2,2,0,0,1-.16.79,2,2,0,0,1-1.08,1.08,2,2,0,0,1-.79.16Zm0-.71a1.28,1.28,0,0,0,.52-.1,1.31,1.31,0,0,0,.42-.29,1.37,1.37,0,0,0,.28-.42,1.28,1.28,0,0,0,.1-.52v-.67a1.28,1.28,0,0,0-.1-.52,1.37,1.37,0,0,0-.28-.42,1.31,1.31,0,0,0-.42-.29,1.28,1.28,0,0,0-.52-.1h-1.84V29Zm-9.58,4.23H98v-.71h-3.9V29.5h3.16v-.71H94.07V25.73H98V25H93.33v8.26Zm-3.68-4.48H86.49V25h-.74v8.26h.74V29.5h3.16v3.77h.74V25h-.74v3.78Zm-6.42-2.54a2,2,0,0,1,.16.79v1a2,2,0,0,1-.16.79,2,2,0,0,1-1.08,1.08,2,2,0,0,1-.79.16H79.48v3.17h-.74V25h2.61a2,2,0,0,1,.79.16,2,2,0,0,1,1.08,1.08Zm-.58.79a1.28,1.28,0,0,0-.1-.52,1.35,1.35,0,0,0-.71-.7,1.28,1.28,0,0,0-.52-.1H79.48v3.67h1.84a1.28,1.28,0,0,0,.52-.1,1.38,1.38,0,0,0,.42-.28,1.31,1.31,0,0,0,.29-.42,1.28,1.28,0,0,0,.1-.52v-1Zm-7.05,2.54a2.71,2.71,0,0,0-.62-.43q-.35-.18-.72-.32l-.72-.29a3.13,3.13,0,0,1-.62-.33,1.56,1.56,0,0,1-.44-.46,1.25,1.25,0,0,1-.17-.67v-.16a1.28,1.28,0,0,1,.1-.52,1.31,1.31,0,0,1,.28-.42,1.37,1.37,0,0,1,.42-.28,1.28,1.28,0,0,1,.52-.1h.46a1.28,1.28,0,0,1,.52.1,1.33,1.33,0,0,1,.7.7,1.28,1.28,0,0,1,.1.52v.33h.74v-.34a2,2,0,0,0-.16-.79,2,2,0,0,0-1.08-1.08,2,2,0,0,0-.79-.16h-.53a2,2,0,0,0-.79.16,2,2,0,0,0-1.08,1.08,2,2,0,0,0-.16.79v.16a2.13,2.13,0,0,0,.17.89,1.88,1.88,0,0,0,.44.61,2.61,2.61,0,0,0,.62.42q.35.17.72.31l.72.28a2.87,2.87,0,0,1,.62.34,1.57,1.57,0,0,1,.44.48,1.37,1.37,0,0,1,.17.71v.25a1.19,1.19,0,0,1-.11.52,1.4,1.4,0,0,1-.3.42,1.43,1.43,0,0,1-.44.28,1.34,1.34,0,0,1-.52.1h-.52a1.37,1.37,0,0,1-.53-.1,1.42,1.42,0,0,1-.44-.28,1.4,1.4,0,0,1-.3-.42,1.2,1.2,0,0,1-.11-.52v-.45h-.74v.45a1.86,1.86,0,0,0,.17.79,2.12,2.12,0,0,0,1.12,1.08,2,2,0,0,0,.8.16h.59a2,2,0,0,0,.8-.16A2.12,2.12,0,0,0,76,32.15a1.86,1.86,0,0,0,.17-.79v-.25a2.17,2.17,0,0,0-.17-.9,1.92,1.92,0,0,0-.44-.62Zm-6.68-3.45a2,2,0,0,1,.16.79v4.43a2,2,0,0,1-.16.79,2,2,0,0,1-1.08,1.08,2,2,0,0,1-.79.16h-.59a2,2,0,0,1-.79-.16,2,2,0,0,1-1.08-1.08,2,2,0,0,1-.16-.79V26.93a2,2,0,0,1,.16-.79,2,2,0,0,1,1.08-1.08,2,2,0,0,1,.79-.16H67a2,2,0,0,1,.79.16,2,2,0,0,1,1.08,1.08Zm-.58.79a1.28,1.28,0,0,0-.1-.52,1.33,1.33,0,0,0-.7-.7,1.28,1.28,0,0,0-.52-.1h-.52a1.28,1.28,0,0,0-.52.1,1.37,1.37,0,0,0-.42.28,1.31,1.31,0,0,0-.28.42,1.28,1.28,0,0,0-.1.52v4.43a1.28,1.28,0,0,0,.1.52,1.34,1.34,0,0,0,.71.71,1.28,1.28,0,0,0,.52.1H67a1.28,1.28,0,0,0,.52-.1,1.32,1.32,0,0,0,.42-.28,1.38,1.38,0,0,0,.28-.42,1.28,1.28,0,0,0,.1-.52V26.93Zm-6.93,2.66a2.71,2.71,0,0,0-.62-.43q-.35-.18-.72-.32l-.72-.29a3.14,3.14,0,0,1-.62-.33,1.56,1.56,0,0,1-.44-.46,1.25,1.25,0,0,1-.17-.67v-.16a1.28,1.28,0,0,1,.1-.52,1.31,1.31,0,0,1,.29-.42,1.37,1.37,0,0,1,.42-.28,1.28,1.28,0,0,1,.52-.1h.46a1.28,1.28,0,0,1,.52.1,1.33,1.33,0,0,1,.7.7,1.28,1.28,0,0,1,.1.52v.33h.74v-.34a2,2,0,0,0-.16-.79,2,2,0,0,0-1.08-1.08,2,2,0,0,0-.79-.16h-.53a2,2,0,0,0-.79.16,2,2,0,0,0-1.08,1.08,2,2,0,0,0-.16.79v.16a2.13,2.13,0,0,0,.17.89,1.88,1.88,0,0,0,.44.61,2.61,2.61,0,0,0,.62.42q.35.17.72.31l.72.28a2.87,2.87,0,0,1,.62.34,1.57,1.57,0,0,1,.44.48,1.37,1.37,0,0,1,.17.71v.25a1.2,1.2,0,0,1-.11.52,1.4,1.4,0,0,1-.3.42,1.43,1.43,0,0,1-.44.28,1.34,1.34,0,0,1-.52.1h-.52a1.37,1.37,0,0,1-.53-.1,1.43,1.43,0,0,1-.44-.28,1.4,1.4,0,0,1-.3-.42,1.19,1.19,0,0,1-.11-.52v-.45h-.74v.45a1.86,1.86,0,0,0,.17.79,2.12,2.12,0,0,0,1.12,1.08,2,2,0,0,0,.8.16h.59a2,2,0,0,0,.8-.16,2.12,2.12,0,0,0,1.12-1.08,1.86,1.86,0,0,0,.17-.79v-.25a2.17,2.17,0,0,0-.17-.9,1.92,1.92,0,0,0-.44-.62ZM50.58,33.27h4.65v-.71h-3.9V29.5h3.16v-.71H51.32V25.73h3.9V25H50.58v8.26Zm-5.48-3.5h0L42.7,25h-.45v8.26H43V27l1.92,3.85h.38L47.18,27v6.28h.72V25h-.45l-2.35,4.75Z"/><path id="Mark" class="cls-5" d="M28.1,37.38a.84.84,0,0,1-.69-.4L24.65,32.9l-3.89,2.4a.88.88,0,0,1-.46.14.7.7,0,0,1-.68-.78v-8.6a1.07,1.07,0,0,1,.56-.94.84.84,0,0,1,.5-.13H35.53a.85.85,0,0,1,.47.11,1.06,1.06,0,0,1,.59,1v6.6a.86.86,0,0,1-.19.57.7.7,0,0,1-.54.25h0a.93.93,0,0,1-.41-.1l-3.16-1.55L28.79,37a.84.84,0,0,1-.69.4Zm-2.85-4.85L28,36.59c0,.06.08.09.1.09s.06,0,.1-.09l3.44-5.09L29,30.21l-3.77,2.32Zm-5,2.21v0Zm0-8.23v8.16a.35.35,0,0,0,0,.06l.06,0,3.87-2.38L20.32,26.5Zm12.37,4.72,3.07,1.51c.08,0,.11,0,.11,0a.31.31,0,0,0,0-.11V26.5l-3.19,4.72ZM21,26.26l3.85,5.69,3.42-2.11L21,26.26Zm8.73,3.51L32,30.91l3-4.39-5.29,3.26ZM21.48,25.7,29,29.4l6-3.7Z"/></g></g></g><g id="layer1"><path id="path3055" class="cls-6" d="M26.68,47a1.1,1.1,0,0,0-.42.11l-5.7,2.72a1.08,1.08,0,0,0-.59.73L18.56,56.7a1.07,1.07,0,0,0,.15.83l.06.09,3.95,4.91a1.09,1.09,0,0,0,.85.41H29.9a1.09,1.09,0,0,0,.85-.41l3.95-4.91a1.07,1.07,0,0,0,.21-.92L33.5,50.58a1.08,1.08,0,0,0-.59-.73l-5.7-2.72a1.1,1.1,0,0,0-.53-.11Z"/><path id="path3059" class="cls-3" d="M26.74,49.1a.36.36,0,0,0-.34.38h0s0,.06,0,.09a2.85,2.85,0,0,0,0,.32,3.19,3.19,0,0,1,0,.62.37.37,0,0,1-.11.18v.14a4.44,4.44,0,0,0-.62.09,4.39,4.39,0,0,0-2.23,1.27l-.12-.09a.27.27,0,0,1-.2,0,3.19,3.19,0,0,1-.46-.42,2.84,2.84,0,0,0-.22-.24l-.08-.06a.41.41,0,0,0-.24-.09.33.33,0,0,0-.27.12.36.36,0,0,0,.08.5h0l.07.06a2.85,2.85,0,0,0,.28.17,3.19,3.19,0,0,1,.51.36.38.38,0,0,1,.07.2l.11.1a4.42,4.42,0,0,0-.7,3.08l-.14,0a.47.47,0,0,1-.15.15,3.19,3.19,0,0,1-.61.1,2.86,2.86,0,0,0-.33,0l-.09,0h0a.34.34,0,1,0,.15.67h0l.09,0a2.85,2.85,0,0,0,.31-.12,3.19,3.19,0,0,1,.6-.18.38.38,0,0,1,.2.07l.15,0a4.44,4.44,0,0,0,2,2.46l-.06.15a.34.34,0,0,1,0,.19,3.34,3.34,0,0,1-.31.56,2.86,2.86,0,0,0-.18.27l0,.09a.34.34,0,1,0,.62.29h0l0-.09a2.85,2.85,0,0,0,.1-.31,2.39,2.39,0,0,1,.26-.61.28.28,0,0,1,.15-.07l.08-.14a4.42,4.42,0,0,0,3.15,0l.07.13a.27.27,0,0,1,.17.11,3.19,3.19,0,0,1,.23.57,2.86,2.86,0,0,0,.1.31l0,.09a.34.34,0,1,0,.62-.29l0-.09a2.85,2.85,0,0,0-.18-.27,3.19,3.19,0,0,1-.3-.54.27.27,0,0,1,0-.2,1.17,1.17,0,0,1-.06-.14,4.44,4.44,0,0,0,2-2.48l.15,0a.27.27,0,0,1,.19-.07,3.19,3.19,0,0,1,.6.18,2.85,2.85,0,0,0,.31.12l.09,0h0a.34.34,0,1,0,.15-.67l-.1,0a2.86,2.86,0,0,0-.33,0,3.19,3.19,0,0,1-.61-.1.38.38,0,0,1-.15-.15l-.14,0a4.43,4.43,0,0,0-.71-3.07l.12-.11a.27.27,0,0,1,.06-.19,3.19,3.19,0,0,1,.51-.36,2.85,2.85,0,0,0,.28-.17l.08-.06a.34.34,0,1,0-.43-.53l-.08.06a2.86,2.86,0,0,0-.23.24,3.2,3.2,0,0,1-.46.42.38.38,0,0,1-.21,0l-.13.09a4.47,4.47,0,0,0-2.83-1.37s0-.13,0-.15a.27.27,0,0,1-.11-.17,3.19,3.19,0,0,1,0-.62,2.85,2.85,0,0,0,0-.32s0-.07,0-.1a.36.36,0,0,0-.34-.38Zm-.43,2.65-.1,1.79h0a.3.3,0,0,1-.48.23h0l-1.47-1a3.52,3.52,0,0,1,1.69-.92Zm.86,0a3.55,3.55,0,0,1,2,1l-1.46,1h0a.3.3,0,0,1-.48-.23h0ZM23.72,53.4l1.34,1.2h0a.3.3,0,0,1-.12.52h0l-1.72.5a3.52,3.52,0,0,1,.5-2.22Zm6,0a3.58,3.58,0,0,1,.51,2.22l-1.73-.5h0a.3.3,0,0,1-.12-.52h0l1.33-1.19Zm-3.28,1.29H27l.34.43-.12.53-.49.24-.49-.24-.12-.53Zm1.76,1.46h.07l1.78.3a3.52,3.52,0,0,1-1.42,1.79L28,56.58h0a.3.3,0,0,1,.15-.39l.12,0Zm-3,0a.3.3,0,0,1,.27.42h0l-.68,1.65a3.53,3.53,0,0,1-1.42-1.78l1.76-.3h.06Zm1.49.72A.3.3,0,0,1,27,57h0l.87,1.57-.35.1a3.53,3.53,0,0,1-1.93-.1L26.47,57h0A.3.3,0,0,1,26.73,56.88Z"/></g><g id="layer1-2" data-name="layer1"><g id="text4373"><path id="path2985" class="cls-7" d="M42.16,55.73l.61-.67.62-.69.55-.66.46-.54h2.39q-.72.82-1.4,1.58T43.9,56.28a8.85,8.85,0,0,1,.84.88q.43.5.84,1t.74,1.08q.34.54.57,1H44.58q-.22-.35-.5-.77t-.58-.85a9.8,9.8,0,0,0-.66-.82,5.14,5.14,0,0,0-.67-.66v3.1h-2V50.11l2-.32v5.94"/><path id="path2987" class="cls-7" d="M53.88,60a10.51,10.51,0,0,1-1.32.27,10.33,10.33,0,0,1-1.7.13,4.09,4.09,0,0,1-1.51-.24,2.32,2.32,0,0,1-.94-.67,2.72,2.72,0,0,1-.5-1.05,5.62,5.62,0,0,1-.15-1.34v-4h2v3.71a2.88,2.88,0,0,0,.26,1.4,1,1,0,0,0,1,.43h.46l.43-.05V53.16h2V60"/><path id="path2989" class="cls-7" d="M60.32,56.66q0-1.94-1.43-1.94a2.45,2.45,0,0,0-.62.08,1.75,1.75,0,0,0-.49.2v3.66l.38.05h.5a1.44,1.44,0,0,0,1.24-.57,2.46,2.46,0,0,0,.42-1.5m2.05.05a4.38,4.38,0,0,1-.26,1.54,3.17,3.17,0,0,1-.72,1.17,3.24,3.24,0,0,1-1.16.76,4.46,4.46,0,0,1-1.57.26q-.36,0-.77,0l-.78-.08-.73-.12L55.78,60V50.11l2-.32v3.53a3.77,3.77,0,0,1,.7-.23,3.6,3.6,0,0,1,.78-.08,3.13,3.13,0,0,1,1.34.27,2.55,2.55,0,0,1,1,.74,3.36,3.36,0,0,1,.59,1.17,5.25,5.25,0,0,1,.2,1.51"/><path id="path2991" class="cls-7" d="M63.58,56.77a4.38,4.38,0,0,1,.28-1.65,3.61,3.61,0,0,1,.77-1.19,3.19,3.19,0,0,1,1.08-.72A3.45,3.45,0,0,1,67,53a3.12,3.12,0,0,1,2.39.93,3.78,3.78,0,0,1,.88,2.71q0,.18,0,.39t0,.36H65.65a1.34,1.34,0,0,0,.58,1,2.33,2.33,0,0,0,1.38.36,6.1,6.1,0,0,0,1.08-.09,4.33,4.33,0,0,0,.88-.26L69.83,60a2.78,2.78,0,0,1-.43.16,4.71,4.71,0,0,1-.61.13q-.32.07-.7.11a7.09,7.09,0,0,1-.76,0,4.53,4.53,0,0,1-1.67-.28,3.37,3.37,0,0,1-1.17-.77,3.27,3.27,0,0,1-.69-1.17,4.76,4.76,0,0,1-.22-1.46M68.3,56a1.88,1.88,0,0,0-.09-.5,1.11,1.11,0,0,0-.23-.43,1.13,1.13,0,0,0-.39-.31,1.23,1.23,0,0,0-.58-.12,1.28,1.28,0,0,0-.58.12,1.13,1.13,0,0,0-.4.3,1.44,1.44,0,0,0-.26.45,3.11,3.11,0,0,0-.12.5H68.3"/><path id="path2993" class="cls-7" d="M76.07,54.94l-.63-.13a3.6,3.6,0,0,0-.78-.08,3.17,3.17,0,0,0-.46,0,2.28,2.28,0,0,0-.39.07v5.42h-2V53.54a11.3,11.3,0,0,1,1.27-.35A7.16,7.16,0,0,1,74.71,53l.39,0,.46.05.46.08a1.87,1.87,0,0,1,.39.11l-.34,1.66"/><path id="path2995" class="cls-7" d="M77.49,53.41a10.51,10.51,0,0,1,1.32-.27,10.33,10.33,0,0,1,1.7-.13,4,4,0,0,1,1.5.24,2.21,2.21,0,0,1,1,.66,2.6,2.6,0,0,1,.5,1,5.46,5.46,0,0,1,.15,1.32v4h-2V56.5a2.71,2.71,0,0,0-.26-1.38,1,1,0,0,0-1-.4l-.46,0-.43,0v5.48h-2V53.41"/><path id="path2997" class="cls-7" d="M85.11,56.77a4.38,4.38,0,0,1,.28-1.65,3.61,3.61,0,0,1,.77-1.19,3.19,3.19,0,0,1,1.08-.72A3.45,3.45,0,0,1,88.51,53a3.12,3.12,0,0,1,2.39.93,3.78,3.78,0,0,1,.88,2.71q0,.18,0,.39t0,.36H87.17a1.34,1.34,0,0,0,.58,1,2.33,2.33,0,0,0,1.38.36,6.1,6.1,0,0,0,1.08-.09,4.33,4.33,0,0,0,.88-.26L91.36,60a2.78,2.78,0,0,1-.43.16,4.71,4.71,0,0,1-.61.13q-.32.07-.7.11a7.09,7.09,0,0,1-.76,0,4.53,4.53,0,0,1-1.67-.28A3.37,3.37,0,0,1,86,59.4a3.27,3.27,0,0,1-.69-1.17,4.76,4.76,0,0,1-.22-1.46M89.83,56a1.89,1.89,0,0,0-.09-.5,1.11,1.11,0,0,0-.23-.43,1.13,1.13,0,0,0-.39-.31,1.23,1.23,0,0,0-.58-.12,1.28,1.28,0,0,0-.58.12,1.13,1.13,0,0,0-.4.3,1.44,1.44,0,0,0-.26.45,3.11,3.11,0,0,0-.12.5h2.66"/><path id="path2999" class="cls-7" d="M93.26,51.4l2-.32v2.09h2.42v1.67H95.27v2.5a2,2,0,0,0,.22,1,1,1,0,0,0,.9.38,4.18,4.18,0,0,0,.66-.05,3.8,3.8,0,0,0,.63-.18L98,60.06a5.72,5.72,0,0,1-.81.26,4.72,4.72,0,0,1-1.09.11,3.7,3.7,0,0,1-1.36-.22,2.23,2.23,0,0,1-.86-.62,2.43,2.43,0,0,1-.46-1,6,6,0,0,1-.12-1.25v-6"/><path id="path3001" class="cls-7" d="M98.71,56.77A4.38,4.38,0,0,1,99,55.12a3.61,3.61,0,0,1,.77-1.19,3.19,3.19,0,0,1,1.08-.72,3.45,3.45,0,0,1,1.27-.24,3.12,3.12,0,0,1,2.39.93,3.78,3.78,0,0,1,.88,2.71q0,.18,0,.39t0,.36h-4.56a1.34,1.34,0,0,0,.58,1,2.33,2.33,0,0,0,1.38.36,6.1,6.1,0,0,0,1.08-.09,4.33,4.33,0,0,0,.88-.26L105,60a2.78,2.78,0,0,1-.43.16,4.71,4.71,0,0,1-.61.13q-.32.07-.7.11a7.09,7.09,0,0,1-.76,0,4.53,4.53,0,0,1-1.67-.28,3.37,3.37,0,0,1-1.17-.77,3.27,3.27,0,0,1-.69-1.17,4.76,4.76,0,0,1-.22-1.46m4.72-.77a1.88,1.88,0,0,0-.09-.5,1.11,1.11,0,0,0-.23-.43,1.13,1.13,0,0,0-.39-.31,1.23,1.23,0,0,0-.58-.12,1.28,1.28,0,0,0-.58.12,1.13,1.13,0,0,0-.4.3,1.44,1.44,0,0,0-.26.45,3.11,3.11,0,0,0-.12.5h2.66"/><path id="path3003" class="cls-7" d="M109,58.82a2,2,0,0,0,.78-.11.42.42,0,0,0,.23-.42.5.5,0,0,0-.3-.42,5.19,5.19,0,0,0-.9-.42q-.47-.18-.86-.36a2.66,2.66,0,0,1-.65-.45,1.9,1.9,0,0,1-.42-.63,2.32,2.32,0,0,1-.15-.88,1.9,1.9,0,0,1,.74-1.58,3.23,3.23,0,0,1,2-.58,6.18,6.18,0,0,1,1.24.12,5.43,5.43,0,0,1,.94.24l-.35,1.57a7.21,7.21,0,0,0-.77-.22,4.05,4.05,0,0,0-.92-.09q-.94,0-.94.53a.54.54,0,0,0,0,.22.51.51,0,0,0,.16.19l.32.19.54.22a7.63,7.63,0,0,1,1.09.49,2.29,2.29,0,0,1,.67.51,1.43,1.43,0,0,1,.35.61,2.57,2.57,0,0,1,.11.78,1.8,1.8,0,0,1-.8,1.59,3.9,3.9,0,0,1-2.23.54,6.5,6.5,0,0,1-1.58-.16,6.41,6.41,0,0,1-.86-.27l.34-1.63a7.12,7.12,0,0,0,1.05.32,5.42,5.42,0,0,0,1.07.11"/></g></g><path class="cls-8" d="M151.05,25.58c-.08.42-.16.85-.23,1.27,0,.16,0,.24-.24.17a27.32,27.32,0,0,0-4.75-1.18,22.59,22.59,0,0,0-6.75-.07,20,20,0,0,0-5.31,1.58c-.29.13-.34.07-.39-.2-.09-.48-.2-1-.3-1.44l-.23-1.17-.31-1.61.21-.07,2.57-1.22a20.33,20.33,0,0,1,6.27-1.27,24.37,24.37,0,0,1,6.12.56l1,.22.76.24,2.19.66h0a.11.11,0,0,0,0,.08c0,.13,0,.26-.07.39ZM135.94,23a3.85,3.85,0,0,0-.57.19,1.28,1.28,0,0,0-.63,1.59,1.31,1.31,0,0,0,1.45.92,1.28,1.28,0,0,0,1.16-1.31,20,20,0,0,0-.56-2.25c0-.07-.17-.11-.27-.17-.05.1-.15.19-.15.28a2.69,2.69,0,0,0,.12.52c.08.33.09.33-.23.27Zm3.13-.64a1.29,1.29,0,0,0-1.39,1.26,1.34,1.34,0,1,0,1.39-1.26ZM146.31,25h.13c.17,0,.35,0,.34-.27s-.18-.19-.33-.2a3.25,3.25,0,0,1-.43-.06.46.46,0,0,1-.13-.08.52.52,0,0,1,.12-.1l1.36-.55c.24-.1.36-.23.26-.51a1.36,1.36,0,0,0-1.52-.88,1.34,1.34,0,0,0-1.11,1.4A1.35,1.35,0,0,0,146.31,25Zm-3.19-.72c0,.17,0,.37.2.35s.17-.18.25-.29,0-.12,0-.17a1.14,1.14,0,0,1,.06-.15.85.85,0,0,1,.13.1,4.49,4.49,0,0,0,.41.47c.09.08.29.16.36.12s.1-.27,0-.41-.4-.52-.62-.76-.12-.2,0-.31a7.56,7.56,0,0,0,.79-.66c.08-.08.07-.25.09-.37a1.07,1.07,0,0,0-.39,0,3.92,3.92,0,0,0-.46.35.85.85,0,0,1-.19.08,1,1,0,0,1,0-.21c0-.28.05-.56.09-.84s.07-.39-.17-.44-.26.17-.28.35Zm-2.44-1a1.33,1.33,0,0,0,1.89,1.27c.16-.08.32-.18.21-.36s-.24-.08-.37-.08a2.85,2.85,0,0,1-.73,0,.82.82,0,0,1-.5-1.06.85.85,0,0,1,1.1-.57c.15,0,.3.17.44,0s0-.33-.26-.42A1.34,1.34,0,0,0,140.68,23.31Zm8.52.09c.2,0,.42.06.42-.2s-.23-.24-.4-.26a1.3,1.3,0,0,0-1.3.87,8.17,8.17,0,0,0-.26,1.17c0,.11.06.32.14.35s.26-.12.3-.29c.07-.32.12-.64.2-1A.87.87,0,0,1,149.21,23.4Z"/><path class="cls-9" d="M147.22,36.92c.43,0,.86.1,1.29.12s.38.15.38.44c0,1.34,0,2.68,0,4q0,2.28,0,4.55c0,.4,0,.43.39.29s1-.43,1.44-.65l.14,0a3.18,3.18,0,0,1-1.58.86,2.66,2.66,0,0,0-.36.15,2.23,2.23,0,0,1-.44.23l-7.28,1.6a3.66,3.66,0,0,1-2.14.18c-.07,0-.24.08-.3.17a2.59,2.59,0,0,0-.38,1.4c0,.93.18,1.29.87,1.58V52l-.33-.13-.19,0a.73.73,0,0,0,0,.17,5.33,5.33,0,0,0,3,3.37,8.25,8.25,0,0,0,7.12-.39c.34-.2.7-.39,1-.61a6.37,6.37,0,0,0,3.07-5.61c0-.55,0-1.1-.07-1.65l.08-.27c.06.93.17,1.87.18,2.8a5.07,5.07,0,0,1-1,3,.8.8,0,0,0-.17.66,3,3,0,0,1,0,.62l-.06.18.16-.07a2.77,2.77,0,0,1,2.21.07c.22.09.25.19.16.41a2.51,2.51,0,0,1-2.32,1.54,1,1,0,0,0-.85.53c-.61.9-1.18,1.83-1.85,2.69a11.36,11.36,0,0,1-4.9,4,8.62,8.62,0,0,1-6.28.08A4.67,4.67,0,0,1,136,61.75a.68.68,0,0,0-.71-.3,7.43,7.43,0,0,1-4.2-.76,5.61,5.61,0,0,1-2.7-3.36,12.85,12.85,0,0,1-.31-1.39l.11-.24c0,.23.09.46.13.69a.56.56,0,0,0,.42.5l-.08.06c-.25,0-.13.1-.1.2A5.57,5.57,0,0,0,134,61.07l1.28,0c.35,0,.29-.13.13-.32v0l-.23-.47c-.1-.31-.22-.62-.31-.93a3.51,3.51,0,0,1,.34-3.28h0l.26-.08s0,.08,0,.11a2.85,2.85,0,0,0-.35,3.13v.16l.1.29a5.57,5.57,0,0,0,5.37,3.83h1.34c.61-.11,1.23-.2,1.83-.35a8,8,0,0,0,1.09-.45,10.28,10.28,0,0,0,1-.45,12.4,12.4,0,0,0,3.56-3.39c.59-.8,1.15-1.63,1.73-2.44.23-.32.47-.62.93-.56a1.43,1.43,0,0,0,.48-.08,2.65,2.65,0,0,0,1.73-1.16c.13-.2.16-.32-.12-.4a2.55,2.55,0,0,0-2.27.2s-.1,0-.16,0h0c.05-.3.11-.6.15-.91a.72.72,0,0,0-.06-.25,1.59,1.59,0,0,0-.2.14c-.34.31-.66.64-1,.94s-.44.35-.19.86l-.11,0a.76.76,0,0,1-.15-.16c-.13-.29-.31-.24-.51-.08l-.11.07-.57.36.68.05v.11l-.8,0a3.63,3.63,0,0,0-.6.08c-.76.18-1.52.45-2.29.56a7.49,7.49,0,0,1-4.56-.71.71.71,0,0,0-.45,0,9,9,0,0,1-4.07.1,1.22,1.22,0,0,0-.56.06c-.28.08-.54.2-.81.3l.53-.36.18-.12a2.12,2.12,0,0,0-.21-.12c-.35-.16-.7-.33-1.06-.47a1.42,1.42,0,0,0-.58-.11,7.5,7.5,0,0,1-4.95-1.15c-.09-.06-.24,0-.36-.06v-.11a2.16,2.16,0,0,0-.2-.31,6.52,6.52,0,0,1-1.87-4.64,2,2,0,0,1,1.44-2c1.07-.34,2.16-.62,3.26-.89.27-.07.33-.15.32-.4,0-.92,0-1.84-.08-2.76,0-.32.1-.45.4-.5,1.2-.2,2.4-.44,3.6-.63.26,0,.3-.14.3-.37q0-1.76.06-3.53c0-.42,0-.42.45-.43h.08l-.14.18c-.23,0-.26.07-.26.27,0,1.2,0,2.39,0,3.59a1.59,1.59,0,0,0,.08.34v.1c-.43,0-.86.07-1.28.13-.85.12-1.7.26-2.56.4l-.28.18c-.25,0-.19.17-.19.31,0,1.37,0,2.74,0,4.11,0,.23.09.3.3.34.47.08.93.19,1.4.29,1.92.44,3.83.87,5.74,1.33.34.08.33,0,.32-.29,0-1.21,0-2.41,0-3.62,0-.34.12-.78,0-1s-.63-.18-1-.25l-.35-.07h-.1V43.2a5.06,5.06,0,0,0,3.13,0,1.45,1.45,0,0,1,.22,0l2-.41a.69.69,0,0,0,.15-.08l-.16,0-.79-.12.08-.12.19,0,.1,0,.43,0,.25.05c.16,0,.29,0,.27-.22s0-.54,0-.8q0-1.81.08-3.61V37.8l.26,0,3.05-.52.34-.08-.34-.08a.23.23,0,0,0-.08,0l-.35,0ZM132.53,51.32h0a.43.43,0,0,0,0,.16,5.38,5.38,0,0,0,2,2.85,7.7,7.7,0,0,0,5.93.91c.19,0,.12-.11,0-.19a6.48,6.48,0,0,1-2.2-3.93c-.05-.28-.14-.32-.36-.17l-.12,0a7.61,7.61,0,0,1-4,.67l.22-.09h.51a9.47,9.47,0,0,0,3.66-.91s.06,0,.06-.06a3.23,3.23,0,0,1,.38-1.84s-.06-.15-.11-.16l-2-.43c-.57-.15-1.16-.27-1.72-.46a1.91,1.91,0,0,0-1.78.12s-.05,0-.08,0l.4-.29a.76.76,0,0,0,.11-.13l-.12,0-1.2-.25a1.33,1.33,0,0,1-.17-.37,3.85,3.85,0,0,1,0-.71c0-.24-.06-.31-.31-.27a14.72,14.72,0,0,0-3.54,1,1.75,1.75,0,0,0-.69.66,2.92,2.92,0,0,0-.3,1.9,1.07,1.07,0,0,0,.9,1,6.82,6.82,0,0,0,3.65-.13.43.43,0,0,0,.38-.52,2.22,2.22,0,0,1,.8-1.9l.1,0a2.73,2.73,0,0,0-.72,2.26c0,.36,0,.78.35,1.05t0,.09l-.06.08ZM145.6,37.8l-.09,0c-.24,0-.47.07-.71.08s-.27.11-.27.31c0,1.35,0,2.71-.07,4.06-.1.37.13.31.35.27l2.95-.52c.28,0,.67,0,.8-.17s.08-.56.08-.85c0-1.15,0-2.29,0-3.44,0-.22,0-.38-.29-.2Zm-1.18,9.67s.1.08.14.07l3.93-.86c.23,0,.23-.18.22-.35q0-1.34-.07-2.68c0-.43,0-.86,0-1.3,0-.17,0-.24-.23-.21l-3.74.65c-.22,0-.25.14-.24.33s.08.4-.17.5V43.3c0-.45,0-.45-.44-.36-1.15.23-2.3.46-3.45.67-.25,0-.36.12-.36.39q0,2.19,0,4.38c0,.23.06.27.28.22l3.68-.9a1.91,1.91,0,0,0,.41-.22h.08Zm-11.1,7h.54a.93.93,0,0,0,.2-.05,1,1,0,0,0-.11-.17,6.82,6.82,0,0,1-1.86-3.55c-.09-.4-.08-.4-.46-.29a5.73,5.73,0,0,1-4.14-.08l-.12,0a.51.51,0,0,0,0,.16,5.68,5.68,0,0,0,2.14,2.95A7.05,7.05,0,0,0,133.32,54.44Z"/><path class="cls-10" d="M139.24,30.94c0,1.1-.07,2.21-.1,3.31,0,.21,0,.32-.29.33a4,4,0,0,0-.84.13c-.26.07-.36,0-.46-.25-.32-.85-.68-1.69-1-2.53a2,2,0,0,0-.15-.26,1.57,1.57,0,0,0-.09.32c-.07.94-.13,1.87-.18,2.81,0,.23-.07.35-.31.4a5,5,0,0,0-.85.26c-.21.08-.31.07-.4-.16-.49-1.22-1-2.42-1.48-3.64-.29-.76-.51-1.56-.77-2.33-.07-.2,0-.29.17-.35s.71-.21,1.06-.32c.15.32.3.64.44,1,.34.81.67,1.62,1,2.44a.94.94,0,0,0,.12.17,1,1,0,0,0,.07-.2c.08-.67.17-1.33.23-2a.46.46,0,0,1,.41-.48c.88-.2.88-.22,1.25.61l.71,1.59a1.35,1.35,0,0,0,.11.17,1.07,1.07,0,0,0,0-.2c.05-1.27.11-2.53.15-3.8,0-.29.09-.43.39-.45a7.48,7.48,0,0,0,.78-.13c0,.26,0,.52,0,.79,0,.94,0,1.88,0,2.82Z"/><path class="cls-11" d="M151.17,28.76l.3.07c.79.12.76.12.84.92.09.95.24,1.89.36,2.83a.69.69,0,0,0,.08.18l.16-.14c.75-.79,1.5-1.58,2.25-2.36a1.12,1.12,0,0,1,1.27-.09.3.3,0,0,1,.06.26q-.93,3.38-1.89,6.75c-.11.4-.14.39-.56.27l-.78-.21c-.23-.05-.28-.14-.18-.38.47-1.21.93-2.42,1.38-3.63.07-.19.11-.39.16-.59a4.6,4.6,0,0,0-.51.37c-.56.53-1.11,1.08-1.67,1.62-.26.25-.31.24-.39-.1-.19-.83-.36-1.66-.55-2.48,0-.07,0-.13-.06-.2s-.1.1-.11.16c-.28,1.36-.57,2.71-.82,4.07-.05.29-.12.39-.42.29a4.15,4.15,0,0,0-.79-.15c-.25,0-.29-.14-.23-.38.33-1.28.62-2.58,1-3.86.25-1,.54-1.95.82-2.92C150.91,28.89,151,28.7,151.17,28.76Z"/><path class="cls-12" d="M145,35c-.25,0-.58,0-.72-.14s0-.47,0-.71c.1-.91.23-1.83.33-2.74.08-.69.13-1.39.2-2.09,0-.43.08-.86.1-1.29a.34.34,0,0,1,.27-.35,3.94,3.94,0,0,1,4.64,1.53,1.47,1.47,0,0,1-.45,2.18,4.21,4.21,0,0,1-1.61.62c-.41.09-.43.1-.33.51l.55,2.25c.11.47.11.48-.37.46-1,0-.79.16-1-.82-.15-.68-.3-1.36-.46-2,0-.09-.11-.16-.16-.23a1.08,1.08,0,0,0-.1.26c-.06.59-.11,1.18-.17,1.77,0,.12,0,.24,0,.36,0,.46-.05.46-.51.45H145Zm1-4.52c0,.27-.12.61.28.62a3.09,3.09,0,0,0,1.79-.41.75.75,0,0,0,.25-1.18,2.27,2.27,0,0,0-1.94-.88c-.07,0-.18.13-.19.22C146.06,29.44,146,30,146,30.52Z"/><path class="cls-13" d="M129.82,29.45a1.29,1.29,0,0,1,.36,0c.35.12.8.18,1,.44s0,.64,0,1-.09.22-.26.12a1.43,1.43,0,0,0-1.28-.2,1.6,1.6,0,0,0-1,.91.51.51,0,0,0,.32.75,3.69,3.69,0,0,0,.88.14c.52,0,1,0,1.56.08a2.77,2.77,0,0,1,1.36.52,1.71,1.71,0,0,1,.46,2.47,3.19,3.19,0,0,1-3,1.35,3.25,3.25,0,0,1-1.47-.48.41.41,0,0,1-.25-.47s0-.09,0-.13l.1-.74a3.88,3.88,0,0,0,.68.19,7.09,7.09,0,0,0,1.37,0,1.85,1.85,0,0,0,.75-.36.65.65,0,0,0,.29-.74.66.66,0,0,0-.6-.47c-.35,0-.71,0-1.06-.05a11.78,11.78,0,0,1-1.69-.07,1.66,1.66,0,0,1-1.24-2.46A3.18,3.18,0,0,1,129.82,29.45Z"/><path class="cls-14" d="M142,27.86c.82,0,.82,0,.95.83q.45,3,.89,6.05c.06.4,0,.4-.34.37-.9-.06-.9-.06-1-.95,0-.27-.06-.53-.09-.8s-.07-.19-.23-.18c-1.07,0-1.07,0-1.31,1-.15.66-.15.66-.81.66s-.55,0-.43-.51l1.4-6c.14-.58.13-.58.73-.57Zm-.21,4.3h.13c.32,0,.38-.08.34-.39-.09-.76-.14-1.53-.21-2.3a1.6,1.6,0,0,0,0-.16.87.87,0,0,0-.07.16c-.19.84-.37,1.68-.56,2.52,0,.17,0,.22.17.2Z"/><path class="cls-15" d="M151.05,25.58l.58-3.08c0-.13,0-.26.07-.39l0-.06-.06,0h0a.92.92,0,0,0-.14-.29c-.4-.39-.81-.79-1.24-1.15s-.75-.53-1.13-.79a21.53,21.53,0,0,1,5.5,2.18c.47.26.91.56,1.36.85a.8.8,0,0,1,.15.18.83.83,0,0,1-.19.1l-2.89.59H153c-.33.06-.31,0-.14.36.4.75.78,1.51,1.17,2.26a1.13,1.13,0,0,1,.06.29,1.23,1.23,0,0,1-.29,0Z"/><path class="cls-15" d="M132.53,22.93l.31,1.61.23,1.17-2.82.84,0,0h-.34a1.51,1.51,0,0,1,.11-.28q.69-1.09,1.38-2.18c.19-.3.19-.28-.14-.42-.74-.3-1.48-.61-2.21-.94-.29-.13-.28-.18,0-.33a17.38,17.38,0,0,1,5.75-2.09h.13l-.25.18A5.66,5.66,0,0,0,132.53,22.93Z"/><path class="cls-12" d="M149.19,19.81c.38.26.77.5,1.13.79s.84.76,1.24,1.15a.92.92,0,0,1,.14.29l-2.19-.66-.76-.24c0-.37.06-.74.11-1.11C148.87,19.87,148.92,19.65,149.19,19.81Z"/><path class="cls-12" d="M132.53,22.93a5.66,5.66,0,0,1,2.08-2.41l.25-.18c.18-.15.24-.06.27.13.06.39.12.78.18,1.18l-2.57,1.22Z"/><path class="cls-16" d="M149.72,41.54a.64.64,0,0,1,.23,0,2.62,2.62,0,0,1,1.73,1.22c.15.27.19.14.28,0a2.76,2.76,0,0,1,1.83-1.3s.09,0,.13.08l-.08.1s-.06,0-.09,0a2.51,2.51,0,0,0-1.8,1.62,1.34,1.34,0,0,1-.12.23,1.32,1.32,0,0,0-.07-.21,2.59,2.59,0,0,0-2-1.54Z"/><path class="cls-9" d="M153.83,41.57l.08-.1a2.43,2.43,0,0,1-.59,2.76,5.65,5.65,0,0,1-.58.47h-.1a2.21,2.21,0,0,1,.25-.39A2.83,2.83,0,0,0,153.83,41.57Z"/><path class="cls-9" d="M151.25,44.87a1.51,1.51,0,0,1-1.34-1,3.16,3.16,0,0,1-.26-2h.05c0,.1,0,.21,0,.31a2.5,2.5,0,0,0,1.61,2.56Z"/><path class="cls-16" d="M136.71,37h-.08c.51-.08,1-.18,1.53-.22.9-.08,1.8-.13,2.71-.2l-.37.14L137,37Z"/><path class="cls-16" d="M147.22,36.92v.15l-3.76-.27.08-.13Z"/><path class="cls-16" d="M128.94,53.47v.11a3.1,3.1,0,0,0-.5.76,10.06,10.06,0,0,0-.23,1.37l-.11.24A2.34,2.34,0,0,1,128.94,53.47Z"/><path class="cls-17" d="M143.54,36.66l-.08.13-1.7-.09-.09-.13Z"/><path class="cls-17" d="M152.94,46.84l-.08.27-.17-1.26h.13s0,0,0,0l0,.07Z"/><path class="cls-14" d="M141.66,36.57l.09.13H140.5l.37-.14Z"/><path class="cls-17" d="M151.25,44.87l.08-.08c0,.1,0,.23,0,.3s-.31.41-.47.61l-.14,0Z"/><path class="cls-18" d="M152.64,44.7h.1v.68l-.08.29Z"/><path class="cls-8" d="M152.67,45.68l.08-.29,0,.45h-.1Z"/><path class="cls-17" d="M149.7,41.92h-.05l.07-.38v.12Z"/><path class="cls-13" d="M152.84,46l0-.07s0,0,0,0l0,.07S152.85,45.94,152.84,46Z"/><path class="cls-19" d="M135.94,23l.34,0c.31.06.31.06.23-.27a2.69,2.69,0,0,1-.12-.52c0-.09.1-.19.15-.28.09.06.25.09.27.17a20,20,0,0,1,.56,2.25,1.28,1.28,0,0,1-1.16,1.31,1.31,1.31,0,0,1-1.45-.92,1.28,1.28,0,0,1,.63-1.59A3.85,3.85,0,0,1,135.94,23Zm1,1.37a.92.92,0,0,0-.88-.89.88.88,0,1,0,0,1.77A.91.91,0,0,0,136.9,24.37Z"/><path class="cls-19" d="M139.07,22.36a1.34,1.34,0,1,1-1.39,1.26A1.29,1.29,0,0,1,139.07,22.36Zm-.06.46a.85.85,0,0,0-.86.88.88.88,0,1,0,1.75,0A.87.87,0,0,0,139,22.82Z"/><path class="cls-19" d="M146.31,25A1.35,1.35,0,0,1,145,23.74a1.34,1.34,0,0,1,1.11-1.4,1.36,1.36,0,0,1,1.52.88c.1.28,0,.41-.26.51l-1.36.55a.52.52,0,0,0-.12.1.46.46,0,0,0,.13.08,3.25,3.25,0,0,0,.43.06c.15,0,.32,0,.33.2s-.17.25-.34.27Zm-.85-1.33c0,.18,0,.35.31.22s.79-.34,1.19-.49c.18-.07.2-.13.08-.28a.87.87,0,0,0-1-.28A.9.9,0,0,0,145.46,23.66Z"/><path class="cls-19" d="M143.13,24.28l.3-2.75c0-.18,0-.4.28-.35s.19.25.17.44-.07.56-.09.84a1,1,0,0,0,0,.21.85.85,0,0,0,.19-.08,3.92,3.92,0,0,1,.46-.35,1.07,1.07,0,0,1,.39,0c0,.13,0,.3-.09.37a7.56,7.56,0,0,1-.79.66c-.15.11-.14.18,0,.31s.41.51.62.76.2.31,0,.41-.27,0-.36-.12a4.49,4.49,0,0,1-.41-.47.85.85,0,0,0-.13-.1,1.14,1.14,0,0,0-.06.15c0,.06,0,.13,0,.17s-.16.29-.25.29S143.11,24.45,143.13,24.28Z"/><path class="cls-19" d="M140.68,23.31a1.34,1.34,0,0,1,1.78-1.25c.25.09.37.27.26.42s-.28.06-.44,0a.85.85,0,0,0-1.1.57.82.82,0,0,0,.5,1.06,2.85,2.85,0,0,0,.73,0c.13,0,.33,0,.37.08s-.05.29-.21.36A1.33,1.33,0,0,1,140.68,23.31Z"/><path class="cls-19" d="M149.21,23.4a.87.87,0,0,0-.89.69c-.08.32-.13.64-.2,1,0,.17-.09.36-.3.29s-.16-.24-.14-.35a8.17,8.17,0,0,1,.26-1.17,1.3,1.3,0,0,1,1.3-.87c.17,0,.4,0,.4.26S149.41,23.42,149.21,23.4Z"/><path class="cls-12" d="M151.69,22l.06,0,0,.06A.11.11,0,0,1,151.69,22Z"/><path class="cls-20" d="M149.7,41.92l0-.26a2.59,2.59,0,0,1,2,1.54,1.32,1.32,0,0,1,.07.21,1.34,1.34,0,0,0,.12-.23,2.51,2.51,0,0,1,1.8-1.62s.06,0,.09,0a2.83,2.83,0,0,1-.94,2.74,2.21,2.21,0,0,0-.25.39l0,1,0,.18.17,1.26c0,.55.07,1.1.07,1.65a6.37,6.37,0,0,1-3.07,5.61c-.33.22-.69.41-1,.61,0,0-.05-.05-.07,0a3.4,3.4,0,0,1-1.75-.12,2,2,0,0,1-1.4-1.21,5.06,5.06,0,0,1-.2-2.76s-.09-.09-.11-.08-.23.13-.35.19a7.78,7.78,0,0,1-5.7.95c-.69-.29-.9-.65-.87-1.58a2.59,2.59,0,0,1,.38-1.4c.06-.09.23-.2.3-.17a3.66,3.66,0,0,0,2.14-.18l7.28-1.6a2.23,2.23,0,0,0,.44-.23,2.66,2.66,0,0,1,.36-.15,3.18,3.18,0,0,0,1.58-.86c.16-.2.33-.4.47-.61s0-.2,0-.3a2.5,2.5,0,0,1-1.61-2.56C149.72,42.12,149.71,42,149.7,41.92Zm-2.12,7.15c-.29-.18-.55,0-.81.09a1.27,1.27,0,0,0-.87,1.08h0l-.06,0,0,0a1.12,1.12,0,0,0,.78,1.35,1.52,1.52,0,0,0,1.6-.39,1.16,1.16,0,0,0,0-1.77Z"/><path class="cls-20" d="M150.3,55.23c-.25-.51-.24-.5.19-.86s.67-.62,1-.94a1.59,1.59,0,0,1,.2-.14.72.72,0,0,1,.06.25c0,.3-.1.61-.15.91l-.06.05h0v-.06c.05,0,.12,0,.16,0a2.55,2.55,0,0,1,2.27-.2c.29.08.25.2.12.4a2.65,2.65,0,0,1-1.73,1.16,1.43,1.43,0,0,1-.48.08c-.47-.06-.71.24-.93.56-.58.81-1.14,1.64-1.73,2.44a12.4,12.4,0,0,1-3.56,3.39,10.28,10.28,0,0,1-1,.45,12.83,12.83,0,0,1-1.48-.29,2.13,2.13,0,0,1-1.62-2c0-.66,0-1.32,0-2l.06-.11a.5.5,0,0,0-.18,0c-.57.26-1.12.56-1.7.77a6.2,6.2,0,0,1-4.81.08,2.85,2.85,0,0,1,.35-3.13s0-.07,0-.11h0c.27-.1.54-.22.81-.3a1.22,1.22,0,0,1,.56-.06,9,9,0,0,0,4.07-.1.71.71,0,0,1,.45,0,7.49,7.49,0,0,0,4.56.71c.77-.11,1.53-.37,2.29-.56a3.63,3.63,0,0,1,.6-.08l.8,0c.23,0,.49,0,.63-.26h0l.1,0,.08,0,0-.05Zm-8.1,2.49a.93.93,0,0,0,.13,1,1.49,1.49,0,0,0,2,.22,1.2,1.2,0,0,0,.29-1.82,1.16,1.16,0,0,0-1.48-.39,1.53,1.53,0,0,0-1,1S142.19,57.7,142.2,57.72Z"/><path class="cls-21" d="M138.79,43.42c.33.07.79,0,1,.25s0,.65,0,1c0,1.21,0,2.41,0,3.62,0,.25,0,.37-.32.29-1.91-.46-3.83-.89-5.74-1.33-.46-.11-.93-.21-1.4-.29-.22,0-.3-.1-.3-.34,0-1.37,0-2.74,0-4.11,0-.13-.06-.32.19-.31a1,1,0,0,0,.17.06l5.92,1.09h.1Z"/><path class="cls-21" d="M143.73,42.49l-.43,0-.1,0-.19,0-.81-.1H142a1.42,1.42,0,0,0-.21-.07l-5-.76c-.36-.34-.36-.34-.36-1q0-1.22,0-2.45c0-.6,0-.6.56-.69,0,0,0,0,.07,0l.7.06,1.16.1.63.07.53,0,.72.07h.62l.16,0,.3,0,.26,0,.53,0H143l.32.05.54,0H144l.14,0,.17,0q0,1.81-.08,3.61c0,.27,0,.54,0,.8s-.11.24-.27.22Z"/><path class="cls-22" d="M145.4,50.83a5.06,5.06,0,0,0,.2,2.76,2,2,0,0,0,1.4,1.21,3.4,3.4,0,0,0,1.75.12s0,0,.07,0a8.25,8.25,0,0,1-7.12.39,5.33,5.33,0,0,1-3-3.37.73.73,0,0,1,0-.17l.19,0,.33.13,1,.25c-.06,0-.19.12,0,.13.36,0,.73,0,1.1,0a.46.46,0,0,0,.15-.06l-.21-.05.69-.11A9.76,9.76,0,0,0,145.4,50.83Z"/><path class="cls-22" d="M141.67,58.46c0,.66-.05,1.33,0,2a2.13,2.13,0,0,0,1.62,2,12.83,12.83,0,0,0,1.48.29,8,8,0,0,1-1.09.45c-.6.15-1.22.24-1.83.35H140.5a5.57,5.57,0,0,1-5.37-3.83l-.1-.29s.06,0,.09,0a5.1,5.1,0,0,0,3.4.31A10.11,10.11,0,0,0,141.67,58.46Z"/><path class="cls-23" d="M133.78,51.66a7.61,7.61,0,0,0,4-.67l.12,0c.22-.15.31-.1.36.17a6.48,6.48,0,0,0,2.2,3.93c.1.08.17.15,0,.19a7.7,7.7,0,0,1-5.93-.91,5.38,5.38,0,0,1-2-2.85.43.43,0,0,1,0-.16Z"/><path class="cls-20" d="M132.79,47.81a2.22,2.22,0,0,0-.8,1.9.43.43,0,0,1-.38.52,6.82,6.82,0,0,1-3.65.13,1.07,1.07,0,0,1-.9-1,2.92,2.92,0,0,1,.3-1.9,1.75,1.75,0,0,1,.69-.66,14.72,14.72,0,0,1,3.54-1c.25,0,.32,0,.31.27a3.85,3.85,0,0,0,0,.71,1.33,1.33,0,0,0,.17.37Z"/><path class="cls-24" d="M134,61.07a5.57,5.57,0,0,1-5.38-3.91c0-.1-.15-.24.1-.2a3.61,3.61,0,0,0,1.83.45,7.7,7.7,0,0,0,3.08-.62c.53-.21,1-.48,1.56-.73a3.51,3.51,0,0,0-.34,3.28c.09.31.2.62.31.93a.32.32,0,0,0,.23.47v0c-.08.21-.24.21-.43.22S134.29,61,134,61.07Z"/><path class="cls-20" d="M138.17,50.67a9.47,9.47,0,0,1-3.66.91H134l-1.47-.42c-.34-.27-.3-.69-.35-1.05a2.73,2.73,0,0,1,.72-2.26h0s.07,0,.08,0a1.91,1.91,0,0,1,1.78-.12c.56.18,1.14.31,1.72.46l.52.4C137.66,49.12,138.33,49.66,138.17,50.67Z"/><path class="cls-25" d="M128.22,55.71a10.06,10.06,0,0,1,.23-1.37,3.1,3.1,0,0,1,.5-.76c.12,0,.27,0,.36.06a7.5,7.5,0,0,0,4.95,1.15,1.42,1.42,0,0,1,.58.11c.36.14.71.31,1.06.47a2.12,2.12,0,0,1,.21.12l-.18.12-.53.36h0l-.26.08c0-.09.11-.23-.11-.12-.49.24-1,.52-1.49.71a6.54,6.54,0,0,1-4.78.26.56.56,0,0,1-.42-.5C128.31,56.17,128.26,55.94,128.22,55.71Z"/><path class="cls-23" d="M133.32,54.44a7.05,7.05,0,0,1-3.82-1.06,5.68,5.68,0,0,1-2.14-2.95.51.51,0,0,1,0-.16l.12,0a5.73,5.73,0,0,0,4.14.08c.39-.11.37-.11.46.29a6.82,6.82,0,0,0,1.86,3.55,1,1,0,0,1,.11.17.93.93,0,0,1-.2.05Z"/><path class="cls-26" d="M144.34,47.47a1.91,1.91,0,0,1-.41.22l-3.68.9c-.22.06-.29,0-.28-.22q0-2.19,0-4.38c0-.27.11-.35.36-.39,1.15-.21,2.3-.44,3.45-.67.44-.09.44-.09.44.36v.31a.05.05,0,0,1,0,0v1.93a.57.57,0,0,0-.08.19c0,.49,0,1,0,1.46,0,.07.06.15.1.22h.07Zm-3.67.73.12-.07-.11,0h-.26c0-1.25,0-2.5,0-3.75,0-.34.24-.27.41-.34a2.43,2.43,0,0,1,.12.32,1.18,1.18,0,0,1,0,.27c0,1.09,0,2.18,0,3.26,0,0-.11.25.12.15h.37c.57,0,.59-.06.59-.63,0-1,0-2.05,0-3.08,0-.8.15-.7-.71-.53l-.08,0-.18.07a4.13,4.13,0,0,0-.44,0c-.17,0-.29.11-.29.32,0,1.27,0,2.53,0,3.8,0,.08.11.16.17.24Zm1.62-4.58a1.12,1.12,0,0,0-.09.28c0,.27,0,.53,0,.8,0,.95,0,1.9,0,2.85,0,.06-.14.29.13.2h.11l.23,0-.2,0c0-1.13,0-2.25,0-3.38a5.08,5.08,0,0,1,.09-.65c.29-.07.27.14.27.32,0,1.12,0,2.23,0,3.35,0,.12-.12.32.14.34l.17-.07c.15,0,.3,0,.44,0a.34.34,0,0,0,.32-.39c0-1.19,0-2.38,0-3.58,0-.31-.1-.37-.38-.25a.51.51,0,0,0-.1.08.35.35,0,0,0,.12,0c.19,0,.27,0,.27.25,0,1.15,0,2.29,0,3.44,0,.31-.23.25-.39.3a.57.57,0,0,1-.13-.29c0-1.09,0-2.18,0-3.26a2,2,0,0,0-.1-.44H143l-.69.17Z"/><path class="cls-27" d="M142.92,42.51l.79.12.16,0a.69.69,0,0,1-.15.08l-2,.41a1.45,1.45,0,0,0-.22,0,5.06,5.06,0,0,1-3.13,0l-.22,0-5.34-1a1,1,0,0,1-.27-.15c.85-.13,1.7-.27,2.56-.4.43-.06.86-.09,1.28-.13l5.38.87.43.06Z"/><path class="cls-27" d="M140.5,36.7h1.25l1.7.09,3.76.27.35,0,.09.14-3.05.52-.26,0c-.74-.07-1.48-.15-2.22-.21l-4.33-.32-.73-.06s0-.08,0-.12Z"/><path class="cls-28" d="M144.26,44.2V44c.22-.14.22-.23,0-.37a.05.05,0,0,0,0,0c.26-.09.17-.32.17-.5s0-.3.24-.33l3.74-.65c.19,0,.23,0,.23.21,0,.43,0,.86,0,1.3q0,1.34.07,2.68c0,.17,0,.3-.22.35l-3.93.86s-.1,0-.14-.07c0-1,0-2,0-3.05C144.43,44.34,144.32,44.27,144.26,44.2ZM145.51,43h-.22c-.54,0-.57.07-.58.61q0,1.57,0,3.13c0,.52.11.59.61.39l.2-.1h.33c.55,0,.58-.06.58-.6q0-1.61,0-3.21c0-.4-.09-.48-.47-.37a1.76,1.76,0,0,0-.31.16Zm1.08,1.74h0c0,.6,0,1.19,0,1.79,0,.1,0,.26.11.3a.57.57,0,0,0,.69-.39q0-1.76,0-3.53c0-.08-.05-.23-.08-.23a2.21,2.21,0,0,0-.6.08c-.06,0-.11.19-.11.29C146.58,43.6,146.59,44.17,146.59,44.74Zm1.78-.21h0q0-.87,0-1.74c0-.16,0-.34-.23-.33s-.56.13-.56.34q0,1.81,0,3.61a.29.29,0,0,0,.09.22c.21.13.71-.17.71-.41C148.38,45.65,148.37,45.09,148.37,44.52Z"/><path class="cls-28" d="M148.36,37.37c.27-.18.29,0,.29.2,0,1.15,0,2.29,0,3.44,0,.29.07.67-.08.85s-.53.12-.8.17l-2.95.52c-.21,0-.45.1-.35-.27h.26l.08,0,.55-.14h.28l.77-.11c.13.18.17.07.19-.07h.13l.35-.05a1.17,1.17,0,0,1-.24-.15.31.31,0,0,1-.06-.2c0-1.1,0-2.21,0-3.31,0-.25.18-.24.33-.27s.13.17.13.26c0,.69,0,1.37,0,2.06,0,.42,0,.83,0,1.25a.64.64,0,0,0,.09.21l.08-.23a.14.14,0,0,0,0,0V37.72l.29-.09a1.28,1.28,0,0,0-.1.33q0,1.74,0,3.49c0,.08,0,.24.06.24a1.39,1.39,0,0,0,.56,0c.09,0,.18-.22.18-.34,0-1.27,0-2.53,0-3.8Z"/><path class="cls-29" d="M138.17,50.67c.17-1-.51-1.55-1.18-2.09l-.52-.4,2,.43s.12.14.11.16a3.23,3.23,0,0,0-.38,1.84S138.19,50.65,138.17,50.67Z"/><path class="cls-16" d="M145.4,50.83A9.76,9.76,0,0,1,142,52.17l-.69.11-1,0-1-.25v-.13a7.78,7.78,0,0,0,5.7-.95c.12-.06.23-.13.35-.19S145.37,50.8,145.4,50.83Z"/><path class="cls-16" d="M141.67,58.46a10.11,10.11,0,0,1-3.14,1.22,5.1,5.1,0,0,1-3.4-.31s-.06,0-.09,0v-.16a6.2,6.2,0,0,0,4.81-.08c.58-.21,1.13-.52,1.7-.77a.5.5,0,0,1,.18,0Z"/><path class="cls-16" d="M128.76,56.9a6.54,6.54,0,0,0,4.78-.26c.51-.19,1-.46,1.49-.71.21-.1.13,0,.11.12h0c-.52.24-1,.51-1.56.73a7.7,7.7,0,0,1-3.08.62,3.61,3.61,0,0,1-1.83-.45Z"/><path class="cls-30" d="M144.72,42.27h-.26c0-1.35.05-2.71.07-4.06,0-.2.06-.3.27-.31s.47-.05.71-.08v.24a.08.08,0,0,1,0,0,2.05,2.05,0,0,0-.3,0c-.47,0-.51.05-.51.51s0,.8,0,1.19Z"/><path class="cls-16" d="M132.54,42a1,1,0,0,0,.27.15l5.34,1,.22,0v.13l-5.92-1.09a1,1,0,0,1-.17-.06Z"/><path class="cls-30" d="M148.36,37.37l0,.17-.7.1-.29.09c-.79.09-.79.09-.8.88s0,1.31,0,2h-.14c0-.57,0-1.15,0-1.72a3.32,3.32,0,0,0-.06-.83c0-.19-.09,0-.12,0h-.15c-.05,0-.1-.13-.16-.13a1.18,1.18,0,0,0-.3.05l-.09-.19Z"/><path class="cls-17" d="M141.76,42.35l-5.38-.87v-.1l.45.07,5,.76a1.42,1.42,0,0,1,.21.07Z"/><path class="cls-16" d="M137.8,37.21l4.33.32c.74.06,1.48.14,2.22.21a.58.58,0,0,0,0,.06v.11l-.17,0-.14,0h-.22l-.54,0-.32-.05h-.23l-.53,0-.26,0-.3,0-.16,0h-.62l-.72-.07-.53,0-.63-.07-1.16-.1Z"/><path class="cls-31" d="M136.83,41.45l-.45-.07a1.59,1.59,0,0,1-.08-.34c0-1.2,0-2.39,0-3.59,0-.2,0-.32.26-.27l.54.1s0,0-.07,0c-.56.09-.56.09-.56.69q0,1.22,0,2.45C136.46,41.11,136.46,41.11,136.83,41.45Z"/><path class="cls-17" d="M144.26,44.2c.06.07.17.15.17.22,0,1,0,2,0,3.05h-.15l0-1.88Z"/><path class="cls-19" d="M149.54,55.5l-.68-.05.57-.36.11-.07c.2-.16.38-.21.51.08a.76.76,0,0,0,.15.16l0,.09h0Z"/><path class="cls-29" d="M132.79,47.81l-.71-.69,1.2.25.12,0a.76.76,0,0,1-.11.13l-.4.29h0Z"/><path class="cls-23" d="M134,61.07c.33,0,.65-.07,1-.08s.35,0,.43-.22c.16.19.22.33-.13.32Z"/><path class="cls-17" d="M132.53,51.15l1.47.42-.22.09-1.26-.35h0v-.09S132.53,51.18,132.53,51.15Z"/><path class="cls-18" d="M137.1,37.27l-.54-.1.14-.18.32,0s0,.12,0,.12l.73.06v.13Z"/><path class="cls-17" d="M142.92,42.51l-.73-.11v-.12l.81.1Z"/><path class="cls-19" d="M140.5,63.49h0Z"/><path class="cls-17" d="M149.54,55.5l.64-.15c-.14.26-.41.21-.63.26Z"/><path class="cls-23" d="M135.35,60.75a.32.32,0,0,1-.23-.47Z"/><path class="cls-11" d="M147.66,37.24l-.09-.14a.23.23,0,0,1,.08,0l.34.08Z"/><path class="cls-28" d="M145.6,37.8l.09.19-.18.07v-.24Z"/><path class="cls-16" d="M138.79,43.42l-.35-.07Z"/><path class="cls-17" d="M134.1,51.57h0Z"/><path class="cls-32" d="M152,54.08l-.16.07.06-.18Z"/><path class="cls-17" d="M144.35,37.8a.58.58,0,0,1,0-.06l.26,0Z"/><path class="cls-17" d="M143.73,42.49l.25.05Z"/><path class="cls-23" d="M132.53,51.24v.09h-.07Z"/><path class="cls-17" d="M143.2,42.42l.1,0Z"/><path class="cls-17" d="M150.17,55.35l0-.09.11,0h0l0,.09Z"/><path class="cls-8" d="M136.9,24.37a.91.91,0,0,1-.89.88.88.88,0,1,1,0-1.77A.92.92,0,0,1,136.9,24.37Z"/><path class="cls-8" d="M139,22.82a.87.87,0,0,1,.89.86.88.88,0,1,1-1.75,0A.85.85,0,0,1,139,22.82Z"/><path class="cls-8" d="M145.46,23.66a.9.9,0,0,1,.58-.83.87.87,0,0,1,1,.28c.12.15.1.21-.08.28-.4.15-.8.31-1.19.49S145.47,23.85,145.46,23.66Z"/><path class="cls-8" d="M145.9,50.24a1.27,1.27,0,0,1,.87-1.08l.34.09a.67.67,0,0,1,.54.82,1.13,1.13,0,0,1-.89.78c-.41.07-.62-.17-.79-.49Z"/><path class="cls-16" d="M148.19,51.19a1.52,1.52,0,0,1-1.6.39,1.12,1.12,0,0,1-.78-1.35l0,0,.06,0,0,.45a.86.86,0,0,0,.64.71,1.56,1.56,0,0,0,1.49-.28Z"/><path class="cls-16" d="M148.21,49.43a1.16,1.16,0,0,1,0,1.77l-.1-.08c.5-.67.51-1,.06-1.62Z"/><path class="cls-18" d="M147.1,49.25l-.34-.09c.26-.13.52-.27.81-.09l-.12.07Z"/><path class="cls-16" d="M147.46,49.14l.12-.07.63.36-.07.07Z"/><path class="cls-12" d="M146,50.69l0-.45h0l.06.13Z"/><path class="cls-8" d="M142.22,57.68a1.53,1.53,0,0,1,1-1l.25.09c.45.19.6.4.56.79a1,1,0,0,1-.83.82c-.4.08-.59,0-.8-.44Z"/><path class="cls-17" d="M144.67,57.09a1.2,1.2,0,0,1-.29,1.82,1.49,1.49,0,0,1-2-.22.93.93,0,0,1-.13-1l.07.32a1,1,0,0,0,.88,1,1.44,1.44,0,0,0,1.43-.53,1.11,1.11,0,0,0,0-1.33Z"/><path class="cls-17" d="M143.44,56.78l-.25-.09a1.16,1.16,0,0,1,1.48.39l-.07.06a1.32,1.32,0,0,0-.3-.25C144,56.78,143.77,56.54,143.44,56.78Z"/><path class="cls-13" d="M142.28,58l-.07-.32s0,0,0,0l.15.27Z"/><path class="cls-9" d="M150.26,55.32l0-.09,0,.05Z"/><path class="cls-9" d="M151.6,54.45v.06h0l.06-.05Z"/><path class="cls-17" d="M140.13,37.53l.72.07Z"/><path class="cls-17" d="M139,37.44l.63.07Z"/><path class="cls-8" d="M142.2,42.29v.12l-.43-.06.27-.08Z"/><path class="cls-17" d="M141.94,37.67l.26,0Z"/><path class="cls-17" d="M143,37.72l.32.05Z"/><path class="cls-17" d="M141.48,37.62l.16,0Z"/><path class="cls-17" d="M144,37.81l.14,0Z"/><path class="cls-17" d="M143.81,37.8h0Z"/><path class="cls-17" d="M142.72,37.71h0Z"/><path class="cls-33" d="M140.23,52.25l1,0,.21.05a.46.46,0,0,1-.15.06c-.37,0-.73,0-1.1,0C140,52.37,140.17,52.3,140.23,52.25Z"/><path class="cls-34" d="M141.22,43.8l.08,0c.86-.17.71-.27.71.53,0,1,0,2.05,0,3.08,0,.58,0,.6-.59.63h-.22Zm.62,2h0c0-.59,0-1.19,0-1.78,0-.08-.07-.17-.11-.25-.11.07-.23.14-.33.23s0,.09,0,.13c0,1.16,0,2.32,0,3.48a.73.73,0,0,0,.11.25,1.58,1.58,0,0,0,.33-.23c0-.05,0-.17,0-.26Q141.85,46.62,141.85,45.84Z"/><path class="cls-18" d="M143.17,43.44a2,2,0,0,1,.1.44c0,1.09,0,2.18,0,3.26a.57.57,0,0,0,.13.29c.16-.05.4,0,.39-.3,0-1.15,0-2.29,0-3.44,0-.2-.08-.27-.27-.25a.35.35,0,0,1-.12,0,.51.51,0,0,1,.1-.08c.27-.12.38-.06.38.25,0,1.19,0,2.38,0,3.58a.34.34,0,0,1-.32.39c-.15,0-.3,0-.44,0Z"/><path class="cls-18" d="M140.49,48.27c-.06-.08-.17-.16-.17-.24,0-1.27,0-2.53,0-3.8,0-.22.12-.29.29-.32a4.13,4.13,0,0,1,.44,0,3.14,3.14,0,0,1,0,.35q0,1.89,0,3.78c-.23.1-.12-.11-.12-.15,0-1.09,0-2.18,0-3.26a1.18,1.18,0,0,0,0-.27,2.43,2.43,0,0,0-.12-.32c-.17.07-.42,0-.41.34,0,1.25,0,2.5,0,3.75Z"/><path class="cls-30" d="M143.17,43.44l0,4.13-.17.07c0-.64,0-1.28,0-1.92s0-1.51,0-2.27Z"/><path class="cls-35" d="M142.56,43.62a5.08,5.08,0,0,0-.09.65c0,1.13,0,2.25,0,3.38l0,.09h-.11c0-.13,0-.26,0-.39q0-1.86,0-3.73h.27Z"/><path class="cls-30" d="M141.07,48q0-1.89,0-3.78a3.14,3.14,0,0,0,0-.35l.18-.07V48Z"/><path class="cls-18" d="M142.56,43.62h-.27l.69-.17c0,.76,0,1.51,0,2.27s0,1.28,0,1.92c-.26,0-.14-.23-.14-.34,0-1.12,0-2.23,0-3.35C142.82,43.76,142.85,43.56,142.56,43.62Z"/><path class="cls-18" d="M142.29,43.61q0,1.86,0,3.73c0,.13,0,.26,0,.39-.27.09-.13-.14-.13-.2,0-.95,0-1.9,0-2.85,0-.27,0-.53,0-.8A1.12,1.12,0,0,1,142.29,43.61Z"/><path class="cls-30" d="M144.26,45.59l0,1.88c0-.07-.1-.15-.1-.22,0-.49,0-1,0-1.46A.57.57,0,0,1,144.26,45.59Z"/><path class="cls-35" d="M140.49,48.27l-.06-.18h.26v.1Z"/><path class="cls-9" d="M144.26,43.66c.22.13.22.22,0,.37Z"/><path class="cls-18" d="M142.44,47.74l0-.09.2,0Z"/><path class="cls-18" d="M140.67,48.2v-.1l.11,0Z"/><path class="cls-34" d="M145.63,43a1.76,1.76,0,0,1,.31-.16c.38-.11.47,0,.47.37q0,1.61,0,3.21c0,.54,0,.56-.58.6h-.22Zm.61,1.92h0c0-.57,0-1.13,0-1.7,0-.08-.13-.22-.18-.21s-.18.11-.25.18,0,.11,0,.17q0,1.58,0,3.17c0,.14,0,.31.2.31s.25-.14.25-.32C146.24,46,146.24,45.45,146.24,44.91Z"/><path class="cls-34" d="M145.51,47l-.2.1c-.5.19-.61.12-.61-.39q0-1.57,0-3.13c0-.54,0-.57.58-.61h.22Zm-.18-1.88h0c0-.56,0-1.13,0-1.69,0-.25-.11-.34-.32-.26s-.14.18-.14.27c0,1.08,0,2.17,0,3.25,0,.14,0,.31.21.31s.25-.15.25-.32C145.33,46.18,145.33,45.66,145.33,45.14Z"/><path class="cls-34" d="M146.59,44.74c0-.57,0-1.13,0-1.7,0-.1,0-.27.11-.29a2.21,2.21,0,0,1,.6-.08s.08.15.08.23q0,1.76,0,3.53a.57.57,0,0,1-.69.39c-.07,0-.1-.19-.11-.3,0-.6,0-1.19,0-1.79Zm.17,0h0c0,.55,0,1.1,0,1.65,0,.08.11.16.16.25a2.24,2.24,0,0,0,.27-.23s0-.11,0-.17q0-1.56,0-3.12c0-.16,0-.34-.23-.32s-.22.19-.22.35Q146.76,44,146.76,44.76Z"/><path class="cls-34" d="M148.37,44.52c0,.56,0,1.13,0,1.69,0,.25-.5.54-.71.41a.29.29,0,0,1-.09-.22q0-1.81,0-3.61c0-.21.24-.33.56-.34s.23.16.23.33q0,.87,0,1.74Zm-.18,0h0c0-.57,0-1.13,0-1.7,0-.07-.1-.2-.12-.2a.72.72,0,0,0-.31.17s0,.17,0,.26q0,1,0,2c0,.4,0,.8,0,1.21,0,.22.14.29.31.16a.49.49,0,0,0,.13-.33C148.21,45.56,148.2,45,148.2,44.51Z"/><path class="cls-30" d="M145.51,47V43h.13l0,4Z"/><path class="cls-34" d="M147.68,37.63l.7-.1c0,1.27,0,2.53,0,3.8,0,.12-.09.31-.18.34a1.39,1.39,0,0,1-.56,0s-.06-.16-.06-.24q0-1.74,0-3.49A1.28,1.28,0,0,1,147.68,37.63Zm.52,2h0c0-.55,0-1.1,0-1.65,0-.09-.09-.17-.14-.26-.1.08-.21.16-.31.25s0,.09,0,.13c0,1.07,0,2.14,0,3.21,0,.09,0,.23.08.25a.35.35,0,0,0,.29-.05.41.41,0,0,0,.07-.28C148.2,40.71,148.2,40.18,148.2,39.64Z"/><path class="cls-34" d="M146.57,40.57q0-1,0-2c0-.79,0-.79.8-.88v3.71a.14.14,0,0,1,0,0l-.08.23a.64.64,0,0,1-.09-.21c0-.42,0-.83,0-1.25,0-.69,0-1.37,0-2.06,0-.09-.1-.26-.13-.26s-.33,0-.33.27c0,1.1,0,2.2,0,3.31a.31.31,0,0,0,.06.2,1.17,1.17,0,0,0,.24.15l-.35.05h-.13Z"/><path class="cls-18" d="M145.51,38.06l.18-.07a1.18,1.18,0,0,1,.3-.05c.05,0,.1.08.16.13-.32,0-.36.15-.36.41,0,1,0,2.08,0,3.12,0,.13-.07.32.18.32s.35-.05.35-.3q0-1.78,0-3.57c0-.07.07-.24.12,0a3.32,3.32,0,0,1,.06.83c0,.57,0,1.15,0,1.72l0,1.42-.77.11,0-2.94c0-.24,0-.49,0-.73,0-.06-.11-.12-.17-.18V38.1A.08.08,0,0,0,145.51,38.06Z"/><path class="cls-34" d="M145.53,38.1v1l0,2.95h-.16l0,0q0-1.78,0-3.56c0-.16,0-.3-.23-.29s-.23.12-.23.29c0,.41,0,.83,0,1.24h-.15c0-.4,0-.8,0-1.19s0-.5.51-.51A2.05,2.05,0,0,1,145.53,38.1Z"/><path class="cls-18" d="M144.71,39.77h.15l-.06,2.31,0,.17-.08,0Z"/><path class="cls-30" d="M145.5,42.09l0-2.95h.13l0,2.94Z"/><path class="cls-26" d="M146.4,42l0-1.42h.14l0,1.35C146.57,42.06,146.53,42.16,146.4,42Z"/><path class="cls-34" d="M144.79,42.25l0-.17h.52l0,0Z"/><path class="cls-26" d="M146.3,38.06q0,1.78,0,3.57c0,.24-.14.3-.35.3s-.18-.19-.18-.32c0-1,0-2.08,0-3.12,0-.26,0-.45.36-.41Z"/><path class="cls-33" d="M146,50.69v-.32c.17.32.38.56.79.49a1.13,1.13,0,0,0,.89-.78.67.67,0,0,0-.54-.82l.36-.11.68.36c.45.66.44,1-.06,1.62a1.56,1.56,0,0,1-1.49.28A.86.86,0,0,1,146,50.69Z"/><path class="cls-33" d="M142.28,58l.09-.09c.21.42.4.52.8.44a1,1,0,0,0,.83-.82c0-.38-.1-.59-.56-.79.32-.24.59,0,.86.12a1.32,1.32,0,0,1,.3.25,1.11,1.11,0,0,1,0,1.33,1.44,1.44,0,0,1-1.43.53A1,1,0,0,1,142.28,58Z"/><path class="cls-28" d="M141.85,45.84q0,.78,0,1.56c0,.09,0,.21,0,.26a1.58,1.58,0,0,1-.33.23.73.73,0,0,1-.11-.25c0-1.16,0-2.32,0-3.48,0,0,0-.11,0-.13s.22-.15.33-.23c0,.08.11.16.11.25,0,.59,0,1.19,0,1.78Z"/><path class="cls-28" d="M146.24,44.91c0,.54,0,1.07,0,1.61,0,.18,0,.33-.25.32s-.2-.17-.2-.31q0-1.58,0-3.17c0-.06,0-.14,0-.17S146,43,146,43s.18.14.18.21c0,.56,0,1.13,0,1.7Z"/><path class="cls-28" d="M145.33,45.14c0,.52,0,1,0,1.56,0,.18,0,.33-.25.32s-.2-.17-.21-.31c0-1.08,0-2.17,0-3.25,0-.1.07-.25.14-.27s.32,0,.32.26c0,.56,0,1.13,0,1.69Z"/><path class="cls-28" d="M146.76,44.76q0-.8,0-1.61c0-.16,0-.33.22-.35s.23.16.23.32q0,1.56,0,3.12c0,.06,0,.14,0,.17a2.24,2.24,0,0,1-.27.23c-.06-.08-.16-.16-.16-.25,0-.55,0-1.1,0-1.65Z"/><path class="cls-26" d="M148.2,44.51c0,.52,0,1,0,1.56a.49.49,0,0,1-.13.33c-.17.14-.3.06-.31-.16,0-.4,0-.8,0-1.21q0-1,0-2c0-.09,0-.21,0-.26a.72.72,0,0,1,.31-.17s.12.13.12.2c0,.57,0,1.13,0,1.7Z"/><path class="cls-28" d="M148.2,39.64c0,.53,0,1.07,0,1.6a.41.41,0,0,1-.07.28.35.35,0,0,1-.29.05c-.05,0-.08-.16-.08-.25,0-1.07,0-2.14,0-3.21,0,0,0-.11,0-.13s.2-.17.31-.25c0,.09.14.17.14.26,0,.55,0,1.1,0,1.65Z"/><path class="cls-28" d="M145.66,39.14h-.13v-.91c.06.06.17.12.17.18C145.69,38.66,145.67,38.9,145.66,39.14Z"/><path class="cls-26" d="M145.33,42.09h-.52l.06-2.31c0-.41,0-.83,0-1.24,0-.17,0-.29.23-.29s.23.13.23.29Q145.33,40.31,145.33,42.09Z"/></svg>