<svg id="Layer_1" data-name="Layer 1" xmlns="http://www.w3.org/2000/svg" viewBox="0 0 180 79"><defs><style>.cls-1{fill:#93bea7;}.cls-2{fill:#799987;}.cls-3{fill:#fff;}.cls-4{fill:#394d54;}.cls-10,.cls-11,.cls-4,.cls-9{fill-rule:evenodd;}.cls-5{fill:#00aada;}.cls-6{fill:#24b8eb;}.cls-7{fill:#008bb8;}.cls-8{fill:#039bc6;}.cls-9{fill:#00acd3;}.cls-10{fill:#20c2ef;}.cls-11,.cls-13{fill:#d4edf1;}.cls-12{fill:#bfdbe0;}.cls-14{fill:#004764;}.cls-15{fill:#00aade;}.cls-16{fill:#004463;}.cls-17{fill:#00a9dd;}.cls-18{fill:#004e6b;}.cls-19{fill:#3ba0dc;}.cls-20{fill:#ff4963;}</style></defs><title>container logo 3</title><path id="Rectangle-2-Copy-4" class="cls-1" d="M2.5,0h175A2.5,2.5,0,0,1,180,2.5h0A2.5,2.5,0,0,1,177.5,5H2.5A2.5,2.5,0,0,1,0,2.5H0A2.5,2.5,0,0,1,2.5,0Z"/><path class="cls-2" d="M180,3V75a4,4,0,0,1-4,4H4a4,4,0,0,1-4-4V3H0A2.5,2.5,0,0,0,2.5,5h175A2.49,2.49,0,0,0,180,3Z"/><rect id="Rectangle-13-Copy-12" class="cls-3" x="5" y="10" width="171" height="64" rx="3" ry="3"/><path id="outline" class="cls-4" d="M69.23,53.51h3v3.12h1.52a6.46,6.46,0,0,0,2.08-.36,5.29,5.29,0,0,0,1-.47,3.87,3.87,0,0,1-.7-2,4.23,4.23,0,0,1,.74-2.94l.32-.37.38.31a4.87,4.87,0,0,1,1.88,3.09,4.51,4.51,0,0,1,3.48.33l.41.24-.22.43A4.31,4.31,0,0,1,78.76,57c-2.6,6.59-8.25,9.7-15.1,9.7-3.54,0-6.79-1.35-8.64-4.55l0-.05-.27-.56A9,9,0,0,1,54,57.1l0-.46h2.56V53.51h3V50.46h6V47.41h3.6Z"/><g id="body_colors" data-name="body colors"><path class="cls-5" d="M78.94,54.67a4.05,4.05,0,0,0-1.69-3.43c-.84,1-1,3.56.35,4.65a6.23,6.23,0,0,1-3.85,1.26H54.53a8.38,8.38,0,0,0,.8,4.55l.22.41a7.42,7.42,0,0,0,.45.69h0q1.18.08,2.18.05h0a10.53,10.53,0,0,0,3.19-.47.23.23,0,0,1,.29.15.24.24,0,0,1-.14.3l-.34.11h0a9.84,9.84,0,0,1-2.2.37h-.15c-.35,0-.72,0-1.11,0s-.83,0-1.29,0h0a9.33,9.33,0,0,0,7.24,2.93c6.64,0,12.27-3,14.77-9.73,1.77.19,3.47-.27,4.24-1.81A4.11,4.11,0,0,0,78.94,54.67Z"/><path class="cls-6" d="M78.94,54.67a4.05,4.05,0,0,0-1.69-3.43c-.84,1-1,3.56.35,4.65a6.23,6.23,0,0,1-3.85,1.26H55.66a6.4,6.4,0,0,0,2.51,5.7h0a10.53,10.53,0,0,0,3.19-.47.23.23,0,0,1,.29.15.24.24,0,0,1-.14.3l-.34.11h0a10.36,10.36,0,0,1-2.26.38l0,0c2.26,1.18,5.54,1.18,9.29-.29a26.17,26.17,0,0,0,10.87-8.38Z"/><path class="cls-7" d="M54.56,59.18a7.92,7.92,0,0,0,.76,2.51l.22.41a7.42,7.42,0,0,0,.45.69q1.18.08,2.18.05a10.53,10.53,0,0,0,3.19-.47.23.23,0,0,1,.29.15.24.24,0,0,1-.14.3l-.34.11h0a10.37,10.37,0,0,1-2.26.37h-.11c-.35,0-.72,0-1.1,0s-.85,0-1.31,0a9.36,9.36,0,0,0,7.26,2.94c5.69,0,10.63-2.2,13.5-7.05Z"/><path class="cls-8" d="M55.84,59.18a5.89,5.89,0,0,0,2.34,3.66,10.53,10.53,0,0,0,3.19-.47.23.23,0,0,1,.29.15.24.24,0,0,1-.14.3l-.34.11h0a10.52,10.52,0,0,1-2.27.37c2.26,1.18,5.53,1.16,9.28-.31a24.45,24.45,0,0,0,6.42-3.81Z"/></g><g id="Containers"><path class="cls-9" d="M59.31,54.24h.21v2.21h-.21Zm-.39,0h.21v2.21h-.21Zm-.39,0h.21v2.21h-.21Zm-.39,0h.21v2.21h-.21Zm-.39,0h.21v2.21h-.21Zm-.39,0h.21v2.21h-.21ZM57.13,54h2.6v2.65h-2.6Z"/><path class="cls-9" d="M62.31,51.19h.21v2.21h-.21Zm-.39,0h.21v2.21h-.21Zm-.39,0h.21v2.21h-.21Zm-.39,0h.21v2.21h-.21Zm-.39,0h.21v2.21h-.21Zm-.39,0h.2v2.21h-.2ZM60.13,51h2.6v2.65h-2.6Z"/><path class="cls-10" d="M62.31,54.24h.21v2.21h-.21Zm-.39,0h.21v2.21h-.21Zm-.39,0h.21v2.21h-.21Zm-.39,0h.21v2.21h-.21Zm-.39,0h.21v2.21h-.21Zm-.39,0h.2v2.21h-.2ZM60.13,54h2.6v2.65h-2.6Z"/><path class="cls-9" d="M65.31,54.24h.21v2.21h-.21Zm-.39,0h.21v2.21h-.21Zm-.39,0h.21v2.21h-.21Zm-.39,0h.21v2.21h-.21Zm-.39,0h.21v2.21h-.21Zm-.39,0h.21v2.21h-.21ZM63.13,54h2.6v2.65h-2.6Z"/><path class="cls-10" d="M65.31,51.19h.21v2.21h-.21Zm-.39,0h.21v2.21h-.21Zm-.39,0h.21v2.21h-.21Zm-.39,0h.21v2.21h-.21Zm-.39,0h.21v2.21h-.21Zm-.39,0h.21v2.21h-.21ZM63.13,51h2.6v2.65h-2.6Z"/><path class="cls-10" d="M68.3,54.24h.21v2.21H68.3Zm-.39,0h.21v2.21h-.21Zm-.39,0h.21v2.21h-.21Zm-.39,0h.21v2.21h-.21Zm-.39,0h.21v2.21h-.21Zm-.39,0h.21v2.21h-.21ZM66.13,54h2.6v2.65h-2.6Z"/><path class="cls-9" d="M68.3,51.19h.21v2.21H68.3Zm-.39,0h.21v2.21h-.21Zm-.39,0h.21v2.21h-.21Zm-.39,0h.21v2.21h-.21Zm-.39,0h.21v2.21h-.21Zm-.39,0h.21v2.21h-.21ZM66.13,51h2.6v2.65h-2.6Z"/><path class="cls-10" d="M68.3,48.13h.21v2.21H68.3Zm-.39,0h.21v2.21h-.21Zm-.39,0h.21v2.21h-.21Zm-.39,0h.21v2.21h-.21Zm-.39,0h.21v2.21h-.21Zm-.39,0h.21v2.21h-.21Zm-.22-.22h2.6v2.65h-2.6Z"/><path class="cls-9" d="M71.3,54.24h.21v2.21H71.3Zm-.39,0h.21v2.21h-.21Zm-.39,0h.21v2.21h-.21Zm-.39,0h.21v2.21h-.21Zm-.39,0h.21v2.21h-.21Zm-.39,0h.2v2.21h-.2ZM69.13,54h2.6v2.65h-2.6Z"/></g><path class="cls-11" d="M62.57,61a.73.73,0,1,1-.72.73.72.72,0,0,1,.72-.73"/><path class="cls-4" d="M62.57,61.17a.51.51,0,0,1,.19,0,.21.21,0,0,0-.1.18.21.21,0,0,0,.21.21.21.21,0,0,0,.18-.11.53.53,0,0,1,0,.2.51.51,0,1,1-.51-.52"/><path class="cls-4" d="M49.89,59.45H83.23c-.73-.19-2.3-.44-2-1.41-1.32,1.56-4.5,1.09-5.31.32-.89,1.32-6.1.82-6.47-.21-1.12,1.34-4.6,1.34-5.72,0-.36,1-5.57,1.53-6.47.21-.8.77-4,1.23-5.31-.32.26,1-1.31,1.22-2,1.41"/><path class="cls-12" d="M64.47,66.22a6.38,6.38,0,0,1-3.29-3.3,10.81,10.81,0,0,1-2.37.37q-.52,0-1.09,0t-1.4,0a9.4,9.4,0,0,0,7.34,3Z"/><path class="cls-13" d="M61.84,64.1a6.36,6.36,0,0,1-.66-1.17,10.82,10.82,0,0,1-2.37.37A7.45,7.45,0,0,0,61.84,64.1Z"/><path class="cls-4" d="M118.27,60.85l3.07-2.69c.35-.31.73-.63,1.08-.95a2.73,2.73,0,0,0-1.14-.77,2.57,2.57,0,0,0-2.31.22,2.68,2.68,0,0,0-1.33,2.57,2.51,2.51,0,0,0,.36,1.24,3.28,3.28,0,0,0,.27.37m1.19.85a3.17,3.17,0,0,0,1.59.06,3.55,3.55,0,0,1,1.19-.37h0l0,0a.79.79,0,0,1,.37.34.68.68,0,0,1-.26.95l-.12.07a3.88,3.88,0,0,1-4-.06,3.75,3.75,0,0,1-1.46-1.48l-.08-.15a4,4,0,0,1,.22-4.46,3.81,3.81,0,0,1,1.26-1.16l.19-.11a3.84,3.84,0,0,1,3.83,0,3.77,3.77,0,0,1,1.61,1.53l.07.12c.28.49-.08.91-.45,1.2s-.86.74-1.27,1.1Zm9.82-6.75h.14a.66.66,0,0,1,.69.7c0,.58-.55.73-1,.73a2.47,2.47,0,0,0-1.64.81,2.71,2.71,0,0,0-.77,2v3.41a.64.64,0,0,1-.64.7h-.11a.64.64,0,0,1-.64-.7V59a4,4,0,0,1,1.76-3.31A3.75,3.75,0,0,1,129.28,54.95Zm-17.23,2.42c.54-.55,1.08-1.09,1.62-1.63.15-.15.73-.79,1-.79h.28a.62.62,0,0,1,.55.61v.14c0,.24-.27.51-.42.67-.32.34-.65.67-1,1l-1.67,1.73,2.15,2.21.59.62a1.53,1.53,0,0,1,.23.27.59.59,0,0,1,.1.32v.18a.66.66,0,0,1-.63.58h-.11c-.23,0-.49-.26-.64-.41-.32-.31-.63-.64-1-1l-1.06-1.06v1.7a.64.64,0,0,1-.64.7h-.11a.64.64,0,0,1-.64-.7V53a.64.64,0,0,1,.64-.7h.11a.64.64,0,0,1,.64.7Zm-4.48-1a2.54,2.54,0,0,0-.82-.14,2.57,2.57,0,0,0-2.48,1.66,2.62,2.62,0,0,0-.25,1.13,2.72,2.72,0,0,0,1.68,2.57,3.1,3.1,0,0,0,1.31.22,3.38,3.38,0,0,0,1.22-.39l.06,0h.28a.62.62,0,0,1,.55.61v.14c0,.86-1.54,1.05-2.13,1.09a3.91,3.91,0,0,1-4.21-3,3.7,3.7,0,0,1-.15-1.06v-.28a4,4,0,0,1,2-3.51,3.73,3.73,0,0,1,2-.54h.27a3.47,3.47,0,0,1,2,.64l.05,0,0,.05a.75.75,0,0,1,.12.37v.14a.63.63,0,0,1-.58.62h-.11A3.08,3.08,0,0,1,107.57,56.41ZM95,59.09a2.72,2.72,0,0,0,1.4,2.41,2.52,2.52,0,0,0,1.36.38,2.83,2.83,0,0,0,2.71-2.82,2.69,2.69,0,0,0-1.27-2.31,2.54,2.54,0,0,0-1.46-.45A2.81,2.81,0,0,0,95,59.09Zm2.6-4.2h.19a3.91,3.91,0,0,1,3.59,2.22,3.84,3.84,0,0,1,.47,1.84v.28a4,4,0,0,1-2,3.51,3.77,3.77,0,0,1-2,.54h-.27a3.86,3.86,0,0,1-3.45-2.07,3.93,3.93,0,0,1-.53-2v-.28a4,4,0,0,1,2-3.51A3.73,3.73,0,0,1,97.57,54.89Zm-11.65,4.2a2.68,2.68,0,0,0,1.47,2.46,2.52,2.52,0,0,0,1.24.33,2.83,2.83,0,0,0,2.76-2.82,2.7,2.7,0,0,0-1.2-2.26,2.54,2.54,0,0,0-1.54-.5,2.8,2.8,0,0,0-2.74,2.79Zm5.48-3.15V53a.64.64,0,0,1,.64-.7h.11a.64.64,0,0,1,.64.7v6.26a4,4,0,0,1-2,3.51,3.77,3.77,0,0,1-2,.54h-.27a3.86,3.86,0,0,1-3.45-2.07,3.93,3.93,0,0,1-.53-2v-.28a4,4,0,0,1,2-3.52,3.75,3.75,0,0,1,2-.54h.27A3.82,3.82,0,0,1,91.39,55.94Z"/><path class="cls-14" d="M92.22,31.57a4.35,4.35,0,1,1-4.35-4.38A4.36,4.36,0,0,1,92.22,31.57Zm-1,0a3.34,3.34,0,1,0-3.33,3.38A3.38,3.38,0,0,0,91.21,31.56Z"/><path class="cls-14" d="M62.72,29.75c-1.08,1.63-2.32,3-3.45,4.55-.67-.87-1.31-1.73-2-2.57-.82-1-1.59-2.13-2.36-3.21,0-.07-.12-.13-.12-.22A11.1,11.1,0,0,1,54.87,27l4.4,5.72,4.41-5.72a.34.34,0,0,1,0,.25c0,2.78,0,5.56,0,8.34,0,.22-.05.31-.28.28s-.56.1-.71-.06,0-.46,0-.69q0-1.57,0-3.15C62.7,31.22,62.68,30.52,62.72,29.75Z"/><path class="cls-14" d="M67,31.54c0-1.33,0-2.66,0-4,0-.19,0-.26.25-.26H72c.2,0,.28,0,.25.25s.1.54-.05.68-.44,0-.67,0H68.29c-.2,0-.24.06-.24.25,0,.76,0,1.52,0,2.28,0,.22.08.25.26.25h3.25c.21,0,.27.06.25.26s.09.53,0,.67-.45,0-.69.05H68.3c-.19,0-.25,0-.24.24q0,1.18,0,2.35c0,.19,0,.25.24.24h3.92c.21,0,.27.06.25.25s.1.55-.05.68-.44,0-.67,0H67.28c-.2,0-.25-.05-.25-.25C67,34.22,67,32.88,67,31.54Z"/><path class="cls-14" d="M97.38,27.25a3.13,3.13,0,0,1,2.18.81c.08.07.07.12,0,.19s-.27.33-.39.5-.13.1-.24,0a2.25,2.25,0,0,0-1.73-.53,1.21,1.21,0,0,0-1.09,1.06,1.05,1.05,0,0,0,.64,1.26c.46.22.95.37,1.42.57a3.11,3.11,0,0,1,1.65,1.35,2.31,2.31,0,0,1-1.55,3.33,3.45,3.45,0,0,1-3.39-1.09c-.13-.13-.16-.24,0-.37s.29-.39.46-.42.31.24.48.37a2.28,2.28,0,0,0,2.31.5,1.35,1.35,0,0,0,.44-2.32,2.91,2.91,0,0,0-1-.57,9,9,0,0,1-1.21-.48,2.17,2.17,0,0,1-1.19-2.52,2.09,2.09,0,0,1,2-1.67Z"/><path class="cls-14" d="M79.57,33.47a1.23,1.23,0,0,0-.48-1,3.16,3.16,0,0,0-1-.55,5.34,5.34,0,0,1-1.66-.76,2.18,2.18,0,0,1-.7-2.37,2,2,0,0,1,1.81-1.51A3.17,3.17,0,0,1,80,28c.11.09.16.15,0,.28a3.18,3.18,0,0,0-.34.44c-.09.14-.15.13-.27,0a2.21,2.21,0,0,0-1.71-.52,1.22,1.22,0,0,0-1.09,1,1.07,1.07,0,0,0,.63,1.28c.45.21.93.37,1.39.56a3.28,3.28,0,0,1,1.56,1.18,2.31,2.31,0,0,1-1.44,3.51,3.46,3.46,0,0,1-3.42-1.12c-.12-.12-.12-.21,0-.32s.3-.39.49-.43.31.24.47.37a2.34,2.34,0,0,0,2.21.54A1.33,1.33,0,0,0,79.57,33.47Z"/><path class="cls-15" d="M42.1,34.95l5.18-3v5.95Z"/><path class="cls-15" d="M42.15,27.85l2-1.15L47.08,25c.16-.09.22-.11.22.12q0,2.74,0,5.48c0,.17,0,.24-.21.14L42.24,28A.13.13,0,0,1,42.15,27.85Z"/><path class="cls-15" d="M40.8,27.89l-2.22,1.28L35.9,30.71c-.24.14-.24.13-.24-.14q0-2.71,0-5.42c0-.16,0-.27.2-.15l4.81,2.79Z"/><path class="cls-16" d="M35.69,32l5.12,3-5.12,3Z"/><path class="cls-16" d="M35.68,23.77V17.83l5.13,3Z"/><path class="cls-16" d="M40.81,42l-5.13,3V39.05Z"/><path class="cls-15" d="M28.57,27.88l-2.06,1.19-2.85,1.65c-.13.08-.24.16-.24-.1,0-1.85,0-3.7,0-5.55,0,0,0-.08,0-.16Z"/><path class="cls-15" d="M28.57,34.95l-1.38.8-3.52,2c-.11.06-.24.2-.24-.09q0-2.8,0-5.6a.81.81,0,0,1,0-.11Z"/><path class="cls-14" d="M35,32c0,2,0,3.85,0,5.75,0,.17,0,.19-.18.11l-5-2.87Z"/><path class="cls-14" d="M29.88,42,35,39V45Z"/><path class="cls-14" d="M29.88,20.8l5.1-3a.28.28,0,0,1,0,.22c0,1.82,0,3.63,0,5.45,0,.21,0,.27-.23.14l-4.73-2.74Z"/><path class="cls-15" d="M29.92,27.85,35,24.92a.34.34,0,0,1,0,.24q0,2.7,0,5.4c0,.29,0,.29-.24.15L30.07,28S30,27.94,29.92,27.85Z"/><path class="cls-17" d="M41.8,21.37l5.13,3a3.41,3.41,0,0,1-.62.39L42,27.18c-.12.07-.24.19-.24-.09,0-1.87,0-3.73,0-5.6C41.78,21.47,41.79,21.44,41.8,21.37Z"/><path class="cls-17" d="M41.79,34.39v-6l5.17,3Z"/><path class="cls-17" d="M41.8,35.51l5.16,3-5.16,3Z"/><path class="cls-17" d="M29.56,21.36l5.13,3L33.52,25,29.77,27.2c-.1.06-.21.17-.21-.08C29.56,25.22,29.56,23.32,29.56,21.36Z"/><path class="cls-16" d="M29.57,35.51l5.12,3-5.12,3Z"/><path class="cls-17" d="M36,24.33l5.13-3v.29q0,2.69,0,5.37c0,.29,0,.29-.26.14l-4.64-2.69Z"/><path class="cls-16" d="M34.69,31.4l-5.11,3V28.45Z"/><path class="cls-16" d="M41.12,35.51v5.95l-5.13-3Z"/><path class="cls-16" d="M41.12,28.44v5.93L36,31.4Z"/><path class="cls-17" d="M23.77,24.33l5.12-3c0,.11,0,.19,0,.26q0,2.71,0,5.42c0,.17,0,.27-.21.14l-4.8-2.78Z"/><path class="cls-17" d="M28.88,41.45l-5.07-2.94c0-.12.12-.13.19-.17l4.65-2.68c.25-.14.25-.14.25.15q0,2.7,0,5.39C28.9,41.27,28.89,41.34,28.88,41.45Z"/><path class="cls-17" d="M28.89,28.44c0,.09,0,.15,0,.21q0,2.74,0,5.47c0,.17,0,.26-.21.14L23.92,31.5l-.15-.1Z"/><path class="cls-18" d="M54.84,30l1,1.26a.37.37,0,0,1,0,.25c0,1.35,0,2.71,0,4.06,0,.18,0,.24-.23.23a5.18,5.18,0,0,0-.61,0c-.13,0-.2,0-.2-.18,0-1.83,0-3.66,0-5.5A.82.82,0,0,1,54.84,30Z"/><path class="cls-19" d="M120.28,39.84a11.53,11.53,0,0,1,1.93-4,14.94,14.94,0,0,0,3.09-2.31,21.22,21.22,0,0,0-.44-8.73,21.22,21.22,0,0,0-8.73-.44,15,15,0,0,0-2.31,3.09,11.54,11.54,0,0,1-4,1.93A8.77,8.77,0,0,1,112,31.53c-.3.85-.43,1.4-.43,1.4a4.91,4.91,0,0,0,.9,1.76,7.64,7.64,0,0,1-1.09.73l-.15.08a5.7,5.7,0,0,0,3,3l.07-.13a7.74,7.74,0,0,1,.75-1.12,5.92,5.92,0,0,0,1.74.93s.55-.14,1.4-.43a8.78,8.78,0,0,1,2.11,2.13ZM117.1,36A8,8,0,0,1,115,34.49a6.11,6.11,0,0,1-1.37-1.87A17.27,17.27,0,0,1,117,26.25a17.13,17.13,0,0,1,6.14.28,17.13,17.13,0,0,1,.28,6.14A17.14,17.14,0,0,1,117.1,36Z"/><circle class="cls-20" cx="119.25" cy="30.45" r="1.68"/><path d="M131.24,26.52h1.67l.17,2.16h.07a4.08,4.08,0,0,1,3.38-2.45,3,3,0,0,1,1.28.25l-.39,1.77a3.34,3.34,0,0,0-1.15-.2c-1,0-2.21.74-3,2.75v7.65h-2V26.52ZM139.37,21h2V32.8h.07l5.08-6.28h2.23l-4,4.78,4.54,7.14h-2.21l-3.48-5.74-2.23,2.6v3.14h-2V21Zm12.33,7.19h-1.77V26.64l1.86-.12.25-3.34h1.69v3.34H157v1.64h-3.21v6.62c0,1.47.47,2.31,1.84,2.31a4.33,4.33,0,0,0,1.35-.32l.39,1.52a7.36,7.36,0,0,1-2.21.44c-2.55,0-3.41-1.62-3.41-4v-6.6Z"/></svg>