<svg id="Layer_1" data-name="Layer 1" xmlns="http://www.w3.org/2000/svg" viewBox="0 0 180 79"><defs><style>.cls-1{fill:#93bea7;}.cls-2{fill:#799987;}.cls-3{fill:#fff;}.cls-4{fill:#29a5de;}.cls-5{fill:#f48536;}.cls-6{fill:#9d5025;}.cls-7{fill:#9d5126;}.cls-8{fill:#f48436;}.cls-9{fill:#f48537;}.cls-10{fill:#71401f;}.cls-11{fill:#f7bb90;}.cls-12{fill:#6d3b1a;}.cls-13{fill:#407bf5;}.cls-14{fill:#396edc;}.cls-15{fill:#2d73ff;}.cls-16{fill:#1e66e5;}.cls-17{fill:#f7f9fc;}.cls-18{fill:#3c72dd;}.cls-19{fill:#5c8ce4;}.cls-20{fill:#2665db;}.cls-21{fill:#2866da;}</style></defs><title>container logo 2</title><path id="Rectangle-2-Copy-4" class="cls-1" d="M2.5,0h175A2.5,2.5,0,0,1,180,2.5h0A2.5,2.5,0,0,1,177.5,5H2.5A2.5,2.5,0,0,1,0,2.5H0A2.5,2.5,0,0,1,2.5,0Z"/><path class="cls-2" d="M180,3V75a4,4,0,0,1-4,4H4a4,4,0,0,1-4-4V3H0A2.5,2.5,0,0,0,2.5,5h175A2.49,2.49,0,0,0,180,3Z"/><rect id="Rectangle-13-Copy-12" class="cls-3" x="5" y="10" width="171" height="64" rx="3" ry="3"/><path id="path5" class="cls-4" d="M31.43,65.31h-.78V60.67c0-.35,0-.82,0-1.33h0c-.08.31-.16.55-.2.66l-2.38,5.31h-.39L25.38,60a4.15,4.15,0,0,1-.2-.7h0v6h-.78V58.4h1.05l2.11,4.8a6.19,6.19,0,0,1,.31.82h0a7.41,7.41,0,0,1,.35-.86l2.15-4.8h1Z"/><path id="path7" class="cls-4" d="M33.3,59.11a.38.38,0,0,1-.35-.16.7.7,0,0,1-.16-.35.42.42,0,0,1,.16-.35.48.48,0,0,1,.35-.16.38.38,0,0,1,.35.16.48.48,0,0,1,.16.35.54.54,0,0,1-.51.51Zm.39,6.2h-.78v-5h.78Z"/><path id="path9" class="cls-4" d="M38.38,65.08a2.54,2.54,0,0,1-1.37.35,2.24,2.24,0,0,1-1.72-.7,2.54,2.54,0,0,1-.66-1.8,2.72,2.72,0,0,1,.7-2,2.79,2.79,0,0,1,1.91-.74,2.36,2.36,0,0,1,1.17.27v.82a1.84,1.84,0,0,0-1.17-.39,1.68,1.68,0,0,0-1.25.55,2,2,0,0,0-.47,1.4A1.93,1.93,0,0,0,36,64.26a1.51,1.51,0,0,0,1.21.51,2.08,2.08,0,0,0,1.21-.43v.74Z"/><path id="path11" class="cls-4" d="M41.93,61.17A1,1,0,0,0,41.3,61a1,1,0,0,0-.86.47,2.1,2.1,0,0,0-.35,1.29v2.54h-.78v-5h.78v1h0a1.73,1.73,0,0,1,.51-.82,1.19,1.19,0,0,1,.78-.27,1.46,1.46,0,0,1,.47.08v.82Z"/><path id="path13" class="cls-4" d="M44.47,65.43a2.26,2.26,0,0,1-1.76-.7A2.58,2.58,0,0,1,42,62.89a2.81,2.81,0,0,1,.66-2,2.47,2.47,0,0,1,1.87-.7,2.23,2.23,0,0,1,1.72.66,3,3,0,0,1,0,3.75A2.33,2.33,0,0,1,44.47,65.43Zm0-4.53a1.51,1.51,0,0,0-1.21.51,2.51,2.51,0,0,0,0,2.81,1.51,1.51,0,0,0,1.21.51,1.38,1.38,0,0,0,1.17-.51,2.51,2.51,0,0,0,0-2.81A1.5,1.5,0,0,0,44.5,60.9Z"/><path id="path15" class="cls-4" d="M47.63,65.12v-.86a2.34,2.34,0,0,0,1.4.47q1.05,0,1.05-.7a1.14,1.14,0,0,0-.08-.35l-.23-.23c-.12-.08-.23-.12-.35-.2s-.27-.12-.43-.16a2.69,2.69,0,0,1-.59-.27A1.73,1.73,0,0,1,48,62.5a.81.81,0,0,1-.23-.39,2,2,0,0,1-.08-.51,1.15,1.15,0,0,1,.16-.62,1.82,1.82,0,0,1,.39-.35,3.94,3.94,0,0,1,.59-.27,2.21,2.21,0,0,1,.7-.12,2.55,2.55,0,0,1,1.13.23v.78a2.23,2.23,0,0,0-1.25-.35,1.2,1.2,0,0,0-.39,0,.78.78,0,0,0-.31.16c-.08.08-.16.12-.2.23a.72.72,0,0,0-.08.27.74.74,0,0,0,.08.31,1,1,0,0,0,.2.23,2.18,2.18,0,0,0,.31.2,3.8,3.8,0,0,1,.43.2,2,2,0,0,1,.59.27,1.73,1.73,0,0,1,.43.31.89.89,0,0,1,.27.39,1.08,1.08,0,0,1,.12.51,1.06,1.06,0,0,1-.16.62,1.13,1.13,0,0,1-.43.43,3,3,0,0,1-.62.27,4.32,4.32,0,0,1-.74.08A2.69,2.69,0,0,1,47.63,65.12Z"/><path id="path17" class="cls-4" d="M53.91,65.43a2.26,2.26,0,0,1-1.76-.7,2.58,2.58,0,0,1-.66-1.83,2.81,2.81,0,0,1,.66-2,2.59,2.59,0,0,1,1.87-.7,2.23,2.23,0,0,1,1.72.66,3,3,0,0,1,0,3.75A2.33,2.33,0,0,1,53.91,65.43Zm0-4.53a1.51,1.51,0,0,0-1.21.51,2.51,2.51,0,0,0,0,2.81,1.51,1.51,0,0,0,1.21.51,1.38,1.38,0,0,0,1.17-.51,2.51,2.51,0,0,0,0-2.81A1.44,1.44,0,0,0,53.95,60.9Z"/><path id="path19" class="cls-4" d="M62.5,61.06v-.7H61.25V58.91l-.78.27v1.21H58.32v-.78q0-1.05.82-1.05a1.08,1.08,0,0,1,.51.12V58a2.36,2.36,0,0,0-.59-.08,1.56,1.56,0,0,0-1.13.47,1.59,1.59,0,0,0-.43,1.21v.78h-.86V61h.86v4.29h.78V61.06h2.15V64c0,1,.43,1.44,1.29,1.44a1.4,1.4,0,0,0,.74-.16v-.66a.78.78,0,0,1-.51.16.71.71,0,0,1-.55-.2,1.17,1.17,0,0,1-.16-.7V61.06Z"/><path id="path21" class="cls-4" d="M71.2,65.31h-.9l-.74-2H66.63l-.7,2H65l2.69-6.91h.82Zm-1.87-2.69-1.09-2.93a2,2,0,0,1-.12-.47h0a4,4,0,0,1-.12.47l-1.05,2.93Z"/><path id="path23" class="cls-4" d="M75.3,60.59l-2.93,4h2.89v.7h-4v-.23l2.93-4H71.51v-.7H75.3Z"/><path id="path25" class="cls-4" d="M80.06,65.31h-.78v-.78h0a1.61,1.61,0,0,1-1.52.9Q76,65.43,76,63.32v-3h.78v2.81c0,1.05.39,1.56,1.21,1.56a1.19,1.19,0,0,0,.94-.43,1.72,1.72,0,0,0,.39-1.13V60.35h.78v5Z"/><path id="path27" class="cls-4" d="M84,61.17a.94.94,0,0,0-.59-.16,1,1,0,0,0-.86.47,2.1,2.1,0,0,0-.35,1.29v2.54h-.78v-5h.78v1h0a1.73,1.73,0,0,1,.51-.82,1.19,1.19,0,0,1,.78-.27,1.46,1.46,0,0,1,.47.08v.82Z"/><path id="path29" class="cls-4" d="M88.41,63H84.93a1.9,1.9,0,0,0,.43,1.29,1.45,1.45,0,0,0,1.17.43,2.51,2.51,0,0,0,1.52-.55v.74a2.88,2.88,0,0,1-1.72.47,2.11,2.11,0,0,1-1.64-.66,2.76,2.76,0,0,1-.59-1.87A2.67,2.67,0,0,1,84.78,61a2.14,2.14,0,0,1,1.6-.74,1.81,1.81,0,0,1,1.48.62,2.66,2.66,0,0,1,.55,1.72V63Zm-.82-.66a1.62,1.62,0,0,0-.31-1.05,1.2,1.2,0,0,0-.9-.39,1.16,1.16,0,0,0-.94.39A1.65,1.65,0,0,0,85,62.34Z"/><path class="cls-5" d="M125.67,18.25c.14,0,.26,0,.39.08l4.07,1.17,2.84.8,2.93.84,3.38,1a1,1,0,0,1,.32.09l-3.09.74-2.47.59a1.1,1.1,0,0,0-.42.12c-.12.1,0,.29,0,.44s-.08.13-.16.11l-.88-.17-3-.58c-.11,0-.14,0-.14.11,0,.29,0,.58,0,.87,0,0,0,.08,0,.12q0,7.32,0,14.63c0,.26,0,.52,0,.78s0,.15.16.13l1.14-.21,2.74-.51c.09,0,.14,0,.13.11s0,.34,0,.52,0,.15.14.17l2,.46,3.58.85c.07,0,.16,0,.21.08l-1.94.53-2.49.71-2.94.83-3.38,1-2.82.79c-.06,0-.14.13-.22,0s0-.14,0-.21q0-13.36,0-26.72A.27.27,0,0,0,125.67,18.25Z"/><path class="cls-6" d="M125.67,18.25a.27.27,0,0,1,0,.18q0,13.36,0,26.72c0,.07,0,.15,0,.21l-1.79-.89c-.08,0-.08-.09-.08-.16,0-.33,0-.65,0-1,0-.05,0-.11,0-.16s0-.08,0-.12q0-11.24,0-22.48s0-.08,0-.12,0-.15,0-.23c0-.29,0-.59,0-.88a.21.21,0,0,1,.14-.22Z"/><path class="cls-6" d="M129.4,24.41c0-.29,0-.58,0-.87,0-.1,0-.13.14-.11l3,.58.88.17c.09,0,.16,0,.16-.11s-.08-.34,0-.44a1.1,1.1,0,0,1,.42-.12l2.47-.59,3.09-.74c.38,0,.73-.17,1.1-.23q0,3.18,0,6.37c0,.08,0,.15,0,.23a1.44,1.44,0,0,1-.38,0l-1.48.13-.92.07-1.5.13-.91.07c-.51,0-1,.11-1.52.13-.06,0-.13,0-.19,0-.22,0-.22,0-.22-.21q0-1.7,0-3.4c0-.39,0-.41-.39-.48l-2-.34Z"/><path class="cls-6" d="M139.44,41.52c-.05-.07-.14-.06-.21-.08l-3.58-.85-2-.46c-.09,0-.14-.06-.14-.17s0-.34,0-.52,0-.12-.13-.11l-2.74.51-1.14.21c-.11,0-.16,0-.16-.13s0-.52,0-.78l.75-.12,3.27-.54c.12,0,.16-.07.16-.19,0-.78,0-1.56,0-2.35,0-.42,0-.83,0-1.25,0-.09,0-.16.12-.13l.66.06,3.07.27,3.27.3v6.55l-1-.22A.72.72,0,0,0,139.44,41.52Z"/><path class="cls-5" d="M123.76,20.45s0,.08,0,.12q0,11.24,0,22.48s0,.08,0,.12l-1.67.37s0-.08,0-.12q0-11.61,0-23.23s0-.08,0-.12Z"/><path class="cls-7" d="M122.1,20.08s0,.08,0,.12q0,11.61,0,23.23s0,.08,0,.12c-.33-.12-.63-.31-1-.46-.14-.07-.27-.15-.42-.2a.27.27,0,0,1-.2-.31q0-10.78,0-21.55a.24.24,0,0,1,.16-.26c.42-.2.83-.41,1.25-.62A.34.34,0,0,1,122.1,20.08Z"/><path class="cls-8" d="M140.69,28.55c0-.08,0-.15,0-.23q0-3.18,0-6.37l3.49,1a.14.14,0,0,1,.12.16c0,.35,0,.7,0,1,0,.06,0,.12,0,.18q0,2.15,0,4.31c0,.13,0,.23-.17.16a.39.39,0,0,0-.21,0,1,1,0,0,0-.32-.06l-2.49-.22A1.15,1.15,0,0,1,140.69,28.55Z"/><path class="cls-8" d="M140.69,41.76q0-3.28,0-6.55a2.66,2.66,0,0,1,.44-.06c.32,0,.65,0,1-.09s.76-.07,1.13-.12l.85-.1c.23,0,.23,0,.23.23q0,2.13,0,4.26a.29.29,0,0,0,0,.18c0,.34,0,.69,0,1a.16.16,0,0,1-.14.18l-3.16,1A1.07,1.07,0,0,1,140.69,41.76Z"/><path class="cls-6" d="M144.32,39.33q0-2.13,0-4.26c0-.23,0-.23-.23-.23a.13.13,0,0,0-.09,0l-1.44-.1-2.37-.17s0-.09,0-.13c0-.29,0-.29.3-.3l.13,0c.58,0,1.15.06,1.72.1l3,.17,1.87.11q0,2.52,0,5c0,.08,0,.15,0,.23a6.24,6.24,0,0,1-.81-.12Z"/><path class="cls-6" d="M143.94,28.87a.39.39,0,0,1,.21,0c.17.06.17,0,.17-.16q0-2.15,0-4.31l1.51-.25,1.35-.22h.06q0,2.52,0,5c0,.08,0,.15,0,.23l-.18,0c-.41,0-.82,0-1.22.06s-1,.08-1.54.1-1.17.07-1.75.1-1.16.09-1.74.08c-.09,0-.21,0-.28.09-.33,0-.33,0-.34-.3,0-.06,0-.12,0-.18h.45c.63,0,1.25-.1,1.88-.13.34,0,.68,0,1-.08C143.67,28.92,143.81,29,143.94,28.87Z"/><path class="cls-8" d="M140.18,29.16c0,.06,0,.12,0,.18,0,.31,0,.32.34.3l1.49.08q0,2,0,4.08c0,.07,0,.14,0,.22l-1.23,0a.66.66,0,0,0-.29.06c-.3,0-.3,0-.3.3,0,0,0,.09,0,.13l-.77-.05q0-1.43,0-2.86,0-1.21,0-2.41C139.68,29.22,139.93,29.17,140.18,29.16Z"/><path class="cls-9" d="M147.26,39.79c0-.08,0-.15,0-.23q0-2.52,0-5,.93-.13,1.87-.18s.09,0,.11,0c.39,0,.39,0,.39.37,0,1.39,0,2.79,0,4.18,0,.18,0,.25-.22.3C148.68,39.35,148,39.57,147.26,39.79Z"/><path class="cls-9" d="M147.24,29.18c0-.08,0-.15,0-.23q0-2.52,0-5l2.24.68c.11,0,.12.1.12.2,0,1.48,0,3,0,4.44,0,.16-.06.2-.2.18l0,0c-.61,0-1.22-.14-1.83-.15A.47.47,0,0,1,147.24,29.18Z"/><path class="cls-10" d="M147.24,29.18a.47.47,0,0,0,.3.06c.62,0,1.22.13,1.83.15l0,0c-.41,0-.83,0-1.24.07l-1.47.07-1.53.07c-.81,0-1.62.08-2.44.12-.2,0-.4,0-.6,0H142l-1.49-.08c.07-.1.18-.09.28-.09.58,0,1.16-.05,1.74-.08s1.17-.08,1.75-.1,1-.08,1.54-.1.82-.06,1.22-.06Z"/><path class="cls-11" d="M149.23,34.29c0,.05-.07,0-.11,0q-.94.06-1.87.18l-1.87-.11-3-.17c-.57,0-1.15-.09-1.72-.1l-.13,0a.66.66,0,0,1,.29-.06L142,34c.44,0,.88,0,1.31,0,.76.06,1.53,0,2.29.12h.25c.48,0,1,0,1.44,0C147.94,34.2,148.58,34.26,149.23,34.29Z"/><path class="cls-12" d="M137,29.38l-2.53-.18c-.23,0-.46,0-.69-.06.06-.06.13,0,.19,0,.51,0,1-.09,1.52-.13l.91-.07,1.5-.13.92-.07,1.48-.13a1.44,1.44,0,0,0,.38,0,1.15,1.15,0,0,0,.44.05l2.49.22a1,1,0,0,1,.32.06c-.12.08-.27,0-.4.06-.34,0-.68.06-1,.08-.63,0-1.25.08-1.88.13h-.45c-.25,0-.5.06-.75.06a2.09,2.09,0,0,0-.33,0C138.4,29.27,137.71,29.35,137,29.38Z"/><path class="cls-11" d="M133.69,34.57l.08,0c.62,0,1.24-.07,1.85-.11.42,0,.84-.07,1.26-.07a.17.17,0,0,0,.14,0l2.4.16.77.05,2.37.17,1.44.1a.13.13,0,0,1,.09,0l-.85.1c-.38,0-.76.06-1.13.12s-.65.06-1,.09a2.66,2.66,0,0,0-.44.06l-3.27-.3-3.07-.27Z"/><path class="cls-6" d="M139.42,34.49l-2.4-.16a1.19,1.19,0,0,1,0-.13q0-2.37,0-4.75s0,0,0-.07c.7,0,1.39-.12,2.09-.14a2.09,2.09,0,0,1,.33,0q0,1.21,0,2.41Q139.42,33.06,139.42,34.49Z"/><path d="M147.21,51.6c0,.27,0,.51,0,.75s-.11.13-.2.13h-2.27c0,.4,0,.78,0,1.16,0,0,.14.08.21.09h2.52c0,.29,0,.56,0,.82a.17.17,0,0,1-.13.11h-3.72c0-.09,0-.16,0-.23,0-1.54,0-3.08,0-4.61,0-.19,0-.25.25-.25h3.34c.19,0,.25.06.24.24a3.21,3.21,0,0,0,0,.49c0,.16-.06.2-.21.2H145c-.18,0-.25,0-.24.24a6.18,6.18,0,0,1,0,.67c0,.16.06.2.21.2h2.26Z"/><path d="M122,54.67h-.88c-.15,0-.13-.12-.13-.21,0-.65,0-1.29,0-1.94,0-.08,0-.16,0-.25,0-.35-.15-.53-.42-.58a.65.65,0,0,0-.78.37,1.59,1.59,0,0,0-.1.54c0,.61,0,1.22,0,1.83,0,.19-.06.25-.24.24s-.49,0-.75,0c0-.09,0-.16,0-.23,0-1.08,0-2.16,0-3.23,0-.19.06-.25.24-.23a2.54,2.54,0,0,0,.47,0c.19,0,.28,0,.25.25a1.16,1.16,0,0,0,0,.22,1.45,1.45,0,0,1,1.13-.56,1.15,1.15,0,0,1,1.07.57l.15-.14a1.48,1.48,0,0,1,1.76-.26,1.08,1.08,0,0,1,.55,1c0,.82,0,1.64,0,2.45,0,.13,0,.19-.18.18s-.42,0-.62,0-.21-.07-.21-.23c0-.63,0-1.26,0-1.9,0-.1,0-.19,0-.29,0-.38-.2-.56-.52-.58a.61.61,0,0,0-.72.5,2.77,2.77,0,0,0,0,.55C122,53.37,122,54,122,54.67Z"/><path d="M152.72,51.28c-.35,0-.66,0-1,0,0,0-.12-.08-.14-.14a1.22,1.22,0,0,0-2.05-.33,2.31,2.31,0,0,0,0,2.57,1.24,1.24,0,0,0,1.28.44,1,1,0,0,0,.84-.85c.05-.23.16-.28.36-.26s.5,0,.78,0a2.14,2.14,0,0,1-1.1,1.81,2.46,2.46,0,0,1-3.59-1.8,2.84,2.84,0,0,1,.75-2.62,2.45,2.45,0,0,1,3.61.32A1.79,1.79,0,0,1,152.72,51.28Z"/><path d="M113.3,54.67l.62-1.63c.41-1.08.82-2.15,1.22-3.23a.31.31,0,0,1,.36-.24c.24,0,.49,0,.73,0a.27.27,0,0,1,.2.12q.92,2.44,1.83,4.88s0,0,0,.08c-.35,0-.7,0-1.05,0,0,0-.1-.1-.13-.16-.1-.26-.19-.53-.27-.8a.2.2,0,0,0-.22-.16H115a.2.2,0,0,0-.22.16c-.09.27-.19.53-.27.8a.21.21,0,0,1-.24.17Zm3.15-2-.61-1.79h-.06l-.63,1.79Z"/><path d="M154.58,53.8h2.27v.86h-3.64a2,2,0,0,1,.21-.94,2.48,2.48,0,0,1,.79-.87c.32-.23.66-.44,1-.68a2.21,2.21,0,0,0,.53-.53.76.76,0,0,0-.61-1.2.66.66,0,0,0-.66.44,6.37,6.37,0,0,0-.19.71c-.26,0-.53,0-.8,0,0,0-.11-.09-.11-.15a1.77,1.77,0,0,1,1-1.72,1.94,1.94,0,0,1,2.1.41,1.59,1.59,0,0,1-.14,2.21c-.31.28-.69.49-1,.75s-.51.41-.77.62Z"/><path d="M126.05,52.09h-1a1.08,1.08,0,0,1,.47-.88,1.43,1.43,0,0,1,.38-.19,3,3,0,0,1,1.8,0,.9.9,0,0,1,.7,1c0,.67,0,1.34,0,2,0,.22,0,.44.07.69-.3,0-.6,0-.9,0-.07,0-.12-.17-.19-.28a1.87,1.87,0,0,1-1.31.39,1.06,1.06,0,0,1-1.13-1.2.85.85,0,0,1,.61-.85c.42-.12.86-.17,1.28-.26l.28-.07a.35.35,0,0,0,.28-.35.43.43,0,0,0-.28-.43A.76.76,0,0,0,126.05,52.09Zm1.36.83-1,.19a.78.78,0,0,0-.23.09.45.45,0,0,0-.23.49.42.42,0,0,0,.36.37.8.8,0,0,0,1.09-.83C127.41,53.13,127.41,53,127.41,52.92Z"/><path d="M138.25,51.44l.11-.09a1.46,1.46,0,0,1,1.59-.41,1,1,0,0,1,.73.82,4,4,0,0,1,.06.71c0,.66,0,1.32,0,2,0,.06,0,.12,0,.19h-1c0-.09,0-.17,0-.25,0-.57,0-1.14,0-1.72a2.72,2.72,0,0,0,0-.47c-.07-.36-.24-.52-.55-.54s-.68.12-.78.47a2.16,2.16,0,0,0-.07.55c0,.56,0,1.13,0,1.69,0,.08,0,.16,0,.27-.32,0-.62,0-.91,0,0,0-.1-.13-.1-.2,0-.7,0-1.4,0-2.1,0-.4,0-.8,0-1.2,0-.13,0-.19.18-.18a4.68,4.68,0,0,0,.56,0c.18,0,.25.05.23.23A1.71,1.71,0,0,0,138.25,51.44Z"/><path d="M134.72,50.88a1.94,1.94,0,1,1-1.92,1.93A1.8,1.8,0,0,1,134.72,50.88Zm-.93,2a5.23,5.23,0,0,0,.13.59.85.85,0,0,0,1.58,0,1.79,1.79,0,0,0,0-1.26.85.85,0,0,0-1.61,0A5.38,5.38,0,0,0,133.79,52.85Z"/><path d="M130.88,51.73h-1.76c0-.23,0-.43,0-.64,0,0,.09-.11.14-.11h2.81c.12,0,.14.06.15.17a1.13,1.13,0,0,1-.33,1c-.49.49-.94,1-1.4,1.56l-.17.21.27,0h1.56c.15,0,.21,0,.21.2,0,.56,0,.56-.54.56h-2.63c-.17,0-.22,0-.24-.22a1.13,1.13,0,0,1,.35-1c.49-.5.93-1,1.4-1.56Z"/><path class="cls-13" d="M62.17,19.14A2.14,2.14,0,0,1,64,20.25q2.82,4.81,5.61,9.65A2.09,2.09,0,0,1,69.66,32c-.46.89-1,1.73-1.52,2.6-.18-.16-.38-.32-.55-.49l-4.75-4.74c-.19-.19-.36-.4-.66-.4A2,2,0,0,0,61,27c-1.17-.62-2.32-1.3-3.47-2a1.94,1.94,0,0,0-2.15,0q-1.82,1.08-3.66,2.1a1.82,1.82,0,0,0-1,1.76c0,1.31,0,2.63,0,3.94A2.08,2.08,0,0,0,51.77,35a.9.9,0,0,0,.36.56l6.57,6.69a1.1,1.1,0,0,1,.39.55H51.35a1.32,1.32,0,0,0-.72.09,2.16,2.16,0,0,1-1.82-1.12Q46,37,43.22,32.13a2.2,2.2,0,0,1,0-2.29q2.76-4.77,5.54-9.52a2.2,2.2,0,0,1,1.85-1.17,1.07,1.07,0,0,0,.61.09H61.56A1.08,1.08,0,0,0,62.17,19.14Z"/><path class="cls-14" d="M62.18,28.95c.3,0,.47.21.66.4l4.75,4.74c.17.17.37.33.55.49l-3.48,6.09c-.22.38-.43.76-.67,1.13a2.24,2.24,0,0,1-1.71,1.09,17.45,17.45,0,0,0-3-.09h-.22a1.1,1.1,0,0,0-.39-.55l-6.57-6.69a.9.9,0,0,1-.36-.56c1.19.67,2.39,1.33,3.57,2a1.94,1.94,0,0,0,2.15,0c1.18-.7,2.36-1.39,3.57-2a1.92,1.92,0,0,0,1.11-1.89C62.14,31.69,62.17,30.32,62.18,28.95Z"/><path class="cls-15" d="M62.17,19.14a1.08,1.08,0,0,1-.61.09H51.24a1.07,1.07,0,0,1-.61-.09l8.62,0Z"/><path class="cls-15" d="M59.09,42.78h.22v.09H50.63a1.32,1.32,0,0,1,.72-.09Z"/><path class="cls-16" d="M59.31,42.88v-.09a17.46,17.46,0,0,1,3,.09Z"/><path class="cls-17" d="M62.18,28.95c0,1.37,0,2.74,0,4.11a1.92,1.92,0,0,1-1.11,1.89c-1.2.66-2.39,1.34-3.57,2a1.94,1.94,0,0,1-2.15,0c-1.18-.69-2.38-1.35-3.57-2a2.08,2.08,0,0,1-1.13-2.17c.06-1.31,0-2.63,0-3.94a1.82,1.82,0,0,1,1-1.76q1.85-1,3.66-2.1a1.94,1.94,0,0,1,2.15,0c1.14.68,2.29,1.36,3.47,2A2,2,0,0,1,62.18,28.95Zm-6.19-1V26.21c0-.08,0-.15-.11-.12l-3.72,2.09a.63.63,0,0,0-.34.6q0,2.08,0,4.16c0,.07-.05.14,0,.18s.09,0,.14,0c.4-.22.79-.46,1.2-.66a.63.63,0,0,0,.4-.67c0-.49,0-1,0-1.48,0-.32.12-.36.38-.21l1.83,1.05a.39.39,0,0,1,.24.36c0,.81,0,1.63,0,2.54l-1.76-1c-.17-.1-.32-.19-.52-.06-.48.29-1,.57-1.55.9l4,2.28a.44.44,0,0,0,.44,0L60.7,33.8c-.57-.33-1.07-.6-1.55-.9-.21-.12-.36,0-.53.06-.51.29-1,.58-1.53.88-.31.19-.38.09-.38-.24,0-.67,0-1.33,0-2a.51.51,0,0,1,.29-.5c.62-.34,1.23-.69,1.83-1,.26-.15.38-.11.38.21,0,.48,0,1,0,1.43,0,.17,0,.35.15.46A12.21,12.21,0,0,0,61,33c0-1.47,0-2.87,0-4.28a.6.6,0,0,0-.32-.56l-3.58-2c-.1,0-.21-.34-.29,0v1.72a.1.1,0,0,0,.1.11l2,1.21-2.33,1.35a.3.3,0,0,1-.32,0L53.9,29.25l2-1.2C55.95,28,56,28,56,27.93Z"/><path class="cls-18" d="M51.84,32.94q0-2.08,0-4.16a.63.63,0,0,1,.34-.6l3.72-2.09.11.12v1.72l-.11.12-2,1.2,2.35,1.35a.3.3,0,0,0,.32,0l2.33-1.35-2-1.21-.1-.11V26.21h.29l3.58,2a.6.6,0,0,1,.32.56c0,1.4,0,2.81,0,4.28a12.21,12.21,0,0,1-1.63-.89c-.18-.11-.15-.29-.15-.46,0-.48,0-1,0-1.43,0-.32-.12-.36-.38-.21-.61.36-1.22.71-1.83,1a.51.51,0,0,0-.29.5c0,.67,0,1.33,0,2,0,.32.07.42.38.24.5-.3,1-.59,1.53-.88.17-.1.32-.18.53-.06.49.29,1,.57,1.55.9l-4.06,2.32a.44.44,0,0,1-.44,0l-4-2.28c.58-.34,1.07-.61,1.55-.9.21-.13.35,0,.52.06L56,34c0-.92,0-1.73,0-2.54a.39.39,0,0,0-.24-.36L54,30.06c-.26-.15-.38-.11-.38.21,0,.49,0,1,0,1.48a.63.63,0,0,1-.4.67c-.41.2-.8.44-1.2.66Z"/><path class="cls-19" d="M51.84,32.94l.16.14s-.1.06-.14,0S51.81,33,51.84,32.94Z"/><path class="cls-20" d="M57.1,26.2h-.29C56.89,25.86,57,26.17,57.1,26.2Z"/><path class="cls-21" d="M56,26.21l-.11-.12C56,26.06,56,26.13,56,26.21Z"/><path class="cls-21" d="M55.88,28l.11-.12C56,28,55.95,28,55.88,28Z"/><path class="cls-20" d="M56.81,27.93l.1.11A.1.1,0,0,1,56.81,27.93Z"/><path d="M19.28,51.9a5,5,0,0,1-1.65.3,2.53,2.53,0,0,1-2.77-2.72,2.7,2.7,0,0,1,2.92-2.78,3.34,3.34,0,0,1,1.34.25l-.17.57a2.79,2.79,0,0,0-1.19-.23,2,2,0,0,0-2.17,2.17,2,2,0,0,0,2.08,2.17,2.27,2.27,0,0,0,.93-.14V49.87h-1.1v-.56h1.77Z"/><path d="M23.87,50.17a1.89,1.89,0,0,1-1.93,2.05,1.84,1.84,0,0,1-1.86-2A1.89,1.89,0,0,1,22,48.18,1.83,1.83,0,0,1,23.87,50.17Zm-3.07,0c0,.85.49,1.49,1.17,1.49s1.18-.63,1.18-1.5c0-.66-.33-1.49-1.16-1.49S20.8,49.48,20.8,50.21Z"/><path d="M28.26,50.17a1.89,1.89,0,0,1-1.93,2.05,1.84,1.84,0,0,1-1.86-2,1.89,1.89,0,0,1,1.92-2.06A1.83,1.83,0,0,1,28.26,50.17Zm-3.07,0c0,.85.49,1.49,1.17,1.49s1.18-.63,1.18-1.5c0-.66-.33-1.49-1.16-1.49S25.19,49.48,25.19,50.21Z"/><path d="M32.45,51.58a2.23,2.23,0,0,1-.55,1.77,2.05,2.05,0,0,1-1.41.46,2.49,2.49,0,0,1-1.29-.32l.18-.54a2.18,2.18,0,0,0,1.14.3c.72,0,1.25-.38,1.25-1.35v-.43h0a1.38,1.38,0,0,1-1.23.65,1.73,1.73,0,0,1-1.65-1.89,1.86,1.86,0,0,1,1.74-2.06,1.29,1.29,0,0,1,1.21.67h0l0-.58h.62c0,.28,0,.59,0,1.06Zm-.7-1.78a1,1,0,0,0,0-.32,1,1,0,0,0-1-.74c-.67,0-1.15.57-1.15,1.46s.38,1.39,1.14,1.39a1,1,0,0,0,1-.72,1.22,1.22,0,0,0,.06-.38Z"/><path d="M33.62,46.46h.7v5.68h-.7Z"/><path d="M35.9,50.33a1.24,1.24,0,0,0,1.33,1.34,2.54,2.54,0,0,0,1.07-.2l.12.5a3.1,3.1,0,0,1-1.29.25,1.8,1.8,0,0,1-1.9-2A1.88,1.88,0,0,1,37,48.18,1.64,1.64,0,0,1,38.64,50a2.71,2.71,0,0,1,0,.33Zm2.06-.5a1,1,0,0,0-1-1.14,1.17,1.17,0,0,0-1.08,1.14Z"/><path d="M45,52a3.43,3.43,0,0,1-1.42.26,2.52,2.52,0,0,1-2.66-2.73,2.68,2.68,0,0,1,2.81-2.83A2.9,2.9,0,0,1,45,46.9l-.17.57a2.53,2.53,0,0,0-1.09-.22,2,2,0,0,0-2.1,2.22,2,2,0,0,0,2.07,2.17,2.79,2.79,0,0,0,1.13-.22Z"/><path d="M49.27,50.17a1.89,1.89,0,0,1-1.93,2.05,1.84,1.84,0,0,1-1.86-2,1.89,1.89,0,0,1,1.92-2.06A1.83,1.83,0,0,1,49.27,50.17Zm-3.07,0c0,.85.49,1.49,1.17,1.49s1.18-.63,1.18-1.5c0-.66-.33-1.49-1.16-1.49S46.2,49.48,46.2,50.21Z"/><path d="M50.16,49.32c0-.4,0-.73,0-1h.62l0,.64h0a1.42,1.42,0,0,1,1.28-.73c.54,0,1.37.32,1.37,1.65v2.31h-.7V49.91c0-.62-.23-1.14-.9-1.14a1,1,0,0,0-.94.72,1,1,0,0,0,0,.33v2.33h-.7Z"/><path d="M55.41,47.34v.93h1v.54h-1v2.09c0,.48.14.75.53.75a1.31,1.31,0,0,0,.41,0l0,.53a1.69,1.69,0,0,1-.62.1,1,1,0,0,1-.76-.3,1.43,1.43,0,0,1-.27-1V48.8h-.6v-.54h.6v-.71Z"/><path d="M59.93,51.21a5.46,5.46,0,0,0,.06.93h-.64l-.06-.49h0a1.44,1.44,0,0,1-1.18.58,1.1,1.1,0,0,1-1.18-1.11c0-.94.83-1.45,2.33-1.44V49.6a.8.8,0,0,0-.88-.9,1.93,1.93,0,0,0-1,.29l-.16-.46a2.41,2.41,0,0,1,1.27-.34c1.18,0,1.47.81,1.47,1.58Zm-.68-1c-.77,0-1.64.12-1.64.87a.62.62,0,0,0,.66.67,1,1,0,0,0,.94-.65.75.75,0,0,0,0-.22Z"/><path d="M61.85,47.18a.44.44,0,0,1-.87,0,.43.43,0,0,1,.44-.44A.42.42,0,0,1,61.85,47.18Zm-.78,5V48.27h.7v3.87Z"/><path d="M62.94,49.32c0-.4,0-.73,0-1h.62l0,.64h0a1.42,1.42,0,0,1,1.28-.73c.54,0,1.37.32,1.37,1.65v2.31h-.7V49.91c0-.62-.23-1.14-.9-1.14a1,1,0,0,0-.94.72,1,1,0,0,0,0,.33v2.33h-.7Z"/><path d="M67.77,50.33a1.24,1.24,0,0,0,1.33,1.34,2.54,2.54,0,0,0,1.07-.2l.12.5a3.1,3.1,0,0,1-1.29.25,1.8,1.8,0,0,1-1.9-2,1.88,1.88,0,0,1,1.82-2.09A1.64,1.64,0,0,1,70.52,50a2.71,2.71,0,0,1,0,.33Zm2.06-.5a1,1,0,0,0-1-1.14,1.17,1.17,0,0,0-1.08,1.14Z"/><path d="M71.39,49.48c0-.46,0-.85,0-1.21H72L72,49h0a1.16,1.16,0,0,1,1.07-.85l.2,0v.66l-.24,0a1,1,0,0,0-.94.9,1.91,1.91,0,0,0,0,.33v2.06h-.7Z"/><path d="M78.52,49.61H76.42v1.94h2.33v.58h-3V46.75h2.91v.58H76.42V49h2.09Z"/><path d="M79.64,49.32c0-.4,0-.73,0-1h.62l0,.64h0a1.42,1.42,0,0,1,1.28-.73c.54,0,1.37.32,1.37,1.65v2.31h-.7V49.91c0-.62-.23-1.14-.9-1.14a1,1,0,0,0-.94.72,1,1,0,0,0,0,.33v2.33h-.7Z"/><path d="M87.38,51.58a2.23,2.23,0,0,1-.55,1.77,2.05,2.05,0,0,1-1.41.46,2.49,2.49,0,0,1-1.29-.32l.18-.54a2.18,2.18,0,0,0,1.14.3c.72,0,1.25-.38,1.25-1.35v-.43h0a1.38,1.38,0,0,1-1.23.65,1.73,1.73,0,0,1-1.65-1.89,1.86,1.86,0,0,1,1.74-2.06,1.29,1.29,0,0,1,1.21.67h0l0-.58h.62c0,.28,0,.59,0,1.06Zm-.7-1.78a1,1,0,0,0,0-.32,1,1,0,0,0-1-.74c-.67,0-1.15.57-1.15,1.46s.38,1.39,1.14,1.39a1,1,0,0,0,1-.72,1.25,1.25,0,0,0,.06-.38Z"/><path d="M89.29,47.18a.44.44,0,0,1-.87,0,.43.43,0,0,1,.44-.44A.42.42,0,0,1,89.29,47.18Zm-.78,5V48.27h.7v3.87Z"/><path d="M90.37,49.32c0-.4,0-.73,0-1H91l0,.64h0a1.42,1.42,0,0,1,1.28-.73c.54,0,1.37.32,1.37,1.65v2.31H93V49.91c0-.62-.23-1.14-.9-1.14a1,1,0,0,0-.94.72,1,1,0,0,0,0,.33v2.33h-.7Z"/><path d="M95.21,50.33a1.24,1.24,0,0,0,1.33,1.34,2.54,2.54,0,0,0,1.07-.2l.12.5a3.1,3.1,0,0,1-1.29.25,1.8,1.8,0,0,1-1.9-2,1.88,1.88,0,0,1,1.82-2.09A1.64,1.64,0,0,1,97.95,50a2.71,2.71,0,0,1,0,.33Zm2.06-.5a1,1,0,0,0-1-1.14,1.17,1.17,0,0,0-1.08,1.14Z"/><path d="M110.17,63.5a3.43,3.43,0,0,1-1.42.26A2.52,2.52,0,0,1,106.08,61a2.68,2.68,0,0,1,2.81-2.83,2.89,2.89,0,0,1,1.28.24L110,59a2.53,2.53,0,0,0-1.09-.22,2,2,0,0,0-2.1,2.22,2,2,0,0,0,2.07,2.17A2.78,2.78,0,0,0,110,63Z"/><path d="M114.43,61.71a1.89,1.89,0,0,1-1.93,2.05,1.84,1.84,0,0,1-1.86-2,1.89,1.89,0,0,1,1.92-2.06A1.83,1.83,0,0,1,114.43,61.71Zm-3.07,0c0,.85.49,1.49,1.17,1.49s1.18-.63,1.18-1.5c0-.66-.33-1.49-1.16-1.49S111.36,61,111.36,61.75Z"/><path d="M115.32,60.86c0-.4,0-.73,0-1h.62l0,.64h0a1.42,1.42,0,0,1,1.28-.73c.54,0,1.37.32,1.37,1.65v2.31h-.7V61.45c0-.62-.23-1.14-.9-1.14a1,1,0,0,0-.94.72,1,1,0,0,0,0,.33v2.33h-.7Z"/><path d="M120.57,58.88v.93h1v.54h-1v2.09c0,.48.14.75.53.75a1.3,1.3,0,0,0,.41,0l0,.53a1.69,1.69,0,0,1-.62.1,1,1,0,0,1-.76-.3,1.43,1.43,0,0,1-.27-1V60.34h-.6v-.54h.6V59.1Z"/><path d="M125.09,62.75a5.46,5.46,0,0,0,.06.93h-.64l-.06-.49h0a1.44,1.44,0,0,1-1.18.58,1.1,1.1,0,0,1-1.18-1.11c0-.94.83-1.45,2.33-1.44v-.08a.8.8,0,0,0-.88-.9,1.93,1.93,0,0,0-1,.29l-.16-.46a2.41,2.41,0,0,1,1.27-.34c1.18,0,1.47.81,1.47,1.58Zm-.68-1c-.77,0-1.64.12-1.64.87a.62.62,0,0,0,.66.67,1,1,0,0,0,.94-.65.75.75,0,0,0,0-.22Z"/><path d="M127,58.72a.44.44,0,0,1-.87,0,.43.43,0,0,1,.44-.44A.42.42,0,0,1,127,58.72Zm-.78,5V59.81h.7v3.87Z"/><path d="M128.1,60.86c0-.4,0-.73,0-1h.62l0,.64h0a1.42,1.42,0,0,1,1.28-.73c.54,0,1.37.32,1.37,1.65v2.31h-.7V61.45c0-.62-.23-1.14-.9-1.14a1,1,0,0,0-.94.72,1,1,0,0,0,0,.33v2.33h-.7Z"/><path d="M132.93,61.87a1.24,1.24,0,0,0,1.33,1.34,2.54,2.54,0,0,0,1.07-.2l.12.5a3.1,3.1,0,0,1-1.29.25,1.8,1.8,0,0,1-1.9-2,1.88,1.88,0,0,1,1.82-2.09,1.64,1.64,0,0,1,1.6,1.82,2.71,2.71,0,0,1,0,.33Zm2.06-.5a1,1,0,0,0-1-1.14,1.17,1.17,0,0,0-1.08,1.14Z"/><path d="M136.55,61c0-.46,0-.85,0-1.21h.62l0,.76h0a1.16,1.16,0,0,1,1.07-.85l.2,0v.66l-.24,0a1,1,0,0,0-.94.9,1.91,1.91,0,0,0,0,.33v2.06h-.7Z"/><path d="M140.79,62.83a2.46,2.46,0,0,0,1.25.35c.71,0,1.13-.38,1.13-.92s-.29-.79-1-1.07c-.88-.31-1.42-.77-1.42-1.53a1.55,1.55,0,0,1,1.74-1.46,2.44,2.44,0,0,1,1.19.26l-.19.57a2.15,2.15,0,0,0-1-.26c-.74,0-1,.44-1,.81s.33.75,1.07,1c.91.35,1.38.79,1.38,1.58s-.62,1.56-1.89,1.56a2.78,2.78,0,0,1-1.37-.35Z"/><path d="M145.25,61.87a1.24,1.24,0,0,0,1.33,1.34,2.54,2.54,0,0,0,1.07-.2l.12.5a3.1,3.1,0,0,1-1.29.25,1.8,1.8,0,0,1-1.9-2,1.88,1.88,0,0,1,1.82-2.09,1.64,1.64,0,0,1,1.6,1.82,2.71,2.71,0,0,1,0,.33Zm2.06-.5a1,1,0,0,0-1-1.14,1.17,1.17,0,0,0-1.08,1.14Z"/><path d="M148.86,61c0-.46,0-.85,0-1.21h.62l0,.76h0a1.16,1.16,0,0,1,1.07-.85l.2,0v.66l-.24,0a1,1,0,0,0-.94.9,1.91,1.91,0,0,0,0,.33v2.06h-.7Z"/><path d="M152,59.81l.76,2.17a10,10,0,0,1,.31,1h0c.09-.32.2-.64.33-1l.75-2.17h.74l-1.52,3.87h-.67l-1.47-3.87Z"/><path d="M156.31,58.72a.44.44,0,0,1-.87,0,.43.43,0,0,1,.44-.44A.42.42,0,0,1,156.31,58.72Zm-.78,5V59.81h.7v3.87Z"/><path d="M160.16,63.53a2.56,2.56,0,0,1-1.11.23,1.84,1.84,0,0,1-1.93-2,2,2,0,0,1,2.08-2.05,2.36,2.36,0,0,1,1,.2l-.16.54a1.63,1.63,0,0,0-.82-.18,1.46,1.46,0,0,0,0,2.91A2,2,0,0,0,160,63Z"/><path d="M161.33,61.87a1.24,1.24,0,0,0,1.33,1.34,2.54,2.54,0,0,0,1.07-.2l.12.5a3.1,3.1,0,0,1-1.29.25,1.8,1.8,0,0,1-1.9-2,1.88,1.88,0,0,1,1.82-2.09,1.64,1.64,0,0,1,1.6,1.82,2.71,2.71,0,0,1,0,.33Zm2.06-.5a1,1,0,0,0-1-1.14,1.17,1.17,0,0,0-1.08,1.14Z"/></svg>