<svg id="Layer_1" data-name="Layer 1" xmlns="http://www.w3.org/2000/svg" viewBox="0 0 46 44.86"><defs><style>.cls-1,.cls-2{fill:#fff;}.cls-1{fill-rule:evenodd;}</style></defs><title>github logo</title><g id="github_logo" data-name="github logo"><path class="cls-1" d="M23,0a23,23,0,0,0-7.27,44.82c1.15.21,1.57-.5,1.57-1.11s0-2.36,0-4.28c-6.4,1.39-7.75-2.71-7.75-2.71A6.09,6.09,0,0,0,7,33.36c-2.09-1.43.16-1.4.16-1.4a4.83,4.83,0,0,1,3.53,2.37c2.05,3.52,5.38,2.5,6.69,1.91a4.9,4.9,0,0,1,1.46-3.08C13.69,32.58,8.32,30.61,8.32,21.8a8.9,8.9,0,0,1,2.37-6.17,8.26,8.26,0,0,1,.22-6.09s1.93-.62,6.33,2.36a21.81,21.81,0,0,1,11.52,0c4.39-3,6.32-2.36,6.32-2.36a8.26,8.26,0,0,1,.23,6.09,8.88,8.88,0,0,1,2.37,6.17c0,8.83-5.38,10.78-10.5,11.35a5.5,5.5,0,0,1,1.56,4.26c0,3.08,0,5.55,0,6.31s.41,1.33,1.58,1.1A23,23,0,0,0,23,0Z"/><path class="cls-2" d="M8.71,33c-.05.11-.23.15-.39.07s-.26-.23-.21-.35.23-.15.4-.07.26.23.2.35Zm-.28-.21"/><path class="cls-2" d="M9.64,34.06c-.11.1-.32.05-.47-.11a.35.35,0,0,1-.07-.48c.11-.1.32-.05.47.11s.18.37.07.48Zm-.22-.24"/><path class="cls-2" d="M10.55,35.39c-.14.1-.37,0-.51-.2s-.14-.45,0-.55.37,0,.51.19.14.45,0,.55Zm0,0"/><path class="cls-2" d="M11.79,36.67c-.13.14-.39.1-.59-.09a.44.44,0,0,1-.13-.59c.13-.14.4-.1.6.09s.26.45.13.59Zm0,0"/><path class="cls-2" d="M13.51,37.41c-.06.18-.31.26-.57.19s-.43-.29-.38-.47.31-.27.58-.18.43.29.38.47Zm0,0"/><path class="cls-2" d="M15.39,37.55c0,.19-.21.35-.49.35s-.5-.15-.5-.33.22-.35.49-.35.5.15.5.34Zm0,0"/><path class="cls-2" d="M17.14,37.25c0,.18-.16.37-.43.43s-.51-.07-.55-.25.16-.38.43-.43.52.06.55.25Zm0,0"/></g></svg>