<?xml version="1.0" encoding="UTF-8"?>
<svg width="33px" height="32px" viewBox="0 0 33 32" version="1.1" xmlns="http://www.w3.org/2000/svg" xmlns:xlink="http://www.w3.org/1999/xlink">
    <!-- Generator: Sketch 46.2 (44496) - http://www.bohemiancoding.com/sketch -->
    <title>twitter</title>
    <desc>Created with Sketch.</desc>
    <defs></defs>
    <g id="Habitat-SaaS-Onboarding/desktop" stroke="none" stroke-width="1" fill="none" fill-rule="evenodd">
        <g id="Habitat-5-mins-flow-V2---end-2" transform="translate(-899.000000, -705.000000)" fill-rule="nonzero">
            <g id="social-media-icons" transform="translate(899.000000, 705.000000)">
                <g id="twitter" transform="translate(1.765625, 1.000000)">
                    <circle id="Oval" stroke="#FF9012" cx="15" cy="15" r="15"></circle>
                    <path d="M23,9.53801015 C22.4114887,9.79909618 21.7793824,9.97559609 21.1147811,10.05493 C21.7930667,9.64885735 22.3126903,9.00537603 22.558034,8.23952652 C21.9137178,8.62212471 21.2085717,8.89147362 20.4732271,9.03587277 C19.8748021,8.39815195 19.0214586,8 18.0773663,8 C16.2652294,8 14.7955822,9.46871477 14.7955822,11.2814921 C14.7955822,11.5383425 14.8245185,11.7889241 14.8801455,12.0295095 C12.1522171,11.8924436 9.73373264,10.5860393 8.11491349,8.6009553 C7.83224505,9.08576884 7.67044787,9.64945034 7.67044787,10.2508716 C7.67044787,11.3892049 8.24997749,12.3935644 9.13056257,12.9818974 C8.60927079,12.9657474 8.0994196,12.8250722 7.64362995,12.5716315 L7.64362995,12.6130986 C7.64362995,14.203165 8.7748545,15.529011 10.2764883,15.8305476 C10.0006408,15.9061117 9.71115136,15.9455881 9.41166346,15.9455881 C9.19991633,15.9455881 8.99448178,15.9255534 8.79379227,15.8878137 C9.21148235,17.1910836 10.423669,18.1397442 11.8595502,18.1665559 C10.7362058,19.0469376 9.32074522,19.5717358 7.78339662,19.5717358 C7.51860678,19.5717358 7.25690969,19.5559368 7,19.5249741 C8.45278532,20.4563108 10.1777322,21 12.0313882,21 C18.068427,21 21.3701232,15.9997198 21.3701232,11.6634215 C21.3701232,11.521061 21.3669881,11.3797594 21.3601248,11.2389661 C22.0034015,10.7737887 22.5586927,10.1978144 23,9.53801015 L23,9.53801015 Z" id="Shape" fill="#FFFFFF"></path>
                </g>
            </g>
        </g>
    </g>
</svg>