<svg xmlns="http://www.w3.org/2000/svg" xmlns:xlink="http://www.w3.org/1999/xlink" width="48" height="48" viewBox="0 0 48 48">
  <defs>
    <path id="icon-view-a" d="M23.9994362,0 C13.0912166,0 3.77401395,6.84126929 0,16.5 C3.77401395,26.1575937 13.0912166,33 23.9994362,33 C34.9087834,33 44.2248585,26.1575937 48,16.5 C44.2248585,6.84126929 34.9087834,0 23.9994362,0 L23.9994362,0 Z M23.9994362,27.499242 C17.9781531,27.499242 13.0912166,22.571527 13.0912166,16.5 C13.0912166,10.427336 17.9781531,5.499621 23.9994362,5.499621 C30.0218469,5.499621 34.9087834,10.427336 34.9087834,16.5 C34.9087834,22.571527 30.0218469,27.499242 23.9994362,27.499242 L23.9994362,27.499242 Z M23.9994362,9.8997726 C20.3776457,9.8997726 17.4538279,12.8479879 17.4538279,16.5 C17.4538279,20.1520121 20.3776457,23.1002274 23.9994362,23.1002274 C27.6212267,23.1002274 30.5450445,20.1520121 30.5450445,16.5 C30.5450445,12.8479879 27.6212267,9.8997726 23.9994362,9.8997726 L23.9994362,9.8997726 Z"/>
  </defs>
  <g fill="none" fill-rule="evenodd" transform="translate(0 8)">
    <mask id="icon-view-b" fill="#fff">
      <use xlink:href="#icon-view-a"/>
    </mask>
    <use fill="#575C5F" xlink:href="#icon-view-a"/>
    <g fill="#87B09A" mask="url(#icon-view-b)">
      <rect width="96" height="96" transform="translate(-22 -30)"/>
    </g>
  </g>
</svg>
