<svg xmlns="http://www.w3.org/2000/svg" width="50" height="50" viewBox="0 0 50 50">
  <path fill="#5C6670" d="M15.0719173,8.05768758e-06 C7.68179406,-0.00766457634 1.37885,5.46496575 0.195601271,12.9166035 C-0.98764746,20.3682412 3.29868615,27.5954347 10.312279,29.9743489 C11.0608823,30.1159599 11.3381428,29.6439231 11.3381428,29.2285307 C11.3381428,28.8131383 11.3381428,27.8973868 11.3381428,26.6134464 C7.13302539,27.5480794 6.24579184,24.545925 6.24579184,24.545925 C5.96853278,23.6170485 5.37520108,22.8200912 4.57298689,22.2990294 C3.20516848,21.3549559 4.67464907,21.3549559 4.67464907,21.3549559 C5.64353034,21.4900798 6.49662883,22.0756888 6.98515313,22.9409996 C7.39793724,23.706264 8.09289094,24.271374 8.91552773,24.5107071 C9.73816449,24.7500401 10.6203112,24.6437625 11.3658688,24.2154992 C11.4254632,23.4392771 11.7529957,22.7099032 12.2900705,22.1574184 C8.98142863,21.7892297 5.46946247,20.4675264 5.46946247,14.5765064 C5.44899821,13.0486263 6.00498146,11.5713115 7.02212119,10.4509042 C6.56323159,9.12470216 6.61610708,7.66974287 7.16999346,6.38194646 C7.16999346,6.38194646 8.43614968,5.96655403 11.3104167,7.95854959 C13.7787592,7.26771244 16.3835595,7.26771244 18.8519019,7.95854959 C21.7261691,5.96655403 22.9923253,6.38194646 22.9923253,6.38194646 C23.5411123,7.67195087 23.5873888,9.12723891 23.1217134,10.4509042 C24.1363136,11.5722537 24.6890552,13.0497499 24.6651302,14.5765064 C24.6651302,20.4864079 21.143922,21.7797891 17.7890701,22.1290963 C18.5127719,22.8792324 18.8863658,23.9106561 18.8149339,24.9613174 C18.8149339,27.0193982 18.8149339,28.6715272 18.8149339,29.181327 C18.8149339,29.6911267 19.0829524,30.0687562 19.8500398,29.9177046 C26.7803509,27.477255 30.9825508,20.2926392 29.8022282,12.9021768 C28.6219056,5.5117143 22.402197,0.0639183187 15.0719173,8.05768758e-06 Z" transform="translate(10 10)"/>
</svg>
