<?xml version="1.0" encoding="UTF-8"?>
<svg width="30px" height="30px" viewBox="0 0 30 30" version="1.1" xmlns="http://www.w3.org/2000/svg" xmlns:xlink="http://www.w3.org/1999/xlink">
    <!-- Generator: Sketch 46.2 (44496) - http://www.bohemiancoding.com/sketch -->
    <title>icon/open in new</title>
    <desc>Created with Sketch.</desc>
    <defs>
        <linearGradient x1="70.6653792%" y1="50%" x2="0%" y2="50%" id="linearGradient-1">
            <stop stop-color="#F59B51" offset="0%"></stop>
            <stop stop-color="#F58251" offset="100%"></stop>
        </linearGradient>
    </defs>
    <g id="Symbols" stroke="none" stroke-width="1" fill="none" fill-rule="evenodd">
        <g id="icon/open-in-new" fill="url(#linearGradient-1)">
            <path d="M21.3414714,21.3414714 L8.65852865,21.3414714 L8.65852865,8.65898161 L15,8.65898161 L15,6.84667969 L8.65852865,6.84667969 C7.65295247,6.84667969 6.84667969,7.66201172 6.84667969,8.65898161 L6.84667969,21.3414714 C6.84667969,22.3379883 7.65295247,23.1533203 8.65852865,23.1533203 L21.3414714,23.1533203 C22.3379883,23.1533203 23.1533203,22.3379883 23.1533203,21.3414714 L23.1533203,15 L21.3414714,15 L21.3414714,21.3414714 L21.3414714,21.3414714 Z M16.811849,6.84667969 L16.811849,8.65898161 L20.0641178,8.65898161 L11.1588802,17.5637663 L12.4362337,18.8411198 L21.3414714,9.93633512 L21.3414714,13.188151 L23.1533203,13.188151 L23.1533203,6.84667969 L16.811849,6.84667969 L16.811849,6.84667969 Z" id="Fill-117"></path>
        </g>
    </g>
</svg>