<?xml version="1.0" encoding="UTF-8" standalone="no"?>
<svg width="36px" height="36px" viewBox="0 0 36 36" version="1.1" xmlns="http://www.w3.org/2000/svg" xmlns:xlink="http://www.w3.org/1999/xlink">
    <!-- Generator: Sketch 39.1 (31720) - http://www.bohemiancoding.com/sketch -->
    <title>subhero-results</title>
    <desc>Created with Sketch.</desc>
    <defs>
        <path d="M6.76332606,0.710022751 C7.30572379,-0.412533548 8.1887281,-0.405075004 8.72752201,0.710022751 L14.395106,12.4397586 C14.9375038,13.5623149 14.3757192,14.4723266 13.1250132,14.4723266 L2.36583489,14.4723266 C1.12198423,14.4723266 0.556948115,13.5548563 1.09574202,12.4397586 L6.76332606,0.710022751 Z" id="path-1"></path>
        <mask id="mask-2" maskContentUnits="userSpaceOnUse" maskUnits="objectBoundingBox" x="0" y="0" width="13.6922564" height="14.5879132" fill="white">
            <use xlink:href="#path-1"></use>
        </mask>
        <path d="M17.6174131,0.710022751 C18.1598109,-0.412533548 19.0428152,-0.405075004 19.5816091,0.710022751 L25.2491931,12.4397586 C25.7915909,13.5623149 25.2298063,14.4723266 23.9791003,14.4723266 L13.219922,14.4723266 C11.9760713,14.4723266 11.4110352,13.5548563 11.9498291,12.4397586 L17.6174131,0.710022751 Z" id="path-3"></path>
        <mask id="mask-4" maskContentUnits="userSpaceOnUse" maskUnits="objectBoundingBox" x="0" y="0" width="13.6922564" height="14.5879132" fill="white">
            <use xlink:href="#path-3"></use>
        </mask>
    </defs>
    <g id="Habitat-Web-Home" stroke="none" stroke-width="1" fill="none" fill-rule="evenodd">
        <g transform="translate(-629.000000, -819.000000)" id="Modern-Packages">
            <g transform="translate(230.000000, 725.000000)">
                <g id="Group-14">
                    <g id="Group-13" transform="translate(0.000000, 94.000000)">
                        <g id="Group-11" transform="translate(399.000000, 0.000000)">
                            <g id="icon-abstract-2">
                                <rect id="Rectangle-164" fill-opacity="0.140000001" fill="#D8D8D8" transform="translate(19.996688, 28.118906) rotate(-27.000000) translate(-19.996688, -28.118906) " x="0.584923584" y="27.7599314" width="38.8235294" height="0.717948718" rx="0.358974359"></rect>
                                <g id="Group-10" transform="translate(2.411765, 11.000000)">
                                    <use id="Triangle-1-Copy-3" stroke="#87B09A" mask="url(#mask-2)" transform="translate(7.744326, 7.178370) rotate(90.000000) translate(-7.744326, -7.178370) " xlink:href="#path-1"></use>
                                    <path d="M11.342394,0.710022751 C11.8847918,-0.412533548 12.7677961,-0.405075004 13.30659,0.710022751 L18.974174,12.4397586 C19.5165718,13.5623149 18.9547872,14.4723266 17.7040812,14.4723266 L6.94490288,14.4723266 C5.70105222,14.4723266 5.13601611,13.5548563 5.67481002,12.4397586 L11.342394,0.710022751 Z" id="Triangle-1-Copy-5" fill="#67727D" transform="translate(12.323394, 7.178370) rotate(90.000000) translate(-12.323394, -7.178370) "></path>
                                    <use id="Triangle-1-Copy-4" stroke="#979797" mask="url(#mask-4)" transform="translate(18.598413, 7.178370) rotate(90.000000) translate(-18.598413, -7.178370) " xlink:href="#path-3"></use>
                                </g>
                            </g>
                        </g>
                    </g>
                </g>
            </g>
        </g>
    </g>
</svg>