<?xml version="1.0" encoding="utf-8"?>
<!-- Generator: Adobe Illustrator 22.1.0, SVG Export Plug-In . SVG Version: 6.00 Build 0)  -->
<svg version="1.1" id="Layer_1" xmlns="http://www.w3.org/2000/svg" xmlns:xlink="http://www.w3.org/1999/xlink" x="0px" y="0px"
	 viewBox="0 0 30 30" style="enable-background:new 0 0 30 30;" xml:space="preserve">
<style type="text/css">
	.st0{fill:#FFFFFF;}
</style>
<path class="st0" d="M15.1,0C7.7,0,1.4,5.5,0.2,12.9S3.3,27.6,10.3,30c0.7,0.1,1-0.3,1-0.7s0-1.3,0-2.6c-4.2,0.9-5.1-2.1-5.1-2.1
	c-0.3-0.9-0.9-1.7-1.7-2.2c-1.4-0.9,0.1-0.9,0.1-0.9c1,0.1,1.8,0.7,2.3,1.6c0.4,0.8,1.1,1.3,1.9,1.6c0.8,0.2,1.7,0.1,2.5-0.3
	c0.1-0.8,0.4-1.5,0.9-2.1c-3.3-0.4-6.8-1.7-6.8-7.6c0-1.5,0.5-3,1.6-4.1C6.6,9.1,6.6,7.7,7.2,6.4c0,0,1.3-0.4,4.1,1.6
	c2.5-0.7,5.1-0.7,7.5,0C21.7,6,23,6.4,23,6.4c0.5,1.3,0.6,2.7,0.1,4.1c1,1.1,1.6,2.6,1.5,4.1c0,5.9-3.5,7.2-6.9,7.6
	c0.7,0.8,1.1,1.8,1,2.8c0,2.1,0,3.7,0,4.2c0,0.5,0.3,0.9,1,0.7c6.9-2.4,11.1-9.6,10-17S22.4,0.1,15.1,0z"/>
</svg>
