<?xml version="1.0" encoding="UTF-8"?>
<svg width="48px" height="48px" viewBox="0 0 48 48" version="1.1" xmlns="http://www.w3.org/2000/svg" xmlns:xlink="http://www.w3.org/1999/xlink">
    <!-- Generator: sketchtool 49.1 (51147) - http://www.bohemiancoding.com/sketch -->
    <title>E865C0E4-BD2F-4230-B5F2-A0CD2EBDDA14</title>
    <desc>Created with sketchtool.</desc>
    <defs>
        <path d="M36,0 L4,0 C1.8,0 0.02,1.801 0.02,4.001 L0,40.001 L8,32.001 L36,32.001 C38.2,32.001 40,30.2 40,28.001 L40,4.001 C40,1.801 38.2,0 36,0 L36,0 Z M32,24.001 L24,17.601 L24,24.001 L8,24.001 L8,8.001 L24,8.001 L24,14.4 L32,8.001 L32,24.001 L32,24.001 Z" id="path-1"></path>
    </defs>
    <g id="Symbols" stroke="none" stroke-width="1" fill="none" fill-rule="evenodd">
        <g id="icon/icon-videoconference">
            <g id="color/default" transform="translate(4.000000, 4.000000)">
                <mask id="mask-2" fill="white">
                    <use xlink:href="#path-1"></use>
                </mask>
                <use id="Mask" fill="#87b09a" xlink:href="#path-1"></use>
                <g mask="url(#mask-2)" fill="#87b09a" id="Rectangle">
                    <g transform="translate(-27.000000, -28.000000)">
                        <rect x="0" y="0" width="96" height="96"></rect>
                    </g>
                </g>
            </g>
        </g>
    </g>
</svg>
