<?xml version="1.0" encoding="UTF-8"?>
<svg width="20px" height="20px" viewBox="0 0 20 20" version="1.1" xmlns="http://www.w3.org/2000/svg" xmlns:xlink="http://www.w3.org/1999/xlink">
    <!-- Generator: Sketch 43.2 (39069) - http://www.bohemiancoding.com/sketch -->
    <title>icon-calendar</title>
    <desc>Created with Sketch.</desc>
    <defs></defs>
    <g id="(working-on-this)-Habitat-Web---Combined-Nav" stroke="none" stroke-width="1" fill="none" fill-rule="evenodd">
        <g id="Habitat-Web---Blogs" transform="translate(-693.000000, -313.000000)" fill="#87B09A">
            <g id="blog-thumbnail-red" transform="translate(530.000000, 145.000000)">
                <g id="calendar-icon" transform="translate(163.000000, 168.000000)">
                    <path d="M19.1396351,7.85520833 L0.860364924,7.85520833 L0.860364924,3.97541667 L3.89280713,3.97541667 L3.89280713,5.444 C3.89280713,5.674125 4.08539982,5.86066667 4.3229896,5.86066667 C4.56057937,5.86066667 4.75317206,5.674125 4.75317206,5.444 L4.75317206,3.97541667 L15.2468279,3.97541667 L15.2468279,5.444 C15.2468279,5.674125 15.4394206,5.86066667 15.6770104,5.86066667 C15.9146002,5.86066667 16.1071929,5.674125 16.1071929,5.444 L16.1071929,3.97541667 L19.1396351,3.97541667 L19.1396351,7.85520833 Z M0.860364924,19.1666667 L19.1396351,19.1666667 L19.1396351,8.6885 L0.860364924,8.6885 L0.860364924,19.1666667 Z M19.5698175,3.14208333 L16.1071929,3.14208333 L16.1071929,0.416666667 C16.1071929,0.186541667 15.9146002,0 15.6770104,0 C15.4394206,0 15.2468279,0.186541667 15.2468279,0.416666667 L15.2468279,3.14208333 L4.75317206,3.14208333 L4.75317206,0.416666667 C4.75317206,0.186541667 4.56057937,0 4.3229896,0 C4.08539982,0 3.89280713,0.186541667 3.89280713,0.416666667 L3.89280713,3.14208333 L0.430182462,3.14208333 C0.192592688,3.14208333 0,3.328625 0,3.55875 L0,19.5833333 C0,19.8134583 0.192592688,20 0.430182462,20 L19.5698175,20 C19.8074073,20 20,19.8134583 20,19.5833333 L20,3.55875 C20,3.328625 19.8073643,3.14208333 19.5698175,3.14208333 L19.5698175,3.14208333 Z M6,13 C6.55228475,13 7,12.5522847 7,12 C7,11.4477153 6.55228475,11 6,11 C5.44771525,11 5,11.4477153 5,12 C5,12.5522847 5.44771525,13 6,13 Z M6,17 C6.55228475,17 7,16.5522847 7,16 C7,15.4477153 6.55228475,15 6,15 C5.44771525,15 5,15.4477153 5,16 C5,16.5522847 5.44771525,17 6,17 Z M10,13 C10.5522847,13 11,12.5522847 11,12 C11,11.4477153 10.5522847,11 10,11 C9.44771525,11 9,11.4477153 9,12 C9,12.5522847 9.44771525,13 10,13 Z M10,17 C10.5522847,17 11,16.5522847 11,16 C11,15.4477153 10.5522847,15 10,15 C9.44771525,15 9,15.4477153 9,16 C9,16.5522847 9.44771525,17 10,17 Z M14,13 C14.5522847,13 15,12.5522847 15,12 C15,11.4477153 14.5522847,11 14,11 C13.4477153,11 13,11.4477153 13,12 C13,12.5522847 13.4477153,13 14,13 Z M14,17 C14.5522847,17 15,16.5522847 15,16 C15,15.4477153 14.5522847,15 14,15 C13.4477153,15 13,15.4477153 13,16 C13,16.5522847 13.4477153,17 14,17 Z" id="Combined-Shape"></path>
                </g>
            </g>
        </g>
    </g>
</svg>