<?xml version="1.0" encoding="UTF-8"?>
<svg width="48px" height="48px" viewBox="0 0 48 48" version="1.1" xmlns="http://www.w3.org/2000/svg" xmlns:xlink="http://www.w3.org/1999/xlink">
    <!-- Generator: sketchtool 49.2 (51160) - http://www.bohemiancoding.com/sketch -->
    <title>0DC63AD9-963B-414D-85A1-A8BA26F1FB6C</title>
    <desc>Created with sketchtool.</desc>
    <defs>
        <rect id="path-1" x="0" y="0" width="48" height="48" rx="2"></rect>
        <filter x="-8.3%" y="-4.2%" width="116.7%" height="116.7%" filterUnits="objectBoundingBox" id="filter-2">
            <feOffset dx="0" dy="2" in="SourceAlpha" result="shadowOffsetOuter1"></feOffset>
            <feMorphology radius="1" operator="erode" in="SourceAlpha" result="shadowInner"></feMorphology>
            <feOffset dx="0" dy="2" in="shadowInner" result="shadowInner"></feOffset>
            <feComposite in="shadowOffsetOuter1" in2="shadowInner" operator="out" result="shadowOffsetOuter1"></feComposite>
            <feGaussianBlur stdDeviation="1" in="shadowOffsetOuter1" result="shadowBlurOuter1"></feGaussianBlur>
            <feColorMatrix values="0 0 0 0 0   0 0 0 0 0   0 0 0 0 0  0 0 0 0.1 0" type="matrix" in="shadowBlurOuter1"></feColorMatrix>
        </filter>
    </defs>
    <g id="Symbols" stroke="none" stroke-width="1" fill="none" fill-rule="evenodd">
        <g id="icon/chevron/left">
            <path d="M23.1369352,20.401757 C23.6627399,19.9257615 24.4637196,19.9257615 24.9895243,20.401757 L31.7595776,26.530487 C31.7887949,26.5578009 31.7887949,26.5578009 31.816204,26.5869288 C32.1258313,26.9267182 32.1013801,27.4531746 31.7615906,27.7628019 C31.403956,28.0886903 30.8572728,28.0895834 30.4985753,27.7648652 L24.2837773,22.1387922 C24.1585854,22.0254598 23.9678755,22.02546 23.842684,22.1387928 L17.6279332,27.7648538 C17.2692313,28.0895779 16.7225416,28.088692 16.3648939,27.7628071 C16.3357583,27.7353918 16.3357583,27.7353918 16.3084376,27.7061674 C15.9999217,27.3653677 16.0260929,26.8389934 16.3668926,26.5304774 L23.1369352,20.401757 Z" id="chevron/left" fill="#FFFFFF" fill-rule="nonzero" transform="translate(24.063234, 24.026286) rotate(-90.000000) translate(-24.063234, -24.026286) "></path>
            <g id="Rectangle-2-Copy-">
                <use fill="black" fill-opacity="1" filter="url(#filter-2)" xlink:href="#path-1"></use>
                <rect stroke="#FFFFFF" stroke-width="1" x="0.5" y="0.5" width="47" height="47" rx="2"></rect>
            </g>
        </g>
    </g>
</svg>