<svg xmlns="http://www.w3.org/2000/svg" width="255" height="158" viewBox="0 0 255 158">
  <path d="M158.462166,53.177889 C151.932617,51.0142909 147.957627,49.7033898 147.957627,49.7033898 C147.957627,49.7033898 142.338983,65.4067797 157.898305,70.4491525 C169.567797,74.4830508 178.644068,65.1186441 179.652542,60.220339 C176.745165,59.2512131 173.956049,58.3227397 171.321894,57.4467571 C171.424003,57.8282383 171.497782,58.2221178 171.540751,58.6264655 C172.003197,62.9781172 168.722092,66.8943466 164.212199,67.3736085 C159.702305,67.8528705 155.671428,64.7136783 155.208982,60.3620266 C154.903779,57.4900485 156.229141,54.8077256 158.462166,53.177889 Z M215.785254,15.0314673 C215.746591,15.0631424 215.708003,15.0950255 215.669492,15.1271186 C214.372881,14.2627119 213.076271,13.3983051 212.067797,12.5338983 L212.067797,12.5338983 C211.261029,11.8167715 210.454261,11.1554203 210.584511,9.99457505 C210.579705,9.26753425 210.934284,8.33977978 211.923729,7.05932203 C212.079057,6.84751053 212.317428,6.66753201 212.621749,6.5143672 C214.393411,4.46916936 217.47264,2.07181459 218.118644,1.29661017 C220.940422,-2.08952278 230.11809,1.84743615 236.044317,7.15364724 C242.592341,11.8788115 249.610872,20.5930211 252.118644,27.9491525 C255.576271,38.3220339 255.720339,51.4322034 249.957627,64.6864407 C240.449153,87.0169492 225.754237,101.711864 194.347458,105.889831 C175.90678,108.483051 179.652542,122.025424 179.652542,158.042373 L154.584746,158.042373 C154.584746,158.042373 112.228814,90.4745763 92.4915254,158.042373 L70.1610169,158.042373 C65.6949153,124.762712 38.8983051,123.466102 31.4067797,158.042373 L2.01694915,158.042373 C2.01694915,158.042373 -13.9745763,64.1101695 45.0932203,42.7881356 C45.0932203,42.7881356 50.4237288,55.4661017 57.3389831,66.559322 C64.9745763,78.8050847 85,87.3050847 108.338983,52.1525424 C108.338983,52.1525424 76.9322034,86.8728814 62.6694915,63.1016949 C53.5932203,48.1186441 56.6186441,53.7372881 47.3983051,35.5847458 C40.6271186,22.3305085 48.5508475,16.5677966 65.8389831,10.8050847 C83.1271186,5.04237288 135.279661,-9.65254237 174.177966,26.5084746 C210.771186,60.5084746 219.70339,58.779661 227.627119,51.5762712 C234.686441,45.0932203 230.652542,34.4322034 228.923729,29.8220339 C225.827235,21.8138591 220.040094,17.8416533 215.785254,15.0314673 Z" opacity=".301"/>
</svg>
