<?xml version="1.0" encoding="UTF-8"?>
<svg width="20px" height="20px" viewBox="0 0 20 20" version="1.1" xmlns="http://www.w3.org/2000/svg" xmlns:xlink="http://www.w3.org/1999/xlink">
    <!-- Generator: Sketch 43.1 (39012) - http://www.bohemiancoding.com/sketch -->
    <title>icon-pin</title>
    <desc>Created with Sketch.</desc>
    <defs></defs>
    <g id="(working-on-this)-Habitat-Web---Combined-Nav" stroke="none" stroke-width="1" fill="none" fill-rule="evenodd">
        <g id="Habitat-Web---Community" transform="translate(-279.000000, -720.000000)" stroke="#87B09A">
            <g id="event---workshop" transform="translate(130.000000, 539.000000)">
                <g id="time-and-location-copy-2" transform="translate(20.000000, 180.000000)">
                    <g id="Page-1" transform="translate(131.000000, 0.000000)">
                        <g id="icon-pin">
                            <path d="M8.06724326,10.8326821 C6.79056665,10.8326821 5.75603496,9.84401427 5.75603496,8.62393651 C5.75603496,7.40523892 6.79056665,6.41519091 8.06724326,6.41519091 C9.34440127,6.41519091 10.3784516,7.40523892 10.3784516,8.62393651 C10.3784516,9.84401427 9.34440127,10.8326821 8.06724326,10.8326821 M12.9491352,3.95847324 C10.2167007,1.34717559 5.78443764,1.34717559 3.05007748,3.95847324 C0.586746326,6.31259764 0.310421902,10.7461909 2.39970414,13.4094753 L6.7068028,19.3525238 C7.33214326,20.2160554 8.66755085,20.2155954 9.29289132,19.3525238 L13.5995086,13.4094753 C15.6907164,10.7461909 15.4124664,6.31259764 12.9491352,3.95847324" id="Fill-3"></path>
                        </g>
                    </g>
                </g>
            </g>
        </g>
    </g>
</svg>