<?xml version="1.0" encoding="utf-8"?>
<!-- Generator: Adobe Illustrator 21.0.0, SVG Export Plug-In . SVG Version: 6.00 Build 0)  -->
<svg version="1.1" id="Layer_1" xmlns="http://www.w3.org/2000/svg" xmlns:xlink="http://www.w3.org/1999/xlink" x="0px" y="0px"
	 viewBox="0 0 1440 320" style="enable-background:new 0 0 1440 320;" xml:space="preserve" preserveAspectRatio="xMinYMax slice">
<style type="text/css">
	.st0{fill:#87B09A;opacity: 0.73;fill-opacity:0.73;}
	.st1{fill:#87B09A;}
	.st2{fill:#FFFFFF;opacity: 0.05;}
</style>
<title>background hills and cloud</title>
<path id="hill-back" class="st0" d="M1440,231.3c-199.9,0-220-25.1-410.8-34.3s-261.7,39.9-455.7,34.3S190.1,162.9,0.2,161.4V320
	H1440V231.3z"/>
<path id="hill-middle" class="st0" d="M0.2,257c29.1,0.1,58.2-1.7,87.1-5.3c135-17.2,196.5-70.7,300.6-70.7
	c124.2,0,140.3,56.1,412.2,57.5s338-124.8,639.9-70.5v152H0.2V257z"/>
<path id="hill-front" class="st1" d="M0.2,275.6c200,0,308.1-33.8,410.9-34.4s183.9,33.4,455.8,34.4s383.1-68.8,573.1-70.3V320H0.2
	V275.6z"/>
<path id="cloud-right" class="st2" d="M1440,3.5c-52.2-12.8-106.6,10.4-133.5,57c-55.1-37.6-130.3-23.5-168,31.6
	c-8.9,13-15.1,27.6-18.4,42.9c-46.1-19.8-99.5,1.5-119.3,47.5c-1,2.4-2,4.9-2.8,7.4c-21.1-35.2-66.7-46.6-101.8-25.5
	c-25,15-38.9,43.1-35.6,72c223.4-15.3,301.4-118.2,579.5-68.5V3.5z"/>
<path id="cloud-left" class="st2" d="M601.8,232c15.3-0.2,30-0.5,44-0.9c9-0.4,17.7-0.9,26.2-1.5c0.6-42.8-33.7-78-76.5-78.5
	c-20.6-0.3-40.5,7.7-55.2,22.1c-14-50.4-66.2-80-116.6-66c-10,2.8-19.4,7.2-28,13c-27.3-64.1-101.4-93.9-165.5-66.6
	c-15,6.4-28.7,15.7-40.2,27.3C144.2,28.3,64.6,22.7,12,68.4c-4.2,3.7-8.2,7.7-12,11.9l0.2,81.1c189.9,1.6,379.2,64.6,573.3,70.1
	C583.2,231.9,592.6,232,601.8,232L601.8,232z"/>
</svg>
