<svg id="Layer_1" data-name="Layer 1" xmlns="http://www.w3.org/2000/svg" xmlns:xlink="http://www.w3.org/1999/xlink" viewBox="0 0 568.27 79"><defs><linearGradient id="linear-gradient" x1="-591.52" y1="-1054.4" x2="-591.25" y2="-1054.4" gradientTransform="translate(36846.64 47932.75) scale(62.26 45.43)" gradientUnits="userSpaceOnUse"><stop offset="0" stop-color="#9351e5"/><stop offset="1" stop-color="#ef468b"/></linearGradient></defs><title>sub-hero-logos</title><path id="Rectangle-2-Copy-4" d="M2.5,0h175A2.5,2.5,0,0,1,180,2.5h0A2.5,2.5,0,0,1,177.5,5H2.5A2.5,2.5,0,0,1,0,2.5H0A2.5,2.5,0,0,1,2.5,0Z" style="fill:#93bea7"/><path d="M180,3V75a4,4,0,0,1-4,4H4a4,4,0,0,1-4-4V3H0A2.5,2.5,0,0,0,2.5,5h175A2.49,2.49,0,0,0,180,3Z" style="fill:#799987"/><rect id="Rectangle-13-Copy-12" x="5" y="10" width="171" height="64" rx="3" ry="3" style="fill:#fff"/><g id="Logos"><g id="mesosphere"><g id="Logo"><path id="Mesosphere-2" d="M108.28,25.73V28.8h3.16v.71h-3.16v3.06h3.9v.71h-4.65V25h4.65v.71Zm-5.34,4,2.24,3.52h-.86l-2.24-3.52h-1v3.52h-.74V25H103a2,2,0,0,1,2,2v.67a2,2,0,0,1-2,2Zm0-.71a1.28,1.28,0,0,0,.52-.1,1.31,1.31,0,0,0,.42-.29,1.37,1.37,0,0,0,.28-.42,1.28,1.28,0,0,0,.1-.52V27a1.28,1.28,0,0,0-.1-.52,1.37,1.37,0,0,0-.28-.42,1.31,1.31,0,0,0-.42-.29,1.28,1.28,0,0,0-.52-.1H101.1V29Zm-9.58,4.23H98v-.71H94.1v-3h3.16v-.71H94.07V25.73H98V25H93.33v8.26Zm-3.68-4.48H86.49V25h-.74v8.26h.74V29.5h3.16v3.77h.74V25h-.74v3.78Zm-6.42-2.54a2,2,0,0,1,.16.79v1a2,2,0,0,1-2,2H79.48v3.17h-.74V25h2.61a2,2,0,0,1,1.87,1.24Zm-.58.79a1.28,1.28,0,0,0-.1-.52,1.35,1.35,0,0,0-.71-.7,1.28,1.28,0,0,0-.52-.1H79.48v3.67h1.84a1.28,1.28,0,0,0,.52-.1,1.38,1.38,0,0,0,.42-.28,1.31,1.31,0,0,0,.29-.42,1.28,1.28,0,0,0,.1-.52V27Zm-7.05,2.54a2.71,2.71,0,0,0-.62-.43,7,7,0,0,0-.72-.32l-.72-.29a3.13,3.13,0,0,1-.62-.33,1.56,1.56,0,0,1-.44-.46,1.25,1.25,0,0,1-.17-.67V26.9a1.28,1.28,0,0,1,.1-.52,1.31,1.31,0,0,1,.28-.42,1.37,1.37,0,0,1,.42-.28,1.28,1.28,0,0,1,.52-.1h.46a1.28,1.28,0,0,1,.52.1,1.33,1.33,0,0,1,.7.7,1.28,1.28,0,0,1,.1.52v.33h.74v-.34a2,2,0,0,0-2-2h-.53a2,2,0,0,0-2,2v.16a2.13,2.13,0,0,0,.17.89,1.88,1.88,0,0,0,.44.61,2.61,2.61,0,0,0,.62.42q.35.17.72.31l.72.28a2.87,2.87,0,0,1,.62.34,1.57,1.57,0,0,1,.44.48,1.37,1.37,0,0,1,.17.71v.25a1.19,1.19,0,0,1-.11.52,1.4,1.4,0,0,1-.3.42,1.43,1.43,0,0,1-.44.28,1.34,1.34,0,0,1-.52.1H73.6a1.37,1.37,0,0,1-.53-.1,1.42,1.42,0,0,1-.44-.28,1.4,1.4,0,0,1-.3-.42,1.2,1.2,0,0,1-.11-.52v-.45h-.74v.45a1.86,1.86,0,0,0,.17.79,2.12,2.12,0,0,0,1.12,1.08,2,2,0,0,0,.8.16h.59a2,2,0,0,0,.8-.16,2.12,2.12,0,0,0,1-1.06,1.86,1.86,0,0,0,.17-.79v-.25a2.17,2.17,0,0,0-.17-.9,1.92,1.92,0,0,0-.44-.62Zm-6.68-3.45a2,2,0,0,1,.16.79v4.43a2,2,0,0,1-2,2h-.59a2,2,0,0,1-2-2v-4.4a2,2,0,0,1,2-2H67a2,2,0,0,1,1.87,1.24Zm-.58.79a1.28,1.28,0,0,0-.1-.52,1.33,1.33,0,0,0-.7-.7,1.28,1.28,0,0,0-.52-.1h-.52a1.28,1.28,0,0,0-.52.1,1.37,1.37,0,0,0-.42.28,1.31,1.31,0,0,0-.28.42,1.28,1.28,0,0,0-.1.52v4.43a1.28,1.28,0,0,0,.1.52,1.34,1.34,0,0,0,.71.71,1.28,1.28,0,0,0,.52.1H67a1.28,1.28,0,0,0,.52-.1,1.32,1.32,0,0,0,.42-.28,1.38,1.38,0,0,0,.28-.42,1.28,1.28,0,0,0,.1-.52V26.93Zm-6.93,2.66a2.71,2.71,0,0,0-.62-.43,7,7,0,0,0-.72-.32l-.72-.29a3.14,3.14,0,0,1-.62-.33,1.56,1.56,0,0,1-.44-.46,1.25,1.25,0,0,1-.17-.67V26.9a1.28,1.28,0,0,1,.1-.52,1.31,1.31,0,0,1,.29-.42,1.37,1.37,0,0,1,.42-.28,1.28,1.28,0,0,1,.52-.1h.46a1.28,1.28,0,0,1,.52.1,1.33,1.33,0,0,1,.7.7,1.28,1.28,0,0,1,.1.52v.33H62v-.34a2,2,0,0,0-2-2h-.53a2,2,0,0,0-2,2v.16a2.13,2.13,0,0,0,.17.89,1.88,1.88,0,0,0,.44.61,2.61,2.61,0,0,0,.62.42q.35.17.72.31l.72.28a2.87,2.87,0,0,1,.62.34,1.57,1.57,0,0,1,.44.48,1.37,1.37,0,0,1,.17.71v.25a1.2,1.2,0,0,1-.11.52,1.4,1.4,0,0,1-.3.42,1.43,1.43,0,0,1-.44.28,1.34,1.34,0,0,1-.52.1h-.52a1.37,1.37,0,0,1-.53-.1,1.43,1.43,0,0,1-.44-.28,1.4,1.4,0,0,1-.3-.42,1.19,1.19,0,0,1-.11-.52v-.45H57.3v.45a1.86,1.86,0,0,0,.17.79,2.12,2.12,0,0,0,1.12,1.08,2,2,0,0,0,.8.16H60a2,2,0,0,0,.8-.16,2.12,2.12,0,0,0,1.12-1.08,1.86,1.86,0,0,0,.17-.79v-.25a2.17,2.17,0,0,0-.17-.9,1.92,1.92,0,0,0-.44-.62ZM50.58,33.27h4.65v-.71h-3.9V29.5h3.16v-.71H51.32V25.73h3.9V25H50.58v8.26Zm-5.48-3.5h0L42.7,25h-.45v8.26H43V27l1.92,3.85h.38L47.18,27v6.28h.72V25h-.45L45.1,29.75Z" style="fill:#323a43"/><path id="Mark" d="M28.1,37.38a.84.84,0,0,1-.69-.4L24.65,32.9l-3.89,2.4a.88.88,0,0,1-.46.14.7.7,0,0,1-.68-.72s0,0,0-.06v-8.6a1.07,1.07,0,0,1,.56-.94.84.84,0,0,1,.5-.13H35.53a.85.85,0,0,1,.47.11,1.06,1.06,0,0,1,.59,1v6.6a.86.86,0,0,1-.19.57.7.7,0,0,1-.54.25h0a.93.93,0,0,1-.41-.1l-3.16-1.55L28.79,37a.84.84,0,0,1-.69.4Zm-2.85-4.85L28,36.59c0,.06.08.09.1.09s.06,0,.1-.09l3.44-5.09L29,30.21l-3.77,2.32Zm-5,2.21Zm0-8.23v8.16a.35.35,0,0,0,0,.06h.06l3.87-2.38L20.32,26.5Zm12.37,4.72,3.07,1.51h.11a.31.31,0,0,0,0-.11V26.5l-3.19,4.72ZM21,26.26,24.85,32l3.42-2.11Zm8.73,3.51L32,30.91l3-4.39-5.29,3.26ZM21.48,25.7,29,29.4l6-3.7Z" style="fill:url(#linear-gradient)"/></g></g></g><g id="layer1"><path id="path3055" d="M26.68,47a1.1,1.1,0,0,0-.42.11l-5.7,2.72a1.08,1.08,0,0,0-.59.73L18.56,56.7a1.07,1.07,0,0,0,.15.83l.06.09,4,4.91a1.09,1.09,0,0,0,.85.41H29.9a1.09,1.09,0,0,0,.85-.41l4-4.91a1.07,1.07,0,0,0,.21-.92L33.5,50.58a1.08,1.08,0,0,0-.59-.73l-5.7-2.72a1.1,1.1,0,0,0-.53-.11Z" style="fill:#326ce5"/><path id="path3059" d="M26.74,49.1a.36.36,0,0,0-.34.38h0v.09a2.85,2.85,0,0,0,0,.32,3.19,3.19,0,0,1,0,.62.37.37,0,0,1-.11.18v.14a4.44,4.44,0,0,0-.62.09,4.39,4.39,0,0,0-2.23,1.27l-.12-.09a.27.27,0,0,1-.2,0,3.19,3.19,0,0,1-.46-.42l-.22-.24-.08-.06a.41.41,0,0,0-.24-.09.33.33,0,0,0-.27.12.36.36,0,0,0,.08.5h0L22,52l.28.17a3.19,3.19,0,0,1,.51.36.38.38,0,0,1,.07.2l.11.1a4.42,4.42,0,0,0-.7,3.08h-.14A.47.47,0,0,1,22,56a3.19,3.19,0,0,1-.61.1h-.42a.34.34,0,0,0,.15.67h.09l.31-.12a3.19,3.19,0,0,1,.6-.18.38.38,0,0,1,.2.07h.15a4.44,4.44,0,0,0,2,2.46l-.06.15a.34.34,0,0,1,0,.19,3.34,3.34,0,0,1-.31.56,2.86,2.86,0,0,0-.18.27v.09a.34.34,0,1,0,.62.29h0v-.09a2.85,2.85,0,0,0,.1-.31,2.39,2.39,0,0,1,.26-.61A.28.28,0,0,1,25,59.5l.08-.14a4.42,4.42,0,0,0,3.15,0l.07.13a.27.27,0,0,1,.17.11,3.19,3.19,0,0,1,.23.57,2.86,2.86,0,0,0,.1.31v.09a.34.34,0,1,0,.62-.29h0v-.09a2.85,2.85,0,0,0-.18-.27,3.19,3.19,0,0,1-.3-.54.27.27,0,0,1,0-.2L28.91,59a4.44,4.44,0,0,0,2-2.48h.15a.27.27,0,0,1,.19-.07,3.19,3.19,0,0,1,.6.18l.31.12h.09a.34.34,0,0,0,.15-.67H32a3.19,3.19,0,0,1-.61-.1.38.38,0,0,1-.15-.15h-.14a4.43,4.43,0,0,0-.71-3.07l.12-.11a.27.27,0,0,1,.06-.19,3.19,3.19,0,0,1,.51-.36l.28-.17.08-.06a.34.34,0,1,0-.43-.53l-.08.06-.23.24a3.2,3.2,0,0,1-.46.42.38.38,0,0,1-.21,0l-.13.09A4.47,4.47,0,0,0,27,50.82v-.15a.27.27,0,0,1-.11-.17,3.19,3.19,0,0,1,0-.62,2.85,2.85,0,0,0,0-.32v-.1a.36.36,0,0,0-.34-.38h0Zm-.43,2.65-.1,1.79h0a.3.3,0,0,1-.48.23h0l-1.47-1A3.52,3.52,0,0,1,26,51.85Zm.86,0a3.55,3.55,0,0,1,2,1l-1.46,1h0a.3.3,0,0,1-.48-.23h0ZM23.72,53.4l1.34,1.2h0a.3.3,0,0,1-.12.52h0l-1.72.5A3.52,3.52,0,0,1,23.72,53.4Zm6,0a3.58,3.58,0,0,1,.51,2.22l-1.73-.5h0a.3.3,0,0,1-.12-.52h0l1.33-1.19Zm-3.28,1.29H27l.34.43-.12.53-.49.24-.49-.24-.12-.53Zm1.76,1.46h.07l1.78.3a3.52,3.52,0,0,1-1.42,1.79L28,56.58h0a.3.3,0,0,1,.15-.39h.12Zm-3,0a.3.3,0,0,1,.27.42h0l-.68,1.65a3.53,3.53,0,0,1-1.42-1.78l1.76-.3h.07Zm1.49.72A.3.3,0,0,1,27,57h0l.87,1.57-.35.1a3.53,3.53,0,0,1-1.93-.1L26.47,57h0a.3.3,0,0,1,.26-.12Z" style="fill:#fff"/></g><g id="layer1-2"><g id="text4373"><path id="path2985" d="M42.16,55.73l.61-.67.62-.69.55-.66.46-.54h2.39l-1.4,1.58q-.68.76-1.49,1.53a8.85,8.85,0,0,1,.84.88l.84,1a7.72,7.72,0,0,1,.74,1.08q.34.54.57,1H44.58l-.5-.77-.58-.85a9.8,9.8,0,0,0-.66-.82,5.14,5.14,0,0,0-.67-.66v3.1h-2V50.11l2-.32v5.94" style="fill:#326de5"/><path id="path2987" d="M53.88,60a10.51,10.51,0,0,1-1.32.27,10.33,10.33,0,0,1-1.7.13,4.09,4.09,0,0,1-1.51-.24,2.32,2.32,0,0,1-.94-.67,2.72,2.72,0,0,1-.5-1,5.62,5.62,0,0,1-.15-1.34v-4h2v3.71a2.88,2.88,0,0,0,.26,1.4,1,1,0,0,0,1,.43h.46l.43,0V53.16h2V60" style="fill:#326de5"/><path id="path2989" d="M60.32,56.66q0-1.94-1.43-1.94a2.45,2.45,0,0,0-.62.08,1.75,1.75,0,0,0-.49.2v3.66l.38,0h.5a1.44,1.44,0,0,0,1.24-.57,2.46,2.46,0,0,0,.42-1.5m2,0a4.38,4.38,0,0,1-.26,1.54,3.17,3.17,0,0,1-.72,1.17,3.24,3.24,0,0,1-1.16.76,4.46,4.46,0,0,1-1.57.26h-.77l-.78-.08-.73-.12-.6-.22V50.11l2-.32v3.53a3.77,3.77,0,0,1,.7-.23,3.6,3.6,0,0,1,.78-.08,3.13,3.13,0,0,1,1.34.27,2.55,2.55,0,0,1,1,.74,3.36,3.36,0,0,1,.59,1.17,5.25,5.25,0,0,1,.2,1.51" style="fill:#326de5"/><path id="path2991" d="M63.58,56.77a4.38,4.38,0,0,1,.28-1.65,3.61,3.61,0,0,1,.77-1.19,3.19,3.19,0,0,1,1.08-.72A3.45,3.45,0,0,1,67,53a3.12,3.12,0,0,1,2.39.93,3.78,3.78,0,0,1,.88,2.71v.75H65.65a1.34,1.34,0,0,0,.58,1,2.33,2.33,0,0,0,1.38.36,6.1,6.1,0,0,0,1.08-.09,4.33,4.33,0,0,0,.88-.26l.26,1.6a2.78,2.78,0,0,1-.43.16,4.71,4.71,0,0,1-.61.13,6.44,6.44,0,0,1-.7.11,7.09,7.09,0,0,1-.76,0,4.53,4.53,0,0,1-1.67-.28,3.37,3.37,0,0,1-1.17-.77,3.27,3.27,0,0,1-.69-1.17,4.76,4.76,0,0,1-.22-1.46M68.3,56a1.88,1.88,0,0,0-.09-.5,1.11,1.11,0,0,0-.23-.43,1.13,1.13,0,0,0-.39-.31,1.23,1.23,0,0,0-.58-.12,1.28,1.28,0,0,0-.58.12,1.13,1.13,0,0,0-.4.3,1.44,1.44,0,0,0-.26.45,3.11,3.11,0,0,0-.12.5H68.3" style="fill:#326de5"/><path id="path2993" d="M76.07,54.94l-.63-.13a3.6,3.6,0,0,0-.78-.08,3.17,3.17,0,0,0-.46,0,2.28,2.28,0,0,0-.39.07v5.42h-2V53.54a11.3,11.3,0,0,1,1.27-.35A7.16,7.16,0,0,1,74.71,53h.39l.46,0,.46.08a1.87,1.87,0,0,1,.39.11l-.34,1.66" style="fill:#326de5"/><path id="path2995" d="M77.49,53.41a10.51,10.51,0,0,1,1.32-.27,10.33,10.33,0,0,1,1.7-.13,4,4,0,0,1,1.5.24,2.21,2.21,0,0,1,1,.66,2.6,2.6,0,0,1,.5,1,5.46,5.46,0,0,1,.15,1.32v4h-2V56.5a2.71,2.71,0,0,0-.26-1.38,1,1,0,0,0-1-.4h-.89V60.2h-2V53.41" style="fill:#326de5"/><path id="path2997" d="M85.11,56.77a4.38,4.38,0,0,1,.28-1.65,3.61,3.61,0,0,1,.77-1.19,3.19,3.19,0,0,1,1.08-.72A3.45,3.45,0,0,1,88.51,53a3.12,3.12,0,0,1,2.39.93,3.78,3.78,0,0,1,.88,2.71v.75H87.17a1.34,1.34,0,0,0,.58,1,2.33,2.33,0,0,0,1.38.36,6.1,6.1,0,0,0,1.08-.09,4.33,4.33,0,0,0,.88-.26l.27,1.6a2.78,2.78,0,0,1-.43.16,4.71,4.71,0,0,1-.61.13,6.44,6.44,0,0,1-.7.11,7.09,7.09,0,0,1-.76,0,4.53,4.53,0,0,1-1.67-.28A3.37,3.37,0,0,1,86,59.4a3.27,3.27,0,0,1-.69-1.17,4.76,4.76,0,0,1-.22-1.46M89.83,56a1.89,1.89,0,0,0-.09-.5,1.11,1.11,0,0,0-.23-.43,1.13,1.13,0,0,0-.39-.31,1.23,1.23,0,0,0-.58-.12,1.28,1.28,0,0,0-.58.12,1.13,1.13,0,0,0-.4.3,1.44,1.44,0,0,0-.26.45,3.11,3.11,0,0,0-.12.5h2.66" style="fill:#326de5"/><path id="path2999" d="M93.26,51.4l2-.32v2.09h2.42v1.67H95.27v2.5a2,2,0,0,0,.22,1,1,1,0,0,0,.9.38,4.18,4.18,0,0,0,.66,0,3.8,3.8,0,0,0,.63-.18L98,60.06a5.72,5.72,0,0,1-.81.26,4.72,4.72,0,0,1-1.09.11,3.7,3.7,0,0,1-1.36-.22,2.23,2.23,0,0,1-.86-.62,2.43,2.43,0,0,1-.46-1,6,6,0,0,1-.12-1.25v-6" style="fill:#326de5"/><path id="path3001" d="M98.71,56.77A4.38,4.38,0,0,1,99,55.12a3.61,3.61,0,0,1,.77-1.19,3.19,3.19,0,0,1,1.08-.72,3.45,3.45,0,0,1,1.27-.24,3.12,3.12,0,0,1,2.39.93,3.78,3.78,0,0,1,.88,2.71v.75h-4.56a1.34,1.34,0,0,0,.58,1,2.33,2.33,0,0,0,1.38.36,6.1,6.1,0,0,0,1.08-.09,4.33,4.33,0,0,0,.88-.26L105,60a2.78,2.78,0,0,1-.43.16,4.71,4.71,0,0,1-.61.13,6.44,6.44,0,0,1-.7.11,7.09,7.09,0,0,1-.76,0,4.53,4.53,0,0,1-1.67-.28,3.37,3.37,0,0,1-1.17-.77A3.27,3.27,0,0,1,99,58.18a4.76,4.76,0,0,1-.22-1.46m4.72-.77a1.88,1.88,0,0,0-.09-.5,1.11,1.11,0,0,0-.23-.43,1.13,1.13,0,0,0-.39-.31,1.23,1.23,0,0,0-.58-.12,1.28,1.28,0,0,0-.58.12,1.13,1.13,0,0,0-.4.3,1.44,1.44,0,0,0-.26.45,3.11,3.11,0,0,0-.12.5h2.66" style="fill:#326de5"/><path id="path3003" d="M109,58.82a2,2,0,0,0,.78-.11.42.42,0,0,0,.23-.42.5.5,0,0,0-.3-.42,5.19,5.19,0,0,0-.9-.42q-.47-.18-.86-.36a2.66,2.66,0,0,1-.65-.45,1.9,1.9,0,0,1-.42-.63,2.32,2.32,0,0,1-.15-.88,1.9,1.9,0,0,1,.74-1.58,3.23,3.23,0,0,1,2-.58,6.18,6.18,0,0,1,1.24.12,5.43,5.43,0,0,1,.94.24l-.35,1.57a7.21,7.21,0,0,0-.77-.22,4,4,0,0,0-.92-.09q-.94,0-.94.53a.54.54,0,0,0,0,.22.51.51,0,0,0,.16.19l.32.19.54.22a7.63,7.63,0,0,1,1.09.49,2.29,2.29,0,0,1,.67.51,1.43,1.43,0,0,1,.35.61,2.57,2.57,0,0,1,.11.78,1.8,1.8,0,0,1-.8,1.59,3.9,3.9,0,0,1-2.23.54,6.5,6.5,0,0,1-1.58-.16,6.41,6.41,0,0,1-.86-.27l.34-1.63a7.12,7.12,0,0,0,1.05.32,5.42,5.42,0,0,0,1.07.11" style="fill:#326de5"/></g></g><path d="M151.05,25.58c-.08.42-.16.85-.23,1.27,0,.16,0,.24-.24.17a27.32,27.32,0,0,0-4.75-1.18,22.59,22.59,0,0,0-6.75-.07,20,20,0,0,0-5.31,1.58c-.29.13-.34.07-.39-.2-.09-.48-.2-1-.3-1.44l-.23-1.17-.31-1.61.21-.07,2.57-1.22a20.33,20.33,0,0,1,6.27-1.27,24.37,24.37,0,0,1,6.12.56l1,.22.76.24,2.19.66h0a.11.11,0,0,0,0,.08.77.77,0,0,1-.07.39ZM135.94,23a3.85,3.85,0,0,0-.57.19,1.28,1.28,0,0,0-.63,1.59,1.31,1.31,0,0,0,1.45.92,1.28,1.28,0,0,0,1.16-1.31,20,20,0,0,0-.56-2.25c0-.07-.17-.11-.27-.17-.05.1-.15.19-.15.28a2.69,2.69,0,0,0,.12.52c.08.33.09.33-.23.27Zm3.13-.64a1.29,1.29,0,0,0-1.39,1.19s0,0,0,.07a1.34,1.34,0,1,0,1.42-1.26ZM146.31,25h.13c.17,0,.35,0,.34-.27s-.18-.19-.33-.2l-.43-.06-.13-.08a.52.52,0,0,1,.12-.1l1.36-.55c.24-.1.36-.23.26-.51a1.36,1.36,0,0,0-1.52-.88,1.33,1.33,0,0,0,.2,2.65Zm-3.19-.72c0,.17,0,.37.2.35s.17-.18.25-.29,0-.12,0-.17a1.14,1.14,0,0,1,.06-.15l.13.1a4.49,4.49,0,0,0,.41.47c.09.08.29.16.36.12s.1-.27,0-.41-.4-.52-.62-.76-.12-.2,0-.31a7.56,7.56,0,0,0,.79-.66c.08-.08.07-.25.09-.37a1.07,1.07,0,0,0-.39,0,3.92,3.92,0,0,0-.46.35l-.19.08a1,1,0,0,1,0-.21,6,6,0,0,1,.09-.84c0-.28.07-.39-.17-.44s-.26.17-.28.35Zm-2.44-1a1.33,1.33,0,0,0,1.89,1.27c.16-.08.32-.18.21-.36s-.24-.08-.37-.08a2.85,2.85,0,0,1-.73,0,.82.82,0,0,1-.51-1v0a.85.85,0,0,1,1-.59l.05,0c.15,0,.3.17.44,0s0-.33-.26-.42a1.34,1.34,0,0,0-1.78,1.25Zm8.52.09c.2,0,.42.06.42-.2s-.23-.24-.4-.26a1.3,1.3,0,0,0-1.3.87,8.17,8.17,0,0,0-.26,1.17c0,.11.06.32.14.35s.26-.12.3-.29.12-.64.2-1a.87.87,0,0,1,.91-.61Z" style="fill:#040404"/><path d="M147.22,36.92c.43,0,.86.1,1.29.12s.38.15.38.44V46c0,.4,0,.43.39.29s1-.43,1.44-.65h.14a3.18,3.18,0,0,1-1.58.86,2.66,2.66,0,0,0-.36.15,2.23,2.23,0,0,1-.44.23l-7.28,1.6a3.66,3.66,0,0,1-2.14.18.49.49,0,0,0-.3.17,2.59,2.59,0,0,0-.38,1.4c0,.93.18,1.29.87,1.58V52l-.33-.13h-.19a.73.73,0,0,0,0,.17,5.33,5.33,0,0,0,3,3.37,8.25,8.25,0,0,0,7.12-.39c.34-.2.7-.39,1-.61a6.37,6.37,0,0,0,3.07-5.61,13,13,0,0,0-.07-1.65l.08-.27c.06.93.17,1.87.18,2.8a5.07,5.07,0,0,1-1,3,.8.8,0,0,0-.17.66,3,3,0,0,1,0,.62l-.06.18.16-.07a2.77,2.77,0,0,1,2.21.07c.22.09.25.19.16.41a2.51,2.51,0,0,1-2.32,1.54,1,1,0,0,0-.85.53c-.61.9-1.18,1.83-1.85,2.69a11.36,11.36,0,0,1-4.9,4,8.62,8.62,0,0,1-6.28.08A4.67,4.67,0,0,1,136,61.75a.68.68,0,0,0-.71-.3,7.43,7.43,0,0,1-4.2-.76,5.61,5.61,0,0,1-2.7-3.36,12.85,12.85,0,0,1-.31-1.39l.11-.24a4.19,4.19,0,0,0,.13.69.56.56,0,0,0,.42.5l-.08.06c-.25,0-.13.1-.1.2A5.57,5.57,0,0,0,134,61.07h1.28c.35,0,.29-.13.13-.32h0l-.23-.47c-.1-.31-.22-.62-.31-.93a3.51,3.51,0,0,1,.34-3.28h0l.26-.08v.11a2.85,2.85,0,0,0-.35,3.13v.16l.1.29a5.57,5.57,0,0,0,5.37,3.83h1.34c.61-.11,1.23-.2,1.83-.35a8,8,0,0,0,1.09-.45,10.28,10.28,0,0,0,1-.45,12.4,12.4,0,0,0,3.56-3.39c.59-.8,1.15-1.63,1.73-2.44.23-.32.47-.62.93-.56a1.43,1.43,0,0,0,.48-.08,2.65,2.65,0,0,0,1.73-1.16c.13-.2.16-.32-.12-.4a2.55,2.55,0,0,0-2.27.2h-.16c.05-.3.11-.6.15-.91a.72.72,0,0,0-.06-.25l-.2.14c-.34.31-.66.64-1,.94s-.44.35-.19.86h-.11a.76.76,0,0,1-.15-.16c-.13-.29-.31-.24-.51-.08l-.11.07-.57.36.68,0v.11h-.8a3.63,3.63,0,0,0-.6.08c-.76.18-1.52.45-2.29.56a7.49,7.49,0,0,1-4.56-.71.71.71,0,0,0-.45,0,9,9,0,0,1-4.07.1,1.22,1.22,0,0,0-.56.06c-.28.08-.54.2-.81.3l.53-.36.18-.12-.21-.12c-.35-.16-.7-.33-1.06-.47a1.42,1.42,0,0,0-.58-.11,7.5,7.5,0,0,1-4.95-1.15c-.09-.06-.24,0-.36-.06v-.11a2.16,2.16,0,0,0-.2-.31A6.52,6.52,0,0,1,127,48.5a2,2,0,0,1,1.44-2c1.07-.34,2.16-.62,3.26-.89.27-.07.33-.15.32-.4,0-.92,0-1.84-.08-2.76,0-.32.1-.45.4-.5,1.2-.2,2.4-.44,3.6-.63.26,0,.3-.14.3-.37q0-1.76.06-3.53c0-.42,0-.42.45-.43h.08l-.14.18c-.23,0-.26.07-.26.27V41a1.59,1.59,0,0,0,.08.34v.1a9.1,9.1,0,0,0-1.28.13c-.85.12-1.7.26-2.56.4l-.28.18c-.25,0-.19.17-.19.31V46.6c0,.23.09.3.3.34.47.08.93.19,1.4.29,1.92.44,3.83.87,5.74,1.33.34.08.33,0,.32-.29V44.65c0-.34.12-.78,0-1s-.63-.18-1-.25l-.35-.07h-.1V43.2a5.06,5.06,0,0,0,3.13,0h.22l2-.41.15-.08h-.16l-.79-.12.08-.12h.72l.25,0c.16,0,.29,0,.27-.22s0-.54,0-.8q0-1.81.08-3.61V37.8h.26l3.05-.52.34-.08-.34-.08h-.43Zm-14.69,14.4h0a.43.43,0,0,0,0,.16,5.38,5.38,0,0,0,2,2.85,7.7,7.7,0,0,0,5.93.91c.19,0,.12-.11,0-.19a6.48,6.48,0,0,1-2.2-3.93c-.05-.28-.14-.32-.36-.17h-.12a7.61,7.61,0,0,1-4,.67l.22-.09h.51a9.47,9.47,0,0,0,3.66-.91.06.06,0,0,0,.06-.06,3.23,3.23,0,0,1,.38-1.84s-.06-.15-.11-.16l-2-.43c-.57-.15-1.16-.27-1.72-.46a1.91,1.91,0,0,0-1.78.12h-.08l.4-.29.11-.13h-.12l-1.2-.25a1.33,1.33,0,0,1-.17-.37,3.85,3.85,0,0,1,0-.71c0-.24-.06-.31-.31-.27a14.72,14.72,0,0,0-3.54,1,1.75,1.75,0,0,0-.69.66,2.92,2.92,0,0,0-.3,1.9,1.07,1.07,0,0,0,.9,1,6.82,6.82,0,0,0,3.65-.13.43.43,0,0,0,.39-.47v-.05a2.22,2.22,0,0,1,.8-1.9h.1a2.73,2.73,0,0,0-.72,2.26,1.2,1.2,0,0,0,.35,1q.35.27,0,.09l-.06.08ZM145.6,37.8h-.09c-.24,0-.47.07-.71.08s-.27.11-.27.31c0,1.35,0,2.71-.07,4.06-.1.37.13.31.35.27l2.95-.52c.28,0,.67,0,.8-.17s.08-.56.08-.85V37.54c0-.22,0-.38-.29-.2Zm-1.18,9.67s.1.08.14.07l3.93-.86c.23,0,.23-.18.22-.35q0-1.34-.07-2.68v-1.3c0-.17,0-.24-.23-.21l-3.74.65c-.22,0-.25.14-.24.33s.08.4-.17.5V43.3c0-.45,0-.45-.44-.36-1.15.23-2.3.46-3.45.67-.25,0-.36.12-.36.39v4.38c0,.23.06.27.28.22l3.68-.9a1.91,1.91,0,0,0,.41-.22h0Zm-11.1,7h.54l.2,0a1,1,0,0,0-.11-.17,6.82,6.82,0,0,1-1.86-3.55c-.09-.4-.08-.4-.46-.29a5.73,5.73,0,0,1-4.14-.08h-.12a.51.51,0,0,0,0,.16,5.68,5.68,0,0,0,2.14,3,7.05,7.05,0,0,0,3.81,1Z" style="fill:#0f1417"/><path d="M139.24,30.94c0,1.1-.07,2.21-.1,3.31,0,.21,0,.32-.29.33a4,4,0,0,0-.84.13c-.26.07-.36,0-.46-.25-.32-.85-.68-1.69-1-2.53a2,2,0,0,0-.15-.26,1.57,1.57,0,0,0-.09.32c-.07.94-.13,1.87-.18,2.81,0,.23-.07.35-.31.4a5,5,0,0,0-.85.26c-.21.08-.31.07-.4-.16-.49-1.22-1-2.42-1.48-3.64-.29-.76-.51-1.56-.77-2.33-.07-.2,0-.29.17-.35l1.06-.32c.15.32.3.64.44,1,.34.81.67,1.62,1,2.44a.94.94,0,0,0,.12.17,1,1,0,0,0,.07-.2c.08-.67.17-1.33.23-2a.46.46,0,0,1,.41-.48c.88-.2.88-.22,1.25.61l.71,1.59.11.17a1.07,1.07,0,0,0,0-.2c.05-1.27.11-2.53.15-3.8,0-.29.09-.43.39-.45a7.48,7.48,0,0,0,.78-.13V31Z" style="fill:#008bcb"/><path d="M151.17,28.76l.3.07c.79.12.76.12.84.92.09,1,.24,1.89.36,2.83a.69.69,0,0,0,.08.18l.16-.14,2.25-2.36a1.12,1.12,0,0,1,1.27-.09.3.3,0,0,1,.06.26q-.93,3.38-1.89,6.75c-.11.4-.14.39-.56.27l-.78-.21c-.23,0-.28-.14-.18-.38q.71-1.81,1.38-3.63a5.69,5.69,0,0,0,.16-.59,4.6,4.6,0,0,0-.51.37c-.56.53-1.11,1.08-1.67,1.62-.26.25-.31.24-.39-.1-.19-.83-.36-1.66-.55-2.48a.26.26,0,0,0-.06-.2c-.06-.07-.1.1-.11.16-.28,1.36-.57,2.71-.82,4.07-.05.29-.12.39-.42.29a4.15,4.15,0,0,0-.79-.15c-.25,0-.29-.14-.23-.38.33-1.28.62-2.58,1-3.86.25-1,.54-2,.82-2.92C150.91,28.89,151,28.7,151.17,28.76Z" style="fill:#6b97a4"/><path d="M145,35c-.25,0-.58,0-.72-.14s0-.47,0-.71c.1-.91.23-1.83.33-2.74.08-.69.13-1.39.2-2.09,0-.43.08-.86.1-1.29a.34.34,0,0,1,.27-.35,3.94,3.94,0,0,1,4.64,1.53,1.47,1.47,0,0,1-.27,2.06l-.18.12a4.21,4.21,0,0,1-1.61.62c-.41.09-.43.1-.33.51l.55,2.25c.11.47.11.48-.37.46-1,0-.79.16-1-.82-.15-.68-.3-1.36-.46-2,0-.09-.11-.16-.16-.23a1.08,1.08,0,0,0-.1.26c-.06.59-.11,1.18-.17,1.77v.36c0,.46-.05.46-.51.45H145Zm1-4.52c0,.27-.12.61.28.62a3.09,3.09,0,0,0,1.79-.41.75.75,0,0,0,.25-1.18,2.27,2.27,0,0,0-1.94-.88c-.07,0-.18.13-.19.22a7.78,7.78,0,0,0-.19,1.67Z" style="fill:#9ba9c2"/><path d="M129.82,29.45a1.29,1.29,0,0,1,.36,0c.35.12.8.18,1,.44s0,.64,0,1-.09.22-.26.12a1.43,1.43,0,0,0-1.28-.2,1.6,1.6,0,0,0-1,.91.51.51,0,0,0,.19.7l.13.05a3.69,3.69,0,0,0,.88.14,10.46,10.46,0,0,1,1.56.08,2.77,2.77,0,0,1,1.36.52,1.71,1.71,0,0,1,.54,2.36l-.08.11a3.19,3.19,0,0,1-3,1.35,3.25,3.25,0,0,1-1.47-.48.41.41,0,0,1-.25-.47V36l.1-.74a3.88,3.88,0,0,0,.68.19,7.09,7.09,0,0,0,1.37,0,1.85,1.85,0,0,0,.75-.36.65.65,0,0,0,.29-.74.66.66,0,0,0-.6-.47,7.52,7.52,0,0,1-1.06,0,11.78,11.78,0,0,1-1.69-.07,1.66,1.66,0,0,1-1.24-2.46A3.18,3.18,0,0,1,129.82,29.45Z" style="fill:#858588"/><path d="M142,27.86c.82,0,.82,0,.95.83q.45,3,.89,6.05c.06.4,0,.4-.34.37-.9-.06-.9-.06-1-1a7.25,7.25,0,0,0-.09-.8c0-.27-.07-.19-.23-.18-1.07,0-1.07,0-1.31,1-.15.66-.15.66-.81.66s-.55,0-.43-.51l1.4-6c.14-.58.13-.58.73-.57Zm-.21,4.3h.13c.32,0,.38-.08.34-.39-.09-.76-.14-1.53-.21-2.3a1.6,1.6,0,0,0,0-.16.87.87,0,0,0-.07.16c-.19.84-.37,1.68-.56,2.52,0,.17,0,.22.17.2Z" style="fill:#032a52"/><path d="M151.05,25.58l.58-3.08a.77.77,0,0,1,.07-.39v-.06h-.06a.92.92,0,0,0-.14-.29c-.4-.39-.81-.79-1.24-1.15a11.86,11.86,0,0,0-1.13-.79,21.53,21.53,0,0,1,5.5,2.18c.47.26.91.56,1.36.85a.8.8,0,0,1,.15.18.83.83,0,0,1-.19.1l-2.89.59H153c-.33.06-.31,0-.14.36.4.75.78,1.51,1.17,2.26a1.13,1.13,0,0,1,.06.29,1.23,1.23,0,0,1-.29,0Z" style="fill:#012951"/><path d="M132.53,22.93l.31,1.61.23,1.17-2.82.84h-.34a1.51,1.51,0,0,1,.11-.28l1.38-2.18c.19-.3.19-.28-.14-.42-.74-.3-1.48-.61-2.21-.94-.29-.13-.28-.18,0-.33a17.38,17.38,0,0,1,5.75-2.09h.13l-.25.18A5.66,5.66,0,0,0,132.53,22.93Z" style="fill:#012951"/><path d="M149.19,19.81c.38.26.77.5,1.13.79s.84.76,1.24,1.15a.92.92,0,0,1,.14.29l-2.19-.66-.76-.24a8.34,8.34,0,0,1,.11-1.11C148.87,19.87,148.92,19.65,149.19,19.81Z" style="fill:#9ba9c2"/><path d="M132.53,22.93a5.66,5.66,0,0,1,2.08-2.41l.25-.18c.18-.15.24-.06.27.13l.18,1.18-2.57,1.22Z" style="fill:#9ba9c2"/><path d="M149.72,41.54a.64.64,0,0,1,.23,0,2.62,2.62,0,0,1,1.73,1.22c.15.27.19.14.28,0a2.76,2.76,0,0,1,1.83-1.3.15.15,0,0,1,.13.08l-.08.1h-.09a2.51,2.51,0,0,0-1.8,1.62,1.34,1.34,0,0,1-.12.23,1.32,1.32,0,0,0-.07-.21,2.59,2.59,0,0,0-2-1.54Z" style="fill:#181c23"/><path d="M153.83,41.57l.08-.1a2.43,2.43,0,0,1-.59,2.76,5.65,5.65,0,0,1-.58.47h-.1a2.21,2.21,0,0,1,.25-.39A2.83,2.83,0,0,0,153.83,41.57Z" style="fill:#0f1417"/><path d="M151.25,44.87a1.51,1.51,0,0,1-1.34-1,3.16,3.16,0,0,1-.26-2h.05v.31a2.5,2.5,0,0,0,1.61,2.56Z" style="fill:#0f1417"/><path d="M136.71,37h-.08c.51-.08,1-.18,1.53-.22.9-.08,1.8-.13,2.71-.2l-.37.14L137,37Z" style="fill:#181c23"/><path d="M147.22,36.92v.15l-3.76-.27.08-.13Z" style="fill:#181c23"/><path d="M128.94,53.47v.11a3.1,3.1,0,0,0-.5.76,10.06,10.06,0,0,0-.23,1.37l-.11.24A2.34,2.34,0,0,1,128.94,53.47Z" style="fill:#181c23"/><path d="M143.54,36.66l-.08.13-1.7-.09-.09-.13Z" style="fill:#10262d"/><path d="M152.94,46.84l-.08.27-.17-1.26h.13v.07Z" style="fill:#10262d"/><path d="M141.66,36.57l.09.13H140.5l.37-.14Z" style="fill:#032a52"/><path d="M151.25,44.87l.08-.08v.3a4,4,0,0,1-.47.61h-.14Z" style="fill:#10262d"/><path d="M152.64,44.7h.1v.68l-.08.29Z" style="fill:#272a84"/><path d="M152.67,45.68l.08-.29v.45h-.1Z" style="fill:#040404"/><path d="M149.7,41.92h-.05l.07-.38v.12Z" style="fill:#10262d"/><path d="M152.84,46v-.07h0V46Z" style="fill:#858588"/><path d="M135.94,23h.34c.31.06.31.06.23-.27a2.69,2.69,0,0,1-.12-.52c0-.09.1-.19.15-.28s.25.09.27.17a20,20,0,0,1,.56,2.25,1.28,1.28,0,0,1-1.16,1.31,1.31,1.31,0,0,1-1.45-.92,1.28,1.28,0,0,1,.63-1.59A3.85,3.85,0,0,1,135.94,23Zm1,1.37a.92.92,0,0,0-.88-.89.89.89,0,0,0,0,1.77.91.91,0,0,0,.84-.88Z" style="fill:#f0f0f0"/><path d="M139.07,22.36a1.34,1.34,0,1,1-1.39,1.29v0A1.29,1.29,0,0,1,139,22.36Zm-.06.46a.85.85,0,0,0-.86.84s0,0,0,0a.88.88,0,1,0,1.75,0,.87.87,0,0,0-.86-.88h0Z" style="fill:#f0f0f0"/><path d="M146.31,25a1.34,1.34,0,1,1,1.32-1.78c.1.28,0,.41-.26.51l-1.36.55a.52.52,0,0,0-.12.1l.13.08.43.06c.15,0,.32,0,.33.2s-.17.25-.34.27Zm-.85-1.33c0,.18,0,.35.31.22s.79-.34,1.19-.49c.18-.07.2-.13.08-.28a.87.87,0,0,0-1-.28.9.9,0,0,0-.58.82Z" style="fill:#f0f0f0"/><path d="M143.13,24.28l.3-2.75c0-.18,0-.4.28-.35s.19.25.17.44-.07.56-.09.84a1,1,0,0,0,0,.21l.19-.08a3.92,3.92,0,0,1,.46-.35,1.07,1.07,0,0,1,.39,0c0,.13,0,.3-.09.37a7.56,7.56,0,0,1-.79.66c-.15.11-.14.18,0,.31s.41.51.62.76.2.31,0,.41-.27,0-.36-.12a4.49,4.49,0,0,1-.41-.47l-.13-.1a1.14,1.14,0,0,0-.06.15v.17s-.16.29-.25.29S143.11,24.45,143.13,24.28Z" style="fill:#f0f0f0"/><path d="M140.68,23.31a1.34,1.34,0,0,1,1.78-1.25c.25.09.37.27.26.42s-.28.06-.44,0a.85.85,0,0,0-1.08.52l0,.05a.82.82,0,0,0,.48,1.05h0a2.85,2.85,0,0,0,.73,0c.13,0,.33,0,.37.08s-.05.29-.21.36a1.33,1.33,0,0,1-1.89-1.24Z" style="fill:#f0f0f0"/><path d="M149.21,23.4a.87.87,0,0,0-.89.69c-.08.32-.13.64-.2,1,0,.17-.09.36-.3.29s-.16-.24-.14-.35a8.17,8.17,0,0,1,.26-1.17,1.3,1.3,0,0,1,1.3-.87c.17,0,.4,0,.4.26S149.41,23.42,149.21,23.4Z" style="fill:#f0f0f0"/><path d="M151.69,22h.06v.06A.11.11,0,0,1,151.69,22Z" style="fill:#9ba9c2"/><path d="M149.7,41.92v-.26a2.59,2.59,0,0,1,2,1.54,1.32,1.32,0,0,1,.07.21,1.34,1.34,0,0,0,.12-.23,2.51,2.51,0,0,1,1.8-1.62h.09a2.83,2.83,0,0,1-.94,2.74,2.21,2.21,0,0,0-.25.39v1.18l.17,1.26c0,.55.07,1.1.07,1.65a6.37,6.37,0,0,1-3.07,5.61c-.33.22-.69.41-1,.61,0,0-.05,0-.07,0a3.4,3.4,0,0,1-1.75-.12,2,2,0,0,1-1.4-1.21,5.06,5.06,0,0,1-.2-2.76s-.09-.09-.11-.08l-.35.19a7.78,7.78,0,0,1-5.7,1c-.69-.29-.9-.65-.87-1.58a2.59,2.59,0,0,1,.38-1.4c.06-.09.23-.2.3-.17a3.66,3.66,0,0,0,2.14-.18l7.28-1.6a2.23,2.23,0,0,0,.44-.23,2.66,2.66,0,0,1,.36-.15,3.18,3.18,0,0,0,1.58-.86c.16-.2.33-.4.47-.61s0-.2,0-.3a2.5,2.5,0,0,1-1.61-2.56A.85.85,0,0,0,149.7,41.92Zm-2.12,7.15c-.29-.18-.55,0-.81.09a1.27,1.27,0,0,0-.87,1.08h-.06a1.12,1.12,0,0,0,.78,1.35,1.52,1.52,0,0,0,1.6-.39,1.16,1.16,0,0,0,.14-1.63l-.14-.14Z" style="fill:#6ca4ff"/><path d="M150.3,55.23c-.25-.51-.24-.5.19-.86s.67-.62,1-.94l.2-.14a.72.72,0,0,1,.06.25,5.76,5.76,0,0,1-.15.91l-.06,0h0v-.06h.16a2.55,2.55,0,0,1,2.27-.2c.29.08.25.2.12.4a2.65,2.65,0,0,1-1.73,1.16,1.43,1.43,0,0,1-.48.08c-.47-.06-.71.24-.93.56-.58.81-1.14,1.64-1.73,2.44a12.4,12.4,0,0,1-3.56,3.39,10.28,10.28,0,0,1-1,.45,12.83,12.83,0,0,1-1.48-.29,2.13,2.13,0,0,1-1.62-2v-2l.06-.11a.5.5,0,0,0-.18,0c-.57.26-1.12.56-1.7.77a6.2,6.2,0,0,1-4.81.08,2.85,2.85,0,0,1,.35-3.13v-.11h0c.27-.1.54-.22.81-.3a1.22,1.22,0,0,1,.56-.06,9,9,0,0,0,4.07-.1.71.71,0,0,1,.45,0,7.49,7.49,0,0,0,4.56.71,23.15,23.15,0,0,0,2.29-.56,3.63,3.63,0,0,1,.6-.08h.8c.23,0,.49,0,.63-.26h.18v0Zm-8.1,2.49a.93.93,0,0,0,.13,1,1.49,1.49,0,0,0,2,.22,1.2,1.2,0,0,0,.29-1.82,1.16,1.16,0,0,0-1.48-.39,1.53,1.53,0,0,0-1,1S142.19,57.7,142.2,57.72Z" style="fill:#6ca4ff"/><path d="M138.79,43.42c.33.07.79,0,1,.25s0,.65,0,1v3.62c0,.25,0,.37-.32.29-1.91-.46-3.83-.89-5.74-1.33-.46-.11-.93-.21-1.4-.29-.22,0-.3-.1-.3-.34V42.51c0-.13-.06-.32.19-.31l.17.06,5.92,1.09h.1Z" style="fill:#00c9ff"/><path d="M143.73,42.49H143l-.81-.1H142l-.21-.07-5-.76c-.36-.34-.36-.34-.36-1V38.11c0-.6,0-.6.56-.69h.07l.7.06,1.16.1.63.07h.53l.72.07H143l.32,0h1q0,1.81-.08,3.61v.8c0,.26-.11.24-.27.22Z" style="fill:#00c9ff"/><path d="M145.4,50.83a5.06,5.06,0,0,0,.2,2.76A2,2,0,0,0,147,54.8a3.4,3.4,0,0,0,1.75.12h.07a8.25,8.25,0,0,1-7.12.39,5.33,5.33,0,0,1-3-3.37.73.73,0,0,1,0-.17h.19l.33.13,1,.25c-.06,0-.19.12,0,.13h1.1a.46.46,0,0,0,.15-.06l-.21,0,.69-.11A9.76,9.76,0,0,0,145.4,50.83Z" style="fill:#cbdffb"/><path d="M141.67,58.46c0,.66-.05,1.33,0,2a2.13,2.13,0,0,0,1.62,2,12.83,12.83,0,0,0,1.48.29,8,8,0,0,1-1.09.45c-.6.15-1.22.24-1.83.35H140.5a5.57,5.57,0,0,1-5.37-3.83l-.1-.29h.09a5.1,5.1,0,0,0,3.4.31A10.11,10.11,0,0,0,141.67,58.46Z" style="fill:#cbdffb"/><path d="M133.78,51.66a7.61,7.61,0,0,0,4-.67h.12c.22-.15.31-.1.36.17a6.48,6.48,0,0,0,2.2,3.93c.1.08.17.15,0,.19a7.7,7.7,0,0,1-5.93-.91,5.38,5.38,0,0,1-2-2.85.43.43,0,0,1,0-.16Z" style="fill:#ccdefa"/><path d="M132.79,47.81a2.22,2.22,0,0,0-.8,1.9.43.43,0,0,1-.33.51h-.05a6.82,6.82,0,0,1-3.65.13,1.07,1.07,0,0,1-.9-1,2.92,2.92,0,0,1,.3-1.9,1.75,1.75,0,0,1,.69-.66,14.72,14.72,0,0,1,3.54-1c.25,0,.32,0,.31.27a3.85,3.85,0,0,0,0,.71,1.33,1.33,0,0,0,.17.37Z" style="fill:#6ca4ff"/><path d="M134,61.07a5.57,5.57,0,0,1-5.38-3.91c0-.1-.15-.24.1-.2a3.61,3.61,0,0,0,1.83.45,7.7,7.7,0,0,0,3.08-.62c.53-.21,1-.48,1.56-.73a3.51,3.51,0,0,0-.34,3.28c.09.31.2.62.31.93a.32.32,0,0,0,.13.43l.1,0h0c-.08.21-.24.21-.43.22A6.42,6.42,0,0,0,134,61.07Z" style="fill:#cddffb"/><path d="M138.17,50.67a9.47,9.47,0,0,1-3.66.91H134l-1.47-.42c-.34-.27-.3-.69-.35-1a2.73,2.73,0,0,1,.72-2.26H133a1.91,1.91,0,0,1,1.78-.12c.56.18,1.14.31,1.72.46l.52.4C137.66,49.12,138.33,49.66,138.17,50.67Z" style="fill:#6ca4ff"/><path d="M128.22,55.71a10.06,10.06,0,0,1,.23-1.37,3.1,3.1,0,0,1,.5-.76.7.7,0,0,1,.36.06,7.5,7.5,0,0,0,4.95,1.15,1.42,1.42,0,0,1,.58.11c.36.14.71.31,1.06.47l.21.12-.18.12-.53.36h0l-.26.08c0-.09.11-.23-.11-.12-.49.24-1,.52-1.49.71a6.54,6.54,0,0,1-4.78.26.56.56,0,0,1-.42-.5C128.31,56.17,128.26,55.94,128.22,55.71Z" style="fill:#6ca4fd"/><path d="M133.32,54.44a7.05,7.05,0,0,1-3.82-1.06,5.68,5.68,0,0,1-2.14-3,.51.51,0,0,1,0-.16h.12a5.73,5.73,0,0,0,4.14.08c.39-.11.37-.11.46.29a6.82,6.82,0,0,0,1.86,3.55,1,1,0,0,1,.11.17l-.2,0Z" style="fill:#ccdefa"/><path d="M144.34,47.47a1.91,1.91,0,0,1-.41.22l-3.68.9c-.22.06-.29,0-.28-.22V44c0-.27.11-.35.36-.39,1.15-.21,2.3-.44,3.45-.67.44-.09.44-.09.44.36v.31h0v1.93a.57.57,0,0,0-.08.19v1.46a.54.54,0,0,0,.1.22h.07Zm-3.67.73.12-.07h-.37V44.38c0-.34.24-.27.41-.34a2.43,2.43,0,0,1,.12.32,1.18,1.18,0,0,1,0,.27v3.26s-.11.25.12.15h.37c.57,0,.59-.06.59-.63V44.33c0-.8.15-.7-.71-.53h-.08l-.18.07h-.44a.28.28,0,0,0-.29.32V48c0,.08.11.16.17.24Zm1.62-4.58a1.12,1.12,0,0,0-.09.28v3.65c0,.06-.14.29.13.2h.14V44.37a5.08,5.08,0,0,1,.09-.65c.29-.07.27.14.27.32v3.35c0,.12-.12.32.14.34l.17-.07h.44a.34.34,0,0,0,.32-.36V43.69c0-.31-.1-.37-.38-.25l-.1.08h.12c.19,0,.27,0,.27.25v3.44c0,.31-.23.25-.39.3a.57.57,0,0,1-.13-.29V44a2,2,0,0,0-.1-.44H143l-.69.17Z" style="fill:#008bcd"/><path d="M142.92,42.51l.79.12h.16l-.15.08-2,.41h-.22a5.06,5.06,0,0,1-3.13,0h-.22l-5.34-1a1,1,0,0,1-.27-.15l2.56-.4c.43-.06.86-.09,1.28-.13l5.38.87.43.06Z" style="fill:#6bddfa"/><path d="M140.5,36.7h1.25l1.7.09,3.76.27h.35l.09.14-3.05.52h-.26c-.74-.07-1.48-.15-2.22-.21l-4.33-.32-.73-.06V37Z" style="fill:#6bddfa"/><path d="M144.26,44.2V44c.22-.14.22-.23,0-.37h0c.26-.09.17-.32.17-.5s0-.3.24-.33l3.74-.65c.19,0,.23,0,.23.21v1.3q0,1.34.07,2.68c0,.17,0,.3-.22.35l-3.93.86a.17.17,0,0,1-.14-.07v-3C144.43,44.34,144.32,44.27,144.26,44.2Zm1.25-1.2h-.22c-.54,0-.57.07-.58.61v3.13c0,.52.11.59.61.39l.2-.1h.33c.55,0,.58-.06.58-.6V43.22c0-.4-.09-.48-.47-.37a1.76,1.76,0,0,0-.31.16Zm1.08,1.74h0v1.79c0,.1,0,.26.11.3a.57.57,0,0,0,.69-.39V42.91c0-.08-.05-.23-.08-.23a2.21,2.21,0,0,0-.6.08c-.06,0-.11.19-.11.29C146.58,43.6,146.59,44.17,146.59,44.74Zm1.78-.21h0V42.79c0-.16,0-.34-.23-.33s-.56.13-.56.34v3.61a.29.29,0,0,0,.09.22c.21.13.71-.17.71-.41,0-.57,0-1.13,0-1.7Z" style="fill:#0091d2"/><path d="M148.36,37.37c.27-.18.29,0,.29.2V41c0,.29.07.67-.08.85s-.53.12-.8.17l-2.95.52c-.21,0-.45.1-.35-.27h.34l.55-.14h.28l.77-.11c.13.18.17.07.19-.07h.13l.35,0a1.17,1.17,0,0,1-.24-.15.31.31,0,0,1-.06-.2V38.25c0-.25.18-.24.33-.27s.13.17.13.26v3.31a.64.64,0,0,0,.09.21l.08-.23h0V37.72l.29-.09a1.28,1.28,0,0,0-.1.33v3.49c0,.08,0,.24.06.24a1.39,1.39,0,0,0,.56,0c.09,0,.18-.22.18-.34v-3.8Z" style="fill:#0091d2"/><path d="M138.17,50.67c.17-1-.51-1.55-1.18-2.09l-.52-.4,2,.43s.12.14.11.16a3.23,3.23,0,0,0-.38,1.84A.15.15,0,0,1,138.17,50.67Z" style="fill:#3676cb"/><path d="M145.4,50.83a9.76,9.76,0,0,1-3.4,1.34l-.69.11h-1l-1-.25V51.9a7.78,7.78,0,0,0,5.7-1l.35-.19C145.48,50.7,145.37,50.8,145.4,50.83Z" style="fill:#181c23"/><path d="M141.67,58.46a10.11,10.11,0,0,1-3.14,1.22,5.1,5.1,0,0,1-3.4-.31H135v-.16a6.2,6.2,0,0,0,4.81-.08c.58-.21,1.13-.52,1.7-.77a.5.5,0,0,1,.18,0Z" style="fill:#181c23"/><path d="M128.76,56.9a6.54,6.54,0,0,0,4.78-.26,14.48,14.48,0,0,0,1.49-.71c.21-.1.13,0,.11.12h0c-.52.24-1,.51-1.56.73a7.7,7.7,0,0,1-3.08.62,3.61,3.61,0,0,1-1.83-.45Z" style="fill:#181c23"/><path d="M144.72,42.27h-.26c0-1.35.05-2.71.07-4.06,0-.2.06-.3.27-.31s.47,0,.71-.08v.24h-.3c-.47,0-.51,0-.51.51v1.19Z" style="fill:#00a4e1"/><path d="M132.54,42a1,1,0,0,0,.27.15l5.34,1h.22v.13l-5.92-1.09-.17-.06Z" style="fill:#181c23"/><path d="M148.36,37.37v.17l-.7.1-.29.09c-.79.09-.79.09-.8.88s0,1.31,0,2h-.14V38.89a3.32,3.32,0,0,0-.06-.83c0-.19-.09,0-.12,0h-.15c-.05,0-.1-.13-.16-.13a1.18,1.18,0,0,0-.3,0l-.09-.19Z" style="fill:#00a4e1"/><path d="M141.76,42.35l-5.38-.87v-.1l.45.07,5,.76.21.07Z" style="fill:#10262d"/><path d="M137.8,37.21l4.33.32,2.22.21a.58.58,0,0,0,0,.06v.11h-1.07l-.32,0h-2.1l-.72-.07h-.53l-.63-.07-1.16-.1Z" style="fill:#181c23"/><path d="M136.83,41.45l-.45-.07a1.59,1.59,0,0,1-.08-.34V37.45c0-.2,0-.32.26-.27l.54.1H137c-.56.09-.56.09-.56.69v2.45C136.46,41.11,136.46,41.11,136.83,41.45Z" style="fill:#00c2db"/><path d="M144.26,44.2c.06.07.17.15.17.22v3h-.15V45.59Z" style="fill:#10262d"/><path d="M149.54,55.5l-.68,0,.57-.36.11-.07c.2-.16.38-.21.51.08a.76.76,0,0,0,.15.16v.09h0Z" style="fill:#f0f0f0"/><path d="M132.79,47.81l-.71-.69,1.2.25h.12l-.11.13-.4.29h0Z" style="fill:#3676cb"/><path d="M134,61.07c.33,0,.65-.07,1-.08s.35,0,.43-.22c.16.19.22.33-.13.32Z" style="fill:#ccdefa"/><path d="M132.53,51.15l1.47.42-.22.09-1.26-.35h0v-.09A.36.36,0,0,0,132.53,51.15Z" style="fill:#10262d"/><path d="M137.1,37.27l-.54-.1.14-.18H137v.12l.73.06v.13Z" style="fill:#272a84"/><path d="M142.92,42.51l-.73-.11v-.12l.81.1Z" style="fill:#10262d"/><path d="M149.54,55.5l.64-.15c-.14.26-.41.21-.63.26Z" style="fill:#10262d"/><path d="M135.35,60.75a.32.32,0,0,1-.23-.47Z" style="fill:#ccdefa"/><path d="M147.66,37.24l-.09-.14h.08l.34.08Z" style="fill:#6b97a4"/><path d="M145.6,37.8l.09.19-.18.07v-.24Z" style="fill:#0091d2"/><path d="M138.79,43.42l-.35-.07Z" style="fill:#181c23"/><path d="M152,54.08l-.16.07.06-.18Z" style="fill:#fdfdfd"/><path d="M144.35,37.8a.58.58,0,0,1,0-.06h.26Z" style="fill:#10262d"/><path d="M143.73,42.49l.25,0Z" style="fill:#10262d"/><path d="M132.53,51.24v.09h-.07Z" style="fill:#ccdefa"/><path d="M150.17,55.35v-.09h.11v.09Z" style="fill:#10262d"/><path d="M136.9,24.37a.91.91,0,0,1-.89.88.89.89,0,0,1,0-1.77A.92.92,0,0,1,136.9,24.37Z" style="fill:#040404"/><path d="M139,22.82a.87.87,0,0,1,.89.85h0a.88.88,0,1,1-1.75,0,.85.85,0,0,1,.84-.86Z" style="fill:#040404"/><path d="M145.46,23.66a.9.9,0,0,1,.58-.83.87.87,0,0,1,1,.28c.12.15.1.21-.08.28-.4.15-.8.31-1.19.49S145.47,23.85,145.46,23.66Z" style="fill:#040404"/><path d="M145.9,50.24a1.27,1.27,0,0,1,.87-1.08l.34.09a.67.67,0,0,1,.55.77v0a1.13,1.13,0,0,1-.89.78c-.41.07-.62-.17-.79-.49Z" style="fill:#040404"/><path d="M148.19,51.19a1.52,1.52,0,0,1-1.6.39,1.12,1.12,0,0,1-.78-1.35h.06v.45a.86.86,0,0,0,.64.71,1.56,1.56,0,0,0,1.49-.28Z" style="fill:#181c23"/><path d="M148.21,49.43a1.16,1.16,0,0,1,.14,1.63l-.14.14-.1-.08c.5-.67.51-1,.06-1.62Z" style="fill:#181c23"/><path d="M147.1,49.25l-.34-.09c.26-.13.52-.27.81-.09l-.12.07Z" style="fill:#272a84"/><path d="M147.46,49.14l.12-.07.63.36-.07.07Z" style="fill:#181c23"/><path d="M146,50.69v-.45h0l.06.13Z" style="fill:#9ba9c2"/><path d="M142.22,57.68a1.53,1.53,0,0,1,1-1l.25.09c.45.19.6.4.56.79a1,1,0,0,1-.83.82c-.4.08-.59,0-.8-.44Z" style="fill:#040404"/><path d="M144.67,57.09a1.2,1.2,0,0,1-.12,1.69l-.17.13a1.49,1.49,0,0,1-2-.22.93.93,0,0,1-.13-1l.07.32a1,1,0,0,0,.88,1,1.44,1.44,0,0,0,1.43-.53,1.11,1.11,0,0,0,0-1.33Z" style="fill:#10262d"/><path d="M143.44,56.78l-.25-.09a1.16,1.16,0,0,1,1.48.39l-.07.06a1.32,1.32,0,0,0-.3-.25C144,56.78,143.77,56.54,143.44,56.78Z" style="fill:#10262d"/><path d="M142.28,58l-.07-.32h0l.15.27Z" style="fill:#858588"/><path d="M151.6,54.45v.06h0l.06,0Z" style="fill:#0f1417"/><path d="M140.13,37.53l.72.07Z" style="fill:#10262d"/><path d="M139,37.44l.63.07Z" style="fill:#10262d"/><path d="M142.2,42.29v.12l-.43-.06.27-.08Z" style="fill:#040404"/><path d="M143,37.72l.32,0Z" style="fill:#10262d"/><path d="M140.23,52.25h1l.21,0a.46.46,0,0,1-.15.06h-1.1C140,52.37,140.17,52.3,140.23,52.25Z" style="fill:#f7f6f6"/><path d="M141.22,43.8h.08c.86-.17.71-.27.71.53v3.08c0,.58,0,.6-.59.63h-.22Zm.62,2h0V44a.68.68,0,0,0-.11-.25,2.44,2.44,0,0,0-.33.23c-.1.09,0,.09,0,.13v3.48a.73.73,0,0,0,.11.25,1.58,1.58,0,0,0,.33-.23v-.26q0-.75,0-1.53Z" style="fill:#184295"/><path d="M143.17,43.44a2,2,0,0,1,.1.44v3.26a.57.57,0,0,0,.13.29c.16,0,.4,0,.39-.3V43.69c0-.2-.08-.27-.27-.25h-.12l.1-.08c.27-.12.38-.06.38.25v3.58a.34.34,0,0,1-.29.39h-.47Z" style="fill:#272a84"/><path d="M140.49,48.27c-.06-.08-.17-.16-.17-.24v-3.8c0-.22.12-.29.29-.32h.44a3.14,3.14,0,0,1,0,.35V48c-.23.1-.12-.11-.12-.15V44.63a1.18,1.18,0,0,0,0-.27,2.43,2.43,0,0,0-.12-.32c-.17.07-.42,0-.41.34v3.75Z" style="fill:#272a84"/><path d="M143.17,43.44v4.13l-.17.07V43.45Z" style="fill:#00a4e1"/><path d="M142.56,43.62a5.08,5.08,0,0,0-.09.65v3.47h-.11V43.62h.2Z" style="fill:#0086ca"/><path d="M141.07,48V44.22a3.14,3.14,0,0,0,0-.35l.18-.07V48Z" style="fill:#00a4e1"/><path d="M142.56,43.62h-.27l.69-.17v4.19c-.26,0-.14-.23-.14-.34V44C142.82,43.76,142.85,43.56,142.56,43.62Z" style="fill:#272a84"/><path d="M142.29,43.61v4.12c-.27.09-.13-.14-.13-.2V43.88A1.12,1.12,0,0,1,142.29,43.61Z" style="fill:#272a84"/><path d="M144.26,45.59v1.88c0-.07-.1-.15-.1-.22V45.79A.57.57,0,0,1,144.26,45.59Z" style="fill:#00a4e1"/><path d="M140.49,48.27l-.06-.18h.26v.1Z" style="fill:#0086ca"/><path d="M144.26,43.66c.22.13.22.22,0,.37Z" style="fill:#0f1417"/><path d="M142.44,47.74v-.09h.2Z" style="fill:#272a84"/><path d="M140.67,48.2v-.1h.11Z" style="fill:#272a84"/><path d="M145.63,43a1.76,1.76,0,0,1,.31-.16c.38-.11.47,0,.47.37v3.21c0,.54,0,.56-.58.6h-.22Zm.61,1.92h0v-1.7c0-.08-.13-.22-.18-.21a.85.85,0,0,0-.25.18c-.07.07,0,.11,0,.17v3.17c0,.14,0,.31.2.31s.25-.14.25-.32c0-.52,0-1.07,0-1.61Z" style="fill:#184295"/><path d="M145.51,47l-.2.1c-.5.19-.61.12-.61-.39V43.58c0-.54,0-.57.58-.61h.22Zm-.18-1.88h0V43.43c0-.25-.11-.34-.32-.26s-.14.18-.14.27v3.25c0,.14,0,.31.21.31s.25-.15.25-.32V45.12Z" style="fill:#184295"/><path d="M146.59,44.74V43c0-.1,0-.27.11-.29a2.21,2.21,0,0,1,.6-.08.72.72,0,0,1,.08.23v3.53a.57.57,0,0,1-.69.39c-.07,0-.1-.19-.11-.3V44.73Zm.17,0h0v1.65c0,.08.11.16.16.25a2.24,2.24,0,0,0,.27-.23V43.12c0-.16,0-.34-.23-.32s-.22.19-.22.35q0,.85,0,1.61Z" style="fill:#184295"/><path d="M148.37,44.52v1.69c0,.25-.5.54-.71.41a.29.29,0,0,1-.09-.22V42.79c0-.21.24-.33.56-.34s.23.16.23.33v1.74Zm-.18,0h0v-1.7a.34.34,0,0,0-.12-.2.72.72,0,0,0-.31.17v3.47c0,.22.14.29.31.16a.49.49,0,0,0,.13-.33c0-.53,0-1.09,0-1.58Z" style="fill:#184295"/><path d="M145.51,47V43h.13v4Z" style="fill:#00a4e1"/><path d="M147.68,37.63l.7-.1v3.8a.43.43,0,0,1-.18.34,1.39,1.39,0,0,1-.56,0,1,1,0,0,1-.06-.24V37.94A1.28,1.28,0,0,1,147.68,37.63Zm.52,2h0V38c0-.09-.09-.17-.14-.26l-.31.25c-.1.09,0,.09,0,.13v3.21c0,.09,0,.23.08.25a.35.35,0,0,0,.29,0,.41.41,0,0,0,.07-.28c0-.52,0-1.05,0-1.59Z" style="fill:#184295"/><path d="M146.57,40.57v-2c0-.79,0-.79.8-.88V41.4h0l-.08.23a.64.64,0,0,1-.09-.21V38.11a.42.42,0,0,0-.13-.26s-.33,0-.33.27v3.31a.31.31,0,0,0,.06.2,1.17,1.17,0,0,0,.24.15l-.35,0h-.13Z" style="fill:#184295"/><path d="M145.51,38.06l.18-.07a1.18,1.18,0,0,1,.3,0c.05,0,.1.08.16.13-.32,0-.36.15-.36.41V41.6c0,.13-.07.32.18.32s.35,0,.35-.3V38.05c0-.07.07-.24.12,0a3.32,3.32,0,0,1,.06.83V42l-.77.11V38.46c0-.06-.11-.12-.17-.18V38.1A.08.08,0,0,0,145.51,38.06Z" style="fill:#272a84"/><path d="M145.53,38.1v4h-.16V38.49c0-.16,0-.3-.23-.29s-.23.12-.23.29v1.24h-.15V38.54c0-.39,0-.5.51-.51Z" style="fill:#184295"/><path d="M144.71,39.77h.15l-.06,2.31v.17h-.08Z" style="fill:#272a84"/><path d="M145.5,42.09v-3h.13v2.94Z" style="fill:#00a4e1"/><path d="M146.4,42V40.58h.14v1.35C146.57,42.06,146.53,42.16,146.4,42Z" style="fill:#008bcd"/><path d="M144.79,42.25v-.17h.52Z" style="fill:#184295"/><path d="M146.3,38.06v3.57c0,.24-.14.3-.35.3s-.18-.19-.18-.32V38.49c0-.26,0-.45.36-.41Z" style="fill:#008bcd"/><path d="M146,50.69v-.32c.17.32.38.56.79.49a1.13,1.13,0,0,0,.89-.78.67.67,0,0,0-.49-.81h0l.36-.11.68.36a1.1,1.1,0,0,1-.06,1.62,1.56,1.56,0,0,1-1.49.28A.86.86,0,0,1,146,50.69Z" style="fill:#f7f6f6"/><path d="M142.28,58l.09-.09c.21.42.4.52.8.44a1,1,0,0,0,.83-.82c0-.38-.1-.59-.56-.79.32-.24.59,0,.86.12a1.32,1.32,0,0,1,.3.25,1.11,1.11,0,0,1,0,1.33,1.44,1.44,0,0,1-1.43.53A1,1,0,0,1,142.28,58Z" style="fill:#f7f6f6"/><path d="M141.85,45.84v1.82a1.58,1.58,0,0,1-.33.23.73.73,0,0,1-.11-.25V44a3.73,3.73,0,0,1,.33-.23c0,.08.11.16.11.25v1.78Z" style="fill:#0091d2"/><path d="M146.24,44.91v1.61c0,.18,0,.33-.25.32s-.2-.17-.2-.31V43.19S146,43,146,43s.18.14.18.21v1.7Z" style="fill:#0091d2"/><path d="M145.33,45.14V46.7c0,.18,0,.33-.25.32s-.2-.17-.21-.31V43.46c0-.1.07-.25.14-.27a.26.26,0,0,1,.32.26Z" style="fill:#0091d2"/><path d="M146.76,44.76V43.15c0-.16,0-.33.22-.35s.23.16.23.32v3.29a2.24,2.24,0,0,1-.27.23c-.06-.08-.16-.16-.16-.25V44.74Z" style="fill:#0091d2"/><path d="M148.2,44.51v1.56a.49.49,0,0,1-.13.33c-.17.14-.3.06-.31-.16V42.77a.72.72,0,0,1,.31-.17s.12.13.12.2v1.7Z" style="fill:#008bcd"/><path d="M148.2,39.64v1.6a.41.41,0,0,1-.07.28.35.35,0,0,1-.29,0c-.05,0-.08-.16-.08-.25V38a2.24,2.24,0,0,1,.31-.25c0,.09.14.17.14.26v1.65Z" style="fill:#0091d2"/><path d="M145.66,39.14h-.13v-.91c.06.06.17.12.17.18C145.69,38.66,145.67,38.9,145.66,39.14Z" style="fill:#0091d2"/><path d="M145.33,42.09h-.52l.06-2.31V38.54c0-.17,0-.29.23-.29s.23.13.23.29Q145.33,40.31,145.33,42.09Z" style="fill:#008bcd"/><path id="Rectangle-2-Copy-4-2" data-name="Rectangle-2-Copy-4" d="M196.87,0h175a2.5,2.5,0,0,1,2.5,2.5h0a2.5,2.5,0,0,1-2.5,2.5h-175a2.5,2.5,0,0,1-2.5-2.5h0A2.5,2.5,0,0,1,196.87,0Z" style="fill:#93bea7"/><path d="M374.37,3V75a4,4,0,0,1-4,4h-172a4,4,0,0,1-4-4V3h0a2.5,2.5,0,0,0,2.5,2h175A2.49,2.49,0,0,0,374.37,3Z" style="fill:#799987"/><rect id="Rectangle-13-Copy-12-2" data-name="Rectangle-13-Copy-12" x="199.37" y="10" width="171" height="64" rx="3" ry="3" style="fill:#fff"/><path id="path5" d="M225.8,65.31H225v-6h0c-.08.31-.16.55-.2.66l-2.38,5.31H222L219.75,60a4.15,4.15,0,0,1-.2-.7h0v6h-.78V58.4h1l2.11,4.8a6.19,6.19,0,0,1,.31.82h0a7.41,7.41,0,0,1,.35-.86l2.15-4.8h1Z" style="fill:#29a5de"/><path id="path7" d="M227.67,59.11a.38.38,0,0,1-.35-.16.7.7,0,0,1-.16-.35.42.42,0,0,1,.16-.35.48.48,0,0,1,.35-.16.38.38,0,0,1,.35.16.48.48,0,0,1,.16.35A.54.54,0,0,1,227.67,59.11Zm.39,6.2h-.78v-5h.78Z" style="fill:#29a5de"/><path id="path9" d="M232.75,65.08a2.54,2.54,0,0,1-1.37.35,2.24,2.24,0,0,1-1.72-.7,2.54,2.54,0,0,1-.66-1.8,2.72,2.72,0,0,1,.7-2,2.79,2.79,0,0,1,1.91-.74,2.36,2.36,0,0,1,1.17.27v.82a1.84,1.84,0,0,0-1.17-.39,1.68,1.68,0,0,0-1.25.55,2,2,0,0,0-.47,1.4,1.93,1.93,0,0,0,.48,1.42,1.51,1.51,0,0,0,1.21.51,2.08,2.08,0,0,0,1.21-.43v.74Z" style="fill:#29a5de"/><path id="path11" d="M236.3,61.17a1.1,1.1,0,0,0-1.49.3,2.1,2.1,0,0,0-.35,1.29V65.3h-.78v-5h.78v1h0a1.73,1.73,0,0,1,.51-.82,1.19,1.19,0,0,1,.78-.27,1.46,1.46,0,0,1,.47.08v.82Z" style="fill:#29a5de"/><path id="path13" d="M238.84,65.43a2.26,2.26,0,0,1-1.76-.7,2.58,2.58,0,0,1-.71-1.84,2.81,2.81,0,0,1,.66-2,2.47,2.47,0,0,1,1.87-.7,2.23,2.23,0,0,1,1.72.66,3,3,0,0,1,0,3.75A2.33,2.33,0,0,1,238.84,65.43Zm0-4.53a1.51,1.51,0,0,0-1.21.51,2.51,2.51,0,0,0,0,2.81,1.51,1.51,0,0,0,1.21.51,1.38,1.38,0,0,0,1.17-.51,2.51,2.51,0,0,0,0-2.81,1.5,1.5,0,0,0-1.14-.51Z" style="fill:#29a5de"/><path id="path15" d="M242,65.12v-.86a2.34,2.34,0,0,0,1.4.47q1,0,1-.7a1.14,1.14,0,0,0-.08-.35l-.23-.23c-.12-.08-.23-.12-.35-.2a1.37,1.37,0,0,0-.43-.16,2.69,2.69,0,0,1-.59-.27,1.73,1.73,0,0,1-.4-.32.81.81,0,0,1-.23-.39,2,2,0,0,1-.08-.51,1.15,1.15,0,0,1,.16-.62,1.82,1.82,0,0,1,.39-.35,3.94,3.94,0,0,1,.59-.27,2.21,2.21,0,0,1,.7-.12,2.55,2.55,0,0,1,1.13.23v.78a2.23,2.23,0,0,0-1.25-.35,1.2,1.2,0,0,0-.39,0,.78.78,0,0,0-.31.16c-.08.08-.16.12-.2.23a.72.72,0,0,0-.08.27.74.74,0,0,0,.08.31,1,1,0,0,0,.2.23,2.18,2.18,0,0,0,.31.2,3.8,3.8,0,0,1,.43.2,2,2,0,0,1,.59.27,1.73,1.73,0,0,1,.43.31.89.89,0,0,1,.27.39,1.08,1.08,0,0,1,.12.51,1.06,1.06,0,0,1-.16.62,1.13,1.13,0,0,1-.43.43,3,3,0,0,1-.62.27,4.32,4.32,0,0,1-.74.08A2.69,2.69,0,0,1,242,65.12Z" style="fill:#29a5de"/><path id="path17" d="M248.28,65.43a2.26,2.26,0,0,1-1.76-.7,2.58,2.58,0,0,1-.66-1.83,2.81,2.81,0,0,1,.66-2,2.59,2.59,0,0,1,1.87-.7,2.23,2.23,0,0,1,1.72.66,3,3,0,0,1,0,3.75A2.33,2.33,0,0,1,248.28,65.43Zm0-4.53a1.51,1.51,0,0,0-1.21.51,2.51,2.51,0,0,0,0,2.81,1.51,1.51,0,0,0,1.21.51,1.38,1.38,0,0,0,1.17-.51,2.51,2.51,0,0,0,0-2.81,1.44,1.44,0,0,0-1.13-.51Z" style="fill:#29a5de"/><path id="path19" d="M256.87,61.06v-.7h-1.25V58.91l-.78.27v1.21h-2.15v-.78q0-1,.82-1a1.08,1.08,0,0,1,.51.12V58a2.36,2.36,0,0,0-.59-.08,1.56,1.56,0,0,0-1.13.47,1.59,1.59,0,0,0-.43,1.21v.78H251V61h.86v4.29h.78V61.06h2.15V64c0,1,.43,1.44,1.29,1.44a1.4,1.4,0,0,0,.74-.16v-.66a.78.78,0,0,1-.51.16.71.71,0,0,1-.55-.2,1.17,1.17,0,0,1-.16-.7V61.06Z" style="fill:#29a5de"/><path id="path21" d="M265.57,65.31h-.9l-.74-2H261l-.7,2h-.93l2.69-6.91h.82Zm-1.87-2.69-1.09-2.93a2,2,0,0,1-.12-.47h0a4,4,0,0,1-.12.47l-1.05,2.93Z" style="fill:#29a5de"/><path id="path23" d="M269.67,60.59l-2.93,4h2.89v.7h-4v-.23l2.93-4h-2.68v-.7h3.79Z" style="fill:#29a5de"/><path id="path25" d="M274.43,65.31h-.78v-.78h0a1.61,1.61,0,0,1-1.52.9q-1.76,0-1.76-2.11v-3h.78v2.81c0,1,.39,1.56,1.21,1.56a1.19,1.19,0,0,0,.94-.43,1.72,1.72,0,0,0,.39-1.13V60.35h.78v5Z" style="fill:#29a5de"/><path id="path27" d="M278.37,61.17a.94.94,0,0,0-.59-.16,1,1,0,0,0-.86.47,2.1,2.1,0,0,0-.35,1.29v2.54h-.78v-5h.78v1h0a1.73,1.73,0,0,1,.51-.82,1.19,1.19,0,0,1,.78-.27,1.46,1.46,0,0,1,.47.08v.82Z" style="fill:#29a5de"/><path id="path29" d="M282.78,63H279.3a1.9,1.9,0,0,0,.43,1.29,1.45,1.45,0,0,0,1.17.43,2.51,2.51,0,0,0,1.52-.55v.74a2.88,2.88,0,0,1-1.72.47,2.11,2.11,0,0,1-1.64-.66,2.76,2.76,0,0,1-.59-1.87,2.67,2.67,0,0,1,.68-1.85,2.14,2.14,0,0,1,1.6-.74,1.81,1.81,0,0,1,1.48.62,2.66,2.66,0,0,1,.55,1.72Zm-.82-.66a1.62,1.62,0,0,0-.31-1,1.2,1.2,0,0,0-.9-.39,1.16,1.16,0,0,0-.94.39,1.65,1.65,0,0,0-.44,1Z" style="fill:#29a5de"/><path d="M320,18.25a.67.67,0,0,1,.39.08l4.07,1.17,2.84.8,2.93.84,3.38,1a1,1,0,0,1,.32.09l-3.09.74-2.47.59a1.1,1.1,0,0,0-.42.12c-.12.1,0,.29,0,.44s-.08.13-.16.11l-.88-.17-3-.58c-.11,0-.14,0-.14.11V40c0,.26,0,.15.16.13l1.14-.21,2.74-.51c.09,0,.14,0,.13.11s0,.34,0,.52,0,.15.14.17l2,.46,3.58.85a.22.22,0,0,1,.21.08l-1.94.53-2.49.71-2.94.83-3.38,1-2.82.79c-.06,0-.14.13-.22,0s0-.14,0-.21V18.52A.27.27,0,0,0,320,18.25Z" style="fill:#f48536"/><path d="M320,18.25a.27.27,0,0,1,0,.18q0,13.36,0,26.72v.21l-1.79-.89c-.08,0-.08-.09-.08-.16v-25a.21.21,0,0,1,.14-.22Z" style="fill:#9d5025"/><path d="M323.77,24.41v-.87c0-.1,0-.13.14-.11l3,.58.88.17c.09,0,.16,0,.16-.11s-.08-.34,0-.44a1.1,1.1,0,0,1,.42-.12l2.47-.59,3.09-.74a6.94,6.94,0,0,0,1.1-.23v6.6a1.44,1.44,0,0,1-.38,0l-1.48.13-.92.07-1.5.13-.91.07c-.51,0-1,.11-1.52.13h-.19c-.22,0-.22,0-.22-.21v-3.4c0-.39,0-.41-.39-.48l-2-.34Z" style="fill:#9d5025"/><path d="M333.81,41.52c-.05-.07-.14-.06-.21-.08L330,40.59l-2-.46c-.09,0-.14-.06-.14-.17v-.52c0-.18,0-.12-.13-.11l-2.74.51-1.14.21c-.11,0-.16,0-.16-.13v-.78l.75-.12,3.27-.54c.12,0,.16-.07.16-.19v-3.6c0-.09,0-.16.12-.13l.66.06,3.07.27,3.27.3v6.55l-1-.22Z" style="fill:#9d5025"/><path d="M318.13,20.45V43.17l-1.67.37V20.07Z" style="fill:#f48536"/><path d="M316.47,20.08V43.55c-.33-.12-.63-.31-1-.46a3.23,3.23,0,0,0-.42-.2.27.27,0,0,1-.2-.31V21a.24.24,0,0,1,.16-.26l1.25-.62A.34.34,0,0,1,316.47,20.08Z" style="fill:#9d5126"/><path d="M335.06,28.55V22l3.49,1a.14.14,0,0,1,.12.16h0V28.6c0,.13,0,.23-.17.16a.39.39,0,0,0-.21,0,1,1,0,0,0-.32-.06l-2.49-.22A1.15,1.15,0,0,1,335.06,28.55Z" style="fill:#f48436"/><path d="M335.06,41.76V35.21a2.66,2.66,0,0,1,.44-.06,3.88,3.88,0,0,0,1-.09,10.28,10.28,0,0,1,1.13-.12l.85-.1c.23,0,.23,0,.23.23v4.26a.29.29,0,0,0,0,.18v1a.16.16,0,0,1-.14.18h0l-3.16,1A1.07,1.07,0,0,1,335.06,41.76Z" style="fill:#f48436"/><path d="M338.69,39.33V35.07c0-.23,0-.23-.23-.23a.13.13,0,0,0-.09,0l-1.44-.1-2.37-.17v-.13c0-.29,0-.29.3-.3H335c.58,0,1.15.06,1.72.1l3,.17,1.87.11v5.23a6.24,6.24,0,0,1-.81-.12Z" style="fill:#9d5025"/><path d="M338.31,28.87a.39.39,0,0,1,.21,0c.17.06.17,0,.17-.16V24.4l1.51-.25,1.35-.22h.06v5.23h-.18a8.24,8.24,0,0,0-1.22.06c-.4.06-1,.08-1.54.1s-1.17.07-1.75.1-1.16.09-1.74.08a.33.33,0,0,0-.28.09c-.33,0-.33,0-.34-.3v-.18H335c.63,0,1.25-.1,1.88-.13a4.14,4.14,0,0,0,1-.08C338,28.92,338.18,29,338.31,28.87Z" style="fill:#9d5025"/><path d="M334.55,29.16v.18c0,.31,0,.32.34.3l1.49.08V34h-1.23a.66.66,0,0,0-.29.06c-.3,0-.3,0-.3.3v.13l-.77,0V29.19A4.78,4.78,0,0,0,334.55,29.16Z" style="fill:#f48436"/><path d="M341.63,39.79V34.56q.93-.13,1.87-.18c.94,0,.09,0,.11,0,.39,0,.39,0,.39.37v4.18c0,.18,0,.25-.22.3A17.47,17.47,0,0,0,341.63,39.79Z" style="fill:#f48537"/><path d="M341.61,29.18V24l2.24.68c.11,0,.12.1.12.2v4.44c0,.16-.06.2-.2.18h0c-.61,0-1.22-.14-1.83-.15A.47.47,0,0,1,341.61,29.18Z" style="fill:#f48537"/><path d="M341.61,29.18a.47.47,0,0,0,.3.06c.62,0,1.22.13,1.83.15h0a7.37,7.37,0,0,0-1.24.07l-1.47.07-1.53.07c-.81,0-1.62.08-2.44.12h-.69l-1.49-.08c.07-.1.18-.09.28-.09.58,0,1.16,0,1.74-.08s1.17-.08,1.75-.1,1-.08,1.54-.1.82-.06,1.22-.06Z" style="fill:#71401f"/><path d="M343.6,34.29s-.07,0-.11,0q-.94.06-1.87.18l-1.87-.11-3-.17c-.57,0-1.15-.09-1.72-.1h-.13a.66.66,0,0,1,.29-.06l1.18,0h1.31c.76.06,1.53,0,2.29.12h1.69C342.31,34.2,342.95,34.26,343.6,34.29Z" style="fill:#f7bb90"/><path d="M331.37,29.38l-2.53-.18a2.69,2.69,0,0,1-.69-.06c.06-.06.13,0,.19,0,.51,0,1-.09,1.52-.13l.91-.07,1.5-.13.92-.07,1.48-.13a1.44,1.44,0,0,0,.38,0,1.15,1.15,0,0,0,.44,0l2.49.22a1,1,0,0,1,.32.06c-.12.08-.27,0-.4.06-.34,0-.68.06-1,.08-.63,0-1.25.08-1.88.13h-.45c-.25,0-.5.06-.75.06h-.33C332.77,29.27,332.08,29.35,331.37,29.38Z" style="fill:#6d3b1a"/><path d="M328.06,34.57h.08c.62,0,1.24-.07,1.85-.11.42,0,.84-.07,1.26-.07a.17.17,0,0,0,.14,0l2.4.16.77,0,2.37.17,1.44.1a.13.13,0,0,1,.09,0l-.85.1a7.1,7.1,0,0,0-1.13.12c-.37.06-.65.06-1,.09a2.66,2.66,0,0,0-.44.06l-3.27-.3-3.07-.27Z" style="fill:#f7bb90"/><path d="M333.79,34.49l-2.4-.16a1.19,1.19,0,0,1,0-.13V29.38c.7,0,1.39-.12,2.09-.14h.33v2.41Q333.79,33.06,333.79,34.49Z" style="fill:#9d5025"/><path d="M341.58,51.6v.75c0,.24-.11.13-.2.13h-2.27v1.16a.9.9,0,0,0,.21.09h2.52v.82a.17.17,0,0,1-.13.11H338V49.82c0-.19,0-.25.25-.25h3.34c.19,0,.25.06.24.24a3.21,3.21,0,0,0,0,.49c0,.16-.06.2-.21.2h-2.24c-.18,0-.25,0-.24.24a6.18,6.18,0,0,1,0,.67c0,.16.06.2.21.2h2.24Z"/><path d="M316.37,54.67h-.88c-.15,0-.13-.12-.13-.21V52.27c0-.35-.15-.53-.42-.58a.65.65,0,0,0-.78.37,1.59,1.59,0,0,0-.1.54v1.83c0,.19-.06.25-.24.24h-.75V51.21c0-.19.06-.25.24-.23a2.54,2.54,0,0,0,.47,0c.19,0,.28,0,.25.25a1.16,1.16,0,0,0,0,.22,1.45,1.45,0,0,1,1.13-.56,1.15,1.15,0,0,1,1.07.57l.15-.14a1.48,1.48,0,0,1,1.76-.26,1.08,1.08,0,0,1,.55,1v2.45c0,.13,0,.19-.18.18h-.62c-.2,0-.21-.07-.21-.23V52.27a.51.51,0,0,0-.52-.58.61.61,0,0,0-.72.48v0a2.77,2.77,0,0,0,0,.55A17.42,17.42,0,0,0,316.37,54.67Z"/><path d="M347.09,51.28h-1s-.12-.08-.14-.14a1.22,1.22,0,0,0-2.05-.33,2.31,2.31,0,0,0,0,2.57,1.24,1.24,0,0,0,1.28.44A1,1,0,0,0,346,53a.28.28,0,0,1,.36-.26c.2,0,.5,0,.78,0a2.14,2.14,0,0,1-1.1,1.81,2.46,2.46,0,0,1-3.59-1.8,2.84,2.84,0,0,1,.75-2.62,2.45,2.45,0,0,1,3.46.14l.15.18A1.79,1.79,0,0,1,347.09,51.28Z"/><path d="M307.67,54.67l.62-1.63c.41-1.08.82-2.15,1.22-3.23a.31.31,0,0,1,.36-.24h.73a.27.27,0,0,1,.2.12l1.83,4.88c.91,2.44,0,0,0,.08h-1.05a.92.92,0,0,1-.13-.16c-.1-.26-.19-.53-.27-.8a.2.2,0,0,0-.22-.16h-1.59a.2.2,0,0,0-.22.16c-.09.27-.19.53-.27.8a.21.21,0,0,1-.24.17Zm3.15-2-.61-1.79h-.06l-.63,1.79Z"/><path d="M348.95,53.8h2.27v.86h-3.64a2,2,0,0,1,.21-.94,2.48,2.48,0,0,1,.79-.87c.32-.23.66-.44,1-.68a2.21,2.21,0,0,0,.53-.53.76.76,0,0,0-.61-1.2.66.66,0,0,0-.66.44,6.37,6.37,0,0,0-.19.71h-.8s-.11-.09-.11-.15a1.77,1.77,0,0,1,1-1.72,1.94,1.94,0,0,1,2.1.41,1.59,1.59,0,0,1-.14,2.21c-.31.28-.69.49-1,.75s-.51.41-.77.62Z"/><path d="M320.42,52.09h-1a1.08,1.08,0,0,1,.47-.88,1.43,1.43,0,0,1,.38-.19,3,3,0,0,1,1.8,0,.9.9,0,0,1,.7,1v2a2.42,2.42,0,0,0,.07.69h-.9c-.07,0-.12-.17-.19-.28a1.87,1.87,0,0,1-1.31.39,1.06,1.06,0,0,1-1.13-1.2.85.85,0,0,1,.61-.85c.42-.12.86-.17,1.28-.26l.28-.07a.35.35,0,0,0,.28-.35.43.43,0,0,0-.28-.43.76.76,0,0,0-1,.34Zm1.36.83-1,.19a.78.78,0,0,0-.23.09.45.45,0,0,0-.23.49.42.42,0,0,0,.36.37.8.8,0,0,0,1.09-.83C321.78,53.13,321.78,53,321.78,52.92Z"/><path d="M332.62,51.44l.11-.09a1.46,1.46,0,0,1,1.59-.41,1,1,0,0,1,.73.82,4,4,0,0,1,.06.71v2.19h-1v-2a2.72,2.72,0,0,0,0-.47c-.07-.36-.24-.52-.55-.54a.73.73,0,0,0-.78.47,2.16,2.16,0,0,0-.07.55v2h-.91a.52.52,0,0,1-.1-.2v-3.3c0-.13,0-.19.18-.18a4.68,4.68,0,0,0,.56,0c.18,0,.25,0,.23.23A1.71,1.71,0,0,0,332.62,51.44Z"/><path d="M329.09,50.88a1.94,1.94,0,1,1-1.92,2s0,0,0,0a1.8,1.8,0,0,1,1.66-1.93Zm-.93,2a5.23,5.23,0,0,0,.13.59.85.85,0,0,0,1.58,0,1.79,1.79,0,0,0,0-1.26.85.85,0,0,0-1.61,0,5.38,5.38,0,0,0-.1.64Z"/><path d="M325.25,51.73h-1.76v-.64s.09-.11.14-.11h2.81c.12,0,.14.06.15.17a1.13,1.13,0,0,1-.33,1c-.49.49-.94,1-1.4,1.56l-.17.21h1.83c.15,0,.21,0,.21.2,0,.56,0,.56-.54.56h-2.63c-.17,0-.22,0-.24-.22a1.13,1.13,0,0,1,.35-1c.49-.5.93-1,1.4-1.56Z"/><path d="M256.54,19.14a2.14,2.14,0,0,1,1.83,1.11q2.82,4.81,5.61,9.65A2.09,2.09,0,0,1,264,32c-.46.89-1,1.73-1.52,2.6-.18-.16-.38-.32-.55-.49l-4.75-4.74c-.19-.19-.36-.4-.66-.4a2,2,0,0,0-1.18-2c-1.17-.62-2.32-1.3-3.47-2a1.94,1.94,0,0,0-2.15,0q-1.82,1.08-3.66,2.1a1.82,1.82,0,0,0-1,1.76V32.8a2.08,2.08,0,0,0,1.05,2.2.9.9,0,0,0,.36.56l6.57,6.69a1.1,1.1,0,0,1,.39.55h-7.74a1.32,1.32,0,0,0-.72.09,2.16,2.16,0,0,1-1.82-1.12q-2.81-4.77-5.59-9.64a2.2,2.2,0,0,1,0-2.29q2.76-4.77,5.54-9.52A2.2,2.2,0,0,1,245,19.15a1.07,1.07,0,0,0,.61.09h10.34A1.08,1.08,0,0,0,256.54,19.14Z" style="fill:#407bf5"/><path d="M256.55,29c.3,0,.47.21.66.4L262,34.09c.17.17.37.33.55.49L259,40.67c-.22.38-.43.76-.67,1.13a2.24,2.24,0,0,1-1.71,1.09,17.45,17.45,0,0,0-3-.09h-.22a1.1,1.1,0,0,0-.39-.55l-6.57-6.69a.9.9,0,0,1-.36-.56l3.57,2a1.94,1.94,0,0,0,2.15,0c1.18-.7,2.36-1.39,3.57-2a1.92,1.92,0,0,0,1.11-1.89C256.51,31.69,256.54,30.32,256.55,29Z" style="fill:#396edc"/><path d="M256.54,19.14a1.08,1.08,0,0,1-.61.09H245.61a1.07,1.07,0,0,1-.61-.09h11.54Z" style="fill:#2d73ff"/><path d="M253.46,42.78h.22v.09H245a1.32,1.32,0,0,1,.72-.09Z" style="fill:#2d73ff"/><path d="M253.68,42.88v-.09a17.46,17.46,0,0,1,3,.09Z" style="fill:#1e66e5"/><path d="M256.55,29v4.11A1.92,1.92,0,0,1,255.44,35c-1.2.66-2.39,1.34-3.57,2a1.94,1.94,0,0,1-2.15,0c-1.18-.69-2.38-1.35-3.57-2A2.08,2.08,0,0,1,245,32.78c.06-1.31,0-2.63,0-3.94a1.82,1.82,0,0,1,1-1.76q1.85-1,3.66-2.1a1.94,1.94,0,0,1,2.15,0c1.14.68,2.29,1.36,3.47,2A2,2,0,0,1,256.55,29Zm-6.19-1V26.21c0-.08,0-.15-.11-.12l-3.72,2.09a.63.63,0,0,0-.34.6q0,2.08,0,4.16c0,.07,0,.14,0,.18s.09,0,.14,0c.4-.22.79-.46,1.2-.66a.63.63,0,0,0,.4-.67V30.31c0-.32.12-.36.38-.21l1.83,1a.39.39,0,0,1,.24.36V34l-1.76-1c-.17-.1-.32-.19-.52-.06-.48.29-1,.57-1.55.9l4,2.28a.44.44,0,0,0,.44,0l4.08-2.37c-.57-.33-1.07-.6-1.55-.9-.21-.12-.36,0-.53.06l-1.53.88c-.31.19-.38.09-.38-.24v-2a.51.51,0,0,1,.29-.5c.62-.34,1.23-.69,1.83-1,.26-.15.38-.11.38.21v1.43a.51.51,0,0,0,.15.46,12.21,12.21,0,0,0,1.64.8V28.72a.6.6,0,0,0-.32-.56l-3.58-2c-.1,0-.21-.34-.29,0v1.72a.1.1,0,0,0,.09.11h0l2,1.21-2.33,1.35a.3.3,0,0,1-.32,0l-2.36-1.3,2-1.2s.1,0,.1-.12Z" style="fill:#f7f9fc"/><path d="M246.21,32.94V28.78a.63.63,0,0,1,.34-.6l3.72-2.09.11.12v1.72l-.11.12-2,1.2,2.35,1.35a.3.3,0,0,0,.32,0l2.33-1.35-2-1.21-.1-.11V26.21h.29l3.58,2a.6.6,0,0,1,.32.56V33a12.21,12.21,0,0,1-1.63-.89c-.18-.11-.15-.29-.15-.46V30.27c0-.32-.12-.36-.38-.21-.61.36-1.22.71-1.83,1a.51.51,0,0,0-.29.5v2c0,.32.07.42.38.24.5-.3,1-.59,1.53-.88a.47.47,0,0,1,.53-.06c.49.29,1,.57,1.55.9L251,36.08a.44.44,0,0,1-.44,0l-4-2.28c.58-.34,1.07-.61,1.55-.9.21-.13.35,0,.52.06l1.73,1V31.46a.39.39,0,0,0-.24-.36l-1.76-1c-.26-.15-.38-.11-.38.21v1.48a.63.63,0,0,1-.4.67c-.41.2-.8.44-1.2.66Z" style="fill:#3c72dd"/><path d="M246.21,32.94l.16.14s-.1.06-.14,0S246.18,33,246.21,32.94Z" style="fill:#5c8ce4"/><path d="M251.47,26.2h-.29C251.26,25.86,251.37,26.17,251.47,26.2Z" style="fill:#2665db"/><path d="M250.37,26.21l-.11-.12C250.37,26.06,250.37,26.13,250.37,26.21Z" style="fill:#2866da"/><path d="M250.25,28l.11-.12C250.37,28,250.32,28,250.25,28Z" style="fill:#2866da"/><path d="M251.18,27.93l.1.11a.1.1,0,0,1-.1-.1Z" style="fill:#2665db"/><path d="M213.65,51.9a5,5,0,0,1-1.65.3,2.53,2.53,0,0,1-2.77-2.72,2.7,2.7,0,0,1,2.61-2.79h.31a3.34,3.34,0,0,1,1.34.25l-.17.57a2.79,2.79,0,0,0-1.19-.23,2.18,2.18,0,0,0-.35,4.33H212a2.27,2.27,0,0,0,.93-.14V49.87h-1.1v-.56h1.77Z"/><path d="M218.24,50.17a1.89,1.89,0,0,1-1.72,2h-.21a1.84,1.84,0,0,1-1.86-2,1.89,1.89,0,0,1,1.73-2h.19a1.83,1.83,0,0,1,1.87,2Zm-3.07,0c0,.85.49,1.49,1.17,1.49s1.18-.63,1.18-1.5c0-.66-.33-1.49-1.16-1.49s-1.19.81-1.19,1.54Z"/><path d="M222.63,50.17a1.89,1.89,0,0,1-1.72,2h-.21a1.84,1.84,0,0,1-1.86-2,1.89,1.89,0,0,1,1.71-2.05h.21a1.83,1.83,0,0,1,1.87,2Zm-3.07,0c0,.85.49,1.49,1.17,1.49s1.18-.63,1.18-1.5c0-.66-.33-1.49-1.16-1.49s-1.19.81-1.19,1.54Z"/><path d="M226.82,51.58a2.23,2.23,0,0,1-.55,1.77,2,2,0,0,1-1.41.46,2.49,2.49,0,0,1-1.29-.32l.18-.54a2.18,2.18,0,0,0,1.14.3c.72,0,1.25-.38,1.25-1.35v-.43h0a1.38,1.38,0,0,1-1.23.65,1.73,1.73,0,0,1-1.66-1.8s0-.06,0-.09a1.86,1.86,0,0,1,1.65-2.05H225a1.29,1.29,0,0,1,1.21.67h0v-.58h.62v3.32Zm-.7-1.78a.91.91,0,0,0-1-1.06c-.67,0-1.15.57-1.15,1.46s.38,1.39,1.14,1.39a1,1,0,0,0,1-.72,1.22,1.22,0,0,0,.06-.38Z"/><path d="M228,46.46h.7v5.68H228Z"/><path d="M230.27,50.33a1.24,1.24,0,0,0,1.13,1.34h.2a2.54,2.54,0,0,0,1.07-.2l.12.5a3.1,3.1,0,0,1-1.29.25,1.8,1.8,0,0,1-1.9-2,1.88,1.88,0,0,1,1.71-2h.06A1.64,1.64,0,0,1,233,50a2.71,2.71,0,0,1,0,.33Zm2.06-.5a1,1,0,0,0-.85-1.13h-.15a1.17,1.17,0,0,0-1.08,1.14Z"/><path d="M239.37,52a3.43,3.43,0,0,1-1.42.26,2.52,2.52,0,0,1-2.66-2.73,2.68,2.68,0,0,1,2.52-2.83h.29a2.9,2.9,0,0,1,1.27.2l-.17.57a2.53,2.53,0,0,0-1.09-.22,2.21,2.21,0,0,0-.28,4.38h.25a2.79,2.79,0,0,0,1.13-.22Z"/><path d="M243.64,50.17a1.89,1.89,0,0,1-1.72,2h-.21a1.84,1.84,0,0,1-1.86-2,1.89,1.89,0,0,1,1.71-2.05h.21a1.83,1.83,0,0,1,1.87,2Zm-3.07,0c0,.85.49,1.49,1.17,1.49s1.18-.63,1.18-1.5c0-.66-.33-1.49-1.16-1.49s-1.19.81-1.19,1.54Z"/><path d="M244.53,49.32v-1h.62V49h0a1.42,1.42,0,0,1,1.28-.73c.54,0,1.37.32,1.37,1.65v2.31h-.7V49.91c0-.62-.23-1.14-.9-1.14a.89.89,0,0,0-.94,1.05v2.33h-.7Z"/><path d="M249.78,47.34v.93h1v.54h-1V50.9c0,.48.14.75.53.75a1.31,1.31,0,0,0,.41,0v.53a1.69,1.69,0,0,1-.62.1,1,1,0,0,1-.76-.3,1.43,1.43,0,0,1-.27-1V48.8h-.6v-.54h.6v-.71Z"/><path d="M254.3,51.21a5.46,5.46,0,0,0,.06.93h-.64l-.06-.49h0a1.44,1.44,0,0,1-1.18.58,1.1,1.1,0,0,1-1.18-1s0-.06,0-.09c0-.94.83-1.45,2.33-1.44V49.6a.8.8,0,0,0-.69-.9h-.19a1.93,1.93,0,0,0-1,.29l-.16-.46a2.41,2.41,0,0,1,1.27-.34c1.18,0,1.47.81,1.47,1.58Zm-.68-1c-.77,0-1.64.12-1.64.87a.62.62,0,0,0,.57.67h.09a1,1,0,0,0,.94-.65.75.75,0,0,0,0-.22Z"/><path d="M256.22,47.18a.44.44,0,0,1-.87,0,.43.43,0,0,1,.42-.44h0a.42.42,0,0,1,.43.41S256.22,47.17,256.22,47.18Zm-.78,5V48.27h.7v3.87Z"/><path d="M257.31,49.32v-1h.62V49h0a1.42,1.42,0,0,1,1.28-.73c.54,0,1.37.32,1.37,1.65v2.31h-.7V49.91c0-.62-.23-1.14-.9-1.14a.89.89,0,0,0-.94,1.05v2.33h-.7Z"/><path d="M262.14,50.33a1.24,1.24,0,0,0,1.13,1.34h.2a2.54,2.54,0,0,0,1.07-.2l.12.5a3.1,3.1,0,0,1-1.29.25,1.8,1.8,0,0,1-1.9-2,1.88,1.88,0,0,1,1.66-2.08h.16a1.64,1.64,0,0,1,1.6,1.87,2.71,2.71,0,0,1,0,.33Zm2.06-.5a1,1,0,0,0-.85-1.13h-.15a1.17,1.17,0,0,0-1.08,1.14Z"/><path d="M265.76,49.48V48.27h.61V49h0a1.16,1.16,0,0,1,1.07-.85h.2v.66h-.24a1,1,0,0,0-.94.9,1.91,1.91,0,0,0,0,.33V52.1h-.7Z"/><path d="M272.89,49.61h-2.1v1.94h2.33v.58h-3V46.75H273v.58h-2.24V49h2.09Z"/><path d="M274,49.32v-1h.62V49h0a1.42,1.42,0,0,1,1.28-.73c.54,0,1.37.32,1.37,1.65v2.31h-.7V49.91c0-.62-.23-1.14-.9-1.14a.89.89,0,0,0-.94,1.05v2.33H274Z"/><path d="M281.75,51.58a2.23,2.23,0,0,1-.55,1.77,2.05,2.05,0,0,1-1.41.46,2.49,2.49,0,0,1-1.29-.32l.18-.54a2.18,2.18,0,0,0,1.14.3c.72,0,1.25-.38,1.25-1.35v-.43h0a1.38,1.38,0,0,1-1.23.65,1.73,1.73,0,0,1-1.66-1.8s0-.06,0-.09a1.86,1.86,0,0,1,1.65-2.05h.09a1.29,1.29,0,0,1,1.21.67h0v-.58h.62v3.32ZM281,49.8a.91.91,0,0,0-1-1.06c-.67,0-1.15.57-1.15,1.46s.38,1.39,1.14,1.39a1,1,0,0,0,1-.72,1.25,1.25,0,0,0,.06-.38Z"/><path d="M283.66,47.18a.44.44,0,0,1-.87,0,.43.43,0,0,1,.42-.44h0a.42.42,0,0,1,.43.41S283.66,47.17,283.66,47.18Zm-.78,5V48.27h.7v3.87Z"/><path d="M284.74,49.32v-1h.63V49h0a1.42,1.42,0,0,1,1.28-.73c.54,0,1.37.32,1.37,1.65v2.31h-.65V49.91c0-.62-.23-1.14-.9-1.14a.89.89,0,0,0-.94,1.05v2.33h-.7Z"/><path d="M289.58,50.33a1.24,1.24,0,0,0,1.13,1.34h.2a2.54,2.54,0,0,0,1.07-.2l.12.5a3.1,3.1,0,0,1-1.29.25,1.8,1.8,0,0,1-1.9-2,1.88,1.88,0,0,1,1.66-2.08h.16A1.64,1.64,0,0,1,292.32,50a2.71,2.71,0,0,1,0,.33Zm2.06-.5a1,1,0,0,0-.85-1.13h-.15a1.17,1.17,0,0,0-1.08,1.14Z"/><path d="M304.54,63.5a3.43,3.43,0,0,1-1.42.26A2.52,2.52,0,0,1,300.45,61,2.68,2.68,0,0,1,303,58.17h.29a2.89,2.89,0,0,1,1.28.24l-.17.59a2.53,2.53,0,0,0-1.09-.22,2.21,2.21,0,0,0-.28,4.38h.25a2.78,2.78,0,0,0,1.12-.17Z"/><path d="M308.8,61.71a1.89,1.89,0,0,1-1.72,2h-.21a1.84,1.84,0,0,1-1.86-2,1.89,1.89,0,0,1,1.71-2.05h.21a1.83,1.83,0,0,1,1.87,2Zm-3.07,0c0,.85.49,1.49,1.17,1.49s1.18-.63,1.18-1.5c0-.66-.33-1.49-1.16-1.49s-1.19.79-1.19,1.54Z"/><path d="M309.69,60.86v-1h.62v.64h0a1.42,1.42,0,0,1,1.28-.73c.54,0,1.37.32,1.37,1.65v2.31h-.7V61.45c0-.62-.23-1.14-.9-1.14a.89.89,0,0,0-.94,1.05v2.33h-.7Z"/><path d="M314.94,58.88v.93h1v.54h-1v2.09c0,.48.14.75.53.75a1.3,1.3,0,0,0,.41,0v.53a1.69,1.69,0,0,1-.62.1,1,1,0,0,1-.76-.3,1.43,1.43,0,0,1-.27-1V60.34h-.6V59.8h.6v-.7Z"/><path d="M319.46,62.75a5.46,5.46,0,0,0,.06.93h-.64l-.06-.49h0a1.44,1.44,0,0,1-1.18.58,1.1,1.1,0,0,1-1.18-1s0-.06,0-.09c0-.94.83-1.45,2.33-1.44v-.08a.8.8,0,0,0-.69-.9h-.19a1.93,1.93,0,0,0-1,.29l-.16-.46a2.41,2.41,0,0,1,1.27-.34c1.18,0,1.47.81,1.47,1.58Zm-.68-1c-.77,0-1.64.12-1.64.87a.62.62,0,0,0,.57.67h.09a1,1,0,0,0,.94-.65.75.75,0,0,0,0-.22Z"/><path d="M321.37,58.72a.44.44,0,0,1-.87,0,.43.43,0,0,1,.42-.44h0a.42.42,0,0,1,.43.41S321.37,58.71,321.37,58.72Zm-.78,5V59.81h.7v3.87Z"/><path d="M322.47,60.86v-1h.62v.64h0a1.42,1.42,0,0,1,1.28-.73c.54,0,1.37.32,1.37,1.65v2.31H325V61.45c0-.62-.23-1.14-.9-1.14a.89.89,0,0,0-.94,1.05v2.33h-.7Z"/><path d="M327.3,61.87a1.24,1.24,0,0,0,1.13,1.34h.2a2.54,2.54,0,0,0,1.07-.2l.12.5a3.1,3.1,0,0,1-1.29.25,1.8,1.8,0,0,1-1.9-2,1.88,1.88,0,0,1,1.66-2.08h.16a1.64,1.64,0,0,1,1.61,1.67q0,.08,0,.15a2.71,2.71,0,0,1,0,.33Zm2.06-.5a1,1,0,0,0-.85-1.13h-.15a1.17,1.17,0,0,0-1.08,1.14Z"/><path d="M330.92,61V59.79h.62v.76h0a1.16,1.16,0,0,1,1.07-.85h.2v.66h-.24a1,1,0,0,0-.94.9,1.91,1.91,0,0,0,0,.33v2.06h-.7Z"/><path d="M335.16,62.83a2.46,2.46,0,0,0,1.25.35c.71,0,1.13-.38,1.13-.92s-.29-.79-1-1.07c-.88-.31-1.42-.77-1.42-1.53a1.55,1.55,0,0,1,1.63-1.47h.11a2.44,2.44,0,0,1,1.19.26l-.19.57a2.15,2.15,0,0,0-1-.26c-.74,0-1,.44-1,.81s.33.75,1.07,1c.91.35,1.38.79,1.38,1.58s-.62,1.56-1.89,1.56a2.78,2.78,0,0,1-1.37-.35Z"/><path d="M339.62,61.87a1.24,1.24,0,0,0,1.13,1.34h.2A2.54,2.54,0,0,0,342,63l.12.5a3.1,3.1,0,0,1-1.29.25,1.8,1.8,0,0,1-1.9-2,1.88,1.88,0,0,1,1.66-2.08h.16a1.64,1.64,0,0,1,1.61,1.67q0,.08,0,.15a2.71,2.71,0,0,1,0,.33Zm2.06-.5a1,1,0,0,0-.85-1.13h-.15a1.17,1.17,0,0,0-1.08,1.14Z"/><path d="M343.23,61V59.79h.62v.76h0a1.16,1.16,0,0,1,1.07-.85h.2v.66h-.24a1,1,0,0,0-.94.9,1.91,1.91,0,0,0,0,.33v2.06h-.7Z"/><path d="M346.37,59.81l.76,2.17a10,10,0,0,1,.31,1h0c.09-.32.2-.64.33-1l.75-2.17h.74l-1.52,3.87h-.67l-1.47-3.87Z"/><path d="M350.68,58.72a.44.44,0,0,1-.87,0,.43.43,0,0,1,.42-.44h0a.42.42,0,0,1,.43.41S350.68,58.71,350.68,58.72Zm-.78,5V59.81h.7v3.87Z"/><path d="M354.53,63.53a2.56,2.56,0,0,1-1.11.23,1.84,1.84,0,0,1-1.93-2,2,2,0,0,1,1.95-2.05h.13a2.36,2.36,0,0,1,1,.2l-.16.54a1.63,1.63,0,0,0-.82-.18,1.46,1.46,0,0,0,0,2.91,2,2,0,0,0,.78-.18Z"/><path d="M355.7,61.87a1.24,1.24,0,0,0,1.13,1.34h.2a2.54,2.54,0,0,0,1.07-.2l.12.5a3.1,3.1,0,0,1-1.29.25,1.8,1.8,0,0,1-1.9-2,1.88,1.88,0,0,1,1.66-2.08h.16a1.64,1.64,0,0,1,1.61,1.67q0,.08,0,.15a2.71,2.71,0,0,1,0,.33Zm2.06-.5a1,1,0,0,0-.85-1.13h-.15a1.17,1.17,0,0,0-1.08,1.14Z"/><path id="Rectangle-2-Copy-4-3" data-name="Rectangle-2-Copy-4" d="M390.77,0h175a2.5,2.5,0,0,1,2.5,2.5h0a2.5,2.5,0,0,1-2.5,2.5h-175a2.5,2.5,0,0,1-2.5-2.5h0A2.5,2.5,0,0,1,390.77,0Z" style="fill:#93bea7"/><path d="M568.27,3V75a4,4,0,0,1-4,4h-172a4,4,0,0,1-4-4V3h0a2.5,2.5,0,0,0,2.5,2h175A2.49,2.49,0,0,0,568.27,3Z" style="fill:#799987"/><rect id="Rectangle-13-Copy-12-3" data-name="Rectangle-13-Copy-12" x="393.27" y="10" width="171" height="64" rx="3" ry="3" style="fill:#fff"/><path id="outline" d="M457.5,53.51h3v3.12H462a6.46,6.46,0,0,0,2.08-.36,5.29,5.29,0,0,0,1-.47,3.87,3.87,0,0,1-.7-2,4.23,4.23,0,0,1,.74-2.94l.32-.37.38.31a4.87,4.87,0,0,1,1.88,3.09,4.51,4.51,0,0,1,3.48.33l.41.24-.22.43A4.31,4.31,0,0,1,467,57c-2.6,6.59-8.25,9.7-15.1,9.7-3.54,0-6.79-1.35-8.64-4.55v0l-.27-.56a9,9,0,0,1-.75-4.44v-.46h2.56V53.51h3v-3h6v-3h3.6Z" style="fill:#394d54"/><g id="body_colors" data-name="body colors"><path d="M467.21,54.67a4.05,4.05,0,0,0-1.69-3.43c-.84,1-1,3.56.35,4.65A6.23,6.23,0,0,1,462,57.15H442.8a8.38,8.38,0,0,0,.8,4.55l.22.41a7.42,7.42,0,0,0,.45.69h0q1.18.08,2.18,0h0a10.53,10.53,0,0,0,3.19-.47.23.23,0,0,1,.29.15h0a.24.24,0,0,1-.14.3l-.34.11h0a9.84,9.84,0,0,1-2.2.37H444.7a9.33,9.33,0,0,0,7.24,2.93c6.64,0,12.27-3,14.77-9.73,1.77.19,3.47-.27,4.24-1.81A4.11,4.11,0,0,0,467.21,54.67Z" style="fill:#00aada"/><path d="M467.21,54.67a4.05,4.05,0,0,0-1.69-3.43c-.84,1-1,3.56.35,4.65A6.23,6.23,0,0,1,462,57.15H443.93a6.4,6.4,0,0,0,2.51,5.7h0a10.53,10.53,0,0,0,3.19-.47.23.23,0,0,1,.29.15h0a.24.24,0,0,1-.14.3l-.34.11h0a10.36,10.36,0,0,1-2.26.38h0c2.26,1.18,5.54,1.18,9.29-.29a26.17,26.17,0,0,0,10.87-8.38Z" style="fill:#24b8eb"/><path d="M442.83,59.18a7.92,7.92,0,0,0,.76,2.51l.22.41a7.42,7.42,0,0,0,.45.69q1.18.08,2.18,0a10.53,10.53,0,0,0,3.19-.47.23.23,0,0,1,.29.15h0a.24.24,0,0,1-.14.3l-.34.11h0a10.37,10.37,0,0,1-2.26.37h-2.52a9.36,9.36,0,0,0,7.26,2.94c5.69,0,10.63-2.2,13.5-7Z" style="fill:#008bb8"/><path d="M444.11,59.18a5.89,5.89,0,0,0,2.34,3.66,10.53,10.53,0,0,0,3.19-.47.23.23,0,0,1,.29.15h0a.24.24,0,0,1-.14.3l-.34.11h0a10.52,10.52,0,0,1-2.27.37c2.26,1.18,5.53,1.16,9.28-.31a24.45,24.45,0,0,0,6.42-3.81Z" style="fill:#039bc6"/></g><g id="Containers"><path d="M447.58,54.24h.21v2.21h-.21Zm-.39,0h.21v2.21h-.21Zm-.39,0H447v2.21h-.21Zm-.39,0h.21v2.21h-.21Zm-.39,0h.21v2.21H446Zm-.39,0h.21v2.21h-.21ZM445.4,54H448v2.65h-2.6Z" style="fill:#00acd3"/><path d="M450.58,51.19h.21V53.4h-.21Zm-.39,0h.21V53.4h-.21Zm-.39,0H450V53.4h-.21Zm-.39,0h.21V53.4h-.21Zm-.39,0h.21V53.4H449Zm-.39,0h.2V53.4h-.2ZM448.4,51H451v2.65h-2.6Z" style="fill:#00acd3"/><path d="M450.58,54.24h.21v2.21h-.21Zm-.39,0h.21v2.21h-.21Zm-.39,0H450v2.21h-.21Zm-.39,0h.21v2.21h-.21Zm-.39,0h.21v2.21H449Zm-.39,0h.2v2.21h-.2ZM448.4,54H451v2.65h-2.6Z" style="fill:#20c2ef"/><path d="M453.58,54.24h.21v2.21h-.21Zm-.39,0h.21v2.21h-.21Zm-.39,0H453v2.21h-.21Zm-.39,0h.21v2.21h-.21Zm-.39,0h.21v2.21H452Zm-.39,0h.21v2.21h-.21ZM451.4,54H454v2.65h-2.6Z" style="fill:#00acd3"/><path d="M453.58,51.19h.21V53.4h-.21Zm-.39,0h.21V53.4h-.21Zm-.39,0H453V53.4h-.21Zm-.39,0h.21V53.4h-.21Zm-.39,0h.21V53.4H452Zm-.39,0h.21V53.4h-.21ZM451.4,51H454v2.65h-2.6Z" style="fill:#20c2ef"/><path d="M456.57,54.24h.21v2.21h-.21Zm-.39,0h.21v2.21h-.21Zm-.39,0H456v2.21h-.21Zm-.39,0h.21v2.21h-.21Zm-.39,0h.21v2.21H455Zm-.39,0h.21v2.21h-.21ZM454.4,54H457v2.65h-2.6Z" style="fill:#20c2ef"/><path d="M456.57,51.19h.21V53.4h-.21Zm-.39,0h.21V53.4h-.21Zm-.39,0H456V53.4h-.21Zm-.39,0h.21V53.4h-.21Zm-.39,0h.21V53.4H455Zm-.39,0h.21V53.4h-.21ZM454.4,51H457v2.65h-2.6Z" style="fill:#00acd3"/><path d="M456.57,48.13h.21v2.21h-.21Zm-.39,0h.21v2.21h-.21Zm-.39,0H456v2.21h-.21Zm-.39,0h.21v2.21h-.21Zm-.39,0h.21v2.21H455Zm-.39,0h.21v2.21h-.21Zm-.22-.22H457v2.65h-2.6Z" style="fill:#20c2ef"/><path d="M459.57,54.24h.21v2.21h-.21Zm-.39,0h.21v2.21h-.21Zm-.39,0H459v2.21h-.21Zm-.39,0h.21v2.21h-.21Zm-.39,0h.21v2.21H458Zm-.39,0h.2v2.21h-.2ZM457.4,54H460v2.65h-2.6Z" style="fill:#00acd3"/></g><path d="M450.84,61a.73.73,0,1,1-.72.74h0a.72.72,0,0,1,.71-.73h0" style="fill:#d4edf1"/><path d="M450.84,61.17a.51.51,0,0,1,.19,0,.21.21,0,1,0,.29.28.53.53,0,0,1,0,.2.51.51,0,1,1-.51-.52" style="fill:#394d54"/><path d="M438.16,59.45H471.5c-.73-.19-2.3-.44-2-1.41-1.32,1.56-4.5,1.09-5.31.32-.89,1.32-6.1.82-6.47-.21-1.12,1.34-4.6,1.34-5.72,0-.36,1-5.57,1.53-6.47.21-.8.77-4,1.23-5.31-.32.26,1-1.31,1.22-2,1.41" style="fill:#394d54"/><path d="M452.74,66.22a6.38,6.38,0,0,1-3.29-3.3,10.81,10.81,0,0,1-2.37.37h-2.49a9.4,9.4,0,0,0,7.34,3Z" style="fill:#bfdbe0"/><path d="M450.11,64.1a6.36,6.36,0,0,1-.66-1.17,10.82,10.82,0,0,1-2.37.37A7.45,7.45,0,0,0,450.11,64.1Z" style="fill:#d4edf1"/><path d="M506.54,60.85l3.07-2.69c.35-.31.73-.63,1.08-1a2.73,2.73,0,0,0-1.14-.77,2.57,2.57,0,0,0-2.31.22,2.68,2.68,0,0,0-1.33,2.57,2.51,2.51,0,0,0,.36,1.24,3.28,3.28,0,0,0,.27.37m1.19.85a3.17,3.17,0,0,0,1.59.06,3.55,3.55,0,0,1,1.19-.37h0a.79.79,0,0,1,.37.34.68.68,0,0,1-.23.93l0,0-.12.07a3.88,3.88,0,0,1-4-.06A3.75,3.75,0,0,1,505,61.2L505,61a4,4,0,0,1,.22-4.46,3.81,3.81,0,0,1,1.26-1.16l.19-.11a3.84,3.84,0,0,1,3.83,0,3.77,3.77,0,0,1,1.61,1.53l.07.12c.28.49-.08.91-.45,1.2s-.86.74-1.27,1.1Zm9.82-6.75h.14a.66.66,0,0,1,.69.7c0,.58-.55.73-1,.73a2.47,2.47,0,0,0-1.64.81,2.71,2.71,0,0,0-.77,2v3.41a.64.64,0,0,1-.58.7h-.17a.64.64,0,0,1-.64-.64s0,0,0-.06V59a4,4,0,0,1,1.76-3.31,3.75,3.75,0,0,1,2.21-.74Zm-17.23,2.42,1.62-1.63c.15-.15.73-.79,1-.79h.28a.62.62,0,0,1,.55.61v.14c0,.24-.27.51-.42.67-.32.34-.65.67-1,1l-1.67,1.73,2.15,2.21.59.62a1.53,1.53,0,0,1,.23.27.59.59,0,0,1,.1.32v.18a.66.66,0,0,1-.63.58H503c-.23,0-.49-.26-.64-.41-.32-.31-.63-.64-1-1l-1.06-1.06v1.7a.64.64,0,0,1-.58.7h-.17a.64.64,0,0,1-.64-.64s0,0,0-.06V53a.64.64,0,0,1,.58-.7h.17a.64.64,0,0,1,.64.64s0,0,0,.06Zm-4.48-1a2.54,2.54,0,0,0-.82-.14,2.57,2.57,0,0,0-2.48,1.66,2.62,2.62,0,0,0-.25,1.13A2.72,2.72,0,0,0,494,61.58a3.1,3.1,0,0,0,1.31.22,3.38,3.38,0,0,0,1.22-.39h.34a.62.62,0,0,1,.55.61v.14c0,.86-1.54,1-2.13,1.09a3.91,3.91,0,0,1-4.21-3,3.7,3.7,0,0,1-.15-1.06v-.28a4,4,0,0,1,2-3.51,3.73,3.73,0,0,1,2-.54h.27a3.47,3.47,0,0,1,2,.64h.05v0a.75.75,0,0,1,.12.37v.14a.63.63,0,0,1-.58.62h-.11a3.08,3.08,0,0,1-.81-.27Zm-12.57,2.73a2.72,2.72,0,0,0,1.4,2.41,2.52,2.52,0,0,0,1.36.38,2.83,2.83,0,0,0,2.71-2.82,2.69,2.69,0,0,0-1.27-2.31A2.54,2.54,0,0,0,486,56.3,2.81,2.81,0,0,0,483.27,59.09Zm2.6-4.2h.19a3.91,3.91,0,0,1,3.59,2.22,3.84,3.84,0,0,1,.47,1.84v.28a4,4,0,0,1-2,3.51,3.77,3.77,0,0,1-2,.54h-.27a3.86,3.86,0,0,1-3.45-2.07,3.93,3.93,0,0,1-.53-2v-.28a4,4,0,0,1,2-3.51,3.73,3.73,0,0,1,2-.53Zm-11.65,4.2a2.68,2.68,0,0,0,1.47,2.46,2.52,2.52,0,0,0,1.24.33,2.83,2.83,0,0,0,2.76-2.82,2.7,2.7,0,0,0-1.2-2.26,2.54,2.54,0,0,0-1.54-.5,2.8,2.8,0,0,0-2.74,2.79Zm5.48-3.15V53a.64.64,0,0,1,.58-.7h.17a.64.64,0,0,1,.64.64s0,0,0,.06v6.26a4,4,0,0,1-2,3.51,3.77,3.77,0,0,1-2,.54h-.27a3.86,3.86,0,0,1-3.45-2.07,3.93,3.93,0,0,1-.53-2V59a4,4,0,0,1,2-3.52,3.75,3.75,0,0,1,2-.54h.27a3.82,3.82,0,0,1,2.55,1Z" style="fill:#394d54"/><path d="M480.49,31.57a4.35,4.35,0,1,1-4.35-4.38,4.35,4.35,0,0,1,4.35,4.38Zm-1,0A3.34,3.34,0,1,0,476.16,35a3.38,3.38,0,0,0,3.32-3.39Z" style="fill:#004764"/><path d="M451,29.75c-1.08,1.63-2.32,3-3.45,4.55-.67-.87-1.31-1.73-2-2.57-.82-1-1.59-2.13-2.36-3.21,0-.07-.12-.13-.12-.22a11.1,11.1,0,0,1,.08-1.3l4.4,5.72L451.95,27a.34.34,0,0,1,0,.25v8.34c0,.22,0,.31-.28.28s-.56.1-.71-.06,0-.46,0-.69V32C451,31.22,450.95,30.52,451,29.75Z" style="fill:#004764"/><path d="M455.27,31.54v-4c0-.19,0-.26.25-.26h4.75c.2,0,.28,0,.25.25s.1.54-.05.68-.44,0-.67,0h-3.24c-.2,0-.24.06-.24.25v2.28c0,.22.08.25.26.25h3.25c.21,0,.27.06.25.26s.09.53,0,.67-.45,0-.69,0h-2.82c-.19,0-.25,0-.24.24v2.35c0,.19,0,.25.24.24h3.92c.21,0,.27.06.25.25s.1.55-.05.68-.44,0-.67,0h-4.47c-.2,0-.25,0-.25-.25C455.27,34.22,455.27,32.88,455.27,31.54Z" style="fill:#004764"/><path d="M485.65,27.25a3.13,3.13,0,0,1,2.18.81c.08.07.07.12,0,.19a6,6,0,0,0-.39.5c-.12.17-.13.1-.24,0a2.25,2.25,0,0,0-1.73-.53,1.21,1.21,0,0,0-1.09,1.06,1,1,0,0,0,.64,1.26c.46.22.95.37,1.42.57a3.11,3.11,0,0,1,1.65,1.35,2.31,2.31,0,0,1-1.55,3.33,3.45,3.45,0,0,1-3.39-1.09c-.13-.13-.16-.24,0-.37s.29-.39.46-.42.31.24.48.37a2.28,2.28,0,0,0,2.31.5,1.35,1.35,0,0,0,.44-2.32,2.91,2.91,0,0,0-1-.57,9,9,0,0,1-1.21-.48,2.17,2.17,0,0,1-1.19-2.52,2.09,2.09,0,0,1,2-1.67Z" style="fill:#004764"/><path d="M467.84,33.47a1.23,1.23,0,0,0-.48-1,3.16,3.16,0,0,0-1-.55,5.34,5.34,0,0,1-1.66-.76,2.18,2.18,0,0,1-.7-2.37,2,2,0,0,1,1.81-1.51,3.17,3.17,0,0,1,2.46.72c.11.09.16.15,0,.28a3.18,3.18,0,0,0-.34.44c-.09.14-.15.13-.27,0a2.21,2.21,0,0,0-1.71-.52,1.22,1.22,0,0,0-1.09,1,1.07,1.07,0,0,0,.63,1.28c.45.21.93.37,1.39.56a3.28,3.28,0,0,1,1.56,1.18A2.31,2.31,0,0,1,467,35.73a3.46,3.46,0,0,1-3.42-1.12c-.12-.12-.12-.21,0-.32s.3-.39.49-.43.31.24.47.37a2.34,2.34,0,0,0,2.21.54A1.33,1.33,0,0,0,467.84,33.47Z" style="fill:#004764"/><path d="M430.37,35l5.18-3v6Z" style="fill:#00aade"/><path d="M430.42,27.85l2-1.15,2.93-1.7c.16-.09.22-.11.22.12V30.6c0,.17,0,.24-.21.14L430.51,28A.13.13,0,0,1,430.42,27.85Z" style="fill:#00aade"/><path d="M429.07,27.89l-2.22,1.28-2.68,1.54c-.24.14-.24.13-.24-.14V25.15c0-.16,0-.27.2-.15l4.81,2.79Z" style="fill:#00aade"/><path d="M424,32l5.12,3L424,38Z" style="fill:#004463"/><path d="M423.95,23.77V17.83l5.13,3Z" style="fill:#004463"/><path d="M429.08,42l-5.13,3V39Z" style="fill:#004463"/><path d="M416.84,27.88l-2.06,1.19-2.85,1.65c-.13.08-.24.16-.24-.1V24.91Z" style="fill:#00aade"/><path d="M416.84,35l-1.38.8-3.52,2c-.11.06-.24.2-.24-.09v-5.6a.81.81,0,0,1,0-.11Z" style="fill:#00aade"/><path d="M423.27,32v5.75c0,.17,0,.19-.18.11l-5-2.87Z" style="fill:#004764"/><path d="M418.15,42l5.12-3v6Z" style="fill:#004764"/><path d="M418.15,20.8l5.1-3a.28.28,0,0,1,0,.22v5.45c0,.21,0,.27-.23.14l-4.73-2.74Z" style="fill:#004764"/><path d="M418.19,27.85l5.08-2.93a.34.34,0,0,1,0,.24v5.4c0,.29,0,.29-.24.15L418.34,28A1.74,1.74,0,0,1,418.19,27.85Z" style="fill:#00aade"/><path d="M430.07,21.37l5.13,3a3.41,3.41,0,0,1-.62.39l-4.31,2.42c-.12.07-.24.19-.24-.09v-5.6S430.06,21.44,430.07,21.37Z" style="fill:#00a9dd"/><path d="M430.06,34.39v-6l5.17,3Z" style="fill:#00a9dd"/><path d="M430.07,35.51l5.16,3-5.16,3Z" style="fill:#00a9dd"/><path d="M417.83,21.36l5.13,3-1.17.64L418,27.2c-.1.06-.21.17-.21-.08Z" style="fill:#00a9dd"/><path d="M417.84,35.51l5.12,3-5.12,3Z" style="fill:#004463"/><path d="M424.27,24.33l5.13-3V27c0,.29,0,.29-.26.14l-4.64-2.69Z" style="fill:#00a9dd"/><path d="M423,31.4l-5.11,3v-6Z" style="fill:#004463"/><path d="M429.39,35.51v6l-5.13-3Z" style="fill:#004463"/><path d="M429.39,28.44v5.93l-5.12-3Z" style="fill:#004463"/><path d="M412,24.33l5.12-3V27c0,.17,0,.27-.21.14l-4.8-2.78Z" style="fill:#00a9dd"/><path d="M417.15,41.45l-5.07-2.94c0-.12.12-.13.19-.17l4.65-2.68c.25-.14.25-.14.25.15V41.2C417.17,41.27,417.16,41.34,417.15,41.45Z" style="fill:#00a9dd"/><path d="M417.16,28.44v5.68c0,.17,0,.26-.21.14l-4.76-2.76-.15-.1Z" style="fill:#00a9dd"/><path d="M443.11,30l1,1.26a.37.37,0,0,1,0,.25v4.06c0,.18,0,.24-.23.23a5.18,5.18,0,0,0-.61,0c-.13,0-.2,0-.2-.18v-5.5A.82.82,0,0,1,443.11,30Z" style="fill:#004e6b"/><path d="M508.55,39.84a11.53,11.53,0,0,1,1.93-4,14.94,14.94,0,0,0,3.09-2.31,21.22,21.22,0,0,0-.44-8.73,21.22,21.22,0,0,0-8.73-.44,15,15,0,0,0-2.31,3.09,11.54,11.54,0,0,1-4,1.93,8.77,8.77,0,0,1,2.18,2.15c-.3.85-.43,1.4-.43,1.4a4.91,4.91,0,0,0,.9,1.76,7.64,7.64,0,0,1-1.09.73l-.15.08a5.7,5.7,0,0,0,3,3l.07-.13a7.74,7.74,0,0,1,.75-1.12,5.92,5.92,0,0,0,1.74.93s.55-.14,1.4-.43a8.78,8.78,0,0,1,2.11,2.13ZM505.37,36a8,8,0,0,1-2.1-1.51,6.11,6.11,0,0,1-1.37-1.87,17.27,17.27,0,0,1,3.37-6.37,17.13,17.13,0,0,1,6.14.28,17.13,17.13,0,0,1,.28,6.14A17.14,17.14,0,0,1,505.37,36Z" style="fill:#3ba0dc"/><circle cx="507.52" cy="30.45" r="1.68" style="fill:#ff4963"/><path d="M519.51,26.52h1.67l.17,2.16h.07a4.08,4.08,0,0,1,3.38-2.45,3,3,0,0,1,1.28.25l-.39,1.77a3.34,3.34,0,0,0-1.15-.2c-1,0-2.21.74-3,2.75v7.65h-2V26.52ZM527.64,21h2V32.8h.07l5.08-6.28H537l-4,4.78,4.54,7.14h-2.21l-3.48-5.74-2.23,2.6v3.14h-2ZM540,28.19H538.2V26.64l1.86-.12.25-3.34H542v3.34h3.27v1.64h-3.21v6.62c0,1.47.47,2.31,1.84,2.31a4.33,4.33,0,0,0,1.35-.32l.39,1.52a7.36,7.36,0,0,1-2.21.44c-2.55,0-3.41-1.62-3.41-4v-6.6Z"/></svg>