<svg id="Layer_1" data-name="Layer 1" xmlns="http://www.w3.org/2000/svg" xmlns:xlink="http://www.w3.org/1999/xlink" viewBox="0 0 374.37 79"><defs><linearGradient id="linear-gradient" x1="-1437.75" y1="-1150.92" x2="-1437.84" y2="-1151.07" gradientTransform="translate(83623.76 41898.63) scale(57.94 36.36)" gradientUnits="userSpaceOnUse"><stop offset="0" stop-color="#929192"/><stop offset="1" stop-color="#c7c7c7"/></linearGradient><linearGradient id="linear-gradient-2" x1="-1434.56" y1="-1149.73" x2="-1434.53" y2="-1149.75" gradientTransform="translate(71344.59 36107.77) scale(49.5 31.37)" gradientUnits="userSpaceOnUse"><stop offset="0" stop-color="#d40000"/><stop offset="1" stop-color="#970704"/></linearGradient><linearGradient id="linear-gradient-3" x1="-1387.54" y1="-1147.74" x2="-1387.52" y2="-1147.76" gradientTransform="translate(29875.45 21619.81) scale(21.3 18.8)" gradientUnits="userSpaceOnUse"><stop offset="0" stop-color="#970704"/><stop offset="1" stop-color="#d40000"/></linearGradient><linearGradient id="linear-gradient-4" x1="-1455.24" y1="-1146.61" x2="-1455.22" y2="-1146.67" gradientTransform="translate(199123.24 31318.93) scale(136.6 27.3)" xlink:href="#linear-gradient-2"/><linearGradient id="linear-gradient-5" x1="-1404.37" y1="-1150.39" x2="-1404.38" y2="-1150.35" gradientTransform="translate(38655.71 63063.31) scale(27.3 54.8)" xlink:href="#linear-gradient-2"/></defs><title>sub-hero-logos</title><path id="Rectangle-2-Copy-4" d="M196.76,0h175a2.5,2.5,0,0,1,2.5,2.5h0a2.5,2.5,0,0,1-2.5,2.5h-175a2.5,2.5,0,0,1-2.5-2.5h0A2.5,2.5,0,0,1,196.76,0Z" style="fill:#93bea7"/><path d="M374.26,3V75a4,4,0,0,1-4,4h-172a4,4,0,0,1-4-4V3h0a2.5,2.5,0,0,0,2.5,2h175A2.49,2.49,0,0,0,374.26,3Z" style="fill:#799987"/><rect id="Rectangle-13-Copy-12" x="198.8" y="10.59" width="171" height="64" rx="3" ry="3" style="fill:#fff"/><path d="M218.82,45.47l1.81-4.25c.24-.57.48-1.15.74-1.71a4,4,0,0,1,6.57-1.1c.35.34.51.25.81,0a5.07,5.07,0,0,1,4.93-1,3.18,3.18,0,0,1,1.52,1c.28.34.44.28.76,0a4.9,4.9,0,0,1,5.25-.85,3.78,3.78,0,0,1,2.42,3.64v6.73a1.77,1.77,0,0,1-2,1.91,1.74,1.74,0,0,1-1.56-1.9V42a1.71,1.71,0,0,0-1.54-1.68,1.79,1.79,0,0,0-2.06,1.24,2.93,2.93,0,0,0-.08.84v5.48a1.81,1.81,0,0,1-1.31,1.94,1.72,1.72,0,0,1-2.22-1.41,4.5,4.5,0,0,1-.06-.75V42.09a1.64,1.64,0,0,0-.94-1.64,1.93,1.93,0,0,0-2.06.2,1.86,1.86,0,0,0-.67,1.62V48a1.72,1.72,0,0,1-1.56,1.87h-.31a1.75,1.75,0,0,1-1.69-2v-7a.5.5,0,0,0-.38-.54.49.49,0,0,0-.61.32L223.47,43c-.75,1.63-1.49,3.27-2.25,4.89a6.43,6.43,0,0,1-.58,1,2.22,2.22,0,0,1-3.64,0,10.23,10.23,0,0,1-1-2l-3.33-7.24a1.68,1.68,0,0,1,.58-2.3l.19-.1a1.72,1.72,0,0,1,2.38,1L218.61,45C218.66,45.14,218.72,45.26,218.82,45.47Z" style="fill:#727175"/><path d="M253.13,40.5l-1.37,3.88-1.59,4.54c-.2.57-.49.82-1,.83A1,1,0,0,1,248.1,49q-1.84-5.13-3.64-10.27a.87.87,0,0,1,.37-1.17l.11,0a.93.93,0,0,1,1.26.67q1.41,4,2.79,8.07l.22.62,1.29-3.72,1.7-4.87c.23-.65.45-.82,1-.81s.78.21,1,.84l2.74,8,.22.61L258.53,43l1.65-4.75c.12-.35.29-.66.7-.73a.86.86,0,0,1,1,1.17c-.29.89-.63,1.76-.95,2.64l-2.67,7.5-.08.21a1.06,1.06,0,0,1-1,.75,1,1,0,0,1-1-.78c-.43-1.23-.85-2.47-1.28-3.7q-.77-2.23-1.55-4.45C253.26,40.71,253.26,40.57,253.13,40.5Z" style="fill:#737276"/><path d="M270.77,47.86a5.2,5.2,0,0,1-3,1.85A5.08,5.08,0,0,1,263,48.55a3.56,3.56,0,0,1,.72-5.53,6.06,6.06,0,0,1,2.8-.79,12,12,0,0,1,3.88.38c.37.1.42,0,.41-.34A3,3,0,0,0,268,39.1h-.19a6.83,6.83,0,0,0-3.35.51.79.79,0,0,1-1.06-.36l0,0a.75.75,0,0,1,.37-1h0a8,8,0,0,1,6.44-.17,3.79,3.79,0,0,1,2.29,3.31,46.52,46.52,0,0,1,.08,4.69v2.76a.88.88,0,0,1-.75,1h0a.84.84,0,0,1-1-.85C270.76,48.6,270.77,48.29,270.77,47.86Zm-3.38-4.34a4.6,4.6,0,0,0-2.64.66,2.2,2.2,0,0,0-.1,3.55,3.66,3.66,0,0,0,3.05.59,3.49,3.49,0,0,0,3-2.45,6.44,6.44,0,0,0,.09-1.46.4.4,0,0,0-.3-.48h-.07A14.61,14.61,0,0,0,267.39,43.52Z" style="fill:#737276"/><path d="M287.5,44.29h-4c-.33,0-.41.09-.34.41a4,4,0,0,0,2.7,3.32,4.53,4.53,0,0,0,4.61-1,1,1,0,0,1,.74-.35.74.74,0,0,1,.68.5.76.76,0,0,1-.22.85,6.15,6.15,0,0,1-8.43.26,5.75,5.75,0,0,1-1.82-3.49A6.51,6.51,0,0,1,283,39.12a5.38,5.38,0,0,1,9.26,2.52,5.87,5.87,0,0,1,.21,1.63c0,.73-.28,1-1,1Zm-.6-1.36h2.67c1.23,0,1.23,0,.89-1.19a3.57,3.57,0,0,0-4.2-2.8l-.32.08a4.25,4.25,0,0,0-2.78,3.61c0,.3.17.25.34.25Z" style="fill:#737276"/><path d="M276.5,40.22a5.27,5.27,0,0,1,2.42-2.38,3.66,3.66,0,0,1,1.67-.4.84.84,0,0,1,.88.76.88.88,0,0,1-.69,1c-.22,0-.44.07-.66.13a4.65,4.65,0,0,0-3.57,4.22c-.19,1.72,0,3.44-.09,5.16a.9.9,0,0,1-1.1,1,.85.85,0,0,1-.7-.94V38.48c0-.64.35-1.06.87-1.07a1,1,0,0,1,.92,1.07v1.6S276.48,40.11,276.5,40.22Z" style="fill:#727175"/><path d="M295.56,38.9a1.5,1.5,0,1,1-3,0A1.48,1.48,0,0,1,294,37.39h0a1.45,1.45,0,0,1,1.51,1.39S295.56,38.86,295.56,38.9Zm-1.47-1.19a1.19,1.19,0,0,0-1.2,1.17,1.23,1.23,0,0,0,1.2,1.23,1.27,1.27,0,0,0,1.17-1.21,1.2,1.2,0,0,0-1.18-1.19Z" style="fill:#737276"/><path d="M294,38.15c.72,0,.89.26.6.84-.08.16,0,.22.07.31s.1.2,0,.27-.2,0-.27-.08l-.17-.21c-.14-.16-.29-.29-.33.07,0,.13,0,.25-.2.23s-.14-.16-.14-.28v-.62C293.47,38.3,293.54,38,294,38.15Zm.41.48c0-.14-.16-.18-.3-.18s-.21,0-.21.2.09.2.22.19S294.33,38.8,294.37,38.63Z" style="fill:#737276"/><path d="M294.37,38.63c0,.17-.15.21-.29.21s-.22,0-.22-.19.07-.2.21-.2A.28.28,0,0,1,294.37,38.63Z" style="fill:#fefefe"/><path d="M309.39,61.36c0,3.11-1.44,4.15-2.67,4.15-1.44,0-2.61-1.32-2.61-4.13s1.32-4.15,2.69-4.15S309.39,58.57,309.39,61.36Zm-4,0c0,1.34.24,3.13,1.4,3.13s1.34-1.88,1.34-3.13-.24-3.13-1.36-3.13S305.39,60.13,305.39,61.36Z" style="fill:#6e6d6e"/><path d="M310.81,59.85c0-1.24,0-1.94-.06-2.51h1.14l.06,1h0a1.88,1.88,0,0,1,1.72-1.14c1.42,0,2.33,1.48,2.33,4.13,0,3-1.24,4.17-2.49,4.17a1.53,1.53,0,0,1-1.42-.94h0v4h-1.26V59.85Zm1.26,2.59a3.36,3.36,0,0,0,.06.66c.26,1.14.84,1.34,1.18,1.34,1.06,0,1.42-1.46,1.42-3.07s-.4-3-1.44-3c-.58,0-1.12.72-1.18,1.44a3,3,0,0,0,0,.62v2.07Z" style="fill:#6e6d6e"/><path d="M318.33,61.46c0,2.47,1,3,1.9,3a3,3,0,0,0,1.34-.3l.22.94a4,4,0,0,1-1.78.38c-1.94,0-2.93-1.58-2.93-4s1.12-4.21,2.73-4.21S322.1,59,322.1,60.8a6.81,6.81,0,0,1,0,.74h-3.73Zm2.53-.94c0-1.6-.58-2.31-1.2-2.31-.84,0-1.26,1.22-1.32,2.31Z" style="fill:#6e6d6e"/><path d="M323.48,59.41a20.49,20.49,0,0,0-.06-2.07h1.12l.06,1h0a2,2,0,0,1,1.84-1.1c1.12,0,1.94.82,1.94,2.75V65.4H327.1V60.21c0-1-.18-1.92-1.12-1.92-.54,0-1,.44-1.2,1.3a3.79,3.79,0,0,0-.06.74v5h-1.28v-6Z" style="fill:#6e6d6e"/><path d="M330,64a2.56,2.56,0,0,0,1.3.42,1.08,1.08,0,0,0,1.18-1.16c0-.62-.22-1-1-1.58-1-.66-1.62-1.36-1.62-2.27a2.15,2.15,0,0,1,2.07-2.23h.14a2.73,2.73,0,0,1,1.44.42l-.34,1a1.79,1.79,0,0,0-1.08-.36,1,1,0,0,0-1,1c0,.54.2.84,1,1.38a2.93,2.93,0,0,1,1.66,2.43,2.25,2.25,0,0,1-2.47,2.4,2.73,2.73,0,0,1-1.58-.46l.34-1Z" style="fill:#e00000"/><path d="M336.57,55.46v1.88h1.54v1h-1.54v4.79c0,1,.36,1.34.84,1.34a3.43,3.43,0,0,0,.52,0l.06,1a2.9,2.9,0,0,1-.94.14,1.6,1.6,0,0,1-1.26-.48,2.79,2.79,0,0,1-.48-2V58.31h-1v-1h1V56l1.26-.54Z" style="fill:#e00000"/><path d="M343.47,63.54a17.53,17.53,0,0,0,.08,1.84h-1.14l-.08-.84h-.07a1.8,1.8,0,0,1-1.62,1,2,2,0,0,1-1.9-2.29c0-2,1.62-2.91,3.43-2.93V60c0-1.08-.28-1.82-1.28-1.82a2.41,2.41,0,0,0-1.34.42l-.28-.9a3.55,3.55,0,0,1,1.88-.54c1.62,0,2.29,1,2.29,2.83V63.5Zm-1.21-2.34c-.66,0-2.21.14-2.21,1.88,0,1.06.54,1.44,1,1.44s1-.42,1.18-1.22a1.81,1.81,0,0,0,.06-.46V61.2Z" style="fill:#e00000"/><path d="M349.19,65.17a2.82,2.82,0,0,1-1.34.3c-1.76,0-2.93-1.42-2.93-4.07,0-2.31,1.16-4.19,3.17-4.19a2.52,2.52,0,0,1,1.14.26l-.24,1a2.11,2.11,0,0,0-.92-.22c-1.3,0-1.86,1.54-1.86,3.11,0,1.88.72,3,1.9,3a1.79,1.79,0,0,0,.92-.22l.16,1Z" style="fill:#e00000"/><path d="M351.55,61h0a7.53,7.53,0,0,1,.44-.9l1.6-2.83H355l-2.13,3.39,2.33,4.65h-1.41L352,61.54l-.46.74v3H350.3V53.86h1.26V61Z" style="fill:#e00000"/><path d="M314.26,42.75l-2.9.15c-.82.14-1.24.3-1,.58l6,6.24a1.14,1.14,0,0,0,.56.24,4,4,0,0,0,1.43,0l3.56-.53-7.65-6.68" style="fill:url(#linear-gradient)"/><polygon points="313.69 45.96 317.4 49.67 317.47 49.74 317.61 49.6 317.54 49.53 313.83 45.82 313.76 45.75 313.62 45.89 313.69 45.96 313.69 45.96" style="opacity:0.699999988079071;isolation:isolate"/><path d="M333.77,37.24v1.24a.55.55,0,0,1,0,.18.66.66,0,0,1-.14.32h0a1,1,0,0,1-.1.14l-.14.12a1,1,0,0,0-.14.1h-.12l-.24.06L336.55,43h.4l.2-.2.2-.2a.67.67,0,0,0,0-.2l.2-.2V42l-.18-1.26h0l5.39-.46v-.06l-3.59-3.52Z" style="fill:url(#linear-gradient-2)"/><path d="M323.17,44.29l-3.67-3.65,13.36-1.18,3.77,3.63Z" style="fill:#d40000"/><path d="M319.55,40.66a.75.75,0,0,1-.52-.12h0a1,1,0,0,1-.14-.1l3.4,3.36.16.18H323l-3.61-3.54Z" style="fill:url(#linear-gradient-3)"/><path d="M317.33,49.46a1.86,1.86,0,0,1-.2-.2.67.67,0,0,1,0-.2s-.36-.64-.36-.66l-3.59-3.54v.42a1.28,1.28,0,0,1,0,.14l.06.14.06.12a.5.5,0,0,0,.08.14.28.28,0,0,1,.06.08l.12.14,1.84,1.83,1.84,1.83S317.37,49.5,317.33,49.46Z" style="fill:#960804"/><path d="M318.63,38.58,313.2,39v5.85L317,48.66v-6l5.29-.52Z" style="fill:#960804"/><path d="M342.78,46.15A1.92,1.92,0,0,1,341.06,48l-22.55,2a1.56,1.56,0,0,1-1.72-1.56V42.61l5.43-.48v1.24a.81.81,0,0,0,.79.82h.11L336.47,43a1,1,0,0,0,.9-1V40.8l5.41-.48Z" style="fill:#ed0000"/><path d="M342.74,30.47v8.59l-5.43.48V31Z" style="fill:#f6000e"/><path d="M342.74,30.47l-3.59-3.54-5.41.48V36l3.59,3.54V31Z" style="fill:#960804"/><path d="M322.17,32.27v8.59l-5.43.48V32.75Z" style="fill:#f6000e"/><path d="M322.17,32.27l-3.59-3.54-5.41.48V37.8l3.59,3.54V32.75Z" style="fill:#960804"/><path d="M337.35,29.67l-3.59-3.54V25l3.59,3.54Z" style="fill:#960804"/><path d="M337.35,28.53v-.06a.15.15,0,0,0,0-.08v-.28a.53.53,0,0,0-.1-.12l-3.59-3.54.1.12h0l.06.12h0a.18.18,0,0,1,0,.1V25l3.59,3.54v-.06Z" style="fill:#8d0604"/><path d="M339.46,19.58c-.24-.24-.48-.48-.72-.7l-.06-.06h0l-.06-.06h-.06l-.1-.06h-.8l-22.53,1.92,3.59,3.54,22.57-2h1a.45.45,0,0,1,.1.1c-.92-.92-1.88-1.86-2.84-2.8Z" style="fill:url(#linear-gradient-4)"/><path d="M314.6,20.44a1.6,1.6,0,0,0-.29.07l-.07,0h0a.83.83,0,0,0-.22.14h0l-.08.06-.1.1h0l-.08.08-.06.08h0l-.08.16v6.41l3.59,3.54V25.46a2.21,2.21,0,0,1,0-.36s.06-.22.1-.32h0a.52.52,0,0,1,.1-.16,1.76,1.76,0,0,1,.2-.2l.2-.2c.08-.06.35,0,.39-.12s.32-.11.34-.13a3.11,3.11,0,0,0,.56-.06l-3.67-3.54Z" style="fill:url(#linear-gradient-5)"/><path d="M318.53,23.92l22.55-2a1.56,1.56,0,0,1,1.72,1.56v5.67l-5.41.46v-1a.81.81,0,0,0-.79-.82h-.11l-13.36,1.16a1,1,0,0,0-.9,1V31l-5.43.48V25.83A1.94,1.94,0,0,1,318.54,24Z" style="fill:#fa0030"/><path d="M318.53,23.92l22.55-2a1.56,1.56,0,0,1,1.72,1.56v5.67l-5.41.46v-1a.81.81,0,0,0-.79-.82h-.11l-13.36,1.16a1,1,0,0,0-.9,1V31l-5.43.48V25.83A1.94,1.94,0,0,1,318.54,24Z" style="fill:#fa0030"/><path id="Rectangle-2-Copy-4-2" data-name="Rectangle-2-Copy-4" d="M2.5,0h175A2.5,2.5,0,0,1,180,2.5h0A2.5,2.5,0,0,1,177.5,5H2.5A2.5,2.5,0,0,1,0,2.5H0A2.5,2.5,0,0,1,2.5,0Z" style="fill:#93bea7"/><path d="M180,3V75a4,4,0,0,1-4,4H4a4,4,0,0,1-4-4V3H0A2.5,2.5,0,0,0,2.5,5h175A2.49,2.49,0,0,0,180,3Z" style="fill:#799987"/><rect id="Rectangle-13-Copy-12-2" data-name="Rectangle-13-Copy-12" x="5" y="10" width="171" height="64" rx="3" ry="3" style="fill:#fff"/><path d="M149.5,39.63a.51.51,0,1,1,.51.51h0a.51.51,0,0,1-.51-.51"/><path d="M150,40.2a.57.57,0,1,1,.57-.57.57.57,0,0,1-.57.57Zm0-1a.46.46,0,1,0,.45.47h0a.45.45,0,0,0-.41-.49h0Z"/><path d="M121.93,41.16a.15.15,0,0,0,0-.14.27.27,0,0,0-.22-.1h-.3a.3.3,0,0,0-.28.19l-.9,3.18-.89-3.18a.27.27,0,0,0-.25-.2h-.35a.26.26,0,0,0-.25.2l-.83,3.14-.86-3.15a.31.31,0,0,0-.29-.19h-.43a.27.27,0,0,0-.22.1.15.15,0,0,0,0,.13l1.33,4.7a.26.26,0,0,0,.24.2h.43a.26.26,0,0,0,.25-.2l.82-3.13.89,3.13a.26.26,0,0,0,.24.2h.42a.25.25,0,0,0,.24-.2Z"/><path d="M126.24,44.57a.25.25,0,0,0-.16-.12l-.42-.08a.28.28,0,0,0-.29.15,1.15,1.15,0,0,1-1,.75,1.22,1.22,0,0,1-1.06-.68,2.23,2.23,0,0,1-.18-1h3.06a.26.26,0,0,0,.18-.08.19.19,0,0,0,.06-.14c0-1.21-.56-2.51-2.1-2.51a2.34,2.34,0,0,0-2.22,2.45s0,.09,0,.14c0,1.56.86,2.57,2.19,2.57a2,2,0,0,0,2-1.32A.18.18,0,0,0,126.24,44.57Zm-3.12-1.66a1.32,1.32,0,0,1,1.16-1.31,1.2,1.2,0,0,1,1.09,1.3h-2.25Z"/><path d="M131.12,43.36a3.24,3.24,0,0,0-.44-1.71,1.75,1.75,0,0,0-1.45-.82h-.08a1.4,1.4,0,0,0-1.21.64v-2a.24.24,0,0,0-.24-.21h-.44a.24.24,0,0,0-.24.21v6.18a.24.24,0,0,0,.24.21h.13a.26.26,0,0,0,.24-.19l.14-.44a1.62,1.62,0,0,0,1.32.72h.08C130.51,46,131.12,44.67,131.12,43.36Zm-1,.12c0,.29-.05,1.72-1.07,1.76a1.14,1.14,0,0,1-.88-.51,1.93,1.93,0,0,1-.25-.92V43A1.36,1.36,0,0,1,129,41.61c1.05,0,1.1,1.56,1.1,1.87Z"/><path d="M136.51,44.49a1.38,1.38,0,0,0-.58-1.14,2.42,2.42,0,0,0-1-.34l-.66-.12c-.47-.08-.75-.2-.75-.62s.46-.61.85-.62a1.07,1.07,0,0,1,1,.6.26.26,0,0,0,.23.15h0l.41-.09a.26.26,0,0,0,.16-.12.18.18,0,0,0,0-.15,1.75,1.75,0,0,0-1.86-1.12c-.87,0-1.81.39-1.81,1.48,0,.74.47,1.21,1.39,1.4l.74.14c.41.08.82.22.82.65,0,.64-.75.71-1,.72a1.25,1.25,0,0,1-1.22-.72.24.24,0,0,0-.28-.16l-.43.09a.25.25,0,0,0-.16.11.19.19,0,0,0,0,.15A2,2,0,0,0,134.51,46h0C135.49,46,136.51,45.63,136.51,44.49Z"/><path d="M141.15,44.58a.25.25,0,0,0-.16-.12l-.42-.08a.28.28,0,0,0-.29.15,1.15,1.15,0,0,1-1,.75,1.22,1.22,0,0,1-1.06-.68,2.22,2.22,0,0,1-.18-1h3.06a.26.26,0,0,0,.18-.08.19.19,0,0,0,.06-.14c0-1.21-.56-2.51-2.1-2.51A2.34,2.34,0,0,0,137,43.29q0,.09,0,.19c0,1.56.86,2.57,2.19,2.57a2,2,0,0,0,2-1.32A.18.18,0,0,0,141.15,44.58ZM138,42.92a1.32,1.32,0,0,1,1.16-1.31,1.2,1.2,0,0,1,1.1,1.29v0Z"/><path d="M142.86,43.53a1.91,1.91,0,0,1,.22-1,1.2,1.2,0,0,1,1.1-.72.23.23,0,0,0,.23-.23v-.42a.24.24,0,0,0-.22-.22H144a1.36,1.36,0,0,0-1.22.81v-.47a.23.23,0,0,0-.24-.21h-.38a.23.23,0,0,0-.24.21v4.53a.23.23,0,0,0,.24.21h.45a.24.24,0,0,0,.25-.21Z"/><path d="M149.1,41.1a.15.15,0,0,0,0-.14.28.28,0,0,0-.23-.11h-.35a.31.31,0,0,0-.29.2l-1.14,3.58L145.93,41a.31.31,0,0,0-.29-.2h-.5a.28.28,0,0,0-.23.1.15.15,0,0,0,0,.14l1.59,4.73a.27.27,0,0,0,.24.2h.61a.26.26,0,0,0,.24-.2Z"/><path d="M150.5,41a.24.24,0,0,0-.25-.22h-.48a.25.25,0,0,0-.25.22v4.81a.21.21,0,0,0,.08.16.27.27,0,0,0,.17.06h.49a.24.24,0,0,0,.25-.22Z"/><path d="M155,44.32a.19.19,0,0,0,0-.14.29.29,0,0,0-.2-.09h-.4a.26.26,0,0,0-.25.19c-.15.63-.48,1-1,1-1,0-1.06-1.4-1.06-1.82,0-.84.29-1.74,1.1-1.76a1,1,0,0,1,1,.94.26.26,0,0,0,.23.22h.43a.24.24,0,0,0,.23-.23,1.83,1.83,0,0,0-1.82-1.7h-.07c-1.39,0-2,1.3-2,2.58s.52,2.55,2,2.55h.07A1.89,1.89,0,0,0,155,44.32Z"/><path d="M159.6,44.58a.25.25,0,0,0-.16-.12l-.42-.08a.28.28,0,0,0-.29.15,1.16,1.16,0,0,1-1,.75,1.22,1.22,0,0,1-1.06-.68,2.22,2.22,0,0,1-.18-1h3.06a.26.26,0,0,0,.18-.08.19.19,0,0,0,.06-.14c0-1.21-.56-2.51-2.1-2.51a2.34,2.34,0,0,0-2.22,2.45s0,.09,0,.14c0,1.56.86,2.57,2.19,2.57a2,2,0,0,0,2-1.32A.18.18,0,0,0,159.6,44.58Zm-3.12-1.66a1.32,1.32,0,0,1,1.16-1.31,1.2,1.2,0,0,1,1.09,1.3h-2.25Z"/><path d="M164.14,44.49a1.38,1.38,0,0,0-.57-1.14,2.43,2.43,0,0,0-1-.34l-.66-.12c-.47-.08-.75-.2-.75-.62,0-.57.71-.62.85-.62a1.06,1.06,0,0,1,1,.6.26.26,0,0,0,.23.15h0l.41-.09a.26.26,0,0,0,.16-.12.18.18,0,0,0,0-.15A1.75,1.75,0,0,0,162,40.89c-.87,0-1.81.39-1.81,1.48,0,.74.47,1.21,1.39,1.4l.74.14c.41.08.82.22.82.65,0,.64-.75.71-1,.72a1.24,1.24,0,0,1-1.22-.72.24.24,0,0,0-.28-.16l-.43.09a.25.25,0,0,0-.16.11.19.19,0,0,0,0,.15A2,2,0,0,0,162.14,46h0C163.12,46,164.14,45.63,164.14,44.49Z"/><path d="M143.75,31.47V30.38a.27.27,0,0,1,.26-.28h4.92a.27.27,0,0,1,.28.26s0,0,0,0v.94a1.54,1.54,0,0,1-.37.69l-2.54,3.62a5.43,5.43,0,0,1,2.79.6.5.5,0,0,1,.26.43v1.17c0,.16-.18.35-.36.25a5.64,5.64,0,0,0-5.17,0c-.17.09-.35-.09-.35-.25V36.71a1.32,1.32,0,0,1,.18-.75l2.94-4.22H144a.27.27,0,0,1-.28-.26h0"/><path d="M125.89,38.3H124.4a.28.28,0,0,1-.27-.25V30.4a.28.28,0,0,1,.28-.28h1.4a.28.28,0,0,1,.27.26v1h0a2,2,0,0,1,3.89,0,2.2,2.2,0,0,1,3.78-.58,4.06,4.06,0,0,1,.38,2.4V38a.28.28,0,0,1-.28.28h-1.5a.28.28,0,0,1-.27-.27V34a9.79,9.79,0,0,0,0-1.43.78.78,0,0,0-.88-.66,1,1,0,0,0-.89.63,4.63,4.63,0,0,0-.14,1.46v4a.28.28,0,0,1-.28.28h-1.5a.28.28,0,0,1-.27-.27V34c0-.85.14-2.11-.92-2.11s-1,1.22-1,2.11v4a.28.28,0,0,1-.28.28h0"/><path d="M153.42,30c2.21,0,3.41,1.9,3.41,4.31s-1.32,4.18-3.41,4.18-3.35-1.9-3.35-4.26,1.2-4.23,3.35-4.23m0,1.56c-1.1,0-1.17,1.5-1.17,2.43s0,2.93,1.15,2.93,1.21-1.61,1.21-2.59a7.07,7.07,0,0,0-.22-2,.93.93,0,0,0-.95-.81Z"/><path d="M159.7,38.3h-1.48a.28.28,0,0,1-.27-.27V30.37a.28.28,0,0,1,.29-.25h1.38a.28.28,0,0,1,.26.21V31.5h0a2.09,2.09,0,0,1,3.74-.64,4.87,4.87,0,0,1,.39,2.38V38a.28.28,0,0,1-.28.24h-1.49A.28.28,0,0,1,162,38V33.9c0-.84.1-2.06-.93-2.06a1,1,0,0,0-.86.61A3.39,3.39,0,0,0,160,33.9V38a.29.29,0,0,1-.29.28"/><path d="M139.85,34.64a2.92,2.92,0,0,1-.28,1.58,1.21,1.21,0,0,1-1,.68c-.57,0-.91-.44-.91-1.08,0-1.27,1.14-1.5,2.22-1.5v.32m1.5,3.63a.31.31,0,0,1-.35,0,3.64,3.64,0,0,1-.85-1,3,3,0,0,1-2.46,1.08A2.11,2.11,0,0,1,135.49,36,2.53,2.53,0,0,1,137,33.64a10.31,10.31,0,0,1,2.8-.52v-.19a1.9,1.9,0,0,0-.18-1.08,1,1,0,0,0-.84-.39,1.13,1.13,0,0,0-1.2.89.31.31,0,0,1-.26.27l-1.44-.16a.26.26,0,0,1-.22-.29v0c.33-1.75,1.91-2.28,3.33-2.28a3.38,3.38,0,0,1,2.24.74c.72.68.65,1.58.65,2.56v2.32a2,2,0,0,0,.56,1.38.28.28,0,0,1,0,.4h0l-1.14,1Z"/><path d="M120.32,34.64a2.93,2.93,0,0,1-.28,1.58,1.21,1.21,0,0,1-1,.68c-.57,0-.91-.44-.91-1.08,0-1.27,1.14-1.5,2.22-1.5v.32m0,0a2.93,2.93,0,0,1-.28,1.58,1.21,1.21,0,0,1-1,.68c-.57,0-.91-.44-.91-1.08,0-1.27,1.14-1.5,2.22-1.5v.32m1.5,3.63a.31.31,0,0,1-.35,0,3.64,3.64,0,0,1-.85-1,3,3,0,0,1-2.46,1.08A2.11,2.11,0,0,1,116,36a2.53,2.53,0,0,1,1.59-2.43,10.31,10.31,0,0,1,2.8-.52v-.19a1.9,1.9,0,0,0-.18-1.08,1,1,0,0,0-.84-.39,1.13,1.13,0,0,0-1.2.89.31.31,0,0,1-.26.27l-1.44-.16a.26.26,0,0,1-.22-.29v0c.33-1.75,1.91-2.28,3.33-2.28a3.38,3.38,0,0,1,2.24.74c.72.68.65,1.58.65,2.56v2.32a2,2,0,0,0,.56,1.38.28.28,0,0,1,0,.4h0l-1.14,1Z"/><polygon points="99.55 38.97 99.55 44.81 103.68 46.2 103.68 40.28 99.55 38.97" style="fill:#faaf34"/><polygon points="104.65 40.29 108.77 38.97 108.77 44.82 104.65 46.21 104.65 40.29" style="fill:#faaf34"/><polyline points="107.97 38.31 104.17 37.06 100.36 38.3 104.17 39.54 107.97 38.31" style="fill:#faaf34"/><polygon points="94.46 30.39 94.46 36.24 98.59 37.63 98.59 31.71 94.46 30.39" style="fill:#faaf34"/><polygon points="99.56 31.71 103.67 30.39 103.67 36.24 99.56 37.63 99.56 31.71" style="fill:#faaf34"/><polyline points="102.88 29.73 99.07 28.49 95.27 29.73 99.08 30.97 102.88 29.73" style="fill:#faaf34"/><polygon points="104.64 30.39 104.64 36.24 108.78 37.63 108.78 31.71 104.64 30.39" style="fill:#faaf34"/><polygon points="109.74 31.71 113.86 30.39 113.86 36.24 109.74 37.63 109.74 31.71" style="fill:#faaf34"/><polyline points="113.07 29.73 109.26 28.49 105.45 29.73 109.27 30.97 113.07 29.73" style="fill:#faaf34"/><polygon points="109.87 21.85 109.87 27.7 114 29.09 114 23.17 109.87 21.85" style="fill:#faaf34"/><polygon points="114.97 23.18 119.09 21.85 119.09 27.7 114.97 29.09 114.97 23.18" style="fill:#faaf34"/><polyline points="118.3 21.19 114.49 19.95 110.68 21.19 114.5 22.43 118.3 21.19" style="fill:#faaf34"/><polygon points="119.99 21.85 119.99 27.7 124.12 29.09 124.12 23.17 119.99 21.85" style="fill:#faaf34"/><polygon points="125.08 23.18 129.2 21.85 129.2 27.7 125.08 29.09 125.08 23.18" style="fill:#faaf34"/><polyline points="128.41 21.19 124.6 19.95 120.79 21.19 124.61 22.43 128.41 21.19" style="fill:#faaf34"/><path id="path5" d="M105.72,62.68h-.78v-6h0c-.08.31-.16.55-.2.66l-2.38,5.31H102l-2.34-5.27a4.15,4.15,0,0,1-.2-.7h0v6h-.78V55.78h1.05l2.11,4.8a6.19,6.19,0,0,1,.31.82h0a7.41,7.41,0,0,1,.35-.86l2.15-4.8h1Z" style="fill:#29a5de"/><path id="path7" d="M107.59,56.48a.38.38,0,0,1-.35-.16.7.7,0,0,1-.16-.35.42.42,0,0,1,.16-.35.48.48,0,0,1,.35-.16.38.38,0,0,1,.35.16.48.48,0,0,1,.16.35A.54.54,0,0,1,107.59,56.48Zm.39,6.2h-.78v-5h.8Z" style="fill:#29a5de"/><path id="path9" d="M112.67,62.45a2.54,2.54,0,0,1-1.37.35,2.24,2.24,0,0,1-1.72-.7,2.54,2.54,0,0,1-.66-1.8,2.72,2.72,0,0,1,.7-2,2.79,2.79,0,0,1,1.91-.74,2.36,2.36,0,0,1,1.17.27v.82a1.84,1.84,0,0,0-1.17-.39,1.68,1.68,0,0,0-1.25.55,2,2,0,0,0-.47,1.4,1.93,1.93,0,0,0,.47,1.37,1.51,1.51,0,0,0,1.21.51,2.08,2.08,0,0,0,1.21-.43v.74Z" style="fill:#29a5de"/><path id="path11" d="M116.22,58.55a1.11,1.11,0,0,0-1.48.31,2.1,2.1,0,0,0-.35,1.29v2.54h-.78v-5h.78v1h0a1.73,1.73,0,0,1,.51-.82,1.19,1.19,0,0,1,.78-.27,1.46,1.46,0,0,1,.47.08v.82Z" style="fill:#29a5de"/><path id="path13" d="M118.75,62.8a2.26,2.26,0,0,1-1.76-.7,2.58,2.58,0,0,1-.66-1.83,2.81,2.81,0,0,1,.66-2,2.47,2.47,0,0,1,1.87-.7,2.23,2.23,0,0,1,1.72.66,3,3,0,0,1,0,3.75A2.33,2.33,0,0,1,118.75,62.8Zm0-4.53a1.51,1.51,0,0,0-1.21.51,2.51,2.51,0,0,0,0,2.81,1.51,1.51,0,0,0,1.21.51,1.38,1.38,0,0,0,1.17-.51,2.51,2.51,0,0,0,0-2.81,1.5,1.5,0,0,0-1.13-.51Z" style="fill:#29a5de"/><path id="path15" d="M121.91,62.49v-.86a2.34,2.34,0,0,0,1.4.47q1.05,0,1.05-.7a1.14,1.14,0,0,0-.08-.35l-.23-.23c-.12-.08-.23-.12-.35-.2a1.37,1.37,0,0,0-.43-.16,2.69,2.69,0,0,1-.59-.27,1.73,1.73,0,0,1-.43-.31.81.81,0,0,1-.23-.39,2,2,0,0,1,0-.49,1.15,1.15,0,0,1,.16-.62,1.82,1.82,0,0,1,.39-.35,3.94,3.94,0,0,1,.59-.27,2.21,2.21,0,0,1,.7-.12,2.55,2.55,0,0,1,1.13.23v.78a2.23,2.23,0,0,0-1.25-.35,1.2,1.2,0,0,0-.39,0,.78.78,0,0,0-.31.16c-.08.08-.16.12-.2.23a.72.72,0,0,0-.08.27.74.74,0,0,0,.08.31,1,1,0,0,0,.2.23,2.18,2.18,0,0,0,.31.2,3.8,3.8,0,0,1,.43.2,2,2,0,0,1,.59.27,1.73,1.73,0,0,1,.43.31.89.89,0,0,1,.27.39,1.08,1.08,0,0,1,.12.51A1.06,1.06,0,0,1,125,62a1.13,1.13,0,0,1-.43.43,3,3,0,0,1-.62.27,4.32,4.32,0,0,1-.74.08A2.69,2.69,0,0,1,121.91,62.49Z" style="fill:#29a5de"/><path id="path17" d="M128.2,62.8a2.26,2.26,0,0,1-1.76-.7,2.58,2.58,0,0,1-.66-1.83,2.81,2.81,0,0,1,.66-2,2.59,2.59,0,0,1,1.87-.7,2.23,2.23,0,0,1,1.72.66A3,3,0,0,1,130,62,2.33,2.33,0,0,1,128.2,62.8Zm0-4.53a1.51,1.51,0,0,0-1.21.51,2.51,2.51,0,0,0,0,2.81,1.51,1.51,0,0,0,1.21.51,1.38,1.38,0,0,0,1.17-.51,2.51,2.51,0,0,0,0-2.81,1.44,1.44,0,0,0-1.13-.51Z" style="fill:#29a5de"/><path id="path19" d="M136.78,58.43v-.7h-1.25V56.28l-.78.27v1.21H132.6V57q0-1.05.82-1a1.08,1.08,0,0,1,.51.12v-.7a2.36,2.36,0,0,0-.59-.08,1.56,1.56,0,0,0-1.13.47,1.59,1.59,0,0,0-.43,1.21v.78h-.86v.66h.86V62.7h.78V58.43h2.15v2.93c0,1,.43,1.44,1.29,1.44a1.4,1.4,0,0,0,.74-.16V62a.78.78,0,0,1-.51.16.71.71,0,0,1-.55-.2,1.17,1.17,0,0,1-.16-.7V58.43Z" style="fill:#29a5de"/><path id="path21" d="M145.48,62.68h-.9l-.74-2h-2.93l-.7,2h-.9l2.69-6.9h.82ZM143.61,60l-1.09-2.93a2,2,0,0,1-.12-.47h0a4,4,0,0,1-.12.47L141.23,60Z" style="fill:#29a5de"/><path id="path23" d="M149.58,58l-2.93,4h2.89v.7h-4v-.23l2.93-4H145.8v-.7h3.79Z" style="fill:#29a5de"/><path id="path25" d="M154.34,62.68h-.78V61.9h0a1.61,1.61,0,0,1-1.52.9q-1.76,0-1.76-2.11v-3h.78V60.5c0,1,.39,1.56,1.21,1.56a1.19,1.19,0,0,0,.94-.43,1.72,1.72,0,0,0,.39-1.13V57.73h.78v5Z" style="fill:#29a5de"/><path id="path27" d="M158.25,58.55a.94.94,0,0,0-.59-.16,1,1,0,0,0-.86.47,2.1,2.1,0,0,0-.35,1.29v2.54h-.78v-5h.78v1h0a1.73,1.73,0,0,1,.51-.82,1.19,1.19,0,0,1,.78-.27,1.46,1.46,0,0,1,.47.08v.82Z" style="fill:#29a5de"/><path id="path29" d="M162.69,60.38h-3.47a1.9,1.9,0,0,0,.43,1.29,1.45,1.45,0,0,0,1.17.43,2.51,2.51,0,0,0,1.52-.55v.74a2.88,2.88,0,0,1-1.72.47A2.11,2.11,0,0,1,159,62.1a2.76,2.76,0,0,1-.59-1.87,2.67,2.67,0,0,1,.66-1.87,2.14,2.14,0,0,1,1.6-.74,1.81,1.81,0,0,1,1.48.62A2.66,2.66,0,0,1,162.7,60v.43Zm-.82-.66a1.62,1.62,0,0,0-.31-1,1.2,1.2,0,0,0-.9-.39,1.16,1.16,0,0,0-.94.39,1.65,1.65,0,0,0-.47,1Z" style="fill:#29a5de"/><path d="M20,58.59h1.14c.38,0,.3.07.31.3a2.73,2.73,0,0,1-1.59,2.82,3.24,3.24,0,0,1-3.46-.61,3,3,0,0,1-.64-3.58,3.17,3.17,0,0,1,3.32-1.69,3,3,0,0,1,1.47.68c.11.09.15.16,0,.27s-.27.35-.45.41-.31-.18-.47-.27a2.22,2.22,0,0,0-2.54.29,2.25,2.25,0,0,0-.53,2.63,2.19,2.19,0,0,0,2.25,1.26,1.82,1.82,0,0,0,1.71-1.43c0-.17,0-.22-.18-.22H18.85c-.18,0-.25,0-.25-.24,0-.6,0-.6.59-.6Z" style="fill:#757575"/><path d="M83.67,58.59a1.4,1.4,0,0,1,2.32.08A1.6,1.6,0,0,1,87,58a1.24,1.24,0,0,1,1.51.9l0,.1a21.17,21.17,0,0,1,.06,2.61c0,.1,0,.13-.14.14-.54.08-.59,0-.59-.51V59.63c0-.73-.23-1-.77-1a1,1,0,0,0-1,1s0,0,0,.07v1.82c0,.24-.07.31-.3.28s-.45.09-.42-.3V59.8a3.4,3.4,0,0,0,0-.5.68.68,0,0,0-.49-.63.84.84,0,0,0-.89.23,1.22,1.22,0,0,0-.34.88v1.76c0,.21-.05.29-.26.26h-.26c-.14,0-.19,0-.19-.18V58.31c0-.16.06-.21.21-.2h.21c.21,0,.32,0,.28.27A1.1,1.1,0,0,0,83.67,58.59Z" style="fill:#757575"/><path d="M44.35,62a2.74,2.74,0,0,1-2.59-1.69,2.91,2.91,0,0,1,.6-3.15,2.83,2.83,0,0,1,3.07-.58,2.89,2.89,0,0,1,.75.5c.13.11.16.21,0,.32a1.46,1.46,0,0,0-.21.2c-.09.1-.15.09-.26,0a2,2,0,0,0-3.43,1.27,2.09,2.09,0,0,0,3.54,1.84c.15-.15.22-.14.36,0,.33.35.34.35,0,.67A2.77,2.77,0,0,1,44.35,62Z" style="fill:#757575"/><path d="M55.12,61.35a1.48,1.48,0,0,1-1.64.54,1.22,1.22,0,0,1-.92-1.16V58.3c0-.11,0-.15.15-.16.52-.06.56,0,.56.49V60.3c0,.56.28,1,.82,1a1,1,0,0,0,1-1V58.39c0-.36.19-.29.4-.31s.34.06.33.32v3c0,.21,0,.36-.28.33s-.48.07-.4-.31A.92.92,0,0,0,55.12,61.35Z" style="fill:#757575"/><path d="M74.15,60.3V59c0-.21-.07-.28-.27-.25H73.8a.38.38,0,0,1-.35-.57.11.11,0,0,1,.11-.07h.15c.44,0,.44,0,.44-.46a1.15,1.15,0,0,1,.91-1.23,2,2,0,0,1,.73,0c.15,0,.24.07.16.26s-.17.43-.52.38-.56.2-.58.55v.29c0,.09,0,.24.21.22h.32c.42,0,.51.12.42.54,0,.11-.09.11-.17.11H75.1c-.21,0-.26.07-.26.27v2.49c0,.23-.06.3-.29.29-.42,0-.42,0-.42-.42S74.15,60.67,74.15,60.3Z" style="fill:#757575"/><path d="M35.76,58.93v2.64c0,.21-.06.26-.26.26-.62,0-.62,0-.62-.62V56.28c0-.23.06-.3.29-.29.59,0,.59,0,.59.6Z" style="fill:#757575"/><path d="M71.51,59.93V59c0-.29,0-.27-.26-.27s-.48-.13-.39-.53c0-.17.16-.11.25-.11.39,0,.39,0,.39-.39a2.88,2.88,0,0,0,0-.41c0-.28.07-.35.34-.33.42,0,.37,0,.37.38a2.27,2.27,0,0,0,0,.69c.07.16.44,0,.66.06s.19.06.2.21c0,.44,0,.44-.43.44s-.48,0-.48.48v1.41c0,.47.2.61.65.57.15,0,.35.24.37.48s-.16.15-.25.16a1.14,1.14,0,0,1-1.48-1.25A3.52,3.52,0,0,0,71.51,59.93Z" style="fill:#757575"/><path d="M47.73,59.14v2.4c0,.23-.06.3-.29.29-.42,0-.42,0-.42-.42V56.72c0-.34.18-.28.38-.29s.35,0,.34.3C47.71,57.54,47.73,58.34,47.73,59.14Z" style="fill:#757575"/><path d="M66.65,59.13v2.43c0,.19,0,.28-.25.27-.47,0-.47,0-.47-.46V56.71c0-.35.19-.27.38-.29s.36,0,.35.3C66.63,57.53,66.65,58.33,66.65,59.13Z" style="fill:#757575"/><path d="M81,58.67a1.32,1.32,0,0,1,1.31-.61c.21,0,.32,0,.21.32s-.19.42-.55.39a.93.93,0,0,0-1,1v1.79c0,.23-.07.3-.28.27h-.18c-.21,0-.26,0-.26-.26V58.46c0-.2,0-.36.28-.33s.47,0,.41.33A1.32,1.32,0,0,0,81,58.67Z" style="fill:#757575"/><path d="M34.29,58.6c0-.51,0-.5-.5-.52-.21,0-.38,0-.34.3a1.7,1.7,0,0,0-2.4.17h0a2,2,0,0,0-.14,2.65,1.8,1.8,0,0,0,2.52.35h0a1.61,1.61,0,0,1,0,.52.93.93,0,0,1-.72.82.94.94,0,0,1-1.09-.37c-.19-.29-.35-.3-.6-.14a.54.54,0,0,1-.16.07c-.23,0-.2.17-.1.33a2,2,0,0,0,2.2.88,1.79,1.79,0,0,0,1.34-1.87C34.3,60.74,34.29,59.67,34.29,58.6Zm-1.85,2.55a1.2,1.2,0,1,1,1-1A1.2,1.2,0,0,1,32.44,61.15Z" style="fill:#757575"/><path d="M60.07,58.48V56.66c0-.09,0-.19-.11-.23-.45-.1-.59,0-.59.45v1.71A1.59,1.59,0,0,0,57.85,58a1.85,1.85,0,0,0-1.47,1.59,2,2,0,0,0,1,2.12,1.66,1.66,0,0,0,2.07-.42c-.14.49.09.5.38.5s.27-.07.27-.28C60.06,60.53,60.07,59.5,60.07,58.48Zm-.76,2a1.12,1.12,0,0,1-1.39.77l-.08,0A1.27,1.27,0,0,1,57.06,60a1.19,1.19,0,0,1,1.51-1.26,1.36,1.36,0,0,1,.74,1.76Z" style="fill:#757575"/><path d="M23.78,58a2,2,0,1,0,2,2A2,2,0,0,0,23.78,58Zm0,3.2A1.16,1.16,0,0,1,22.67,60a1.12,1.12,0,1,1,2.23,0,1.16,1.16,0,0,1-1.12,1.16Z" style="fill:#757575"/><path d="M28.14,58a2,2,0,1,0,.06,0Zm0,3.2A1.16,1.16,0,0,1,27,60s0,0,0-.07a1.12,1.12,0,1,1,2.23,0,1.15,1.15,0,0,1-1.09,1.21h0Z" style="fill:#757575"/><path d="M37.42,60.47c.74-.29,1.46-.6,2.19-.91.08,0,.22,0,.19-.19a1.86,1.86,0,0,0-3.64.71,1.94,1.94,0,0,0,2,1.87,1.92,1.92,0,0,0,1.23-.4c.54-.42.53-.43,0-.81-.18-.12-.25-.1-.39.06a1.08,1.08,0,0,1-1.52.09l-.09-.09C37.22,60.64,37.2,60.56,37.42,60.47ZM37,59.89a1.07,1.07,0,0,1,.55-1,.9.9,0,0,1,1,0c.1.06.23.13.21.26s-.15.1-.24.13Z" style="fill:#757575"/><path d="M64.13,56.48a14.53,14.53,0,0,0-2,0c-.18,0-.13.13-.13.23v4.84c0,.24,0,.38.31.32h.15c.21,0,.26,0,.26-.26V59.94c0-.19,0-.26.24-.25h1a1.64,1.64,0,0,0,1.61-1.45,1.57,1.57,0,0,0-1.36-1.75Zm.59,1.78a.89.89,0,0,1-.81.7H62.83c-.12,0-.17,0-.17-.17V58c0-.31-.13-.62.06-.79s.54,0,.82,0a1.22,1.22,0,0,1,.84.18.94.94,0,0,1,.33.93Z" style="fill:#757575"/><path d="M70.51,59.42a1.43,1.43,0,0,0-1.15-1.34,1.71,1.71,0,0,0-1.89.65c0,.06-.1.14-.06.18a1.58,1.58,0,0,0,.52.25c.14.06.14-.1.2-.16a1,1,0,0,1,1-.3.83.83,0,0,1,.68.65c0,.18,0,.28-.21.2a2.17,2.17,0,0,0-1.6,0,1.21,1.21,0,0,0,.15,2.3,1.52,1.52,0,0,0,1.65-.5c.06.45.06.45.47.44h.06c.14,0,.18,0,.18-.18C70.51,60.9,70.53,60.16,70.51,59.42Zm-.81,1.32a1.12,1.12,0,0,1-1.31.51A.55.55,0,0,1,68,60.8a.6.6,0,0,1,.26-.58A1.21,1.21,0,0,1,69,60a1.44,1.44,0,0,1,.43.06c.45.13.51.28.27.67Z" style="fill:#757575"/><path d="M77.88,58a2,2,0,1,0,1.9,2.1s0-.06,0-.1A1.88,1.88,0,0,0,78,58Zm0,3.29a1.33,1.33,0,0,1,0-2.65A1.26,1.26,0,0,1,79.08,60v0a1.25,1.25,0,0,1-1.19,1.31h0Z" style="fill:#757575"/><path d="M50.13,58a2,2,0,0,0,0,3.94A1.86,1.86,0,0,0,52,60.09s0,0,0,0A1.88,1.88,0,0,0,50.31,58Zm.36,3.23a1.15,1.15,0,0,1-1.26-.37,1.5,1.5,0,0,1-.11-1.62,1.15,1.15,0,0,1,1.3-.55,1.36,1.36,0,0,1,.08,2.54Z" style="fill:#757575"/><path d="M46.27,46.09,40.7,36.44l5.57-9.65H57.42L63,36.44l-5.57,9.65H46.27" style="fill:#c9c8c1"/><path d="M52,40.84a4.34,4.34,0,1,1,4.34-4.34h0A4.35,4.35,0,0,1,52,40.84" style="fill:#fff"/><path d="M60.77,23.55a2.39,2.39,0,0,0-1.86-1.08H45.17a2.39,2.39,0,0,0-1.86,1.08l-4,7a2.28,2.28,0,0,0,.25,1.26l2.72,4.64L47.11,28H62.44a2.24,2.24,0,0,1,1.12.35l-2.79-4.83" style="fill:#4d6eab"/><path d="M39.47,30.2l-.18.3a2.28,2.28,0,0,0,.25,1.26l2.72,4.64,1.44-2.5-4.23-3.7" style="fill:#4b6497"/><path d="M45.53,26a.84.84,0,1,1,.84-.84.84.84,0,0,1-.84.84h0" style="fill:#fff"/><path d="M59.26,25.21a.78.78,0,1,1-.78-.78h0A.78.78,0,0,1,59.26,25.21Z" style="fill:#fff"/><path d="M67.63,35.44l-4.08-7.06A2.24,2.24,0,0,0,62.44,28H56.91l4.78,8.42-7.57,13.4a2.19,2.19,0,0,1-.78.74H58.9a2.39,2.39,0,0,0,1.86-1.08L67.63,37.6a2.39,2.39,0,0,0,0-2.15" style="fill:#dd2715"/><path d="M63.74,28.7l-.18-.32A2.23,2.23,0,0,0,62.44,28H56.91l1.44,2.54,5.39-1.87" style="fill:#c12c22"/><path d="M58.48,48.51a.84.84,0,1,1,.84-.84.84.84,0,0,1-.84.84h0" style="fill:#fff"/><path d="M65,37.34a.84.84,0,1,1,.84-.84h0a.84.84,0,0,1-.84.84" style="fill:#fff"/><path d="M47.22,44.88,39.55,31.76a2.28,2.28,0,0,1-.25-1.26l-2.85,4.94a2.39,2.39,0,0,0,0,2.15l6.87,11.89a2.39,2.39,0,0,0,1.86,1.08h8.17a2.18,2.18,0,0,0,.78-.74l2.8-4.94h-9.7" style="fill:#f4b000"/><path d="M52.88,50.56h.48a2.18,2.18,0,0,0,.78-.74l2.8-4.94H54l-1.07,5.69" style="fill:#cd971c"/><path d="M45.53,48.51a.84.84,0,1,1,.84-.84.84.84,0,0,1-.84.84h0" style="fill:#fff"/><path d="M39,37.34a.84.84,0,1,1,.84-.84.84.84,0,0,1-.84.84h0" style="fill:#fff"/><path d="M120.32,34.64a2.93,2.93,0,0,1-.28,1.58,1.21,1.21,0,0,1-1,.68c-.57,0-.91-.44-.91-1.08,0-1.27,1.14-1.5,2.22-1.5v.32" style="fill:#fff"/><path d="M139.8,34.64a2.93,2.93,0,0,1-.28,1.58,1.21,1.21,0,0,1-1,.68c-.57,0-.91-.44-.91-1.08,0-1.27,1.14-1.5,2.22-1.5v.32" style="fill:#fff"/></svg>