<svg id="Layer_1" data-name="Layer 1" xmlns="http://www.w3.org/2000/svg" viewBox="0 0 730 193"><defs><style>.cls-1{fill:#a9a9aa;}.cls-2{fill:#eb6852;}.cls-3{fill:#ce5a4a;}.cls-4{fill:#ff9012;}.cls-5{fill:#e87e13;}.cls-6{fill:#87b09a;}.cls-7{fill:#fff;}.cls-8{fill:#80c4d6;}.cls-10,.cls-9{fill:none;}.cls-9{stroke:#fff;stroke-linecap:round;stroke-linejoin:round;stroke-width:2px;}.cls-10{stroke:#80c4d6;stroke-miterlimit:10;}</style></defs><title>team icon</title><path class="cls-1" d="M404.07,145.56h-3.71v-1.24h3.71Zm-8.66,0h-3.71v-1.24h3.71Zm-8.66,0H383v-1.24h3.71Zm-8.66,0h-3.71v-1.24h3.71Zm-8.66,0H365.7v-1.24h3.71Zm-8.66,0H357v-1.24h3.71Zm-8.66,0h-3.71v-1.24h3.71Zm-8.66,0h-3.71v-1.24h3.71Zm-8.66,0H331v-1.24h3.71Zm-8.66,0h-3.71v-1.24h3.71Zm-8.66,0h-3.71v-1.24h3.71Zm-8.66,0h-3.71v-1.24h3.71Zm-8.66,0h-3.71v-1.24h3.71Zm-8.66,0h-3.71v-1.24h3.71Zm-8.66,0h-3.71v-1.24h3.71Zm-8.66,0H270.4v-1.24h3.71Zm-8.66,0h-3.71v-1.24h3.71Zm-8.66,0h-3.71v-1.24h3.71Zm-8.66,0h-3.71v-1.24h3.71Zm-8.66,0h-3.71v-1.24h3.71Zm-8.66,0h-3.71v-1.24h3.71Zm-8.66,0h-3.71v-1.24h3.71Zm-8.66,0h-3.71v-1.24h3.71Zm-8.66,0h-3.71v-1.24h3.71Zm-8.66,0h-3.71v-1.24h3.71Zm-8.66,0h-3.71v-1.24h3.71Zm-8.66,0h-3.71v-1.24h3.71Zm-8.66,0h-3.71v-1.24h3.71Zm-8.66,0h-3.71v-1.24h3.71Zm-8.66,0H149.1v-1.24h3.71Zm-8.66,0h-3.71v-1.24h3.71Zm-8.66,0h-3.71v-1.24h3.71Zm-8.66,0h-3.71v-1.24h3.71Zm-8.66,0h-3.71v-1.24h3.71Zm-8.66,0h-3.71v-1.24h3.71Zm-8.66,0H97.12v-1.24h3.71Zm-8.66,0H88.45v-1.24h3.71Zm-8.66,0H79.79v-1.24H83.5Zm-8.66,0H71.13v-1.24h3.71Zm-8.66,0H62.46v-1.24h3.71Zm-8.66,0H53.8v-1.24h3.71Zm-8.66,0H45.13v-1.24h3.71Z"/><path class="cls-1" d="M164,144.44l-1.07-.62,1.85-3.22,1.07.62Zm4.33-7.51-1.07-.62,1.85-3.22,1.07.62Zm4.33-7.51-1.07-.62,1.85-3.22,1.07.62ZM177,121.9l-1.07-.62,1.85-3.22,1.07.62Zm4.33-7.51-1.07-.62,1.85-3.22,1.07.62Zm4.33-7.51-1.07-.62,1.85-3.22,1.07.62ZM190,99.36l-1.07-.62,1.85-3.22,1.07.62Zm4.33-7.51-1.07-.62L195.08,88l1.07.62Zm4.33-7.51-1.07-.62,1.86-3.22,1.07.62ZM203,76.82l-1.07-.62L203.74,73l1.07.62Zm4.33-7.51-1.07-.62,1.86-3.22,1.07.62Zm4.33-7.51-1.07-.62,1.86-3.22,1.07.62Zm4.33-7.51-1.07-.62,1.86-3.22,1.07.62Zm4.33-7.51-1.07-.62L221,42.92l1.07.62Zm4.33-7.51-1.07-.62,1.85-3.22,1.07.62Zm4.33-7.51-1.07-.62,1.85-3.22,1.07.62Zm4.33-7.51-1.07-.62L234,20.38l1.07.62Z"/><path class="cls-1" d="M161.88,144.4,160,141.18l1.07-.62,1.86,3.22Zm-4.33-7.51-1.86-3.22,1.07-.62,1.86,3.22Zm-4.33-7.51-1.86-3.22,1.07-.62,1.86,3.22Zm-4.33-7.51L147,118.64l1.07-.62,1.86,3.22Zm-4.33-7.51-1.86-3.22,1.07-.62,1.86,3.22Zm-4.33-7.51-1.86-3.22,1.07-.62,1.86,3.22Zm-4.33-7.51L134,96.11l1.07-.62L137,98.71Zm-4.33-7.51L129.7,88.6l1.07-.62,1.86,3.22Zm-4.33-7.51-1.86-3.22,1.07-.62,1.86,3.22Zm-4.33-7.51L121,73.58,122.1,73,124,76.18Zm-4.33-7.51-1.86-3.22,1.07-.62,1.86,3.22Zm-4.33-7.51-1.86-3.22,1.07-.62,1.86,3.22Zm-4.33-7.51L108,51l1.07-.62L111,53.64Zm-4.33-7.51-1.86-3.22,1.07-.62,1.86,3.22Zm-4.33-7.51L99.37,36l1.07-.62,1.86,3.22ZM96.9,31.73,95,28.51l1.07-.62L98,31.11Zm-4.33-7.51L90.71,21l1.07-.62,1.86,3.22Z"/><path class="cls-1" d="M675.37,145.56h-3.71v-1.24h3.71Zm-8.66,0H663v-1.24h3.71Zm-8.66,0h-3.71v-1.24H658Zm-8.66,0h-3.71v-1.24h3.71Zm-8.66,0H637v-1.24h3.71Zm-8.66,0h-3.71v-1.24H632Zm-8.66,0h-3.71v-1.24h3.71Zm-8.66,0H611v-1.24h3.71Zm-8.66,0h-3.71v-1.24h3.71Zm-8.66,0h-3.71v-1.24h3.71Zm-8.66,0H585v-1.24h3.71Zm-8.66,0h-3.71v-1.24h3.71Zm-8.66,0h-3.71v-1.24h3.71Zm-8.66,0H559v-1.24h3.71Zm-8.66,0h-3.71v-1.24h3.71Zm-8.66,0h-3.71v-1.24h3.71Zm-8.66,0H533v-1.24h3.71Zm-8.66,0h-3.71v-1.24h3.71Zm-8.66,0H515.7v-1.24h3.71Zm-8.66,0H507v-1.24h3.71Zm-8.66,0h-3.71v-1.24h3.71Zm-8.66,0h-3.71v-1.24h3.71Zm-8.66,0H481v-1.24h3.71Zm-8.66,0h-3.71v-1.24h3.71Zm-8.66,0h-3.71v-1.24h3.71Zm-8.66,0h-3.71v-1.24h3.71Zm-8.66,0h-3.71v-1.24h3.71Zm-8.66,0h-3.71v-1.24h3.71Zm-8.66,0h-3.71v-1.24h3.71Zm-8.66,0H420.4v-1.24h3.71Zm-8.66,0h-3.71v-1.24h3.71Zm-8.66,0h-1.42v-1.24h1.42Z"/><path class="cls-1" d="M568.89,144.4l-1.07-.62,1.86-3.22,1.07.62Zm4.33-7.51-1.07-.62L574,133l1.07.62Zm4.33-7.51-1.07-.62,1.86-3.22,1.07.62Zm4.33-7.51-1.07-.62,1.86-3.22,1.07.62Zm4.33-7.51-1.07-.62,1.86-3.22,1.07.62Zm4.33-7.51-1.07-.62,1.86-3.22,1.07.62Zm4.33-7.51-1.07-.62,1.86-3.22,1.07.62Zm4.33-7.51-1.07-.62L600,88l1.07.62Zm4.33-7.51-1.07-.62,1.86-3.22,1.07.62Zm4.33-7.51-1.07-.62L608.66,73l1.07.62Zm4.33-7.51-1.07-.62L613,65.44l1.07.62Zm4.33-7.51-1.07-.62,1.86-3.22,1.07.62Zm4.33-7.51-1.07-.62,1.86-3.22,1.07.62Zm4.33-7.51-1.07-.62L626,42.91l1.07.62Zm4.33-7.51-1.07-.62,1.86-3.22,1.07.62Zm4.33-7.51-1.07-.62,1.86-3.22,1.07.62Zm4.33-7.51-1.07-.62L639,20.38l1.07.62Z"/><path class="cls-1" d="M567.06,144.27l-1.86-3.22,1.07-.62,1.86,3.22Zm-4.35-7.5-1.86-3.22,1.07-.62,1.86,3.22Zm-4.35-7.5L556.51,126l1.07-.62,1.86,3.22Zm-4.35-7.5-1.86-3.22,1.07-.62,1.86,3.22Zm-4.35-7.5L547.82,111l1.07-.62,1.86,3.22Zm-4.35-7.5-1.86-3.22,1.07-.62,1.86,3.22ZM541,99.25,539.13,96l1.07-.62,1.86,3.22Zm-4.35-7.5-1.86-3.22,1.07-.62,1.86,3.22Zm-4.35-7.5L530.43,81l1.07-.62,1.86,3.22ZM528,76.74l-1.86-3.22,1.07-.62L529,76.11Zm-4.35-7.5L521.74,66l1.07-.62,1.86,3.22Zm-4.35-7.5-1.86-3.22,1.07-.62,1.86,3.22Zm-4.35-7.5L513,51l1.07-.62L516,53.6Zm-4.35-7.5-1.86-3.22,1.07-.62,1.86,3.22Zm-4.35-7.5L504.36,36l1.07-.62,1.86,3.22Zm-4.35-7.5L500,28.5l1.07-.62,1.86,3.22Zm-4.35-7.5L495.67,21l1.07-.62,1.86,3.22Z"/><path class="cls-2" d="M127,130.08c.56-19.72,17-32.67,31.36-32.67,17.66,0,32.56,9.17,35,28.5a47.41,47.41,0,0,0,.84,4.77c1,4.47,2.82,15.07,4.62,22.71a1.83,1.83,0,0,1-1.78,2.26h-3.33v9.88a15.55,15.55,0,0,1-15.54,15.56h-1.87v9.34c0,1.75,0,2.43-3.41,2.43L129,193a1.64,1.64,0,0,1-1.63-1.64C127.35,149.05,126.78,140.1,127,130.08Z"/><circle class="cls-3" cx="183.9" cy="128.52" r="3.08"/><path class="cls-4" d="M603.62,191.36A1.64,1.64,0,0,1,602,193l-44-.14c-3.41,0-3.41-.68-3.41-2.43v-9.34h-1.87a15.55,15.55,0,0,1-15.54-15.56v-9.88h-3.33a1.83,1.83,0,0,1-1.78-2.26c1.81-7.64,3.58-18.24,4.62-22.71a47.41,47.41,0,0,0,.84-4.77c2.47-19.33,17.37-28.5,35-28.5,14.34,0,30.8,13,31.36,32.67C604.19,140.1,603.62,149.05,603.62,191.36Z"/><circle class="cls-5" cx="547.07" cy="128.52" r="3.08"/><ellipse class="cls-6" cx="365.48" cy="144.57" rx="37.13" ry="37.17"/><path class="cls-7" d="M384,141.21,368.85,126a4.75,4.75,0,0,0-6.72,0l-15.18,15.19a4.76,4.76,0,0,0,0,6.73l15.18,15.19a4.75,4.75,0,0,0,6.72,0L384,147.94A4.77,4.77,0,0,0,384,141.21Zm-6.92,3.67-2.79,2.79a.44.44,0,0,1-.74-.31v-1a.44.44,0,0,0-.44-.44H371.6a.44.44,0,0,0-.44.44v2a.44.44,0,0,0,.44.44h.51a.44.44,0,0,1,.31.74l-2.79,2.79a.43.43,0,0,1-.62,0l-2.79-2.79a.44.44,0,0,1,.31-.74h.61a.44.44,0,0,0,.44-.44v-2a.44.44,0,0,0-.44-.44H363.8a.44.44,0,0,0-.44.44v2a.44.44,0,0,0,.44.44h.63a.44.44,0,0,1,.31.74L362,152.36a.44.44,0,0,1-.62,0l-2.79-2.79a.44.44,0,0,1,.31-.74h.49a.44.44,0,0,0,.44-.44v-2a.44.44,0,0,0-.44-.44h-1.51a.44.44,0,0,0-.44.44v1a.44.44,0,0,1-.74.31l-2.79-2.79a.44.44,0,0,1,0-.62l2.79-2.79a.44.44,0,0,1,.74.31v1a.44.44,0,0,0,.44.44h1.51a.44.44,0,0,0,.44-.44v-2a.44.44,0,0,0-.44-.44h-.49a.44.44,0,0,1-.31-.74l2.79-2.79a.44.44,0,0,1,.62,0l2.79,2.79a.44.44,0,0,1-.31.74h-.63a.44.44,0,0,0-.44.44v2a.44.44,0,0,0,.44.44h3.35a.44.44,0,0,0,.44-.44v-2a.44.44,0,0,0-.44-.44h-.61a.44.44,0,0,1-.31-.74l2.79-2.79a.44.44,0,0,1,.62,0l2.79,2.79a.44.44,0,0,1-.31.74h-.51a.43.43,0,0,0-.44.44v2a.44.44,0,0,0,.44.44h1.53a.44.44,0,0,0,.44-.44v-1a.44.44,0,0,1,.74-.31l2.79,2.79A.44.44,0,0,1,377.1,144.88Z"/><ellipse class="cls-8" cx="224.88" cy="37.17" rx="37.13" ry="37.17"/><path class="cls-7" d="M245.82,34.2a1.89,1.89,0,0,0-1.37-.59H226.32a11.26,11.26,0,1,0,0,7.12H235L237.29,43a1.48,1.48,0,0,0,2.1,0l2.31-2.31.75.75a1.43,1.43,0,0,0,2,0l3.35-4.29Zm-33-.43a3.41,3.41,0,1,1-3.4,3.41A3.4,3.4,0,0,1,212.85,33.77Z"/><ellipse class="cls-8" cx="37.13" cy="145.21" rx="37.13" ry="37.17"/><line class="cls-9" x1="25.7" y1="133.45" x2="35.84" y2="133.45"/><line class="cls-9" x1="39.39" y1="133.45" x2="45.98" y2="133.45"/><line class="cls-9" x1="50.63" y1="150.09" x2="57.22" y2="150.09"/><line class="cls-9" x1="33.88" y1="141.73" x2="53.29" y2="141.73"/><line class="cls-9" x1="47.04" y1="150.09" x2="33.88" y2="150.09"/><line class="cls-9" x1="19.71" y1="149.95" x2="20.3" y2="149.95"/><line class="cls-9" x1="19.71" y1="141.6" x2="20.3" y2="141.6"/><line class="cls-9" x1="19.71" y1="133.31" x2="20.3" y2="133.31"/><line class="cls-9" x1="25.7" y1="158.24" x2="35.84" y2="158.24"/><line class="cls-9" x1="39.39" y1="158.24" x2="45.98" y2="158.24"/><line class="cls-9" x1="19.71" y1="158.1" x2="20.3" y2="158.1"/><ellipse class="cls-8" cx="506.19" cy="37.83" rx="37.13" ry="37.17"/><path id="_Compound_Path_" data-name="&lt;Compound Path&gt;" class="cls-7" d="M530.43,45.74a.53.53,0,0,0-.44-.52L528.6,45a5.77,5.77,0,0,0-.62-1.5l.82-1.15a.53.53,0,0,0-.06-.69l-.49-.49-.49-.49a.55.55,0,0,0-.68,0l-1.14.82a5.75,5.75,0,0,0-1.5-.62l-.24-1.39a.53.53,0,0,0-.52-.44h-1.39a.53.53,0,0,0-.52.44l-.23,1.39a5.43,5.43,0,0,0-1.53.65l-1.14-.81a.53.53,0,0,0-.69.06l-.49.49-.49.49a.54.54,0,0,0-.06.69l.82,1.16a5.86,5.86,0,0,0-.61,1.5l-1.38.22a.53.53,0,0,0-.44.52v1.39a.53.53,0,0,0,.44.52l1.4.23a5.73,5.73,0,0,0,.63,1.49l-.81,1.14a.53.53,0,0,0,.06.69l.49.49.49.49a.54.54,0,0,0,.69.06l1.16-.82a5.85,5.85,0,0,0,1.5.61l.23,1.38a.53.53,0,0,0,.52.44h1.39a.53.53,0,0,0,.52-.44l.23-1.4a5.78,5.78,0,0,0,1.46-.61l1.14.82a.53.53,0,0,0,.69-.06l.49-.49.49-.49a.54.54,0,0,0,.06-.69L528,49.39a5.76,5.76,0,0,0,.62-1.5l1.39-.24a.53.53,0,0,0,.44-.52v-1.4Zm-5.13,3a3.24,3.24,0,1,1,0-4.58A3.23,3.23,0,0,1,525.3,48.69Z"/><circle id="_Path_" data-name="&lt;Path&gt;" class="cls-7" cx="523.01" cy="46.41" r="1.91"/><path class="cls-7" d="M503.73,48a30.68,30.68,0,0,1-12.81-2.49.55.55,0,0,0-.8.49v1.58c0,1.76,5.3,4.31,13.61,4.31a31.38,31.38,0,0,0,8.93-1.18A.55.55,0,0,0,513,50a10.55,10.55,0,0,1-.54-2.4.54.54,0,0,0-.66-.48A36.26,36.26,0,0,1,503.73,48Z"/><path class="cls-7" d="M514.32,40.34a.75.75,0,0,0-.83-1.15,34.54,34.54,0,0,1-9.77,1.34A30.73,30.73,0,0,1,491,38.06a.59.59,0,0,0-.85.52v1.25c0,1.52,5.17,4.31,13.61,4.31a30,30,0,0,0,9.06-1.27.57.57,0,0,0,.35-.34A10.57,10.57,0,0,1,514.32,40.34Z"/><path class="cls-7" d="M503.73,28.57c8.84,0,13.61-2.76,13.61-3.89s-4.77-3.89-13.61-3.89-13.61,2.76-13.61,3.89S494.89,28.57,503.73,28.57Z"/><path class="cls-7" d="M503.73,36.63c8.44,0,13.61-2.79,13.61-4.31V30.78a.67.67,0,0,0-.94-.62,32.36,32.36,0,0,1-12.67,2.3,32.36,32.36,0,0,1-12.67-2.3.67.67,0,0,0-.94.62v1.54C490.12,33.84,495.29,36.63,503.73,36.63Z"/><ellipse class="cls-8" cx="630.26" cy="37.87" rx="37.13" ry="37.17"/><circle class="cls-7" cx="624.31" cy="33.04" r="1.82" transform="translate(515.87 648.75) rotate(-83.04)"/><circle class="cls-7" cx="626.66" cy="39.13" r="0.94" transform="translate(108.87 394.27) rotate(-38.02)"/><circle class="cls-7" cx="631.58" cy="34.63" r="1.11"/><path class="cls-7" d="M634.56,46.19l12.72,12.63a1.37,1.37,0,0,0,1.94,0l.08-.08h0l1.37-1.37a1.37,1.37,0,0,0,.24-.34,1.39,1.39,0,0,0,.16-.58s0,0,0,0,0,0,0,0a1.37,1.37,0,0,0-.4-.93L638,42.73c-.27-.27-.7.95-.7.95h0a13,13,0,0,0,2.86-6.55,12.92,12.92,0,0,0,0-3.5c0-.31-.2-1.15-.23-1.27l0-.14c0-.09,0-.18-.07-.27s0-.19-.08-.28a.8.8,0,0,0,0-.12c0-.15-.09-.29-.14-.43s-.11-.3-.16-.45l0,0-.19-.45-.21-.46c-.09-.2-.19-.38-.29-.57l-.18-.32c-.1-.17-.2-.34-.31-.51l-.34-.5-.21-.28-.17-.22a13.42,13.42,0,0,0-1-1.1l-.13-.13a12.6,12.6,0,0,0-1-.93l-.28-.21-.4-.29-.33-.22-.39-.24L633.6,24l-.47-.25-.32-.16c-.29-.14-.58-.26-.88-.38l-.38-.14a13,13,0,0,0-16,6.53l-.06.13a13,13,0,0,0,16.1,17.95,8.86,8.86,0,0,0,3.29-1.74m-7.65-2.11a8.44,8.44,0,1,1,8.43-8.44A8.43,8.43,0,0,1,627.26,43.81Z"/><ellipse class="cls-8" cx="101.15" cy="37.21" rx="37.13" ry="37.17"/><path class="cls-7" d="M120.54,48.2l-5.61-5a1.52,1.52,0,0,0-1.57-.28l-.47.19a17.61,17.61,0,0,0,.33-3.42,17.15,17.15,0,0,0-1.18-6.3l1.56-.61,4.91,4.4a1.52,1.52,0,0,0,2-2.27l-5.61-5a1.52,1.52,0,0,0-1.57-.28l-2.71,1.07A12.74,12.74,0,0,0,106,26.27l1.65-3.79s.44-1.38-.66-2a1.59,1.59,0,0,0-2.17.82l-1.68,3.9a10.06,10.06,0,0,0-3.94,0l-1.68-3.9a1.67,1.67,0,0,0-2.15-1.06,1.75,1.75,0,0,0-.66,2.37l1.62,3.61a12.74,12.74,0,0,0-4.65,4.37l-2.71-1.07a1.52,1.52,0,0,0-1.57.28l-5.61,5a1.52,1.52,0,1,0,2,2.27l4.91-4.4,1.55.61a17.15,17.15,0,0,0-1.18,6.3,17.6,17.6,0,0,0,.33,3.42l-.47-.19a1.52,1.52,0,0,0-1.57.28l-5.61,5a1.52,1.52,0,1,0,2,2.27l4.91-4.4,1.93.76c2.07,4.44,6,7.44,10.51,7.44s8.44-3,10.51-7.44l1.93-.76,4.91,4.4a1.52,1.52,0,0,0,2-2.27ZM94.64,35a2,2,0,1,1,2,2A2,2,0,0,1,94.64,35Zm5.67,14.89a2,2,0,1,1,2-2A2,2,0,0,1,100.31,49.84Zm3.88-11.48a2.21,2.21,0,1,1,2.21,2.21A2.21,2.21,0,0,1,104.19,38.36Z"/><ellipse class="cls-8" cx="692.87" cy="144.57" rx="37.13" ry="37.17"/><path class="cls-7" d="M708.15,155.38A7.29,7.29,0,0,0,709.79,141a13.33,13.33,0,0,0-25-6.33,5.68,5.68,0,0,0-7.89,4.48,8.2,8.2,0,0,0,1.6,16.24Z"/><circle class="cls-8" cx="695.92" cy="137.62" r="2.84"/><circle class="cls-8" cx="686.7" cy="146.17" r="2.84"/><circle class="cls-8" cx="701.6" cy="146.17" r="2.84"/><line class="cls-10" x1="695.92" y1="137.62" x2="686.7" y2="146.17"/><line class="cls-10" x1="701.6" y1="146.17" x2="695.92" y2="137.62"/><line class="cls-10" x1="701.6" y1="146.17" x2="686.7" y2="146.17"/></svg>