<svg id="Layer_1" data-name="Layer 1" xmlns="http://www.w3.org/2000/svg" xmlns:xlink="http://www.w3.org/1999/xlink" viewBox="0 0 240 858"><defs><style>.cls-1,.cls-8{fill:#28afa4;}.cls-2{fill:#5c6670;}.cls-3,.cls-9{fill:#fff;}.cls-4{isolation:isolate;}.cls-5{fill:#c3c6c8;}.cls-6{fill:url(#linear-gradient);}.cls-7{fill:none;}.cls-7,.cls-8{stroke:#35839c;stroke-width:4px;}.cls-9{fill-opacity:0.1;}</style><linearGradient id="linear-gradient" x1="-184.07" y1="825.59" x2="-185.06" y2="825.59" gradientTransform="matrix(0, 487.99, 170.27, 0, -140450.17, 90453.16)" gradientUnits="userSpaceOnUse"><stop offset="0" stop-color="#35809b"/><stop offset="1" stop-color="#25b8a7"/></linearGradient></defs><title>Artboard 1</title><g id="Pricing"><g id="Habitat-Website-V3_Pricing-Current---Mobile" data-name="Habitat-Website-V3/Pricing-Current---Mobile"><g id="infographic-choose-platform-mobile"><g id="habitize"><rect id="Rectangle" class="cls-1" x="138" width="64" height="64" rx="4" ry="4"/><circle id="Oval" class="cls-2" cx="170" cy="32" r="21"/><circle id="Oval-Copy" class="cls-3" cx="52" cy="32" r="18"/><g id="Build-the-applicatio" class="cls-4"><g class="cls-4"><path class="cls-5" d="M40.65,94.31h3.51a3.31,3.31,0,0,1,2.16.6A2.28,2.28,0,0,1,47,96.78a2.72,2.72,0,0,1-.31,1.42,2.1,2.1,0,0,1-.93.8,2.19,2.19,0,0,1,1.54,2.28,2.57,2.57,0,0,1-.77,2.09,3.46,3.46,0,0,1-2.23.63H40.65Zm3.47,1h-2.4v3.35h2.5a1.71,1.71,0,0,0,1.3-.43,1.76,1.76,0,0,0,.42-1.29,1.58,1.58,0,0,0-.44-1.24A2.07,2.07,0,0,0,44.12,95.26Zm.11,4.29H41.72v3.5H44.3a2.26,2.26,0,0,0,1.45-.4,2.14,2.14,0,0,0,.29-2.3,1.09,1.09,0,0,0-.54-.52A3,3,0,0,0,44.23,99.55Z"/><path class="cls-5" d="M53.46,97h1v7h-1v-.49a4,4,0,0,1-2.08.63,2.08,2.08,0,0,1-1.89-.74,5.53,5.53,0,0,1-.47-2.75V97h1v3.64a5.28,5.28,0,0,0,.26,2c.18.35.58.52,1.21.52a3.43,3.43,0,0,0,.94-.13,4.62,4.62,0,0,0,.72-.26l.26-.13Z"/><path class="cls-5" d="M56.52,95.42V94.2h1v1.22Zm0,8.58V97h1v7Z"/><path class="cls-5" d="M59.67,104V94h1v10Z"/><path class="cls-5" d="M68.2,94v10h-1v-.48a4.29,4.29,0,0,1-2.13.62,3.22,3.22,0,0,1-1-.14,2,2,0,0,1-.78-.5,4,4,0,0,1-.76-2.8,5,5,0,0,1,.68-2.94,2.64,2.64,0,0,1,2.25-.9,8.91,8.91,0,0,1,1.72.18V94Zm-3.64,9.15a1.71,1.71,0,0,0,.65.1,3.42,3.42,0,0,0,.89-.13,5.84,5.84,0,0,0,.78-.26l.28-.13V97.94a9.26,9.26,0,0,0-1.66-.17,1.62,1.62,0,0,0-1.49.68,4.1,4.1,0,0,0-.42,2.11,3.43,3.43,0,0,0,.49,2.18A1.13,1.13,0,0,0,64.56,103.1Z"/><path class="cls-5" d="M76.93,97.91H74.71v3.35a4.72,4.72,0,0,0,.17,1.58c.12.25.4.38.84.38l1.24-.09L77,104a9.73,9.73,0,0,1-1.43.15,1.82,1.82,0,0,1-1.51-.53,3.46,3.46,0,0,1-.42-2V97.91h-1V97h1V94.86h1V97h2.22Z"/><path class="cls-5" d="M79.27,104h-1V94h1v3.44a5.11,5.11,0,0,1,2.16-.53,2.05,2.05,0,0,1,1.88.76,5.34,5.34,0,0,1,.48,2.68V104H82.74v-3.67a4.76,4.76,0,0,0-.28-2,1.25,1.25,0,0,0-1.21-.54,4.76,4.76,0,0,0-1.71.32l-.27.1Z"/><path class="cls-5" d="M90.5,103.13l.4,0,0,.83a19.82,19.82,0,0,1-2.73.22,2.44,2.44,0,0,1-2.14-.88,4.69,4.69,0,0,1-.63-2.72q0-3.67,2.93-3.68a2.67,2.67,0,0,1,2.11.79,3.68,3.68,0,0,1,.7,2.49l-.06.79H86.5a2.83,2.83,0,0,0,.42,1.73,1.7,1.7,0,0,0,1.46.56C89.07,103.22,89.78,103.19,90.5,103.13Zm-.38-3a3.11,3.11,0,0,0-.41-1.82,1.63,1.63,0,0,0-1.35-.53,1.74,1.74,0,0,0-1.4.56,2.86,2.86,0,0,0-.48,1.79Z"/><path class="cls-5" d="M100.83,99.11v3.59c0,.34.3.55.81.61l0,.83a2.25,2.25,0,0,1-1.66-.56,6.29,6.29,0,0,1-2.52.56,1.9,1.9,0,0,1-1.48-.55,2.23,2.23,0,0,1-.5-1.56,2,2,0,0,1,.52-1.51,2.72,2.72,0,0,1,1.62-.59l2.2-.21v-.61a1.4,1.4,0,0,0-.31-1,1.14,1.14,0,0,0-.84-.31,20.89,20.89,0,0,0-2.32.14l-.43,0,0-.8a13.82,13.82,0,0,1,2.73-.31,2,2,0,0,1,2.27,2.25ZM96.52,102c0,.86.35,1.29,1.06,1.29a5.8,5.8,0,0,0,1.88-.32l.32-.12v-2.31l-2.07.2a1.39,1.39,0,0,0-.91.36A1.29,1.29,0,0,0,96.52,102Z"/><path class="cls-5" d="M102.9,107.11V97h1v.5a4.12,4.12,0,0,1,2.1-.64,2.19,2.19,0,0,1,1.93.85,4.93,4.93,0,0,1,.6,2.79,4.35,4.35,0,0,1-.7,2.79,2.91,2.91,0,0,1-2.35.85A7.68,7.68,0,0,1,104,104v3.12Zm3-9.31a3,3,0,0,0-.9.14,4,4,0,0,0-.76.28l-.27.14v4.72a11.17,11.17,0,0,0,1.51.15,1.8,1.8,0,0,0,1.59-.64,3.67,3.67,0,0,0,.46-2.1,4,4,0,0,0-.41-2.08A1.37,1.37,0,0,0,105.88,97.8Z"/><path class="cls-5" d="M110.28,107.11V97h1v.5a4.12,4.12,0,0,1,2.1-.64,2.2,2.2,0,0,1,1.93.85,4.93,4.93,0,0,1,.6,2.79,4.35,4.35,0,0,1-.71,2.79,2.87,2.87,0,0,1-2.34.85,7.68,7.68,0,0,1-1.57-.15v3.12Zm3-9.31a3,3,0,0,0-.9.14,3.74,3.74,0,0,0-.76.28l-.27.14v4.72a11,11,0,0,0,1.51.15,1.8,1.8,0,0,0,1.59-.64,3.75,3.75,0,0,0,.46-2.1,3.88,3.88,0,0,0-.42-2.08A1.36,1.36,0,0,0,113.26,97.8Z"/><path class="cls-5" d="M117.74,104V94h1.05v10Z"/><path class="cls-5" d="M120.89,95.42V94.2h1v1.22Zm0,8.58V97h1v7Z"/><path class="cls-5" d="M126.58,96.86a12.51,12.51,0,0,1,1.56.17l.34,0,0,.85q-1.12-.12-1.65-.12a1.91,1.91,0,0,0-1.62.57,3.59,3.59,0,0,0-.43,2.09,4.16,4.16,0,0,0,.4,2.14,1.88,1.88,0,0,0,1.66.6l1.65-.12,0,.86a14.47,14.47,0,0,1-1.94.2,2.64,2.64,0,0,1-2.26-.84,4.86,4.86,0,0,1-.63-2.84,4.38,4.38,0,0,1,.68-2.79A2.74,2.74,0,0,1,126.58,96.86Z"/><path class="cls-5" d="M135,99.11v3.59c0,.34.3.55.82.61l0,.83a2.27,2.27,0,0,1-1.66-.56,6.21,6.21,0,0,1-2.52.56,1.87,1.87,0,0,1-1.47-.55,2.19,2.19,0,0,1-.51-1.56,2,2,0,0,1,.52-1.51,2.75,2.75,0,0,1,1.63-.59l2.19-.21v-.61a1.45,1.45,0,0,0-.3-1,1.17,1.17,0,0,0-.84-.31,20.92,20.92,0,0,0-2.33.14l-.43,0,0-.8a13.66,13.66,0,0,1,2.73-.31,2.29,2.29,0,0,1,1.72.55A2.33,2.33,0,0,1,135,99.11ZM130.69,102c0,.86.36,1.29,1.07,1.29a5.74,5.74,0,0,0,1.87-.32l.32-.12v-2.31l-2.07.2a1.39,1.39,0,0,0-.91.36A1.35,1.35,0,0,0,130.69,102Z"/><path class="cls-5" d="M140.7,97.91h-2.22v3.35a4.46,4.46,0,0,0,.17,1.58c.12.25.39.38.83.38l1.25-.09.07.87a9.86,9.86,0,0,1-1.43.15,1.81,1.81,0,0,1-1.51-.53,3.46,3.46,0,0,1-.42-2V97.91h-1V97h1V94.86h1V97h2.22Z"/><path class="cls-5" d="M142,95.42V94.2h1v1.22Zm0,8.58V97h1v7Z"/><path class="cls-5" d="M144.75,100.49a4.52,4.52,0,0,1,.68-2.78,2.81,2.81,0,0,1,2.32-.85,2.78,2.78,0,0,1,2.31.85,4.52,4.52,0,0,1,.68,2.78,4.81,4.81,0,0,1-.64,2.78,3.62,3.62,0,0,1-4.71,0A4.73,4.73,0,0,1,144.75,100.49Zm1.08,0a4.41,4.41,0,0,0,.37,2.15,2.26,2.26,0,0,0,3.1,0,4.56,4.56,0,0,0,.36-2.15,4,4,0,0,0-.4-2.12,2.26,2.26,0,0,0-3,0A3.83,3.83,0,0,0,145.83,100.46Z"/><path class="cls-5" d="M153.5,104h-1.05V97h1v.49a4.49,4.49,0,0,1,2.17-.63,2.07,2.07,0,0,1,1.89.76,5.34,5.34,0,0,1,.48,2.68V104h-1v-3.67a4.76,4.76,0,0,0-.28-2,1.27,1.27,0,0,0-1.23-.54,3.54,3.54,0,0,0-.94.13,5.62,5.62,0,0,0-.77.26l-.26.13Z"/><path class="cls-5" d="M168,99.11v3.59c0,.34.3.55.81.61l0,.83a2.28,2.28,0,0,1-1.67-.56,6.21,6.21,0,0,1-2.52.56,1.89,1.89,0,0,1-1.47-.55,2.23,2.23,0,0,1-.5-1.56,2,2,0,0,1,.52-1.51,2.69,2.69,0,0,1,1.62-.59l2.2-.21v-.61a1.45,1.45,0,0,0-.31-1,1.17,1.17,0,0,0-.84-.31,20.75,20.75,0,0,0-2.32.14L163,98l0-.8a13.82,13.82,0,0,1,2.73-.31A2,2,0,0,1,168,99.11ZM163.68,102c0,.86.35,1.29,1.06,1.29a5.85,5.85,0,0,0,1.88-.32l.32-.12v-2.31l-2.07.2a1.37,1.37,0,0,0-.91.36A1.29,1.29,0,0,0,163.68,102Z"/><path class="cls-5" d="M170.06,104V97h1v1a6.75,6.75,0,0,1,2.57-1.1v1.06a7,7,0,0,0-1.23.35,8.54,8.54,0,0,0-1,.42l-.35.18V104Z"/><path class="cls-5" d="M178.53,97.91H176.3v3.35a4.39,4.39,0,0,0,.18,1.58c.11.25.39.38.83.38l1.25-.09.07.87a9.86,9.86,0,0,1-1.43.15,1.81,1.81,0,0,1-1.51-.53,3.46,3.46,0,0,1-.42-2V97.91h-1V97h1V94.86h1V97h2.23Z"/><path class="cls-5" d="M179.82,95.42V94.2h1.05v1.22Zm0,8.58V97h1.05v7Z"/><path class="cls-5" d="M184.23,97.91V104h-1V97.91h-.89V97h.89v-.63a3.46,3.46,0,0,1,.42-2,1.76,1.76,0,0,1,1.47-.54l1.41.1v.86l-1.3,0a.82.82,0,0,0-.73.33,2.75,2.75,0,0,0-.21,1.3V97h2v.91Z"/><path class="cls-5" d="M192.46,99.11v3.59c0,.34.3.55.81.61l0,.83a2.29,2.29,0,0,1-1.67-.56,6.21,6.21,0,0,1-2.52.56,1.89,1.89,0,0,1-1.47-.55,2.23,2.23,0,0,1-.5-1.56,2,2,0,0,1,.52-1.51,2.69,2.69,0,0,1,1.62-.59l2.2-.21v-.61a1.4,1.4,0,0,0-.31-1,1.14,1.14,0,0,0-.84-.31,20.75,20.75,0,0,0-2.32.14l-.44,0,0-.8a13.82,13.82,0,0,1,2.73-.31,2,2,0,0,1,2.27,2.25ZM188.15,102c0,.86.35,1.29,1.06,1.29a5.85,5.85,0,0,0,1.88-.32l.32-.12v-2.31l-2.07.2a1.37,1.37,0,0,0-.91.36A1.29,1.29,0,0,0,188.15,102Z"/><path class="cls-5" d="M197.15,96.86a12.62,12.62,0,0,1,1.57.17l.33,0,0,.85q-1.12-.12-1.65-.12a1.93,1.93,0,0,0-1.62.57,3.67,3.67,0,0,0-.43,2.09,4.16,4.16,0,0,0,.4,2.14,1.88,1.88,0,0,0,1.66.6l1.65-.12,0,.86a14.74,14.74,0,0,1-1.95.2,2.64,2.64,0,0,1-2.26-.84,4.87,4.87,0,0,1-.62-2.84,4.38,4.38,0,0,1,.67-2.79A2.76,2.76,0,0,1,197.15,96.86Z"/><path class="cls-5" d="M204.26,97.91H202v3.35a4.46,4.46,0,0,0,.17,1.58c.12.25.39.38.83.38l1.25-.09.07.87a9.86,9.86,0,0,1-1.43.15,1.81,1.81,0,0,1-1.51-.53,3.46,3.46,0,0,1-.42-2V97.91h-1V97h1V94.86h1V97h2.22Z"/></g></g><circle id="Oval-Copy-2" class="cls-3" cx="170" cy="32" r="8"/><rect id="Rectangle-3" class="cls-3" x="44" y="31" width="126" height="2"/></g><path id="Combined-Shape" class="cls-6" d="M121,194.55v82.59h-2V194.55L36.28,277.27l-1.42-1.42L119,191.72V141.14h2v50.58l84.13,84.13-1.41,1.42Zm0,434.58h-2v-104h2Z"/><g id="deploy"><g id="docker"><rect id="Rectangle-2" class="cls-7" x="90" y="311" width="60" height="60" rx="8" ry="8"/><g id="Mask"><path id="path-2" class="cls-3" d="M123.49,339.85h3v-2.79h-3Zm-3.56,0h3v-2.79h-3Zm-3.57,0h3v-2.79h-3Zm-3.57,0h3v-2.79h-3Zm-3.56,0h3v-2.79h-3Zm3.56-3.35h3v-2.8h-3Zm3.57,0h3v-2.8h-3Zm3.57,0h3v-2.8h-3Zm0-3.36h3v-2.8h-3Zm16.25,5.5-.61-.42a5.26,5.26,0,0,0-3.33-.39,4.5,4.5,0,0,0-1.88-3l-.64-.43-.42.65a5.12,5.12,0,0,0-.73,3.12,4,4,0,0,0,.56,1.72,4.64,4.64,0,0,1-2.21.49H107.08l0,.23a10,10,0,0,0,2,7.32c1.69,2,4.23,3.08,7.54,3.08,7.19,0,12.51-3.37,15-9.51a4.17,4.17,0,0,0,4.17-2.1c0-.05.09-.18.28-.57Z"/></g></g><g id="helm"><rect id="Rectangle-2-2" data-name="Rectangle-2" class="cls-7" x="2" y="311" width="60" height="60" rx="8" ry="8"/><path id="Combined-Shape-2" data-name="Combined-Shape" class="cls-3" d="M24.55,335.61a9.38,9.38,0,0,1,1.23-1.29,5.84,5.84,0,0,1-.84-.87c-.85-1.09-1.18-2.25-.75-2.59s1.48.27,2.33,1.36a5.63,5.63,0,0,1,.67,1.09A9.48,9.48,0,0,1,31.7,332a5.5,5.5,0,0,1-.2-1.5c0-1.38.45-2.5,1-2.5s1,1.12,1,2.5a5.24,5.24,0,0,1-.22,1.58,9.52,9.52,0,0,1,4.34,1.76,4.8,4.8,0,0,1,.87-1.62c.85-1.09,1.89-1.7,2.32-1.36s.1,1.5-.75,2.59a4.69,4.69,0,0,1-1.41,1.26,10.64,10.64,0,0,1,.84.94L38,337A7.5,7.5,0,0,0,26,337Zm0,11.78L26,346.05a7.51,7.51,0,0,0,12,0l1.49,1.34a10.64,10.64,0,0,1-.84.94,4.69,4.69,0,0,1,1.41,1.26c.85,1.09,1.19,2.25.75,2.59s-1.47-.27-2.32-1.36a4.8,4.8,0,0,1-.87-1.62,9.52,9.52,0,0,1-4.34,1.76,5.24,5.24,0,0,1,.22,1.58c0,1.38-.45,2.5-1,2.5s-1-1.12-1-2.5a5.5,5.5,0,0,1,.2-1.5,9.48,9.48,0,0,1-4.51-1.31,5.63,5.63,0,0,1-.67,1.09c-.85,1.09-1.89,1.7-2.33,1.36s-.1-1.5.75-2.59a5.84,5.84,0,0,1,.84-.87A9.38,9.38,0,0,1,24.55,347.39ZM23.37,345v-2.72H20.66V345H19v-7h1.66v2.88h2.71V338H25v7ZM28,339.41v1.39H31.1v1.4H28v1.4h3.55V345H26.33v-7h5.11v1.4Zm9.05,4.1V345H32.61v-7h1.66v5.5Zm6.5,1.49v-4.54L42,344.3H40.88l-1.57-3.84V345H37.83v-7h1.82l1.77,4.16L43.19,338H45v7Z"/></g><g id="cloudfoundry"><rect id="Rectangle-2-3" data-name="Rectangle-2" class="cls-7" x="178" y="311" width="60" height="60" rx="8" ry="8"/><path id="Shape" class="cls-3" d="M205.13,343.11s.43-1.65-1.46-3.79l-.06-.07a5.24,5.24,0,0,1,4-8.64h.12a5.26,5.26,0,0,1,4,8.65l-.07.06a5,5,0,0,0-1.45,3.79,7.67,7.67,0,0,0-2.12-14.91h-.87a7.75,7.75,0,0,0-7.32,7.71,7.67,7.67,0,0,0,5.18,7.2"/><path id="Shape-2" data-name="Shape" class="cls-3" d="M215.08,349.22a1.78,1.78,0,0,1,.45-.13,2.39,2.39,0,0,1,.53-.06l0-.15a1.17,1.17,0,0,0-.09-.32l-.06-.17-.07-.15-.07-.13a3.61,3.61,0,0,1-.55-.12l-.5-.17a2.09,2.09,0,0,1-.68-.42.49.49,0,0,1-.2-.43.38.38,0,0,1,.1-.2.59.59,0,0,1,.2-.15l-.16-.1-.17-.1-.21-.09-.4-.18-.18-.08a2.08,2.08,0,0,1-.43,0h-.47a6.08,6.08,0,0,1-.87-.15,1.69,1.69,0,0,1-.36-.12.94.94,0,0,1-.26-.14c-.15-.1-.24-.21-.23-.32l-.22,0c-.13,0-.41-.06-.59-.09,0,0,0,.06,0,.11l-.05.22a.85.85,0,0,0,.59,1,3,3,0,0,1,2.06,1.42c.46,1.24-1.47,2.46-4.42,2.46s-4.89-1.2-4.43-2.45a2.88,2.88,0,0,1,2-1.4.9.9,0,0,0,.62-1l-.06-.29-.4.05a4.34,4.34,0,0,0-.47.07l-.22,0a.38.38,0,0,1-.2.32,1,1,0,0,1-.25.14,2.37,2.37,0,0,1-.34.13,2.86,2.86,0,0,1-.42.1,3.4,3.4,0,0,1-.46.06,3.54,3.54,0,0,1-.92,0l0,0-.13.06-.38.18-.36.2-.12.07-.05,0a.49.49,0,0,1,.32.35.43.43,0,0,1-.14.43,3.11,3.11,0,0,1-.28.23,1.36,1.36,0,0,1-.4.2,3.82,3.82,0,0,1-1,.33l-.07.14-.1.32-.05.32a.66.66,0,0,1,0,.15,3.08,3.08,0,0,1,1,.18,1.33,1.33,0,0,1,.65.44.78.78,0,0,1,.06.68,1.75,1.75,0,0,1-.59.76l0,0,.15.11c.13.09.29.22.48.33l.56.3a1.85,1.85,0,0,0,.2.1l.08,0a5.42,5.42,0,0,1,1.44-.35,4.21,4.21,0,0,1,.71,0,5.56,5.56,0,0,1,.7.08,6.4,6.4,0,0,1,.62.2,3.29,3.29,0,0,1,.52.29,1.79,1.79,0,0,1,.68.85h.41a8.6,8.6,0,0,0,.91,0l.9,0,.41,0a1.19,1.19,0,0,1,.22-.47,1.63,1.63,0,0,1,.17-.2,1.8,1.8,0,0,1,.2-.19,2,2,0,0,1,.5-.3,2.71,2.71,0,0,1,.6-.22,5.2,5.2,0,0,1,.67-.11h.72a5.15,5.15,0,0,1,1.44.31l.25-.14a4.33,4.33,0,0,0,.51-.31,5.15,5.15,0,0,0,.43-.33l.17-.16a1.94,1.94,0,0,1-.66-.73.83.83,0,0,1-.07-.34.42.42,0,0,1,.07-.31,1,1,0,0,1,.57-.47"/><path id="Shape-3" data-name="Shape" class="cls-3" d="M203.79,335.88a3.12,3.12,0,0,0,1.22,2.46,5.51,5.51,0,0,1,1.74,4c.05,1.87-.08,4-.15,5.13-1,.14-1.71.48-1.71.87s1.24,1.12,2.78,1.12,2.78-.6,2.78-1.12-.7-.73-1.71-.87c-.08-1.1-.21-3.26-.16-5.13a5.55,5.55,0,0,1,1.75-4,3.12,3.12,0,0,0,1.22-2.46,3.93,3.93,0,0,0-7.76,0"/></g><g id="Choose-an-export-for" class="cls-4"><g class="cls-4"><path class="cls-5" d="M54,492.85a13.48,13.48,0,0,1-2.59.29,4.6,4.6,0,0,1-1.85-.31,2.35,2.35,0,0,1-1.1-1,4.71,4.71,0,0,1-.53-1.52,14.12,14.12,0,0,1-.14-2.15A14.36,14.36,0,0,1,48,486a4.81,4.81,0,0,1,.53-1.55,2.31,2.31,0,0,1,1.09-1,4.48,4.48,0,0,1,1.82-.31,13.07,13.07,0,0,1,2.63.31l0,.91a14.28,14.28,0,0,0-2.52-.25,2.1,2.1,0,0,0-2,.91,7.15,7.15,0,0,0-.49,3.13A14,14,0,0,0,49,490a4.07,4.07,0,0,0,.35,1.21,1.58,1.58,0,0,0,.78.77,3.68,3.68,0,0,0,1.5.23,12.7,12.7,0,0,0,2.33-.25Z"/><path class="cls-5" d="M56.67,493H55.62V483h1.05v3.44a5.11,5.11,0,0,1,2.16-.53,2.05,2.05,0,0,1,1.88.76,5.32,5.32,0,0,1,.49,2.68V493H60.15v-3.67a4.72,4.72,0,0,0-.29-2,1.25,1.25,0,0,0-1.21-.54,4.76,4.76,0,0,0-1.71.32l-.27.1Z"/><path class="cls-5" d="M62.83,489.49a4.45,4.45,0,0,1,.69-2.78,3.58,3.58,0,0,1,4.63,0,4.52,4.52,0,0,1,.68,2.78,4.72,4.72,0,0,1-.65,2.78,3.61,3.61,0,0,1-4.7,0A4.72,4.72,0,0,1,62.83,489.49Zm1.08,0a4.53,4.53,0,0,0,.37,2.15,1.69,1.69,0,0,0,1.56.62c.79,0,1.3-.2,1.54-.61a4.41,4.41,0,0,0,.37-2.15,4,4,0,0,0-.41-2.12,1.7,1.7,0,0,0-1.5-.58,1.74,1.74,0,0,0-1.52.58A3.92,3.92,0,0,0,63.91,489.46Z"/><path class="cls-5" d="M70.23,489.49a4.45,4.45,0,0,1,.68-2.78,2.81,2.81,0,0,1,2.32-.85,2.78,2.78,0,0,1,2.31.85,4.52,4.52,0,0,1,.68,2.78,4.72,4.72,0,0,1-.65,2.78,3.61,3.61,0,0,1-4.7,0A4.73,4.73,0,0,1,70.23,489.49Zm1.07,0a4.53,4.53,0,0,0,.37,2.15,1.69,1.69,0,0,0,1.56.62,1.67,1.67,0,0,0,1.55-.61,4.56,4.56,0,0,0,.36-2.15,4,4,0,0,0-.41-2.12,1.7,1.7,0,0,0-1.5-.58,1.72,1.72,0,0,0-1.51.58A3.81,3.81,0,0,0,71.3,489.46Z"/><path class="cls-5" d="M80.12,486.8c-1,0-1.52.35-1.52,1.06a.71.71,0,0,0,.35.69,5.5,5.5,0,0,0,1.59.42,4.41,4.41,0,0,1,1.77.61,1.78,1.78,0,0,1,.52,1.47,1.85,1.85,0,0,1-.7,1.59,3.44,3.44,0,0,1-2,.5,12.69,12.69,0,0,1-2-.2l-.42-.07,0-.91a17.83,17.83,0,0,0,2.41.24,2.36,2.36,0,0,0,1.24-.26.94.94,0,0,0,.43-.86.89.89,0,0,0-.37-.83,5.15,5.15,0,0,0-1.59-.41,4.15,4.15,0,0,1-1.75-.58,1.62,1.62,0,0,1-.52-1.4,1.7,1.7,0,0,1,.72-1.51,3.1,3.1,0,0,1,1.8-.49,14.88,14.88,0,0,1,2.14.2l.39.07,0,.89A17.87,17.87,0,0,0,80.12,486.8Z"/><path class="cls-5" d="M89.2,492.13l.4,0,0,.83a19.82,19.82,0,0,1-2.73.22,2.44,2.44,0,0,1-2.14-.88,4.69,4.69,0,0,1-.63-2.72q0-3.68,2.92-3.68a2.68,2.68,0,0,1,2.12.79,3.74,3.74,0,0,1,.7,2.49l-.06.79H85.19a2.9,2.9,0,0,0,.42,1.73,1.73,1.73,0,0,0,1.46.56Q88.12,492.22,89.2,492.13Zm-.38-3a3,3,0,0,0-.42-1.82,1.59,1.59,0,0,0-1.34-.53,1.73,1.73,0,0,0-1.4.56,2.86,2.86,0,0,0-.48,1.79Z"/><path class="cls-5" d="M99.53,488.11v3.59c0,.34.3.55.81.61l0,.83a2.28,2.28,0,0,1-1.67-.56,6.21,6.21,0,0,1-2.52.56,1.89,1.89,0,0,1-1.47-.55,2.23,2.23,0,0,1-.5-1.56,2,2,0,0,1,.52-1.51,2.69,2.69,0,0,1,1.62-.59l2.2-.21v-.61a1.45,1.45,0,0,0-.31-1,1.17,1.17,0,0,0-.84-.31,20.75,20.75,0,0,0-2.32.14l-.44.05,0-.8a13.82,13.82,0,0,1,2.73-.31,2,2,0,0,1,2.27,2.25ZM95.22,491c0,.86.35,1.29,1.06,1.29a5.85,5.85,0,0,0,1.88-.32l.32-.12v-2.31l-2.07.2a1.37,1.37,0,0,0-.91.36A1.29,1.29,0,0,0,95.22,491Z"/><path class="cls-5" d="M102.65,493H101.6v-7h1v.49a4.43,4.43,0,0,1,2.17-.63,2.05,2.05,0,0,1,1.88.76,5.34,5.34,0,0,1,.48,2.68V493h-1v-3.67a4.72,4.72,0,0,0-.29-2,1.26,1.26,0,0,0-1.23-.54,3.54,3.54,0,0,0-.94.13,5,5,0,0,0-.76.26l-.27.13Z"/><path class="cls-5" d="M117,492.13l.4,0,0,.83a19.82,19.82,0,0,1-2.73.22,2.44,2.44,0,0,1-2.14-.88,4.69,4.69,0,0,1-.63-2.72q0-3.68,2.92-3.68a2.68,2.68,0,0,1,2.12.79,3.68,3.68,0,0,1,.7,2.49l-.06.79H113a2.9,2.9,0,0,0,.42,1.73,1.74,1.74,0,0,0,1.47.56C115.53,492.22,116.24,492.19,117,492.13Zm-.38-3a3.11,3.11,0,0,0-.41-1.82,1.63,1.63,0,0,0-1.35-.53,1.73,1.73,0,0,0-1.4.56,2.86,2.86,0,0,0-.48,1.79Z"/><path class="cls-5" d="M118.51,486h1.15l1.71,2.74,1.7-2.74h1.15L122,489.47l2.21,3.53h-1.15l-1.69-2.73L119.66,493h-1.15l2.2-3.5Z"/><path class="cls-5" d="M125.54,496.11V486h1v.5a4.12,4.12,0,0,1,2.1-.64,2.2,2.2,0,0,1,1.94.85,4.93,4.93,0,0,1,.6,2.79,4.35,4.35,0,0,1-.71,2.79,2.87,2.87,0,0,1-2.34.85,7.61,7.61,0,0,1-1.57-.15v3.12Zm3-9.31a3,3,0,0,0-.9.14,3.74,3.74,0,0,0-.76.28l-.27.14v4.72a11,11,0,0,0,1.51.15,1.8,1.8,0,0,0,1.59-.64,3.76,3.76,0,0,0,.45-2.1,3.89,3.89,0,0,0-.41-2.08A1.36,1.36,0,0,0,128.52,486.8Z"/><path class="cls-5" d="M132.61,489.49a4.52,4.52,0,0,1,.68-2.78,2.81,2.81,0,0,1,2.32-.85,2.78,2.78,0,0,1,2.31.85,4.45,4.45,0,0,1,.68,2.78,4.73,4.73,0,0,1-.64,2.78,3.62,3.62,0,0,1-4.71,0A4.73,4.73,0,0,1,132.61,489.49Zm1.08,0a4.41,4.41,0,0,0,.37,2.15,1.66,1.66,0,0,0,1.55.62c.79,0,1.31-.2,1.55-.61a4.56,4.56,0,0,0,.36-2.15,4,4,0,0,0-.4-2.12,2.26,2.26,0,0,0-3,0A3.83,3.83,0,0,0,133.69,489.46Z"/><path class="cls-5" d="M140.31,493v-7h1V487a6.75,6.75,0,0,1,2.57-1.1v1.06a7,7,0,0,0-1.23.35,8.54,8.54,0,0,0-1,.42l-.35.18V493Z"/><path class="cls-5" d="M148.78,486.91h-2.23v3.35a4.39,4.39,0,0,0,.18,1.58c.11.25.39.38.83.38l1.25-.09.07.87a9.86,9.86,0,0,1-1.43.15,1.81,1.81,0,0,1-1.51-.53,3.46,3.46,0,0,1-.42-2v-3.68h-1V486h1v-2.14h1V486h2.23Z"/><path class="cls-5" d="M154.49,486.91V493h-1.05v-6.09h-.88V486h.88v-.63a3.46,3.46,0,0,1,.42-2,1.76,1.76,0,0,1,1.47-.54l1.41.1v.86l-1.29,0a.79.79,0,0,0-.73.33,2.6,2.6,0,0,0-.22,1.3V486h2v.91Z"/><path class="cls-5" d="M157.35,489.49a4.52,4.52,0,0,1,.68-2.78,2.81,2.81,0,0,1,2.32-.85,2.78,2.78,0,0,1,2.31.85,4.52,4.52,0,0,1,.68,2.78,4.72,4.72,0,0,1-.65,2.78,3.61,3.61,0,0,1-4.7,0A4.73,4.73,0,0,1,157.35,489.49Zm1.07,0a4.53,4.53,0,0,0,.37,2.15,1.69,1.69,0,0,0,1.56.62,1.67,1.67,0,0,0,1.55-.61,4.56,4.56,0,0,0,.36-2.15,4,4,0,0,0-.41-2.12,1.7,1.7,0,0,0-1.5-.58,1.72,1.72,0,0,0-1.51.58A3.81,3.81,0,0,0,158.42,489.46Z"/><path class="cls-5" d="M165.05,493v-7h1V487a6.71,6.71,0,0,1,2.56-1.1v1.06a6.87,6.87,0,0,0-1.22.35,7.8,7.8,0,0,0-1,.42l-.35.18V493Z"/><path class="cls-5" d="M170.94,493h-1.05v-7h1v.49a4,4,0,0,1,2-.63,2.11,2.11,0,0,1,1.82.71,5.31,5.31,0,0,1,1.2-.49,4.46,4.46,0,0,1,1.29-.22,2.1,2.1,0,0,1,1.89.75,5.36,5.36,0,0,1,.48,2.69V493H178.6v-3.67a4.93,4.93,0,0,0-.28-2,1.22,1.22,0,0,0-1.19-.54,3.51,3.51,0,0,0-.95.13,5.41,5.41,0,0,0-.76.26l-.27.13a6.57,6.57,0,0,1,.19,2V493h-1.05v-3.61a5,5,0,0,0-.28-2.05,1.2,1.2,0,0,0-1.19-.54,3.3,3.3,0,0,0-.92.13,5,5,0,0,0-.72.26l-.24.13Z"/><path class="cls-5" d="M186.54,488.11v3.59c0,.34.29.55.81.61l0,.83a2.28,2.28,0,0,1-1.67-.56,6.21,6.21,0,0,1-2.52.56,1.89,1.89,0,0,1-1.47-.55,2.18,2.18,0,0,1-.5-1.56,2,2,0,0,1,.51-1.51,2.75,2.75,0,0,1,1.63-.59l2.2-.21v-.61a1.45,1.45,0,0,0-.31-1,1.17,1.17,0,0,0-.84-.31,21.07,21.07,0,0,0-2.33.14l-.43.05,0-.8a13.66,13.66,0,0,1,2.73-.31,2,2,0,0,1,2.27,2.25ZM182.22,491c0,.86.36,1.29,1.07,1.29a5.74,5.74,0,0,0,1.87-.32l.33-.12v-2.31l-2.08.2a1.39,1.39,0,0,0-.91.36A1.35,1.35,0,0,0,182.22,491Z"/><path class="cls-5" d="M192.23,486.91H190v3.35a4.72,4.72,0,0,0,.17,1.58c.12.25.4.38.84.38l1.24-.09.07.87a9.73,9.73,0,0,1-1.43.15,1.82,1.82,0,0,1-1.51-.53,3.46,3.46,0,0,1-.42-2v-3.68h-1V486h1v-2.14h1V486h2.22Z"/></g></g><g id="coreos"><rect id="Rectangle-2-4" data-name="Rectangle-2" class="cls-7" x="134" y="391" width="60" height="60" rx="8" ry="8"/><path id="Combined-Shape-3" data-name="Combined-Shape" class="cls-3" d="M163.92,411A10.32,10.32,0,1,1,154,421.32,10.14,10.14,0,0,1,163.92,411Zm-.06.72c-1.58,0-2.92,2.67-3.4,6.37,0,.12,0,.24-.05.36-.06.6-.11,1.21-.13,1.81,0,.29,0,.58,0,.87s0,.58,0,.86c0,.63.07,1.23.13,1.82.75.1,1.54.17,2.37.2l1.08,0,1.09,0c.83,0,1.62-.1,2.37-.2l.24,0c3.09-.46,5.23-1.47,5.23-2.64A9.17,9.17,0,0,0,163.86,411.72Z"/><path id="Shape-4" data-name="Shape" class="cls-3" d="M167.84,418.49c-.09-.14-.19-.27-.29-.4a4.47,4.47,0,0,0-3.45-1.66c-.45,0-.85.71-1.11,1.82a11.7,11.7,0,0,0-.23,1.49c0,.47-.06.93-.06,1.39s0,.95.06,1.39c.42,0,.87.06,1.34.06s.91,0,1.33-.06a8.17,8.17,0,0,0,2.3-.52c.56-.24.89-.54.89-.87A4.82,4.82,0,0,0,167.84,418.49Z"/></g><g id="mesos"><rect id="Rectangle-2-5" data-name="Rectangle-2" class="cls-7" x="46" y="391" width="60" height="60" rx="8" ry="8"/><g id="Group-9"><polygon id="Fill-4" class="cls-3" points="81.46 423.8 85.94 421.24 85.94 426.36 81.46 423.8"/><path id="Fill-6" class="cls-3" d="M81.57,417.73l1.7-1,2.45-1.49c.11-.11.22-.11.22.1v4.69c0,.11,0,.21-.22.11l-4.15-2.35Z"/><path id="Fill-8" class="cls-3" d="M80.4,417.73l-1.92,1.06-2.35,1.39c-.21.1-.21.1-.21-.11v-4.69c0-.1,0-.21.21-.1l4.16,2.34Z"/><polygon id="Fill-10" class="cls-3" points="76.03 421.24 80.4 423.9 76.03 426.46 76.03 421.24"/><polygon id="Fill-12" class="cls-3" points="76.03 414.21 76.03 409.1 80.4 411.65 76.03 414.21"/><polygon id="Fill-14" class="cls-3" points="80.4 429.87 76.03 432.43 76.03 427.31 80.4 429.87"/><path id="Fill-16" class="cls-3" d="M70,417.73l-1.82,1.06-2.45,1.39c-.1.1-.21.1-.21-.11v-4.9Z"/><path id="Fill-18" class="cls-3" d="M70,423.8l-1.18.64-3,1.7c-.11,0-.21.21-.21-.1v-4.91Z"/><path id="Fill-20" class="cls-3" d="M75.39,421.24v4.9c0,.11,0,.11-.11.11L71,423.8Z"/><polygon id="Fill-22" class="cls-3" points="71.02 429.87 75.39 427.31 75.39 432.43 71.02 429.87"/><path id="Fill-24" class="cls-3" d="M71,411.65l4.37-2.55V414c0,.21,0,.21-.21.1l-4.05-2.34Z"/><path id="Fill-26" class="cls-3" d="M71.13,417.73l4.37-2.56v4.9c0,.21,0,.21-.22.11l-4-2.35Z"/><path id="Fill-28" class="cls-3" d="M81.25,412.19l4.37,2.55c-.22.11-.32.22-.54.32l-3.73,2.13c-.1.11-.21.11-.21-.1v-4.8a.1.1,0,0,0,.11-.1"/><polygon id="Fill-30" class="cls-3" points="81.25 423.37 81.25 418.26 85.72 420.82 81.25 423.37"/><polygon id="Fill-32" class="cls-3" points="81.25 424.33 85.72 426.89 81.25 429.44 81.25 424.33"/><path id="Fill-34" class="cls-3" d="M70.81,412.19l4.37,2.55-1,.53L71,417.19c-.11,0-.21.11-.21-.1Z"/><polygon id="Fill-36" class="cls-3" points="70.81 424.33 75.18 426.89 70.81 429.44 70.81 424.33"/><path id="Fill-38" class="cls-3" d="M76.35,414.74l4.37-2.55v4.9c0,.21,0,.21-.22.1l-3.94-2.34Z"/><polygon id="Fill-40" class="cls-3" points="75.07 420.71 70.7 423.26 70.7 418.15 75.07 420.71"/><polygon id="Fill-42" class="cls-3" points="80.72 424.33 80.72 429.44 76.35 426.89 80.72 424.33"/><polygon id="Fill-44" class="cls-3" points="80.72 418.26 80.72 423.37 76.35 420.81 80.72 418.26"/><path id="Fill-46" class="cls-3" d="M65.8,414.74l4.37-2.55v4.9c0,.1,0,.21-.21.1Z"/><path id="Fill-48" class="cls-3" d="M70.17,429.44l-4.37-2.55a.11.11,0,0,1,.11-.11l4-2.34c.21-.11.21-.11.21.1v4.9Z"/><path id="Fill-50" class="cls-3" d="M70.17,418.26v4.9c0,.11,0,.21-.21.11l-4-2.35-.11-.11Z"/></g></g></g><g id="infographic_enterpris-run" data-name="infographic/enterpris-run"><g id="run"><g id="app"><rect id="Rectangle-2-6" data-name="Rectangle" class="cls-8" x="86" y="660" width="68" height="68" rx="4" ry="4"/><circle id="Oval-2" data-name="Oval" class="cls-2" cx="120" cy="694" r="21"/><circle id="Oval-3" data-name="Oval" class="cls-3" cx="120" cy="694" r="18"/></g><g id="platform"><g id="aws"><circle id="Oval-2-Copy" class="cls-9" cx="200" cy="782" r="32"/><path id="Combined-Shape-4" data-name="Combined-Shape" class="cls-3" d="M189.31,773a5.66,5.66,0,0,0-1.06.21,3.79,3.79,0,0,0-1.31.56c-.19.21-.17,1.09,0,1.14a.74.74,0,0,0,.37,0l.12-.06.33-.12c1.45-.53,2.89-.49,3.51.09a1.3,1.3,0,0,1,.34.57.19.19,0,0,0,0,.07,5.87,5.87,0,0,1,.11,1.72.23.23,0,0,1-.14,0A5.52,5.52,0,0,0,191,777l-.36-.06a5.38,5.38,0,0,0-2.65.19,2.32,2.32,0,0,0-.56.3,2.61,2.61,0,0,0-1.17,2.52,3.16,3.16,0,0,0,.16.77s.07.14.12.26c.8,1.67,3.47,1.78,5.06.21.3-.3.27-.3.48.1.32.6.59.85.86.78a3.88,3.88,0,0,0,.67-.41l.13-.1c.18-.13.19-.24,0-.56a3.66,3.66,0,0,1-.32-.82c0-.07,0-1-.06-2.38,0-2.83-.06-3-.6-3.76a2.48,2.48,0,0,0-1.15-.82.11.11,0,0,1-.08,0l-.28-.08-.39-.08a8.92,8.92,0,0,0-1.57,0M210,773a3.39,3.39,0,0,0-.44.08l-.3.07c-.05,0-.1,0-.11,0a.07.07,0,0,1-.06,0,2.94,2.94,0,0,0-1.12.7,2.33,2.33,0,0,0-.5,2.53.79.79,0,0,1,0,.13,2.9,2.9,0,0,0,.85,1,5.18,5.18,0,0,0,1.37.58l.4.13.25.08c.3.09.64.21.76.26a2.64,2.64,0,0,1,.5.26l.13.1a1.14,1.14,0,0,1,.1,1.47,1.8,1.8,0,0,1-.93.51,9.22,9.22,0,0,1-1.82,0,7.14,7.14,0,0,1-1.38-.42c-.48-.21-.57-.14-.57.42s.06.64.41.83a6.3,6.3,0,0,0,3.05.53,3.32,3.32,0,0,0,2.57-1.22,2.65,2.65,0,0,0,.39-2.27,2.29,2.29,0,0,0-1.27-1.35l-.36-.17a.5.5,0,0,0-.16,0l-.16,0a3,3,0,0,0-.37-.13l-.39-.12-.52-.18c-1.08-.35-1.47-.7-1.47-1.3a1,1,0,0,1,.74-1l.26-.09a7.5,7.5,0,0,1,1.52,0,3.83,3.83,0,0,1,.85.2l.06,0a1,1,0,0,1,.22.08c.59.27.67.23.67-.36s-.27-.91-1.44-1.15l-.41-.08a6.77,6.77,0,0,0-1.36,0m-15.41.24c-.16,0-.21.3-.1.58a3.43,3.43,0,0,1,.13.41c.05.18.13.45.18.6s.09.32.12.39l.09.31.08.27s.07.23.12.41.11.37.13.41.13.42.27.92a1.86,1.86,0,0,0,.08.23l.07.24a4.74,4.74,0,0,0,.18.58s0,.11,0,.17l0,.16a2.74,2.74,0,0,1,.09.29c.07.22.09.3.2.68,0,.08.09.27.13.42s.1.33.13.41.07.25.11.38.08.26.09.3.05.14.08.25c.12.39.3.45,1.24.41.63,0,.64,0,.84-.92,0-.15.07-.33.09-.39s0-.17.06-.24l.07-.27c0-.07,0-.23.08-.34s.07-.3.09-.41.06-.25.08-.32,0-.2.08-.33.07-.3.09-.41.06-.24.08-.31,0-.22.08-.33.06-.27.08-.35a1.53,1.53,0,0,1,.06-.25l.2-.84.17-.74c0-.06.05-.18.07-.26.07-.32.09-.28.31.66,0,.22.11.46.13.52s0,.17.06.25,0,.23.07.35c.09.32.11.41.16.63s.07.32.11.47.09.36.11.47.06.25.08.3,0,.16.06.24a3.21,3.21,0,0,0,.08.34c0,.12.06.26.08.32l.17.74c.11.44.19.79.24,1s.21.38.55.41a4.44,4.44,0,0,0,1.19-.06.91.91,0,0,0,.26-.43,1.75,1.75,0,0,1,.07-.26c0-.13.1-.3.12-.39s.13-.4.22-.71.24-.74.31-1,.15-.48.17-.55l.35-1.14.12-.38.2-.63.26-.84.2-.64c0-.12.11-.37.17-.55s.13-.43.17-.55c.23-.68.19-.73-.6-.73s-.87,0-1.1.84c0,.16-.09.38-.12.47s-.07.31-.12.47-.15.62-.25,1-.2.76-.22.85l-.17.66c-.07.28-.17.64-.21.8s-.1.38-.12.48-.08.31-.13.48-.1.4-.12.49c-.14.57-.15.6-.2.6s0,0,0-.1,0-.19-.07-.31-.07-.26-.08-.33-.05-.21-.08-.31-.06-.3-.09-.43-.07-.29-.08-.35-.05-.2-.08-.31-.07-.29-.09-.39-.1-.41-.18-.76c0-.07,0-.21-.07-.32s-.14-.57-.18-.75,0-.22-.08-.33-.06-.27-.07-.35-.05-.19-.06-.25-.1-.41-.18-.74c0-.12-.06-.27-.07-.33-.21-.8-.18-.78-1.05-.78s-.91.06-1,.48c0,.07,0,.16,0,.2a2.87,2.87,0,0,0-.08.32c-.07.3-.23,1-.27,1.13s-.07.3-.12.54-.11.47-.12.53-.19.8-.27,1.15c0,.12-.06.27-.08.33s0,.21-.08.33-.06.28-.08.34,0,.21-.08.33c-.08.36-.14.62-.17.72l-.08.35c-.09.45-.12.41-.36-.58-.08-.36-.13-.54-.25-1-.07-.27-.15-.58-.17-.68-.06-.26-.17-.69-.22-.88a2.27,2.27,0,0,1-.07-.28c0-.06-.05-.18-.07-.25s0-.19-.06-.26c0-.22-.12-.5-.25-1-.07-.28-.15-.58-.17-.68a7,7,0,0,0-.22-.8.47.47,0,0,1-.05-.14c0-.16-1-.3-1.5-.2m-3.93,4.8a5.43,5.43,0,0,1,.95.15l.23,0v.4a2.07,2.07,0,0,1-.61,1.71c-.81.79-2.42.9-3,.21a1.37,1.37,0,0,1-.27-1C187.94,778.38,188.75,777.91,190.61,778.06Zm21.53,6.26a5,5,0,0,1,2.69.32c.34.3.14,1.82-.4,3.06s-1.51,2.34-1.79,2.07c-.07-.08,0-.49.27-1a6.06,6.06,0,0,0,.62-3c-.19-.39-1.25-.49-3.07-.3l-.78.08c-.45,0-.42-.24,0-.53A5.48,5.48,0,0,1,212.14,784.32Zm-27.08.48c.11-.11.25-.08.64.14a27.76,27.76,0,0,0,6.07,2.64,28.49,28.49,0,0,0,3.13.77l.52.09a31.21,31.21,0,0,0,3.19.37c.59,0,2.63,0,3.2,0,.93-.07,1.88-.17,2.41-.25l1-.16.71-.14a30.06,30.06,0,0,0,5.45-1.7c.45-.2.67-.19.83,0s.12.47-.52.92a19.46,19.46,0,0,1-5.9,2.73,22.45,22.45,0,0,1-3.69.71c-.49.06-3.93.07-4.42,0s-1-.13-1.2-.17c-.59-.1-.77-.13-1-.19a21.64,21.64,0,0,1-10-5.09l-.26-.23A.36.36,0,0,1,185.06,784.8Z"/></g><g id="kubernetes"><circle id="Oval-2-2" data-name="Oval-2" class="cls-9" cx="40" cy="782" r="32"/><path id="Combined-Shape-5" data-name="Combined-Shape" class="cls-3" d="M40.05,770.23a1.94,1.94,0,0,0,.8,0l8.27,4a1.38,1.38,0,0,1,.92,1l2.07,8.9a1.47,1.47,0,0,1-.34,1.36L46,792.57a1.84,1.84,0,0,1-1.26.57H35.57a1.86,1.86,0,0,1-1.27-.57l-5.75-7.07-.11-.11a1.33,1.33,0,0,1-.23-1.14l2.07-8.89a1.61,1.61,0,0,1,.92-1l8.27-4A5.56,5.56,0,0,1,40.05,770.23Zm0,3.08c-.35,0-.46.22-.46.57v1.48a.42.42,0,0,1-.12.23v.22c-.34,0-.57.12-.92.12a5.76,5.76,0,0,0-3.22,1.82l-.11-.11H35c-.23-.23-.46-.34-.69-.57l-.34-.34-.12-.12a.42.42,0,0,0-.34-.11c-.12,0-.35,0-.35.11s-.11.57.12.69l.11.11.46.23a2.89,2.89,0,0,1,.69.57.34.34,0,0,1,.12.23l.11.11a6,6,0,0,0-1,4.45H33.5c0,.11-.12.11-.23.22a2.46,2.46,0,0,1-.92.12h-.58a.68.68,0,0,0-.34.68.59.59,0,0,0,.46.34H32l.46-.11a2.26,2.26,0,0,1,.92-.23c.12,0,.23,0,.23.12h.23a6.25,6.25,0,0,0,2.87,3.53l-.11.23v.23a2.94,2.94,0,0,1-.46.79c-.12.12-.23.23-.23.35v.11a.53.53,0,0,0,.23.68.56.56,0,0,0,.69-.22v-.12a.69.69,0,0,0,.11-.45c.12-.35.23-.57.35-.92.11,0,.11-.11.23-.11l.11-.23a6.4,6.4,0,0,0,4.6,0l.11.23a.39.39,0,0,1,.23.11c.12.23.23.57.35.8s.11.34.11.46v.11a.56.56,0,0,0,.69.23.54.54,0,0,0,.23-.68c-.11-.12-.11-.23-.23-.35a5.35,5.35,0,0,1-.46-.79v-.23c0-.12-.11-.12-.11-.23A6.25,6.25,0,0,0,46,784.14h.23a.36.36,0,0,1,.23-.12c.34.12.58.12.92.23l.46.11H48c.23,0,.58-.22.58-.45s-.12-.46-.35-.46h-.57c-.34,0-.57-.11-.92-.11-.12,0-.12-.12-.23-.23h-.23a6.15,6.15,0,0,0-1-4.45l.11-.11c0-.11,0-.23.12-.23.23-.23.46-.34.69-.57l.45-.23.12-.11a.52.52,0,0,0,.11-.68.54.54,0,0,0-.68-.12l-.12.12-.34.34a3.15,3.15,0,0,1-.69.57h-.35l-.23.11a6.17,6.17,0,0,0-4.13-1.94v-.22c-.12-.12-.12-.12-.12-.23v-1.48a.52.52,0,0,0-.46-.57Z"/><path id="Fill-6-2" data-name="Fill-6" class="cls-3" d="M40.05,784.59c.23,0,.34,0,.45.23l1.27,2.28-.46.11a6.07,6.07,0,0,1-2.87-.11l1.26-2.28C39.82,784.59,39.93,784.59,40.05,784.59Zm-2.19-1.14a.49.49,0,0,1,.46.46V784l-1,2.4a4.81,4.81,0,0,1-2.07-2.63Zm4.37,0,2.76.46a5.77,5.77,0,0,1-2.07,2.62L42,784.14C41.88,783.91,41.88,783.68,42.23,783.45ZM39.7,781.4h.8L41,782l-.12.8-.69.34-.69-.34-.11-.8Zm4.71-1.94a5,5,0,0,1,.69,3.19L42.57,782a.62.62,0,0,1-.34-.57c0-.11.11-.11.11-.23Zm-8.73,0,2,1.71a.32.32,0,0,1,0,.57c-.11.12-.11.12-.23.12l-2.53.68A6.45,6.45,0,0,1,35.68,779.46Zm5.06-2.28a4.48,4.48,0,0,1,2.87,1.48l-2.19,1.49c-.23.11-.45.11-.57-.12s-.11-.11-.11-.23Zm-1.27,0-.11,2.62a.49.49,0,0,1-.46.46c-.12,0-.23,0-.23-.11l-2.19-1.49a5.1,5.1,0,0,1,2.42-1.36Z"/></g><g id="azure"><circle id="Oval-2-Copy-2" class="cls-9" cx="120" cy="782" r="32"/><path id="Combined-Shape-6" data-name="Combined-Shape" class="cls-3" d="M124.38,772.32,135,791l-21-.22,13.53-1.55-7.29-8.51Zm-.81-3.32L113,788.4l-6,.61,7.06-12Z"/></g></g><g id="Run-on-any-platform" class="cls-4"><g class="cls-4"><path class="cls-5" d="M62.33,850.29V854H61.25v-9.69h3.58a3.31,3.31,0,0,1,2.32.72,2.85,2.85,0,0,1,.78,2.22,2.62,2.62,0,0,1-1.78,2.82L68,854H66.82l-1.75-3.71Zm2.52-.95a2,2,0,0,0,0-4.08h-2.5v4.08Z"/><path class="cls-5" d="M74,847h1v7H74v-.49a4,4,0,0,1-2.07.63,2.09,2.09,0,0,1-1.9-.74,5.64,5.64,0,0,1-.47-2.75V847h1v3.64a5,5,0,0,0,.27,2c.17.35.57.52,1.2.52a3.43,3.43,0,0,0,.94-.13,5.25,5.25,0,0,0,.73-.26l.25-.13Z"/><path class="cls-5" d="M78.13,854h-1v-7h1v.49a4.49,4.49,0,0,1,2.17-.63,2.05,2.05,0,0,1,1.88.76,5.32,5.32,0,0,1,.49,2.68V854h-1v-3.67a4.72,4.72,0,0,0-.29-2,1.25,1.25,0,0,0-1.22-.54,3.61,3.61,0,0,0-1,.13,5.41,5.41,0,0,0-.76.26l-.27.13Z"/><path class="cls-5" d="M87.37,850.49a4.45,4.45,0,0,1,.69-2.78,3.58,3.58,0,0,1,4.63,0,4.53,4.53,0,0,1,.67,2.78,4.73,4.73,0,0,1-.64,2.78,3.61,3.61,0,0,1-4.7,0A4.72,4.72,0,0,1,87.37,850.49Zm1.08,0a4.41,4.41,0,0,0,.37,2.15,1.69,1.69,0,0,0,1.56.62,1.65,1.65,0,0,0,1.54-.61,4.41,4.41,0,0,0,.37-2.15,4,4,0,0,0-.41-2.12,1.7,1.7,0,0,0-1.5-.58,1.74,1.74,0,0,0-1.52.58A3.92,3.92,0,0,0,88.45,850.46Z"/><path class="cls-5" d="M96.12,854H95.07v-7h1v.49a4.46,4.46,0,0,1,2.17-.63,2.05,2.05,0,0,1,1.88.76,5.34,5.34,0,0,1,.48,2.68V854h-1v-3.67a4.72,4.72,0,0,0-.29-2,1.25,1.25,0,0,0-1.22-.54,3.61,3.61,0,0,0-.95.13,5.41,5.41,0,0,0-.76.26l-.27.13Z"/><path class="cls-5" d="M110.61,849.11v3.59c0,.34.3.55.81.61l0,.83a2.25,2.25,0,0,1-1.66-.56,6.21,6.21,0,0,1-2.52.56,1.87,1.87,0,0,1-1.47-.55,2.19,2.19,0,0,1-.51-1.56,2,2,0,0,1,.52-1.51,2.75,2.75,0,0,1,1.62-.59l2.2-.21v-.61a1.4,1.4,0,0,0-.31-1,1.14,1.14,0,0,0-.84-.31,20.89,20.89,0,0,0-2.32.14l-.43.05,0-.8a13.82,13.82,0,0,1,2.73-.31,2,2,0,0,1,2.27,2.25ZM106.3,852c0,.86.35,1.29,1.06,1.29a5.8,5.8,0,0,0,1.88-.32l.32-.12v-2.31l-2.07.2a1.39,1.39,0,0,0-.91.36A1.29,1.29,0,0,0,106.3,852Z"/><path class="cls-5" d="M113.73,854h-1v-7h1v.49a4.49,4.49,0,0,1,2.17-.63,2.05,2.05,0,0,1,1.88.76,5.21,5.21,0,0,1,.49,2.68V854h-1v-3.67a4.72,4.72,0,0,0-.29-2,1.25,1.25,0,0,0-1.22-.54,3.61,3.61,0,0,0-.95.13,5.41,5.41,0,0,0-.76.26l-.27.13Z"/><path class="cls-5" d="M119.46,847h1.05l1.75,6.09h.46l1.77-6.09h1.05l-2.92,10.11h-1.05l.91-3.11h-1Z"/><path class="cls-5" d="M130,857.11V847h1v.5a4.09,4.09,0,0,1,2.1-.64,2.2,2.2,0,0,1,1.93.85,4.93,4.93,0,0,1,.6,2.79,4.35,4.35,0,0,1-.71,2.79,2.87,2.87,0,0,1-2.34.85A7.68,7.68,0,0,1,131,854v3.12Zm3-9.31a3,3,0,0,0-.9.14,3.74,3.74,0,0,0-.76.28l-.27.14v4.72a11,11,0,0,0,1.51.15,1.8,1.8,0,0,0,1.59-.64,3.75,3.75,0,0,0,.46-2.1,3.88,3.88,0,0,0-.42-2.08A1.36,1.36,0,0,0,132.94,847.8Z"/><path class="cls-5" d="M137.42,854V844h1.05v10Z"/><path class="cls-5" d="M145.51,849.11v3.59c0,.34.3.55.82.61l-.05.83a2.27,2.27,0,0,1-1.66-.56,6.21,6.21,0,0,1-2.52.56,1.87,1.87,0,0,1-1.47-.55,2.19,2.19,0,0,1-.51-1.56,2,2,0,0,1,.52-1.51,2.75,2.75,0,0,1,1.63-.59l2.19-.21v-.61a1.45,1.45,0,0,0-.3-1,1.17,1.17,0,0,0-.84-.31,20.92,20.92,0,0,0-2.33.14l-.43.05,0-.8a13.66,13.66,0,0,1,2.73-.31,2.29,2.29,0,0,1,1.72.55A2.33,2.33,0,0,1,145.51,849.11ZM141.2,852c0,.86.36,1.29,1.07,1.29a5.74,5.74,0,0,0,1.87-.32l.32-.12v-2.31l-2.07.2a1.39,1.39,0,0,0-.91.36A1.29,1.29,0,0,0,141.2,852Z"/><path class="cls-5" d="M151.21,847.91H149v3.35a4.46,4.46,0,0,0,.17,1.58c.12.25.39.38.83.38l1.25-.09.07.87a9.86,9.86,0,0,1-1.43.15,1.81,1.81,0,0,1-1.51-.53,3.46,3.46,0,0,1-.42-2v-3.68h-1V847h1v-2.14h1V847h2.22Z"/><path class="cls-5" d="M153.84,847.91V854h-1.05v-6.09h-.88V847h.88v-.63a3.46,3.46,0,0,1,.42-2,1.76,1.76,0,0,1,1.47-.54l1.42.1,0,.86-1.29,0a.8.8,0,0,0-.73.33,2.72,2.72,0,0,0-.22,1.3V847h2v.91Z"/><path class="cls-5" d="M156.7,850.49a4.45,4.45,0,0,1,.69-2.78,3.56,3.56,0,0,1,4.62,0,4.52,4.52,0,0,1,.68,2.78,4.73,4.73,0,0,1-.64,2.78,3.62,3.62,0,0,1-4.71,0A4.73,4.73,0,0,1,156.7,850.49Zm1.08,0a4.41,4.41,0,0,0,.37,2.15,1.67,1.67,0,0,0,1.55.62c.79,0,1.31-.2,1.55-.61a4.56,4.56,0,0,0,.36-2.15,4,4,0,0,0-.4-2.12,2.26,2.26,0,0,0-3,0A3.92,3.92,0,0,0,157.78,850.46Z"/><path class="cls-5" d="M164.4,854v-7h1v1a6.75,6.75,0,0,1,2.57-1.1v1.06a7,7,0,0,0-1.23.35,8.54,8.54,0,0,0-1,.42l-.35.18V854Z"/><path class="cls-5" d="M170.29,854h-1v-7h1v.49a4,4,0,0,1,2-.63,2.11,2.11,0,0,1,1.82.71,5.31,5.31,0,0,1,1.2-.49,4.46,4.46,0,0,1,1.29-.22,2.08,2.08,0,0,1,1.89.75,5.36,5.36,0,0,1,.48,2.69V854H178v-3.67a4.76,4.76,0,0,0-.28-2,1.21,1.21,0,0,0-1.19-.54,3.56,3.56,0,0,0-.95.13,5.41,5.41,0,0,0-.76.26l-.26.13a7,7,0,0,1,.18,2V854h-1.05v-3.61a5.19,5.19,0,0,0-.27-2,1.22,1.22,0,0,0-1.2-.54,3.3,3.3,0,0,0-.92.13,5,5,0,0,0-.72.26l-.24.13Z"/></g></g></g></g></g></g></g></svg>