<?xml version="1.0" encoding="utf-8"?>
<svg xmlns="http://www.w3.org/2000/svg" x="0px" y="0px" viewBox="0 0 506.8 214.8">
  <style>
    .st3{fill:#ef9600}.st5{fill:#425563}
  </style>
  <path class="st5" d="M215.1 92.3v-.2c-.3-18.6 14.6-34 33.2-34.3h1.4c9.8-.5 19.3 3.2 26.2 10.2l-9.3 10.7c-4.5-4.6-10.6-7.2-17-7.4-11.2 0-19.2 9.3-19.2 20.7s7.9 20.9 19.2 20.9c7.6 0 12.2-3 17.4-7.8l9.3 9.4c-6.8 7.9-16.8 12.3-27.2 11.8-18.5.3-33.7-14.5-34-33v-1M293.3 59h14.6v26.2h26.9V59h14.6v66.3h-14.6V98.7h-26.9v26.6h-14.6zM367.2 59h50.1v13h-35.6v13.4H413v13h-31.3v13.9h36.1v13h-50.6zM436.8 59h50.6v13.2h-36v14.2h31.7v13.2h-31.7v25.7h-14.6zM498.3 68.6v-6.7h2.8c.5 0 1.1 0 1.6.2.3.1.6.3.8.6.2.3.3.7.3 1.1 0 .3-.1.7-.2 1-.1.1-.1.2-.2.3-.3.3-.7.5-1.1.6.2.2.4.4.5.6.3.3.5.7.8 1.1l.8 1.3h-1.6l-1-1.5c-.2-.3-.5-.7-.7-1-.1-.1-.2-.2-.4-.3-.2-.1-.5-.1-.7-.1h-.3v2.8h-1.4zm1.4-3.9h1c.4 0 .8 0 1.2-.1.2 0 .3-.1.4-.3.1-.2.1-.3.1-.5s-.1-.4-.2-.5c-.1-.1-.3-.2-.5-.3h-2.1l.1 1.7z" />
  <path class="st5" d="M500.9 71.2c-.8 0-1.6-.2-2.3-.5-.4-.1-.7-.3-1-.6-.3-.2-.6-.5-.9-.7-.3-.3-.5-.6-.7-.9-1.1-1.7-1.3-3.8-.6-5.7.2-.4.3-.7.6-1 .2-.3.5-.6.7-.9.3-.3.6-.5.9-.7.3-.2.7-.4 1-.6 1.5-.6 3.2-.6 4.6 0 .4.2.7.3 1 .6.3.2.6.5.9.7.3.3.5.6.7.9.2.3.4.7.5 1 .6 1.5.6 3.2 0 4.7-.1.4-.3.7-.5 1-.2.3-.5.6-.7.9-.5.5-1.2 1-1.9 1.3-.8.4-1.5.5-2.3.5m0-11.4c-3 0-5.5 2.4-5.5 5.5 0 3 2.4 5.5 5.5 5.5 3 0 5.5-2.4 5.5-5.5-.1-3.1-2.5-5.5-5.5-5.5M1.5 94.7c.3 10.8 2.5 21.4 6.5 31.4l11.3-4.6c-3.5-8.7-5.4-17.9-5.7-27.3l-12.1.5z" />
  <path class="st3" d="M93.5 12.1c16.7 0 32.8 5.2 46.4 14.9l7.1-9.8c-41.3-29.5-98.8-20-128.4 21.3C15 43.6 12 49.1 9.4 54.8l11.1 5c12.8-29 41.3-47.6 73-47.7z" />
  <path class="st5" d="M184.4 77.9c-1.8-11.5-5.7-22.6-11.7-32.6l-10.5 6c4.9 8.1 8.2 17.1 9.9 26.6h12.3z" />
  <path class="st3" d="M172.1 106.1c-7.7 43.4-49.2 72.3-92.6 64.5-15.9-2.9-30.4-10.4-41.9-21.6l-8.4 8.7c36.3 35.6 94.6 34.9 130.1-1.4 13.5-13.7 22.2-31.3 25.2-50.3l-12.4.1zM153 77.9h12.4c-4.8-23.8-20.8-43.7-43.1-53.2l-4.9 11c17.9 7.6 31.1 23.3 35.6 42.2z" />
  <path class="st5" d="M37.5 67.3c9.8-22.1 31.6-36.4 55.8-36.5l.1-12.1c-28.9 0-55.2 17.1-67 43.6l11.1 5z" />
  <path class="st3" d="M69.8 148.4c-22.1-9.3-36.8-30.5-37.5-54.5l-12.1.4c.9 28.7 18.5 54.3 45.1 65.4l4.5-11.3z" />
  <path class="st5" d="M153 106.1c-6.4 27.1-30.3 46.4-58.2 47.1l.4 12.1c34.4-.9 63.5-25.5 70.2-59.2H153z" />
  <path class="st5" d="M133.6 106.1c-7.8 22.1-32 33.7-54.1 26s-33.7-32-26-54.1 32-33.7 54.1-26c12.1 4.3 21.7 13.8 26 26h12.7c-7.8-29.1-37.7-46.4-66.8-38.7S33.1 77 40.8 106.1s37.7 46.4 66.8 38.7c18.8-5.1 33.6-19.7 38.7-38.7h-12.7z" />
  <path class="st3" d="M112.6 106.1c-2.4 3.3-5.7 5.8-9.3 7.5l5.3 10.9c8-3.8 14.4-10.3 17.8-18.4h-13.8z" />
  <path class="st5" d="M93.5 115.8c-6.3 0-12.5-2.6-17-7.1l-8.4 8.7C74.9 124.1 84 128 93.5 128h.4l-.4-12.2z" />
  <path class="st3" d="M92.7 68.3V56.2c-19.8.3-35.5 16.7-35.2 36.5.1 4.3.9 8.4 2.5 12.4l11.2-4.6c-4.7-12.2 1.4-25.9 13.6-30.6 2.6-1 5.3-1.5 7.9-1.6z" />
  <path class="st5" d="M107.5 59l-4.9 11.1c4 1.7 7.4 4.4 10 7.8h13.9c-3.7-8.5-10.6-15.2-19-18.9z" />
  <path d="M268.9 193.4c0 .6-.4 1.4-1 1.7l-13.5 7.8v-30.1l-26.1-15.1 13.5-7.8c.5-.3 1.4-.3 1.9 0l25.1 14.5v29zm-20.3-17.3l-17.9-10.3c-.5-.3-1.4-.3-1.9 0l-12.1 7 18.8 10.9v21.8l12.1-7c.5-.3 1-1.1 1-1.7v-20.7zm-31.9 18.4l13 7.5v-15l-13 7.5z" fill="#5ce500" />
  <path fill="#4b4e52" d="M297.6 164.4h-14.2v38.5h6.3v-15.1h8c8.6 0 13.4-4.2 13.4-11.9-.1-3.5-1.4-11.5-13.5-11.5m7 11.6c0 4.3-2.3 6.1-7.8 6.1h-7.1V170h8c4.6 0 6.9 2 6.9 6m25.2-1.2l.5.2-1.1 5.7-.7-.2c-.6-.2-1.2-.3-1.8-.3-5.9 0-6.4 4.7-6.4 10.4v12.3h-5.8v-28.3h5.5v3.4c1.5-2.3 3.3-3.5 5.7-3.8 1.4-.1 2.9.1 4.1.6m14.4-.8c-4.6 0-8.3 1.8-10.7 5.1-2.5 3.5-2.9 7.6-2.9 9.7 0 8.9 5.3 14.7 13.5 14.7 10 0 13.5-8 13.5-14.9 0-4-1.2-7.6-3.3-10.1-2.3-2.9-5.9-4.5-10.1-4.5m0 24.3c-4.6 0-7.4-3.6-7.4-9.5s2.8-9.6 7.4-9.6c4.5 0 7.5 3.7 7.5 9.5-.1 5.9-2.9 9.6-7.5 9.6m62.6-23.5l.5.2-1.1 5.7-.7-.2c-.6-.2-1.2-.3-1.8-.3-5.9 0-6.4 4.7-6.4 10.4v12.3h-5.8v-28.3h5.5v3.4c1.5-2.3 3.3-3.5 5.7-3.8 1.4-.1 2.9.1 4.1.6m20.9 19l-.1.3c-1.2 3.5-4.1 4.2-6.4 4.2-4.4 0-7.3-2.9-7.5-7.7h20l.1-.6c.1-.7.1-1.6.1-2.2v-.5c-.3-7.9-5.5-13.2-12.8-13.2-4.3 0-7.9 1.7-10.2 4.9-1.9 2.6-3 6.2-3 9.9 0 8.7 5.4 14.6 13.5 14.6 6.3 0 10.6-3.2 12.1-8.9l.2-.7h-6zm-13.8-8.3c.5-3.9 3.2-6.4 7-6.4 2.9 0 6.4 1.7 6.8 6.4h-13.8zm-33.1-8.5c-1.9-2-4.4-2.9-7.5-2.9-8.6 0-12.5 7.5-12.5 14.5 0 7.2 3.9 14.4 12.5 14.4 2.9 0 5.4-1.1 7.3-3 0 1.2-.1 2.4-.1 2.9-.3 4.7-2.6 6.8-7.1 6.8-2.4 0-5.2-.9-5.8-3.3l-.1-.5h-5.8l.1.8c.6 5 5 8.1 11.4 8.1 5.7 0 9.7-2.1 11.6-6.2.9-1.9 1.4-4.8 1.4-8.4v-25.7h-5.5v2.5zm-7.2 20.8c-2 0-6.8-.9-6.8-9.5 0-5.6 2.7-9.1 6.9-9.1 3.3 0 6.8 2.4 6.8 9.1.1 6-2.5 9.5-6.9 9.5m87.2-3.4c0 4.5-3.7 9-12.1 9-7.4 0-11.8-3.2-12.4-9l-.1-.6h5.7l.1.4c.7 3.5 4 4.2 6.7 4.2 2.9 0 6-.9 6-3.6 0-1.3-.9-2.3-2.6-2.8-1-.3-2.3-.7-3.6-1-2.3-.6-4.6-1.3-6.1-1.8-3.6-1.3-5.6-3.8-5.6-6.9 0-5.7 5.5-8.3 11-8.3 7.4 0 11.2 2.8 11.6 8.5v.6h-5.7l-.1-.4c-.6-3.3-3.8-3.8-5.7-3.8-1.6 0-5.4.3-5.4 3 0 1.2 1.1 2.1 3.2 2.8.6.2 1.6.4 2.7.7 2.3.6 5.2 1.3 6.6 1.8 4 1.3 5.8 3.7 5.8 7.2m27 0c0 4.5-3.7 9-12.1 9-7.4 0-11.8-3.2-12.4-9l-.1-.6h5.8l.1.4c.7 3.5 4 4.2 6.7 4.2 2.9 0 6-.9 6-3.6 0-1.3-.9-2.3-2.6-2.8-1-.3-2.3-.7-3.6-1-2.3-.6-4.6-1.3-6.1-1.8-3.6-1.3-5.6-3.8-5.6-6.9 0-5.7 5.5-8.3 11-8.3 7.4 0 11.2 2.8 11.6 8.5l.1.6h-5.7l-.1-.4c-.6-3.3-3.8-3.8-5.7-3.8-1.6 0-5.4.3-5.4 3 0 1.2 1.1 2.1 3.2 2.8.6.2 1.6.4 2.7.7 2.3.6 5.2 1.3 6.6 1.8 3.8 1.3 5.6 3.7 5.6 7.2M492.4 177.6c-2.2 0-4-1.7-4-4s1.8-4 4-4 4 1.7 4 4-1.8 4-4 4m0-7.3c-1.8 0-3.3 1.4-3.3 3.3 0 2 1.5 3.3 3.3 3.3 1.8 0 3.3-1.4 3.3-3.3 0-2-1.5-3.3-3.3-3.3m-.4 4v1.3h-1.2v-4.2h2c.9 0 1.6.6 1.6 1.5 0 .7-.3 1.1-.8 1.3l1 1.5h-1.3l-.8-1.3h-.5zm.6-1.8h-.6v.9h.7c.4 0 .6-.2.6-.5-.1-.2-.3-.4-.7-.4" />
</svg>