<?xml version="1.0" encoding="utf-8"?>
<svg version="1.1" id="Layer_1" xmlns="http://www.w3.org/2000/svg" xmlns:xlink="http://www.w3.org/1999/xlink" x="0px" y="0px"
	 viewBox="0 0 282 282" style="fill: #5c6670; enable-background:new 0 0 282 282;" xml:space="preserve">
<g>
	<path d="M211.5,18.9c-10.6-6.1-22-10.9-34.1-14.1C165.7,1.7,153.5,0,140.9,0S116,1.7,104.3,4.8c-12.1,3.2-23.5,8-34.1,14.1
		C59.5,25.1,49.7,32.7,41,41.4l0.1,0.1c-8.6,8.6-16.1,18.4-22.2,29C12.8,81,8,92.5,4.8,104.5l23.2,6.2c2.7-10,6.6-19.5,11.7-28.2
		c5.1-8.9,11.4-17,18.6-24.2l-0.1-0.1c7.2-7.1,15.3-13.4,24.1-18.5s18.3-9,28.3-11.7c9.7-2.6,19.8-4,30.3-4s20.7,1.4,30.3,4
		c10,2.7,19.5,6.6,28.3,11.7c8.9,5.1,17,11.4,24.3,18.6l17-17C232,32.7,222.2,25.1,211.5,18.9z"/>
	<path d="M24,141H0c0,12.6,1.7,24.9,4.8,36.5l23.2-6.2C25.4,161.6,24,151.5,24,141z"/>
	<path d="M277.2,104.5c-3.2-12-8-23.5-14.1-34l-20.8,12c5.1,8.8,9,18.2,11.7,28.2c1.3,5,2.3,10.1,3,15.3h24.2
		C280.4,118.7,279.1,111.5,277.2,104.5z"/>
	<path d="M254,171.3c-2.7,10-6.6,19.5-11.7,28.2c-5.1,8.9-11.4,17-18.6,24.2c-7.2,7.2-15.3,13.5-24.2,18.6
		c-8.8,5.1-18.2,9-28.2,11.7c-9.7,2.6-19.8,4-30.3,4s-20.6-1.4-30.3-4c-10-2.7-19.5-6.6-28.2-11.7c-8.9-5.1-17-11.4-24.2-18.6
		c-7.2-7.2-13.5-15.3-18.6-24.2l-20.8,12c6.2,10.7,13.7,20.5,22.4,29.2s18.5,16.2,29.2,22.4c10.5,6.1,22,10.9,34,14.1
		c11.6,3.1,23.9,4.8,36.5,4.8s24.9-1.7,36.5-4.8c12-3.2,23.5-8,34-14.1c10.7-6.2,20.5-13.7,29.2-22.4s16.2-18.5,22.4-29.2
		c6.1-10.5,10.9-22,14.1-34c1.9-7,3.2-14.2,4-21.5H257C256.4,161.2,255.4,166.3,254,171.3z"/>
	<path d="M141,205c-35.3,0-64-28.7-64-64s28.7-64,64-64c30.2,0,55.5,20.9,62.2,49h24.5c-7.1-41.5-43.2-73-86.7-73
		c-48.6,0-88,39.4-88,88s39.4,88,88,88c43.5,0,79.6-31.5,86.7-73h-24.5C196.5,184.1,171.2,205,141,205z"/>
</g>
</svg>
