
<svg width="50px" height="62px" viewBox="0 0 50 62" version="1.1" xmlns="http://www.w3.org/2000/svg" xmlns:xlink="http://www.w3.org/1999/xlink">
    <!-- Generator: Sketch 45.2 (43514) - http://www.bohemiancoding.com/sketch -->
    <desc>Created with Sketch.</desc>
    <defs></defs>
    <g id="Page-1" stroke="none" stroke-width="1" fill="none" fill-rule="evenodd">
        <g id="app" fill-rule="nonzero">
            <path d="M25.2941176,37.6470588 C24.0529412,37.6470588 0.417647059,47.3941176 0.417647059,47.3941176 L0.376470588,53.4823529 L23.9647059,61.1764706 L27.7823529,61.1764706 L49.6411765,53.8647059 L49.7764706,47.7352941 C49.7764706,47.7352941 26.5294118,37.6470588 25.2941176,37.6470588 Z" id="Shape" fill="#464646" opacity="0.17"></path>
            <path d="M49.6294118,45.3294118 L49.6294118,50.2352941 C49.6294118,50.7352941 49.0411765,51.2294118 47.9,51.6058824 L29.0764706,57.8 C26.3495886,58.556905 23.4680585,58.556905 20.7411765,57.8 L1.91764706,51.6058824 C0.776470588,51.2294118 0.2,50.7352941 0.188235294,50.2352941 L0.188235294,45.3294118 L49.6294118,45.3294118 Z" id="Shape" fill="#799987"></path>
            <path d="M20.7588235,52.8941176 L1.93529412,46.7 C-0.352941176,45.9411765 -0.352941176,44.7058824 1.94705882,43.9588235 L20.7705882,37.7647059 C23.4973489,37.0069102 26.3791217,37.0069102 29.1058824,37.7647059 L47.9294118,43.9588235 C50.2294118,44.7176471 50.2294118,45.9470588 47.9294118,46.7 L29.1058824,52.8941176 C26.3791217,53.6519133 23.4973489,53.6519133 20.7705882,52.8941176" id="Shape" fill="#79B39B"></path>
            <path d="M39.3235294,44.9058824 L35.8823529,43.5294118 C35.5411765,43.3941176 34.9588235,43.4882353 34.9588235,43.6823529 L34.9588235,44.1647059 C34.9588235,44.2823529 34.7176471,44.3764706 34.4176471,44.3764706 L32.5117647,44.3764706 C32.2117647,44.3764706 31.9705882,44.2823529 31.9705882,44.1647059 L31.9705882,43.1941176 C31.9705882,43.0764706 32.2117647,42.9823529 32.5117647,42.9823529 L33.1470588,42.9823529 C33.6294118,42.9823529 33.8705882,42.7529412 33.5294118,42.6176471 L30.0705882,41.2529412 C29.8227981,41.1677867 29.5536725,41.1677867 29.3058824,41.2529412 L25.8470588,42.6176471 C25.5058824,42.7529412 25.7470588,42.9823529 26.2294118,42.9823529 L26.9882353,42.9823529 C27.2882353,42.9823529 27.5294118,43.0764706 27.5294118,43.1941176 L27.5294118,44.1529412 C27.5294118,44.2705882 27.2882353,44.3647059 26.9882353,44.3647059 L22.8352941,44.3647059 C22.5352941,44.3647059 22.2941176,44.2705882 22.2941176,44.1529412 L22.2941176,43.1941176 C22.2941176,43.0764706 22.5352941,42.9823529 22.8352941,42.9823529 L23.6235294,42.9823529 C24.1058824,42.9823529 24.3470588,42.7529412 24.0058824,42.6176471 L20.5470588,41.2529412 C20.2992687,41.1677867 20.0301431,41.1677867 19.7823529,41.2529412 L16.3235294,42.6176471 C15.9823529,42.7529412 16.2235294,42.9823529 16.7058824,42.9823529 L17.2941176,42.9823529 C17.5941176,42.9823529 17.8352941,43.0764706 17.8352941,43.1941176 L17.8352941,44.1705882 C17.8352941,44.2882353 17.5941176,44.3823529 17.2941176,44.3823529 L15.4470588,44.3823529 C15.1470588,44.3823529 14.9058824,44.2882353 14.9058824,44.1705882 L14.9058824,43.6882353 C14.9058824,43.5 14.3176471,43.4058824 13.9823529,43.5352941 L10.5294118,44.9058824 C10.3176471,44.9882353 10.3176471,45.1235294 10.5294118,45.2058824 L13.9882353,46.5705882 C14.3294118,46.7058824 14.9117647,46.6117647 14.9117647,46.4176471 L14.9117647,45.9411765 C14.9117647,45.8235294 15.1529412,45.7294118 15.4529412,45.7294118 L17.3176471,45.7294118 C17.6176471,45.7294118 17.8588235,45.8235294 17.8588235,45.9411765 L17.8588235,46.9176471 C17.8588235,47.0352941 17.6176471,47.1294118 17.3176471,47.1294118 L16.7294118,47.1294118 C16.2470588,47.1294118 16.0058824,47.3588235 16.3470588,47.4941176 L19.8058824,48.8588235 C20.0536725,48.943978 20.3227981,48.943978 20.5705882,48.8588235 L24.0294118,47.4941176 C24.3705882,47.3588235 24.1294118,47.1294118 23.6470588,47.1294118 L22.8352941,47.1294118 C22.5352941,47.1294118 22.2941176,47.0352941 22.2941176,46.9176471 L22.2941176,45.9588235 C22.2941176,45.8411765 22.5352941,45.7470588 22.8352941,45.7470588 L26.9882353,45.7470588 C27.2882353,45.7470588 27.5294118,45.8411765 27.5294118,45.9588235 L27.5294118,46.9176471 C27.5294118,47.0352941 27.2882353,47.1294118 26.9882353,47.1294118 L26.2294118,47.1294118 C25.7470588,47.1294118 25.5058824,47.3588235 25.8470588,47.4941176 L29.3058824,48.8588235 C29.5536725,48.943978 29.8227981,48.943978 30.0705882,48.8588235 L33.5294118,47.4941176 C33.8705882,47.3588235 33.6294118,47.1294118 33.1470588,47.1294118 L32.5117647,47.1294118 C32.2117647,47.1294118 31.9705882,47.0352941 31.9705882,46.9176471 L31.9705882,45.9411765 C31.9705882,45.8235294 32.2117647,45.7294118 32.5117647,45.7294118 L34.4058824,45.7294118 C34.7058824,45.7294118 34.9470588,45.8235294 34.9470588,45.9411765 L34.9470588,46.4235294 C34.9470588,46.6117647 35.5352941,46.7058824 35.8705882,46.5764706 L39.3294118,45.2117647 C39.5411765,45.1294118 39.5411765,44.9941176 39.3294118,44.9117647" id="Shape" fill="#FFFFFF"></path>
            <path d="M37.9529412,19.5529412 L37.9529412,39.5235294 C37.9655198,40.2961677 37.6685899,41.0417501 37.1282905,41.5942035 C36.5879912,42.1466568 35.8491975,42.4600964 35.0764706,42.4647059 L14.9176471,42.4647059 C14.1449201,42.4600964 13.4061265,42.1466568 12.8658271,41.5942035 C12.3255277,41.0417501 12.0285978,40.2961677 12.0411765,39.5235294 L12.0411765,19.5529412 L13.4294118,19.5529412 L13.4294118,19.7235294 C13.4294118,20.1117647 14.0176471,20.4235294 14.7235294,20.4235294 L35.1294118,20.4235294 C35.8411765,20.4235294 36.4235294,20.1117647 36.4235294,19.7235294 L36.4235294,19.5529412 L37.9529412,19.5529412 Z" id="Shape" fill="#E2F0F7"></path>
            <path d="M36.4235294,19.5529412 L36.4235294,19.7235294 C36.4235294,20.1117647 35.8352941,20.4235294 35.1294118,20.4235294 L14.7058824,20.4235294 C13.9882353,20.4235294 13.4117647,20.1117647 13.4117647,19.7235294 L13.4117647,19.5529412 L36.4235294,19.5529412 Z" id="Shape" fill="#E2F0F7"></path>
            <path d="M36.4235294,19.2705882 L36.4235294,19.7235294 C36.4235294,20.1117647 35.8352941,20.4235294 35.1294118,20.4235294 L14.7058824,20.4235294 C13.9882353,20.4235294 13.4117647,20.1117647 13.4117647,19.7235294 L13.4117647,19.2705882 C13.4117647,18.8823529 14,18.5705882 14.7058824,18.5705882 L35.1294118,18.5705882 C35.8411765,18.5705882 36.4235294,18.8823529 36.4235294,19.2705882 Z" id="Shape" fill="#F3FCFF"></path>
            <path d="M36.4235294,19.2705882 L36.4235294,19.7235294 C36.4235294,20.1117647 35.8352941,20.4235294 35.1294118,20.4235294 L14.7058824,20.4235294 C13.9882353,20.4235294 13.4117647,20.1117647 13.4117647,19.7235294 L13.4117647,19.2705882 C13.4117647,18.8823529 14,18.5705882 14.7058824,18.5705882 L35.1294118,18.5705882 C35.8411765,18.5705882 36.4235294,18.8823529 36.4235294,19.2705882 Z" id="Shape" fill="#E2F0F7"></path>
            <path d="M36.4705882,17.6470588 C37.2804725,17.6535315 37.9326773,18.3136258 37.9294118,19.1235294 L37.9294118,20.0705882 C37.9325445,20.4606162 37.7806044,20.8359128 37.5070192,21.1139106 C37.2334341,21.3919085 36.8606164,21.5498334 36.4705882,21.5529412 L13.5294118,21.5529412 C13.1399212,21.5513895 12.7670883,21.3947695 12.4933355,21.1177051 C12.2195826,20.8406407 12.0674567,20.4659517 12.0705882,20.0764706 L12.0705882,19.1294118 C12.0658801,18.7389167 12.2173081,18.3627103 12.491232,18.0843684 C12.7651558,17.8060264 13.1388914,17.6485988 13.5294118,17.6470588 L36.4705882,17.6470588 Z M36.4,19.7235294 L36.4235294,19.2705882 C36.4235294,18.8823529 35.8411765,18.5705882 35.1294118,18.5705882 L14.7058824,18.5705882 C14,18.5705882 13.4117647,18.8823529 13.4117647,19.2705882 L13.4117647,19.7235294 C13.4117647,20.1117647 13.9882353,20.4235294 14.7058824,20.4235294 L35.1058824,20.4235294 C35.8117647,20.4235294 36.4,20.1117647 36.4,19.7235294 Z" id="Shape" fill="#F3FCFF"></path>
            <rect id="Rectangle-path" fill="#847264" x="13.8" y="27.5294118" width="22.3882353" height="7.60588235"></rect>
            <path d="M13.8,35.1352941 L36.1882353,35.1352941 L36.1882353,39.6281901 C36.1882353,40.2786116 35.6615115,40.8058824 35.0117647,40.8058824 L14.9764706,40.8058824 C14.3267238,40.8058824 13.8,40.2786116 13.8,39.6281901 L13.8,35.1352941 Z" id="Shape" fill="#685A50"></path>
            <rect id="Rectangle-path" fill="#9B8676" x="13.8" y="25.5235294" width="22.3882353" height="4.01764706" rx="2"></rect>
            <path d="M33.1235294,27.4764706 L30.9058824,27.4764706 C30.9482362,26.8953568 31.4320507,26.4455214 32.0147059,26.4455214 C32.5973611,26.4455214 33.0811755,26.8953568 33.1235294,27.4764706 L33.1235294,27.4764706 Z" id="Shape" fill="#B3B3B3"></path>
            <path d="M32.7588235,27.4764706 L30.5411765,27.4764706 C30.5835304,26.8953568 31.0673448,26.4455214 31.65,26.4455214 C32.2326552,26.4455214 32.7164696,26.8953568 32.7588235,27.4764706 L32.7588235,27.4764706 Z" id="Shape" fill="#C3C6C8"></path>
            <path d="M19.5,27.4764706 L17.2823529,27.4764706 C17.3247068,26.8953568 17.8085213,26.4455214 18.3911765,26.4455214 C18.9738317,26.4455214 19.4576461,26.8953568 19.5,27.4764706 L19.5,27.4764706 Z" id="Shape" fill="#B3B3B3"></path>
            <path d="M19.1352941,27.4764706 L16.9176471,27.4764706 C16.9600009,26.8953568 17.4438154,26.4455214 18.0264706,26.4455214 C18.6091258,26.4455214 19.0929402,26.8953568 19.1352941,27.4764706 L19.1352941,27.4764706 Z" id="Shape" fill="#C3C6C8"></path>
            <circle id="Oval" fill="#9B8676" cx="29.1352941" cy="39.0294118" r="1"></circle>
            <circle id="Oval" fill="#9B8676" cx="21.3235294" cy="39.0294118" r="1"></circle>
            <circle id="Oval" fill="#847264" cx="25.8411765" cy="37.1941176" r="1"></circle>
            <circle id="Oval" fill="#9B8676" cx="32.8647059" cy="37.4058824" r="1"></circle>
            <circle id="Oval" fill="#847264" cx="16.7294118" cy="37.1" r="1"></circle>
            <path d="M32.6117647,21.0764706 C31.8139642,21.3918037 30.9637403,21.553466 30.1058824,21.5529412 C26.1412616,21.4852851 22.9815316,18.2175977 23.0470588,14.2529412 C23.0140136,12.3479812 23.7392101,10.5079448 25.0630563,9.13776398 C26.3869025,7.76758313 28.2009127,6.9795406 30.1058824,6.94705882 C30.5822605,6.94662917 31.0573828,6.99591572 31.5235294,7.09411765 C25.8823529,8.12352941 21.6882353,20.0588235 32.6117647,21.0764706 Z" id="Shape" fill="#AAE655"></path>
            <path d="M37.1588235,14.2470588 C37.1858545,17.2419692 35.3808115,19.9495337 32.6058824,21.0764706 C21.6882353,20.0588235 25.8823529,8.12352941 31.5235294,7.09411765 C34.8524311,7.85323222 37.1999376,10.8329482 37.1588235,14.2470588 Z" id="Shape" fill="#BFEC80"></path>
            <path d="M27.8529412,14.2647059 C27.0551407,14.580039 26.2049168,14.7417013 25.3470588,14.7411765 C21.382438,14.6735204 18.2227081,11.405833 18.2882353,7.44117647 C18.2536113,5.53520722 18.9781063,3.69365576 20.3021217,2.32219643 C21.6261371,0.950737101 23.4410517,0.161883505 25.3470588,0.129411765 C25.8236428,0.130915897 26.2987674,0.182174153 26.7647059,0.282352941 C21.1176471,1.31176471 16.9352941,13.2470588 27.8529412,14.2647059 Z" id="Shape" fill="#AAE655"></path>
            <path d="M32.4058824,7.43529412 C32.4329133,10.4302045 30.6278703,13.137769 27.8529412,14.2647059 C16.9352941,13.2470588 21.1176471,1.31176471 26.7647059,0.282352941 C30.0959483,1.03909247 32.4463882,4.01942082 32.4058824,7.43529412 Z" id="Shape" fill="#BFEC80"></path>
            <path d="M22.2529412,21.0764706 C21.4551407,21.3918037 20.6049168,21.553466 19.7470588,21.5529412 C15.782438,21.4852851 12.6227081,18.2175977 12.6882353,14.2529412 C12.65519,12.3479812 13.3803866,10.5079448 14.7042328,9.13776398 C16.028079,7.76758313 17.8420892,6.9795406 19.7470588,6.94705882 C20.2234369,6.94662917 20.6985593,6.99591572 21.1647059,7.09411765 C15.5176471,8.12352941 11.3352941,20.0588235 22.2529412,21.0764706 Z" id="Shape" fill="#AAE655"></path>
            <path d="M26.8058824,14.2470588 C26.8329133,17.2419692 25.0278703,19.9495337 22.2529412,21.0764706 C11.3352941,20.0588235 15.5176471,8.12352941 21.1764706,7.09411765 C24.5030316,7.85560467 26.8476065,10.8347093 26.8058824,14.2470588 L26.8058824,14.2470588 Z" id="Shape" fill="#BFEC80"></path>
            <path d="M27.1235294,13.6411765 C26.9621182,13.4773544 26.7417457,13.3851148 26.5117647,13.3851148 C26.2817837,13.3851148 26.0614112,13.4773544 25.9,13.6411765 L25.6470588,13.9 L25.6470588,12.5058824 C25.6470588,12.0283185 25.2599168,11.6411765 24.7823529,11.6411765 C24.3047891,11.6411765 23.9176471,12.0283185 23.9176471,12.5058824 L23.9176471,15.6588235 L23.6647059,15.4 C23.5032947,15.2361779 23.2829221,15.1439383 23.0529412,15.1439383 C22.8229602,15.1439383 22.6025877,15.2361779 22.4411765,15.4 C22.1041666,15.7450957 22.1041666,16.2960808 22.4411765,16.6411765 L23.9176471,18.1411765 L23.9176471,26.5647059 L25.6470588,26.5647059 L25.6470588,16.3823529 L27.1235294,14.8823529 C27.4605393,14.5372573 27.4605393,13.9862721 27.1235294,13.6411765 L27.1235294,13.6411765 Z" id="Shape" fill="#759684"></path>
            <path d="M37.9529412,19.5529412 L37.9529412,20.0705882 C37.9561068,20.4646946 37.8009476,20.843579 37.5222633,21.1222633 C37.243579,21.4009476 36.8646946,21.5561068 36.4705882,21.5529412 L13.5,21.5529412 C13.1094796,21.5514012 12.7357441,21.3939736 12.4618202,21.1156316 C12.1878964,20.8372897 12.0364683,20.4610833 12.0411765,20.0705882 L12.0411765,19.5529412 L13.4294118,19.5529412 L13.4294118,19.7235294 C13.4294118,20.1117647 14.0176471,20.4235294 14.7235294,20.4235294 L35.1294118,20.4235294 C35.8411765,20.4235294 36.4235294,20.1117647 36.4235294,19.7235294 L36.4235294,19.5529412 L37.9529412,19.5529412 Z" id="Shape" fill-opacity="0.5" fill="#F3FCFF"></path>
            <path d="M22.9411765,27.5470588 L27.5705882,27.5470588 C27.5738651,27.0652658 27.1876433,26.6711619 26.7058824,26.6647059 C26.6176836,26.6668178 26.5303562,26.6826955 26.4470588,26.7117647 C26.1802167,26.3250878 25.7404007,26.0942242 25.2705882,26.0942242 C24.8007758,26.0942242 24.3609597,26.3250878 24.0941176,26.7117647 C24.0108202,26.6826955 23.9234929,26.6668178 23.8352941,26.6647059 C23.5987735,26.6599371 23.3703691,26.7509815 23.2019857,26.9171494 C23.0336022,27.0833173 22.9395407,27.3104958 22.9411765,27.5470588 L22.9411765,27.5470588 Z" id="Shape" fill="#847264"></path>
            <rect id="Rectangle-path" fill-opacity="0.251896513" fill="#464646" x="11.8823529" y="41.6882353" width="25.9117647" height="5.1" rx="2.33"></rect>
        </g>
    </g>
</svg>
