<?xml version="1.0" encoding="UTF-8"?>
<svg width="1440px" height="86px" viewBox="0 0 1440 86" version="1.1" xmlns="http://www.w3.org/2000/svg" xmlns:xlink="http://www.w3.org/1999/xlink">
    <!-- Generator: Sketch 46.2 (44496) - http://www.bohemiancoding.com/sketch -->
    <title>green-weave</title>
    <desc>Created with Sketch.</desc>
    <defs></defs>
    <g id="Habitat-SaaS-Home-&amp;-Pricing/desktop" stroke="none" stroke-width="1" fill="none" fill-rule="evenodd">
        <g id="Pricing-(desktop)-V2" transform="translate(0.000000, -1039.000000)" fill="#87B09A">
            <g id="green-weave" transform="translate(0.000000, 1039.000000)">
                <path d="M0,36.3671875 C80,36.3671875 438.15625,13.703125 584.421875,20 C730.6875,26.296875 1360,36.3671875 1440,36.3671875 L1440,85.109375 L0,85.109375 L0,36.3671875 Z" id="hill-middle" fill-opacity="0.6"></path>
                <path d="M1440,0.7578125 C1285,0.7578125 840.211913,53.9157917 605.453125,46.84375 C370.694337,39.7717083 155,1.67097536 0,0.7578125 L0,85.109375 L1440,85.109375 L1440,0.7578125 Z" id="hill-back" fill-opacity="0.6"></path>
                <path d="M752.125,55.144257 C913.203125,55.1446748 1402,55.144257 1440,55.144257 C1440,63.7553681 1440,85.109375 1440,85.109375 L1.77948153e-12,85.109375 C1.77948153e-12,85.109375 7.45507181e-14,64.4938664 1.83316027e-12,55.144257 C38,55.1399994 187.462697,69.0586843 354.695313,69.4684914 C510.270443,69.8497316 669.771963,55.1440434 752.125,55.144257 Z" id="hill-front"></path>
            </g>
        </g>
    </g>
</svg>