<?xml version="1.0" encoding="utf-8"?>
<!-- Generator: Adobe Illustrator 22.1.0, SVG Export Plug-In . SVG Version: 6.00 Build 0)  -->
<svg version="1.1" xmlns="http://www.w3.org/2000/svg" xmlns:xlink="http://www.w3.org/1999/xlink" x="0px" y="0px"
	 viewBox="0 0 916 172" style="enable-background:new 0 0 916 172;" xml:space="preserve">
<style type="text/css">
	.st0{display:none;}
	.st1{display:inline;fill:#FFFFFF;}
	.st2{display:inline;fill:none;}
	.st3{display:inline;opacity:0.13;fill:#FFFFFF;}
	.st4{fill:url(#circles_1_);}
	.st5{display:inline;}
	.st6{display:inline;filter:url(#Adobe_OpacityMaskFilter);}
	.st7{fill:#FFFFFF;}
	.st8{display:inline;mask:url(#mask-3_1_);}
	.st9{fill:#FFFFFF;fill-opacity:0.1;}
</style>
<g id="Layer_2" class="st0">
	<circle class="st1" cx="829.7" cy="86.2" r="85.8"/>
	<circle class="st1" cx="644" cy="86.2" r="85.8"/>
	<circle class="st1" cx="457.5" cy="86.2" r="85.8"/>
	<circle class="st1" cx="272" cy="86.2" r="85.8"/>
	<circle class="st1" cx="85.5" cy="86.2" r="85.8"/>
	<rect x="357.8" y="75.7" class="st2" width="13.9" height="10.6"/>
	<rect x="543.3" y="74.8" class="st2" width="14.9" height="11.5"/>
	<rect x="729.9" y="74.8" class="st2" width="14.1" height="11.4"/>
	<rect x="-7.6" y="-6.9" class="st3" width="186.5" height="186.3"/>
	<rect x="178.9" y="-6.9" class="st3" width="186.3" height="186.3"/>
	<rect x="364.4" y="-6.9" class="st3" width="186.3" height="186.3"/>
	<rect x="550.5" y="-6.9" class="st3" width="186.3" height="186.3"/>
	<rect x="736.6" y="-6.9" class="st3" width="186.3" height="186.3"/>
</g>
<g id="Layer_3" class="st0">
</g>
<g id="Layer_1">
	<title>27E81F67-A983-497C-AAC1-5E5770B4C609</title>
	<desc>Created with sketchtool.</desc>
	<g id="Symbols">
		<g id="flow-infographic_x2F_diagram" transform="translate(-420.000000, -68.000000)">
			<g id="arrow-circles" transform="translate(0.000000, 20.000000)">
				
					<linearGradient id="circles_1_" gradientUnits="userSpaceOnUse" x1="196.7041" y1="521.3128" x2="195.7108" y2="521.3128" gradientTransform="matrix(916 0 0 172 -178845 -89531.8047)">
					<stop  offset="0" style="stop-color:#35809B"/>
					<stop  offset="1" style="stop-color:#25B8A7"/>
				</linearGradient>
				<path id="circles" class="st4" d="M1136.3,175.6c-0.1,0.1-0.1,0.1-0.1,0.2c-15,25.7-42.3,41.8-72.4,41.8
					c-30.4,0-57.9-16.4-72.8-42.5c-0.3-0.5-0.9-0.6-1.4-0.4c-0.5,0.3-0.6,0.9-0.4,1.4c15.3,26.7,43.5,43.5,74.6,43.5
					c30.6,0,58.4-16.2,73.8-42.2c0-0.1,0.1-0.1,0.1-0.2c4.7-7.5,8.4-16,18.8-41.1c0.1-0.3,0.3-0.6,0.4-0.9l5,11.6
					c0.2,0.5,0.8,0.7,1.3,0.5c0.5-0.2,0.7-0.8,0.5-1.3l-5.9-13.7c-0.2-0.5-0.8-0.7-1.3-0.5c-0.1,0-0.2,0.1-0.2,0.1l-13.4,5.7
					c-0.5,0.2-0.7,0.8-0.5,1.3c0.2,0.5,0.8,0.7,1.3,0.5l11.2-4.8c-0.1,0.2-0.2,0.5-0.3,0.7C1144.5,159.7,1140.7,168.3,1136.3,175.6z
					 M949.5,90.7c0,0.1,0.1,0.3,0.1,0.4c4.6,7.4,8.3,15.8,18.7,40.9c0.1,0.3,0.3,0.7,0.4,1l-11.3-4.8c-0.5-0.2-1.1,0-1.3,0.5
					c-0.2,0.5,0,1.1,0.5,1.3l13.6,5.8c0.5,0.2,1.1,0,1.3-0.5l5.9-13.7c0.2-0.5,0-1.1-0.5-1.3c-0.5-0.2-1.1,0-1.3,0.5l-5,11.5
					c-0.1-0.3-0.3-0.7-0.5-1.1c-9.9-24-13.8-32.8-18.2-40.1c0-0.1-0.1-0.2-0.1-0.2c-15.3-26.1-43.3-42.5-74.2-42.5
					c-30.4,0-58.1,15.9-73.5,41.4c-0.3,0.5-0.1,1.1,0.3,1.4c0.5,0.3,1.1,0.1,1.4-0.3c15.1-24.9,42.1-40.4,71.8-40.4
					C907.4,50.3,934.4,65.8,949.5,90.7z M764.3,175.6c-0.1,0.1-0.1,0.1-0.1,0.2c-15,25.7-42.3,41.8-72.4,41.8
					c-30.4,0-57.9-16.4-72.8-42.5c-0.3-0.5-0.9-0.6-1.4-0.4c-0.5,0.3-0.6,0.9-0.4,1.4c15.3,26.7,43.5,43.5,74.6,43.5
					c30.6,0,58.4-16.2,73.8-42.2c0-0.1,0.1-0.1,0.1-0.2c4.7-7.5,8.4-16,18.8-41.1c0.1-0.3,0.2-0.6,0.3-0.8l4.9,11.5
					c0.2,0.5,0.8,0.7,1.3,0.5c0.5-0.2,0.7-0.8,0.5-1.3l-5.9-13.7c-0.2-0.5-0.8-0.7-1.3-0.5l-13.6,5.8c-0.5,0.2-0.7,0.8-0.5,1.3
					c0.2,0.5,0.8,0.7,1.3,0.5l11.3-4.8c-0.1,0.2-0.2,0.5-0.3,0.8C772.5,159.7,768.7,168.3,764.3,175.6z M578.7,91.1
					c4.3,7.2,8.2,15.9,18.1,39.9c0.2,0.4,0.3,0.8,0.5,1.1l-11.6-4.9c-0.5-0.2-1.1,0-1.3,0.5c-0.2,0.5,0,1.1,0.5,1.3l13.6,5.8
					c0.5,0.2,1.1,0,1.3-0.5l5.9-13.7c0.2-0.5,0-1.1-0.5-1.3c-0.5-0.2-1.1,0-1.3,0.5l-4.8,11.2c-0.1-0.3-0.2-0.6-0.4-0.8
					c-10.4-25.2-14.2-33.6-18.8-41.1c-0.1-0.1-0.2-0.3-0.4-0.3C563.9,63.7,536.4,48,506.2,48c-47.6,0-86.2,38.5-86.2,86
					s38.6,86,86.2,86c31.1,0,59.4-16.6,74.7-43.1c0.3-0.5,0.1-1.1-0.4-1.4c-0.5-0.3-1.1-0.1-1.4,0.4c-14.9,25.8-42.5,42.1-72.9,42.1
					c-46.5,0-84.2-37.6-84.2-84s37.7-84,84.2-84c29.9,0,57.1,15.7,72.2,40.8C578.5,90.9,578.6,91,578.7,91.1z M618.1,89.7
					c-0.3,0.5-0.1,1.1,0.3,1.4c0.5,0.3,1.1,0.1,1.4-0.3c15.1-24.9,42.1-40.4,71.8-40.4c30.2,0,57.6,16,72.5,41.5
					c0.3,0.5,0.9,0.6,1.4,0.4s0.6-0.9,0.4-1.4c-15.3-26.1-43.3-42.5-74.2-42.5C661.2,48.3,633.6,64.2,618.1,89.7z M951.9,176.8
					c0.3-0.5,0.1-1.1-0.4-1.4c-0.5-0.3-1.1-0.1-1.4,0.4c-15,25.7-42.3,41.8-72.4,41.8c-30.4,0-57.9-16.4-72.8-42.5
					c-0.3-0.5-0.9-0.6-1.4-0.4c-0.5,0.3-0.6,0.9-0.4,1.4c15.3,26.7,43.5,43.5,74.6,43.5C908.5,219.6,936.5,203.1,951.9,176.8z
					 M990.1,89.7c-0.3,0.5-0.1,1.1,0.3,1.4c0.5,0.3,1.1,0.1,1.4-0.3c15.1-24.9,42.1-40.4,71.8-40.4c30.2,0,57.6,16,72.5,41.5
					c0.3,0.5,0.9,0.6,1.4,0.4c0.5-0.3,0.6-0.9,0.4-1.4c-15.3-26.1-43.3-42.5-74.2-42.5C1033.2,48.3,1005.6,64.2,990.1,89.7z
					 M1175.1,176.9c15.3,26.4,43.5,43.1,74.7,43.1c47.6,0,86.2-38.5,86.2-86s-38.6-86-86.2-86c-30.6,0-58.4,16-73.9,41.7
					c-0.3,0.5-0.1,1.1,0.3,1.4c0.5,0.3,1.1,0.1,1.4-0.3c15.1-25.1,42.3-40.8,72.2-40.8c46.5,0,84.2,37.6,84.2,84s-37.7,84-84.2,84
					c-30.4,0-58-16.2-72.9-42.1c-0.3-0.5-0.9-0.6-1.4-0.4C1175,175.8,1174.9,176.5,1175.1,176.9z M601.6,137.6
					c-0.2-0.5-0.7-0.8-1.1-0.6c-0.4,0.2-0.6,0.8-0.5,1.3c0.2,0.5,0.2,0.5,0.3,0.9c0.2,0.5,0.7,0.8,1.1,0.6c0.4-0.2,0.6-0.8,0.5-1.3
					C601.8,138,601.8,138,601.6,137.6z M605.6,147.6c-0.2-0.5-0.7-0.8-1.1-0.5c-0.4,0.2-0.6,0.8-0.4,1.3c0.1,0.3,0.2,0.6,0.3,0.9
					c0.2,0.5,0.7,0.8,1.1,0.5c0.4-0.2,0.6-0.8,0.4-1.3C605.8,148.2,605.7,147.9,605.6,147.6z M610.6,157.5c-0.2-0.5-0.7-0.8-1.1-0.5
					c-0.4,0.2-0.6,0.8-0.4,1.4c0.1,0.3,0.2,0.6,0.3,0.9c0.2,0.5,0.7,0.7,1.1,0.5s0.6-0.8,0.4-1.4
					C610.8,158.1,610.7,157.8,610.6,157.5z M614.5,167.4c-0.2-0.5-0.7-0.7-1.1-0.4c-0.4,0.3-0.6,0.9-0.3,1.4
					c0.1,0.3,0.3,0.6,0.4,0.9c0.2,0.5,0.7,0.7,1.1,0.4c0.4-0.3,0.5-0.9,0.3-1.4C614.8,168.1,614.7,167.8,614.5,167.4z M787.4,129.3
					c0.2-0.5,0.2-0.5,0.3-0.9c0.2-0.5,0-1.1-0.5-1.3c-0.4-0.2-0.9,0-1.1,0.6c-0.2,0.5-0.2,0.5-0.3,0.9c-0.2,0.5,0,1.1,0.5,1.3
					C786.7,130.1,787.2,129.8,787.4,129.3z M791.4,118.3c0.1-0.3,0.2-0.6,0.3-0.9c0.2-0.5,0-1.1-0.4-1.3s-0.9,0-1.1,0.5
					c-0.1,0.3-0.2,0.6-0.3,0.9c-0.2,0.5,0,1.1,0.4,1.3S791.2,118.8,791.4,118.3z M796.4,108.3c0.1-0.3,0.2-0.6,0.3-0.9
					c0.2-0.5,0-1.1-0.4-1.4s-0.9,0-1.1,0.5c-0.1,0.3-0.2,0.6-0.3,0.9c-0.2,0.5,0,1.1,0.4,1.4C795.7,109,796.2,108.8,796.4,108.3z
					 M800.3,98.3c0.1-0.3,0.2-0.6,0.4-0.9c0.2-0.5,0.1-1.1-0.3-1.4c-0.4-0.3-0.9-0.1-1.1,0.4c-0.1,0.3-0.3,0.6-0.4,0.9
					c-0.2,0.5-0.1,1.1,0.3,1.4C799.6,99,800.1,98.8,800.3,98.3z M973.6,137.6c-0.2-0.5-0.7-0.8-1.1-0.6c-0.4,0.2-0.6,0.8-0.5,1.3
					c0.2,0.5,0.2,0.5,0.3,0.9c0.2,0.5,0.7,0.8,1.1,0.6c0.4-0.2,0.6-0.8,0.5-1.3C973.8,138,973.8,138,973.6,137.6z M977.6,147.6
					c-0.2-0.5-0.7-0.8-1.1-0.5c-0.4,0.2-0.6,0.8-0.4,1.3c0.1,0.3,0.2,0.6,0.3,0.9c0.2,0.5,0.7,0.8,1.1,0.5c0.4-0.2,0.6-0.8,0.4-1.3
					C977.8,148.2,977.7,147.9,977.6,147.6z M982.6,157.5c-0.2-0.5-0.7-0.8-1.1-0.5c-0.4,0.2-0.6,0.8-0.4,1.4
					c0.1,0.3,0.2,0.6,0.3,0.9c0.2,0.5,0.7,0.7,1.1,0.5s0.6-0.8,0.4-1.4C982.8,158.1,982.7,157.8,982.6,157.5z M986.5,167.4
					c-0.2-0.5-0.7-0.7-1.1-0.4c-0.4,0.3-0.6,0.9-0.3,1.4c0.1,0.3,0.3,0.6,0.4,0.9c0.2,0.5,0.7,0.7,1.1,0.4c0.4-0.3,0.5-0.9,0.3-1.4
					C986.8,168.1,986.7,167.8,986.5,167.4z M1159.6,129.3c0.2-0.5,0.2-0.5,0.3-0.9c0.2-0.5,0-1.1-0.5-1.3c-0.4-0.2-0.9,0-1.1,0.6
					c-0.2,0.5-0.2,0.5-0.3,0.9c-0.2,0.5,0,1.1,0.5,1.3C1158.9,130.1,1159.4,129.8,1159.6,129.3z M1163.6,118.3
					c0.1-0.3,0.2-0.6,0.3-0.9c0.2-0.5,0-1.1-0.4-1.3c-0.4-0.2-0.9,0-1.1,0.5c-0.1,0.3-0.2,0.6-0.3,0.9c-0.2,0.5,0,1.1,0.4,1.3
					S1163.4,118.8,1163.6,118.3z M1168.6,108.3c0.1-0.3,0.2-0.6,0.3-0.9c0.2-0.5,0-1.1-0.4-1.4c-0.4-0.2-0.9,0-1.1,0.5
					c-0.1,0.3-0.2,0.6-0.3,0.9c-0.2,0.5,0,1.1,0.4,1.4C1167.9,109.1,1168.4,108.8,1168.6,108.3z M1172.5,98.3
					c0.1-0.3,0.2-0.6,0.4-0.9c0.2-0.5,0.1-1.1-0.3-1.4c-0.4-0.3-0.9-0.1-1.1,0.4c-0.1,0.3-0.3,0.6-0.4,0.9c-0.2,0.5-0.1,1.1,0.3,1.4
					C1171.8,99,1172.3,98.8,1172.5,98.3z"/>
			</g>
			<g id="step-3-bg" transform="translate(408.000000, 53.000000)" class="st0">
				<g id="Mask" class="st5">
				</g>
				<defs>
					<filter id="Adobe_OpacityMaskFilter" filterUnits="userSpaceOnUse" x="420" y="48" width="100" height="100">
						<feColorMatrix  type="matrix" values="1 0 0 0 0  0 1 0 0 0  0 0 1 0 0  0 0 0 1 0"/>
					</filter>
				</defs>
				<mask maskUnits="userSpaceOnUse" x="420" y="48" width="100" height="100" id="mask-3_1_" class="st5">
					<g style="filter:url(#Adobe_OpacityMaskFilter);">
						<path id="path-2_1_" class="st7" d="M520,98.7c0,27.6-22.4,50-50,50s-50-22.4-50-50c0-27.6,22.4-50,50-50S520,71.1,520,98.7z"
							/>
					</g>
				</mask>
				<g id="color_x2F_step_x2F_inactive" class="st8">
					<rect id="Rectangle" x="420" y="48" class="st9" width="100" height="100"/>
				</g>
			</g>
			<g id="step-3-logos" transform="translate(420.000000, 68.000000)" class="st0">
				<g id="k8s-logo" transform="translate(0.000000, 24.231201)" class="st5">
					<path id="Combined-Shape" class="st7" d="M432,48.2c0.2,0,0.5,0.1,0.8,0l8.3,4c0.5,0.1,0.8,0.6,0.9,1l2.1,8.9
						c0.1,0.5,0,1-0.3,1.4l-5.7,7.1c-0.3,0.3-0.8,0.6-1.3,0.6h-9.2c-0.5,0-0.9-0.2-1.3-0.6l-5.7-7.1l-0.1-0.1
						c-0.2-0.3-0.3-0.7-0.2-1.1l2.1-8.9c0.1-0.5,0.5-0.8,0.9-1l8.3-4C431.6,48.3,431.8,48.2,432,48.2z M432,51.3
						c-0.3,0-0.5,0.2-0.5,0.6V52v0.5v0.9c0,0.1-0.1,0.2-0.1,0.2v0.2c-0.3,0-0.6,0.1-0.9,0.1c-1.3,0.2-2.4,0.9-3.2,1.8l-0.1-0.1H427
						c-0.2-0.2-0.5-0.3-0.7-0.6c-0.1-0.1-0.2-0.2-0.3-0.3l-0.1-0.1c-0.1-0.1-0.2-0.1-0.3-0.1c-0.1,0-0.3,0-0.3,0.1
						c-0.1,0.2-0.1,0.6,0.1,0.7l0.1,0.1l0.5,0.2c0.2,0.1,0.5,0.3,0.7,0.6c0.1,0.1,0.1,0.2,0.1,0.2l0.1,0.1c-0.9,1.3-1.3,2.9-1,4.4
						h-0.2c0,0.1-0.1,0.1-0.2,0.2c-0.3,0.1-0.6,0.1-0.9,0.1h-0.6c-0.2,0.1-0.3,0.3-0.3,0.7c0.1,0.2,0.3,0.3,0.5,0.3h0.1l0.5-0.1
						c0.2-0.1,0.6-0.2,0.9-0.2c0.1,0,0.2,0,0.2,0.1h0.2c0.5,1.5,1.5,2.7,2.9,3.5l-0.1,0.2v0.2c-0.1,0.2-0.2,0.6-0.5,0.8
						c-0.1,0.1-0.2,0.2-0.2,0.3v0.1c-0.1,0.2,0,0.6,0.2,0.7c0.2,0.1,0.6,0,0.7-0.2v-0.1c0.1-0.1,0.1-0.3,0.1-0.5
						c0.1-0.3,0.2-0.6,0.3-0.9c0.1,0,0.1-0.1,0.2-0.1l0.1-0.2c1.5,0.6,3.1,0.6,4.6,0l0.1,0.2c0.1,0,0.2,0.1,0.2,0.1
						c0.1,0.2,0.2,0.6,0.3,0.8c0,0.1,0.1,0.3,0.1,0.5v0.1c0.1,0.2,0.5,0.3,0.7,0.2c0.2-0.1,0.3-0.5,0.2-0.7
						c-0.1-0.1-0.1-0.2-0.2-0.3c-0.1-0.2-0.3-0.5-0.5-0.8v-0.2c0-0.1-0.1-0.1-0.1-0.2c1.4-0.8,2.4-2.1,2.9-3.5h0.2
						c0.1-0.1,0.2-0.1,0.2-0.1c0.3,0.1,0.6,0.1,0.9,0.2l0.5,0.1h0.1c0.2,0,0.6-0.2,0.6-0.5s-0.1-0.5-0.3-0.5h-0.6
						c-0.3,0-0.6-0.1-0.9-0.1c-0.1,0-0.1-0.1-0.2-0.2h-0.2c0.2-1.6-0.1-3.1-1-4.4l0.1-0.1c0-0.1,0-0.2,0.1-0.2
						c0.2-0.2,0.5-0.3,0.7-0.6l0.5-0.2l0.1-0.1c0.2-0.2,0.2-0.5,0.1-0.7c-0.2-0.2-0.5-0.2-0.7-0.1l-0.1,0.1
						c-0.1,0.1-0.2,0.2-0.3,0.3c-0.2,0.2-0.5,0.5-0.7,0.6h-0.3l-0.2,0.1c-1-1.1-2.5-1.8-4.1-1.9v-0.2c-0.1-0.1-0.1-0.1-0.1-0.2v-0.9
						V52v-0.1c0-0.3-0.2-0.6-0.5-0.6H432z"/>
					<path id="Fill-6" class="st7" d="M432,62.6c0.2,0,0.3,0,0.5,0.2l1.3,2.3l-0.5,0.1c-0.9,0.2-2,0.1-2.9-0.1l1.3-2.3
						C431.8,62.6,431.9,62.6,432,62.6z M429.9,61.5c0.2,0,0.5,0.2,0.5,0.5V62l-1,2.4c-0.9-0.6-1.7-1.5-2.1-2.6L429.9,61.5z
						 M434.2,61.5l2.8,0.5c-0.3,1-1.1,1.9-2.1,2.6l-0.9-2.4C433.9,61.9,433.9,61.7,434.2,61.5z M431.7,59.4h0.8L433,60l-0.1,0.8
						l-0.7,0.3l-0.7-0.3l-0.1-0.8L431.7,59.4z M436.4,57.5c0.6,0.9,0.8,2.1,0.7,3.2l-2.5-0.7c-0.2-0.1-0.3-0.3-0.3-0.6
						c0-0.1,0.1-0.1,0.1-0.2L436.4,57.5z M427.7,57.5l2,1.7c0.2,0.1,0.2,0.5,0,0.6c-0.1,0.1-0.1,0.1-0.2,0.1l-2.5,0.7
						C426.9,59.6,427.1,58.5,427.7,57.5z M432.7,55.2c1.1,0.1,2.2,0.7,2.9,1.5l-2.2,1.5c-0.2,0.1-0.5,0.1-0.6-0.1
						c0-0.1-0.1-0.1-0.1-0.2V55.2z M431.5,55.2l-0.1,2.6c0,0.2-0.2,0.5-0.5,0.5c-0.1,0-0.2,0-0.2-0.1l-2.2-1.5
						c0.7-0.7,1.5-1.1,2.4-1.4L431.5,55.2z"/>
				</g>
				<g id="coreos-logo" transform="translate(53.500000, 25.231201)" class="st5">
					<path id="Combined-Shape_1_" class="st7" d="M429.9,48.6c5.5,0,9.9,4.6,9.9,10.3c0,5.7-4.4,10.3-9.9,10.3
						c-5.5,0-9.9-4.6-9.9-10.3C420,53.2,424.4,48.6,429.9,48.6z M429.9,49.3c-1.6,0-2.9,2.7-3.4,6.4c0,0.1,0,0.2,0,0.4
						c-0.1,0.6-0.1,1.2-0.1,1.8c0,0.3,0,0.6,0,0.9c0,0.3,0,0.6,0,0.9c0,0.6,0.1,1.2,0.1,1.8c0.7,0.1,1.5,0.2,2.4,0.2
						c0.4,0,0.7,0,1.1,0c0.4,0,0.7,0,1.1,0c0.8,0,1.6-0.1,2.4-0.2c0.1,0,0.2,0,0.2,0c3.1-0.5,5.2-1.5,5.2-2.6
						C438.8,53.5,434.8,49.3,429.9,49.3z"/>
					<path id="Shape" class="st7" d="M433.8,56.1c-0.1-0.1-0.2-0.3-0.3-0.4c-0.8-1-2.1-1.7-3.4-1.7c-0.4,0-0.8,0.7-1.1,1.8
						c-0.1,0.4-0.2,0.9-0.2,1.5c0,0.5-0.1,0.9-0.1,1.4c0,0.5,0,0.9,0.1,1.4c0.4,0,0.9,0.1,1.3,0.1c0.5,0,0.9,0,1.3-0.1
						c0.9-0.1,1.7-0.3,2.3-0.5c0.6-0.2,0.9-0.5,0.9-0.9C434.6,57.8,434.3,56.8,433.8,56.1z"/>
				</g>
				<g id="docker" transform="translate(24.500000, 0.231201)" class="st5">
					<g id="Mask_1_">
						<path id="path-4_1_" class="st7" d="M437.5,57.9h3v-2.8h-3V57.9z M433.9,57.9h3v-2.8h-3V57.9z M430.4,57.9h3v-2.8h-3V57.9z
							 M426.8,57.9h3v-2.8h-3V57.9z M423.2,57.9h3v-2.8h-3V57.9z M426.8,54.5h3v-2.8h-3V54.5z M430.4,54.5h3v-2.8h-3V54.5z
							 M433.9,54.5h3v-2.8h-3V54.5z M433.9,51.1h3v-2.8h-3V51.1z M450.2,56.6l-0.6-0.4c-0.7-0.4-2.2-0.6-3.3-0.4
							c-0.1-1.1-0.8-2.1-1.9-3l-0.6-0.4l-0.4,0.7c-0.5,0.8-0.8,2-0.7,3.1c0,0.4,0.2,1.1,0.6,1.7c-0.4,0.2-1.2,0.5-2.2,0.5h-19.8
							l0,0.2c-0.2,1.1-0.2,4.6,2,7.3c1.7,2,4.2,3.1,7.5,3.1c7.2,0,12.5-3.4,15-9.5c1,0,3.1,0,4.2-2.1c0,0,0.1-0.2,0.3-0.6
							L450.2,56.6z"/>
					</g>
				</g>
				<g id="mesos-logo" transform="translate(26.500000, 49.231201)" class="st5">
					<polygon id="Fill-4" class="st7" points="437.5,62.8 441.9,60.2 441.9,65.4 					"/>
					<path id="Fill-6_1_" class="st7" d="M437.6,56.7l1.7-1l2.5-1.5c0.1-0.1,0.2-0.1,0.2,0.1v4.7c0,0.1,0,0.2-0.2,0.1l-4.2-2.3V56.7
						z"/>
					<path id="Fill-8" class="st7" d="M436.4,56.7l-1.9,1.1l-2.3,1.4c-0.2,0.1-0.2,0.1-0.2-0.1v-4.7c0-0.1,0-0.2,0.2-0.1l4.2,2.3
						L436.4,56.7z"/>
					<polygon id="Fill-10" class="st7" points="432,60.2 436.4,62.9 432,65.5 					"/>
					<polygon id="Fill-12" class="st7" points="432,53.2 432,48.1 436.4,50.7 					"/>
					<polygon id="Fill-14" class="st7" points="436.4,68.9 432,71.4 432,66.3 					"/>
					<path id="Fill-16" class="st7" d="M426,56.7l-1.8,1.1l-2.5,1.4c-0.1,0.1-0.2,0.1-0.2-0.1v-4.9L426,56.7z"/>
					<path id="Fill-18" class="st7" d="M426,62.8l-1.2,0.6l-3,1.7c-0.1,0-0.2,0.2-0.2-0.1v-4.8v-0.1L426,62.8z"/>
					<path id="Fill-20" class="st7" d="M431.4,60.2v4.9c0,0.1,0,0.1-0.1,0.1l-4.3-2.5L431.4,60.2z"/>
					<polygon id="Fill-22" class="st7" points="427,68.9 431.4,66.3 431.4,71.4 					"/>
					<path id="Fill-24" class="st7" d="M427,50.7l4.4-2.6v0.2V53c0,0.2,0,0.2-0.2,0.1l-4-2.3L427,50.7z"/>
					<path id="Fill-26" class="st7" d="M427.1,56.7l4.4-2.6v0.2v4.7c0,0.2,0,0.2-0.2,0.1l-4-2.3L427.1,56.7z"/>
					<path id="Fill-28" class="st7" d="M437.2,51.2l4.4,2.6c-0.2,0.1-0.3,0.2-0.5,0.3l-3.7,2.1c-0.1,0.1-0.2,0.1-0.2-0.1v-4.8
						C437.2,51.3,437.2,51.2,437.2,51.2"/>
					<polygon id="Fill-30" class="st7" points="437.2,62.4 437.2,57.3 441.7,59.8 					"/>
					<polygon id="Fill-32" class="st7" points="437.2,63.3 441.7,65.9 437.2,68.4 					"/>
					<path id="Fill-34" class="st7" d="M426.8,51.2l4.4,2.6l-1,0.5l-3.2,1.9c-0.1,0-0.2,0.1-0.2-0.1V51.2z"/>
					<polygon id="Fill-36" class="st7" points="426.8,63.3 431.2,65.9 426.8,68.4 					"/>
					<path id="Fill-38" class="st7" d="M432.3,53.7l4.4-2.6v4.9c0,0.2,0,0.2-0.2,0.1l-3.9-2.3L432.3,53.7z"/>
					<polygon id="Fill-40" class="st7" points="431.1,59.7 426.7,62.3 426.7,57.2 					"/>
					<polygon id="Fill-42" class="st7" points="436.7,63.3 436.7,68.4 432.3,65.9 					"/>
					<polygon id="Fill-44" class="st7" points="436.7,57.3 436.7,62.4 432.3,59.8 					"/>
					<path id="Fill-46" class="st7" d="M421.8,53.7l4.4-2.6v4.9c0,0.1,0,0.2-0.2,0.1L421.8,53.7z"/>
					<path id="Fill-48" class="st7" d="M426.2,68.4l-4.4-2.6c0-0.1,0.1-0.1,0.1-0.1l4-2.3c0.2-0.1,0.2-0.1,0.2,0.1v4.7V68.4z"/>
					<path id="Fill-50" class="st7" d="M426.2,57.3v4.9c0,0.1,0,0.2-0.2,0.1l-4-2.3l-0.1-0.1L426.2,57.3z"/>
				</g>
			</g>
		</g>
	</g>
</g>
</svg>
