<svg xmlns="http://www.w3.org/2000/svg" xmlns:xlink="http://www.w3.org/1999/xlink" width="100" height="100" viewBox="0 0 100 100">
  <defs>
    <path id="infographic-deploy-logos-a" d="M17.4911761,9.85217017 L20.5079603,9.85217017 L20.5079603,7.05536762 L17.4911761,7.05536762 L17.4911761,9.85217017 Z M13.9257436,9.85217017 L16.942648,9.85217017 L16.942648,7.05536762 L13.9257436,7.05536762 L13.9257436,9.85217017 Z M10.3604314,9.85217017 L13.3772156,9.85217017 L13.3772156,7.05536762 L10.3604314,7.05536762 L10.3604314,9.85217017 Z M6.7949989,9.85217017 L9.81190329,9.85217017 L9.81190329,7.05536762 L6.7949989,7.05536762 L6.7949989,9.85217017 Z M3.22956644,9.85217017 L6.24647083,9.85217017 L6.24647083,7.05536762 L3.22956644,7.05536762 L3.22956644,9.85217017 Z M6.7949989,6.49600711 L9.81190329,6.49600711 L9.81190329,3.69932712 L6.7949989,3.69932712 L6.7949989,6.49600711 Z M10.3604314,6.49600711 L13.3772156,6.49600711 L13.3772156,3.69932712 L10.3604314,3.69932712 L10.3604314,6.49600711 Z M13.9257436,6.49600711 L16.942648,6.49600711 L16.942648,3.69932712 L13.9257436,3.69932712 L13.9257436,6.49600711 Z M13.9257436,3.13996661 L16.942648,3.13996661 L16.942648,0.343164063 L13.9257436,0.343164063 L13.9257436,3.13996661 Z M30.1836397,8.63589197 L29.574538,8.22139652 C28.915439,7.77197168 27.401939,7.60725202 26.2367375,7.83129036 C26.0867456,6.71232422 25.4751199,5.74202248 24.3628002,4.86498834 L23.7231713,4.43014805 L23.2965116,5.08289873 C22.7501469,5.92304252 22.4772049,7.08698791 22.5666232,8.20325775 C22.6068854,8.59581509 22.7334411,9.29820227 23.1296937,9.91565587 C22.7336814,10.1327083 21.9509112,10.4316304 20.9193563,10.4115307 L1.07824031,10.4115307 L1.03942029,10.6445159 C0.852891906,11.7663009 0.856978223,15.2667162 3.08558383,17.9572598 C4.77972312,20.0022838 7.31960999,21.0392578 10.6345752,21.0392578 C17.8210862,21.0392578 23.1378663,17.6658139 25.6276357,11.5338059 C26.6066694,11.5537831 28.7148488,11.5396888 29.797723,9.42983093 C29.8258465,9.38142002 29.8908671,9.25481629 30.0800395,8.85515051 L30.1836397,8.63589197 Z"/>
  </defs>
  <g fill="none" fill-rule="evenodd">
    <path fill="#FFF" d="M5.54917082,7.60799337 C5.91860788,7.14133706 6.33094342,6.71019479 6.7802215,6.32052251 C6.49829809,6.08748934 6.21030839,5.79159767 5.94150357,5.44754319 C5.09145246,4.35952738 4.75515431,3.20187527 5.19036063,2.86185483 C5.62556695,2.52183438 6.66747396,3.12820443 7.51752507,4.21622024 C7.80395443,4.5828331 8.03205281,4.95735239 8.19195924,5.3058334 C9.52239559,4.52320421 11.0602271,4.05534541 12.7031046,4.00460623 C12.5767277,3.58598962 12.5017905,3.06487296 12.5017905,2.5 C12.5017905,1.11928813 12.9495058,0 13.5017905,0 C14.0540753,0 14.5017905,1.11928813 14.5017905,2.5 C14.5017905,3.10145012 14.4168344,3.65329379 14.275286,4.08462088 C15.8845733,4.30022442 17.366293,4.91873525 18.6156432,5.83535141 C18.7451035,5.35853446 19.0470739,4.77809176 19.486056,4.21622024 C20.3361071,3.12820443 21.3780141,2.52183438 21.8132205,2.86185483 C22.2484268,3.20187527 21.9121286,4.35952738 21.0620775,5.44754319 C20.6050283,6.03253955 20.092515,6.47829602 19.6486629,6.71257417 C19.9485683,7.00630745 20.2290874,7.31975801 20.4881228,7.65082839 L18.9971681,8.99550198 C17.6286525,7.17639051 15.4517066,6 13,6 C10.5687559,6 8.40770532,7.15683557 7.03726648,8.95008835 L5.54917082,7.60799337 Z M5.55137517,19.39479 L7.03942572,18.0527357 C8.40997465,19.8443789 10.5700324,21 13,21 C15.4504295,21 17.6263845,19.8248347 18.9950289,18.0073402 L20.4859336,19.3519686 C20.2275071,19.6820075 19.9477236,19.9945199 19.6486629,20.2874258 C20.092515,20.521704 20.6050283,20.9674605 21.0620775,21.5524568 C21.9121286,22.6404726 22.2484268,23.7981247 21.8132205,24.1381452 C21.3780141,24.4781656 20.3361071,23.8717956 19.486056,22.7837798 C19.0470739,22.2219082 18.7451035,21.6414655 18.6156432,21.1646486 C17.366293,22.0812647 15.8845733,22.6997756 14.275286,22.9153791 C14.4168344,23.3467062 14.5017905,23.8985499 14.5017905,24.5 C14.5017905,25.8807119 14.0540753,27 13.5017905,27 C12.9495058,27 12.5017905,25.8807119 12.5017905,24.5 C12.5017905,23.935127 12.5767277,23.4140104 12.7031046,22.9953938 C11.0602271,22.9446546 9.52239559,22.4767958 8.19195924,21.6941666 C8.03205281,22.0426476 7.80395443,22.4171669 7.51752507,22.7837798 C6.66747396,23.8717956 5.62556695,24.4781656 5.19036063,24.1381452 C4.75515431,23.7981247 5.09145246,22.6404726 5.94150357,21.5524568 C6.21030839,21.2084023 6.49829809,20.9125107 6.7802215,20.6794775 C6.33183679,20.2905801 5.92024786,19.8603774 5.55137517,19.39479 Z M4.36672504,17 L4.36672504,14.2848189 L1.6619965,14.2848189 L1.6619965,17 L0,17 L0,10.0097493 L1.6619965,10.0097493 L1.6619965,12.8857939 L4.36672504,12.8857939 L4.36672504,10.0097493 L6.02416813,10.0097493 L6.02416813,17 L4.36672504,17 Z M8.98844133,11.4087744 L8.98844133,12.7980501 L12.1029772,12.7980501 L12.1029772,14.1970752 L8.98844133,14.1970752 L8.98844133,15.6009749 L12.5401051,15.6009749 L12.5401051,17 L7.32644483,17 L7.32644483,10.0097493 L12.4399299,10.0097493 L12.4399299,11.4087744 L8.98844133,11.4087744 Z M18.0406305,15.5132312 L18.0406305,17 L13.6101576,17 L13.6101576,10.0097493 L15.2721541,10.0097493 L15.2721541,15.5132312 L18.0406305,15.5132312 Z M24.5383538,17 L24.5292469,12.4568245 L22.9628722,16.3029248 L21.8791594,16.3029248 L20.3127846,12.4568245 L20.3127846,17 L18.8283713,17 L18.8283713,10 L20.6497373,10 L22.4210158,14.1629526 L24.1922942,10 L26,10 L26,17 L24.5383538,17 Z" transform="translate(12 38)"/>
    <g fill="#FFF" fill-rule="nonzero" transform="translate(65.5 39.231)">
      <path d="M9.92016288,0.6 C15.3890859,0.6 19.8390858,5.22783875 19.8390858,10.9163246 C19.8390858,16.6051329 15.3890859,21.2326493 9.92016288,21.2326493 C4.44961246,21.2326493 0,16.6051329 0,10.9163246 C0,5.22783875 4.44968996,0.6 9.92016288,0.6 Z M9.86473147,1.32395261 C8.28345806,1.32395261 6.94243209,3.98744927 6.4580585,7.6894188 C6.44254365,7.80852622 6.42757182,7.9290224 6.41430663,8.05033551 C6.34660601,8.65222267 6.30209359,9.25675168 6.28087892,9.86243473 C6.27016624,10.1509426 6.2648643,10.4396451 6.2649762,10.7283734 C6.2649762,11.0202601 6.27025125,11.3092876 6.2809565,11.594067 C6.30337546,12.2176245 6.34821337,12.8238633 6.4143842,13.406493 C7.15576126,13.5075464 7.94857004,13.5760863 8.77543392,13.6086815 C9.13289604,13.6227326 9.49563321,13.6311469 9.86480904,13.6311469 C10.2328213,13.6311469 10.596722,13.6226509 10.9530981,13.6086815 C11.7809705,13.5760863 12.5731587,13.5075464 13.3152339,13.406493 C13.396842,13.3954645 13.4772089,13.3834558 13.5585067,13.3710385 C16.6466598,12.9143784 18.7949234,11.9034359 18.7949234,10.7283734 C18.7948458,5.53421181 14.7962814,1.32395261 9.86473147,1.32395261 Z"/>
      <path d="M13.8378678,8.08920383 C13.7473407,7.95201351 13.6499779,7.81983938 13.5461779,7.69322271 C12.7164367,6.67602427 11.4803095,6.02964454 10.0973552,6.02964454 C9.64901851,6.02964454 9.24970266,6.74334188 8.99414994,7.8515498 C8.89257303,8.29352583 8.81377826,8.79759092 8.76295053,9.34487325 C8.72147767,9.80603776 8.70092476,10.2689785 8.70136021,10.7321551 C8.70136021,11.2147341 8.72296396,11.6811373 8.76295053,12.1192736 C9.18489141,12.1609386 9.63267822,12.1832417 10.0973552,12.1832417 C10.5614038,12.1832417 11.0091906,12.1608569 11.4311315,12.1192736 C12.3586787,12.027774 13.1594315,11.8423238 13.7266281,11.597889 C14.2867544,11.3568854 14.6182738,11.0568972 14.6182738,10.7321551 C14.6181952,9.75245521 14.3305118,8.84252378 13.8378678,8.08920383 Z"/>
    </g>
    <g transform="translate(36.5 14.231)">
      <use fill="#FFF" fill-rule="nonzero" xlink:href="#infographic-deploy-logos-a"/>
    </g>
    <g fill="#FFF" transform="translate(38.5 63.231)">
      <polygon points="17.461 14.798 21.936 12.241 21.936 17.355"/>
      <path d="M17.5679823 8.72536933L19.2725003 7.7676433 21.7227448 6.27512477C21.8292772 6.16965772 21.9358096 6.16965772 21.9358096 6.38165715L21.9358096 11.0690815C21.9358096 11.1756139 21.9358096 11.2821463 21.7227448 11.1756139L17.5679823 8.83296702 17.5679823 8.72536933zM16.3960197 8.72536933L14.478437 9.79069305 12.1347248 11.1756139C11.9216601 11.2821463 11.9216601 11.2821463 11.9216601 11.0690815L11.9216601 6.38165715C11.9216601 6.27512477 11.9216601 6.16965772 12.1347248 6.27512477L16.2894873 8.61883696 16.3960197 8.72536933z"/>
      <polygon points="12.028 12.241 16.396 14.904 12.028 17.461"/>
      <polygon points="12.028 5.21 12.028 .096 16.396 2.653"/>
      <polygon points="16.396 20.87 12.028 23.426 12.028 18.314"/>
      <path d="M5.95552766 8.72536933L4.14447733 9.79069305 1.69423278 11.1756139C1.58770041 11.2821463 1.48116804 11.2821463 1.48116804 11.0690815L1.48116804 6.16965772 5.95552766 8.72536933zM5.95552766 14.7979276L4.78367157 15.4371218 1.80076515 17.1416398C1.69423278 17.1416398 1.58770041 17.3547045 1.58770041 17.0351074L1.58770041 12.2411507 1.58770041 12.1346183 5.95552766 14.7979276zM11.3887852 12.2407245L11.3887852 17.142279C11.3887852 17.247746 11.3887852 17.247746 11.2822528 17.247746L7.02095791 14.7975015 11.3887852 12.2407245z"/>
      <polygon points="7.021 20.87 11.389 18.314 11.389 23.426"/>
      <path d="M7.02085138 2.65281106L11.3886786.0970994605 11.3886786.310164204 11.3886786 4.99652325C11.3886786 5.20958799 11.3886786 5.20958799 11.1756139 5.10412094L7.12738375 2.76040876 7.02085138 2.65281106zM7.12749028 8.72536933L11.4953175 6.16965772 11.4953175 6.38165715 11.4953175 11.0690815C11.4953175 11.2821463 11.4953175 11.2821463 11.2822528 11.1756139L7.23402265 8.83296702 7.12749028 8.72536933zM17.2480656 3.18547292L21.6158929 5.74224985C21.4028281 5.84878222 21.2962957 5.95637992 21.083231 6.06184696L17.354598 8.1924944C17.2480656 8.3000921 17.1415332 8.3000921 17.1415332 8.08702735L17.1415332 3.29307062C17.2480656 3.29307062 17.2480656 3.18547292 17.2480656 3.18547292"/>
      <polygon points="17.248 14.371 17.248 9.258 21.722 11.816"/>
      <polygon points="17.248 15.331 21.722 17.887 17.248 20.444"/>
      <path d="M6.80810623,3.18547292 L11.1759335,5.74224985 L10.2171421,6.27491171 L7.02117097,8.1924944 C6.9146386,8.1924944 6.80810623,8.3000921 6.80810623,8.08702735 L6.80810623,3.18547292 Z"/>
      <polygon points="6.808 15.331 11.176 17.887 6.808 20.444"/>
      <path d="M12.34747,5.74267598 L16.7152972,3.18589905 L16.7152972,8.08638816 C16.7152972,8.2994529 16.7152972,8.2994529 16.5022325,8.19292053 L12.5605347,5.84920835 L12.34747,5.74267598 Z"/>
      <polygon points="11.069 11.708 6.702 14.265 6.702 9.152"/>
      <polygon points="16.715 15.331 16.715 20.444 12.348 17.887"/>
      <polygon points="16.715 9.258 16.715 14.372 12.348 11.815"/>
      <path d="M1.80087168 5.74267598L6.16869893 3.18589905 6.16869893 8.08638816C6.16869893 8.19292053 6.16869893 8.2994529 5.95563419 8.19292053L1.80087168 5.74267598zM6.16880547 20.4439302L1.80097822 17.8882186C1.80097822 17.7806209 1.90751059 17.7806209 1.90751059 17.7806209L5.95574072 15.4369088C6.16880547 15.3303764 6.16880547 15.3303764 6.16880547 15.5434411L6.16880547 20.2308655 6.16880547 20.4439302zM6.16880547 9.25803119L6.16880547 14.1595856C6.16880547 14.2650527 6.16880547 14.371585 5.95574072 14.2650527L1.90751059 11.9213405 1.80097822 11.8148081 6.16880547 9.25803119z"/>
    </g>
  </g>
</svg>
