<svg id="Layer_1" data-name="Layer 1" xmlns="http://www.w3.org/2000/svg" viewBox="0 0 186 128"><defs><style>.cls-1{fill:#e2f0f7;}.cls-2{fill:#f3fcff;}.cls-3{fill:#847264;}.cls-4{fill:#685a50;}.cls-5{fill:#9b8676;}.cls-6{fill:#b3b3b3;}.cls-7{fill:#c3c6c8;}.cls-10,.cls-8{fill:#87af9a;}.cls-9{fill:#759684;}.cls-10,.cls-9{fill-rule:evenodd;}.cls-11{opacity:0.5;}</style></defs><title>build icon 3</title><path class="cls-1" d="M143.5,40.32v76.51A11.19,11.19,0,0,1,132.29,128H53.71a11.19,11.19,0,0,1-11.2-11.17V40.32h5.41V41c0,1.48,2.24,2.68,5,2.68h79.54c2.77,0,5-1.2,5-2.68v-.64Z"/><path class="cls-1" d="M137.53,40.32V41c0,1.48-2.27,2.68-5,2.68H53c-2.8,0-5-1.2-5-2.68v-.64Z"/><path class="cls-2" d="M137.53,39.23V41c0,1.48-2.27,2.68-5,2.68H53c-2.8,0-5-1.2-5-2.68V39.23c0-1.48,2.24-2.68,5-2.68h79.54C135.27,36.55,137.53,37.75,137.53,39.23Z"/><path class="cls-1" d="M137.53,39.23V41c0,1.48-2.27,2.68-5,2.68H53c-2.8,0-5-1.2-5-2.68V39.23c0-1.48,2.24-2.68,5-2.68h79.54C135.27,36.55,137.53,37.75,137.53,39.23Z"/><path class="cls-2" d="M137.81,33H48.19a5.66,5.66,0,0,0-5.68,5.67V42.3A5.66,5.66,0,0,0,48.19,48h89.62a5.68,5.68,0,0,0,5.69-5.67V38.67A5.68,5.68,0,0,0,137.81,33Zm-.28,8c0,1.48-2.27,2.68-5,2.68H53c-2.8,0-5-1.2-5-2.68V39.23c0-1.48,2.24-2.68,5-2.68h79.54c2.77,0,5,1.2,5,2.68Z"/><rect class="cls-3" x="49.37" y="70.88" width="87.27" height="29.14"/><path class="cls-4" d="M49.36,100h87.27a0,0,0,0,1,0,0v19.7a2,2,0,0,1-2,2H51.36a2,2,0,0,1-2-2V100A0,0,0,0,1,49.36,100Z"/><rect class="cls-5" x="49.36" y="63.19" width="87.27" height="15.38" rx="2" ry="2"/><path class="cls-6" d="M124.68,70.68H116a4.33,4.33,0,0,1,8.64,0Z"/><path class="cls-7" d="M123.27,70.68h-8.64a4.33,4.33,0,0,1,8.64,0Z"/><path class="cls-6" d="M71.57,70.68H62.92a4.33,4.33,0,0,1,8.64,0Z"/><path class="cls-7" d="M70.15,70.68H61.51a4.33,4.33,0,0,1,8.64,0Z"/><ellipse class="cls-5" cx="109.13" cy="114.94" rx="2.73" ry="2.72"/><ellipse class="cls-5" cx="78.69" cy="114.94" rx="2.73" ry="2.72"/><ellipse class="cls-3" cx="96.3" cy="107.91" rx="2.73" ry="2.72"/><ellipse class="cls-5" cx="123.67" cy="108.7" rx="2.73" ry="2.72"/><ellipse class="cls-3" cx="60.77" cy="107.54" rx="2.73" ry="2.72"/><path class="cls-8" d="M96,60.63V65.7a2.48,2.48,0,0,1-5,0v-5a9.82,9.82,0,0,0,2.49-1.2c0-.26,0-.51,0-.76,0,.26,0,.51,0,.76A9.71,9.71,0,0,0,96,60.63Z"/><path class="cls-9" d="M75.47,48.92A12,12,0,0,1,93.54,59.46,12,12,0,0,1,75.47,48.92Z"/><path class="cls-10" d="M75.47,48.92A12,12,0,0,1,93.54,59.46Z"/><path class="cls-9" d="M111.68,48.92A12,12,0,0,0,93.6,59.46a12,12,0,0,0,18.07-10.54Z"/><path class="cls-10" d="M111.68,48.92A12,12,0,0,0,93.6,59.46Z"/><path class="cls-9" d="M91,51.84v8.82a11.88,11.88,0,0,1-9.65-1.17,11.45,11.45,0,0,1-5.93-10.56,11.54,11.54,0,0,1,12.15,0A12.42,12.42,0,0,1,91,51.84Z"/><path class="cls-10" d="M91,51.84V58L75.46,48.92a11.54,11.54,0,0,1,12.15,0A12.42,12.42,0,0,1,91,51.84Z"/><path class="cls-9" d="M105.75,59.49A11.84,11.84,0,0,1,96,60.63v-8.7a12.64,12.64,0,0,1,3.52-3,11.53,11.53,0,0,1,12.14,0A11.45,11.45,0,0,1,105.75,59.49Z"/><path class="cls-10" d="M111.67,48.92,96,58V51.92a12.64,12.64,0,0,1,3.52-3A11.53,11.53,0,0,1,111.67,48.92Z"/><path class="cls-3" d="M84.9,70.95h18a3.34,3.34,0,0,0-4.39-3.2,5.63,5.63,0,0,0-9.25,0,3.34,3.34,0,0,0-4.39,3.2Z"/><g class="cls-11"><path class="cls-2" d="M143.49,40.32v2A5.68,5.68,0,0,1,137.81,48H48.18A5.66,5.66,0,0,1,42.5,42.3v-2h5.41V41c0,1.48,2.24,2.68,5,2.68h79.54c2.77,0,5-1.2,5-2.68v-.64Z"/></g></svg>