<svg id="Layer_1" data-name="Layer 1" xmlns="http://www.w3.org/2000/svg" viewBox="0 0 186 128"><defs><style>.cls-1{fill:#799987;}.cls-2{fill:#79b39b;}.cls-3{fill:#96bca6;}.cls-4{fill:#fff;}.cls-5{fill:#4296b4;}.cls-6{fill:#80c4d6;}</style></defs><title>container icon 2</title><path class="cls-1" d="M144,103.12v8.29c0,1-1.21,2-3.58,2.79l-39,12.63a32.86,32.86,0,0,1-17.3,0l-39-12.63c-2.37-.77-3.57-1.78-3.58-2.79v-8.29Z"/><path class="cls-2" d="M84.12,118.55l-39-12.63c-4.78-1.55-4.78-4.05,0-5.6l39-12.63a32.82,32.82,0,0,1,17.29,0l39,12.63c4.77,1.55,4.77,4.05,0,5.6l-39,12.63a32.82,32.82,0,0,1-17.29,0Z"/><path class="cls-1" d="M140.42,103.12c-.22.1-.48.19-.79.29L134.71,105l-5.87,1.9L100.6,97.76a30.29,30.29,0,0,0-15.66,0L56.7,106.9,50.83,105l-4.92-1.59c-.31-.1-.57-.2-.79-.29l.79-.29,39-12.64a30.29,30.29,0,0,1,15.66,0l39,12.64C139.94,102.93,140.2,103,140.42,103.12Z"/><path class="cls-3" d="M128.84,106.9l-2.38.77-3.8,1.23-6.33,2-1.27.41-4.37,1.41-3.24,1.05-3.89,1.26-3,1c-.27.09-.56.17-.85.25a31.6,31.6,0,0,1-14,0c-.3-.08-.58-.16-.85-.25l-3-1-3.8-1.23-3.8-1.23-4.66-1.51-3-1-3.8-1.23-3.8-1.23-2.38-.77,1.43-.46,3.8-1.23,4-1.28,3.73-1.21,3.88-1.26,1.85-.6L81.12,99l1.33-.43,2.36-.77.1,0h0a30.29,30.29,0,0,1,15.66,0h0l3.8,1.23,3.82,1.24,3.8,1.23,3.8,1.23.5.16,2.72.88.59.19,4,1.28,3.8,1.23Z"/><path class="cls-1" d="M144.5,34.54v2.63c0,1-1.21,2-3.58,2.79l-39,12.63a32.86,32.86,0,0,1-17.3,0L45.55,40C43.18,39.2,42,38.19,42,37.17V34.54Z"/><path class="cls-2" d="M84.59,50l-39-12.63c-4.78-1.55-4.78-4.05,0-5.6l39-12.63a32.82,32.82,0,0,1,17.29,0l39,12.63c4.77,1.55,4.77,4.05,0,5.6L101.88,50a32.82,32.82,0,0,1-17.29,0"/><path class="cls-4" d="M123.11,34.28l-7.18-2.79c-.7-.27-1.91-.08-1.91.31v1c0,.24-.5.43-1.12.43H109c-.62,0-1.12-.19-1.12-.43v-2c0-.24.5-.43,1.12-.43h1.32c1,0,1.5-.47.79-.74l-7.18-2.79a2.53,2.53,0,0,0-1.58,0l-7.18,2.79c-.7.27-.2.74.79.74h1.57c.62,0,1.12.19,1.12.43v2c0,.24-.5.43-1.12.43H88.9c-.62,0-1.12-.19-1.12-.43v-2c0-.24.5-.43,1.12-.43h1.63c1,0,1.5-.47.79-.74l-7.18-2.79a2.53,2.53,0,0,0-1.58,0l-7.18,2.79c-.71.27-.21.74.79.74h1.26c.62,0,1.12.19,1.12.43v2c0,.24-.5.43-1.12.43H73.57c-.62,0-1.12-.19-1.12-.43v-1c0-.39-1.21-.58-1.91-.31l-7.18,2.79c-.44.17-.44.45,0,.62l7.18,2.79c.71.27,1.91.08,1.91-.31v-1c0-.24.5-.43,1.12-.43h3.87c.62,0,1.12.2,1.12.43v2c0,.24-.5.44-1.12.44H76.18c-1,0-1.5.47-.79.74l7.18,2.79a2.53,2.53,0,0,0,1.58,0l7.18-2.79c.7-.27.21-.74-.79-.74H88.9c-.62,0-1.12-.2-1.12-.44v-2c0-.24.5-.43,1.12-.43h8.61c.62,0,1.12.2,1.12.43v2c0,.24-.5.44-1.12.44H95.94c-1,0-1.5.47-.79.74l7.18,2.79a2.53,2.53,0,0,0,1.58,0l7.18-2.79c.71-.27.21-.74-.79-.74H109c-.62,0-1.12-.2-1.12-.44v-2c0-.24.5-.43,1.12-.43h3.93c.62,0,1.12.2,1.12.43v1c0,.39,1.21.58,1.91.31l7.18-2.79c.44-.17.44-.44,0-.62"/><polygon class="cls-1" points="67.26 105.21 67.26 106.44 58.13 106.44 61.93 105.21 67.26 105.21"/><rect class="cls-1" x="84.82" y="105.21" width="10.64" height="1.23"/><rect class="cls-1" x="112.95" y="105.21" width="5.32" height="1.23"/><rect class="cls-1" x="65.68" y="107.67" width="9.67" height="1.23"/><rect class="cls-1" x="93.88" y="107.67" width="9.67" height="1.23"/><polygon class="cls-1" points="126.45 107.67 122.66 108.9 116.33 108.9 116.33 107.67 126.45 107.67"/><polygon class="cls-1" points="69.63 110.13 69.63 111.09 66.68 110.13 69.63 110.13"/><rect class="cls-1" x="80.88" y="110.13" width="11.15" height="1.23"/><polygon class="cls-1" points="116.33 110.95 116.33 110.13 109.68 110.13 109.68 111.36 115.06 111.36 116.33 110.95"/><rect class="cls-1" x="84.82" y="112.59" width="10.64" height="1.23"/><path class="cls-1" d="M103.55,115.06v0l-3,1c-.27.09-.56.17-.85.25H93.88v-1.24Z"/><rect class="cls-1" x="84.82" y="97.76" width="10.64" height="1.23"/><polygon class="cls-1" points="75.35 100.86 75.35 101.46 73.51 101.46 75.35 100.86"/><rect class="cls-1" x="93.88" y="100.23" width="9.67" height="1.23"/><polygon class="cls-1" points="69.63 102.72 69.63 103.92 65.89 103.92 69.63 102.72"/><rect class="cls-1" x="80.88" y="102.69" width="11.15" height="1.23"/><rect class="cls-1" x="109.68" y="102.69" width="6.64" height="1.23"/><rect class="cls-2" x="69.63" y="105.21" width="12.83" height="1.23"/><rect class="cls-2" x="98.17" y="105.21" width="12.83" height="1.23"/><polygon class="cls-2" points="127.4 106.44 120.01 106.44 120.01 105.21 123.6 105.21 127.4 106.44"/><polygon class="cls-2" points="63.31 107.67 63.31 108.9 62.88 108.9 59.08 107.67 63.31 107.67"/><rect class="cls-2" x="77.72" y="107.67" width="14.31" height="1.23"/><rect class="cls-2" x="105.65" y="107.67" width="8.69" height="1.23"/><rect class="cls-2" x="72" y="110.13" width="6.51" height="1.23"/><rect class="cls-2" x="94.18" y="110.13" width="12.82" height="1.23"/><polygon class="cls-2" points="82.46 112.6 82.46 113.83 78.09 113.83 74.29 112.6 82.46 112.6"/><polygon class="cls-2" points="110.69 112.6 110.69 112.78 107.44 113.83 97.86 113.83 97.86 112.6 110.69 112.6"/><path class="cls-2" d="M92,115.06v1.24H85.79c-.3-.08-.58-.16-.85-.25l-3-1Z"/><polygon class="cls-2" points="82.46 98.56 82.46 98.99 81.12 98.99 82.46 98.56"/><polygon class="cls-2" points="104.72 98.99 98.17 98.99 98.17 97.76 100.92 97.76 104.72 98.99"/><rect class="cls-2" x="77.72" y="100.23" width="14.31" height="1.23"/><polygon class="cls-2" points="112.33 101.46 105.65 101.46 105.65 100.23 108.53 100.23 112.33 101.46"/><rect class="cls-2" x="72" y="102.69" width="6.51" height="1.23"/><rect class="cls-2" x="94.48" y="102.69" width="12.82" height="1.23"/><polygon class="cls-2" points="119.64 103.92 119.05 103.92 119.05 103.73 119.64 103.92"/><path class="cls-5" d="M123.56,70.92l-4.33,5.53a1.85,1.85,0,0,1-2.63,0l-1-1-3,3a1.92,1.92,0,0,1-2.71,0l-3-3H93.08V68.23Z"/><path class="cls-6" d="M121,67.09l2.61,3.83H93.08V66.34h26.11A2.45,2.45,0,0,1,121,67.09Z"/><path class="cls-5" d="M84.7,70.92a6.32,6.32,0,0,1-12.64,0h-4.6a14.53,14.53,0,0,0,29.05,0Z"/><path class="cls-6" d="M82,56.42A14.51,14.51,0,0,0,67.46,70.92C67.46,76.7,74,81.38,82,81.38S96.51,76.7,96.51,70.92A14.51,14.51,0,0,0,82,56.42ZM78.38,75.3a4.38,4.38,0,1,1,4.39-4.38A4.39,4.39,0,0,1,78.38,75.3Z"/></svg>