<?xml version="1.0" encoding="UTF-8"?>
<svg width="1440px" height="324px" viewBox="0 0 1440 324" version="1.1" xmlns="http://www.w3.org/2000/svg" xmlns:xlink="http://www.w3.org/1999/xlink">
    <!-- Generator: Sketch 46.2 (44496) - http://www.bohemiancoding.com/sketch -->
    <title>polygon</title>
    <desc>Created with Sketch.</desc>
    <defs>
        <linearGradient x1="0%" y1="100%" x2="100%" y2="0%" id="linearGradient-1">
            <stop stop-color="#7A9F8B" offset="0%"></stop>
            <stop stop-color="#87B09A" offset="100%"></stop>
        </linearGradient>
    </defs>
    <g id="Habitat-SaaS-Home-&amp;-Pricing/desktop" stroke="none" stroke-width="1" fill="none" fill-rule="evenodd">
        <g id="Pricing-(desktop)-V2" transform="translate(0.000000, -1936.000000)">
            <g id="polygon" transform="translate(0.000000, 1935.710938)">
                <polygon id="Combined-Shape-Copy" fill="url(#linearGradient-1)" transform="translate(720.000000, 162.500000) rotate(180.000000) translate(-720.000000, -162.500000) " points="1154 8.77125807 1116 31.2302811 1048 51.0901628 970 5.31736559 898 26.9129155 816 17.4059893 766 26.9129155 722 39.0015392 678 32.0937542 568 36.4111198 482 7.90778495 430 32.0937542 368 16.5425161 270 1 202 19.1329355 112 39.8650123 0 32.0937542 0 75.2761321 0 118.022412 0 161.20479 0 204.387168 0 247.569546 0 290.324548 84 305.003591 152 310.18443 186 315.365269 316 313.638323 414 303.276645 446 289.461075 538 295.505387 594 310.18443 704 293.778441 798 316.228742 918 269.592472 946 273.909837 986 286.861934 1034 284.280237 1128 324 1250 279.954149 1300 292.914968 1440 290.324548 1440 247.569546 1440 204.387168 1440 161.20479 1440 118.022412 1440 75.2761321 1440 32.0937542 1292 14.8155699"></polygon>
                <g style="mix-blend-mode: luminosity;" transform="translate(720.500000, 162.500000) scale(-1, -1) translate(-720.500000, -162.500000) translate(0.000000, 1.000000)">
                    <polygon id="Fill-1" fill="#5F8B81" points="0 74.1424299 14 66.3843356 0 31.0371658"></polygon>
                    <polygon id="Fill-2" fill="#6EA090" points="0 159.915385 66 130.175007 0 116.810991"></polygon>
                    <polygon id="Fill-3" fill="#6C9D8D" points="65.9997 130.175443 70.0007 124.141176 -0.0003 116.811426"></polygon>
                    <polygon id="Fill-4" fill="#77AE99" points="0 203.020475 100 182.761149 0 159.915211"></polygon>
                    <polygon id="Fill-5" fill="#75AA96" points="99.9999 182.7608 91.9999 168.108267 -0.0001 159.915733"></polygon>
                    <polygon id="Fill-6" fill="#72A693" points="0 159.915385 92 168.107918 66 130.175007"></polygon>
                    <polygon id="Fill-7" fill="#7EB9A0" points="0 246.124781 106 216.384404 0 203.020388"></polygon>
                    <polygon id="Fill-8" fill="#6A9B8C" points="0 116.811078 70 124.141698 112 107.765337"></polygon>
                    <polygon id="Fill-9" fill="#5D887F" points="14.0004 66.3844226 111.9994 38.7944765 0.0004 31.0372528"></polygon>
                    <polygon id="Fill-10" fill="#7BB39C" points="0 203.020475 106 216.38362 100 182.761149"></polygon>
                    <polygon id="Fill-11" fill="#68968A" points="0 116.811078 112 107.765337 0 74.1428652"></polygon>
                    <polygon id="Fill-12" fill="#5E8B81" points="112 38.7949119 14 66.384858 118 62.066583"></polygon>
                    <polygon id="Fill-13" fill="#639185" points="14 66.3847709 112 107.765337 118 62.066496"></polygon>
                    <polygon id="Fill-14" fill="#649286" points="0 74.1424299 112 107.764902 14 66.3843356"></polygon>
                    <polygon id="Fill-15" fill="#81BCA2" points="0 246.124781 150 237.070334 106 216.384404"></polygon>
                    <polygon id="Fill-16" fill="#8AC8AB" points="0 288.802049 84 303.454582 0 246.125129"></polygon>
                    <polygon id="Fill-17" fill="#5E8880" points="112 38.7949119 118 62.066583 158 47.4140493"></polygon>
                    <polygon id="Fill-18" fill="#87C4A8" points="0 246.124781 84 303.454234 150 237.070334"></polygon>
                    <polygon id="Fill-19" fill="#76AB97" points="92 168.107918 100 182.760452 188 166.384961"></polygon>
                    <polygon id="Fill-20" fill="#76AC98" points="100 182.760452 186 178.450883 188 166.384091"></polygon>
                    <polygon id="Fill-21" fill="#6C9D8D" points="70 124.141611 66 130.175007 112 107.76525"></polygon>
                    <polygon id="Fill-22" fill="#7FB9A0" points="106 216.383968 150 237.069898 198 215.522055"></polygon>
                    <polygon id="Fill-23" fill="#73A794" points="92 168.107918 188 166.384961 204 149.999023"></polygon>
                    <polygon id="Fill-24" fill="#5B857C" points="112 38.7949119 158 47.4140493 202 18.1002757"></polygon>
                    <polygon id="Fill-25" fill="#659386" points="118 62.066583 112 107.765424 206 90.5184429"></polygon>
                    <polygon id="Fill-26" fill="#71A493" points="66 130.175094 92 168.108005 204 149.999111"></polygon>
                    <polygon id="Fill-27" fill="#79B19B" points="100 182.760452 106 216.383794 186 178.450883"></polygon>
                    <polygon id="Fill-28" fill="#6D9E8E" points="112 107.765163 66 130.17492 204 149.998936"></polygon>
                    <polygon id="Fill-29" fill="#7CB39D" points="186 178.450709 106 216.38362 198 215.521706"></polygon>
                    <polygon id="Fill-30" fill="#618D83" points="158 47.4139623 118 62.066496 206 90.5183558"></polygon>
                    <polygon id="Fill-31" fill="#8CCAAB" points="150 237.069637 84 303.454408 152 308.625891"></polygon>
                    <polygon id="Fill-32" fill="#82BCA3" points="198 215.521794 150 237.069637 216 246.559395"></polygon>
                    <polygon id="Fill-33" fill="#628E84" points="158 47.4139623 206 90.5183558 236 74.1419946"></polygon>
                    <polygon id="Fill-34" fill="#88C5A9" points="150 237.069637 152 308.625891 216 246.559395"></polygon>
                    <polygon id="Fill-35" fill="#6A9B8C" points="112 107.765163 204 149.998936 206 90.5181817"></polygon>
                    <polygon id="Fill-36" fill="#7AB09B" points="186 178.450709 198 215.521706 260 186.207933"></polygon>
                    <polygon id="Fill-37" fill="#76AD97" points="188 166.384526 186 178.450448 260 186.208542"></polygon>
                    <polygon id="Fill-38" fill="#74AA96" points="204 149.999198 188 166.384265 260 186.208281"></polygon>
                    <polygon id="Fill-39" fill="#5D877F" points="202 18.1002757 158 47.4140493 236 74.1420817"></polygon>
                    <polygon id="Fill-40" fill="#8CCCAC" points="152 308.626239 186 313.796851 216 246.559743"></polygon>
                    <polygon id="Fill-41" fill="#81BBA2" points="198 215.521794 216 246.559395 298 225.864758"></polygon>
                    <polygon id="Fill-42" fill="#75A996" points="204 149.999198 260 186.208281 308 168.108092"></polygon>
                    <polygon id="Fill-43" fill="#7CB49D" points="260 186.208107 198 215.521881 298 225.864846"></polygon>
                    <polygon id="Fill-44" fill="#76AC98" points="308 168.107918 260 186.208107 316 175.865142"></polygon>
                    <polygon id="Fill-45" fill="#8CCCAD" points="216 246.559743 186 313.796851 316 312.073894"></polygon>
                    <polygon id="Fill-46" fill="#5D877F" points="202 18.1002757 236 74.1420817 354 52.5855318"></polygon>
                    <polygon id="Fill-47" fill="#6A9B8C" points="206 90.5185299 204 149.999285 360 106.032977"></polygon>
                    <polygon id="Fill-48" fill="#669487" points="236 74.1421687 206 90.5185299 360 106.032977"></polygon>
                    <polygon id="Fill-49" fill="#59827B" points="270 -0.000174123989 202 18.1000146 354 52.5852706"></polygon>
                    <polygon id="Fill-50" fill="#7BB29B" points="260 186.208107 298 225.864846 316 175.865142"></polygon>
                    <polygon id="Fill-51" fill="#59827B" points="270 -0.000174123989 354 52.5852706 368 15.5142733"></polygon>
                    <polygon id="Fill-52" fill="#6FA290" points="204 149.999198 308 168.108092 360 106.03289"></polygon>
                    <polygon id="Fill-53" fill="#639185" points="354 52.5853577 236 74.1419075 360 106.032716"></polygon>
                    <polygon id="Fill-54" fill="#87C4A8" points="298 225.864671 216 246.560178 316 312.074329"></polygon>
                    <polygon id="Fill-55" fill="#88C5A9" points="298 225.864671 316 312.074329 408 265.522281"></polygon>
                    <polygon id="Fill-56" fill="#8DCCAE" points="408 265.522106 316 312.074155 414 301.73119"></polygon>
                    <polygon id="Fill-57" fill="#83BFA3" points="298 225.864671 408 265.522281 424 235.346593"></polygon>
                    <polygon id="Fill-58" fill="#5B857D" points="368 15.5142733 354 52.5852706 428 40.5184782"></polygon>
                    <polygon id="Fill-59" fill="#59837C" points="368 15.5142733 428 40.5184782 430 31.037427"></polygon>
                    <polygon id="Fill-60" fill="#7BB29C" points="316 175.865229 298 225.864933 440 191.379677"></polygon>
                    <polygon id="Fill-61" fill="#8CCAAD" points="408 265.522106 414 301.73119 446 287.94057"></polygon>
                    <polygon id="Fill-62" fill="#7EB7A0" points="298 225.864671 424 235.346593 440 191.380286"></polygon>
                    <polygon id="Fill-63" fill="#5B857E" points="430 31.037514 428 40.5185652 466 42.2423927"></polygon>
                    <polygon id="Fill-64" fill="#669487" points="354 52.5853577 360 106.032716 434 106.89463"></polygon>
                    <polygon id="Fill-65" fill="#5E8981" points="466 42.2424798 428 40.5186523 488 74.1419946"></polygon>
                    <polygon id="Fill-66" fill="#5F8A81" points="428 40.5187394 354 52.5855318 488 74.1420817"></polygon>
                    <polygon id="Fill-67" fill="#639185" points="354 52.5853577 434 106.89463 488 74.1419075"></polygon>
                    <polygon id="Fill-68" fill="#77AD98" points="308 168.107918 316 175.865142 440 191.379589"></polygon>
                    <polygon id="Fill-69" fill="#6D9F8F" points="360 106.03289 308 168.108092 434 106.894804"></polygon>
                    <polygon id="Fill-70" fill="#5E8B81" points="466 42.2424798 488 74.1419946 488 45.6901348"></polygon>
                    <polygon id="Fill-71" fill="#73A694" points="434 106.894543 308 168.107831 440 191.380373"></polygon>
                    <polygon id="Fill-72" fill="#5F8B82" points="488 45.6901348 488 74.1419946 508 54.3092722"></polygon>
                    <polygon id="Fill-73" fill="#59837B" points="430 31.037514 466 42.2423927 482 6.89522291"></polygon>
                    <polygon id="Fill-74" fill="#5C867E" points="466 42.2424798 488 45.6901348 512 40.5186523"></polygon>
                    <polygon id="Fill-75" fill="#618D83" points="488 74.1421687 506 71.5564275 508 54.3094464"></polygon>
                    <polygon id="Fill-76" fill="#79AF9A" points="510 181.898364 440 191.380286 520 199.146216"></polygon>
                    <polygon id="Fill-77" fill="#5D8880" points="488 45.6901348 508 54.3092722 512 40.5186523"></polygon>
                    <polygon id="Fill-78" fill="#7CB69E" points="440 191.379938 424 235.346245 520 199.145868"></polygon>
                    <polygon id="Fill-79" fill="#5A837B" points="482 6.89522291 466 42.2423927 512 40.5185652"></polygon>
                    <polygon id="Fill-80" fill="#74A895" points="434 106.894543 440 191.380373 510 181.898451"></polygon>
                    <polygon id="Fill-81" fill="#639086" points="556 71.5562534 506 71.5562534 558 90.5183558"></polygon>
                    <polygon id="Fill-82" fill="#669488" points="488 74.1421687 434 106.894891 558 90.5185299"></polygon>
                    <polygon id="Fill-83" fill="#639085" points="506 71.5562534 488 74.1419946 558 90.5183558"></polygon>
                    <polygon id="Fill-84" fill="#618D83" points="508 54.3091852 506 71.5561663 556 71.5561663"></polygon>
                    <polygon id="Fill-85" fill="#5D877E" points="512 40.5187394 508 54.3093593 568 35.3472569"></polygon>
                    <polygon id="Fill-86" fill="#5A837B" points="482 6.89522291 512 40.5185652 568 35.3470827"></polygon>
                    <polygon id="Fill-87" fill="#87C4A8" points="424 235.346245 408 265.521932 446 287.940396"></polygon>
                    <polygon id="Fill-88" fill="#5F8A81" points="508 54.3091852 556 71.5561663 568 35.3470827"></polygon>
                    <polygon id="Fill-89" fill="#89C6AA" points="424 235.346245 446 287.940396 538 293.973792"></polygon>
                    <polygon id="Fill-90" fill="#87C4A8" points="424 235.346245 538 293.973792 612 263.798105"></polygon>
                    <polygon id="Fill-91" fill="#82BDA3" points="592 214.659706 424 235.346506 612 263.797495"></polygon>
                    <polygon id="Fill-92" fill="#7EB89F" points="520 199.145781 424 235.346158 592 214.659357"></polygon>
                    <polygon id="Fill-93" fill="#8CCBAD" points="538 293.973705 594 308.626239 612 263.798018"></polygon>
                    <polygon id="Fill-94" fill="#6C9E8E" points="434 106.894543 510 181.898451 558 90.5181817"></polygon>
                    <polygon id="Fill-95" fill="#7AB09A" points="510 181.898364 520 199.146216 648 195.698561"></polygon>
                    <polygon id="Fill-96" fill="#7BB39D" points="520 199.145781 592 214.659357 648 195.698126"></polygon>
                    <polygon id="Fill-97" fill="#6FA291" points="558 90.5185299 510 181.897929 654 145.689716"></polygon>
                    <polygon id="Fill-98" fill="#76AB97" points="510 181.898364 648 195.698561 654 145.689281"></polygon>
                    <polygon id="Fill-99" fill="#8CCAAC" points="612 263.797844 594 308.626065 704 292.249704"></polygon>
                    <polygon id="Fill-100" fill="#5C877F" points="568 35.3472569 556 71.5563404 678 31.0376881"></polygon>
                    <polygon id="Fill-101" fill="#83BFA4" points="592 214.659706 612 263.797495 704 251.730703"></polygon>
                    <polygon id="Fill-102" fill="#86C2A7" points="704 251.73079 612 263.797582 716 260.349927"></polygon>
                    <polygon id="Fill-103" fill="#89C6AA" points="612 263.797844 704 292.249704 716 260.350189"></polygon>
                    <polygon id="Fill-104" fill="#7FB8A0" points="648 195.698213 592 214.659444 704 251.730442"></polygon>
                    <polygon id="Fill-105" fill="#69998B" points="558 90.5185299 654 145.689716 754 88.7947024"></polygon>
                    <polygon id="Fill-106" fill="#659286" points="556 71.5562534 558 90.5183558 754 88.7945283"></polygon>
                    <polygon id="Fill-107" fill="#608C83" points="678 31.037514 556 71.5561663 754 88.7944412"></polygon>
                    <polygon id="Fill-108" fill="#5E8980" points="722 37.9327369 678 31.037427 754 88.7943542"></polygon>
                    <polygon id="Fill-109" fill="#75AB97" points="654 145.689455 648 195.697864 768 173.279401"></polygon>
                    <polygon id="Fill-110" fill="#5B857D" points="722 37.9327369 756 42.2423057 766 25.8659445"></polygon>
                    <polygon id="Fill-111" fill="#7FB8A0" points="648 195.698213 704 251.730442 778 216.384143"></polygon>
                    <polygon id="Fill-112" fill="#5F8B81" points="722 37.9327369 754 88.7943542 756 42.2423057"></polygon>
                    <polygon id="Fill-113" fill="#7AB29B" points="768 173.279749 648 195.698213 778 216.384143"></polygon>
                    <polygon id="Fill-114" fill="#85C1A6" points="704 251.73079 716 260.349927 802 239.655291"></polygon>
                    <polygon id="Fill-115" fill="#81BDA3" points="778 216.383968 704 251.731138 802 239.654769"></polygon>
                    <polygon id="Fill-116" fill="#5F8C82" points="756 42.2424798 754 88.7945283 786 48.275876"></polygon>
                    <polygon id="Fill-117" fill="#80BAA1" points="778 216.383968 802 239.654769 804 222.417365"></polygon>
                    <polygon id="Fill-118" fill="#5B857E" points="766 25.8661186 756 42.2424798 786 48.275876"></polygon>
                    <polygon id="Fill-119" fill="#86C3A7" points="802 239.655117 716 260.350624 830 275.003158"></polygon>
                    <polygon id="Fill-120" fill="#89C7AA" points="716 260.350276 704 292.249791 830 275.002809"></polygon>
                    <polygon id="Fill-121" fill="#8DCDAD" points="704 292.249442 798 314.6592 830 275.002461"></polygon>
                    <polygon id="Fill-122" fill="#5A837C" points="766 25.8661186 786 48.275876 816 16.3763612"></polygon>
                    <polygon id="Fill-123" fill="#6FA091" points="754 88.7947024 654 145.689716 768 173.279662"></polygon>
                    <polygon id="Fill-124" fill="#86C3A6" points="802 239.655117 830 275.003158 848 252.59253"></polygon>
                    <polygon id="Fill-125" fill="#7AB09B" points="768 173.279749 778 216.384143 868 184.484628"></polygon>
                    <polygon id="Fill-126" fill="#7CB49E" points="778 216.383968 804 222.417365 868 184.484454"></polygon>
                    <polygon id="Fill-127" fill="#6FA08F" points="754 88.7947024 768 173.279662 884 141.380147"></polygon>
                    <polygon id="Fill-128" fill="#81BCA2" points="804 222.417016 802 239.655291 892 234.483809"></polygon>
                    <polygon id="Fill-129" fill="#83BFA3" points="802 239.655117 848 252.59253 892 234.484505"></polygon>
                    <polygon id="Fill-130" fill="#5A847C" points="816 16.3764482 786 48.2759631 898 25.8662057"></polygon>
                    <polygon id="Fill-131" fill="#74A996" points="768 173.279749 868 184.484628 884 141.380234"></polygon>
                    <polygon id="Fill-132" fill="#88C5A8" points="848 252.592878 830 275.002635 918 268.107325"></polygon>
                    <polygon id="Fill-133" fill="#7DB79E" points="868 184.484715 804 222.416755 892 234.484418"></polygon>
                    <polygon id="Fill-134" fill="#5C867E" points="898 25.8661186 786 48.275876 932 43.9663073"></polygon>
                    <polygon id="Fill-135" fill="#85C1A6" points="892 234.484157 848 252.593052 918 268.107499"></polygon>
                    <polygon id="Fill-136" fill="#83BFA4" points="914 234.484157 892 234.484157 918 268.107499"></polygon>
                    <polygon id="Fill-137" fill="#7EB89F" points="868 184.484715 892 234.484418 914 234.484418"></polygon>
                    <polygon id="Fill-138" fill="#5F8C82" points="786 48.2760501 754 88.7947024 932 43.9664814"></polygon>
                    <polygon id="Fill-139" fill="#8CCBAD" points="830 275.002809 798 314.659548 918 268.107499"></polygon>
                    <polygon id="Fill-140" fill="#88C5A9" points="918 268.107587 946 272.417155 984 259.488449"></polygon>
                    <polygon id="Fill-141" fill="#83BFA3" points="978 231.898677 914 234.484418 984 259.487753"></polygon>
                    <polygon id="Fill-142" fill="#85C2A6" points="914 234.484157 918 268.107499 984 259.488362"></polygon>
                    <polygon id="Fill-143" fill="#669487" points="754 88.7947024 884 141.380147 932 43.9664814"></polygon>
                    <polygon id="Fill-144" fill="#5A837B" points="898 25.8661186 932 43.9663073 970 4.30956873"></polygon>
                    <polygon id="Fill-145" fill="#89C7AA" points="984 259.488101 946 272.417678 986 285.345513"></polygon>
                    <polygon id="Fill-146" fill="#679588" points="932 43.9663073 884 141.379973 1014 90.5183558"></polygon>
                    <polygon id="Fill-147" fill="#7EB7A0" points="868 184.484715 914 234.484418 978 231.898677"></polygon>
                    <polygon id="Fill-148" fill="#628E84" points="932 43.9663073 1014 90.5183558 1024 69.8324259"></polygon>
                    <polygon id="Fill-149" fill="#84C0A5" points="978 231.898677 984 259.487753 1016 256.902882"></polygon>
                    <polygon id="Fill-150" fill="#88C6A9" points="1016 256.902621 1034 282.768739 1042 264.659844"></polygon>
                    <polygon id="Fill-151" fill="#89C7AA" points="1016 256.902621 986 285.345774 1034 282.768739"></polygon>
                    <polygon id="Fill-152" fill="#88C5A9" points="984 259.488101 986 285.345513 1016 256.90236"></polygon>
                    <polygon id="Fill-153" fill="#5F8A81" points="932 43.9663073 1024 69.8324259 1048 49.9997035"></polygon>
                    <polygon id="Fill-154" fill="#5B847C" points="970 4.30974286 932 43.9664814 1048 49.9998776"></polygon>
                    <polygon id="Fill-155" fill="#6B9C8C" points="1014 90.5185299 884 141.380147 1072 118.108476"></polygon>
                    <polygon id="Fill-156" fill="#7BB39D" points="868 184.484715 1058 213.798488 1076 200.868912"></polygon>
                    <polygon id="Fill-157" fill="#7DB59E" points="868 184.484715 978 231.898677 1058 213.798488"></polygon>
                    <polygon id="Fill-158" fill="#82BDA3" points="978 231.898677 1016 256.902882 1058 213.798488"></polygon>
                    <polygon id="Fill-159" fill="#76AB97" points="884 141.380147 868 184.484541 1076 200.869608"></polygon>
                    <polygon id="Fill-160" fill="#74AA96" points="884 141.380147 1076 200.869608 1100 161.21287"></polygon>
                    <polygon id="Fill-161" fill="#71A492" points="1096 135.346577 884 141.379973 1100 161.212695"></polygon>
                    <polygon id="Fill-162" fill="#6D9F8F" points="1072 118.108476 884 141.380147 1096 135.346751"></polygon>
                    <polygon id="Fill-163" fill="#83BFA4" points="1016 256.902621 1042 264.659844 1058 213.798227"></polygon>
                    <polygon id="Fill-164" fill="#6D9E8E" points="1072 118.108476 1096 135.346751 1128 129.313355"></polygon>
                    <polygon id="Fill-165" fill="#639185" points="1024 69.8324259 1014 90.5183558 1140 82.7611321"></polygon>
                    <polygon id="Fill-166" fill="#679588" points="1014 90.5185299 1072 118.108476 1140 82.7613062"></polygon>
                    <polygon id="Fill-167" fill="#628E83" points="1048 49.9998776 1024 69.8326 1140 82.7613062"></polygon>
                    <polygon id="Fill-168" fill="#6FA391" points="1096 135.346577 1100 161.212695 1128 129.313181"></polygon>
                    <polygon id="Fill-169" fill="#5C877F" points="1116 30.1758615 1048 49.9998776 1174 56.8951876"></polygon>
                    <polygon id="Fill-170" fill="#618D82" points="1048 49.9998776 1140 82.7613062 1174 56.8951876"></polygon>
                    <polygon id="Fill-171" fill="#6A998C" points="1072 118.108476 1128 129.313355 1140 82.7613062"></polygon>
                    <polygon id="Fill-172" fill="#77AD99" points="1100 161.212608 1076 200.869347 1194 179.312797"></polygon>
                    <polygon id="Fill-173" fill="#82BDA3" points="1058 213.798401 1042 264.660019 1206 237.069202"></polygon>
                    <polygon id="Fill-174" fill="#7DB79F" points="1076 200.869173 1058 213.79875 1206 237.06955"></polygon>
                    <polygon id="Fill-175" fill="#72A693" points="1128 129.313006 1100 161.212521 1194 179.31271"></polygon>
                    <polygon id="Fill-176" fill="#5A847C" points="1154 7.75739784 1116 30.1758615 1174 56.8951876"></polygon>
                    <polygon id="Fill-177" fill="#8DCCAD" points="1034.0001 282.768652 1128.0001 322.416685 1042.0001 264.659757"></polygon>
                    <polygon id="Fill-178" fill="#7CB49D" points="1194 179.312884 1076 200.869434 1206 237.069811"></polygon>
                    <polygon id="Fill-179" fill="#8CCBAD" points="1127.9996 322.416685 1249.9996 278.450377 1041.9996 264.659757"></polygon>
                    <polygon id="Fill-180" fill="#87C4A7" points="1206 237.069637 1042 264.659583 1250 278.450203"></polygon>
                    <polygon id="Fill-181" fill="#85C2A6" points="1234 249.145223 1206 237.069724 1250 278.45029"></polygon>
                    <polygon id="Fill-182" fill="#5B847C" points="1154 7.75739784 1174 56.8951876 1296 36.2092577"></polygon>
                    <polygon id="Fill-183" fill="#58807A" points="1292 13.7905329 1154 7.75713666 1296 36.2089965"></polygon>
                    <polygon id="Fill-184" fill="#83BEA3" points="1206 237.069637 1234 249.145136 1310 229.312413"></polygon>
                    <polygon id="Fill-185" fill="#72A593" points="1128 129.313006 1194 179.31271 1316 151.73147"></polygon>
                    <polygon id="Fill-186" fill="#5E8981" points="1296 36.2089965 1174 56.8949264 1326 62.0664089"></polygon>
                    <polygon id="Fill-187" fill="#7EB79F" points="1194 179.312884 1206 237.069811 1310 229.312588"></polygon>
                    <polygon id="Fill-188" fill="#87C4A7" points="1234 249.145223 1250 278.45029 1342 253.454792"></polygon>
                    <polygon id="Fill-189" fill="#83BFA4" points="1310 229.312326 1234 249.145049 1342 253.454618"></polygon>
                    <polygon id="Fill-190" fill="#89C7AA" points="1250 278.450464 1300 291.387877 1342 253.454966"></polygon>
                    <polygon id="Fill-191" fill="#618D83" points="1174 56.8951005 1140 82.7612191 1326 62.066583"></polygon>
                    <polygon id="Fill-192" fill="#6C9D8E" points="1140 82.7612191 1128 129.313268 1316 151.731731"></polygon>
                    <polygon id="Fill-193" fill="#618C82" points="1358 58.618928 1326 62.066583 1366 60.3427555"></polygon>
                    <polygon id="Fill-194" fill="#5E8981" points="1296 36.2089965 1326 62.0664089 1358 58.6187539"></polygon>
                    <polygon id="Fill-195" fill="#68968A" points="1140 82.7612191 1316 151.731731 1326 62.066583"></polygon>
                    <polygon id="Fill-196" fill="#79AF9A" points="1194 179.312884 1310 229.312588 1316 151.731644"></polygon>
                    <polygon id="Fill-197" fill="#77AD98" points="1316 151.73147 1310 229.312413 1366 153.446591"></polygon>
                    <polygon id="Fill-198" fill="#88C6A9" points="1342 253.454966 1300 291.387877 1418 260.350276"></polygon>
                    <polygon id="Fill-199" fill="#7AB29B" points="1310.0004 229.311978 1440.0004 203.020126 1366.0004 153.447027"></polygon>
                    <polygon id="Fill-200" fill="#8BC9AB" points="1299.9995 291.38779 1439.9995 288.802049 1418.0005 260.350189"></polygon>
                    <polygon id="Fill-201" fill="#5D877E" points="1296 36.2088224 1358 58.6185798 1440 31.0373399"></polygon>
                    <polygon id="Fill-202" fill="#59827B" points="1296 36.2088224 1440 31.0373399 1292 13.7903588"></polygon>
                    <polygon id="Fill-203" fill="#5D8880" points="1358.0001 58.6185798 1366.0001 60.3424073 1440.0001 31.0373399"></polygon>
                    <polygon id="Fill-204" fill="#5F8A81" points="1366.0001 60.3424073 1440.0001 74.142604 1440.0001 31.0373399"></polygon>
                    <polygon id="Fill-205" fill="#649186" points="1325.9996 62.0662348 1439.9996 116.810817 1365.9996 60.3424073"></polygon>
                    <polygon id="Fill-206" fill="#6FA291" points="1315.9998 151.731122 1365.9998 153.447114 1439.9998 116.811426"></polygon>
                    <polygon id="Fill-207" fill="#69998B" points="1315.9998 151.731122 1439.9998 116.811426 1325.9998 62.0659736"></polygon>
                    <polygon id="Fill-208" fill="#659287" points="1440 116.811078 1440 74.1428652 1366 60.3426685"></polygon>
                    <polygon id="Fill-209" fill="#70A291" points="1366.0001 153.447114 1440.0001 159.914949 1440.0001 116.811426"></polygon>
                    <polygon id="Fill-210" fill="#75AB97" points="1440 203.020475 1440 159.915211 1366 153.447375"></polygon>
                    <polygon id="Fill-211" fill="#85C2A6" points="1341.9999 253.454966 1417.9999 260.350276 1439.9999 246.125216"></polygon>
                    <polygon id="Fill-212" fill="#80BAA1" points="1310.0004 229.311978 1440.0004 246.12452 1440.0004 203.020126"></polygon>
                    <polygon id="Fill-213" fill="#83BFA4" points="1341.9999 253.454966 1439.9999 246.125216 1309.9999 229.311804"></polygon>
                    <polygon id="Fill-214" fill="#88C5A9" points="1418.0004 260.350276 1440.0004 288.802136 1440.0004 246.125216"></polygon>
                </g>
            </g>
        </g>
    </g>
</svg>