<?xml version="1.0" encoding="UTF-8" standalone="no"?>
<svg width="60px" height="59px" viewBox="0 0 60 59" version="1.1" xmlns="http://www.w3.org/2000/svg" xmlns:xlink="http://www.w3.org/1999/xlink">
    <!-- Generator: Sketch 3.8.3 (29802) - http://www.bohemiancoding.com/sketch -->
    <title>chef-logo-white</title>
    <desc>Created with Sketch.</desc>
    <defs></defs>
    <g id="Symbols" stroke="none" stroke-width="1" fill="none" fill-rule="evenodd">
        <g id="Footer" transform="translate(-15.000000, -161.000000)" fill="#FFFFFF">
            <g id="chef-logo-white" transform="translate(15.000000, 161.000000)">
                <path d="M57.8077739,47.6068231 L57.6082686,47.6068231 L57.6082686,46.3959386 L57.1598587,46.3959386 L57.1598587,46.2048809 L58.2559717,46.2048809 L58.2559717,46.3959386 L57.8077739,46.3959386 L57.8077739,47.6068231 L57.8077739,47.6068231 Z M59.2848763,47.2924404 L59.2577385,47.2924404 L58.7639576,46.5328953 L58.7639576,47.6068231 L58.5642403,47.6068231 L58.5642403,46.2048809 L58.7773145,46.2048809 L59.2757597,46.9740108 L59.7693286,46.2048809 L59.9779505,46.2048809 L59.9779505,47.6068231 L59.7831095,47.6068231 L59.7831095,46.5328953 L59.2848763,47.2924404 L59.2848763,47.2924404 Z" id="Fill-1"></path>
                <path d="M0.0778091873,52.3787942 L0.0778091873,52.3421588 C0.0778091873,48.6928917 2.81575972,45.7039134 6.74035336,45.7039134 C9.14968198,45.7039134 10.5918021,46.5107437 11.7782332,47.6843538 L9.98946996,49.7565957 C9.00360424,48.8579639 7.99971731,48.3080072 6.72212014,48.3080072 C4.56805654,48.3080072 3.0165371,50.1048448 3.0165371,52.3053105 L3.0165371,52.3421588 C3.0165371,54.5426245 4.53159011,56.3765235 6.72212014,56.3765235 C8.18226148,56.3765235 9.07674912,55.7897184 10.080636,54.872769 L11.8693993,56.6881372 C10.5553357,58.1000903 9.09498233,58.9804043 6.63053004,58.9804043 C2.87067138,58.9804043 0.0778091873,56.0649097 0.0778091873,52.3787942" id="Fill-2"></path>
                <polyline id="Fill-3" points="15.8109541 45.9239386 18.6218375 45.9239386 18.6218375 51.0034765 23.8057951 51.0034765 23.8057951 45.9239386 26.6168905 45.9239386 26.6168905 58.7603791 23.8057951 58.7603791 23.8057951 53.6075704 18.6218375 53.6075704 18.6218375 58.7603791 15.8109541 58.7603791 15.8109541 45.9239386"></polyline>
                <polyline id="Fill-4" points="31.3208481 45.9239386 40.9587986 45.9239386 40.9587986 48.4360181 34.1134982 48.4360181 34.1134982 51.0401119 40.1372438 51.0401119 40.1372438 53.5524043 34.1134982 53.5524043 34.1134982 56.2480866 41.0497527 56.2480866 41.0497527 58.7603791 31.3208481 58.7603791 31.3208481 45.9239386"></polyline>
                <polyline id="Fill-5" points="45.1880565 45.9239386 54.9171731 45.9239386 54.9171731 48.4911841 47.9991519 48.4911841 47.9991519 51.2235018 54.0956184 51.2235018 54.0956184 53.7909603 47.9991519 53.7909603 47.9991519 58.7603791 45.1880565 58.7603791 45.1880565 45.9239386"></polyline>
                <path d="M28.095689,27.4714224 C23.4275618,27.4714224 19.6293286,23.6558051 19.6293286,18.9660505 C19.6293286,14.275657 23.4275618,10.4602527 28.095689,10.4602527 C31.9490459,10.4602527 35.2066431,13.0602996 36.2279152,16.6051986 L39.5039576,16.6051986 C38.4135689,11.2813538 33.7136396,7.26530686 28.095689,7.26530686 C21.6739929,7.26530686 16.4493286,12.5139639 16.4493286,18.9660505 C16.4493286,25.4174982 21.6739929,30.6663682 28.095689,30.6663682 C33.7136396,30.6663682 38.4135689,26.6503213 39.5039576,21.3262635 L36.2279152,21.3262635 C35.2066431,24.8713755 31.9490459,27.4714224 28.095689,27.4714224" id="Fill-6"></path>
                <path d="M22.3884806,24.6992744 C23.850742,26.1678845 25.8693286,27.0778051 28.095689,27.0778051 L28.095689,23.6869025 C26.7979505,23.6869025 25.6233922,23.1584585 24.7727915,22.303917 L22.3884806,24.6992744" id="Fill-7"></path>
                <path d="M20.0209187,18.9656245 C20.0209187,20.1266679 20.2666431,21.2308412 20.7061484,22.2304332 L23.7941343,20.8661913 C23.5388693,20.2844982 23.3966078,19.6418881 23.3966078,18.9656245 C23.3966078,16.3583357 25.500424,14.2447726 28.0959011,14.2447726 L28.0959011,10.85387 C23.6431802,10.85387 20.0209187,14.4927004 20.0209187,18.9656245" id="Fill-8"></path>
                <path d="M31.0236042,11.4061697 L29.7992226,14.5676751 C30.7990813,14.9591625 31.6333569,15.6822852 32.1644523,16.6051986 L35.820636,16.6051986 C35.0987279,14.2245379 33.3135689,12.3048014 31.0236042,11.4061697" id="Fill-9"></path>
                <path d="M29.7994346,23.364 L31.0236042,26.5255054 C33.3135689,25.6268736 35.0987279,23.7069242 35.8210601,21.3262635 L32.1646643,21.3262635 C31.6333569,22.2491769 30.7990813,22.9725126 29.7994346,23.364" id="Fill-10"></path>
                <path d="M13.1569611,23.5037256 C13.1031095,23.3260866 13.0526502,23.1471697 13.004947,22.9671877 C13.0021908,22.9563249 12.9994346,22.9452491 12.9966784,22.9341733 C12.9530035,22.7678231 12.9122968,22.6004079 12.8739223,22.4321408 C12.8665018,22.3978484 12.8590813,22.363556 12.8516608,22.3292635 C12.8198587,22.184852 12.7899647,22.0395884 12.7617668,21.8936859 C12.749894,21.828509 12.7388693,21.7637581 12.7276325,21.6987942 C12.7066431,21.5822852 12.6867138,21.4657762 12.6686926,21.3488412 C12.6534276,21.2489458 12.6402827,21.1488375 12.6269258,21.0483032 C12.5353357,20.3647978 12.4857244,19.6693646 12.4863604,18.9656245 L9.29809187,18.9656245 C9.2970318,19.7332635 9.34537102,20.4915307 9.435053,21.239361 L9.43484099,21.239361 C9.4365371,21.2557617 9.4395053,21.2715235 9.44141343,21.2881372 C9.46664311,21.4919747 9.49420495,21.6949603 9.52579505,21.8968809 C9.53448763,21.9524729 9.5444523,22.007639 9.5535689,22.063444 C9.58113074,22.2291552 9.60954064,22.3950794 9.64134276,22.5595126 C9.65830389,22.6472671 9.67696113,22.7341697 9.69498233,22.8212852 C9.72212014,22.952491 9.74946996,23.0834838 9.77936396,23.2140505 C9.80586572,23.3286426 9.83427562,23.4423827 9.86310954,23.5563357 C9.88833922,23.658148 9.91335689,23.7603863 9.9404947,23.8617726 C9.97674912,23.9963863 10.0151237,24.130361 10.0537102,24.2639097 C10.0704594,24.3197148 10.0846643,24.3761588 10.1014134,24.4321769 L10.1031095,24.4315379 C10.3231802,25.1631805 10.5839576,25.8771444 10.8873498,26.5685307 L13.8091166,25.2775596 C13.5572438,24.7035343 13.3401413,24.1107653 13.1569611,23.5037256" id="Fill-11"></path>
                <path d="M28.095689,34.6474838 C23.7918021,34.6474838 19.8911661,32.8872816 17.0652297,30.0471877 L14.8064311,32.3164513 C18.2075618,35.7341913 22.904947,37.8500975 28.095689,37.8500975 C37.6812721,37.8500975 45.5902473,30.6416606 46.7465724,21.3262635 L43.5284099,21.3262635 C42.3918021,28.8573899 35.9041696,34.6474838 28.095689,34.6474838" id="Fill-12"></path>
                <path d="M28.095689,3.28397834 C31.5918021,3.28397834 34.8220495,4.44544765 37.4264311,6.40352347 L39.3375265,3.83116606 C36.2020495,1.47691697 32.3111661,0.0815776173 28.095689,0.0815776173 C20.1192933,0.0815776173 13.304523,5.07314801 10.574841,12.1165126 L13.5491873,13.2792599 C15.8202827,7.43527798 21.4842403,3.28397834 28.095689,3.28397834" id="Fill-13"></path>
                <path d="M43.5286219,16.6054116 L46.7467845,16.6054116 C46.4016254,13.8262347 45.4556184,11.2349206 44.0431802,8.96629603 L41.3332155,10.6653682 C42.4399293,12.4400542 43.2029682,14.4511661 43.5286219,16.6054116" id="Fill-14"></path>
                <path d="M39.9025442,16.6054116 L43.1317314,16.6054116 C42.2893993,11.1661227 38.5810601,6.66849097 33.6135689,4.719787 L32.459788,7.69896751 C36.2380919,9.18099639 39.0958304,12.5250397 39.9025442,16.6054116" id="Fill-15"></path>
                <path d="M28.095689,6.87211552 L28.0959011,6.87211552 L28.0959011,3.67759567 L28.095689,3.67759567 C21.6498233,3.67759567 16.1285512,7.72474007 13.9144876,13.4219675 L16.8775972,14.5804549 C18.6288339,10.0732383 22.9969611,6.87211552 28.095689,6.87211552" id="Fill-16"></path>
                <path d="M16.0577385,18.9656245 L16.0577385,18.9654116 L12.8779505,18.9654116 L12.8779505,18.9656245 C12.8779505,25.3902347 16.8440989,30.8987473 22.4444523,33.157574 L23.625159,30.1922383 C19.1946996,28.4054116 16.0577385,24.0479314 16.0577385,18.9656245" id="Fill-17"></path>
                <path d="M28.095689,31.0595596 L28.095689,34.2540794 C35.6877032,34.2540794 41.9991519,28.6397076 43.1317314,21.3262635 L39.9023322,21.3262635 C38.8068551,26.8688556 33.92947,31.0595596 28.095689,31.0595596" id="Fill-18"></path>
            </g>
        </g>
    </g>
</svg>