<?xml version="1.0" encoding="UTF-8" standalone="no"?>
<svg width="1440px" height="261px" viewBox="0 0 1440 261" version="1.1" xmlns="http://www.w3.org/2000/svg" xmlns:xlink="http://www.w3.org/1999/xlink">
    <!-- Generator: Sketch 3.8.3 (29802) - http://www.bohemiancoding.com/sketch -->
    <title>graphic-footer-mask</title>
    <desc>Created with Sketch.</desc>
    <defs>
        <linearGradient x1="101.192295%" y1="5.41771455%" x2="100%" y2="50%" id="linearGradient-1">
            <stop stop-color="#7A9F8B" offset="0%"></stop>
            <stop stop-color="#87B09A" offset="100%"></stop>
        </linearGradient>
        <path d="M1735.24658,11.3571146 L1735.3379,11.3570944 L1735.24487,-7.80538601 C1735.35729,-10.8121314 1734.26588,-13.8575761 1731.96924,-16.1542202 L1694.40938,-53.7140743 C1690.03143,-58.0920216 1682.94331,-58.0949625 1678.57331,-53.7249569 L1640.96805,-16.1197015 C1638.65214,-13.80379 1637.56493,-10.7198263 1637.70789,-7.68114865 L1637.79311,10.0600831 C1637.33924,13.4083537 1638.39905,16.9255417 1640.97456,19.5010482 L1678.53441,57.0609024 C1682.91236,61.4388497 1690.00048,61.4417905 1694.37049,57.0717849 L1731.97574,19.4665296 C1734.20807,17.2341997 1735.29879,14.2882555 1735.24658,11.3571146 L1735.24658,11.3571146 Z M1606.62906,-25.8913891 L1606.69362,-25.9559799 L1593.07792,-39.440116 C1591.03132,-41.645695 1588.10612,-43.0274084 1584.85818,-43.0274084 L1531.74052,-43.0274084 C1525.54917,-43.0274084 1520.53503,-38.0174303 1520.53503,-31.837309 L1520.53503,21.3445531 C1520.53503,24.6197465 1521.94695,27.5692117 1524.1967,29.6167975 L1536.80191,42.1014782 C1538.84856,44.7900024 1542.08499,46.5276267 1545.7273,46.5276267 L1598.84496,46.5276267 C1605.03631,46.5276267 1610.05045,41.5176486 1610.05045,35.3375273 L1610.05045,-17.8443348 C1610.05045,-21.001326 1608.7386,-23.8556758 1606.62906,-25.8913891 L1606.62906,-25.8913891 Z M1453.87401,-47.1012682 L1453.87399,-47.1925931 L1434.71151,-47.099561 C1431.70477,-47.2119753 1428.65932,-46.1205685 1426.36268,-43.8239244 L1388.80282,-6.26407027 C1384.42488,-1.88612295 1384.42194,5.20199695 1388.79194,9.57200259 L1426.3972,47.1772579 C1428.71311,49.4931694 1431.79707,50.5803794 1434.83575,50.4374253 L1452.57698,50.3521983 C1455.92525,50.8060752 1459.44244,49.7462589 1462.01795,47.1707524 L1499.5778,9.6108983 C1503.95575,5.23295098 1503.95869,-1.85516891 1499.58868,-6.22517455 L1461.98343,-43.8304299 C1459.7511,-46.0627597 1456.80515,-47.1534758 1453.87401,-47.1012682 L1453.87401,-47.1012682 Z M1295.57279,-39.5862097 L1295.5082,-39.6507719 L1282.02406,-26.0350684 C1279.81848,-23.9884673 1278.43677,-21.0632715 1278.43677,-17.8153264 L1278.43677,35.3023288 C1278.43677,41.4936813 1283.44675,46.5078184 1289.62687,46.5078184 L1342.80873,46.5078184 C1346.08392,46.5078184 1349.03339,45.0959002 1351.08097,42.8461469 L1363.56565,30.240937 C1366.25418,28.1942916 1367.9918,24.9578608 1367.9918,21.3155446 L1367.9918,-31.8021105 C1367.9918,-37.993463 1362.98183,-43.0076001 1356.8017,-43.0076001 L1303.61984,-43.0076001 C1300.46285,-43.0076001 1297.6085,-41.6957557 1295.57279,-39.5862097 L1295.57279,-39.5862097 Z M1153.33718,-8.01028652 L1153.24585,-8.01026632 L1153.33888,11.152214 C1153.22647,14.1589595 1154.31788,17.2044041 1156.61452,19.5010482 L1194.17437,57.0609024 C1198.55232,61.4388497 1205.64044,61.4417905 1210.01045,57.0717849 L1247.6157,19.4665296 C1249.93161,17.1506181 1251.01882,14.0666543 1250.87587,11.0279767 L1250.79064,-6.71325509 C1251.24452,-10.0615256 1250.1847,-13.5787137 1247.6092,-16.1542202 L1210.04934,-53.7140743 C1205.67139,-58.0920216 1198.58327,-58.0949625 1194.21327,-53.7249569 L1156.60801,-16.1197015 C1154.37568,-13.8873717 1153.28497,-10.9414274 1153.33718,-8.01028652 L1153.33718,-8.01028652 Z M1039.51965,29.3149122 L1039.45509,29.379503 L1053.07079,42.8636391 C1055.1174,45.0692182 1058.04259,46.4509316 1061.29054,46.4509316 L1114.40819,46.4509316 C1120.59954,46.4509316 1125.61368,41.4409534 1125.61368,35.2608322 L1125.61368,-17.9210299 C1125.61368,-21.1962234 1124.20176,-24.1456886 1121.95201,-26.1932744 L1109.3468,-38.677955 C1107.30015,-41.3664793 1104.06372,-43.1041035 1100.42141,-43.1041035 L1047.30375,-43.1041035 C1041.1124,-43.1041035 1036.09826,-38.0941254 1036.09826,-31.9140042 L1036.09826,21.2678579 C1036.09826,24.4248491 1037.41011,27.279199 1039.51965,29.3149122 L1039.51965,29.3149122 Z M950.069844,50.4480962 L950.069864,50.5394212 L969.232344,50.446389 C972.23909,50.5588033 975.284534,49.4673965 977.581178,47.1707524 L1015.14103,9.6108983 C1019.51898,5.23295098 1019.52192,-1.85516891 1015.15191,-6.22517455 L977.54666,-43.8304299 C975.230748,-46.1463414 972.146784,-47.2335513 969.108107,-47.0905973 L951.366875,-47.0053703 C948.018604,-47.4592471 944.501416,-46.3994309 941.92591,-43.8239244 L904.366056,-6.26407027 C899.988108,-1.88612295 899.985168,5.20199695 904.355173,9.57200259 L941.960429,47.1772579 C944.192758,49.4095878 947.138703,50.5003038 950.069844,50.4480962 L950.069844,50.4480962 Z M866.419016,43.0097329 L866.483607,43.0742951 L879.967743,29.4585916 C882.173322,27.4119905 883.555035,24.4867947 883.555035,21.2388495 L883.555035,-31.8788056 C883.555035,-38.0701581 878.545057,-43.0842952 872.364936,-43.0842952 L819.183074,-43.0842952 C815.90788,-43.0842952 812.958415,-41.6723771 810.910829,-39.4226238 L798.426149,-26.8174138 C795.737624,-24.7707685 794,-21.5343377 794,-17.8920215 L794,35.2256337 C794,41.4169861 799.009978,46.4311233 805.190099,46.4311233 L858.371961,46.4311233 C861.528953,46.4311233 864.383303,45.1192788 866.419016,43.0097329 L866.419016,43.0097329 Z M1675.24658,111.357115 L1675.3379,111.357094 L1675.24487,92.194614 C1675.35729,89.1878686 1674.26588,86.1424239 1671.96924,83.8457798 L1634.40938,46.2859257 C1630.03143,41.9079784 1622.94331,41.9050375 1618.57331,46.2750431 L1580.96805,83.8802985 C1578.65214,86.19621 1577.56493,89.2801737 1577.70789,92.3188513 L1577.79311,110.060083 C1577.33924,113.408354 1578.39905,116.925542 1580.97456,119.501048 L1618.53441,157.060902 C1622.91236,161.43885 1630.00048,161.441791 1634.37049,157.071785 L1671.97574,119.46653 C1674.20807,117.2342 1675.29879,114.288255 1675.24658,111.357115 L1675.24658,111.357115 Z M1546.62906,74.1086109 L1546.69362,74.0440201 L1533.07792,60.559884 C1531.03132,58.354305 1528.10612,56.9725916 1524.85818,56.9725916 L1471.74052,56.9725916 C1465.54917,56.9725916 1460.53503,61.9825697 1460.53503,68.162691 L1460.53503,121.344553 C1460.53503,124.619747 1461.94695,127.569212 1464.1967,129.616798 L1476.80191,142.101478 C1478.84856,144.790002 1482.08499,146.527627 1485.7273,146.527627 L1538.84496,146.527627 C1545.03631,146.527627 1550.05045,141.517649 1550.05045,135.337527 L1550.05045,82.1556652 C1550.05045,78.998674 1548.7386,76.1443242 1546.62906,74.1086109 L1546.62906,74.1086109 Z M1393.87401,52.8987318 L1393.87399,52.8074069 L1374.71151,52.900439 C1371.70477,52.7880247 1368.65932,53.8794315 1366.36268,56.1760756 L1328.80282,93.7359297 C1324.42488,98.113877 1324.42194,105.201997 1328.79194,109.572003 L1366.3972,147.177258 C1368.71311,149.493169 1371.79707,150.580379 1374.83575,150.437425 L1392.57698,150.352198 C1395.92525,150.806075 1399.44244,149.746259 1402.01795,147.170752 L1439.5778,109.610898 C1443.95575,105.232951 1443.95869,98.1448311 1439.58868,93.7748254 L1401.98343,56.1695701 C1399.7511,53.9372403 1396.80515,52.8465242 1393.87401,52.8987318 L1393.87401,52.8987318 Z M1235.57279,60.4137903 L1235.5082,60.3492281 L1222.02406,73.9649316 C1219.81848,76.0115327 1218.43677,78.9367285 1218.43677,82.1846736 L1218.43677,135.302329 C1218.43677,141.493681 1223.44675,146.507818 1229.62687,146.507818 L1282.80873,146.507818 C1286.08392,146.507818 1289.03339,145.0959 1291.08097,142.846147 L1303.56565,130.240937 C1306.25418,128.194292 1307.9918,124.957861 1307.9918,121.315545 L1307.9918,68.1978895 C1307.9918,62.006537 1302.98183,56.9923999 1296.8017,56.9923999 L1243.61984,56.9923999 C1240.46285,56.9923999 1237.6085,58.3042443 1235.57279,60.4137903 L1235.57279,60.4137903 Z M1093.33718,91.9897135 L1093.24585,91.9897337 L1093.33888,111.152214 C1093.22647,114.158959 1094.31788,117.204404 1096.61452,119.501048 L1134.17437,157.060902 C1138.55232,161.43885 1145.64044,161.441791 1150.01045,157.071785 L1187.6157,119.46653 C1189.93161,117.150618 1191.01882,114.066654 1190.87587,111.027977 L1190.79064,93.2867449 C1191.24452,89.9384744 1190.1847,86.4212863 1187.6092,83.8457798 L1150.04934,46.2859257 C1145.67139,41.9079784 1138.58327,41.9050375 1134.21327,46.2750431 L1096.60801,83.8802985 C1094.37568,86.1126283 1093.28497,89.0585726 1093.33718,91.9897135 L1093.33718,91.9897135 Z M979.519653,129.314912 L979.455091,129.379503 L993.070794,142.863639 C995.117395,145.069218 998.042591,146.450932 1001.29054,146.450932 L1054.40819,146.450932 C1060.59954,146.450932 1065.61368,141.440953 1065.61368,135.260832 L1065.61368,82.0789701 C1065.61368,78.8037766 1064.20176,75.8543114 1061.95201,73.8067256 L1049.3468,61.322045 C1047.30015,58.6335207 1044.06372,56.8958965 1040.42141,56.8958965 L987.303752,56.8958965 C981.1124,56.8958965 976.098263,61.9058746 976.098263,68.0859958 L976.098263,121.267858 C976.098263,124.424849 977.410107,127.279199 979.519653,129.314912 L979.519653,129.314912 Z M890.069844,150.448096 L890.069864,150.539421 L909.232344,150.446389 C912.23909,150.558803 915.284534,149.467397 917.581178,147.170752 L955.141032,109.610898 C959.51898,105.232951 959.521921,98.1448311 955.151915,93.7748254 L917.54666,56.1695701 C915.230748,53.8536586 912.146784,52.7664487 909.108107,52.9094027 L891.366875,52.9946297 C888.018604,52.5407529 884.501416,53.6005691 881.92591,56.1760756 L844.366056,93.7359297 C839.988108,98.113877 839.985168,105.201997 844.355173,109.572003 L881.960429,147.177258 C884.192758,149.409588 887.138703,150.500304 890.069844,150.448096 L890.069844,150.448096 Z M806.419016,143.009733 L806.483607,143.074295 L819.967743,129.458592 C822.173322,127.41199 823.555035,124.486795 823.555035,121.23885 L823.555035,68.1211944 C823.555035,61.9298419 818.545057,56.9157048 812.364936,56.9157048 L759.183074,56.9157048 C755.90788,56.9157048 752.958415,58.3276229 750.910829,60.5773762 L738.426149,73.1825862 C735.737624,75.2292315 734,78.4656623 734,82.1079785 L734,135.225634 C734,141.416986 739.009978,146.431123 745.190099,146.431123 L798.371961,146.431123 C801.528953,146.431123 804.383303,145.119279 806.419016,143.009733 L806.419016,143.009733 Z M1615.24658,211.357115 L1615.3379,211.357094 L1615.24487,192.194614 C1615.35729,189.187869 1614.26588,186.142424 1611.96924,183.84578 L1574.40938,146.285926 C1570.03143,141.907978 1562.94331,141.905038 1558.57331,146.275043 L1520.96805,183.880298 C1518.65214,186.19621 1517.56493,189.280174 1517.70789,192.318851 L1517.79311,210.060083 C1517.33924,213.408354 1518.39905,216.925542 1520.97456,219.501048 L1558.53441,257.060902 C1562.91236,261.43885 1570.00048,261.441791 1574.37049,257.071785 L1611.97574,219.46653 C1614.20807,217.2342 1615.29879,214.288255 1615.24658,211.357115 L1615.24658,211.357115 Z M1486.62906,174.108611 L1486.69362,174.04402 L1473.07792,160.559884 C1471.03132,158.354305 1468.10612,156.972592 1464.85818,156.972592 L1411.74052,156.972592 C1405.54917,156.972592 1400.53503,161.98257 1400.53503,168.162691 L1400.53503,221.344553 C1400.53503,224.619747 1401.94695,227.569212 1404.1967,229.616798 L1416.80191,242.101478 C1418.84856,244.790002 1422.08499,246.527627 1425.7273,246.527627 L1478.84496,246.527627 C1485.03631,246.527627 1490.05045,241.517649 1490.05045,235.337527 L1490.05045,182.155665 C1490.05045,178.998674 1488.7386,176.144324 1486.62906,174.108611 L1486.62906,174.108611 Z M1333.87401,152.898732 L1333.87399,152.807407 L1314.71151,152.900439 C1311.70477,152.788025 1308.65932,153.879432 1306.36268,156.176076 L1268.80282,193.73593 C1264.42488,198.113877 1264.42194,205.201997 1268.79194,209.572003 L1306.3972,247.177258 C1308.71311,249.493169 1311.79707,250.580379 1314.83575,250.437425 L1332.57698,250.352198 C1335.92525,250.806075 1339.44244,249.746259 1342.01795,247.170752 L1379.5778,209.610898 C1383.95575,205.232951 1383.95869,198.144831 1379.58868,193.774825 L1341.98343,156.16957 C1339.7511,153.93724 1336.80515,152.846524 1333.87401,152.898732 L1333.87401,152.898732 Z M1175.57279,160.41379 L1175.5082,160.349228 L1162.02406,173.964932 C1159.81848,176.011533 1158.43677,178.936728 1158.43677,182.184674 L1158.43677,235.302329 C1158.43677,241.493681 1163.44675,246.507818 1169.62687,246.507818 L1222.80873,246.507818 C1226.08392,246.507818 1229.03339,245.0959 1231.08097,242.846147 L1243.56565,230.240937 C1246.25418,228.194292 1247.9918,224.957861 1247.9918,221.315545 L1247.9918,168.19789 C1247.9918,162.006537 1242.98183,156.9924 1236.8017,156.9924 L1183.61984,156.9924 C1180.46285,156.9924 1177.6085,158.304244 1175.57279,160.41379 L1175.57279,160.41379 Z M1033.33718,191.989713 L1033.24585,191.989734 L1033.33888,211.152214 C1033.22647,214.158959 1034.31788,217.204404 1036.61452,219.501048 L1074.17437,257.060902 C1078.55232,261.43885 1085.64044,261.441791 1090.01045,257.071785 L1127.6157,219.46653 C1129.93161,217.150618 1131.01882,214.066654 1130.87587,211.027977 L1130.79064,193.286745 C1131.24452,189.938474 1130.1847,186.421286 1127.6092,183.84578 L1090.04934,146.285926 C1085.67139,141.907978 1078.58327,141.905038 1074.21327,146.275043 L1036.60801,183.880298 C1034.37568,186.112628 1033.28497,189.058573 1033.33718,191.989713 L1033.33718,191.989713 Z M919.519653,229.314912 L919.455091,229.379503 L933.070794,242.863639 C935.117395,245.069218 938.042591,246.450932 941.290536,246.450932 L994.408192,246.450932 C1000.59954,246.450932 1005.61368,241.440953 1005.61368,235.260832 L1005.61368,182.07897 C1005.61368,178.803777 1004.20176,175.854311 1001.95201,173.806726 L989.3468,161.322045 C987.300154,158.633521 984.063724,156.895896 980.421407,156.895896 L927.303752,156.895896 C921.1124,156.895896 916.098263,161.905875 916.098263,168.085996 L916.098263,221.267858 C916.098263,224.424849 917.410107,227.279199 919.519653,229.314912 L919.519653,229.314912 Z M830.069844,250.448096 L830.069864,250.539421 L849.232344,250.446389 C852.23909,250.558803 855.284534,249.467397 857.581178,247.170752 L895.141032,209.610898 C899.51898,205.232951 899.521921,198.144831 895.151915,193.774825 L857.54666,156.16957 C855.230748,153.853659 852.146784,152.766449 849.108107,152.909403 L831.366875,152.99463 C828.018604,152.540753 824.501416,153.600569 821.92591,156.176076 L784.366056,193.73593 C779.988108,198.113877 779.985168,205.201997 784.355173,209.572003 L821.960429,247.177258 C824.192758,249.409588 827.138703,250.500304 830.069844,250.448096 L830.069844,250.448096 Z M746.419016,243.009733 L746.483607,243.074295 L759.967743,229.458592 C762.173322,227.41199 763.555035,224.486795 763.555035,221.23885 L763.555035,168.121194 C763.555035,161.929842 758.545057,156.915705 752.364936,156.915705 L699.183074,156.915705 C695.90788,156.915705 692.958415,158.327623 690.910829,160.577376 L678.426149,173.182586 C675.737624,175.229232 674,178.465662 674,182.107979 L674,235.225634 C674,241.416986 679.009978,246.431123 685.190099,246.431123 L738.371961,246.431123 C741.528953,246.431123 744.383303,245.119279 746.419016,243.009733 L746.419016,243.009733 Z M765.246579,11.3571146 L765.337904,11.3570944 L765.244872,-7.80538601 C765.357286,-10.8121314 764.265879,-13.8575761 761.969235,-16.1542202 L724.409381,-53.7140743 C720.031434,-58.0920216 712.943314,-58.0949625 708.573308,-53.7249569 L670.968053,-16.1197015 C668.652142,-13.80379 667.564932,-10.7198263 667.707886,-7.68114865 L667.793113,10.0600831 C667.339236,13.4083537 668.399052,16.9255417 670.974559,19.5010482 L708.534413,57.0609024 C712.91236,61.4388497 720.00048,61.4417905 724.370486,57.0717849 L761.975741,19.4665296 C764.208071,17.2341997 765.298787,14.2882555 765.246579,11.3571146 L765.246579,11.3571146 Z M636.629059,-25.8913891 L636.693621,-25.9559799 L623.077918,-39.440116 C621.031316,-41.645695 618.106121,-43.0274084 614.858176,-43.0274084 L561.74052,-43.0274084 C555.549168,-43.0274084 550.535031,-38.0174303 550.535031,-31.837309 L550.535031,21.3445531 C550.535031,24.6197465 551.946949,27.5692117 554.196702,29.6167975 L566.801912,42.1014782 C568.848558,44.7900024 572.084988,46.5276267 575.727305,46.5276267 L628.84496,46.5276267 C635.036312,46.5276267 640.050449,41.5176486 640.050449,35.3375273 L640.050449,-17.8443348 C640.050449,-21.001326 638.738605,-23.8556758 636.629059,-25.8913891 L636.629059,-25.8913891 Z M483.874013,-47.1012682 L483.873993,-47.1925931 L464.711512,-47.099561 C461.704767,-47.2119753 458.659322,-46.1205685 456.362678,-43.8239244 L418.802824,-6.26407027 C414.424877,-1.88612295 414.421936,5.20199695 418.791941,9.57200259 L456.397197,47.1772579 C458.713108,49.4931694 461.797072,50.5803794 464.83575,50.4374253 L482.576981,50.3521983 C485.925252,50.8060752 489.44244,49.7462589 492.017946,47.1707524 L529.577801,9.6108983 C533.955748,5.23295098 533.958689,-1.85516891 529.588683,-6.22517455 L491.983428,-43.8304299 C489.751098,-46.0627597 486.805154,-47.1534758 483.874013,-47.1012682 L483.874013,-47.1012682 Z M325.572787,-39.5862097 L325.508197,-39.6507719 L312.024061,-26.0350684 C309.818482,-23.9884673 308.436768,-21.0632715 308.436768,-17.8153264 L308.436768,35.3023288 C308.436768,41.4936813 313.446746,46.5078184 319.626868,46.5078184 L372.80873,46.5078184 C376.083923,46.5078184 379.033388,45.0959002 381.080974,42.8461469 L393.565655,30.240937 C396.254179,28.1942916 397.991803,24.9578608 397.991803,21.3155446 L397.991803,-31.8021105 C397.991803,-37.993463 392.981825,-43.0076001 386.801704,-43.0076001 L333.619842,-43.0076001 C330.462851,-43.0076001 327.608501,-41.6957557 325.572787,-39.5862097 L325.572787,-39.5862097 Z M183.337176,-8.01028652 L183.245851,-8.01026632 L183.338883,11.152214 C183.226469,14.1589595 184.317875,17.2044041 186.614519,19.5010482 L224.174374,57.0609024 C228.552321,61.4388497 235.640441,61.4417905 240.010446,57.0717849 L277.615702,19.4665296 C279.931613,17.1506181 281.018823,14.0666543 280.875869,11.0279767 L280.790642,-6.71325509 C281.244519,-10.0615256 280.184703,-13.5787137 277.609196,-16.1542202 L240.049342,-53.7140743 C235.671395,-58.0920216 228.583275,-58.0949625 224.213269,-53.7249569 L186.608014,-16.1197015 C184.375684,-13.8873717 183.284968,-10.9414274 183.337176,-8.01028652 L183.337176,-8.01028652 Z M69.519653,29.3149122 L69.4550908,29.379503 L83.0707943,42.8636391 C85.1173955,45.0692182 88.0425912,46.4509316 91.2905364,46.4509316 L144.408192,46.4509316 C150.599544,46.4509316 155.613681,41.4409534 155.613681,35.2608322 L155.613681,-17.9210299 C155.613681,-21.1962234 154.201763,-24.1456886 151.95201,-26.1932744 L139.3468,-38.677955 C137.300154,-41.3664793 134.063724,-43.1041035 130.421407,-43.1041035 L77.3037523,-43.1041035 C71.1123998,-43.1041035 66.0982626,-38.0941254 66.0982626,-31.9140042 L66.0982626,21.2678579 C66.0982626,24.4248491 67.4101071,27.279199 69.519653,29.3149122 L69.519653,29.3149122 Z M-19.9301565,50.4480962 L-19.9301363,50.5394212 L-0.767655917,50.446389 C2.2390895,50.5588033 5.28453419,49.4673965 7.58117825,47.1707524 L45.1410324,9.6108983 C49.5189797,5.23295098 49.5219206,-1.85516891 45.1519149,-6.22517455 L7.5466596,-43.8304299 C5.23074811,-46.1463414 2.14678435,-47.2335513 -0.891893273,-47.0905973 L-18.633125,-47.0053703 C-21.9813956,-47.4592471 -25.4985837,-46.3994309 -28.0740901,-43.8239244 L-65.6339443,-6.26407027 C-70.0118916,-1.88612295 -70.0148325,5.20199695 -65.6448268,9.57200259 L-28.0395715,47.1772579 C-25.8072416,49.4095878 -22.8612974,50.5003038 -19.9301565,50.4480962 L-19.9301565,50.4480962 Z M-103.580984,43.0097329 L-103.516393,43.0742951 L-90.0322573,29.4585916 C-87.8266783,27.4119905 -86.4449649,24.4867947 -86.4449649,21.2388495 L-86.4449649,-31.8788056 C-86.4449649,-38.0701581 -91.454943,-43.0842952 -97.6350643,-43.0842952 L-150.816926,-43.0842952 C-154.09212,-43.0842952 -157.041585,-41.6723771 -159.089171,-39.4226238 L-171.573851,-26.8174138 C-174.262376,-24.7707685 -176,-21.5343377 -176,-17.8920215 L-176,35.2256337 C-176,41.4169861 -170.990022,46.4311233 -164.809901,46.4311233 L-111.628039,46.4311233 C-108.471047,46.4311233 -105.616697,45.1192788 -103.580984,43.0097329 L-103.580984,43.0097329 Z M705.246579,111.357115 L705.337904,111.357094 L705.244872,92.194614 C705.357286,89.1878686 704.265879,86.1424239 701.969235,83.8457798 L664.409381,46.2859257 C660.031434,41.9079784 652.943314,41.9050375 648.573308,46.2750431 L610.968053,83.8802985 C608.652142,86.19621 607.564932,89.2801737 607.707886,92.3188513 L607.793113,110.060083 C607.339236,113.408354 608.399052,116.925542 610.974559,119.501048 L648.534413,157.060902 C652.91236,161.43885 660.00048,161.441791 664.370486,157.071785 L701.975741,119.46653 C704.208071,117.2342 705.298787,114.288255 705.246579,111.357115 L705.246579,111.357115 Z M576.629059,74.1086109 L576.693621,74.0440201 L563.077918,60.559884 C561.031316,58.354305 558.106121,56.9725916 554.858176,56.9725916 L501.74052,56.9725916 C495.549168,56.9725916 490.535031,61.9825697 490.535031,68.162691 L490.535031,121.344553 C490.535031,124.619747 491.946949,127.569212 494.196702,129.616798 L506.801912,142.101478 C508.848558,144.790002 512.084988,146.527627 515.727305,146.527627 L568.84496,146.527627 C575.036312,146.527627 580.050449,141.517649 580.050449,135.337527 L580.050449,82.1556652 C580.050449,78.998674 578.738605,76.1443242 576.629059,74.1086109 L576.629059,74.1086109 Z M423.874013,52.8987318 L423.873993,52.8074069 L404.711512,52.900439 C401.704767,52.7880247 398.659322,53.8794315 396.362678,56.1760756 L358.802824,93.7359297 C354.424877,98.113877 354.421936,105.201997 358.791941,109.572003 L396.397197,147.177258 C398.713108,149.493169 401.797072,150.580379 404.83575,150.437425 L422.576981,150.352198 C425.925252,150.806075 429.44244,149.746259 432.017946,147.170752 L469.577801,109.610898 C473.955748,105.232951 473.958689,98.1448311 469.588683,93.7748254 L431.983428,56.1695701 C429.751098,53.9372403 426.805154,52.8465242 423.874013,52.8987318 L423.874013,52.8987318 Z M265.572787,60.4137903 L265.508197,60.3492281 L252.024061,73.9649316 C249.818482,76.0115327 248.436768,78.9367285 248.436768,82.1846736 L248.436768,135.302329 C248.436768,141.493681 253.446746,146.507818 259.626868,146.507818 L312.80873,146.507818 C316.083923,146.507818 319.033388,145.0959 321.080974,142.846147 L333.565655,130.240937 C336.254179,128.194292 337.991803,124.957861 337.991803,121.315545 L337.991803,68.1978895 C337.991803,62.006537 332.981825,56.9923999 326.801704,56.9923999 L273.619842,56.9923999 C270.462851,56.9923999 267.608501,58.3042443 265.572787,60.4137903 L265.572787,60.4137903 Z M123.337176,91.9897135 L123.245851,91.9897337 L123.338883,111.152214 C123.226469,114.158959 124.317875,117.204404 126.614519,119.501048 L164.174374,157.060902 C168.552321,161.43885 175.640441,161.441791 180.010446,157.071785 L217.615702,119.46653 C219.931613,117.150618 221.018823,114.066654 220.875869,111.027977 L220.790642,93.2867449 C221.244519,89.9384744 220.184703,86.4212863 217.609196,83.8457798 L180.049342,46.2859257 C175.671395,41.9079784 168.583275,41.9050375 164.213269,46.2750431 L126.608014,83.8802985 C124.375684,86.1126283 123.284968,89.0585726 123.337176,91.9897135 L123.337176,91.9897135 Z M9.51965303,129.314912 L9.45509084,129.379503 L23.0707943,142.863639 C25.1173955,145.069218 28.0425912,146.450932 31.2905364,146.450932 L84.4081915,146.450932 C90.599544,146.450932 95.6136811,141.440953 95.6136811,135.260832 L95.6136811,82.0789701 C95.6136811,78.8037766 94.201763,75.8543114 91.9520097,73.8067256 L79.3467998,61.322045 C77.3001544,58.6335207 74.0637236,56.8958965 70.4214074,56.8958965 L17.3037523,56.8958965 C11.1123998,56.8958965 6.09826265,61.9058746 6.09826265,68.0859958 L6.09826265,121.267858 C6.09826265,124.424849 7.41010709,127.279199 9.51965303,129.314912 L9.51965303,129.314912 Z M-79.9301565,150.448096 L-79.9301363,150.539421 L-60.7676559,150.446389 C-57.7609105,150.558803 -54.7154658,149.467397 -52.4188217,147.170752 L-14.8589676,109.610898 C-10.4810203,105.232951 -10.4780794,98.1448311 -14.8480851,93.7748254 L-52.4533404,56.1695701 C-54.7692519,53.8536586 -57.8532157,52.7664487 -60.8918933,52.9094027 L-78.633125,52.9946297 C-81.9813956,52.5407529 -85.4985837,53.6005691 -88.0740901,56.1760756 L-125.633944,93.7359297 C-130.011892,98.113877 -130.014832,105.201997 -125.644827,109.572003 L-88.0395715,147.177258 C-85.8072416,149.409588 -82.8612974,150.500304 -79.9301565,150.448096 L-79.9301565,150.448096 Z M-163.580984,143.009733 L-163.516393,143.074295 L-150.032257,129.458592 C-147.826678,127.41199 -146.444965,124.486795 -146.444965,121.23885 L-146.444965,68.1211944 C-146.444965,61.9298419 -151.454943,56.9157048 -157.635064,56.9157048 L-210.816926,56.9157048 C-214.09212,56.9157048 -217.041585,58.3276229 -219.089171,60.5773762 L-231.573851,73.1825862 C-234.262376,75.2292315 -236,78.4656623 -236,82.1079785 L-236,135.225634 C-236,141.416986 -230.990022,146.431123 -224.809901,146.431123 L-171.628039,146.431123 C-168.471047,146.431123 -165.616697,145.119279 -163.580984,143.009733 L-163.580984,143.009733 Z M645.246579,211.357115 L645.337904,211.357094 L645.244872,192.194614 C645.357286,189.187869 644.265879,186.142424 641.969235,183.84578 L604.409381,146.285926 C600.031434,141.907978 592.943314,141.905038 588.573308,146.275043 L550.968053,183.880298 C548.652142,186.19621 547.564932,189.280174 547.707886,192.318851 L547.793113,210.060083 C547.339236,213.408354 548.399052,216.925542 550.974559,219.501048 L588.534413,257.060902 C592.91236,261.43885 600.00048,261.441791 604.370486,257.071785 L641.975741,219.46653 C644.208071,217.2342 645.298787,214.288255 645.246579,211.357115 L645.246579,211.357115 Z M516.629059,174.108611 L516.693621,174.04402 L503.077918,160.559884 C501.031316,158.354305 498.106121,156.972592 494.858176,156.972592 L441.74052,156.972592 C435.549168,156.972592 430.535031,161.98257 430.535031,168.162691 L430.535031,221.344553 C430.535031,224.619747 431.946949,227.569212 434.196702,229.616798 L446.801912,242.101478 C448.848558,244.790002 452.084988,246.527627 455.727305,246.527627 L508.84496,246.527627 C515.036312,246.527627 520.050449,241.517649 520.050449,235.337527 L520.050449,182.155665 C520.050449,178.998674 518.738605,176.144324 516.629059,174.108611 L516.629059,174.108611 Z M363.874013,152.898732 L363.873993,152.807407 L344.711512,152.900439 C341.704767,152.788025 338.659322,153.879432 336.362678,156.176076 L298.802824,193.73593 C294.424877,198.113877 294.421936,205.201997 298.791941,209.572003 L336.397197,247.177258 C338.713108,249.493169 341.797072,250.580379 344.83575,250.437425 L362.576981,250.352198 C365.925252,250.806075 369.44244,249.746259 372.017946,247.170752 L409.577801,209.610898 C413.955748,205.232951 413.958689,198.144831 409.588683,193.774825 L371.983428,156.16957 C369.751098,153.93724 366.805154,152.846524 363.874013,152.898732 L363.874013,152.898732 Z M205.572787,160.41379 L205.508197,160.349228 L192.024061,173.964932 C189.818482,176.011533 188.436768,178.936728 188.436768,182.184674 L188.436768,235.302329 C188.436768,241.493681 193.446746,246.507818 199.626868,246.507818 L252.80873,246.507818 C256.083923,246.507818 259.033388,245.0959 261.080974,242.846147 L273.565655,230.240937 C276.254179,228.194292 277.991803,224.957861 277.991803,221.315545 L277.991803,168.19789 C277.991803,162.006537 272.981825,156.9924 266.801704,156.9924 L213.619842,156.9924 C210.462851,156.9924 207.608501,158.304244 205.572787,160.41379 L205.572787,160.41379 Z M63.3371757,191.989713 L63.2458507,191.989734 L63.3388829,211.152214 C63.2264685,214.158959 64.3178754,217.204404 66.6145194,219.501048 L104.174374,257.060902 C108.552321,261.43885 115.640441,261.441791 120.010446,257.071785 L157.615702,219.46653 C159.931613,217.150618 161.018823,214.066654 160.875869,211.027977 L160.790642,193.286745 C161.244519,189.938474 160.184703,186.421286 157.609196,183.84578 L120.049342,146.285926 C115.671395,141.907978 108.583275,141.905038 104.213269,146.275043 L66.608014,183.880298 C64.3756841,186.112628 63.2849681,189.058573 63.3371757,191.989713 L63.3371757,191.989713 Z M-50.480347,229.314912 L-50.5449092,229.379503 L-36.9292057,242.863639 C-34.8826045,245.069218 -31.9574088,246.450932 -28.7094636,246.450932 L24.4081915,246.450932 C30.599544,246.450932 35.6136811,241.440953 35.6136811,235.260832 L35.6136811,182.07897 C35.6136811,178.803777 34.201763,175.854311 31.9520097,173.806726 L19.3467998,161.322045 C17.3001544,158.633521 14.0637236,156.895896 10.4214074,156.895896 L-42.6962477,156.895896 C-48.8876002,156.895896 -53.9017374,161.905875 -53.9017374,168.085996 L-53.9017374,221.267858 C-53.9017374,224.424849 -52.5898929,227.279199 -50.480347,229.314912 L-50.480347,229.314912 Z M-139.930156,250.448096 L-139.930136,250.539421 L-120.767656,250.446389 C-117.76091,250.558803 -114.715466,249.467397 -112.418822,247.170752 L-74.8589676,209.610898 C-70.4810203,205.232951 -70.4780794,198.144831 -74.8480851,193.774825 L-112.45334,156.16957 C-114.769252,153.853659 -117.853216,152.766449 -120.891893,152.909403 L-138.633125,152.99463 C-141.981396,152.540753 -145.498584,153.600569 -148.07409,156.176076 L-185.633944,193.73593 C-190.011892,198.113877 -190.014832,205.201997 -185.644827,209.572003 L-148.039571,247.177258 C-145.807242,249.409588 -142.861297,250.500304 -139.930156,250.448096 L-139.930156,250.448096 Z M-223.580984,243.009733 L-223.516393,243.074295 L-210.032257,229.458592 C-207.826678,227.41199 -206.444965,224.486795 -206.444965,221.23885 L-206.444965,168.121194 C-206.444965,161.929842 -211.454943,156.915705 -217.635064,156.915705 L-270.816926,156.915705 C-274.09212,156.915705 -277.041585,158.327623 -279.089171,160.577376 L-291.573851,173.182586 C-294.262376,175.229232 -296,178.465662 -296,182.107979 L-296,235.225634 C-296,241.416986 -290.990022,246.431123 -284.809901,246.431123 L-231.628039,246.431123 C-228.471047,246.431123 -225.616697,245.119279 -223.580984,243.009733 L-223.580984,243.009733 Z" id="path-2"></path>
        <mask id="mask-3" maskContentUnits="userSpaceOnUse" maskUnits="objectBoundingBox" x="0" y="0" width="2031.3379" height="317.346828" fill="white">
            <use xlink:href="#path-2"></use>
        </mask>
    </defs>
    <g id="Habitat-Web-Home" stroke="none" stroke-width="1" fill="none" fill-rule="evenodd" opacity="0.800000012">
        <g transform="translate(0.000000, -4868.000000)" id="Footer" stroke-width="2" stroke="url(#linearGradient-1)">
            <g transform="translate(0.000000, 4868.000000)">
                <g id="Background">
                    <use id="graphic-footer-mask" mask="url(#mask-3)" xlink:href="#path-2"></use>
                </g>
            </g>
        </g>
    </g>
</svg>