<?xml version="1.0" encoding="UTF-8" standalone="no"?>
<svg width="72px" height="72px" viewBox="0 0 72 72" version="1.1" xmlns="http://www.w3.org/2000/svg" xmlns:xlink="http://www.w3.org/1999/xlink">
    <!-- Generator: Sketch 3.8.3 (29802) - http://www.bohemiancoding.com/sketch -->
    <title>habitat-mark</title>
    <desc>Created with Sketch.</desc>
    <defs></defs>
    <g id="Habitat-Web-Home" stroke="none" stroke-width="1" fill="none" fill-rule="evenodd">
        <g id="Habitat-Web-Home-Mobile" transform="translate(-124.000000, -2753.000000)">
            <g id="Logo-bar" transform="translate(0.000000, 2621.000000)">
                <g id="Group-4" transform="translate(40.000000, 30.000000)">
                    <g id="Mark" transform="translate(84.000000, 102.000000)">
                        <path d="M30.0857542,68.5714286 L3.00519518,41.5666132 C-0.30797751,38.2632424 -0.30797751,32.9069021 3.00519518,29.6035313 L30.0857542,2.59871589 C33.3983904,-0.704654896 38.7697542,-0.704654896 42.0818538,2.59871589 L69.1629494,29.6035313 C72.4755855,32.9069021 72.4755855,38.2632424 69.1629494,41.5666132 L42.0818538,68.5714286 C38.7697542,71.8747994 33.3983904,71.8747994 30.0857542,68.5714286" id="Shape" fill="#87B09A"></path>
                        <path d="M56.8105831,35.0369181 L51.8314345,30.0716961 C51.3421044,29.5837346 50.5045558,29.929374 50.5045558,30.6201177 L50.5045558,32.3632959 C50.5045558,32.7913323 50.1568739,33.1385768 49.7276369,33.1385768 L47.0009092,33.1385768 C46.5716723,33.1385768 46.2239904,32.7913323 46.2239904,32.3632959 L46.2239904,28.8164794 C46.2239904,28.388443 46.5716723,28.0411985 47.0009092,28.0411985 L47.9189398,28.0411985 C48.6110843,28.0411985 48.9587663,27.2065276 48.4683631,26.718031 L43.4892145,21.752809 C43.1866024,21.4505083 42.694053,21.4505083 42.3903679,21.752809 L37.4112193,26.718031 C36.9213526,27.2065276 37.268498,28.0411985 37.9606426,28.0411985 L39.051441,28.0411985 C39.4806779,28.0411985 39.8278233,28.388443 39.8278233,28.8164794 L39.8278233,32.2953451 C39.8278233,32.7233815 39.4806779,33.070626 39.051441,33.070626 L33.0764627,33.070626 C32.6472257,33.070626 32.2995438,32.7233815 32.2995438,32.2953451 L32.2995438,28.8164794 C32.2995438,28.388443 32.6472257,28.0411985 33.0764627,28.0411985 L34.207502,28.0411985 C34.8996466,28.0411985 35.2473285,27.2065276 34.7569253,26.718031 L29.7777767,21.752809 C29.4740916,21.4505083 28.9820787,21.4505083 28.6783936,21.752809 L23.6997815,26.718031 C23.2099149,27.2065276 23.5565237,28.0411985 24.2492048,28.0411985 L25.1264578,28.0411985 C25.5556948,28.0411985 25.9039133,28.388443 25.9039133,28.8164794 L25.9039133,32.3632959 C25.9039133,32.7913323 25.5556948,33.1385768 25.1264578,33.1385768 L22.4405076,33.1385768 C22.0107341,33.1385768 21.6635888,32.7913323 21.6635888,32.3632959 L21.6635888,30.6201177 C21.6635888,29.929374 20.8255036,29.5837346 20.33671,30.0716961 L15.3575614,35.0369181 C15.0538763,35.3397539 15.0538763,35.8303906 15.3575614,36.1332263 L20.33671,41.0979133 C20.8255036,41.5864098 21.6635888,41.2407705 21.6635888,40.5500268 L21.6635888,38.8063135 C21.6635888,38.3782772 22.0107341,38.0315677 22.4405076,38.0315677 L25.1264578,38.0315677 C25.5556948,38.0315677 25.9039133,38.3782772 25.9039133,38.8063135 L25.9039133,42.3536651 C25.9039133,42.7817014 25.5556948,43.128946 25.1264578,43.128946 L24.2492048,43.128946 C23.5565237,43.128946 23.2093783,43.9636169 23.6997815,44.4515784 L28.6783936,49.4168004 C28.9815422,49.7196362 29.473555,49.7196362 29.7777767,49.4168004 L34.7569253,44.4515784 C35.246792,43.9636169 34.8996466,43.128946 34.207502,43.128946 L33.0764627,43.128946 C32.6472257,43.128946 32.2995438,42.7817014 32.2995438,42.3536651 L32.2995438,38.8598181 C32.2995438,38.4317817 32.6472257,38.0845372 33.0764627,38.0845372 L39.051441,38.0845372 C39.4806779,38.0845372 39.8278233,38.4317817 39.8278233,38.8598181 L39.8278233,42.3536651 C39.8278233,42.7817014 39.4806779,43.128946 39.051441,43.128946 L37.9606426,43.128946 C37.268498,43.128946 36.9208161,43.9636169 37.4112193,44.4515784 L42.3903679,49.4168004 C42.6935165,49.7196362 43.1860659,49.7196362 43.4892145,49.4168004 L48.4683631,44.4515784 C48.9582297,43.9636169 48.6110843,43.128946 47.9189398,43.128946 L47.0009092,43.128946 C46.5716723,43.128946 46.2239904,42.7817014 46.2239904,42.3536651 L46.2239904,38.8063135 C46.2239904,38.3782772 46.5716723,38.0315677 47.0009092,38.0315677 L49.7276369,38.0315677 C50.1568739,38.0315677 50.5045558,38.3782772 50.5045558,38.8063135 L50.5045558,40.5500268 C50.5045558,41.2407705 51.3421044,41.5864098 51.8314345,41.0979133 L56.8105831,36.1332263 C57.1142683,35.8303906 57.1142683,35.3397539 56.8105831,35.0369181" id="Shape" fill="#FFFFFF"></path>
                    </g>
                </g>
            </g>
        </g>
    </g>
</svg>