<?xml version="1.0" encoding="UTF-8"?>
<svg width="135px" height="80px" viewBox="0 0 135 80" version="1.1" xmlns="http://www.w3.org/2000/svg" xmlns:xlink="http://www.w3.org/1999/xlink">
    <!-- Generator: sketchtool 49.2 (51160) - http://www.bohemiancoding.com/sketch -->
    <title>A4BF3789-5E70-4381-A9E1-E78CD92F4F0A</title>
    <desc>Created with sketchtool.</desc>
    <defs>
        <path d="M0.639876107,16.8908644 C10.9471092,17.0897121 15.7376381,11.2556727 18.930933,3.78803181 C22.1242278,-3.67960904 30.6347927,0.943746955 26.9880781,8.5779741 C23.3413635,16.2122012 14.208232,26.4566712 0.639876107,26.2924312 C0.639876107,16.8908644 0.639876107,23.9396932 0.639876107,16.8908644 Z" id="path-1"></path>
    </defs>
    <g id="Symbols" stroke="none" stroke-width="1" fill="none" fill-rule="evenodd">
        <g id="hero/home" transform="translate(-1073.000000, -1.000000)">
            <g transform="translate(600.000000, 0.000000)" id="habicat-video">
                <g transform="translate(471.000000, 0.000000)">
                    <path d="M11.8672498,58.8505422 C9.20929642,58.8505422 7.05601777,56.7042226 7.05601777,54.0548593 L7.05601777,36.3309545 L16.6784817,44.2354459 L16.6784817,54.0548593 C16.6784817,56.7042226 14.5252031,58.8505422 11.8672498,58.8505422 Z" id="Shape-Copy-3" fill="#DDC7AE" fill-rule="nonzero" transform="translate(11.867250, 47.590748) rotate(-220.000000) translate(-11.867250, -47.590748) "></path>
                    <path d="M20,11 L103,11 C106.313708,11 109,13.6862915 109,17 L109,53 L14,53 L14,17 C14,13.6862915 16.6862915,11 20,11 Z" id="Rectangle-6" fill="#DDC7AE"></path>
                    <path d="M96.9830925,66.6592768 C94.3251391,66.6592768 92.1718605,64.5129572 92.1718605,61.8635939 L92.1718605,44.1396891 L101.794324,44.1396891 L101.794324,61.8635939 C101.794324,64.5129572 99.6410458,66.6592768 96.9830925,66.6592768 Z" id="Shape-Copy-6" fill="#DDC7AE" fill-rule="nonzero" transform="translate(96.983092, 55.399483) scale(-1, -1) rotate(-125.000000) translate(-96.983092, -55.399483) "></path>
                    <path d="M18,15 L87,15 C89.209139,15 91,16.790861 91,19 L91,53 L14,53 L14,19 C14,16.790861 15.790861,15 18,15 Z" id="Rectangle-6-Copy" fill="#FFE9D1"></path>
                    <path d="M50.5534048,41.9294932 L54.0031689,41.9294932 C60.117241,41.9294932 65.0736757,46.8859279 65.0736757,53 L39.482898,53 L39.482898,53 C39.482898,46.8859279 44.4393327,41.9294932 50.5534048,41.9294932 Z" id="Rectangle-Copy-9" fill="#FFFFFF"></path>
                    <ellipse id="Oval-Copy" fill="#837365" fill-rule="nonzero" cx="34.4700757" cy="33.8101665" rx="2.0691662" ry="2.06247899"></ellipse>
                    <ellipse id="Oval-Copy-2" fill="#837365" fill-rule="nonzero" cx="70.5090243" cy="33.8101665" rx="2.0691662" ry="2.06247899"></ellipse>
                    <path d="M56.896543,42.7779622 L55.7440957,43.7085218 C54.0154247,45.1486738 50.9102195,45.3259232 48.8294119,44.1294893 C48.6053249,43.9965522 48.4132504,43.8636151 48.2211758,43.7085218 L47.0687285,42.7779622 C46.6845794,42.4677756 46.7486043,42.0024957 47.1967782,41.7366215 C47.3888528,41.6258406 47.6449522,41.5593721 47.9010516,41.5593721 L56.06422,41.5593721 C56.672456,41.5593721 57.1526424,41.8917148 57.1526424,42.3126823 C57.1526424,42.4677756 57.0566051,42.6450251 56.896543,42.7779622 Z" id="Shape-Copy-4" fill="#837365" fill-rule="nonzero"></path>
                    <path d="M16.7840318,43.7606704 L20.3879267,43.7606704" id="Line-6" stroke="#827365" stroke-linecap="round" stroke-linejoin="round"></path>
                    <path d="M84.2842333,44.2006649 L87.8881281,44.2006649" id="Line-6-Copy-3" stroke="#827365" stroke-linecap="round" stroke-linejoin="round"></path>
                    <path d="M16.7840318,38.9554772 L20.3879267,38.9554772" id="Line-6-Copy" stroke="#827365" stroke-linecap="round" stroke-linejoin="round"></path>
                    <path d="M84.2842333,38.7948227 L87.8881281,38.7948227" id="Line-6-Copy-4" stroke="#827365" stroke-linecap="round" stroke-linejoin="round"></path>
                    <path d="M16.7840318,49.7671618 L20.3879267,49.7671618" id="Line-6-Copy-2" stroke="#827365" stroke-linecap="round" stroke-linejoin="round"></path>
                    <path d="M84.2842333,49.6065072 L87.8881281,49.6065072" id="Line-6-Copy-5" stroke="#827365" stroke-linecap="round" stroke-linejoin="round"></path>
                    <g id="ear" transform="translate(61.232068, 0.736701)">
                        <path d="M11.8782021,2.30207728 L17.7116829,12.5106686 L0.835262525,12.5106686 L6.6687433,2.30207728 C7.4907732,0.863524942 9.3233372,0.363734762 10.7618895,1.18576467 C11.2269834,1.45153257 11.6124342,1.83698345 11.8782021,2.30207728 Z" id="Triangle-Copy-4" fill="#DDC7AE"></path>
                        <path d="M10.1417159,8.43263431 L12.4720212,12.5106686 L6.07492426,12.5106686 L8.40522958,8.43263431 C8.67923955,7.95311687 9.29009421,7.78652014 9.76961166,8.06053011 C9.92464294,8.14911941 10.0531266,8.27760304 10.1417159,8.43263431 Z" id="Triangle-Copy-5" fill="#827365"></path>
                    </g>
                    <g id="ear" transform="translate(26.394418, 0.736701)">
                        <path d="M11.8782021,2.30207728 L17.7116829,12.5106686 L0.835262525,12.5106686 L6.6687433,2.30207728 C7.4907732,0.863524942 9.3233372,0.363734762 10.7618895,1.18576467 C11.2269834,1.45153257 11.6124342,1.83698345 11.8782021,2.30207728 Z" id="Triangle-Copy-4" fill="#DDC7AE"></path>
                        <path d="M10.1417159,8.43263431 L12.4720212,12.5106686 L6.07492426,12.5106686 L8.40522958,8.43263431 C8.67923955,7.95311687 9.29009421,7.78652014 9.76961166,8.06053011 C9.92464294,8.14911941 10.0531266,8.27760304 10.1417159,8.43263431 Z" id="Triangle-Copy-5" fill="#827365"></path>
                    </g>
                    <g id="tail" transform="translate(109.000000, 54.000000)" fill="#DDC7AE">
                        <path d="M0,17.4632193 C10.3072331,17.662067 15.097762,11.8280276 18.2910569,4.36038674 C21.4843517,-3.10725411 29.9949166,1.51610189 26.348202,9.15032903 C22.7014874,16.7845562 13.5683559,27.0290262 0,26.8647862 C0,17.4632193 0,24.5120482 0,17.4632193 Z" id="Path-2"></path>
                    </g>
                    <g id="Rectangle-3-Copy-2" transform="translate(108.082702, 54.572355)">
                        <mask id="mask-2" fill="white">
                            <use xlink:href="#path-1"></use>
                        </mask>
                        <use id="Mask" fill="#DDC7AE" xlink:href="#path-1"></use>
                        <rect fill-opacity="0.1" fill="#000000" mask="url(#mask-2)" transform="translate(2.702355, 21.363455) rotate(-90.000000) translate(-2.702355, -21.363455) " x="-2.37482941" y="19.3009765" width="10.154369" height="4.12495799"></rect>
                    </g>
                </g>
            </g>
        </g>
    </g>
</svg>