<?xml version="1.0" encoding="utf-8"?>
<!-- Generator: Adobe Illustrator 22.1.0, SVG Export Plug-In . SVG Version: 6.00 Build 0)  -->
<svg version="1.1" id="Layer_1" xmlns="http://www.w3.org/2000/svg" xmlns:xlink="http://www.w3.org/1999/xlink" x="0px" y="0px"
	 viewBox="0 0 205.8 58" style="enable-background:new 0 0 205.8 58;" xml:space="preserve">
<style type="text/css">
	.st0{fill:#FFFFFF;}
	.st1{fill:#80C4D6;}
	.st2{fill:#4296B4;}
	.st3{fill:#EB6852;}
	.st4{fill:#D35A4A;}
	.st5{fill:#FEC95B;}
	.st6{fill:#E2AD50;}
	.st7{fill:#978577;}
	.st8{fill:#807265;}
	.st9{fill:#6E8E7C;}
	.st10{fill:#87AF9A;}
</style>
<title>Asset 1</title>
<g id="Layer_2_1_">
	<g id="Layer_1-2">
		<path class="st0" d="M60.6,53.6c-4,0.2-7.4-2.9-7.6-6.8c0-0.2,0-0.4,0-0.6c-0.2-4,2.9-7.4,6.9-7.5c0.2,0,0.4,0,0.6,0
			c4.3,0,7.5,3,7.5,7.1c0.1,2.1-0.6,4.2-2,5.8C64.6,52.9,62.6,53.7,60.6,53.6L60.6,53.6z M68.2,37.4c-2.3-1.9-5.2-2.8-8.2-2.5
			c-2.2,0.2-4.3,1-6,2.5c-0.3,0.2-0.6,0.2-0.9-0.1c-0.1-0.1-0.1-0.2-0.1-0.4v-9.7c0-0.3-0.3-0.6-0.6-0.6l0,0h-2.6
			c-0.3,0-0.6,0.2-0.6,0.5v0.3c0,0.2,0,0.4,0,0.6v17.7c0,0.9,0.1,1.9,0.2,2.8c1.2,5.6,5.3,8.8,11.3,8.8H61c4.6,0.1,8.7-2.7,10.3-7
			C73.1,45.8,71.9,40.7,68.2,37.4"/>
		<path class="st0" d="M42.3,46c0.2,4-2.9,7.4-6.9,7.6h-0.7c-3.9,0.2-7.3-2.8-7.5-6.8c0-0.2,0-0.4,0-0.6c0-4.5,3-7.6,7.5-7.6l0,0
			c4-0.1,7.4,3,7.5,7c0,0,0,0,0,0l0,0L42.3,46 M43.8,38.9c-3.3-4.1-9.7-5.3-14.7-2.8c-4.7,2.4-7,7.8-5.6,12.9c0.8,4,3.8,7.1,7.7,8
			c1.1,0.3,2.2,0.4,3.3,0.4c2.7,0,5.4-1.1,7.2-3.1c0.2-0.3,0.5-0.5,0.7-0.8v2.7c0,0.3,0.3,0.6,0.6,0.6l0,0h2.4
			c0.3,0,0.6-0.3,0.6-0.6l0,0l0,0v-3.5c0-2.8,0-5.6-0.1-8.4C45.9,42.4,45.1,40.5,43.8,38.9"/>
		<path class="st0" d="M146.9,46c0.2,4-2.9,7.4-6.9,7.6h-0.6c-3.9,0.2-7.3-2.8-7.5-6.8c0-0.2,0-0.4,0-0.6c0-4.5,3-7.6,7.5-7.6l0,0
			c4-0.1,7.4,3,7.5,7c0,0,0,0,0,0l0,0L146.9,46 M148.5,38.9c-3.3-4.1-9.6-5.3-14.7-2.8c-4.6,2.5-7,7.8-5.6,12.9c0.8,4,3.8,7.1,7.8,8
			c1.1,0.3,2.2,0.4,3.3,0.4c2.7,0,5.4-1.1,7.2-3.1c0.2-0.3,0.5-0.5,0.7-0.8v2.7c0,0.3,0.3,0.6,0.6,0.6l0,0h2.4
			c0.3,0,0.6-0.3,0.6-0.6l0,0l0,0v-3.5c0-2.8,0-5.6-0.1-8.4C150.6,42.3,149.8,40.4,148.5,38.9"/>
		<path class="st0" d="M12.9,35c-3.3-0.5-6,0.1-8,1.9c-0.3,0.2-0.6,0.2-0.9-0.1c-0.1-0.1-0.1-0.2-0.1-0.4v-9.2
			c0-0.3-0.3-0.6-0.6-0.6c0,0,0,0,0,0H0.6c-0.3,0-0.6,0.3-0.6,0.6c0,0,0,0,0,0l0,0v29c0,0.3,0.3,0.6,0.6,0.6c0,0,0,0,0,0h2.7
			c0.3,0,0.6-0.3,0.6-0.6l0,0l0,0V45.5c-0.1-1.9,0.6-3.8,2-5.2c1.5-1.3,3.5-1.9,5.4-1.6c3.4,0.2,5.6,2.3,5.8,5.6
			c0.1,2.4,0.1,5,0.1,7.4v4.6c0,0.3,0.3,0.6,0.6,0.6c0,0,0,0,0,0h2.6c0.3,0,0.6-0.3,0.6-0.6l0,0l0,0V44.7C21,39.5,18,35.9,12.9,35"
			/>
		<path class="st0" d="M125.4,47.8h-3c-0.3,0-0.6,0.2-0.6,0.6v0.4c0,0.3-0.1,0.6-0.1,0.9c0,2.2-1.8,3.9-3.9,3.9c-0.1,0-0.1,0-0.2,0
			c-1.7,0.1-4.6-0.2-4.8-3.3c-0.2-2.6-0.2-5.3-0.2-7.9v-2.6c0-0.3,0.3-0.6,0.6-0.6h7.7c0.3,0,0.6-0.3,0.6-0.6c0-0.2-0.1-0.3-0.2-0.5
			l-2.9-2.5c-0.1-0.1-0.3-0.1-0.4-0.2h-4.8c-0.3,0-0.6-0.3-0.6-0.6l0,0l0,0v-4.1c0-0.3-0.3-0.6-0.6-0.6l0,0h-2.5
			c-0.3,0-0.6,0.3-0.6,0.6c0,0,0,0,0,0l0,0v1.2c0,0.1-0.1,11.6,0,18.7c0.1,1.8,1,3.6,2.4,4.7c1.7,1.4,3.8,2.1,5.9,2
			c0.5,0,1,0,1.5-0.1c2.2-0.2,4.2-1.4,5.6-3.2c1.3-1.7,1.8-3.8,1.3-5.9L125.4,47.8z"/>
		<path class="st0" d="M169.9,48.3l-0.1-0.5h-3.1c-0.3,0-0.6,0.2-0.6,0.6v0.5c0,0.3,0,0.5-0.1,0.8c0,2.2-1.7,4-3.8,4
			c-0.1,0-0.1,0-0.2,0c-1.7,0.1-4.7-0.2-4.9-3.3c-0.2-2.7-0.2-5.5-0.2-8.1v-2.4c0-0.3,0.3-0.6,0.6-0.6h7.5c0.3,0,0.6-0.3,0.6-0.6
			c0-0.2-0.1-0.4-0.2-0.5l-3.2-2.5c-0.1-0.1-0.2-0.1-0.4-0.1h-4.4c-0.3,0-0.6-0.3-0.6-0.6l0,0l0,0v-3.9c0-0.3-0.3-0.6-0.6-0.6l0,0
			h-2.6c-0.3,0-0.6,0.3-0.6,0.6c0,0,0,0,0,0l0,0v1.2c0,0.1-0.1,11.4,0.1,18.5c0.2,3.2,2.5,5.9,5.7,6.5c1,0.2,2,0.3,3,0.3h0.5
			c2.2,0,4.4-1,5.8-2.7C169.7,52.9,170.4,50.6,169.9,48.3"/>
		<path class="st1" d="M101.7,46.5v-1.6c-0.2-1-1.1-1.7-2.1-1.6H80.2c-1-0.1-1.9,0.6-2.1,1.6v1.6"/>
		<path class="st2" d="M83.3,43.2h-3.1c-1-0.1-1.9,0.6-2.1,1.6v1.6h3.1v-1.6C81.4,43.8,82.3,43.1,83.3,43.2z"/>
		<path class="st3" d="M104.7,55.6V48c-0.2-1-1.1-1.7-2.1-1.6H77.2c-1-0.1-1.9,0.6-2.1,1.6v7.6"/>
		<path class="st4" d="M80.8,46.4h-3.7c-1-0.1-1.9,0.6-2.1,1.6v7.6h3.7V48C78.9,47,79.8,46.3,80.8,46.4z"/>
		<path class="st5" d="M104.7,48v2.2c-1.8,1.2-4.1,1.2-5.9,0c-1.8,1.2-4.1,1.2-5.9,0c-1.8,1.2-4.1,1.2-5.9,0c-1.8,1.2-4.1,1.2-5.9,0
			c-0.7,0.5-1.4,0.8-2.2,0.9c-1.3,0.2-2.6-0.1-3.7-0.9V48c0.2-1,1.1-1.7,2.1-1.6h25.5C103.6,46.3,104.6,47,104.7,48z"/>
		<path class="st6" d="M80.8,46.4c-1-0.1-1.9,0.6-2.1,1.6v3c-1.3,0.2-2.6-0.1-3.7-0.9V48c0.2-1,1.1-1.7,2.1-1.6H80.8z"/>
		<path class="st7" d="M105.6,55.5H74.2V57c0,0.6,0.4,1,1,1h29.5c0.6,0,1-0.4,1-1L105.6,55.5L105.6,55.5z"/>
		<path class="st8" d="M77.6,55.5h-3.4V57c0,0.6,0.4,1,1,1h2.4V55.5z"/>
		<circle class="st3" cx="78" cy="48.2" r="0.6"/>
		<circle class="st3" cx="84" cy="48.2" r="0.6"/>
		<circle class="st3" cx="89.9" cy="48.2" r="0.6"/>
		<circle class="st3" cx="95.9" cy="48.2" r="0.6"/>
		<circle class="st3" cx="101.8" cy="48.2" r="0.6"/>
		<path class="st5" d="M88,22.6c0-1.3,0.7-2.6,1.9-3.3c1.1,0.7,1.9,2,1.9,3.3c0.4,1-0.2,2.2-1.2,2.5c-1,0.4-2.2-0.2-2.5-1.2
			C87.9,23.5,87.9,23,88,22.6z"/>
		<path class="st6" d="M89.9,24.2c-0.2,0-0.3,0.2-0.3,0.4v1.9h0.7v-1.9C90.3,24.4,90.1,24.2,89.9,24.2
			C89.9,24.2,89.9,24.2,89.9,24.2z"/>
		<path class="st3" d="M92.6,41c-0.4,0-0.7-0.3-0.7-0.7v-14h-4c0,1-0.8,1.8-1.8,1.8l0,0v2.3h1.8v9.8c0,0.4-0.3,0.7-0.7,0.7h-1.1v2.3
			h7.6V41H92.6z"/>
		<path class="st9" d="M185.2,49.3c-0.1,0.4-0.2,0.7-0.4,1.1c-0.1,0.2-0.2,0.3-0.2,0.5c-0.1,0.2-0.4,0.2-0.6,0.1
			c-0.2-0.1-0.2-0.4-0.1-0.6l0,0c0.2-0.4,0.4-0.8,0.5-1.3c0.3-0.8,0.1-1.6-0.5-2.2c-0.8-0.8-1-1.9-0.7-3c0.1-0.3,0.2-0.6,0.3-0.9
			h0.9c-0.2,0.4-0.3,0.7-0.4,1.1c-0.3,0.8-0.1,1.6,0.5,2.2C185.3,47.1,185.5,48.3,185.2,49.3z"/>
		<path class="st9" d="M181.4,43.5h1.1l1.1-3.8C183.6,39.8,181.4,41.7,181.4,43.5z"/>
		<path class="st10" d="M183.6,39.8c0,0,2.2,1.9,2.2,3.8h-3.4C182.6,42.2,183,40.9,183.6,39.8z"/>
		<path class="st9" d="M161.6,11.8c0,16.4,21.8,28.3,22.1,28.5L174.4,0c-0.3,0-0.7,0-1,0C166.9,0,161.6,5.2,161.6,11.8
			C161.6,11.8,161.6,11.8,161.6,11.8z"/>
		<path class="st10" d="M183.6,6.1c3.1-5.7,10.3-7.8,16-4.6c3.8,2.1,6.1,6,6.1,10.3c0,16.5-22.1,28.5-22.1,28.5
			c-0.3-0.2-18.1-12.1-18.1-28.5c0-6.2,3.9-11.2,8.8-11.7C178.3,0.4,181.8,2.7,183.6,6.1z"/>
	</g>
</g>
</svg>
