<?xml version="1.0" encoding="utf-8"?>
<!-- Generator: Adobe Illustrator 21.0.0, SVG Export Plug-In . SVG Version: 6.00 Build 0)  -->
<svg version="1.1" id="Layer_1" xmlns="http://www.w3.org/2000/svg" xmlns:xlink="http://www.w3.org/1999/xlink" x="0px" y="0px"
	 viewBox="0 0 161.2 57.5" style="enable-background:new 0 0 161.2 57.5;" xml:space="preserve">
<style type="text/css">
	.st0{fill:#FFFFFF;}
	.st1{fill:#87B09A;}
</style>
<title>HabitatLogoAsset 11</title>
<g id="Layer_2">
	<g id="Layer_1-2">
		<path class="st0" d="M53.3,54.2c-3.5,0.2-6.5-2.5-6.7-6c0-0.2,0-0.4,0-0.5c-0.2-3.5,2.6-6.5,6.1-6.6c0.2,0,0.4,0,0.6,0
			c3.5-0.2,6.4,2.4,6.6,5.9c0,0.1,0,0.3,0,0.4c0.1,1.9-0.6,3.7-1.8,5.1C56.8,53.6,55.1,54.2,53.3,54.2L53.3,54.2z M60.1,39.9
			c-2-1.7-4.6-2.5-7.3-2.2c-2,0.2-3.8,0.9-5.3,2.2c-0.2,0.2-0.6,0.2-0.8,0c-0.1-0.1-0.1-0.2-0.1-0.3v-8.6c0-0.3-0.2-0.5-0.5-0.5l0,0
			h-2.2c-0.3,0-0.5,0.2-0.5,0.5c0,0.1,0,0.2,0,0.3c0,0.2,0,0.4,0,0.5v2c0,4.4,0,9,0,13.5c0,0.8,0.1,1.7,0.2,2.5
			c1.1,4.9,4.7,7.7,10,7.7h0.3c4,0.1,7.7-2.4,9.1-6.2C64.4,47.3,63.3,42.7,60.1,39.9"/>
		<path class="st0" d="M37.3,47.5c0.2,3.5-2.5,6.5-6,6.7c-0.2,0-0.4,0-0.5,0l0,0c-3.5,0.2-6.4-2.4-6.7-5.9c0-0.2,0-0.4,0-0.6
			c-0.2-3.5,2.4-6.5,5.9-6.7c0.2,0,0.5,0,0.7,0l0,0c3.5-0.1,6.5,2.6,6.6,6.1C37.2,47.3,37.2,47.4,37.3,47.5 M38.6,41.3
			c-3.2-3.7-8.6-4.7-12.9-2.5c-4.1,2.2-6.1,6.9-4.9,11.4c0.7,3.5,3.4,6.2,6.8,7c1,0.3,1.9,0.4,2.9,0.4c2.4,0,4.7-1,6.4-2.8
			c0.2-0.2,0.4-0.5,0.6-0.7v2.4c0,0.3,0.3,0.5,0.5,0.5c0,0,0,0,0,0h2.1c0.3,0,0.5-0.2,0.5-0.5l0,0l0,0c0-1,0-2.1,0-3.1
			c0-2.4,0-4.9,0-7.4C40.4,44.2,39.7,42.6,38.6,41.3"/>
		<path class="st0" d="M106.2,47.5c0.2,3.5-2.5,6.5-6,6.7c-0.2,0-0.4,0-0.5,0l0,0c-3.5,0.2-6.4-2.4-6.6-5.9c0-0.2,0-0.4,0-0.6
			c-0.2-3.5,2.4-6.5,5.9-6.7c0.2,0,0.5,0,0.7,0l0,0c3.5-0.1,6.5,2.6,6.6,6.1C106.2,47.3,106.2,47.4,106.2,47.5 M107.5,41.3
			c-3.2-3.7-8.6-4.7-12.9-2.5c-4.1,2.2-6.1,6.9-4.9,11.4c0.7,3.5,3.4,6.2,6.8,7c1,0.3,1.9,0.4,2.9,0.4c2.4,0,4.7-1,6.4-2.8
			c0.2-0.2,0.4-0.5,0.6-0.7v2.4c0,0.3,0.2,0.5,0.5,0.5c0,0,0,0,0.1,0h2.1c0.3,0,0.5-0.2,0.5-0.5l0,0l0,0c0-1,0-2.1,0-3.1
			c0-2.4,0-4.9-0.1-7.4C109.4,44.2,108.7,42.6,107.5,41.3"/>
		<path class="st0" d="M11.4,37.8c-2.5-0.6-5.1,0-7.1,1.7c-0.2,0.2-0.6,0.2-0.8-0.1c-0.1-0.1-0.1-0.2-0.1-0.3v-8.2
			c0-0.3-0.2-0.5-0.5-0.5c0,0,0,0,0,0H0.5c-0.3,0-0.5,0.2-0.5,0.5c0,0,0,0,0,0v25.6C0,56.8,0.2,57,0.5,57h2.4c0.3,0,0.5-0.2,0.5-0.5
			c0,0,0,0,0,0c0-0.9,0-2.8,0-3.6c0-1.9,0-3.8,0-5.8c-0.1-1.7,0.5-3.4,1.7-4.6c1.3-1.1,3.1-1.7,4.8-1.4c2.7,0,5,2.2,5,4.9
			c0.1,2.2,0.1,4.4,0.1,6.5c0,0.9,0,1.9,0,2.8c0,0.3,0,0.5,0,0.8v0.4c0,0.3,0.2,0.5,0.5,0.5h0H18c0.3,0,0.5-0.2,0.5-0.5l0,0
			c0-1.1,0-2.1,0-3.1c0-2.3,0-4.7,0-7C18.5,41.7,15.8,38.5,11.4,37.8"/>
		<path class="st0" d="M87.3,49h-2.6c-0.3,0-0.5,0.2-0.5,0.5v0.4c0,0.3,0,0.5-0.1,0.8c0,1.9-1.5,3.5-3.4,3.5c0,0-0.1,0-0.1,0
			c-1.5,0.1-4-0.2-4.3-2.9c-0.2-2.3-0.2-4.7-0.2-7c0-0.8,0-1.5,0-2.3c0-0.3,0.2-0.5,0.5-0.5c0,0,0,0,0,0h6.8c0.3,0,0.5-0.3,0.5-0.6
			c0-0.1-0.1-0.3-0.2-0.4l-2.6-2.2C81,38.1,80.9,38,80.8,38h-4.3c-0.3,0-0.5-0.2-0.5-0.5l0,0V34c0-0.3-0.2-0.5-0.5-0.5l0,0h-2.2
			c-0.3,0-0.5,0.2-0.5,0.5l0,0v1c0,0.1-0.1,10.2,0,16.5c0.1,1.6,0.8,3.1,2.1,4.2c1.5,1.3,3.3,1.9,5.3,1.8c0.4,0,0.9,0,1.3-0.1
			c2-0.2,3.8-1.2,4.9-2.8c1.1-1.5,1.5-3.4,1.2-5.2L87.3,49z"/>
		<path class="st0" d="M126.5,49.5l-0.1-0.5h-2.7c-0.3,0-0.5,0.2-0.5,0.5V50c0,0.2,0,0.5,0,0.7c0,1.9-1.5,3.5-3.4,3.5
			c0,0-0.1,0-0.1,0c-1.5,0.1-4.1-0.2-4.3-3c-0.2-2.4-0.2-4.8-0.2-7.1c0-0.7,0-1.4,0-2.1c0-0.3,0.2-0.5,0.5-0.5c0,0,0,0,0,0h6.6
			c0.3,0,0.6-0.2,0.6-0.5c0-0.2-0.1-0.4-0.3-0.5l-2.8-2.2c-0.1-0.1-0.2-0.1-0.3-0.1h-3.9c-0.3,0-0.5-0.2-0.5-0.5l0,0v-3.4
			c0-0.3-0.2-0.5-0.5-0.5l0,0h-2.3c-0.3,0-0.5,0.2-0.5,0.5l0,0v1.1c0,0.1,0,10.1,0.1,16.3c0.2,2.8,2.2,5.2,5,5.7
			c0.9,0.2,1.8,0.3,2.7,0.2h0.5c2,0,3.8-0.9,5.1-2.4C126.3,53.5,126.9,51.5,126.5,49.5"/>
		<path class="st0" d="M66.5,57h2.3c0.3,0,0.5-0.2,0.5-0.5l0,0V38.7c0-0.3-0.2-0.5-0.5-0.5h-2.3c-0.3,0-0.5,0.2-0.5,0.5c0,0,0,0,0,0
			v17.7C66,56.7,66.2,57,66.5,57L66.5,57"/>
		<path class="st0" d="M66.5,35.8h2.3c0.3,0,0.5-0.2,0.5-0.5l0,0V33c0-0.3-0.2-0.5-0.5-0.5l0,0h-2.3c-0.3,0-0.5,0.2-0.5,0.5l0,0v2.3
			C66,35.6,66.2,35.8,66.5,35.8L66.5,35.8"/>
		<path class="st1" d="M159.7,17.9L143.4,1.5c-2-2-5.3-2-7.3,0c0,0,0,0,0,0l-16.4,16.4c-2,2-2,5.3,0,7.3c0,0,0,0,0,0l16.4,16.4
			c2,2,5.3,2,7.3,0c0,0,0,0,0,0l16.4-16.4C161.7,23.2,161.7,19.9,159.7,17.9C159.7,17.9,159.7,17.9,159.7,17.9z M152.3,21.9l-3,3
			c-0.2,0.2-0.5,0.2-0.7,0c-0.1-0.1-0.1-0.2-0.1-0.3v-1.1c0-0.3-0.2-0.5-0.5-0.5h-1.6c-0.3,0-0.5,0.2-0.5,0.5l0,0v2.1
			c0,0.3,0.2,0.5,0.5,0.5l0,0h0.6c0.3,0,0.5,0.2,0.5,0.5c0,0.1,0,0.2-0.1,0.3l-3,3c-0.2,0.2-0.5,0.2-0.7,0l-3-3
			c-0.2-0.2-0.2-0.5,0-0.7c0.1-0.1,0.2-0.1,0.3-0.1h0.7c0.3,0,0.5-0.2,0.5-0.5l0,0v-2.1c0-0.3-0.2-0.5-0.5-0.5l0,0h-3.7
			c-0.3,0-0.5,0.2-0.5,0.5l0,0v2.1c0,0.3,0.2,0.5,0.5,0.5l0,0h0.7c0.3,0,0.5,0.2,0.5,0.5c0,0.1,0,0.2-0.1,0.3l-3,3
			c-0.2,0.2-0.5,0.2-0.7,0l-3-3c-0.2-0.2-0.2-0.5,0-0.7c0.1-0.1,0.2-0.1,0.3-0.1h0.5c0.3,0,0.5-0.2,0.5-0.5l0,0v-2.1
			c0-0.3-0.2-0.5-0.5-0.5l0,0h-1.6c-0.3,0-0.5,0.2-0.5,0.5l0,0v1.1c0,0.3-0.2,0.5-0.5,0.5c-0.1,0-0.2,0-0.3-0.1l-3-3
			c-0.2-0.2-0.2-0.5,0-0.7l3-3c0.2-0.2,0.5-0.2,0.7,0c0.1,0.1,0.1,0.2,0.1,0.3v1.1c0,0.3,0.2,0.5,0.5,0.5l0,0h1.6
			c0.3,0,0.5-0.2,0.5-0.5l0,0v-2.2c0-0.3-0.2-0.5-0.5-0.5l0,0h-0.5c-0.3,0-0.5-0.2-0.5-0.5c0-0.1,0-0.2,0.1-0.3l3-3
			c0.2-0.2,0.5-0.2,0.7,0l3,3c0.2,0.2,0.2,0.5,0,0.7c-0.1,0.1-0.2,0.1-0.3,0.1h-0.7c-0.3,0-0.5,0.2-0.5,0.5l0,0v2.1
			c0,0.3,0.2,0.5,0.5,0.5l0,0h3.6c0.3,0,0.5-0.2,0.5-0.5l0,0v-2.1c0-0.3-0.2-0.5-0.5-0.5l0,0h-0.7c-0.3,0-0.5-0.2-0.5-0.5
			c0-0.1,0-0.2,0.1-0.3l3-3c0.2-0.2,0.5-0.2,0.7,0l3,3c0.2,0.2,0.2,0.5,0,0.7c-0.1,0.1-0.2,0.1-0.3,0.1h-0.6c-0.3,0-0.5,0.2-0.5,0.5
			l0,0v2.1c0,0.3,0.2,0.5,0.5,0.5l0,0h1.7c0.3,0,0.5-0.2,0.5-0.5l0,0v-1.1c0-0.3,0.2-0.5,0.5-0.5c0.1,0,0.2,0,0.3,0.1l3,3
			C152.5,21.4,152.5,21.6,152.3,21.9C152.3,21.8,152.3,21.8,152.3,21.9L152.3,21.9z"/>
	</g>
</g>
<path class="st0" d="M152.3,21.9l-3,3c-0.2,0.2-0.5,0.2-0.7,0c-0.1-0.1-0.1-0.2-0.1-0.3v-1.1c0-0.3-0.2-0.5-0.5-0.5h-1.6
	c-0.3,0-0.5,0.2-0.5,0.5l0,0v2.1c0,0.3,0.2,0.5,0.5,0.5l0,0h0.6c0.3,0,0.5,0.2,0.5,0.5c0,0.1,0,0.2-0.1,0.3l-3,3
	c-0.2,0.2-0.5,0.2-0.7,0l-3-3c-0.2-0.2-0.2-0.5,0-0.7c0.1-0.1,0.2-0.1,0.3-0.1h0.7c0.3,0,0.5-0.2,0.5-0.5l0,0v-2.1
	c0-0.3-0.2-0.5-0.5-0.5l0,0h-3.7c-0.3,0-0.5,0.2-0.5,0.5l0,0v2.1c0,0.3,0.2,0.5,0.5,0.5l0,0h0.7c0.3,0,0.5,0.2,0.5,0.5
	c0,0.1,0,0.2-0.1,0.3l-3,3c-0.2,0.2-0.5,0.2-0.7,0l-3-3c-0.2-0.2-0.2-0.5,0-0.7c0.1-0.1,0.2-0.1,0.3-0.1h0.5c0.3,0,0.5-0.2,0.5-0.5
	l0,0v-2.1c0-0.3-0.2-0.5-0.5-0.5l0,0h-1.6c-0.3,0-0.5,0.2-0.5,0.5l0,0v1.1c0,0.3-0.2,0.5-0.5,0.5c-0.1,0-0.2,0-0.3-0.1l-3-3
	c-0.2-0.2-0.2-0.5,0-0.7l3-3c0.2-0.2,0.5-0.2,0.7,0c0.1,0.1,0.1,0.2,0.1,0.3v1.1c0,0.3,0.2,0.5,0.5,0.5l0,0h1.6
	c0.3,0,0.5-0.2,0.5-0.5l0,0v-2.2c0-0.3-0.2-0.5-0.5-0.5l0,0h-0.5c-0.3,0-0.5-0.2-0.5-0.5c0-0.1,0-0.2,0.1-0.3l3-3
	c0.2-0.2,0.5-0.2,0.7,0l3,3c0.2,0.2,0.2,0.5,0,0.7c-0.1,0.1-0.2,0.1-0.3,0.1h-0.7c-0.3,0-0.5,0.2-0.5,0.5l0,0v2.1
	c0,0.3,0.2,0.5,0.5,0.5l0,0h3.6c0.3,0,0.5-0.2,0.5-0.5l0,0v-2.1c0-0.3-0.2-0.5-0.5-0.5l0,0h-0.7c-0.3,0-0.5-0.2-0.5-0.5
	c0-0.1,0-0.2,0.1-0.3l3-3c0.2-0.2,0.5-0.2,0.7,0l3,3c0.2,0.2,0.2,0.5,0,0.7c-0.1,0.1-0.2,0.1-0.3,0.1h-0.6c-0.3,0-0.5,0.2-0.5,0.5
	l0,0v2.1c0,0.3,0.2,0.5,0.5,0.5l0,0h1.7c0.3,0,0.5-0.2,0.5-0.5l0,0v-1.1c0-0.3,0.2-0.5,0.5-0.5c0.1,0,0.2,0,0.3,0.1l3,3
	C152.5,21.4,152.5,21.6,152.3,21.9C152.3,21.8,152.3,21.8,152.3,21.9L152.3,21.9z"/>
</svg>
