<svg xmlns="http://www.w3.org/2000/svg" viewBox="0 0 205.75 58"><defs><style>.cls-1{fill:#fff;}.cls-2{fill:#80c4d6;}.cls-3{fill:#4296b4;}.cls-4{fill:#eb6852;}.cls-5{fill:#d35a4a;}.cls-6{fill:#fec95b;}.cls-7{fill:#e2ad50;}.cls-8{fill:#978577;}.cls-9{fill:#807265;}.cls-10{fill:#6e8e7c;}.cls-11{fill:#87af9a;}</style></defs><title>Asset 1</title><g id="Layer_2" data-name="Layer 2"><g id="Layer_1-2" data-name="Layer 1"><path class="cls-1" d="M60.56,53.63A7.2,7.2,0,0,1,53,46.19a7.22,7.22,0,0,1,7.52-7.54c4.31,0,7.47,3,7.52,7.14A7.87,7.87,0,0,1,66,51.56a7.36,7.36,0,0,1-5.34,2.07Zm7.65-16.19A11,11,0,0,0,60,34.92a10.7,10.7,0,0,0-6,2.46.61.61,0,0,1-1-.45V27.21a.61.61,0,0,0-.61-.61H49.76a.61.61,0,0,0-.61.55v.31a5.52,5.52,0,0,0,0,.63V45.77a13.63,13.63,0,0,0,.23,2.82c1.21,5.6,5.33,8.76,11.35,8.76H61a10.89,10.89,0,0,0,10.34-7,11.68,11.68,0,0,0-3.09-12.94"/><path class="cls-1" d="M42.32,46a7.24,7.24,0,0,1-6.87,7.58H34.8a7.15,7.15,0,0,1-7.52-7.35c0-4.55,3-7.62,7.49-7.64h0a7.24,7.24,0,0,1,7.5,7h0V46m1.53-7.1c-3.34-4.12-9.65-5.32-14.66-2.79a11.21,11.21,0,0,0-5.62,12.9,10.26,10.26,0,0,0,7.74,8,13.51,13.51,0,0,0,3.31.44,9.65,9.65,0,0,0,7.23-3.14,8.21,8.21,0,0,0,.67-.81v2.73a.61.61,0,0,0,.61.61h2.36a.61.61,0,0,0,.61-.61h0V52.7c0-2.75,0-5.6-.06-8.38A9.07,9.07,0,0,0,43.78,39"/><path class="cls-1" d="M146.94,46a7.24,7.24,0,0,1-6.87,7.58h-.62a7.15,7.15,0,0,1-7.52-7.35c0-4.55,3-7.62,7.49-7.64h0a7.24,7.24,0,0,1,7.5,7h0V46m1.53-7.1c-3.34-4.12-9.65-5.32-14.67-2.79a11.25,11.25,0,0,0-5.56,12.91A10.26,10.26,0,0,0,136,57a13.51,13.51,0,0,0,3.31.44,9.65,9.65,0,0,0,7.23-3.14,8.21,8.21,0,0,0,.67-.81v2.73a.61.61,0,0,0,.61.61h2.36a.61.61,0,0,0,.61-.61h0V52.7c0-2.75,0-5.6-.06-8.38a9.07,9.07,0,0,0-2.25-5.38"/><path class="cls-1" d="M12.93,35c-3.28-.54-6,.1-8,1.9a.61.61,0,0,1-1-.45V27.2a.61.61,0,0,0-.61-.61H.61A.61.61,0,0,0,0,27.2H0v29a.61.61,0,0,0,.61.61H3.29a.61.61,0,0,0,.61-.61h0V45.53a7,7,0,0,1,2-5.23,7,7,0,0,1,5.42-1.61c3.39.21,5.6,2.35,5.78,5.58.13,2.44.14,4.95.15,7.36v4.57a.61.61,0,0,0,.61.61H20.5a.61.61,0,0,0,.61-.61h0V44.72C21,39.49,18,35.87,12.92,35"/><path class="cls-1" d="M125.44,47.79h-3a.61.61,0,0,0-.61.56v.44c0,.31-.05.6-.07.89a3.92,3.92,0,0,1-4.07,3.92c-1.7.09-4.6-.2-4.84-3.3-.21-2.63-.21-5.33-.22-7.94V39.75a.61.61,0,0,1,.6-.61h7.66a.61.61,0,0,0,.4-1.07l-2.92-2.55a.61.61,0,0,0-.4-.15h-4.82a.61.61,0,0,1-.61-.61h0V30.7a.61.61,0,0,0-.61-.61h-2.53a.61.61,0,0,0-.61.61h0v1.22c0,.12-.06,11.59,0,18.7a6.57,6.57,0,0,0,2.39,4.74,8.58,8.58,0,0,0,5.95,2,10.59,10.59,0,0,0,1.46-.07,7.76,7.76,0,0,0,5.55-3.18,7.3,7.3,0,0,0,1.32-5.9Z"/><path class="cls-1" d="M169.94,48.33l-.07-.53h-3.08a.61.61,0,0,0-.61.56v.47c0,.27,0,.53-.05.77a3.92,3.92,0,0,1-4,4c-1.73.1-4.66-.19-4.91-3.35C157,47.6,157,44.8,157,42.14V39.72a.61.61,0,0,1,.6-.61h7.52a.61.61,0,0,0,.38-1.09l-3.19-2.52a.61.61,0,0,0-.38-.13h-4.38a.61.61,0,0,1-.61-.61h0v-3.9a.61.61,0,0,0-.61-.61h-2.64a.61.61,0,0,0-.61.61h0V32.1c0,.12-.05,11.43.11,18.46a7,7,0,0,0,5.69,6.51,13.86,13.86,0,0,0,3,.28h.52a7.74,7.74,0,0,0,5.84-2.69A7.93,7.93,0,0,0,170,48.33"/><path class="cls-2" d="M101.69,46.47V44.83a1.9,1.9,0,0,0-2.1-1.59H80.19a1.9,1.9,0,0,0-2.1,1.59v1.64"/><path class="cls-3" d="M83.33,43.24H80.19a1.9,1.9,0,0,0-2.1,1.59v1.64h3.13V44.83A1.9,1.9,0,0,1,83.33,43.24Z"/><path class="cls-4" d="M104.72,55.61V48a1.9,1.9,0,0,0-2.1-1.59H77.16A1.9,1.9,0,0,0,75.06,48v7.61"/><path class="cls-5" d="M80.85,46.41H77.16A1.9,1.9,0,0,0,75.06,48v7.61h3.69V48A1.9,1.9,0,0,1,80.85,46.41Z"/><path class="cls-6" d="M104.72,48v2.16a5.3,5.3,0,0,1-5.93,0,5.3,5.3,0,0,1-5.93,0,5.3,5.3,0,0,1-5.93,0,5.3,5.3,0,0,1-5.93,0,4.86,4.86,0,0,1-2.24.86,5.21,5.21,0,0,1-3.69-.86V48a1.9,1.9,0,0,1,2.1-1.59h25.47A1.9,1.9,0,0,1,104.72,48Z"/><path class="cls-7" d="M80.85,46.41A1.9,1.9,0,0,0,78.75,48v3a5.21,5.21,0,0,1-3.69-.86V48a1.9,1.9,0,0,1,2.1-1.59Z"/><path class="cls-8" d="M105.62,55.54H74.16V57a1,1,0,0,0,1,1h29.54a1,1,0,0,0,1-1v-1.5Z"/><path class="cls-9" d="M77.6,55.54H74.16V57a1,1,0,0,0,1,1H77.6Z"/><circle class="cls-4" cx="78.03" cy="48.18" r="0.56"/><circle class="cls-4" cx="83.97" cy="48.18" r="0.56"/><circle class="cls-4" cx="89.91" cy="48.18" r="0.56"/><circle class="cls-4" cx="95.86" cy="48.18" r="0.56"/><circle class="cls-4" cx="101.8" cy="48.18" r="0.56"/><path class="cls-6" d="M88,22.6a4,4,0,0,1,1.89-3.3,4,4,0,0,1,1.89,3.3,2,2,0,1,1-3.78,0Z"/><path class="cls-7" d="M89.89,24.21a.35.35,0,0,0-.35.35v1.89h.71V24.56A.35.35,0,0,0,89.89,24.21Z"/><path class="cls-4" d="M92.58,40.95a.71.71,0,0,1-.71-.71v-14h-4a1.83,1.83,0,0,1-1.83,1.83v2.33h1.83v9.82a.71.71,0,0,1-.71.71H86.09v2.29h7.61V40.95Z"/><path class="cls-10" d="M185.2,49.34a5.5,5.5,0,0,1-.4,1.08,5,5,0,0,1-.25.46.4.4,0,0,1-.67-.44,4.74,4.74,0,0,0,.54-1.31,2.21,2.21,0,0,0-.5-2.21,3,3,0,0,1-.7-3,5.41,5.41,0,0,1,.32-.92h.9a4.75,4.75,0,0,0-.44,1.13,2.2,2.2,0,0,0,.49,2.21A3,3,0,0,1,185.2,49.34Z"/><path class="cls-10" d="M181.4,43.52h1.12l1.12-3.75S181.4,41.66,181.4,43.52Z"/><path class="cls-11" d="M183.65,39.77s2.25,1.87,2.25,3.75h-3.37A8.46,8.46,0,0,1,183.65,39.77Z"/><path class="cls-10" d="M161.55,11.79c0,16.38,21.75,28.33,22.09,28.52L174.38,0q-.51,0-1,0A11.79,11.79,0,0,0,161.55,11.79Z"/><path class="cls-11" d="M183.65,6.08a11.78,11.78,0,0,1,22.1,5.71c0,16.51-22.1,28.52-22.1,28.52-.31-.21-18.08-12.15-18.08-28.52,0-6.17,3.87-11.23,8.81-11.74A11.78,11.78,0,0,1,183.65,6.08Z"/><path class="cls-1" d="M196,19.55l-3,3a.46.46,0,0,1-.79-.33V21.14a.46.46,0,0,0-.46-.46h-1.63a.46.46,0,0,0-.46.46v2.13a.46.46,0,0,0,.46.46h.55a.46.46,0,0,1,.33.79l-3,3a.46.46,0,0,1-.64,0l-3-3a.46.46,0,0,1,.33-.79h.64a.46.46,0,0,0,.46-.46v-2.1a.46.46,0,0,0-.46-.46h-3.57a.46.46,0,0,0-.46.46v2.1a.46.46,0,0,0,.46.46h.67a.46.46,0,0,1,.33.79l-3,3a.46.46,0,0,1-.64,0l-3-3a.46.46,0,0,1,.33-.79h.48a.46.46,0,0,0,.46-.46V21.14a.46.46,0,0,0-.46-.46h-1.61a.46.46,0,0,0-.46.46v1a.46.46,0,0,1-.79.33l-3-3a.46.46,0,0,1,0-.64l3-3a.46.46,0,0,1,.79.33v1a.46.46,0,0,0,.46.46h1.58a.46.46,0,0,0,.46-.46V15.16a.46.46,0,0,0-.46-.46h-.53a.46.46,0,0,1-.33-.79l3-3a.46.46,0,0,1,.64,0l3,3a.46.46,0,0,1-.33.79h-.67a.46.46,0,0,0-.46.46v2.08a.46.46,0,0,0,.46.46h3.57a.46.46,0,0,0,.46-.46V15.15a.46.46,0,0,0-.46-.46h-.64a.46.46,0,0,1-.33-.79l3-3a.46.46,0,0,1,.64,0l3,3a.46.46,0,0,1-.33.79h-.55a.46.46,0,0,0-.46.46v2.13a.46.46,0,0,0,.46.46h1.63a.46.46,0,0,0,.46-.46v-1a.46.46,0,0,1,.79-.33l3,3A.46.46,0,0,1,196,19.55Z"/></g></g></svg>