<svg xmlns="http://www.w3.org/2000/svg" xmlns:xlink="http://www.w3.org/1999/xlink" width="100" height="100" viewBox="0 0 100 100">
  <defs>
    <path id="infographic-deploy-logos-a" d="M17.4911761,9.85217017 L20.5079603,9.85217017 L20.5079603,7.05536762 L17.4911761,7.05536762 L17.4911761,9.85217017 Z M13.9257436,9.85217017 L16.942648,9.85217017 L16.942648,7.05536762 L13.9257436,7.05536762 L13.9257436,9.85217017 Z M10.3604314,9.85217017 L13.3772156,9.85217017 L13.3772156,7.05536762 L10.3604314,7.05536762 L10.3604314,9.85217017 Z M6.7949989,9.85217017 L9.81190329,9.85217017 L9.81190329,7.05536762 L6.7949989,7.05536762 L6.7949989,9.85217017 Z M3.22956644,9.85217017 L6.24647083,9.85217017 L6.24647083,7.05536762 L3.22956644,7.05536762 L3.22956644,9.85217017 Z M6.7949989,6.49600711 L9.81190329,6.49600711 L9.81190329,3.69932712 L6.7949989,3.69932712 L6.7949989,6.49600711 Z M10.3604314,6.49600711 L13.3772156,6.49600711 L13.3772156,3.69932712 L10.3604314,3.69932712 L10.3604314,6.49600711 Z M13.9257436,6.49600711 L16.942648,6.49600711 L16.942648,3.69932712 L13.9257436,3.69932712 L13.9257436,6.49600711 Z M13.9257436,3.13996661 L16.942648,3.13996661 L16.942648,0.343164063 L13.9257436,0.343164063 L13.9257436,3.13996661 Z M30.1836397,8.63589197 L29.574538,8.22139652 C28.915439,7.77197168 27.401939,7.60725202 26.2367375,7.83129036 C26.0867456,6.71232422 25.4751199,5.74202248 24.3628002,4.86498834 L23.7231713,4.43014805 L23.2965116,5.08289873 C22.7501469,5.92304252 22.4772049,7.08698791 22.5666232,8.20325775 C22.6068854,8.59581509 22.7334411,9.29820227 23.1296937,9.91565587 C22.7336814,10.1327083 21.9509112,10.4316304 20.9193563,10.4115307 L1.07824031,10.4115307 L1.03942029,10.6445159 C0.852891906,11.7663009 0.856978223,15.2667162 3.08558383,17.9572598 C4.77972312,20.0022838 7.31960999,21.0392578 10.6345752,21.0392578 C17.8210862,21.0392578 23.1378663,17.6658139 25.6276357,11.5338059 C26.6066694,11.5537831 28.7148488,11.5396888 29.797723,9.42983093 C29.8258465,9.38142002 29.8908671,9.25481629 30.0800395,8.85515051 L30.1836397,8.63589197 Z"/>
  </defs>
  <g fill="none" fill-rule="evenodd">
    <g fill="#FFF" transform="translate(12 38.231)">
      <path d="M12.0452547,0.228465848 C12.2750616,0.228465848 12.5048686,0.342470762 12.849579,0.228465848 L21.1226292,4.21863784 C21.5833921,4.33264275 21.9281025,4.78866241 22.041857,5.24354201 L24.1101195,14.1359253 C24.226172,14.593085 24.1101195,15.1631096 23.7654091,15.5039843 L18.0202354,22.573429 C17.6755249,22.9143037 17.215911,23.1434536 16.7574462,23.1434536 L7.56516819,23.1434536 C7.10440525,23.1434536 6.64594039,22.9143037 6.30008093,22.573429 L0.554907181,15.5039843 L0.440003707,15.3911194 C0.210196757,15.0491047 0.0964423166,14.7059499 0.210196757,14.2510703 L2.27845931,5.35868698 C2.39451181,4.90266732 2.7380732,4.56065258 3.19883614,4.33264275 L11.4707373,0.342470762 C11.5867898,0.342470762 11.8165968,0.228465848 12.0452547,0.228465848 Z M12.0452547,3.30614251 C11.7005442,3.30614251 11.5867898,3.53415233 11.5867898,3.87616708 L11.5867898,3.99017199 L11.5867898,4.44619165 L11.5867898,5.35823096 C11.5867898,5.47223587 11.4707373,5.58624079 11.4707373,5.58624079 L11.4707373,5.81425061 C11.1260269,5.81425061 10.8962199,5.92825553 10.5515095,5.92825553 C9.28872031,6.15626536 8.13968556,6.84029484 7.3342122,7.75233415 L7.22045776,7.63832924 L6.99065081,7.63832924 C6.75969483,7.41031941 6.52988788,7.2963145 6.30008093,7.06830467 C6.18517745,6.95429975 6.07142301,6.84029484 5.9553705,6.72628993 L5.84161606,6.61228501 C5.72556355,6.4982801 5.61066008,6.4982801 5.49690564,6.4982801 C5.38085313,6.4982801 5.15104618,6.4982801 5.15104618,6.61228501 C5.0361427,6.84029484 5.0361427,7.18230958 5.26709869,7.2963145 L5.38085313,7.41031941 L5.84161606,7.63832924 C6.07142301,7.75233415 6.30008093,7.98034398 6.52988788,8.20835381 C6.64594039,8.32235872 6.64594039,8.43636364 6.64594039,8.43636364 L6.75969483,8.55036855 C5.84161606,9.8044226 5.49690564,11.4004914 5.72556355,12.9965602 L5.49690564,12.9965602 C5.49690564,13.1105651 5.38085313,13.1105651 5.26709869,13.22457 C4.92238826,13.3385749 4.69258131,13.3385749 4.34787089,13.3385749 L3.77335351,13.3385749 C3.54354656,13.4525799 3.42749405,13.6805897 3.42749405,14.0226044 C3.54354656,14.2506143 3.77335351,14.3646192 3.88710795,14.3646192 L4.00201143,14.3646192 L4.46162533,14.2506143 C4.69258131,14.1366093 5.0361427,14.0226044 5.38085313,14.0226044 C5.49690564,14.0226044 5.61066008,14.0226044 5.61066008,14.1366093 L5.84161606,14.1366093 C6.30008093,15.6186732 7.3342122,16.8727273 8.71420293,17.6707617 L8.59815042,17.8987715 L8.59815042,18.1267813 C8.48324695,18.3547912 8.36949251,18.6968059 8.13968556,18.9248157 C8.02363305,19.0388206 7.90872958,19.1528256 7.90872958,19.2668305 L7.90872958,19.3808354 C7.79497514,19.6088452 7.90872958,19.95086 8.13968556,20.0648649 C8.36949251,20.1788698 8.71420293,20.0648649 8.82795737,19.836855 L8.82795737,19.7228501 C8.94400988,19.6088452 8.94400988,19.3808354 8.94400988,19.2668305 C9.05776432,18.9248157 9.1726678,18.6968059 9.28872031,18.3547912 C9.40247475,18.3547912 9.40247475,18.2407862 9.51852726,18.2407862 L9.6322817,18.0127764 C11.1260269,18.582801 12.7358246,18.582801 14.2284207,18.0127764 L14.3433242,18.2407862 C14.4593767,18.2407862 14.5731311,18.3547912 14.5731311,18.3547912 C14.6891836,18.582801 14.8029381,18.9248157 14.9178415,19.1528256 C14.9178415,19.2679705 15.0338941,19.4948403 15.0338941,19.6088452 L15.0338941,19.7228501 C15.1476485,19.95086 15.4923589,20.0648649 15.7221659,19.95086 C15.9519728,19.8379951 16.0668763,19.4948403 15.9519728,19.2679705 C15.8382184,19.1528256 15.8382184,19.0388206 15.7221659,18.9248157 C15.6084114,18.6979459 15.3774554,18.4687961 15.263701,18.1279214 L15.263701,17.8987715 C15.263701,17.7847666 15.1476485,17.7847666 15.1476485,17.6707617 C16.5264902,16.8727273 17.5617705,15.6186732 18.0202354,14.1366093 L18.2500423,14.1366093 C18.3660948,14.0226044 18.4809983,14.0226044 18.4809983,14.0226044 C18.8245597,14.1366093 19.0555157,14.1366093 19.3990771,14.2506143 L19.85984,14.3646192 L19.9735944,14.3646192 C20.2045504,14.3646192 20.5481118,14.1366093 20.5481118,13.9085995 C20.5481118,13.6805897 20.4343574,13.4525799 20.2045504,13.4525799 L19.6300331,13.4525799 C19.2853226,13.4525799 19.0555157,13.3385749 18.7108053,13.3385749 C18.5947527,13.3385749 18.5947527,13.22457 18.4809983,13.1105651 L18.2500423,13.1105651 C18.4809983,11.5144963 18.1362879,10.0324324 17.215911,8.66437346 L17.3319636,8.55036855 C17.3319636,8.43636364 17.3319636,8.32235872 17.445718,8.32235872 C17.6755249,8.09434889 17.9064809,7.98034398 18.1362879,7.75233415 L18.5947527,7.52432432 L18.7108053,7.41031941 C18.9394632,7.18230958 18.9394632,6.95429975 18.8245597,6.72628993 C18.5947527,6.4982801 18.3649458,6.4982801 18.1362879,6.61228501 L18.0202354,6.72628993 C17.9064809,6.84029484 17.7904284,6.95429975 17.6755249,7.06830467 C17.445718,7.2963145 17.215911,7.52432432 16.9872531,7.63832924 L16.6413937,7.63832924 L16.4127358,7.75233415 C15.3774554,6.61228501 13.8848593,5.92825553 12.2750616,5.81425061 L12.2750616,5.58624079 C12.1613072,5.47223587 12.1613072,5.47223587 12.1613072,5.35823096 L12.1613072,4.44619165 L12.1613072,3.99017199 L12.1613072,3.87616708 C12.1613072,3.53415233 11.9303512,3.30614251 11.7005442,3.30614251 L12.0452547,3.30614251 Z"/>
      <path d="M12.0452547,14.592629 C12.2750616,14.592629 12.3911141,14.592629 12.5048686,14.8206388 L13.7688068,17.1007371 L13.3103419,17.214742 C12.3911141,17.4427518 11.3558338,17.3287469 10.4377551,17.1007371 L11.7005442,14.8206388 C11.8165968,14.592629 11.9303512,14.592629 12.0452547,14.592629 Z M9.86323768,13.4525799 C10.0930446,13.4525799 10.3217025,13.6805897 10.3217025,13.9085995 L10.3217025,14.0226044 L9.28872031,16.4167076 C8.36949251,15.846683 7.56516819,14.9346437 7.22045776,13.7945946 L9.86323768,13.4525799 Z M14.2284207,13.4525799 L16.9872531,13.9085995 C16.6413937,14.9346437 15.8382184,15.846683 14.9178415,16.5307125 L13.9986137,14.1366093 C13.8848593,13.9085995 13.8848593,13.6805897 14.2284207,13.4525799 Z M11.7005442,11.4004914 L12.5048686,11.4004914 L12.9656315,11.970516 L12.849579,12.7685504 L12.1613072,13.1105651 L11.4707373,12.7685504 L11.3558338,11.970516 L11.7005442,11.4004914 Z M16.4127358,9.46240786 C16.9872531,10.3744472 17.215911,11.5144963 17.1010076,12.6545455 L14.5731311,11.970516 C14.3433242,11.8565111 14.2284207,11.6285012 14.2284207,11.4004914 C14.2284207,11.2864865 14.3433242,11.2864865 14.3433242,11.1724816 L16.4127358,9.46240786 Z M7.67892263,9.46240786 L9.6322817,11.1724816 C9.86323768,11.2864865 9.86323768,11.6285012 9.6322817,11.7425061 C9.51852726,11.8565111 9.51852726,11.8565111 9.40247475,11.8565111 L6.8745983,12.5405405 C6.8745983,11.6285012 7.10440525,10.4884521 7.67892263,9.46240786 Z M12.7358246,7.18230958 C13.8848593,7.2963145 14.9178415,7.86633907 15.6084114,8.66437346 L13.4240964,10.1464373 C13.1942894,10.2604423 12.9656315,10.2604423 12.849579,10.0324324 C12.849579,9.91842752 12.7358246,9.91842752 12.7358246,9.8044226 L12.7358246,7.18230958 Z M11.4707373,7.18230958 L11.3558338,9.8044226 C11.3558338,10.0324324 11.1260269,10.2604423 10.8962199,10.2604423 C10.7813164,10.2604423 10.667562,10.2604423 10.667562,10.1464373 L8.48324695,8.66437346 C9.1726678,7.98034398 9.97699212,7.52432432 10.8962199,7.2963145 L11.4707373,7.18230958 Z"/>
    </g>
    <g fill="#FFF" fill-rule="nonzero" transform="translate(65.5 39.231)">
      <path d="M9.92016288,0.6 C15.3890859,0.6 19.8390858,5.22783875 19.8390858,10.9163246 C19.8390858,16.6051329 15.3890859,21.2326493 9.92016288,21.2326493 C4.44961246,21.2326493 0,16.6051329 0,10.9163246 C0,5.22783875 4.44968996,0.6 9.92016288,0.6 Z M9.86473147,1.32395261 C8.28345806,1.32395261 6.94243209,3.98744927 6.4580585,7.6894188 C6.44254365,7.80852622 6.42757182,7.9290224 6.41430663,8.05033551 C6.34660601,8.65222267 6.30209359,9.25675168 6.28087892,9.86243473 C6.27016624,10.1509426 6.2648643,10.4396451 6.2649762,10.7283734 C6.2649762,11.0202601 6.27025125,11.3092876 6.2809565,11.594067 C6.30337546,12.2176245 6.34821337,12.8238633 6.4143842,13.406493 C7.15576126,13.5075464 7.94857004,13.5760863 8.77543392,13.6086815 C9.13289604,13.6227326 9.49563321,13.6311469 9.86480904,13.6311469 C10.2328213,13.6311469 10.596722,13.6226509 10.9530981,13.6086815 C11.7809705,13.5760863 12.5731587,13.5075464 13.3152339,13.406493 C13.396842,13.3954645 13.4772089,13.3834558 13.5585067,13.3710385 C16.6466598,12.9143784 18.7949234,11.9034359 18.7949234,10.7283734 C18.7948458,5.53421181 14.7962814,1.32395261 9.86473147,1.32395261 Z"/>
      <path d="M13.8378678,8.08920383 C13.7473407,7.95201351 13.6499779,7.81983938 13.5461779,7.69322271 C12.7164367,6.67602427 11.4803095,6.02964454 10.0973552,6.02964454 C9.64901851,6.02964454 9.24970266,6.74334188 8.99414994,7.8515498 C8.89257303,8.29352583 8.81377826,8.79759092 8.76295053,9.34487325 C8.72147767,9.80603776 8.70092476,10.2689785 8.70136021,10.7321551 C8.70136021,11.2147341 8.72296396,11.6811373 8.76295053,12.1192736 C9.18489141,12.1609386 9.63267822,12.1832417 10.0973552,12.1832417 C10.5614038,12.1832417 11.0091906,12.1608569 11.4311315,12.1192736 C12.3586787,12.027774 13.1594315,11.8423238 13.7266281,11.597889 C14.2867544,11.3568854 14.6182738,11.0568972 14.6182738,10.7321551 C14.6181952,9.75245521 14.3305118,8.84252378 13.8378678,8.08920383 Z"/>
    </g>
    <g transform="translate(36.5 14.231)">
      <use fill="#FFF" fill-rule="nonzero" xlink:href="#infographic-deploy-logos-a"/>
    </g>
    <g fill="#FFF" transform="translate(38.5 63.231)">
      <polygon points="17.461 14.798 21.936 12.241 21.936 17.355"/>
      <path d="M17.5679823 8.72536933L19.2725003 7.7676433 21.7227448 6.27512477C21.8292772 6.16965772 21.9358096 6.16965772 21.9358096 6.38165715L21.9358096 11.0690815C21.9358096 11.1756139 21.9358096 11.2821463 21.7227448 11.1756139L17.5679823 8.83296702 17.5679823 8.72536933zM16.3960197 8.72536933L14.478437 9.79069305 12.1347248 11.1756139C11.9216601 11.2821463 11.9216601 11.2821463 11.9216601 11.0690815L11.9216601 6.38165715C11.9216601 6.27512477 11.9216601 6.16965772 12.1347248 6.27512477L16.2894873 8.61883696 16.3960197 8.72536933z"/>
      <polygon points="12.028 12.241 16.396 14.904 12.028 17.461"/>
      <polygon points="12.028 5.21 12.028 .096 16.396 2.653"/>
      <polygon points="16.396 20.87 12.028 23.426 12.028 18.314"/>
      <path d="M5.95552766 8.72536933L4.14447733 9.79069305 1.69423278 11.1756139C1.58770041 11.2821463 1.48116804 11.2821463 1.48116804 11.0690815L1.48116804 6.16965772 5.95552766 8.72536933zM5.95552766 14.7979276L4.78367157 15.4371218 1.80076515 17.1416398C1.69423278 17.1416398 1.58770041 17.3547045 1.58770041 17.0351074L1.58770041 12.2411507 1.58770041 12.1346183 5.95552766 14.7979276zM11.3887852 12.2407245L11.3887852 17.142279C11.3887852 17.247746 11.3887852 17.247746 11.2822528 17.247746L7.02095791 14.7975015 11.3887852 12.2407245z"/>
      <polygon points="7.021 20.87 11.389 18.314 11.389 23.426"/>
      <path d="M7.02085138 2.65281106L11.3886786.0970994605 11.3886786.310164204 11.3886786 4.99652325C11.3886786 5.20958799 11.3886786 5.20958799 11.1756139 5.10412094L7.12738375 2.76040876 7.02085138 2.65281106zM7.12749028 8.72536933L11.4953175 6.16965772 11.4953175 6.38165715 11.4953175 11.0690815C11.4953175 11.2821463 11.4953175 11.2821463 11.2822528 11.1756139L7.23402265 8.83296702 7.12749028 8.72536933zM17.2480656 3.18547292L21.6158929 5.74224985C21.4028281 5.84878222 21.2962957 5.95637992 21.083231 6.06184696L17.354598 8.1924944C17.2480656 8.3000921 17.1415332 8.3000921 17.1415332 8.08702735L17.1415332 3.29307062C17.2480656 3.29307062 17.2480656 3.18547292 17.2480656 3.18547292"/>
      <polygon points="17.248 14.371 17.248 9.258 21.722 11.816"/>
      <polygon points="17.248 15.331 21.722 17.887 17.248 20.444"/>
      <path d="M6.80810623,3.18547292 L11.1759335,5.74224985 L10.2171421,6.27491171 L7.02117097,8.1924944 C6.9146386,8.1924944 6.80810623,8.3000921 6.80810623,8.08702735 L6.80810623,3.18547292 Z"/>
      <polygon points="6.808 15.331 11.176 17.887 6.808 20.444"/>
      <path d="M12.34747,5.74267598 L16.7152972,3.18589905 L16.7152972,8.08638816 C16.7152972,8.2994529 16.7152972,8.2994529 16.5022325,8.19292053 L12.5605347,5.84920835 L12.34747,5.74267598 Z"/>
      <polygon points="11.069 11.708 6.702 14.265 6.702 9.152"/>
      <polygon points="16.715 15.331 16.715 20.444 12.348 17.887"/>
      <polygon points="16.715 9.258 16.715 14.372 12.348 11.815"/>
      <path d="M1.80087168 5.74267598L6.16869893 3.18589905 6.16869893 8.08638816C6.16869893 8.19292053 6.16869893 8.2994529 5.95563419 8.19292053L1.80087168 5.74267598zM6.16880547 20.4439302L1.80097822 17.8882186C1.80097822 17.7806209 1.90751059 17.7806209 1.90751059 17.7806209L5.95574072 15.4369088C6.16880547 15.3303764 6.16880547 15.3303764 6.16880547 15.5434411L6.16880547 20.2308655 6.16880547 20.4439302zM6.16880547 9.25803119L6.16880547 14.1595856C6.16880547 14.2650527 6.16880547 14.371585 5.95574072 14.2650527L1.90751059 11.9213405 1.80097822 11.8148081 6.16880547 9.25803119z"/>
    </g>
  </g>
</svg>
