<?xml version="1.0" encoding="utf-8"?>
<svg xmlns="http://www.w3.org/2000/svg" xmlns:xlink="http://www.w3.org/1999/xlink" x="0px" y="0px"
   viewBox="0 0 27.6 23" enable-background="new 0 0 27.6 23" xml:space="preserve">
<g>
  <path d="M27.6,1.1v2.3c0,0.3-0.1,0.6-0.3,0.8c-0.2,0.2-0.5,0.3-0.8,0.3H1.1c-0.3,0-0.6-0.1-0.8-0.3C0.1,4,0,3.8,0,3.4V1.1
    c0-0.3,0.1-0.6,0.3-0.8C0.6,0.1,0.8,0,1.1,0h25.3c0.3,0,0.6,0.1,0.8,0.3C27.4,0.6,27.6,0.8,27.6,1.1z M27.6,10.3v2.3
    c0,0.3-0.1,0.6-0.3,0.8c-0.2,0.2-0.5,0.3-0.8,0.3H1.1c-0.3,0-0.6-0.1-0.8-0.3C0.1,13.2,0,12.9,0,12.6v-2.3C0,10,0.1,9.8,0.3,9.5
    c0.2-0.2,0.5-0.3,0.8-0.3h25.3c0.3,0,0.6,0.1,0.8,0.3C27.4,9.8,27.6,10,27.6,10.3z M27.6,19.5v2.3c0,0.3-0.1,0.6-0.3,0.8
    C27,22.9,26.7,23,26.4,23H1.1c-0.3,0-0.6-0.1-0.8-0.3C0.1,22.4,0,22.1,0,21.8v-2.3c0-0.3,0.1-0.6,0.3-0.8c0.2-0.2,0.5-0.3,0.8-0.3
    h25.3c0.3,0,0.6,0.1,0.8,0.3C27.4,18.9,27.6,19.2,27.6,19.5z"/>
</g>
</svg>
