<?xml version="1.0" encoding="UTF-8" standalone="no"?>
<svg width="223px" height="223px" viewBox="0 0 223 223" version="1.1" xmlns="http://www.w3.org/2000/svg" xmlns:xlink="http://www.w3.org/1999/xlink">
    <!-- Generator: Sketch 42 (36781) - http://www.bohemiancoding.com/sketch -->
    <title>Group 2</title>
    <desc>Created with Sketch.</desc>
    <defs></defs>
    <g id="Habitat-Web-Home-V3" stroke="none" stroke-width="1" fill="none" fill-rule="evenodd">
        <g id="Habitat-Web-Home-V3-(desktop)">
            <g id="1.-Hero" transform="translate(-33.000000, -31.000000)">
                <g id="github-link">
                    <g id="Group-2">
                        <g id="github-ribbon">
                            <rect id="Rectangle" fill="#87B09A" transform="translate(128.197222, 128.197222) rotate(-45.000000) translate(-128.197222, -128.197222) " x="-32.1010281" y="107.197222" width="321" height="42"></rect>
                            <path d="M67.646484,122.662484 C66.9651473,122.363816 66.2021549,122.214484 65.357484,122.214484 C64.5128132,122.214484 63.9131525,122.408149 63.558484,122.795484 C63.2038156,123.182819 63.026484,123.689148 63.026484,124.314484 L63.026484,125.476484 L66.484484,125.476484 L66.484484,127.016484 L63.026484,127.016484 L63.026484,130.614484 L61.374484,130.614484 L61.374484,124.482484 C61.374484,123.203811 61.7198139,122.235487 62.410484,121.577484 C63.1011542,120.919481 64.0064784,120.590484 65.126484,120.590484 C65.5744863,120.590484 66.0878145,120.639484 66.666484,120.737484 C67.2451536,120.835485 67.6838159,120.954483 67.982484,121.094484 L67.646484,122.662484 Z M71.490484,130.614484 L69.922484,130.614484 L69.922484,123.166484 L71.490484,123.166484 L71.490484,130.614484 Z M69.726484,120.982484 C69.726484,120.711816 69.8244831,120.478485 70.020484,120.282484 C70.216485,120.086483 70.449816,119.988484 70.720484,119.988484 C70.9911521,119.988484 71.2244831,120.086483 71.420484,120.282484 C71.616485,120.478485 71.714484,120.711816 71.714484,120.982484 C71.714484,121.253152 71.616485,121.486483 71.420484,121.682484 C71.2244831,121.878485 70.9911521,121.976484 70.720484,121.976484 C70.449816,121.976484 70.216485,121.878485 70.020484,121.682484 C69.8244831,121.486483 69.726484,121.253152 69.726484,120.982484 Z M76.076484,126.582484 L76.076484,130.614484 L74.508484,130.614484 L74.508484,123.166484 L76.076484,123.166484 L76.076484,124.524484 C76.3284853,124.067148 76.6761485,123.707819 77.119484,123.446484 C77.5628196,123.185149 78.0411481,123.054484 78.554484,123.054484 C79.3944882,123.054484 80.0734815,123.311148 80.591484,123.824484 C81.1094866,124.33782 81.368484,125.079813 81.368484,126.050484 L81.368484,130.614484 L79.800484,130.614484 L79.800484,126.526484 C79.800484,125.154477 79.2311564,124.468484 78.092484,124.468484 C77.551148,124.468484 77.0798194,124.648149 76.678484,125.007484 C76.2771487,125.366819 76.076484,125.891814 76.076484,126.582484 Z M84.876484,129.662484 C84.1764805,128.953147 83.826484,128.019823 83.826484,126.862484 C83.826484,125.705145 84.1858138,124.781154 84.904484,124.090484 C85.6231543,123.399814 86.4794791,123.054484 87.473484,123.054484 C88.467489,123.054484 89.2678143,123.47448 89.874484,124.314484 L89.874484,120.226484 L91.442484,120.226484 L91.442484,130.614484 L89.874484,130.614484 L89.874484,129.494484 C89.2958145,130.315821 88.4511563,130.726484 87.340484,130.726484 C86.3978127,130.726484 85.5764875,130.371821 84.876484,129.662484 Z M86.080484,128.668484 C86.5378197,129.116486 87.074481,129.340484 87.690484,129.340484 C88.3064871,129.340484 88.8291486,129.114153 89.258484,128.661484 C89.6878195,128.208815 89.902484,127.627821 89.902484,126.918484 C89.902484,126.209147 89.6878195,125.616486 89.258484,125.140484 C88.8291486,124.664482 88.3018205,124.426484 87.676484,124.426484 C87.0511476,124.426484 86.5144863,124.664482 86.066484,125.140484 C85.6184818,125.616486 85.394484,126.21148 85.394484,126.925484 C85.394484,127.639488 85.6231484,128.220482 86.080484,128.668484 Z M104.254484,127.198484 L104.254484,123.166484 L105.822484,123.166484 L105.822484,130.614484 L104.254484,130.614484 L104.254484,129.256484 C104.002483,129.71382 103.65482,130.073149 103.211484,130.334484 C102.768148,130.595819 102.28982,130.726484 101.776484,130.726484 C100.93648,130.726484 100.257487,130.46982 99.739484,129.956484 C99.2214815,129.443148 98.962484,128.701156 98.962484,127.730484 L98.962484,123.166484 L100.530484,123.166484 L100.530484,127.254484 C100.530484,128.626491 101.099812,129.312484 102.238484,129.312484 C102.77982,129.312484 103.251149,129.132819 103.652484,128.773484 C104.053819,128.414149 104.254484,127.889154 104.254484,127.198484 Z M113.376484,130.089484 C112.863148,130.514153 112.205155,130.726484 111.402484,130.726484 C110.861148,130.726484 110.29882,130.628485 109.715484,130.432484 C109.132148,130.236483 108.616486,129.961152 108.168484,129.606484 L108.924484,128.388484 C109.792488,129.041821 110.63248,129.368484 111.444484,129.368484 C111.799152,129.368484 112.07915,129.286818 112.284484,129.123484 C112.489818,128.96015 112.592484,128.752485 112.592484,128.500484 C112.592484,128.127149 112.097822,127.791152 111.108484,127.492484 C111.033817,127.464484 110.977818,127.445817 110.940484,127.436484 C109.391143,127.016482 108.616484,126.316489 108.616484,125.336484 C108.616484,124.645814 108.884815,124.092819 109.421484,123.677484 C109.958153,123.262149 110.655813,123.054484 111.514484,123.054484 C112.373155,123.054484 113.185147,123.306482 113.950484,123.810484 L113.362484,124.972484 C112.755814,124.571149 112.097821,124.370484 111.388484,124.370484 C111.015149,124.370484 110.711819,124.43815 110.478484,124.573484 C110.24515,124.708818 110.128484,124.911816 110.128484,125.182484 C110.128484,125.425152 110.249816,125.602483 110.492484,125.714484 C110.660485,125.798484 110.896149,125.877817 111.199484,125.952484 C111.502819,126.027151 111.77115,126.101817 112.004484,126.176484 C112.237819,126.251151 112.46415,126.33515 112.683484,126.428484 C112.902818,126.521818 113.138483,126.652483 113.390484,126.820484 C113.894487,127.156486 114.146484,127.679147 114.146484,128.388484 C114.146484,129.097821 113.88982,129.664815 113.376484,130.089484 Z M124.690484,129.326484 C125.371821,129.326484 125.934148,129.100153 126.377484,128.647484 C126.82082,128.194815 127.042484,127.609154 127.042484,126.890484 C127.042484,126.171814 126.82082,125.586153 126.377484,125.133484 C125.934148,124.680815 125.371821,124.454484 124.690484,124.454484 C124.009147,124.454484 123.44682,124.680815 123.003484,125.133484 C122.560148,125.586153 122.338484,126.171814 122.338484,126.890484 C122.338484,127.609154 122.560148,128.194815 123.003484,128.647484 C123.44682,129.100153 124.009147,129.326484 124.690484,129.326484 Z M124.690484,130.726484 C123.570478,130.726484 122.637154,130.355488 121.890484,129.613484 C121.143814,128.87148 120.770484,127.963823 120.770484,126.890484 C120.770484,125.817145 121.143814,124.909488 121.890484,124.167484 C122.637154,123.42548 123.570478,123.054484 124.690484,123.054484 C125.81049,123.054484 126.743814,123.42548 127.490484,124.167484 C128.237154,124.909488 128.610484,125.817145 128.610484,126.890484 C128.610484,127.963823 128.237154,128.87148 127.490484,129.613484 C126.743814,130.355488 125.81049,130.726484 124.690484,130.726484 Z M132.706484,126.582484 L132.706484,130.614484 L131.138484,130.614484 L131.138484,123.166484 L132.706484,123.166484 L132.706484,124.524484 C132.958485,124.067148 133.306148,123.707819 133.749484,123.446484 C134.19282,123.185149 134.671148,123.054484 135.184484,123.054484 C136.024488,123.054484 136.703481,123.311148 137.221484,123.824484 C137.739487,124.33782 137.998484,125.079813 137.998484,126.050484 L137.998484,130.614484 L136.430484,130.614484 L136.430484,126.526484 C136.430484,125.154477 135.861156,124.468484 134.722484,124.468484 C134.181148,124.468484 133.709819,124.648149 133.308484,125.007484 C132.907149,125.366819 132.706484,125.891814 132.706484,126.582484 Z M150.348484,122.214484 C149.359146,122.214484 148.528487,122.534148 147.856484,123.173484 C147.184481,123.812821 146.848484,124.657479 146.848484,125.707484 C146.848484,126.757489 147.133148,127.590481 147.702484,128.206484 C148.27182,128.822487 149.058146,129.130484 150.061484,129.130484 C151.064822,129.130484 151.888481,128.733821 152.532484,127.940484 L152.532484,125.994484 L154.184484,125.994484 L154.184484,130.712484 L152.532484,130.712484 L152.532484,129.886484 C151.74848,130.437153 150.885155,130.712484 149.942484,130.712484 C148.514477,130.712484 147.354822,130.243489 146.463484,129.305484 C145.572146,128.367479 145.126484,127.165825 145.126484,125.700484 C145.126484,124.235143 145.623479,123.017156 146.617484,122.046484 C147.611489,121.075813 148.813144,120.590484 150.222484,120.590484 C151.631824,120.590484 152.803146,121.001147 153.736484,121.822484 L152.854484,123.082484 C152.471815,122.755816 152.086819,122.529485 151.699484,122.403484 C151.312149,122.277483 150.86182,122.214484 150.348484,122.214484 Z M158.504484,130.614484 L156.936484,130.614484 L156.936484,123.166484 L158.504484,123.166484 L158.504484,130.614484 Z M156.740484,120.982484 C156.740484,120.711816 156.838483,120.478485 157.034484,120.282484 C157.230485,120.086483 157.463816,119.988484 157.734484,119.988484 C158.005152,119.988484 158.238483,120.086483 158.434484,120.282484 C158.630485,120.478485 158.728484,120.711816 158.728484,120.982484 C158.728484,121.253152 158.630485,121.486483 158.434484,121.682484 C158.238483,121.878485 158.005152,121.976484 157.734484,121.976484 C157.463816,121.976484 157.230485,121.878485 157.034484,121.682484 C156.838483,121.486483 156.740484,121.253152 156.740484,120.982484 Z M163.020484,124.426484 L163.020484,128.206484 C163.020484,128.561152 163.113816,128.843483 163.300484,129.053484 C163.487152,129.263485 163.748482,129.368484 164.084484,129.368484 C164.420486,129.368484 164.742483,129.205152 165.050484,128.878484 L165.694484,129.984484 C165.143815,130.479153 164.534821,130.726484 163.867484,130.726484 C163.200147,130.726484 162.63082,130.495486 162.159484,130.033484 C161.688148,129.571482 161.452484,128.948488 161.452484,128.164484 L161.452484,120.828484 L163.020484,120.828484 L163.020484,123.166484 L164.980484,123.166484 L164.980484,124.426484 L163.020484,124.426484 Z M167.914484,130.614484 L167.914484,120.828484 L169.566484,120.828484 L169.566484,125.070484 L174.424484,125.070484 L174.424484,120.828484 L176.076484,120.828484 L176.076484,130.614484 L174.424484,130.614484 L174.424484,126.610484 L169.566484,126.610484 L169.566484,130.614484 L167.914484,130.614484 Z M184.526484,127.198484 L184.526484,123.166484 L186.094484,123.166484 L186.094484,130.614484 L184.526484,130.614484 L184.526484,129.256484 C184.274483,129.71382 183.92682,130.073149 183.483484,130.334484 C183.040148,130.595819 182.56182,130.726484 182.048484,130.726484 C181.20848,130.726484 180.529487,130.46982 180.011484,129.956484 C179.493481,129.443148 179.234484,128.701156 179.234484,127.730484 L179.234484,123.166484 L180.802484,123.166484 L180.802484,127.254484 C180.802484,128.626491 181.371812,129.312484 182.510484,129.312484 C183.05182,129.312484 183.523149,129.132819 183.924484,128.773484 C184.325819,128.414149 184.526484,127.889154 184.526484,127.198484 Z M195.664484,124.090484 C196.373821,124.781154 196.728484,125.700478 196.728484,126.848484 C196.728484,127.99649 196.376154,128.929814 195.671484,129.648484 C194.966814,130.367154 194.145489,130.726484 193.207484,130.726484 C192.269479,130.726484 191.427154,130.315821 190.680484,129.494484 L190.680484,130.614484 L189.112484,130.614484 L189.112484,120.226484 L190.680484,120.226484 L190.680484,124.468484 C191.296487,123.525813 192.103812,123.054484 193.102484,123.054484 C194.101156,123.054484 194.955147,123.399814 195.664484,124.090484 Z M191.296484,128.647484 C191.72582,129.100153 192.248481,129.326484 192.864484,129.326484 C193.480487,129.326484 194.017148,129.102486 194.474484,128.654484 C194.93182,128.206482 195.160484,127.625488 195.160484,126.911484 C195.160484,126.19748 194.936486,125.60482 194.488484,125.133484 C194.040482,124.662148 193.503821,124.426484 192.878484,124.426484 C192.253148,124.426484 191.72582,124.662148 191.296484,125.133484 C190.867149,125.60482 190.652484,126.195147 190.652484,126.904484 C190.652484,127.613821 190.867149,128.194815 191.296484,128.647484 Z" id="Find-us-on-GitHub" fill="#FFFFFF" transform="translate(129.051484, 125.357484) rotate(-45.000000) translate(-129.051484, -125.357484) "></path>
                        </g>
                        <g id="mark-github" transform="translate(69.000000, 66.000000)" fill-rule="nonzero" fill="#FFFFFF">
                            <path d="M23,0 C10.2984297,0 0,10.3266667 0,23.0630631 C0,33.2545495 6.5895,41.8975676 15.7296191,44.9465315 C16.8793047,45.1576126 17.2990547,44.4454054 17.2990547,43.8372523 C17.2990547,43.2882432 17.2779863,41.4695946 17.2668008,39.5438288 C11.4849961,40.6005856 10.0026191,38.1230631 9.51916992,36.8243243 C9.27097656,36.1572523 8.15323047,34.1104054 7.16535352,33.5692342 C6.35729883,33.1265315 5.2220332,32.0720721 7.12416016,32.0496396 C8.94053125,32.0281982 10.2394023,33.7301802 10.6492246,34.4257658 C12.7128457,37.927973 16.0342793,36.9314865 17.3425391,36.3401802 C17.5516055,34.8537387 18.1467305,33.8344595 18.8025449,33.2603153 C13.6968594,32.6774775 8.32586523,30.6983784 8.32586523,21.8610811 C8.32586523,19.3412613 9.22286523,17.2862613 10.6913613,15.6717117 C10.4568691,15.0861712 9.66516602,12.7395045 10.9188008,9.56527027 C10.9188008,9.56527027 12.8476113,8.94594595 17.2442949,11.9301802 C19.0776016,11.4163964 21.044416,11.163018 22.9998652,11.1545045 C24.9539219,11.162973 26.9221738,11.4190991 28.7583105,11.9328829 C33.1466836,8.9459009 35.0781895,9.56797297 35.0781895,9.56797297 C36.336002,12.7450901 35.5442539,15.0888739 35.3083691,15.6715315 C36.7823008,17.2861261 37.6724277,19.3412613 37.6724277,21.8609009 C37.6724277,30.7206306 32.2929883,32.6717117 27.1691094,33.2431532 C27.9974238,33.9582883 28.7300547,35.3603153 28.7300547,37.5110811 C28.7300547,40.5938288 28.6992383,43.0798649 28.6992383,43.839955 C28.6992383,44.4536937 29.1175508,45.1715315 30.2827344,44.9463514 C39.4160703,41.8918018 46,33.2489189 46,23.0630631 C46,10.3266667 35.7015703,0 23,0 Z" id="Shape"></path>
                        </g>
                    </g>
                </g>
            </g>
        </g>
    </g>
</svg>