
<svg width="69px" height="90px" viewBox="0 0 69 90" version="1.1" xmlns="http://www.w3.org/2000/svg" xmlns:xlink="http://www.w3.org/1999/xlink">
    <!-- Generator: Sketch 46 (44423) - http://www.bohemiancoding.com/sketch -->
    <desc>Created with Sketch.</desc>
    <defs></defs>
    <g id="Habitat-Web-UI/Global-Nav-Pages/desktop" stroke="none" stroke-width="1" fill="none" fill-rule="evenodd">
        <g id="Habitat-Web---Tutorials---V2" transform="translate(-336.000000, -1332.000000)" fill-rule="nonzero">
            <g id="plan" transform="translate(336.000000, 1332.000000)">
                <rect id="Rectangle-path" fill="#4296B4" x="0" y="0" width="68.3970843" height="89.6513904" rx="2.98"></rect>
                <rect id="Rectangle-path" fill="#80C4D6" x="3.66666052" y="10.4022235" width="60.749478" height="75.021723"></rect>
                <circle id="Oval" fill="#80C4D6" cx="6.03304311" cy="5.26889873" r="2.08290968"></circle>
                <ellipse id="Oval" fill="#80C4D6" cx="12.294097" cy="5.26889873" rx="2.08907213" ry="2.08290968"></ellipse>
                <path d="M11.9859743,21.1495444 L12.8425555,21.1495444 L12.9288299,21.7657899 L12.9411548,21.7657899 C13.4007817,21.3091658 14.0133455,21.0391108 14.6604796,21.0078079 C16.0223821,21.0078079 16.780364,22.0431003 16.780364,23.6330136 C16.780364,25.3954757 15.6711222,26.4184431 14.4571186,26.4184431 C13.9099788,26.3963214 13.3891968,26.1775055 12.9904544,25.8021977 L12.9596422,25.8021977 L13.0089418,26.7327283 L13.0089418,28.4212409 L11.9859743,28.4212409 L11.9859743,21.1495444 Z M15.7204218,23.6638259 C15.7204218,22.5853963 15.3198623,21.9013639 14.3893316,21.9013639 C13.8591905,21.9373029 13.3669562,22.1889883 13.0274292,22.5977212 L13.0274292,25.0627031 C13.3625087,25.3806699 13.7988591,25.5704824 14.2599201,25.5988367 C15.0980139,25.5680244 15.7204218,24.8839919 15.7204218,23.6638259 L15.7204218,23.6638259 Z" id="Shape" fill="#FFFFFF"></path>
                <path d="M19.8739163,24.5019197 L19.8739163,19.6643928 L18.1854037,19.6643928 L18.1854037,18.826299 L20.9153711,18.826299 L20.9153711,24.5635443 C20.8781688,24.834669 20.9672592,25.1078914 21.157131,25.3049735 C21.3470027,25.5020556 21.6167165,25.6012628 21.889039,25.5741868 C22.2044146,25.5639804 22.514542,25.4906395 22.8010822,25.3585009 L23.0537429,26.1411327 C22.6051679,26.3382815 22.1201982,26.4390545 21.6302159,26.4369305 C20.4963242,26.4369305 19.8739163,25.7467356 19.8739163,24.5019197 Z" id="Shape" fill="#FFFFFF"></path>
                <path d="M24.5204071,24.9456165 C24.5204071,23.787075 25.5680244,23.2262916 28.1624178,23.0229306 C28.1731143,22.6896297 28.0357504,22.3686846 27.7872329,22.1463269 C27.5387155,21.9239692 27.2045297,21.8230014 26.8744648,21.8705516 C26.2506866,21.9084156 25.6475184,22.1080558 25.1243276,22.4498223 L24.736093,21.74114 C25.4321213,21.2965869 26.2340605,21.045582 27.0593384,21.0139704 C28.4828654,21.0139704 29.2100351,21.8335769 29.2100351,23.1954793 L29.2100351,26.2767067 L28.3472914,26.2767067 L28.2610171,25.6111616 L28.2302048,25.6111616 C27.6730187,26.0763293 26.9825042,26.3525351 26.2582193,26.3999558 C25.2660641,26.4369305 24.5204071,25.8823096 24.5204071,24.9456165 Z M28.1624178,24.9148042 L28.1624178,23.6823133 C26.1349702,23.8425371 25.5372121,24.2430966 25.5372121,24.8655046 C25.5372121,25.3831507 25.9993962,25.5926742 26.5601796,25.5926742 C27.1569466,25.5603876 27.7236805,25.3206156 28.1624178,24.9148042 L28.1624178,24.9148042 Z" id="Shape" fill="#FFFFFF"></path>
                <path d="M30.9786596,21.1495444 L31.8352408,21.1495444 L31.9215151,21.9814758 L31.9646523,21.9814758 C32.4307963,21.4044111 33.1216664,21.0544899 33.8626884,21.0201328 C35.0951793,21.0201328 35.6128255,21.7719523 35.6128255,23.109205 L35.6128255,26.3075189 L34.5652082,26.3075189 L34.5652082,23.2262916 C34.5652082,22.3265732 34.2694104,21.9075263 33.4867786,21.9075263 C32.9057988,21.9646044 32.3789001,22.2730878 32.0447642,22.7517826 L32.0447642,26.3075189 L30.9786596,26.3075189 L30.9786596,21.1495444 Z" id="Shape" fill="#FFFFFF"></path>
                <path d="M38.601616,25.4571002 C38.618501,24.9373184 39.0505745,24.527947 39.5705105,24.5391134 C40.0904466,24.5502798 40.5045461,24.977824 40.4990996,25.4978515 C40.4936532,26.0178789 40.0706899,26.4366563 39.550634,26.4369305 C39.2924172,26.4406036 39.0441395,26.3375092 38.8644742,26.1520105 C38.6848088,25.9665118 38.5896971,25.7150679 38.601616,25.4571002 L38.601616,25.4571002 Z" id="Shape" fill="#FFFFFF"></path>
                <path d="M43.4206555,25.6358114 L43.8828396,24.9579414 C44.5236478,25.4109922 45.2919877,25.6484006 46.0766735,25.6358114 C46.8654677,25.6358114 47.2475399,25.3215262 47.2475399,24.9271291 C47.2475399,24.532732 47.0380164,24.3108836 45.7377385,24.0643854 C44.4374606,23.8178873 43.7534281,23.312566 43.7534281,22.5299342 C43.7534281,21.7473025 44.5237349,21.0201328 45.9595869,21.0201328 C46.7124177,21.0402365 47.4437545,21.2754618 48.0671463,21.6980029 L47.5803124,22.3512231 C47.0717235,22.0094748 46.4737187,21.8251436 45.8609876,21.821252 C45.0783558,21.821252 44.7948829,22.1170498 44.7948829,22.4744721 C44.7948829,22.8318945 45.2077674,23.041418 46.206085,23.2571039 C47.8945976,23.6268512 48.3136445,24.058223 48.3136445,24.8593421 C48.3136445,25.6604612 47.4509009,26.4369305 45.9410995,26.4369305 C45.0402617,26.4247241 44.1632235,26.145959 43.4206555,25.6358114 L43.4206555,25.6358114 Z" id="Shape" fill="#FFFFFF"></path>
                <path d="M49.9775073,18.826299 L51.0189621,18.826299 L51.0189621,20.8106094 L50.9573376,21.9691509 L50.9881499,21.9691509 C51.4387194,21.4010287 52.1126255,21.0550903 52.8368863,21.0201328 C54.0693772,21.0201328 54.5870234,21.7719523 54.5870234,23.109205 L54.5870234,26.3075189 L53.5394061,26.3075189 L53.5394061,23.2262916 C53.5394061,22.3265732 53.2436083,21.9075263 52.4609765,21.9075263 C51.87534,21.9517255 51.338865,22.2515203 50.9943123,22.7271328 L50.9943123,26.2828691 L49.9775073,26.2828691 L49.9775073,18.826299 Z" id="Shape" fill="#FFFFFF"></path>
                <path d="M29.5797824,41.5657567 L17.945068,41.5657567 C17.604725,41.5657567 17.3288225,41.2898542 17.3288225,40.9495112 C17.3288225,40.6091682 17.604725,40.3332658 17.945068,40.3332658 L29.5797824,40.3332658 C29.9201253,40.3332658 30.1960278,40.6091682 30.1960278,40.9495112 C30.1960278,41.2898542 29.9201253,41.5657567 29.5797824,41.5657567 Z" id="Shape" fill="#FFFFFF"></path>
                <path d="M41.2884462,41.5657567 L33.6839772,41.5657567 C33.3436342,41.5657567 33.0677317,41.2898542 33.0677317,40.9495112 C33.0677317,40.6091682 33.3436342,40.3332658 33.6839772,40.3332658 L41.2884462,40.3332658 C41.6287892,40.3332658 41.9046917,40.6091682 41.9046917,40.9495112 C41.9046917,41.2898542 41.6287892,41.5657567 41.2884462,41.5657567 Z" id="Shape" fill="#FFFFFF"></path>
                <path d="M54.1803014,53.4901065 L46.6066446,53.4901065 C46.2663016,53.4901065 45.9903991,53.214204 45.9903991,52.873861 C45.9903991,52.533518 46.2663016,52.2576155 46.6066446,52.2576155 L54.1864638,52.2576155 C54.5268068,52.2576155 54.8027093,52.533518 54.8027093,52.873861 C54.8027093,53.214204 54.5268068,53.4901065 54.1864638,53.4901065 L54.1803014,53.4901065 Z" id="Shape" fill="#FFFFFF"></path>
                <path d="M49.6632221,47.506363 L27.3489738,47.506363 C27.0086308,47.506363 26.7327283,47.2304605 26.7327283,46.8901175 C26.7327283,46.5497745 27.0086308,46.273872 27.3489738,46.273872 L49.6632221,46.273872 C50.0035651,46.273872 50.2794676,46.5497745 50.2794676,46.8901175 C50.2794676,47.2304605 50.0035651,47.506363 49.6632221,47.506363 Z" id="Shape" fill="#FFFFFF"></path>
                <path d="M42.4716375,53.4901065 L27.3489738,53.4901065 C27.0086308,53.4901065 26.7327283,53.214204 26.7327283,52.873861 C26.7327283,52.533518 27.0086308,52.2576155 27.3489738,52.2576155 L42.4716375,52.2576155 C42.8119805,52.2576155 43.087883,52.533518 43.087883,52.873861 C43.087883,53.214204 42.8119805,53.4901065 42.4716375,53.4901065 Z" id="Shape" fill="#FFFFFF"></path>
                <path d="M11.7086639,53.3915072 L11.0307938,53.3915072 C10.6904509,53.3915072 10.4145484,53.1156047 10.4145484,52.7752617 C10.4145484,52.4349187 10.6904509,52.1590162 11.0307938,52.1590162 L11.7086639,52.1590162 C12.0490068,52.1590162 12.3249093,52.4349187 12.3249093,52.7752617 C12.3249093,53.1156047 12.0490068,53.3915072 11.7086639,53.3915072 Z" id="Shape" fill="#FFFFFF"></path>
                <path d="M11.7086639,47.4077637 L11.0307938,47.4077637 C10.6904509,47.4077637 10.4145484,47.1318612 10.4145484,46.7915182 C10.4145484,46.4511753 10.6904509,46.1752728 11.0307938,46.1752728 L11.7086639,46.1752728 C12.0490068,46.1752728 12.3249093,46.4511753 12.3249093,46.7915182 C12.3249093,47.1318612 12.0490068,47.4077637 11.7086639,47.4077637 Z" id="Shape" fill="#FFFFFF"></path>
                <path d="M11.7086639,41.4671574 L11.0307938,41.4671574 C10.6904509,41.4671574 10.4145484,41.1912549 10.4145484,40.8509119 C10.4145484,40.510569 10.6904509,40.2346665 11.0307938,40.2346665 L11.7086639,40.2346665 C12.0490068,40.2346665 12.3249093,40.510569 12.3249093,40.8509119 C12.3249093,41.1912549 12.0490068,41.4671574 11.7086639,41.4671574 Z" id="Shape" fill="#FFFFFF"></path>
                <path d="M29.5797824,59.325951 L17.945068,59.325951 C17.604725,59.325951 17.3288225,59.0500485 17.3288225,58.7097055 C17.3288225,58.3693626 17.604725,58.0934601 17.945068,58.0934601 L29.5797824,58.0934601 C29.9201253,58.0934601 30.1960278,58.3693626 30.1960278,58.7097055 C30.1960278,59.0500485 29.9201253,59.325951 29.5797824,59.325951 Z" id="Shape" fill="#FFFFFF"></path>
                <path d="M41.2884462,59.325951 L33.6839772,59.325951 C33.3436342,59.325951 33.0677317,59.0500485 33.0677317,58.7097055 C33.0677317,58.3693626 33.3436342,58.0934601 33.6839772,58.0934601 L41.2884462,58.0934601 C41.6287892,58.0934601 41.9046917,58.3693626 41.9046917,58.7097055 C41.9046917,59.0500485 41.6287892,59.325951 41.2884462,59.325951 Z" id="Shape" fill="#FFFFFF"></path>
                <path d="M49.6632221,65.2665573 L27.3489738,65.2665573 C27.0086308,65.2665573 26.7327283,64.9906548 26.7327283,64.6503118 C26.7327283,64.3099689 27.0086308,64.0340664 27.3489738,64.0340664 L49.6632221,64.0340664 C50.0035651,64.0340664 50.2794676,64.3099689 50.2794676,64.6503118 C50.2794676,64.9906548 50.0035651,65.2665573 49.6632221,65.2665573 Z" id="Shape" fill="#FFFFFF"></path>
                <path d="M11.7086639,65.167958 L11.0307938,65.167958 C10.6904509,65.167958 10.4145484,64.8920555 10.4145484,64.5517126 C10.4145484,64.2113696 10.6904509,63.9354671 11.0307938,63.9354671 L11.7086639,63.9354671 C12.0490068,63.9354671 12.3249093,64.2113696 12.3249093,64.5517126 C12.3249093,64.8920555 12.0490068,65.167958 11.7086639,65.167958 Z" id="Shape" fill="#FFFFFF"></path>
                <path d="M11.7086639,59.2273517 L11.0307938,59.2273517 C10.6904509,59.2273517 10.4145484,58.9514492 10.4145484,58.6111063 C10.4145484,58.2707633 10.6904509,57.9948608 11.0307938,57.9948608 L11.7086639,57.9948608 C12.0490068,57.9948608 12.3249093,58.2707633 12.3249093,58.6111063 C12.3249093,58.9514492 12.0490068,59.2273517 11.7086639,59.2273517 Z" id="Shape" fill="#FFFFFF"></path>
            </g>
        </g>
    </g>
</svg>
