<?xml version="1.0" encoding="UTF-8"?>
<svg width="1440px" height="323px" viewBox="0 0 1440 323" version="1.1" xmlns="http://www.w3.org/2000/svg" xmlns:xlink="http://www.w3.org/1999/xlink">
    <!-- Generator: Sketch 45.2 (43514) - http://www.bohemiancoding.com/sketch -->
    <title>polygons</title>
    <desc>Created with Sketch.</desc>
    <defs>
        <linearGradient x1="35.3326896%" y1="14.6673104%" x2="35.3326896%" y2="82.4362682%" id="linearGradient-1">
            <stop stop-color="#65B0CB" stop-opacity="0.95983356" offset="0%"></stop>
            <stop stop-color="#B2EBFF" offset="100%"></stop>
        </linearGradient>
    </defs>
    <g id="Habitat-Web-UI/Global-Nav-Pages/desktop" stroke="none" stroke-width="1" fill="none" fill-rule="evenodd">
        <g id="Habitat-Web---Tutorials---V2" transform="translate(0.000000, -1288.000000)" fill-rule="nonzero">
            <g id="polygon" transform="translate(720.000000, 1449.500000) rotate(180.000000) translate(-720.000000, -1449.500000) translate(0.000000, 1288.000000)">
                <polygon id="polygon_bg" fill="url(#linearGradient-1)" points="1292 13.82 1154 7.77 1116 30.23 1048 50.09 970 4.32 898 25.91 816 16.41 766 25.91 722 38 678 31.09 568 35.41 482 6.91 430 31.09 368 15.54 270 0 202 18.14 112 38.86 0 31.09 0 74.27 0 117.02 0 160.21 0 203.39 0 246.57 0 289.32 84 304 152 309.18 186 314.36 316 312.64 414 302.27 446 288.45 538 294.5 594 309.18 704 292.77 798 315.23 918 268.59 946 272.91 986 285.86 1034 283.27 1128 323 1250 278.95 1300 291.91 1440 289.32 1440 246.57 1440 203.39 1440 160.21 1440 117.02 1440 74.27 1440 31.09"></polygon>
                <g style="mix-blend-mode: luminosity;" id="Shape">
                    <polygon fill="#5F8B81" points="0 31.0587414 0 74.1924941 14 66.4299868"></polygon>
                    <polygon fill="#6EA090" points="0 116.89064 0 160.024393 66 130.263759"></polygon>
                    <polygon fill="#6C9D8D" points="0 116.89064 66 130.263759 70 124.226253"></polygon>
                    <polygon fill="#77AE99" points="0 160.024393 0 203.158146 100 182.885021"></polygon>
                    <polygon fill="#75AA96" points="92 168.222507 0 160.024393 100 182.885021"></polygon>
                    <polygon fill="#72A693" points="66 130.263759 0 160.024393 92 168.222507"></polygon>
                    <polygon fill="#7EB9A0" points="0 203.158146 0 246.291899 106 216.531264"></polygon>
                    <polygon fill="#6A9B8C" points="0 116.89064 70 124.226253 112 107.838738"></polygon>
                    <polygon fill="#5D887F" points="0 31.0587414 14 66.4299868 112 38.8212487"></polygon>
                    <polygon fill="#7BB39C" points="100 182.885021 0 203.158146 106 216.531264"></polygon>
                    <polygon fill="#68968A" points="0 74.1924941 0 116.89064 112 107.838738"></polygon>
                    <polygon fill="#5E8B81" points="112 38.8212487 14 66.4299868 118 62.1087706"></polygon>
                    <polygon fill="#639185" points="14 66.4299868 112 107.838738 118 62.1087706"></polygon>
                    <polygon fill="#649286" points="14 66.4299868 0 74.1924941 112 107.838738"></polygon>
                    <polygon fill="#81BCA2" points="106 216.531264 0 246.291899 150 237.231284"></polygon>
                    <polygon fill="#8AC8AB" points="0 246.291899 0 288.998757 84 303.661271"></polygon>
                    <polygon fill="#5E8880" points="112 38.8212487 118 62.1087706 158 47.4462568"></polygon>
                    <polygon fill="#87C4A8" points="0 246.291899 84 303.661271 150 237.231284"></polygon>
                    <polygon fill="#76AB97" points="92 168.222507 100 182.885021 188 166.497505"></polygon>
                    <polygon fill="#76AC98" points="100 182.885021 186 178.572517 188 166.497505"></polygon>
                    <polygon fill="#6C9D8D" points="70 124.226253 66 130.263759 112 107.838738"></polygon>
                    <polygon fill="#7FB9A0" points="106 216.531264 150 237.231284 198 215.668764"></polygon>
                    <polygon fill="#73A794" points="92 168.222507 188 166.497505 204 150.101278"></polygon>
                    <polygon fill="#5B857C" points="112 38.8212487 158 47.4462568 202 18.112517"></polygon>
                    <polygon fill="#659386" points="118 62.1087706 112 107.838738 206 90.5800095"></polygon>
                    <polygon fill="#71A493" points="66 130.263759 92 168.222507 204 150.101278"></polygon>
                    <polygon fill="#79B19B" points="100 182.885021 106 216.531264 186 178.572517"></polygon>
                    <polygon fill="#6D9E8E" points="112 107.838738 66 130.263759 204 150.101278"></polygon>
                    <polygon fill="#7CB39D" points="186 178.572517 106 216.531264 198 215.668764"></polygon>
                    <polygon fill="#618D83" points="158 47.4462568 118 62.1087706 206 90.5800095"></polygon>
                    <polygon fill="#8CCAAB" points="150 237.231284 84 303.661271 152 308.836276"></polygon>
                    <polygon fill="#82BCA3" points="198 215.668764 150 237.231284 216 246.727505"></polygon>
                    <polygon fill="#628E84" points="158 47.4462568 206 90.5800095 236 74.1924941"></polygon>
                    <polygon fill="#88C5A9" points="150 237.231284 152 308.836276 216 246.727505"></polygon>
                    <polygon fill="#6A9B8C" points="112 107.838738 204 150.101278 206 90.5800095"></polygon>
                    <polygon fill="#7AB09B" points="186 178.572517 198 215.668764 260 186.335024"></polygon>
                    <polygon fill="#76AD97" points="188 166.497505 186 178.572517 260 186.335024"></polygon>
                    <polygon fill="#74AA96" points="204 150.101278 188 166.497505 260 186.335024"></polygon>
                    <polygon fill="#5D877F" points="202 18.112517 158 47.4462568 236 74.1924941"></polygon>
                    <polygon fill="#8CCCAC" points="152 308.836276 186 314.01128 216 246.727505"></polygon>
                    <polygon fill="#81BBA2" points="198 215.668764 216 246.727505 298 226.018773"></polygon>
                    <polygon fill="#75A996" points="204 150.101278 260 186.335024 308 168.222507"></polygon>
                    <polygon fill="#7CB49D" points="260 186.335024 198 215.668764 298 226.018773"></polygon>
                    <polygon fill="#76AC98" points="308 168.222507 260 186.335024 316 175.985014"></polygon>
                    <polygon fill="#8CCCAD" points="216 246.727505 186 314.01128 316 312.286279"></polygon>
                    <polygon fill="#5D877F" points="202 18.112517 236 74.1924941 354 52.6212617"></polygon>
                    <polygon fill="#6A9B8C" points="206 90.5800095 204 150.101278 360 106.105024"></polygon>
                    <polygon fill="#669487" points="236 74.1924941 206 90.5800095 360 106.105024"></polygon>
                    <polygon fill="#59827B" points="270 0 202 18.112517 354 52.6212617"></polygon>
                    <polygon fill="#7BB29B" points="260 186.335024 298 226.018773 316 175.985014"></polygon>
                    <polygon fill="#59827B" points="270 0 354 52.6212617 368 15.5250146"></polygon>
                    <polygon fill="#6FA290" points="204 150.101278 308 168.222507 360 106.105024"></polygon>
                    <polygon fill="#639185" points="354 52.6212617 236 74.1924941 360 106.105024"></polygon>
                    <polygon fill="#87C4A8" points="298 226.018773 216 246.727505 316 312.286279"></polygon>
                    <polygon fill="#88C5A9" points="298 226.018773 316 312.286279 408 265.702523"></polygon>
                    <polygon fill="#8DCCAE" points="408 265.702523 316 312.286279 414 301.936269"></polygon>
                    <polygon fill="#83BFA3" points="298 226.018773 408 265.702523 424 235.506282"></polygon>
                    <polygon fill="#5B857D" points="368 15.5250146 354 52.6212617 428 40.5462503"></polygon>
                    <polygon fill="#59837C" points="368 15.5250146 428 40.5462503 430 31.0587414"></polygon>
                    <polygon fill="#7BB29C" points="316 175.985014 298 226.018773 440 191.510029"></polygon>
                    <polygon fill="#8CCAAD" points="408 265.702523 414 301.936269 446 288.136256"></polygon>
                    <polygon fill="#7EB7A0" points="298 226.018773 424 235.506282 440 191.510029"></polygon>
                    <polygon fill="#5B857E" points="430 31.0587414 428 40.5462503 466 42.2712519"></polygon>
                    <polygon fill="#669487" points="354 52.6212617 360 106.105024 434 106.967525"></polygon>
                    <polygon fill="#5E8981" points="466 42.2712519 428 40.5462503 488 74.1924941"></polygon>
                    <polygon fill="#5F8A81" points="428 40.5462503 354 52.6212617 488 74.1924941"></polygon>
                    <polygon fill="#639185" points="354 52.6212617 434 106.967525 488 74.1924941"></polygon>
                    <polygon fill="#77AD98" points="308 168.222507 316 175.985014 440 191.510029"></polygon>
                    <polygon fill="#6D9F8F" points="360 106.105024 308 168.222507 434 106.967525"></polygon>
                    <polygon fill="#5E8B81" points="466 42.2712519 488 74.1924941 488 45.7212552"></polygon>
                    <polygon fill="#73A694" points="434 106.967525 308 168.222507 440 191.510029"></polygon>
                    <polygon fill="#5F8B82" points="488 45.7212552 488 74.1924941 508 54.3462633"></polygon>
                    <polygon fill="#59837B" points="430 31.0587414 466 42.2712519 482 6.9000065"></polygon>
                    <polygon fill="#5C867E" points="466 42.2712519 488 45.7212552 512 40.5462503"></polygon>
                    <polygon fill="#618D83" points="488 74.1924941 506 71.6049916 508 54.3462633"></polygon>
                    <polygon fill="#79AF9A" points="510 182.02252 440 191.510029 520 199.281248"></polygon>
                    <polygon fill="#5D8880" points="488 45.7212552 508 54.3462633 512 40.5462503"></polygon>
                    <polygon fill="#7CB69E" points="440 191.510029 424 235.506282 520 199.281248"></polygon>
                    <polygon fill="#5A837B" points="482 6.9000065 466 42.2712519 512 40.5462503"></polygon>
                    <polygon fill="#74A895" points="434 106.967525 440 191.510029 510 182.02252"></polygon>
                    <polygon fill="#639086" points="556 71.6049916 506 71.6049916 558 90.5800095"></polygon>
                    <polygon fill="#669488" points="488 74.1924941 434 106.967525 558 90.5800095"></polygon>
                    <polygon fill="#639085" points="506 71.6049916 488 74.1924941 558 90.5800095"></polygon>
                    <polygon fill="#618D83" points="508 54.3462633 506 71.6049916 556 71.6049916"></polygon>
                    <polygon fill="#5D877E" points="512 40.5462503 508 54.3462633 568 35.3712454"></polygon>
                    <polygon fill="#5A837B" points="482 6.9000065 512 40.5462503 568 35.3712454"></polygon>
                    <polygon fill="#87C4A8" points="424 235.506282 408 265.702523 446 288.136256"></polygon>
                    <polygon fill="#5F8A81" points="508 54.3462633 556 71.6049916 568 35.3712454"></polygon>
                    <polygon fill="#89C6AA" points="424 235.506282 446 288.136256 538 294.173762"></polygon>
                    <polygon fill="#87C4A8" points="424 235.506282 538 294.173762 612 263.977521"></polygon>
                    <polygon fill="#82BDA3" points="592 214.806263 424 235.506282 612 263.977521"></polygon>
                    <polygon fill="#7EB89F" points="520 199.281248 424 235.506282 592 214.806263"></polygon>
                    <polygon fill="#8CCBAD" points="538 294.173762 594 308.836276 612 263.977521"></polygon>
                    <polygon fill="#6C9E8E" points="434 106.967525 510 182.02252 558 90.5800095"></polygon>
                    <polygon fill="#7AB09A" points="510 182.02252 520 199.281248 648 195.831245"></polygon>
                    <polygon fill="#7BB39D" points="520 199.281248 592 214.806263 648 195.831245"></polygon>
                    <polygon fill="#6FA291" points="558 90.5800095 510 182.02252 654 145.788774"></polygon>
                    <polygon fill="#76AB97" points="510 182.02252 648 195.831245 654 145.788774"></polygon>
                    <polygon fill="#8CCAAC" points="612 263.977521 594 308.836276 704 292.44876"></polygon>
                    <polygon fill="#5C877F" points="568 35.3712454 556 71.6049916 678 31.0587414"></polygon>
                    <polygon fill="#83BFA4" points="592 214.806263 612 263.977521 704 251.90251"></polygon>
                    <polygon fill="#86C2A7" points="704 251.90251 612 263.977521 716 260.527518"></polygon>
                    <polygon fill="#89C6AA" points="612 263.977521 704 292.44876 716 260.527518"></polygon>
                    <polygon fill="#7FB8A0" points="648 195.831245 592 214.806263 704 251.90251"></polygon>
                    <polygon fill="#69998B" points="558 90.5800095 654 145.788774 754 88.8550079"></polygon>
                    <polygon fill="#659286" points="556 71.6049916 558 90.5800095 754 88.8550079"></polygon>
                    <polygon fill="#608C83" points="678 31.0587414 556 71.6049916 754 88.8550079"></polygon>
                    <polygon fill="#5E8980" points="722 37.9587479 678 31.0587414 754 88.8550079"></polygon>
                    <polygon fill="#75AB97" points="654 145.788774 648 195.831245 768 173.397512"></polygon>
                    <polygon fill="#5B857D" points="722 37.9587479 756 42.2712519 766 25.8837365"></polygon>
                    <polygon fill="#7FB8A0" points="648 195.831245 704 251.90251 778 216.531264"></polygon>
                    <polygon fill="#5F8B81" points="722 37.9587479 754 88.8550079 756 42.2712519"></polygon>
                    <polygon fill="#7AB29B" points="768 173.397512 648 195.831245 778 216.531264"></polygon>
                    <polygon fill="#85C1A6" points="704 251.90251 716 260.527518 802 239.818786"></polygon>
                    <polygon fill="#81BDA3" points="778 216.531264 704 251.90251 802 239.818786"></polygon>
                    <polygon fill="#5F8C82" points="756 42.2712519 754 88.8550079 786 48.3087576"></polygon>
                    <polygon fill="#80BAA1" points="778 216.531264 802 239.818786 804 222.56877"></polygon>
                    <polygon fill="#5B857E" points="766 25.8837365 756 42.2712519 786 48.3087576"></polygon>
                    <polygon fill="#86C3A7" points="802 239.818786 716 260.527518 830 275.190032"></polygon>
                    <polygon fill="#89C7AA" points="716 260.527518 704 292.44876 830 275.190032"></polygon>
                    <polygon fill="#8DCDAD" points="704 292.44876 798 314.873781 830 275.190032"></polygon>
                    <polygon fill="#5A837C" points="766 25.8837365 786 48.3087576 816 16.3875154"></polygon>
                    <polygon fill="#6FA091" points="754 88.8550079 654 145.788774 768 173.397512"></polygon>
                    <polygon fill="#86C3A6" points="802 239.818786 830 275.190032 848 252.765011"></polygon>
                    <polygon fill="#7AB09B" points="768 173.397512 778 216.531264 868 184.610022"></polygon>
                    <polygon fill="#7CB49E" points="778 216.531264 804 222.56877 868 184.610022"></polygon>
                    <polygon fill="#6FA08F" points="754 88.8550079 768 173.397512 884 141.47627"></polygon>
                    <polygon fill="#81BCA2" points="804 222.56877 802 239.818786 892 234.643781"></polygon>
                    <polygon fill="#83BFA3" points="802 239.818786 848 252.765011 892 234.643781"></polygon>
                    <polygon fill="#5A847C" points="816 16.3875154 786 48.3087576 898 25.8837365"></polygon>
                    <polygon fill="#74A996" points="768 173.397512 868 184.610022 884 141.47627"></polygon>
                    <polygon fill="#88C5A8" points="848 252.765011 830 275.190032 918 268.290025"></polygon>
                    <polygon fill="#7DB79E" points="868 184.610022 804 222.56877 892 234.643781"></polygon>
                    <polygon fill="#5C867E" points="898 25.8837365 786 48.3087576 932 43.9962535"></polygon>
                    <polygon fill="#85C1A6" points="892 234.643781 848 252.765011 918 268.290025"></polygon>
                    <polygon fill="#83BFA4" points="914 234.643781 892 234.643781 918 268.290025"></polygon>
                    <polygon fill="#7EB89F" points="868 184.610022 892 234.643781 914 234.643781"></polygon>
                    <polygon fill="#5F8C82" points="786 48.3087576 754 88.8550079 932 43.9962535"></polygon>
                    <polygon fill="#8CCBAD" points="830 275.190032 798 314.873781 918 268.290025"></polygon>
                    <polygon fill="#88C5A9" points="918 268.290025 946 272.602529 984 259.665017"></polygon>
                    <polygon fill="#83BFA3" points="978 232.056279 914 234.643781 984 259.665017"></polygon>
                    <polygon fill="#85C2A6" points="914 234.643781 918 268.290025 984 259.665017"></polygon>
                    <polygon fill="#669487" points="754 88.8550079 884 141.47627 932 43.9962535"></polygon>
                    <polygon fill="#5A837B" points="898 25.8837365 932 43.9962535 970 4.31250406"></polygon>
                    <polygon fill="#89C7AA" points="984 259.665017 946 272.602529 986 285.540042"></polygon>
                    <polygon fill="#679588" points="932 43.9962535 884 141.47627 1014 90.5800095"></polygon>
                    <polygon fill="#7EB7A0" points="868 184.610022 914 234.643781 978 232.056279"></polygon>
                    <polygon fill="#628E84" points="932 43.9962535 1014 90.5800095 1024 69.87999"></polygon>
                    <polygon fill="#84C0A5" points="978 232.056279 984 259.665017 1016 257.077515"></polygon>
                    <polygon fill="#88C6A9" points="1016 257.077515 1034 282.961251 1042 264.840022"></polygon>
                    <polygon fill="#89C7AA" points="1016 257.077515 986 285.540042 1034 282.961251"></polygon>
                    <polygon fill="#88C5A9" points="984 259.665017 986 285.540042 1016 257.077515"></polygon>
                    <polygon fill="#5F8A81" points="932 43.9962535 1024 69.87999 1048 50.0337592"></polygon>
                    <polygon fill="#5B847C" points="970 4.31250406 932 43.9962535 1048 50.0337592"></polygon>
                    <polygon fill="#6B9C8C" points="1014 90.5800095 884 141.47627 1072 118.188748"></polygon>
                    <polygon fill="#7BB39D" points="868 184.610022 1058 213.943762 1076 201.00625"></polygon>
                    <polygon fill="#7DB59E" points="868 184.610022 978 232.056279 1058 213.943762"></polygon>
                    <polygon fill="#82BDA3" points="978 232.056279 1016 257.077515 1058 213.943762"></polygon>
                    <polygon fill="#76AB97" points="884 141.47627 868 184.610022 1076 201.00625"></polygon>
                    <polygon fill="#74AA96" points="884 141.47627 1076 201.00625 1100 161.3225"></polygon>
                    <polygon fill="#71A492" points="1096 135.438764 884 141.47627 1100 161.3225"></polygon>
                    <polygon fill="#6D9F8F" points="1072 118.188748 884 141.47627 1096 135.438764"></polygon>
                    <polygon fill="#83BFA4" points="1016 257.077515 1042 264.840022 1058 213.943762"></polygon>
                    <polygon fill="#6D9E8E" points="1072 118.188748 1096 135.438764 1128 129.401258"></polygon>
                    <polygon fill="#639185" points="1024 69.87999 1014 90.5800095 1140 82.8175022"></polygon>
                    <polygon fill="#679588" points="1014 90.5800095 1072 118.188748 1140 82.8175022"></polygon>
                    <polygon fill="#628E83" points="1048 50.0337592 1024 69.87999 1140 82.8175022"></polygon>
                    <polygon fill="#6FA391" points="1096 135.438764 1100 161.3225 1128 129.401258"></polygon>
                    <polygon fill="#5C877F" points="1116 30.1962405 1048 50.0337592 1174 56.9337657"></polygon>
                    <polygon fill="#618D82" points="1048 50.0337592 1140 82.8175022 1174 56.9337657"></polygon>
                    <polygon fill="#6A998C" points="1072 118.188748 1128 129.401258 1140 82.8175022"></polygon>
                    <polygon fill="#77AD99" points="1100 161.3225 1076 201.00625 1194 179.435017"></polygon>
                    <polygon fill="#82BDA3" points="1058 213.943762 1042 264.840022 1206 237.231284"></polygon>
                    <polygon fill="#7DB79F" points="1076 201.00625 1058 213.943762 1206 237.231284"></polygon>
                    <polygon fill="#72A693" points="1128 129.401258 1100 161.3225 1194 179.435017"></polygon>
                    <polygon fill="#5A847C" points="1154 7.76250731 1116 30.1962405 1174 56.9337657"></polygon>
                    <polygon fill="#8DCCAD" points="1042 264.840022 1034 282.961251 1128 322.636289"></polygon>
                    <polygon fill="#7CB49D" points="1194 179.435017 1076 201.00625 1206 237.231284"></polygon>
                    <polygon fill="#8CCBAD" points="1042 264.840022 1128 322.636289 1250 278.640035"></polygon>
                    <polygon fill="#87C4A7" points="1206 237.231284 1042 264.840022 1250 278.640035"></polygon>
                    <polygon fill="#85C2A6" points="1234 249.315007 1206 237.231284 1250 278.640035"></polygon>
                    <polygon fill="#5B847C" points="1154 7.76250731 1174 56.9337657 1296 36.2337462"></polygon>
                    <polygon fill="#58807A" points="1292 13.800013 1154 7.76250731 1296 36.2337462"></polygon>
                    <polygon fill="#83BEA3" points="1206 237.231284 1234 249.315007 1310 229.468777"></polygon>
                    <polygon fill="#72A593" points="1128 129.401258 1194 179.435017 1316 151.834991"></polygon>
                    <polygon fill="#5E8981" points="1296 36.2337462 1174 56.9337657 1326 62.1087706"></polygon>
                    <polygon fill="#7EB79F" points="1194 179.435017 1206 237.231284 1310 229.468777"></polygon>
                    <polygon fill="#87C4A7" points="1234 249.315007 1250 278.640035 1342 253.627511"></polygon>
                    <polygon fill="#83BFA4" points="1310 229.468777 1234 249.315007 1342 253.627511"></polygon>
                    <polygon fill="#89C7AA" points="1250 278.640035 1300 291.586259 1342 253.627511"></polygon>
                    <polygon fill="#618D83" points="1174 56.9337657 1140 82.8175022 1326 62.1087706"></polygon>
                    <polygon fill="#6C9D8E" points="1140 82.8175022 1128 129.401258 1316 151.834991"></polygon>
                    <polygon fill="#618C82" points="1358 58.6587673 1326 62.1087706 1366 60.383769"></polygon>
                    <polygon fill="#5E8981" points="1296 36.2337462 1326 62.1087706 1358 58.6587673"></polygon>
                    <polygon fill="#68968A" points="1140 82.8175022 1316 151.834991 1326 62.1087706"></polygon>
                    <polygon fill="#79AF9A" points="1194 179.435017 1310 229.468777 1316 151.834991"></polygon>
                    <polygon fill="#77AD98" points="1316 151.834991 1310 229.468777 1366 153.551281"></polygon>
                    <polygon fill="#88C6A9" points="1342 253.627511 1300 291.586259 1418 260.527518"></polygon>
                    <polygon fill="#7AB29B" points="1366 153.551281 1310 229.468777 1440 203.158146"></polygon>
                    <polygon fill="#8BC9AB" points="1418 260.527518 1300 291.586259 1440 288.998757"></polygon>
                    <polygon fill="#5D877E" points="1296 36.2337462 1358 58.6587673 1440 31.0587414"></polygon>
                    <polygon fill="#59827B" points="1292 13.800013 1296 36.2337462 1440 31.0587414"></polygon>
                    <polygon fill="#5D8880" points="1358 58.6587673 1366 60.383769 1440 31.0587414"></polygon>
                    <polygon fill="#5F8A81" points="1440 31.0587414 1366 60.383769 1440 74.1924941"></polygon>
                    <polygon fill="#649186" points="1366 60.383769 1326 62.1087706 1440 116.89064"></polygon>
                    <polygon fill="#6FA291" points="1316 151.834991 1366 153.551281 1440 116.89064"></polygon>
                    <polygon fill="#69998B" points="1326 62.1087706 1316 151.834991 1440 116.89064"></polygon>
                    <polygon fill="#659287" points="1440 74.1924941 1366 60.383769 1440 116.89064"></polygon>
                    <polygon fill="#70A291" points="1440 116.89064 1366 153.551281 1440 160.024393"></polygon>
                    <polygon fill="#75AB97" points="1366 153.551281 1440 203.158146 1440 160.024393"></polygon>
                    <polygon fill="#85C2A6" points="1342 253.627511 1418 260.527518 1440 246.291899"></polygon>
                    <polygon fill="#80BAA1" points="1440 203.158146 1310 229.468777 1440 246.291899"></polygon>
                    <polygon fill="#83BFA4" points="1310 229.468777 1342 253.627511 1440 246.291899"></polygon>
                    <polygon fill="#88C5A9" points="1418 260.527518 1440 288.998757 1440 246.291899"></polygon>
                </g>
            </g>
        </g>
    </g>
</svg>
