
<svg width="37px" height="58px" viewBox="0 0 37 58" version="1.1" xmlns="http://www.w3.org/2000/svg" xmlns:xlink="http://www.w3.org/1999/xlink">
    <!-- Generator: Sketch 49.3 (51167) - http://www.bohemiancoding.com/sketch -->
    <desc>Created with Sketch.</desc>
    <defs></defs>
    <g id="Page-1" stroke="none" stroke-width="1" fill="none" fill-rule="evenodd">
        <g id="sign" fill-rule="nonzero">
            <rect id="Rectangle-path" fill="#DEBFA5" x="16.4532922" y="32.7618636" width="4.03555973" height="24.5919287"></rect>
            <path d="M15.3857239,35.5859982 L1.51490697,21.7076099 C0.69931701,20.892505 0.241082538,19.7866943 0.241082538,18.6336188 C0.241082538,17.4805433 0.69931701,16.3747327 1.51490697,15.5596277 L15.3857239,1.67366797 C16.2008288,0.85807801 17.3066395,0.399843538 18.459715,0.399843538 C19.6127905,0.399843538 20.7186012,0.85807801 21.5337061,1.67366797 L35.4272372,15.5444849 C36.2428272,16.3595898 36.7010617,17.4654005 36.7010617,18.618476 C36.7010617,19.7715515 36.2428272,20.8773622 35.4272372,21.6924671 L21.5488489,35.5859982 C20.733744,36.4015882 19.6279333,36.8598227 18.4748578,36.8598227 C17.3217823,36.8598227 16.2159717,36.4015882 15.4008667,35.5859982" id="Shape" fill="#87B09A"></path>
            <path d="M6.61046363,57.3537923 L31.066107,57.3537923 C31.066107,54.8197594 29.0118675,52.7655199 26.4778346,52.7655199 C26.0116889,52.7729749 25.5494684,52.8521398 25.10741,53.0002335 C23.6833456,50.9428492 21.3404423,49.7151414 18.8382853,49.7151414 C16.3361283,49.7151414 13.9932251,50.9428492 12.5691606,53.0002335 C12.1271023,52.8521398 11.6648817,52.7729749 11.198736,52.7655199 C9.9818505,52.7655199 8.8148055,53.2489257 7.95433751,54.1093937 C7.09386952,54.9698617 6.61046363,56.1369068 6.61046363,57.3537923 Z" id="Shape" fill="#9B8676"></path>
        </g>
    </g>
</svg>
