<?xml version="1.0" encoding="UTF-8"?>
<svg width="37px" height="58px" viewBox="0 0 37 58" version="1.1" xmlns="http://www.w3.org/2000/svg" xmlns:xlink="http://www.w3.org/1999/xlink">
    <!-- Generator: Sketch 45.2 (43514) - http://www.bohemiancoding.com/sketch -->
    <title>hab_sign</title>
    <desc>Created with Sketch.</desc>
    <defs></defs>
    <g id="Habitat-Web-UI/Global-Nav-Pages/desktop" stroke="none" stroke-width="1" fill="none" fill-rule="evenodd">
        <g id="Habitat-Web---Tutorials---V2" transform="translate(-999.000000, -973.000000)" fill-rule="nonzero">
            <g id="build-and-install-Habitat" transform="translate(370.000000, 700.000000)">
                <g id="hab_sign" transform="translate(628.485770, 272.644531)">
                    <rect id="Rectangle-path" fill="#DEBFA5" x="16.9675222" y="33.1173326" width="4.03555973" height="24.5919287"></rect>
                    <path d="M15.8999539,35.9414672 L2.02913697,22.0630789 C1.21354701,21.247974 0.755312538,20.1421633 0.755312538,18.9890878 C0.755312538,17.8360123 1.21354701,16.7302017 2.02913697,15.9150967 L15.8999539,2.02913697 C16.7150588,1.21354701 17.8208695,0.755312538 18.973945,0.755312538 C20.1270205,0.755312538 21.2328312,1.21354701 22.0479361,2.02913697 L35.9414672,15.8999539 C36.7570572,16.7150588 37.2152917,17.8208695 37.2152917,18.973945 C37.2152917,20.1270205 36.7570572,21.2328312 35.9414672,22.0479361 L22.0630789,35.9414672 C21.247974,36.7570572 20.1421633,37.2152917 18.9890878,37.2152917 C17.8360123,37.2152917 16.7302017,36.7570572 15.9150967,35.9414672" id="Shape" fill="#87B09A"></path>
                    <path d="M29.6117713,18.7013744 L27.0602073,16.1498103 C26.9455982,16.0380134 26.7755008,16.0050418 26.6274206,16.0659192 C26.4793405,16.1267966 26.3816179,16.269872 26.3787807,16.4299524 L26.3787807,17.3233784 C26.3787807,17.5450017 26.1991195,17.7246629 25.9774961,17.7246629 L24.5843573,17.7246629 C24.47793,17.7246629 24.3758617,17.6823848 24.3006063,17.6071294 C24.2253508,17.5318739 24.1830728,17.4298056 24.1830728,17.3233784 L24.1830728,15.5062408 C24.1830728,15.2846174 24.362734,15.1049562 24.5843573,15.1049562 L25.0537845,15.1049562 C25.2138649,15.102119 25.3569403,15.0043964 25.4178177,14.8563163 C25.4786951,14.7082361 25.4457235,14.5381386 25.3339266,14.4235296 L22.7823625,11.8719656 C22.626512,11.7200058 22.377929,11.7200058 22.2220784,11.8719656 L19.6856572,14.431101 C19.5738603,14.54571 19.5408887,14.7158075 19.6017661,14.8638877 C19.6626435,15.0119678 19.8057189,15.1096904 19.9657993,15.1125276 L20.5260834,15.1125276 C20.7477067,15.1125276 20.9273679,15.2921888 20.9273679,15.5138122 L20.9273679,17.3006641 C20.9273679,17.5222875 20.7477067,17.7019487 20.5260834,17.7019487 L17.4142352,17.7019487 C17.1926119,17.7019487 17.0129507,17.5222875 17.0129507,17.3006641 L17.0129507,15.5062408 C17.0325378,15.2995212 17.2065918,15.1418874 17.4142352,15.1428132 L17.9972335,15.1428132 C18.1573139,15.139976 18.3003894,15.0422534 18.3612667,14.8941733 C18.4221441,14.7460932 18.3891725,14.5759957 18.2773756,14.4613866 L15.7258116,11.9098226 C15.569961,11.7578628 15.321378,11.7578628 15.1655275,11.9098226 L12.6139634,14.4613866 C12.5021665,14.5759957 12.4691949,14.7460932 12.5300723,14.8941733 C12.5909497,15.0422534 12.7340251,15.139976 12.8941055,15.1428132 L13.3408185,15.1428132 C13.4472457,15.1428132 13.549314,15.1850913 13.6245695,15.2603468 C13.6998249,15.3356022 13.742103,15.4376705 13.742103,15.5440978 L13.742103,17.3688068 C13.742103,17.4752341 13.6998249,17.5773024 13.6245695,17.6525578 C13.549314,17.7278133 13.4472457,17.7700913 13.3408185,17.7700913 L11.9931081,17.7700913 C11.7714848,17.7700913 11.5918235,17.5904301 11.5918235,17.3688068 L11.5918235,16.4375238 C11.5889863,16.2774434 11.4912637,16.134368 11.3431836,16.0734906 C11.1951034,16.0126132 11.025006,16.0455848 10.9103969,16.1573817 L8.32854728,18.7013744 C8.17658746,18.8572249 8.17658746,19.1058079 8.32854728,19.2616584 L10.8801113,21.8132225 C10.9947203,21.9250194 11.1648178,21.957991 11.312898,21.8971136 C11.4609781,21.8362362 11.5587007,21.6931608 11.5615379,21.5330804 L11.5615379,20.6396545 C11.5615379,20.4180311 11.7411991,20.2383699 11.9628225,20.2383699 L13.3408185,20.2383699 C13.4472457,20.2383699 13.549314,20.280648 13.6245695,20.3559034 C13.6998249,20.4311589 13.742103,20.5332272 13.742103,20.6396545 L13.742103,22.4643634 C13.742103,22.5707907 13.6998249,22.672859 13.6245695,22.7481145 C13.549314,22.8233699 13.4472457,22.865648 13.3408185,22.865648 L12.8941055,22.865648 C12.7340251,22.8684852 12.5909497,22.9662078 12.5300723,23.114288 C12.4691949,23.2623681 12.5021665,23.4324656 12.6139634,23.5470746 L15.1655275,26.0986386 C15.321378,26.2505985 15.569961,26.2505985 15.7258116,26.0986386 L18.2773756,23.5470746 C18.3891725,23.4324656 18.4221441,23.2623681 18.3612667,23.114288 C18.3003894,22.9662078 18.1573139,22.8684852 17.9972335,22.865648 L17.4142352,22.865648 C17.1926119,22.865648 17.0129507,22.6859868 17.0129507,22.4643634 L17.0129507,20.6699401 C17.0129507,20.4483167 17.1926119,20.2686555 17.4142352,20.2686555 L20.4427979,20.2686555 C20.6644212,20.2686555 20.8440824,20.4483167 20.8440824,20.6699401 L20.8440824,22.4643634 C20.8440824,22.6859868 20.6644212,22.865648 20.4427979,22.865648 L19.8825138,22.865648 C19.7224334,22.8684852 19.579358,22.9662078 19.5184806,23.114288 C19.4576032,23.2623681 19.4905748,23.4324656 19.6023717,23.5470746 L22.1539358,26.0986386 C22.3097863,26.2505985 22.5583693,26.2505985 22.7142199,26.0986386 L25.2657839,23.5470746 C25.3775808,23.4324656 25.4105524,23.2623681 25.3496751,23.114288 C25.2887977,22.9662078 25.1457222,22.8684852 24.9856419,22.865648 L24.5162146,22.865648 C24.4097874,22.865648 24.3077191,22.8233699 24.2324636,22.7481145 C24.1572082,22.672859 24.1149301,22.5707907 24.1149301,22.4643634 L24.1149301,20.6396545 C24.1149301,20.4180311 24.2945913,20.2383699 24.5162146,20.2383699 L25.9169249,20.2383699 C26.1385482,20.2383699 26.3182094,20.4180311 26.3182094,20.6396545 L26.3182094,21.5330804 C26.3210467,21.6931608 26.4187692,21.8362362 26.5668494,21.8971136 C26.7149295,21.957991 26.885027,21.9250194 26.999636,21.8132225 L29.5512,19.2616584 C29.7031599,19.1058079 29.7031599,18.8572249 29.5512,18.7013744" id="Shape" fill="#FFFFFF"></path>
                    <path d="M7.12469363,57.7092613 L31.580337,57.7092613 C31.580337,55.1752284 29.5260975,53.1209889 26.9920646,53.1209889 C26.5259189,53.1284439 26.0636984,53.2076088 25.62164,53.3557025 C24.1975756,51.2983182 21.8546723,50.0706104 19.3525153,50.0706104 C16.8503583,50.0706104 14.5074551,51.2983182 13.0833906,53.3557025 C12.6413323,53.2076088 12.1791117,53.1284439 11.712966,53.1209889 C10.4960805,53.1209889 9.3290355,53.6043947 8.46856751,54.4648627 C7.60809952,55.3253307 7.12469363,56.4923758 7.12469363,57.7092613 L7.12469363,57.7092613 Z" id="Shape" fill="#9B8676"></path>
                </g>
            </g>
        </g>
    </g>
</svg>