<svg xmlns="http://www.w3.org/2000/svg" xmlns:xlink="http://www.w3.org/1999/xlink" viewBox="0 0 830 437"><defs><style>.cls-1,.cls-12,.cls-13{fill:none;}.cls-2{clip-path:url(#clip-path);}.cls-3{clip-path:url(#clip-path-2);}.cls-4{clip-path:url(#clip-path-3);}.cls-5{clip-path:url(#clip-path-4);}.cls-6{clip-path:url(#clip-path-5);}.cls-7{clip-path:url(#clip-path-6);}.cls-8{clip-path:url(#clip-path-7);}.cls-9{fill:#3d4f5f;}.cls-10{fill:#87b09a;}.cls-11{fill:#fff;}.cls-12,.cls-13{stroke-miterlimit:10;}.cls-12{stroke:url(#New_Gradient_Swatch_copy_2);}.cls-13{stroke:url(#New_Gradient_Swatch_copy_2-2);}.cls-14{fill:#799987;}.cls-15{fill:#657c6e;}.cls-16{fill:#4296b4;}.cls-17{fill:#9b8676;}.cls-18{fill:#80c4d6;}.cls-19{fill:#e2f0f7;}</style><clipPath id="clip-path"><ellipse class="cls-1" cx="-532.09" cy="-2007.56" rx="24.82" ry="24.54"/></clipPath><clipPath id="clip-path-2"><ellipse class="cls-1" cx="-595.82" cy="-2007.56" rx="24.82" ry="24.54"/></clipPath><clipPath id="clip-path-3"><ellipse class="cls-1" cx="-628.86" cy="-2068.5" rx="24.82" ry="24.54"/></clipPath><clipPath id="clip-path-4"><ellipse class="cls-1" cx="-565.14" cy="-2068.5" rx="24.82" ry="24.54"/></clipPath><clipPath id="clip-path-5"><ellipse class="cls-1" cx="-501.42" cy="-2068.5" rx="24.82" ry="24.54"/></clipPath><clipPath id="clip-path-6"><ellipse class="cls-1" cx="-437.69" cy="-2068.5" rx="24.82" ry="24.54"/></clipPath><clipPath id="clip-path-7"><ellipse class="cls-1" cx="-468.37" cy="-2007.56" rx="24.82" ry="24.54"/></clipPath><linearGradient id="New_Gradient_Swatch_copy_2" x1="255.19" y1="244.86" x2="565.42" y2="244.86" gradientUnits="userSpaceOnUse"><stop offset="0" stop-color="#2f789f"/><stop offset="1" stop-color="#70c2b2"/></linearGradient><linearGradient id="New_Gradient_Swatch_copy_2-2" x1="259.91" y1="227.13" x2="561.43" y2="227.13" xlink:href="#New_Gradient_Swatch_copy_2"/></defs><title>supervisor ring</title><g id="flow_text" data-name="flow text"><rect class="cls-9" x="-0.78" y="18.67" width="830" height="418"/><rect class="cls-10" x="336.76" y="-0.12" width="156.38" height="38.32" rx="8" ry="8"/><path class="cls-11" d="M363.52,14.65c-1,0-1.62.37-1.62,1,0,2.18,5.38,1,5.36,4.6,0,1.78-1.56,2.88-3.75,2.88a6.12,6.12,0,0,1-4.07-1.58l.73-1.45a5.25,5.25,0,0,0,3.37,1.45c1.17,0,1.86-.44,1.86-1.21,0-2.22-5.38-1-5.38-4.53,0-1.71,1.46-2.78,3.63-2.78a6.48,6.48,0,0,1,3.48,1l-.7,1.48A6,6,0,0,0,363.52,14.65Z"/><path class="cls-11" d="M376,15.53v7.57h-1.64V21.63a2.79,2.79,0,0,1-2.7,1.54,2.63,2.63,0,0,1-2.77-2.92V15.53h1.64v4.26a1.66,1.66,0,0,0,1.76,1.84,2.14,2.14,0,0,0,2.08-2.36V15.53Z"/><path class="cls-11" d="M386.37,19.35a3.51,3.51,0,0,1-3.58,3.82,3,3,0,0,1-2.67-1.37v4.07h-1.64V15.53h1.64v1.31a3,3,0,0,1,2.65-1.37A3.56,3.56,0,0,1,386.37,19.35Zm-1.65-.06a2.31,2.31,0,1,0-4.61,0,2.31,2.31,0,1,0,4.61,0Z"/><path class="cls-11" d="M393.61,20.75l1,.88a4.05,4.05,0,0,1-3.27,1.54,3.7,3.7,0,0,1-3.94-3.84,3.64,3.64,0,0,1,3.8-3.84,3.3,3.3,0,0,1,3.57,3.3l-5.5,1.65a2.26,2.26,0,0,0,2.18,1.42A2.87,2.87,0,0,0,393.61,20.75ZM389,19.24h0L393.14,18a1.85,1.85,0,0,0-1.89-1.21A2.15,2.15,0,0,0,389,19.24Z"/><path class="cls-11" d="M400.56,15.48V17a2.29,2.29,0,0,0-2.62,2.11v4h-1.64V15.53h1.64V17A2.75,2.75,0,0,1,400.56,15.48Z"/><path class="cls-11" d="M402.8,15.53l2.1,6,2.08-6h1.64l-2.9,7.57H404l-2.93-7.57Z"/><path class="cls-11" d="M411.51,13.37a1,1,0,1,1-1-1A.94.94,0,0,1,411.51,13.37Zm-.14,2.16v7.57h-1.62V15.53Z"/><path class="cls-11" d="M415.92,16.77c-.64,0-1.11.21-1.11.75,0,1.4,4,.64,4,3.39,0,1.55-1.38,2.25-2.9,2.25a4.68,4.68,0,0,1-3-1.05l.58-1.17a4.12,4.12,0,0,0,2.53.94c.7,0,1.24-.24,1.24-.81,0-1.55-4-.68-4-3.42,0-1.54,1.34-2.19,2.79-2.19a4.78,4.78,0,0,1,2.65.77l-.6,1.21A4.44,4.44,0,0,0,415.92,16.77Z"/><path class="cls-11" d="M427.65,19.31a3.95,3.95,0,0,1-7.89,0,3.95,3.95,0,0,1,7.89,0Zm-6.26,0a2.32,2.32,0,1,0,4.62,0,2.32,2.32,0,1,0-4.62,0Z"/><path class="cls-11" d="M433.6,15.48V17A2.29,2.29,0,0,0,431,19.15v4h-1.64V15.53H431V17A2.75,2.75,0,0,1,433.6,15.48Z"/><path class="cls-11" d="M445.63,23.11l-1.82-3c-.14,0-.3,0-.46,0H441v3h-1.68v-10h4c2.55,0,4,1.24,4,3.4a3.2,3.2,0,0,1-2.06,3.23l2.23,3.33Zm-2.28-4.51c1.54,0,2.42-.66,2.42-2s-.88-1.94-2.42-1.94H441V18.6Z"/><path class="cls-11" d="M451.26,13.37a1,1,0,1,1-1-1A.94.94,0,0,1,451.26,13.37Zm-.14,2.16v7.57h-1.62V15.53Z"/><path class="cls-11" d="M460.77,18.4v4.71h-1.64V18.85A1.69,1.69,0,0,0,457.31,17a2.12,2.12,0,0,0-2.15,2.06v4h-1.64V15.53h1.64V17A2.86,2.86,0,0,1,458,15.48,2.64,2.64,0,0,1,460.77,18.4Z"/><path class="cls-11" d="M469.78,15.53v6.83c0,2.18-1.55,3.54-3.93,3.54a5.49,5.49,0,0,1-3.14-1l.7-1.18a3.81,3.81,0,0,0,2.37.83,2.13,2.13,0,0,0,2.38-2.15v-1a2.77,2.77,0,0,1-2.5,1.28,3.36,3.36,0,0,1-3.41-3.66,3.32,3.32,0,0,1,3.36-3.6,2.82,2.82,0,0,1,2.56,1.28V15.53Zm-1.62,3.59A2.15,2.15,0,0,0,466,16.8a2.18,2.18,0,0,0-2.2,2.32,2.19,2.19,0,1,0,4.38,0Z"/><ellipse class="cls-12" cx="410.3" cy="244.86" rx="154.62" ry="154.81"/><polygon class="cls-13" points="312.63 364.46 410.3 90.05 510.97 360.55 261.67 205.67 559.73 205.67 312.63 364.46"/><path class="cls-14" d="M314.71,203.24v11c0,1.12-1.32,2.23-3.92,3.06l-42.64,13.86a35.78,35.78,0,0,1-18.9,0l-42.64-13.86c-2.59-.83-3.9-1.94-3.92-3.06v-11h.05c.25,1,1.54,2,3.86,2.71l42.64,13.84a35.78,35.78,0,0,0,18.9,0l42.64-13.84c2.32-.75,3.62-1.72,3.86-2.71Z"/><path class="cls-10" d="M249.26,219.94,206.62,206.1c-5.22-1.69-5.22-4.44,0-6.14l42.64-13.85a35.74,35.74,0,0,1,18.89,0L310.8,200c5.21,1.69,5.21,4.44,0,6.14l-42.64,13.85a35.74,35.74,0,0,1-18.89,0"/><path class="cls-11" d="M291.35,202.08,283.51,199c-.77-.3-2.09-.09-2.09.34v1.07c0,.26-.55.48-1.22.48H275.9c-.68,0-1.22-.21-1.22-.48v-2.18c0-.26.55-.48,1.22-.48h1.44c1.09,0,1.64-.51.87-.81l-7.84-3.05a2.76,2.76,0,0,0-1.73,0L260.8,197c-.77.3-.22.81.87.81h1.72c.67,0,1.22.21,1.22.48v2.14c0,.26-.55.48-1.22.48H254c-.67,0-1.22-.21-1.22-.48v-2.14c0-.26.55-.48,1.22-.48h1.78c1.09,0,1.64-.51.87-.81l-7.84-3.05a2.76,2.76,0,0,0-1.73,0L239.21,197c-.77.3-.23.81.87.81h1.38c.68,0,1.22.21,1.22.48v2.18c0,.26-.55.48-1.22.48h-4.23c-.68,0-1.23-.21-1.23-.48v-1.07c0-.42-1.32-.64-2.09-.34l-7.84,3.05c-.48.19-.48.49,0,.67l7.84,3.05c.77.3,2.09.09,2.09-.34V204.4c0-.26.55-.48,1.23-.48h4.23c.68,0,1.22.21,1.22.48v2.18c0,.26-.55.48-1.22.48h-1.38c-1.09,0-1.64.51-.87.81l7.84,3.05a2.76,2.76,0,0,0,1.73,0l7.84-3.05c.77-.3.23-.81-.87-.81H254c-.67,0-1.22-.21-1.22-.48v-2.15c0-.26.55-.48,1.22-.48h9.41c.67,0,1.22.21,1.22.48v2.15c0,.26-.55.48-1.22.48h-1.72c-1.09,0-1.64.51-.87.81l7.84,3.05a2.76,2.76,0,0,0,1.73,0l7.84-3.05c.77-.3.23-.81-.87-.81H275.9c-.68,0-1.22-.21-1.22-.48V204.4c0-.26.55-.48,1.22-.48h4.29c.67,0,1.22.21,1.22.48v1.07c0,.42,1.32.64,2.09.34l7.84-3.05c.48-.19.48-.49,0-.67"/><polygon class="cls-15" points="213.51 213.06 213.51 215.22 245.88 225.95 245.88 223.55 213.51 213.06"/><path class="cls-14" d="M617.79,207v11c0,1.12-1.32,2.23-3.92,3.06l-42.64,13.86a35.78,35.78,0,0,1-18.9,0L509.7,221c-2.59-.83-3.9-1.94-3.92-3.06V207h.05c.25,1,1.54,2,3.86,2.71l42.64,13.84a35.78,35.78,0,0,0,18.9,0l42.64-13.84c2.32-.75,3.62-1.72,3.86-2.71Z"/><path class="cls-10" d="M552.34,223.67l-42.64-13.85c-5.22-1.69-5.22-4.44,0-6.14l42.64-13.85a35.74,35.74,0,0,1,18.89,0l42.64,13.85c5.21,1.69,5.21,4.44,0,6.14l-42.64,13.85a35.74,35.74,0,0,1-18.89,0"/><path class="cls-11" d="M594.42,205.81l-7.84-3.05c-.77-.3-2.09-.09-2.09.34v1.07c0,.26-.55.48-1.22.48H579c-.68,0-1.22-.21-1.22-.48V202c0-.26.55-.48,1.22-.48h1.44c1.09,0,1.64-.51.87-.81l-7.84-3.05a2.76,2.76,0,0,0-1.73,0l-7.84,3.05c-.77.3-.22.81.87.81h1.72c.67,0,1.22.21,1.22.48v2.14c0,.26-.55.48-1.22.48H557c-.67,0-1.22-.21-1.22-.48V202c0-.26.55-.48,1.22-.48h1.78c1.09,0,1.64-.51.87-.81l-7.84-3.05a2.76,2.76,0,0,0-1.73,0l-7.84,3.05c-.77.3-.23.81.87.81h1.38c.68,0,1.22.21,1.22.48v2.18c0,.26-.55.48-1.22.48H540.3c-.68,0-1.23-.21-1.23-.48v-1.07c0-.42-1.32-.64-2.09-.34l-7.84,3.05c-.48.19-.48.49,0,.67l7.84,3.05c.77.3,2.09.09,2.09-.34v-1.07c0-.26.55-.48,1.23-.48h4.23c.68,0,1.22.21,1.22.48v2.18c0,.26-.55.48-1.22.48h-1.38c-1.09,0-1.64.51-.87.81l7.84,3.05a2.76,2.76,0,0,0,1.73,0l7.84-3.05c.77-.3.23-.81-.87-.81H557c-.67,0-1.22-.21-1.22-.48v-2.15c0-.26.55-.48,1.22-.48h9.41c.67,0,1.22.21,1.22.48v2.15c0,.26-.55.48-1.22.48h-1.72c-1.09,0-1.64.51-.87.81l7.84,3.05a2.76,2.76,0,0,0,1.73,0l7.84-3.05c.77-.3.23-.81-.87-.81H579c-.68,0-1.22-.21-1.22-.48v-2.18c0-.26.55-.48,1.22-.48h4.29c.67,0,1.22.21,1.22.48v1.07c0,.42,1.32.64,2.09.34l7.84-3.05c.48-.19.48-.49,0-.67"/><polygon class="cls-15" points="516.59 216.79 516.59 218.95 548.96 229.67 548.96 227.27 516.59 216.79"/><path class="cls-14" d="M370.72,359.83v11c0,1.12-1.32,2.23-3.92,3.06l-42.64,13.86a35.78,35.78,0,0,1-18.9,0l-42.64-13.86c-2.59-.83-3.9-1.94-3.92-3.06v-11h.05c.25,1,1.54,2,3.86,2.71l42.64,13.84a35.78,35.78,0,0,0,18.9,0l42.64-13.84c2.32-.75,3.62-1.72,3.86-2.71Z"/><path class="cls-10" d="M305.27,376.53l-42.64-13.85c-5.22-1.69-5.22-4.44,0-6.14l42.64-13.85a35.74,35.74,0,0,1,18.89,0l42.64,13.85c5.21,1.69,5.21,4.44,0,6.14l-42.64,13.85a35.74,35.74,0,0,1-18.89,0"/><path class="cls-11" d="M347.35,358.67l-7.84-3.05c-.77-.3-2.09-.09-2.09.34V357c0,.26-.55.48-1.22.48H331.9c-.68,0-1.22-.21-1.22-.48v-2.18c0-.26.55-.48,1.22-.48h1.44c1.09,0,1.64-.51.87-.81l-7.84-3.05a2.76,2.76,0,0,0-1.73,0l-7.84,3.05c-.77.3-.22.81.87.81h1.72c.67,0,1.22.21,1.22.48V357c0,.26-.55.48-1.22.48H310c-.67,0-1.22-.21-1.22-.48v-2.14c0-.26.55-.48,1.22-.48h1.78c1.09,0,1.64-.51.87-.81l-7.84-3.05a2.76,2.76,0,0,0-1.73,0l-7.84,3.05c-.77.3-.23.81.87.81h1.38c.68,0,1.22.21,1.22.48V357c0,.26-.55.48-1.22.48h-4.23c-.68,0-1.23-.21-1.23-.48V356c0-.42-1.32-.64-2.09-.34l-7.84,3.05c-.48.19-.48.49,0,.67l7.84,3.05c.77.3,2.09.09,2.09-.34V361c0-.26.55-.48,1.23-.48h4.23c.68,0,1.22.21,1.22.48v2.18c0,.26-.55.48-1.22.48h-1.38c-1.09,0-1.64.51-.87.81l7.84,3.05a2.76,2.76,0,0,0,1.73,0l7.84-3.05c.77-.3.23-.81-.87-.81H310c-.67,0-1.22-.21-1.22-.48V361c0-.26.55-.48,1.22-.48h9.41c.67,0,1.22.21,1.22.48v2.15c0,.26-.55.48-1.22.48h-1.72c-1.09,0-1.64.51-.87.81l7.84,3.05a2.76,2.76,0,0,0,1.73,0l7.84-3.05c.77-.3.23-.81-.87-.81H331.9c-.68,0-1.22-.21-1.22-.48V361c0-.26.55-.48,1.22-.48h4.29c.67,0,1.22.21,1.22.48v1.07c0,.42,1.32.64,2.09.34l7.84-3.05c.48-.19.48-.49,0-.67"/><polygon class="cls-15" points="269.52 369.65 269.52 371.81 301.89 382.54 301.89 380.13 269.52 369.65"/><path class="cls-14" d="M571.71,359.83v11c0,1.12-1.32,2.23-3.92,3.06l-42.64,13.86a35.78,35.78,0,0,1-18.9,0l-42.64-13.86c-2.59-.83-3.9-1.94-3.92-3.06v-11h.05c.25,1,1.54,2,3.86,2.71l42.64,13.84a35.78,35.78,0,0,0,18.9,0l42.64-13.84c2.32-.75,3.62-1.72,3.86-2.71Z"/><path class="cls-10" d="M506.26,376.53l-42.64-13.85c-5.22-1.69-5.22-4.44,0-6.14l42.64-13.85a35.74,35.74,0,0,1,18.89,0l42.64,13.85c5.21,1.69,5.21,4.44,0,6.14l-42.64,13.85a35.74,35.74,0,0,1-18.89,0"/><path class="cls-11" d="M548.34,358.67l-7.84-3.05c-.77-.3-2.09-.09-2.09.34V357c0,.26-.55.48-1.22.48h-4.29c-.68,0-1.22-.21-1.22-.48v-2.18c0-.26.55-.48,1.22-.48h1.44c1.09,0,1.64-.51.87-.81l-7.84-3.05a2.76,2.76,0,0,0-1.73,0l-7.84,3.05c-.77.3-.22.81.87.81h1.72c.67,0,1.22.21,1.22.48V357c0,.26-.55.48-1.22.48H511c-.67,0-1.22-.21-1.22-.48v-2.14c0-.26.55-.48,1.22-.48h1.78c1.09,0,1.64-.51.87-.81l-7.84-3.05a2.76,2.76,0,0,0-1.73,0l-7.84,3.05c-.77.3-.23.81.87.81h1.38c.68,0,1.22.21,1.22.48V357c0,.26-.55.48-1.22.48h-4.23c-.68,0-1.23-.21-1.23-.48V356c0-.42-1.32-.64-2.09-.34l-7.84,3.05c-.48.19-.48.49,0,.67l7.84,3.05c.77.3,2.09.09,2.09-.34V361c0-.26.55-.48,1.23-.48h4.23c.68,0,1.22.21,1.22.48v2.18c0,.26-.55.48-1.22.48h-1.38c-1.09,0-1.64.51-.87.81l7.84,3.05a2.76,2.76,0,0,0,1.73,0l7.84-3.05c.77-.3.23-.81-.87-.81H511c-.67,0-1.22-.21-1.22-.48V361c0-.26.55-.48,1.22-.48h9.41c.67,0,1.22.21,1.22.48v2.15c0,.26-.55.48-1.22.48h-1.72c-1.09,0-1.64.51-.87.81l7.84,3.05a2.76,2.76,0,0,0,1.73,0l7.84-3.05c.77-.3.23-.81-.87-.81h-1.44c-.68,0-1.22-.21-1.22-.48V361c0-.26.55-.48,1.22-.48h4.29c.67,0,1.22.21,1.22.48v1.07c0,.42,1.32.64,2.09.34l7.84-3.05c.48-.19.48-.49,0-.67"/><polygon class="cls-15" points="470.51 369.65 470.51 371.81 502.88 382.54 502.88 380.13 470.51 369.65"/><path class="cls-14" d="M466.31,91.19v11c0,1.12-1.32,2.23-3.92,3.06l-42.64,13.86a35.78,35.78,0,0,1-18.9,0l-42.64-13.86c-2.59-.83-3.9-1.94-3.92-3.06v-11h.05c.25,1,1.54,2,3.86,2.71l42.64,13.84a35.78,35.78,0,0,0,18.9,0l42.64-13.84c2.32-.75,3.62-1.72,3.86-2.71Z"/><path class="cls-10" d="M400.86,107.89,358.21,94c-5.22-1.69-5.22-4.44,0-6.14l42.64-13.85a35.74,35.74,0,0,1,18.89,0L462.39,87.9c5.21,1.69,5.21,4.44,0,6.14l-42.64,13.85a35.74,35.74,0,0,1-18.89,0"/><path class="cls-11" d="M442.94,90,435.1,87c-.77-.3-2.09-.09-2.09.34v1.07c0,.26-.55.48-1.22.48h-4.29c-.68,0-1.22-.21-1.22-.48V86.2c0-.26.55-.48,1.22-.48h1.44c1.09,0,1.64-.51.87-.81L422,81.85a2.76,2.76,0,0,0-1.73,0l-7.84,3.05c-.77.3-.22.81.87.81H415c.67,0,1.22.21,1.22.48v2.14c0,.26-.55.48-1.22.48h-9.41c-.67,0-1.22-.21-1.22-.48V86.2c0-.26.55-.48,1.22-.48h1.78c1.09,0,1.64-.51.87-.81l-7.84-3.05a2.76,2.76,0,0,0-1.73,0l-7.84,3.05c-.77.3-.23.81.87.81H393c.68,0,1.22.21,1.22.48v2.18c0,.26-.55.48-1.22.48h-4.23c-.68,0-1.23-.21-1.23-.48V87.31c0-.42-1.32-.64-2.09-.34L377.67,90c-.48.19-.48.49,0,.67l7.84,3.05c.77.3,2.09.09,2.09-.34V92.35c0-.26.55-.48,1.23-.48H393c.68,0,1.22.21,1.22.48v2.18c0,.26-.55.48-1.22.48h-1.38c-1.09,0-1.64.51-.87.81l7.84,3.05a2.76,2.76,0,0,0,1.73,0l7.84-3.05c.77-.3.23-.81-.87-.81h-1.78c-.67,0-1.22-.21-1.22-.48V92.38c0-.26.55-.48,1.22-.48H415c.67,0,1.22.21,1.22.48v2.15c0,.26-.55.48-1.22.48h-1.72c-1.09,0-1.64.51-.87.81l7.84,3.05a2.76,2.76,0,0,0,1.73,0l7.84-3.05c.77-.3.23-.81-.87-.81h-1.44c-.68,0-1.22-.21-1.22-.48V92.35c0-.26.55-.48,1.22-.48h4.29c.67,0,1.22.21,1.22.48v1.07c0,.42,1.32.64,2.09.34l7.84-3.05c.48-.19.48-.49,0-.67"/><polygon class="cls-15" points="365.11 101.01 365.11 103.17 397.48 113.89 397.48 111.49 365.11 101.01"/><path class="cls-16" d="M301.12,116.48a6.88,6.88,0,0,0-.59,9.71l5.47,6.18,5.14-4.56-.91-1a6.87,6.87,0,0,0-9.11-10.29Z"/><path class="cls-16" d="M295.83,126.32l-3.6,3.19,3.19,3.6a4.8,4.8,0,0,0,6.79.41l.91,1,3.6-3.19-4.1-4.63A4.8,4.8,0,0,0,295.83,126.32Z"/><path class="cls-17" d="M311.74,126.63l-7.28,6.44c-.72.65-2,2.95-1.28,3.63s3-.51,3.76-1.15l7.28-6.44a1.64,1.64,0,0,0,.06-2.41A1.87,1.87,0,0,0,311.74,126.63Z"/><path class="cls-17" d="M315.91,126l-2.62,1.17a.41.41,0,0,0-.21.56.46.46,0,0,0,.59.2l2.62-1.17a.41.41,0,0,0,.21-.56A.46.46,0,0,0,315.91,126Z"/><path class="cls-17" d="M314.57,124.87l-1.1,2.54a.41.41,0,0,0,.24.55.45.45,0,0,0,.58-.23l1.1-2.54a.41.41,0,0,0-.24-.55A.45.45,0,0,0,314.57,124.87Z"/><path class="cls-18" d="M303.26,116a6.88,6.88,0,0,0-.83,9.92l5.47,6.18,4.11-3.65a1.38,1.38,0,0,0,.12-1.94h0a6.87,6.87,0,0,0-8.86-10.5Z"/><path class="cls-18" d="M296.47,127.51l-2.53,2.25a.71.71,0,0,0-.06,1l2.72,3.07a4.8,4.8,0,0,0,6.29.8.71.71,0,0,1,.93.11h0a.71.71,0,0,0,1,.06l3.07-2.72-3.63-4.1A5.51,5.51,0,0,0,296.47,127.51Z"/><circle class="cls-19" cx="307.56" cy="121.34" r="2.06" transform="translate(-3.17 234.31) rotate(-41.51)"/><path class="cls-16" d="M247.83,298.88a6.86,6.86,0,0,0,9,3.58l7.56-3.28-2.73-6.31-1.26.55a6.87,6.87,0,1,0-12.6,5.46Z"/><path class="cls-16" d="M255.52,307l1.91,4.42,4.41-1.91a4.82,4.82,0,0,0,2.5-6.33l1.26-.55-1.91-4.42L258,300.65A4.82,4.82,0,0,0,255.52,307Z"/><path class="cls-17" d="M260.77,291.94l3.84,8.93c.39.89,2.18,2.79,3,2.35s.47-3.05.08-3.94l-3.84-8.93a1.64,1.64,0,0,0-2.27-.81A1.88,1.88,0,0,0,260.77,291.94Z"/><path class="cls-17" d="M261.43,287.77l.3,2.86a.41.41,0,0,0,.47.38.46.46,0,0,0,.38-.5l-.3-2.86a.41.41,0,0,0-.47-.38A.46.46,0,0,0,261.43,287.77Z"/><path class="cls-17" d="M260,288.71l2.07,1.83a.41.41,0,0,0,.6-.06.46.46,0,0,0,0-.62L260.53,288a.41.41,0,0,0-.6.06A.46.46,0,0,0,260,288.71Z"/><path class="cls-18" d="M248,296.7a6.86,6.86,0,0,0,9.15,3.88l7.56-3.28-2.18-5a1.37,1.37,0,0,0-1.81-.72h0A6.87,6.87,0,0,0,248,296.7Z"/><path class="cls-18" d="M256.84,306.74l1.34,3.11a.71.71,0,0,0,.94.37l3.76-1.63a4.82,4.82,0,0,0,2.71-5.74.71.71,0,0,1,.4-.86h0a.71.71,0,0,0,.37-.94l-1.63-3.76-5,2.18A5.53,5.53,0,0,0,256.84,306.74Z"/><circle class="cls-19" cx="254.44" cy="294.27" r="2.06" transform="translate(-96.03 125.45) rotate(-23.43)"/><path class="cls-16" d="M530.78,125.08a6.86,6.86,0,0,0-9.24,3l-3.75,7.35,6.11,3.13.63-1.22a6.87,6.87,0,0,0,6.26-12.24Z"/><path class="cls-16" d="M519.7,123.72l-4.28-2.19-2.19,4.28a4.82,4.82,0,0,0,2.09,6.48l-.63,1.22,4.28,2.19,2.81-5.51A4.82,4.82,0,0,0,519.7,123.72Z"/><path class="cls-17" d="M525.21,138.68l-8.64-4.45c-.87-.44-3.46-.76-3.84.13s1.58,2.65,2.44,3.09l8.64,4.45a1.64,1.64,0,0,0,2.27-.82A1.88,1.88,0,0,0,525.21,138.68Z"/><path class="cls-17" d="M527.35,142.31l-2-2a.41.41,0,0,0-.6,0,.46.46,0,0,0,0,.63l2,2a.41.41,0,0,0,.6,0A.46.46,0,0,0,527.35,142.31Z"/><path class="cls-17" d="M527.87,140.67l-2.76-.1a.41.41,0,0,0-.42.43.45.45,0,0,0,.43.46l2.76.1a.41.41,0,0,0,.42-.43A.45.45,0,0,0,527.87,140.67Z"/><path class="cls-18" d="M532,126.88a6.86,6.86,0,0,0-9.53,2.83l-3.75,7.35,4.89,2.51a1.37,1.37,0,0,0,1.85-.6h0A6.87,6.87,0,0,0,532,126.88Z"/><path class="cls-18" d="M518.83,124.75l-3-1.54a.71.71,0,0,0-1,.31L513,127.17a4.82,4.82,0,0,0,1.55,6.16.71.71,0,0,1,.24.91h0a.71.71,0,0,0,.31,1l3.65,1.87,2.49-4.87A5.53,5.53,0,0,0,518.83,124.75Z"/><circle class="cls-19" cx="528.6" cy="132.85" r="2.06" transform="translate(169.78 543.11) rotate(-62.93)"/><path class="cls-18" d="M403.33,218a6.43,6.43,0,0,0,7.2-5.9l.59-7.7L406,204a1.29,1.29,0,0,0-1.38,1.19h0A6.44,6.44,0,0,0,403.33,218Z"/><path class="cls-18" d="M415.49,215.09l3.16.24a.67.67,0,0,0,.71-.61l.29-3.83a4.51,4.51,0,0,0-3.56-4.75.67.67,0,0,1-.53-.7h0a.67.67,0,0,0-.61-.72l-3.82-.29-.39,5.11A5.17,5.17,0,0,0,415.49,215.09Z"/><circle class="cls-19" cx="404.13" cy="211.64" r="1.93" transform="translate(162.28 598.45) rotate(-85.63)"/><path class="cls-18" d="M399.33,195.3a6.44,6.44,0,0,0,5.54,7.49h0a1.29,1.29,0,0,0,1.12,1.44l5.1.64,1-7.66a6.43,6.43,0,0,0-12.71-1.9Z"/><path class="cls-18" d="M411.72,199.78l-.64,5.09,3.8.48a.67.67,0,0,0,.74-.58h0a.67.67,0,0,1,.66-.58,4.5,4.5,0,0,0,4.44-3.95l.48-3.81a.67.67,0,0,0-.58-.74l-3.14-.39A5.17,5.17,0,0,0,411.72,199.78Z"/><circle class="cls-19" cx="405.66" cy="196.4" r="1.93" transform="translate(160.27 574.45) rotate(-82.85)"/><path class="cls-17" d="M405,205.66l9.05.9c.9.08,3.27-.53,3.3-1.43s-2.28-1.77-3.19-1.85l-8.74-.88a1.82,1.82,0,0,0-2,1.47A1.76,1.76,0,0,0,405,205.66Z"/><path class="cls-17" d="M401.77,203.23l2.38,1.25a.39.39,0,0,0,.54-.17.43.43,0,0,0-.2-.55l-2.38-1.25a.39.39,0,0,0-.54.17A.43.43,0,0,0,401.77,203.23Z"/><path class="cls-17" d="M401.91,205l2.44-.87a.39.39,0,0,0,.22-.52.43.43,0,0,0-.53-.25l-2.44.87a.39.39,0,0,0-.22.52A.43.43,0,0,0,401.91,205Z"/><path class="cls-18" d="M366.23,285.75a6.43,6.43,0,0,0,9-2.43l3.68-6.79-4.52-2.46a1.29,1.29,0,0,0-1.74.52h0a6.43,6.43,0,0,0-8.86,2.85A6.49,6.49,0,0,0,366.23,285.75Z"/><path class="cls-18" d="M378.53,288.05l2.78,1.51a.67.67,0,0,0,.9-.27l1.83-3.37a4.51,4.51,0,0,0-1.31-5.8.67.67,0,0,1-.2-.86h0a.67.67,0,0,0-.27-.9l-3.37-1.83-2.44,4.5A5.18,5.18,0,0,0,378.53,288.05Z"/><circle class="cls-19" cx="369.57" cy="280.25" r="1.93" transform="translate(-53.03 471.39) rotate(-61.51)"/><path class="cls-18" d="M371.86,263.37a6.44,6.44,0,0,0,2,9.1h0a1.29,1.29,0,0,0,.43,1.77l4.4,2.67,4-6.6a6.43,6.43,0,0,0-10.83-6.94Z"/><path class="cls-18" d="M381.34,272.54l-2.66,4.38,3.28,2a.67.67,0,0,0,.92-.22h0a.67.67,0,0,1,.84-.26,4.5,4.5,0,0,0,5.66-1.78l2-3.28a.67.67,0,0,0-.22-.92l-2.71-1.65A5.16,5.16,0,0,0,381.34,272.54Z"/><circle class="cls-19" cx="377.19" cy="266.97" r="1.93" transform="translate(-46.93 450.47) rotate(-58.69)"/><path class="cls-17" d="M372.82,275.15l7.89,4.53c.79.45,3.2.86,3.6,0s-1.36-2.55-2.15-3l-7.61-4.38a1.82,1.82,0,0,0-2.44.52A1.76,1.76,0,0,0,372.82,275.15Z"/><path class="cls-17" d="M370.85,271.61l1.66,2.11a.39.39,0,0,0,.56.06.43.43,0,0,0,0-.58l-1.66-2.11a.39.39,0,0,0-.56-.06A.43.43,0,0,0,370.85,271.61Z"/><path class="cls-17" d="M370.24,273.32l2.58.21a.39.39,0,0,0,.41-.38.43.43,0,0,0-.38-.45l-2.58-.21a.39.39,0,0,0-.41.38A.43.43,0,0,0,370.24,273.32Z"/><path class="cls-11" d="M589,272.84q-1.79,0-1.79,1.35a1.17,1.17,0,0,0,.41,1,5.51,5.51,0,0,0,1.67.56,4.26,4.26,0,0,1,1.79.73,1.85,1.85,0,0,1,.53,1.48q0,2.55-2.64,2.55a14.79,14.79,0,0,1-2.19-.2l-.43-.06.1-.77a20.45,20.45,0,0,0,2.48.21q1.77,0,1.77-1.66a1.13,1.13,0,0,0-.39-1,3.78,3.78,0,0,0-1.45-.5,4.89,4.89,0,0,1-2-.77,1.93,1.93,0,0,1-.59-1.59q0-2.23,2.67-2.23a14.65,14.65,0,0,1,2.09.18l.41.06-.08.78A22.39,22.39,0,0,0,589,272.84Z"/><path class="cls-11" d="M596.76,274.46h.9v6h-.9V280a3.42,3.42,0,0,1-1.77.54,1.78,1.78,0,0,1-1.62-.63,4.79,4.79,0,0,1-.4-2.35v-3.13h.9v3.11a4.42,4.42,0,0,0,.23,1.75q.23.44,1,.44a3,3,0,0,0,.8-.11,3.57,3.57,0,0,0,.62-.22l.22-.11Z"/><path class="cls-11" d="M599.38,283.1v-8.65h.89v.43a3.45,3.45,0,0,1,1.79-.55,1.88,1.88,0,0,1,1.65.72,4.24,4.24,0,0,1,.51,2.39,3.74,3.74,0,0,1-.6,2.39,2.48,2.48,0,0,1-2,.72,6.35,6.35,0,0,1-1.34-.13v2.67Zm2.55-8a2.8,2.8,0,0,0-.77.12,4,4,0,0,0-.65.24l-.23.12v4a9.12,9.12,0,0,0,1.29.13,1.55,1.55,0,0,0,1.36-.55,3.19,3.19,0,0,0,.39-1.8,3.33,3.33,0,0,0-.35-1.77A1.17,1.17,0,0,0,601.93,275.14Z"/><path class="cls-11" d="M609.75,279.7l.35,0,0,.71a17.14,17.14,0,0,1-2.33.19,2.1,2.1,0,0,1-1.83-.75,4,4,0,0,1-.54-2.33q0-3.15,2.5-3.15a2.29,2.29,0,0,1,1.81.68,3.16,3.16,0,0,1,.6,2.13l0,.68h-3.95a2.46,2.46,0,0,0,.36,1.47,1.47,1.47,0,0,0,1.25.48Q608.83,279.77,609.75,279.7Zm-.32-2.6a2.61,2.61,0,0,0-.35-1.56,1.36,1.36,0,0,0-1.15-.46,1.47,1.47,0,0,0-1.2.48,2.42,2.42,0,0,0-.41,1.53Z"/><path class="cls-11" d="M611.73,280.44v-6h.89v.81a5.81,5.81,0,0,1,2.19-.95v.91a6.49,6.49,0,0,0-1,.3,7.12,7.12,0,0,0-.83.36l-.3.16v4.4Z"/><path class="cls-11" d="M615.31,274.46h1l1.4,5.21h.44l1.45-5.21h.92l-1.69,6H617Z"/><path class="cls-11" d="M621.62,273.1v-1h.9v1Zm0,7.34v-6h.9v6Z"/><path class="cls-11" d="M626.12,275.14q-1.3,0-1.3.91a.63.63,0,0,0,.3.59,5.07,5.07,0,0,0,1.36.36,3.65,3.65,0,0,1,1.51.52,1.5,1.5,0,0,1,.44,1.26,1.56,1.56,0,0,1-.59,1.35,2.92,2.92,0,0,1-1.73.43,10.86,10.86,0,0,1-1.75-.17l-.36-.06,0-.78a15.08,15.08,0,0,0,2.06.2,2.06,2.06,0,0,0,1.06-.22.8.8,0,0,0,.36-.74.75.75,0,0,0-.31-.71,4.6,4.6,0,0,0-1.36-.35,3.59,3.59,0,0,1-1.5-.49,1.39,1.39,0,0,1-.44-1.2,1.46,1.46,0,0,1,.62-1.29,2.67,2.67,0,0,1,1.54-.42,12.5,12.5,0,0,1,1.83.17l.33.06,0,.77A15.51,15.51,0,0,0,626.12,275.14Z"/><path class="cls-11" d="M629.54,277.44a3.81,3.81,0,0,1,.59-2.37,3,3,0,0,1,4,0,3.84,3.84,0,0,1,.58,2.37,4.05,4.05,0,0,1-.55,2.38,3.09,3.09,0,0,1-4,0A4.05,4.05,0,0,1,629.54,277.44Zm.92,0a3.82,3.82,0,0,0,.32,1.84,1.94,1.94,0,0,0,2.65,0,3.86,3.86,0,0,0,.31-1.84,3.38,3.38,0,0,0-.35-1.81,1.47,1.47,0,0,0-1.29-.5,1.48,1.48,0,0,0-1.29.5A3.32,3.32,0,0,0,630.46,277.42Z"/><path class="cls-11" d="M636.12,280.44v-6H637v.81a5.81,5.81,0,0,1,2.19-.95v.91a6.49,6.49,0,0,0-1,.3,7.12,7.12,0,0,0-.83.36l-.3.16v4.4Z"/><path class="cls-11" d="M642.14,275.14q-1.3,0-1.3.91a.63.63,0,0,0,.3.59,5.07,5.07,0,0,0,1.36.36,3.65,3.65,0,0,1,1.51.52,1.5,1.5,0,0,1,.44,1.26,1.56,1.56,0,0,1-.59,1.35,2.92,2.92,0,0,1-1.73.43,10.86,10.86,0,0,1-1.75-.17l-.36-.06,0-.78a15.08,15.08,0,0,0,2.06.2,2.06,2.06,0,0,0,1.06-.22.8.8,0,0,0,.36-.74.75.75,0,0,0-.31-.71,4.6,4.6,0,0,0-1.36-.35,3.59,3.59,0,0,1-1.5-.49,1.39,1.39,0,0,1-.44-1.2,1.46,1.46,0,0,1,.62-1.29,2.67,2.67,0,0,1,1.54-.42,12.5,12.5,0,0,1,1.83.17l.33.06,0,.77A15.51,15.51,0,0,0,642.14,275.14Z"/><path class="cls-11" d="M648.45,273.1v-1h.9v1Zm0,7.34v-6h.9v6Z"/><path class="cls-11" d="M652,280.44h-.9v-6H652v.42a3.82,3.82,0,0,1,1.85-.54,1.77,1.77,0,0,1,1.61.65,4.58,4.58,0,0,1,.41,2.3v3.16h-.89v-3.14a4.06,4.06,0,0,0-.25-1.71,1.08,1.08,0,0,0-1-.46,3.15,3.15,0,0,0-.81.11,4.11,4.11,0,0,0-.65.22l-.23.11Z"/><path class="cls-11" d="M663.23,275.23h-1.9v2.86a3.88,3.88,0,0,0,.15,1.35q.15.32.71.32l1.06-.07.06.74a8.18,8.18,0,0,1-1.22.13,1.56,1.56,0,0,1-1.29-.46,3,3,0,0,1-.36-1.74v-3.15h-.85v-.78h.85v-1.83h.89v1.83h1.9Z"/><path class="cls-11" d="M665.22,280.44h-.9v-8.6h.9v2.95a4.28,4.28,0,0,1,1.84-.46,1.77,1.77,0,0,1,1.61.65,4.58,4.58,0,0,1,.41,2.3v3.16h-.9v-3.14a4,4,0,0,0-.25-1.71,1.06,1.06,0,0,0-1-.46,4,4,0,0,0-1.46.28l-.23.08Z"/><path class="cls-11" d="M674.82,279.7l.35,0,0,.71a17.14,17.14,0,0,1-2.33.19,2.1,2.1,0,0,1-1.83-.75,4,4,0,0,1-.54-2.33q0-3.15,2.5-3.15a2.29,2.29,0,0,1,1.81.68,3.16,3.16,0,0,1,.6,2.13l0,.68H671.4a2.46,2.46,0,0,0,.36,1.47,1.47,1.47,0,0,0,1.25.48Q673.9,279.77,674.82,279.7Zm-.32-2.6a2.61,2.61,0,0,0-.35-1.56,1.36,1.36,0,0,0-1.15-.46,1.47,1.47,0,0,0-1.2.48,2.42,2.42,0,0,0-.41,1.53Z"/><path class="cls-11" d="M681.3,275.14q-1.3,0-1.3.91a.63.63,0,0,0,.3.59,5.07,5.07,0,0,0,1.36.36,3.65,3.65,0,0,1,1.51.52,1.5,1.5,0,0,1,.44,1.26,1.56,1.56,0,0,1-.59,1.35,2.92,2.92,0,0,1-1.73.43,10.86,10.86,0,0,1-1.75-.17l-.36-.06,0-.78a15.08,15.08,0,0,0,2.06.2,2.06,2.06,0,0,0,1.06-.22.8.8,0,0,0,.36-.74.75.75,0,0,0-.31-.71,4.6,4.6,0,0,0-1.36-.35,3.59,3.59,0,0,1-1.5-.49,1.39,1.39,0,0,1-.44-1.2,1.46,1.46,0,0,1,.62-1.29,2.67,2.67,0,0,1,1.54-.42,12.5,12.5,0,0,1,1.83.17l.33.06,0,.77A15.51,15.51,0,0,0,681.3,275.14Z"/><path class="cls-11" d="M689.21,276.27v3.07q0,.44.69.53l0,.71a1.93,1.93,0,0,1-1.42-.48,5.26,5.26,0,0,1-2.15.48,1.62,1.62,0,0,1-1.26-.47,1.91,1.91,0,0,1-.43-1.34,1.69,1.69,0,0,1,.44-1.29,2.35,2.35,0,0,1,1.39-.51l1.88-.18v-.51a1.21,1.21,0,0,0-.26-.87,1,1,0,0,0-.72-.26,17.13,17.13,0,0,0-2,.12l-.37,0,0-.68a12,12,0,0,1,2.33-.26,1.67,1.67,0,0,1,1.94,1.93Zm-3.68,2.44q0,1.1.91,1.1a4.84,4.84,0,0,0,1.6-.28l.28-.1v-2l-1.77.17a1.15,1.15,0,0,0-.78.31A1.1,1.1,0,0,0,685.52,278.71Z"/><path class="cls-11" d="M691.88,280.44H691v-6h.89v.42a3.39,3.39,0,0,1,1.75-.54,1.8,1.8,0,0,1,1.56.61,4.42,4.42,0,0,1,1-.42,4,4,0,0,1,1.11-.19,1.78,1.78,0,0,1,1.61.64,4.57,4.57,0,0,1,.41,2.31v3.16h-.9v-3.14a4.15,4.15,0,0,0-.24-1.71,1,1,0,0,0-1-.46,3.12,3.12,0,0,0-.81.11,4.14,4.14,0,0,0-.65.22l-.23.11a6,6,0,0,1,.16,1.75v3.11h-.9v-3.09a4.41,4.41,0,0,0-.23-1.75,1,1,0,0,0-1-.46,2.88,2.88,0,0,0-.78.11,3.76,3.76,0,0,0-.62.22l-.2.11Z"/><path class="cls-11" d="M705,279.7l.35,0,0,.71a17.14,17.14,0,0,1-2.33.19,2.1,2.1,0,0,1-1.83-.75,4,4,0,0,1-.54-2.33q0-3.15,2.5-3.15A2.29,2.29,0,0,1,705,275a3.16,3.16,0,0,1,.6,2.13l0,.68h-3.95a2.46,2.46,0,0,0,.36,1.47,1.47,1.47,0,0,0,1.25.48Q704.13,279.77,705,279.7Zm-.32-2.6a2.61,2.61,0,0,0-.35-1.56,1.36,1.36,0,0,0-1.15-.46,1.47,1.47,0,0,0-1.2.48,2.42,2.42,0,0,0-.41,1.53Z"/><path class="cls-11" d="M709.65,280.44v-6h.89v.81a5.81,5.81,0,0,1,2.19-.95v.91a6.49,6.49,0,0,0-1,.3,7.12,7.12,0,0,0-.83.36l-.3.16v4.4Z"/><path class="cls-11" d="M713.79,273.1v-1h.9v1Zm0,7.34v-6h.9v6Z"/><path class="cls-11" d="M717.31,280.44h-.9v-6h.89v.42a3.82,3.82,0,0,1,1.85-.54,1.77,1.77,0,0,1,1.61.65,4.58,4.58,0,0,1,.41,2.3v3.16h-.89v-3.14a4.06,4.06,0,0,0-.25-1.71,1.08,1.08,0,0,0-1-.46,3.15,3.15,0,0,0-.81.11,4.11,4.11,0,0,0-.65.22l-.23.11Z"/><path class="cls-11" d="M725.14,283.26a3.75,3.75,0,0,1-2-.39,1.6,1.6,0,0,1-.57-1.42,1.35,1.35,0,0,1,.22-.8,3.34,3.34,0,0,1,.73-.69.93.93,0,0,1-.33-.83,2.07,2.07,0,0,1,.3-.75l.11-.19a1.78,1.78,0,0,1-.94-1.81q0-2,2.24-2a4.47,4.47,0,0,1,1.06.12l.18,0,1.77,0v.77l-1.14,0a1.63,1.63,0,0,1,.39,1.2,1.92,1.92,0,0,1-.56,1.58,2.78,2.78,0,0,1-1.75.45,3.27,3.27,0,0,1-.59,0,2.52,2.52,0,0,0-.22.68q0,.37.23.46a5.64,5.64,0,0,0,1.38.09,2.91,2.91,0,0,1,1.65.36,1.63,1.63,0,0,1,.5,1.4Q727.8,283.26,725.14,283.26Zm-1.69-1.88a1,1,0,0,0,.35.88,2.44,2.44,0,0,0,1.3.25,2.65,2.65,0,0,0,1.36-.26,1,1,0,0,0,.41-.88q0-.62-.3-.8a2.55,2.55,0,0,0-1.17-.18l-1.29-.06a2.12,2.12,0,0,0-.53.5A1,1,0,0,0,723.46,281.38Zm.08-5a1.34,1.34,0,0,0,.32,1,1.49,1.49,0,0,0,1,.3,1.47,1.47,0,0,0,1-.3,1.8,1.8,0,0,0,0-2,2,2,0,0,0-2.09,0A1.36,1.36,0,0,0,723.54,276.38Z"/><path class="cls-11" d="M733.93,283.26a3.75,3.75,0,0,1-2-.39,1.6,1.6,0,0,1-.57-1.42,1.35,1.35,0,0,1,.22-.8,3.34,3.34,0,0,1,.73-.69.93.93,0,0,1-.33-.83,2.07,2.07,0,0,1,.3-.75l.11-.19a1.78,1.78,0,0,1-.94-1.81q0-2,2.24-2a4.47,4.47,0,0,1,1.06.12l.18,0,1.77,0v.77l-1.14,0a1.63,1.63,0,0,1,.39,1.2,1.92,1.92,0,0,1-.56,1.58,2.78,2.78,0,0,1-1.75.45,3.27,3.27,0,0,1-.59,0,2.52,2.52,0,0,0-.22.68q0,.37.23.46a5.64,5.64,0,0,0,1.38.09,2.91,2.91,0,0,1,1.65.36,1.63,1.63,0,0,1,.5,1.4Q736.58,283.26,733.93,283.26Zm-1.69-1.88a1,1,0,0,0,.35.88,2.44,2.44,0,0,0,1.3.25,2.65,2.65,0,0,0,1.36-.26,1,1,0,0,0,.41-.88q0-.62-.3-.8a2.55,2.55,0,0,0-1.17-.18l-1.29-.06a2.12,2.12,0,0,0-.53.5A1,1,0,0,0,732.24,281.38Zm.08-5a1.34,1.34,0,0,0,.32,1,1.49,1.49,0,0,0,1,.3,1.47,1.47,0,0,0,1-.3,1.8,1.8,0,0,0,0-2,2,2,0,0,0-2.09,0A1.36,1.36,0,0,0,732.32,276.38Z"/><path class="cls-11" d="M737.5,277.44a3.81,3.81,0,0,1,.59-2.37,3,3,0,0,1,4,0,3.84,3.84,0,0,1,.58,2.37,4.05,4.05,0,0,1-.55,2.38,3.09,3.09,0,0,1-4,0A4.05,4.05,0,0,1,737.5,277.44Zm.92,0a3.82,3.82,0,0,0,.32,1.84,1.94,1.94,0,0,0,2.65,0,3.86,3.86,0,0,0,.31-1.84,3.38,3.38,0,0,0-.35-1.81,1.47,1.47,0,0,0-1.29-.5,1.48,1.48,0,0,0-1.29.5A3.32,3.32,0,0,0,738.42,277.42Z"/><path class="cls-11" d="M746,275.14q-1.3,0-1.3.91a.63.63,0,0,0,.3.59,5.07,5.07,0,0,0,1.36.36,3.65,3.65,0,0,1,1.51.52,1.5,1.5,0,0,1,.44,1.26,1.56,1.56,0,0,1-.59,1.35,2.92,2.92,0,0,1-1.73.43,10.86,10.86,0,0,1-1.75-.17l-.36-.06,0-.78a15.08,15.08,0,0,0,2.06.2,2.06,2.06,0,0,0,1.06-.22.8.8,0,0,0,.36-.74.75.75,0,0,0-.31-.71,4.6,4.6,0,0,0-1.36-.35,3.59,3.59,0,0,1-1.5-.49,1.39,1.39,0,0,1-.44-1.2,1.46,1.46,0,0,1,.62-1.29,2.67,2.67,0,0,1,1.54-.42,12.5,12.5,0,0,1,1.83.17l.33.06,0,.77A15.51,15.51,0,0,0,746,275.14Z"/><path class="cls-11" d="M751.52,275.14q-1.3,0-1.3.91a.63.63,0,0,0,.3.59,5.07,5.07,0,0,0,1.36.36,3.65,3.65,0,0,1,1.51.52,1.5,1.5,0,0,1,.44,1.26,1.56,1.56,0,0,1-.59,1.35,2.92,2.92,0,0,1-1.73.43,10.86,10.86,0,0,1-1.75-.17l-.36-.06,0-.78a15.08,15.08,0,0,0,2.06.2,2.06,2.06,0,0,0,1.06-.22.8.8,0,0,0,.36-.74.75.75,0,0,0-.31-.71,4.6,4.6,0,0,0-1.36-.35,3.59,3.59,0,0,1-1.5-.49,1.39,1.39,0,0,1-.44-1.2,1.46,1.46,0,0,1,.62-1.29,2.67,2.67,0,0,1,1.54-.42,12.5,12.5,0,0,1,1.83.17l.33.06,0,.77A15.51,15.51,0,0,0,751.52,275.14Z"/><path class="cls-11" d="M755.21,273.1v-1h.9v1Zm0,7.34v-6h.9v6Z"/><path class="cls-11" d="M757.83,283.1v-8.65h.89v.43a3.45,3.45,0,0,1,1.79-.55,1.88,1.88,0,0,1,1.65.72,4.24,4.24,0,0,1,.51,2.39,3.74,3.74,0,0,1-.6,2.39,2.48,2.48,0,0,1-2,.72,6.35,6.35,0,0,1-1.34-.13v2.67Zm2.55-8a2.8,2.8,0,0,0-.77.12,4,4,0,0,0-.65.24l-.23.12v4a9.12,9.12,0,0,0,1.29.13,1.55,1.55,0,0,0,1.36-.55,3.19,3.19,0,0,0,.39-1.8,3.33,3.33,0,0,0-.35-1.77A1.17,1.17,0,0,0,760.37,275.14Z"/><path class="cls-11" d="M586.06,288.83h.9l1.21,5.21h.19l1.42-5.09h.93l1.42,5.09h.2l1.2-5.21h.9l-1.42,6h-1.5l-1.27-4.68L589,294.82h-1.5Z"/><path class="cls-11" d="M595.66,287.48v-1h.9v1Zm0,7.34v-6h.9v6Z"/><path class="cls-11" d="M601.38,289.61h-1.9v2.86a3.88,3.88,0,0,0,.15,1.35q.15.32.71.32l1.06-.07.06.74a8.18,8.18,0,0,1-1.22.13,1.56,1.56,0,0,1-1.29-.46,3,3,0,0,1-.36-1.74v-3.15h-.85v-.78h.85V287h.89v1.83h1.9Z"/><path class="cls-11" d="M603.38,294.82h-.9v-8.6h.9v2.95a4.28,4.28,0,0,1,1.84-.46,1.77,1.77,0,0,1,1.61.65,4.58,4.58,0,0,1,.41,2.3v3.16h-.9v-3.14a4,4,0,0,0-.25-1.71,1.06,1.06,0,0,0-1-.46,4,4,0,0,0-1.46.28l-.23.08Z"/><path class="cls-11" d="M615.6,294.08l.35,0,0,.71a17.14,17.14,0,0,1-2.33.19,2.1,2.1,0,0,1-1.83-.75,4,4,0,0,1-.54-2.33q0-3.15,2.5-3.15a2.29,2.29,0,0,1,1.81.68,3.16,3.16,0,0,1,.6,2.13l0,.68h-3.95a2.46,2.46,0,0,0,.36,1.47,1.47,1.47,0,0,0,1.25.48Q614.68,294.15,615.6,294.08Zm-.32-2.6a2.61,2.61,0,0,0-.35-1.56,1.36,1.36,0,0,0-1.15-.46,1.47,1.47,0,0,0-1.2.48,2.42,2.42,0,0,0-.41,1.53Z"/><path class="cls-11" d="M621.8,290.64v3.07q0,.44.69.53l0,.71a1.93,1.93,0,0,1-1.42-.48,5.26,5.26,0,0,1-2.15.48,1.62,1.62,0,0,1-1.26-.47,1.91,1.91,0,0,1-.43-1.34,1.69,1.69,0,0,1,.44-1.29,2.35,2.35,0,0,1,1.39-.51l1.88-.18v-.51a1.21,1.21,0,0,0-.26-.87,1,1,0,0,0-.72-.26,17.13,17.13,0,0,0-2,.12l-.37,0,0-.68a12,12,0,0,1,2.33-.26,1.67,1.67,0,0,1,1.94,1.93Zm-3.68,2.44q0,1.1.91,1.1a4.84,4.84,0,0,0,1.6-.28l.28-.1v-2l-1.77.17a1.15,1.15,0,0,0-.78.31A1.1,1.1,0,0,0,618.12,293.08Z"/><path class="cls-11" d="M625.81,288.71a10.33,10.33,0,0,1,1.34.14l.29,0,0,.73q-1-.11-1.41-.11a1.64,1.64,0,0,0-1.38.48,3.16,3.16,0,0,0-.36,1.8,3.52,3.52,0,0,0,.34,1.83,1.6,1.6,0,0,0,1.42.51l1.41-.11,0,.74a12.38,12.38,0,0,1-1.66.17,2.26,2.26,0,0,1-1.93-.72,4.19,4.19,0,0,1-.53-2.43,3.8,3.8,0,0,1,.57-2.4A2.36,2.36,0,0,1,625.81,288.71Z"/><path class="cls-11" d="M629.68,294.82h-.9v-8.6h.9v2.95a4.28,4.28,0,0,1,1.84-.46,1.77,1.77,0,0,1,1.61.65,4.58,4.58,0,0,1,.41,2.3v3.16h-.9v-3.14a4,4,0,0,0-.25-1.71,1.06,1.06,0,0,0-1-.46,4,4,0,0,0-1.46.28l-.23.08Z"/><path class="cls-11" d="M637.58,291.81a3.81,3.81,0,0,1,.59-2.37,3,3,0,0,1,4,0,3.84,3.84,0,0,1,.58,2.37,4.05,4.05,0,0,1-.55,2.38,3.09,3.09,0,0,1-4,0A4.05,4.05,0,0,1,637.58,291.81Zm.92,0a3.82,3.82,0,0,0,.32,1.84,1.94,1.94,0,0,0,2.65,0,3.86,3.86,0,0,0,.31-1.84,3.38,3.38,0,0,0-.35-1.81,1.47,1.47,0,0,0-1.29-.5,1.48,1.48,0,0,0-1.29.5A3.32,3.32,0,0,0,638.5,291.79Z"/><path class="cls-11" d="M647.21,289.61h-1.9v2.86a3.88,3.88,0,0,0,.15,1.35q.15.32.71.32l1.06-.07.06.74a8.18,8.18,0,0,1-1.22.13,1.56,1.56,0,0,1-1.29-.46,3,3,0,0,1-.36-1.74v-3.15h-.85v-.78h.85V287h.89v1.83h1.9Z"/><path class="cls-11" d="M649.21,294.82h-.9v-8.6h.9v2.95a4.28,4.28,0,0,1,1.84-.46,1.77,1.77,0,0,1,1.61.65,4.58,4.58,0,0,1,.41,2.3v3.16h-.9v-3.14a4,4,0,0,0-.25-1.71,1.06,1.06,0,0,0-1-.46,4,4,0,0,0-1.46.28l-.23.08Z"/><path class="cls-11" d="M658.8,294.08l.35,0,0,.71a17.14,17.14,0,0,1-2.33.19,2.1,2.1,0,0,1-1.83-.75,4,4,0,0,1-.54-2.33q0-3.15,2.5-3.15a2.29,2.29,0,0,1,1.81.68,3.16,3.16,0,0,1,.6,2.13l0,.68h-3.95a2.46,2.46,0,0,0,.36,1.47,1.47,1.47,0,0,0,1.25.48Q657.88,294.15,658.8,294.08Zm-.32-2.6a2.61,2.61,0,0,0-.35-1.56,1.36,1.36,0,0,0-1.15-.46,1.47,1.47,0,0,0-1.2.48,2.42,2.42,0,0,0-.41,1.53Z"/><path class="cls-11" d="M660.77,294.82v-6h.89v.81a5.81,5.81,0,0,1,2.19-.95v.91a6.49,6.49,0,0,0-1,.3,7.12,7.12,0,0,0-.83.36l-.3.16v4.4Z"/><path class="cls-11" d="M670.64,289.61h-1.9v2.86a3.88,3.88,0,0,0,.15,1.35q.15.32.71.32l1.06-.07.06.74a8.18,8.18,0,0,1-1.22.13,1.56,1.56,0,0,1-1.29-.46,3,3,0,0,1-.36-1.74v-3.15H667v-.78h.85V287h.89v1.83h1.9Z"/><path class="cls-11" d="M671.48,291.81a3.81,3.81,0,0,1,.59-2.37,3,3,0,0,1,4,0,3.84,3.84,0,0,1,.58,2.37,4.05,4.05,0,0,1-.55,2.38,3.09,3.09,0,0,1-4,0A4.05,4.05,0,0,1,671.48,291.81Zm.92,0a3.82,3.82,0,0,0,.32,1.84,1.94,1.94,0,0,0,2.65,0,3.86,3.86,0,0,0,.31-1.84,3.38,3.38,0,0,0-.35-1.81,1.47,1.47,0,0,0-1.29-.5,1.48,1.48,0,0,0-1.29.5A3.32,3.32,0,0,0,672.4,291.79Z"/><path class="cls-11" d="M682.57,289.51q-1.3,0-1.3.91a.63.63,0,0,0,.3.59,5.07,5.07,0,0,0,1.36.36,3.65,3.65,0,0,1,1.51.52,1.5,1.5,0,0,1,.44,1.26,1.56,1.56,0,0,1-.59,1.35,2.92,2.92,0,0,1-1.73.43,10.86,10.86,0,0,1-1.75-.17l-.36-.06,0-.78a15.08,15.08,0,0,0,2.06.2,2.06,2.06,0,0,0,1.06-.22.8.8,0,0,0,.36-.74.75.75,0,0,0-.31-.71,4.6,4.6,0,0,0-1.36-.35,3.59,3.59,0,0,1-1.5-.49,1.39,1.39,0,0,1-.44-1.2,1.46,1.46,0,0,1,.62-1.29,2.67,2.67,0,0,1,1.54-.42,12.5,12.5,0,0,1,1.83.17l.33.06,0,.77A15.51,15.51,0,0,0,682.57,289.51Z"/><path class="cls-11" d="M690.32,294.08l.35,0,0,.71a17.14,17.14,0,0,1-2.33.19,2.1,2.1,0,0,1-1.83-.75,4,4,0,0,1-.54-2.33q0-3.15,2.5-3.15a2.29,2.29,0,0,1,1.81.68,3.16,3.16,0,0,1,.6,2.13l0,.68H686.9a2.46,2.46,0,0,0,.36,1.47,1.47,1.47,0,0,0,1.25.48Q689.4,294.15,690.32,294.08Zm-.32-2.6a2.61,2.61,0,0,0-.35-1.56,1.36,1.36,0,0,0-1.15-.46,1.47,1.47,0,0,0-1.2.48,2.42,2.42,0,0,0-.41,1.53Z"/><path class="cls-11" d="M693.19,294.82h-.9v-6h.89v.42a3.82,3.82,0,0,1,1.85-.54,1.77,1.77,0,0,1,1.61.65,4.58,4.58,0,0,1,.41,2.3v3.16h-.89v-3.14a4.06,4.06,0,0,0-.25-1.71,1.08,1.08,0,0,0-1-.46,3.15,3.15,0,0,0-.81.11,4.11,4.11,0,0,0-.65.22l-.23.11Z"/><path class="cls-11" d="M703.31,286.22v8.6h-.89v-.41a3.64,3.64,0,0,1-1.82.53,2.64,2.64,0,0,1-.84-.12,1.72,1.72,0,0,1-.67-.43,3.38,3.38,0,0,1-.65-2.39,4.25,4.25,0,0,1,.58-2.52,2.25,2.25,0,0,1,1.92-.77,7.53,7.53,0,0,1,1.47.16v-2.65Zm-3.11,7.83a1.56,1.56,0,0,0,.56.08,3,3,0,0,0,.77-.11,4.43,4.43,0,0,0,.66-.22l.24-.11v-4.06a7.76,7.76,0,0,0-1.42-.14,1.37,1.37,0,0,0-1.27.58,3.52,3.52,0,0,0-.36,1.8,3,3,0,0,0,.42,1.87A1,1,0,0,0,700.2,294.05Z"/><path class="cls-11" d="M709.92,288.71a10.33,10.33,0,0,1,1.34.14l.29,0,0,.73q-1-.11-1.41-.11a1.64,1.64,0,0,0-1.38.48,3.16,3.16,0,0,0-.36,1.8,3.52,3.52,0,0,0,.34,1.83,1.6,1.6,0,0,0,1.42.51l1.41-.11,0,.74a12.38,12.38,0,0,1-1.66.17,2.26,2.26,0,0,1-1.93-.72,4.19,4.19,0,0,1-.53-2.43,3.8,3.8,0,0,1,.57-2.4A2.36,2.36,0,0,1,709.92,288.71Z"/><path class="cls-11" d="M712.56,291.81a3.81,3.81,0,0,1,.59-2.37,3,3,0,0,1,4,0,3.84,3.84,0,0,1,.58,2.37,4.05,4.05,0,0,1-.55,2.38,3.09,3.09,0,0,1-4,0A4.05,4.05,0,0,1,712.56,291.81Zm.92,0a3.82,3.82,0,0,0,.32,1.84,1.94,1.94,0,0,0,2.65,0,3.86,3.86,0,0,0,.31-1.84,3.38,3.38,0,0,0-.35-1.81,1.47,1.47,0,0,0-1.29-.5,1.48,1.48,0,0,0-1.29.5A3.32,3.32,0,0,0,713.48,291.79Z"/><path class="cls-11" d="M720,294.82h-.9v-6H720v.42a3.82,3.82,0,0,1,1.85-.54,1.77,1.77,0,0,1,1.61.65,4.58,4.58,0,0,1,.41,2.3v3.16H723v-3.14a4.06,4.06,0,0,0-.25-1.71,1.08,1.08,0,0,0-1-.46,3.15,3.15,0,0,0-.81.11,4.11,4.11,0,0,0-.65.22L720,290Z"/><path class="cls-11" d="M726.71,289.61v5.21h-.9v-5.21h-.75v-.78h.75v-.54a3,3,0,0,1,.36-1.73,1.51,1.51,0,0,1,1.26-.46l1.21.08v.74l-1.11,0a.68.68,0,0,0-.62.29,2.27,2.27,0,0,0-.19,1.11v.53h1.73v.78Z"/><path class="cls-11" d="M729.52,287.48v-1h.9v1Zm0,7.34v-6h.9v6Z"/><path class="cls-11" d="M734.45,297.63a3.75,3.75,0,0,1-2-.39,1.6,1.6,0,0,1-.57-1.42,1.35,1.35,0,0,1,.22-.8,3.34,3.34,0,0,1,.73-.69.93.93,0,0,1-.33-.83,2.07,2.07,0,0,1,.3-.75l.11-.19a1.78,1.78,0,0,1-.94-1.81q0-2,2.24-2a4.47,4.47,0,0,1,1.06.12l.18,0,1.77,0v.77l-1.14,0a1.63,1.63,0,0,1,.39,1.2,1.92,1.92,0,0,1-.56,1.58,2.78,2.78,0,0,1-1.75.45,3.27,3.27,0,0,1-.59,0,2.52,2.52,0,0,0-.22.68q0,.37.23.46A5.64,5.64,0,0,0,735,294a2.91,2.91,0,0,1,1.65.36,1.63,1.63,0,0,1,.5,1.4Q737.11,297.63,734.45,297.63Zm-1.69-1.88a1,1,0,0,0,.35.88,2.44,2.44,0,0,0,1.3.25,2.65,2.65,0,0,0,1.36-.26,1,1,0,0,0,.41-.88q0-.62-.3-.8a2.55,2.55,0,0,0-1.17-.18l-1.29-.06a2.12,2.12,0,0,0-.53.5A1,1,0,0,0,732.77,295.75Zm.08-5a1.34,1.34,0,0,0,.32,1,1.49,1.49,0,0,0,1,.3,1.47,1.47,0,0,0,1-.3,1.8,1.8,0,0,0,0-2,2,2,0,0,0-2.09,0A1.36,1.36,0,0,0,732.85,290.76Z"/><path class="cls-11" d="M742,288.83h.9v6H742v-.42a3.42,3.42,0,0,1-1.77.54,1.78,1.78,0,0,1-1.62-.63,4.79,4.79,0,0,1-.4-2.35v-3.13h.9v3.11a4.42,4.42,0,0,0,.23,1.75q.23.44,1,.44a3,3,0,0,0,.8-.11,3.57,3.57,0,0,0,.62-.22l.22-.11Z"/><path class="cls-11" d="M744.64,294.82v-6h.89v.81a5.81,5.81,0,0,1,2.19-.95v.91a6.49,6.49,0,0,0-1,.3,7.12,7.12,0,0,0-.83.36l-.3.16v4.4Z"/><path class="cls-11" d="M753,290.64v3.07q0,.44.69.53l0,.71a1.93,1.93,0,0,1-1.42-.48,5.26,5.26,0,0,1-2.15.48,1.62,1.62,0,0,1-1.26-.47,1.91,1.91,0,0,1-.43-1.34,1.69,1.69,0,0,1,.44-1.29,2.35,2.35,0,0,1,1.39-.51l1.88-.18v-.51a1.21,1.21,0,0,0-.26-.87,1,1,0,0,0-.72-.26,17.13,17.13,0,0,0-2,.12l-.37,0,0-.68a12,12,0,0,1,2.33-.26,1.67,1.67,0,0,1,1.94,1.93Zm-3.68,2.44q0,1.1.91,1.1a4.84,4.84,0,0,0,1.6-.28l.28-.1v-2l-1.77.17a1.15,1.15,0,0,0-.78.31A1.1,1.1,0,0,0,749.32,293.08Z"/><path class="cls-11" d="M757.87,289.61H756v2.86a3.88,3.88,0,0,0,.15,1.35q.15.32.71.32l1.06-.07.06.74a8.18,8.18,0,0,1-1.22.13,1.56,1.56,0,0,1-1.29-.46,3,3,0,0,1-.36-1.74v-3.15h-.85v-.78h.85V287H756v1.83h1.9Z"/><path class="cls-11" d="M759,287.48v-1h.9v1Zm0,7.34v-6h.9v6Z"/><path class="cls-11" d="M761.33,291.81a3.81,3.81,0,0,1,.59-2.37,3,3,0,0,1,4,0,3.84,3.84,0,0,1,.58,2.37,4.05,4.05,0,0,1-.55,2.38,3.09,3.09,0,0,1-4,0A4.05,4.05,0,0,1,761.33,291.81Zm.92,0a3.82,3.82,0,0,0,.32,1.84,1.94,1.94,0,0,0,2.65,0,3.86,3.86,0,0,0,.31-1.84,3.38,3.38,0,0,0-.35-1.81,1.47,1.47,0,0,0-1.29-.5,1.48,1.48,0,0,0-1.29.5A3.32,3.32,0,0,0,762.25,291.79Z"/><path class="cls-11" d="M768.81,294.82h-.9v-6h.89v.42a3.82,3.82,0,0,1,1.85-.54,1.77,1.77,0,0,1,1.61.65,4.58,4.58,0,0,1,.41,2.3v3.16h-.89v-3.14a4.06,4.06,0,0,0-.25-1.71,1.08,1.08,0,0,0-1-.46,3.15,3.15,0,0,0-.81.11,4.11,4.11,0,0,0-.65.22l-.23.11Z"/><path class="cls-11" d="M590.28,303.2h.9v6h-.9v-.42a3.42,3.42,0,0,1-1.77.54,1.78,1.78,0,0,1-1.62-.63,4.79,4.79,0,0,1-.4-2.35V303.2h.9v3.11a4.42,4.42,0,0,0,.23,1.75q.23.44,1,.44a3,3,0,0,0,.8-.11,3.57,3.57,0,0,0,.62-.22l.22-.11Z"/><path class="cls-11" d="M592.9,311.85V303.2h.89v.43a3.45,3.45,0,0,1,1.79-.55,1.88,1.88,0,0,1,1.65.72,4.24,4.24,0,0,1,.51,2.39,3.74,3.74,0,0,1-.6,2.39,2.48,2.48,0,0,1-2,.72,6.35,6.35,0,0,1-1.34-.13v2.67Zm2.55-8a2.8,2.8,0,0,0-.77.12,4,4,0,0,0-.65.24l-.23.12v4a9.12,9.12,0,0,0,1.29.13,1.55,1.55,0,0,0,1.36-.55,3.19,3.19,0,0,0,.39-1.8,3.33,3.33,0,0,0-.35-1.77A1.17,1.17,0,0,0,595.45,303.88Z"/><path class="cls-11" d="M603.8,300.59v8.6h-.89v-.41a3.64,3.64,0,0,1-1.82.53,2.64,2.64,0,0,1-.84-.12,1.72,1.72,0,0,1-.67-.43,3.38,3.38,0,0,1-.65-2.39,4.25,4.25,0,0,1,.58-2.52,2.25,2.25,0,0,1,1.92-.77,7.53,7.53,0,0,1,1.47.16v-2.65Zm-3.11,7.83a1.56,1.56,0,0,0,.56.08,3,3,0,0,0,.77-.11,4.43,4.43,0,0,0,.66-.22l.24-.11V304a7.76,7.76,0,0,0-1.42-.14,1.37,1.37,0,0,0-1.27.58,3.52,3.52,0,0,0-.36,1.8,3,3,0,0,0,.42,1.87A1,1,0,0,0,600.69,308.42Z"/><path class="cls-11" d="M609.75,305v3.07q0,.44.69.53l0,.71a1.93,1.93,0,0,1-1.42-.48,5.26,5.26,0,0,1-2.15.48,1.62,1.62,0,0,1-1.26-.47,1.91,1.91,0,0,1-.43-1.34,1.69,1.69,0,0,1,.44-1.29,2.35,2.35,0,0,1,1.39-.51l1.88-.18V305a1.21,1.21,0,0,0-.26-.87,1,1,0,0,0-.72-.26,17.13,17.13,0,0,0-2,.12l-.37,0,0-.68a12,12,0,0,1,2.33-.26,1.67,1.67,0,0,1,1.94,1.93Zm-3.68,2.44q0,1.1.91,1.1a4.84,4.84,0,0,0,1.6-.28l.28-.1v-2l-1.77.17a1.15,1.15,0,0,0-.78.31A1.1,1.1,0,0,0,606.07,307.45Z"/><path class="cls-11" d="M614.62,304h-1.9v2.86a3.88,3.88,0,0,0,.15,1.35q.15.32.71.32l1.06-.07.06.74a8.18,8.18,0,0,1-1.22.13,1.56,1.56,0,0,1-1.29-.46,3,3,0,0,1-.36-1.74V304H611v-.78h.85v-1.83h.89v1.83h1.9Z"/><path class="cls-11" d="M619.79,308.45l.35,0,0,.71a17.14,17.14,0,0,1-2.33.19,2.1,2.1,0,0,1-1.83-.75,4,4,0,0,1-.54-2.33q0-3.15,2.5-3.15a2.29,2.29,0,0,1,1.81.68,3.16,3.16,0,0,1,.6,2.13l0,.68h-3.95a2.46,2.46,0,0,0,.36,1.47,1.47,1.47,0,0,0,1.25.48Q618.87,308.52,619.79,308.45Zm-.32-2.6a2.61,2.61,0,0,0-.35-1.56,1.36,1.36,0,0,0-1.15-.46,1.47,1.47,0,0,0-1.2.48,2.42,2.42,0,0,0-.41,1.53Z"/><path class="cls-11" d="M623.64,303.88q-1.3,0-1.3.91a.63.63,0,0,0,.3.59,5.07,5.07,0,0,0,1.36.36,3.65,3.65,0,0,1,1.51.52,1.5,1.5,0,0,1,.44,1.26,1.56,1.56,0,0,1-.59,1.35,2.92,2.92,0,0,1-1.73.43,10.86,10.86,0,0,1-1.75-.17l-.36-.06,0-.78a15.08,15.08,0,0,0,2.06.2,2.06,2.06,0,0,0,1.06-.22.8.8,0,0,0,.36-.74.75.75,0,0,0-.31-.71,4.6,4.6,0,0,0-1.36-.35,3.59,3.59,0,0,1-1.5-.49,1.39,1.39,0,0,1-.44-1.2,1.46,1.46,0,0,1,.62-1.29,2.67,2.67,0,0,1,1.54-.42,12.5,12.5,0,0,1,1.83.17l.33.06,0,.77A15.51,15.51,0,0,0,623.64,303.88Z"/><path class="cls-11" d="M626.87,310.66l.55-2.75h1l-.8,2.75Z"/><path class="cls-11" d="M633.52,309.19h-.9v-6h.89v.42a3.39,3.39,0,0,1,1.75-.54,1.8,1.8,0,0,1,1.56.61,4.42,4.42,0,0,1,1-.42,4,4,0,0,1,1.11-.19,1.78,1.78,0,0,1,1.61.64A4.57,4.57,0,0,1,641,306v3.16h-.9v-3.14a4.15,4.15,0,0,0-.24-1.71,1,1,0,0,0-1-.46,3.12,3.12,0,0,0-.81.11,4.14,4.14,0,0,0-.65.22l-.23.11a6,6,0,0,1,.16,1.75v3.11h-.9V306.1a4.41,4.41,0,0,0-.23-1.75,1,1,0,0,0-1-.46,2.88,2.88,0,0,0-.78.11,3.76,3.76,0,0,0-.62.22l-.2.11Z"/><path class="cls-11" d="M646.85,305v3.07q0,.44.69.53l0,.71a1.93,1.93,0,0,1-1.42-.48,5.26,5.26,0,0,1-2.15.48,1.62,1.62,0,0,1-1.26-.47,1.91,1.91,0,0,1-.43-1.34,1.69,1.69,0,0,1,.44-1.29,2.35,2.35,0,0,1,1.39-.51l1.88-.18V305a1.21,1.21,0,0,0-.26-.87,1,1,0,0,0-.72-.26,17.13,17.13,0,0,0-2,.12l-.37,0,0-.68a12,12,0,0,1,2.33-.26,1.67,1.67,0,0,1,1.94,1.93Zm-3.68,2.44q0,1.1.91,1.1a4.84,4.84,0,0,0,1.6-.28l.28-.1v-2l-1.77.17a1.15,1.15,0,0,0-.78.31A1.1,1.1,0,0,0,643.17,307.45Z"/><path class="cls-11" d="M649.52,309.19h-.9v-6h.89v.42a3.82,3.82,0,0,1,1.85-.54,1.77,1.77,0,0,1,1.61.65,4.58,4.58,0,0,1,.41,2.3v3.16h-.89v-3.14a4.06,4.06,0,0,0-.25-1.71,1.08,1.08,0,0,0-1-.46,3.15,3.15,0,0,0-.81.11,4.11,4.11,0,0,0-.65.22l-.23.11Z"/><path class="cls-11" d="M659.27,305v3.07q0,.44.69.53l0,.71a1.93,1.93,0,0,1-1.42-.48,5.26,5.26,0,0,1-2.15.48,1.62,1.62,0,0,1-1.26-.47,1.91,1.91,0,0,1-.43-1.34,1.69,1.69,0,0,1,.44-1.29,2.35,2.35,0,0,1,1.39-.51l1.88-.18V305a1.21,1.21,0,0,0-.26-.87,1,1,0,0,0-.72-.26,17.13,17.13,0,0,0-2,.12l-.37,0,0-.68a12,12,0,0,1,2.33-.26,1.67,1.67,0,0,1,1.94,1.93Zm-3.68,2.44q0,1.1.91,1.1a4.84,4.84,0,0,0,1.6-.28l.28-.1v-2l-1.77.17a1.15,1.15,0,0,0-.78.31A1.1,1.1,0,0,0,655.58,307.45Z"/><path class="cls-11" d="M663.35,312a3.75,3.75,0,0,1-2-.39,1.6,1.6,0,0,1-.57-1.42,1.35,1.35,0,0,1,.22-.8,3.34,3.34,0,0,1,.73-.69.93.93,0,0,1-.33-.83,2.07,2.07,0,0,1,.3-.75l.11-.19a1.78,1.78,0,0,1-.94-1.81q0-2,2.24-2a4.47,4.47,0,0,1,1.06.12l.18,0,1.77,0V304l-1.14,0a1.63,1.63,0,0,1,.39,1.2,1.92,1.92,0,0,1-.56,1.58,2.78,2.78,0,0,1-1.75.45,3.27,3.27,0,0,1-.59,0,2.52,2.52,0,0,0-.22.68q0,.37.23.46a5.64,5.64,0,0,0,1.38.09,2.91,2.91,0,0,1,1.65.36,1.63,1.63,0,0,1,.5,1.4Q666,312,663.35,312Zm-1.69-1.88a1,1,0,0,0,.35.88,2.44,2.44,0,0,0,1.3.25,2.65,2.65,0,0,0,1.36-.26,1,1,0,0,0,.41-.88q0-.62-.3-.8a2.55,2.55,0,0,0-1.17-.18l-1.29-.06a2.12,2.12,0,0,0-.53.5A1,1,0,0,0,661.66,310.12Zm.08-5a1.34,1.34,0,0,0,.32,1,1.49,1.49,0,0,0,1,.3,1.47,1.47,0,0,0,1-.3,1.8,1.8,0,0,0,0-2,2,2,0,0,0-2.09,0A1.36,1.36,0,0,0,661.74,305.13Z"/><path class="cls-11" d="M671.25,308.45l.35,0,0,.71a17.14,17.14,0,0,1-2.33.19,2.1,2.1,0,0,1-1.83-.75,4,4,0,0,1-.54-2.33q0-3.15,2.5-3.15a2.29,2.29,0,0,1,1.81.68,3.16,3.16,0,0,1,.6,2.13l0,.68h-3.95a2.46,2.46,0,0,0,.36,1.47,1.47,1.47,0,0,0,1.25.48Q670.33,308.52,671.25,308.45Zm-.32-2.6a2.61,2.61,0,0,0-.35-1.56,1.36,1.36,0,0,0-1.15-.46,1.47,1.47,0,0,0-1.2.48,2.42,2.42,0,0,0-.41,1.53Z"/><path class="cls-11" d="M675.93,309.19v-8.6h.9v8.6Z"/><path class="cls-11" d="M682.69,308.45l.35,0,0,.71a17.14,17.14,0,0,1-2.33.19,2.1,2.1,0,0,1-1.83-.75,4,4,0,0,1-.54-2.33q0-3.15,2.5-3.15a2.29,2.29,0,0,1,1.81.68,3.16,3.16,0,0,1,.6,2.13l0,.68h-3.95a2.46,2.46,0,0,0,.36,1.47,1.47,1.47,0,0,0,1.25.48Q681.77,308.52,682.69,308.45Zm-.32-2.6a2.61,2.61,0,0,0-.35-1.56,1.36,1.36,0,0,0-1.15-.46,1.47,1.47,0,0,0-1.2.48,2.42,2.42,0,0,0-.41,1.53Z"/><path class="cls-11" d="M688.89,305v3.07q0,.44.69.53l0,.71a1.93,1.93,0,0,1-1.42-.48,5.26,5.26,0,0,1-2.15.48,1.62,1.62,0,0,1-1.26-.47,1.91,1.91,0,0,1-.43-1.34,1.69,1.69,0,0,1,.44-1.29,2.35,2.35,0,0,1,1.39-.51l1.88-.18V305a1.21,1.21,0,0,0-.26-.87,1,1,0,0,0-.72-.26,17.13,17.13,0,0,0-2,.12l-.37,0,0-.68a12,12,0,0,1,2.33-.26,1.67,1.67,0,0,1,1.94,1.93Zm-3.68,2.44q0,1.1.91,1.1a4.84,4.84,0,0,0,1.6-.28l.28-.1v-2l-1.77.17a1.15,1.15,0,0,0-.78.31A1.1,1.1,0,0,0,685.2,307.45Z"/><path class="cls-11" d="M695.25,300.59v8.6h-.89v-.41a3.64,3.64,0,0,1-1.82.53,2.64,2.64,0,0,1-.84-.12,1.72,1.72,0,0,1-.67-.43,3.38,3.38,0,0,1-.65-2.39,4.25,4.25,0,0,1,.58-2.52,2.25,2.25,0,0,1,1.92-.77,7.53,7.53,0,0,1,1.47.16v-2.65Zm-3.11,7.83a1.56,1.56,0,0,0,.56.08,3,3,0,0,0,.77-.11,4.43,4.43,0,0,0,.66-.22l.24-.11V304a7.76,7.76,0,0,0-1.42-.14,1.37,1.37,0,0,0-1.27.58,3.52,3.52,0,0,0-.36,1.8,3,3,0,0,0,.42,1.87A1,1,0,0,0,692.14,308.42Z"/><path class="cls-11" d="M701.05,308.45l.35,0,0,.71a17.14,17.14,0,0,1-2.33.19,2.1,2.1,0,0,1-1.83-.75,4,4,0,0,1-.54-2.33q0-3.15,2.5-3.15a2.29,2.29,0,0,1,1.81.68,3.16,3.16,0,0,1,.6,2.13l0,.68h-3.95A2.46,2.46,0,0,0,698,308a1.47,1.47,0,0,0,1.25.48Q700.13,308.52,701.05,308.45Zm-.32-2.6a2.61,2.61,0,0,0-.35-1.56,1.36,1.36,0,0,0-1.15-.46,1.47,1.47,0,0,0-1.2.48,2.42,2.42,0,0,0-.41,1.53Z"/><path class="cls-11" d="M703,309.19v-6h.89V304a5.81,5.81,0,0,1,2.19-.95V304a6.49,6.49,0,0,0-1,.3,7.12,7.12,0,0,0-.83.36l-.3.16v4.4Z"/><path class="cls-11" d="M713.86,308.45l.35,0,0,.71a17.14,17.14,0,0,1-2.33.19,2.1,2.1,0,0,1-1.83-.75,4,4,0,0,1-.54-2.33q0-3.15,2.5-3.15a2.29,2.29,0,0,1,1.81.68,3.16,3.16,0,0,1,.6,2.13l0,.68h-3.95a2.46,2.46,0,0,0,.36,1.47,1.47,1.47,0,0,0,1.25.48Q712.94,308.52,713.86,308.45Zm-.32-2.6a2.61,2.61,0,0,0-.35-1.56,1.36,1.36,0,0,0-1.15-.46,1.47,1.47,0,0,0-1.2.48,2.42,2.42,0,0,0-.41,1.53Z"/><path class="cls-11" d="M715.91,309.19v-8.6h.9v8.6Z"/><path class="cls-11" d="M722.67,308.45l.35,0,0,.71a17.14,17.14,0,0,1-2.33.19,2.1,2.1,0,0,1-1.83-.75,4,4,0,0,1-.54-2.33q0-3.15,2.5-3.15a2.29,2.29,0,0,1,1.81.68,3.16,3.16,0,0,1,.6,2.13l0,.68h-3.95a2.46,2.46,0,0,0,.36,1.47,1.47,1.47,0,0,0,1.25.48Q721.75,308.52,722.67,308.45Zm-.32-2.6a2.61,2.61,0,0,0-.35-1.56,1.36,1.36,0,0,0-1.15-.46,1.47,1.47,0,0,0-1.2.48,2.42,2.42,0,0,0-.41,1.53Z"/><path class="cls-11" d="M726.88,303.08a10.33,10.33,0,0,1,1.34.14l.29,0,0,.73q-1-.11-1.41-.11a1.64,1.64,0,0,0-1.38.48,3.16,3.16,0,0,0-.36,1.8,3.52,3.52,0,0,0,.34,1.83,1.6,1.6,0,0,0,1.42.51l1.41-.11,0,.74a12.38,12.38,0,0,1-1.66.17,2.26,2.26,0,0,1-1.93-.72,4.19,4.19,0,0,1-.53-2.43,3.8,3.8,0,0,1,.57-2.4A2.36,2.36,0,0,1,726.88,303.08Z"/><path class="cls-11" d="M733,304h-1.9v2.86a3.88,3.88,0,0,0,.15,1.35q.15.32.71.32l1.06-.07.06.74a8.18,8.18,0,0,1-1.22.13,1.56,1.56,0,0,1-1.29-.46,3,3,0,0,1-.36-1.74V304h-.85v-.78h.85v-1.83h.89v1.83H733Z"/><path class="cls-11" d="M734.06,301.85v-1h.9v1Zm0,7.34v-6h.9v6Z"/><path class="cls-11" d="M736.41,306.18a3.81,3.81,0,0,1,.59-2.37,3,3,0,0,1,4,0,3.84,3.84,0,0,1,.58,2.37,4.05,4.05,0,0,1-.55,2.38,3.09,3.09,0,0,1-4,0A4.05,4.05,0,0,1,736.41,306.18Zm.92,0a3.82,3.82,0,0,0,.32,1.84,1.94,1.94,0,0,0,2.65,0,3.86,3.86,0,0,0,.31-1.84,3.38,3.38,0,0,0-.35-1.81,1.47,1.47,0,0,0-1.29-.5,1.48,1.48,0,0,0-1.29.5A3.32,3.32,0,0,0,737.33,306.17Z"/><path class="cls-11" d="M743.89,309.19H743v-6h.89v.42a3.82,3.82,0,0,1,1.85-.54,1.77,1.77,0,0,1,1.61.65,4.58,4.58,0,0,1,.41,2.3v3.16h-.89v-3.14a4.06,4.06,0,0,0-.25-1.71,1.08,1.08,0,0,0-1-.46,3.15,3.15,0,0,0-.81.11,4.11,4.11,0,0,0-.65.22l-.23.11Z"/><path class="cls-11" d="M751.29,303.88q-1.3,0-1.3.91a.63.63,0,0,0,.3.59,5.07,5.07,0,0,0,1.36.36,3.65,3.65,0,0,1,1.51.52,1.5,1.5,0,0,1,.44,1.26,1.56,1.56,0,0,1-.59,1.35,2.92,2.92,0,0,1-1.73.43,10.86,10.86,0,0,1-1.75-.17l-.36-.06,0-.78a15.08,15.08,0,0,0,2.06.2,2.06,2.06,0,0,0,1.06-.22.8.8,0,0,0,.36-.74.75.75,0,0,0-.31-.71,4.6,4.6,0,0,0-1.36-.35,3.59,3.59,0,0,1-1.5-.49,1.39,1.39,0,0,1-.44-1.2,1.46,1.46,0,0,1,.62-1.29,2.67,2.67,0,0,1,1.54-.42,12.5,12.5,0,0,1,1.83.17l.33.06,0,.77A15.51,15.51,0,0,0,751.29,303.88Z"/><path class="cls-11" d="M758.76,304v5.21h-.9V304h-.75v-.78h.75v-.54a3,3,0,0,1,.36-1.73,1.51,1.51,0,0,1,1.26-.46l1.21.08v.74l-1.11,0a.68.68,0,0,0-.62.29,2.27,2.27,0,0,0-.19,1.11v.53h1.73V304Z"/><path class="cls-11" d="M761.2,306.18a3.81,3.81,0,0,1,.59-2.37,3,3,0,0,1,4,0,3.84,3.84,0,0,1,.58,2.37,4.05,4.05,0,0,1-.55,2.38,3.09,3.09,0,0,1-4,0A4.05,4.05,0,0,1,761.2,306.18Zm.92,0a3.82,3.82,0,0,0,.32,1.84,1.94,1.94,0,0,0,2.65,0,3.86,3.86,0,0,0,.31-1.84,3.38,3.38,0,0,0-.35-1.81,1.47,1.47,0,0,0-1.29-.5,1.48,1.48,0,0,0-1.29.5A3.32,3.32,0,0,0,762.12,306.17Z"/><path class="cls-11" d="M767.78,309.19v-6h.89V304a5.81,5.81,0,0,1,2.19-.95V304a6.49,6.49,0,0,0-1,.3,7.12,7.12,0,0,0-.83.36l-.3.16v4.4Z"/><path class="cls-11" d="M586.62,323.56V315h.9v8.6Z"/><path class="cls-11" d="M593.38,322.82l.35,0,0,.71a17.14,17.14,0,0,1-2.33.19,2.1,2.1,0,0,1-1.83-.75,4,4,0,0,1-.54-2.33q0-3.15,2.5-3.15a2.29,2.29,0,0,1,1.81.68,3.16,3.16,0,0,1,.6,2.13l0,.68H590a2.46,2.46,0,0,0,.36,1.47,1.47,1.47,0,0,0,1.25.48Q592.46,322.89,593.38,322.82Zm-.32-2.6a2.61,2.61,0,0,0-.35-1.56,1.36,1.36,0,0,0-1.15-.46,1.47,1.47,0,0,0-1.2.48,2.42,2.42,0,0,0-.41,1.53Z"/><path class="cls-11" d="M599.57,319.38v3.07q0,.44.69.53l0,.71a1.93,1.93,0,0,1-1.42-.48,5.26,5.26,0,0,1-2.15.48,1.62,1.62,0,0,1-1.26-.47,1.91,1.91,0,0,1-.43-1.34,1.69,1.69,0,0,1,.44-1.29,2.35,2.35,0,0,1,1.39-.51l1.88-.18v-.51a1.21,1.21,0,0,0-.26-.87,1,1,0,0,0-.72-.26,17.13,17.13,0,0,0-2,.12l-.37,0,0-.68a12,12,0,0,1,2.33-.26,1.67,1.67,0,0,1,1.94,1.93Zm-3.68,2.44q0,1.1.91,1.1a4.84,4.84,0,0,0,1.6-.28l.28-.1v-2l-1.77.17a1.15,1.15,0,0,0-.78.31A1.1,1.1,0,0,0,595.89,321.83Z"/><path class="cls-11" d="M605.94,315v8.6h-.89v-.41a3.64,3.64,0,0,1-1.82.53,2.64,2.64,0,0,1-.84-.12,1.72,1.72,0,0,1-.67-.43,3.38,3.38,0,0,1-.65-2.39,4.25,4.25,0,0,1,.58-2.52,2.25,2.25,0,0,1,1.92-.77,7.53,7.53,0,0,1,1.47.16V315Zm-3.11,7.83a1.56,1.56,0,0,0,.56.08,3,3,0,0,0,.77-.11,4.43,4.43,0,0,0,.66-.22l.24-.11v-4.06a7.76,7.76,0,0,0-1.42-.14,1.37,1.37,0,0,0-1.27.58,3.52,3.52,0,0,0-.36,1.8,3,3,0,0,0,.42,1.87A1,1,0,0,0,602.83,322.8Z"/><path class="cls-11" d="M611.74,322.82l.35,0,0,.71a17.14,17.14,0,0,1-2.33.19,2.1,2.1,0,0,1-1.83-.75,4,4,0,0,1-.54-2.33q0-3.15,2.5-3.15a2.29,2.29,0,0,1,1.81.68,3.16,3.16,0,0,1,.6,2.13l0,.68h-3.95a2.46,2.46,0,0,0,.36,1.47,1.47,1.47,0,0,0,1.25.48Q610.82,322.89,611.74,322.82Zm-.32-2.6a2.61,2.61,0,0,0-.35-1.56,1.36,1.36,0,0,0-1.15-.46,1.47,1.47,0,0,0-1.2.48,2.42,2.42,0,0,0-.41,1.53Z"/><path class="cls-11" d="M613.71,323.56v-6h.89v.81a5.81,5.81,0,0,1,2.19-.95v.91a6.49,6.49,0,0,0-1,.3,7.12,7.12,0,0,0-.83.36l-.3.16v4.4Z"/><path class="cls-11" d="M617.25,320.69v-.84h3.62v.84Z"/><path class="cls-11" d="M623.55,318.35v5.21h-.9v-5.21h-.75v-.78h.75V317a3,3,0,0,1,.36-1.73,1.51,1.51,0,0,1,1.26-.46l1.21.08v.74l-1.11,0a.68.68,0,0,0-.62.29,2.27,2.27,0,0,0-.19,1.11v.53h1.73v.78Z"/><path class="cls-11" d="M626,320.56a3.81,3.81,0,0,1,.59-2.37,3,3,0,0,1,4,0,3.84,3.84,0,0,1,.58,2.37,4.05,4.05,0,0,1-.55,2.38,3.09,3.09,0,0,1-4,0A4.05,4.05,0,0,1,626,320.56Zm.92,0a3.82,3.82,0,0,0,.32,1.84,1.94,1.94,0,0,0,2.65,0,3.86,3.86,0,0,0,.31-1.84,3.38,3.38,0,0,0-.35-1.81,1.47,1.47,0,0,0-1.29-.5,1.48,1.48,0,0,0-1.29.5A3.32,3.32,0,0,0,626.91,320.54Z"/><path class="cls-11" d="M632.64,323.56V315h.9v8.6Z"/><path class="cls-11" d="M635.4,323.56V315h.9v8.6Z"/><path class="cls-11" d="M637.83,320.56a3.81,3.81,0,0,1,.59-2.37,3,3,0,0,1,4,0,3.84,3.84,0,0,1,.58,2.37,4.05,4.05,0,0,1-.55,2.38,3.09,3.09,0,0,1-4,0A4.05,4.05,0,0,1,637.83,320.56Zm.92,0a3.82,3.82,0,0,0,.32,1.84,1.94,1.94,0,0,0,2.65,0,3.86,3.86,0,0,0,.31-1.84,3.38,3.38,0,0,0-.35-1.81,1.47,1.47,0,0,0-1.29-.5,1.48,1.48,0,0,0-1.29.5A3.32,3.32,0,0,0,638.75,320.54Z"/><path class="cls-11" d="M643.86,317.57h.9l1.21,5.21h.19l1.42-5.09h.93l1.42,5.09h.2l1.2-5.21h.9l-1.42,6h-1.5L648,318.88l-1.27,4.68h-1.5Z"/><path class="cls-11" d="M657.47,322.82l.35,0,0,.71a17.14,17.14,0,0,1-2.33.19,2.1,2.1,0,0,1-1.83-.75,4,4,0,0,1-.54-2.33q0-3.15,2.5-3.15a2.29,2.29,0,0,1,1.81.68,3.16,3.16,0,0,1,.6,2.13l0,.68h-3.95a2.46,2.46,0,0,0,.36,1.47,1.47,1.47,0,0,0,1.25.48Q656.55,322.89,657.47,322.82Zm-.32-2.6a2.61,2.61,0,0,0-.35-1.56,1.36,1.36,0,0,0-1.15-.46,1.47,1.47,0,0,0-1.2.48,2.42,2.42,0,0,0-.41,1.53Z"/><path class="cls-11" d="M659.45,323.56v-6h.89v.81a5.81,5.81,0,0,1,2.19-.95v.91a6.49,6.49,0,0,0-1,.3,7.12,7.12,0,0,0-.83.36l-.3.16v4.4Z"/><path class="cls-11" d="M669.32,318.35h-1.9v2.86a3.88,3.88,0,0,0,.15,1.35q.15.32.71.32l1.06-.07.06.74a8.18,8.18,0,0,1-1.22.13,1.56,1.56,0,0,1-1.29-.46,3,3,0,0,1-.36-1.74v-3.15h-.85v-.78h.85v-1.83h.89v1.83h1.9Z"/><path class="cls-11" d="M670.15,320.56a3.81,3.81,0,0,1,.59-2.37,3,3,0,0,1,4,0,3.84,3.84,0,0,1,.58,2.37,4.05,4.05,0,0,1-.55,2.38,3.09,3.09,0,0,1-4,0A4.05,4.05,0,0,1,670.15,320.56Zm.92,0a3.82,3.82,0,0,0,.32,1.84,1.94,1.94,0,0,0,2.65,0,3.86,3.86,0,0,0,.31-1.84,3.38,3.38,0,0,0-.35-1.81,1.47,1.47,0,0,0-1.29-.5,1.48,1.48,0,0,0-1.29.5A3.32,3.32,0,0,0,671.08,320.54Z"/><path class="cls-11" d="M676.73,326.22v-8.65h.89V318a3.45,3.45,0,0,1,1.79-.55,1.88,1.88,0,0,1,1.65.72,4.24,4.24,0,0,1,.51,2.39A3.74,3.74,0,0,1,681,323a2.48,2.48,0,0,1-2,.72,6.35,6.35,0,0,1-1.34-.13v2.67Zm2.55-8a2.8,2.8,0,0,0-.77.12,4,4,0,0,0-.65.24l-.23.12v4a9.12,9.12,0,0,0,1.29.13,1.55,1.55,0,0,0,1.36-.55,3.19,3.19,0,0,0,.39-1.8,3.33,3.33,0,0,0-.35-1.77A1.17,1.17,0,0,0,679.28,318.26Z"/><path class="cls-11" d="M682.77,320.56a3.81,3.81,0,0,1,.59-2.37,3,3,0,0,1,4,0,3.84,3.84,0,0,1,.58,2.37,4.05,4.05,0,0,1-.55,2.38,3.09,3.09,0,0,1-4,0A4.05,4.05,0,0,1,682.77,320.56Zm.92,0a3.82,3.82,0,0,0,.32,1.84,1.94,1.94,0,0,0,2.65,0,3.86,3.86,0,0,0,.31-1.84,3.38,3.38,0,0,0-.35-1.81,1.47,1.47,0,0,0-1.29-.5,1.48,1.48,0,0,0-1.29.5A3.32,3.32,0,0,0,683.7,320.54Z"/><path class="cls-11" d="M689.43,323.56V315h.9v8.6Z"/><path class="cls-11" d="M691.85,320.56a3.81,3.81,0,0,1,.59-2.37,3,3,0,0,1,4,0,3.84,3.84,0,0,1,.58,2.37,4.05,4.05,0,0,1-.55,2.38,3.09,3.09,0,0,1-4,0A4.05,4.05,0,0,1,691.85,320.56Zm.92,0a3.82,3.82,0,0,0,.32,1.84,1.94,1.94,0,0,0,2.65,0,3.86,3.86,0,0,0,.31-1.84,3.38,3.38,0,0,0-.35-1.81,1.47,1.47,0,0,0-1.29-.5,1.48,1.48,0,0,0-1.29.5A3.32,3.32,0,0,0,692.78,320.54Z"/><path class="cls-11" d="M700.74,326.38a3.75,3.75,0,0,1-2-.39,1.6,1.6,0,0,1-.57-1.42,1.35,1.35,0,0,1,.22-.8,3.34,3.34,0,0,1,.73-.69.93.93,0,0,1-.33-.83,2.07,2.07,0,0,1,.3-.75l.11-.19a1.78,1.78,0,0,1-.94-1.81q0-2,2.24-2a4.47,4.47,0,0,1,1.06.12l.18,0,1.77,0v.77l-1.14,0a1.63,1.63,0,0,1,.39,1.2,1.92,1.92,0,0,1-.56,1.58,2.78,2.78,0,0,1-1.75.45,3.27,3.27,0,0,1-.59,0,2.52,2.52,0,0,0-.22.68q0,.37.23.46a5.64,5.64,0,0,0,1.38.09,2.91,2.91,0,0,1,1.65.36,1.63,1.63,0,0,1,.5,1.4Q703.4,326.38,700.74,326.38Zm-1.69-1.88a1,1,0,0,0,.35.88,2.44,2.44,0,0,0,1.3.25,2.65,2.65,0,0,0,1.36-.26,1,1,0,0,0,.41-.88q0-.62-.3-.8a2.55,2.55,0,0,0-1.17-.18l-1.29-.06a2.12,2.12,0,0,0-.53.5A1,1,0,0,0,699.06,324.5Zm.08-5a1.34,1.34,0,0,0,.32,1,1.49,1.49,0,0,0,1,.3,1.47,1.47,0,0,0,1-.3,1.8,1.8,0,0,0,0-2,2,2,0,0,0-2.09,0A1.36,1.36,0,0,0,699.14,319.5Z"/><path class="cls-11" d="M704,317.57h.9l1.5,5.21h.4l1.51-5.21h.9l-2.49,8.65h-.9l.78-2.66h-.89Z"/><path class="cls-11" d="M717.59,315v8.6h-.89v-.41a3.64,3.64,0,0,1-1.82.53,2.64,2.64,0,0,1-.84-.12,1.72,1.72,0,0,1-.67-.43,3.38,3.38,0,0,1-.65-2.39,4.25,4.25,0,0,1,.58-2.52,2.25,2.25,0,0,1,1.92-.77,7.53,7.53,0,0,1,1.47.16V315Zm-3.11,7.83a1.56,1.56,0,0,0,.56.08,3,3,0,0,0,.77-.11,4.43,4.43,0,0,0,.66-.22l.24-.11v-4.06a7.76,7.76,0,0,0-1.42-.14,1.37,1.37,0,0,0-1.27.58,3.52,3.52,0,0,0-.36,1.8,3,3,0,0,0,.42,1.87A1,1,0,0,0,714.48,322.8Z"/><path class="cls-11" d="M723.39,322.82l.35,0,0,.71a17.14,17.14,0,0,1-2.33.19,2.1,2.1,0,0,1-1.83-.75,4,4,0,0,1-.54-2.33q0-3.15,2.5-3.15a2.29,2.29,0,0,1,1.81.68,3.16,3.16,0,0,1,.6,2.13l0,.68H720a2.46,2.46,0,0,0,.36,1.47,1.47,1.47,0,0,0,1.25.48Q722.47,322.89,723.39,322.82Zm-.32-2.6a2.61,2.61,0,0,0-.35-1.56,1.36,1.36,0,0,0-1.15-.46,1.47,1.47,0,0,0-1.2.48,2.42,2.42,0,0,0-.41,1.53Z"/><path class="cls-11" d="M725.36,326.22v-8.65h.89V318a3.45,3.45,0,0,1,1.79-.55,1.88,1.88,0,0,1,1.65.72,4.24,4.24,0,0,1,.51,2.39,3.74,3.74,0,0,1-.6,2.39,2.48,2.48,0,0,1-2,.72,6.35,6.35,0,0,1-1.34-.13v2.67Zm2.55-8a2.8,2.8,0,0,0-.77.12,4,4,0,0,0-.65.24l-.23.12v4a9.12,9.12,0,0,0,1.29.13,1.55,1.55,0,0,0,1.36-.55,3.19,3.19,0,0,0,.39-1.8,3.33,3.33,0,0,0-.35-1.77A1.17,1.17,0,0,0,727.91,318.26Z"/><path class="cls-11" d="M731.74,323.56V315h.9v8.6Z"/><path class="cls-11" d="M734.17,320.56a3.81,3.81,0,0,1,.59-2.37,3,3,0,0,1,4,0,3.84,3.84,0,0,1,.58,2.37,4.05,4.05,0,0,1-.55,2.38,3.09,3.09,0,0,1-4,0A4.05,4.05,0,0,1,734.17,320.56Zm.92,0a3.82,3.82,0,0,0,.32,1.84,1.94,1.94,0,0,0,2.65,0,3.86,3.86,0,0,0,.31-1.84,3.38,3.38,0,0,0-.35-1.81,1.47,1.47,0,0,0-1.29-.5,1.48,1.48,0,0,0-1.29.5A3.32,3.32,0,0,0,735.09,320.54Z"/><path class="cls-11" d="M740.06,317.57h.9l1.5,5.21h.4l1.51-5.21h.9l-2.49,8.65h-.9l.78-2.66h-.89Z"/><path class="cls-11" d="M747.3,323.56h-.9v-6h.89V318a3.39,3.39,0,0,1,1.75-.54,1.8,1.8,0,0,1,1.56.61,4.42,4.42,0,0,1,1-.42,4,4,0,0,1,1.11-.19,1.78,1.78,0,0,1,1.61.64,4.57,4.57,0,0,1,.41,2.31v3.16h-.9v-3.14a4.15,4.15,0,0,0-.24-1.71,1,1,0,0,0-1-.46,3.12,3.12,0,0,0-.81.11,4.14,4.14,0,0,0-.65.22l-.23.11a6,6,0,0,1,.16,1.75v3.11h-.9v-3.09a4.41,4.41,0,0,0-.23-1.75,1,1,0,0,0-1-.46,2.88,2.88,0,0,0-.78.11,3.76,3.76,0,0,0-.62.22l-.2.11Z"/><path class="cls-11" d="M760.47,322.82l.35,0,0,.71a17.14,17.14,0,0,1-2.33.19,2.1,2.1,0,0,1-1.83-.75,4,4,0,0,1-.54-2.33q0-3.15,2.5-3.15a2.29,2.29,0,0,1,1.81.68,3.16,3.16,0,0,1,.6,2.13l0,.68h-3.95a2.46,2.46,0,0,0,.36,1.47,1.47,1.47,0,0,0,1.25.48Q759.55,322.89,760.47,322.82Zm-.32-2.6a2.61,2.61,0,0,0-.35-1.56,1.36,1.36,0,0,0-1.15-.46,1.47,1.47,0,0,0-1.2.48,2.42,2.42,0,0,0-.41,1.53Z"/><path class="cls-11" d="M763.34,323.56h-.9v-6h.89V318a3.82,3.82,0,0,1,1.85-.54,1.77,1.77,0,0,1,1.61.65,4.58,4.58,0,0,1,.41,2.3v3.16h-.89v-3.14a4.06,4.06,0,0,0-.25-1.71,1.08,1.08,0,0,0-1-.46,3.15,3.15,0,0,0-.81.11,4.11,4.11,0,0,0-.65.22l-.23.11Z"/><path class="cls-11" d="M771.93,318.35H770v2.86a3.88,3.88,0,0,0,.15,1.35q.15.32.71.32l1.06-.07.06.74a8.18,8.18,0,0,1-1.22.13,1.56,1.56,0,0,1-1.29-.46,3,3,0,0,1-.36-1.74v-3.15h-.85v-.78h.85v-1.83H770v1.83h1.9Z"/><path class="cls-11" d="M774.91,318.26q-1.3,0-1.3.91a.63.63,0,0,0,.3.59,5.07,5.07,0,0,0,1.36.36,3.65,3.65,0,0,1,1.51.52,1.5,1.5,0,0,1,.44,1.26,1.56,1.56,0,0,1-.59,1.35,2.92,2.92,0,0,1-1.73.43,10.86,10.86,0,0,1-1.75-.17l-.36-.06,0-.78a15.08,15.08,0,0,0,2.06.2,2.06,2.06,0,0,0,1.06-.22.8.8,0,0,0,.36-.74.75.75,0,0,0-.31-.71,4.6,4.6,0,0,0-1.36-.35,3.59,3.59,0,0,1-1.5-.49,1.39,1.39,0,0,1-.44-1.2,1.46,1.46,0,0,1,.62-1.29,2.67,2.67,0,0,1,1.54-.42,12.5,12.5,0,0,1,1.83.17l.33.06,0,.77A15.51,15.51,0,0,0,774.91,318.26Z"/><path class="cls-11" d="M778.14,325l.55-2.75h1l-.8,2.75Z"/><path class="cls-11" d="M590.77,333.76v3.07q0,.44.69.53l0,.71a1.93,1.93,0,0,1-1.42-.48,5.26,5.26,0,0,1-2.15.48,1.62,1.62,0,0,1-1.26-.47,1.91,1.91,0,0,1-.43-1.34,1.69,1.69,0,0,1,.44-1.29,2.35,2.35,0,0,1,1.39-.51l1.88-.18v-.51a1.21,1.21,0,0,0-.26-.87,1,1,0,0,0-.72-.26,17.13,17.13,0,0,0-2,.12l-.37,0,0-.68a12,12,0,0,1,2.33-.26,1.67,1.67,0,0,1,1.94,1.93Zm-3.68,2.44q0,1.1.91,1.1a4.84,4.84,0,0,0,1.6-.28l.28-.1v-2l-1.77.17a1.15,1.15,0,0,0-.78.31A1.1,1.1,0,0,0,587.09,336.2Z"/><path class="cls-11" d="M593.44,337.94h-.9v-6h.89v.42a3.82,3.82,0,0,1,1.85-.54,1.77,1.77,0,0,1,1.61.65,4.58,4.58,0,0,1,.41,2.3v3.16h-.89V334.8a4.06,4.06,0,0,0-.25-1.71,1.08,1.08,0,0,0-1-.46,3.15,3.15,0,0,0-.81.11,4.11,4.11,0,0,0-.65.22l-.23.11Z"/><path class="cls-11" d="M603.56,329.34v8.6h-.89v-.41a3.64,3.64,0,0,1-1.82.53,2.64,2.64,0,0,1-.84-.12,1.72,1.72,0,0,1-.67-.43,3.38,3.38,0,0,1-.65-2.39,4.25,4.25,0,0,1,.58-2.52,2.25,2.25,0,0,1,1.92-.77,7.53,7.53,0,0,1,1.47.16v-2.65Zm-3.11,7.83a1.56,1.56,0,0,0,.56.08,3,3,0,0,0,.77-.11,4.43,4.43,0,0,0,.66-.22l.24-.11v-4.06a7.76,7.76,0,0,0-1.42-.14,1.37,1.37,0,0,0-1.27.58,3.52,3.52,0,0,0-.36,1.8,3,3,0,0,0,.42,1.87A1,1,0,0,0,600.45,337.17Z"/><path class="cls-11" d="M607.92,340.6v-8.65h.89v.43a3.45,3.45,0,0,1,1.79-.55,1.88,1.88,0,0,1,1.65.72,4.24,4.24,0,0,1,.51,2.39,3.74,3.74,0,0,1-.6,2.39,2.48,2.48,0,0,1-2,.72,6.35,6.35,0,0,1-1.34-.13v2.67Zm2.55-8a2.8,2.8,0,0,0-.77.12,4,4,0,0,0-.65.24l-.23.12v4a9.12,9.12,0,0,0,1.29.13,1.55,1.55,0,0,0,1.36-.55,3.19,3.19,0,0,0,.39-1.8,3.33,3.33,0,0,0-.35-1.77A1.17,1.17,0,0,0,610.47,332.63Z"/><path class="cls-11" d="M618.3,337.19l.35,0,0,.71a17.14,17.14,0,0,1-2.33.19,2.1,2.1,0,0,1-1.83-.75A4,4,0,0,1,614,335q0-3.15,2.5-3.15a2.29,2.29,0,0,1,1.81.68,3.16,3.16,0,0,1,.6,2.13l0,.68h-3.95a2.46,2.46,0,0,0,.36,1.47,1.47,1.47,0,0,0,1.25.48Q617.37,337.27,618.3,337.19Zm-.32-2.6a2.61,2.61,0,0,0-.35-1.56,1.36,1.36,0,0,0-1.15-.46,1.47,1.47,0,0,0-1.2.48,2.42,2.42,0,0,0-.41,1.53Z"/><path class="cls-11" d="M620.27,337.94v-6h.89v.81a5.81,5.81,0,0,1,2.19-.95v.91a6.49,6.49,0,0,0-1,.3,7.12,7.12,0,0,0-.83.36l-.3.16v4.4Z"/><path class="cls-11" d="M625.56,332.73v5.21h-.9v-5.21h-.75v-.78h.75v-.54a3,3,0,0,1,.36-1.73,1.51,1.51,0,0,1,1.26-.46l1.21.08V330l-1.11,0a.68.68,0,0,0-.62.29,2.27,2.27,0,0,0-.19,1.11v.53h1.73v.78Z"/><path class="cls-11" d="M628,334.93a3.81,3.81,0,0,1,.59-2.37,3,3,0,0,1,4,0,3.84,3.84,0,0,1,.58,2.37,4.05,4.05,0,0,1-.55,2.38,3.09,3.09,0,0,1-4,0A4.05,4.05,0,0,1,628,334.93Zm.92,0a3.82,3.82,0,0,0,.32,1.84,1.94,1.94,0,0,0,2.65,0,3.86,3.86,0,0,0,.31-1.84,3.38,3.38,0,0,0-.35-1.81,1.47,1.47,0,0,0-1.29-.5,1.48,1.48,0,0,0-1.29.5A3.32,3.32,0,0,0,628.92,334.91Z"/><path class="cls-11" d="M634.58,337.94v-6h.89v.81a5.81,5.81,0,0,1,2.19-.95v.91a6.49,6.49,0,0,0-1,.3,7.12,7.12,0,0,0-.83.36l-.3.16v4.4Z"/><path class="cls-11" d="M639.61,337.94h-.9v-6h.89v.42a3.39,3.39,0,0,1,1.75-.54,1.8,1.8,0,0,1,1.56.61,4.42,4.42,0,0,1,1-.42,4,4,0,0,1,1.11-.19,1.78,1.78,0,0,1,1.61.64,4.57,4.57,0,0,1,.41,2.31v3.16h-.9V334.8a4.15,4.15,0,0,0-.24-1.71,1,1,0,0,0-1-.46,3.12,3.12,0,0,0-.81.11,4.14,4.14,0,0,0-.65.22l-.23.11a6,6,0,0,1,.16,1.75v3.11h-.9v-3.09a4.41,4.41,0,0,0-.23-1.75,1,1,0,0,0-1-.46,2.88,2.88,0,0,0-.78.11,3.76,3.76,0,0,0-.62.22l-.2.11Z"/><path class="cls-11" d="M653.23,332.63q-1.3,0-1.3.91a.63.63,0,0,0,.3.59,5.07,5.07,0,0,0,1.36.36,3.65,3.65,0,0,1,1.51.52,1.5,1.5,0,0,1,.44,1.26,1.56,1.56,0,0,1-.59,1.35,2.92,2.92,0,0,1-1.73.43,10.86,10.86,0,0,1-1.75-.17l-.36-.06,0-.78a15.08,15.08,0,0,0,2.06.2,2.06,2.06,0,0,0,1.06-.22.8.8,0,0,0,.36-.74.75.75,0,0,0-.31-.71,4.6,4.6,0,0,0-1.36-.35,3.59,3.59,0,0,1-1.5-.49,1.39,1.39,0,0,1-.44-1.2,1.46,1.46,0,0,1,.62-1.29,2.67,2.67,0,0,1,1.54-.42A12.5,12.5,0,0,1,655,332l.33.06,0,.77A15.51,15.51,0,0,0,653.23,332.63Z"/><path class="cls-11" d="M661,337.19l.35,0,0,.71a17.14,17.14,0,0,1-2.33.19,2.1,2.1,0,0,1-1.83-.75,4,4,0,0,1-.54-2.33q0-3.15,2.5-3.15a2.29,2.29,0,0,1,1.81.68,3.16,3.16,0,0,1,.6,2.13l0,.68h-3.95a2.46,2.46,0,0,0,.36,1.47,1.47,1.47,0,0,0,1.25.48Q660.06,337.27,661,337.19Zm-.32-2.6a2.61,2.61,0,0,0-.35-1.56,1.36,1.36,0,0,0-1.15-.46,1.47,1.47,0,0,0-1.2.48,2.42,2.42,0,0,0-.41,1.53Z"/><path class="cls-11" d="M663,337.94v-6h.89v.81a5.81,5.81,0,0,1,2.19-.95v.91a6.49,6.49,0,0,0-1,.3,7.12,7.12,0,0,0-.83.36l-.3.16v4.4Z"/><path class="cls-11" d="M666.53,331.95h1l1.4,5.21h.44l1.45-5.21h.92l-1.69,6h-1.79Z"/><path class="cls-11" d="M672.85,330.59v-1h.9v1Zm0,7.34v-6h.9v6Z"/><path class="cls-11" d="M677.7,331.83A10.33,10.33,0,0,1,679,332l.29,0,0,.73q-1-.11-1.41-.11a1.64,1.64,0,0,0-1.38.48,3.16,3.16,0,0,0-.36,1.8,3.52,3.52,0,0,0,.34,1.83,1.6,1.6,0,0,0,1.42.51l1.41-.11,0,.74a12.38,12.38,0,0,1-1.66.17,2.26,2.26,0,0,1-1.93-.72,4.19,4.19,0,0,1-.53-2.43,3.8,3.8,0,0,1,.57-2.4A2.36,2.36,0,0,1,677.7,331.83Z"/><path class="cls-11" d="M684.68,337.19l.35,0,0,.71a17.14,17.14,0,0,1-2.33.19,2.1,2.1,0,0,1-1.83-.75,4,4,0,0,1-.54-2.33q0-3.15,2.5-3.15a2.29,2.29,0,0,1,1.81.68,3.16,3.16,0,0,1,.6,2.13l0,.68h-3.95a2.46,2.46,0,0,0,.36,1.47,1.47,1.47,0,0,0,1.25.48Q683.76,337.27,684.68,337.19Zm-.32-2.6A2.61,2.61,0,0,0,684,333a1.36,1.36,0,0,0-1.15-.46,1.47,1.47,0,0,0-1.2.48,2.42,2.42,0,0,0-.41,1.53Z"/><path class="cls-11" d="M693.88,329.34v8.6H693v-.41a3.64,3.64,0,0,1-1.82.53,2.64,2.64,0,0,1-.84-.12,1.72,1.72,0,0,1-.67-.43,3.38,3.38,0,0,1-.65-2.39,4.25,4.25,0,0,1,.58-2.52,2.25,2.25,0,0,1,1.92-.77A7.53,7.53,0,0,1,693,332v-2.65Zm-3.11,7.83a1.56,1.56,0,0,0,.56.08,3,3,0,0,0,.77-.11,4.43,4.43,0,0,0,.66-.22l.24-.11v-4.06a7.76,7.76,0,0,0-1.42-.14,1.37,1.37,0,0,0-1.27.58,3.52,3.52,0,0,0-.36,1.8,3,3,0,0,0,.42,1.87A1,1,0,0,0,690.77,337.17Z"/><path class="cls-11" d="M695.61,330.59v-1h.9v1Zm0,7.34v-6h.9v6Z"/><path class="cls-11" d="M700.11,332.63q-1.3,0-1.3.91a.63.63,0,0,0,.3.59,5.07,5.07,0,0,0,1.36.36A3.65,3.65,0,0,1,702,335a1.5,1.5,0,0,1,.44,1.26,1.56,1.56,0,0,1-.59,1.35,2.92,2.92,0,0,1-1.73.43,10.86,10.86,0,0,1-1.75-.17l-.36-.06,0-.78a15.08,15.08,0,0,0,2.06.2,2.06,2.06,0,0,0,1.06-.22.8.8,0,0,0,.36-.74.75.75,0,0,0-.31-.71,4.6,4.6,0,0,0-1.36-.35,3.59,3.59,0,0,1-1.5-.49,1.39,1.39,0,0,1-.44-1.2,1.46,1.46,0,0,1,.62-1.29,2.67,2.67,0,0,1,1.54-.42,12.5,12.5,0,0,1,1.83.17l.33.06,0,.77A15.51,15.51,0,0,0,700.11,332.63Z"/><path class="cls-11" d="M706,331.83a10.33,10.33,0,0,1,1.34.14l.29,0,0,.73q-1-.11-1.41-.11a1.64,1.64,0,0,0-1.38.48,3.16,3.16,0,0,0-.36,1.8,3.52,3.52,0,0,0,.34,1.83,1.6,1.6,0,0,0,1.42.51l1.41-.11,0,.74a12.38,12.38,0,0,1-1.66.17,2.26,2.26,0,0,1-1.93-.72,4.19,4.19,0,0,1-.53-2.43,3.8,3.8,0,0,1,.57-2.4A2.36,2.36,0,0,1,706,331.83Z"/><path class="cls-11" d="M708.67,334.93a3.81,3.81,0,0,1,.59-2.37,3,3,0,0,1,4,0,3.84,3.84,0,0,1,.58,2.37,4.05,4.05,0,0,1-.55,2.38,3.09,3.09,0,0,1-4,0A4.05,4.05,0,0,1,708.67,334.93Zm.92,0a3.82,3.82,0,0,0,.32,1.84,1.94,1.94,0,0,0,2.65,0,3.86,3.86,0,0,0,.31-1.84,3.38,3.38,0,0,0-.35-1.81,1.47,1.47,0,0,0-1.29-.5,1.48,1.48,0,0,0-1.29.5A3.32,3.32,0,0,0,709.59,334.91Z"/><path class="cls-11" d="M714.58,331.95h1l1.4,5.21h.44l1.45-5.21h.92l-1.69,6h-1.79Z"/><path class="cls-11" d="M724.86,337.19l.35,0,0,.71a17.14,17.14,0,0,1-2.33.19,2.1,2.1,0,0,1-1.83-.75,4,4,0,0,1-.54-2.33q0-3.15,2.5-3.15a2.29,2.29,0,0,1,1.81.68,3.16,3.16,0,0,1,.6,2.13l0,.68h-3.95a2.46,2.46,0,0,0,.36,1.47,1.47,1.47,0,0,0,1.25.48Q723.94,337.27,724.86,337.19Zm-.32-2.6a2.61,2.61,0,0,0-.35-1.56,1.36,1.36,0,0,0-1.15-.46,1.47,1.47,0,0,0-1.2.48,2.42,2.42,0,0,0-.41,1.53Z"/><path class="cls-11" d="M726.83,337.94v-6h.89v.81a5.81,5.81,0,0,1,2.19-.95v.91a6.49,6.49,0,0,0-1,.3,7.12,7.12,0,0,0-.83.36l-.3.16v4.4Z"/><path class="cls-11" d="M730.41,331.95h.9l1.5,5.21h.4l1.51-5.21h.9l-2.49,8.65h-.9l.78-2.66h-.89Z"/><path class="cls-11" d="M738.89,331.95h.9l1.21,5.21h.19l1.42-5.09h.93l1.42,5.09h.2l1.2-5.21h.9l-1.42,6h-1.5l-1.27-4.68-1.27,4.68h-1.5Z"/><path class="cls-11" d="M748.5,330.59v-1h.9v1Zm0,7.34v-6h.9v6Z"/><path class="cls-11" d="M754.22,332.73h-1.9v2.86a3.88,3.88,0,0,0,.15,1.35q.15.32.71.32l1.06-.07.06.74a8.18,8.18,0,0,1-1.22.13,1.56,1.56,0,0,1-1.29-.46,3,3,0,0,1-.36-1.74v-3.15h-.85v-.78h.85v-1.83h.89v1.83h1.9Z"/><path class="cls-11" d="M756.21,337.94h-.9v-8.6h.9v2.95a4.28,4.28,0,0,1,1.84-.46,1.77,1.77,0,0,1,1.61.65,4.58,4.58,0,0,1,.41,2.3v3.16h-.9V334.8a4,4,0,0,0-.25-1.71,1.06,1.06,0,0,0-1-.46,4,4,0,0,0-1.46.28l-.23.08Z"/><path class="cls-11" d="M767.47,332.73h-1.9v2.86a3.88,3.88,0,0,0,.15,1.35q.15.32.71.32l1.06-.07.06.74a8.18,8.18,0,0,1-1.22.13,1.56,1.56,0,0,1-1.29-.46,3,3,0,0,1-.36-1.74v-3.15h-.85v-.78h.85v-1.83h.89v1.83h1.9Z"/><path class="cls-11" d="M769.47,337.94h-.9v-8.6h.9v2.95a4.28,4.28,0,0,1,1.84-.46,1.77,1.77,0,0,1,1.61.65,4.58,4.58,0,0,1,.41,2.3v3.16h-.9V334.8a4,4,0,0,0-.25-1.71,1.06,1.06,0,0,0-1-.46,4,4,0,0,0-1.46.28l-.23.08Z"/><path class="cls-11" d="M779.06,337.19l.35,0,0,.71a17.14,17.14,0,0,1-2.33.19,2.1,2.1,0,0,1-1.83-.75,4,4,0,0,1-.54-2.33q0-3.15,2.5-3.15a2.29,2.29,0,0,1,1.81.68,3.16,3.16,0,0,1,.6,2.13l0,.68h-3.95a2.46,2.46,0,0,0,.36,1.47,1.47,1.47,0,0,0,1.25.48Q778.14,337.27,779.06,337.19Zm-.32-2.6a2.61,2.61,0,0,0-.35-1.56,1.36,1.36,0,0,0-1.15-.46,1.47,1.47,0,0,0-1.2.48,2.42,2.42,0,0,0-.41,1.53Z"/><path class="cls-11" d="M781,330.59v-1h.9v1Zm0,7.34v-6h.9v6Z"/><path class="cls-11" d="M783.65,337.94v-6h.89v.81a5.81,5.81,0,0,1,2.19-.95v.91a6.49,6.49,0,0,0-1,.3,7.12,7.12,0,0,0-.83.36l-.3.16v4.4Z"/><path class="cls-11" d="M586.55,355v-8.65h.89v.43a3.45,3.45,0,0,1,1.79-.55,1.88,1.88,0,0,1,1.65.72,4.24,4.24,0,0,1,.51,2.39,3.74,3.74,0,0,1-.6,2.39,2.48,2.48,0,0,1-2,.72,6.35,6.35,0,0,1-1.34-.13V355Zm2.55-8a2.8,2.8,0,0,0-.77.12,4,4,0,0,0-.65.24l-.23.12v4a9.12,9.12,0,0,0,1.29.13,1.55,1.55,0,0,0,1.36-.55,3.19,3.19,0,0,0,.39-1.8,3.33,3.33,0,0,0-.35-1.77A1.17,1.17,0,0,0,589.1,347Z"/><path class="cls-11" d="M596.92,351.57l.35,0,0,.71a17.14,17.14,0,0,1-2.33.19,2.1,2.1,0,0,1-1.83-.75,4,4,0,0,1-.54-2.33q0-3.15,2.5-3.15a2.29,2.29,0,0,1,1.81.68,3.16,3.16,0,0,1,.6,2.13l0,.68H593.5a2.46,2.46,0,0,0,.36,1.47,1.47,1.47,0,0,0,1.25.48Q596,351.64,596.92,351.57Zm-.32-2.6a2.61,2.61,0,0,0-.35-1.56,1.36,1.36,0,0,0-1.15-.46,1.47,1.47,0,0,0-1.2.48,2.42,2.42,0,0,0-.41,1.53Z"/><path class="cls-11" d="M603,351.57l.35,0,0,.71a17.14,17.14,0,0,1-2.33.19,2.1,2.1,0,0,1-1.83-.75,4,4,0,0,1-.54-2.33q0-3.15,2.5-3.15a2.29,2.29,0,0,1,1.81.68,3.16,3.16,0,0,1,.6,2.13l0,.68h-3.95a2.46,2.46,0,0,0,.36,1.47,1.47,1.47,0,0,0,1.25.48Q602,351.64,603,351.57Zm-.32-2.6a2.61,2.61,0,0,0-.35-1.56,1.36,1.36,0,0,0-1.15-.46,1.47,1.47,0,0,0-1.2.48,2.42,2.42,0,0,0-.41,1.53Z"/><path class="cls-11" d="M604.93,352.31v-6h.89v.81a5.81,5.81,0,0,1,2.19-.95v.91a6.49,6.49,0,0,0-1,.3,7.12,7.12,0,0,0-.83.36l-.3.16v4.4Z"/><path class="cls-11" d="M611,347q-1.3,0-1.3.91a.63.63,0,0,0,.3.59,5.07,5.07,0,0,0,1.36.36,3.65,3.65,0,0,1,1.51.52,1.5,1.5,0,0,1,.44,1.26,1.56,1.56,0,0,1-.59,1.35,2.92,2.92,0,0,1-1.73.43,10.86,10.86,0,0,1-1.75-.17l-.36-.06,0-.78a15.08,15.08,0,0,0,2.06.2,2.06,2.06,0,0,0,1.06-.22.8.8,0,0,0,.36-.74.75.75,0,0,0-.31-.71,4.6,4.6,0,0,0-1.36-.35,3.59,3.59,0,0,1-1.5-.49,1.39,1.39,0,0,1-.44-1.2,1.46,1.46,0,0,1,.62-1.29,2.67,2.67,0,0,1,1.54-.42,12.5,12.5,0,0,1,1.83.17l.33.06,0,.77A15.51,15.51,0,0,0,611,347Z"/><path class="cls-11" d="M614.58,352.31v-1.37h1v1.37Z"/><path class="cls-11" d="M589.49,251.66q-1.3,0-1.3.86a.65.65,0,0,0,.32.59,8.41,8.41,0,0,0,1.51.59,4.17,4.17,0,0,1,1.67.87,2,2,0,0,1,.48,1.49,2.4,2.4,0,0,1-.78,1.94,3,3,0,0,1-2,.66,11.32,11.32,0,0,1-2.29-.29l-.43-.08.17-1.28a19.9,19.9,0,0,0,2.45.21q1.27,0,1.27-1.05a.7.7,0,0,0-.29-.6,4.14,4.14,0,0,0-1.17-.47,4.76,4.76,0,0,1-2-.94,2,2,0,0,1-.57-1.52,2.2,2.2,0,0,1,.74-1.82,3.15,3.15,0,0,1,2-.6,13.55,13.55,0,0,1,2.25.24l.43.08-.13,1.31Q590.18,251.66,589.49,251.66Z"/><path class="cls-11" d="M596.88,252.52h1.6v6H596.9v-.33a3.19,3.19,0,0,1-1.5.48,1.82,1.82,0,0,1-1.67-.69,4.56,4.56,0,0,1-.43-2.31v-3.14h1.6v3.16a3.4,3.4,0,0,0,.14,1.21q.14.32.69.32a2.93,2.93,0,0,0,1-.17l.16,0Z"/><path class="cls-11" d="M600,261v-8.5h1.59v.32a2.75,2.75,0,0,1,1.36-.47,2.14,2.14,0,0,1,1.78.72,4,4,0,0,1,.57,2.46,3.54,3.54,0,0,1-.63,2.41,2.75,2.75,0,0,1-2.08.68,5.45,5.45,0,0,1-.85-.07l-.14,0V261Zm2.64-7.21a2.44,2.44,0,0,0-.9.18l-.14.06v3.14a6.89,6.89,0,0,0,.87.07,1,1,0,0,0,1-.41,2.74,2.74,0,0,0,.26-1.39Q603.65,253.82,602.61,253.82Z"/><path class="cls-11" d="M608.09,257a1.19,1.19,0,0,0,.81.25q1.11,0,2-.07l.33,0,0,1.19a10.6,10.6,0,0,1-2.49.33,2.44,2.44,0,0,1-2-.72,3.59,3.59,0,0,1-.61-2.33q0-3.22,2.64-3.22t2.61,2.71l-.12,1.11h-3.52A1,1,0,0,0,608.09,257Zm1.76-2a1.64,1.64,0,0,0-.23-1,1.25,1.25,0,0,0-1.6,0,1.66,1.66,0,0,0-.25,1Z"/><path class="cls-11" d="M612.58,258.51v-6h1.59v.63a6.09,6.09,0,0,1,1.91-.78V254q-1,.2-1.66.42l-.24.08v4Z"/><path class="cls-11" d="M616.47,252.52h1.67l1,4.62h.33l1-4.62h1.63l-1.44,6H617.9Z"/><path class="cls-11" d="M623,251.76v-1.63h1.6v1.63Zm0,6.75v-6h1.6v6Z"/><path class="cls-11" d="M630.37,254a19,19,0,0,0-2.08-.19,1.7,1.7,0,0,0-.77.11.37.37,0,0,0-.17.34.33.33,0,0,0,.23.32,9.13,9.13,0,0,0,1.2.26,2.63,2.63,0,0,1,1.37.57,1.73,1.73,0,0,1,.41,1.28q0,1.94-2.4,1.94a10.36,10.36,0,0,1-1.91-.22l-.38-.07,0-1.34a19,19,0,0,0,2.06.19,1.85,1.85,0,0,0,.79-.11.37.37,0,0,0,.21-.34.35.35,0,0,0-.22-.33,5.67,5.67,0,0,0-1.15-.26,3,3,0,0,1-1.38-.53,1.63,1.63,0,0,1-.45-1.32,1.69,1.69,0,0,1,.65-1.44,2.7,2.7,0,0,1,1.66-.48,11.19,11.19,0,0,1,1.93.23l.39.07Z"/><path class="cls-11" d="M632,253.2a3.14,3.14,0,0,1,4.23,0,3.69,3.69,0,0,1,.63,2.31q0,3.15-2.75,3.15t-2.75-3.15A3.7,3.7,0,0,1,632,253.2Zm1.24,3.66a1.11,1.11,0,0,0,1.76,0,2.85,2.85,0,0,0,.25-1.35,2.78,2.78,0,0,0-.25-1.34,1.13,1.13,0,0,0-1.76,0,2.77,2.77,0,0,0-.25,1.34A2.84,2.84,0,0,0,633.28,256.86Z"/><path class="cls-11" d="M638.08,258.51v-6h1.59v.63a6.09,6.09,0,0,1,1.91-.78V254q-1,.2-1.66.42l-.24.08v4Z"/><path class="cls-11" d="M647,255.78v2.73h-1.65v-8.14h3.16q2.87,0,2.87,2.68a2.58,2.58,0,0,1-1.2,2.35l1.16,3.11H649.5l-.95-2.73Zm2.4-1.77a1.47,1.47,0,0,0,.29-.95,1.37,1.37,0,0,0-.3-.93,1.11,1.11,0,0,0-.88-.35H647v2.59h1.53A1,1,0,0,0,649.36,254Z"/><path class="cls-11" d="M652.58,251.76v-1.63h1.6v1.63Zm0,6.75v-6h1.6v6Z"/><path class="cls-11" d="M657.27,258.51h-1.6v-6h1.59v.33a3,3,0,0,1,1.5-.48,1.81,1.81,0,0,1,1.65.71,4.12,4.12,0,0,1,.45,2.18v3.25h-1.6v-3.2a2.7,2.7,0,0,0-.18-1.13.72.72,0,0,0-.72-.37,2.72,2.72,0,0,0-.94.17l-.14,0Z"/><path class="cls-11" d="M667.7,259.26a1.66,1.66,0,0,1-.79,1.51,4,4,0,0,1-2.14.49,4.77,4.77,0,0,1-2.07-.36,1.33,1.33,0,0,1-.72-1.31,1.85,1.85,0,0,1,.86-1.42,1,1,0,0,1-.44-.91,1.81,1.81,0,0,1,.36-.79l.11-.17a2,2,0,0,1-.81-1.73,1.94,1.94,0,0,1,.69-1.66,3,3,0,0,1,1.82-.51,4.36,4.36,0,0,1,1,.12l.19,0,1.93-.06v1.28l-.9-.07a1.49,1.49,0,0,1,.26.81,1.94,1.94,0,0,1-.61,1.65,3.22,3.22,0,0,1-1.91.46,2.25,2.25,0,0,1-.49,0,1.49,1.49,0,0,0-.12.51.27.27,0,0,0,.2.27,4,4,0,0,0,1,.08,3.89,3.89,0,0,1,2.06.4A1.62,1.62,0,0,1,667.7,259.26Zm-4.14.17q0,.52,1.26.52t1.26-.6a.4.4,0,0,0-.22-.41,3,3,0,0,0-.91-.1l-1.08-.08A1,1,0,0,0,663.56,259.43Zm.1-4.9q0,.88.92.88t.92-.88q0-.88-.92-.88T663.66,254.53Z"/></g><g id="flow_lines" data-name="flow lines"><path class="cls-16" d="M545.33,158.13a6.86,6.86,0,0,1-8.84,4l-7.72-2.89,2.41-6.44,1.29.48a6.87,6.87,0,1,1,12.86,4.82Z"/><path class="cls-16" d="M538.06,166.6l-1.68,4.51-4.5-1.69a4.81,4.81,0,0,1-2.82-6.19l-1.29-.48,1.68-4.51,5.79,2.17A4.81,4.81,0,0,1,538.06,166.6Z"/><path class="cls-17" d="M532.06,151.84,528.67,161c-.35.91-2,2.89-2.92,2.5s-.62-3-.27-3.93l3.38-9.12a1.64,1.64,0,0,1,2.23-.93A1.88,1.88,0,0,1,532.06,151.84Z"/><path class="cls-17" d="M531.19,147.71l-.15,2.87a.41.41,0,0,1-.45.4.46.46,0,0,1-.4-.48l.15-2.87a.41.41,0,0,1,.45-.4A.46.46,0,0,1,531.19,147.71Z"/><path class="cls-17" d="M532.69,148.58l-2,1.94a.41.41,0,0,1-.6,0,.46.46,0,0,1,0-.63l2-1.94a.41.41,0,0,1,.6,0A.46.46,0,0,1,532.69,148.58Z"/><path class="cls-18" d="M545,156a6.87,6.87,0,0,1-8.94,4.34l-7.72-2.89,1.93-5.15a1.37,1.37,0,0,1,1.77-.81h0A6.87,6.87,0,0,1,545,156Z"/><path class="cls-18" d="M536.72,166.43l-1.19,3.17a.71.71,0,0,1-.92.42l-3.84-1.44a4.81,4.81,0,0,1-3-5.59.71.71,0,0,0-.44-.83h0a.71.71,0,0,1-.42-.92l1.44-3.84,5.12,1.92A5.53,5.53,0,0,1,536.72,166.43Z"/><circle class="cls-19" cx="538.49" cy="153.85" r="2.06" transform="translate(205.51 604.15) rotate(-69.46)"/><path class="cls-16" d="M449.57,153.79a6.87,6.87,0,0,1-5.77,7.82l-8.15,1.23-1-6.8,1.36-.2a6.87,6.87,0,1,1,13.58-2Z"/><path class="cls-16" d="M447.34,164.74l.72,4.76-4.75.72a4.81,4.81,0,0,1-5.47-4l-1.36.2-.72-4.76,6.11-.92A4.81,4.81,0,0,1,447.34,164.74Z"/><path class="cls-17" d="M434.93,154.76l1.47,9.61c.14,1-.38,3.52-1.34,3.61s-2-2.34-2.15-3.3l-1.47-9.61a1.64,1.64,0,0,1,1.5-1.89A1.88,1.88,0,0,1,434.93,154.76Z"/><path class="cls-17" d="M432.16,151.57l1.26,2.58a.41.41,0,0,1-.2.57.46.46,0,0,1-.58-.23l-1.26-2.58a.41.41,0,0,1,.2-.57A.46.46,0,0,1,432.16,151.57Z"/><path class="cls-17" d="M433.89,151.6l-.79,2.65a.41.41,0,0,1-.54.27.46.46,0,0,1-.3-.55l.79-2.65a.41.41,0,0,1,.54-.27A.46.46,0,0,1,433.89,151.6Z"/><path class="cls-18" d="M448.26,152a6.87,6.87,0,0,1-5.71,8.14l-8.15,1.23-.82-5.44a1.37,1.37,0,0,1,1.15-1.56h0A6.87,6.87,0,0,1,448.26,152Z"/><path class="cls-18" d="M446.08,165.24l.5,3.35a.71.71,0,0,1-.6.81l-4,.61a4.81,4.81,0,0,1-5.34-3.43.71.71,0,0,0-.79-.52h0a.71.71,0,0,1-.81-.6l-.61-4.05,5.41-.82A5.52,5.52,0,0,1,446.08,165.24Z"/><circle class="cls-19" cx="441.52" cy="153.39" r="2.06" transform="translate(-17.93 67.54) rotate(-8.57)"/><path class="cls-16" d="M375.22,231.19a6.86,6.86,0,0,1-9.18,3.18l-7.41-3.6,3-6.19,1.24.6a6.87,6.87,0,1,1,12.36,6Z"/><path class="cls-16" d="M367.19,238.94l-2.1,4.33-4.32-2.1a4.82,4.82,0,0,1-2.23-6.43l-1.24-.6,2.1-4.33,5.56,2.7A4.82,4.82,0,0,1,367.19,238.94Z"/><path class="cls-17" d="M362.59,223.68l-4.22,8.76c-.43.87-2.3,2.69-3.15,2.21s-.33-3.07.1-3.94l4.22-8.76a1.64,1.64,0,0,1,2.3-.71A1.88,1.88,0,0,1,362.59,223.68Z"/><path class="cls-17" d="M362.12,219.49l-.42,2.84a.41.41,0,0,1-.48.36.46.46,0,0,1-.35-.52l.42-2.84a.41.41,0,0,1,.48-.36A.46.46,0,0,1,362.12,219.49Z"/><path class="cls-17" d="M363.53,220.49l-2.15,1.74a.41.41,0,0,1-.59-.09.46.46,0,0,1,.07-.62l2.15-1.74a.41.41,0,0,1,.59.09A.46.46,0,0,1,363.53,220.49Z"/><path class="cls-18" d="M375.12,229a6.86,6.86,0,0,1-9.31,3.48l-7.41-3.6,2.4-4.95a1.37,1.37,0,0,1,1.84-.64h0A6.87,6.87,0,0,1,375.12,229Z"/><path class="cls-18" d="M365.87,238.65l-1.48,3a.71.71,0,0,1-1,.33l-3.68-1.79a4.82,4.82,0,0,1-2.46-5.85.71.71,0,0,0-.36-.87h0a.71.71,0,0,1-.33-1l1.79-3.69,4.92,2.39A5.53,5.53,0,0,1,365.87,238.65Z"/><circle class="cls-19" cx="368.81" cy="226.29" r="2.06" transform="translate(4.07 459.08) rotate(-64.08)"/><path class="cls-16" d="M444.43,262.33a6.86,6.86,0,0,1,9.48,2.09l4.44,7-5.79,3.7-.74-1.16a6.87,6.87,0,0,1-7.4-11.59Z"/><path class="cls-16" d="M455.32,259.93l4.05-2.59,2.59,4.06A4.82,4.82,0,0,1,460.5,268l.74,1.16-4.05,2.59-3.33-5.21A4.82,4.82,0,0,1,455.32,259.93Z"/><path class="cls-17" d="M451.27,275.34l8.17-5.25c.82-.52,3.37-1.09,3.84-.24s-1.32,2.79-2.14,3.31L453,278.41a1.64,1.64,0,0,1-2.34-.6A1.88,1.88,0,0,1,451.27,275.34Z"/><path class="cls-17" d="M449.49,279.16l1.84-2.2a.41.41,0,0,1,.6-.05.46.46,0,0,1,0,.63l-1.84,2.2a.41.41,0,0,1-.6.05A.46.46,0,0,1,449.49,279.16Z"/><path class="cls-17" d="M448.81,277.57l2.74-.36a.41.41,0,0,1,.46.39.45.45,0,0,1-.38.5l-2.74.36a.41.41,0,0,1-.46-.39A.45.45,0,0,1,448.81,277.57Z"/><path class="cls-18" d="M443.37,264.25a6.86,6.86,0,0,1,9.75,1.91l4.44,7-4.63,3a1.37,1.37,0,0,1-1.9-.42h0a6.86,6.86,0,0,1-9.65-2.37A6.93,6.93,0,0,1,443.37,264.25Z"/><path class="cls-18" d="M456.29,260.87l2.85-1.82a.71.71,0,0,1,1,.22l2.21,3.46a4.82,4.82,0,0,1-1,6.28.71.71,0,0,0-.15.93h0a.71.71,0,0,1-.22,1l-3.45,2.21-2.95-4.61A5.53,5.53,0,0,1,456.29,260.87Z"/><circle class="cls-19" cx="447.33" cy="269.86" r="2.06" transform="translate(-74.93 283.07) rotate(-32.55)"/><path class="cls-16" d="M403.85,383.07a6.87,6.87,0,0,1,7.14,6.59l.33,8.24-6.86.28-.06-1.37a6.88,6.88,0,0,1-.55-13.74Z"/><path class="cls-16" d="M414.48,386.49l4.8-.19.19,4.81a4.81,4.81,0,0,1-4.61,5l.06,1.37-4.8.19-.25-6.18A4.81,4.81,0,0,1,414.48,386.49Z"/><path class="cls-17" d="M403.22,397.75l9.71-.41c1,0,3.46.76,3.43,1.73s-2.54,1.75-3.51,1.78l-9.71.41a1.64,1.64,0,0,1-1.72-1.7A1.88,1.88,0,0,1,403.22,397.75Z"/><path class="cls-17" d="M399.75,400.15l2.7-1a.41.41,0,0,1,.54.26.46.46,0,0,1-.29.56l-2.7,1a.41.41,0,0,1-.54-.26A.46.46,0,0,1,399.75,400.15Z"/><path class="cls-17" d="M400,398.44l2.55,1.07a.41.41,0,0,1,.2.57.45.45,0,0,1-.58.24l-2.55-1.07a.41.41,0,0,1-.2-.57A.45.45,0,0,1,400,398.44Z"/><path class="cls-18" d="M402,384.19a6.87,6.87,0,0,1,7.46,6.57l.33,8.24-5.49.22a1.37,1.37,0,0,1-1.43-1.32h0a6.88,6.88,0,0,1-.88-13.72Z"/><path class="cls-18" d="M414.84,387.79l3.38-.14a.71.71,0,0,1,.74.68l.17,4.1a4.81,4.81,0,0,1-4,4.94.71.71,0,0,0-.6.73h0a.71.71,0,0,1-.68.74l-4.09.17-.22-5.47A5.52,5.52,0,0,1,414.84,387.79Z"/><circle class="cls-19" cx="402.57" cy="391.03" r="2.06" transform="translate(-15.42 16.52) rotate(-2.31)"/></g></svg>