
<svg width="163px" height="96px" viewBox="0 0 163 96" version="1.1" xmlns="http://www.w3.org/2000/svg" xmlns:xlink="http://www.w3.org/1999/xlink">
    <!-- Generator: Sketch 49.3 (51167) - http://www.bohemiancoding.com/sketch -->
    <desc>Created with Sketch.</desc>
    <defs></defs>
    <g id="Page-1" stroke="none" stroke-width="1" fill="none" fill-rule="evenodd">
        <g id="index-callout-build">
            <g id="plan" transform="translate(0.000000, 10.500000)" fill-rule="nonzero">
                <g id="Group-17">
                    <g id="Group-15-Copy-2" transform="translate(0.429759, 8.580187)">
                        <path d="M2.8958824,62.3414504 C1.29644635,62.3414504 0,61.0493255 0,59.4561888 L0,3.6480095 C0,2.0539049 1.29644635,0.761780039 2.8958824,0.761780039 L44.2549487,0.761780039 C45.8543847,0.761780039 47.1508311,2.0539049 47.1508311,3.6480095 L47.1508311,59.4561888 C47.1508311,61.0493255 45.8543847,62.3414504 44.2549487,62.3414504 L2.8958824,62.3414504 Z" id="Fill-1" fill="#687B8F"></path>
                        <polygon id="Fill-4" fill="#243442" points="2.3830693 59.1795542 44.4839602 59.1795542 44.4839602 7.5463861 2.3830693 7.5463861"></polygon>
                        <path d="M20.2357654,13.5654383 L12.3338036,13.5654383 C12.1026013,13.5654383 11.9153465,13.3884103 11.9153465,13.168714 C11.9153465,12.9490177 12.1026013,12.7710819 12.3338036,12.7710819 L20.2357654,12.7710819 C20.4669678,12.7710819 20.6532672,12.9490177 20.6532672,13.168714 C20.6532672,13.3884103 20.4669678,13.5654383 20.2357654,13.5654383" id="Fill-15" fill="#B9DA8D"></path>
                        <path d="M28.947141,13.5654383 L23.4813997,13.5654383 C23.2354972,13.5654383 23.0363365,13.3884103 23.0363365,13.168714 C23.0363365,12.9490177 23.2354972,12.7710819 23.4813997,12.7710819 L28.947141,12.7710819 C29.1930434,12.7710819 29.391188,12.9490177 29.391188,13.168714 C29.391188,13.3884103 29.1930434,13.5654383 28.947141,13.5654383" id="Fill-16" fill="#B9DA8D"></path>
                        <path d="M37.6850617,21.5090026 L32.2183043,21.5090026 C31.9724018,21.5090026 31.7742573,21.3310668 31.7742573,21.1122783 C31.7742573,20.8916742 31.9724018,20.7146462 32.2183043,20.7146462 L37.6850617,20.7146462 C37.9309642,20.7146462 38.1291087,20.8916742 38.1291087,21.1122783 C38.1291087,21.3310668 37.9309642,21.5090026 37.6850617,21.5090026" id="Fill-17" fill="#B9DA8D"></path>
                        <path d="M33.7419457,17.5372205 L18.6865293,17.5372205 C18.4565015,17.5372205 18.2701979,17.3592846 18.2701979,17.1404962 C18.2701979,16.9198921 18.4565015,16.7428641 18.6865293,16.7428641 L33.7419457,16.7428641 C33.9719736,16.7428641 34.1573266,16.9198921 34.1573266,17.1404962 C34.1573266,17.3592846 33.9719736,17.5372205 33.7419457,17.5372205" id="Fill-18" fill="#B9DA8D"></path>
                        <path d="M28.9725582,21.5090026 L18.6888277,21.5090026 C18.4570007,21.5090026 18.2701979,21.3310668 18.2701979,21.1122783 C18.2701979,20.8916742 18.4570007,20.7146462 18.6888277,20.7146462 L28.9725582,20.7146462 C29.2043852,20.7146462 29.391188,20.8916742 29.391188,21.1122783 C29.391188,21.3310668 29.2043852,21.5090026 28.9725582,21.5090026" id="Fill-19" fill="#B9DA8D"></path>
                        <path d="M8.22592405,21.5090026 L7.6623762,21.5090026 C7.37884485,21.5090026 7.14920789,21.3310668 7.14920789,21.1122783 C7.14920789,20.8916742 7.37884485,20.7146462 7.6623762,20.7146462 L8.22592405,20.7146462 C8.5094554,20.7146462 8.73792075,20.8916742 8.73792075,21.1122783 C8.73792075,21.3310668 8.5094554,21.5090026 8.22592405,21.5090026" id="Fill-20" fill="#B9DA8D"></path>
                        <path d="M8.22592405,17.5372205 L7.6623762,17.5372205 C7.37884485,17.5372205 7.14920789,17.3601925 7.14920789,17.1404962 C7.14920789,16.9207999 7.37884485,16.7428641 7.6623762,16.7428641 L8.22592405,16.7428641 C8.5094554,16.7428641 8.73792075,16.9207999 8.73792075,17.1404962 C8.73792075,17.3601925 8.5094554,17.5372205 8.22592405,17.5372205" id="Fill-21" fill="#B9DA8D"></path>
                        <path d="M8.22592405,13.5654383 L7.6623762,13.5654383 C7.37884485,13.5654383 7.14920789,13.3882078 7.14920789,13.1682601 C7.14920789,12.9483125 7.37884485,12.7710819 7.6623762,12.7710819 L8.22592405,12.7710819 C8.5094554,12.7710819 8.73792075,12.9483125 8.73792075,13.1682601 C8.73792075,13.3882078 8.5094554,13.5654383 8.22592405,13.5654383" id="Fill-22" fill="#B9DA8D"></path>
                        <path d="M20.2357654,26.2751412 L12.3338036,26.2751412 C12.1026013,26.2751412 11.9153465,26.0972054 11.9153465,25.8784169 C11.9153465,25.6578128 12.1026013,25.4807848 12.3338036,25.4807848 L20.2357654,25.4807848 C20.4669678,25.4807848 20.6532672,25.6578128 20.6532672,25.8784169 C20.6532672,26.0972054 20.4669678,26.2751412 20.2357654,26.2751412" id="Fill-23" fill="#B9DA8D"></path>
                        <path d="M28.947141,26.2751412 L23.4813997,26.2751412 C23.2354972,26.2751412 23.0363365,26.0972054 23.0363365,25.8784169 C23.0363365,25.6578128 23.2354972,25.4807848 23.4813997,25.4807848 L28.947141,25.4807848 C29.1930434,25.4807848 29.391188,25.6578128 29.391188,25.8784169 C29.391188,26.0972054 29.1930434,26.2751412 28.947141,26.2751412" id="Fill-24" fill="#B9DA8D"></path>
                        <path d="M33.7419457,30.2469234 L18.6865293,30.2469234 C18.4565015,30.2469234 18.2701979,30.0696928 18.2701979,29.8497452 C18.2701979,29.6297975 18.4565015,29.452567 18.6865293,29.452567 L33.7419457,29.452567 C33.9719736,29.452567 34.1573266,29.6297975 34.1573266,29.8497452 C34.1573266,30.0696928 33.9719736,30.2469234 33.7419457,30.2469234" id="Fill-25" fill="#B9DA8D"></path>
                        <path d="M8.22592405,30.2469234 L7.6623762,30.2469234 C7.37884485,30.2469234 7.14920789,30.0689876 7.14920789,29.8501991 C7.14920789,29.629595 7.37884485,29.452567 7.6623762,29.452567 L8.22592405,29.452567 C8.5094554,29.452567 8.73792075,29.629595 8.73792075,29.8501991 C8.73792075,30.0689876 8.5094554,30.2469234 8.22592405,30.2469234" id="Fill-26" fill="#B9DA8D"></path>
                        <path d="M8.22592405,25.4807848 L7.6623762,25.4807848 C7.37884485,25.4807848 7.14920789,25.3037568 7.14920789,25.0840605 C7.14920789,24.8643642 7.37884485,24.6864284 7.6623762,24.6864284 L8.22592405,24.6864284 C8.5094554,24.6864284 8.73792075,24.8643642 8.73792075,25.0840605 C8.73792075,25.3037568 8.5094554,25.4807848 8.22592405,25.4807848" id="Fill-27" fill="#B9DA8D"></path>
                        <path d="M20.2357654,34.9940098 L12.3338036,34.9940098 C12.1026013,34.9940098 11.9153465,34.8169818 11.9153465,34.5972855 C11.9153465,34.3775892 12.1026013,34.1996533 12.3338036,34.1996533 L20.2357654,34.1996533 C20.4669678,34.1996533 20.6532672,34.3775892 20.6532672,34.5972855 C20.6532672,34.8169818 20.4669678,34.9940098 20.2357654,34.9940098" id="Fill-15-Copy" fill="#B9DA8D"></path>
                        <path d="M28.947141,34.9940098 L23.4813997,34.9940098 C23.2354972,34.9940098 23.0363365,34.8169818 23.0363365,34.5972855 C23.0363365,34.3775892 23.2354972,34.1996533 23.4813997,34.1996533 L28.947141,34.1996533 C29.1930434,34.1996533 29.391188,34.3775892 29.391188,34.5972855 C29.391188,34.8169818 29.1930434,34.9940098 28.947141,34.9940098" id="Fill-16-Copy" fill="#B9DA8D"></path>
                        <path d="M37.6850617,42.9375741 L32.2183043,42.9375741 C31.9724018,42.9375741 31.7742573,42.7596382 31.7742573,42.5408498 C31.7742573,42.3202456 31.9724018,42.1432176 32.2183043,42.1432176 L37.6850617,42.1432176 C37.9309642,42.1432176 38.1291087,42.3202456 38.1291087,42.5408498 C38.1291087,42.7596382 37.9309642,42.9375741 37.6850617,42.9375741" id="Fill-17-Copy" fill="#B9DA8D"></path>
                        <path d="M33.7419457,38.9657919 L18.6865293,38.9657919 C18.4565015,38.9657919 18.2701979,38.7878561 18.2701979,38.5690676 C18.2701979,38.3484635 18.4565015,38.1714355 18.6865293,38.1714355 L33.7419457,38.1714355 C33.9719736,38.1714355 34.1573266,38.3484635 34.1573266,38.5690676 C34.1573266,38.7878561 33.9719736,38.9657919 33.7419457,38.9657919" id="Fill-18-Copy" fill="#B9DA8D"></path>
                        <path d="M28.9725582,42.9375741 L18.6888277,42.9375741 C18.4570007,42.9375741 18.2701979,42.7596382 18.2701979,42.5408498 C18.2701979,42.3202456 18.4570007,42.1432176 18.6888277,42.1432176 L28.9725582,42.1432176 C29.2043852,42.1432176 29.391188,42.3202456 29.391188,42.5408498 C29.391188,42.7596382 29.2043852,42.9375741 28.9725582,42.9375741" id="Fill-19-Copy" fill="#B9DA8D"></path>
                        <path d="M8.22592405,42.9375741 L7.6623762,42.9375741 C7.37884485,42.9375741 7.14920789,42.7596382 7.14920789,42.5408498 C7.14920789,42.3202456 7.37884485,42.1432176 7.6623762,42.1432176 L8.22592405,42.1432176 C8.5094554,42.1432176 8.73792075,42.3202456 8.73792075,42.5408498 C8.73792075,42.7596382 8.5094554,42.9375741 8.22592405,42.9375741" id="Fill-20-Copy" fill="#B9DA8D"></path>
                        <path d="M8.22592405,38.9657919 L7.6623762,38.9657919 C7.37884485,38.9657919 7.14920789,38.7887639 7.14920789,38.5690676 C7.14920789,38.3493713 7.37884485,38.1714355 7.6623762,38.1714355 L8.22592405,38.1714355 C8.5094554,38.1714355 8.73792075,38.3493713 8.73792075,38.5690676 C8.73792075,38.7887639 8.5094554,38.9657919 8.22592405,38.9657919" id="Fill-21-Copy" fill="#B9DA8D"></path>
                        <path d="M8.22592405,34.9940098 L7.6623762,34.9940098 C7.37884485,34.9940098 7.14920789,34.8167792 7.14920789,34.5968315 C7.14920789,34.3768839 7.37884485,34.1996533 7.6623762,34.1996533 L8.22592405,34.1996533 C8.5094554,34.1996533 8.73792075,34.3768839 8.73792075,34.5968315 C8.73792075,34.8167792 8.5094554,34.9940098 8.22592405,34.9940098" id="Fill-22-Copy" fill="#B9DA8D"></path>
                        <path d="M20.2357654,47.7037127 L12.3338036,47.7037127 C12.1026013,47.7037127 11.9153465,47.5257768 11.9153465,47.3069884 C11.9153465,47.0863842 12.1026013,46.9093562 12.3338036,46.9093562 L20.2357654,46.9093562 C20.4669678,46.9093562 20.6532672,47.0863842 20.6532672,47.3069884 C20.6532672,47.5257768 20.4669678,47.7037127 20.2357654,47.7037127" id="Fill-23-Copy" fill="#B9DA8D"></path>
                        <path d="M28.947141,47.7037127 L23.4813997,47.7037127 C23.2354972,47.7037127 23.0363365,47.5257768 23.0363365,47.3069884 C23.0363365,47.0863842 23.2354972,46.9093562 23.4813997,46.9093562 L28.947141,46.9093562 C29.1930434,46.9093562 29.391188,47.0863842 29.391188,47.3069884 C29.391188,47.5257768 29.1930434,47.7037127 28.947141,47.7037127" id="Fill-24-Copy" fill="#B9DA8D"></path>
                        <path d="M33.7419457,51.6754948 L18.6865293,51.6754948 C18.4565015,51.6754948 18.2701979,51.4982643 18.2701979,51.2783166 C18.2701979,51.0583689 18.4565015,50.8811384 18.6865293,50.8811384 L33.7419457,50.8811384 C33.9719736,50.8811384 34.1573266,51.0583689 34.1573266,51.2783166 C34.1573266,51.4982643 33.9719736,51.6754948 33.7419457,51.6754948" id="Fill-25-Copy" fill="#B9DA8D"></path>
                        <path d="M8.22592405,51.6754948 L7.6623762,51.6754948 C7.37884485,51.6754948 7.14920789,51.497559 7.14920789,51.2787705 C7.14920789,51.0581664 7.37884485,50.8811384 7.6623762,50.8811384 L8.22592405,50.8811384 C8.5094554,50.8811384 8.73792075,51.0581664 8.73792075,51.2787705 C8.73792075,51.497559 8.5094554,51.6754948 8.22592405,51.6754948" id="Fill-26-Copy" fill="#B9DA8D"></path>
                        <path d="M8.22592405,46.9093562 L7.6623762,46.9093562 C7.37884485,46.9093562 7.14920789,46.7323282 7.14920789,46.5126319 C7.14920789,46.2929356 7.37884485,46.1149998 7.6623762,46.1149998 L8.22592405,46.1149998 C8.5094554,46.1149998 8.73792075,46.2929356 8.73792075,46.5126319 C8.73792075,46.7323282 8.5094554,46.9093562 8.22592405,46.9093562" id="Fill-27-Copy" fill="#B9DA8D"></path>
                        <g id="Group-14-Copy-2" transform="translate(2.383069, 3.154943)" fill="#C3C6C8">
                            <circle id="Oval" cx="1.38549361" cy="1.38549361" r="1.28208584"></circle>
                            <circle id="Oval" cx="5.23175112" cy="1.38549361" r="1.28208584"></circle>
                            <circle id="Oval" cx="9.07800864" cy="1.38549361" r="1.28208584"></circle>
                        </g>
                    </g>
                    <g id="Group-16" transform="translate(35.746039, 0.397178)">
                        <g id="Page-1" transform="translate(0.000000, 0.552456)">
                            <path d="M50.0467965,70.0512027 L3.27487979,70.0512027 C1.46611822,70.0512027 0,68.5899716 0,66.7883338 L0,3.67628246 C0,1.87355009 1.46611822,0.412318934 3.27487979,0.412318934 L50.0467965,0.412318934 C51.855558,0.412318934 53.3216763,1.87355009 53.3216763,3.67628246 L53.3216763,66.7883338 C53.3216763,68.5899716 51.855558,70.0512027 50.0467965,70.0512027" id="Fill-1" fill="#4B95B5"></path>
                            <polygon id="Fill-4" fill="#243442" points="2.69495249 66.4754947 50.3057798 66.4754947 50.3057798 8.08485747 2.69495249 8.08485747"></polygon>
                            <path d="M11.5721893,18.4120776 C11.5721893,17.4972286 11.1982898,16.9142579 10.3306512,16.9142579 C9.93757738,16.9142579 9.49417093,17.0932976 9.06035165,17.5059622 L9.06035165,19.5780188 C9.46421104,19.9098973 9.91720465,20.0354434 10.2227956,20.0354434 C10.9909673,20.0354434 11.5721893,19.4524727 11.5721893,18.4120776 Z M8.08485747,16.276702 L8.88298907,16.276702 L8.9620832,16.8149128 L8.99204309,16.8149128 C9.42466398,16.4382744 10.0250603,16.1697149 10.5966951,16.1697149 C11.868193,16.1697149 12.5764449,17.0485377 12.5764449,18.403344 C12.5764449,19.9011636 11.5422294,20.7712527 10.4097453,20.7712527 C9.96633888,20.7712527 9.4450367,20.5736541 9.03997892,20.2341337 L9.01121742,20.2341337 L9.06035165,21.0234367 L9.06035165,22.4579374 L8.08485747,22.4579374 L8.08485747,16.276702 Z" id="Fill-8" fill="#FFFFFF"></path>
                            <path d="M15.0270456,19.0651021 L15.0270456,15.0629271 L13.4747624,15.0629271 L13.4747624,14.3730799 L15.9879266,14.3730799 L15.9879266,19.1181673 C15.9879266,19.7103746 16.356225,19.9555357 16.8803419,19.9555357 C17.1424004,19.9555357 17.4139024,19.8939801 17.734983,19.7719302 L17.9663499,20.4161413 C17.5106987,20.5742755 17.1907985,20.6613024 16.6572381,20.6613024 C15.5995607,20.6613024 15.0270456,20.0945664 15.0270456,19.0651021" id="Fill-9" fill="#FFFFFF"></path>
                            <path d="M21.6573541,19.4006742 L21.6573541,18.3840729 C20.1034544,18.5162097 19.6416173,18.8476175 19.6416173,19.3655087 C19.6416173,19.7938879 19.9980886,19.9686495 20.4264449,19.9686495 C20.8479082,19.9686495 21.2526312,19.7597881 21.6573541,19.4006742 M18.8646674,19.4262491 C18.8646674,18.4629288 19.6662355,17.9993841 21.6573541,17.8320818 C21.6327359,17.3077969 21.3737526,16.8783521 20.6696726,16.8783521 C20.184202,16.8783521 19.7144871,17.1138541 19.3265045,17.3600123 L19.0271474,16.7728557 C19.4633816,16.4840728 20.11921,16.1697149 20.8075344,16.1697149 C21.9005817,16.1697149 22.4579374,16.8517116 22.4579374,17.9812686 L22.4579374,20.5558061 L21.8030937,20.5558061 L21.7381017,20.003815 L21.7134836,20.003815 C21.293005,20.3554695 20.7425424,20.6613024 20.1999577,20.6613024 C19.4397482,20.6613024 18.8646674,20.1785766 18.8646674,19.4262491" id="Fill-10" fill="#FFFFFF"></path>
                            <path d="M24.2545724,16.2766315 L24.9178534,16.2766315 L24.982588,16.9846811 L25.0154533,16.9846811 C25.416808,16.5275582 25.8669627,16.1697149 26.489411,16.1697149 C27.4225856,16.1697149 27.8478424,16.8057595 27.8478424,17.9447484 L27.8478424,20.6613024 L27.0371656,20.6613024 L27.0371656,18.0614839 C27.0371656,17.298885 26.8081046,16.9399507 26.2025868,16.9399507 C25.7773301,16.9399507 25.4745712,17.1734216 25.0642532,17.6403634 L25.0642532,20.6613024 L24.2545724,20.6613024 L24.2545724,16.2766315 Z" id="Fill-11" fill="#FFFFFF"></path>
                            <path d="M30.5427949,19.7635724 C30.5427949,19.241855 30.9315191,18.8646674 31.4417197,18.8646674 C31.9494908,18.8646674 32.3394299,19.241855 32.3394299,19.7635724 C32.3394299,20.2935151 31.9494908,20.6613024 31.4417197,20.6613024 C30.9315191,20.6613024 30.5427949,20.2935151 30.5427949,19.7635724" id="Fill-12" fill="#FFFFFF"></path>
                            <path d="M35.0343823,19.9963557 L35.4615906,19.4358396 C36.013893,19.7864286 36.6535253,19.9963557 37.4784385,19.9963557 C38.2065808,19.9963557 38.5547201,19.7331476 38.5547201,19.4091991 C38.5547201,19.1033663 38.3611782,18.919014 37.1680634,18.6909714 C35.9171221,18.4554694 35.3258753,18.0686494 35.3258753,17.4218182 C35.3258753,16.7035905 36.0327752,16.1697149 37.3521642,16.1697149 C38.0991886,16.1697149 38.8178898,16.4403824 39.2923034,16.7302309 L38.846213,17.2726314 C38.3906816,17.0008984 37.8478202,16.8346617 37.2648344,16.8346617 C36.5473133,16.8346617 36.2853237,17.0808199 36.2853237,17.3781278 C36.2853237,17.7095355 36.6641465,17.8501974 37.5846505,18.024959 C39.137706,18.3318575 39.5259698,18.6909714 39.5259698,19.3559181 C39.5259698,20.0752115 38.7494421,20.6613024 37.3521642,20.6613024 C36.4505424,20.6613024 35.606747,20.3554695 35.0343823,19.9963557" id="Fill-13" fill="#FFFFFF"></path>
                            <path d="M40.4242873,14.3730799 L41.2339682,14.3730799 L41.2339682,16.040657 L41.1851682,17.0163784 L41.2100662,17.0163784 C41.5865229,16.5727705 42.0446449,16.2187477 42.659126,16.2187477 C43.5923006,16.2187477 44.0175573,16.8480017 44.0175573,17.9748304 L44.0175573,20.6613024 L43.2068805,20.6613024 L43.2068805,18.0892402 C43.2068805,17.3358624 42.9788155,16.9807602 42.3723018,16.9807602 C41.947045,16.9807602 41.6442861,17.2117386 41.2339682,17.6736952 L41.2339682,20.6613024 L40.4242873,20.6613024 L40.4242873,14.3730799 Z" id="Fill-14" fill="#FFFFFF"></path>
                            <path d="M22.8841127,32.3394299 L13.947985,32.3394299 C13.6865241,32.3394299 13.4747624,32.1392334 13.4747624,31.8907844 C13.4747624,31.6423355 13.6865241,31.4411124 13.947985,31.4411124 L22.8841127,31.4411124 C23.1455736,31.4411124 23.3562549,31.6423355 23.3562549,31.8907844 C23.3562549,32.1392334 23.1455736,32.3394299 22.8841127,32.3394299" id="Fill-15" fill="#FFFFFF"></path>
                            <path d="M32.7355859,32.3394299 L26.554518,32.3394299 C26.2764331,32.3394299 26.0512074,32.1392334 26.0512074,31.8907844 C26.0512074,31.6423355 26.2764331,31.4411124 26.554518,31.4411124 L32.7355859,31.4411124 C33.0136707,31.4411124 33.2377474,31.6423355 33.2377474,31.8907844 C33.2377474,32.1392334 33.0136707,32.3394299 32.7355859,32.3394299" id="Fill-16" fill="#FFFFFF"></path>
                            <path d="M42.6170783,41.3226048 L36.4348613,41.3226048 C36.1567765,41.3226048 35.9326998,41.1213817 35.9326998,40.8739594 C35.9326998,40.6244838 36.1567765,40.4242873 36.4348613,40.4242873 L42.6170783,40.4242873 C42.8951632,40.4242873 43.1192398,40.6244838 43.1192398,40.8739594 C43.1192398,41.1213817 42.8951632,41.3226048 42.6170783,41.3226048" id="Fill-17" fill="#FFFFFF"></path>
                            <path d="M38.1579087,36.8310173 L21.132121,36.8310173 C20.8719883,36.8310173 20.6613024,36.6297942 20.6613024,36.3823719 C20.6613024,36.1328963 20.8719883,35.9326998 21.132121,35.9326998 L38.1579087,35.9326998 C38.4180413,35.9326998 38.6276523,36.1328963 38.6276523,36.3823719 C38.6276523,36.6297942 38.4180413,36.8310173 38.1579087,36.8310173" id="Fill-18" fill="#FFFFFF"></path>
                            <path d="M32.7643296,41.3226048 L21.1347201,41.3226048 C20.8725529,41.3226048 20.6613024,41.1213817 20.6613024,40.8739594 C20.6613024,40.6244838 20.8725529,40.4242873 21.1347201,40.4242873 L32.7643296,40.4242873 C33.0264969,40.4242873 33.2377474,40.6244838 33.2377474,40.8739594 C33.2377474,41.1213817 33.0264969,41.3226048 32.7643296,41.3226048" id="Fill-19" fill="#FFFFFF"></path>
                            <path d="M9.30248841,41.3226048 L8.66518647,41.3226048 C8.34454807,41.3226048 8.08485747,41.1213817 8.08485747,40.8739594 C8.08485747,40.6244838 8.34454807,40.4242873 8.66518647,40.4242873 L9.30248841,40.4242873 C9.62312681,40.4242873 9.88149246,40.6244838 9.88149246,40.8739594 C9.88149246,41.1213817 9.62312681,41.3226048 9.30248841,41.3226048" id="Fill-20" fill="#FFFFFF"></path>
                            <path d="M9.30248841,36.8310173 L8.66518647,36.8310173 C8.34454807,36.8310173 8.08485747,36.6308209 8.08485747,36.3823719 C8.08485747,36.133923 8.34454807,35.9326998 8.66518647,35.9326998 L9.30248841,35.9326998 C9.62312681,35.9326998 9.88149246,36.133923 9.88149246,36.3823719 C9.88149246,36.6308209 9.62312681,36.8310173 9.30248841,36.8310173" id="Fill-21" fill="#FFFFFF"></path>
                            <path d="M9.30248841,32.3394299 L8.66518647,32.3394299 C8.34454807,32.3394299 8.08485747,32.1390043 8.08485747,31.8902711 C8.08485747,31.6415379 8.34454807,31.4411124 8.66518647,31.4411124 L9.30248841,31.4411124 C9.62312681,31.4411124 9.88149246,31.6415379 9.88149246,31.8902711 C9.88149246,32.1390043 9.62312681,32.3394299 9.30248841,32.3394299" id="Fill-22" fill="#FFFFFF"></path>
                            <path d="M22.8841127,46.7125098 L13.947985,46.7125098 C13.6865241,46.7125098 13.4747624,46.5112867 13.4747624,46.2638644 C13.4747624,46.0143888 13.6865241,45.8141923 13.947985,45.8141923 L22.8841127,45.8141923 C23.1455736,45.8141923 23.3562549,46.0143888 23.3562549,46.2638644 C23.3562549,46.5112867 23.1455736,46.7125098 22.8841127,46.7125098" id="Fill-23" fill="#FFFFFF"></path>
                            <path d="M32.7355859,46.7125098 L26.554518,46.7125098 C26.2764331,46.7125098 26.0512074,46.5112867 26.0512074,46.2638644 C26.0512074,46.0143888 26.2764331,45.8141923 26.554518,45.8141923 L32.7355859,45.8141923 C33.0136707,45.8141923 33.2377474,46.0143888 33.2377474,46.2638644 C33.2377474,46.5112867 33.0136707,46.7125098 32.7355859,46.7125098" id="Fill-24" fill="#FFFFFF"></path>
                            <path d="M38.1579087,51.2040973 L21.132121,51.2040973 C20.8719883,51.2040973 20.6613024,51.0036718 20.6613024,50.7549385 C20.6613024,50.5062053 20.8719883,50.3057798 21.132121,50.3057798 L38.1579087,50.3057798 C38.4180413,50.3057798 38.6276523,50.5062053 38.6276523,50.7549385 C38.6276523,51.0036718 38.4180413,51.2040973 38.1579087,51.2040973" id="Fill-25" fill="#FFFFFF"></path>
                            <path d="M9.30248841,51.2040973 L8.66518647,51.2040973 C8.34454807,51.2040973 8.08485747,51.0028742 8.08485747,50.7554519 C8.08485747,50.5059763 8.34454807,50.3057798 8.66518647,50.3057798 L9.30248841,50.3057798 C9.62312681,50.3057798 9.88149246,50.5059763 9.88149246,50.7554519 C9.88149246,51.0028742 9.62312681,51.2040973 9.30248841,51.2040973" id="Fill-26" fill="#FFFFFF"></path>
                            <path d="M9.30248841,45.8141923 L8.66518647,45.8141923 C8.34454807,45.8141923 8.08485747,45.6139958 8.08485747,45.3655469 C8.08485747,45.1170979 8.34454807,44.9158748 8.66518647,44.9158748 L9.30248841,44.9158748 C9.62312681,44.9158748 9.88149246,45.1170979 9.88149246,45.3655469 C9.88149246,45.6139958 9.62312681,45.8141923 9.30248841,45.8141923" id="Fill-27" fill="#FFFFFF"></path>
                        </g>
                        <g id="Group-4" transform="translate(2.383069, 3.894208)" fill="#89C2D6">
                            <circle id="Oval" cx="1.85756708" cy="1.77705298" r="1.31716383"></circle>
                            <circle id="Oval" cx="5.80905857" cy="1.77705298" r="1.31716383"></circle>
                        </g>
                    </g>
                </g>
            </g>
            <g id="hart" transform="translate(102.000000, 0.500000)">
                <g id="Group-8-Copy-13" transform="translate(0.359375, 69.000000)">
                    <g id="Group-7" fill-rule="nonzero">
                        <g id="Group-6">
                            <path d="M59.8385388,9.67055276 L59.8385388,15.6978128 C59.8385388,16.3213225 59.1309885,16.9448321 57.7148771,17.3605052 L34.9721892,24.9465394 C31.6376058,25.8818039 28.1999222,25.8818039 24.864328,24.9465394 L2.12164008,17.3605052 C0.707550289,16.9448321 0,16.3213225 0,15.6978128 L0,9.67055276 C0.100067827,10.1901441 0.808628902,10.7097355 2.02157226,11.1254086 L24.7642601,18.7114428 C28.0998544,19.6467073 31.5365272,19.6467073 34.8721214,18.7114428 L57.6148093,11.1254086 C58.8277526,10.7097355 59.5342921,10.1901441 59.6363815,9.67055276 L59.8385388,9.67055276 Z" id="Fill-199" fill="#799987"></path>
                            <path d="M2.12265087,11.2865198 C-0.707550289,10.3775383 -0.707550289,8.96356718 2.12265087,8.05458572 L24.8653387,0.681736095 C28.200933,-0.227245365 31.6376058,-0.227245365 34.9732,0.681736095 L57.7158879,8.05458572 C60.5460891,8.96356718 60.5460891,10.3775383 57.7158879,11.2865198 L34.9732,18.6593694 C31.7386844,19.5683509 28.200933,19.5683509 24.8653387,18.6593694 L2.12265087,11.2865198 Z" id="Fill-202" fill="#87B09A"></path>
                        </g>
                    </g>
                    <g id="light-copy" transform="translate(2.000000, 14.000000)">
                        <g id="path-1-link" fill="#000000" fill-rule="nonzero">
                            <ellipse id="path-1" cx="1.80790701" cy="1.2141405" rx="1.08797343" ry="1.08672432"></ellipse>
                        </g>
                        <g id="path-1-link" fill="#B9DA8D">
                            <ellipse id="path-1" cx="1.80790701" cy="1.2141405" rx="1.08797343" ry="1.08672432"></ellipse>
                        </g>
                    </g>
                </g>
                <g id="Asset-268-Copy-7" transform="translate(7.359375, 0.000000)">
                    <path d="M45.5632553,35.0108294 L45.5632553,69.5783705 C45.5632553,72.3653781 43.3013424,74.6246941 40.5111313,74.6246941 L5.05660685,74.6246941 C3.71592372,74.6258824 2.42974425,74.0947423 1.48131743,73.1482442 C0.532890615,72.2017461 -5.27774708e-07,70.9175149 0,69.5783705 L0,35.0108294 L2.43864728,35.0108294 L2.43864728,35.3018774 C2.43864728,35.9690488 3.44727896,36.5153235 4.71143067,36.5153235 L40.5738906,36.5153235 C41.8245939,36.5153235 42.846674,35.9735265 42.846674,35.3018774 L42.846674,35.0108294 L45.5632553,35.0108294 Z" id="Shape" fill="#E2F0F7" fill-rule="nonzero"></path>
                    <path d="M42.8735708,35.0108294 L42.8735708,35.3018774 C42.8735708,35.9690488 41.8514907,36.5153235 40.6007874,36.5153235 L4.73832752,36.5153235 C3.47417581,36.5153235 2.46554412,35.9735265 2.46554412,35.3018774 L2.46554412,35.0108294 L42.8735708,35.0108294 Z" id="Shape" fill="#E2F0F7" fill-rule="nonzero"></path>
                    <path d="M42.8735708,34.5182868 L42.8735708,35.3018774 C42.8735708,35.9690488 41.8514907,36.5153235 40.6007874,36.5153235 L4.73832752,36.5153235 C3.47417581,36.5153235 2.46554412,35.9735265 2.46554412,35.3018774 L2.46554412,34.5182868 C2.46554412,33.8511153 3.47417581,33.3048407 4.73832752,33.3048407 L40.6007874,33.3048407 C41.8514907,33.3093184 42.8735708,33.8511153 42.8735708,34.5182868 Z" id="Shape" fill="#F3FCFF" fill-rule="nonzero"></path>
                    <path d="M42.8735708,34.5182868 L42.8735708,35.3018774 C42.8735708,35.9690488 41.8514907,36.5153235 40.6007874,36.5153235 L4.73832752,36.5153235 C3.47417581,36.5153235 2.46554412,35.9735265 2.46554412,35.3018774 L2.46554412,34.5182868 C2.46554412,33.8511153 3.47417581,33.3048407 4.73832752,33.3048407 L40.6007874,33.3048407 C41.8514907,33.3093184 42.8735708,33.8511153 42.8735708,34.5182868 Z" id="Shape" fill="#E2F0F7" fill-rule="nonzero"></path>
                    <path d="M42.9990895,31.7063158 L2.56864869,31.7063158 C1.88744891,31.7039315 1.23339576,31.9728644 0.751291312,32.4535749 C0.269186868,32.9342854 -0.00119718403,33.5871169 -3.51827621e-13,34.2675378 L-3.51827621e-13,35.9063616 C-0.00119268287,36.5860044 0.268576715,37.2381536 0.749709883,37.7187344 C1.23084305,38.1993152 1.88374188,38.4687749 2.56416588,38.4675835 L42.9990895,38.4675835 C44.4142158,38.4651188 45.5607878,37.3198632 45.5632553,35.9063616 L45.5632553,34.2675378 C45.5607878,32.8540361 44.4142158,31.7087805 42.9990895,31.7063158 Z M42.8735708,35.2884444 C42.8735708,35.9556159 41.8514907,36.5018905 40.6007874,36.5018905 L4.73832752,36.5018905 C3.47417581,36.5018905 2.46554412,35.9600935 2.46554412,35.2884444 L2.46554412,34.5182868 C2.46554412,33.8511153 3.47417581,33.3048407 4.73832752,33.3048407 L40.6007874,33.3048407 C41.8514907,33.3048407 42.8735708,33.8466376 42.8735708,34.5182868 L42.8735708,35.2884444 Z" id="Shape" fill="#F3FCFF" fill-rule="nonzero"></path>
                    <rect id="Rectangle-path" fill="#847264" fill-rule="nonzero" x="3.09761998" y="48.8199352" width="39.3724982" height="13.1688003"></rect>
                    <path d="M3.09761998,61.9887355 L42.4656354,61.9887355 L42.4656354,70.8948027 C42.4656354,71.3893915 42.0642311,71.7903349 41.5690739,71.7903349 L3.99418147,71.7903349 C3.49902423,71.7903349 3.09761998,71.3893915 3.09761998,70.8948027 L3.09761998,61.9887355 Z" id="Shape" fill="#685A50" fill-rule="nonzero"></path>
                    <path d="M17.9227815,29.5570386 L17.9177815,29.5570386" id="Shape" stroke="#5C6670" stroke-linecap="round" stroke-linejoin="round"></path>
                    <rect id="Rectangle-path" fill="#9B8676" fill-rule="nonzero" x="3.09761998" y="45.3452705" width="39.3724982" height="6.94932949" rx="2"></rect>
                    <path d="M37.0773008,48.730382 L33.1727754,48.730382 C33.2423667,47.7058254 34.0947044,46.9102698 35.1227967,46.9102698 C36.150889,46.9102698 37.0032267,47.7058254 37.0728179,48.730382 L37.0773008,48.730382 Z" id="Shape" fill="#B3B3B3" fill-rule="nonzero"></path>
                    <path d="M36.4362593,48.730382 L32.5362168,48.730382 C32.605808,47.7058254 33.4581458,46.9102698 34.486238,46.9102698 C35.5143303,46.9102698 36.366668,47.7058254 36.4362593,48.730382 Z" id="Shape" fill="#C3C6C8" fill-rule="nonzero"></path>
                    <path d="M13.1122119,48.730382 L9.21216939,48.730382 C9.26063077,47.7003168 10.1305034,46.9013523 11.1621907,46.9393177 C12.1938779,46.9013523 13.0637505,47.7003168 13.1122119,48.730382 Z" id="Shape" fill="#B3B3B3" fill-rule="nonzero"></path>
                    <path d="M12.4756532,48.730382 L8.57561073,48.730382 C8.62407211,47.7003168 9.49394469,46.9013523 10.525632,46.9393177 C11.5573193,46.9013523 12.4271919,47.7003168 12.4756532,48.730382 Z" id="Shape" fill="#C3C6C8" fill-rule="nonzero"></path>
                    <ellipse id="Oval" fill="#9B8676" fill-rule="nonzero" cx="30.061707" cy="68.7231373" rx="1.22828925" ry="1.22687905"></ellipse>
                    <ellipse id="Oval" fill="#9B8676" fill-rule="nonzero" cx="16.3263849" cy="68.7231373" rx="1.22828925" ry="1.22687905"></ellipse>
                    <ellipse id="Oval" fill="#847264" fill-rule="nonzero" cx="24.2699198" cy="65.5529534" rx="1.22828925" ry="1.22687905"></ellipse>
                    <ellipse id="Oval" fill="#9B8676" fill-rule="nonzero" cx="36.6200544" cy="65.9111663" rx="1.22828925" ry="1.22687905"></ellipse>
                    <ellipse id="Oval" fill="#847264" fill-rule="nonzero" cx="8.24388298" cy="65.3828023" rx="1.22828925" ry="1.22687905"></ellipse>
                    <path d="M19.1281396,48.8512788 L27.2644352,48.8512788 C27.2644352,48.010478 26.5820479,47.3288742 25.7402806,47.3288742 C25.5878646,47.3315112 25.4367261,47.3571752 25.2919999,47.4049944 C24.8181556,46.7207067 24.0382327,46.3123183 23.205253,46.3123183 C22.3722733,46.3123183 21.5923504,46.7207067 21.1185061,47.4049944 C20.9737799,47.3571752 20.8226413,47.3315112 20.6702253,47.3288742 C20.2628966,47.3240872 19.8705994,47.4823672 19.580875,47.768394 C19.2911506,48.0544207 19.1281114,48.4443895 19.1281396,48.8512788 Z" id="Shape" fill="#847264" fill-rule="nonzero"></path>
                    <path d="M23.2702537,0 C16.3219021,0 12.6146203,21.6450121 12.6146203,25.8540132 C12.7335981,31.6483616 17.4702666,36.28355 23.2724951,36.28355 C29.0747236,36.28355 33.8113921,31.6483616 33.9303699,25.8540132 C33.9303699,21.6450121 30.2186053,0 23.2702537,0 Z" id="Shape" fill="#BFEC80" fill-rule="nonzero"></path>
                    <path d="M17.1826011,25.8540132 C17.1826011,22.1330771 20.0829776,4.80900765 25.5564855,0.823889579 C24.9028059,0.311070483 24.1011522,0.0221784887 23.2702537,0 C16.3219021,-4.29014738e-16 12.6146203,21.6450121 12.6146203,25.8540132 C12.6022002,29.0826557 14.0601393,32.1417937 16.5768688,34.1678477 C19.0935982,36.1939016 22.3960664,36.9670556 25.5520027,36.2690521 C20.6611861,35.1889896 17.1801989,30.8571844 17.1826011,25.8540132 Z" id="Shape" fill="#AAE655" fill-rule="nonzero"></path>
                    <path d="M27.3944366,24.7793746 C26.7996466,24.1873198 25.8374789,24.1873198 25.242689,24.7793746 L24.7944082,25.2271407 L24.7944082,22.8136815 C24.7505143,22.006139 24.0821565,21.3738105 23.2724951,21.3738105 C22.4628337,21.3738105 21.7944759,22.006139 21.7505819,22.8136815 L21.7505819,28.2674723 L21.3023012,27.8197063 C20.6991293,27.2842787 19.7826794,27.3112255 19.2120839,27.8811659 C18.6414883,28.4511063 18.6145106,29.366504 19.1505536,29.9689834 L21.7505819,32.5660267 L21.7505819,47.1452901 L24.7944082,47.1452901 L24.7944082,29.525695 L27.3944366,26.9286518 C27.987172,26.3345447 27.987172,25.3734817 27.3944366,24.7793746 Z" id="Shape" fill="#759684" fill-rule="nonzero"></path>
                    <g id="Group" opacity="0.5" transform="translate(0.000000, 34.925754)" fill="#F3FCFF" fill-rule="nonzero">
                        <path d="M45.5632553,0.0850755543 L45.5632553,0.980607705 C45.5607878,2.39410936 44.4142158,3.53936496 42.9990895,3.54182966 L2.56416588,3.54182966 C1.88374188,3.54302097 1.23084305,3.2735613 0.749709883,2.79298052 C0.268576715,2.31239974 -0.00119268287,1.66025051 -1.69406589e-21,0.980607705 L-3.93797364e-06,0.0850755543 L2.43864728,0.0850755543 L2.43864728,0.376123503 C2.43864728,1.04329496 3.44727896,1.58956957 4.71143067,1.58956957 L40.5738906,1.58956957 C41.8245939,1.58956957 42.846674,1.04777262 42.846674,0.376123503 L42.846674,0.0850755543 L45.5632553,0.0850755543 Z" id="Shape"></path>
                    </g>
                </g>
            </g>
        </g>
    </g>
</svg>
