<?xml version="1.0" encoding="utf-8"?>
<!-- Generator: Adobe Illustrator 22.1.0, SVG Export Plug-In . SVG Version: 6.00 Build 0)  -->
<svg version="1.1" id="Layer_1" xmlns="http://www.w3.org/2000/svg" xmlns:xlink="http://www.w3.org/1999/xlink" x="0px" y="0px"
	 viewBox="0 0 118.9 44" style="enable-background:new 0 0 118.9 44;" xml:space="preserve">
<style type="text/css">
	.st0{fill:#EDEFF0;}
</style>
<path class="st0" d="M115.6,14.9v0.2h0.5v1.4h0.2v-1.4h0.5v-0.2H115.6z M118.7,14.9l-0.6,0.9l-0.6-0.9h-0.2v1.6h0.2v-1.2l0.6,0.9h0
	l0.6-0.9v1.2h0.2v-1.6H118.7z"/>
<path class="st0" d="M52.6,22L52.6,22c0-4.3,3.2-7.7,7.8-7.7c2.8,0,4.5,0.9,5.9,2.3L64.2,19c-1.1-1-2.3-1.7-3.8-1.7
	c-2.5,0-4.3,2.1-4.3,4.6v0c0,2.6,1.8,4.7,4.3,4.7c1.7,0,2.7-0.7,3.9-1.7l2.1,2.1c-1.5,1.6-3.2,2.7-6.1,2.7
	C55.9,29.7,52.6,26.3,52.6,22"/>
<polygon class="st0" points="70.1,14.6 73.4,14.6 73.4,20.4 79.5,20.4 79.5,14.6 82.7,14.6 82.7,29.4 79.5,29.4 79.5,23.5 
	73.4,23.5 73.4,29.4 70.1,29.4 "/>
<polygon class="st0" points="86.7,14.6 98,14.6 98,17.5 90,17.5 90,20.5 97,20.5 97,23.4 90,23.4 90,26.5 98.1,26.5 98.1,29.4 
	86.7,29.4 "/>
<polygon class="st0" points="102.4,14.6 113.7,14.6 113.7,17.5 105.6,17.5 105.6,20.7 112.8,20.7 112.8,23.7 105.6,23.7 105.6,29.4 
	102.4,29.4 "/>
<path class="st0" d="M22,31.9c-5.5,0-9.9-4.4-9.9-9.9s4.4-9.9,9.9-9.9c4.5,0,8.3,3,9.5,7.2h3.8C34.1,13,28.6,8.4,22,8.4
	C14.5,8.4,8.4,14.5,8.4,22c0,7.5,6.1,13.6,13.6,13.6c6.6,0,12.1-4.7,13.4-10.9h-3.8C30.3,28.9,26.5,31.9,22,31.9"/>
<path class="st0" d="M15.3,28.7c1.7,1.7,4.1,2.8,6.7,2.8v-4c-1.5,0-2.9-0.6-3.9-1.6L15.3,28.7z"/>
<path class="st0" d="M12.5,22c0,1.4,0.3,2.6,0.8,3.8l3.6-1.6c-0.3-0.7-0.5-1.4-0.5-2.2c0-3,2.5-5.5,5.5-5.5v-4
	C16.8,12.5,12.5,16.8,12.5,22"/>
<path class="st0" d="M25.4,13.2L24,16.9c1.2,0.5,2.1,1.3,2.8,2.4H31C30.2,16.5,28.1,14.2,25.4,13.2"/>
<path class="st0" d="M24,27.1l1.4,3.7c2.7-1,4.8-3.3,5.6-6.1h-4.3C26.1,25.8,25.2,26.7,24,27.1"/>
<path class="st0" d="M22,40.3c-5,0-9.6-2.1-12.9-5.4l-2.6,2.6c4,4,9.5,6.4,15.6,6.4c11.2,0,20.5-8.4,21.8-19.2h-3.8
	C38.7,33.5,31.1,40.3,22,40.3"/>
<path class="st0" d="M22,3.7c4.1,0,7.9,1.4,10.9,3.6l2.2-3C31.5,1.6,26.9,0,22,0C12.7,0,4.7,5.8,1.5,14L5,15.4
	C7.6,8.6,14.3,3.7,22,3.7"/>
<path class="st0" d="M40.1,19.3h3.8c-0.4-3.2-1.5-6.3-3.2-8.9l-3.2,2C38.8,14.4,39.7,16.7,40.1,19.3"/>
<path class="st0" d="M35.8,19.3h3.8c-1-6.3-5.3-11.6-11.1-13.8l-1.4,3.5C31.5,10.6,34.9,14.5,35.8,19.3"/>
<path class="st0" d="M22,7.9L22,7.9V4.2c-7.5,0-14,4.7-16.6,11.4l3.5,1.3C10.9,11.6,16,7.9,22,7.9"/>
<path class="st0" d="M7.9,22L7.9,22H4.2c0,7.5,4.6,13.9,11.2,16.5l1.4-3.5C11.6,33,7.9,27.9,7.9,22"/>
<path class="st0" d="M22,36.1v3.7c8.9,0,16.3-6.5,17.6-15.1h-3.8C34.5,31.2,28.8,36.1,22,36.1"/>
<path class="st0" d="M1.9,30.9C0.6,28,0,25,0,22l3.7,0c0,2.5,0.5,5,1.5,7.4L1.9,30.9z"/>
</svg>
