<svg xmlns="http://www.w3.org/2000/svg" viewBox="0 0 215.5 18.2"><title>AutomateLogoAsset 16</title><g id="Layer_2" data-name="Layer 2"><g id="Layer_1-2" data-name="Layer 1"><path d="M0,9.15v0A9,9,0,0,1,9.18,0a9.08,9.08,0,0,1,6.94,2.72L13.65,5.56a6.49,6.49,0,0,0-4.5-2A5.21,5.21,0,0,0,4,9.05V9.1a5.23,5.23,0,0,0,5.1,5.53,6.35,6.35,0,0,0,4.63-2.06l2.46,2.49A9,9,0,0,1,9,18.2,8.88,8.88,0,0,1,0,9.15Z" style="fill:#435363"/><path d="M19.34.3h3.87v7h7.14V.3h3.87V17.9H30.35V10.84H23.21V17.9H19.34Z" style="fill:#435363"/><path d="M38.44.3H51.72V3.75H42.29V7.32h8.3v3.44h-8.3v3.7h9.55V17.9H38.44Z" style="fill:#435363"/><path d="M55.29.3h13.4V3.82H59.16V7.57h8.4v3.52h-8.4V17.9H55.29Z" style="fill:#435363"/><path d="M78.67.18h1.86l8,17.73H86.42l-2.06-4.65H74.78L72.69,17.9h-2Zm4.9,11.26-4-9-4,9Z" style="fill:#f38b00"/><path d="M91.12,10.54V.3h2V10.41c0,3.8,2,5.93,5.38,5.93s5.3-2,5.3-5.81V.3h2V10.38c0,5.13-2.94,7.79-7.34,7.79S91.12,15.51,91.12,10.54Z" style="fill:#f38b00"/><path d="M115.13,2.14h-5.91V.3h13.83V2.14h-5.91V17.9h-2Z" style="fill:#f38b00"/><path d="M124.79,9.15v0a9,9,0,1,1,18-.05V9.1a9,9,0,1,1-18,0Zm15.89,0v0a7,7,0,0,0-6.94-7.27,6.91,6.91,0,0,0-6.89,7.22V9.1a7,7,0,0,0,6.94,7.27A6.91,6.91,0,0,0,140.68,9.15Z" style="fill:#f38b00"/><path d="M146.94.3h2l6.41,9.6L161.77.3h2V17.9h-2V3.65l-6.41,9.43h-.1l-6.41-9.4V17.9h-1.94Z" style="fill:#f38b00"/><path d="M175.27.18h1.86l8,17.73H183L181,13.25h-9.58l-2.09,4.65h-2Zm4.9,11.26-4-9-4,9Z" style="fill:#f38b00"/><path d="M191,2.14H185.1V.3h13.83V2.14H193V17.9h-2Z" style="fill:#f38b00"/><path d="M202.66.3h12.72V2.11H204.64v6h9.6V9.93h-9.6v6.16H215.5V17.9H202.66Z" style="fill:#f38b00"/></g></g></svg>