<?xml version="1.0" encoding="utf-8"?>
<!-- Generator: Adobe Illustrator 22.1.0, SVG Export Plug-In . SVG Version: 6.00 Build 0)  -->
<svg version="1.1" id="Layer_1" xmlns="http://www.w3.org/2000/svg" xmlns:xlink="http://www.w3.org/1999/xlink" x="0px" y="0px"
	 viewBox="0 0 46 46" style="enable-background:new 0 0 46 46;" xml:space="preserve">
<style type="text/css">
	.st0{display:none;fill:#F38B00;}
	.st1{display:none;enable-background:new    ;}
	.st2{display:inline;fill:#F18A21;}
	.st3{fill:#5C6670;}
</style>
<path class="st0" d="M-74.7,274.3L-74.7,274.3c0-4.4,3.3-8,7.9-8c2.7,0,4.3,0.7,5.9,2.1l-1.7,2c-1.2-1-2.4-1.7-4.3-1.7
	c-2.8,0-5,2.5-5,5.4l0,0c0,3.2,2.1,5.5,5.2,5.5c1.5,0,2.8-0.5,3.7-1.2v-2.9h-3.9v-2.1h6.6v6.5c-1.5,1.3-3.7,2.4-6.4,2.4
	C-71.5,282.2-74.7,278.8-74.7,274.3"/>
<polygon class="st0" points="-51.9,266.6 -40.5,266.6 -40.5,269 -49.2,269 -49.2,273 -41.5,273 -41.5,275.4 -49.2,275.4 
	-49.2,279.5 -40.4,279.5 -40.4,282 -51.9,282 "/>
<polygon class="st0" points="-28.6,269.1 -33.5,269.1 -33.5,266.6 -21,266.6 -21,269.1 -25.8,269.1 -25.8,282 -28.6,282 "/>
<path class="st0" d="M-14.8,274.3L-14.8,274.3c0-4.4,3.3-8,7.9-8c2.8,0,4.6,1,6,2.4l-1.7,2c-1.2-1.1-2.6-1.9-4.3-1.9
	c-2.9,0-5.1,2.4-5.1,5.4l0,0c0,3,2.1,5.5,5.1,5.5c1.9,0,3.1-0.8,4.4-2l1.7,1.8c-1.6,1.7-3.4,2.7-6.2,2.7
	C-11.4,282.2-14.8,278.7-14.8,274.3"/>
<polygon class="st0" points="7,266.6 9.7,266.6 9.7,273 17,273 17,266.6 19.7,266.6 19.7,282 17,282 17,275.5 9.7,275.5 9.7,282 
	7,282 "/>
<polygon class="st0" points="28.5,266.6 40,266.6 40,269 31.2,269 31.2,273 39,273 39,275.4 31.2,275.4 31.2,279.5 40.1,279.5 
	40.1,282 28.5,282 "/>
<polygon class="st0" points="48.1,266.6 59.6,266.6 59.6,269 50.8,269 50.8,273.2 58.6,273.2 58.6,275.7 50.8,275.7 50.8,282 
	48.1,282 "/>
<rect x="64.7" y="278.9" class="st0" width="2.9" height="3"/>
<path class="st0" d="M74.4,274.3L74.4,274.3c0-4.4,3.3-8,7.9-8c2.8,0,4.6,1,6,2.4l-1.7,2c-1.2-1.1-2.6-1.9-4.3-1.9
	c-2.9,0-5.1,2.4-5.1,5.4l0,0c0,3,2.1,5.5,5.1,5.5c1.9,0,3.1-0.8,4.4-2l1.7,1.8c-1.6,1.7-3.4,2.7-6.2,2.7
	C77.7,282.2,74.4,278.7,74.4,274.3"/>
<path class="st0" d="M95,274.3L95,274.3c0-4.4,3.3-8,8.1-8c4.7,0,8,3.6,8,7.9l0,0c0,4.3-3.3,8-8.1,8C98.3,282.2,95,278.6,95,274.3
	 M108.3,274.3L108.3,274.3c0-3-2.2-5.5-5.2-5.5c-3.1,0-5.2,2.4-5.2,5.4l0,0c0,3,2.2,5.5,5.2,5.5
	C106.2,279.7,108.3,277.3,108.3,274.3"/>
<polygon class="st0" points="119.2,266.6 122.1,266.6 126.8,273.8 131.5,266.6 134.4,266.6 134.4,282 131.7,282 131.7,270.9 
	126.8,278.2 126.7,278.2 121.9,271 121.9,282 119.2,282 "/>
<text transform="matrix(1 0 0 1 -31.0154 281.9134)" style="display:none;fill:#F18A21;enable-background:new    ; font-family:'Gotham-Medium'; font-size:22px; letter-spacing:3;">CHEF.IO</text>
<path class="st3" d="M23.1,33.4c-5.7,0-10.4-4.6-10.4-10.4s4.7-10.4,10.4-10.4c4.7,0,8.7,3.2,10,7.5h4c-1.3-6.5-7.1-11.4-14-11.4
	C15.2,8.8,8.8,15.2,8.8,23c0,7.9,6.4,14.2,14.3,14.2c6.9,0,12.7-4.9,14-11.4h-4C31.8,30.2,27.8,33.4,23.1,33.4"/>
<path class="st3" d="M16.1,30c1.8,1.8,4.3,2.9,7,2.9v-4.1c-1.6,0-3-0.6-4.1-1.7L16.1,30z"/>
<path class="st3" d="M13.2,23c0,1.4,0.3,2.8,0.8,4l3.8-1.7c-0.3-0.7-0.5-1.5-0.5-2.3c0-3.2,2.6-5.8,5.8-5.8v-4.1
	C17.6,13.1,13.2,17.6,13.2,23"/>
<path class="st3" d="M26.7,13.8l-1.5,3.8c1.2,0.5,2.2,1.4,2.9,2.5h4.5C31.7,17.2,29.5,14.9,26.7,13.8"/>
<path class="st3" d="M25.2,28.4l1.5,3.8c2.8-1.1,5-3.4,5.9-6.3h-4.5C27.4,27,26.4,27.9,25.2,28.4"/>
<path class="st3" d="M23.1,42.1c-5.3,0-10.1-2.1-13.5-5.6l-2.8,2.8C11,43.4,16.7,46,23.1,46c11.8,0,21.5-8.8,22.9-20.1h-4
	C40.7,35.1,32.7,42.1,23.1,42.1"/>
<path class="st3" d="M23.1,3.9c4.3,0,8.3,1.4,11.5,3.8l2.3-3.1C33,1.7,28.3,0,23.1,0C13.3,0,4.9,6.1,1.6,14.7l3.7,1.4
	C8,8.9,15,3.9,23.1,3.9"/>
<path class="st3" d="M42,20.1h4c-0.4-3.4-1.6-6.5-3.3-9.3l-3.3,2.1C40.7,15.1,41.6,17.5,42,20.1"/>
<path class="st3" d="M37.6,20.1h4C40.5,13.5,36,8,29.9,5.7l-1.4,3.6C33.1,11.1,36.6,15.2,37.6,20.1"/>
<path class="st3" d="M23.1,8.3L23.1,8.3V4.4l0,0c-7.9,0-14.7,4.9-17.4,11.9l3.6,1.4C11.5,12.2,16.8,8.3,23.1,8.3"/>
<path class="st3" d="M8.3,23L8.3,23H4.4l0,0c0,7.8,4.9,14.5,11.8,17.3l1.5-3.6C12.2,34.5,8.3,29.2,8.3,23"/>
<path class="st3" d="M23.1,37.7v3.9c9.3,0,17.1-6.8,18.5-15.8h-4C36.3,32.6,30.3,37.7,23.1,37.7"/>
<path class="st3" d="M2,32.3c-1.3-2.9-2-6.1-2-9.3h3.9c0,2.6,0.5,5.2,1.6,7.7L2,32.3z"/>
</svg>
