<?xml version="1.0" encoding="utf-8"?>
<!-- Generator: Adobe Illustrator 20.1.0, SVG Export Plug-In . SVG Version: 6.00 Build 0)  -->
<!DOCTYPE svg PUBLIC "-//W3C//DTD SVG 1.1//EN" "http://www.w3.org/Graphics/SVG/1.1/DTD/svg11.dtd">
<svg version="1.1" id="Layer_1" xmlns="http://www.w3.org/2000/svg" xmlns:xlink="http://www.w3.org/1999/xlink" x="0px" y="0px"
	 viewBox="0 0 124 45" style="enable-background:new 0 0 124 45;" xml:space="preserve">
<style type="text/css">
	.st0{fill:#FFFFFF;}
</style>
<g>
	<g>
		<path class="st0" d="M52.8,22.5L52.8,22.5c-0.1-5,3.9-9.2,8.9-9.3c0.2,0,0.3,0,0.5,0c2.7-0.1,5.2,0.9,7.1,2.8l-2.5,2.9
			c-1.2-1.2-2.9-2-4.6-2c-2.9,0.1-5.3,2.5-5.2,5.4c0,0.1,0,0.1,0,0.2l0,0c-0.2,2.9,2.1,5.5,5,5.7c0.1,0,0.1,0,0.2,0
			c1.8,0,3.5-0.8,4.7-2.1l2.5,2.5c-1.8,2.1-4.6,3.3-7.4,3.2c-5,0.1-9.2-4-9.2-9C52.8,22.7,52.8,22.6,52.8,22.5z"/>
		<path class="st0" d="M72.6,13.5h4v7.1h7.3v-7.1h4v18h-4v-7.2h-7.3v7.2h-4V13.5z"/>
		<path class="st0" d="M92.6,13.5h13.6V17h-9.6v3.6h8.5v3.5h-8.5V28h9.8v3.5H92.6V13.5z"/>
		<path class="st0" d="M110.3,13.5H124v3.6h-9.7V21h8.6v3.6h-8.6v7h-4V13.5z"/>
	</g>
	<g>
		<path class="st0" d="M15.7,29.3c1.8,1.8,4.3,2.8,6.9,2.8V28c-1.5,0-2.9-0.6-4-1.6L15.7,29.3z"/>
		<path class="st0" d="M26.1,13.5l-1.5,3.7c1.2,0.5,2.2,1.3,2.9,2.4h4.4C31,16.8,28.9,14.6,26.1,13.5z"/>
		<path class="st0" d="M12.8,22.5c0,1.4,0.3,2.7,0.9,4l3.7-1.6c-0.3-0.7-0.5-1.5-0.4-2.3c0-3.1,2.5-5.7,5.6-5.7l0,0v-4
			C17.2,12.8,12.8,17.1,12.8,22.5L12.8,22.5z"/>
		<path class="st0" d="M24.6,27.7l1.5,3.7c2.8-1.1,4.9-3.4,5.8-6.2h-4.4C26.9,26.4,25.8,27.3,24.6,27.7z"/>
		<path class="st0" d="M22.6,32.6c-5.6,0-10.1-4.6-10.1-10.2s4.5-10.1,10.1-10c4.5,0,8.5,3,9.7,7.4h3.9C34.6,12.3,27.3,7.4,19.8,9
			S7.4,17.8,9,25.3s8.9,12.4,16.4,10.8c5.4-1.1,9.7-5.4,10.8-10.8h-3.9C31.1,29.7,27.1,32.6,22.6,32.6z"/>
		<path class="st0" d="M22.6,8.1L22.6,8.1V4.3l0,0c-7.5,0-14.3,4.6-17,11.6l3.5,1.3C11.3,11.7,16.6,8.1,22.6,8.1z"/>
		<path class="st0" d="M22.6,36.9v3.8c9,0,16.6-6.5,18.1-15.4h-3.8C35.4,32.1,29.5,36.9,22.6,36.9z"/>
		<path class="st0" d="M36.8,19.7h3.8c-1-6.4-5.4-11.8-11.4-14.2L27.9,9C32.4,10.9,35.8,14.9,36.8,19.7z"/>
		<path class="st0" d="M8.1,22.5H4.3c0,7.5,4.6,14.2,11.5,17l1.4-3.5C11.7,33.7,8.1,28.4,8.1,22.5z"/>
		<path class="st0" d="M41.1,19.7h3.8c-0.4-3.2-1.5-6.3-3.2-9.1l-3.2,2C39.9,14.8,40.8,17.2,41.1,19.7z"/>
		<path class="st0" d="M0,22.5c0,3.3,0.7,6.7,2,9.7l3.7-1.6c-1.2-2.6-1.8-5.4-1.8-8.2"/>
		<path class="st0" d="M22.6,41.2c-5,0-9.7-2-13.2-5.5l-2.7,2.7c4.2,4.3,10,6.7,16,6.6c11.4,0,20.9-8.5,22.4-19.7h-3.8
			C39.7,34.4,31.8,41.2,22.6,41.2z"/>
		<path class="st0" d="M22.6,3.8c4,0,8,1.3,11.2,3.7l2.3-3.1C32.2,1.6,27.4,0,22.5,0c-9.3,0-17.6,5.7-21,14.4l3.6,1.4
			C7.9,8.6,14.8,3.8,22.6,3.8z"/>
	</g>
</g>
</svg>
