<svg xmlns="http://www.w3.org/2000/svg" width="134" height="30" viewBox="0 0 134 30">
  <g fill="#5C6670" fill-rule="evenodd" transform="translate(0 .16)">
    <path d="M56.1016887 25.409438C52.0059272 25.409438 49.1271854 22.5846058 49.0950993 18.5244015 49.0635762 14.4574526 51.9288079 11.5915912 56.0639735 11.5556204 60.0617881 11.5263942 62.9838742 14.3012044 63.0249669 18.1652555 63.0480464 20.353292 62.3838079 22.1962336 61.1037417 23.4951168 59.8816556 24.7355474 58.1698344 25.397073 56.1534768 25.409438L56.1016887 25.409438 56.1016887 25.409438zM63.1955298 10.4309708C61.1943709 8.68413869 58.4113245 7.83657664 55.5545364 8.10242336 53.4143377 8.30251095 51.4531457 9.1219708 49.9760596 10.4045547 49.6067881 10.7249197 49.0343046 10.4793066 49.0343046 9.99145255L49.0343046.967277372C49.0343046.656467153 48.7821192.404671533 48.4702649.404671533L46.0975828.404671533C45.8054305.404671533 45.5616887.627240876 45.5357947.917817518 45.5267881 1.01954745 45.5166556 1.1139708 45.5065232 1.20389781 45.4845695 1.40117518 45.4637417 1.58777372 45.4637417 1.78448905L45.4626159 3.90789051C45.4586755 8.57060584 45.455298 13.3929416 45.4704967 18.1354672 45.4727483 18.9796569 45.500894 19.8800511 45.6877815 20.7433504 46.8068543 25.923146 50.6296026 28.874438 56.197947 28.8738759 56.2913907 28.8738759 56.3865232 28.8727518 56.4810927 28.8710657 60.945 28.7918175 64.6151987 26.3042117 66.0596358 22.3766496 67.6566225 18.0342993 66.5324834 13.3451679 63.1955298 10.4309708L63.1955298 10.4309708zM39.1838742 18.3979416C39.1985099 20.3735255 38.5123179 22.1625109 37.2519536 23.4355401 35.9955298 24.7035109 34.2206623 25.4066277 32.2532781 25.4144964L32.2155629 25.4144964C28.1333113 25.4144964 25.2725828 22.6245109 25.2534437 18.6182628 25.2331788 14.4124891 28.0224172 11.5730438 32.1936093 11.5516861L32.234702 11.5516861C36.2353311 11.5516861 39.1557285 14.424854 39.1838742 18.3979416M40.5962252 11.832708C37.4973841 8.02205109 31.6532119 6.9120146 27.0024172 9.25067883 22.7518543 11.3886934 20.6274172 16.2891533 21.8371192 21.1688175 22.7968874 25.0390511 25.2765232 27.5822993 29.0086424 28.5242847 30.0821192 28.7951898 31.1066225 28.9306423 32.0804636 28.9306423 34.6912583 28.9300803 36.9372848 27.9588686 38.7819536 26.025438 39.0065563 25.7893796 39.2058278 25.5420803 39.4028477 25.2751095L39.4028477 27.7992482C39.4028477 28.1100584 39.6550331 28.361854 39.9663245 28.361854L42.1515563 28.361854C42.4628477 28.361854 42.7150331 28.1100584 42.7150331 27.7992482L42.7150331 27.7986861C42.7150331 26.7133796 42.7229139 25.6353796 42.7307947 24.5618759 42.7488079 22.0163796 42.7673841 19.3832044 42.6756291 16.8067956 42.6153974 15.1285328 41.9156954 13.4542044 40.5962252 11.832708M111.717583 18.3979416C111.732219 20.3735255 111.046589 22.1625109 109.785662 23.4355401 108.529238 24.7035109 106.754371 25.4066277 104.786987 25.4144964L104.749834 25.4144964C100.667583 25.4144964 97.8068543 22.6245109 97.7877152 18.6182628 97.7674503 14.4124891 100.556689 11.5730438 104.727881 11.5516861L104.768974 11.5516861C108.76904 11.5516861 111.69 14.424854 111.717583 18.3979416M113.129934 11.832708C110.031093 8.02205109 104.186921 6.9120146 99.5366887 9.25067883 95.2855629 11.3886934 93.1616887 16.2891533 94.3713907 21.1688175 95.330596 25.0390511 97.8102318 27.5822993 101.542351 28.5242847 102.615828 28.7951898 103.640894 28.9306423 104.614172 28.9306423 107.22553 28.9300803 109.470993 27.9588686 111.315662 26.025438 111.540265 25.7893796 111.739536 25.5420803 111.936556 25.2751095L111.936556 27.7992482C111.936556 28.1100584 112.188742 28.361854 112.500033 28.361854L114.685828 28.361854C114.997119 28.361854 115.249305 28.1100584 115.249305 27.7992482L115.249305 27.7986861C115.249305 26.7133796 115.257185 25.6353796 115.264503 24.5618759 115.282517 22.0163796 115.301093 19.3832044 115.209338 16.8067956 115.149106 15.1285328 114.449967 13.4542044 113.129934 11.832708M11.9810596 8.21708029C8.93907285 7.71967153 6.43635762 8.30925547 4.51682119 9.97178102 4.1486755 10.2898978 3.57900662 10.0375401 3.57900662 9.55137226L3.57900662.959970803C3.57900662.64859854 3.32625828.39680292 3.01496689.39680292L.564039735.39680292C.25218543.397364964 0 .64859854 0 .959970803L0 27.8177956C0 28.1291679.25218543 28.3809635.564039735 28.3809635L3.04930464 28.3809635C3.36059603 28.3809635 3.61334437 28.1314161 3.61334437 27.8200438 3.61390728 26.847146 3.61559603 24.8648175 3.61615894 23.9942117 3.61784768 21.9736642 3.61897351 19.9531168 3.6307947 17.9331314 3.64205298 15.8501971 4.2702649 14.1691241 5.44675497 13.0714526 6.62943709 11.9681606 8.36096026 11.4544526 10.4668212 11.5842847 13.6061921 11.7793139 15.6580132 13.7582701 15.8206954 16.7483431 15.9445364 19.0083212 15.9518543 21.3216934 15.9591722 23.5575036 15.9625497 24.5483869 15.9659272 25.538708 15.9788742 26.5284672 15.9822517 26.8111752 15.9811258 27.0944453 15.98 27.3822117L15.98 27.7925036C15.9794371 28.104438 16.2321854 28.3562336 16.5434768 28.3562336L19.0174834 28.3562336C19.3287748 28.3562336 19.5815232 28.105 19.5815232 27.7930657 19.5815232 26.6875255 19.5854636 25.5881679 19.589404 24.4927445 19.5984106 22.0911314 19.6079801 19.6068978 19.5708278 17.1726861 19.4965232 12.3301168 16.6594371 8.9820219 11.9810596 8.21708029M91.7966225 20.0093212L89.0411589 20.0093212C88.7478808 20.0093212 88.5030132 20.2341387 88.4793709 20.5269635L88.4467219 20.9288248C88.4225166 21.2160292 88.4005629 21.4858102 88.3814238 21.7555912 88.2260596 23.9604891 86.8863245 25.2470073 84.6099007 25.3774015 83.0326159 25.4673285 80.3548344 25.191365 80.1257285 22.3243796 79.932649 19.8941022 79.9281457 17.3952555 79.9230795 14.9801533 79.9213907 14.1719343 79.919702 13.3637153 79.9112583 12.563365 79.9078808 12.2497445 80.1600662 11.9968248 80.4736093 11.9968248L87.5674503 11.9968248C88.0881457 11.9968248 88.3301987 11.3521606 87.9378477 11.0098759L85.2341722 8.65154015C85.1311589 8.56161314 84.9994371 8.51215328 84.8632119 8.51215328L80.4015563 8.51215328C80.0902649 8.51215328 79.8375166 8.26035766 79.8375166 7.94954745L79.8375166 4.20071533C79.8375166 3.88990511 79.5853311 3.63754745 79.2740397 3.63754745L76.9295033 3.63754745C76.6182119 3.63754745 76.3660265 3.88934307 76.3654636 4.20015328L76.3643377 5.32592701C76.3637748 5.43271533 76.3108609 16.0525328 76.4054305 22.6205766 76.427947 24.203292 77.2120861 25.7612774 78.6131788 27.0078905 80.3356954 28.5405839 82.345298 28.8957956 84.1252318 28.8957956 84.5924503 28.8957956 85.0439073 28.8710657 85.470596 28.8373431 87.5207285 28.6732263 89.4154967 27.6036569 90.6696689 25.9029124 91.8641722 24.2842263 92.3105629 22.2962774 91.8956954 20.4494015L91.7966225 20.0093212 91.7966225 20.0093212zM133.023874 20.5112263L132.956325 20.0250584 130.101788 20.0250584C129.806258 20.0250584 129.560828 20.2532482 129.539437 20.5477591L129.507914 20.9833431C129.490464 21.2340146 129.473013 21.4655766 129.457815 21.6977007 129.310894 23.9301387 127.991424 25.2346423 125.740894 25.3723431 124.139404 25.4701387 121.418841 25.1997956 121.194238 22.2771679 121.003974 19.7946204 121.011854 17.2435036 121.019172 14.7761314 121.020861 14.0280511 121.023113 13.2805328 121.020298 12.5324526 121.019172 12.2205182 121.270232 11.9675985 121.582649 11.9675985L128.536887 11.9675985C129.071656 11.9675985 129.305828 11.2925839 128.885331 10.9621022L125.927781 8.63748905C125.828709 8.55880292 125.70543 8.51664964 125.579338 8.51664964L121.515662 8.51664964C121.203808 8.51664964 120.951623 8.26485401 120.951623 7.9540438L120.951623 4.34516058C120.951623 4.03435036 120.699437 3.78255474 120.388146 3.78255474L117.93947 3.78255474C117.628742 3.78255474 117.375993 4.03378832 117.375993 4.34459854L117.374868 5.49060584C117.374305 5.59514599 117.325894 16.0637737 117.475629 22.5643723 117.542053 25.4341679 119.710397 27.9110949 122.747318 28.5855474 123.553974 28.7642774 124.469272 28.8525182 125.534305 28.8525182 125.691358 28.8525182 125.851225 28.8508321 126.015033 28.8474599 128.161987 28.797438 130.075331 27.9144672 131.399868 26.3587299 132.750861 24.7765766 133.326722 22.6992628 133.023874 20.5112263M69.9696358 28.336L72.3513245 28.336C72.6626159 28.336 72.9153642 28.0847664 72.9153642 27.7733942L72.9153642 9.14838686C72.9153642 8.84151095 72.6693709 8.59140146 72.3620199 8.58521898L69.9803311 8.54137956C69.6645364 8.53519708 69.4061589 8.78867883 69.4061589 9.1039854L69.4061589 27.7733942C69.4061589 28.0847664 69.6583444 28.336 69.9696358 28.336M69.9696358 6.17067883L72.3513245 6.17067883C72.6626159 6.17067883 72.9153642 5.91832117 72.9153642 5.60751095L72.9153642 3.22950365C72.9153642 2.91869343 72.6626159 2.66689781 72.3513245 2.66689781L69.9696358 2.66689781C69.6583444 2.66689781 69.4061589 2.91869343 69.4061589 3.22950365L69.4061589 5.60751095C69.4061589 5.91832117 69.6583444 6.17067883 69.9696358 6.17067883"/>
  </g>
</svg>
