<svg id="Layer_1" data-name="Layer 1" xmlns="http://www.w3.org/2000/svg" viewBox="0 0 114.66 41.59"><title>sub-hero-logo</title><g id="Layer_2" data-name="Layer 2"><g id="Layer_1-2" data-name="Layer 1-2"><path d="M18.79,27.57A4.77,4.77,0,1,1,14,22.8h0a4.78,4.78,0,0,1,4.74,4.8Z" style="fill:#4297b6"/><path d="M28.09,27.62A14.07,14.07,0,0,1,5.44,38.67l4.06-4A8.44,8.44,0,1,0,6.89,32L2.83,36a14.07,14.07,0,1,1,25.32-8.42Z" style="fill:#4297b6"/><polygon points="33.37 35.3 33.37 19.2 36.59 19.2 36.59 35.3 33.37 35.3 33.37 35.3" style="fill:#606669"/><polygon points="53.2 35.33 44.14 25.92 44.14 35.33 40.93 35.33 40.93 19.2 41.93 19.2 50.83 28.22 50.83 19.2 54.05 19.2 54.05 35.33 53.2 35.33 53.2 35.33" style="fill:#606669"/><path d="M63,28.5a7.71,7.71,0,0,1-2.46-1,4.42,4.42,0,0,1-2.07-3.63,4.31,4.31,0,0,1,1.17-3.29A5.59,5.59,0,0,1,63.42,19a8,8,0,0,1,4.83,1.61l.53.35L67.1,23.65l-.57-.37a5,5,0,0,0-3.1-1.11,2.46,2.46,0,0,0-1.43.6,1.13,1.13,0,0,0-.27.92c0,.83.6,1.29,2.07,1.65.19,0,.32.09.46.14a8.52,8.52,0,0,1,3.56,2.14A4.66,4.66,0,0,1,69.1,30.8a5,5,0,0,1-5,4.85,9.54,9.54,0,0,1-2.83-.39,8.91,8.91,0,0,1-3.83-2.46l2.35-2.21a5.57,5.57,0,0,0,4.32,1.82A1.77,1.77,0,0,0,65.9,30.8c0-.87-1-1.68-2.66-2.25h-.18Z" style="fill:#606669"/><path d="M78.34,25.67A1.61,1.61,0,0,0,80,24.05a1.63,1.63,0,0,0-1.61-1.63h-2v3.24Zm0-6.46a4.84,4.84,0,0,1,0,9.68h-2v6.44H73.12V19.2Z" style="fill:#606669"/><path d="M86.55,32.13H97.21v3.2H86.55Zm0-6.66h8.9v3.22h-8.9V25.47Zm10.74-3H86.55V19.2H97.29v3.27Z" style="fill:#606669"/><path d="M112.44,23.12a5.06,5.06,0,0,0-7.84,4.18,5,5,0,0,0,8,4l2.07,2.37a8.34,8.34,0,1,1-.19-13l-2.07,2.39Z" style="fill:#606669"/></g></g></svg>
