<?xml version="1.0" encoding="utf-8"?>
<!-- Generator: Adobe Illustrator 19.1.0, SVG Export Plug-In . SVG Version: 6.00 Build 0)  -->
<svg version="1.1" id="Layer_1" xmlns="http://www.w3.org/2000/svg" xmlns:xlink="http://www.w3.org/1999/xlink" x="0px" y="0px"
	 viewBox="500 150 1611 494" style="enable-background:new 500 150 1611 494;" xml:space="preserve">
<style type="text/css">
	.st0{filter:url(#filter-2);}
	.st1{fill:url(#path-4_2_);}
	.st2{filter:url(#Adobe_OpacityMaskFilter);}
	.st3{fill:#FFFFFF;}
	.st4{opacity:0.25;mask:url(#mask-5);fill:#87B09A;fill-opacity:0.85;enable-background:new    ;}
	.st5{fill:url(#Rectangle-22_1_);}
	.st6{fill:#87B09A;}
	.st7{enable-background:new    ;}
</style>
<filter  width="200%" height="200%" x="-50%" id="filter-2" y="-50%" filterUnits="objectBoundingBox">
	<feOffset  result="shadowOffsetOuter1" in="SourceAlpha" dy="2" dx="2"></feOffset>
	<feGaussianBlur  result="shadowBlurOuter1" in="shadowOffsetOuter1" stdDeviation="17"></feGaussianBlur>
	
		<feColorMatrix  type="matrix" in="shadowBlurOuter1" values="0 0 0 0 0.360784314   0 0 0 0 0.4   0 0 0 0 0.439215686  0 0 0 0.32 0">
		</feColorMatrix>
</filter>
<title>graphic-arrow-bg@3x</title>
<desc>Created with Sketch.</desc>
<g id="Symbols">
	<g id="graphic-arrow-bg_1_">
		<g id="Arrow" transform="translate(55.000000, 60.000000)">
			<g id="graphic-arrow-bg">
				<g id="Mosaic">
					<g id="Mask-Copy-2" transform="translate(780.139502, 187.000000) scale(-1, 1) translate(-780.139502, -187.000000) ">
						<g class="st0">
							<path id="path-1_1_" d="M995.3,257.3H-198.3c-13.9,0-25.2-11.3-25.2-25.3v-56.8c0-22.5-27.1-33.8-43-17.9l-161.2,161.7
								c-9.8,9.9-9.8,25.8,0,35.7l161.2,161.7c15.8,15.9,43,4.7,43-17.8v-56.8c0-13.9,11.2-25.2,25.2-25.2H995.3V257.3z"/>
						</g>
					</g>
					
						<g id="Combined-Shape" transform="translate(750.500000, 187.000000) scale(-1, 1) translate(-750.500000, -187.000000) translate(5.000000, 0.000000)">
						<g id="Mask-Copy">
							
								<linearGradient id="path-4_2_" gradientUnits="userSpaceOnUse" x1="550.4796" y1="733.1158" x2="551.3018" y2="733.2747" gradientTransform="matrix(-1490.2791 0 0 -374 820144.5 274518)">
								<stop  offset="0" style="stop-color:#739382"/>
								<stop  offset="0.6133" style="stop-color:#87B09A"/>
								<stop  offset="0.9939" style="stop-color:#FFFFFF"/>
							</linearGradient>
							<path id="path-4_1_" class="st1" d="M991,257.3H-262.6c-13.9,0-25.2-11.3-25.2-25.3v-56.8c0-22.5-27.1-33.8-43-17.9
								l-161.2,161.7c-9.8,9.9-9.8,25.8,0,35.7l161.2,161.7c15.8,15.9,43,4.7,43-17.8v-56.8c0-13.9,11.2-25.2,25.2-25.2H991V257.3z"
								/>
						</g>
						<defs>
							<filter id="Adobe_OpacityMaskFilter" filterUnits="userSpaceOnUse">
								<feColorMatrix  type="matrix" values="1 0 0 0 0  0 1 0 0 0  0 0 1 0 0  0 0 0 1 0"/>
							</filter>
						</defs>
						<mask maskUnits="userSpaceOnUse" id="mask-5">
							<g class="st2">
								<path id="path-4" class="st3" d="M991,257.3H-262.6c-13.9,0-25.2-11.3-25.2-25.3v-56.8c0-22.5-27.1-33.8-43-17.9
									l-161.2,161.7c-9.8,9.9-9.8,25.8,0,35.7l161.2,161.7c15.8,15.9,43,4.7,43-17.8v-56.8c0-13.9,11.2-25.2,25.2-25.2H991V257.3z
									"/>
							</g>
						</mask>
						<path class="st4" d="M-174.7,351.6l52.9,52.9c6.5,6.5,6.5,17,0,23.4l-52.9,52.9c-6.5,6.5-17,6.5-23.4,0l-52.9-52.9
							c-6.5-6.5-6.5-17,0-23.4l52.9-52.9C-191.7,345.1-181.2,345.1-174.7,351.6z M-89.6,438.3l52.9,52.9c6.5,6.5,6.5,17,0,23.4
							l-52.9,52.9c-6.5,6.5-17,6.5-23.4,0l-52.9-52.9c-6.5-6.5-6.5-17,0-23.4l52.9-52.9C-106.6,431.9-96.1,431.9-89.6,438.3z
							 M-3.2,524l52.9,52.9c6.5,6.5,6.5,17,0,23.4l-52.9,52.9c-6.5,6.5-17,6.5-23.4,0l-52.9-52.9c-6.5-6.5-6.5-17,0-23.4l52.9-52.9
							C-20.1,517.5-9.7,517.5-3.2,524z M-89.6,266.1l52.9,52.9c6.5,6.5,6.5,17,0,23.4l-52.9,52.9c-6.5,6.5-17,6.5-23.4,0l-52.9-52.9
							c-6.5-6.5-6.5-17,0-23.4l52.9-52.9C-106.6,259.6-96.1,259.6-89.6,266.1z M-3.3,352.4l52.9,52.9c6.5,6.5,6.5,17,0,23.4
							l-52.9,52.9c-6.5,6.5-17,6.5-23.4,0l-52.9-52.9c-6.5-6.5-6.5-17,0-23.4l52.9-52.9C-20.3,345.9-9.8,345.9-3.3,352.4z
							 M83.4,438.3l52.9,52.9c6.5,6.5,6.5,17,0,23.4l-52.9,52.9c-6.5,6.5-17,6.5-23.4,0L7.1,514.6c-6.5-6.5-6.5-17,0-23.4L60,438.3
							C66.5,431.9,77,431.9,83.4,438.3z M-3.2,181l52.9,52.9c6.5,6.5,6.5,17,0,23.4l-52.9,52.9c-6.5,6.5-17,6.5-23.4,0l-52.9-52.9
							c-6.5-6.5-6.5-17,0-23.4l52.9-52.9C-20.1,174.6-9.7,174.6-3.2,181z M83.4,266.1l52.9,52.9c6.5,6.5,6.5,17,0,23.4l-52.9,52.9
							c-6.5,6.5-17,6.5-23.4,0L7.1,342.4c-6.5-6.5-6.5-17,0-23.4L60,266.1C66.5,259.6,77,259.6,83.4,266.1z M168.2,351.6l52.9,52.9
							c6.5,6.5,6.5,17,0,23.4l-52.9,52.9c-6.5,6.5-17,6.5-23.4,0l-52.9-52.9c-6.5-6.5-6.5-17,0-23.4l52.9-52.9
							C151.2,345.1,161.7,345.1,168.2,351.6z"/>
					</g>
					
						<linearGradient id="Rectangle-22_1_" gradientUnits="userSpaceOnUse" x1="943.2429" y1="732.908" x2="944.1685" y2="732.908" gradientTransform="matrix(273 0 0 -250 -256985 183557)">
						<stop  offset="0" style="stop-color:#FFFFFF"/>
						<stop  offset="1" style="stop-color:#FFFFFF;stop-opacity:0"/>
					</linearGradient>
					<rect id="Rectangle-22" x="500" y="205" class="st5" width="273" height="250"/>
				</g>
				<g id="Mark" transform="translate(1327.000000, 151.000000)">
					<path id="Shape" class="st6" d="M530.1,218.6l-27.1-27c-3.3-3.3-3.3-8.7,0-12l27.1-27c3.3-3.3,8.7-3.3,12,0l27.1,27
						c3.3,3.3,3.3,8.7,0,12l-27.1,27C538.8,221.9,533.4,221.9,530.1,218.6"/>
					<path id="Shape_1_" class="st3" d="M556.8,185l-5-5c-0.5-0.5-1.3-0.1-1.3,0.5v1.7c0,0.4-0.3,0.8-0.8,0.8H547
						c-0.4,0-0.8-0.3-0.8-0.8v-3.5c0-0.4,0.3-0.8,0.8-0.8h0.9c0.7,0,1-0.8,0.5-1.3l-5-5c-0.3-0.3-0.8-0.3-1.1,0l-5,5
						c-0.5,0.5-0.1,1.3,0.5,1.3h1.1c0.4,0,0.8,0.3,0.8,0.8v3.5c0,0.4-0.3,0.8-0.8,0.8h-6c-0.4,0-0.8-0.3-0.8-0.8v-3.5
						c0-0.4,0.3-0.8,0.8-0.8h1.1c0.7,0,1-0.8,0.5-1.3l-5-5c-0.3-0.3-0.8-0.3-1.1,0l-5,5c-0.5,0.5-0.1,1.3,0.5,1.3h0.9
						c0.4,0,0.8,0.3,0.8,0.8v3.5c0,0.4-0.3,0.8-0.8,0.8h-2.7c-0.4,0-0.8-0.3-0.8-0.8v-1.7c0-0.7-0.8-1-1.3-0.5l-5,5
						c-0.3,0.3-0.3,0.8,0,1.1l5,5c0.5,0.5,1.3,0.1,1.3-0.5v-1.7c0-0.4,0.3-0.8,0.8-0.8h2.7c0.4,0,0.8,0.3,0.8,0.8v3.5
						c0,0.4-0.3,0.8-0.8,0.8h-0.9c-0.7,0-1,0.8-0.5,1.3l5,5c0.3,0.3,0.8,0.3,1.1,0l5-5c0.5-0.5,0.1-1.3-0.5-1.3h-1.1
						c-0.4,0-0.8-0.3-0.8-0.8v-3.5c0-0.4,0.3-0.8,0.8-0.8h6c0.4,0,0.8,0.3,0.8,0.8v3.5c0,0.4-0.3,0.8-0.8,0.8H538
						c-0.7,0-1,0.8-0.5,1.3l5,5c0.3,0.3,0.8,0.3,1.1,0l5-5c0.5-0.5,0.1-1.3-0.5-1.3H547c-0.4,0-0.8-0.3-0.8-0.8v-3.5
						c0-0.4,0.3-0.8,0.8-0.8h2.7c0.4,0,0.8,0.3,0.8,0.8v1.7c0,0.7,0.8,1,1.3,0.5l5-5C557.1,185.8,557.1,185.3,556.8,185"/>
				</g>
			</g>
			<g class="st7">
				<path class="st3" d="M1528.6,331v-9.8h1.7v4.2h4.9v-4.2h1.7v9.8h-1.7v-4h-4.9v4H1528.6z"/>
				<path class="st3" d="M1540.6,330c-0.7-0.7-1-1.6-1-2.8s0.4-2.1,1.1-2.8c0.7-0.7,1.6-1,2.5-1c1,0,1.8,0.5,2.4,1.4v-1.3h1.6v7.4
					h-1.6v-1.2c-0.3,0.4-0.7,0.8-1.1,1c-0.5,0.2-0.9,0.3-1.4,0.3C1542.1,331.1,1541.3,330.8,1540.6,330z M1541.1,327.3
					c0,0.7,0.2,1.3,0.7,1.7c0.5,0.4,1,0.7,1.6,0.7s1.1-0.2,1.6-0.7c0.4-0.5,0.6-1,0.6-1.7c0-0.7-0.2-1.3-0.6-1.8
					c-0.4-0.5-1-0.7-1.6-0.7s-1.2,0.2-1.6,0.7C1541.4,326,1541.1,326.6,1541.1,327.3z"/>
				<path class="st3" d="M1554.2,323.4c1,0,1.9,0.3,2.6,1c0.7,0.7,1.1,1.6,1.1,2.8c0,1.1-0.4,2.1-1.1,2.8c-0.7,0.7-1.5,1.1-2.5,1.1
					c-0.9,0-1.8-0.4-2.5-1.2v1.1h-1.6v-10.4h1.6v4.2C1552.4,323.9,1553.2,323.4,1554.2,323.4z M1551.7,327.3c0,0.7,0.2,1.3,0.6,1.7
					c0.4,0.5,1,0.7,1.6,0.7c0.6,0,1.2-0.2,1.6-0.7s0.7-1,0.7-1.7s-0.2-1.3-0.7-1.8c-0.4-0.5-1-0.7-1.6-0.7c-0.6,0-1.2,0.2-1.6,0.7
					C1551.9,326,1551.7,326.6,1551.7,327.3z"/>
				<path class="st3" d="M1560.4,322.1c-0.2-0.2-0.3-0.4-0.3-0.7s0.1-0.5,0.3-0.7c0.2-0.2,0.4-0.3,0.7-0.3s0.5,0.1,0.7,0.3
					s0.3,0.4,0.3,0.7s-0.1,0.5-0.3,0.7c-0.2,0.2-0.4,0.3-0.7,0.3S1560.6,322.3,1560.4,322.1z M1561.9,331h-1.6v-7.4h1.6V331z"/>
				<path class="st3" d="M1566.4,324.8v3.8c0,0.4,0.1,0.6,0.3,0.8c0.2,0.2,0.4,0.3,0.8,0.3s0.7-0.2,1-0.5l0.6,1.1
					c-0.6,0.5-1.2,0.7-1.8,0.7c-0.7,0-1.2-0.2-1.7-0.7c-0.5-0.5-0.7-1.1-0.7-1.9v-7.3h1.6v2.3h2v1.3H1566.4z"/>
				<path class="st3" d="M1571.6,330c-0.7-0.7-1-1.6-1-2.8s0.4-2.1,1.1-2.8c0.7-0.7,1.6-1,2.5-1c1,0,1.8,0.5,2.4,1.4v-1.3h1.6v7.4
					h-1.6v-1.2c-0.3,0.4-0.7,0.8-1.1,1c-0.5,0.2-0.9,0.3-1.4,0.3C1573.2,331.1,1572.3,330.8,1571.6,330z M1572.2,327.3
					c0,0.7,0.2,1.3,0.7,1.7c0.5,0.4,1,0.7,1.6,0.7s1.1-0.2,1.6-0.7c0.4-0.5,0.6-1,0.6-1.7c0-0.7-0.2-1.3-0.6-1.8
					c-0.4-0.5-1-0.7-1.6-0.7c-0.6,0-1.2,0.2-1.6,0.7C1572.4,326,1572.2,326.6,1572.2,327.3z"/>
				<path class="st3" d="M1582.7,324.8v3.8c0,0.4,0.1,0.6,0.3,0.8c0.2,0.2,0.4,0.3,0.8,0.3c0.3,0,0.7-0.2,1-0.5l0.6,1.1
					c-0.6,0.5-1.2,0.7-1.8,0.7s-1.2-0.2-1.7-0.7c-0.5-0.5-0.7-1.1-0.7-1.9v-7.3h1.6v2.3h2v1.3H1582.7z"/>
				<path class="st3" d="M1596,323.4c1,0,1.9,0.3,2.6,1c0.7,0.7,1.1,1.6,1.1,2.8c0,1.1-0.4,2.1-1.1,2.8c-0.7,0.7-1.5,1.1-2.5,1.1
					c-0.9,0-1.8-0.4-2.5-1.2v3.8h-1.6v-10.2h1.6v1.3C1594.1,323.9,1595,323.4,1596,323.4z M1593.5,327.3c0,0.7,0.2,1.3,0.6,1.7
					c0.4,0.5,1,0.7,1.6,0.7c0.6,0,1.2-0.2,1.6-0.7s0.7-1,0.7-1.7s-0.2-1.3-0.7-1.8c-0.4-0.5-1-0.7-1.6-0.7c-0.6,0-1.2,0.2-1.6,0.7
					C1593.7,326,1593.5,326.6,1593.5,327.3z"/>
				<path class="st3" d="M1605.8,330.5c-0.4,0.4-0.9,0.6-1.6,0.6s-1.2-0.2-1.6-0.6s-0.6-1-0.6-1.8v-7.5h1.6v7.3
					c0,0.7,0.3,1.1,0.8,1.1c0.3,0,0.6-0.1,0.7-0.3L1605.8,330.5z"/>
				<path class="st3" d="M1608.2,330c-0.7-0.7-1-1.6-1-2.8s0.4-2.1,1.1-2.8c0.7-0.7,1.6-1,2.5-1c1,0,1.8,0.5,2.4,1.4v-1.3h1.6v7.4
					h-1.6v-1.2c-0.3,0.4-0.7,0.8-1.1,1c-0.5,0.2-0.9,0.3-1.4,0.3C1609.8,331.1,1608.9,330.8,1608.2,330z M1608.8,327.3
					c0,0.7,0.2,1.3,0.7,1.7c0.5,0.4,1,0.7,1.6,0.7s1.1-0.2,1.6-0.7c0.4-0.5,0.6-1,0.6-1.7c0-0.7-0.2-1.3-0.6-1.8
					c-0.4-0.5-1-0.7-1.6-0.7s-1.2,0.2-1.6,0.7C1609,326,1608.8,326.6,1608.8,327.3z"/>
				<path class="st3" d="M1620.9,332.5c1.4,0,2.1-0.9,2.1-2.6v-0.5c-0.6,0.6-1.4,1-2.4,1c-1.9,0-2.9-1.1-2.9-3.2v-3.7h1.6v3
					c0,0.9,0.1,1.5,0.4,1.8c0.3,0.4,0.7,0.5,1.4,0.5c0.6,0,1.1-0.2,1.4-0.5c0.3-0.3,0.5-0.8,0.5-1.5v-3.4h1.6v6.4c0,1.3-0.3,2.3-1,3
					c-0.7,0.7-1.6,1-2.6,1c-0.8,0-1.5-0.2-2.2-0.6c-0.6-0.4-1.1-1-1.4-1.7l1.4-0.6C1619.2,332.1,1619.9,332.5,1620.9,332.5z"/>
				<path class="st3" d="M1632.9,328.8c0,0.7-0.3,1.3-0.8,1.7c-0.5,0.4-1.2,0.6-2,0.6c-0.5,0-1.1-0.1-1.7-0.3
					c-0.6-0.2-1.1-0.5-1.5-0.8l0.8-1.2c0.9,0.7,1.7,1,2.5,1c0.4,0,0.6-0.1,0.8-0.2c0.2-0.2,0.3-0.4,0.3-0.6c0-0.4-0.5-0.7-1.5-1
					c-0.1,0-0.1,0-0.2-0.1c-1.5-0.4-2.3-1.1-2.3-2.1c0-0.7,0.3-1.2,0.8-1.7c0.5-0.4,1.2-0.6,2.1-0.6s1.7,0.3,2.4,0.8l-0.6,1.2
					c-0.6-0.4-1.3-0.6-2-0.6c-0.4,0-0.7,0.1-0.9,0.2c-0.2,0.1-0.3,0.3-0.3,0.6c0,0.2,0.1,0.4,0.4,0.5c0.2,0.1,0.4,0.2,0.7,0.2
					c0.3,0.1,0.6,0.1,0.8,0.2c0.2,0.1,0.5,0.2,0.7,0.3c0.2,0.1,0.5,0.2,0.7,0.4C1632.6,327.5,1632.9,328.1,1632.9,328.8z"/>
				<path class="st3" d="M1643.5,331h-1.8l-2.6-7.4h1.6l1.8,5.6l1.8-5.6h1.6l1.8,5.6l1.8-5.6h1.6l-2.6,7.4h-1.8l-1.8-5.1L1643.5,331
					z"/>
				<path class="st3" d="M1656.9,323.4c1,0,1.9,0.3,2.5,0.8c0.7,0.6,1,1.3,1,2.2l0,0l-5.4,2.3c0.5,0.6,1.1,0.9,2,0.9
					c0.8,0,1.5-0.3,2.1-1l0.9,1c-0.9,0.9-1.9,1.4-3.1,1.4c-1.1,0-2-0.4-2.7-1.1c-0.8-0.7-1.1-1.6-1.1-2.8c0-0.8,0.2-1.5,0.6-2.1
					c0.4-0.6,0.9-1,1.5-1.3C1655.6,323.6,1656.2,323.4,1656.9,323.4z M1654.5,327.3c0,0.1,0,0.2,0,0.3l4.1-1.8
					c-0.3-0.6-0.9-0.9-1.7-0.9c-0.6,0-1.2,0.2-1.7,0.6C1654.8,326,1654.5,326.6,1654.5,327.3z"/>
				<path class="st3" d="M1666.5,330.5c-0.4,0.4-0.9,0.6-1.6,0.6s-1.2-0.2-1.6-0.6s-0.6-1-0.6-1.8v-7.5h1.6v7.3
					c0,0.7,0.3,1.1,0.8,1.1c0.3,0,0.6-0.1,0.7-0.3L1666.5,330.5z"/>
				<path class="st3" d="M1672.1,330.5c-0.4,0.4-0.9,0.6-1.6,0.6s-1.2-0.2-1.6-0.6c-0.4-0.4-0.6-1-0.6-1.8v-7.5h1.6v7.3
					c0,0.7,0.3,1.1,0.8,1.1c0.3,0,0.6-0.1,0.7-0.3L1672.1,330.5z"/>
				<path class="st3" d="M1682,331h-1.8l-2.6-7.4h1.6l1.8,5.6l1.8-5.6h1.6l1.8,5.6l1.8-5.6h1.6l-2.6,7.4h-1.8l-1.8-5.1L1682,331z"/>
				<path class="st3" d="M1692.1,322.1c-0.2-0.2-0.3-0.4-0.3-0.7s0.1-0.5,0.3-0.7s0.4-0.3,0.7-0.3c0.3,0,0.5,0.1,0.7,0.3
					c0.2,0.2,0.3,0.4,0.3,0.7s-0.1,0.5-0.3,0.7c-0.2,0.2-0.4,0.3-0.7,0.3C1692.5,322.4,1692.3,322.3,1692.1,322.1z M1693.6,331h-1.6
					v-7.4h1.6V331z"/>
				<path class="st3" d="M1698.1,324.8v3.8c0,0.4,0.1,0.6,0.3,0.8c0.2,0.2,0.4,0.3,0.8,0.3c0.3,0,0.7-0.2,1-0.5l0.6,1.1
					c-0.6,0.5-1.2,0.7-1.8,0.7s-1.2-0.2-1.7-0.7c-0.5-0.5-0.7-1.1-0.7-1.9v-7.3h1.6v2.3h2v1.3H1698.1z"/>
				<path class="st3" d="M1704.3,327v4h-1.6v-10.4h1.6v4.3c0.2-0.5,0.6-0.8,1-1.1c0.5-0.3,0.9-0.4,1.5-0.4c0.8,0,1.5,0.3,2,0.8
					c0.5,0.5,0.8,1.3,0.8,2.2v4.6h-1.6v-4.1c0-1.4-0.6-2.1-1.7-2.1c-0.5,0-1,0.2-1.4,0.5C1704.5,325.8,1704.3,326.3,1704.3,327z"/>
				<path class="st3" d="M1717.7,330c-0.7-0.7-1-1.6-1-2.8s0.4-2.1,1.1-2.8c0.7-0.7,1.6-1,2.5-1c1,0,1.8,0.5,2.4,1.4v-1.3h1.6v7.4
					h-1.6v-1.2c-0.3,0.4-0.7,0.8-1.1,1c-0.5,0.2-0.9,0.3-1.4,0.3C1719.2,331.1,1718.4,330.8,1717.7,330z M1718.2,327.3
					c0,0.7,0.2,1.3,0.7,1.7c0.5,0.4,1,0.7,1.6,0.7s1.1-0.2,1.6-0.7c0.4-0.5,0.6-1,0.6-1.7c0-0.7-0.2-1.3-0.6-1.8
					c-0.4-0.5-1-0.7-1.6-0.7c-0.6,0-1.2,0.2-1.6,0.7C1718.4,326,1718.2,326.6,1718.2,327.3z"/>
				<path class="st3" d="M1733.8,331l-3-7.4h1.6l2.3,5.6l2.3-5.6h1.6l-3,7.4H1733.8z"/>
				<path class="st3" d="M1741.2,330c-0.7-0.7-1-1.6-1-2.8s0.4-2.1,1.1-2.8c0.7-0.7,1.6-1,2.5-1c1,0,1.8,0.5,2.4,1.4v-1.3h1.6v7.4
					h-1.6v-1.2c-0.3,0.4-0.7,0.8-1.1,1c-0.5,0.2-0.9,0.3-1.4,0.3C1742.7,331.1,1741.9,330.8,1741.2,330z M1741.7,327.3
					c0,0.7,0.2,1.3,0.7,1.7c0.5,0.4,1,0.7,1.6,0.7s1.1-0.2,1.6-0.7c0.4-0.5,0.6-1,0.6-1.7c0-0.7-0.2-1.3-0.6-1.8
					c-0.4-0.5-1-0.7-1.6-0.7c-0.6,0-1.2,0.2-1.6,0.7C1741.9,326,1741.7,326.6,1741.7,327.3z"/>
				<path class="st3" d="M1754.7,325c-0.8,0-1.4,0.3-1.8,0.8c-0.4,0.5-0.6,1.2-0.6,2v3.2h-1.6v-7.4h1.6v1.5c0.3-0.5,0.6-0.8,1-1.1
					c0.4-0.3,0.9-0.5,1.4-0.5L1754.7,325C1754.7,325,1754.7,325,1754.7,325z"/>
				<path class="st3" d="M1757.1,322.1c-0.2-0.2-0.3-0.4-0.3-0.7s0.1-0.5,0.3-0.7c0.2-0.2,0.4-0.3,0.7-0.3s0.5,0.1,0.7,0.3
					s0.3,0.4,0.3,0.7s-0.1,0.5-0.3,0.7c-0.2,0.2-0.4,0.3-0.7,0.3S1757.3,322.3,1757.1,322.1z M1758.6,331h-1.6v-7.4h1.6V331z"/>
				<path class="st3" d="M1765,323.4c1,0,1.9,0.3,2.5,0.8c0.7,0.6,1,1.3,1,2.2l0,0l-5.4,2.3c0.5,0.6,1.1,0.9,2,0.9
					c0.8,0,1.5-0.3,2.1-1l0.9,1c-0.9,0.9-1.9,1.4-3.1,1.4c-1.1,0-2-0.4-2.7-1.1c-0.8-0.7-1.1-1.6-1.1-2.8c0-0.8,0.2-1.5,0.6-2.1
					c0.4-0.6,0.9-1,1.5-1.3C1763.8,323.6,1764.4,323.4,1765,323.4z M1762.6,327.3c0,0.1,0,0.2,0,0.3l4.1-1.8
					c-0.3-0.6-0.9-0.9-1.7-0.9c-0.6,0-1.2,0.2-1.7,0.6C1762.9,326,1762.6,326.6,1762.6,327.3z"/>
				<path class="st3" d="M1772.4,324.8v3.8c0,0.4,0.1,0.6,0.3,0.8c0.2,0.2,0.4,0.3,0.8,0.3c0.3,0,0.7-0.2,1-0.5l0.6,1.1
					c-0.6,0.5-1.2,0.7-1.8,0.7s-1.2-0.2-1.7-0.7c-0.5-0.5-0.7-1.1-0.7-1.9v-7.3h1.6v2.3h2v1.3H1772.4z"/>
				<path class="st3" d="M1780.2,332.5c1.4,0,2.1-0.9,2.1-2.6v-0.5c-0.6,0.6-1.4,1-2.4,1c-1.9,0-2.9-1.1-2.9-3.2v-3.7h1.6v3
					c0,0.9,0.1,1.5,0.4,1.8c0.3,0.4,0.7,0.5,1.4,0.5s1.1-0.2,1.4-0.5s0.5-0.8,0.5-1.5v-3.4h1.6v6.4c0,1.3-0.3,2.3-1,3
					c-0.7,0.7-1.6,1-2.6,1c-0.8,0-1.5-0.2-2.2-0.6c-0.6-0.4-1.1-1-1.4-1.7l1.4-0.6C1778.5,332.1,1779.2,332.5,1780.2,332.5z"/>
			</g>
			<g>
			</g>
			<g class="st7">
				<path class="st3" d="M1571.9,349c-0.7,0.7-1.7,1.1-2.8,1.1s-2.1-0.4-2.8-1.1s-1.1-1.6-1.1-2.7s0.4-2,1.1-2.7s1.7-1.1,2.8-1.1
					s2.1,0.4,2.8,1.1c0.7,0.7,1.1,1.7,1.1,2.7S1572.6,348.3,1571.9,349z M1567.4,348c0.4,0.5,1,0.7,1.7,0.7c0.7,0,1.2-0.2,1.7-0.7
					c0.4-0.5,0.7-1,0.7-1.8s-0.2-1.3-0.7-1.8c-0.4-0.5-1-0.7-1.7-0.7c-0.7,0-1.2,0.2-1.7,0.7c-0.4,0.5-0.7,1-0.7,1.8
					S1567,347.6,1567.4,348z"/>
				<path class="st3" d="M1577.1,342.5v1.3h2v1.3h-2v4.9h-1.6v-7.5c0-0.8,0.2-1.4,0.7-1.9c0.5-0.5,1.1-0.7,1.9-0.7s1.4,0.2,2,0.7
					l-0.6,1.3c-0.3-0.4-0.8-0.5-1.3-0.5C1577.5,341.4,1577.1,341.8,1577.1,342.5z"/>
				<path class="st3" d="M1589.3,350.1c-1,0-1.9-0.4-2.7-1.1c-0.7-0.7-1.1-1.6-1.1-2.8s0.4-2.1,1.2-2.8s1.7-1.1,2.8-1.1
					s2.1,0.4,2.8,1.2l-0.9,1.1c-0.6-0.6-1.3-0.8-1.9-0.8s-1.2,0.2-1.7,0.7c-0.5,0.4-0.7,1-0.7,1.7c0,0.7,0.2,1.3,0.7,1.7
					c0.5,0.5,1.1,0.7,1.8,0.7s1.4-0.3,2-1l0.9,1C1591.6,349.7,1590.5,350.1,1589.3,350.1z"/>
				<path class="st3" d="M1601.1,349c-0.7,0.7-1.7,1.1-2.8,1.1s-2.1-0.4-2.8-1.1c-0.7-0.7-1.1-1.6-1.1-2.7s0.4-2,1.1-2.7
					c0.7-0.7,1.7-1.1,2.8-1.1s2.1,0.4,2.8,1.1c0.7,0.7,1.1,1.7,1.1,2.7S1601.8,348.3,1601.1,349z M1596.6,348c0.4,0.5,1,0.7,1.7,0.7
					c0.7,0,1.2-0.2,1.7-0.7c0.4-0.5,0.7-1,0.7-1.8s-0.2-1.3-0.7-1.8c-0.4-0.5-1-0.7-1.7-0.7c-0.7,0-1.2,0.2-1.7,0.7
					c-0.4,0.5-0.7,1-0.7,1.8S1596.1,347.6,1596.6,348z"/>
				<path class="st3" d="M1606.3,346v4h-1.6v-7.4h1.6v1.4c0.2-0.5,0.6-0.8,1-1.1c0.5-0.3,0.9-0.4,1.5-0.4c1.2,0,2,0.5,2.4,1.5
					c0.7-1,1.7-1.5,2.8-1.5c0.8,0,1.5,0.3,2,0.8c0.5,0.5,0.8,1.3,0.8,2.2v4.6h-1.6v-4.1c0-1.4-0.6-2.1-1.7-2.1c-0.5,0-1,0.2-1.4,0.5
					c-0.4,0.3-0.6,0.8-0.6,1.5v4.1h-1.6v-4.1c0-0.7-0.1-1.2-0.4-1.6c-0.3-0.3-0.6-0.5-1.2-0.5c-0.5,0-1,0.2-1.4,0.5
					C1606.5,344.8,1606.3,345.3,1606.3,346z"/>
				<path class="st3" d="M1623.6,342.4c1,0,1.9,0.3,2.6,1c0.7,0.7,1.1,1.6,1.1,2.8c0,1.1-0.4,2.1-1.1,2.8c-0.7,0.7-1.5,1.1-2.5,1.1
					c-0.9,0-1.8-0.4-2.5-1.2v3.8h-1.6v-10.2h1.6v1.3C1621.8,342.9,1622.6,342.4,1623.6,342.4z M1621.2,346.3c0,0.7,0.2,1.3,0.6,1.7
					c0.4,0.5,1,0.7,1.6,0.7s1.2-0.2,1.6-0.7c0.5-0.4,0.7-1,0.7-1.7s-0.2-1.3-0.7-1.8c-0.4-0.5-1-0.7-1.6-0.7c-0.6,0-1.2,0.2-1.6,0.7
					C1621.4,345,1621.2,345.6,1621.2,346.3z"/>
				<path class="st3" d="M1633.5,349.5c-0.4,0.4-0.9,0.6-1.6,0.6s-1.2-0.2-1.6-0.6c-0.4-0.4-0.6-1-0.6-1.8v-7.5h1.6v7.3
					c0,0.7,0.3,1.1,0.8,1.1c0.3,0,0.6-0.1,0.7-0.3L1633.5,349.5z"/>
				<path class="st3" d="M1638.7,342.4c1,0,1.9,0.3,2.5,0.8c0.7,0.6,1,1.3,1,2.2l0,0l-5.4,2.3c0.5,0.6,1.1,0.9,2,0.9
					c0.8,0,1.5-0.3,2.1-1l0.9,1c-0.9,0.9-1.9,1.4-3.1,1.4c-1.1,0-2-0.4-2.7-1.1c-0.8-0.7-1.1-1.6-1.1-2.8c0-0.8,0.2-1.5,0.6-2.1
					c0.4-0.6,0.9-1,1.5-1.3C1637.5,342.6,1638.1,342.4,1638.7,342.4z M1636.4,346.3c0,0.1,0,0.2,0,0.3l4.1-1.8
					c-0.3-0.6-0.9-0.9-1.7-0.9c-0.6,0-1.2,0.2-1.7,0.6C1636.6,345,1636.4,345.6,1636.4,346.3z"/>
				<path class="st3" d="M1646.2,346v4h-1.6v-7.4h1.6v1.4c0.2-0.5,0.6-0.8,1-1.1c0.5-0.3,0.9-0.4,1.5-0.4c1.2,0,2,0.5,2.4,1.5
					c0.7-1,1.7-1.5,2.8-1.5c0.8,0,1.5,0.3,2,0.8c0.5,0.5,0.8,1.3,0.8,2.2v4.6h-1.6v-4.1c0-1.4-0.6-2.1-1.7-2.1c-0.5,0-1,0.2-1.4,0.5
					s-0.6,0.8-0.6,1.5v4.1h-1.6v-4.1c0-0.7-0.1-1.2-0.4-1.6c-0.3-0.3-0.6-0.5-1.2-0.5s-1,0.2-1.4,0.5
					C1646.4,344.8,1646.2,345.3,1646.2,346z"/>
				<path class="st3" d="M1663,342.4c1,0,1.9,0.3,2.5,0.8c0.7,0.6,1,1.3,1,2.2l0,0l-5.4,2.3c0.5,0.6,1.1,0.9,2,0.9
					c0.8,0,1.5-0.3,2.1-1l0.9,1c-0.9,0.9-1.9,1.4-3.1,1.4c-1.1,0-2-0.4-2.7-1.1c-0.8-0.7-1.1-1.6-1.1-2.8c0-0.8,0.2-1.5,0.6-2.1
					c0.4-0.6,0.9-1,1.5-1.3C1661.7,342.6,1662.4,342.4,1663,342.4z M1660.6,346.3c0,0.1,0,0.2,0,0.3l4.1-1.8
					c-0.3-0.6-0.9-0.9-1.7-0.9c-0.6,0-1.2,0.2-1.7,0.6C1660.9,345,1660.6,345.6,1660.6,346.3z"/>
				<path class="st3" d="M1670.5,346v4h-1.6v-7.4h1.6v1.4c0.3-0.5,0.6-0.8,1-1.1c0.4-0.3,0.9-0.4,1.4-0.4c0.8,0,1.5,0.3,2,0.8
					c0.5,0.5,0.8,1.3,0.8,2.2v4.6h-1.6v-4.1c0-1.4-0.6-2.1-1.7-2.1c-0.5,0-1,0.2-1.4,0.5C1670.7,344.8,1670.5,345.3,1670.5,346z"/>
				<path class="st3" d="M1680.2,343.8v3.8c0,0.4,0.1,0.6,0.3,0.8c0.2,0.2,0.4,0.3,0.8,0.3c0.3,0,0.7-0.2,1-0.5l0.6,1.1
					c-0.6,0.5-1.2,0.7-1.8,0.7s-1.2-0.2-1.7-0.7c-0.5-0.5-0.7-1.1-0.7-1.9v-7.3h1.6v2.3h2v1.3H1680.2z"/>
				<path class="st3" d="M1685.4,349c-0.7-0.7-1-1.6-1-2.8s0.4-2.1,1.1-2.8c0.7-0.7,1.6-1,2.5-1c1,0,1.8,0.5,2.4,1.4v-1.3h1.6v7.4
					h-1.6v-1.2c-0.3,0.4-0.7,0.8-1.1,1c-0.5,0.2-0.9,0.3-1.4,0.3C1687,350.1,1686.1,349.8,1685.4,349z M1686,346.3
					c0,0.7,0.2,1.3,0.7,1.7c0.5,0.4,1,0.7,1.6,0.7s1.1-0.2,1.6-0.7c0.4-0.5,0.6-1,0.6-1.7c0-0.7-0.2-1.3-0.6-1.8
					c-0.4-0.5-1-0.7-1.6-0.7c-0.6,0-1.2,0.2-1.6,0.7C1686.2,345,1686,345.6,1686,346.3z"/>
				<path class="st3" d="M1698.9,344c-0.8,0-1.4,0.3-1.8,0.8c-0.4,0.5-0.6,1.2-0.6,2v3.2h-1.6v-7.4h1.6v1.5c0.3-0.5,0.6-0.8,1-1.1
					c0.4-0.3,0.9-0.5,1.4-0.5L1698.9,344C1699,344,1698.9,344,1698.9,344z"/>
				<path class="st3" d="M1704.4,351.5c1.4,0,2.1-0.9,2.1-2.6v-0.5c-0.6,0.6-1.4,1-2.4,1c-1.9,0-2.9-1.1-2.9-3.2v-3.7h1.6v3
					c0,0.9,0.1,1.5,0.4,1.8c0.3,0.4,0.7,0.5,1.4,0.5s1.1-0.2,1.4-0.5s0.5-0.8,0.5-1.5v-3.4h1.6v6.4c0,1.3-0.3,2.3-1,3
					c-0.7,0.7-1.6,1-2.6,1c-0.8,0-1.5-0.2-2.2-0.6c-0.6-0.4-1.1-1-1.4-1.7l1.4-0.6C1702.7,351.1,1703.4,351.5,1704.4,351.5z"/>
				<path class="st3" d="M1721,347.8c0,0.7-0.3,1.3-0.8,1.7c-0.5,0.4-1.2,0.6-2,0.6c-0.5,0-1.1-0.1-1.7-0.3
					c-0.6-0.2-1.1-0.5-1.5-0.8l0.8-1.2c0.9,0.7,1.7,1,2.5,1c0.4,0,0.6-0.1,0.8-0.2c0.2-0.2,0.3-0.4,0.3-0.6c0-0.4-0.5-0.7-1.5-1
					c-0.1,0-0.1,0-0.2-0.1c-1.5-0.4-2.3-1.1-2.3-2.1c0-0.7,0.3-1.2,0.8-1.7c0.5-0.4,1.2-0.6,2.1-0.6s1.7,0.3,2.4,0.8l-0.6,1.2
					c-0.6-0.4-1.3-0.6-2-0.6c-0.4,0-0.7,0.1-0.9,0.2c-0.2,0.1-0.3,0.3-0.3,0.6c0,0.2,0.1,0.4,0.4,0.5c0.2,0.1,0.4,0.2,0.7,0.2
					c0.3,0.1,0.6,0.1,0.8,0.2c0.2,0.1,0.5,0.2,0.7,0.3c0.2,0.1,0.5,0.2,0.7,0.4C1720.7,346.5,1721,347.1,1721,347.8z"/>
				<path class="st3" d="M1729.7,349c-0.7,0.7-1.7,1.1-2.8,1.1s-2.1-0.4-2.8-1.1s-1.1-1.6-1.1-2.7s0.4-2,1.1-2.7s1.7-1.1,2.8-1.1
					s2.1,0.4,2.8,1.1c0.7,0.7,1.1,1.7,1.1,2.7S1730.5,348.3,1729.7,349z M1725.2,348c0.4,0.5,1,0.7,1.7,0.7c0.7,0,1.2-0.2,1.7-0.7
					c0.4-0.5,0.7-1,0.7-1.8s-0.2-1.3-0.7-1.8c-0.4-0.5-1-0.7-1.7-0.7c-0.7,0-1.2,0.2-1.7,0.7c-0.4,0.5-0.7,1-0.7,1.8
					S1724.8,347.6,1725.2,348z"/>
				<path class="st3" d="M1737.1,349.5c-0.4,0.4-0.9,0.6-1.6,0.6s-1.2-0.2-1.6-0.6s-0.6-1-0.6-1.8v-7.5h1.6v7.3
					c0,0.7,0.3,1.1,0.8,1.1c0.3,0,0.6-0.1,0.7-0.3L1737.1,349.5z"/>
				<path class="st3" d="M1744.1,346.6v-4h1.6v7.4h-1.6v-1.4c-0.3,0.5-0.6,0.8-1,1.1c-0.4,0.3-0.9,0.4-1.4,0.4c-0.8,0-1.5-0.3-2-0.8
					c-0.5-0.5-0.8-1.3-0.8-2.2v-4.6h1.6v4.1c0,1.4,0.6,2.1,1.7,2.1c0.5,0,1-0.2,1.4-0.5C1743.9,347.8,1744.1,347.3,1744.1,346.6z"/>
				<path class="st3" d="M1750.2,343.8v3.8c0,0.4,0.1,0.6,0.3,0.8c0.2,0.2,0.4,0.3,0.8,0.3c0.3,0,0.7-0.2,1-0.5l0.6,1.1
					c-0.6,0.5-1.2,0.7-1.8,0.7s-1.2-0.2-1.7-0.7c-0.5-0.5-0.7-1.1-0.7-1.9v-7.3h1.6v2.3h2v1.3H1750.2z"/>
				<path class="st3" d="M1755,341.1c-0.2-0.2-0.3-0.4-0.3-0.7s0.1-0.5,0.3-0.7s0.4-0.3,0.7-0.3c0.3,0,0.5,0.1,0.7,0.3
					c0.2,0.2,0.3,0.4,0.3,0.7s-0.1,0.5-0.3,0.7c-0.2,0.2-0.4,0.3-0.7,0.3C1755.4,341.4,1755.2,341.3,1755,341.1z M1756.4,350h-1.6
					v-7.4h1.6V350z"/>
				<path class="st3" d="M1765.7,349c-0.7,0.7-1.7,1.1-2.8,1.1s-2.1-0.4-2.8-1.1c-0.7-0.7-1.1-1.6-1.1-2.7s0.4-2,1.1-2.7
					c0.7-0.7,1.7-1.1,2.8-1.1s2.1,0.4,2.8,1.1c0.7,0.7,1.1,1.7,1.1,2.7S1766.4,348.3,1765.7,349z M1761.2,348c0.4,0.5,1,0.7,1.7,0.7
					c0.7,0,1.2-0.2,1.7-0.7c0.4-0.5,0.7-1,0.7-1.8s-0.2-1.3-0.7-1.8c-0.4-0.5-1-0.7-1.7-0.7c-0.7,0-1.2,0.2-1.7,0.7
					c-0.4,0.5-0.7,1-0.7,1.8S1760.7,347.6,1761.2,348z"/>
				<path class="st3" d="M1770.9,346v4h-1.6v-7.4h1.6v1.4c0.3-0.5,0.6-0.8,1-1.1c0.4-0.3,0.9-0.4,1.4-0.4c0.8,0,1.5,0.3,2,0.8
					c0.5,0.5,0.8,1.3,0.8,2.2v4.6h-1.6v-4.1c0-1.4-0.6-2.1-1.7-2.1c-0.5,0-1,0.2-1.4,0.5C1771.1,344.8,1770.9,345.3,1770.9,346z"/>
				<path class="st3" d="M1784.4,347.8c0,0.7-0.3,1.3-0.8,1.7c-0.5,0.4-1.2,0.6-2,0.6c-0.5,0-1.1-0.1-1.7-0.3
					c-0.6-0.2-1.1-0.5-1.5-0.8l0.8-1.2c0.9,0.7,1.7,1,2.5,1c0.4,0,0.6-0.1,0.8-0.2c0.2-0.2,0.3-0.4,0.3-0.6c0-0.4-0.5-0.7-1.5-1
					c-0.1,0-0.1,0-0.2-0.1c-1.5-0.4-2.3-1.1-2.3-2.1c0-0.7,0.3-1.2,0.8-1.7c0.5-0.4,1.2-0.6,2.1-0.6s1.7,0.3,2.4,0.8l-0.6,1.2
					c-0.6-0.4-1.3-0.6-2-0.6c-0.4,0-0.7,0.1-0.9,0.2c-0.2,0.1-0.3,0.3-0.3,0.6c0,0.2,0.1,0.4,0.4,0.5c0.2,0.1,0.4,0.2,0.7,0.2
					c0.3,0.1,0.6,0.1,0.8,0.2c0.2,0.1,0.5,0.2,0.7,0.3c0.2,0.1,0.5,0.2,0.7,0.4C1784.2,346.5,1784.4,347.1,1784.4,347.8z"/>
			</g>
		</g>
	</g>
</g>
</svg>
