<?xml version="1.0" encoding="UTF-8" standalone="no"?>
<svg width="1611px" height="494px" viewBox="0 0 1611 494" version="1.1" xmlns="http://www.w3.org/2000/svg" xmlns:xlink="http://www.w3.org/1999/xlink">
    <!-- Generator: Sketch 3.8.3 (29802) - http://www.bohemiancoding.com/sketch -->
    <title>graphic-arrow-bg</title>
    <desc>Created with Sketch.</desc>
    <defs>
        <path d="M1495.279,107.323166 L301.720995,107.323166 C287.804918,107.323166 276.56434,96.0138131 276.56434,82.0731622 L276.56434,25.2998615 C276.56434,2.80313619 249.42712,-8.45393939 233.599971,7.4384026 L72.375,169.149953 C62.5416667,179.012963 62.5416667,194.992434 72.375,204.855445 L233.599971,366.549569 C249.42712,382.459337 276.56434,371.202261 276.56434,348.705536 L276.56434,291.914809 C276.56434,277.974159 287.804918,266.682231 301.720995,266.682231 L1495.279,266.682231 L1495.279,107.323166 Z" id="path-1"></path>
        <filter x="-50%" y="-50%" width="200%" height="200%" filterUnits="objectBoundingBox" id="filter-2">
            <feOffset dx="2" dy="2" in="SourceAlpha" result="shadowOffsetOuter1"></feOffset>
            <feGaussianBlur stdDeviation="17" in="shadowOffsetOuter1" result="shadowBlurOuter1"></feGaussianBlur>
            <feColorMatrix values="0 0 0 0 0.360784314   0 0 0 0 0.4   0 0 0 0 0.439215686  0 0 0 0.32 0" type="matrix" in="shadowBlurOuter1"></feColorMatrix>
        </filter>
        <linearGradient x1="17.7782709%" y1="45.1492672%" x2="100%" y2="29.2676303%" id="linearGradient-3">
            <stop stop-color="#739382" offset="0%"></stop>
            <stop stop-color="#87B09A" offset="61.330118%"></stop>
            <stop stop-color="#FFFFFF" offset="99.3881537%"></stop>
        </linearGradient>
        <path d="M1491,107.323166 L237.441991,107.323166 C223.525913,107.323166 212.285336,96.0138131 212.285336,82.0731622 L212.285336,25.2998615 C212.285336,2.80313619 185.148115,-8.45393939 169.320966,7.4384026 L8.09599529,169.149953 C-1.73733804,179.012963 -1.73733804,194.992434 8.09599529,204.855445 L169.320966,366.549569 C185.148115,382.459337 212.285336,371.202261 212.285336,348.705536 L212.285336,291.914809 C212.285336,277.974159 223.525913,266.682231 237.441991,266.682231 L1491,266.682231 L1491,107.323166 Z" id="path-4"></path>
        <linearGradient x1="7.43987209%" y1="46.838662%" x2="100%" y2="46.838662%" id="linearGradient-6">
            <stop stop-color="#FFFFFF" offset="0%"></stop>
            <stop stop-color="#FFFFFF" stop-opacity="0" offset="100%"></stop>
        </linearGradient>
    </defs>
    <g id="Symbols" stroke="none" stroke-width="1" fill="none" fill-rule="evenodd">
        <g id="graphic-arrow-bg">
            <g id="Arrow" transform="translate(55.000000, 60.000000)">
                <g id="graphic-arrow-bg">
                    <g id="Mosaic">
                        <g id="Mask-Copy-2" transform="translate(780.139502, 187.000000) scale(-1, 1) translate(-780.139502, -187.000000) " fill-opacity="1" fill="black">
                            <use filter="url(#filter-2)" xlink:href="#path-1"></use>
                        </g>
                        <g id="Combined-Shape" transform="translate(750.500000, 187.000000) scale(-1, 1) translate(-750.500000, -187.000000) translate(5.000000, 0.000000)">
                            <mask id="mask-5" fill="white">
                                <use xlink:href="#path-4"></use>
                            </mask>
                            <use id="Mask-Copy" fill="url(#linearGradient-3)" xlink:href="#path-4"></use>
                            <path d="M325.255449,201.609089 L378.134388,254.488029 C384.602818,260.956458 384.602818,271.444869 378.134388,277.912251 L325.255449,330.792238 C318.787019,337.260667 308.298608,337.260667 301.830179,330.792238 L248.951239,277.912251 C242.48281,271.444869 242.48281,260.956458 248.951239,254.488029 L301.830179,201.609089 C308.298608,195.139612 318.787019,195.139612 325.255449,201.609089 Z M410.384802,288.337115 L463.263741,341.216055 C469.732171,347.684485 469.732171,358.172895 463.263741,364.640277 L410.384802,417.520264 C403.916372,423.988694 393.427962,423.988694 386.959532,417.520264 L334.080592,364.640277 C327.612163,358.172895 327.612163,347.684485 334.080592,341.216055 L386.959532,288.337115 C393.427962,281.867638 403.916372,281.867638 410.384802,288.337115 Z M496.812552,373.964743 L549.691492,426.843683 C556.159921,433.312112 556.159921,443.800523 549.691492,450.267905 L496.812552,503.147892 C490.344122,509.616322 479.855712,509.616322 473.387282,503.147892 L420.508343,450.267905 C414.039913,443.800523 414.039913,433.312112 420.508343,426.843683 L473.387282,373.964743 C479.855712,367.495266 490.344122,367.495266 496.812552,373.964743 Z M410.384802,116.080067 L463.263741,168.959007 C469.732171,175.427436 469.732171,185.915847 463.263741,192.383229 L410.384802,245.263216 C403.916372,251.731646 393.427962,251.731646 386.959532,245.263216 L334.080592,192.383229 C327.612163,185.915847 327.612163,175.427436 334.080592,168.959007 L386.959532,116.080067 C393.427962,109.61059 403.916372,109.61059 410.384802,116.080067 Z M496.680719,202.375985 L549.559659,255.254924 C556.028088,261.723354 556.028088,272.211765 549.559659,278.679146 L496.680719,331.559134 C490.21229,338.027563 479.723879,338.027563 473.25545,331.559134 L420.37651,278.679146 C413.90808,272.211765 413.90808,261.723354 420.37651,255.254924 L473.25545,202.375985 C479.723879,195.906508 490.21229,195.906508 496.680719,202.375985 Z M583.441187,288.337115 L636.320126,341.216055 C642.788556,347.684485 642.788556,358.172895 636.320126,364.640277 L583.441187,417.520264 C576.972757,423.988694 566.484346,423.988694 560.015917,417.520264 L507.136977,364.640277 C500.668548,358.172895 500.668548,347.684485 507.136977,341.216055 L560.015917,288.337115 C566.484346,281.867638 576.972757,281.867638 583.441187,288.337115 Z M496.812552,31.0493202 L549.691492,83.9282599 C556.159921,90.3966893 556.159921,100.8851 549.691492,107.352482 L496.812552,160.232469 C490.344122,166.700899 479.855712,166.700899 473.387282,160.232469 L420.508343,107.352482 C414.039913,100.8851 414.039913,90.3966893 420.508343,83.9282599 L473.387282,31.0493202 C479.855712,24.579843 490.344122,24.579843 496.812552,31.0493202 Z M583.441187,116.080067 L636.320126,168.959007 C642.788556,175.427436 642.788556,185.915847 636.320126,192.383229 L583.441187,245.263216 C576.972757,251.731646 566.484346,251.731646 560.015917,245.263216 L507.136977,192.383229 C500.668548,185.915847 500.668548,175.427436 507.136977,168.959007 L560.015917,116.080067 C566.484346,109.61059 576.972757,109.61059 583.441187,116.080067 Z M668.170871,201.609089 L721.049811,254.488029 C727.518241,260.956458 727.518241,271.444869 721.049811,277.912251 L668.170871,330.792238 C661.702442,337.260667 651.214031,337.260667 644.745602,330.792238 L591.866662,277.912251 C585.398233,271.444869 585.398233,260.956458 591.866662,254.488029 L644.745602,201.609089 C651.214031,195.139612 661.702442,195.139612 668.170871,201.609089 Z" fill-opacity="0.849999964" fill="#87B09A" opacity="0.25" mask="url(#mask-5)"></path>
                        </g>
                        <rect id="Rectangle-22" fill="url(#linearGradient-6)" x="0" y="55" width="273" height="250"></rect>
                    </g>
                    <g id="Mark" transform="translate(1327.000000, 151.000000)">
                        <path d="M30.0857542,68.5714286 L3.00519518,41.5666132 C-0.30797751,38.2632424 -0.30797751,32.9069021 3.00519518,29.6035313 L30.0857542,2.59871589 C33.3983904,-0.704654896 38.7697542,-0.704654896 42.0818538,2.59871589 L69.1629494,29.6035313 C72.4755855,32.9069021 72.4755855,38.2632424 69.1629494,41.5666132 L42.0818538,68.5714286 C38.7697542,71.8747994 33.3983904,71.8747994 30.0857542,68.5714286" id="Shape" fill="#87B09A"></path>
                        <path d="M56.8105831,35.0369181 L51.8314345,30.0716961 C51.3421044,29.5837346 50.5045558,29.929374 50.5045558,30.6201177 L50.5045558,32.3632959 C50.5045558,32.7913323 50.1568739,33.1385768 49.7276369,33.1385768 L47.0009092,33.1385768 C46.5716723,33.1385768 46.2239904,32.7913323 46.2239904,32.3632959 L46.2239904,28.8164794 C46.2239904,28.388443 46.5716723,28.0411985 47.0009092,28.0411985 L47.9189398,28.0411985 C48.6110843,28.0411985 48.9587663,27.2065276 48.4683631,26.718031 L43.4892145,21.752809 C43.1866024,21.4505083 42.694053,21.4505083 42.3903679,21.752809 L37.4112193,26.718031 C36.9213526,27.2065276 37.268498,28.0411985 37.9606426,28.0411985 L39.051441,28.0411985 C39.4806779,28.0411985 39.8278233,28.388443 39.8278233,28.8164794 L39.8278233,32.2953451 C39.8278233,32.7233815 39.4806779,33.070626 39.051441,33.070626 L33.0764627,33.070626 C32.6472257,33.070626 32.2995438,32.7233815 32.2995438,32.2953451 L32.2995438,28.8164794 C32.2995438,28.388443 32.6472257,28.0411985 33.0764627,28.0411985 L34.207502,28.0411985 C34.8996466,28.0411985 35.2473285,27.2065276 34.7569253,26.718031 L29.7777767,21.752809 C29.4740916,21.4505083 28.9820787,21.4505083 28.6783936,21.752809 L23.6997815,26.718031 C23.2099149,27.2065276 23.5565237,28.0411985 24.2492048,28.0411985 L25.1264578,28.0411985 C25.5556948,28.0411985 25.9039133,28.388443 25.9039133,28.8164794 L25.9039133,32.3632959 C25.9039133,32.7913323 25.5556948,33.1385768 25.1264578,33.1385768 L22.4405076,33.1385768 C22.0107341,33.1385768 21.6635888,32.7913323 21.6635888,32.3632959 L21.6635888,30.6201177 C21.6635888,29.929374 20.8255036,29.5837346 20.33671,30.0716961 L15.3575614,35.0369181 C15.0538763,35.3397539 15.0538763,35.8303906 15.3575614,36.1332263 L20.33671,41.0979133 C20.8255036,41.5864098 21.6635888,41.2407705 21.6635888,40.5500268 L21.6635888,38.8063135 C21.6635888,38.3782772 22.0107341,38.0315677 22.4405076,38.0315677 L25.1264578,38.0315677 C25.5556948,38.0315677 25.9039133,38.3782772 25.9039133,38.8063135 L25.9039133,42.3536651 C25.9039133,42.7817014 25.5556948,43.128946 25.1264578,43.128946 L24.2492048,43.128946 C23.5565237,43.128946 23.2093783,43.9636169 23.6997815,44.4515784 L28.6783936,49.4168004 C28.9815422,49.7196362 29.473555,49.7196362 29.7777767,49.4168004 L34.7569253,44.4515784 C35.246792,43.9636169 34.8996466,43.128946 34.207502,43.128946 L33.0764627,43.128946 C32.6472257,43.128946 32.2995438,42.7817014 32.2995438,42.3536651 L32.2995438,38.8598181 C32.2995438,38.4317817 32.6472257,38.0845372 33.0764627,38.0845372 L39.051441,38.0845372 C39.4806779,38.0845372 39.8278233,38.4317817 39.8278233,38.8598181 L39.8278233,42.3536651 C39.8278233,42.7817014 39.4806779,43.128946 39.051441,43.128946 L37.9606426,43.128946 C37.268498,43.128946 36.9208161,43.9636169 37.4112193,44.4515784 L42.3903679,49.4168004 C42.6935165,49.7196362 43.1860659,49.7196362 43.4892145,49.4168004 L48.4683631,44.4515784 C48.9582297,43.9636169 48.6110843,43.128946 47.9189398,43.128946 L47.0009092,43.128946 C46.5716723,43.128946 46.2239904,42.7817014 46.2239904,42.3536651 L46.2239904,38.8063135 C46.2239904,38.3782772 46.5716723,38.0315677 47.0009092,38.0315677 L49.7276369,38.0315677 C50.1568739,38.0315677 50.5045558,38.3782772 50.5045558,38.8063135 L50.5045558,40.5500268 C50.5045558,41.2407705 51.3421044,41.5864098 51.8314345,41.0979133 L56.8105831,36.1332263 C57.1142683,35.8303906 57.1142683,35.3397539 56.8105831,35.0369181" id="Shape" fill="#FFFFFF"></path>
                    </g>
                </g>
                <text id="Habitat-plays-well-w" font-family="MontserratAlternates-Regular, Montserrat Alternates" font-size="16" font-weight="normal" line-spacing="21" letter-spacing="0.857142806" fill="#FFFFFF">
                    <tspan x="1064.50057" y="181">Habitat plays well with </tspan>
                    <tspan x="1069.99086" y="202">container technologies</tspan>
                </text>
            </g>
        </g>
    </g>
</svg>