<svg>
  <defs>

    <!-- Our icons -->
    <g id="icon-caret-right">
      <path d="M6.37 4.98C7.27 3.66 8.74 3.66 9.65 4.98L18.37 17.62C19.27 18.94 18.72 20.01 17.11 20.01L-1.1 20.01C-2.69 20.01-3.26 18.95-2.35 17.62L6.37 4.98Z" transform="translate(8.009400, 11.999911) rotate(90.000000) translate(-8.009400, -11.999911) "/>
    </g>
    <g id="icon-windows">
      <path d="M0 3.26L9.39 1.98 9.39 11.04 0.01 11.09 0 3.26 0 3.26ZM9.39 12.09L9.39 21.15 0.01 19.86 0.01 12.02 9.39 12.09 9.39 12.09ZM10.52 1.82L22.97 0 22.97 10.93 10.52 11.03 10.52 1.82 10.52 1.82ZM22.98 12.17L22.97 23.05 10.52 21.29 10.51 12.15 22.98 12.17Z"/>
    </g>
    <g id="icon-azure">
      <path d="M0 3.26L9.39 1.98 9.39 11.04 0.01 11.09 0 3.26 0 3.26ZM9.39 12.09L9.39 21.15 0.01 19.86 0.01 12.02 9.39 12.09 9.39 12.09ZM10.52 1.82L22.97 0 22.97 10.93 10.52 11.03 10.52 1.82 10.52 1.82ZM22.98 12.17L22.97 23.05 10.52 21.29 10.51 12.15 22.98 12.17Z"/>
    </g>
    <g id="icon-linux">
      <path d="M19.34 19.38C18.68 19.1 18.4 18.74 18.42 18.19 18.45 17.55 18.1 17.09 17.93 16.9 18.03 16.51 18.33 15.14 17.93 13.95 17.5 12.67 16.18 10.73 14.83 8.82 14.27 8.03 14.25 7.18 14.22 6.19 14.19 5.25 14.15 4.18 13.64 2.99 13.07 1.7 11.94 0.96 10.53 0.96 9.7 0.96 8.84 1.22 8.18 1.69 6.82 2.64 7 4.7 7.12 6.07 7.13 6.26 7.15 6.44 7.16 6.59 7.24 7.93 7.17 8.63 7.07 8.85 7.01 8.99 6.71 9.39 6.4 9.81 6.07 10.25 5.7 10.74 5.39 11.2 5.03 11.76 4.74 12.61 4.45 13.43 4.25 14.03 4.05 14.6 3.86 14.94 3.5 15.59 3.59 16.2 3.66 16.48 3.53 16.58 3.33 16.77 3.16 17.12 2.96 17.56 2.55 17.79 1.7 17.96 1.31 18.04 1.04 18.21 0.9 18.45 0.7 18.81 0.81 19.27 0.91 19.58 1.06 20.03 0.97 20.32 0.8 20.84 0.76 20.96 0.71 21.1 0.67 21.25 0.6 21.49 0.62 21.7 0.74 21.89 1.06 22.39 2 22.57 2.97 22.68 3.54 22.75 4.17 22.98 4.78 23.21 5.38 23.43 6 23.66 6.56 23.73 6.64 23.74 6.73 23.75 6.81 23.75 7.66 23.75 8.04 23.18 8.16 22.94 8.47 22.88 9.52 22.68 10.6 22.65 11.68 22.62 12.73 22.84 13.02 22.9 13.12 23.08 13.36 23.5 13.75 23.71 13.97 23.83 14.27 23.9 14.57 23.9 14.57 23.9 14.57 23.9 14.57 23.9 14.9 23.9 15.52 23.82 16.02 23.29 16.51 22.76 17.74 22.09 18.64 21.6 18.84 21.49 19.02 21.38 19.19 21.29 19.69 21.01 19.97 20.6 19.94 20.18 19.92 19.83 19.69 19.52 19.34 19.38ZM8.19 19.27C8.12 18.83 7.56 18.38 6.9 17.87 6.36 17.45 5.75 16.97 5.58 16.56 5.23 15.73 5.51 14.27 5.98 13.51 6.22 13.13 6.41 12.56 6.6 12.01 6.8 11.41 7.01 10.79 7.24 10.52 7.61 10.1 7.95 9.27 8.01 8.62 8.36 8.96 8.89 9.38 9.39 9.38 9.46 9.38 9.54 9.37 9.61 9.35 9.95 9.25 10.44 8.96 10.92 8.68 11.34 8.44 11.85 8.14 12.04 8.11 12.37 8.59 14.29 12.9 14.49 14.28 14.64 15.37 14.48 16.28 14.4 16.63 14.33 16.62 14.25 16.62 14.17 16.62 13.63 16.62 13.49 16.91 13.46 17.09 13.36 17.55 13.35 19.02 13.35 19.35 13.16 19.59 12.18 20.77 10.78 20.98 10.21 21.06 9.67 21.1 9.19 21.1 8.78 21.1 8.52 21.07 8.41 21.06L7.7 20.24C7.98 20.1 8.26 19.8 8.19 19.27ZM9.08 5.78C9.06 5.79 9.04 5.8 9.02 5.81 9.01 5.77 9.01 5.72 9 5.67 8.92 5.22 8.63 4.89 8.3 4.89 8.28 4.89 8.25 4.89 8.23 4.9 8.03 4.93 7.88 5.08 7.8 5.29 7.87 4.83 8.13 4.49 8.43 4.49 8.79 4.49 9.1 4.98 9.1 5.56 9.1 5.63 9.09 5.71 9.08 5.78ZM11.88 6.13C11.91 6.02 11.93 5.91 11.93 5.79 11.93 5.26 11.6 4.85 11.18 4.85 10.76 4.85 10.43 5.27 10.43 5.79 10.43 5.82 10.43 5.86 10.43 5.9 10.41 5.89 10.39 5.88 10.37 5.87 10.32 5.73 10.3 5.57 10.3 5.42 10.3 4.79 10.7 4.27 11.18 4.27 11.67 4.27 12.07 4.79 12.07 5.42 12.07 5.68 12 5.93 11.88 6.13ZM11.52 7.36C11.51 7.39 11.49 7.4 11.33 7.49 11.24 7.54 11.14 7.59 11.01 7.67L10.92 7.72C10.57 7.94 9.75 8.44 9.53 8.47 9.38 8.49 9.29 8.43 9.08 8.29 9.03 8.26 8.98 8.22 8.92 8.19 8.55 7.93 8.3 7.66 8.28 7.55 8.4 7.45 8.7 7.21 8.86 7.07 9.18 6.77 9.5 6.56 9.66 6.56 9.67 6.56 9.67 6.57 9.68 6.57 9.87 6.6 10.33 6.79 10.66 6.92 10.82 6.98 10.95 7.04 11.05 7.07 11.34 7.18 11.5 7.31 11.52 7.36ZM14.18 21.37C14.35 20.61 14.54 19.57 14.51 18.95 14.5 18.81 14.49 18.66 14.48 18.51 14.46 18.24 14.42 17.83 14.46 17.71 14.46 17.71 14.47 17.7 14.48 17.7 14.48 18.05 14.56 18.75 15.11 19 15.27 19.07 15.46 19.11 15.67 19.11 16.22 19.11 16.83 18.83 17.09 18.58 17.23 18.43 17.36 18.24 17.45 18.1 17.46 18.16 17.48 18.23 17.47 18.32 17.44 18.84 17.69 19.53 18.16 19.78L18.23 19.82C18.39 19.91 18.84 20.15 18.85 20.26 18.85 20.26 18.84 20.27 18.82 20.3 18.71 20.4 18.31 20.6 17.93 20.8 17.26 21.15 16.49 21.55 16.15 21.91 15.66 22.43 15.12 22.78 14.79 22.78 14.75 22.78 14.71 22.77 14.68 22.76 14.32 22.65 14.02 22.12 14.18 21.37ZM1.94 19.42C1.9 19.25 1.87 19.11 1.9 18.98 1.93 18.88 2.41 18.77 2.61 18.73 2.9 18.66 3.2 18.6 3.39 18.48 3.65 18.32 3.8 18.02 3.92 17.76 4.01 17.56 4.11 17.37 4.22 17.3 4.23 17.3 4.23 17.3 4.25 17.3 4.46 17.3 4.9 17.74 5.16 18.14 5.22 18.24 5.34 18.45 5.48 18.68 5.89 19.38 6.45 20.34 6.75 20.66 7.01 20.95 7.44 21.5 7.34 21.98 7.26 22.35 6.85 22.65 6.75 22.71 6.72 22.72 6.67 22.72 6.62 22.72 6.06 22.72 4.94 22.25 4.34 21.99L4.25 21.95C3.92 21.81 3.37 21.72 2.84 21.64 2.42 21.57 1.84 21.47 1.75 21.39 1.67 21.3 1.76 21.01 1.84 20.76 1.9 20.58 1.96 20.39 1.99 20.19 2.03 19.88 1.98 19.63 1.94 19.42Z"/>
    </g>
    <g id="icon-github">
      <path d="M12 0C5.37 0 0 5.37 0 12 0 17.31 3.44 21.8 8.21 23.39 8.81 23.49 9.03 23.13 9.03 22.82 9.03 22.53 9.02 21.59 9.02 20.58 6 21.14 5.22 19.85 4.98 19.17 4.85 18.83 4.26 17.76 3.75 17.48 3.33 17.25 2.73 16.7 3.74 16.68 4.68 16.67 5.36 17.55 5.58 17.91 6.66 19.73 8.39 19.22 9.07 18.9 9.18 18.12 9.49 17.6 9.84 17.3 7.17 17 4.38 15.96 4.38 11.37 4.38 10.07 4.85 8.99 5.61 8.15 5.49 7.85 5.07 6.62 5.73 4.97 5.73 4.97 6.74 4.65 9.03 6.2 9.99 5.93 11.01 5.79 12.03 5.79 13.05 5.79 14.07 5.93 15.03 6.2 17.33 4.64 18.33 4.97 18.33 4.97 18.99 6.62 18.57 7.85 18.45 8.15 19.22 8.99 19.68 10.05 19.68 11.37 19.68 15.98 16.88 17 14.21 17.3 14.64 17.67 15.02 18.39 15.02 19.52 15.02 21.12 15 22.41 15 22.82 15 23.13 15.23 23.51 15.83 23.39 20.57 21.8 24 17.3 24 12 24 5.37 18.63 0 12 0Z"/>
    </g>
    <g id="icon-google">
      <path d="M5.9625,2 L2.5125,8.05208333 L4.275,11.1145833 L7.725,5.5 L20.025,5.5 L18,2 L5.9625,2 Z M16.4625,6.66666667 L20.025,12.390625 L13.95,23 L18,23 L24,12.5 L20.6625,6.66666667 L16.4625,6.66666667 Z M12,7.83333333 C9.3515628,7.83333333 7.2,9.9251305 7.2,12.5 C7.2,15.0748695 9.3515628,17.1666667 12,17.1666667 C14.6484372,17.1666667 16.8,15.0748695 16.8,12.5 C16.8,9.9251305 14.6484372,7.83333333 12,7.83333333 Z M1.8375,9.25520833 L0,12.5 L5.9625,23 L12.6,23 L14.5875,19.5 L7.6875,19.5 L1.8375,9.25520833 Z M12,10.1666667 C13.3218756,10.1666667 14.4,11.2148443 14.4,12.5 C14.4,13.7851568 13.3218756,14.8333333 12,14.8333333 C10.6781256,14.8333333 9.6,13.7851568 9.6,12.5 C9.6,11.2148443 10.6781256,10.1666667 12,10.1666667 Z"/>
    </g>
    <g id="icon-amazon">
      <path d="M13.3991688,9.20689655 L10.5974026,8.27586207 L10.5974026,4.24137931 L13.4025974,5.06896552 L13.3991688,9.20689655 Z M14.1298701,5.06896552 L16.9350649,4.24137931 L16.9252987,8.27306897 L14.1298701,9.20689655 L14.1298701,5.06896552 Z M16.3636364,3.80451724 L13.7529351,4.4942069 L11.1688312,3.80451724 L13.7491948,3 L16.3636364,3.80451724 Z M20.4641039,9.20689655 L17.6623377,8.27586207 L17.6623377,4.24137931 L20.4675325,5.06896552 L20.4641039,9.20689655 Z M21.1948052,5.06896552 L24,4.24137931 L23.9902338,8.27306897 L21.1948052,9.20689655 L21.1948052,5.06896552 Z M23.4285714,3.80451724 L20.8178701,4.4942069 L18.2337662,3.80451724 L20.8141299,3 L23.4285714,3.80451724 Z M2.80519481,10.9655172 L2.80178701,15.1034483 L1.08025765e-16,14.1724138 L-3.86055875e-16,10.137931 L2.80519481,10.9655172 Z M3.53246753,10.9655172 L6.33766234,10.137931 L6.32792727,14.1697034 L3.53246753,15.1034483 L3.53246753,10.9655172 Z M5.76623377,9.70106897 L3.15556364,10.3907586 L0.571428571,9.70106897 L3.15178182,8.89655172 L5.76623377,9.70106897 Z M9.86672208,15.1034483 L7.06493506,14.1724138 L7.06493506,10.137931 L9.87012987,10.9655172 L9.86672208,15.1034483 Z M10.5974026,10.9655172 L13.4025974,10.137931 L13.3928312,14.1697034 L10.5974026,15.1034483 L10.5974026,10.9655172 Z M12.8311688,9.70106897 L10.2204987,10.3907586 L7.63636364,9.70106897 L10.2167169,8.89655172 L12.8311688,9.70106897 Z M6.33425455,21 L3.53246753,20.0689655 L3.53246753,16.0344828 L6.33766234,16.862069 L6.33425455,21 Z M7.06493506,16.862069 L9.87012987,16.0344828 L9.86039481,20.0662583 L7.06493506,21 L7.06493506,16.862069 Z M9.2987013,15.5976207 L6.68803117,16.2873207 L4.1038961,15.5976207 L6.68424935,14.7931034 L9.2987013,15.5976207 Z"/>
    </g>
    <g id="icon-slack">
      <path d="M24,4.5 L24,19.5 C24,20.7395896 23.5599002,21.7994748 22.6796875,22.6796875 C21.7994748,23.5599002 20.7395896,24 19.5,24 L4.5,24 C3.26041046,24 2.20052524,23.5599002 1.3203125,22.6796875 C0.440099766,21.7994748 0,20.7395896 0,19.5 L0,4.5 C0,3.26041044 0.440099766,2.2005252 1.3203125,1.32031248 C2.20052524,0.44009976 3.26041046,0 4.5,0 L19.5,0 C20.7395896,0 21.7994748,0.44009976 22.6796875,1.32031248 C23.5599002,2.2005252 24,3.26041044 24,4.5 Z M18.9340278,11.1944444 C18.7812492,11.1944444 18.6215286,11.2222219 18.4548611,11.2777777 L16.7465278,11.8611112 L15.6527778,8.56944444 L17.2881944,8.00694444 C17.5937515,7.90277724 17.8506934,7.7239596 18.0590278,7.47048612 C18.2673622,7.21701264 18.3715278,6.93402936 18.3715278,6.62152776 C18.3715278,6.21180348 18.2239598,5.86979304 17.9288195,5.59548612 C17.6336791,5.3211792 17.2777799,5.18402772 16.8611111,5.18402772 C16.7083326,5.18402772 16.5590285,5.20486092 16.4131944,5.2465278 L14.7256944,5.8194444 L14.1736111,4.14236112 C14.0694439,3.83680404 13.8836819,3.58854264 13.6163195,3.39756948 C13.348957,3.20659632 13.052085,3.11111112 12.7256945,3.11111112 C12.3159702,3.11111112 11.9635431,3.26041512 11.6684028,3.5590278 C11.3732624,3.85764036 11.2256944,4.21180356 11.2256944,4.62152772 C11.2256944,4.78125084 11.2534719,4.94444364 11.3090278,5.11111116 L11.8715278,6.77777772 L8.64236111,7.8715278 L8.07986111,6.20486112 C7.97569392,5.89235952 7.79166799,5.64236208 7.52777778,5.45486112 C7.26388757,5.26736016 6.96875164,5.17361112 6.64236112,5.17361112 C6.22569236,5.17361112 5.87152924,5.32117908 5.57986111,5.61631944 C5.28819299,5.9114598 5.14236112,6.26735904 5.14236112,6.68402772 C5.14236112,6.84375084 5.17013861,7.00694364 5.22569444,7.17361116 L5.77777777,8.82986112 L4.14236111,9.3819444 C3.83680403,9.4861116 3.58854262,9.6701376 3.39756944,9.9340278 C3.20659627,10.197918 3.11111111,10.4930539 3.11111111,10.8194444 C3.11111111,11.2361132 3.2534708,11.5850681 3.53819444,11.8663194 C3.8229181,12.1475708 4.17360902,12.2881944 4.59027778,12.2881944 C4.74305632,12.2881944 4.90972132,12.2604169 5.09027778,12.2048611 L6.71527777,11.6423611 L7.80902778,14.9027778 L6.18402778,15.4548611 C5.8784707,15.5590283 5.63020928,15.7430543 5.43923611,16.0069445 C5.24826294,16.2708347 5.15277778,16.5659706 5.15277778,16.8923611 C5.15277778,17.3159743 5.29340137,17.6666653 5.57465278,17.9444444 C5.85590418,18.2222236 6.20833122,18.3611111 6.63194444,18.3611111 C6.77777851,18.3611111 6.95138788,18.3298614 7.15277778,18.2673611 L8.74652778,17.7152778 L9.31944444,19.4131944 C9.42361163,19.725696 9.60763757,19.9756936 9.87152778,20.1631944 C10.135418,20.3506954 10.4305539,20.4444444 10.7569444,20.4444444 C11.1736132,20.4444444 11.5277763,20.2951404 11.8194444,19.9965277 C12.1111126,19.6979152 12.2569445,19.3437521 12.2569445,18.9340278 C12.2569445,18.7743048 12.229167,18.611112 12.1736111,18.4444445 L11.6006944,16.7361112 L14.8298611,15.6319445 L15.4027777,17.3506944 C15.5069449,17.663196 15.692707,17.9131936 15.9600695,18.1006944 C16.2274319,18.2881954 16.524304,18.3819444 16.8506945,18.3819444 C17.2604188,18.3819444 17.6111096,18.2326404 17.9027778,17.9340277 C18.194446,17.6354152 18.3402778,17.2812521 18.3402778,16.8715278 C18.3402778,16.6909714 18.3159725,16.5277786 18.2673611,16.3819445 L17.6840278,14.6423611 L19.4756945,14.0277778 C20.121531,13.7986099 20.4444444,13.3472256 20.4444444,12.6736111 C20.4444444,12.2499979 20.3003486,11.8975709 20.0121528,11.6163194 C19.7239568,11.335068 19.3645855,11.1944444 18.9340278,11.1944444 Z M10.6631944,13.9236112 L9.56944445,10.6631945 L12.7986112,9.54861108 L13.8923611,12.8298611 L10.6631944,13.9236112 Z"></path>
    </g>
    <g id="icon-youtube">
      <path d="M14.359375,18.359375 L14.359375,15.90625 C14.359375,15.3854141 14.2083348,15.125 13.90625,15.125 C13.7291658,15.125 13.5572926,15.2083325 13.390625,15.375 L13.390625,18.875 C13.5572926,19.0416674 13.7291658,19.125 13.90625,19.125 C14.2083348,19.125 14.359375,18.8697942 14.359375,18.359375 Z M17.234375,16.453125 L18.265625,16.453125 L18.265625,15.921875 C18.265625,15.3906223 18.0937517,15.125 17.75,15.125 C17.4062483,15.125 17.234375,15.3906223 17.234375,15.921875 L17.234375,16.453125 Z M8.3125,12.296875 L8.3125,13.390625 L7.0625,13.390625 L7.0625,20 L5.90625,20 L5.90625,13.390625 L4.6875,13.390625 L4.6875,12.296875 L8.3125,12.296875 Z M11.453125,14.265625 L11.453125,20 L10.40625,20 L10.40625,19.375 C9.99999797,19.8437524 9.6041686,20.078125 9.21875,20.078125 C8.87499828,20.078125 8.65625047,19.9322932 8.5625,19.640625 C8.49999968,19.4635408 8.46875,19.1822936 8.46875,18.796875 L8.46875,14.265625 L9.5,14.265625 L9.5,18.484375 C9.5,18.7343762 9.50520828,18.8697916 9.515625,18.890625 C9.52604172,19.0468758 9.60416593,19.125 9.75,19.125 C9.95833438,19.125 10.1770822,18.9635432 10.40625,18.640625 L10.40625,14.265625 L11.453125,14.265625 Z M15.390625,16 L15.390625,18.28125 C15.390625,18.8229193 15.354167,19.203124 15.28125,19.421875 C15.1562494,19.8593772 14.8802105,20.078125 14.453125,20.078125 C14.0885399,20.078125 13.7343767,19.8645854 13.390625,19.4375 L13.390625,20 L12.34375,20 L12.34375,12.296875 L13.390625,12.296875 L13.390625,14.8125 C13.72396,14.3958312 14.0781232,14.1875 14.453125,14.1875 C14.8802105,14.1875 15.1562494,14.4062478 15.28125,14.84375 C15.354167,15.062501 15.390625,15.4479139 15.390625,16 Z M19.3125,18.015625 L19.3125,18.15625 C19.3125,18.4583348 19.3020834,18.682291 19.28125,18.828125 C19.2499998,19.0572928 19.1718756,19.265624 19.046875,19.453125 C18.7656236,19.8697938 18.3489611,20.078125 17.796875,20.078125 C17.2552056,20.078125 16.8333348,19.8802103 16.53125,19.484375 C16.3124989,19.2031236 16.203125,18.7552114 16.203125,18.140625 L16.203125,16.125 C16.203125,15.5104136 16.3072907,15.0625014 16.515625,14.78125 C16.8177098,14.3854147 17.2343724,14.1875 17.765625,14.1875 C18.2968776,14.1875 18.7031236,14.3854147 18.984375,14.78125 C19.2031261,15.0833348 19.3125,15.5312471 19.3125,16.125 L19.3125,17.3125 L17.234375,17.3125 L17.234375,18.328125 C17.234375,18.8593776 17.4114565,19.125 17.765625,19.125 C18.0156263,19.125 18.1718747,18.9895847 18.234375,18.71875 C18.234375,18.7083332 18.2369791,18.6718753 18.2421875,18.609375 C18.2473958,18.5468747 18.25,18.460938 18.25,18.3515626 L18.25,18.015625 L19.3125,18.015625 Z M12.265625,5.14062504 L12.265625,7.57812504 C12.265625,8.10937764 12.09896,8.37500004 11.765625,8.37500004 C11.43229,8.37500004 11.265625,8.10937764 11.265625,7.57812504 L11.265625,5.14062504 C11.265625,4.5989556 11.43229,4.32812496 11.765625,4.32812496 C12.09896,4.32812496 12.265625,4.5989556 12.265625,5.14062504 Z M20.59375,16.28125 C20.59375,14.4374908 20.4947927,13.0833377 20.296875,12.21875 C20.1927078,11.7604144 19.9687517,11.3776057 19.625,11.0703125 C19.2812483,10.7630192 18.8854189,10.5833336 18.4375,10.53125 C17.0208263,10.3749992 14.8750144,10.296875 12,10.296875 C9.13540235,10.296875 6.99479875,10.3749992 5.578125,10.53125 C5.11978938,10.5833336 4.72135586,10.7630192 4.3828125,11.0703125 C4.04426914,11.3776057 3.82291718,11.7604144 3.71875,12.21875 C3.51041562,13.1250046 3.40625,14.4791576 3.40625,16.28125 C3.40625,18.1145926 3.51041562,19.4687456 3.71875,20.34375 C3.82291718,20.791669 4.04426914,21.1718735 4.3828125,21.484375 C4.72135586,21.7968766 5.11458109,21.9791664 5.5625,22.03125 C6.98959046,22.1875008 9.13540235,22.265625 12,22.265625 C14.8645976,22.265625 17.0104096,22.1875008 18.4375,22.03125 C18.8854189,21.9791664 19.2786442,21.7968766 19.6171874,21.484375 C19.9557308,21.1718735 20.1770828,20.791669 20.28125,20.34375 C20.4895843,19.4687456 20.59375,18.1145926 20.59375,16.28125 Z M8.796875,6.10937496 L10.203125,1.48437504 L9.03125,1.48437504 L8.234375,4.53125004 L7.40625,1.48437504 L6.1875,1.48437504 C6.26041703,1.72395948 6.3802075,2.08333092 6.546875,2.56250004 L6.921875,3.64062504 C7.28646016,4.71354708 7.52604109,5.53645548 7.640625,6.10937496 L7.640625,9.24999996 L8.796875,9.24999996 L8.796875,6.10937496 Z M13.3125,7.37499996 L13.3125,5.34375 C13.3125,4.73958036 13.2031261,4.28645988 12.984375,3.984375 C12.6822901,3.58853964 12.2760442,3.39062496 11.765625,3.39062496 C11.2343723,3.39062496 10.8281264,3.58853964 10.546875,3.984375 C10.3281239,4.28645988 10.21875,4.73958036 10.21875,5.34375 L10.21875,7.37499996 C10.21875,7.97916972 10.3281239,8.4322902 10.546875,8.73437496 C10.8281264,9.13021032 11.2343723,9.328125 11.765625,9.328125 C12.2760442,9.328125 12.6822901,9.13021032 12.984375,8.73437496 C13.2031261,8.45312364 13.3125,8.00000316 13.3125,7.37499996 Z M16.140625,9.24999996 L17.1875,9.24999996 L17.1875,3.46875 L16.140625,3.46875 L16.140625,7.89062496 C15.9114572,8.21354328 15.6927094,8.37500004 15.484375,8.37500004 C15.3281242,8.37500004 15.2447917,8.29166748 15.234375,8.12499996 C15.2239583,8.10416652 15.21875,7.9687512 15.21875,7.71875004 L15.21875,3.46875 L14.171875,3.46875 L14.171875,8.04687504 C14.171875,8.43229356 14.2031246,8.71874904 14.265625,8.90625 C14.3802089,9.18750144 14.604165,9.328125 14.9375,9.328125 C15.3125018,9.328125 15.7135396,9.0937524 16.140625,8.625 L16.140625,9.24999996 Z M24,4.5 L24,19.5 C24,20.7395896 23.5599002,21.7994748 22.6796875,22.6796875 C21.7994748,23.5599002 20.7395896,24 19.5,24 L4.5,24 C3.26041046,24 2.20052524,23.5599002 1.3203125,22.6796875 C0.440099766,21.7994748 0,20.7395896 0,19.5 L0,4.5 C0,3.26041044 0.440099766,2.2005252 1.3203125,1.32031248 C2.20052524,0.44009976 3.26041046,0 4.5,0 L19.5,0 C20.7395896,0 21.7994748,0.44009976 22.6796875,1.32031248 C23.5599002,2.2005252 24,3.26041044 24,4.5 Z"></path>
    </g>
    <!--
      Material icons (https://material.io/icons/)
      SVG sourced from the 24px production versions of https://github.com/google/material-design-icons
    -->

    <g id="icon-loading">
      <!-- https://material.io/icons/#ic_autorenew -->
      <path d="M12 6v3l4-4-4-4v3c-4.42 0-8 3.58-8 8 0 1.57.46 3.03 1.24 4.26L6.7 14.8c-.45-.83-.7-1.79-.7-2.8 0-3.31 2.69-6 6-6zm6.76 1.74L17.3 9.2c.44.84.7 1.79.7 2.8 0 3.31-2.69 6-6 6v-3l-4 4 4 4v-3c4.42 0 8-3.58 8-8 0-1.57-.46-3.03-1.24-4.26z"/>
    </g>
    <g id="icon-chevron-left">
      <!-- https://material.io/icons/#ic_keyboard_arrow_left -->
      <path d="M15.41 7.41L14 6l-6 6 6 6 1.41-1.41L10.83 12z"/>
    </g>
    <g id="icon-chevron-right">
      <!-- https://material.io/icons/#ic_keyboard_arrow_right -->
      <path d="M10 6L8.59 7.41 13.17 12l-4.58 4.59L10 18l6-6z"/>
    </g>
    <g id="icon-chevron-up">
      <!-- https://material.io/icons/#ic_keyboard_arrow_up -->
      <path d="M7.41 15.41L12 10.83l4.59 4.58L18 14l-6-6-6 6z"/>
    </g>
    <g id="icon-chevron-down">
      <!-- https://material.io/icons/#ic_keyboard_arrow_down -->
      <path d="M7.41 7.84L12 12.42l4.59-4.58L18 9.25l-6 6-6-6z"/>
    </g>
    <g id="icon-check">
      <!-- https://material.io/icons/#ic_check -->
      <path d="M9 16.17L4.83 12l-1.42 1.41L9 19 21 7l-1.41-1.41z"/>
    </g>
    <g id="icon-alert">
      <!-- https://material.io/icons/#ic_error_outline -->
      <path d="M11 15h2v2h-2zm0-8h2v6h-2zm.99-5C6.47 2 2 6.48 2 12s4.47 10 9.99 10C17.52 22 22 17.52 22 12S17.52 2 11.99 2zM12 20c-4.42 0-8-3.58-8-8s3.58-8 8-8 8 3.58 8 8-3.58 8-8 8z"/>
    </g>
    <g id="icon-pending">
      <!-- https://material.io/icons/#ic_access_time -->
      <path d="M11.99 2C6.47 2 2 6.48 2 12s4.47 10 9.99 10C17.52 22 22 17.52 22 12S17.52 2 11.99 2zM12 20c-4.42 0-8-3.58-8-8s3.58-8 8-8 8 3.58 8 8-3.58 8-8 8zm.5-13H11v6l5.25 3.15.75-1.23-4.5-2.67z"/>
    </g>
    <g id="icon-add">
      <!-- https://material.io/icons/#ic_add -->
      <path d="M19 13h-6v6h-2v-6H5v-2h6V5h2v6h6v2z"/>
    </g>
    <g id="icon-add-circle">
      <!-- https://material.io/icons/#ic_add_circle -->
      <path d="M12 2C6.48 2 2 6.48 2 12s4.48 10 10 10 10-4.48 10-10S17.52 2 12 2zm5 11h-4v4h-2v-4H7v-2h4V7h2v4h4v2z"/>
    </g>
    <g id="icon-add-box">
      <!-- https://material.io/icons/#ic_add_box -->
      <path d="M19 3H5c-1.11 0-2 .9-2 2v14c0 1.1.89 2 2 2h14c1.1 0 2-.9 2-2V5c0-1.1-.9-2-2-2zm-2 10h-4v4h-2v-4H7v-2h4V7h2v4h4v2z"/>
    </g>
    <g id="icon-settings">
      <!-- https://material.io/icons/#ic_settings -->
      <path d="M19.43 12.98c.04-.32.07-.64.07-.98s-.03-.66-.07-.98l2.11-1.65c.19-.15.24-.42.12-.64l-2-3.46c-.12-.22-.39-.3-.61-.22l-2.49 1c-.52-.4-1.08-.73-1.69-.98l-.38-2.65C14.46 2.18 14.25 2 14 2h-4c-.25 0-.46.18-.49.42l-.38 2.65c-.61.25-1.17.59-1.69.98l-2.49-1c-.23-.09-.49 0-.61.22l-2 3.46c-.13.22-.07.49.12.64l2.11 1.65c-.04.32-.07.65-.07.98s.03.66.07.98l-2.11 1.65c-.19.15-.24.42-.12.64l2 3.46c.12.22.39.3.61.22l2.49-1c.52.4 1.08.73 1.69.98l.38 2.65c.03.24.24.42.49.42h4c.25 0 .46-.18.49-.42l.38-2.65c.61-.25 1.17-.59 1.69-.98l2.49 1c.23.09.49 0 .61-.22l2-3.46c.12-.22.07-.49-.12-.64l-2.11-1.65zM12 15.5c-1.93 0-3.5-1.57-3.5-3.5s1.57-3.5 3.5-3.5 3.5 1.57 3.5 3.5-1.57 3.5-3.5 3.5z"/>
    </g>
    <g id="icon-drop-up">
      <!-- https://material.io/icons/#ic_arrow_drop_up -->
      <path d="M7 14l5-5 5 5z"/>
    </g>
    <g id="icon-drop-down">
      <!-- https://material.io/icons/#ic_arrow_drop_down -->
      <path d="M7 10l5 5 5-5z"/>
    </g>
    <g id="icon-people">
      <!-- https://material.io/icons/#ic_people -->
      <path d="M16 11c1.66 0 2.99-1.34 2.99-3S17.66 5 16 5c-1.66 0-3 1.34-3 3s1.34 3 3 3zm-8 0c1.66 0 2.99-1.34 2.99-3S9.66 5 8 5C6.34 5 5 6.34 5 8s1.34 3 3 3zm0 2c-2.33 0-7 1.17-7 3.5V19h14v-2.5c0-2.33-4.67-3.5-7-3.5zm8 0c-.29 0-.62.02-.97.05 1.16.84 1.97 1.97 1.97 3.45V19h6v-2.5c0-2.33-4.67-3.5-7-3.5z"/>
    </g>
    <g id="icon-list-bulleted">
      <!-- https://material.io/icons/#ic_format_list_bulleted -->
      <path d="M4 10.5c-.83 0-1.5.67-1.5 1.5s.67 1.5 1.5 1.5 1.5-.67 1.5-1.5-.67-1.5-1.5-1.5zm0-6c-.83 0-1.5.67-1.5 1.5S3.17 7.5 4 7.5 5.5 6.83 5.5 6 4.83 4.5 4 4.5zm0 12c-.83 0-1.5.68-1.5 1.5s.68 1.5 1.5 1.5 1.5-.68 1.5-1.5-.67-1.5-1.5-1.5zM7 19h14v-2H7v2zm0-6h14v-2H7v2zm0-8v2h14V5H7z"/>
    </g>
    <g id="icon-layers">
      <!-- https://material.io/icons/#ic_layers -->
      <path d="M11.99 18.54l-7.37-5.73L3 14.07l9 7 9-7-1.63-1.27-7.38 5.74zM12 16l7.36-5.73L21 9l-9-7-9 7 1.63 1.27L12 16z"/>
    </g>
    <g id="icon-no">
      <!-- https://material.io/icons/#ic_not_interested -->
      <path d="M12 2C6.48 2 2 6.48 2 12s4.48 10 10 10 10-4.48 10-10S17.52 2 12 2zm0 18c-4.42 0-8-3.58-8-8 0-1.85.63-3.55 1.69-4.9L16.9 18.31C15.55 19.37 13.85 20 12 20zm6.31-3.1L7.1 5.69C8.45 4.63 10.15 4 12 4c4.42 0 8 3.58 8 8 0 1.85-.63 3.55-1.69 4.9z"/>
    </g>
    <g id="icon-link">
      <!-- https://material.io/icons/#ic_link -->
      <path d="M3.9 12c0-1.71 1.39-3.1 3.1-3.1h4V7H7c-2.76 0-5 2.24-5 5s2.24 5 5 5h4v-1.9H7c-1.71 0-3.1-1.39-3.1-3.1zM8 13h8v-2H8v2zm9-6h-4v1.9h4c1.71 0 3.1 1.39 3.1 3.1s-1.39 3.1-3.1 3.1h-4V17h4c2.76 0 5-2.24 5-5s-2.24-5-5-5z"/>
    </g>
    <g id="icon-copy">
      <!-- https://material.io/icons/#ic_content_copy -->
      <path d="M16 1H4c-1.1 0-2 .9-2 2v14h2V3h12V1zm3 4H8c-1.1 0-2 .9-2 2v14c0 1.1.9 2 2 2h11c1.1 0 2-.9 2-2V7c0-1.1-.9-2-2-2zm0 16H8V7h11v14z"/>
    </g>
    <g id="icon-public">
      <!-- https://material.io/icons/#ic_public -->
      <path d="M12 2C6.48 2 2 6.48 2 12s4.48 10 10 10 10-4.48 10-10S17.52 2 12 2zm-1 17.93c-3.95-.49-7-3.85-7-7.93 0-.62.08-1.21.21-1.79L9 15v1c0 1.1.9 2 2 2v1.93zm6.9-2.54c-.26-.81-1-1.39-1.9-1.39h-1v-3c0-.55-.45-1-1-1H8v-2h2c.55 0 1-.45 1-1V7h2c1.1 0 2-.9 2-2v-.41c2.93 1.19 5 4.06 5 7.41 0 2.08-.8 3.97-2.1 5.39z"/>
    </g>
    <g id="icon-warning">
      <!-- https://material.io/icons/#ic_warning -->
      <path d="M1 21h22L12 2 1 21zm12-3h-2v-2h2v2zm0-4h-2v-4h2v4z"/>
    </g>
    <g id="icon-lock">
      <!-- https://material.io/icons/#ic_lock -->
      <path d="M18 8h-1V6c0-2.76-2.24-5-5-5S7 3.24 7 6v2H6c-1.1 0-2 .9-2 2v10c0 1.1.9 2 2 2h12c1.1 0 2-.9 2-2V10c0-1.1-.9-2-2-2zm-6 9c-1.1 0-2-.9-2-2s.9-2 2-2 2 .9 2 2-.9 2-2 2zm3.1-9H8.9V6c0-1.71 1.39-3.1 3.1-3.1 1.71 0 3.1 1.39 3.1 3.1v2z"/>
    </g>
    <g id="icon-docker">
      <path d="M13.5742702,10.8108026 L16.0522901,10.8108026 L16.0522901,8.51347814 L13.5742702,8.51347814 L13.5742702,10.8108026 Z M10.6455846,10.8108026 L13.1237032,10.8108026 L13.1237032,8.51347814 L10.6455846,8.51347814 L10.6455846,10.8108026 Z M7.71699771,10.8108026 L10.1950176,10.8108026 L10.1950176,8.51347814 L7.71699771,8.51347814 L7.71699771,10.8108026 Z M4.78831211,10.8108026 L7.2664307,10.8108026 L7.2664307,8.51347814 L4.78831211,8.51347814 L4.78831211,10.8108026 Z M1.85962651,10.8108026 L4.33774509,10.8108026 L4.33774509,8.51347814 L1.85962651,8.51347814 L1.85962651,10.8108026 Z M4.78831211,8.05401324 L7.2664307,8.05401324 L7.2664307,5.75678941 L4.78831211,5.75678941 L4.78831211,8.05401324 Z M7.71699771,8.05401324 L10.1950176,8.05401324 L10.1950176,5.75678941 L7.71699771,5.75678941 L7.71699771,8.05401324 Z M10.6455846,8.05401324 L13.1237032,8.05401324 L13.1237032,5.75678941 L10.6455846,5.75678941 L10.6455846,8.05401324 Z M10.6455846,5.29732451 L13.1237032,5.29732451 L13.1237032,3 L10.6455846,3 L10.6455846,5.29732451 Z M24,9.8117383 L23.4996771,9.47126716 C22.9582859,9.10210463 21.7150803,8.96680208 20.7579709,9.15082965 C20.6347659,8.23169851 20.1323699,7.43468194 19.2186981,6.71427641 L18.6932999,6.35709379 L18.3428369,6.8932704 C17.8940469,7.5833738 17.6698493,8.5394514 17.7432985,9.45636777 C17.7763703,9.77881871 17.8803246,10.3557673 18.2058108,10.8629505 C17.880522,11.0412398 17.2375459,11.2867777 16.3902153,11.2702675 L0.092503462,11.2702675 L0.0606162696,11.4616441 C-0.092600209,12.3830907 -0.0892436624,15.2583705 1.7413576,17.4684128 C3.13294232,19.1482181 5.21923346,20 7.9421825,20 C13.845262,20 18.2125239,17.2290159 20.257648,12.1921168 C21.0618371,12.2085263 22.793519,12.1969491 23.6830038,10.4638885 C23.7061047,10.4241233 23.7595133,10.3201296 23.9149017,9.99183968 L24,9.8117383 L24,9.8117383 Z"></path>
    </g>
    <g id="icon-visibility">
      <!-- https://material.io/icons/#ic_visibility -->
      <path d="M12 4.5C7 4.5 2.73 7.61 1 12c1.73 4.39 6 7.5 11 7.5s9.27-3.11 11-7.5c-1.73-4.39-6-7.5-11-7.5zM12 17c-2.76 0-5-2.24-5-5s2.24-5 5-5 5 2.24 5 5-2.24 5-5 5zm0-8c-1.66 0-3 1.34-3 3s1.34 3 3 3 3-1.34 3-3-1.34-3-3-3z"/>
    </g>
    <g id="icon-visibility-off">
      <!-- https://material.io/icons/#ic_visibility_off -->
      <path d="M12 7c2.76 0 5 2.24 5 5 0 .65-.13 1.26-.36 1.83l2.92 2.92c1.51-1.26 2.7-2.89 3.43-4.75-1.73-4.39-6-7.5-11-7.5-1.4 0-2.74.25-3.98.7l2.16 2.16C10.74 7.13 11.35 7 12 7zM2 4.27l2.28 2.28.46.46C3.08 8.3 1.78 10.02 1 12c1.73 4.39 6 7.5 11 7.5 1.55 0 3.03-.3 4.38-.84l.42.42L19.73 22 21 20.73 3.27 3 2 4.27zM7.53 9.8l1.55 1.55c-.05.21-.08.43-.08.65 0 1.66 1.34 3 3 3 .22 0 .44-.03.65-.08l1.55 1.55c-.67.33-1.41.53-2.2.53-2.76 0-5-2.24-5-5 0-.79.2-1.53.53-2.2zm4.31-.78l3.15 3.15.02-.16c0-1.66-1.34-3-3-3l-.17.01z"/>
    </g>
    <g id="icon-file-upload">
      <!-- https://material.io/icons/#ic_file_upload -->
      <path d="M9 16h6v-6h4l-7-7-7 7h4zm-4 2h14v2H5z"/>
    </g>
    <g id="icon-file-download">
      <!-- https://material.io/icons/#ic_file_download -->
      <path d="M19 9h-4V3H9v6H5l7 7 7-7zM5 18v2h14v-2H5z"/>
    </g>
    <g id="icon-cancel">
      <!-- https://material.io/icons/#ic_cancel -->
      <path d="M12 2C6.47 2 2 6.47 2 12s4.47 10 10 10 10-4.47 10-10S17.53 2 12 2zm5 13.59L15.59 17 12 13.41 8.41 17 7 15.59 10.59 12 7 8.41 8.41 7 12 10.59 15.59 7 17 8.41 13.41 12 17 15.59z"/>
    </g>
    <g id="icon-delete">
      <!-- https://material.io/icons/#ic_delete -->
      <path d="M6 19c0 1.1.9 2 2 2h8c1.1 0 2-.9 2-2V7H6v12zM19 4h-3.5l-1-1h-5l-1 1H5v2h14V4z"/>
    </g>
    <g id="icon-open-in-new">
      <!-- https://material.io/icons/#ic_open_in_new -->
      <path d="M19 19H5V5h7V3H5c-1.11 0-2 .9-2 2v14c0 1.1.89 2 2 2h14c1.1 0 2-.9 2-2v-7h-2v7zM14 3v2h3.59l-9.83 9.83 1.41 1.41L19 6.41V10h2V3h-7z"/>
    </g>
    <g id="icon-info-outline">
      <!-- https://material.io/icons/#ic_info_outline -->
      <path d="M11 17h2v-6h-2v6zm1-15C6.48 2 2 6.48 2 12s4.48 10 10 10 10-4.48 10-10S17.52 2 12 2zm0 18c-4.41 0-8-3.59-8-8s3.59-8 8-8 8 3.59 8 8-3.59 8-8 8zM11 9h2V7h-2v2z"/>
    </g>
    <g id="icon-menu">
      <!-- https://material.io/icons/#ic_menu -->
      <path d="M3 18h18v-2H3v2zm0-5h18v-2H3v2zm0-7v2h18V6H3z"/>
    </g>
  </defs>
</svg>
