<svg>
  <defs>

    <!-- Our icons -->
    <g id="icon-caret-right">
      <path d="M6.37 4.98C7.27 3.66 8.74 3.66 9.65 4.98L18.37 17.62C19.27 18.94 18.72 20.01 17.11 20.01L-1.1 20.01C-2.69 20.01-3.26 18.95-2.35 17.62L6.37 4.98Z" transform="translate(8.009400, 11.999911) rotate(90.000000) translate(-8.009400, -11.999911) "/>
    </g>
    <g id="icon-windows">
      <path d="M0 3.26L9.39 1.98 9.39 11.04 0.01 11.09 0 3.26 0 3.26ZM9.39 12.09L9.39 21.15 0.01 19.86 0.01 12.02 9.39 12.09 9.39 12.09ZM10.52 1.82L22.97 0 22.97 10.93 10.52 11.03 10.52 1.82 10.52 1.82ZM22.98 12.17L22.97 23.05 10.52 21.29 10.51 12.15 22.98 12.17Z"/>
    </g>
    <g id="icon-linux">
      <path d="M19.34 19.38C18.68 19.1 18.4 18.74 18.42 18.19 18.45 17.55 18.1 17.09 17.93 16.9 18.03 16.51 18.33 15.14 17.93 13.95 17.5 12.67 16.18 10.73 14.83 8.82 14.27 8.03 14.25 7.18 14.22 6.19 14.19 5.25 14.15 4.18 13.64 2.99 13.07 1.7 11.94 0.96 10.53 0.96 9.7 0.96 8.84 1.22 8.18 1.69 6.82 2.64 7 4.7 7.12 6.07 7.13 6.26 7.15 6.44 7.16 6.59 7.24 7.93 7.17 8.63 7.07 8.85 7.01 8.99 6.71 9.39 6.4 9.81 6.07 10.25 5.7 10.74 5.39 11.2 5.03 11.76 4.74 12.61 4.45 13.43 4.25 14.03 4.05 14.6 3.86 14.94 3.5 15.59 3.59 16.2 3.66 16.48 3.53 16.58 3.33 16.77 3.16 17.12 2.96 17.56 2.55 17.79 1.7 17.96 1.31 18.04 1.04 18.21 0.9 18.45 0.7 18.81 0.81 19.27 0.91 19.58 1.06 20.03 0.97 20.32 0.8 20.84 0.76 20.96 0.71 21.1 0.67 21.25 0.6 21.49 0.62 21.7 0.74 21.89 1.06 22.39 2 22.57 2.97 22.68 3.54 22.75 4.17 22.98 4.78 23.21 5.38 23.43 6 23.66 6.56 23.73 6.64 23.74 6.73 23.75 6.81 23.75 7.66 23.75 8.04 23.18 8.16 22.94 8.47 22.88 9.52 22.68 10.6 22.65 11.68 22.62 12.73 22.84 13.02 22.9 13.12 23.08 13.36 23.5 13.75 23.71 13.97 23.83 14.27 23.9 14.57 23.9 14.57 23.9 14.57 23.9 14.57 23.9 14.9 23.9 15.52 23.82 16.02 23.29 16.51 22.76 17.74 22.09 18.64 21.6 18.84 21.49 19.02 21.38 19.19 21.29 19.69 21.01 19.97 20.6 19.94 20.18 19.92 19.83 19.69 19.52 19.34 19.38ZM8.19 19.27C8.12 18.83 7.56 18.38 6.9 17.87 6.36 17.45 5.75 16.97 5.58 16.56 5.23 15.73 5.51 14.27 5.98 13.51 6.22 13.13 6.41 12.56 6.6 12.01 6.8 11.41 7.01 10.79 7.24 10.52 7.61 10.1 7.95 9.27 8.01 8.62 8.36 8.96 8.89 9.38 9.39 9.38 9.46 9.38 9.54 9.37 9.61 9.35 9.95 9.25 10.44 8.96 10.92 8.68 11.34 8.44 11.85 8.14 12.04 8.11 12.37 8.59 14.29 12.9 14.49 14.28 14.64 15.37 14.48 16.28 14.4 16.63 14.33 16.62 14.25 16.62 14.17 16.62 13.63 16.62 13.49 16.91 13.46 17.09 13.36 17.55 13.35 19.02 13.35 19.35 13.16 19.59 12.18 20.77 10.78 20.98 10.21 21.06 9.67 21.1 9.19 21.1 8.78 21.1 8.52 21.07 8.41 21.06L7.7 20.24C7.98 20.1 8.26 19.8 8.19 19.27ZM9.08 5.78C9.06 5.79 9.04 5.8 9.02 5.81 9.01 5.77 9.01 5.72 9 5.67 8.92 5.22 8.63 4.89 8.3 4.89 8.28 4.89 8.25 4.89 8.23 4.9 8.03 4.93 7.88 5.08 7.8 5.29 7.87 4.83 8.13 4.49 8.43 4.49 8.79 4.49 9.1 4.98 9.1 5.56 9.1 5.63 9.09 5.71 9.08 5.78ZM11.88 6.13C11.91 6.02 11.93 5.91 11.93 5.79 11.93 5.26 11.6 4.85 11.18 4.85 10.76 4.85 10.43 5.27 10.43 5.79 10.43 5.82 10.43 5.86 10.43 5.9 10.41 5.89 10.39 5.88 10.37 5.87 10.32 5.73 10.3 5.57 10.3 5.42 10.3 4.79 10.7 4.27 11.18 4.27 11.67 4.27 12.07 4.79 12.07 5.42 12.07 5.68 12 5.93 11.88 6.13ZM11.52 7.36C11.51 7.39 11.49 7.4 11.33 7.49 11.24 7.54 11.14 7.59 11.01 7.67L10.92 7.72C10.57 7.94 9.75 8.44 9.53 8.47 9.38 8.49 9.29 8.43 9.08 8.29 9.03 8.26 8.98 8.22 8.92 8.19 8.55 7.93 8.3 7.66 8.28 7.55 8.4 7.45 8.7 7.21 8.86 7.07 9.18 6.77 9.5 6.56 9.66 6.56 9.67 6.56 9.67 6.57 9.68 6.57 9.87 6.6 10.33 6.79 10.66 6.92 10.82 6.98 10.95 7.04 11.05 7.07 11.34 7.18 11.5 7.31 11.52 7.36ZM14.18 21.37C14.35 20.61 14.54 19.57 14.51 18.95 14.5 18.81 14.49 18.66 14.48 18.51 14.46 18.24 14.42 17.83 14.46 17.71 14.46 17.71 14.47 17.7 14.48 17.7 14.48 18.05 14.56 18.75 15.11 19 15.27 19.07 15.46 19.11 15.67 19.11 16.22 19.11 16.83 18.83 17.09 18.58 17.23 18.43 17.36 18.24 17.45 18.1 17.46 18.16 17.48 18.23 17.47 18.32 17.44 18.84 17.69 19.53 18.16 19.78L18.23 19.82C18.39 19.91 18.84 20.15 18.85 20.26 18.85 20.26 18.84 20.27 18.82 20.3 18.71 20.4 18.31 20.6 17.93 20.8 17.26 21.15 16.49 21.55 16.15 21.91 15.66 22.43 15.12 22.78 14.79 22.78 14.75 22.78 14.71 22.77 14.68 22.76 14.32 22.65 14.02 22.12 14.18 21.37ZM1.94 19.42C1.9 19.25 1.87 19.11 1.9 18.98 1.93 18.88 2.41 18.77 2.61 18.73 2.9 18.66 3.2 18.6 3.39 18.48 3.65 18.32 3.8 18.02 3.92 17.76 4.01 17.56 4.11 17.37 4.22 17.3 4.23 17.3 4.23 17.3 4.25 17.3 4.46 17.3 4.9 17.74 5.16 18.14 5.22 18.24 5.34 18.45 5.48 18.68 5.89 19.38 6.45 20.34 6.75 20.66 7.01 20.95 7.44 21.5 7.34 21.98 7.26 22.35 6.85 22.65 6.75 22.71 6.72 22.72 6.67 22.72 6.62 22.72 6.06 22.72 4.94 22.25 4.34 21.99L4.25 21.95C3.92 21.81 3.37 21.72 2.84 21.64 2.42 21.57 1.84 21.47 1.75 21.39 1.67 21.3 1.76 21.01 1.84 20.76 1.9 20.58 1.96 20.39 1.99 20.19 2.03 19.88 1.98 19.63 1.94 19.42Z"/>
    </g>
    <g id="icon-github">
      <path d="M12 0C5.37 0 0 5.37 0 12 0 17.31 3.44 21.8 8.21 23.39 8.81 23.49 9.03 23.13 9.03 22.82 9.03 22.53 9.02 21.59 9.02 20.58 6 21.14 5.22 19.85 4.98 19.17 4.85 18.83 4.26 17.76 3.75 17.48 3.33 17.25 2.73 16.7 3.74 16.68 4.68 16.67 5.36 17.55 5.58 17.91 6.66 19.73 8.39 19.22 9.07 18.9 9.18 18.12 9.49 17.6 9.84 17.3 7.17 17 4.38 15.96 4.38 11.37 4.38 10.07 4.85 8.99 5.61 8.15 5.49 7.85 5.07 6.62 5.73 4.97 5.73 4.97 6.74 4.65 9.03 6.2 9.99 5.93 11.01 5.79 12.03 5.79 13.05 5.79 14.07 5.93 15.03 6.2 17.33 4.64 18.33 4.97 18.33 4.97 18.99 6.62 18.57 7.85 18.45 8.15 19.22 8.99 19.68 10.05 19.68 11.37 19.68 15.98 16.88 17 14.21 17.3 14.64 17.67 15.02 18.39 15.02 19.52 15.02 21.12 15 22.41 15 22.82 15 23.13 15.23 23.51 15.83 23.39 20.57 21.8 24 17.3 24 12 24 5.37 18.63 0 12 0Z"/>
    </g>

    <!--
      Material icons (https://material.io/icons/)
      SVG sourced from the 24px production versions of https://github.com/google/material-design-icons
    -->

    <g id="icon-loading">
      <!-- https://material.io/icons/#ic_autorenew -->
      <path d="M12 6v3l4-4-4-4v3c-4.42 0-8 3.58-8 8 0 1.57.46 3.03 1.24 4.26L6.7 14.8c-.45-.83-.7-1.79-.7-2.8 0-3.31 2.69-6 6-6zm6.76 1.74L17.3 9.2c.44.84.7 1.79.7 2.8 0 3.31-2.69 6-6 6v-3l-4 4 4 4v-3c4.42 0 8-3.58 8-8 0-1.57-.46-3.03-1.24-4.26z"/>
    </g>
    <g id="icon-chevron-left">
      <!-- https://material.io/icons/#ic_keyboard_arrow_left -->
      <path d="M15.41 7.41L14 6l-6 6 6 6 1.41-1.41L10.83 12z"/>
    </g>
    <g id="icon-chevron-right">
      <!-- https://material.io/icons/#ic_keyboard_arrow_right -->
      <path d="M10 6L8.59 7.41 13.17 12l-4.58 4.59L10 18l6-6z"/>
    </g>
    <g id="icon-chevron-up">
      <!-- https://material.io/icons/#ic_keyboard_arrow_up -->
      <path d="M7.41 15.41L12 10.83l4.59 4.58L18 14l-6-6-6 6z"/>
    </g>
    <g id="icon-chevron-down">
      <!-- https://material.io/icons/#ic_keyboard_arrow_down -->
      <path d="M7.41 7.84L12 12.42l4.59-4.58L18 9.25l-6 6-6-6z"/>
    </g>
    <g id="icon-check">
      <!-- https://material.io/icons/#ic_check -->
      <path d="M9 16.17L4.83 12l-1.42 1.41L9 19 21 7l-1.41-1.41z"/>
    </g>
    <g id="icon-alert">
      <!-- https://material.io/icons/#ic_error_outline -->
      <path d="M11 15h2v2h-2zm0-8h2v6h-2zm.99-5C6.47 2 2 6.48 2 12s4.47 10 9.99 10C17.52 22 22 17.52 22 12S17.52 2 11.99 2zM12 20c-4.42 0-8-3.58-8-8s3.58-8 8-8 8 3.58 8 8-3.58 8-8 8z"/>
    </g>
    <g id="icon-pending">
      <!-- https://material.io/icons/#ic_access_time -->
      <path d="M11.99 2C6.47 2 2 6.48 2 12s4.47 10 9.99 10C17.52 22 22 17.52 22 12S17.52 2 11.99 2zM12 20c-4.42 0-8-3.58-8-8s3.58-8 8-8 8 3.58 8 8-3.58 8-8 8zm.5-13H11v6l5.25 3.15.75-1.23-4.5-2.67z"/>
    </g>
    <g id="icon-add">
      <!-- https://material.io/icons/#ic_add -->
      <path d="M19 13h-6v6h-2v-6H5v-2h6V5h2v6h6v2z"/>
    </g>
    <g id="icon-add-circle">
      <!-- https://material.io/icons/#ic_add_circle -->
      <path d="M12 2C6.48 2 2 6.48 2 12s4.48 10 10 10 10-4.48 10-10S17.52 2 12 2zm5 11h-4v4h-2v-4H7v-2h4V7h2v4h4v2z"/>
    </g>
    <g id="icon-add-box">
      <!-- https://material.io/icons/#ic_add_box -->
      <path d="M19 3H5c-1.11 0-2 .9-2 2v14c0 1.1.89 2 2 2h14c1.1 0 2-.9 2-2V5c0-1.1-.9-2-2-2zm-2 10h-4v4h-2v-4H7v-2h4V7h2v4h4v2z"/>
    </g>

    <g id="icon-settings">
      <!-- https://material.io/icons/#ic_settings -->
      <path d="M19.43 12.98c.04-.32.07-.64.07-.98s-.03-.66-.07-.98l2.11-1.65c.19-.15.24-.42.12-.64l-2-3.46c-.12-.22-.39-.3-.61-.22l-2.49 1c-.52-.4-1.08-.73-1.69-.98l-.38-2.65C14.46 2.18 14.25 2 14 2h-4c-.25 0-.46.18-.49.42l-.38 2.65c-.61.25-1.17.59-1.69.98l-2.49-1c-.23-.09-.49 0-.61.22l-2 3.46c-.13.22-.07.49.12.64l2.11 1.65c-.04.32-.07.65-.07.98s.03.66.07.98l-2.11 1.65c-.19.15-.24.42-.12.64l2 3.46c.12.22.39.3.61.22l2.49-1c.52.4 1.08.73 1.69.98l.38 2.65c.03.24.24.42.49.42h4c.25 0 .46-.18.49-.42l.38-2.65c.61-.25 1.17-.59 1.69-.98l2.49 1c.23.09.49 0 .61-.22l2-3.46c.12-.22.07-.49-.12-.64l-2.11-1.65zM12 15.5c-1.93 0-3.5-1.57-3.5-3.5s1.57-3.5 3.5-3.5 3.5 1.57 3.5 3.5-1.57 3.5-3.5 3.5z"/>
    </g>
    <g id="icon-drop-up">
      <!-- https://material.io/icons/#ic_arrow_drop_up -->
      <path d="M7 14l5-5 5 5z"/>
    </g>
    <g id="icon-drop-down">
      <!-- https://material.io/icons/#ic_arrow_drop_down -->
      <path d="M7 10l5 5 5-5z"/>
    </g>
    <g id="icon-people">
      <!-- https://material.io/icons/#ic_people -->
      <path d="M16 11c1.66 0 2.99-1.34 2.99-3S17.66 5 16 5c-1.66 0-3 1.34-3 3s1.34 3 3 3zm-8 0c1.66 0 2.99-1.34 2.99-3S9.66 5 8 5C6.34 5 5 6.34 5 8s1.34 3 3 3zm0 2c-2.33 0-7 1.17-7 3.5V19h14v-2.5c0-2.33-4.67-3.5-7-3.5zm8 0c-.29 0-.62.02-.97.05 1.16.84 1.97 1.97 1.97 3.45V19h6v-2.5c0-2.33-4.67-3.5-7-3.5z"/>
    </g>
    <g id="icon-list-bulleted">
      <!-- https://material.io/icons/#ic_format_list_bulleted -->
      <path d="M4 10.5c-.83 0-1.5.67-1.5 1.5s.67 1.5 1.5 1.5 1.5-.67 1.5-1.5-.67-1.5-1.5-1.5zm0-6c-.83 0-1.5.67-1.5 1.5S3.17 7.5 4 7.5 5.5 6.83 5.5 6 4.83 4.5 4 4.5zm0 12c-.83 0-1.5.68-1.5 1.5s.68 1.5 1.5 1.5 1.5-.68 1.5-1.5-.67-1.5-1.5-1.5zM7 19h14v-2H7v2zm0-6h14v-2H7v2zm0-8v2h14V5H7z"/>
    </g>
    <g id="icon-layers">
      <!-- https://material.io/icons/#ic_layers -->
      <path d="M11.99 18.54l-7.37-5.73L3 14.07l9 7 9-7-1.63-1.27-7.38 5.74zM12 16l7.36-5.73L21 9l-9-7-9 7 1.63 1.27L12 16z"/>
    </g>
    <g id="icon-no">
      <!-- https://material.io/icons/#ic_not_interested -->
      <path d="M12 2C6.48 2 2 6.48 2 12s4.48 10 10 10 10-4.48 10-10S17.52 2 12 2zm0 18c-4.42 0-8-3.58-8-8 0-1.85.63-3.55 1.69-4.9L16.9 18.31C15.55 19.37 13.85 20 12 20zm6.31-3.1L7.1 5.69C8.45 4.63 10.15 4 12 4c4.42 0 8 3.58 8 8 0 1.85-.63 3.55-1.69 4.9z"/>
    </g>
    <g id="icon-link">
      <!-- https://material.io/icons/#ic_link -->
      <path d="M3.9 12c0-1.71 1.39-3.1 3.1-3.1h4V7H7c-2.76 0-5 2.24-5 5s2.24 5 5 5h4v-1.9H7c-1.71 0-3.1-1.39-3.1-3.1zM8 13h8v-2H8v2zm9-6h-4v1.9h4c1.71 0 3.1 1.39 3.1 3.1s-1.39 3.1-3.1 3.1h-4V17h4c2.76 0 5-2.24 5-5s-2.24-5-5-5z"/>
    </g>
    <g id="icon-copy">
      <!-- https://material.io/icons/#ic_content_copy -->
      <path d="M16 1H4c-1.1 0-2 .9-2 2v14h2V3h12V1zm3 4H8c-1.1 0-2 .9-2 2v14c0 1.1.9 2 2 2h11c1.1 0 2-.9 2-2V7c0-1.1-.9-2-2-2zm0 16H8V7h11v14z"/>
    </g>
    <g id="icon-public">
      <!-- https://material.io/icons/#ic_public -->
      <path d="M12 2C6.48 2 2 6.48 2 12s4.48 10 10 10 10-4.48 10-10S17.52 2 12 2zm-1 17.93c-3.95-.49-7-3.85-7-7.93 0-.62.08-1.21.21-1.79L9 15v1c0 1.1.9 2 2 2v1.93zm6.9-2.54c-.26-.81-1-1.39-1.9-1.39h-1v-3c0-.55-.45-1-1-1H8v-2h2c.55 0 1-.45 1-1V7h2c1.1 0 2-.9 2-2v-.41c2.93 1.19 5 4.06 5 7.41 0 2.08-.8 3.97-2.1 5.39z"/>
    </g>
    <g id="icon-warning">
      <!-- https://material.io/icons/#ic_warning -->
      <path d="M1 21h22L12 2 1 21zm12-3h-2v-2h2v2zm0-4h-2v-4h2v4z"/>
    </g>
    <g id="icon-lock">
      <!-- https://material.io/icons/#ic_lock -->
      <path d="M18 8h-1V6c0-2.76-2.24-5-5-5S7 3.24 7 6v2H6c-1.1 0-2 .9-2 2v10c0 1.1.9 2 2 2h12c1.1 0 2-.9 2-2V10c0-1.1-.9-2-2-2zm-6 9c-1.1 0-2-.9-2-2s.9-2 2-2 2 .9 2 2-.9 2-2 2zm3.1-9H8.9V6c0-1.71 1.39-3.1 3.1-3.1 1.71 0 3.1 1.39 3.1 3.1v2z"/>
    </g>
    <g id="icon-docker">
      <path d="M13.5742702,10.8108026 L16.0522901,10.8108026 L16.0522901,8.51347814 L13.5742702,8.51347814 L13.5742702,10.8108026 Z M10.6455846,10.8108026 L13.1237032,10.8108026 L13.1237032,8.51347814 L10.6455846,8.51347814 L10.6455846,10.8108026 Z M7.71699771,10.8108026 L10.1950176,10.8108026 L10.1950176,8.51347814 L7.71699771,8.51347814 L7.71699771,10.8108026 Z M4.78831211,10.8108026 L7.2664307,10.8108026 L7.2664307,8.51347814 L4.78831211,8.51347814 L4.78831211,10.8108026 Z M1.85962651,10.8108026 L4.33774509,10.8108026 L4.33774509,8.51347814 L1.85962651,8.51347814 L1.85962651,10.8108026 Z M4.78831211,8.05401324 L7.2664307,8.05401324 L7.2664307,5.75678941 L4.78831211,5.75678941 L4.78831211,8.05401324 Z M7.71699771,8.05401324 L10.1950176,8.05401324 L10.1950176,5.75678941 L7.71699771,5.75678941 L7.71699771,8.05401324 Z M10.6455846,8.05401324 L13.1237032,8.05401324 L13.1237032,5.75678941 L10.6455846,5.75678941 L10.6455846,8.05401324 Z M10.6455846,5.29732451 L13.1237032,5.29732451 L13.1237032,3 L10.6455846,3 L10.6455846,5.29732451 Z M24,9.8117383 L23.4996771,9.47126716 C22.9582859,9.10210463 21.7150803,8.96680208 20.7579709,9.15082965 C20.6347659,8.23169851 20.1323699,7.43468194 19.2186981,6.71427641 L18.6932999,6.35709379 L18.3428369,6.8932704 C17.8940469,7.5833738 17.6698493,8.5394514 17.7432985,9.45636777 C17.7763703,9.77881871 17.8803246,10.3557673 18.2058108,10.8629505 C17.880522,11.0412398 17.2375459,11.2867777 16.3902153,11.2702675 L0.092503462,11.2702675 L0.0606162696,11.4616441 C-0.092600209,12.3830907 -0.0892436624,15.2583705 1.7413576,17.4684128 C3.13294232,19.1482181 5.21923346,20 7.9421825,20 C13.845262,20 18.2125239,17.2290159 20.257648,12.1921168 C21.0618371,12.2085263 22.793519,12.1969491 23.6830038,10.4638885 C23.7061047,10.4241233 23.7595133,10.3201296 23.9149017,9.99183968 L24,9.8117383 L24,9.8117383 Z"></path>
    </g>
    <g id="icon-visibility">
      <!-- https://material.io/icons/#ic_visibility -->
      <path d="M12 4.5C7 4.5 2.73 7.61 1 12c1.73 4.39 6 7.5 11 7.5s9.27-3.11 11-7.5c-1.73-4.39-6-7.5-11-7.5zM12 17c-2.76 0-5-2.24-5-5s2.24-5 5-5 5 2.24 5 5-2.24 5-5 5zm0-8c-1.66 0-3 1.34-3 3s1.34 3 3 3 3-1.34 3-3-1.34-3-3-3z"/>
    </g>
    <g id="icon-visibility-off">
      <!-- https://material.io/icons/#ic_visibility_off -->
      <path d="M12 7c2.76 0 5 2.24 5 5 0 .65-.13 1.26-.36 1.83l2.92 2.92c1.51-1.26 2.7-2.89 3.43-4.75-1.73-4.39-6-7.5-11-7.5-1.4 0-2.74.25-3.98.7l2.16 2.16C10.74 7.13 11.35 7 12 7zM2 4.27l2.28 2.28.46.46C3.08 8.3 1.78 10.02 1 12c1.73 4.39 6 7.5 11 7.5 1.55 0 3.03-.3 4.38-.84l.42.42L19.73 22 21 20.73 3.27 3 2 4.27zM7.53 9.8l1.55 1.55c-.05.21-.08.43-.08.65 0 1.66 1.34 3 3 3 .22 0 .44-.03.65-.08l1.55 1.55c-.67.33-1.41.53-2.2.53-2.76 0-5-2.24-5-5 0-.79.2-1.53.53-2.2zm4.31-.78l3.15 3.15.02-.16c0-1.66-1.34-3-3-3l-.17.01z"/>
    </g>
    <g id="icon-file-upload">
      <!-- https://material.io/icons/#ic_file_upload -->
      <path d="M9 16h6v-6h4l-7-7-7 7h4zm-4 2h14v2H5z"/>
    </g>
    <g id="icon-file-download">
      <!-- https://material.io/icons/#ic_file_download -->
      <path d="M19 9h-4V3H9v6H5l7 7 7-7zM5 18v2h14v-2H5z"/>
    </g>
    <g id="icon-cancel">
      <!-- https://material.io/icons/#ic_cancel -->
      <path d="M12 2C6.47 2 2 6.47 2 12s4.47 10 10 10 10-4.47 10-10S17.53 2 12 2zm5 13.59L15.59 17 12 13.41 8.41 17 7 15.59 10.59 12 7 8.41 8.41 7 12 10.59 15.59 7 17 8.41 13.41 12 17 15.59z"/>
    </g>
    <g id="icon-delete">
      <!-- https://material.io/icons/#ic_delete -->
      <path d="M6 19c0 1.1.9 2 2 2h8c1.1 0 2-.9 2-2V7H6v12zM19 4h-3.5l-1-1h-5l-1 1H5v2h14V4z"/>
    </g>
    <g id="icon-open-in-new">
      <!-- https://material.io/icons/#ic_open_in_new -->
      <path d="M19 19H5V5h7V3H5c-1.11 0-2 .9-2 2v14c0 1.1.89 2 2 2h14c1.1 0 2-.9 2-2v-7h-2v7zM14 3v2h3.59l-9.83 9.83 1.41 1.41L19 6.41V10h2V3h-7z"/>
    </g>
    <g id="icon-info-outline">
      <!-- https://material.io/icons/#ic_info_outline -->
      <path d="M11 17h2v-6h-2v6zm1-15C6.48 2 2 6.48 2 12s4.48 10 10 10 10-4.48 10-10S17.52 2 12 2zm0 18c-4.41 0-8-3.59-8-8s3.59-8 8-8 8 3.59 8 8-3.59 8-8 8zM11 9h2V7h-2v2z"/>
    </g>
  </defs>
</svg>
