<?xml version="1.0" encoding="UTF-8" standalone="no"?>
<svg width="1611px" height="494px" viewBox="0 0 1611 494" version="1.1" xmlns="http://www.w3.org/2000/svg" xmlns:xlink="http://www.w3.org/1999/xlink">
    <!-- Generator: Sketch 3.8.3 (29802) - http://www.bohemiancoding.com/sketch -->
    <title>graphic-arrow-bg</title>
    <desc>Created with Sketch.</desc>
    <defs>
        <path d="M1495.279,107.323166 L301.720995,107.323166 C287.804918,107.323166 276.56434,96.0138131 276.56434,82.0731622 L276.56434,25.2998615 C276.56434,2.80313619 249.42712,-8.45393939 233.599971,7.4384026 L72.375,169.149953 C62.5416667,179.012963 62.5416667,194.992434 72.375,204.855445 L233.599971,366.549569 C249.42712,382.459337 276.56434,371.202261 276.56434,348.705536 L276.56434,291.914809 C276.56434,277.974159 287.804918,266.682231 301.720995,266.682231 L1495.279,266.682231 L1495.279,107.323166 Z" id="path-1"></path>
        <filter x="-50%" y="-50%" width="200%" height="200%" filterUnits="objectBoundingBox" id="filter-2">
            <feOffset dx="2" dy="2" in="SourceAlpha" result="shadowOffsetOuter1"></feOffset>
            <feGaussianBlur stdDeviation="17" in="shadowOffsetOuter1" result="shadowBlurOuter1"></feGaussianBlur>
            <feColorMatrix values="0 0 0 0 0.360784314   0 0 0 0 0.4   0 0 0 0 0.439215686  0 0 0 0.32 0" type="matrix" in="shadowBlurOuter1"></feColorMatrix>
        </filter>
        <linearGradient x1="17.7782709%" y1="45.1492672%" x2="100%" y2="29.2676303%" id="linearGradient-3">
            <stop stop-color="#739382" offset="0%"></stop>
            <stop stop-color="#87B09A" offset="61.330118%"></stop>
            <stop stop-color="#FFFFFF" offset="99.3881537%"></stop>
        </linearGradient>
        <path d="M1491,107.323166 L237.441991,107.323166 C223.525913,107.323166 212.285336,96.0138131 212.285336,82.0731622 L212.285336,25.2998615 C212.285336,2.80313619 185.148115,-8.45393939 169.320966,7.4384026 L8.09599529,169.149953 C-1.73733804,179.012963 -1.73733804,194.992434 8.09599529,204.855445 L169.320966,366.549569 C185.148115,382.459337 212.285336,371.202261 212.285336,348.705536 L212.285336,291.914809 C212.285336,277.974159 223.525913,266.682231 237.441991,266.682231 L1491,266.682231 L1491,107.323166 Z" id="path-4"></path>
        <linearGradient x1="7.43987209%" y1="46.838662%" x2="100%" y2="46.838662%" id="linearGradient-6">
            <stop stop-color="#FFFFFF" offset="0%"></stop>
            <stop stop-color="#FFFFFF" stop-opacity="0" offset="100%"></stop>
        </linearGradient>
    </defs>
    <g id="Symbols" stroke="none" stroke-width="1" fill="none" fill-rule="evenodd">
        <g id="graphic-arrow-bg">
            <g id="Arrow" transform="translate(55.000000, 60.000000)">
                <g id="graphic-arrow-bg">
                    <g id="Mosaic">
                        <g id="Mask-Copy-2" transform="translate(780.139502, 187.000000) scale(-1, 1) translate(-780.139502, -187.000000) " fill-opacity="1" fill="black">
                            <use filter="url(#filter-2)" xlink:href="#path-1"></use>
                        </g>
                        <g id="Combined-Shape" transform="translate(750.500000, 187.000000) scale(-1, 1) translate(-750.500000, -187.000000) translate(5.000000, 0.000000)">
                            <mask id="mask-5" fill="white">
                                <use xlink:href="#path-4"></use>
                            </mask>
                            <use id="Mask-Copy" fill="url(#linearGradient-3)" xlink:href="#path-4"></use>
                            <path d="M325.255449,201.609089 L378.134388,254.488029 C384.602818,260.956458 384.602818,271.444869 378.134388,277.912251 L325.255449,330.792238 C318.787019,337.260667 308.298608,337.260667 301.830179,330.792238 L248.951239,277.912251 C242.48281,271.444869 242.48281,260.956458 248.951239,254.488029 L301.830179,201.609089 C308.298608,195.139612 318.787019,195.139612 325.255449,201.609089 Z M410.384802,288.337115 L463.263741,341.216055 C469.732171,347.684485 469.732171,358.172895 463.263741,364.640277 L410.384802,417.520264 C403.916372,423.988694 393.427962,423.988694 386.959532,417.520264 L334.080592,364.640277 C327.612163,358.172895 327.612163,347.684485 334.080592,341.216055 L386.959532,288.337115 C393.427962,281.867638 403.916372,281.867638 410.384802,288.337115 Z M496.812552,373.964743 L549.691492,426.843683 C556.159921,433.312112 556.159921,443.800523 549.691492,450.267905 L496.812552,503.147892 C490.344122,509.616322 479.855712,509.616322 473.387282,503.147892 L420.508343,450.267905 C414.039913,443.800523 414.039913,433.312112 420.508343,426.843683 L473.387282,373.964743 C479.855712,367.495266 490.344122,367.495266 496.812552,373.964743 Z M410.384802,116.080067 L463.263741,168.959007 C469.732171,175.427436 469.732171,185.915847 463.263741,192.383229 L410.384802,245.263216 C403.916372,251.731646 393.427962,251.731646 386.959532,245.263216 L334.080592,192.383229 C327.612163,185.915847 327.612163,175.427436 334.080592,168.959007 L386.959532,116.080067 C393.427962,109.61059 403.916372,109.61059 410.384802,116.080067 Z M496.680719,202.375985 L549.559659,255.254924 C556.028088,261.723354 556.028088,272.211765 549.559659,278.679146 L496.680719,331.559134 C490.21229,338.027563 479.723879,338.027563 473.25545,331.559134 L420.37651,278.679146 C413.90808,272.211765 413.90808,261.723354 420.37651,255.254924 L473.25545,202.375985 C479.723879,195.906508 490.21229,195.906508 496.680719,202.375985 Z M583.441187,288.337115 L636.320126,341.216055 C642.788556,347.684485 642.788556,358.172895 636.320126,364.640277 L583.441187,417.520264 C576.972757,423.988694 566.484346,423.988694 560.015917,417.520264 L507.136977,364.640277 C500.668548,358.172895 500.668548,347.684485 507.136977,341.216055 L560.015917,288.337115 C566.484346,281.867638 576.972757,281.867638 583.441187,288.337115 Z M496.812552,31.0493202 L549.691492,83.9282599 C556.159921,90.3966893 556.159921,100.8851 549.691492,107.352482 L496.812552,160.232469 C490.344122,166.700899 479.855712,166.700899 473.387282,160.232469 L420.508343,107.352482 C414.039913,100.8851 414.039913,90.3966893 420.508343,83.9282599 L473.387282,31.0493202 C479.855712,24.579843 490.344122,24.579843 496.812552,31.0493202 Z M583.441187,116.080067 L636.320126,168.959007 C642.788556,175.427436 642.788556,185.915847 636.320126,192.383229 L583.441187,245.263216 C576.972757,251.731646 566.484346,251.731646 560.015917,245.263216 L507.136977,192.383229 C500.668548,185.915847 500.668548,175.427436 507.136977,168.959007 L560.015917,116.080067 C566.484346,109.61059 576.972757,109.61059 583.441187,116.080067 Z M668.170871,201.609089 L721.049811,254.488029 C727.518241,260.956458 727.518241,271.444869 721.049811,277.912251 L668.170871,330.792238 C661.702442,337.260667 651.214031,337.260667 644.745602,330.792238 L591.866662,277.912251 C585.398233,271.444869 585.398233,260.956458 591.866662,254.488029 L644.745602,201.609089 C651.214031,195.139612 661.702442,195.139612 668.170871,201.609089 Z" fill-opacity="0.849999964" fill="#87B09A" opacity="0.25" mask="url(#mask-5)"></path>
                        </g>
                        <rect id="Rectangle-22" fill="url(#linearGradient-6)" x="0" y="55" width="273" height="250"></rect>
                    </g>
                    <g id="Mark" transform="translate(1327.000000, 151.000000)">
                        <path d="M30.0857542,68.5714286 L3.00519518,41.5666132 C-0.30797751,38.2632424 -0.30797751,32.9069021 3.00519518,29.6035313 L30.0857542,2.59871589 C33.3983904,-0.704654896 38.7697542,-0.704654896 42.0818538,2.59871589 L69.1629494,29.6035313 C72.4755855,32.9069021 72.4755855,38.2632424 69.1629494,41.5666132 L42.0818538,68.5714286 C38.7697542,71.8747994 33.3983904,71.8747994 30.0857542,68.5714286" id="Shape" fill="#87B09A"></path>
                        <path d="M56.8105831,35.0369181 L51.8314345,30.0716961 C51.3421044,29.5837346 50.5045558,29.929374 50.5045558,30.6201177 L50.5045558,32.3632959 C50.5045558,32.7913323 50.1568739,33.1385768 49.7276369,33.1385768 L47.0009092,33.1385768 C46.5716723,33.1385768 46.2239904,32.7913323 46.2239904,32.3632959 L46.2239904,28.8164794 C46.2239904,28.388443 46.5716723,28.0411985 47.0009092,28.0411985 L47.9189398,28.0411985 C48.6110843,28.0411985 48.9587663,27.2065276 48.4683631,26.718031 L43.4892145,21.752809 C43.1866024,21.4505083 42.694053,21.4505083 42.3903679,21.752809 L37.4112193,26.718031 C36.9213526,27.2065276 37.268498,28.0411985 37.9606426,28.0411985 L39.051441,28.0411985 C39.4806779,28.0411985 39.8278233,28.388443 39.8278233,28.8164794 L39.8278233,32.2953451 C39.8278233,32.7233815 39.4806779,33.070626 39.051441,33.070626 L33.0764627,33.070626 C32.6472257,33.070626 32.2995438,32.7233815 32.2995438,32.2953451 L32.2995438,28.8164794 C32.2995438,28.388443 32.6472257,28.0411985 33.0764627,28.0411985 L34.207502,28.0411985 C34.8996466,28.0411985 35.2473285,27.2065276 34.7569253,26.718031 L29.7777767,21.752809 C29.4740916,21.4505083 28.9820787,21.4505083 28.6783936,21.752809 L23.6997815,26.718031 C23.2099149,27.2065276 23.5565237,28.0411985 24.2492048,28.0411985 L25.1264578,28.0411985 C25.5556948,28.0411985 25.9039133,28.388443 25.9039133,28.8164794 L25.9039133,32.3632959 C25.9039133,32.7913323 25.5556948,33.1385768 25.1264578,33.1385768 L22.4405076,33.1385768 C22.0107341,33.1385768 21.6635888,32.7913323 21.6635888,32.3632959 L21.6635888,30.6201177 C21.6635888,29.929374 20.8255036,29.5837346 20.33671,30.0716961 L15.3575614,35.0369181 C15.0538763,35.3397539 15.0538763,35.8303906 15.3575614,36.1332263 L20.33671,41.0979133 C20.8255036,41.5864098 21.6635888,41.2407705 21.6635888,40.5500268 L21.6635888,38.8063135 C21.6635888,38.3782772 22.0107341,38.0315677 22.4405076,38.0315677 L25.1264578,38.0315677 C25.5556948,38.0315677 25.9039133,38.3782772 25.9039133,38.8063135 L25.9039133,42.3536651 C25.9039133,42.7817014 25.5556948,43.128946 25.1264578,43.128946 L24.2492048,43.128946 C23.5565237,43.128946 23.2093783,43.9636169 23.6997815,44.4515784 L28.6783936,49.4168004 C28.9815422,49.7196362 29.473555,49.7196362 29.7777767,49.4168004 L34.7569253,44.4515784 C35.246792,43.9636169 34.8996466,43.128946 34.207502,43.128946 L33.0764627,43.128946 C32.6472257,43.128946 32.2995438,42.7817014 32.2995438,42.3536651 L32.2995438,38.8598181 C32.2995438,38.4317817 32.6472257,38.0845372 33.0764627,38.0845372 L39.051441,38.0845372 C39.4806779,38.0845372 39.8278233,38.4317817 39.8278233,38.8598181 L39.8278233,42.3536651 C39.8278233,42.7817014 39.4806779,43.128946 39.051441,43.128946 L37.9606426,43.128946 C37.268498,43.128946 36.9208161,43.9636169 37.4112193,44.4515784 L42.3903679,49.4168004 C42.6935165,49.7196362 43.1860659,49.7196362 43.4892145,49.4168004 L48.4683631,44.4515784 C48.9582297,43.9636169 48.6110843,43.128946 47.9189398,43.128946 L47.0009092,43.128946 C46.5716723,43.128946 46.2239904,42.7817014 46.2239904,42.3536651 L46.2239904,38.8063135 C46.2239904,38.3782772 46.5716723,38.0315677 47.0009092,38.0315677 L49.7276369,38.0315677 C50.1568739,38.0315677 50.5045558,38.3782772 50.5045558,38.8063135 L50.5045558,40.5500268 C50.5045558,41.2407705 51.3421044,41.5864098 51.8314345,41.0979133 L56.8105831,36.1332263 C57.1142683,35.8303906 57.1142683,35.3397539 56.8105831,35.0369181" id="Shape" fill="#FFFFFF"></path>
                    </g>
                </g>
                <path d="M1042.312,182 L1042.312,169.418 L1044.436,169.418 L1044.436,174.872 L1050.682,174.872 L1050.682,169.418 L1052.806,169.418 L1052.806,182 L1050.682,182 L1050.682,176.852 L1044.436,176.852 L1044.436,182 L1042.312,182 Z M1057.608,180.776 C1056.708,179.863995 1056.258,178.664007 1056.258,177.176 C1056.258,175.687993 1056.72,174.500004 1057.644,173.612 C1058.568,172.723996 1059.65999,172.28 1060.92,172.28 C1062.18001,172.28 1063.218,172.879994 1064.034,174.08 L1064.034,172.424 L1066.05,172.424 L1066.05,182 L1064.034,182 L1064.034,180.434 C1063.65,180.986003 1063.161,181.408999 1062.567,181.703 C1061.973,181.997001 1061.376,182.144 1060.776,182.144 C1059.56399,182.144 1058.508,181.688005 1057.608,180.776 L1057.608,180.776 Z M1059.156,179.498 C1059.744,180.074003 1060.434,180.362 1061.226,180.362 C1062.018,180.362 1062.69,180.071003 1063.242,179.489 C1063.794,178.906997 1064.07,178.160005 1064.07,177.248 C1064.07,176.335995 1063.794,175.574003 1063.242,174.962 C1062.69,174.349997 1062.012,174.044 1061.208,174.044 C1060.404,174.044 1059.714,174.349997 1059.138,174.962 C1058.562,175.574003 1058.274,176.338995 1058.274,177.257 C1058.274,178.175005 1058.568,178.921997 1059.156,179.498 L1059.156,179.498 Z M1078.25,173.612 C1079.162,174.500004 1079.618,175.681993 1079.618,177.158 C1079.618,178.634007 1079.165,179.833995 1078.259,180.758 C1077.353,181.682005 1076.29701,182.144 1075.091,182.144 C1073.88499,182.144 1072.802,181.616005 1071.842,180.56 L1071.842,182 L1069.826,182 L1069.826,168.644 L1071.842,168.644 L1071.842,174.098 C1072.634,172.885994 1073.67199,172.28 1074.956,172.28 C1076.24001,172.28 1077.338,172.723996 1078.25,173.612 L1078.25,173.612 Z M1072.634,179.471 C1073.186,180.053003 1073.858,180.344 1074.65,180.344 C1075.442,180.344 1076.132,180.056003 1076.72,179.48 C1077.308,178.903997 1077.602,178.157005 1077.602,177.239 C1077.602,176.320995 1077.314,175.559003 1076.738,174.953 C1076.162,174.346997 1075.472,174.044 1074.668,174.044 C1073.864,174.044 1073.186,174.346997 1072.634,174.953 C1072.082,175.559003 1071.806,176.317995 1071.806,177.23 C1071.806,178.142005 1072.082,178.888997 1072.634,179.471 L1072.634,179.471 Z M1084.798,182 L1082.782,182 L1082.782,172.424 L1084.798,172.424 L1084.798,182 Z M1082.53,169.616 C1082.53,169.267998 1082.656,168.968001 1082.908,168.716 C1083.16,168.463999 1083.46,168.338 1083.808,168.338 C1084.156,168.338 1084.456,168.463999 1084.708,168.716 C1084.96,168.968001 1085.086,169.267998 1085.086,169.616 C1085.086,169.964002 1084.96,170.263999 1084.708,170.516 C1084.456,170.768001 1084.156,170.894 1083.808,170.894 C1083.46,170.894 1083.16,170.768001 1082.908,170.516 C1082.656,170.263999 1082.53,169.964002 1082.53,169.616 L1082.53,169.616 Z M1090.5,174.044 L1090.5,178.904 C1090.5,179.360002 1090.62,179.722999 1090.86,179.993 C1091.1,180.263001 1091.436,180.398 1091.868,180.398 C1092.3,180.398 1092.714,180.188002 1093.11,179.768 L1093.938,181.19 C1093.23,181.826003 1092.447,182.144 1091.589,182.144 C1090.731,182.144 1089.999,181.847003 1089.393,181.253 C1088.787,180.658997 1088.484,179.858005 1088.484,178.85 L1088.484,169.418 L1090.5,169.418 L1090.5,172.424 L1093.02,172.424 L1093.02,174.044 L1090.5,174.044 Z M1097.138,180.776 C1096.238,179.863995 1095.788,178.664007 1095.788,177.176 C1095.788,175.687993 1096.25,174.500004 1097.174,173.612 C1098.098,172.723996 1099.18999,172.28 1100.45,172.28 C1101.71001,172.28 1102.748,172.879994 1103.564,174.08 L1103.564,172.424 L1105.58,172.424 L1105.58,182 L1103.564,182 L1103.564,180.434 C1103.18,180.986003 1102.691,181.408999 1102.097,181.703 C1101.503,181.997001 1100.906,182.144 1100.306,182.144 C1099.09399,182.144 1098.038,181.688005 1097.138,180.776 L1097.138,180.776 Z M1098.686,179.498 C1099.274,180.074003 1099.964,180.362 1100.756,180.362 C1101.548,180.362 1102.22,180.071003 1102.772,179.489 C1103.324,178.906997 1103.6,178.160005 1103.6,177.248 C1103.6,176.335995 1103.324,175.574003 1102.772,174.962 C1102.22,174.349997 1101.542,174.044 1100.738,174.044 C1099.934,174.044 1099.244,174.349997 1098.668,174.962 C1098.092,175.574003 1097.804,176.338995 1097.804,177.257 C1097.804,178.175005 1098.098,178.921997 1098.686,179.498 L1098.686,179.498 Z M1111.282,174.044 L1111.282,178.904 C1111.282,179.360002 1111.402,179.722999 1111.642,179.993 C1111.882,180.263001 1112.218,180.398 1112.65,180.398 C1113.082,180.398 1113.496,180.188002 1113.892,179.768 L1114.72,181.19 C1114.012,181.826003 1113.229,182.144 1112.371,182.144 C1111.513,182.144 1110.781,181.847003 1110.175,181.253 C1109.569,180.658997 1109.266,179.858005 1109.266,178.85 L1109.266,169.418 L1111.282,169.418 L1111.282,172.424 L1113.802,172.424 L1113.802,174.044 L1111.282,174.044 Z M1131.398,173.612 C1132.31,174.500004 1132.766,175.681993 1132.766,177.158 C1132.766,178.634007 1132.313,179.833995 1131.407,180.758 C1130.501,181.682005 1129.44501,182.144 1128.239,182.144 C1127.03299,182.144 1125.95,181.616005 1124.99,180.56 L1124.99,185.492 L1122.974,185.492 L1122.974,172.424 L1124.99,172.424 L1124.99,174.098 C1125.782,172.885994 1126.81999,172.28 1128.104,172.28 C1129.38801,172.28 1130.486,172.723996 1131.398,173.612 L1131.398,173.612 Z M1125.782,179.471 C1126.334,180.053003 1127.006,180.344 1127.798,180.344 C1128.59,180.344 1129.28,180.056003 1129.868,179.48 C1130.456,178.903997 1130.75,178.157005 1130.75,177.239 C1130.75,176.320995 1130.462,175.559003 1129.886,174.953 C1129.31,174.346997 1128.62,174.044 1127.816,174.044 C1127.012,174.044 1126.334,174.346997 1125.782,174.953 C1125.23,175.559003 1124.954,176.317995 1124.954,177.23 C1124.954,178.142005 1125.23,178.888997 1125.782,179.471 L1125.782,179.471 Z M1140.718,181.316 C1140.238,181.868003 1139.566,182.144 1138.702,182.144 C1137.838,182.144 1137.145,181.886003 1136.623,181.37 C1136.101,180.853997 1135.84,180.092005 1135.84,179.084 L1135.84,169.418 L1137.856,169.418 L1137.856,178.85 C1137.856,179.810005 1138.216,180.29 1138.936,180.29 C1139.356,180.29 1139.656,180.140002 1139.836,179.84 L1140.718,181.316 Z M1143.72,180.776 C1142.82,179.863995 1142.37,178.664007 1142.37,177.176 C1142.37,175.687993 1142.832,174.500004 1143.756,173.612 C1144.68,172.723996 1145.77199,172.28 1147.032,172.28 C1148.29201,172.28 1149.33,172.879994 1150.146,174.08 L1150.146,172.424 L1152.162,172.424 L1152.162,182 L1150.146,182 L1150.146,180.434 C1149.762,180.986003 1149.273,181.408999 1148.679,181.703 C1148.085,181.997001 1147.488,182.144 1146.888,182.144 C1145.67599,182.144 1144.62,181.688005 1143.72,180.776 L1143.72,180.776 Z M1145.268,179.498 C1145.856,180.074003 1146.546,180.362 1147.338,180.362 C1148.13,180.362 1148.802,180.071003 1149.354,179.489 C1149.906,178.906997 1150.182,178.160005 1150.182,177.248 C1150.182,176.335995 1149.906,175.574003 1149.354,174.962 C1148.802,174.349997 1148.124,174.044 1147.32,174.044 C1146.516,174.044 1145.826,174.349997 1145.25,174.962 C1144.674,175.574003 1144.386,176.338995 1144.386,177.257 C1144.386,178.175005 1144.68,178.921997 1145.268,179.498 L1145.268,179.498 Z M1159.916,183.98 C1161.69201,183.98 1162.58,182.852011 1162.58,180.596 L1162.58,180.002 C1161.776,180.830004 1160.75001,181.244 1159.502,181.244 C1157.01799,181.244 1155.776,179.882014 1155.776,177.158 L1155.776,172.442 L1157.792,172.442 L1157.792,176.258 C1157.792,177.374006 1157.963,178.162998 1158.305,178.625 C1158.647,179.087002 1159.235,179.318 1160.069,179.318 C1160.903,179.318 1161.512,179.105002 1161.896,178.679 C1162.28,178.252998 1162.508,177.608004 1162.58,176.744 L1162.58,172.424 L1164.596,172.424 L1164.596,180.65 C1164.596,182.318008 1164.161,183.595996 1163.291,184.484 C1162.421,185.372004 1161.29601,185.816 1159.916,185.816 C1158.85999,185.816 1157.933,185.564003 1157.135,185.06 C1156.337,184.555997 1155.758,183.836005 1155.398,182.9 L1157.216,182.126 C1157.684,183.362006 1158.58399,183.98 1159.916,183.98 L1159.916,183.98 Z M1174.24,181.325 C1173.58,181.871003 1172.734,182.144 1171.702,182.144 C1171.006,182.144 1170.283,182.018001 1169.533,181.766 C1168.783,181.513999 1168.12,181.160002 1167.544,180.704 L1168.516,179.138 C1169.63201,179.978004 1170.71199,180.398 1171.756,180.398 C1172.212,180.398 1172.572,180.293001 1172.836,180.083 C1173.1,179.872999 1173.232,179.606002 1173.232,179.282 C1173.232,178.801998 1172.59601,178.370002 1171.324,177.986 C1171.228,177.95 1171.156,177.926 1171.108,177.914 C1169.11599,177.373997 1168.12,176.474006 1168.12,175.214 C1168.12,174.325996 1168.465,173.615003 1169.155,173.081 C1169.845,172.546997 1170.74199,172.28 1171.846,172.28 C1172.95001,172.28 1173.99399,172.603997 1174.978,173.252 L1174.222,174.746 C1173.442,174.229997 1172.596,173.972 1171.684,173.972 C1171.204,173.972 1170.814,174.058999 1170.514,174.233 C1170.214,174.407001 1170.064,174.667998 1170.064,175.016 C1170.064,175.328002 1170.22,175.555999 1170.532,175.7 C1170.748,175.808001 1171.051,175.91 1171.441,176.006 C1171.831,176.102 1172.176,176.198 1172.476,176.294 C1172.776,176.39 1173.067,176.497999 1173.349,176.618 C1173.631,176.738001 1173.934,176.905999 1174.258,177.122 C1174.906,177.554002 1175.23,178.225995 1175.23,179.138 C1175.23,180.050005 1174.9,180.778997 1174.24,181.325 L1174.24,181.325 Z M1188.65,182 L1186.346,182 L1183.034,172.424 L1185.122,172.424 L1187.498,179.66 L1189.874,172.424 L1191.962,172.424 L1194.338,179.66 L1196.714,172.424 L1198.802,172.424 L1195.49,182 L1193.186,182 L1190.918,175.448 L1188.65,182 Z M1205.8,172.28 C1207.10801,172.28 1208.194,172.642996 1209.058,173.369 C1209.922,174.095004 1210.36,175.039994 1210.372,176.204 L1210.39,176.24 L1203.406,179.174 C1204.03,179.942004 1204.87899,180.326 1205.953,180.326 C1207.02701,180.326 1207.912,179.906004 1208.608,179.066 L1209.796,180.38 C1208.65599,181.556006 1207.31201,182.144 1205.764,182.144 C1204.40799,182.144 1203.244,181.694005 1202.272,180.794 C1201.3,179.893996 1200.814,178.706007 1200.814,177.23 C1200.814,176.209995 1201.066,175.313004 1201.57,174.539 C1202.074,173.764996 1202.698,173.195002 1203.442,172.829 C1204.186,172.462998 1204.972,172.28 1205.8,172.28 L1205.8,172.28 Z M1202.758,177.266 C1202.758,177.422001 1202.764,177.536 1202.776,177.608 L1208.086,175.322 C1207.678,174.529996 1206.95201,174.134 1205.908,174.134 C1205.116,174.134 1204.393,174.409997 1203.739,174.962 C1203.085,175.514003 1202.758,176.281995 1202.758,177.266 L1202.758,177.266 Z M1218.108,181.316 C1217.628,181.868003 1216.956,182.144 1216.092,182.144 C1215.228,182.144 1214.535,181.886003 1214.013,181.37 C1213.491,180.853997 1213.23,180.092005 1213.23,179.084 L1213.23,169.418 L1215.246,169.418 L1215.246,178.85 C1215.246,179.810005 1215.606,180.29 1216.326,180.29 C1216.746,180.29 1217.046,180.140002 1217.226,179.84 L1218.108,181.316 Z M1225.16,181.316 C1224.68,181.868003 1224.008,182.144 1223.144,182.144 C1222.28,182.144 1221.587,181.886003 1221.065,181.37 C1220.543,180.853997 1220.282,180.092005 1220.282,179.084 L1220.282,169.418 L1222.298,169.418 L1222.298,178.85 C1222.298,179.810005 1222.658,180.29 1223.378,180.29 C1223.798,180.29 1224.098,180.140002 1224.278,179.84 L1225.16,181.316 Z M1237.698,182 L1235.394,182 L1232.082,172.424 L1234.17,172.424 L1236.546,179.66 L1238.922,172.424 L1241.01,172.424 L1243.386,179.66 L1245.762,172.424 L1247.85,172.424 L1244.538,182 L1242.234,182 L1239.966,175.448 L1237.698,182 Z M1252.508,182 L1250.492,182 L1250.492,172.424 L1252.508,172.424 L1252.508,182 Z M1250.24,169.616 C1250.24,169.267998 1250.366,168.968001 1250.618,168.716 C1250.87,168.463999 1251.17,168.338 1251.518,168.338 C1251.866,168.338 1252.166,168.463999 1252.418,168.716 C1252.67,168.968001 1252.796,169.267998 1252.796,169.616 C1252.796,169.964002 1252.67,170.263999 1252.418,170.516 C1252.166,170.768001 1251.866,170.894 1251.518,170.894 C1251.17,170.894 1250.87,170.768001 1250.618,170.516 C1250.366,170.263999 1250.24,169.964002 1250.24,169.616 L1250.24,169.616 Z M1258.21,174.044 L1258.21,178.904 C1258.21,179.360002 1258.33,179.722999 1258.57,179.993 C1258.81,180.263001 1259.146,180.398 1259.578,180.398 C1260.01,180.398 1260.424,180.188002 1260.82,179.768 L1261.648,181.19 C1260.94,181.826003 1260.157,182.144 1259.299,182.144 C1258.441,182.144 1257.709,181.847003 1257.103,181.253 C1256.497,180.658997 1256.194,179.858005 1256.194,178.85 L1256.194,169.418 L1258.21,169.418 L1258.21,172.424 L1260.73,172.424 L1260.73,174.044 L1258.21,174.044 Z M1266.126,176.816 L1266.126,182 L1264.11,182 L1264.11,168.662 L1266.126,168.662 L1266.126,174.17 C1266.414,173.581997 1266.849,173.120002 1267.431,172.784 C1268.013,172.447998 1268.64,172.28 1269.312,172.28 C1270.39201,172.28 1271.265,172.609997 1271.931,173.27 C1272.597,173.930003 1272.93,174.883994 1272.93,176.132 L1272.93,182 L1270.914,182 L1270.914,176.744 C1270.914,174.979991 1270.18201,174.098 1268.718,174.098 C1268.022,174.098 1267.416,174.328998 1266.9,174.791 C1266.384,175.253002 1266.126,175.927996 1266.126,176.816 L1266.126,176.816 Z M1053.1,206.144 C1051.76799,206.144 1050.622,205.691005 1049.662,204.785 C1048.70199,203.878995 1048.222,202.694007 1048.222,201.23 C1048.222,199.765993 1048.72299,198.575005 1049.725,197.657 C1050.727,196.738995 1051.94799,196.28 1053.388,196.28 C1054.82801,196.28 1056.04599,196.777995 1057.042,197.774 L1055.854,199.232 C1055.026,198.511996 1054.192,198.152 1053.352,198.152 C1052.512,198.152 1051.783,198.430997 1051.165,198.989 C1050.547,199.547003 1050.238,200.266996 1050.238,201.149 C1050.238,202.031004 1050.544,202.777997 1051.156,203.39 C1051.768,204.002003 1052.521,204.308 1053.415,204.308 C1054.309,204.308 1055.152,203.900004 1055.944,203.084 L1057.132,204.38 C1055.96799,205.556006 1054.62401,206.144 1053.1,206.144 L1053.1,206.144 Z M1064.49,204.344 C1065.366,204.344 1066.089,204.053003 1066.659,203.471 C1067.229,202.888997 1067.514,202.136005 1067.514,201.212 C1067.514,200.287995 1067.229,199.535003 1066.659,198.953 C1066.089,198.370997 1065.366,198.08 1064.49,198.08 C1063.614,198.08 1062.891,198.370997 1062.321,198.953 C1061.751,199.535003 1061.466,200.287995 1061.466,201.212 C1061.466,202.136005 1061.751,202.888997 1062.321,203.471 C1062.891,204.053003 1063.614,204.344 1064.49,204.344 L1064.49,204.344 Z M1064.49,206.144 C1063.04999,206.144 1061.85,205.667005 1060.89,204.713 C1059.92999,203.758995 1059.45,202.592007 1059.45,201.212 C1059.45,199.831993 1059.92999,198.665005 1060.89,197.711 C1061.85,196.756995 1063.04999,196.28 1064.49,196.28 C1065.93001,196.28 1067.12999,196.756995 1068.09,197.711 C1069.05,198.665005 1069.53,199.831993 1069.53,201.212 C1069.53,202.592007 1069.05,203.758995 1068.09,204.713 C1067.12999,205.667005 1065.93001,206.144 1064.49,206.144 L1064.49,206.144 Z M1074.692,200.816 L1074.692,206 L1072.676,206 L1072.676,196.424 L1074.692,196.424 L1074.692,198.17 C1075.016,197.581997 1075.463,197.120002 1076.033,196.784 C1076.603,196.447998 1077.218,196.28 1077.878,196.28 C1078.95801,196.28 1079.831,196.609997 1080.497,197.27 C1081.163,197.930003 1081.496,198.883994 1081.496,200.132 L1081.496,206 L1079.48,206 L1079.48,200.744 C1079.48,198.979991 1078.74801,198.098 1077.284,198.098 C1076.588,198.098 1075.982,198.328998 1075.466,198.791 C1074.95,199.253002 1074.692,199.927996 1074.692,200.816 L1074.692,200.816 Z M1087.09,198.044 L1087.09,202.904 C1087.09,203.360002 1087.21,203.722999 1087.45,203.993 C1087.69,204.263001 1088.026,204.398 1088.458,204.398 C1088.89,204.398 1089.304,204.188002 1089.7,203.768 L1090.528,205.19 C1089.82,205.826003 1089.037,206.144 1088.179,206.144 C1087.321,206.144 1086.589,205.847003 1085.983,205.253 C1085.377,204.658997 1085.074,203.858005 1085.074,202.85 L1085.074,193.418 L1087.09,193.418 L1087.09,196.424 L1089.61,196.424 L1089.61,198.044 L1087.09,198.044 Z M1093.728,204.776 C1092.828,203.863995 1092.378,202.664007 1092.378,201.176 C1092.378,199.687993 1092.84,198.500004 1093.764,197.612 C1094.688,196.723996 1095.77999,196.28 1097.04,196.28 C1098.30001,196.28 1099.338,196.879994 1100.154,198.08 L1100.154,196.424 L1102.17,196.424 L1102.17,206 L1100.154,206 L1100.154,204.434 C1099.77,204.986003 1099.281,205.408999 1098.687,205.703 C1098.093,205.997001 1097.496,206.144 1096.896,206.144 C1095.68399,206.144 1094.628,205.688005 1093.728,204.776 L1093.728,204.776 Z M1095.276,203.498 C1095.864,204.074003 1096.554,204.362 1097.346,204.362 C1098.138,204.362 1098.81,204.071003 1099.362,203.489 C1099.914,202.906997 1100.19,202.160005 1100.19,201.248 C1100.19,200.335995 1099.914,199.574003 1099.362,198.962 C1098.81,198.349997 1098.132,198.044 1097.328,198.044 C1096.524,198.044 1095.834,198.349997 1095.258,198.962 C1094.682,199.574003 1094.394,200.338995 1094.394,201.257 C1094.394,202.175005 1094.688,202.921997 1095.276,203.498 L1095.276,203.498 Z M1107.962,206 L1105.946,206 L1105.946,196.424 L1107.962,196.424 L1107.962,206 Z M1105.694,193.616 C1105.694,193.267998 1105.82,192.968001 1106.072,192.716 C1106.324,192.463999 1106.624,192.338 1106.972,192.338 C1107.32,192.338 1107.62,192.463999 1107.872,192.716 C1108.124,192.968001 1108.25,193.267998 1108.25,193.616 C1108.25,193.964002 1108.124,194.263999 1107.872,194.516 C1107.62,194.768001 1107.32,194.894 1106.972,194.894 C1106.624,194.894 1106.324,194.768001 1106.072,194.516 C1105.82,194.263999 1105.694,193.964002 1105.694,193.616 L1105.694,193.616 Z M1113.754,200.816 L1113.754,206 L1111.738,206 L1111.738,196.424 L1113.754,196.424 L1113.754,198.17 C1114.078,197.581997 1114.525,197.120002 1115.095,196.784 C1115.665,196.447998 1116.28,196.28 1116.94,196.28 C1118.02001,196.28 1118.893,196.609997 1119.559,197.27 C1120.225,197.930003 1120.558,198.883994 1120.558,200.132 L1120.558,206 L1118.542,206 L1118.542,200.744 C1118.542,198.979991 1117.81001,198.098 1116.346,198.098 C1115.65,198.098 1115.044,198.328998 1114.528,198.791 C1114.012,199.253002 1113.754,199.927996 1113.754,200.816 L1113.754,200.816 Z M1128.582,196.28 C1129.89001,196.28 1130.976,196.642996 1131.84,197.369 C1132.704,198.095004 1133.142,199.039994 1133.154,200.204 L1133.172,200.24 L1126.188,203.174 C1126.812,203.942004 1127.66099,204.326 1128.735,204.326 C1129.80901,204.326 1130.694,203.906004 1131.39,203.066 L1132.578,204.38 C1131.43799,205.556006 1130.09401,206.144 1128.546,206.144 C1127.18999,206.144 1126.026,205.694005 1125.054,204.794 C1124.08199,203.893996 1123.596,202.706007 1123.596,201.23 C1123.596,200.209995 1123.848,199.313004 1124.352,198.539 C1124.856,197.764996 1125.48,197.195002 1126.224,196.829 C1126.968,196.462998 1127.754,196.28 1128.582,196.28 L1128.582,196.28 Z M1125.54,201.266 C1125.54,201.422001 1125.546,201.536 1125.558,201.608 L1130.868,199.322 C1130.46,198.529996 1129.73401,198.134 1128.69,198.134 C1127.898,198.134 1127.175,198.409997 1126.521,198.962 C1125.867,199.514003 1125.54,200.281995 1125.54,201.266 L1125.54,201.266 Z M1141.124,198.314 C1140.12799,198.314 1139.378,198.637997 1138.874,199.286 C1138.37,199.934003 1138.118,200.803995 1138.118,201.896 L1138.118,206 L1136.102,206 L1136.102,196.424 L1138.118,196.424 L1138.118,198.35 C1138.442,197.749997 1138.883,197.258002 1139.441,196.874 C1139.999,196.489998 1140.59,196.292 1141.214,196.28 L1141.232,198.314 L1141.124,198.314 L1141.124,198.314 Z M1151.826,198.044 L1151.826,202.904 C1151.826,203.360002 1151.946,203.722999 1152.186,203.993 C1152.426,204.263001 1152.762,204.398 1153.194,204.398 C1153.626,204.398 1154.04,204.188002 1154.436,203.768 L1155.264,205.19 C1154.556,205.826003 1153.773,206.144 1152.915,206.144 C1152.057,206.144 1151.325,205.847003 1150.719,205.253 C1150.113,204.658997 1149.81,203.858005 1149.81,202.85 L1149.81,193.418 L1151.826,193.418 L1151.826,196.424 L1154.346,196.424 L1154.346,198.044 L1151.826,198.044 Z M1162.082,196.28 C1163.39001,196.28 1164.476,196.642996 1165.34,197.369 C1166.204,198.095004 1166.642,199.039994 1166.654,200.204 L1166.672,200.24 L1159.688,203.174 C1160.312,203.942004 1161.16099,204.326 1162.235,204.326 C1163.30901,204.326 1164.194,203.906004 1164.89,203.066 L1166.078,204.38 C1164.93799,205.556006 1163.59401,206.144 1162.046,206.144 C1160.68999,206.144 1159.526,205.694005 1158.554,204.794 C1157.58199,203.893996 1157.096,202.706007 1157.096,201.23 C1157.096,200.209995 1157.348,199.313004 1157.852,198.539 C1158.356,197.764996 1158.98,197.195002 1159.724,196.829 C1160.468,196.462998 1161.254,196.28 1162.082,196.28 L1162.082,196.28 Z M1159.04,201.266 C1159.04,201.422001 1159.046,201.536 1159.058,201.608 L1164.368,199.322 C1163.96,198.529996 1163.23401,198.134 1162.19,198.134 C1161.398,198.134 1160.675,198.409997 1160.021,198.962 C1159.367,199.514003 1159.04,200.281995 1159.04,201.266 L1159.04,201.266 Z M1173.85,206.144 C1172.51799,206.144 1171.372,205.691005 1170.412,204.785 C1169.452,203.878995 1168.972,202.694007 1168.972,201.23 C1168.972,199.765993 1169.47299,198.575005 1170.475,197.657 C1171.477,196.738995 1172.69799,196.28 1174.138,196.28 C1175.57801,196.28 1176.79599,196.777995 1177.792,197.774 L1176.604,199.232 C1175.776,198.511996 1174.942,198.152 1174.102,198.152 C1173.262,198.152 1172.533,198.430997 1171.915,198.989 C1171.297,199.547003 1170.988,200.266996 1170.988,201.149 C1170.988,202.031004 1171.294,202.777997 1171.906,203.39 C1172.518,204.002003 1173.271,204.308 1174.165,204.308 C1175.059,204.308 1175.902,203.900004 1176.694,203.084 L1177.882,204.38 C1176.71799,205.556006 1175.37401,206.144 1173.85,206.144 L1173.85,206.144 Z M1182.846,200.816 L1182.846,206 L1180.83,206 L1180.83,192.662 L1182.846,192.662 L1182.846,198.17 C1183.134,197.581997 1183.569,197.120002 1184.151,196.784 C1184.733,196.447998 1185.36,196.28 1186.032,196.28 C1187.11201,196.28 1187.985,196.609997 1188.651,197.27 C1189.317,197.930003 1189.65,198.883994 1189.65,200.132 L1189.65,206 L1187.634,206 L1187.634,200.744 C1187.634,198.979991 1186.90201,198.098 1185.438,198.098 C1184.742,198.098 1184.136,198.328998 1183.62,198.791 C1183.104,199.253002 1182.846,199.927996 1182.846,200.816 L1182.846,200.816 Z M1195.334,200.816 L1195.334,206 L1193.318,206 L1193.318,196.424 L1195.334,196.424 L1195.334,198.17 C1195.658,197.581997 1196.105,197.120002 1196.675,196.784 C1197.245,196.447998 1197.86,196.28 1198.52,196.28 C1199.60001,196.28 1200.473,196.609997 1201.139,197.27 C1201.805,197.930003 1202.138,198.883994 1202.138,200.132 L1202.138,206 L1200.122,206 L1200.122,200.744 C1200.122,198.979991 1199.39001,198.098 1197.926,198.098 C1197.23,198.098 1196.624,198.328998 1196.108,198.791 C1195.592,199.253002 1195.334,199.927996 1195.334,200.816 L1195.334,200.816 Z M1210.216,204.344 C1211.092,204.344 1211.815,204.053003 1212.385,203.471 C1212.955,202.888997 1213.24,202.136005 1213.24,201.212 C1213.24,200.287995 1212.955,199.535003 1212.385,198.953 C1211.815,198.370997 1211.092,198.08 1210.216,198.08 C1209.34,198.08 1208.617,198.370997 1208.047,198.953 C1207.477,199.535003 1207.192,200.287995 1207.192,201.212 C1207.192,202.136005 1207.477,202.888997 1208.047,203.471 C1208.617,204.053003 1209.34,204.344 1210.216,204.344 L1210.216,204.344 Z M1210.216,206.144 C1208.77599,206.144 1207.576,205.667005 1206.616,204.713 C1205.656,203.758995 1205.176,202.592007 1205.176,201.212 C1205.176,199.831993 1205.656,198.665005 1206.616,197.711 C1207.576,196.756995 1208.77599,196.28 1210.216,196.28 C1211.65601,196.28 1212.856,196.756995 1213.816,197.711 C1214.776,198.665005 1215.256,199.831993 1215.256,201.212 C1215.256,202.592007 1214.776,203.758995 1213.816,204.713 C1212.856,205.667005 1211.65601,206.144 1210.216,206.144 L1210.216,206.144 Z M1223.19,205.316 C1222.71,205.868003 1222.038,206.144 1221.174,206.144 C1220.31,206.144 1219.617,205.886003 1219.095,205.37 C1218.573,204.853997 1218.312,204.092005 1218.312,203.084 L1218.312,193.418 L1220.328,193.418 L1220.328,202.85 C1220.328,203.810005 1220.688,204.29 1221.408,204.29 C1221.828,204.29 1222.128,204.140001 1222.308,203.84 L1223.19,205.316 Z M1229.864,204.344 C1230.74,204.344 1231.463,204.053003 1232.033,203.471 C1232.603,202.888997 1232.888,202.136005 1232.888,201.212 C1232.888,200.287995 1232.603,199.535003 1232.033,198.953 C1231.463,198.370997 1230.74,198.08 1229.864,198.08 C1228.988,198.08 1228.265,198.370997 1227.695,198.953 C1227.125,199.535003 1226.84,200.287995 1226.84,201.212 C1226.84,202.136005 1227.125,202.888997 1227.695,203.471 C1228.265,204.053003 1228.988,204.344 1229.864,204.344 L1229.864,204.344 Z M1229.864,206.144 C1228.42399,206.144 1227.224,205.667005 1226.264,204.713 C1225.304,203.758995 1224.824,202.592007 1224.824,201.212 C1224.824,199.831993 1225.304,198.665005 1226.264,197.711 C1227.224,196.756995 1228.42399,196.28 1229.864,196.28 C1231.30401,196.28 1232.504,196.756995 1233.464,197.711 C1234.424,198.665005 1234.904,199.831993 1234.904,201.212 C1234.904,202.592007 1234.424,203.758995 1233.464,204.713 C1232.504,205.667005 1231.30401,206.144 1229.864,206.144 L1229.864,206.144 Z M1242.226,208.034 C1244.00201,208.034 1244.89,206.888011 1244.89,204.596 L1244.89,204.056 C1244.626,204.476002 1244.209,204.832999 1243.639,205.127 C1243.069,205.421001 1242.46,205.568 1241.812,205.568 C1240.53999,205.568 1239.496,205.124004 1238.68,204.236 C1237.864,203.347996 1237.456,202.244007 1237.456,200.924 C1237.456,199.603993 1237.864,198.500004 1238.68,197.612 C1239.496,196.723996 1240.52499,196.28 1241.767,196.28 C1243.00901,196.28 1244.05,196.711996 1244.89,197.576 L1244.89,196.424 L1246.906,196.424 L1246.906,204.65 C1246.906,206.318008 1246.471,207.595996 1245.601,208.484 C1244.731,209.372004 1243.60601,209.816 1242.226,209.816 C1241.16999,209.816 1240.243,209.564003 1239.445,209.06 C1238.647,208.555997 1238.068,207.836005 1237.708,206.9 L1239.472,206.144 C1239.952,207.404006 1240.86999,208.034 1242.226,208.034 L1242.226,208.034 Z M1240.165,202.877 C1240.651,203.447003 1241.305,203.732 1242.127,203.732 C1242.949,203.732 1243.615,203.456003 1244.125,202.904 C1244.635,202.351997 1244.89,201.665004 1244.89,200.843 C1244.89,200.020996 1244.632,199.325003 1244.116,198.755 C1243.6,198.184997 1242.934,197.9 1242.118,197.9 C1241.302,197.9 1240.651,198.193997 1240.165,198.782 C1239.679,199.370003 1239.436,200.056996 1239.436,200.843 C1239.436,201.629004 1239.679,202.306997 1240.165,202.877 L1240.165,202.877 Z M1252.698,206 L1250.682,206 L1250.682,196.424 L1252.698,196.424 L1252.698,206 Z M1250.43,193.616 C1250.43,193.267998 1250.556,192.968001 1250.808,192.716 C1251.06,192.463999 1251.36,192.338 1251.708,192.338 C1252.056,192.338 1252.356,192.463999 1252.608,192.716 C1252.86,192.968001 1252.986,193.267998 1252.986,193.616 C1252.986,193.964002 1252.86,194.263999 1252.608,194.516 C1252.356,194.768001 1252.056,194.894 1251.708,194.894 C1251.36,194.894 1251.06,194.768001 1250.808,194.516 C1250.556,194.263999 1250.43,193.964002 1250.43,193.616 L1250.43,193.616 Z M1260.83,196.28 C1262.13801,196.28 1263.224,196.642996 1264.088,197.369 C1264.952,198.095004 1265.39,199.039994 1265.402,200.204 L1265.42,200.24 L1258.436,203.174 C1259.06,203.942004 1259.90899,204.326 1260.983,204.326 C1262.05701,204.326 1262.942,203.906004 1263.638,203.066 L1264.826,204.38 C1263.68599,205.556006 1262.34201,206.144 1260.794,206.144 C1259.43799,206.144 1258.274,205.694005 1257.302,204.794 C1256.33,203.893996 1255.844,202.706007 1255.844,201.23 C1255.844,200.209995 1256.096,199.313004 1256.6,198.539 C1257.104,197.764996 1257.728,197.195002 1258.472,196.829 C1259.216,196.462998 1260.002,196.28 1260.83,196.28 L1260.83,196.28 Z M1257.788,201.266 C1257.788,201.422001 1257.794,201.536 1257.806,201.608 L1263.116,199.322 C1262.708,198.529996 1261.98201,198.134 1260.938,198.134 C1260.146,198.134 1259.423,198.409997 1258.769,198.962 C1258.115,199.514003 1257.788,200.281995 1257.788,201.266 L1257.788,201.266 Z M1274.182,205.325 C1273.522,205.871003 1272.67601,206.144 1271.644,206.144 C1270.948,206.144 1270.225,206.018001 1269.475,205.766 C1268.725,205.513999 1268.062,205.160002 1267.486,204.704 L1268.458,203.138 C1269.57401,203.978004 1270.65399,204.398 1271.698,204.398 C1272.154,204.398 1272.514,204.293001 1272.778,204.083 C1273.042,203.872999 1273.174,203.606002 1273.174,203.282 C1273.174,202.801998 1272.53801,202.370002 1271.266,201.986 C1271.17,201.95 1271.098,201.926 1271.05,201.914 C1269.05799,201.373997 1268.062,200.474006 1268.062,199.214 C1268.062,198.325996 1268.407,197.615003 1269.097,197.081 C1269.787,196.546997 1270.68399,196.28 1271.788,196.28 C1272.89201,196.28 1273.936,196.603997 1274.92,197.252 L1274.164,198.746 C1273.384,198.229997 1272.538,197.972 1271.626,197.972 C1271.146,197.972 1270.756,198.058999 1270.456,198.233 C1270.156,198.407001 1270.006,198.667998 1270.006,199.016 C1270.006,199.328002 1270.162,199.555999 1270.474,199.7 C1270.69,199.808001 1270.993,199.91 1271.383,200.006 C1271.773,200.102 1272.118,200.198 1272.418,200.294 C1272.718,200.39 1273.009,200.497999 1273.291,200.618 C1273.573,200.738001 1273.876,200.905999 1274.2,201.122 C1274.848,201.554002 1275.172,202.225995 1275.172,203.138 C1275.172,204.050005 1274.842,204.778997 1274.182,205.325 L1274.182,205.325 Z" id="Habitat-plays-well-w" fill="#FFFFFF"></path>
            </g>
        </g>
    </g>
</svg>