<?xml version="1.0" encoding="UTF-8"?>
<svg width="376px" height="143px" viewBox="0 0 376 143" version="1.1" xmlns="http://www.w3.org/2000/svg" xmlns:xlink="http://www.w3.org/1999/xlink">
    <!-- Generator: Sketch 47.1 (45422) - http://www.bohemiancoding.com/sketch -->
    <title>illustration</title>
    <desc>Created with Sketch.</desc>
    <defs>
        <linearGradient x1="49.9973796%" y1="100%" x2="49.9973796%" y2="-0.400641026%" id="linearGradient-1">
            <stop stop-color="#2F789F" offset="0%"></stop>
            <stop stop-color="#70C2B2" offset="100%"></stop>
        </linearGradient>
        <linearGradient x1="218.633373%" y1="14845%" x2="606.259127%" y2="4777%" id="linearGradient-2">
            <stop stop-color="#2F789F" offset="0%"></stop>
            <stop stop-color="#70C2B2" offset="100%"></stop>
        </linearGradient>
        <polygon id="path-3" points="0.000747280905 18.4744446 21.0987706 18.4744446 21.0987706 0.108812403 0.000747280905 0.108812403"></polygon>
        <polygon id="path-5" points="0 34.5966149 21.0994763 34.5966149 21.0994763 0 0 0"></polygon>
        <polygon id="path-7" points="0.000747280905 18.4744446 21.0987706 18.4744446 21.0987706 0.108812403 0.000747280905 0.108812403"></polygon>
        <polygon id="path-9" points="0 34.5966149 21.0994763 34.5966149 21.0994763 0 0 0"></polygon>
        <polygon id="path-11" points="0.000747280905 18.4744446 21.0987706 18.4744446 21.0987706 0.108812403 0.000747280905 0.108812403"></polygon>
        <polygon id="path-13" points="0 34.5966149 21.0994763 34.5966149 21.0994763 0 0 0"></polygon>
    </defs>
    <g id="Habitat-Web-App/Origins" stroke="none" stroke-width="1" fill="none" fill-rule="evenodd">
        <g id="docs-with-download-link" transform="translate(-401.000000, -189.000000)">
            <g id="illustration" transform="translate(401.000000, 189.000000)">
                <path d="M5.65429688,0 L370.125,0 L370.125,0 C372.886424,-5.07265313e-16 375.125,2.23857625 375.125,5 L375.125,130.5 L375.125,130.5 C375.125,133.261424 372.886424,135.5 370.125,135.5 L5.65429688,135.5 L5.65429688,135.5 C2.89287313,135.5 0.654296875,133.261424 0.654296875,130.5 L0.654296875,5 L0.654296875,5 C0.654296875,2.23857625 2.89287313,7.61269267e-15 5.65429687,7.10542736e-15 Z" id="terminal-bg" fill="#243442" transform="translate(187.889648, 67.750000) scale(-1, 1) translate(-187.889648, -67.750000) "></path>
                <g id="control" transform="translate(8.865842, 10.415117)" fill="#627B8F">
                    <g id="Group-5" transform="translate(0.443359, 0.687500)">
                        <ellipse id="Oval-3" cx="3.75901696" cy="3.80809029" rx="3.75901696" ry="3.80809029"></ellipse>
                        <ellipse id="Oval-3-Copy" cx="15.6068224" cy="3.80809029" rx="3.75901696" ry="3.80809029"></ellipse>
                        <ellipse id="Oval-3-Copy-2" cx="27.4546278" cy="3.80809029" rx="3.75901696" ry="3.80809029"></ellipse>
                    </g>
                </g>
                <text id="#-Your-fastest-path" font-family="SourceCodePro-Medium, Source Code Pro" font-size="14" font-weight="400" fill="#FFFFFF">
                    <tspan x="23.8658422" y="48.906"># Your fastest path from </tspan>
                    <tspan x="23.8658422" y="66.906">Code to Cloud Native. </tspan>
                </text>
                <g id="Group-2" transform="translate(244.865842, 26.000000)">
                    <g id="supervise" fill-rule="nonzero">
                        <polygon id="Shape" fill="url(#linearGradient-1)" points="106.727183 96.9203812 96.8639905 92.826226 87.7575968 94.7554415 77.3919402 93.9117974 71.0708126 94.7554415 65.5064835 95.841013 59.9421544 95.2206864 46.0282299 95.6052889 35.1539055 93.06195 28.5784441 95.2206864 20.7375165 93.831155 18.9695858 97.149902 4.04452909 99.0791176 0.254333885 100.543088 0 105.871693 7.08412918 109.109798 11.8854567 112.658066 27.8216457 113.507913 51.592559 116.051252 64.7434818 115.747292 75.6240095 113.892516 81.4364693 115.052526 87.0007984 113.433474 89.7860646 113.433474 97.8751228 113.19775 107.992649 111.578698 110.269247 110.418687 113.302644 106.870419 116.844709 104.016917 118.364509 99.8483225"></polygon>
                        <polygon id="Shape" fill="url(#linearGradient-2)" points="106.727183 92.6339247 96.8639905 88.5459728 87.7575968 90.4751883 77.3919402 89.625341 71.0708126 90.4751883 65.5064835 91.5545565 59.9421544 90.9404332 46.0282299 91.3250357 35.1539055 88.7754936 28.5784441 90.9404332 20.7375165 89.5509018 18.9695858 92.8696488 4.04452909 94.7988644 0.254333885 96.262835 0 101.585237 7.08412918 104.829545 11.8854567 108.377813 27.8216457 109.22766 51.592559 111.770999 64.7434818 111.460835 75.6240095 109.612262 81.4364693 110.76607 87.0007984 109.147017 89.7860646 109.147017 97.8751228 108.917497 107.992649 107.298444 110.269247 106.138434 113.302644 102.590166 116.844709 99.7366637 118.364509 95.5680693"></polygon>
                        <g id="Group" style="mix-blend-mode: luminosity;" transform="translate(0.000000, 88.465330)">
                            <polygon id="Shape" fill="#75A996" points="0 13.1199065 7.08412918 16.3642143 13.1509228 14.7389588"></polygon>
                            <polygon id="Shape" fill="#76AC98" points="13.1509228 14.7389588 7.08412918 16.3642143 14.1620551 15.4337245"></polygon>
                            <polygon id="Shape" fill="#6A9B8C" points="0.254333885 7.79750471 0 13.1199065 19.7263842 9.18703618"></polygon>
                            <polygon id="Shape" fill="#669487" points="4.04452909 6.33353406 0.254333885 7.79750471 19.7263842 9.18703618"></polygon>
                            <polygon id="Shape" fill="#7BB29B" points="7.08412918 16.3642143 11.8854567 19.9124822 14.1620551 15.4337245"></polygon>
                            <polygon id="Shape" fill="#6FA290" points="0 13.1199065 13.1509228 14.7389588 19.7263842 9.18703618"></polygon>
                            <polygon id="Shape" fill="#639185" points="18.9695858 4.40431849 4.04452909 6.33353406 19.7263842 9.18703618"></polygon>
                            <polygon id="Shape" fill="#5B857D" points="20.7375165 1.08557146 18.9695858 4.40431849 28.3241102 3.3249503"></polygon>
                            <polygon id="Shape" fill="#59837C" points="20.7375165 1.08557146 28.3241102 3.3249503 28.5784441 2.47510293"></polygon>
                            <polygon id="Shape" fill="#7BB29C" points="14.1620551 15.4337245 11.8854567 19.9124822 29.8439102 16.823256"></polygon>
                            <polygon id="Shape" fill="#7EB7A0" points="11.8854567 19.9124822 27.8216457 20.7623296 29.8439102 16.823256"></polygon>
                            <polygon id="Shape" fill="#5B857E" points="28.5784441 2.47510293 28.3241102 3.3249503 33.1316409 3.47382867"></polygon>
                            <polygon id="Shape" fill="#669487" points="18.9695858 4.40431849 19.7263842 9.18703618 29.0871119 9.26147537"></polygon>
                            <polygon id="Shape" fill="#5E8981" points="33.1316409 3.47382867 28.3241102 3.3249503 35.9169071 6.33353406"></polygon>
                            <polygon id="Shape" fill="#5F8A81" points="28.3241102 3.3249503 18.9695858 4.40431849 35.9169071 6.33353406"></polygon>
                            <polygon id="Shape" fill="#639185" points="18.9695858 4.40431849 29.0871119 9.26147537 35.9169071 6.33353406"></polygon>
                            <polygon id="Shape" fill="#77AD98" points="13.1509228 14.7389588 14.1620551 15.4337245 29.8439102 16.823256"></polygon>
                            <polygon id="Shape" fill="#6D9F8F" points="19.7263842 9.18703618 13.1509228 14.7389588 29.0871119 9.26147537"></polygon>
                            <polygon id="Shape" fill="#5E8B81" points="33.1316409 3.47382867 35.9169071 6.33353406 35.9169071 3.78399194"></polygon>
                            <polygon id="Shape" fill="#73A694" points="29.0871119 9.26147537 13.1509228 14.7389588 29.8439102 16.823256"></polygon>
                            <polygon id="Shape" fill="#5F8B82" points="35.9169071 3.78399194 35.9169071 6.33353406 38.4416362 4.55319686"></polygon>
                            <polygon id="Shape" fill="#59837B" points="28.5784441 2.47510293 33.1316409 3.47382867 35.1539055 0.310163274"></polygon>
                            <polygon id="Shape" fill="#5C867E" points="33.1316409 3.47382867 35.9169071 3.78399194 38.950304 3.3249503"></polygon>
                            <polygon id="Shape" fill="#618D83" points="35.9169071 6.33353406 38.1873023 6.09780997 38.4416362 4.55319686"></polygon>
                            <polygon id="Shape" fill="#79AF9A" points="38.6959701 15.9734086 29.8439102 16.823256 39.9614362 17.5180217"></polygon>
                            <polygon id="Shape" fill="#5D8880" points="35.9169071 3.78399194 38.4416362 4.55319686 38.950304 3.3249503"></polygon>
                            <polygon id="Shape" fill="#7CB69E" points="29.8439102 16.823256 27.8216457 20.7623296 39.9614362 17.5180217"></polygon>
                            <polygon id="Shape" fill="#5A837B" points="35.1539055 0.310163274 33.1316409 3.47382867 38.950304 3.3249503"></polygon>
                            <polygon id="Shape" fill="#74A895" points="29.0871119 9.26147537 29.8439102 16.823256 38.6959701 15.9734086"></polygon>
                            <polygon id="Shape" fill="#639086" points="44.5146331 6.09780997 38.1873023 6.09780997 44.7627637 7.79750471"></polygon>
                            <polygon id="Shape" fill="#669488" points="35.9169071 6.33353406 29.0871119 9.26147537 44.7627637 7.79750471"></polygon>
                            <polygon id="Shape" fill="#639085" points="38.1873023 6.09780997 35.9169071 6.33353406 44.7627637 7.79750471"></polygon>
                            <polygon id="Shape" fill="#618D83" points="38.4416362 4.55319686 38.1873023 6.09780997 44.5146331 6.09780997"></polygon>
                            <polygon id="Shape" fill="#5D877E" points="38.950304 3.3249503 38.4416362 4.55319686 46.0282299 2.85970539"></polygon>
                            <polygon id="Shape" fill="#5A837B" points="35.1539055 0.310163274 38.950304 3.3249503 46.0282299 2.85970539"></polygon>
                            <polygon id="Shape" fill="#5F8A81" points="38.4416362 4.55319686 44.5146331 6.09780997 46.0282299 2.85970539"></polygon>
                            <polygon id="Shape" fill="#82BDA3" points="49.06783 18.9075532 27.8216457 20.7623296 51.592559 23.3056684"></polygon>
                            <polygon id="Shape" fill="#7EB89F" points="39.9614362 17.5180217 27.8216457 20.7623296 49.06783 18.9075532"></polygon>
                            <polygon id="Shape" fill="#6C9E8E" points="29.0871119 9.26147537 38.6959701 15.9734086 44.7627637 7.79750471"></polygon>
                            <polygon id="Shape" fill="#7AB09A" points="38.6959701 15.9734086 39.9614362 17.5180217 56.1457559 17.2078585"></polygon>
                            <polygon id="Shape" fill="#7BB39D" points="39.9614362 17.5180217 49.06783 18.9075532 56.1457559 17.2078585"></polygon>
                            <polygon id="Shape" fill="#6FA291" points="44.7627637 7.79750471 38.6959701 15.9734086 56.9025543 12.735304"></polygon>
                            <polygon id="Shape" fill="#76AB97" points="38.6959701 15.9734086 56.1457559 17.2078585 56.9025543 12.735304"></polygon>
                            <polygon id="Shape" fill="#5C877F" points="46.0282299 2.85970539 44.5146331 6.09780997 59.9421544 2.47510293"></polygon>
                            <polygon id="Shape" fill="#83BFA4" points="49.06783 18.9075532 51.592559 23.3056684 63.2298851 22.2263002"></polygon>
                            <polygon id="Shape" fill="#86C2A7" points="63.2298851 22.2263002 51.592559 23.3056684 64.7434818 22.9955051"></polygon>
                            <polygon id="Shape" fill="#7FB8A0" points="56.1457559 17.2078585 49.06783 18.9075532 63.2298851 22.2263002"></polygon>
                            <polygon id="Shape" fill="#69998B" points="44.7627637 7.79750471 56.9025543 12.735304 69.5510126 7.64242308"></polygon>
                            <polygon id="Shape" fill="#659286" points="44.5146331 6.09780997 44.7627637 7.79750471 69.5510126 7.64242308"></polygon>
                            <polygon id="Shape" fill="#608C83" points="59.9421544 2.47510293 44.5146331 6.09780997 69.5510126 7.64242308"></polygon>
                            <polygon id="Shape" fill="#5E8980" points="65.5064835 3.08922621 59.9421544 2.47510293 69.5510126 7.64242308"></polygon>
                            <polygon id="Shape" fill="#75AB97" points="56.9025543 12.735304 56.1457559 17.2078585 71.3189433 15.2042037"></polygon>
                            <polygon id="Shape" fill="#5B857D" points="65.5064835 3.08922621 69.8053465 3.47382867 71.0708126 2.00985802"></polygon>
                            <polygon id="Shape" fill="#7FB8A0" points="56.1457559 17.2078585 63.2298851 22.2263002 72.5844094 19.0626348"></polygon>
                            <polygon id="Shape" fill="#5F8B81" points="65.5064835 3.08922621 69.5510126 7.64242308 69.8053465 3.47382867"></polygon>
                            <polygon id="Shape" fill="#7AB29B" points="71.3189433 15.2042037 56.1457559 17.2078585 72.5844094 19.0626348"></polygon>
                            <polygon id="Shape" fill="#85C1A6" points="63.2298851 22.2263002 64.7434818 22.9955051 75.6240095 21.146932"></polygon>
                            <polygon id="Shape" fill="#81BDA3" points="72.5844094 19.0626348 63.2298851 22.2263002 75.6240095 21.146932"></polygon>
                            <polygon id="Shape" fill="#5F8C82" points="69.8053465 3.47382867 69.5510126 7.64242308 73.5955417 4.01351277"></polygon>
                            <polygon id="Shape" fill="#80BAA1" points="72.5844094 19.0626348 75.6240095 21.146932 75.8721401 19.6023189"></polygon>
                            <polygon id="Shape" fill="#5B857E" points="71.0708126 2.00985802 69.8053465 3.47382867 73.5955417 4.01351277"></polygon>
                            <polygon id="Shape" fill="#5A837C" points="71.0708126 2.00985802 73.5955417 4.01351277 77.3919402 1.16001065"></polygon>
                            <polygon id="Shape" fill="#6FA091" points="69.5510126 7.64242308 56.9025543 12.735304 71.3189433 15.2042037"></polygon>
                            <polygon id="Shape" fill="#7AB09B" points="71.3189433 15.2042037 72.5844094 19.0626348 83.9674016 16.2091327"></polygon>
                            <polygon id="Shape" fill="#7CB49E" points="72.5844094 19.0626348 75.8721401 19.6023189 83.9674016 16.2091327"></polygon>
                            <polygon id="Shape" fill="#6FA08F" points="69.5510126 7.64242308 71.3189433 15.2042037 85.9896661 12.3507016"></polygon>
                            <polygon id="Shape" fill="#81BCA2" points="75.8721401 19.6023189 75.6240095 21.146932 87.0007984 20.6816871"></polygon>
                            <polygon id="Shape" fill="#83BFA3" points="75.6240095 21.146932 81.4364693 22.3007394 87.0007984 20.6816871"></polygon>
                            <polygon id="Shape" fill="#5A847C" points="77.3919402 1.16001065 73.5955417 4.01351277 87.7575968 2.00985802"></polygon>
                            <polygon id="Shape" fill="#74A996" points="71.3189433 15.2042037 83.9674016 16.2091327 85.9896661 12.3507016"></polygon>
                            <polygon id="Shape" fill="#7DB79E" points="83.9674016 16.2091327 75.8721401 19.6023189 87.0007984 20.6816871"></polygon>
                            <polygon id="Shape" fill="#5C867E" points="87.7575968 2.00985802 73.5955417 4.01351277 92.062663 3.62891031"></polygon>
                            <polygon id="Shape" fill="#7EB89F" points="83.9674016 16.2091327 87.0007984 20.6816871 89.7860646 20.6816871"></polygon>
                            <polygon id="Shape" fill="#5F8C82" points="73.5955417 4.01351277 69.5510126 7.64242308 92.062663 3.62891031"></polygon>
                            <polygon id="Shape" fill="#669487" points="69.5510126 7.64242308 85.9896661 12.3507016 92.062663 3.62891031"></polygon>
                            <polygon id="Shape" fill="#5A837B" points="87.7575968 2.00985802 92.062663 3.62891031 96.8639905 0.0806424513"></polygon>
                            <polygon id="Shape" fill="#679588" points="92.062663 3.62891031 85.9896661 12.3507016 102.42832 7.79750471"></polygon>
                            <polygon id="Shape" fill="#7EB7A0" points="83.9674016 16.2091327 89.7860646 20.6816871 97.8751228 20.4521663"></polygon>
                            <polygon id="Shape" fill="#628E84" points="92.062663 3.62891031 102.42832 7.79750471 103.693786 5.94272833"></polygon>
                            <polygon id="Shape" fill="#5F8A81" points="92.062663 3.62891031 103.693786 5.94272833 106.727183 4.1685944"></polygon>
                            <polygon id="Shape" fill="#5B847C" points="96.8639905 0.0806424513 92.062663 3.62891031 106.727183 4.1685944"></polygon>
                            <polygon id="Shape" fill="#6B9C8C" points="102.42832 7.79750471 85.9896661 12.3507016 109.760579 10.2664044"></polygon>
                            <polygon id="Shape" fill="#7BB39D" points="83.9674016 16.2091327 107.992649 18.833114 110.269247 17.6731034"></polygon>
                            <polygon id="Shape" fill="#7DB59E" points="83.9674016 16.2091327 97.8751228 20.4521663 107.992649 18.833114"></polygon>
                            <polygon id="Shape" fill="#76AB97" points="85.9896661 12.3507016 83.9674016 16.2091327 110.269247 17.6731034"></polygon>
                            <polygon id="Shape" fill="#74AA96" points="85.9896661 12.3507016 110.269247 17.6731034 113.302644 14.1248355"></polygon>
                            <polygon id="Shape" fill="#71A492" points="112.80018 11.8110175 85.9896661 12.3507016 113.302644 14.1248355"></polygon>
                            <polygon id="Shape" fill="#6D9F8F" points="109.760579 10.2664044 85.9896661 12.3507016 112.80018 11.8110175"></polygon>
                            <polygon id="Shape" fill="#6D9E8E" points="109.760579 10.2664044 112.80018 11.8110175 116.844709 11.2713334"></polygon>
                            <polygon id="Shape" fill="#639185" points="103.693786 5.94272833 102.42832 7.79750471 118.364509 7.10273898"></polygon>
                            <polygon id="Shape" fill="#679588" points="102.42832 7.79750471 109.760579 10.2664044 118.364509 7.10273898"></polygon>
                            <polygon id="Shape" fill="#628E83" points="106.727183 4.1685944 103.693786 5.94272833 118.364509 7.10273898"></polygon>
                            <polygon id="Shape" fill="#6FA391" points="112.80018 11.8110175 113.302644 14.1248355 116.844709 11.2713334"></polygon>
                            <polygon id="Shape" fill="#6A998C" points="109.760579 10.2664044 116.844709 11.2713334 118.364509 7.10273898"></polygon>
                        </g>
                        <path d="M24.9185174,38.150644 C24.1153414,38.8585287 23.6271994,39.8571712 23.5620114,40.9257886 C23.4968234,41.9944059 23.8599589,43.0449782 24.5711346,43.8452417 L27.7906294,47.4679487 L30.8178229,44.7943413 L30.2781388,44.1740148 C31.3767958,43.2209385 31.8780713,41.7506959 31.5904594,40.3249747 C31.3028474,38.8992535 30.270785,37.7383325 28.8885587,37.2857269 C27.5063324,36.8331213 25.9875006,37.1587603 24.9123142,38.1382375 L24.9185174,38.150644 Z" id="Shape" fill="#4296B4"></path>
                        <path d="M21.7982749,43.9196809 L19.6767581,45.7806605 L21.5377378,47.8959741 C22.577555,49.0640585 24.3658601,49.1721886 25.538844,48.1379014 L26.0785281,48.758228 L28.2000449,46.8972483 L25.7869746,44.180218 C24.7536456,43.0146103 22.9744492,42.8983953 21.7982749,43.9196809 Z" id="Shape" fill="#4296B4"></path>
                        <path d="M31.1776123,44.1057788 L26.8849526,47.8835675 C26.4569273,48.2619667 25.724942,49.6142786 26.1281542,50.0112876 C26.5313665,50.4082966 27.9208979,49.7135308 28.34272,49.3351317 L32.6353797,45.557343 C32.837879,45.380549 32.9571214,45.127057 32.9641931,44.858334 C32.9712648,44.5896109 32.8655198,44.3301982 32.6725993,44.1429984 C32.2585756,43.7465789 31.6108496,43.730453 31.1776123,44.1057788 Z" id="Shape" fill="#9B8676"></path>
                        <path d="M33.6279022,43.7087699 L32.0832891,44.4221454 C32.0219926,44.4478517 31.9739727,44.4976453 31.9505054,44.5598334 C31.9270382,44.6220216 31.9301911,44.6911256 31.9592238,44.7509185 C32.0253392,44.8762297 32.177887,44.927987 32.3066066,44.8687805 L33.8512197,44.180218 C33.9125162,44.1545117 33.9605361,44.1047181 33.9840034,44.04253 C34.0074706,43.9803418 34.0043177,43.9112378 33.9752851,43.851445 C33.9182585,43.7166214 33.7632293,43.6529487 33.6279022,43.7087699 L33.6279022,43.7087699 Z" id="Shape" fill="#9B8676"></path>
                        <path d="M32.8400875,43.0698335 L32.2197609,44.5586172 C32.1937244,44.6201352 32.194283,44.6896808 32.2213044,44.7507726 C32.2483258,44.8118643 32.2994047,44.8590645 32.362436,44.881187 C32.4943588,44.9337756 32.6443534,44.8737778 32.7036156,44.7447152 L33.3239422,43.2559315 C33.3499787,43.1944135 33.34942,43.1248679 33.3223987,43.0637761 C33.2953773,43.0026844 33.2442984,42.9554842 33.1812671,42.9333617 C33.0493443,42.8807731 32.8993497,42.9407709 32.8400875,43.0698335 Z" id="Shape" fill="#9B8676"></path>
                        <path d="M26.1715771,37.8590905 C25.309997,38.5493365 24.769666,39.5631044 24.6770153,40.6631842 C24.5843647,41.763264 24.9475243,42.8531255 25.6815191,43.6777535 L28.9010139,47.3004606 L31.3264907,45.160334 C31.4873999,45.0183298 31.5850693,44.8180444 31.5978763,44.603818 C31.6106833,44.3895917 31.5375715,44.1790965 31.3947266,44.0189331 C32.2251406,43.2927075 32.7211676,42.2575351 32.7668982,41.1553102 C32.8126288,40.0530852 32.4040563,38.9803816 31.636654,38.1878636 C30.1681706,36.6944413 27.8085069,36.5524865 26.1715771,37.8590905 Z" id="Shape" fill="#80C4D6"></path>
                        <path d="M22.1704708,44.6206499 L20.6754839,45.9419454 C20.5821328,46.0153594 20.5246466,46.1252011 20.5175337,46.2437483 C20.5104209,46.3622955 20.554361,46.4782228 20.6382643,46.562272 L22.2387068,48.361219 C23.1861441,49.4296193 24.7793898,49.628775 25.960666,48.8264639 C26.1342522,48.7059217 26.3702493,48.7324383 26.5127567,48.8884965 L26.5127567,48.8884965 C26.5872896,48.9801361 26.6968317,49.0363259 26.8147423,49.0434005 C26.9326529,49.0504751 27.0481277,49.0077864 27.1330832,48.9257161 L28.9382335,47.3314769 L26.7981069,44.9246099 C26.227165,44.2667479 25.4168828,43.8644841 24.5476892,43.8073923 C23.6784956,43.7503005 22.8225577,44.0431209 22.1704708,44.6206499 L22.1704708,44.6206499 Z" id="Shape" fill="#80C4D6"></path>
                        <path d="M29.5151372,41.9098229 C29.1434783,42.255509 28.5987353,42.3399414 28.1398693,42.1229825 C27.6810032,41.9060235 27.4005732,41.4314366 27.4318906,40.9248318 C27.463208,40.418227 27.7999557,39.9817929 28.2820499,39.8230024 C28.7641441,39.6642119 29.2943402,39.8150951 29.6205927,40.2039249 C30.0451852,40.7099569 29.9988227,41.4599389 29.5151372,41.9098229 L29.5151372,41.9098229 Z" id="Shape" fill="#E2F0F7"></path>
                        <path d="M101.249699,57.1202298 C102.052875,57.8281145 102.541017,58.8267571 102.606205,59.8953744 C102.671393,60.9639918 102.308258,62.0145641 101.597082,62.8148275 L98.3775873,66.4375346 L95.3503937,63.7639272 L95.8900778,63.1436006 C94.7914209,62.1905244 94.2901454,60.7202817 94.5777573,59.2945606 C94.8653692,57.8688394 95.8974316,56.7079183 97.279658,56.2553127 C98.6618843,55.8027071 100.180716,56.1283461 101.255902,57.1078233 L101.249699,57.1202298 Z" id="Shape" fill="#4296B4"></path>
                        <path d="M104.369942,62.8892667 L106.491459,64.7502464 L104.630479,66.8655599 C103.590662,68.0336443 101.802357,68.1417744 100.629373,67.1074873 L100.089689,67.7278138 L97.9681718,65.8668342 L100.381242,63.1498039 C101.414571,61.9841961 103.193767,61.8679811 104.369942,62.8892667 Z" id="Shape" fill="#4296B4"></path>
                        <path d="M94.9844011,63.0753647 L99.2522477,66.8531534 C99.680273,67.2315526 100.412258,68.5838644 100.009046,68.9808734 C99.6058339,69.3778824 98.2163024,68.6831167 97.7944803,68.3047175 L93.5018206,64.5269288 C93.2993214,64.3501348 93.1800789,64.0966428 93.1730072,63.8279198 C93.1659356,63.5591968 93.2716806,63.2997841 93.464601,63.1125843 C93.8819575,62.7009559 94.5473956,62.6846594 94.9844011,63.0753647 L94.9844011,63.0753647 Z" id="Shape" fill="#9B8676"></path>
                        <path d="M92.5341112,62.684559 L94.0787243,63.3731214 C94.1400208,63.3988278 94.1880407,63.4486214 94.2115079,63.5108095 C94.2349752,63.5729976 94.2318223,63.6421017 94.2027896,63.7018945 C94.1366742,63.8272058 93.9841264,63.8789631 93.8554068,63.8197566 L92.3107937,63.1311941 C92.2494972,63.1054877 92.2014772,63.0556942 92.17801,62.993506 C92.1545428,62.9313179 92.1576957,62.8622138 92.1867283,62.802421 C92.2528437,62.6771098 92.4053916,62.6253524 92.5341112,62.684559 L92.5341112,62.684559 Z" id="Shape" fill="#9B8676"></path>
                        <path d="M93.3281292,62.0394194 L93.9484557,63.5282031 C93.9744922,63.589721 93.9739336,63.6592667 93.9469123,63.7203584 C93.9198909,63.7814502 93.868812,63.8286503 93.8057806,63.8507729 C93.6738579,63.9033615 93.5238633,63.8433636 93.464601,63.714301 L92.8442745,62.2255173 C92.818238,62.1639994 92.8187966,62.0944537 92.845818,62.033362 C92.8728393,61.9722702 92.9239183,61.9250701 92.9869496,61.9029475 C93.1188723,61.8503589 93.2688669,61.9103568 93.3281292,62.0394194 Z" id="Shape" fill="#9B8676"></path>
                        <path d="M99.9904363,56.8286764 C100.852016,57.5189223 101.392347,58.5326902 101.484998,59.63277 C101.577649,60.7328499 101.214489,61.8227113 100.480494,62.6473394 L97.2609995,66.2700464 L94.8355227,64.1299198 C94.6746135,63.9879157 94.5769441,63.7876303 94.5641371,63.5734039 C94.5513301,63.3591775 94.6244419,63.1486824 94.7672868,62.988519 L94.7672868,62.988519 C93.9402787,62.258789 93.4488634,61.2217238 93.4078254,60.1195604 C93.3667874,59.017397 93.7797206,57.9466593 94.5501725,57.1574494 C96.0153614,55.6786546 98.3578242,55.5370919 99.9904363,56.8286764 L99.9904363,56.8286764 Z" id="Shape" fill="#80C4D6"></path>
                        <path d="M103.991543,63.5902357 L105.455513,64.8929215 C105.548864,64.9663354 105.60635,65.0761772 105.613463,65.1947243 C105.620576,65.3132715 105.576636,65.4291988 105.492733,65.513248 L103.89229,67.312195 C102.944853,68.3805954 101.351607,68.5797511 100.170331,67.7774399 C99.9967449,67.6568978 99.7607478,67.6834143 99.6182404,67.8394726 L99.6182404,67.8394726 C99.5437075,67.9311121 99.4341654,67.9873019 99.3162548,67.9943765 C99.1983442,68.0014512 99.0828693,67.9587624 98.9979138,67.8766922 L97.1927636,66.282453 L99.3328902,63.8755859 C99.9072687,63.2109597 100.725366,62.8059994 101.602152,62.7522947 C102.478938,62.6985901 103.340343,63.0006781 103.991543,63.5902357 L103.991543,63.5902357 Z" id="Shape" fill="#80C4D6"></path>
                        <path d="M96.6468762,60.8794087 C97.0185351,61.2250948 97.5632781,61.3095273 98.0221441,61.0925683 C98.4810102,60.8756094 98.7614402,60.4010225 98.7301228,59.8944177 C98.6988054,59.3878128 98.3620577,58.9513787 97.8799635,58.7925883 C97.3978693,58.6337978 96.8676732,58.784681 96.5414207,59.1735107 C96.1168282,59.6795428 96.1631907,60.4295247 96.6468762,60.8794087 L96.6468762,60.8794087 Z" id="Shape" fill="#E2F0F7"></path>
                        <g id="Group-40" transform="translate(29.210044, 0.145302)">
                            <path d="M3.3220186,12.6852264 C4.33865005,12.8819938 5.39154054,12.654952 6.236738,12.0567061 L9.95869729,9.43272482 L8.20317316,6.95141863 C7.96153316,6.61070828 7.4895474,6.53019306 7.14861802,6.77152393 C5.98036262,5.03798365 3.62799244,4.57972972 1.89445216,5.74798512 C0.160911883,6.91624053 -0.297342049,9.26861071 0.870913355,11.002151 C1.41324655,11.8849596 2.30538715,12.488459 3.3220186,12.6852264 Z" id="Shape" fill="#80C4D6"></path>
                            <path d="M6.77021883,15.4002662 L7.84958702,16.9200663 C7.90950747,17.0049625 8.00077127,17.0624995 8.10320639,17.07996 C8.20564151,17.0974206 8.31081284,17.0733668 8.39547439,17.0131152 L10.256454,15.7104295 C11.3418886,14.9441645 11.6875041,13.4899211 11.0628785,12.3172433 C10.9702584,12.1439423 11.0207196,11.9288183 11.1807406,11.8147788 L11.1807406,11.8147788 C11.2656368,11.7548583 11.3231738,11.6635945 11.3406344,11.5611594 C11.3580949,11.4587243 11.3340411,11.3535529 11.2737896,11.2688914 L9.96490055,9.40791176 L7.48359436,11.1510294 C6.82117341,11.6165733 6.37284954,12.3280739 6.23879891,13.1265494 C6.10474829,13.9250249 6.29614378,14.7439237 6.77021883,15.4002662 L6.77021883,15.4002662 Z" id="Shape" fill="#80C4D6"></path>
                            <path d="M4.9960849,8.31613703 C5.35777522,8.82714035 5.23748724,9.53449966 4.72721759,9.89722429 C4.21694795,10.2599489 3.50934644,10.141094 3.14558897,9.63156011 C2.7818315,9.12202623 2.89925291,8.41418543 3.40804894,8.04939662 C3.65314265,7.87160775 3.95937862,7.79971897 4.25798233,7.84987506 C4.55658604,7.90003115 4.82252871,8.06802807 4.9960849,8.31613703 L4.9960849,8.31613703 Z" id="Shape" fill="#E2F0F7"></path>
                            <path d="M9.62372095,0.673713957 C8.72299248,1.18664539 8.07306552,2.04767025 7.82664117,3.05448973 C7.58021682,4.06130921 7.75901802,5.12516964 8.3210352,5.99611574 L8.3210352,5.99611574 C7.97096011,6.22127421 7.86841782,6.68687165 8.09151438,7.03826434 L9.72917646,9.58160319 L13.5565913,7.13751659 C14.428263,6.58235043 15.0339436,5.69382236 15.2321081,4.67954833 C15.4302726,3.66527429 15.2035595,2.6141167 14.6049431,1.77169195 C13.465893,0.191398231 11.3216021,-0.281253689 9.62372095,0.673713957 L9.62372095,0.673713957 Z" id="Shape" fill="#80C4D6"></path>
                            <path d="M9.72917646,9.57539993 L10.9698296,11.4735992 C11.0863797,11.6550789 11.3279165,11.7078284 11.5095137,11.5914612 C11.6766273,11.4832849 11.8983491,11.5180124 12.0243847,11.6721037 C12.8855379,12.6869611 14.3640412,12.9095315 15.4858068,12.193178 L17.3902093,10.9525249 C17.5716891,10.8359748 17.6244385,10.5944379 17.5080714,10.4128408 L16.5031424,8.8434146 C16.0615551,8.16277941 15.3671316,7.68598325 14.5732993,7.51837058 C13.7794671,7.35075792 12.9515663,7.50612489 12.2725153,7.95014437 L9.72917646,9.57539993 Z" id="Shape" fill="#80C4D6"></path>
                            <path d="M10.9015936,2.99373525 C11.2877689,2.74409764 11.7863974,2.75208677 12.164377,3.01396781 C12.5423565,3.27584885 12.725015,3.73988565 12.6269619,4.18914707 C12.5289088,4.63840849 12.1695152,4.98414027 11.7167928,5.06471731 C11.2640704,5.14529435 10.8074572,4.94479818 10.560414,4.55695815 C10.2287579,4.03004232 10.3805526,3.33454654 10.9015936,2.99373525 L10.9015936,2.99373525 Z" id="Shape" fill="#E2F0F7"></path>
                            <path d="M10.0889659,11.5790547 C10.3929259,12.0194865 11.5591398,12.8569274 11.9809618,12.5281543 C12.4027839,12.1993812 11.9189292,10.8346628 11.6149692,10.394231 L8.71804419,6.10157125 C8.41048909,5.62538572 7.78562077,5.47052705 7.29129313,5.74798512 C6.87036807,6.08316988 6.77846894,6.68592005 7.0803821,7.13131332 L10.0889659,11.5790547 Z" id="Shape" fill="#9B8676"></path>
                            <path d="M6.95631679,4.75546264 L7.29129313,6.30007575 C7.30311372,6.36168671 7.33963814,6.41577409 7.39237108,6.44975754 C7.44510401,6.48374098 7.50944908,6.49465839 7.57044008,6.47997045 C7.69908284,6.44369806 7.77587918,6.31204718 7.74413151,6.18221371 L7.40915517,4.6376006 C7.39733459,4.57598964 7.36081016,4.52190226 7.30807723,4.48791881 C7.25534429,4.45393537 7.19099922,4.44301796 7.13000823,4.4577059 C7.00136547,4.49397829 6.92456912,4.62562917 6.95631679,4.75546264 Z" id="Shape" fill="#9B8676"></path>
                            <path d="M6.19331514,5.4998545 L7.47739109,6.27526269 C7.53146875,6.30589745 7.59565839,6.31329142 7.65528495,6.2957542 C7.71491151,6.27821698 7.76487677,6.23724803 7.79375763,6.18221371 C7.86029237,6.06546 7.82179176,5.91695767 7.70691192,5.84723737 L6.3980229,5.07182918 C6.34394525,5.04119443 6.2797556,5.03380045 6.22012904,5.05133767 C6.16050248,5.0688749 6.11053722,5.10984384 6.08165636,5.16487817 C6.05161526,5.22403314 6.04651545,5.29275504 6.06749586,5.3556963 C6.08847628,5.41863755 6.13378927,5.47055518 6.19331514,5.4998545 Z" id="Shape" fill="#9B8676"></path>
                        </g>
                        <polygon id="Shape" fill="#87B09A" points="71.4492118 98.3843518 89.562747 103.911461 108.122917 99.3892808 108.122917 88.6266152 71.4492118 88.6266152"></polygon>
                        <path d="M108.122917,87.454198 L108.122917,91.0334822 C108.122917,91.3994749 107.688689,91.7592643 106.838841,92.032208 L92.8814941,96.5295754 C90.850834,97.0834834 88.7088887,97.0834834 86.6782286,96.5295754 L72.714678,92.0135982 C71.8648306,91.7406545 71.4368053,91.3932716 71.430602,91.0148724 L71.430602,87.454198 L71.430602,87.454198 C71.5112445,87.7767678 71.9330665,88.0745246 72.6712551,88.3350617 L86.6348057,92.8448357 C88.6654658,93.3987437 90.8074111,93.3987437 92.8380712,92.8448357 L106.801622,88.3350617 C107.55842,88.0931344 107.986446,87.7767678 108.042275,87.454198 L108.122917,87.454198 Z" id="Shape" fill="#799987"></path>
                        <path d="M108.122917,92.0632243 L108.122917,95.6425085 C108.122917,96.0085011 107.688689,96.3682905 106.838841,96.6412342 L92.8752908,101.157211 C90.8446307,101.711119 88.7026854,101.711119 86.6720253,101.157211 L72.7084747,96.6412342 C71.8586274,96.3682905 71.430602,96.0209077 71.4243988,95.6425085 L71.4243988,92.0632243 L71.4243988,92.0632243 C71.5050412,92.3857941 71.9268633,92.6835508 72.6650519,92.944088 L86.6286025,97.453862 C88.6592626,98.00777 90.8012079,98.00777 92.831868,97.453862 L106.795419,92.944088 C107.552217,92.7021606 107.980242,92.3857941 108.036072,92.0632243 L108.122917,92.0632243 Z" id="Shape" fill="#799987"></path>
                        <path d="M108.122917,96.6784538 L108.122917,100.251535 C108.122917,100.617527 107.688689,100.977317 106.838841,101.25026 L92.8752908,105.766238 C90.8446307,106.320146 88.7026854,106.320146 86.6720253,105.766238 L72.7084747,101.25026 C71.8586274,100.977317 71.430602,100.629934 71.4243988,100.251535 L71.4243988,96.6784538 L71.4243988,96.6784538 C71.5050412,97.0010236 71.9268633,97.2987804 72.6650519,97.5593175 L86.6286025,102.069092 C88.6592626,102.622999 90.8012079,102.622999 92.831868,102.069092 L106.795419,97.5593175 C107.552217,97.3173902 107.980242,97.0010236 108.036072,96.6784538 L108.122917,96.6784538 Z" id="Shape" fill="#799987"></path>
                        <path d="M86.6906351,92.8944619 L72.7270845,88.3784846 C71.0211865,87.826394 71.0211865,86.9331237 72.7270845,86.3810331 L86.6906351,81.8650558 C88.7212952,81.3111479 90.8632405,81.3111479 92.8939006,81.8650558 L106.857451,86.3810331 C108.563349,86.9331237 108.563349,87.826394 106.857451,88.3784846 L92.8939006,92.8944619 C90.8632405,93.4483698 88.7212952,93.4483698 86.6906351,92.8944619" id="Shape" fill="#87B09A"></path>
                        <path d="M100.492901,87.0757988 L97.9247489,86.0770731 C97.670415,85.9778209 97.2423897,86.0770731 97.2423897,86.1887319 L97.2423897,86.5361148 C97.2423897,86.6229605 97.062495,86.6911964 96.8391775,86.6911964 L95.4310362,86.6911964 C95.2077186,86.6911964 95.0278239,86.6229605 95.0278239,86.5361148 L95.0278239,85.8289425 C95.0278239,85.7420968 95.2077186,85.6738609 95.4310362,85.6738609 L95.9024844,85.6738609 C96.2622738,85.6738609 96.4359652,85.5063727 96.1878346,85.4071204 L93.6196827,84.4083947 C93.436322,84.3482565 93.2385462,84.3482565 93.0551855,84.4083947 L90.4870336,85.4071204 C90.2326997,85.5063727 90.4125944,85.6738609 90.7723838,85.6738609 L91.336881,85.6738609 C91.5601985,85.6738609 91.7400932,85.7420968 91.7400932,85.8289425 L91.7400932,86.5237082 C91.7400932,86.6105539 91.5601985,86.6787899 91.336881,86.6787899 L88.2352482,86.6787899 C88.0119307,86.6787899 87.832036,86.6105539 87.832036,86.5237082 L87.832036,85.8289425 C87.832036,85.7420968 88.0119307,85.6738609 88.2352482,85.6738609 L88.8183552,85.6738609 C89.1781446,85.6738609 89.351836,85.5063727 89.1037054,85.4071204 L86.5355535,84.4083947 C86.3521928,84.3482565 86.154417,84.3482565 85.9710563,84.4083947 L83.4029044,85.4071204 C83.1485705,85.5063727 83.3284652,85.6738609 83.6882546,85.6738609 L84.141093,85.6738609 C84.3644106,85.6738609 84.5443053,85.7420968 84.5443053,85.8289425 L84.5443053,86.542318 C84.5443053,86.6291637 84.3644106,86.6973997 84.141093,86.6973997 L82.7515615,86.6973997 C82.528244,86.6973997 82.3483493,86.6291637 82.3483493,86.542318 L82.3483493,86.1949352 C82.3483493,86.0584633 81.920324,85.9902274 81.6659901,86.0832764 L79.0978382,87.0820021 C78.9427565,87.1440348 78.9427565,87.243287 79.0978382,87.2991164 L81.6659901,88.2978421 C81.920324,88.3970944 82.3483493,88.2978421 82.3483493,88.1861834 L82.3483493,87.8450038 C82.3483493,87.7581581 82.528244,87.6899221 82.7515615,87.6899221 L84.1348897,87.6899221 C84.3582073,87.6899221 84.538102,87.7581581 84.538102,87.8450038 L84.538102,88.5583793 C84.538102,88.645225 84.3582073,88.7134609 84.1348897,88.7134609 L83.6820514,88.7134609 C83.322262,88.7134609 83.1485705,88.8809491 83.3967012,88.9802014 L85.9648531,89.9789271 C86.1482137,90.0390653 86.3459896,90.0390653 86.5293502,89.9789271 L89.0975021,88.9802014 C89.351836,88.8809491 89.1719413,88.7134609 88.8121519,88.7134609 L88.229045,88.7134609 C88.0057274,88.7134609 87.8258327,88.645225 87.8258327,88.5583793 L87.8258327,87.8450038 C87.8258327,87.7581581 88.0057274,87.6899221 88.229045,87.6899221 L91.3306777,87.6899221 C91.5539953,87.6899221 91.73389,87.7581581 91.73389,87.8450038 L91.73389,88.5459728 C91.73389,88.6328185 91.5539953,88.7010544 91.3306777,88.7010544 L90.7661805,88.7010544 C90.4063912,88.7010544 90.2326997,88.8685426 90.4808303,88.9677948 L93.0489822,89.9603173 C93.2323429,90.0204555 93.4301188,90.0204555 93.6134794,89.9603173 L96.150615,88.9615916 C96.4049489,88.8623393 96.2250542,88.6948511 95.8652648,88.6948511 L95.3938166,88.6948511 C95.170499,88.6948511 94.9906043,88.6266152 94.9906043,88.5397695 L94.9906043,87.8450038 C94.9906043,87.7581581 95.170499,87.6899221 95.3938166,87.6899221 L96.8019579,87.6899221 C97.0252754,87.6899221 97.2051701,87.7581581 97.2051701,87.8450038 L97.2051701,88.1923866 C97.2051701,88.3288585 97.6393987,88.4032977 97.8875293,88.3040454 L100.492901,87.2929131 C100.647982,87.2308805 100.647982,87.1316282 100.492901,87.0757988" id="Shape" fill="#FFFFFF"></path>
                    </g>
                    <g id="Page-1" transform="translate(15.085563, 63.507345)">
                        <g id="Group-3" transform="translate(0.000000, 16.122170)">
                            <mask id="mask-4" fill="white">
                                <use xlink:href="#path-3"></use>
                            </mask>
                            <g id="Clip-2"></g>
                            <path d="M21.0987706,0.108812403 L21.0987706,16.1340438 C21.0987706,17.4270474 20.0515394,18.4744861 18.7585359,18.4744861 L2.34118956,18.4744861 C1.04818602,18.4744861 0.000747280905,17.4270474 0.000747280905,16.1340438 L0.000747280905,0.108812403 L1.13017934,0.108812403 L1.13017934,0.243322966 C1.13017934,0.553444541 1.59806021,0.805029112 2.18322268,0.805029112 L18.7992212,0.805029112 C19.3785714,0.805029112 19.8526797,0.553444541 19.8526797,0.243322966 L19.8526797,0.108812403 L21.0987706,0.108812403 Z" id="Fill-1" fill="#E2F0F7" mask="url(#mask-4)"></path>
                        </g>
                        <path d="M19.8534062,16.2309828 L19.8534062,16.3654933 C19.8534062,16.6756149 19.3795055,16.9271995 18.8001553,16.9271995 L2.1839492,16.9271995 C1.59899432,16.9271995 1.13090586,16.6756149 1.13090586,16.3654933 L1.13090586,16.2309828 L19.8534062,16.2309828 Z" id="Fill-4" fill="#E2F0F7"></path>
                        <path d="M19.8534062,16.0028338 L19.8534062,16.3656801 C19.8534062,16.6755941 19.3795055,16.9271787 18.8001553,16.9271787 L2.1839492,16.9271787 C1.59899432,16.9271787 1.13090586,16.6755941 1.13090586,16.3656801 L1.13090586,16.0028338 C1.13090586,15.6927122 1.59899432,15.4411276 2.1839492,15.4411276 L18.8001553,15.4411276 C19.3795055,15.4411276 19.8534062,15.6927122 19.8534062,16.0028338" id="Fill-6" fill="#F3FCFF"></path>
                        <path d="M19.8534062,16.0028338 L19.8534062,16.3656801 C19.8534062,16.6755941 19.3795055,16.9271787 18.8001553,16.9271787 L2.1839492,16.9271787 C1.59899432,16.9271787 1.13090586,16.6755941 1.13090586,16.3656801 L1.13090586,16.0028338 C1.13090586,15.6927122 1.59899432,15.4411276 2.1839492,15.4411276 L18.8001553,15.4411276 C19.3795055,15.4411276 19.8534062,15.6927122 19.8534062,16.0028338" id="Fill-8" fill="#E2F0F7"></path>
                        <g id="Group-12" transform="translate(0.000000, 14.669124)" fill="#F3FCFF">
                            <path d="M19.8534062,1.69647296 C19.8534062,2.00659453 19.3795055,2.2581791 18.8001553,2.2581791 L2.1839492,2.2581791 C1.59899432,2.2581791 1.13090586,2.00659453 1.13090586,1.69647296 L1.13090586,1.33362656 C1.13090586,1.02371257 1.59899432,0.771920417 2.1839492,0.771920417 L18.8001553,0.771920417 C19.3795055,0.771920417 19.8534062,1.02371257 19.8534062,1.33362656 L19.8534062,1.69647296 Z M19.9117356,0.0289986507 L1.18923529,0.0289986507 C0.528099264,0.0289986507 0.00168138204,0.561436295 0.00168138204,1.21655255 L0.00168138204,1.97732603 C0.00168138204,2.63264987 0.528099264,3.16508751 1.18923529,3.16508751 L19.9117356,3.16508751 C20.5670595,3.16508751 21.0994971,2.63264987 21.0994971,1.97732603 L21.0994971,1.21655255 C21.0994971,0.561436295 20.5670595,0.0289986507 19.9117356,0.0289986507 L19.9117356,0.0289986507 Z" id="Fill-10"></path>
                        </g>
                        <mask id="mask-6" fill="white">
                            <use xlink:href="#path-5"></use>
                        </mask>
                        <g id="Clip-14"></g>
                        <polygon id="Fill-13" fill="#847264" mask="url(#mask-6)" points="1.4341566 28.7377251 19.6653197 28.7377251 19.6653197 22.6332704 1.4341566 22.6332704"></polygon>
                        <path d="M19.2494164,33.2825007 L1.84856538,33.2825007 C1.61919166,33.2825007 1.43340932,33.0965108 1.43340932,32.8673447 L1.43340932,28.7375798 L19.6645725,28.7375798 L19.6645725,32.8673447 C19.6645725,33.0965108 19.4785825,33.2825007 19.2494164,33.2825007" id="Fill-15" fill="#685A50" mask="url(#mask-6)"></path>
                        <path d="M8.30578824,13.7016445 L8.29645791,13.7016445" id="Stroke-16" stroke-linecap="round" stroke-linejoin="round" mask="url(#mask-6)"></path>
                        <path d="M19.2494164,24.2444288 L1.84856538,24.2444288 C1.61919166,24.2444288 1.43340932,24.0586464 1.43340932,23.8292727 L1.43340932,21.4373511 C1.43340932,21.2079774 1.61919166,21.022195 1.84856538,21.022195 L19.2494164,21.022195 C19.4785825,21.022195 19.6645725,21.2079774 19.6645725,21.4373511 L19.6645725,23.8292727 C19.6645725,24.0586464 19.4785825,24.2444288 19.2494164,24.2444288" id="Fill-17" fill="#9B8676" mask="url(#mask-6)"></path>
                        <path d="M17.1678654,22.5904886 L15.3621442,22.5904886 C15.3621442,22.1275896 15.7665062,21.7522885 16.2651086,21.7522885 C16.763711,21.7522885 17.1678654,22.1275896 17.1678654,22.5904886" id="Fill-18" fill="#B3B3B3" mask="url(#mask-6)"></path>
                        <path d="M16.8725027,22.5904886 L15.0667814,22.5904886 C15.0667814,22.1275896 15.4711434,21.7522885 15.9697458,21.7522885 C16.4683482,21.7522885 16.8725027,22.1275896 16.8725027,22.5904886" id="Fill-19" fill="#C3C6C8" mask="url(#mask-6)"></path>
                        <path d="M6.07217629,22.5904886 L4.26645502,22.5904886 C4.26645502,22.1275896 4.67081702,21.7522885 5.16941945,21.7522885 C5.66802187,21.7522885 6.07217629,22.1275896 6.07217629,22.5904886" id="Fill-20" fill="#B3B3B3" mask="url(#mask-6)"></path>
                        <path d="M5.77681352,22.5904886 L3.97109224,22.5904886 C3.97109224,22.1275896 4.37545424,21.7522885 4.87405667,21.7522885 C5.37265909,21.7522885 5.77681352,22.1275896 5.77681352,22.5904886" id="Fill-21" fill="#C3C6C8" mask="url(#mask-6)"></path>
                        <path d="M14.4894239,31.8601553 C14.4894239,32.174636 14.234518,32.4297494 13.9198297,32.4297494 C13.605349,32.4297494 13.3504432,32.174636 13.3504432,31.8601553 C13.3504432,31.5456746 13.605349,31.2905612 13.9198297,31.2905612 C14.234518,31.2905612 14.4894239,31.5456746 14.4894239,31.8601553" id="Fill-22" fill="#9B8676" mask="url(#mask-6)"></path>
                        <path d="M8.12991805,31.8601553 C8.12991805,32.174636 7.87480466,32.4297494 7.56032394,32.4297494 C7.24584323,32.4297494 6.99093741,32.174636 6.99093741,31.8601553 C6.99093741,31.5456746 7.24584323,31.2905612 7.56032394,31.2905612 C7.87480466,31.2905612 8.12991805,31.5456746 8.12991805,31.8601553" id="Fill-23" fill="#9B8676" mask="url(#mask-6)"></path>
                        <path d="M11.8080347,30.388863 C11.8080347,30.7035513 11.5529213,30.9584571 11.2384406,30.9584571 C10.9239598,30.9584571 10.669054,30.7035513 10.669054,30.388863 C10.669054,30.0743823 10.9239598,29.8192689 11.2384406,29.8192689 C11.5529213,29.8192689 11.8080347,30.0743823 11.8080347,30.388863" id="Fill-24" fill="#847264" mask="url(#mask-6)"></path>
                        <path d="M17.5268716,30.5549877 C17.5268716,30.8694684 17.2717582,31.1245818 16.9572775,31.1245818 C16.6427968,31.1245818 16.387891,30.8694684 16.387891,30.5549877 C16.387891,30.240507 16.6427968,29.9853936 16.9572775,29.9853936 C17.2717582,29.9853936 17.5268716,30.240507 17.5268716,30.5549877" id="Fill-25" fill="#9B8676" mask="url(#mask-6)"></path>
                        <path d="M4.38631057,30.3112288 C4.38631057,30.6257095 4.13119718,30.8808229 3.81671646,30.8808229 C3.50223575,30.8808229 3.24732993,30.6257095 3.24732993,30.3112288 C3.24732993,29.9967481 3.50223575,29.7416347 3.81671646,29.7416347 C4.13119718,29.7416347 4.38631057,29.9967481 4.38631057,30.3112288" id="Fill-26" fill="#847264" mask="url(#mask-6)"></path>
                        <path d="M8.8573545,22.646846 L12.6248957,22.646846 C12.6248957,22.2568069 12.3087544,21.940458 11.9185077,21.940458 C11.8444023,21.940458 11.7744485,21.9549884 11.7071933,21.976369 C11.4946334,21.670399 11.1417507,21.4694634 10.7411251,21.4694634 C10.3407071,21.4694634 9.98782445,21.670399 9.77505697,21.976369 C9.70800926,21.9549884 9.63784789,21.940458 9.56374253,21.940458 C9.17370342,21.940458 8.8573545,22.2568069 8.8573545,22.646846" id="Fill-27" fill="#847264" mask="url(#mask-6)"></path>
                        <path d="M10.7759152,6.22734087e-05 C7.55824816,6.22734087e-05 5.84074755,10.0350069 5.84074755,11.9856177 C5.84074755,14.7069656 8.05456723,16.9209929 10.7759152,16.9209929 C13.4972632,16.9209929 15.7110828,14.7069656 15.7110828,11.9856177 C15.7110828,10.0352145 13.9937898,6.22734087e-05 10.7759152,6.22734087e-05" id="Fill-28" fill="#BFEC80" mask="url(#mask-6)"></path>
                        <path d="M7.95578085,11.9856799 C7.95578085,10.2613293 9.29901827,2.22349282 11.833546,0.381445386 C11.5012136,0.13982456 11.1489537,0.000124546817 10.7759359,0.000124546817 C7.55806134,0.000124546817 5.84076831,10.0350692 5.84076831,11.9856799 C5.84076831,14.7070279 8.05479557,16.9208476 10.7759359,16.9208476 C11.1391975,16.9208476 11.4924953,16.8789168 11.833546,16.8039812 C9.61910359,16.3182486 7.95578085,14.3437664 7.95578085,11.9856799" id="Fill-29" fill="#AAE655" mask="url(#mask-6)"></path>
                        <path d="M12.6844706,11.4872021 C12.4090146,11.211746 11.9629294,11.211746 11.6874733,11.4872021 L11.4811408,11.6937422 L11.4811408,10.5755194 C11.4811408,10.186103 11.1654146,9.8703768 10.7759982,9.8703768 C10.3865818,9.8703768 10.0708557,10.186103 10.0708557,10.5755194 L10.0708557,13.1038198 L9.86431552,12.8972796 C9.58885947,12.6218236 9.14277429,12.6218236 8.86731824,12.8972796 C8.59206978,13.1727357 8.59206978,13.6190284 8.86731824,13.8942769 L10.0710632,15.0978143 L10.0710632,21.8561398 L11.4811408,21.8561398 L11.4811408,13.6877368 L12.6844706,12.4841993 C12.9599267,12.2087433 12.9599267,11.7626581 12.6844706,11.4872021" id="Fill-30" fill="#759684" mask="url(#mask-6)"></path>
                        <path d="M21.0980648,16.2309828 L21.0980648,16.6463464 C21.0980648,17.3016702 20.5656272,17.8341079 19.9100957,17.8341079 L1.18759542,17.8341079 C0.526459397,17.8341079 4.15156058e-05,17.3016702 4.15156058e-05,16.6463464 L4.15156058e-05,16.2309828 L1.12926599,16.2309828 L1.12926599,16.3654933 C1.12926599,16.6756149 1.59735445,16.9271995 2.18230933,16.9271995 L18.7985154,16.9271995 C19.3778657,16.9271995 19.8519739,16.6756149 19.8519739,16.3654933 L19.8519739,16.2309828 L21.0980648,16.2309828 Z" id="Fill-31" fill="#F3FCFF" mask="url(#mask-6)"></path>
                    </g>
                    <g id="Page-1-Copy-4" transform="translate(40.297051, 67.401468)">
                        <g id="Group-3" transform="translate(0.000000, 16.122170)">
                            <mask id="mask-8" fill="white">
                                <use xlink:href="#path-7"></use>
                            </mask>
                            <g id="Clip-2"></g>
                            <path d="M21.0987706,0.108812403 L21.0987706,16.1340438 C21.0987706,17.4270474 20.0515394,18.4744861 18.7585359,18.4744861 L2.34118956,18.4744861 C1.04818602,18.4744861 0.000747280905,17.4270474 0.000747280905,16.1340438 L0.000747280905,0.108812403 L1.13017934,0.108812403 L1.13017934,0.243322966 C1.13017934,0.553444541 1.59806021,0.805029112 2.18322268,0.805029112 L18.7992212,0.805029112 C19.3785714,0.805029112 19.8526797,0.553444541 19.8526797,0.243322966 L19.8526797,0.108812403 L21.0987706,0.108812403 Z" id="Fill-1" fill="#E2F0F7" mask="url(#mask-8)"></path>
                        </g>
                        <path d="M19.8534062,16.2309828 L19.8534062,16.3654933 C19.8534062,16.6756149 19.3795055,16.9271995 18.8001553,16.9271995 L2.1839492,16.9271995 C1.59899432,16.9271995 1.13090586,16.6756149 1.13090586,16.3654933 L1.13090586,16.2309828 L19.8534062,16.2309828 Z" id="Fill-4" fill="#E2F0F7"></path>
                        <path d="M19.8534062,16.0028338 L19.8534062,16.3656801 C19.8534062,16.6755941 19.3795055,16.9271787 18.8001553,16.9271787 L2.1839492,16.9271787 C1.59899432,16.9271787 1.13090586,16.6755941 1.13090586,16.3656801 L1.13090586,16.0028338 C1.13090586,15.6927122 1.59899432,15.4411276 2.1839492,15.4411276 L18.8001553,15.4411276 C19.3795055,15.4411276 19.8534062,15.6927122 19.8534062,16.0028338" id="Fill-6" fill="#F3FCFF"></path>
                        <path d="M19.8534062,16.0028338 L19.8534062,16.3656801 C19.8534062,16.6755941 19.3795055,16.9271787 18.8001553,16.9271787 L2.1839492,16.9271787 C1.59899432,16.9271787 1.13090586,16.6755941 1.13090586,16.3656801 L1.13090586,16.0028338 C1.13090586,15.6927122 1.59899432,15.4411276 2.1839492,15.4411276 L18.8001553,15.4411276 C19.3795055,15.4411276 19.8534062,15.6927122 19.8534062,16.0028338" id="Fill-8" fill="#E2F0F7"></path>
                        <g id="Group-12" transform="translate(0.000000, 14.669124)" fill="#F3FCFF">
                            <path d="M19.8534062,1.69647296 C19.8534062,2.00659453 19.3795055,2.2581791 18.8001553,2.2581791 L2.1839492,2.2581791 C1.59899432,2.2581791 1.13090586,2.00659453 1.13090586,1.69647296 L1.13090586,1.33362656 C1.13090586,1.02371257 1.59899432,0.771920417 2.1839492,0.771920417 L18.8001553,0.771920417 C19.3795055,0.771920417 19.8534062,1.02371257 19.8534062,1.33362656 L19.8534062,1.69647296 Z M19.9117356,0.0289986507 L1.18923529,0.0289986507 C0.528099264,0.0289986507 0.00168138204,0.561436295 0.00168138204,1.21655255 L0.00168138204,1.97732603 C0.00168138204,2.63264987 0.528099264,3.16508751 1.18923529,3.16508751 L19.9117356,3.16508751 C20.5670595,3.16508751 21.0994971,2.63264987 21.0994971,1.97732603 L21.0994971,1.21655255 C21.0994971,0.561436295 20.5670595,0.0289986507 19.9117356,0.0289986507 L19.9117356,0.0289986507 Z" id="Fill-10"></path>
                        </g>
                        <mask id="mask-10" fill="white">
                            <use xlink:href="#path-9"></use>
                        </mask>
                        <g id="Clip-14"></g>
                        <polygon id="Fill-13" fill="#847264" mask="url(#mask-10)" points="1.4341566 28.7377251 19.6653197 28.7377251 19.6653197 22.6332704 1.4341566 22.6332704"></polygon>
                        <path d="M19.2494164,33.2825007 L1.84856538,33.2825007 C1.61919166,33.2825007 1.43340932,33.0965108 1.43340932,32.8673447 L1.43340932,28.7375798 L19.6645725,28.7375798 L19.6645725,32.8673447 C19.6645725,33.0965108 19.4785825,33.2825007 19.2494164,33.2825007" id="Fill-15" fill="#685A50" mask="url(#mask-10)"></path>
                        <path d="M8.30578824,13.7016445 L8.29645791,13.7016445" id="Stroke-16" stroke-linecap="round" stroke-linejoin="round" mask="url(#mask-10)"></path>
                        <path d="M19.2494164,24.2444288 L1.84856538,24.2444288 C1.61919166,24.2444288 1.43340932,24.0586464 1.43340932,23.8292727 L1.43340932,21.4373511 C1.43340932,21.2079774 1.61919166,21.022195 1.84856538,21.022195 L19.2494164,21.022195 C19.4785825,21.022195 19.6645725,21.2079774 19.6645725,21.4373511 L19.6645725,23.8292727 C19.6645725,24.0586464 19.4785825,24.2444288 19.2494164,24.2444288" id="Fill-17" fill="#9B8676" mask="url(#mask-10)"></path>
                        <path d="M17.1678654,22.5904886 L15.3621442,22.5904886 C15.3621442,22.1275896 15.7665062,21.7522885 16.2651086,21.7522885 C16.763711,21.7522885 17.1678654,22.1275896 17.1678654,22.5904886" id="Fill-18" fill="#B3B3B3" mask="url(#mask-10)"></path>
                        <path d="M16.8725027,22.5904886 L15.0667814,22.5904886 C15.0667814,22.1275896 15.4711434,21.7522885 15.9697458,21.7522885 C16.4683482,21.7522885 16.8725027,22.1275896 16.8725027,22.5904886" id="Fill-19" fill="#C3C6C8" mask="url(#mask-10)"></path>
                        <path d="M6.07217629,22.5904886 L4.26645502,22.5904886 C4.26645502,22.1275896 4.67081702,21.7522885 5.16941945,21.7522885 C5.66802187,21.7522885 6.07217629,22.1275896 6.07217629,22.5904886" id="Fill-20" fill="#B3B3B3" mask="url(#mask-10)"></path>
                        <path d="M5.77681352,22.5904886 L3.97109224,22.5904886 C3.97109224,22.1275896 4.37545424,21.7522885 4.87405667,21.7522885 C5.37265909,21.7522885 5.77681352,22.1275896 5.77681352,22.5904886" id="Fill-21" fill="#C3C6C8" mask="url(#mask-10)"></path>
                        <path d="M14.4894239,31.8601553 C14.4894239,32.174636 14.234518,32.4297494 13.9198297,32.4297494 C13.605349,32.4297494 13.3504432,32.174636 13.3504432,31.8601553 C13.3504432,31.5456746 13.605349,31.2905612 13.9198297,31.2905612 C14.234518,31.2905612 14.4894239,31.5456746 14.4894239,31.8601553" id="Fill-22" fill="#9B8676" mask="url(#mask-10)"></path>
                        <path d="M8.12991805,31.8601553 C8.12991805,32.174636 7.87480466,32.4297494 7.56032394,32.4297494 C7.24584323,32.4297494 6.99093741,32.174636 6.99093741,31.8601553 C6.99093741,31.5456746 7.24584323,31.2905612 7.56032394,31.2905612 C7.87480466,31.2905612 8.12991805,31.5456746 8.12991805,31.8601553" id="Fill-23" fill="#9B8676" mask="url(#mask-10)"></path>
                        <path d="M11.8080347,30.388863 C11.8080347,30.7035513 11.5529213,30.9584571 11.2384406,30.9584571 C10.9239598,30.9584571 10.669054,30.7035513 10.669054,30.388863 C10.669054,30.0743823 10.9239598,29.8192689 11.2384406,29.8192689 C11.5529213,29.8192689 11.8080347,30.0743823 11.8080347,30.388863" id="Fill-24" fill="#847264" mask="url(#mask-10)"></path>
                        <path d="M17.5268716,30.5549877 C17.5268716,30.8694684 17.2717582,31.1245818 16.9572775,31.1245818 C16.6427968,31.1245818 16.387891,30.8694684 16.387891,30.5549877 C16.387891,30.240507 16.6427968,29.9853936 16.9572775,29.9853936 C17.2717582,29.9853936 17.5268716,30.240507 17.5268716,30.5549877" id="Fill-25" fill="#9B8676" mask="url(#mask-10)"></path>
                        <path d="M4.38631057,30.3112288 C4.38631057,30.6257095 4.13119718,30.8808229 3.81671646,30.8808229 C3.50223575,30.8808229 3.24732993,30.6257095 3.24732993,30.3112288 C3.24732993,29.9967481 3.50223575,29.7416347 3.81671646,29.7416347 C4.13119718,29.7416347 4.38631057,29.9967481 4.38631057,30.3112288" id="Fill-26" fill="#847264" mask="url(#mask-10)"></path>
                        <path d="M8.8573545,22.646846 L12.6248957,22.646846 C12.6248957,22.2568069 12.3087544,21.940458 11.9185077,21.940458 C11.8444023,21.940458 11.7744485,21.9549884 11.7071933,21.976369 C11.4946334,21.670399 11.1417507,21.4694634 10.7411251,21.4694634 C10.3407071,21.4694634 9.98782445,21.670399 9.77505697,21.976369 C9.70800926,21.9549884 9.63784789,21.940458 9.56374253,21.940458 C9.17370342,21.940458 8.8573545,22.2568069 8.8573545,22.646846" id="Fill-27" fill="#847264" mask="url(#mask-10)"></path>
                        <path d="M10.7759152,6.22734087e-05 C7.55824816,6.22734087e-05 5.84074755,10.0350069 5.84074755,11.9856177 C5.84074755,14.7069656 8.05456723,16.9209929 10.7759152,16.9209929 C13.4972632,16.9209929 15.7110828,14.7069656 15.7110828,11.9856177 C15.7110828,10.0352145 13.9937898,6.22734087e-05 10.7759152,6.22734087e-05" id="Fill-28" fill="#BFEC80" mask="url(#mask-10)"></path>
                        <path d="M7.95578085,11.9856799 C7.95578085,10.2613293 9.29901827,2.22349282 11.833546,0.381445386 C11.5012136,0.13982456 11.1489537,0.000124546817 10.7759359,0.000124546817 C7.55806134,0.000124546817 5.84076831,10.0350692 5.84076831,11.9856799 C5.84076831,14.7070279 8.05479557,16.9208476 10.7759359,16.9208476 C11.1391975,16.9208476 11.4924953,16.8789168 11.833546,16.8039812 C9.61910359,16.3182486 7.95578085,14.3437664 7.95578085,11.9856799" id="Fill-29" fill="#AAE655" mask="url(#mask-10)"></path>
                        <path d="M12.6844706,11.4872021 C12.4090146,11.211746 11.9629294,11.211746 11.6874733,11.4872021 L11.4811408,11.6937422 L11.4811408,10.5755194 C11.4811408,10.186103 11.1654146,9.8703768 10.7759982,9.8703768 C10.3865818,9.8703768 10.0708557,10.186103 10.0708557,10.5755194 L10.0708557,13.1038198 L9.86431552,12.8972796 C9.58885947,12.6218236 9.14277429,12.6218236 8.86731824,12.8972796 C8.59206978,13.1727357 8.59206978,13.6190284 8.86731824,13.8942769 L10.0710632,15.0978143 L10.0710632,21.8561398 L11.4811408,21.8561398 L11.4811408,13.6877368 L12.6844706,12.4841993 C12.9599267,12.2087433 12.9599267,11.7626581 12.6844706,11.4872021" id="Fill-30" fill="#759684" mask="url(#mask-10)"></path>
                        <path d="M21.0980648,16.2309828 L21.0980648,16.6463464 C21.0980648,17.3016702 20.5656272,17.8341079 19.9100957,17.8341079 L1.18759542,17.8341079 C0.526459397,17.8341079 4.15156058e-05,17.3016702 4.15156058e-05,16.6463464 L4.15156058e-05,16.2309828 L1.12926599,16.2309828 L1.12926599,16.3654933 C1.12926599,16.6756149 1.59735445,16.9271995 2.18230933,16.9271995 L18.7985154,16.9271995 C19.3778657,16.9271995 19.8519739,16.6756149 19.8519739,16.3654933 L19.8519739,16.2309828 L21.0980648,16.2309828 Z" id="Fill-31" fill="#F3FCFF" mask="url(#mask-10)"></path>
                    </g>
                    <g id="Page-1-Copy-5" transform="translate(27.897958, 70.707892)">
                        <g id="Group-3" transform="translate(0.000000, 16.122170)">
                            <mask id="mask-12" fill="white">
                                <use xlink:href="#path-11"></use>
                            </mask>
                            <g id="Clip-2"></g>
                            <path d="M21.0987706,0.108812403 L21.0987706,16.1340438 C21.0987706,17.4270474 20.0515394,18.4744861 18.7585359,18.4744861 L2.34118956,18.4744861 C1.04818602,18.4744861 0.000747280905,17.4270474 0.000747280905,16.1340438 L0.000747280905,0.108812403 L1.13017934,0.108812403 L1.13017934,0.243322966 C1.13017934,0.553444541 1.59806021,0.805029112 2.18322268,0.805029112 L18.7992212,0.805029112 C19.3785714,0.805029112 19.8526797,0.553444541 19.8526797,0.243322966 L19.8526797,0.108812403 L21.0987706,0.108812403 Z" id="Fill-1" fill="#E2F0F7" mask="url(#mask-12)"></path>
                        </g>
                        <path d="M19.8534062,16.2309828 L19.8534062,16.3654933 C19.8534062,16.6756149 19.3795055,16.9271995 18.8001553,16.9271995 L2.1839492,16.9271995 C1.59899432,16.9271995 1.13090586,16.6756149 1.13090586,16.3654933 L1.13090586,16.2309828 L19.8534062,16.2309828 Z" id="Fill-4" fill="#E2F0F7"></path>
                        <path d="M19.8534062,16.0028338 L19.8534062,16.3656801 C19.8534062,16.6755941 19.3795055,16.9271787 18.8001553,16.9271787 L2.1839492,16.9271787 C1.59899432,16.9271787 1.13090586,16.6755941 1.13090586,16.3656801 L1.13090586,16.0028338 C1.13090586,15.6927122 1.59899432,15.4411276 2.1839492,15.4411276 L18.8001553,15.4411276 C19.3795055,15.4411276 19.8534062,15.6927122 19.8534062,16.0028338" id="Fill-6" fill="#F3FCFF"></path>
                        <path d="M19.8534062,16.0028338 L19.8534062,16.3656801 C19.8534062,16.6755941 19.3795055,16.9271787 18.8001553,16.9271787 L2.1839492,16.9271787 C1.59899432,16.9271787 1.13090586,16.6755941 1.13090586,16.3656801 L1.13090586,16.0028338 C1.13090586,15.6927122 1.59899432,15.4411276 2.1839492,15.4411276 L18.8001553,15.4411276 C19.3795055,15.4411276 19.8534062,15.6927122 19.8534062,16.0028338" id="Fill-8" fill="#E2F0F7"></path>
                        <g id="Group-12" transform="translate(0.000000, 14.669124)" fill="#F3FCFF">
                            <path d="M19.8534062,1.69647296 C19.8534062,2.00659453 19.3795055,2.2581791 18.8001553,2.2581791 L2.1839492,2.2581791 C1.59899432,2.2581791 1.13090586,2.00659453 1.13090586,1.69647296 L1.13090586,1.33362656 C1.13090586,1.02371257 1.59899432,0.771920417 2.1839492,0.771920417 L18.8001553,0.771920417 C19.3795055,0.771920417 19.8534062,1.02371257 19.8534062,1.33362656 L19.8534062,1.69647296 Z M19.9117356,0.0289986507 L1.18923529,0.0289986507 C0.528099264,0.0289986507 0.00168138204,0.561436295 0.00168138204,1.21655255 L0.00168138204,1.97732603 C0.00168138204,2.63264987 0.528099264,3.16508751 1.18923529,3.16508751 L19.9117356,3.16508751 C20.5670595,3.16508751 21.0994971,2.63264987 21.0994971,1.97732603 L21.0994971,1.21655255 C21.0994971,0.561436295 20.5670595,0.0289986507 19.9117356,0.0289986507 L19.9117356,0.0289986507 Z" id="Fill-10"></path>
                        </g>
                        <mask id="mask-14" fill="white">
                            <use xlink:href="#path-13"></use>
                        </mask>
                        <g id="Clip-14"></g>
                        <polygon id="Fill-13" fill="#847264" mask="url(#mask-14)" points="1.4341566 28.7377251 19.6653197 28.7377251 19.6653197 22.6332704 1.4341566 22.6332704"></polygon>
                        <path d="M19.2494164,33.2825007 L1.84856538,33.2825007 C1.61919166,33.2825007 1.43340932,33.0965108 1.43340932,32.8673447 L1.43340932,28.7375798 L19.6645725,28.7375798 L19.6645725,32.8673447 C19.6645725,33.0965108 19.4785825,33.2825007 19.2494164,33.2825007" id="Fill-15" fill="#685A50" mask="url(#mask-14)"></path>
                        <path d="M8.30578824,13.7016445 L8.29645791,13.7016445" id="Stroke-16" stroke-linecap="round" stroke-linejoin="round" mask="url(#mask-14)"></path>
                        <path d="M19.2494164,24.2444288 L1.84856538,24.2444288 C1.61919166,24.2444288 1.43340932,24.0586464 1.43340932,23.8292727 L1.43340932,21.4373511 C1.43340932,21.2079774 1.61919166,21.022195 1.84856538,21.022195 L19.2494164,21.022195 C19.4785825,21.022195 19.6645725,21.2079774 19.6645725,21.4373511 L19.6645725,23.8292727 C19.6645725,24.0586464 19.4785825,24.2444288 19.2494164,24.2444288" id="Fill-17" fill="#9B8676" mask="url(#mask-14)"></path>
                        <path d="M17.1678654,22.5904886 L15.3621442,22.5904886 C15.3621442,22.1275896 15.7665062,21.7522885 16.2651086,21.7522885 C16.763711,21.7522885 17.1678654,22.1275896 17.1678654,22.5904886" id="Fill-18" fill="#B3B3B3" mask="url(#mask-14)"></path>
                        <path d="M16.8725027,22.5904886 L15.0667814,22.5904886 C15.0667814,22.1275896 15.4711434,21.7522885 15.9697458,21.7522885 C16.4683482,21.7522885 16.8725027,22.1275896 16.8725027,22.5904886" id="Fill-19" fill="#C3C6C8" mask="url(#mask-14)"></path>
                        <path d="M6.07217629,22.5904886 L4.26645502,22.5904886 C4.26645502,22.1275896 4.67081702,21.7522885 5.16941945,21.7522885 C5.66802187,21.7522885 6.07217629,22.1275896 6.07217629,22.5904886" id="Fill-20" fill="#B3B3B3" mask="url(#mask-14)"></path>
                        <path d="M5.77681352,22.5904886 L3.97109224,22.5904886 C3.97109224,22.1275896 4.37545424,21.7522885 4.87405667,21.7522885 C5.37265909,21.7522885 5.77681352,22.1275896 5.77681352,22.5904886" id="Fill-21" fill="#C3C6C8" mask="url(#mask-14)"></path>
                        <path d="M14.4894239,31.8601553 C14.4894239,32.174636 14.234518,32.4297494 13.9198297,32.4297494 C13.605349,32.4297494 13.3504432,32.174636 13.3504432,31.8601553 C13.3504432,31.5456746 13.605349,31.2905612 13.9198297,31.2905612 C14.234518,31.2905612 14.4894239,31.5456746 14.4894239,31.8601553" id="Fill-22" fill="#9B8676" mask="url(#mask-14)"></path>
                        <path d="M8.12991805,31.8601553 C8.12991805,32.174636 7.87480466,32.4297494 7.56032394,32.4297494 C7.24584323,32.4297494 6.99093741,32.174636 6.99093741,31.8601553 C6.99093741,31.5456746 7.24584323,31.2905612 7.56032394,31.2905612 C7.87480466,31.2905612 8.12991805,31.5456746 8.12991805,31.8601553" id="Fill-23" fill="#9B8676" mask="url(#mask-14)"></path>
                        <path d="M11.8080347,30.388863 C11.8080347,30.7035513 11.5529213,30.9584571 11.2384406,30.9584571 C10.9239598,30.9584571 10.669054,30.7035513 10.669054,30.388863 C10.669054,30.0743823 10.9239598,29.8192689 11.2384406,29.8192689 C11.5529213,29.8192689 11.8080347,30.0743823 11.8080347,30.388863" id="Fill-24" fill="#847264" mask="url(#mask-14)"></path>
                        <path d="M17.5268716,30.5549877 C17.5268716,30.8694684 17.2717582,31.1245818 16.9572775,31.1245818 C16.6427968,31.1245818 16.387891,30.8694684 16.387891,30.5549877 C16.387891,30.240507 16.6427968,29.9853936 16.9572775,29.9853936 C17.2717582,29.9853936 17.5268716,30.240507 17.5268716,30.5549877" id="Fill-25" fill="#9B8676" mask="url(#mask-14)"></path>
                        <path d="M4.38631057,30.3112288 C4.38631057,30.6257095 4.13119718,30.8808229 3.81671646,30.8808229 C3.50223575,30.8808229 3.24732993,30.6257095 3.24732993,30.3112288 C3.24732993,29.9967481 3.50223575,29.7416347 3.81671646,29.7416347 C4.13119718,29.7416347 4.38631057,29.9967481 4.38631057,30.3112288" id="Fill-26" fill="#847264" mask="url(#mask-14)"></path>
                        <path d="M8.8573545,22.646846 L12.6248957,22.646846 C12.6248957,22.2568069 12.3087544,21.940458 11.9185077,21.940458 C11.8444023,21.940458 11.7744485,21.9549884 11.7071933,21.976369 C11.4946334,21.670399 11.1417507,21.4694634 10.7411251,21.4694634 C10.3407071,21.4694634 9.98782445,21.670399 9.77505697,21.976369 C9.70800926,21.9549884 9.63784789,21.940458 9.56374253,21.940458 C9.17370342,21.940458 8.8573545,22.2568069 8.8573545,22.646846" id="Fill-27" fill="#847264" mask="url(#mask-14)"></path>
                        <path d="M10.7759152,6.22734087e-05 C7.55824816,6.22734087e-05 5.84074755,10.0350069 5.84074755,11.9856177 C5.84074755,14.7069656 8.05456723,16.9209929 10.7759152,16.9209929 C13.4972632,16.9209929 15.7110828,14.7069656 15.7110828,11.9856177 C15.7110828,10.0352145 13.9937898,6.22734087e-05 10.7759152,6.22734087e-05" id="Fill-28" fill="#BFEC80" mask="url(#mask-14)"></path>
                        <path d="M7.95578085,11.9856799 C7.95578085,10.2613293 9.29901827,2.22349282 11.833546,0.381445386 C11.5012136,0.13982456 11.1489537,0.000124546817 10.7759359,0.000124546817 C7.55806134,0.000124546817 5.84076831,10.0350692 5.84076831,11.9856799 C5.84076831,14.7070279 8.05479557,16.9208476 10.7759359,16.9208476 C11.1391975,16.9208476 11.4924953,16.8789168 11.833546,16.8039812 C9.61910359,16.3182486 7.95578085,14.3437664 7.95578085,11.9856799" id="Fill-29" fill="#AAE655" mask="url(#mask-14)"></path>
                        <path d="M12.6844706,11.4872021 C12.4090146,11.211746 11.9629294,11.211746 11.6874733,11.4872021 L11.4811408,11.6937422 L11.4811408,10.5755194 C11.4811408,10.186103 11.1654146,9.8703768 10.7759982,9.8703768 C10.3865818,9.8703768 10.0708557,10.186103 10.0708557,10.5755194 L10.0708557,13.1038198 L9.86431552,12.8972796 C9.58885947,12.6218236 9.14277429,12.6218236 8.86731824,12.8972796 C8.59206978,13.1727357 8.59206978,13.6190284 8.86731824,13.8942769 L10.0710632,15.0978143 L10.0710632,21.8561398 L11.4811408,21.8561398 L11.4811408,13.6877368 L12.6844706,12.4841993 C12.9599267,12.2087433 12.9599267,11.7626581 12.6844706,11.4872021" id="Fill-30" fill="#759684" mask="url(#mask-14)"></path>
                        <path d="M21.0980648,16.2309828 L21.0980648,16.6463464 C21.0980648,17.3016702 20.5656272,17.8341079 19.9100957,17.8341079 L1.18759542,17.8341079 C0.526459397,17.8341079 4.15156058e-05,17.3016702 4.15156058e-05,16.6463464 L4.15156058e-05,16.2309828 L1.12926599,16.2309828 L1.12926599,16.3654933 C1.12926599,16.6756149 1.59735445,16.9271995 2.18230933,16.9271995 L18.7985154,16.9271995 C19.3778657,16.9271995 19.8519739,16.6756149 19.8519739,16.3654933 L19.8519739,16.2309828 L21.0980648,16.2309828 Z" id="Fill-31" fill="#F3FCFF" mask="url(#mask-14)"></path>
                    </g>
                </g>
                <g id="Group-7-Copy" transform="translate(23.865842, 84.500000)" fill="#667B8F" fill-opacity="0.5">
                    <rect id="Rectangle-3" x="10.2877362" y="0.0692772392" width="50.6829259" height="3.55669655"></rect>
                    <rect id="Rectangle-3-Copy-9" x="10.2877362" y="27.9078768" width="50.6829259" height="3.55669655"></rect>
                    <rect id="Rectangle-3-Copy" x="10.2877362" y="9.46899408" width="25.3414629" height="3.55669655"></rect>
                    <rect id="Rectangle-3-Copy-3" x="10.2877362" y="18.8053225" width="16.995249" height="3.55669655"></rect>
                    <rect id="Rectangle-3-Copy-5" x="39.6270094" y="18.8053225" width="16.995249" height="3.55669655"></rect>
                    <rect id="Rectangle-3-Copy-2" x="38.5311718" y="9.46899408" width="9.54299197" height="3.55669655"></rect>
                    <rect id="Rectangle-3-Copy-6" x="0.215861099" y="9.46899408" width="5.33676946" height="3.55669655"></rect>
                    <rect id="Rectangle-3-Copy-7" x="0.215861099" y="0.0692772392" width="5.33676946" height="3.55669655"></rect>
                    <rect id="Rectangle-3-Copy-13" x="0.215861099" y="27.9078768" width="5.33676946" height="3.55669655"></rect>
                    <rect id="Rectangle-3-Copy-8" x="0.215861099" y="18.5078302" width="5.33676946" height="3.55669655"></rect>
                    <rect id="Rectangle-3-Copy-4" x="30.3528171" y="18.8053225" width="6.40000638" height="3.55669655"></rect>
                </g>
            </g>
        </g>
    </g>
</svg>