<?xml version="1.0" encoding="UTF-8" standalone="no"?>
<svg width="789px" height="534px" viewBox="0 0 789 534" version="1.1" xmlns="http://www.w3.org/2000/svg" xmlns:xlink="http://www.w3.org/1999/xlink">
    <!-- Generator: Sketch 3.8.3 (29802) - http://www.bohemiancoding.com/sketch -->
    <title>graphic-watermark-h</title>
    <desc>Created with Sketch.</desc>
    <defs></defs>
    <g id="Habitat-Web-Home" stroke="none" stroke-width="1" fill="none" fill-rule="evenodd" stroke-opacity="0.12">
        <g transform="translate(-326.000000, -3450.000000)" id="Legacy" stroke="#87B09A">
            <g transform="translate(0.000000, 3337.000000)">
                <g id="Background">
                    <g id="Watermark" transform="translate(326.000000, 113.000000)">
                        <path d="M783.722826,256.629987 L690.219472,162.68615 C681.030349,153.453739 665.302037,159.993364 665.302037,173.06249 L665.302037,206.044066 C665.302037,214.142672 658.772923,220.712667 650.712289,220.712667 L599.507112,220.712667 C591.446478,220.712667 584.917364,214.142672 584.917364,206.044066 L584.917364,138.936987 C584.917364,130.83838 591.446478,124.268385 599.507112,124.268385 L616.746793,124.268385 C629.744565,124.268385 636.273679,108.476102 627.064404,99.2335675 L533.56105,5.2897307 C527.878303,-0.429910232 518.628726,-0.429910232 512.925827,5.2897307 L419.422473,99.2335675 C410.223274,108.476102 416.742312,124.268385 429.740084,124.268385 L450.22417,124.268385 C458.284804,124.268385 464.803842,130.83838 464.803842,138.936987 L464.803842,204.758412 C464.803842,212.857018 458.284804,219.427013 450.22417,219.427013 L338.020145,219.427013 C329.959511,219.427013 323.430398,212.857018 323.430398,204.758412 L323.430398,138.936987 C323.430398,130.83838 329.959511,124.268385 338.020145,124.268385 L359.259916,124.268385 C372.257688,124.268385 378.786802,108.476102 369.577527,99.2335675 L276.074173,5.2897307 C270.371274,-0.429910232 261.131773,-0.429910232 255.428874,5.2897307 L161.935596,99.2335675 C152.736397,108.476102 159.245359,124.268385 172.253207,124.268385 L188.727128,124.268385 C196.787762,124.268385 203.326951,130.83838 203.326951,138.936987 L203.326951,206.044066 C203.326951,214.142672 196.787762,220.712667 188.727128,220.712667 L138.287711,220.712667 C130.217001,220.712667 123.697963,214.142672 123.697963,206.044066 L123.697963,173.06249 C123.697963,159.993364 107.959575,153.453739 98.7805282,162.68615 L5.27717391,256.629987 C-0.425724638,262.359751 -0.425724638,271.642779 5.27717391,277.372544 L98.7805282,371.306257 C107.959575,380.548792 123.697963,374.009167 123.697963,360.940041 L123.697963,327.948342 C123.697963,319.849735 130.217001,313.289864 138.287711,313.289864 L188.727128,313.289864 C196.787762,313.289864 203.326951,319.849735 203.326951,327.948342 L203.326951,395.065544 C203.326951,403.164151 196.787762,409.734146 188.727128,409.734146 L172.253207,409.734146 C159.245359,409.734146 152.726321,425.526428 161.935596,434.75884 L255.428874,528.702677 C261.121697,534.432441 270.361199,534.432441 276.074173,528.702677 L369.577527,434.75884 C378.776726,425.526428 372.257688,409.734146 359.259916,409.734146 L338.020145,409.734146 C329.959511,409.734146 323.430398,403.164151 323.430398,395.065544 L323.430398,328.960668 C323.430398,320.862061 329.959511,314.292066 338.020145,314.292066 L450.22417,314.292066 C458.284804,314.292066 464.803842,320.862061 464.803842,328.960668 L464.803842,395.065544 C464.803842,403.164151 458.284804,409.734146 450.22417,409.734146 L429.740084,409.734146 C416.742312,409.734146 410.213198,425.526428 419.422473,434.75884 L512.925827,528.702677 C518.61865,534.432441 527.868227,534.432441 533.56105,528.702677 L627.064404,434.75884 C636.263603,425.526428 629.744565,409.734146 616.746793,409.734146 L599.507112,409.734146 C591.446478,409.734146 584.917364,403.164151 584.917364,395.065544 L584.917364,327.948342 C584.917364,319.849735 591.446478,313.289864 599.507112,313.289864 L650.712289,313.289864 C658.772923,313.289864 665.302037,319.849735 665.302037,327.948342 L665.302037,360.940041 C665.302037,374.009167 681.030349,380.548792 690.219472,371.306257 L783.722826,277.372544 C789.425725,271.642779 789.425725,262.359751 783.722826,256.629987" id="graphic-watermark-h"></path>
                    </g>
                </g>
            </g>
        </g>
    </g>
</svg>