<?xml version="1.0" encoding="UTF-8" standalone="no"?>
<svg width="1005px" height="1050px" viewBox="0 0 1005 1050" version="1.1" xmlns="http://www.w3.org/2000/svg" xmlns:xlink="http://www.w3.org/1999/xlink">
    <!-- Generator: Sketch 3.8.3 (29802) - http://www.bohemiancoding.com/sketch -->
    <title>graphic-feature-bg</title>
    <desc>Created with Sketch.</desc>
    <defs>
        <path d="M208.076211,247.222354 L208.250445,247.396543 L246.595734,208.670049 C253.026898,202.816432 257.06314,194.376874 257.06314,184.994238 L257.06314,32.9988467 C257.06314,15.3152289 242.738004,0.996542573 225.067053,0.996542573 L73.0030352,0.996542573 C63.5099327,0.996542573 54.9837074,5.13030691 49.124543,11.6960543 L13.7146443,47.4543264 C5.98839775,53.296418 0.996542573,62.564453 0.996542573,72.9988467 L0.996542573,224.994238 C0.996542573,242.677856 15.3216786,256.996543 32.9926293,256.996543 L185.056647,256.996543 C194.095654,256.996543 202.258071,253.248791 208.076211,247.222354 Z" id="path-1"></path>
        <mask id="mask-2" maskContentUnits="userSpaceOnUse" maskUnits="objectBoundingBox" x="0" y="0" width="256.066597" height="256" fill="white">
            <use xlink:href="#path-1"></use>
        </mask>
        <path d="M271.717684,323.167684 L271.95,323.4 L322.342676,272.493113 C330.73586,264.813381 336,253.769878 336,241.496976 L336,42.0030242 C336,18.8070262 317.194606,4.54747351e-13 293.996976,4.54747351e-13 L94.5030242,4.54747351e-13 C82.0772923,4.54747351e-13 70.9110095,5.39635212 63.2205006,13.973484 L16.6588284,61.0054764 C6.53803263,68.674908 6.82121026e-13,80.8255127 6.82121026e-13,94.5030242 L6.82121026e-13,293.996976 C6.82121026e-13,317.192974 18.8053945,336 42.0030242,336 L241.496976,336 C253.36216,336 264.078964,331.079545 271.717684,323.167684 Z" id="path-3"></path>
        <mask id="mask-4" maskContentUnits="userSpaceOnUse" maskUnits="objectBoundingBox" x="0" y="0" width="336" height="336" fill="white">
            <use xlink:href="#path-3"></use>
        </mask>
    </defs>
    <g id="Habitat-Web-Home" stroke="none" stroke-width="1" fill="none" fill-rule="evenodd" opacity="0.0399999991">
        <g transform="translate(-217.000000, -958.000000)" id="Features">
            <g transform="translate(174.000000, 582.000000)">
                <g id="graphic-feature-bg">
                    <g id="Group-7-Copy-3" transform="translate(545.292893, 545.000000) scale(-1, 1) rotate(135.000000) translate(-545.292893, -545.000000) translate(159.792893, 160.500000)">
                        <path d="M464.146266,503.225812 L464.320499,503.4 L502.665789,464.673506 C509.096952,458.819889 513.133195,450.380331 513.133195,440.997696 L513.133195,289.002304 C513.133195,271.318686 498.808059,257 481.137108,257 L329.07309,257 C319.579987,257 311.053762,261.133764 305.194598,267.699512 L269.784699,303.457784 C262.058452,309.299875 257.066597,318.56791 257.066597,329.002304 L257.066597,480.997696 C257.066597,498.681314 271.391733,513 289.062684,513 L441.126702,513 C450.165709,513 458.328126,509.252248 464.146266,503.225812 Z" id="Combined-Shape" fill="#5C6670"></path>
                        <use id="Combined-Shape-Copy-2" stroke="#979797" mask="url(#mask-2)" stroke-width="4" xlink:href="#path-1"></use>
                        <g id="Group-32" transform="translate(513.133195, 513.000000)">
                            <path d="M48.5281045,10.6995117 C54.3872689,4.13376434 62.9134942,1.47792889e-12 72.4065967,1.47792889e-12 L224.470615,1.47792889e-12 C242.141565,1.47792889e-12 256.466701,14.3186863 256.466701,32.0023042 L256.466701,183.997696 C256.466701,193.380331 252.430459,201.819889 245.999296,207.673506 L207.654006,246.4 L177.246098,216 L72.4065967,216 C54.7356459,216 40.4105099,201.681314 40.4105099,183.997696 L40.4105099,79.2 L10.4027055,49.2 L48.5281045,10.6995117 Z" id="Combined-Shape-Copy" fill="#5C6670"></path>
                            <rect id="Rectangle-13-Copy-4" fill="#87B09A" x="1.59161573e-12" y="40" width="216.056191" height="216" rx="32.0000005"></rect>
                        </g>
                    </g>
                    <g id="Group-7-Copy-9" transform="translate(377.000000, 1205.000000) rotate(135.000000) translate(-377.000000, -1205.000000) translate(209.000000, 1037.000000)">
                        <path d="M247.024949,286.224949 L247.2,286.4 L285.555285,247.653334 C291.974068,241.800509 296,233.369559 296,223.997696 L296,72.0023042 C296,54.3186863 281.67208,40 263.997696,40 L112.002304,40 C102.511028,40 93.9891081,44.1275286 88.1301928,50.6846537 L52.7058746,86.4667934 C44.9854289,92.3094016 40,101.573273 40,112.002304 L40,263.997696 C40,281.681314 54.3279196,296 72.0023042,296 L223.997696,296 C233.042219,296 241.206493,292.251891 247.024949,286.224949 Z" id="Combined-Shape" fill="#5C6670"></path>
                        <use id="Combined-Shape-Copy-2" stroke="#87B09A" mask="url(#mask-4)" stroke-width="6.30000009" xlink:href="#path-3"></use>
                    </g>
                </g>
            </g>
        </g>
    </g>
</svg>