<?xml version="1.0" encoding="utf-8"?>
<!-- Generator: Adobe Illustrator 19.1.0, SVG Export Plug-In . SVG Version: 6.00 Build 0)  -->
<svg version="1.1" id="Layer_1" xmlns="http://www.w3.org/2000/svg" xmlns:xlink="http://www.w3.org/1999/xlink" x="0px" y="0px"
	 viewBox="-145 278 320 234" style="enable-background:new -145 278 320 234;" xml:space="preserve">
<style type="text/css">
	.st0{filter:url(#filter-4);}
	.st1{fill:url(#path-2_3_);}
	.st2{filter:url(#Adobe_OpacityMaskFilter);}
	.st3{fill:#FFFFFF;}
	.st4{opacity:0.25;mask:url(#mask-3);fill:#87B09A;fill-opacity:0.85;enable-background:new    ;}
</style>
<filter  width="200%" height="200%" x="-50%" id="filter-4" y="-50%" filterUnits="objectBoundingBox">
	<feOffset  dy="2" dx="2" in="SourceAlpha" result="shadowOffsetOuter1"></feOffset>
	<feGaussianBlur  in="shadowOffsetOuter1" result="shadowBlurOuter1" stdDeviation="17"></feGaussianBlur>
	
		<feColorMatrix  type="matrix" in="shadowBlurOuter1" values="0 0 0 0 0.360784314   0 0 0 0 0.4   0 0 0 0 0.439215686  0 0 0 0.32 0">
		</feColorMatrix>
</filter>
<title>solutions-bg-mobile</title>
<desc>Created with Sketch.</desc>
<g id="Habitat-Web-Home">
	<g id="Habitat-Web-Home-Mobile" transform="translate(0.000000, -2589.000000)">
		<g id="Logo-bar" transform="translate(0.000000, 2621.000000)">
			<g id="Background">
				<g id="Mask">
					<g class="st0">
						<polygon id="path-2_3_" points="175,246 -145,246 -145,480 175,480 						"/>
					</g>
					<g>
						
							<linearGradient id="path-2_3_" gradientUnits="userSpaceOnUse" x1="-289.3318" y1="760.3757" x2="-288.8002" y2="760.5279" gradientTransform="matrix(320 0 0 -234 92510 178310)">
							<stop  offset="0" style="stop-color:#739382"/>
							<stop  offset="1" style="stop-color:#87B09A"/>
						</linearGradient>
						<polygon id="path-2_2_" class="st1" points="175,246 -145,246 -145,480 175,480 						"/>
					</g>
				</g>
				<defs>
					<filter id="Adobe_OpacityMaskFilter" filterUnits="userSpaceOnUse" x="-136.9" y="275.2" width="481.8" height="481.8">
						<feColorMatrix  type="matrix" values="1 0 0 0 0  0 1 0 0 0  0 0 1 0 0  0 0 0 1 0"/>
					</filter>
				</defs>
				<mask maskUnits="userSpaceOnUse" x="-136.9" y="275.2" width="481.8" height="481.8" id="mask-3">
					<g class="st2">
						<polygon id="path-2" class="st3" points="175,246 -145,246 -145,480 175,480 						"/>
					</g>
				</mask>
				<path id="Combined-Shape" class="st4" d="M-55.7,450.6l52.9,52.9c6.5,6.5,6.5,17,0,23.4l-52.9,52.9c-6.5,6.5-17,6.5-23.4,0
					l-52.9-52.9c-6.5-6.5-6.5-17,0-23.4l52.9-52.9C-72.7,444.1-62.2,444.1-55.7,450.6z M29.4,537.3l52.9,52.9c6.5,6.5,6.5,17,0,23.4
					l-52.9,52.9c-6.5,6.5-17,6.5-23.4,0l-52.9-52.9c-6.5-6.5-6.5-17,0-23.4L6,537.3C12.4,530.9,22.9,530.9,29.4,537.3z M115.8,623
					l52.9,52.9c6.5,6.5,6.5,17,0,23.4l-52.9,52.9c-6.5,6.5-17,6.5-23.4,0l-52.9-52.9c-6.5-6.5-6.5-17,0-23.4L92.4,623
					C98.9,616.5,109.3,616.5,115.8,623z M29.4,365.1L82.3,418c6.5,6.5,6.5,17,0,23.4l-52.9,52.9c-6.5,6.5-17,6.5-23.4,0l-52.9-52.9
					c-6.5-6.5-6.5-17,0-23.4L6,365.1C12.4,358.6,22.9,358.6,29.4,365.1z M115.7,451.4l52.9,52.9c6.5,6.5,6.5,17,0,23.4l-52.9,52.9
					c-6.5,6.5-17,6.5-23.4,0l-52.9-52.9c-6.5-6.5-6.5-17,0-23.4l52.9-52.9C98.7,444.9,109.2,444.9,115.7,451.4z M202.4,537.3
					l52.9,52.9c6.5,6.5,6.5,17,0,23.4l-52.9,52.9c-6.5,6.5-17,6.5-23.4,0l-52.9-52.9c-6.5-6.5-6.5-17,0-23.4l52.9-52.9
					C185.5,530.9,196,530.9,202.4,537.3z M115.8,280l52.9,52.9c6.5,6.5,6.5,17,0,23.4l-52.9,52.9c-6.5,6.5-17,6.5-23.4,0l-52.9-52.9
					c-6.5-6.5-6.5-17,0-23.4L92.4,280C98.9,273.6,109.3,273.6,115.8,280z M202.4,365.1l52.9,52.9c6.5,6.5,6.5,17,0,23.4l-52.9,52.9
					c-6.5,6.5-17,6.5-23.4,0l-52.9-52.9c-6.5-6.5-6.5-17,0-23.4l52.9-52.9C185.5,358.6,196,358.6,202.4,365.1z M287.2,450.6
					l52.9,52.9c6.5,6.5,6.5,17,0,23.4l-52.9,52.9c-6.5,6.5-17,6.5-23.4,0l-52.9-52.9c-6.5-6.5-6.5-17,0-23.4l52.9-52.9
					C270.2,444.1,280.7,444.1,287.2,450.6z"/>
			</g>
		</g>
	</g>
</g>
</svg>
