<?xml version="1.0" encoding="UTF-8" standalone="no"?>
<svg width="742px" height="410px" viewBox="0 0 742 410" version="1.1" xmlns="http://www.w3.org/2000/svg" xmlns:xlink="http://www.w3.org/1999/xlink">
    <!-- Generator: Sketch 3.8.3 (29802) - http://www.bohemiancoding.com/sketch -->
    <title>graphic-hero-pattern</title>
    <desc>Created with Sketch.</desc>
    <defs>
        <rect id="path-1" x="153.79144" y="65.8186799" width="316.529625" height="316.436167" rx="46.8932803"></rect>
        <mask id="mask-2" maskContentUnits="userSpaceOnUse" maskUnits="objectBoundingBox" x="0" y="0" width="316.529625" height="316.436167" fill="white">
            <use xlink:href="#path-1"></use>
        </mask>
        <path d="M72.4584312,86.1784312 L72.52,86.24 L85.9508081,72.6721428 C88.1924645,70.6248998 89.6,67.6787557 89.6,64.4042821 L89.6,11.1957179 C89.6,5.01887491 84.5875064,0 78.4042821,0 L25.1957179,0 C21.8821899,0 18.9018924,1.44245407 16.8508465,3.73429651 L4.44485337,16.2656027 C1.74560075,18.3097711 0,21.5491502 0,25.1957179 L0,78.4042821 C0,84.5811251 5.01249362,89.6 11.1957179,89.6 L64.4042821,89.6 C67.5644376,89.6 70.421497,88.2879886 72.4584312,86.1784312 Z" id="path-3"></path>
        <mask id="mask-4" maskContentUnits="userSpaceOnUse" maskUnits="objectBoundingBox" x="0" y="0" width="89.6" height="89.6" fill="white">
            <use xlink:href="#path-3"></use>
        </mask>
        <linearGradient x1="100%" y1="50%" x2="5.13332659%" y2="33.9620536%" id="linearGradient-5">
            <stop stop-color="#BCD9CA" stop-opacity="0" offset="0%"></stop>
            <stop stop-color="#87B09A" offset="100%"></stop>
        </linearGradient>
        <rect id="path-6" x="76.2310632" y="84.736277" width="166.594539" height="166.545351" rx="24.6806742"></rect>
        <mask id="mask-7" maskContentUnits="userSpaceOnUse" maskUnits="objectBoundingBox" x="0" y="0" width="166.594539" height="166.545351" fill="white">
            <use xlink:href="#path-6"></use>
        </mask>
    </defs>
    <g id="Page-1" stroke="none" stroke-width="1" fill="none" fill-rule="evenodd" opacity="0.329999983">
        <g id="graphic-hero-pattern" transform="translate(0.000000, -19.000000)">
            <use id="Rectangle-13-Copy-7" stroke="#87B09A" mask="url(#mask-2)" stroke-width="2.34466402" opacity="0.800314832" transform="translate(312.056253, 224.036764) rotate(135.000000) translate(-312.056253, -224.036764) " xlink:href="#path-1"></use>
            <rect id="Rectangle-13-Copy-5" fill-opacity="0.13" fill="#5C6670" transform="translate(312.006170, 223.986696) rotate(135.000000) translate(-312.006170, -223.986696) " x="228.708901" y="140.71402" width="166.594539" height="166.545351" rx="24.6806742"></rect>
            <g id="Group-7" transform="translate(367.640000, 176.200000)"></g>
            <g id="Group-7-Copy-11" transform="translate(591.360000, 83.800000)" stroke-opacity="0.600000024" stroke="#87B09A">
                <use id="Combined-Shape" mask="url(#mask-4)" xlink:href="#path-3"></use>
            </g>
            <path d="M169.988132,233.312846 L741.962717,233.312846 L741.962717,237.939106 L169.988132,237.939106 L169.988132,233.312846 Z M169.988132,241.023279 L741.962717,241.023279 L741.962717,245.649539 L169.988132,245.649539 L169.988132,241.023279 Z M169.988132,248.733712 L741.962717,248.733712 L741.962717,253.359972 L169.988132,253.359972 L169.988132,248.733712 Z M169.988132,256.444145 L741.962717,256.444145 L741.962717,261.070405 L169.988132,261.070405 L169.988132,256.444145 Z M169.988132,264.154578 L741.962717,264.154578 L741.962717,268.780837 L169.988132,268.780837 L169.988132,264.154578 Z M169.988132,271.865011 L741.962717,271.865011 L741.962717,276.49127 L169.988132,276.49127 L169.988132,271.865011 Z" id="Combined-Shape" fill="url(#linearGradient-5)"></path>
            <rect id="Rectangle-13-Copy-3" fill="#87B09A" transform="translate(117.800128, 285.076887) rotate(135.000000) translate(-117.800128, -285.076887) " x="34.5028588" y="201.804212" width="166.594539" height="166.545351" rx="24.6806742"></rect>
            <use id="Rectangle-13-Copy-6" stroke-opacity="0.26" stroke="#5C6670" mask="url(#mask-7)" stroke-width="2" transform="translate(159.528333, 168.008953) rotate(135.000000) translate(-159.528333, -168.008953) " xlink:href="#path-6"></use>
        </g>
    </g>
</svg>