<?xml version="1.0" encoding="UTF-8" standalone="no"?>
<svg width="538px" height="616px" viewBox="0 0 538 616" version="1.1" xmlns="http://www.w3.org/2000/svg" xmlns:xlink="http://www.w3.org/1999/xlink">
    <!-- Generator: Sketch 39.1 (31720) - http://www.bohemiancoding.com/sketch -->
    <title>main-section-last-watermark</title>
    <desc>Created with Sketch.</desc>
    <defs>
        <filter x="-50%" y="-50%" width="200%" height="200%" filterUnits="objectBoundingBox" id="filter-1">
            <feOffset dx="0" dy="3" in="SourceAlpha" result="shadowOffsetOuter1"></feOffset>
            <feGaussianBlur stdDeviation="29" in="shadowOffsetOuter1" result="shadowBlurOuter1"></feGaussianBlur>
            <feColorMatrix values="0 0 0 0 0.360784314   0 0 0 0 0.4   0 0 0 0 0.439215686  0 0 0 0.4 0" type="matrix" in="shadowBlurOuter1" result="shadowMatrixOuter1"></feColorMatrix>
            <feMerge>
                <feMergeNode in="shadowMatrixOuter1"></feMergeNode>
                <feMergeNode in="SourceGraphic"></feMergeNode>
            </feMerge>
        </filter>
        <path d="M87.8732809,104.686619 L87.9494117,104.762877 L104.273263,88.2449605 C106.972723,85.7595266 108.663366,82.1958867 108.663366,78.2372204 L108.663366,13.6003666 C108.663366,6.0968434 102.573355,3.06954467e-13 95.0609469,3.06954467e-13 L30.5810698,3.06954467e-13 C26.5622974,3.06954467e-13 22.9521137,1.74099548 20.4626106,4.50948156 L5.37534752,19.7745513 C2.10827707,22.2586229 -1.70530257e-13,26.1866708 -1.70530257e-13,30.6073271 L-1.70530257e-13,95.244181 C-1.70530257e-13,102.747704 6.09001036,108.844548 13.6024189,108.844548 L78.082296,108.844548 C81.9281738,108.844548 85.399863,107.250131 87.8732809,104.686619 Z" id="path-2"></path>
        <mask id="mask-3" maskContentUnits="userSpaceOnUse" maskUnits="objectBoundingBox" x="0" y="0" width="108.663366" height="108.844548" fill="white">
            <use xlink:href="#path-2"></use>
        </mask>
        <path d="M88.1626538,104.99915 L88.238765,105.075407 L104.558426,88.5574909 C107.257193,86.072057 108.947402,82.5084171 108.947402,78.5497509 L108.947402,13.912897 C108.947402,6.40937383 102.858955,0.312530424 95.3484747,0.312530424 L30.8851497,0.312530424 C26.8674089,0.312530424 23.258152,2.05352591 20.7692879,4.82201198 L5.68589775,20.0870817 C2.41966597,22.5711533 0.311930095,26.4992012 0.311930095,30.9198575 L0.311930095,95.5567114 C0.311930095,103.060235 6.40037714,109.157078 13.9108572,109.157078 L78.3741823,109.157078 C82.2190728,109.157078 85.6898708,107.562661 88.1626538,104.99915 Z" id="path-4"></path>
        <mask id="mask-5" maskContentUnits="userSpaceOnUse" maskUnits="objectBoundingBox" x="0" y="0" width="108.635472" height="108.844548" fill="white">
            <use xlink:href="#path-4"></use>
        </mask>
        <path d="M115.454781,137.402149 L115.553846,137.501276 L136.977578,115.845408 C140.537077,112.582242 142.769231,107.894802 142.769231,102.686352 L142.769231,17.8504811 C142.769231,7.99041249 134.775029,3.41060459e-14 124.913682,3.41060459e-14 L40.1632408,3.41060459e-14 C34.8830988,3.41060459e-14 30.1369044,2.29259113 26.8673753,5.93666261 L7.0724852,25.9439989 C2.77572296,29.2037898 1.39266372e-13,34.3640107 1.39266372e-13,40.1721168 L1.39266372e-13,125.007988 C1.39266372e-13,134.868056 7.99420134,142.858469 17.8555485,142.858469 L102.60599,142.858469 C107.65018,142.858469 112.207078,140.766196 115.454781,137.402149 Z" id="path-6"></path>
        <mask id="mask-7" maskContentUnits="userSpaceOnUse" maskUnits="objectBoundingBox" x="0" y="0" width="142.769231" height="142.858469" fill="white">
            <use xlink:href="#path-6"></use>
        </mask>
    </defs>
    <g id="Habitat-Web-Home" stroke="none" stroke-width="1" fill="none" fill-rule="evenodd" opacity="0.149999991">
        <g transform="translate(-801.000000, -3951.000000)" id="Team">
            <g transform="translate(0.000000, 3842.000000)">
                <g id="graphic-background-diamonds" transform="translate(801.000000, 0.000000)">
                    <g id="Group-7-Copy-3" filter="url(#filter-1)" opacity="0.150000006" transform="translate(268.094384, 231.720708) rotate(135.000000) translate(-268.094384, -231.720708) translate(104.094384, 68.220708)">
                        <path d="M196.536647,213.531167 L196.612777,213.607425 L212.936628,197.089508 C215.636088,194.604074 217.326732,191.040434 217.326732,187.081768 L217.326732,122.444914 C217.326732,114.941391 211.236721,108.844548 203.724313,108.844548 L139.244436,108.844548 C135.225663,108.844548 131.61548,110.585543 129.125976,113.354029 L114.038713,128.619099 C110.771643,131.10317 108.663366,135.031218 108.663366,139.451875 L108.663366,204.088729 C108.663366,211.592252 114.753376,217.689095 122.265785,217.689095 L186.745662,217.689095 C190.59154,217.689095 194.063229,216.094679 196.536647,213.531167 Z" id="Combined-Shape" fill="#5C6670"></path>
                        <use id="Combined-Shape-Copy-2" stroke="#979797" mask="url(#mask-3)" stroke-width="2.04000024" xlink:href="#path-2"></use>
                        <g id="Group-32" transform="translate(217.326732, 217.689095)">
                            <path d="M20.6323971,4.50948156 C23.1219003,1.74099548 26.7320839,4.83485582e-13 30.7508563,4.83485582e-13 L95.2307334,4.83485582e-13 C102.743142,4.83485582e-13 108.833152,6.0968434 108.833152,13.6003666 L108.833152,78.2372204 C108.833152,82.1958867 107.142509,85.7595266 104.443049,88.2449605 L88.1191982,104.762877 L75.2154235,91.837587 L30.7508563,91.837587 C23.2384478,91.837587 17.1484374,85.7407436 17.1484374,78.2372204 L17.1484374,33.6737819 L4.41444923,20.9185615 L20.6323971,4.50948156 Z" id="Combined-Shape-Copy" fill="#5C6670"></path>
                            <rect id="Rectangle-13-Copy-4" fill="#87B09A" x="4.83169074e-13" y="17.0069606" width="91.6847149" height="91.837587" rx="13.6000016"></rect>
                        </g>
                    </g>
                    <g id="Group-7-Copy-8" opacity="0.270000011" transform="translate(268.726350, 415.027680) rotate(135.000000) translate(-268.726350, -415.027680) translate(137.726350, 284.027680)">
                        <path d="M131.983884,148.904717 L132.059995,148.980974 L148.379656,132.463058 C151.078423,129.977624 152.768632,126.413984 152.768632,122.455318 L152.768632,57.818464 C152.768632,50.3149408 146.680185,44.2180974 139.169705,44.2180974 L74.70638,44.2180974 C70.6886392,44.2180974 67.0793823,45.9590929 64.5905182,48.727579 L49.5071281,63.9926488 C46.2408963,66.4767204 44.1331604,70.4047683 44.1331604,74.8254246 L44.1331604,139.462278 C44.1331604,146.965802 50.2216074,153.062645 57.7320875,153.062645 L122.195413,153.062645 C126.040303,153.062645 129.511101,151.468229 131.983884,148.904717 Z" id="Combined-Shape" fill="#5C6670"></path>
                        <use id="Combined-Shape-Copy-2" stroke="#87B09A" mask="url(#mask-5)" stroke-width="2.04000024" xlink:href="#path-4"></use>
                        <path d="M173.395733,157.572127 C175.884597,154.80364 179.493854,153.062645 183.511595,153.062645 L247.97492,153.062645 C255.4854,153.062645 261.573847,159.159488 261.573847,166.663012 L261.573847,231.299865 C261.573847,235.258532 259.883638,238.822172 257.184871,241.307606 L240.86521,257.825522 L227.964748,244.900232 L183.511595,244.900232 C176.001115,244.900232 169.912668,238.803389 169.912668,231.299865 L169.912668,186.736427 L157.181948,173.981206 L173.395733,157.572127 Z" id="Combined-Shape-Copy" fill="#5C6670"></path>
                        <rect id="Rectangle-13-Copy-4" fill="#87B09A" x="152.768632" y="170.069606" width="91.6611793" height="91.837587" rx="13.6000016"></rect>
                    </g>
                    <g id="Group-7-Copy-9" opacity="0.400000006" transform="translate(268.718189, 630.989787) rotate(135.000000) translate(-268.718189, -630.989787) translate(197.218189, 559.489787)">
                        <path d="M104.962617,121.695045 L105.037363,121.769838 L121.342687,105.287837 C124.064112,102.800881 125.772894,99.2219555 125.772894,95.244181 L125.772894,30.6073271 C125.772894,23.103804 119.687606,17.0069606 112.181023,17.0069606 L47.584545,17.0069606 C43.5618423,17.0069606 39.9436894,18.7592291 37.4536702,21.5433201 L22.392496,36.7661365 C19.1155383,39.2493574 16.996337,43.1844997 16.996337,47.6142877 L16.996337,112.251142 C16.996337,119.754665 23.0816249,125.851508 30.588208,125.851508 L95.1846858,125.851508 C99.0211906,125.851508 102.48973,124.257699 104.962617,121.695045 Z" id="Combined-Shape" fill="#5C6670"></path>
                        <use id="Combined-Shape-Copy-2" stroke="#87B09A" mask="url(#mask-7)" stroke-width="2.67750031" xlink:href="#path-6"></use>
                    </g>
                </g>
            </g>
        </g>
    </g>
</svg>