<svg xmlns="http://www.w3.org/2000/svg" width="50" height="50" viewBox="0 0 50 50">
  <g fill="none" transform="translate(10 11)">
    <path fill="#53A3DA" d="M15.0698652,0 C7.16807106,0 0.740741111,6.45227518 0.740741111,14.3833372 C0.740741111,22.3148487 7.16795911,28.7666745 15.0698652,28.7666745 C22.9694207,28.7666745 29.3971984,22.3148487 29.3971984,14.3833372 C29.3971984,6.45227518 22.9694207,0 15.0698652,0 Z"/>
    <path fill="#F1606D" d="M15.9897977,1.009357 C13.7057361,1.009357 11.7686986,4.72288599 11.0690478,9.88428583 C11.0466375,10.0503491 11.0250115,10.2183485 11.0058507,10.387487 C10.9080609,11.2266566 10.8437652,12.0695096 10.8131218,12.9139715 C10.7976479,13.316218 10.7899895,13.718736 10.7901512,14.1212899 C10.7901512,14.5282472 10.7977707,14.9312182 10.8132338,15.3282665 C10.8456168,16.1976496 10.9103826,17.0428863 11.0059627,17.8552065 C12.0768407,17.9960983 13.222009,18.0916587 14.4163679,18.137104 C14.9327021,18.1566944 15.4566558,18.1684259 15.9899098,18.1684259 C16.5214829,18.1684259 17.0471174,18.1565806 17.5618829,18.137104 C18.7576984,18.0916587 19.9019703,17.9960983 20.9738568,17.8552065 C21.0917351,17.8398304 21.2078207,17.8230874 21.3252508,17.8057749 C25.7859164,17.1690853 28.8889638,15.759598 28.8889638,14.1212899 C28.8888518,6.87942992 23.1131476,1.009357 15.9897977,1.009357 L15.9897977,1.009357 Z"/>
    <path fill="#FFF" d="M21.7287723,10.4416784 C21.598011,10.2504035 21.4573758,10.0661222 21.3074424,9.88958936 C20.1089276,8.47137999 18.3234103,7.57017749 16.3258098,7.57017749 C15.6782123,7.57017749 15.1014228,8.56523628 14.732291,10.1103339 C14.5855688,10.7265504 14.4717541,11.4293334 14.3983363,12.1923714 C14.3384311,12.8353411 14.3087436,13.4807873 14.3093726,14.1265624 C14.3093726,14.799389 14.3405779,15.4496626 14.3983363,16.0605257 C15.0078064,16.1186164 15.6546097,16.149712 16.3258098,16.149712 C16.9961021,16.149712 17.6429053,16.1185025 18.2523754,16.0605257 C19.5921658,15.9329541 20.7488088,15.6743937 21.5680928,15.3335952 C22.3771641,14.9975806 22.8560254,14.5793278 22.8560254,14.1265624 C22.855912,12.7606347 22.4403693,11.4919802 21.7287723,10.4416784 L21.7287723,10.4416784 Z"/>
  </g>
</svg>
