<svg xmlns="http://www.w3.org/2000/svg" width="50" height="50" viewBox="0 0 50 50">
  <g fill="none" transform="translate(12 10)">
    <polygon fill="#00AADE" points="20.827 18.497 26.42 15.301 26.42 21.693"/>
    <path fill="#00AADE" d="M20.9599779 10.9067117L23.0906253 9.70955413 26.153431 7.84390597C26.2865965 7.71207216 26.419762 7.71207216 26.419762 7.97707143L26.419762 13.8363519C26.419762 13.9695174 26.419762 14.1026828 26.153431 13.9695174L20.9599779 11.0412088 20.9599779 10.9067117zM19.4950246 10.9067117L17.0980463 12.2383663 14.168406 13.9695174C13.9020751 14.1026828 13.9020751 14.1026828 13.9020751 13.8363519L13.9020751 7.97707143C13.9020751 7.84390597 13.9020751 7.71207216 14.168406 7.84390597L19.3618592 10.7735462 19.4950246 10.9067117z"/>
    <polygon fill="#004463" points="14.035 15.301 19.495 18.63 14.035 21.826"/>
    <polygon fill="#004463" points="14.035 6.513 14.035 .121 19.495 3.317"/>
    <polygon fill="#004463" points="19.495 26.088 14.035 29.283 14.035 22.892"/>
    <path fill="#00AADE" d="M6.44440957 10.9067117L4.18059667 12.2383663 1.11779098 13.9695174C.984625511 14.1026828.851460046 14.1026828.851460046 13.8363519L.851460046 7.71207216 6.44440957 10.9067117zM6.44440957 18.4974095L4.97958946 19.2964023 1.25095644 21.4270497C1.11779098 21.4270497.984625511 21.6933806.984625511 21.2938843L.984625511 15.3014383.984625511 15.1682729 6.44440957 18.4974095z"/>
    <path fill="#004764" d="M13.2359814,15.3009057 L13.2359814,21.4278487 C13.2359814,21.5596825 13.2359814,21.5596825 13.102816,21.5596825 L7.77619739,18.4968768 L13.2359814,15.3009057 Z"/>
    <polygon fill="#004764" points="7.776 26.088 13.236 22.892 13.236 29.283"/>
    <path fill="#004764" d="M7.77606422,3.31601383 L13.2358483,0.121374326 L13.2358483,0.387705255 L13.2358483,6.24565406 C13.2358483,6.51198499 13.2358483,6.51198499 12.9695174,6.38015118 L7.90922969,3.45051095 L7.77606422,3.31601383 Z"/>
    <path fill="#00AADE" d="M7.90936285,10.9067117 L13.3691469,7.71207216 L13.3691469,7.97707143 L13.3691469,13.8363519 C13.3691469,14.1026828 13.3691469,14.1026828 13.102816,13.9695174 L8.04252832,11.0412088 L7.90936285,10.9067117 Z"/>
    <path fill="#00A9DD" d="M20.560082,3.98184115 L26.0198661,7.17781231 C25.7535351,7.31097778 25.6203697,7.4454749 25.3540388,7.57730871 L20.6932475,10.240618 C20.560082,10.3751151 20.4269166,10.3751151 20.4269166,10.1087842 L20.4269166,4.11633827 C20.560082,4.11633827 20.560082,3.98184115 20.560082,3.98184115"/>
    <polygon fill="#00A9DD" points="20.56 17.964 20.56 11.572 26.153 14.77"/>
    <polygon fill="#00A9DD" points="20.56 19.163 26.153 22.359 20.56 25.555"/>
    <path fill="#00A9DD" d="M7.51013279,3.98184115 L12.9699168,7.17781231 L11.7714277,7.84363964 L7.77646372,10.240618 C7.64329825,10.240618 7.51013279,10.3751151 7.51013279,10.1087842 L7.51013279,3.98184115 Z"/>
    <polygon fill="#004463" points="7.51 19.163 12.97 22.359 7.51 25.555"/>
    <path fill="#00A9DD" d="M14.4343375,7.17834497 L19.8941215,3.98237382 L19.8941215,10.1079852 C19.8941215,10.3743161 19.8941215,10.3743161 19.6277906,10.2411507 L14.7006684,7.31151044 L14.4343375,7.17834497 Z"/>
    <polygon fill="#004463" points="12.837 14.635 7.377 17.831 7.377 11.44"/>
    <polygon fill="#004463" points="19.894 19.163 19.894 25.555 14.434 22.359"/>
    <polygon fill="#004463" points="19.894 11.573 19.894 17.964 14.434 14.769"/>
    <path fill="#00A9DD" d="M1.25108961 7.17834497L6.71087367 3.98237382 6.71087367 10.1079852C6.71087367 10.2411507 6.71087367 10.3743161 6.44454274 10.2411507L1.25108961 7.17834497zM6.71100683 25.5549128L1.25122277 22.3602733C1.25122277 22.2257762 1.38438824 22.2257762 1.38438824 22.2257762L6.4446759 19.2961359C6.71100683 19.1629705 6.71100683 19.1629705 6.71100683 19.4293014L6.71100683 25.2885819 6.71100683 25.5549128zM6.71100683 11.572539L6.71100683 17.699482C6.71100683 17.8313158 6.71100683 17.9644813 6.4446759 17.8313158L1.38438824 14.9016756 1.25122277 14.7685101 6.71100683 11.572539z"/>
  </g>
</svg>
