<svg xmlns="http://www.w3.org/2000/svg" width="50" height="50" viewBox="0 0 50 50">
  <g fill="none" transform="translate(7 15)">
    <ellipse cx="18.43" cy="9.594" fill="#7A8792" rx="18.43" ry="9.594"/>
    <path fill="#232531" d="M5.1754306,15.2738915 L7.19520917,5.04915845 L11.8655511,5.04915845 C13.8851857,5.1754306 14.895075,6.1851759 14.895075,7.95255414 C14.895075,10.982078 12.4967679,12.7493123 10.3507172,12.6230401 L8.07882629,12.6230401 L7.57388165,15.2738915 L5.1754306,15.2738915 Z M8.58362695,10.7296777 L8.58377094,10.7296777 L10.0984609,10.7296777 C11.2344783,10.6034055 12.2443676,10.224733 12.3704958,8.07868231 C12.3704958,7.32133734 11.739423,6.94266486 10.8558058,6.94266486 L9.21484375,6.94266486 L8.58362695,10.7296777 Z M14.4258379,12.6230401 L16.4454725,2.39845105 L18.8439235,2.39845105 L18.3389789,5.04915845 L20.6110138,5.04915845 C22.6307924,5.1754306 23.3881373,6.1851759 23.135737,7.4476095 L22.2521199,12.6230401 L19.7275406,12.6230401 L20.6111578,7.95255414 C20.7372859,7.32133734 20.7372859,6.94266486 19.8538128,6.94266486 L17.9603064,6.94266486 L16.8242889,12.6230401 L14.4258379,12.6230401 L14.4258379,12.6230401 Z M22.0904282,15.2738915 L24.1100627,5.04915845 L28.7805487,5.04915845 C30.8003273,5.1754306 31.8102166,6.1851759 31.8102166,7.95255414 C31.8102166,10.982078 29.4117655,12.7493123 27.2658588,12.6230401 L24.9936799,12.6230401 L24.4887352,15.2738915 L22.0904282,15.2738915 L22.0904282,15.2738915 Z M25.4984805,10.7296777 L25.4986245,10.7296777 L27.0134584,10.7296777 C28.1494759,10.6034055 29.1593652,10.224733 29.2854933,8.07868231 C29.2854933,7.32133734 28.6544205,6.94266486 27.7708034,6.94266486 L26.1296973,6.94266486 L25.4984805,10.7296777 Z"/>
  </g>
</svg>
