<svg xmlns="http://www.w3.org/2000/svg" width="50" height="50" viewBox="0 0 50 50">
  <g fill="none" fill-rule="evenodd" transform="matrix(1 0 0 -1 14 40)">
    <path fill="#D33833" d="M21.5297137,15.486901 C21.5297137,9.56492013 16.7838436,4.76415335 10.9294934,4.76415335 C5.07524009,4.76415335 0.329363987,9.56492013 0.329363987,15.486901 C0.329363987,21.4090256 5.07524009,26.2098642 10.9294934,26.2098642 C16.7838436,26.2098642 21.5297137,21.4090256 21.5297137,15.486901"/>
    <path fill="#EF3D3A" fill-rule="nonzero" d="M0.761323568,12.83123 C0.761323568,12.83123 -0.00605726872,24.0132987 10.4124934,24.3328275 L9.6856696,25.5309105 L4.0322511,23.6538738 L2.41694714,21.816853 L1.00361432,19.1410543 L0.195915088,16.0260383 L0.438205837,13.949401"/>
    <path fill="#231F20" fill-rule="nonzero" d="M3.66928744,22.8017971 C1.80946366,20.9198482 0.658586233,18.3214457 0.658586233,15.446885 L0.658586233,15.446885 C0.658586233,12.5729233 1.80946366,9.9741853 3.66928744,8.09258387 L3.66928744,8.09258387 C5.53000771,6.21098243 8.09435242,5.04992013 10.929348,5.04992013 L10.929348,5.04992013 C13.7644163,5.04992013 16.3289427,6.21098243 18.1894934,8.09258387 L18.1894934,8.09258387 C20.049196,9.9741853 21.2003194,12.5729233 21.2003194,15.446885 L21.2003194,15.446885 C21.2003194,18.3214457 20.049196,20.9198482 18.1894934,22.8017971 L18.1894934,22.8017971 C16.3289427,24.6830272 13.7644163,25.8440895 10.929348,25.8443291 L10.929348,25.8443291 C8.09435242,25.8440895 5.53000771,24.6830272 3.66928744,22.8017971 L3.66928744,22.8017971 Z M3.19851652,7.63740815 C1.22195705,9.63651757 0,12.3993211 0,15.446885 L0,15.446885 C0,18.4949281 1.22195705,21.2574681 3.19851652,23.2567093 L3.19851652,23.2567093 C5.17461564,25.2563099 7.91004185,26.4957268 10.929348,26.4953674 L10.929348,26.4953674 C13.9486784,26.4957268 16.6843833,25.2563099 18.6601432,23.2567093 L18.6601432,23.2567093 C20.6368722,21.2574681 21.8589868,18.4946885 21.8587445,15.446885 L21.8587445,15.446885 C21.8589868,12.3993211 20.6368722,9.63651757 18.6601432,7.63740815 L18.6601432,7.63740815 C16.6843833,5.63791534 13.9486784,4.39865415 10.929348,4.39865415 L10.929348,4.39865415 C7.91004185,4.39865415 5.17461564,5.63791534 3.19851652,7.63740815 L3.19851652,7.63740815 L3.19851652,7.63740815 Z"/>
    <polyline fill="#F0D6B7" points="15.392 15.427 13.776 15.188 11.596 14.948 10.182 14.908 8.809 14.948 7.759 15.268 6.831 16.266 6.104 18.303 5.942 18.742 4.973 19.062 4.408 19.98 4.004 21.298 4.448 22.456 5.498 22.816 6.346 22.416 6.75 21.538 7.234 21.618 7.396 21.817 7.234 22.736 7.194 23.894 7.436 25.491 7.427 26.404 8.163 27.568 9.455 28.487 11.717 29.445 14.22 29.086 16.401 27.528 17.411 25.931 18.057 24.773 18.218 21.897 17.734 19.421 16.845 17.225 15.997 16.066"/>
    <polyline fill="#335061" points="14.019 8.519 8.244 8.279 8.244 7.321 8.728 3.966 8.486 3.686 4.448 5.044 4.165 5.523 3.762 10.036 2.833 12.752 2.631 13.391 5.861 15.587 6.871 15.987 7.759 14.908 8.527 14.229 9.415 13.95 9.819 13.83 10.303 11.753 10.667 11.314 11.596 11.634 10.949 10.396 14.463 8.758 14.019 8.519"/>
    <polyline fill="#6D6B6D" points="4.448 22.456 5.498 22.816 6.346 22.416 6.75 21.538 7.234 21.618 7.356 22.097 7.113 23.015 7.356 25.212 7.154 26.41 7.88 27.249 9.455 28.487 9.011 29.086 6.79 28.007 5.861 27.288 5.336 26.17 4.529 25.092 4.286 23.814 4.448 22.456"/>
    <path fill="#DCD9D8" d="M6.10364317 26.2102236C6.10364317 26.2102236 6.70937004 27.6878195 9.13227753 28.4066693 11.555185 29.1255192 9.25342291 28.9259185 9.25342291 28.9259185L6.62868722 27.9274361 5.61906167 26.9290735 5.17494273 26.1303115 6.10364317 26.2102236M4.89218943 22.7357827C4.89218943 22.7357827 4.04417181 25.5313898 7.27473128 25.9307109L7.1535859 26.4099441 4.93265198 25.8906949 4.28646256 23.8140575 4.44807048 22.45627 4.89218943 22.7357827"/>
    <path fill="#F7E4CD" d="M6.18442291 19.0217252L6.71316189 19.5283946C6.71316189 19.5283946 6.95180617 19.5009585 6.99212335 19.2214457 7.03244053 18.9418131 7.1535859 16.4258387 8.88998678 15.0679313 9.04837225 14.9440495 7.59785022 15.2677716 7.59785022 15.2677716L6.30556828 17.2644968M13.6149229 19.7804712C13.6149229 19.7804712 13.7090529 20.9910144 14.0386894 20.8979233 14.368326 20.8048323 14.368326 20.4788339 14.368326 20.4788339 14.368326 20.4788339 13.5677974 19.9666534 13.6149229 19.7804712"/>
    <path fill="#F7E4CD" fill-rule="nonzero" d="M16.9664097 24.2133786C16.9664097 24.2133786 16.300837 24.074401 16.2395374 23.4945288 16.1782379 22.9145367 16.9664097 23.3747204 17.0875551 23.4146166M12.0802291 24.1733626C12.0802291 24.1733626 11.1917489 24.0535543 11.1917489 23.4945288 11.1917489 22.9353834 12.2013987 22.9752796 12.4840308 23.2148962"/>
    <path fill="#F7E4CD" d="M6.58822467 21.5775958C6.58822467 21.5775958 5.05365198 22.4961661 4.89218943 21.617492 4.73067841 20.7389377 4.36714537 20.0998802 5.13448018 19.1814297L4.60953304 19.3411342 4.12495154 20.5791134 3.96348899 21.7771965 4.89218943 22.7357827 5.94213216 22.6558706 6.54785903 22.1766374 6.58822467 21.5775958M7.31509692 24.0935703C7.31509692 24.0935703 8.00160352 27.6079073 11.4745022 28.286861 14.3336784 28.8457668 15.8356388 28.1670527 16.4010242 27.528115 16.4010242 27.528115 13.8569714 30.5232029 11.4340396 29.6047524 9.01113216 28.6861821 7.2344141 27.0088658 7.27473128 25.9307109 7.34349339 24.0942891 7.31509692 24.0935703 7.31509692 24.0935703M16.6837775 27.1287939C16.6837775 27.1287939 15.5127863 27.1686901 15.4723238 26.1303115 15.4723238 26.1303115 15.4722026 25.970607 15.5530066 25.8109026 15.5530066 25.8109026 16.4819493 26.8492812 17.0472137 26.2901358"/>
    <path fill="#F7E4CD" d="M11.5558998,25.7027157 C11.5558998,25.7027157 11.3543018,27.2965256 9.98029515,26.3699281 C9.09191189,25.7708866 9.17274009,24.9322284 9.33420264,24.772524 C9.49571366,24.6126997 9.45179846,24.2910144 9.5747489,24.5118211 C9.69763877,24.7326278 9.65717621,25.4514776 10.1014405,25.6510783 C10.5456564,25.8507987 11.2738491,26.0738818 11.5558998,25.7027157"/>
    <path fill="#49728B" d="M7.75931278 14.9083466L3.96348899 13.2310304C3.96348899 13.2310304 5.53837885 7.04089457 4.73067841 5.12396166L4.16531718 5.3235623 4.12495154 7.67985623 3.07515419 12.1526358 2.63088987 13.3907348 6.58822467 16.0263978 7.75931278 14.9083466M8.14963106 11.4845607L8.68815859 10.8347444 8.68815859 8.43857827 8.04196916 8.43857827C8.04196916 8.43857827 7.96128634 10.1158946 7.96128634 10.315639 7.96128634 10.5153355 8.04196916 11.2341853 8.04196916 11.2341853"/>
    <polyline fill="#49728B" points="8.163 8.079 6.346 7.999 6.871 7.64 8.163 7.44"/>
    <polyline fill="#335061" points="14.382 8.479 15.876 8.519 16.24 4.844 14.705 4.645 14.382 8.479"/>
    <path fill="#335061" d="M14.785793,8.47859425 L17.0472137,8.59840256 C17.0472137,8.59840256 17.9759141,10.9146805 17.9759141,11.0344888 C17.9759141,11.1542971 18.7835903,14.3890974 18.7835903,14.3890974 L16.9664097,16.2660144 L16.6029736,16.5855431 L15.6338106,15.6270767 L15.6338106,11.9130192 L14.785793,8.47859425"/>
    <path fill="#49728B" d="M15.7952974,8.75813099 L14.3820154,8.47859425 L14.5838436,7.36030351 C15.1087665,7.1206869 15.9972467,7.75974441 15.9972467,7.75974441"/>
    <polyline fill="#49728B" points="15.836 15.747 18.662 13.67 18.743 14.629 16.603 16.586 15.836 15.747"/>
    <polyline fill="#FFF" points="9.565 .611 8.728 3.966 8.313 6.441 8.244 8.279 12.028 8.478 14.382 8.479 14.168 4.285 14.531 1.05 14.491 .451 11.422 .211 9.565 .611"/>
    <path fill="#DCD9D8" d="M13.8569714,8.51851438 C13.8569714,8.51851438 13.6551432,4.36509585 14.26087,1.40990415 C14.26087,1.40990415 13.0494163,0.651035942 11.2725286,0.451434105 L14.6646476,0.571242412 L15.0684251,0.810859026 L14.5838436,7.36030351 L14.4626982,8.75822684"/>
    <polyline fill="#FFF" points="16.308 5.163 17.883 5.603 20.871 5.763 21.316 7.12 20.508 9.477 19.579 9.596 18.287 9.197 17.047 8.598 16.389 8.718 15.876 8.519"/>
    <path fill="#DCD9D8" d="M16.2798789,5.96261981 C16.2798789,5.96261981 17.3297247,6.44175719 17.4913326,6.40183706 L17.0472137,8.59840256 L17.5721366,8.79800319 C17.5721366,8.79800319 17.9355727,6.72138978 17.9355727,6.48177316 C17.9355727,6.48177316 20.1968722,6.36196486 20.3988216,6.36196486 C20.3988216,6.36196486 20.8834031,7.28051118 20.7622577,8.23897764 L21.2064978,6.96100639 L21.2468392,6.24215655 L20.6007709,5.2836901 L19.8738987,5.12396166 L18.6624449,5.16388179 L18.2586674,5.68298722 L16.8452643,5.48338658 L16.4010242,5.3235623"/>
    <path fill="#FFF" fill-rule="nonzero" d="M14.6929956,8.79763179 L13.8046366,11.0341054 L12.875815,12.3519968 C12.875815,12.3519968 13.0776432,12.9111422 13.3603965,12.9111422 C13.6431498,12.9111422 14.2892181,12.9111422 14.2892181,12.9111422 L15.1775771,12.5916134 L15.0968943,11.1139936 L14.6929956,8.79763179"/>
    <path fill="#DCD9D8" d="M14.8665969,9.55686901 C14.8665969,9.55686901 13.735826,11.7133227 13.735826,12.0328275 C13.735826,12.0328275 13.9376542,12.5120607 14.2204075,12.3922524 C14.5031608,12.2724441 15.1088877,11.9530351 15.1088877,11.9530351 L15.1088877,12.7117812 L13.735826,12.9914137 L12.8071256,12.8716054 L14.3820154,9.19744409 L14.704989,9.15742812"/>
    <polyline fill="#FFF" fill-rule="nonzero" points="9.928 14.828 8.809 14.948 7.759 15.268 7.759 14.908 8.272 14.349 9.888 13.63"/>
    <path fill="#DCD9D8" d="M8.12289427,14.7082668 C8.12289427,14.7082668 9.37481057,14.1890176 9.77861233,14.3088259 L9.81878414,13.8300719 L8.68830396,14.0692093 L8.0017489,14.5484425 L8.12289427,14.7082668"/>
    <path fill="#D33833" d="M16.3039868,12.7751597 C15.6187885,12.7950479 14.9997357,12.8755591 14.4577313,13.0267572 C14.4945595,13.2464856 14.4256278,13.4621406 14.4809912,13.6204073 C14.6320595,13.7279952 14.8852533,13.7263179 15.1136123,13.7515974 C14.9161454,13.8475639 14.6387225,13.8855431 14.410848,13.8300719 C14.4055176,13.9825879 14.3363436,14.0771166 14.2944273,14.1964457 C14.6796696,14.3324281 15.5891079,15.2239217 16.1007048,14.9287141 C16.3444493,14.7882987 16.4480286,13.9863019 16.4669273,13.5963259 C16.4826762,13.2728435 16.4372467,12.9464856 16.3039868,12.7751597"/>
    <path stroke="#D33833" stroke-width=".5" d="M16.3039868,12.7751597 C15.6187885,12.7950479 14.9997357,12.8755591 14.4577313,13.0267572 C14.4945595,13.2464856 14.4256278,13.4621406 14.4809912,13.6204073 C14.6320595,13.7279952 14.8852533,13.7263179 15.1136123,13.7515974 C14.9161454,13.8475639 14.6387225,13.8855431 14.410848,13.8300719 C14.4055176,13.9825879 14.3363436,14.0771166 14.2944273,14.1964457 C14.6796696,14.3324281 15.5891079,15.2239217 16.1007048,14.9287141 C16.3444493,14.7882987 16.4480286,13.9863019 16.4669273,13.5963259 C16.4826762,13.2728435 16.4372467,12.9464856 16.3039868,12.7751597 Z"/>
    <path fill="#D33833" d="M13.0273678,13.8829073 C13.0255507,13.8316294 13.02337,13.779992 13.0213106,13.7282348 C12.8073678,13.5892572 12.4619824,13.5909345 12.2272026,13.4741214 C12.573315,13.4591454 12.8457709,13.3767173 13.0815198,13.2605032 C13.0763106,13.1313498 13.0713436,13.0023163 13.0662555,12.8731629 C12.6741079,12.6076677 12.3158811,12.2123003 11.8541718,11.9633267 C11.6358678,11.8455791 10.8697203,11.5425958 10.6374604,11.5961382 C10.506054,11.6263179 10.4942181,11.7875919 10.4416894,11.9396046 C10.3297753,12.2651358 10.0720991,12.7833067 10.0496267,13.2733227 C10.021,13.8922524 9.95782269,14.9295527 10.6322632,14.8020767 C11.1763756,14.699401 11.8092148,14.4515176 12.2304736,14.2238818 C12.4879075,14.0846645 12.6367952,13.9126198 13.0273678,13.8829073"/>
    <path stroke="#D33833" stroke-width=".5" d="M13.0273678,13.8829073 C13.0255507,13.8316294 13.02337,13.779992 13.0213106,13.7282348 C12.8073678,13.5892572 12.4619824,13.5909345 12.2272026,13.4741214 C12.573315,13.4591454 12.8457709,13.3767173 13.0815198,13.2605032 C13.0763106,13.1313498 13.0713436,13.0023163 13.0662555,12.8731629 C12.6741079,12.6076677 12.3158811,12.2123003 11.8541718,11.9633267 C11.6358678,11.8455791 10.8697203,11.5425958 10.6374604,11.5961382 C10.506054,11.6263179 10.4942181,11.7875919 10.4416894,11.9396046 C10.3297753,12.2651358 10.0720991,12.7833067 10.0496267,13.2733227 C10.021,13.8922524 9.95782269,14.9295527 10.6322632,14.8020767 C11.1763756,14.699401 11.8092148,14.4515176 12.2304736,14.2238818 C12.4879075,14.0846645 12.6367952,13.9126198 13.0273678,13.8829073 L13.0273678,13.8829073 Z"/>
    <path fill="#D33833" d="M13.4168502,13.1444089 C13.3570044,13.4815495 13.2878304,13.5777556 13.3146035,13.871885 C14.2237996,14.4714058 14.3944934,12.8421326 13.4168502,13.1444089"/>
    <path stroke="#D33833" stroke-width=".5" d="M13.4168502,13.1444089 C13.3570044,13.4815495 13.2878304,13.5777556 13.3146035,13.871885 C14.2237996,14.4714058 14.3944934,12.8421326 13.4168502,13.1444089 Z"/>
    <path fill="#EF3D3A" d="M14.733337 12.8711262C14.733337 12.8711262 14.4505837 13.2705671 14.652533 13.3903754 14.8544824 13.5101837 15.0564317 13.3902556 15.1775771 13.589976 15.2987225 13.7896965 15.1775771 13.9095048 15.2179185 14.1491214 15.2582599 14.388738 15.4603304 14.428754 15.6621586 14.4686502 15.8639868 14.5085463 16.4294934 14.5884585 16.5101762 14.388738L16.2678855 15.1075879 15.783304 15.2672923 14.2487555 14.388738 14.1679515 13.949401 14.1679515 13.0708466M10.4932731 11.5532228C10.4447665 12.1764776 10.3934251 12.7988818 10.3363051 13.4215256 10.250837 14.351238 10.56212 14.1890176 11.3770165 14.1890176 11.5014813 14.1890176 12.14337 14.0422524 12.1892841 13.949401 12.4095264 13.5045527 11.8210022 13.6033946 12.4429626 13.2679313 12.9680066 12.9848243 13.8954956 13.4398562 13.68337 14.0692093 13.5646476 14.2091454 13.0648018 14.1128195 12.8856278 14.2047125 12.5701652 14.3664537 12.2547026 14.5281949 11.9392037 14.6899361 11.5378249 14.8958866 10.6101542 15.1961262 10.1822203 14.9083466 9.0979207 14.1790735 10.2506553 12.3569089 10.6374604 11.5961382"/>
    <path fill="#231F20" d="M11.5558998 25.7027157C10.4552698 25.95623 9.90837115 25.2472045 9.5747489 24.5118211 9.27685242 24.5832268 9.39539317 24.9838658 9.47063656 25.1880192 9.66764317 25.7238019 10.4615694 26.4370208 11.1102665 26.3403355 11.3894218 26.298762 11.7671894 26.0463259 11.5558998 25.7027157M16.9185573 24.4631789C16.9358811 24.4624601 16.9534471 24.461861 16.9707709 24.4611422 17.2194824 23.9501597 17.4347577 23.4088658 17.7485242 22.9577875 17.538337 22.4736422 16.1569163 22.0452077 16.1782379 22.9145367 16.4769824 23.0436901 16.9926982 22.9408946 17.257522 23.1058706 17.1043943 23.5214856 16.8834251 23.8752796 16.9185573 24.4631789M12.1193833 24.4498802C12.3553744 24.0220447 12.4321806 23.572524 12.7676322 23.2491613 12.9187004 23.1035942 13.212478 22.9261581 13.0668612 22.5213259 13.0328194 22.4258387 12.7841079 22.2129393 12.6405507 22.1711262 12.1161123 22.0180112 10.8940947 22.1394968 11.3079273 22.7861022 11.7416399 22.7660942 12.3246035 22.5075479 12.6487885 22.8189297 12.3998348 23.2125 11.9560066 23.9911342 12.1193833 24.4498802M16.721696 20.1015575C15.9320705 19.5999201 15.0515859 19.0544329 13.7577533 19.1809505 13.4812996 19.4186502 13.3759031 19.9476038 13.6444824 20.2969649 13.7842841 20.0592652 13.6964537 19.6220847 14.0860573 19.5563099 14.8201982 19.4320687 15.6746366 20.0004393 16.2027093 20.1990815 16.5301652 20.7450479 16.1744824 20.9458466 15.8794934 21.2972444 15.2755837 22.0171725 14.4654846 22.9095048 14.4949229 23.9873003 14.7390308 24.1623403 14.7601101 23.7201278 14.7951211 23.6396166 15.1104626 22.9097444 15.9040859 21.9763179 16.4832819 21.3516374 16.6255066 21.1978035 16.8596806 21.0501997 16.8857269 20.9484824 16.960837 20.6526757 16.6903194 20.2982827 16.721696 20.1015575M6.31186784 20.6296725C6.06436784 20.769369 6.00545485 21.3847045 5.71488767 21.4021965 5.29963767 21.4271166 5.37535352 20.6039137 5.37701322 20.122524 5.09118282 20.3791534 5.0409196 21.1692891 5.25090088 21.5750799 5.01159031 21.6912939 4.90472797 21.446885 4.77198899 21.3607428 4.9425859 22.5863818 6.5849174 21.9292332 6.31186784 20.6296725M17.2244493 19.5911741C16.8568943 18.8992812 16.3369383 18.1373003 15.2583811 18.1151358 15.2364537 18.3385783 15.2196145 18.6785942 15.2595925 18.813139 16.0841079 18.8914936 16.5931608 19.3065096 17.2244493 19.5911741M12.0571872 19.1426118C12.7450991 18.7848642 14.0093722 18.7464058 14.9443722 18.7734824 14.9945264 18.5708866 14.993315 18.320607 14.9952533 18.0735623 13.79337 18.0142572 12.3723348 18.3083866 12.0571872 19.1426118M11.926435 18.4755192C12.4021366 17.2943291 14.0371145 17.4303115 15.41587 17.4628994 15.3551762 17.3095447 15.2236123 17.1283946 15.0600661 17.0628594 14.6182489 16.8850639 13.3996476 16.7501597 12.7862885 17.0723243 12.3972907 17.2768371 12.1473678 17.7389377 11.9342368 18.0098243 11.8313117 18.140655 11.3188062 18.4748003 11.926435 18.4755192"/>
    <path fill="#81B0C4" d="M16.6642731,11.960008 C16.1060352,11.0144569 15.5719053,10.0433027 14.9096035,9.20928115 C15.1872687,10.0166813 15.3061123,11.3680351 15.3480286,12.3982428 C15.9289207,12.6670927 16.4263436,12.3377396 16.6642731,11.960008"/>
    <path fill="#231F20" d="M19.6681938,8.56160942 C19.0432048,8.43787141 18.6040529,7.83715256 17.9943282,7.87570687 C18.3294163,8.3428754 18.9166079,8.53980431 19.6681938,8.56160942"/>
    <path fill="#DCD9D8" d="M15.5870485,4.47807508 C15.669185,3.76698882 15.9542401,3.0464976 15.9185022,2.26774361 C15.6019493,2.16216853 15.4201101,2.06983227 14.9959802,2.07039537 C14.9660573,2.73224042 14.8765308,3.74400958 14.903304,4.37492013 C15.1119163,4.36126198 15.4195044,4.52229633 15.5870485,4.47807508"/>
    <path fill="#F0D6B7" d="M14.6640419,14.9579473 C14.3765639,14.7723642 14.1317291,14.540655 13.8556388,14.342492 C13.24337,14.3125399 12.9092511,14.3844249 12.4594383,14.7321086 C12.4668282,14.760024 12.5120154,14.7475639 12.5137115,14.7818291 C13.1691079,14.4929712 14.0022247,14.8994808 14.6640419,14.9579473"/>
    <path fill="#81B0C4" d="M11.2234526,10.5396685 C11.4035231,11.3113538 12.109098,11.7110224 12.7498238,12.1359824 C13.4111564,11.3059265 13.813359,10.2384585 14.2562665,9.20834665 C13.2098128,9.5203155 12.1405837,10.0265056 11.2234526,10.5396685"/>
    <path fill="#231F20" d="M14.903304,4.37492013 C14.8765308,3.74400958 14.9660573,2.73224042 14.9959802,2.07039537 C15.4201101,2.06983227 15.6019493,2.16216853 15.9185022,2.26774361 C15.9542401,3.0464976 15.669185,3.76698882 15.5870485,4.47807508 C15.4195044,4.52229633 15.1119163,4.36126198 14.903304,4.37492013 L14.903304,4.37492013 Z M8.29917291,7.96303514 C8.57884912,5.42034345 8.98392291,3.28289137 9.72688326,1.03128714 C11.3758293,0.536142173 13.3636674,0.492992013 14.8211674,0.939793131 C14.5535573,2.21060703 14.6704626,3.75776358 14.5140639,5.11389776 C14.3961894,6.13320288 14.4562775,7.15878594 14.2946696,8.19872204 C12.5286123,8.56207668 10.0323513,8.28366613 8.29917291,7.96303514 L8.29917291,7.96303514 Z M14.7122577,8.18276358 C14.6973568,7.09073482 14.761685,6.01353834 14.8460022,4.92014377 C15.270011,4.98309105 15.5577313,5.02511981 15.951696,5.11053115 C15.8237665,6.16315495 15.8395154,7.34761581 15.5789317,8.27875399 C15.2777643,8.27590256 15.0125771,8.28221645 14.7122577,8.18276358 L14.7122577,8.18276358 Z M16.8631938,8.35878594 C16.6619714,8.40440895 16.4276762,8.36055911 16.2354185,8.35686901 C16.325793,7.46668131 16.5450661,6.48438498 16.6222357,5.54997604 C16.9247357,5.54066693 17.0863436,5.68176518 17.3351762,5.72922125 C17.3485022,6.54944089 17.2627313,7.67947284 16.8631938,8.35878594 L16.8631938,8.35878594 Z M20.1200661,5.41594649 C20.7506278,5.56738419 21.1471366,6.33116214 20.9707489,7.11553514 C20.8523899,7.64269169 20.6415969,8.63532748 20.4160242,8.9725639 C20.2493282,9.22200479 19.7973348,9.54857827 19.4364427,9.32000799 C18.8493722,8.94823083 17.8151542,8.84030751 17.3870264,8.39028355 C17.601696,7.68341454 17.668326,6.7125 17.7568833,5.81683706 C18.4902974,5.77162141 19.3927093,6.0164377 20.0026762,5.75664537 C19.5768502,5.62023163 19.0243062,5.61915335 18.6563877,5.42034345 C18.9570705,5.27671725 19.6610463,5.30573482 20.1200661,5.41594649 L20.1200661,5.41594649 Z M14.2562665,9.20834665 C13.813359,10.2384585 13.4111564,11.3059265 12.7498238,12.1359824 C12.109098,11.7110224 11.4035231,11.3113538 11.2234526,10.5396685 C12.1405837,10.0265056 13.2098128,9.5203155 14.2562665,9.20834665 Z M15.3480286,12.3982428 C15.3061123,11.3680351 15.1872687,10.0166813 14.9096035,9.20928115 C15.5719053,10.0433027 16.1060352,11.0144569 16.6642731,11.960008 C16.4263436,12.3377396 15.9289207,12.6670927 15.3480286,12.3982428 L15.3480286,12.3982428 Z M14.1104075,12.833147 C13.8595154,12.8598642 13.6465419,12.5478834 13.3202974,12.6827875 C13.2455507,12.6010783 13.1775881,12.5125399 13.1013877,12.4327476 C13.8219604,11.5739497 14.1494163,10.3555112 14.7059581,9.34626997 C15.0045815,10.3157348 14.9701762,11.3778594 15.0359581,12.4359824 C14.6256388,12.4102236 14.3980066,12.8029553 14.1104075,12.833147 Z M13.3146035,13.871885 C13.2878304,13.5777556 13.3570044,13.4815495 13.4168502,13.1444089 C14.3944934,12.8421326 14.2237996,14.4714058 13.3146035,13.871885 Z M12.2304736,14.2238818 C11.8092148,14.4515176 11.1763756,14.699401 10.6322632,14.8020767 C9.95782269,14.9296725 10.021,13.8922524 10.0496267,13.2733227 C10.0720991,12.7833067 10.3297753,12.2651358 10.4416894,11.9396046 C10.4942181,11.7875919 10.506054,11.6263179 10.6374604,11.5961382 C10.8697203,11.5425958 11.6358678,11.8455791 11.8541718,11.9633267 C12.3158811,12.2123003 12.6741079,12.6076677 13.0662555,12.8731629 C13.0713436,13.0023163 13.0763106,13.1313498 13.0815198,13.2605032 C12.8457709,13.3767173 12.573315,13.4591454 12.2272026,13.4741214 C12.4619824,13.5909345 12.8073678,13.5892572 13.0213106,13.7282348 C13.02337,13.779992 13.0255507,13.8316294 13.0273678,13.8829073 C12.6367952,13.9126198 12.4879075,14.0846645 12.2304736,14.2238818 L12.2304736,14.2238818 Z M8.20679956,14.9466853 C7.85717401,14.595647 9.18741079,14.1171326 9.61094714,14.0913738 C9.6085848,14.3134984 9.73894934,14.5229233 9.71268502,14.6822684 C9.20965308,14.7696086 8.54856278,14.7119808 8.20679956,14.9466853 L8.20679956,14.9466853 Z M12.5137115,14.7818291 C12.5120154,14.7475639 12.4668282,14.760024 12.4594383,14.7321086 C12.9092511,14.3844249 13.24337,14.3125399 13.8556388,14.342492 C14.1317291,14.540655 14.3765639,14.7723642 14.6640419,14.9579473 C14.0022247,14.8994808 13.1691079,14.4929712 12.5137115,14.7818291 L12.5137115,14.7818291 Z M16.4669273,13.5963259 C16.4480286,13.9863019 16.3444493,14.7882987 16.1007048,14.9287141 C15.5891079,15.2240415 14.6796696,14.3324281 14.2944273,14.1964457 C14.3363436,14.0771166 14.4055176,13.9825879 14.410848,13.8300719 C14.6387225,13.8855431 14.9161454,13.8475639 15.1136123,13.7515974 C14.8852533,13.7263179 14.6320595,13.7279952 14.4809912,13.6204073 C14.4256278,13.4621406 14.4945595,13.2464856 14.4577313,13.0267572 C14.9997357,12.8755591 15.6187885,12.7950479 16.3039868,12.7751597 C16.4372467,12.9464856 16.4826762,13.2728435 16.4669273,13.5963259 L16.4669273,13.5963259 Z M7.61820264,14.6071486 C7.50840859,14.6845447 6.76569053,15.6402556 6.66394053,15.600599 C5.31999009,15.0764377 4.063337,14.1700879 2.94037996,13.3128594 C4.01105066,11.0408027 4.4432489,8.25717652 4.51961894,5.57422524 C5.74611894,5.00690895 6.8234163,4.18907348 8.4877478,4.10367412 C8.29515088,5.45127796 8.11934471,6.65357827 8.01002313,7.92232428 C7.59184141,8.09665735 6.99188106,7.91441693 6.60053304,7.97638179 C6.59721366,8.44278355 7.19821586,8.18061901 7.24827313,8.49426518 C7.2859978,8.7314976 6.91759471,8.74946885 7.03755286,9.12303115 C7.34349339,9.01304712 7.50415639,8.77011182 7.83043722,8.67888978 C8.12857599,9.3239377 7.82626982,10.4652556 7.86924009,11.004393 C7.87738106,11.105619 7.92035132,11.5652037 8.14963106,11.4845607 C8.35254956,11.4131909 8.13803744,10.2622883 8.16027974,9.75202476 C8.18053524,9.28190895 8.10286894,8.82702077 8.29538106,8.53189696 C9.90363436,8.74839058 11.5379097,8.88832668 13.2780176,8.93554313 C12.8951982,9.09799121 12.4404185,9.25172923 11.9418084,9.52967252 C11.6715088,9.68036741 10.8194692,9.99392971 10.7414758,10.2478275 C10.6170231,10.6524081 11.0679989,10.8679193 11.1451322,11.2147644 C10.3333249,10.776901 10.1749394,11.6344649 9.98289978,12.2420128 C9.80889868,12.7922923 9.70985022,13.2033546 9.66715859,13.5207268 C8.9678348,13.8504393 8.22013767,14.184345 7.61820264,14.6071486 L7.61820264,14.6071486 Z M15.756652,15.484984 C16.8763987,16.0219649 17.0782269,13.4780751 16.6393172,12.6585863 C16.7071586,12.4141773 16.9404846,12.320607 17.0357048,12.1008786 C16.410837,10.9938618 15.7167952,9.96051518 15.079207,8.86652157 C15.5534912,9.15850639 16.2309361,8.91874601 16.7890529,9.13730032 C16.9930617,9.21709265 17.1407379,9.67896565 17.2951982,10.0484545 C17.7200551,11.065004 18.1661123,12.3466054 18.3645485,13.3166933 C18.4093722,13.5377396 18.5314868,14.019369 18.5041079,14.2160942 C18.4552863,14.5683307 17.9720374,14.8295128 17.7262335,15.0473243 C17.2733921,15.4496406 16.9882159,15.8036741 16.51587,16.1798722 C16.3243392,15.9002396 15.913293,15.7123802 15.756652,15.484984 L15.756652,15.484984 Z M5.05734692,25.3054313 C4.52378634,24.7248403 4.63547026,23.6369808 4.70006498,22.8630192 C5.66449119,23.4630192 6.94456167,22.8155751 6.93249559,21.7950479 C7.39294493,21.8071486 7.10450991,22.363778 7.02122247,22.7223642 C6.74903304,23.8936102 7.47978194,25.1660942 7.05435573,26.2371805 C6.22833811,26.1752396 5.54973018,25.8415735 5.05734692,25.3054313 L5.05734692,25.3054313 Z M8.8750859,28.6751597 C7.66718172,28.3365815 6.11911344,27.4685703 5.62275661,26.3954473 C6.00710242,26.4506789 6.273913,26.6423722 6.65306167,26.6660942 C6.79635242,26.6753195 6.9840793,26.6066693 7.14876432,26.6471645 C7.47694714,26.7276757 7.75392181,27.4553914 8.00150661,27.7261581 C8.24285242,27.9905751 8.53293502,28.1035543 8.73145595,28.3446086 C8.8589978,28.4054712 9.04757269,28.401278 9.05481718,28.5906949 C8.99953855,28.6491613 8.94132819,28.69373 8.8750859,28.6751597 L8.8750859,28.6751597 Z M15.1629185,28.3567093 C13.909185,29.05627 11.7870694,29.5824681 10.4534284,28.9249601 C9.37731828,28.3943291 7.92271366,27.5163738 7.42678084,26.4038339 C7.89006498,25.3302316 7.28954736,24.3464856 7.25121696,23.2564696 C7.23086454,22.6764776 7.52734361,22.1701677 7.55005837,21.538778 C7.39152753,21.2801118 6.90717621,21.2482428 6.57189427,21.2659744 C6.45903524,21.8245208 6.26145925,22.4523163 5.67987665,22.5153355 C4.85693612,22.604353 4.25523128,21.9307907 4.21784581,21.2269169 C4.17360352,20.3991613 4.86071586,19.0272364 5.83461564,19.122484 C6.2108326,19.1592652 6.30325441,19.5322284 6.71316189,19.5283946 C6.9353304,19.090016 6.37045374,18.9523562 6.31234031,18.6388179 C6.29719714,18.5578275 6.35918722,18.2412939 6.39524009,18.0928514 C6.57213656,17.3700479 6.96647687,16.4345847 7.35461454,15.8843051 C7.84724009,15.1863019 8.8150826,15.0811102 9.85631498,15.0126997 C10.0422852,15.4089058 10.7273744,15.3763179 11.1737709,15.2726837 C10.638793,15.4822284 10.1414306,15.9902157 9.72924559,16.4398562 C9.25578524,16.9557508 8.77618282,17.5091454 8.75195374,18.1834265 C9.64667291,16.9558706 10.3858535,15.8838259 12.0127996,15.3438498 C13.2438546,14.9355431 14.6816079,15.5309904 15.627511,16.1878994 C16.020022,16.4609425 16.2543172,16.8941693 16.533315,17.2907348 C17.5772247,18.7757588 18.0643502,20.8954073 17.9572577,22.9498802 C17.9131608,23.7971645 17.9150991,24.6415735 17.6276211,25.2116214 C17.3271806,25.8076677 16.3110132,26.3409345 15.7161894,25.8017971 C15.6059471,26.3814297 16.210826,26.7398962 16.9213436,26.5313099 C16.4147137,27.1779153 15.8830066,27.9548722 15.1629185,28.3567093 L15.1629185,28.3567093 Z M17.4987225,9.23923323 C18.4784251,9.72089856 20.3089317,10.5356909 20.9231388,9.23746006 C21.1498018,8.75892173 21.4157159,7.94998802 21.5331057,7.45600639 C21.6989537,6.75910543 21.353326,5.29430511 20.6289978,5.06045128 C19.9892291,4.85392572 19.2427313,4.86650559 18.4721256,5.01959665 C18.3813877,5.09423722 18.2803524,5.22434904 18.2097247,5.35997204 C17.6594824,5.38108227 17.1442511,5.33076278 16.7095815,5.10706869 C16.7507709,4.70463259 16.4755286,4.64004393 16.217489,4.55716054 C16.0262004,3.80705272 16.6001872,2.82747604 16.4628084,2.14349042 C16.3648018,1.65620607 15.7585903,1.58085863 15.3130176,1.48969649 C15.2984802,1.21890575 15.332522,0.992864617 15.3629295,0.763777955 C15.2610463,0.39251238 14.8040859,0.181163339 14.3711123,0.129402556 C12.9465639,-0.0400140575 10.783598,-0.116111142 9.41337115,0.371172125 C9.03101211,1.29869808 8.72979626,2.42682508 8.41131718,3.48595447 C7.07493833,3.34480831 5.99409141,4.05621805 4.97514978,4.52229633 C4.62236233,4.68403754 4.13432819,4.77313898 4.00253414,5.05085463 C3.87476211,5.31972843 3.92704846,5.83503594 3.89534471,6.32180511 C3.81466189,7.56505591 3.74557269,8.76421725 3.41359802,10.0371805 C3.26454075,10.6084145 3.00473238,11.1124601 2.82348678,11.6628714 C2.65596696,12.1730032 2.36327974,12.8034345 2.28694604,13.3121406 C2.17375991,14.0660942 2.89163106,14.1080272 3.350663,14.4347444 C4.06025991,14.939976 4.61725,15.219369 5.38575991,15.6753594 C5.61337996,15.8103834 6.29980176,16.1521965 6.37787996,16.3096246 C6.53309141,16.6217252 6.11145705,17.0617812 5.99873128,17.3064297 C5.8204174,17.6932907 5.72742621,18.0219249 5.70187665,18.4036342 C5.05720154,18.504393 4.5685011,18.8838259 4.27330617,19.3116613 C3.78499339,20.0197284 3.44634361,21.3297125 3.86883811,22.3261581 C3.90197137,22.4046326 4.06721366,22.5589457 4.09158811,22.6794728 C4.1396707,22.9168131 4.00110463,23.2323882 3.99249119,23.4848243 C3.94810352,24.7799521 4.21406608,25.8958466 5.09567731,26.2864217 C5.45357709,27.6964457 6.73454405,28.1652556 7.94140639,28.8660144 C8.39253965,29.1279153 8.88984141,29.2952875 9.40343722,29.4821885 C11.2458403,30.1527556 14.0726101,30.0264776 15.601707,28.8827875 C16.2500771,28.3978035 17.2864758,27.3738019 17.6571806,26.6324281 C18.6362775,24.6751198 18.5667401,21.4039936 17.8819053,19.0230431 C17.7898348,18.7033946 17.6563326,18.2335064 17.4698899,17.8495208 C17.3399009,17.5813898 16.9358811,17.0448882 16.9849449,16.808147 C17.0354626,16.5633786 17.9061344,15.9095847 18.0928194,15.7315495 C18.4289978,15.4108227 19.0676762,14.9851438 19.1194053,14.5804313 C19.175011,14.1497204 18.927511,13.5605032 18.8021256,13.1448882 C18.3829626,11.7578794 17.9739758,10.4757867 17.4987225,9.23923323 L17.4987225,9.23923323 Z"/>
    <path fill="#F7E4CD" d="M10.9625661,18.8404553 C11.0157126,18.9104233 11.3079273,19.0166933 11.716793,18.8220048 C11.716793,18.8220048 11.2322115,18.7420927 11.2725286,17.9430911 L11.0706035,17.983107 C11.0706035,17.983107 10.8619185,18.7075879 10.9625661,18.8404553"/>
  </g>
</svg>
