<svg xmlns="http://www.w3.org/2000/svg" width="51" height="50" viewBox="0 0 51 50">
  <g fill="none" transform="translate(13 7)">
    <path fill="#5382A1" d="M8.38843484,27.2905441 C8.38843484,27.2905441 7.04736641,28.0736322 9.34287156,28.3386068 C12.1238764,28.6571477 13.5451163,28.6115398 16.6098204,28.0290447 C16.6098204,28.0290447 17.4155995,28.5363429 18.5407435,28.9757906 C11.6706892,31.9323436 2.99225512,28.8044805 8.38843484,27.2905441 M7.54892072,23.432343 C7.54892072,23.432343 6.04476585,24.550399 8.34199839,24.7889475 C11.3127119,25.0966731 13.6587179,25.1218747 17.7183001,24.33695 C17.7183001,24.33695 18.2798052,24.9085278 19.1627074,25.2211509 C10.8562731,27.6601005 1.60444541,25.4134794 7.54892072,23.432343"/>
    <path fill="#E76F00" d="M14.6261609,16.887665 C16.3190083,18.84462 14.1814074,20.6056755 14.1814074,20.6056755 C14.1814074,20.6056755 18.479675,18.377624 16.5056686,15.5874836 C14.6620298,12.9856925 13.2481059,11.6927554 20.9021945,7.23542805 C20.9021945,7.23542805 8.88785531,10.2484042 14.6261609,16.8875629"/>
    <path fill="#5382A1" d="M23.7124635,30.1442499 C23.7124635,30.1442499 24.7049029,30.9652935 22.6194287,31.6005387 C18.6539387,32.8068515 6.11447134,33.1711022 2.63102628,31.6485953 C1.3788679,31.101709 3.72710941,30.3425982 4.46572332,30.1832257 C5.23604001,30.0154867 5.6763226,30.0468102 5.6763226,30.0468102 C4.28373714,29.0617007 -3.32472791,31.9810124 1.81163123,32.8169525 C15.8190798,35.0979581 27.3457855,31.7899082 23.7124635,30.1442499 M9.03326135,19.4348695 C9.03326135,19.4348695 2.65500659,20.9561521 6.77464118,21.508446 C8.51402664,21.7423011 11.9815187,21.689449 15.2114431,21.4176384 C17.8511063,21.1941904 20.501642,20.7187259 20.501642,20.7187259 C20.501642,20.7187259 19.5708808,21.1189936 18.8975015,21.580684 C12.4203787,23.2912341 -0.0922632318,22.4954941 3.50996566,20.7457641 C6.5563797,19.2671305 9.03336296,19.4348695 9.03336296,19.4348695 M20.4753247,25.8569062 C27.0597491,22.4213176 24.0153673,19.1197977 21.8904679,19.564653 C21.3696074,19.673418 21.1374251,19.7676947 21.1374251,19.7676947 C21.1374251,19.7676947 21.3307918,19.4636422 21.7000479,19.3320222 C25.9037152,17.847981 29.136688,23.7088471 20.3430265,26.0300529 C20.3430265,26.0301549 20.4449428,25.9387351 20.4753247,25.8569062"/>
    <path fill="#E76F00" d="M16.5056686,0.03785351 C16.5056686,0.03785351 20.1522001,3.70076728 13.0471184,9.33298185 C7.34966059,13.8511197 11.7479139,16.427199 13.0447813,19.3704879 C9.71903729,16.3575118 7.27832933,13.7051133 8.91579847,11.2365747 C11.3190118,7.61273878 17.9769014,5.85586657 16.5056686,0.037751479"/>
    <path fill="#5382A1" d="M9.68032331,35.166523 C16.0004563,35.5728105 25.7056744,34.9411364 25.9355196,31.9382614 C25.9355196,31.9382614 25.4937129,33.0767235 20.7122826,33.9807184 C15.3179319,35.0000083 8.66481809,34.8810402 4.71873593,34.2277355 C4.71883754,34.2277355 5.52654726,34.8990996 9.68042492,35.166523"/>
  </g>
</svg>
