<svg xmlns="http://www.w3.org/2000/svg" width="50" height="50" viewBox="0 0 50 50">
  <g fill="none" transform="translate(14 9)">
    <path fill="#F6D2A5" d="M0.329434519,16.8171585 C0.373943035,17.7341412 1.29092572,17.3068416 1.70043981,17.0219156 C2.09216838,16.745927 2.2079084,16.977407 2.24347946,16.4432155 C2.27020245,16.0871473 2.30577351,15.7399273 2.28798798,15.3838592 C1.69150236,15.3304132 1.05050823,15.4728762 0.560825178,15.8289443 C0.302711534,16.0069784 -0.160248533,16.5946159 0.329345144,16.8171585 L0.329434519,16.8171585 Z M18.6066154,28.0879124 C19.3099035,28.5241495 20.6008292,29.8417982 19.5413836,30.4827923 C18.5264464,31.4087125 17.9567731,29.4589177 17.0664241,29.1918666 C17.4492152,28.6666125 17.9299608,28.1858669 18.6066154,28.0879124 Z M6.01821275,29.5746577 C5.1902471,29.6993352 4.72728703,30.4471319 4.03293631,30.8300124 C3.38300472,31.2128035 3.13373916,30.7053349 3.08029319,30.5985323 C2.98242808,30.5540238 2.99127616,30.6430409 2.83102762,30.4827923 C2.22569393,29.5301492 3.45423622,28.8357985 4.09523036,28.363901 C4.98549005,28.1858669 5.54640461,28.9603866 6.01821275,29.5746577 L6.01821275,29.5746577 Z M22.5148742,16.7014185 C22.4703657,17.6184012 21.553383,17.1911015 21.1438689,16.9061755 C20.7521403,16.630187 20.6364003,16.861667 20.6008292,16.3274755 C20.5740169,15.9714073 20.5384458,15.6241873 20.5563207,15.2681191 C21.152717,15.2146732 21.7937111,15.3571362 22.2833942,15.7132043 C22.5327491,15.8912384 23.0045572,16.4788759 22.5148742,16.7014185 L22.5148742,16.7014185 Z"/>
    <path fill="#78CEDC" d="M20.0844232,5.51968162 C23.2626709,4.39794189 20.7788633,0.0445978907 18.0100404,1.96749091 C16.1939499,0.409514098 13.6923568,0.124588095 11.0659969,0.124588095 C8.49326162,0.329523893 6.04493574,0.801332039 4.33564784,2.29692543 C1.57567297,0.516316662 -0.970428651,4.78958108 2.27011307,5.86690167 C1.36206784,9.39228002 2.39470117,12.9889792 2.25223817,16.576741 C2.11871262,19.7995866 1.27296144,24.1172701 3.06241828,27.0106812 C4.58482403,29.4856407 7.86093682,30.3670523 10.5585283,30.4650068 C14.003827,30.5895949 18.179137,29.7438437 19.8528538,26.4053475 C21.4553391,23.2270998 21.010254,19.265395 20.8054969,15.8378818 C20.6007399,12.3747081 20.983531,8.85817783 20.0843338,5.51959225 L20.0844232,5.51968162 Z"/>
    <path fill="#000" d="M22.7552023,16.1583788 C22.6661853,15.9714073 22.4970887,15.7577128 22.3368401,15.6419728 C21.927326,15.3481987 21.4019825,15.1879502 20.8589429,15.1701647 C20.8411574,14.6181876 20.8233718,14.0127645 20.8233718,13.2471823 L20.8233718,12.5527422 C20.8144344,10.3627087 20.7877114,9.40121747 20.6631233,8.19930879 C20.5651688,7.2556925 20.4137684,6.38321833 20.2001632,5.56419014 C20.9213263,5.28820159 21.3931345,4.83417897 21.580106,4.24654144 C21.75814,3.70350179 21.669123,3.08923064 21.3665008,2.546191 C21.0548519,2.01199943 20.5563207,1.61133341 19.9776206,1.45117425 C19.354412,1.28198826 18.6778469,1.40666573 18.0279153,1.84281344 C17.4492152,1.35321976 16.7815874,0.979276729 16.0337014,0.694350726 C14.7072046,0.204846424 13.1671027,0.0178749061 11.0749343,0.0178749061 L11.0749343,0.106891938 L11.0659969,0.0178749061 C8.83145484,0.195908971 7.17552354,0.543129021 5.80451825,1.21084614 C5.25254115,1.47789723 4.76294747,1.7983943 4.33564784,2.17233733 C3.6767788,1.76282324 2.99127616,1.66486875 2.35921948,1.86077772 C1.77167132,2.03881179 1.26420273,2.45726334 0.961491198,3.00030298 C0.658779663,3.54334263 0.587548163,4.16655123 0.792305212,4.7007428 C0.997062261,5.23484499 1.46887041,5.65329654 2.17224796,5.91149956 C1.94970538,6.81060734 1.83396536,7.76325046 1.81617983,8.81375869 C1.79830493,9.83754393 1.84281344,10.6566615 2.00306197,12.508323 C2.11880199,13.8882658 2.16331051,14.5203224 2.18118541,15.2859941 C1.57576234,15.2592711 0.970428651,15.4195196 0.516316662,15.7489541 C0.356068129,15.8646941 0.178034064,16.0694512 0.0979544853,16.2652708 C-0.0177855315,16.5146257 0.0267229846,16.7371683 0.258203018,16.8706938 C0.293774081,17.2979935 0.534191568,17.4938131 0.89919715,17.458242 C1.16624825,17.431519 1.48674531,17.289056 1.76273386,17.0932364 C1.82103921,17.051021 1.88372511,17.0152133 1.94970538,16.9864339 C1.97642836,16.9774964 1.9942139,16.968559 2.02093688,16.9596215 C2.02093688,16.9596215 2.07429348,16.9419253 2.09216838,16.9329879 C2.11880199,16.9240504 2.14552498,16.915113 2.16331051,16.8973275 C2.14552498,17.315779 2.10995391,17.7520161 2.02978496,18.7491677 C1.94076793,19.8708181 1.89625941,20.4851786 1.87847388,21.1706813 C1.79830493,23.7167829 2.10101646,25.5685338 3.00906169,27.0374936 C3.29398769,27.5004536 3.64120774,27.9099677 4.05072184,28.2839108 C3.97055289,28.3372673 3.63227029,28.5866223 3.52546772,28.6667019 C3.15152469,28.9516279 2.89341105,29.191956 2.74201059,29.4590071 C2.546191,29.8062271 2.546191,30.1534472 2.76873358,30.5184528 L2.77767103,30.5273902 L2.78660848,30.5363277 C2.88447359,30.6341928 2.93791956,30.6609158 3.00915106,30.6609158 L3.0356953,30.6609158 C3.04463275,30.6787907 3.0535702,30.6876387 3.06250766,30.7054243 C3.08914127,30.7499328 3.11586425,30.7855039 3.14258724,30.8211643 C3.36512982,31.0793673 3.67668943,31.1416614 4.09514098,30.8923958 C4.31768356,30.7766558 4.47793209,30.6430409 4.81621469,30.3582042 L4.8340896,30.3403293 C5.37712924,29.8774586 5.64418034,29.708362 6.04484636,29.6459786 L6.18730936,29.6192556 C6.24066596,29.646068 6.29411193,29.6638535 6.35640597,29.6904871 C7.62060871,30.1979557 9.08947911,30.4739442 10.5763138,30.5273902 C12.4992962,30.5986217 14.3510471,30.3582042 15.917872,29.7884416 C16.3363235,29.6371305 16.7280521,29.4590071 17.1019951,29.2631875 C17.3334752,29.3522045 17.5292054,29.539176 17.9032378,29.9754131 C17.9210233,29.993288 17.9210233,29.993288 17.9298714,30.0109842 C17.9477463,30.0288591 17.9477463,30.0377965 17.9566838,30.0466446 C17.9743799,30.0733676 18.0011029,30.0911531 18.0188884,30.1178761 C18.3127519,30.4650068 18.5086609,30.6341928 18.7312034,30.7321473 C19.0248882,30.8567354 19.3098142,30.7944413 19.6035882,30.5273902 C20.1199943,30.2068931 20.1555653,29.708362 19.8171934,29.13851 C19.5768653,28.7379334 19.1585031,28.3194818 18.7667745,28.0524307 C19.2297346,27.5984081 19.6303112,27.0553685 19.9418708,26.4410079 C20.7965595,24.73172 21.125994,22.7375061 21.1082085,20.1735296 C21.099271,19.2654844 21.0636106,18.4731792 20.9657455,16.9596215 L20.9657455,16.9152024 C21.010254,16.9329879 21.0547625,16.9597109 21.099271,16.9952819 C21.3752596,17.1822535 21.6957566,17.3335645 21.9628077,17.3602875 C22.3278133,17.395948 22.5682308,17.200039 22.6038018,16.7727394 C22.8263444,16.6302764 22.8708529,16.4077338 22.7551129,16.1584682 L22.7552023,16.1583788 Z M19.9242641,1.63805639 C20.4584556,1.78051939 20.9214157,2.15446243 21.2062523,2.65299356 C21.4911783,3.15152469 21.5712579,3.71243924 21.4110094,4.21097037 C21.2419128,4.73622449 20.8145238,5.15467604 20.1468066,5.4039416 C20.0136747,4.92729973 19.8561988,4.45779518 19.6749985,3.99727587 C19.9332015,3.77473329 20.0577896,3.49874474 19.8530326,3.10710555 C19.6483649,2.71528761 19.2922074,2.67077909 18.9271124,2.78651911 C18.6956324,2.48380757 18.4375187,2.21675648 18.1704676,1.96749091 C18.7580158,1.59354788 19.3634389,1.48674531 19.9242641,1.63805639 L19.9242641,1.63805639 Z M0.943795041,4.64720746 C0.756823523,4.16637248 0.819117571,3.59669923 1.10404357,3.09816809 C1.3888802,2.59954759 1.85184027,2.2079084 2.40381737,2.04765987 C2.97358,1.87847388 3.58785115,1.95855346 4.19327422,2.31471096 C3.8431875,2.62937397 3.53230528,2.98508804 3.26735408,3.37415664 C2.80439401,3.13373916 2.33258587,3.08923064 2.06553477,3.57882432 C1.78954622,4.10416781 2.11004329,4.43351295 2.5640659,4.68277852 C2.50177185,4.83417897 2.43938843,4.99442751 2.38603184,5.15467604 C2.32364841,5.35049563 2.26135437,5.55525268 2.20799777,5.76000973 C1.55806619,5.51074417 1.13076656,5.12795305 0.943795041,4.64720746 L0.943795041,4.64720746 Z M2.02102626,16.7815874 C2.0120888,16.7815874 1.95864283,16.799373 1.95864283,16.8082211 C1.93200922,16.8171585 1.90528624,16.826096 1.87856325,16.8438815 C1.80733175,16.8706045 1.73610025,16.915113 1.66495813,16.9684696 C1.41560319,17.146593 1.11289165,17.2801186 0.881411618,17.2979041 C0.614360522,17.3246271 0.463049442,17.2088871 0.436326457,16.88839 C0.623297975,16.826096 0.703377554,16.7815874 0.774609055,16.6747849 L0.632146053,16.5678929 C0.578789459,16.6391244 0.525343489,16.6658474 0.365094957,16.719204 C0.356157503,16.719204 0.356157503,16.719204 0.34722005,16.7281415 C0.204846424,16.6479725 0.178123439,16.5233844 0.258292393,16.3453504 C0.329523893,16.1851018 0.489772426,15.9981303 0.623297975,15.9002652 C1.0505976,15.5886162 1.62036024,15.4373051 2.19012287,15.4728762 C2.19012287,15.6954188 2.19906032,15.9179614 2.19012287,16.1315665 C2.19012287,16.1583788 2.19012287,16.1761644 2.18118541,16.2028874 C2.17233733,16.3274755 2.17233733,16.3809214 2.16339988,16.4433048 C2.13676627,16.7014185 2.11889137,16.7369896 2.02102626,16.7815874 L2.02102626,16.7815874 Z M4.70959088,30.2156518 L4.69171597,30.2335268 C4.36237083,30.5183634 4.20212229,30.6341034 3.99736524,30.7498434 C3.65908265,30.9546005 3.42760261,30.910092 3.26735408,30.7142724 C3.2406311,30.68746 3.22284556,30.6518889 3.20506003,30.6251659 C3.19612258,30.6162285 3.18718513,30.5985323 3.17833705,30.5895949 L3.17833705,30.5806574 C3.19621195,30.4204089 3.258506,30.3046689 3.41875454,30.0554033 C3.42769199,30.0464659 3.42769199,30.0464659 3.42769199,30.0376178 C3.5255571,29.8951548 3.57006562,29.8150752 3.61457413,29.7171207 L3.4543256,29.6458892 C3.41875454,29.7260582 3.37424602,29.7972897 3.28513961,29.9396633 C3.27620216,29.9486008 3.27620216,29.9486008 3.27620216,29.9575382 C3.116043,30.1890182 3.04472213,30.3313919 3.00915106,30.4916404 L3.00021361,30.4916404 L2.97349063,30.4916404 C2.95561572,30.4827029 2.92898211,30.4649174 2.89341105,30.4293464 C2.546191,29.8773693 2.82217955,29.4055611 3.6055473,28.8179236 C3.70350179,28.7467814 4.03293631,28.5153014 4.12195334,28.4440699 C4.13982825,28.4440699 4.1575244,28.4351325 4.17539931,28.426195 C4.65605553,28.8357985 5.21697009,29.1918666 5.84017869,29.4856407 C5.84017869,29.4945781 5.84911614,29.5035156 5.85796422,29.512453 C5.49295864,29.6013807 5.20803263,29.7883522 4.7095015,30.2156518 L4.70959088,30.2156518 Z M19.657213,29.2453126 C19.9332015,29.7082726 19.9242641,30.0821263 19.577044,30.3403293 C19.5504104,30.2868834 19.5325355,30.2245893 19.4969644,30.1355723 C19.4969644,30.1266348 19.4969644,30.1266348 19.488027,30.1176974 C19.3634389,29.7794148 19.2833593,29.6370411 19.1319588,29.4767926 L19.0072814,29.6013807 C19.1408069,29.7260582 19.2031903,29.8595837 19.3277784,30.1711433 C19.3277784,30.1800808 19.3277784,30.1800808 19.3367159,30.1890182 C19.3812244,30.3046689 19.4079474,30.3759004 19.4346704,30.4382838 C19.2031903,30.6341034 18.9984333,30.6697638 18.7847388,30.5718094 C18.5977673,30.4916404 18.4197332,30.3224544 18.1348072,30.0020467 C18.1170217,29.9841718 18.0992361,29.9575382 18.0814506,29.9308152 C18.0725132,29.9218778 18.0635757,29.9129403 18.0546383,29.8951548 C18.0369421,29.8773693 18.0369421,29.8773693 18.0280046,29.8595837 C17.6985701,29.4767926 17.5027505,29.2720356 17.289056,29.1562062 C17.7876765,28.8713695 18.2328511,28.5508725 18.6334277,28.1769294 C19.0072814,28.452918 19.4257329,28.8624321 19.657213,29.2453126 L19.657213,29.2453126 Z M19.7818011,26.360839 C19.0162188,27.9010303 17.6629991,28.9871096 15.8468192,29.6458892 C14.2977799,30.2068038 12.4638145,30.4382838 10.5675551,30.3670523 C7.30029039,30.2513123 4.46926277,29.111787 3.14276599,26.9573246 C2.25250629,25.5239359 1.95864283,23.698908 2.03881179,21.1883774 C2.06553477,20.5028748 2.10110583,19.8886036 2.19012287,18.7668639 C2.28807735,17.5026612 2.31480034,17.1376556 2.34152332,16.5678929 C2.35930885,16.1583788 2.35930885,15.7399273 2.35046077,15.2948421 C2.33258587,14.511385 2.28807735,13.8881764 2.17233733,12.4904481 C2.0120888,10.6386972 1.96758029,9.8285171 1.98536582,8.81357994 C2.01217818,7.47832445 2.19012287,6.30304938 2.5640659,5.19033648 C3.16922085,3.38291535 4.28220187,2.16322113 5.8846872,1.3710053 C7.22896951,0.712315007 8.85817783,0.373943035 11.0749343,0.195819596 C13.1493172,0.195819596 14.6626961,0.382791114 15.9714073,0.863536712 C17.5382322,1.4422368 18.7044805,2.45708459 19.5057231,4.01515078 C20.0221292,5.27926413 20.3248407,6.64142135 20.4850892,8.20824624 C20.6096773,9.40121747 20.6364003,10.3627087 20.6453378,12.5438047 L20.6453378,13.2382448 C20.6542752,14.315476 20.6719714,15.0722102 20.7165693,15.8289443 C20.7343548,16.1227184 20.7432029,16.2473959 20.7877114,16.9506841 C20.8856659,18.4641524 20.9213263,19.2476095 20.9301744,20.1556547 C20.9480493,22.7106938 20.6274629,24.6781847 19.7817117,26.360839 L19.7818011,26.360839 Z M22.5060261,16.6124015 C22.4970887,16.6124015 22.4882406,16.603464 22.4793925,16.603464 C22.319144,16.5501074 22.265698,16.514447 22.212252,16.4521529 L22.069789,16.5589555 C22.149958,16.6658474 22.2300376,16.7103559 22.408161,16.7725606 C22.3725006,17.0931471 22.2211895,17.2088871 21.9630758,17.1821641 C21.7315958,17.1642892 21.4287949,17.0219156 21.1795293,16.8527296 C21.1082978,16.799373 21.0371557,16.7637125 20.9659242,16.7281415 C20.9569868,16.7281415 20.9480493,16.719204 20.9391118,16.719204 C20.9035408,16.2296103 20.9035408,16.1049329 20.8857553,15.8467299 L20.8590323,15.3659843 C21.3576528,15.3749217 21.8472464,15.5262328 22.2211001,15.8022213 C22.354715,15.9001758 22.5149636,16.0871473 22.5861951,16.2473065 C22.6752121,16.398707 22.6574266,16.5322325 22.5060261,16.6124015 L22.5060261,16.6124015 Z"/>
    <path fill="#FFF" d="M12.415731,9.30594422 C12.4246685,9.75996684 12.5136855,10.258498 12.4335165,10.7392436 C12.3088391,10.9707236 12.0774484,10.997536 11.8726914,11.0864636 C11.5877654,11.0419551 11.3473479,10.8549836 11.2316972,10.5879325 C11.1604657,10.0448928 11.2494828,9.52848681 11.2762057,8.98544716 C11.2762057,8.96757225 11.6144883,8.99438461 11.9171999,9.08340164 C12.1753135,9.16348122 12.415731,9.29700677 12.415731,9.30594422 L12.415731,9.30594422 Z M9.896263,9.34151529 C9.64690806,10.2853103 10.2256975,11.8254122 11.1782513,10.5612095 C11.1070198,10.0270179 11.1871887,9.51070127 11.2138223,8.98544716 C11.2227598,8.94093864 9.90520045,9.27922124 9.896263,9.34151529 L9.896263,9.34151529 Z"/>
    <path fill="#000" d="M12.5225336,9.72439578 C12.5046587,9.4572553 12.4958106,9.35045274 12.4958106,9.21692719 L12.4958106,9.15463314 L12.4335165,9.13675824 L11.3117768,8.78962756 L11.3117768,8.72724414 L11.1960368,8.7540565 L11.1870993,8.7540565 L11.1870993,8.76290458 L9.92298598,9.08340164 L9.87847747,9.0923391 L9.86060256,9.13675824 C9.66478296,9.60865576 9.70929148,10.3208814 9.95855705,10.7571185 C10.243483,11.2556496 10.7063537,11.2644977 11.1782513,10.6947351 C11.3116097,10.952112 11.5595059,11.1306503 11.845879,11.17557 L11.8726914,11.17557 L11.899325,11.1666326 C11.9349854,11.1487577 11.9705565,11.1398202 12.0329399,11.1131866 C12.0418773,11.1131866 12.0418773,11.1131866 12.0507254,11.1042492 C12.3088391,11.0152321 12.415731,10.9440006 12.504748,10.774904 L12.5136855,10.7659666 L12.5136855,10.748181 C12.5403191,10.5879325 12.5492566,10.4187465 12.5492566,10.2318644 C12.5492566,10.0982494 12.5403191,9.97357197 12.5225336,9.72439578 L12.5225336,9.72439578 Z M11.0980823,9.39496126 C11.0891449,9.55520979 11.0802968,9.61750384 11.0714487,9.70652087 C11.0535738,10.0359554 11.0535738,10.285221 11.0803862,10.5344865 C10.6618452,11.0686781 10.3325001,11.0686781 10.1099575,10.6680121 C9.896263,10.2941584 9.85166511,9.66201235 10.012003,9.24365018 L11.1336534,8.95872417 C11.1248053,9.07446419 11.1159572,9.19020421 11.0980823,9.39496126 L11.0980823,9.39496126 Z M12.3444995,10.71261 C12.2822055,10.8194125 12.2020365,10.8728585 11.988342,10.94409 C11.9794046,10.94409 11.9794046,10.94409 11.9705565,10.9529381 C11.9171999,10.970813 11.8815394,10.9885091 11.8548165,10.9974466 C11.614399,10.9529381 11.4097313,10.7926895 11.3117768,10.570147 C11.2850538,10.3297295 11.2850538,10.0804639 11.3028394,9.75111876 C11.3117768,9.66201235 11.3117768,9.59971831 11.3296517,9.43946977 C11.3473479,9.2348021 11.3562853,9.11012463 11.3562853,8.99438461 L12.326714,9.28815869 C12.326714,9.40389871 12.3356514,9.51070127 12.353437,9.74218131 C12.3712225,9.98259879 12.3800706,10.1071869 12.3800706,10.2496499 C12.3800706,10.4187465 12.3711331,10.570147 12.3444995,10.71261 Z"/>
    <g transform="translate(4.333 1.964)">
      <path fill="#FFF" d="M0.204757049,3.46317368 C1.02378525,6.65026943 6.12501531,5.83124123 5.92919572,2.63520803 C5.69762631,-1.19297123 -0.578700084,-0.454022614 0.204667675,3.46317368"/>
      <path fill="#000" d="M6.01821275,2.62627057 C5.96476678,1.70035044 5.55525268,0.979276729 4.87868749,0.525254115 C4.27326442,0.115740017 3.47202176,-0.0445085161 2.67971654,0.0533565946 C1.88741133,0.160337907 1.15731079,0.516406036 0.676565195,1.07732059 C0.142463001,1.70043981 -0.0622940477,2.51946801 0.12467747,3.46317368 L0.204757049,3.44529877 L0.12467747,3.46317368 C0.961491198,6.73928646 6.21403235,5.94698125 6.01821275,2.62627057 L6.01821275,2.62627057 Z M0.284836628,3.44538815 C0.106802564,2.54628037 0.302711534,1.78060877 0.801242665,1.20190868 C1.25526528,0.676654569 1.94076793,0.329523893 2.69750208,0.231569408 C3.45423622,0.133614923 4.21097037,0.285015377 4.78082238,0.676654569 C5.41278968,1.10404357 5.79567017,1.77176069 5.84902676,2.65308293 C6.03599828,5.76009911 1.07723121,6.50798518 0.284926003,3.44538815 L0.284836628,3.44538815 Z"/>
      <ellipse cx="1.611" cy="2.938" fill="#000" rx="1" ry="1"/>
      <ellipse cx="2.003" cy="3.152" fill="#FFF" rx="1" ry="1"/>
    </g>
    <g transform="translate(11.585 1.617)">
      <path fill="#FFF" d="M0.106802564,3.21390811 C0.738948617,6.87290138 6.72150093,5.90247273 5.85796422,2.21675648 C5.08344454,-1.09501675 -0.106891938,-0.178034064 0.106802564,3.21390811"/>
      <path fill="#000" d="M5.9380438,2.19897095 C5.14573859,-1.21075676 -0.195730221,-0.27598855 0.0178749061,3.22275619 L0.0178749061,3.23169364 C0.311559613,4.95876707 1.85184027,5.84017869 3.55219071,5.55525268 C4.32662101,5.42172714 5.02106112,5.04787347 5.47508373,4.49589638 C5.97361486,3.88153585 6.15164892,3.08923064 5.9380438,2.19897095 Z M5.34164756,4.38900444 C4.91425855,4.90541047 4.26441634,5.2614786 3.52546772,5.38615607 C1.91404494,5.65320717 0.471808146,4.82524152 0.186971518,3.20497066 C-0.00893745304,-0.0890170322 5.02999857,-0.970428651 5.77779526,2.23454201 C5.97370423,3.08029319 5.8134557,3.81924181 5.34164756,4.38900444 Z"/>
      <ellipse cx="1.576" cy="3.054" fill="#000" rx="1" ry="1"/>
      <ellipse cx="1.967" cy="3.267" fill="#FFF" rx="1" ry="1"/>
    </g>
    <g transform="translate(8.937 6.346)">
      <path fill="#F6D2A5" d="M1.14265337,1.07267311 C0.439275817,1.13496716 -0.130486814,1.96293281 0.234608142,2.62171247 C0.715264366,3.49418664 1.79249558,2.54163289 2.4602127,2.63064993 C3.23473238,2.64852483 3.86687843,3.44967812 4.48114958,2.77311293 C5.16665223,2.02522686 4.1873755,1.29521569 3.41276644,0.974718628 L1.14265337,1.07267311 Z"/>
      <path fill="#231F20" d="M4.57016661,1.66915873 C4.32974912,1.36644719 3.91138695,1.09045864 3.45727496,0.903487127 L3.43948943,0.894549674 L3.42170389,0.894549674 L1.14265337,0.983656081 C0.350258784,1.05488758 -0.219414472,1.97187026 0.163287267,2.66622099 C0.314687721,2.93336146 0.51944477,3.06688701 0.79543332,3.08467254 C1.00010099,3.09360999 1.21388487,3.04910148 1.54323002,2.93336146 C1.569953,2.92442401 1.60552406,2.91548655 1.65003258,2.89770102 C2.09520712,2.74638994 2.27324118,2.70188143 2.45127524,2.72860441 L2.4602127,2.72860441 C2.67381782,2.72860441 2.85194126,2.79089846 3.19022386,2.92442401 C3.5641669,3.07573509 3.67990691,3.12033298 3.86678906,3.13802914 C4.12508145,3.15590404 4.34762403,3.06688701 4.5522917,2.84434443 C4.89951175,2.46146394 4.88172622,2.05194984 4.57016661,1.66915873 L4.57016661,1.66915873 Z M4.41876616,2.71966696 C4.24966954,2.90663848 4.08048356,2.9690219 3.87572651,2.96008445 C3.71547798,2.95114699 3.60867541,2.90663848 3.25251791,2.76417548 C2.89644978,2.6128644 2.70063018,2.5595078 2.46915015,2.55057035 C2.24660757,2.52375799 2.05963605,2.56835588 1.58773853,2.72860441 C1.54323002,2.74638994 1.50765895,2.7553274 1.48093597,2.76417548 C0.831004383,2.98671806 0.51944477,2.96893252 0.305750268,2.57720396 C-0.0147467975,1.99859325 0.474936254,1.21513611 1.14265337,1.15284207 L3.39498091,1.06373566 C3.82236991,1.2418591 4.20516103,1.49997274 4.42770361,1.77605067 C4.69475471,2.09645836 4.70369216,2.41695542 4.41876616,2.71966696 L4.41876616,2.71966696 Z"/>
      <path fill="#000" d="M3.59088988,0.689882 C3.31490133,-0.325055167 1.00019037,-0.173654712 1.05354696,1.03710205 C1.16928698,1.93620983 3.85794098,1.69579234 3.59088988,0.689882 Z"/>
    </g>
  </g>
</svg>
