<svg xmlns="http://www.w3.org/2000/svg" width="50" height="50" viewBox="0 0 50 50">
  <g fill="none" transform="translate(10 11)">
    <path fill="#326CE5" d="M14.5708725,0.275734644 C14.2942702,0.275734644 14.016278,0.413326781 13.8758919,0.413326781 L3.86955984,5.2290516 C3.31218533,5.50423587 2.89658687,5.91701228 2.75620077,6.46738083 L0.25427027,17.1995675 C0.116664093,17.7485602 0.25427027,18.1627125 0.532262548,18.575489 L0.671258687,18.7117051 L7.62106564,27.2437936 C8.03944401,27.6551941 8.59403861,27.9317543 9.15141313,27.9317543 L20.2711042,27.9317543 C20.8256988,27.9317543 21.3816834,27.6551941 21.7986718,27.2437936 L28.7484788,18.7117051 C29.1654672,18.3003047 29.3058533,17.612344 29.1654672,17.0605995 L26.6635366,6.32841278 C26.5259305,5.77942015 26.1089421,5.2290516 25.5515676,5.09145946 L15.5438455,0.275734644 C15.1268571,0.413326781 14.8488648,0.275734644 14.5708725,0.275734644"/>
    <path fill="#FFF" d="M14.5708725,17.6117936 C14.8488648,17.6117936 14.989251,17.6117936 15.1268571,17.8869779 L16.6558147,20.6388207 L16.1012201,20.7764128 C14.989251,21.051597 13.7368958,20.914005 12.6263166,20.6388207 L14.1538842,17.8869779 C14.2942702,17.6117936 14.4318765,17.6117936 14.5708725,17.6117936 L14.5708725,17.6117936 Z M11.9313359,16.2358722 C12.2093282,16.2358722 12.4859305,16.5110565 12.4859305,16.7862408 L12.4859305,16.9238329 L11.2363552,19.8132678 C10.1243861,19.1253071 9.15141313,18.0245701 8.73442471,16.6486486 L11.9313359,16.2358722 Z M17.2117993,16.2358722 L17.2117993,16.2358722 L20.5490965,16.7862408 C20.1307182,18.0245701 19.1591352,19.1253071 18.045776,19.95086 L16.933807,17.0614251 C16.7962007,16.7862408 16.7962007,16.5110565 17.2117993,16.2358722 L17.2117993,16.2358722 Z M14.1538842,13.7592138 L15.1268571,13.7592138 L15.6842317,14.4471745 L15.5438455,15.4103194 L14.7112587,15.8230958 L13.8758919,15.4103194 L13.7368958,14.4471745 L14.1538842,13.7592138 Z M19.8541158,11.4201474 C20.5490965,12.5208846 20.8256988,13.8968059 20.6867027,15.2727273 L17.6287876,14.4471745 C17.3507954,14.3095823 17.2117993,14.034398 17.2117993,13.7592138 C17.2117993,13.6216216 17.3507954,13.6216216 17.3507954,13.4840295 L19.8541158,11.4201474 Z M9.2890193,11.4201474 L11.6519536,13.4840295 C11.9313359,13.6216216 11.9313359,14.034398 11.6519536,14.1719902 C11.5143475,14.3095823 11.5143475,14.3095823 11.3739614,14.3095823 L8.31604634,15.1351352 C8.31604634,14.034398 8.59403861,12.6584766 9.2890193,11.4201474 L9.2890193,11.4201474 Z M15.4062394,8.66830467 C16.7962007,8.80589681 18.045776,9.49385749 18.8811429,10.4570024 L16.2388263,12.2457003 C15.960834,12.3832924 15.6842317,12.3832924 15.5438455,12.1081081 C15.5438455,11.970516 15.4062394,11.970516 15.4062394,11.8329239 L15.4062394,8.66830467 Z M13.8758919,8.66830467 L13.7368958,11.8329239 C13.7368958,12.1081081 13.4589035,12.3832924 13.1809112,12.3832924 C13.0419151,12.3832924 12.9043089,12.3832924 12.9043089,12.2457003 L10.2619923,10.4570024 C11.0959691,9.63144964 12.0689421,9.08108109 13.1809112,8.80589681 L13.8758919,8.66830467 Z M14.5708725,3.99017199 C14.1538842,3.99017199 14.016278,4.26535627 14.016278,4.67813268 L14.016278,4.81572482 L14.016278,5.36609337 L14.016278,6.46683047 C14.016278,6.6044226 13.8758919,6.74201474 13.8758919,6.74201474 L13.8758919,7.01719902 C13.4589035,7.01719902 13.1809112,7.15479115 12.7639228,7.15479115 C11.2363552,7.42997543 9.84639377,8.25552826 8.87203089,9.35626536 L8.73442471,9.21867322 L8.45643243,9.21867322 C8.17705019,8.94348894 7.89905792,8.80589681 7.62106564,8.53071254 C7.48206949,8.39312039 7.34446332,8.25552826 7.20407722,8.11793612 L7.06647105,7.98034398 C6.92608494,7.84275184 6.78708881,7.84275184 6.64948263,7.84275184 C6.50909653,7.84275184 6.23110425,7.84275184 6.23110425,7.98034398 C6.09210811,8.25552826 6.09210811,8.66830467 6.37149035,8.80589681 L6.50909653,8.94348894 L7.06647105,9.21867322 C7.34446332,9.35626536 7.62106564,9.63144964 7.89905792,9.90663394 C8.03944401,10.044226 8.03944401,10.1818181 8.03944401,10.1818181 L8.17705019,10.3194103 C7.06647105,11.8329239 6.64948263,13.7592138 6.92608494,15.6855036 L6.64948263,15.6855036 C6.64948263,15.8230958 6.50909653,15.8230958 6.37149035,15.9606879 C5.95450193,16.0982801 5.67650965,16.0982801 5.25952124,16.0982801 L4.56454054,16.0982801 C4.28654826,16.2358722 4.14616216,16.5110565 4.14616216,16.9238329 C4.28654826,17.1990172 4.56454054,17.3366094 4.70214672,17.3366094 L4.84114286,17.3366094 L5.39712741,17.1990172 C5.67650965,17.0614251 6.09210811,16.9238329 6.50909653,16.9238329 C6.64948263,16.9238329 6.78708881,16.9238329 6.78708881,17.0614251 L7.06647105,17.0614251 C7.62106564,18.8501228 8.87203089,20.3636364 10.5413745,21.3267813 L10.4009884,21.6019656 L10.4009884,21.8771499 C10.2619923,22.1523341 10.1243861,22.5651106 9.84639377,22.8402949 C9.70600771,22.977887 9.56701158,23.1154791 9.56701158,23.2530713 L9.56701158,23.3906634 C9.42940541,23.6658477 9.56701158,24.078624 9.84639377,24.2162162 C10.1243861,24.3538083 10.5413745,24.2162162 10.6789807,23.9410319 L10.6789807,23.8034398 C10.8193668,23.6658477 10.8193668,23.3906634 10.8193668,23.2530713 C10.956973,22.8402949 11.0959691,22.5651106 11.2363552,22.1523341 C11.3739614,22.1523341 11.3739614,22.014742 11.5143475,22.014742 L11.6519536,21.7395577 C13.4589035,22.4275184 15.4062394,22.4275184 17.2117993,21.7395577 L17.3507954,22.014742 C17.4911814,22.014742 17.6287876,22.1523341 17.6287876,22.1523341 C17.7691737,22.4275184 17.9067799,22.8402949 18.045776,23.1154791 C18.045776,23.2544471 18.1861622,23.5282556 18.1861622,23.6658477 L18.1861622,23.8034398 C18.3237683,24.078624 18.7407567,24.2162162 19.018749,24.078624 C19.2967413,23.9424079 19.4357375,23.5282556 19.2967413,23.2544471 C19.1591352,23.1154791 19.1591352,22.977887 19.018749,22.8402949 C18.8811429,22.5664865 18.6017606,22.2899263 18.4641545,21.8785258 L18.4641545,21.6019656 C18.4641545,21.4643734 18.3237683,21.4643734 18.3237683,21.3267813 C19.991722,20.3636364 21.2440772,18.8501228 21.7986718,17.0614251 L22.0766641,17.0614251 C22.2170502,16.9238329 22.3560464,16.9238329 22.3560464,16.9238329 C22.7716448,17.0614251 23.051027,17.0614251 23.4666255,17.1990172 L24.024,17.3366094 L24.1616062,17.3366094 C24.4409884,17.3366094 24.8565869,17.0614251 24.8565869,16.7862408 C24.8565869,16.5110565 24.7189807,16.2358722 24.4409884,16.2358722 L23.7460077,16.2358722 C23.3290193,16.2358722 23.051027,16.0982801 22.6340386,16.0982801 C22.4936525,16.0982801 22.4936525,15.9606879 22.3560464,15.8230958 L22.0766641,15.8230958 C22.3560464,13.8968059 21.9390579,12.1081081 20.8256988,10.4570024 L20.9660849,10.3194103 C20.9660849,10.1818181 20.9660849,10.044226 21.1036911,10.044226 C21.3816834,9.76904175 21.6610657,9.63144964 21.9390579,9.35626536 L22.4936525,9.08108109 L22.6340386,8.94348894 C22.910641,8.66830467 22.910641,8.39312039 22.7716448,8.11793612 C22.4936525,7.84275184 22.2156602,7.84275184 21.9390579,7.98034398 L21.7986718,8.11793612 C21.6610657,8.25552826 21.5206795,8.39312039 21.3816834,8.53071254 C21.1036911,8.80589681 20.8256988,9.08108109 20.5490965,9.21867322 L20.1307182,9.21867322 L19.8541158,9.35626536 C18.6017606,7.98034398 16.7962007,7.15479115 14.8488648,7.01719902 L14.8488648,6.74201474 C14.7112587,6.6044226 14.7112587,6.6044226 14.7112587,6.46683047 L14.7112587,5.36609337 L14.7112587,4.81572482 L14.7112587,4.67813268 C14.7112587,4.26535627 14.4318765,3.99017199 14.1538842,3.99017199 L14.5708725,3.99017199 Z"/>
  </g>
</svg>
