<svg xmlns="http://www.w3.org/2000/svg" width="50" height="50" viewBox="0 0 50 50">
  <g fill="#8CC84B" transform="translate(11 10)">
    <path d="M12.7366775,0.330726336 C13.5017516,-0.109247884 14.4982601,-0.11123522 15.2626748,0.330726336 C19.1083756,2.51392589 22.9552852,4.69370281 26.8003266,6.87822725 C27.5235315,7.28750816 28.0072799,8.0961333 27.9999171,8.93335401 L27.9999171,22.0683234 C28.0053019,22.9402121 27.4737501,23.7681585 26.7107639,24.1681652 C22.8777008,26.3393303 19.0466158,28.5131453 15.2142121,30.6843104 C14.4333134,31.1328964 13.4168044,31.0983388 12.6603019,30.6129871 C11.5111523,29.9436963 10.3600245,29.2777178 9.21076495,28.6090894 C8.9759239,28.4684302 8.711192,28.3564769 8.54536366,28.1277124 C8.69196074,27.9291995 8.95405522,27.9044682 9.16702759,27.8177983 C9.64670994,27.6645526 10.0872704,27.4185645 10.5279408,27.1798633 C10.6393722,27.1032404 10.7754195,27.1326088 10.8822354,27.2011719 C11.8648974,27.7672316 12.8388778,28.349742 13.8248366,28.9103917 C14.0351716,29.0323921 14.2481439,28.8704242 14.4279287,28.7697325 C18.1893416,26.6338978 21.95537,24.5061228 25.7161236,22.3696257 C25.8554678,22.3022771 25.9325027,22.1536684 25.9211837,22.0003123 C25.9238211,17.6673667 25.9218431,13.3336482 25.9225024,9.00070263 C25.9384369,8.82670028 25.8382146,8.6667197 25.6816173,8.5955068 C21.8618512,6.43427836 18.0440632,4.26973769 14.2249565,2.10795721 C14.0895172,2.01440809 13.9107669,2.01414489 13.7750552,2.10729476 C9.95594846,4.26973769 6.13881984,6.4362657 2.31971315,8.59738373 C2.16366528,8.66870703 2.05893739,8.82603784 2.07750928,9.00070263 C2.07816864,13.3336482 2.07750928,17.6673667 2.07750928,22.0009748 C2.06394594,22.1542271 2.14682652,22.2997492 2.28520679,22.365651 C3.30435321,22.9462845 4.32481834,23.5228329 5.34462412,24.101479 C5.91914401,24.412166 6.6245463,24.5967675 7.25752919,24.3587287 C7.81611462,24.1574557 8.20766289,23.5847715 8.19700329,22.9889018 C8.20227814,18.6812395 8.19436586,14.3729148 8.20095943,10.065915 C8.18700304,9.87468906 8.36755701,9.71669581 8.55261659,9.73469225 C9.04229919,9.73138002 9.53264115,9.72806779 10.0223238,9.73601714 C10.2267245,9.73138002 10.3673873,9.93729016 10.342112,10.1299514 C10.3401339,14.4648843 10.3473868,18.7999277 10.3388152,23.1348606 C10.3401339,24.2901656 9.86770449,25.5472663 8.80405146,26.1125532 C7.49368896,26.7945408 5.87408793,26.6499069 4.57955,25.9959628 C3.45886258,25.4339882 2.38938523,24.7707698 1.28858841,24.1687173 C0.523624187,23.7709187 -0.00529016549,22.93966 9.45848263e-05,22.0684338 L9.45848263e-05,8.93335401 C-0.00792759422,8.07879931 0.495052043,7.25548996 1.24078502,6.85217106 C5.07318874,4.67923941 8.90493311,2.50465165 12.7366775,0.330726336 Z"/>
    <path d="M15.6723543,9.04082701 C17.3584272,8.93775425 19.1634454,8.97976246 20.6806894,9.76865336 C21.8553978,10.3731925 22.5066587,11.6419666 22.5273882,12.8814718 C22.4945757,13.0486623 22.3105599,13.1408908 22.1425069,13.1294149 C21.6533129,13.1287832 21.1640081,13.1357319 20.6748141,13.1262564 C20.4672975,13.1338368 20.3466895,12.9521171 20.3206391,12.7778726 C20.1800775,12.1848094 19.8395374,11.5974315 19.2517952,11.3113757 C18.3495632,10.8823445 17.3034442,10.9039277 16.3196245,10.9128768 C15.6014084,10.9490944 14.8290961,11.0081586 14.2206244,11.4092895 C13.7534902,11.7131383 13.6115984,12.3265213 13.7783212,12.8205125 C13.9355107,13.1752133 14.3666177,13.2896567 14.7193517,13.395151 C16.7512858,13.8998812 18.904493,13.8496608 20.8976285,14.5138958 C21.7228177,14.7846855 22.5300487,15.3111041 22.8125019,16.1316854 C23.1819747,17.2314791 23.0200186,18.5460517 22.1961597,19.4289609 C21.5280491,20.1555238 20.5549821,20.5509695 19.5844648,20.7657483 C18.2933608,21.0391701 16.9534815,21.0461188 15.6423131,20.9247267 C14.4094069,20.7912269 13.1263952,20.4835879 12.174612,19.6857479 C11.3607298,19.0145642 10.9632112,17.968781 11.0026749,16.959426 C11.0120974,16.7889717 11.1907923,16.6701064 11.3627252,16.6841091 C11.8553555,16.6803189 12.3479859,16.6790555 12.8406163,16.6847408 C13.0373803,16.6713698 13.1832627,16.832875 13.1933503,17.0090147 C13.2842497,17.5740724 13.5078401,18.1671355 14.0266318,18.5021483 C15.0278554,19.1156366 16.2841515,19.0736284 17.4305925,19.0907896 C18.3803803,19.0507818 19.4465638,19.0386742 20.2216474,18.4424525 C20.6305838,18.1023861 20.7517461,17.5334329 20.6412257,17.0439688 C20.5215046,16.6307303 20.0663424,16.4381663 19.675475,16.312247 C17.6695914,15.709603 15.4923291,15.9282773 13.5058447,15.2467758 C12.6993897,14.9760913 11.9195394,14.4643072 11.6097055,13.6774167 C11.1773791,12.5637255 11.3754732,11.1861933 12.2856866,10.3330794 C13.1731751,9.4844926 14.4543023,9.15769194 15.6723543,9.04072173 L15.6723543,9.04082701 Z"/>
  </g>
</svg>
