<svg xmlns="http://www.w3.org/2000/svg" width="50" height="50" viewBox="0 0 50 50">
  <g fill="none" fill-rule="evenodd" transform="translate(11 10)">
    <path fill="#000" fill-rule="nonzero" stroke="#000" stroke-width="2.736" d="M22.3508712,22.4068537 C22.5583384,20.6799512 22.4961641,20.4267073 23.7835152,20.706439 L24.110351,20.735122 C25.1002323,20.780122 26.3951263,20.5760488 27.1558636,20.2229268 C28.7934848,19.4637073 29.7645455,18.1960976 28.1497727,18.5291707 C24.4664066,19.2883902 24.2131692,18.0422195 24.2131692,18.0422195 C28.1026111,12.2761463 29.7285152,4.95665854 28.3250909,3.165 C24.4972374,-1.722 17.8713232,0.58895122 17.7604495,0.64895122 L17.7251515,0.655463415 C16.9973687,0.504585366 16.1828788,0.414439024 15.2679141,0.399658537 C13.6010732,0.372292683 12.3362778,0.836268293 11.3768611,1.56336585 C11.3768611,1.56336585 -0.443421717,-3.30234146 0.106479798,7.6824878 C0.223431818,10.0192683 3.45883586,25.364561 7.31766667,20.729561 C8.72804798,19.0347073 10.091048,17.6016585 10.091048,17.6016585 C10.7678611,18.0509268 11.5781768,18.2800976 12.4280379,18.1977805 L12.4937273,18.1418049 C12.473149,18.3522439 12.4822298,18.5580732 12.5200177,18.8017317 C11.5261086,19.9115122 11.8181591,20.1063659 9.83070707,20.5150976 C7.81996717,20.9291707 9.00127778,21.6663659 9.77234091,21.8590244 C10.7073712,22.0926585 12.8704343,22.4236098 14.3323712,20.3792195 L14.2741515,20.6124878 C14.6641136,20.9241951 14.63775,22.8529024 14.6930404,24.2309268 C14.748404,25.6090244 14.84075,26.895 15.1218889,27.6531951 C15.4030278,28.4112439 15.7347702,30.3641707 18.3467475,29.8048537 C20.5297298,29.337439 22.1987677,28.6647073 22.3508712,22.4067805"/>
    <path fill="#336791" fill-rule="nonzero" d="M28.1501389,18.5290244 C24.4664066,19.2882439 24.2131692,18.0420732 24.2131692,18.0420732 C28.1026111,12.2756341 29.7285152,4.956 28.3253838,3.16456098 C24.4975303,-1.72214634 17.8713232,0.58895122 17.7607424,0.64895122 L17.7251515,0.655317073 C16.9973687,0.504365854 16.1828788,0.414439024 15.2674747,0.399512195 C13.6006338,0.372219512 12.3362778,0.836121951 11.3768611,1.56307317 C11.3768611,1.56307317 -0.443641414,-3.30241463 0.106113636,7.68234146 C0.223065657,10.0192683 3.45839646,25.364561 7.31737374,20.729561 C8.72782828,19.0347073 10.0906086,17.6016585 10.0906086,17.6016585 C10.7674949,18.0509268 11.5778106,18.2800976 12.4273056,18.1977805 L12.4932879,18.1418049 C12.4727828,18.3522439 12.4821566,18.5580732 12.5197247,18.8017317 C11.525596,19.9115122 11.8177197,20.1063659 9.83041414,20.5150976 C7.81952778,20.9291707 9.00083838,21.6663659 9.77212121,21.8590244 C10.7071515,22.0926585 12.8703611,22.4236098 14.3320051,20.3792195 L14.2737121,20.6124878 C14.6632348,20.9241951 14.9367576,22.640122 14.8909141,24.1955854 C14.8450707,25.751122 14.8144596,26.8190488 15.1213763,27.6531951 C15.4282929,28.4873415 15.7341843,30.3641707 18.3466742,29.8048537 C20.5296566,29.337439 21.6608763,28.1261707 21.8182525,26.1057073 C21.9299318,24.6692927 22.1826566,24.8816341 22.1986212,23.5974146 L22.4013283,22.989439 C22.6350859,21.0422927 22.4384571,20.414122 23.7833687,20.7062927 L24.1102045,20.7349756 C25.1000859,20.7799756 26.3956389,20.5759024 27.1560101,20.2227805 C28.7933384,19.463561 29.764399,18.1959512 28.1499924,18.5290244 L28.1501389,18.5290244 Z"/>
    <path stroke="#FFF" stroke-linecap="round" stroke-linejoin="round" stroke-width=".912" d="M14.4901869 19.6451707C14.3887601 23.2682927 14.5156717 26.9166585 14.8704823 27.8033415 15.2255126 28.6900244 15.985298 30.4146585 18.5980076 29.8554146 20.7807702 29.3878537 21.5749747 28.4830244 21.9196061 26.4858293 22.1734293 25.0164146 22.6627677 20.9355366 22.7255278 20.0994146M11.3586263 1.48214634C11.3586263 1.48214634-.469931818-3.34829268.079969697 7.63646341.196921717 9.97339024 3.43247222 25.3191951 7.29137626 20.6839756 8.70153788 18.9889024 9.97687879 17.6594634 9.97687879 17.6594634M17.7477803.600512195C17.3383384.728780488 24.3275581-1.95234146 28.2996061 3.11882927 29.7026641 4.91034146 28.0767601 12.2299756 24.1873914 17.996561"/>
    <path stroke="#FFF" stroke-linecap="round" stroke-linejoin="bevel" stroke-width=".912" d="M24.1873182,17.996561 C24.1873182,17.996561 24.4407753,19.2430976 28.1245808,18.4833659 C29.7386212,18.1502927 28.7672677,19.4180488 27.1303056,20.1776341 C25.7868586,20.8006098 22.7748864,20.9602683 22.7256742,20.0994146 C22.5990556,17.8783171 24.3109343,18.5530976 24.1873914,17.996561 C24.0757121,17.4953415 23.3101414,17.0034146 22.8037399,15.7767073 C22.3616364,14.706 16.7403965,6.49507317 24.3626364,7.71453659 C24.6418712,7.65680488 22.3746717,0.470487805 15.2413308,0.353634146 C8.10960101,0.236780488 8.34357828,9.11670732 8.34357828,9.11670732"/>
    <path stroke="#FFF" stroke-linecap="round" stroke-linejoin="round" stroke-width=".912" d="M12.4937273,18.7561463 C11.499452,19.8658537 11.7918687,20.0607073 9.80441667,20.4695854 C7.7935303,20.8837317 8.97498737,21.6207805 9.74605051,21.8133659 C10.6810808,22.0471463 12.8442904,22.3780976 14.3059343,20.3331951 C14.7510404,19.7105854 14.303298,18.7171463 13.6918813,18.4639024 C13.3964621,18.3416341 13.001447,18.1884146 12.4937273,18.7561463 L12.4937273,18.7561463 Z"/>
    <path stroke="#FFF" stroke-linecap="round" stroke-linejoin="round" stroke-width=".912" d="M12.4286237,18.7367561 C12.3284419,18.0842927 12.6431944,17.307878 12.9805025,16.3995366 C13.4874167,15.0366585 14.6570101,13.673561 13.7213939,9.35034146 C13.0240025,6.12870732 8.34643434,8.67987805 8.34350505,9.11670732 C8.34064899,9.55339024 8.55507323,11.3308537 8.26536616,13.4007073 C7.88734091,16.1016585 9.98544697,18.3859756 12.4014545,18.1522683"/>
    <path fill="#FFF" fill-rule="nonzero" stroke="#FFF" stroke-width=".5" d="M11.3156389 9.05121951C11.294548 9.20041463 11.5890152 9.59853659 11.9729722 9.65173171 12.3562702 9.70514634 12.684351 9.39402439 12.705149 9.24497561 12.725947 9.09578049 12.431846 8.93143902 12.0477424 8.87802439 11.6642247 8.82453659 11.3359975 8.90239024 11.3157121 9.05121951L11.3156389 9.05121951zM22.9906288 8.74704878C23.0114268 8.8962439 22.7173258 9.29436585 22.3332955 9.34756098 21.9497045 9.40097561 21.6216237 9.08985366 21.6006061 8.94080488 21.5803207 8.79160976 21.8744949 8.62726829 22.2581591 8.57385366 22.6418232 8.52043902 22.9698308 8.59821951 22.9906288 8.74712195L22.9906288 8.74704878z"/>
    <path stroke="#FFF" stroke-linecap="round" stroke-linejoin="round" stroke-width=".912" d="M24.3626364,7.71453659 C24.4258359,8.88482927 24.110351,9.68195122 24.0705859,10.9277561 C24.0117071,12.7385854 24.934654,14.8112195 23.5439722,16.8864146"/>
  </g>
</svg>
