<?xml version="1.0" encoding="UTF-8"?>
<svg width="145px" height="39px" viewBox="0 0 145 39" version="1.1" xmlns="http://www.w3.org/2000/svg" xmlns:xlink="http://www.w3.org/1999/xlink">
    <!-- Generator: Sketch 46.2 (44496) - http://www.bohemiancoding.com/sketch -->
    <title>smartb-logo</title>
    <desc>Created with Sketch.</desc>
    <defs></defs>
    <g id="Symbols" stroke="none" stroke-width="1" fill="none" fill-rule="evenodd">
        <g id="home-v4---bg" transform="translate(-255.000000, -2911.000000)" fill-rule="nonzero">
            <g id="smartb-logo" transform="translate(255.000000, 2911.500000)">
                <path d="M33.2890152,16.05995 C36.7963606,12.2319885 41.0874341,11.6393346 45.8319041,12.9056061 C47.3085682,13.2978509 48.599739,14.198001 49.478507,15.4478648 C50.1812715,16.4194286 50.634668,16.3611348 51.4216347,15.5288285 C54.9840354,11.6976284 60.8522809,11.593995 64.9458031,13.3654797 C67.9900364,14.6835679 69.5834011,17.1966797 69.6319793,20.5161894 C69.7064658,25.6395693 69.6319793,30.7661878 69.6740804,35.8928062 C69.6740804,36.9518108 69.3761341,37.2627112 68.3041754,37.2594727 C65.0300053,37.2594727 65.0656293,37.2983352 65.0202897,34.0727433 C64.9587573,29.8140552 65.2793733,25.54889 64.8518853,21.2999176 C64.5021223,17.815242 62.2610484,16.0210875 58.7925655,16.2639784 C58.0930396,16.3125566 57.3967522,16.4032359 56.7037033,16.5068694 C53.3388539,17.0120826 51.3277168,19.2693492 51.2953314,22.6957309 C51.2532303,27.0645296 51.2467532,31.4398053 51.2953314,35.8053655 C51.2953314,36.9420951 50.9714768,37.2691883 49.8477013,37.2594727 C46.7354585,37.2303257 46.7322199,37.2821425 46.7322199,34.0986517 C46.7322199,30.429379 46.5735312,26.7536292 46.7678439,23.087595 C47.124084,16.3805661 42.2338794,15.4154793 37.8003099,16.7141363 C34.7560765,17.6047365 33.1886202,19.9041042 33.1529962,23.3369631 C33.1141337,27.4920177 33.1011795,31.6470723 33.1529962,35.7988884 C33.169189,36.9323795 32.8291416,37.2627112 31.7053661,37.2529956 C28.5866463,37.2206101 28.5866463,37.2724268 28.5866463,34.0986517 C28.5866463,27.5697428 28.6190317,21.0408339 28.5574993,14.5151635 C28.5574993,13.2974702 28.8813539,12.9477072 30.0925702,12.9768541 C32.9003896,13.0545793 32.9003896,12.9898083 33.2890152,16.05995 Z" id="Shape" fill="#4592C6"></path>
                <path d="M93.4450086,36.6182405 C93.4450086,36.0590516 93.4525652,35.4998626 93.4676784,34.9406737 C93.6328443,34.7334067 93.6296057,34.4646074 93.3608064,34.4678459 C93.1178572,34.4444792 92.8756632,34.5193312 92.688263,34.6757008 C92.5008628,34.8320705 92.3838505,35.0569458 92.3633342,35.3001523 C88.6649146,38.4026794 80.6721829,38.8949384 76.604569,36.3202943 C74.3796878,34.9147653 73.6542535,32.8032332 73.7546484,30.3613695 C73.8550434,27.9195058 75.0306356,26.1836451 77.2425626,25.1343561 C80.4390075,23.6187166 83.9107289,23.4826976 87.3273951,23.0584481 C88.661676,22.8932822 89.995957,22.702208 91.3205224,22.4593171 C92.3730499,22.2682428 93.3122282,21.853709 93.4806326,20.6101073 C93.6587526,19.3146888 93.4385315,18.1358581 92.2823706,17.3035517 C89.9214705,15.603315 83.0848997,15.7134256 80.7952476,17.5108187 C80.0665747,18.0840413 79.344379,18.7511818 79.2245528,19.6935987 C79.0917724,20.7396491 78.5185497,20.7947044 77.6797663,20.7979429 C74.5189453,20.7979429 74.3440638,20.5680062 75.5714728,17.5820667 C76.6337159,14.9912298 78.7290552,13.6537103 81.3004608,13.0481022 C85.0906264,12.09953 89.0612097,12.143028 92.8296849,13.1744055 C95.2229704,13.8512616 97.0818959,15.2729833 97.515861,17.9739307 C97.4213104,18.2777032 97.357302,18.5901509 97.3247868,18.906632 C97.2859243,24.0623974 97.2556978,29.2181627 97.2341075,34.3739281 C97.2341075,34.752838 97.2049606,35.1447021 97.6583571,35.3195836 C97.7931497,35.6294125 97.7931497,35.9813184 97.6583571,36.2911474 C97.1693366,36.407735 97.2341075,36.8060762 97.2211533,37.1623163 L93.9826073,37.1623163 C93.9852279,37.0183559 93.9296418,36.8794299 93.8284411,36.7770099 C93.7272404,36.6745899 93.58899,36.617344 93.4450086,36.6182405 Z M93.4450086,24.9789059 C91.3885318,25.8824603 89.2025132,26.0670574 87.0164946,26.3067098 C85.144615,26.5107382 83.2500655,26.5852248 81.4300026,27.1325391 C79.2342684,27.7802483 78.5153112,28.5607379 78.4894028,30.2383048 C78.4699715,31.6956505 79.6455638,33.2436755 81.3684703,33.7456502 C84.1892439,34.5714794 86.9420081,34.1504684 89.5328449,32.8647656 C92.7778681,31.2487311 94.0020385,28.7161881 93.4288159,24.9789059 L93.4450086,24.9789059 Z" id="Shape" fill="#4592C6"></path>
                <path d="M11.1082131,12.0700612 C13.6731416,12.0700612 15.8267747,12.2740896 17.8573431,13.0740105 C20.5523636,14.0555333 22.562409,16.3413955 23.1912285,19.1398073 C23.4244038,20.0498388 23.1912285,20.3380694 22.2909127,20.2668214 C21.8072869,20.2211333 21.3204312,20.2211333 20.8368055,20.2668214 C19.6093965,20.3996018 18.6702182,20.2668214 18.3366479,18.7608974 C18.0913669,17.9071504 17.4611998,17.2170815 16.6331727,16.8954949 C13.4140579,15.5709296 10.1560805,15.3701397 6.91753443,16.8469167 C5.66421709,17.4201394 5.09747153,18.4661898 5.25616029,19.8846729 C5.41484905,21.3031561 6.37022014,21.7695068 7.52314255,22.0642144 C10.6677708,22.8608968 13.9160325,23.0357783 17.0898077,23.6834875 C18.042444,23.8614917 18.9776446,24.1226543 19.8846729,24.4639771 C22.1516552,25.3481002 23.7320657,26.8766939 23.9134243,29.4416224 C24.1012599,32.1101844 23.301339,34.4710845 20.8724295,35.7891727 C15.5126357,38.7038642 9.93909792,38.7362497 4.35584448,36.436882 C2.53578158,35.6920164 1.37314354,34.1698997 0.55379138,32.4016535 C0.438734136,32.1581343 0.340273691,31.9071142 0.259083686,31.6503108 C-0.297946239,29.836725 -0.0356240069,29.5484944 1.83625563,29.4707693 C3.3454181,29.3962828 4.29755065,29.516109 4.8351493,31.3750344 C5.31121557,33.0234544 7.2737745,33.6808792 8.89952463,33.9658713 C11.3526882,34.4273872 13.8813052,34.2851177 16.267217,33.5513374 C16.6269319,33.437921 16.9733145,33.2859036 17.3003132,33.0979409 C18.4338043,32.4308005 19.3017346,31.5272461 19.1365688,30.1184785 C18.9616873,28.6352244 17.8897285,27.8514963 16.5295392,27.6053668 C14.0876755,27.1584474 11.6199033,26.8799325 9.16184686,26.5560779 C7.51018836,26.3293796 5.84233713,26.1998378 4.30402774,25.3869627 C1.94312765,24.1109756 0.378909891,22.345968 0.46311209,19.5122401 C0.547314288,16.6785123 2.03380694,14.6252741 4.57282707,13.4140579 C6.61450283,12.4559942 8.85416046,11.9954105 11.1082131,12.0700612 Z" id="Shape" fill="#4592C6"></path>
                <path d="M102.363965,36.6117634 C102.363965,36.1799573 102.363965,35.7546282 102.363965,35.3357763 C102.736397,35.1123166 102.739636,34.8888569 102.363965,34.6653972 C102.363965,27.6550245 102.363965,20.6457313 102.363965,13.6375175 C102.733159,13.4496819 103.160647,13.3492869 103.387345,12.9477072 C104.358909,12.7015777 105.330473,12.863505 106.302037,12.9477072 C106.421863,13.6180863 105.994375,14.3985759 106.700378,14.9556058 C106.833158,15.14668 107.024232,15.2956531 107.231499,15.1369644 C109.932447,13.0124782 113.102983,12.9671385 116.315621,13.0124782 C119.359854,13.0578178 119.39224,13.0124782 119.398717,10.0071074 C119.398717,9.10679158 119.495873,8.66311077 120.600217,8.68901913 C123.087421,8.74731296 123.191054,8.68901913 123.048558,11.1308829 C122.948163,12.7501559 123.51167,13.2780389 125.030549,13.0286709 C125.353878,13.0025813 125.678783,13.0025813 126.002112,13.0286709 C127.919332,13.0286709 128.492554,13.8188761 127.977625,15.6810401 C127.935092,16.0055373 127.657177,16.2473228 127.329916,16.2445471 C127.112934,16.2445471 126.89919,16.2445471 126.682207,16.2445471 C123.090659,16.3417035 123.090659,16.3449421 123.090659,19.8749573 C123.090659,21.332303 123.135999,22.7896488 123.090659,24.243756 C122.95464,27.8288265 124.386078,30.6107376 127.281338,32.6801685 C127.857799,33.0914639 128.366251,36.265239 127.896662,36.7056813 C127.427073,37.1461235 126.960722,36.7056813 126.601243,36.4886987 C122.128811,33.9626327 119.615699,30.1800109 119.450534,24.9886216 C119.36957,22.5111338 119.401955,20.027169 119.450534,17.5399656 C119.469965,16.5845945 119.197927,16.1959689 118.181024,16.2121617 C116.344768,16.23807 114.524705,16.2575013 112.724073,16.694705 C109.245875,17.5399656 107.056618,19.9494439 106.930314,23.5377529 C106.78458,27.5762199 106.816965,31.6341181 106.862305,35.666108 C106.862305,36.6992042 106.697139,37.2011788 105.566887,37.0619213 C104.559699,36.935618 103.526603,37.2303257 102.525892,36.9097097 C102.548562,36.8676086 102.603617,36.7963606 102.590663,36.7834064 C102.519688,36.7203678 102.443891,36.6629784 102.363965,36.6117634 L102.363965,36.6117634 Z" id="Shape" fill="#4693C6"></path>
                <path d="M119.673993,5.07804025 C121.251165,1.02661911 126.598005,-1.05576602 131.054244,0.544075742 C136.00922,2.31879899 138.217908,7.15394829 136.255349,12.0117674 C136.018935,12.5947057 135.708035,12.9444687 136.611589,13.3071858 C142.029677,15.4737732 143.933942,18.7576589 144.257797,24.5838033 C144.610798,30.957262 139.263959,36.2976245 133.845871,37.0813526 C133.690182,37.1231202 133.530694,37.1491591 133.369805,37.1590777 C132.702664,37.1169766 131.676045,37.6059971 131.449347,36.9129482 C131.148162,35.9964397 131.251796,34.8726642 131.449347,33.8946233 C131.559457,33.3570246 132.391764,33.5707687 132.903454,33.4930436 C136.177624,32.9230595 138.587102,31.1548133 139.888998,28.1138185 C141.190893,25.0728238 140.740736,22.103077 138.729598,19.4247994 C137.43418,17.70837 135.646503,17.008844 133.577072,16.759476 C132.832206,16.6687967 131.611274,17.1578171 131.429916,16.23807 C131.187025,15.0138996 130.921464,13.6472332 132.077625,12.4619253 C134.095239,10.3536318 134.111432,7.48104145 132.33347,5.25939883 C130.659142,3.17053661 127.436788,2.46777211 125.024071,4.06761388 C123.310881,5.18167373 121.633314,5.23349047 119.673993,5.07804025 Z" id="Shape" fill="#4693C6"></path>
                <path d="M97.65188,35.316345 C97.1984835,35.1414635 97.2276304,34.7495994 97.2276304,34.3706896 C97.2556978,29.2149242 97.2859243,24.0591588 97.3183097,18.9033935 C97.3508249,18.5869124 97.4148333,18.2744647 97.5093839,17.9706922 C97.6080469,18.1586156 97.6768792,18.3607421 97.7134123,18.5698232 C97.7717062,24.1530767 97.9109637,29.7363301 97.65188,35.316345 Z" id="Shape" fill="#4693C6"></path>
                <path d="M92.3633342,35.3001523 C92.3846336,35.0569092 92.5024513,34.8323247 92.690479,34.6765477 C92.8785066,34.5207708 93.1210842,34.4467754 93.364045,34.4710845 C93.6328443,34.4710845 93.6360828,34.7366453 93.470917,34.9439122 C92.9980892,34.7463609 92.7519597,35.245097 92.3633342,35.3001523 Z" id="Shape" fill="#4693C6"></path>
                <path d="M106.776022,14.9458902 C105.93515,14.3888602 106.442773,13.6116092 106.299399,12.9379916 L106.686898,13.0124782 L106.741148,13.4593975 L106.776022,14.9458902 Z" id="Shape" fill="#4592C6"></path>
                <path d="M97.2276304,37.1687934 C97.2276304,36.8125533 97.1758137,36.4142121 97.6648341,36.2976245 C97.8040916,36.7251126 97.9465877,37.1687934 97.2276304,37.1687934 Z" id="Shape" fill="#4693C6"></path>
                <path d="M103.390584,12.9541843 C103.163885,13.355764 102.742874,13.456159 102.367203,13.6439946 C102.2409,12.7112934 102.859462,12.8958905 103.390584,12.9541843 Z" id="Shape" fill="#4592C6"></path>
                <path d="M93.4450086,36.6182405 C93.5924251,36.6154259 93.7344534,36.6736472 93.837478,36.7791247 C93.9405025,36.8846022 93.9953664,37.027961 93.9890843,37.1752705 C93.5389264,37.2432799 93.3510908,37.0748755 93.4450086,36.6182405 Z" id="Shape" fill="#4693C6"></path>
                <path d="M102.367203,34.6524431 C102.947203,34.8759027 102.942203,35.0993624 102.367203,35.3228221 C102.367203,35.106919 102.367203,34.8834593 102.367203,34.6524431 Z" id="Shape" fill="#4592C6"></path>
                <path d="M106.692653,13.5157167 L106.622653,13.0157167 C107.107653,13.1497747 106.912653,13.3309341 106.692653,13.5157167 Z" id="Shape" fill="#4693C6"></path>
                <path d="M102.363965,36.6117634 C102.47755,36.6968809 102.584523,36.7904821 102.683965,36.8917634 C102.683965,36.8917634 102.618965,37.0167634 102.583965,37.0867634 L102.363965,36.6117634 Z" id="Shape" fill="#4592C6"></path>
            </g>
        </g>
    </g>
</svg>