<?xml version="1.0" encoding="utf-8"?>
<!-- Generator: Adobe Illustrator 22.1.0, SVG Export Plug-In . SVG Version: 6.00 Build 0)  -->
<svg version="1.1" id="Layer_1" xmlns="http://www.w3.org/2000/svg" xmlns:xlink="http://www.w3.org/1999/xlink" x="0px" y="0px"
	 viewBox="0 0 170 38.7" style="enable-background:new 0 0 170 38.7;" xml:space="preserve">
<style type="text/css">
	.st0{fill:#5D6770;}
	.st1{fill:#80C4D6;}
	.st2{fill:#4296B4;}
	.st3{fill:#EB6852;}
	.st4{fill:#D35A4A;}
	.st5{fill:#FEC95B;}
	.st6{fill:#E2AD50;}
	.st7{fill:#978577;}
	.st8{fill:#807265;}
</style>
<title>habitat_birthday_dark</title>
<path class="st0" d="M60.6,34.4c-4,0.2-7.4-2.8-7.6-6.8c0-0.2,0-0.4,0-0.6c-0.2-4,2.9-7.4,6.9-7.5l0,0h0.6c3.9-0.2,7.3,2.9,7.5,6.8
	c0,0.1,0,0.2,0,0.3c0.1,2.1-0.6,4.2-2,5.8C64.6,33.7,62.6,34.4,60.6,34.4L60.6,34.4z M68.2,18.2c-2.3-1.9-5.2-2.8-8.2-2.5
	c-2.2,0.2-4.3,1-6,2.5c-0.3,0.2-0.6,0.2-0.9-0.1c0-0.2-0.1-0.3-0.1-0.4V7.9c0-0.3-0.3-0.6-0.6-0.6l0,0h-2.6c-0.3,0-0.6,0.2-0.6,0.5
	v0.3c0,0.2,0,0.4,0,0.6v17.7c0,0.9,0.1,1.9,0.2,2.8c1.2,5.6,5.3,8.8,11.3,8.8H61c4.6,0.1,8.7-2.7,10.3-7
	C73.1,26.5,71.9,21.4,68.2,18.2"/>
<path class="st0" d="M42.3,26.7c0.2,4-2.9,7.4-6.9,7.6h-0.7c-3.9,0.2-7.3-2.8-7.5-6.8c0-0.2,0-0.4,0-0.6c0-4.5,3-7.6,7.5-7.6l0,0
	c4-0.1,7.4,3,7.5,7l0,0l0,0l0,0L42.3,26.7 M43.8,19.6c-3.3-4.1-9.7-5.3-14.7-2.8c-4.7,2.4-7,7.8-5.6,12.9c0.8,4,3.8,7.1,7.7,8
	c1.1,0.3,2.2,0.4,3.3,0.4c2.7,0,5.4-1.1,7.2-3.1c0.2-0.3,0.5-0.5,0.7-0.8v2.7c0,0.3,0.3,0.6,0.6,0.6l0,0h2.4c0.3,0,0.6-0.3,0.6-0.6
	l0,0l0,0v-3.5c0-2.8,0-5.6-0.1-8.4C45.9,23.1,45.1,21.2,43.8,19.6"/>
<path class="st0" d="M146.9,26.7c0.2,4-2.9,7.4-6.9,7.6h-0.6c-3.9,0.2-7.3-2.8-7.5-6.8c0-0.2,0-0.4,0-0.6c0-4.5,3-7.6,7.5-7.6l0,0
	c4-0.1,7.4,3,7.5,7l0,0l0,0l0,0V26.7 M148.5,19.6c-3.3-4.1-9.6-5.3-14.7-2.8c-4.6,2.5-7,7.8-5.6,12.9c0.8,4,3.8,7.1,7.8,8
	c1.1,0.3,2.2,0.4,3.3,0.4c2.7,0,5.4-1.1,7.2-3.1c0.2-0.3,0.5-0.5,0.7-0.8v2.7c0,0.3,0.3,0.6,0.6,0.6l0,0h2.4c0.3,0,0.6-0.3,0.6-0.6
	l0,0l0,0v-3.5c0-2.8,0-5.6-0.1-8.4C150.6,23.1,149.8,21.2,148.5,19.6"/>
<path class="st0" d="M12.9,15.7c-3.3-0.5-6,0.1-8,1.9c-0.3,0.2-0.6,0.2-0.9-0.1c-0.1-0.1-0.1-0.2-0.1-0.4V7.9c0-0.3-0.3-0.6-0.6-0.6
	l0,0H0.6C0.3,7.3,0,7.6,0,7.9l0,0l0,0v29c0,0.3,0.3,0.6,0.6,0.6l0,0h2.7c0.3,0,0.6-0.3,0.6-0.6l0,0l0,0V26.2c-0.1-1.9,0.6-3.8,2-5.2
	c1.5-1.3,3.5-1.9,5.4-1.6c3.4,0.2,5.6,2.3,5.8,5.6c0.1,2.4,0.1,5,0.1,7.4V37c0,0.3,0.3,0.6,0.6,0.6l0,0h2.6c0.3,0,0.6-0.3,0.6-0.6
	l0,0l0,0V25.4C21,20.2,18,16.6,12.9,15.7"/>
<path class="st0" d="M125.4,28.5h-3c-0.3,0-0.6,0.2-0.6,0.6v0.4c0,0.3-0.1,0.6-0.1,0.9c0,2.2-1.8,3.9-3.9,3.9h-0.2
	c-1.7,0.1-4.6-0.2-4.8-3.3c-0.2-2.6-0.2-5.3-0.2-7.9v-2.6c0-0.3,0.3-0.6,0.6-0.6h7.7c0.3,0,0.6-0.3,0.6-0.6c0-0.2-0.1-0.3-0.2-0.5
	l-2.9-2.5c-0.1-0.1-0.3-0.1-0.4-0.2h-4.8c-0.3,0-0.6-0.3-0.6-0.6l0,0l0,0v-4.1c0-0.3-0.3-0.6-0.6-0.6l0,0h-2.5
	c-0.3,0-0.6,0.3-0.6,0.6l0,0l0,0v1.2c0,0.1-0.1,11.6,0,18.7c0.1,1.8,1,3.6,2.4,4.7c1.7,1.4,3.8,2.1,5.9,2c0.5,0,1,0,1.5-0.1
	c2.2-0.2,4.2-1.4,5.6-3.2c1.3-1.7,1.8-3.8,1.3-5.9L125.4,28.5z"/>
<path class="st0" d="M169.9,29l-0.1-0.5h-3.1c-0.3,0-0.6,0.2-0.6,0.6v0.5c0,0.3,0,0.5-0.1,0.8c0,2.2-1.7,4-3.8,4l0,0H162
	c-1.7,0.1-4.7-0.2-4.9-3.3c-0.2-2.7-0.2-5.5-0.2-8.1v-2.4c0-0.3,0.3-0.6,0.6-0.6h7.5c0.3,0,0.6-0.2,0.7-0.5c0-0.2-0.1-0.5-0.3-0.6
	l-3.2-2.5c-0.1-0.1-0.2-0.1-0.4-0.1h-4.4c-0.3,0-0.6-0.3-0.6-0.6l0,0l0,0v-3.9c0-0.3-0.3-0.6-0.6-0.6l0,0h-2.6
	c-0.3,0-0.6,0.3-0.6,0.6l0,0l0,0V13c0,0.1-0.1,11.4,0.1,18.5c0.2,3.2,2.5,5.9,5.7,6.5c1,0.2,2,0.3,3,0.3h0.5c2.2,0,4.4-1,5.8-2.7
	C169.7,33.6,170.3,31.3,169.9,29"/>
<path class="st1" d="M101.7,27.2v-1.6c-0.2-1-1.1-1.7-2.1-1.6H80.2c-1-0.1-1.9,0.6-2.1,1.6v1.6"/>
<path class="st2" d="M83.3,24h-3.1c-1-0.1-1.9,0.6-2.1,1.6v1.6h3.1v-1.6C81.4,24.5,82.3,23.8,83.3,24z"/>
<path class="st3" d="M104.7,36.3v-7.6c-0.2-1-1.1-1.7-2.1-1.6H77.2c-1-0.1-1.9,0.6-2.1,1.6v7.6"/>
<path class="st4" d="M80.8,27.1h-3.7c-1-0.1-1.9,0.6-2.1,1.6v7.6h3.7v-7.6C78.9,27.7,79.8,27,80.8,27.1z"/>
<path class="st5" d="M104.7,28.7v2.2c-1.8,1.2-4.1,1.2-5.9,0c-1.8,1.2-4.1,1.2-5.9,0c-1.8,1.2-4.1,1.2-5.9,0c-1.8,1.2-4.1,1.2-5.9,0
	c-0.7,0.5-1.4,0.8-2.2,0.9c-1.3,0.2-2.6-0.1-3.7-0.9v-2.2c0.2-1,1.1-1.7,2.1-1.6h25.5C103.6,27,104.6,27.7,104.7,28.7z"/>
<path class="st6" d="M80.8,27.1c-1-0.1-1.9,0.6-2.1,1.6v3c-1.3,0.2-2.6-0.1-3.7-0.9v-2.1c0.2-1,1.1-1.7,2.1-1.6H80.8z"/>
<path class="st7" d="M105.6,36.3H74.2v1.4c0,0.6,0.4,1,1,1h29.5c0.6,0,1-0.4,1-1L105.6,36.3L105.6,36.3z"/>
<path class="st8" d="M77.6,36.3h-3.4v1.4c0,0.6,0.4,1,1,1h2.4V36.3z"/>
<circle class="st3" cx="78" cy="28.9" r="0.6"/>
<circle class="st3" cx="84" cy="28.9" r="0.6"/>
<circle class="st3" cx="89.9" cy="28.9" r="0.6"/>
<circle class="st3" cx="95.9" cy="28.9" r="0.6"/>
<circle class="st3" cx="101.8" cy="28.9" r="0.6"/>
<path class="st5" d="M88,3.3C88,2,88.7,0.7,89.9,0c1.1,0.7,1.9,2,1.9,3.3c0.4,1-0.2,2.2-1.2,2.5c-1,0.4-2.2-0.2-2.5-1.2
	C87.9,4.2,87.9,3.7,88,3.3z"/>
<path class="st6" d="M89.9,4.9c-0.2,0-0.3,0.2-0.3,0.4v1.9h0.7V5.3C90.2,5.1,90.1,4.9,89.9,4.9L89.9,4.9z"/>
<path class="st3" d="M92.6,21.7c-0.4,0-0.7-0.3-0.7-0.7V7h-4c0,1-0.8,1.8-1.9,1.8l0,0l0,0v2.3h1.8v9.8c0,0.4-0.3,0.7-0.7,0.7h-1v2.3
	h7.6v-2.2H92.6z"/>
</svg>
