<?xml version="1.0" encoding="UTF-8"?>
<svg width="20px" height="20px" viewBox="0 0 20 20" version="1.1" xmlns="http://www.w3.org/2000/svg" xmlns:xlink="http://www.w3.org/1999/xlink">
    <!-- Generator: Sketch 43.2 (39069) - http://www.bohemiancoding.com/sketch -->
    <title>icon-person</title>
    <desc>Created with Sketch.</desc>
    <defs></defs>
    <g id="(working-on-this)-Habitat-Web---Combined-Nav" stroke="none" stroke-width="1" fill="none" fill-rule="evenodd">
        <g id="Habitat-Web---Blogs" transform="translate(-557.000000, -312.000000)" fill="#87B09A">
            <g id="blog-thumbnail-red" transform="translate(530.000000, 145.000000)">
                <g id="person-icon" transform="translate(29.000000, 168.000000)">
                    <path d="M5.16567274,4.21305124 C5.16567274,4.20124959 5.16975877,4.18944793 5.16975877,4.18163802 C5.30228799,1.36642314 7.34814119,1.06409256 8.22414867,1.06409256 L8.2403151,1.06409256 L8.27247031,1.06409256 C9.3575755,1.08769587 11.2023254,1.51949752 11.3270379,4.18163802 C11.3270379,4.19343967 11.3270379,4.20524132 11.3309462,4.21305124 C11.3350323,4.24047273 11.6164348,6.91042314 10.3382207,8.31620826 C9.8319093,8.87366281 9.15664984,9.1485719 8.26838429,9.15638182 L8.24830949,9.15638182 L8.22823469,9.15638182 C7.34405517,9.1485719 6.66488733,8.87366281 6.16248434,8.31620826 C4.88835624,6.91840661 5.16158672,4.23665455 5.16567274,4.21305124 M8.18399906,10.2164479 C7.00651426,10.1968364 6.05393829,9.7924562 5.354518,9.01892727 C3.80715942,7.31497686 4.06440112,4.39372066 4.09264797,4.11481983 C4.19302197,2.00648926 5.22198878,1.00525785 6.0660187,0.537877686 C6.9059626,0.0706710744 7.78214773,3.47107438e-05 8.22823469,3.47107438e-05 L8.25239551,3.47107438e-05 L8.26838429,3.47107438e-05 L8.29663114,3.47107438e-05 C9.10850584,0.0156545455 9.83581767,0.204133884 10.4588471,0.553671074 C11.2948827,1.02087769 12.307683,2.02210909 12.4082347,4.11481983 C12.4363039,4.39372066 12.6935456,7.31497686 11.146187,9.01892727 C10.4428583,9.7924562 9.49028237,10.1968364 8.31261992,10.2164479 L8.27247031,10.2164479 L8.24830949,10.2164479 L8.18399906,10.2164479 Z M16.5076868,15.0616686 C16.5117728,15.2657678 16.5156812,16.3142058 16.3147555,16.8364289 C16.2746059,16.9384785 16.1982151,17.0249083 16.1058354,17.083743 C15.985209,17.1583711 13.0955035,18.9605529 8.26049649,18.9605529 C3.42548948,18.9605529 0.535606358,17.1623628 0.41515755,17.083743 C0.318691912,17.0249083 0.246209444,16.9384785 0.206059841,16.8364289 C-0.00694623656,16.310214 -0.00286021505,15.2619496 0.00104815334,15.0576769 L0.00104815334,15.0460488 C0.00513417485,15.0146355 0.00513417485,14.9832223 0.00513417485,14.9478174 C0.0292949977,14.1742884 0.0815250117,12.3563132 1.82572324,11.7714372 C1.83780365,11.7674455 1.84988406,11.7634537 1.86605049,11.7596355 C3.68663955,11.3080488 5.18585414,10.2872058 5.20184292,10.2754041 C5.44700421,10.1065364 5.78472277,10.1653711 5.95740159,10.4050488 C6.13025806,10.6445529 6.07003366,10.974305 5.82487237,11.1431727 C5.75647592,11.1863876 4.15688733,12.2778669 2.15544741,12.7804785 C1.21886022,13.1062388 1.11440019,14.0840405 1.086331,14.9792306 C1.086331,15.0146355 1.08224497,15.0460488 1.08224497,15.0772884 C1.07425058,15.4308174 1.10231978,15.9764702 1.1666302,16.2906025 C1.82181487,16.6519413 4.38996821,17.904305 8.25641047,17.904305 C12.1388415,17.904305 14.6910061,16.6557595 15.3421047,16.2945942 C15.4064151,15.980462 15.430576,15.4346355 15.4264899,15.0812802 C15.4225816,15.0498669 15.4225816,15.0184537 15.4225816,14.9832223 C15.3943347,14.0878587 15.2898747,13.1102306 14.3534652,12.7842967 C12.3518476,12.2818587 10.752259,11.1941975 10.6840402,11.1469909 C10.4388789,10.9782967 10.3784769,10.6483711 10.5513333,10.4088669 C10.7241898,10.1693628 11.0617307,10.1105281 11.306892,10.2793959 C11.3230584,10.291024 12.8300898,11.3120405 14.6428621,11.7634537 C14.6549425,11.7674455 14.6709313,11.7714372 14.6830117,11.7752554 C16.4273876,12.3563132 16.4796176,14.1742884 16.5036007,14.9518091 C16.5036007,14.9870405 16.5076868,15.0184537 16.5076868,15.0498669 L16.5076868,15.0616686 Z" id="Combined-Shape"></path>
                </g>
            </g>
        </g>
    </g>
</svg>