<?xml version="1.0" encoding="utf-8"?>
<!-- Generator: Adobe Illustrator 22.1.0, SVG Export Plug-In . SVG Version: 6.00 Build 0)  -->
<svg version="1.1" id="Layer_1" xmlns="http://www.w3.org/2000/svg" xmlns:xlink="http://www.w3.org/1999/xlink" x="0px" y="0px"
	 viewBox="0 0 176 176" style="enable-background:new 0 0 176 176;" xml:space="preserve">
<style type="text/css">
	.st0{fill:#FFFFFF;}
</style>
<path class="st0" d="M172.3,45.4c-2-7.6-8-13.6-15.6-15.7C143,26,88,26,88,26s-55,0-68.8,3.7c-7.6,2-13.5,8-15.6,15.7
	C0,59.2,0,88,0,88s0,28.8,3.7,42.6c2,7.6,8,13.6,15.6,15.7C33,150,88,150,88,150s55,0,68.8-3.7c7.6-2,13.5-8,15.6-15.7
	C176,116.8,176,88,176,88S176,59.2,172.3,45.4z M70,114.2V61.8L116,88L70,114.2z"/>
</svg>
