<?xml version="1.0" encoding="UTF-8"?>
<svg width="48px" height="48px" viewBox="0 0 48 48" version="1.1" xmlns="http://www.w3.org/2000/svg" xmlns:xlink="http://www.w3.org/1999/xlink">
    <!-- Generator: sketchtool 49.1 (51147) - http://www.bohemiancoding.com/sketch -->
    <title>4B7F42B0-8784-4E79-AAEF-2D0A8C17EC9A</title>
    <desc>Created with sketchtool.</desc>
    <defs>
        <path d="M43.2,0 L4.8,0 C2.16,0 0.024,2.16 0.024,4.8 L0,48 L9.6,38.4 L43.2,38.4 C45.84,38.4 48,36.24 48,33.6 L48,4.8 C48,2.16 45.84,0 43.2,0 L43.2,0 Z M9.6,24 L38.4,24 L38.4,28.8 L9.6,28.8 L9.6,24 Z M9.6,16.8 L38.4,16.8 L38.4,21.6 L9.6,21.6 L9.6,16.8 Z M9.6,9.6 L38.4,9.6 L38.4,14.4 L9.6,14.4 L9.6,9.6 Z" id="path-1"></path>
    </defs>
    <g id="Symbols" stroke="none" stroke-width="1" fill="none" fill-rule="evenodd">
        <g id="icon/message">
            <g id="color/default">
                <mask id="mask-2" fill="white">
                    <use xlink:href="#path-1"></use>
                </mask>
                <use id="Mask" fill="#000000" xlink:href="#path-1"></use>
                <g mask="url(#mask-2)" fill="#87b09a" id="Rectangle">
                    <g transform="translate(-23.000000, -21.000000)">
                        <rect x="0" y="0" width="96" height="96"></rect>
                    </g>
                </g>
            </g>
        </g>
    </g>
</svg>
