<?xml version="1.0" encoding="UTF-8"?>
<svg width="48px" height="48px" viewBox="0 0 48 48" version="1.1" xmlns="http://www.w3.org/2000/svg" xmlns:xlink="http://www.w3.org/1999/xlink">
    <!-- Generator: sketchtool 49.1 (51147) - http://www.bohemiancoding.com/sketch -->
    <title>64ADBE50-C7CC-4AB3-8208-E16618B62370</title>
    <desc>Created with sketchtool.</desc>
    <defs>
        <path d="M24,0 C10.776,0 0,10.776 0,24 C0,37.224 10.776,48 24,48 C37.224,48 48,37.224 48,24 C48,10.776 37.224,0 24,0 L24,0 Z M24,43.2 C13.416,43.2 4.8,34.584 4.8,24 C4.8,13.416 13.416,4.8 24,4.8 C34.584,4.8 43.2,13.416 43.2,24 C43.2,34.584 34.584,43.2 24,43.2 L24,43.2 Z M31.2,24 C31.2,27.984 27.984,31.2 24,31.2 C20.016,31.2 16.8,27.984 16.8,24 C16.8,20.016 20.016,16.8 24,16.8 C27.984,16.8 31.2,20.016 31.2,24 L31.2,24 Z" id="path-1"></path>
    </defs>
    <g id="Symbols" stroke="none" stroke-width="1" fill="none" fill-rule="evenodd">
        <g id="icon/bullet">
            <g id="color/default">
                <g>
                    <mask id="mask-2" fill="white">
                        <use xlink:href="#path-1"></use>
                    </mask>
                    <use id="Mask" fill="#87b09a" xlink:href="#path-1"></use>
                    <g mask="url(#mask-2)" fill="#87b09a" id="Rectangle">
                        <g transform="translate(-23.000000, -22.000000)">
                            <rect x="0" y="0" width="96" height="96"></rect>
                        </g>
                    </g>
                </g>
            </g>
        </g>
    </g>
</svg>
