
<svg width="17px" height="21px" viewBox="0 0 17 21" version="1.1" xmlns="http://www.w3.org/2000/svg" xmlns:xlink="http://www.w3.org/1999/xlink">
    <!-- Generator: Sketch 45.2 (43514) - http://www.bohemiancoding.com/sketch -->
    <desc>Created with Sketch.</desc>
    <defs></defs>
    <g id="Habitat-Web-UI/Tutorials/desktop" stroke="none" stroke-width="1" fill="none" fill-rule="evenodd">
        <g id="Habitat-Web---Tutorials---Build-a-Sample-App---1" transform="translate(-710.000000, -1852.000000)" fill-rule="nonzero" fill="#c3c6c8">
            <g id="secondary-button/linux" transform="translate(690.000000, 1840.000000)">
                <g id="10:20:10:20" transform="translate(20.000000, 10.000000)">
                    <g id="linux-icon" transform="translate(0.000000, 2.000000)">
                        <path d="M16.3933778,16.1149165 C15.8130606,15.8738719 15.5648166,15.5539926 15.5888235,15.0767071 C15.6135441,14.5195998 15.301909,14.1115415 15.15391,13.9503186 C15.2433193,13.6039197 15.5046048,12.4056061 15.1541695,11.3647644 C14.7775862,10.2506815 13.6278521,8.54915512 12.4415239,6.87658303 C11.9558715,6.18970781 11.9329028,5.44308142 11.9063655,4.57853202 C11.8809312,3.7539264 11.8522527,2.81922861 11.3988474,1.78016368 C10.9058633,0.648773979 9.91665079,0 8.68470947,0 C7.95185134,0 7.19959307,0.232292539 6.62070327,0.63725806 C5.43528335,1.46699648 5.59197679,3.27604866 5.69566048,4.473112 C5.70986995,4.63703289 5.72323593,4.79187264 5.73102194,4.92407539 C5.80005789,6.09646176 5.73725075,6.71437308 5.65510835,6.90218127 C5.60196884,7.02490806 5.34035892,7.37420234 5.06350141,7.74402786 C4.77717091,8.12648798 4.45255921,8.56001298 4.18647234,8.96399142 C3.86899781,9.45009482 3.61270833,10.1931019 3.3648537,10.9116295 C3.18350457,11.4374134 3.01221236,11.9340457 2.845462,12.2308274 C2.5294149,12.8017537 2.60805359,13.3341182 2.67371561,13.580164 C2.5540706,13.6644606 2.38122119,13.8304214 2.2352984,14.1432596 C2.05894529,14.52493 1.70111327,14.730045 0.957030315,14.8751456 C0.615094738,14.9460837 0.379308422,15.0919081 0.25602994,15.308539 C0.0766273086,15.6238119 0.174341726,16.0199596 0.263491533,16.2906824 C0.395204857,16.6886725 0.313127342,16.940575 0.163895497,17.3979215 C0.129507289,17.5034732 0.0905123586,17.6229755 0.0509983612,17.7547834 C-0.0112248301,17.9627938 0.0112248301,18.1519181 0.117568741,18.3168919 C0.398578795,18.7525885 1.21857534,18.9062437 2.06270852,19.0073206 C2.56672286,19.067993 3.11836162,19.27245 3.65189791,19.4702605 C4.17466356,19.6639912 4.71520726,19.8643682 5.20656933,19.9251722 C5.28125013,19.934714 5.35521722,19.9395178 5.42652409,19.9395178 C6.16840102,19.9395178 6.50358872,19.4402533 6.60986775,19.2351384 C6.87634391,19.1799936 7.79541743,19.0033723 8.74265035,18.9796824 C9.68839095,18.9523074 10.6034417,19.1416949 10.8626509,19.2005906 C10.9441445,19.3587864 11.1589735,19.7201231 11.5014281,19.9062861 C11.6896549,20.0106533 11.9515892,20.0704702 12.2198821,20.0704702 C12.219947,20.0704702 12.2198821,20.0704702 12.219947,20.0704702 C12.5064722,20.0704702 13.0515577,20.0017696 13.4829675,19.5414618 C13.9132743,19.0789825 14.9883924,18.4885778 15.7734817,18.0574876 C15.9486669,17.9612803 16.1125624,17.8712587 16.2562791,17.7899892 C16.6972917,17.542035 16.9379442,17.1877396 16.9164678,16.8179799 C16.89856,16.5108667 16.6981352,16.24146 16.3933778,16.1149165 Z M6.6303709,16.025882 C6.57547954,15.6336827 6.07801842,15.2447079 5.50191862,14.7943367 C5.03086505,14.4260248 4.49693946,14.008622 4.34984877,13.6551162 C4.04586999,12.9258624 4.28548442,11.6435813 4.70326871,10.9832914 C4.90972772,10.6526858 5.07835971,10.1513156 5.2414766,9.66646249 C5.41757018,9.1429159 5.59969792,8.6016019 5.80336694,8.36463719 C6.12590238,7.99468006 6.42397677,7.27483641 6.47679187,6.70752933 C6.77882415,6.99996787 7.24734726,7.37104369 7.6801845,7.37104369 C7.74681976,7.37104369 7.81150852,7.36222579 7.87334241,7.34452417 C8.1694703,7.25779285 8.60503264,7.00253428 9.02625574,6.75576458 C9.3894082,6.5429504 9.8372335,6.28051905 10.0057357,6.25663175 C10.2946615,6.67739053 11.9735198,10.4454651 12.1450716,11.6555578 C12.2808076,12.6130243 12.1374153,13.4045298 12.0653298,13.7145384 C12.0073241,13.7065101 11.9381584,13.6999954 11.8654889,13.6999954 C11.3978742,13.6999954 11.2740766,13.9588733 11.2418296,14.1134498 C11.1589086,14.5150593 11.1501493,15.7992488 11.149241,16.0878048 C10.9801548,16.305686 10.1250563,17.3317215 8.89739729,17.5161736 C8.39734084,17.5898755 7.93037493,17.6272528 7.50954112,17.6272528 C7.14982749,17.6272528 6.92026998,17.5990882 6.82495625,17.5844136 L6.20804478,16.8685183 C6.45129269,16.7467128 6.69447571,16.4896775 6.6303709,16.025882 Z M7.41318926,4.22134111 C7.39391889,4.22976418 7.37497293,4.2387795 7.35635139,4.24838707 C7.35446977,4.20600849 7.35012258,4.16303766 7.34343959,4.11993522 C7.27609061,3.72674884 7.01902254,3.44135146 6.73230274,3.44135146 C6.71108587,3.44135146 6.68973922,3.44299659 6.66631631,3.44661588 C6.49573782,3.47543858 6.36194823,3.60540395 6.28862998,3.78965866 C6.35292944,3.38535119 6.57878859,3.0860031 6.84675708,3.0860031 C7.16144162,3.0860031 7.42726896,3.51610622 7.42726896,4.02517565 C7.42726896,4.08933577 7.42266224,4.15316687 7.41318926,4.22134111 Z M9.85838549,4.5245059 C9.88719373,4.43145728 9.90276574,4.33077524 9.90276574,4.2262765 C9.90276574,3.76471847 9.61403457,3.40311861 9.24543191,3.40311861 C8.88519921,3.40311861 8.59212084,3.77235187 8.59212084,4.2262765 C8.59212084,4.25720497 8.59361316,4.28819924 8.59646803,4.31912771 C8.5773923,4.31169172 8.55877077,4.30445314 8.54060341,4.29747779 C8.49914291,4.17014462 8.47818557,4.03728382 8.47818557,3.90165919 C8.47818557,3.34975055 8.82596065,2.90069551 9.25354233,2.90069551 C9.68105913,2.90069551 10.0288991,3.34975055 10.0288991,3.90165919 C10.0288991,4.13125372 9.96641637,4.35038521 9.85838549,4.5245059 Z M9.543117,5.59871084 C9.53695307,5.62661226 9.52384662,5.63898365 9.37889708,5.71544935 C9.3057086,5.75407704 9.21461229,5.80218068 9.10061213,5.8725923 L9.02443901,5.91937983 C8.71831907,6.10758285 8.00155203,6.54841223 7.80696668,6.5742737 C7.67479917,6.59230434 7.59304607,6.54031819 7.40923137,6.41364308 C7.36777087,6.38501779 7.32365015,6.35461577 7.27660968,6.32401633 C6.9452501,6.10350293 6.73210809,5.86061574 6.70803635,5.76565876 C6.81606723,5.6809674 7.08384106,5.46900869 7.22093971,5.34351807 C7.49922466,5.08108673 7.77926146,4.90472865 7.91785243,4.90472865 C7.92518426,4.90472865 7.93180236,4.90525509 7.93868001,4.9065712 C8.10153737,4.93572292 8.50323057,5.0983277 8.79663335,5.21704038 C8.93223968,5.27192196 9.04935424,5.31930174 9.13175617,5.34930893 C9.3913547,5.43972535 9.52670149,5.55541098 9.543117,5.59871084 Z M11.875481,17.8628356 C12.0219228,17.1928724 12.1906197,16.2814696 12.1633038,15.7441698 C12.1570101,15.622101 12.1463692,15.4892402 12.1360528,15.3607884 C12.1167824,15.1205992 12.0881688,14.7636057 12.1176908,14.657725 C12.1235303,14.6549612 12.1300186,14.6525922 12.1372207,14.6505523 C12.1384534,14.9577312 12.2042452,15.5704439 12.6873671,15.7841135 C12.8313434,15.847813 12.9958877,15.8800576 13.1763934,15.8800576 C13.6603587,15.8800576 14.1973338,15.6392762 14.4172886,15.4161964 C14.5467959,15.2848491 14.6557351,15.1241527 14.732038,14.9968853 C14.7487131,15.0464367 14.7589647,15.111189 14.7535793,15.1946301 C14.724836,15.6476993 14.9419359,16.2487644 15.3551134,16.4702649 L15.4152604,16.5023121 C15.5624159,16.5806203 15.9532736,16.7887623 15.9595673,16.8874702 C15.9595024,16.887536 15.9562582,16.8991177 15.9344574,16.919649 C15.8365483,17.0103944 15.4919525,17.1888583 15.1587113,17.3614654 C14.5675586,17.6675915 13.8975076,18.0145826 13.5965783,18.3355806 C13.1728897,18.7877943 12.6936608,19.0915513 12.4042808,19.0915513 C12.3694384,19.0915513 12.3377104,19.0870766 12.3094861,19.0779954 C11.9951909,18.9786295 11.7365007,18.5187166 11.875481,17.8628356 Z M1.16251608,16.1536758 C1.13046367,16.0015341 1.10515914,15.8814395 1.13234529,15.7650958 C1.15206985,15.6788909 1.57167087,15.5865004 1.75087885,15.547083 C2.00282114,15.4916092 2.26339291,15.4342928 2.43377675,15.3293993 C2.66417775,15.1878522 2.78894855,14.9268027 2.89899081,14.6964843 C2.97866764,14.5299312 3.0609398,14.3577189 3.15884887,14.3011922 C3.16436396,14.2979019 3.17279881,14.2940852 3.18888989,14.2940852 C3.37231529,14.2940852 3.75720369,14.6851658 3.97897519,15.035184 C4.03522911,15.1234288 4.13943187,15.3002475 4.25998524,15.5049677 C4.62054236,16.1168249 5.11424023,16.9548548 5.37208691,17.2357116 C5.60443441,17.4882063 5.98056354,17.9736517 5.8880398,18.3900015 C5.82030151,18.7130395 5.45967952,18.9757341 5.37461736,19.0338401 C5.34373286,19.0409471 5.30551653,19.0445664 5.26055233,19.0445664 C4.7670491,19.0445664 3.79016446,18.6281507 3.26532255,18.4044129 L3.18765711,18.3713128 C2.89457874,18.2466777 2.41612846,18.168172 1.95344486,18.0922328 C1.58529638,18.0317577 1.08115228,17.9490405 0.997582447,17.8742858 C0.929844165,17.7972278 1.00841798,17.5467072 1.07771346,17.3256674 C1.1276088,17.1668135 1.17912623,17.0025636 1.20735051,16.8306145 C1.24738358,16.5563382 1.20027822,16.333061 1.16251608,16.1536758 Z" id="XMLID_92_"></path>
                    </g>
                </g>
            </g>
        </g>
    </g>
</svg>
