<?xml version="1.0" encoding="UTF-8" standalone="no"?>
<svg width="19px" height="22px" viewBox="0 0 19 22" version="1.1" xmlns="http://www.w3.org/2000/svg" xmlns:xlink="http://www.w3.org/1999/xlink">
    <!-- Generator: Sketch 45.2 (43514) - http://www.bohemiancoding.com/sketch -->
    <title>icon/mac</title>
    <desc>Created with Sketch.</desc>
    <defs></defs>
    <g id="Habitat-Web-UI/Tutorials/desktop" stroke="none" stroke-width="1" fill="none" fill-rule="evenodd">
        <g id="Habitat-Web---Tutorials---Download-&amp;-Install---1" transform="translate(-535.000000, -634.000000)" fill="#87B09A">
            <g id="habitat-for-mac-box" transform="translate(520.000000, 609.000000)">
                <g id="icon/os/mac" transform="translate(10.000000, 21.000000)">
                    <g id="mac-icon" transform="translate(5.000000, 4.000000)">
                        <path d="M13.8052753,0 C13.8627731,0 13.920271,0 13.9810234,0 C14.1220559,1.52637501 13.4570336,2.66687937 12.6488092,3.49279461 C11.8557728,4.31300734 10.7698229,5.10850913 9.01342647,4.98780575 C8.89626105,3.48329041 9.56236817,2.42737345 10.3695078,1.60335905 C11.1180646,0.835419447 12.4904189,0.152067249 13.8052753,0 Z" id="Shape" fill-rule="nonzero"></path>
                        <path d="M19,16.0416638 C19,16.0574032 19,16.0711752 19,16.0859308 C18.5343639,17.4414843 17.8701928,18.6032467 17.059679,19.6813937 C16.3197781,20.6601859 15.4130669,21.9773747 13.794086,21.9773747 C12.3951309,21.9773747 11.4659054,21.1126929 10.0321556,21.0890838 C8.51551223,21.0654748 7.68146073,21.8121112 6.29478617,22 C6.13616288,22 5.97753959,22 5.82198643,22 C4.80372724,21.8583456 3.98195626,21.0831816 3.38328127,20.3847469 C1.61795756,18.3209217 0.253797264,15.6550655 6.43041176e-13,12.2435565 C6.43041176e-13,11.9090949 6.43041176e-13,11.5756169 6.43041176e-13,11.2411553 C0.107454487,8.79958512 1.34164602,6.81445678 2.98211785,5.85238764 C3.847894,5.34085804 5.03808036,4.90507416 6.36335236,5.0998489 C6.93132608,5.18444802 7.51158031,5.37135307 8.02019821,5.5562907 C8.50220834,5.73434235 9.10497684,6.05011351 9.67602068,6.03339042 C10.0628568,6.0225696 10.4476462,5.82877858 10.8375525,5.69204278 C11.9796402,5.29560734 13.0992136,4.84113296 14.5749219,5.0545982 C16.3484326,5.31233042 17.6071852,6.06978772 18.384951,7.23843612 C16.8846817,8.15623827 15.6985888,9.53933562 15.9012173,11.9012252 C16.0813315,14.0466984 17.3789723,15.3019133 19,16.0416638 Z" id="Shape" fill-rule="nonzero"></path>
                    </g>
                </g>
            </g>
        </g>
    </g>
</svg>