
<svg width="15px" height="18px" viewBox="0 0 15 18" version="1.1" xmlns="http://www.w3.org/2000/svg" xmlns:xlink="http://www.w3.org/1999/xlink">
    <!-- Generator: Sketch 45.2 (43514) - http://www.bohemiancoding.com/sketch -->
    <desc>Created with Sketch.</desc>
    <defs></defs>
    <g id="Habitat-Web-UI/Tutorials/desktop" stroke="none" stroke-width="1" fill="none" fill-rule="evenodd">
        <g id="Habitat-Web---Tutorials---Build-a-Sample-App---1" transform="translate(-540.000000, -1852.000000)" fill-rule="nonzero" fill="#FF9012">
            <g id="secondary-button/macos" transform="translate(520.000000, 1840.000000)">
                <g id="10:20:10:20" transform="translate(20.000000, 10.000000)">
                    <g id="apple" transform="translate(0.000000, 2.000000)">
                        <path d="M8.15875722,1.55318924 C9.35052397,0.00753534128 11.0073646,0 11.0073646,0 C11.0073646,0 11.2538168,1.45317737 10.0698569,2.85305027 C8.80568311,4.34780396 7.36877522,4.10321323 7.36877522,4.10321323 C7.36877522,4.10321323 7.09896204,2.92764135 8.15875722,1.55318924 Z M7.52035331,5.12115867 C8.13345944,5.12115867 9.27135294,4.29186064 10.7524798,4.29186064 C13.3019834,4.29186064 14.3049554,6.0769742 14.3049554,6.0769742 C14.3049554,6.0769742 12.3433198,7.06386934 12.3433198,9.45852457 C12.3433198,12.1599004 14.7869839,13.0908816 14.7869839,13.0908816 C14.7869839,13.0908816 13.078773,17.8219324 10.7714606,17.8219324 C9.711725,17.8219324 8.88783385,17.1192105 7.7712453,17.1192105 C6.6333518,17.1192105 5.50415906,17.8481448 4.76870584,17.8481448 C2.66177927,17.8482035 0,13.3603067 0,9.75278404 C0,6.2034917 2.25302199,4.34158803 4.36626555,4.34158803 C5.74006308,4.34158803 6.80614546,5.12115867 7.52035331,5.12115867 Z" id="Shape"></path>
                    </g>
                </g>
            </g>
        </g>
    </g>
</svg>
