<svg xmlns="http://www.w3.org/2000/svg" width="255" height="255" viewBox="0 0 255 255">
  <defs>
    <linearGradient id="icon-ruby-a" x1="84.698%" x2="58.242%" y1="111.399%" y2="64.584%">
      <stop offset="0%" stop-color="#FB7655"/>
      <stop offset="0%" stop-color="#FB7655"/>
      <stop offset="41%" stop-color="#E42B1E"/>
      <stop offset="99%" stop-color="#900"/>
      <stop offset="100%" stop-color="#900"/>
    </linearGradient>
    <linearGradient id="icon-ruby-b" x1="116.651%" x2="1.746%" y1="53.17%" y2="41.06%">
      <stop offset="0%" stop-color="#871101"/>
      <stop offset="0%" stop-color="#871101"/>
      <stop offset="99%" stop-color="#911209"/>
      <stop offset="100%" stop-color="#911209"/>
    </linearGradient>
    <linearGradient id="icon-ruby-c" x1="50.351%" x2="49.85%" y1="219.327%" y2="7.829%">
      <stop offset="0%" stop-color="#871101"/>
      <stop offset="0%" stop-color="#871101"/>
      <stop offset="99%" stop-color="#911209"/>
      <stop offset="100%" stop-color="#911209"/>
    </linearGradient>
    <linearGradient id="icon-ruby-d" x1="50.012%" x2="66.483%" y1="30.704%" y2="63.146%">
      <stop offset="0%" stop-color="#FFF"/>
      <stop offset="0%" stop-color="#FFF"/>
      <stop offset="23%" stop-color="#E57252"/>
      <stop offset="46%" stop-color="#DE3B20"/>
      <stop offset="99%" stop-color="#A60003"/>
      <stop offset="100%" stop-color="#A60003"/>
    </linearGradient>
    <linearGradient id="icon-ruby-e" x1="46.174%" x2="49.932%" y1="17.29%" y2="82.122%">
      <stop offset="0%" stop-color="#FFF"/>
      <stop offset="0%" stop-color="#FFF"/>
      <stop offset="23%" stop-color="#E4714E"/>
      <stop offset="56%" stop-color="#BE1A0D"/>
      <stop offset="99%" stop-color="#A80D00"/>
      <stop offset="100%" stop-color="#A80D00"/>
    </linearGradient>
    <linearGradient id="icon-ruby-f" x1="43.537%" x2="49.766%" y1="15.594%" y2="92.478%">
      <stop offset="0%" stop-color="#FFF"/>
      <stop offset="0%" stop-color="#FFF"/>
      <stop offset="18%" stop-color="#E46342"/>
      <stop offset="40%" stop-color="#C82410"/>
      <stop offset="99%" stop-color="#A80D00"/>
      <stop offset="100%" stop-color="#A80D00"/>
    </linearGradient>
    <linearGradient id="icon-ruby-g" x1="45.709%" x2="54.217%" y1="58.346%" y2="-46.717%">
      <stop offset="0%" stop-color="#FFF"/>
      <stop offset="0%" stop-color="#FFF"/>
      <stop offset="54%" stop-color="#C81F11"/>
      <stop offset="99%" stop-color="#BF0905"/>
      <stop offset="100%" stop-color="#BF0905"/>
    </linearGradient>
    <linearGradient id="icon-ruby-h" x1="27.624%" x2="50.745%" y1="48.193%" y2="51.819%">
      <stop offset="0%" stop-color="#FFF"/>
      <stop offset="0%" stop-color="#FFF"/>
      <stop offset="31%" stop-color="#DE4024"/>
      <stop offset="99%" stop-color="#BF190B"/>
      <stop offset="100%" stop-color="#BF190B"/>
    </linearGradient>
    <linearGradient id="icon-ruby-i" x1="-20.466%" x2="104.087%" y1="122.282%" y2="-6.342%">
      <stop offset="0%" stop-color="#BD0012"/>
      <stop offset="0%" stop-color="#BD0012"/>
      <stop offset="7%" stop-color="#FFF"/>
      <stop offset="17%" stop-color="#FFF"/>
      <stop offset="27%" stop-color="#C82F1C"/>
      <stop offset="33%" stop-color="#820C01"/>
      <stop offset="46%" stop-color="#A31601"/>
      <stop offset="72%" stop-color="#B31301"/>
      <stop offset="99%" stop-color="#E82609"/>
      <stop offset="100%" stop-color="#E82609"/>
    </linearGradient>
    <linearGradient id="icon-ruby-j" x1="55.166%" x2="27.65%" y1="65.205%" y2="50.128%">
      <stop offset="0%" stop-color="#8C0C01"/>
      <stop offset="0%" stop-color="#8C0C01"/>
      <stop offset="54%" stop-color="#990C00"/>
      <stop offset="99%" stop-color="#A80D0E"/>
      <stop offset="100%" stop-color="#A80D0E"/>
    </linearGradient>
    <linearGradient id="icon-ruby-k" x1="79.319%" x2="23.088%" y1="60.108%" y2="24.551%">
      <stop offset="0%" stop-color="#7E110B"/>
      <stop offset="0%" stop-color="#7E110B"/>
      <stop offset="99%" stop-color="#9E0C00"/>
      <stop offset="100%" stop-color="#9E0C00"/>
    </linearGradient>
    <linearGradient id="icon-ruby-l" x1="92.88%" x2="59.841%" y1="72.906%" y2="40.223%">
      <stop offset="0%" stop-color="#79130D"/>
      <stop offset="0%" stop-color="#79130D"/>
      <stop offset="99%" stop-color="#9E120B"/>
      <stop offset="100%" stop-color="#9E120B"/>
    </linearGradient>
    <radialGradient id="icon-ruby-m" cx="32.001%" cy="40.21%" r="69.573%" fx="32.001%" fy="40.21%" gradientTransform="matrix(.52253 0 0 1 .153 0)">
      <stop offset="0%" stop-color="#A80D00"/>
      <stop offset="0%" stop-color="#A80D00"/>
      <stop offset="99%" stop-color="#7E0E08"/>
      <stop offset="100%" stop-color="#7E0E08"/>
    </radialGradient>
    <radialGradient id="icon-ruby-n" cx="13.549%" cy="40.86%" r="88.386%" fx="13.549%" fy="40.86%" gradientTransform="matrix(.77846 0 0 1 .03 0)">
      <stop offset="0%" stop-color="#A30C00"/>
      <stop offset="0%" stop-color="#A30C00"/>
      <stop offset="99%" stop-color="#800E08"/>
      <stop offset="100%" stop-color="#800E08"/>
    </radialGradient>
    <linearGradient id="icon-ruby-o" x1="56.57%" x2="3.105%" y1="62.653%" y2="40.701%">
      <stop offset="0%" stop-color="#8B2114"/>
      <stop offset="0%" stop-color="#8B2114"/>
      <stop offset="43%" stop-color="#9E100A"/>
      <stop offset="99%" stop-color="#B3100C"/>
      <stop offset="100%" stop-color="#B3100C"/>
    </linearGradient>
    <linearGradient id="icon-ruby-p" x1="46.662%" x2="57.41%" y1="35.599%" y2="100.694%">
      <stop offset="0%" stop-color="#B31000"/>
      <stop offset="0%" stop-color="#B31000"/>
      <stop offset="44%" stop-color="#910F08"/>
      <stop offset="99%" stop-color="#791C12"/>
      <stop offset="100%" stop-color="#791C12"/>
    </linearGradient>
  </defs>
  <g fill="none">
    <polygon fill="url(#icon-ruby-a)" points="197.467 167.764 51.947 254.174 240.369 241.387 254.88 51.393 197.466 167.763"/>
    <polygon fill="url(#icon-ruby-b)" points="240.677 241.257 224.482 129.48 180.369 187.73 240.677 241.258"/>
    <polygon fill="url(#icon-ruby-c)" points="240.896 241.257 122.25 231.944 52.576 253.93"/>
    <polygon fill="url(#icon-ruby-d)" points="52.744 253.955 82.384 156.855 17.16 170.8 52.743 253.954"/>
    <polygon fill="url(#icon-ruby-e)" points="180.358 188.05 153.085 81.226 75.038 154.386 180.358 188.052"/>
    <polygon fill="url(#icon-ruby-f)" points="248.693 82.73 174.916 22.474 154.372 88.892 248.693 82.73"/>
    <polygon fill="url(#icon-ruby-g)" points="214.191 .99 170.8 24.97 143.424 .669 214.191 .991"/>
    <polygon fill="url(#icon-ruby-h)" points="0 203.372 18.177 170.221 3.473 130.727"/>
    <path fill="#FFF" d="M2.496,129.48 L17.29,171.443 L81.573,157.021 L154.963,88.814 L175.675,23.027 L143.063,0 L87.618,20.75 C70.149,36.998 36.252,69.146 35.03,69.75 C33.82,70.368 12.646,110.389 2.496,129.48 Z"/>
    <path fill="url(#icon-ruby-i)" d="M54.442,54.094 C92.302,16.556 141.109,-5.622 159.839,13.276 C178.559,32.174 158.707,78.099 120.847,115.625 C82.987,153.15 34.785,176.55 16.067,157.652 C-2.663,138.767 16.582,91.62 54.442,54.094 Z"/>
    <path fill="url(#icon-ruby-j)" d="M52.744,253.916 L82.152,156.507 L179.817,187.883 C144.505,220.996 105.23,248.989 52.744,253.916 Z"/>
    <path fill="url(#icon-ruby-k)" d="M155.092,88.622 L180.165,187.935 C209.663,156.919 236.137,123.575 249.103,82.332 L155.093,88.622 L155.092,88.622 Z"/>
    <path fill="url(#icon-ruby-l)" d="M248.847,82.833 C258.882,52.551 261.197,9.108 213.881,1.042 L175.056,22.487 L248.847,82.833 L248.847,82.833 Z"/>
    <path fill="#9E1209" d="M0,202.935 C1.39,252.914 37.448,253.659 52.808,254.097 L17.328,171.237 L0,202.935 Z"/>
    <path fill="url(#icon-ruby-m)" d="M155.232,88.777 C177.899,102.709 223.582,130.689 224.508,131.203 C225.948,132.013 244.203,100.419 248.346,82.563 L155.232,88.777 L155.232,88.777 Z"/>
    <path fill="url(#icon-ruby-n)" d="M82.113,156.507 L121.426,232.355 C144.672,219.748 162.876,204.388 179.547,187.935 L82.113,156.507 Z"/>
    <path fill="url(#icon-ruby-o)" d="M17.174,171.34 L11.604,237.668 C22.114,252.025 36.574,253.273 51.74,252.154 C40.767,224.843 18.846,170.234 17.174,171.34 Z"/>
    <path fill="url(#icon-ruby-p)" d="M174.826,22.654 L252.926,33.614 C248.757,15.952 235.957,4.554 214.139,0.991 L174.826,22.654 L174.826,22.654 Z"/>
  </g>
</svg>
