<?xml version="1.0" encoding="UTF-8"?>
<svg width="30px" height="30px" viewBox="0 0 30 30" version="1.1" xmlns="http://www.w3.org/2000/svg" xmlns:xlink="http://www.w3.org/1999/xlink">
    <!-- Generator: Sketch 46.2 (44496) - http://www.bohemiancoding.com/sketch -->
    <title>icon/chevron/up/</title>
    <desc>Created with Sketch.</desc>
    <defs></defs>
    <g id="Symbols" stroke="none" stroke-width="1" fill="none" fill-rule="evenodd">
        <g id="icon/chevron/up/" fill-rule="nonzero" fill="#FF9012">
            <path d="M14.3585542,12.2715845 C14.758559,11.9094718 15.3679027,11.9094718 15.7679076,12.2715845 L20.9182119,16.9340034 C20.940439,16.9547824 20.940439,16.9547824 20.9612904,16.9769414 C21.1968388,17.2354355 21.1782375,17.6359361 20.9197434,17.8714845 C20.6476736,18.1194034 20.2317854,18.1200828 19.958907,17.8730541 L15.231012,13.5930305 C15.1357725,13.506813 14.9906903,13.5068132 14.8954511,13.5930309 L10.167592,17.8730455 C9.89471024,18.1200786 9.47881716,18.1194047 9.20673746,17.8714884 C9.18457258,17.8506323 9.18457258,17.8506323 9.16378844,17.8283999 C8.92908557,17.5691372 8.94899523,17.168699 9.2082579,16.9339961 L14.3585542,12.2715845 Z" id="chevron"></path>
        </g>
    </g>
</svg>