<?xml version="1.0" encoding="UTF-8" standalone="no"?>
<svg width="20px" height="24px" viewBox="0 0 20 24" version="1.1" xmlns="http://www.w3.org/2000/svg" xmlns:xlink="http://www.w3.org/1999/xlink">
    <!-- Generator: Sketch 45.2 (43514) - http://www.bohemiancoding.com/sketch -->
    <title>icon/linux</title>
    <desc>Created with Sketch.</desc>
    <defs></defs>
    <g id="Habitat-Web-UI/Tutorials/desktop" stroke="none" stroke-width="1" fill="none" fill-rule="evenodd">
        <g id="Habitat-Web---Tutorials---Download-&amp;-Install---1" transform="translate(-535.000000, -453.000000)" fill="#87B09A">
            <g id="habitat-for-linux-box" transform="translate(520.000000, 429.000000)">
                <g id="icon/os/linux" transform="translate(10.000000, 21.000000)">
                    <g id="linux-icon" transform="translate(5.000000, 3.000000)">
                        <path d="M19.3608429,19.0319757 C18.6754789,18.7472981 18.3822989,18.3695155 18.4106513,17.8058336 C18.4398467,17.147881 18.0718008,16.6659575 17.8970115,16.4755507 C18.0026054,16.0664481 18.3111877,14.6512204 17.897318,13.4219696 C17.452567,12.1062198 16.0947126,10.0966897 14.6936398,8.12135519 C14.1200766,7.31014451 14.0929502,6.42836673 14.0616092,5.40731998 C14.0315709,4.43344748 13.9977011,3.32955434 13.4622222,2.10240194 C12.88,0.766212508 11.7117241,0 10.2567816,0 C9.39126437,0 8.50283525,0.274341226 7.81915709,0.752612022 C6.41915709,1.73254645 6.60421456,3.86906618 6.72666667,5.28281724 C6.74344828,5.47641044 6.75923372,5.65927869 6.76842912,5.81541226 C6.84996169,7.20001943 6.77578544,7.92978264 6.67877395,8.15158713 C6.61601533,8.29652945 6.30704981,8.70905161 5.98007663,9.14582149 C5.64191571,9.59751305 5.25854406,10.1095131 4.94429119,10.5866181 C4.56934866,11.160714 4.26666667,12.0382174 3.97394636,12.88681 C3.75977011,13.5077693 3.55747126,14.0942999 3.3605364,14.4448039 C2.98727969,15.1190771 3.08015326,15.7478081 3.15770115,16.0383922 C3.01639847,16.1379478 2.81226054,16.3339502 2.63992337,16.7034171 C2.43164751,17.1541761 2.00904215,17.3964202 1.1302682,17.5677863 C0.726436782,17.6515653 0.447969349,17.8237863 0.302375479,18.0796308 C0.0904980843,18.4519733 0.205900383,18.91983 0.311187739,19.239558 C0.466743295,19.7095908 0.369808429,20.0070917 0.193563218,20.5472253 C0.152950192,20.6718834 0.106896552,20.8130176 0.0602298851,20.9686849 C-0.013256705,21.2143485 0.013256705,21.4377073 0.138850575,21.632544 C0.470727969,22.1471087 1.43915709,22.328578 2.43609195,22.4479514 C3.031341,22.5196066 3.68283525,22.7610735 4.31295019,22.994691 C4.93034483,23.22349 5.56873563,23.4601384 6.14904215,23.531949 C6.23724138,23.543218 6.3245977,23.5488913 6.40881226,23.5488913 C7.28498084,23.5488913 7.68084291,22.959252 7.80636015,22.7170079 C8.1210728,22.651881 9.20651341,22.4432884 10.3252107,22.4153103 C11.4421456,22.38298 12.5228352,22.6066497 12.8289655,22.6762064 C12.9252107,22.8630383 13.1789272,23.2897826 13.5833716,23.5096442 C13.8056705,23.6329035 14.1150192,23.7035483 14.4318774,23.7035483 C14.431954,23.7035483 14.4318774,23.7035483 14.431954,23.7035483 C14.7703448,23.7035483 15.4140996,23.6224117 15.9236015,23.0787808 C16.4318008,22.5325853 17.7015326,21.8353078 18.6287356,21.3261834 C18.8356322,21.212561 19.0291954,21.1062441 19.1989272,21.0102635 C19.7197701,20.7174256 20.0039847,20.298997 19.9786207,19.8623048 C19.9574713,19.4995993 19.7207663,19.1814256 19.3608429,19.0319757 Z M7.83057471,18.9268245 C7.76574713,18.4636308 7.17823755,18.0042453 6.49785441,17.4723497 C5.94153257,17.0373673 5.31095785,16.544408 5.13724138,16.126912 C4.77823755,15.2656515 5.06122605,13.7512568 5.55463602,12.9714438 C5.79846743,12.5809933 5.99762452,11.988867 6.1902682,11.4162477 C6.39823755,10.7979308 6.61333333,10.1586302 6.85386973,9.8787711 C7.23478927,9.44184578 7.58681992,8.59169885 7.6491954,7.92170006 C8.00590038,8.26707468 8.55923372,8.70532119 9.07042146,8.70532119 C9.14911877,8.70532119 9.22551724,8.6949071 9.29854406,8.67400121 C9.64827586,8.57157013 10.162682,8.27010565 10.6601533,7.97866667 C11.0890421,7.72732969 11.617931,7.41739405 11.8169349,7.38918276 C12.1581609,7.88610565 14.1409195,12.3362623 14.3435249,13.7654013 C14.5038314,14.8961846 14.3344828,15.8309654 14.2493487,16.1970905 C14.1808429,16.187609 14.0991571,16.179915 14.0133333,16.179915 C13.4610728,16.179915 13.3148659,16.4856539 13.2767816,16.6682113 C13.1788506,17.1425185 13.1685057,18.659167 13.167433,18.9999563 C12.9677395,19.2572775 11.9578544,20.4690419 10.5079693,20.6868828 C9.91739464,20.7739259 9.36590038,20.8180692 8.86888889,20.8180692 C8.4440613,20.8180692 8.17295019,20.7848063 8.06038314,20.7674754 L7.33180077,19.9219915 C7.61908046,19.7781372 7.90628352,19.4745744 7.83057471,18.9268245 Z M8.75509579,4.98547177 C8.73233716,4.99541955 8.70996169,5.00606679 8.68796935,5.01741348 C8.68574713,4.96736369 8.68061303,4.91661445 8.67272031,4.86570978 C8.59318008,4.40135033 8.28957854,4.06429144 7.95095785,4.06429144 C7.92590038,4.06429144 7.90068966,4.06623437 7.87302682,4.0705088 C7.67157088,4.10454888 7.51356322,4.25804007 7.42697318,4.47564784 C7.50291188,3.99815422 7.76965517,3.64461931 8.08613027,3.64461931 C8.45777778,3.64461931 8.77172414,4.15257802 8.77172414,4.75379721 C8.77172414,4.82957134 8.76628352,4.90495689 8.75509579,4.98547177 Z M11.6429119,5.34351427 C11.6769349,5.23362234 11.6953257,5.11471524 11.6953257,4.99130055 C11.6953257,4.44619308 11.3543295,4.01913783 10.9190038,4.01913783 C10.4935632,4.01913783 10.147433,4.45520826 10.147433,4.99130055 C10.147433,5.02782757 10.1491954,5.0644323 10.152567,5.10095932 C10.1300383,5.09217729 10.108046,5.08362842 10.08659,5.07539041 C10.0376245,4.92500789 10.0128736,4.76809715 10.0128736,4.60792228 C10.0128736,3.95610929 10.4236015,3.42576806 10.9285824,3.42576806 C11.4334866,3.42576806 11.8442912,3.95610929 11.8442912,4.60792228 C11.8442912,4.87907711 11.7704981,5.13787492 11.6429119,5.34351427 Z M11.2705747,6.61216758 C11.263295,6.64511961 11.2478161,6.65973042 11.0766284,6.75003764 C10.9901916,6.79565756 10.8826054,6.85246873 10.7479693,6.93562599 L10.6580077,6.99088282 C10.2964751,7.21315361 9.44996169,7.73378021 9.22015326,7.76432301 C9.0640613,7.78561749 8.96750958,7.72422101 8.75042146,7.57461566 C8.70145594,7.54080874 8.64934866,7.50490346 8.5937931,7.46876503 C8.20245211,7.20833515 7.95072797,6.92148148 7.92229885,6.80933576 C8.04988506,6.7093139 8.36613027,6.45898725 8.52804598,6.31078081 C8.85670498,6.00084517 9.18743295,5.79256345 9.35111111,5.79256345 C9.35977011,5.79256345 9.36758621,5.79318519 9.37570881,5.79473953 C9.56804598,5.82916818 10.0424521,6.02120704 10.3889655,6.16140862 C10.5491188,6.22622465 10.687433,6.28218094 10.784751,6.31761991 C11.091341,6.42440316 11.2511877,6.56102975 11.2705747,6.61216758 Z M14.0251341,21.0962963 C14.1980843,20.3050589 14.397318,19.2286776 14.3650575,18.5941178 C14.3576245,18.4499526 14.3450575,18.2930419 14.3328736,18.1413382 C14.3101149,17.8576709 14.2763218,17.4360559 14.3111877,17.3110091 C14.3180843,17.307745 14.3257471,17.3049472 14.3342529,17.3025379 C14.3357088,17.6653212 14.41341,18.3889447 14.9839847,18.641292 C15.154023,18.7165222 15.3483525,18.7546035 15.5615326,18.7546035 C16.1331034,18.7546035 16.7672797,18.4702368 17.0270498,18.206776 C17.18,18.0516527 17.308659,17.8618676 17.3987739,17.7115628 C17.4184674,17.7700838 17.4305747,17.8465574 17.4242146,17.9451026 C17.3902682,18.4801846 17.6466667,19.1900522 18.134636,19.4516478 L18.2056705,19.4894961 C18.3794636,19.5819794 18.8410728,19.8277984 18.8485057,19.944374 C18.8484291,19.9444517 18.8445977,19.9581299 18.8188506,19.9823777 C18.7032184,20.0895495 18.2962452,20.3003182 17.902682,20.50417 C17.2045211,20.8657098 16.4131801,21.2755118 16.0577778,21.6546157 C15.5573946,22.1886873 14.9914176,22.5474293 14.6496552,22.5474293 C14.6085057,22.5474293 14.5710345,22.5421445 14.5377011,22.5314196 C14.1665134,22.4140668 13.8609962,21.8709022 14.0251341,21.0962963 Z M1.37295019,19.0777511 C1.33509579,18.8980692 1.30521073,18.7562356 1.33731801,18.6188318 C1.36061303,18.5170225 1.85616858,18.4079077 2.06781609,18.3613552 C2.36536398,18.2958397 2.67310345,18.2281481 2.8743295,18.1042672 C3.14643678,17.9370978 3.2937931,17.6287942 3.42375479,17.3567845 C3.51785441,17.1600826 3.61501916,16.956697 3.73065134,16.8899381 C3.73716475,16.8860522 3.74712644,16.8815446 3.76613027,16.8815446 C3.98275862,16.8815446 4.43731801,17.3434171 4.69923372,17.7567942 C4.7656705,17.8610128 4.88873563,18.0698385 5.03111111,18.3116163 C5.45693487,19.0342295 6.04,20.0239563 6.34452107,20.3556527 C6.6189272,20.6538531 7.06314176,21.2271718 6.95386973,21.7188877 C6.87386973,22.1004007 6.44796935,22.4106472 6.34750958,22.4792714 C6.31103448,22.4876648 6.26590038,22.4919393 6.21279693,22.4919393 C5.62996169,22.4919393 4.47624521,22.0001457 3.85639847,21.7359077 L3.76467433,21.696816 C3.41854406,21.5496199 2.85348659,21.4569035 2.30704981,21.367218 C1.87226054,21.295796 1.27685824,21.1981056 1.17816092,21.1098191 C1.09816092,21.0188124 1.19095785,20.7229435 1.27279693,20.4618919 C1.33172414,20.2742829 1.39256705,20.0803012 1.42590038,19.8772265 C1.47318008,19.5533018 1.41754789,19.2896078 1.37295019,19.0777511 Z" id="XMLID_92_" fill-rule="nonzero"></path>
                    </g>
                </g>
            </g>
        </g>
    </g>
</svg>