<svg style="enable-background:new -269 390 16 14;" viewBox="-269 390 16 14" x="0px" xml:space="preserve" xmlns="http://www.w3.org/2000/svg"
  xmlns:xlink="http://www.w3.org/1999/xlink" y="0px">
  <g transform="translate(-260.000000, -10.000000)">
    <g transform="translate(15.000000, 10.000000)">
      <g transform="translate(245.000000, 0.000000)">
        <path class="bar" d="M-254,403c0-0.6-0.4-1-0.8-1h-13.4c-0.4,0-0.8,0.4-0.8,1s0.4,1,0.8,1h13.4
C-254.4,404-254,403.6-254,403 M-257,399c0-0.6-0.3-1-0.8-1h-10.4c-0.4,0-0.8,0.4-0.8,1s0.3,1,0.8,1h10.4
C-257.3,400-257,399.6-257,399 M-259,395c0-0.6-0.4-1-0.8-1h-8.4c-0.4,0-0.8,0.4-0.8,1s0.4,1,0.8,1h8.4
C-259.4,396-259,395.6-259,395 M-253.8,392h-14.4c-0.4,0-0.8-0.4-0.8-1s0.4-1,0.8-1h14.4c0.4,0,0.8,0.4,0.8,1
S-253.4,392-253.8,392" fill="#000000"></path>
      </g>
    </g>
  </g>
</svg>