<?xml version="1.0" encoding="UTF-8"?>
<svg width="48px" height="48px" viewBox="0 0 48 48" version="1.1" xmlns="http://www.w3.org/2000/svg" xmlns:xlink="http://www.w3.org/1999/xlink">
    <!-- Generator: sketchtool 49.1 (51147) - http://www.bohemiancoding.com/sketch -->
    <title>57C79B5B-FE30-4F79-9D7A-D96D9EF61723</title>
    <desc>Created with sketchtool.</desc>
    <defs>
        <path d="M32.7272727,13.2857143 C36.3490909,13.2857143 39.2509091,10.3185714 39.2509091,6.64285714 C39.2509091,2.96714286 36.3490909,0 32.7272727,0 C29.1054545,0 26.1818182,2.96714286 26.1818182,6.64285714 C26.1818182,10.3185714 29.1054545,13.2857143 32.7272727,13.2857143 L32.7272727,13.2857143 Z M15.2738182,13.2857143 C18.8956364,13.2857143 21.7963636,10.3185714 21.7963636,6.64285714 C21.7963636,2.96714286 18.8956364,0 15.2738182,0 C11.652,0 8.72836364,2.96714286 8.72836364,6.64285714 C8.72836364,10.3185714 11.652,13.2857143 15.2738182,13.2857143 L15.2738182,13.2857143 Z M15.2738182,17.7142857 C10.1901818,17.7142857 0,20.305 0,25.4642857 L0,31 L30.5454545,31 L30.5454545,25.4642857 C30.5454545,20.305 20.3563636,17.7142857 15.2738182,17.7142857 L15.2738182,17.7142857 Z M32.7272727,17.7142857 C32.0945455,17.7142857 31.3745455,17.7585714 30.6109091,17.825 C33.1418182,19.685 34.9090909,22.1871429 34.9090909,25.4642857 L34.9090909,31 L48,31 L48,25.4642857 C48,20.305 37.8109091,17.7142857 32.7272727,17.7142857 L32.7272727,17.7142857 Z" id="path-1"></path>
    </defs>
    <g id="Symbols" stroke="none" stroke-width="1" fill="none" fill-rule="evenodd">
        <g id="icon/group">
            <g id="color/default" transform="translate(0.000000, 9.000000)">
                <g>
                    <mask id="mask-2" fill="white">
                        <use xlink:href="#path-1"></use>
                    </mask>
                    <use id="Mask" fill="#87b09a" xlink:href="#path-1"></use>
                    <g mask="url(#mask-2)" fill="#87b09a" id="Rectangle">
                        <g transform="translate(-23.000000, -30.000000)">
                            <rect x="0" y="0" width="96" height="96"></rect>
                        </g>
                    </g>
                </g>
            </g>
        </g>
    </g>
</svg>
