<?xml version="1.0" encoding="UTF-8" standalone="no"?>
<svg width="41px" height="24px" viewBox="0 0 41 24" version="1.1" xmlns="http://www.w3.org/2000/svg" xmlns:xlink="http://www.w3.org/1999/xlink">
    <!-- Generator: Sketch 39.1 (31720) - http://www.bohemiancoding.com/sketch -->
    <title>subhero-deploy</title>
    <desc>Created with Sketch.</desc>
    <defs></defs>
    <g id="Habitat-Web-Home-V2" stroke="none" stroke-width="1" fill="none" fill-rule="evenodd">
        <g id="Habitat-Web-Home-Revised-Messaging" transform="translate(-630.000000, -801.000000)" fill="#87B09A">
            <g id="Modern-Packages" transform="translate(230.000000, 705.000000)">
                <g id="Group-14">
                    <g id="Group-13" transform="translate(0.000000, 52.000000)">
                        <g id="Group-11" transform="translate(399.000000, 0.000000)">
                            <g id="subhero-deploy" transform="translate(1.000000, 44.000000)">
                                <path d="M35.2911659,6.72200907 L31.6007521,6.72200907 L31.6007521,4.79665155 C31.6007521,4.76316707 31.6007521,4.7296826 31.5923072,4.70456924 C31.5838623,4.6459714 31.5754174,4.62922916 31.5754174,4.61248692 C31.5669726,4.54551796 31.5585277,4.52877572 31.5585277,4.5204046 C31.533193,4.45343565 31.533193,4.43669341 31.5247481,4.42832229 C31.4994135,4.36972445 31.4909686,4.35298221 31.4825237,4.34461109 C31.4487442,4.28601325 31.4402993,4.26927101 31.4318544,4.2608999 C31.38963,4.21067318 31.3811851,4.19393094 31.3727402,4.18555982 C31.3558505,4.16044646 31.3305158,4.1353331 31.3136261,4.11859086 L27.4880941,0.292989187 C27.2938618,0.100453436 27.0405153,0 26.770279,0 L16.307069,0 C16.0368328,0 15.7834863,0.108824555 15.589254,0.292989187 L11.7721669,4.07673526 C11.7383873,4.11021974 11.7214976,4.12696198 11.7046078,4.15207534 C11.6708283,4.20230206 11.6539385,4.21067318 11.6454936,4.22741542 C11.6117141,4.28601325 11.6032692,4.29438437 11.5948243,4.31112661 C11.5610448,4.36972445 11.5525999,4.37809557 11.5525999,4.39483781 C11.5272653,4.45343565 11.5272653,4.47017789 11.5188204,4.48692013 C11.5019306,4.54551796 11.5019306,4.5622602 11.5019306,4.57900244 C11.4934857,4.6459714 11.4850408,4.66271364 11.4850408,4.67108476 C11.4850408,4.70456924 11.476596,4.73805371 11.476596,4.76316707 L11.476596,20.643181 C11.476596,21.1956749 11.9326196,21.6477154 12.4899819,21.6477154 L15.1585649,21.6477154 C15.5048051,22.9954656 16.7462029,24 18.2071677,24 C19.6681324,24 20.9095302,22.9954656 21.2557704,21.6477154 L30.5789212,21.6477154 L31.9469923,21.6477154 C32.2932325,22.9954656 33.5346303,24 34.995595,24 C36.4650047,24 37.6979576,22.9954656 38.0441978,21.6477154 L39.9865209,21.6477154 C40.5438832,21.6477154 40.9999068,21.1956749 40.9999068,20.643181 L40.9999068,13.1761423 C41.0083517,11.2256714 40.4425446,9.56818975 39.3615995,8.41297524 C38.3397687,7.32472968 36.8956937,6.72200907 35.2911659,6.72200907 Z M26.1944444,1.5 L22.0185185,1.5 L22.0185185,3.75 L29.0037036,3.75 L26.1944444,1.5 Z M17.0833333,1.5 L21.2592593,1.5 L21.2592593,3.75 L14.2740742,3.75 L17.0833333,1.5 Z M29.6111111,5.25 L29.6111111,7.22797224 L29.6111111,20.2414001 C29.6111111,20.2414001 22.3981481,20.2403069 21.6388889,20.2413998 C21.4457825,19.1051231 19.5651895,17.25 18.2222222,17.25 C16.8704774,17.25 15.711839,18.0497888 15.2115179,19.1935727 C15.1676301,19.1849728 14.706808,20.2414001 14.6541426,20.2414001 L12.9074074,20.2414001 L12.9074074,5.25 L29.6111111,5.25 Z M34.9259259,22.125 C34.0924534,22.125 33.4074074,21.4483083 33.4074074,20.625 C33.4074074,19.8016917 34.0924534,19.125 34.9259259,19.125 C35.7593985,19.125 36.4444444,19.8016917 36.4444444,20.625 C36.4444444,21.4483083 35.7708159,22.125 34.9259259,22.125 L34.9259259,22.125 Z M18.2222222,22.125 C17.3887497,22.125 16.7037037,21.4483083 16.7037037,20.625 C16.7037037,19.8016917 17.3887497,19.125 18.2222222,19.125 C19.0556948,19.125 19.7407407,19.8016917 19.7407407,20.625 C19.7407407,21.4483083 19.0671122,22.125 18.2222222,22.125 L18.2222222,22.125 Z M38.2487711,20.25 C37.7040851,19.1129403 36.442707,17.56183 34.9806551,17.56183 C33.5186033,17.56183 32.2572252,19.1129403 31.7125392,20.25 L31.1296296,20.25 L31.1296296,8.25 L35.3055556,8.25 C37.9238707,8.25 39.4814815,9.97281776 39.4814815,12.8585375 L39.4814815,20.25 L39.4719256,19.5 L38.2487711,20.25 Z M9.65945188,8.25 L4.09832219,8.25 C3.53966989,8.25 3.08259074,8.5875 3.08259074,9 C3.08259074,9.4125 3.53966989,9.75 4.09832219,9.75 L9.65945188,9.75 C10.2181042,9.75 10.6751833,9.4125 10.6751833,9 C10.6751833,8.5875 10.2181042,8.25 9.65945188,8.25 Z M9.6188883,12 L1.01074133,12 C0.454833597,12 0,12.3375 0,12.75 C0,13.1625 0.454833597,13.5 1.01074133,13.5 L9.6188883,13.5 C10.174796,13.5 10.6296296,13.1625 10.6296296,12.75 C10.6296296,12.3375 10.174796,12 9.6188883,12 Z M9.65924343,15.75 L4.09811374,15.75 C3.53946144,15.75 3.08238229,16.0875 3.08238229,16.5 C3.08238229,16.9125 3.53946144,17.25 4.09811374,17.25 L9.65924343,17.25 C10.2178957,17.25 10.6749749,16.9125 10.6749749,16.5 C10.6749749,16.0875 10.2178957,15.75 9.65924343,15.75 Z" id="truck-1"></path>
                            </g>
                        </g>
                    </g>
                </g>
            </g>
        </g>
    </g>
</svg>