<?xml version="1.0" encoding="UTF-8" standalone="no"?>
<svg width="26px" height="26px" viewBox="0 0 26 26" version="1.1" xmlns="http://www.w3.org/2000/svg" xmlns:xlink="http://www.w3.org/1999/xlink">
    <!-- Generator: Sketch 39.1 (31720) - http://www.bohemiancoding.com/sketch -->
    <title>subhero-config</title>
    <desc>Created with Sketch.</desc>
    <defs></defs>
    <g id="Habitat-Web-Home-V2" stroke="none" stroke-width="1" fill="none" fill-rule="evenodd">
        <g id="Habitat-Web-Home-Revised-Messaging" transform="translate(-1029.000000, -799.000000)" stroke-width="1.5" stroke="#87B09A">
            <g id="Modern-Packages" transform="translate(230.000000, 705.000000)">
                <g id="Group-14">
                    <g id="Group-13" transform="translate(0.000000, 52.000000)">
                        <g id="Group-12" transform="translate(799.000000, 0.000000)">
                            <g id="subhero-config" transform="translate(0.000000, 42.000000)">
                                <path d="M23.8152542,10.5410045 L22.0762712,10.2460267 C21.8983051,9.6560712 21.659322,9.08137317 21.3644068,8.53210426 L22.3864407,7.0979021 C22.7932203,6.52828989 22.7271186,5.76033058 22.2338983,5.26700572 L20.7338983,3.76668786 C20.4644068,3.49713922 20.1084746,3.34965035 19.7271186,3.34965035 C19.4322034,3.34965035 19.1474576,3.44119517 18.9033898,3.61411316 L17.4644068,4.63636364 C16.9,4.33630006 16.3101695,4.09218055 15.6949153,3.90909091 L15.4050847,2.19008264 C15.2983051,1.49841068 14.7084746,1 14.0118644,1 L11.8864407,1 C11.1898305,1 10.6,1.49841068 10.4830508,2.18499682 L10.1830508,3.93960585 C9.59322034,4.12269549 9.01864407,4.36172918 8.47457627,4.66179275 L7.0559322,3.64971392 C6.81186441,3.47679593 6.52711864,3.38525111 6.23220339,3.38525111 C5.85084746,3.38525111 5.49491525,3.53273999 5.22542373,3.80228862 L3.72542373,5.30260648 C3.23220339,5.79593134 3.16610169,6.56389065 3.57288136,7.13350286 L4.60508475,8.58804832 C4.31525424,9.13731723 4.08135593,9.71201526 3.90847458,10.3070566 L2.18983051,10.5969485 C1.49830508,10.7037508 1,11.2937063 1,11.9904641 L1,14.1163382 C1,14.813096 1.49830508,15.4030515 2.18474576,15.5200254 L3.93898305,15.820089 C4.1220339,16.4100445 4.36101695,16.9847425 4.66101695,17.5289256 L3.64915254,18.9478703 C3.24237288,19.5174825 3.30847458,20.2854418 3.80169492,20.7787667 L5.30169492,22.2790846 C5.57118644,22.5486332 5.92711864,22.6961221 6.30847458,22.6961221 C6.60338983,22.6961221 6.88813559,22.6045772 7.13220339,22.4316592 L8.58644068,21.3992371 C9.11525424,21.6789574 9.67457627,21.9078195 10.2440678,22.0807374 L10.5338983,23.8150032 C10.6508475,24.5015893 11.240678,25 11.9372881,25 L14.0627119,25 C14.759322,25 15.3491525,24.5015893 15.4661017,23.8150032 L15.7610169,22.0756516 C16.3508475,21.8976478 16.9254237,21.6586141 17.4745763,21.3636364 L18.9084746,22.3858868 C19.1525424,22.5588048 19.4372881,22.6503497 19.7322034,22.6503497 C20.1135593,22.6503497 20.4694915,22.5028608 20.7389831,22.2333121 L22.2389831,20.7329943 C22.7322034,20.2396694 22.7983051,19.4717101 22.3915254,18.9020979 L21.3694915,17.4628099 C21.6644068,16.913541 21.8983051,16.3439288 22.0813559,15.7488875 L23.8152542,15.4589955 C24.5016949,15.3420216 25,14.7520661 25,14.0553083 L25,11.9294342 C25,11.2479339 24.5016949,10.6579784 23.8152542,10.5410045 Z M13,17.5 C15.4852814,17.5 17.5,15.4852814 17.5,13 C17.5,10.5147186 15.4852814,8.5 13,8.5 C10.5147186,8.5 8.5,10.5147186 8.5,13 C8.5,15.4852814 10.5147186,17.5 13,17.5 Z" id="Combined-Shape"></path>
                            </g>
                        </g>
                    </g>
                </g>
            </g>
        </g>
    </g>
</svg>