<?xml version="1.0" encoding="UTF-8" standalone="no"?>
<svg width="36px" height="36px" viewBox="0 0 36 36" version="1.1" xmlns="http://www.w3.org/2000/svg" xmlns:xlink="http://www.w3.org/1999/xlink">
    <!-- Generator: Sketch 39.1 (31720) - http://www.bohemiancoding.com/sketch -->
    <title>subhero-platform</title>
    <desc>Created with Sketch.</desc>
    <defs>
        <path d="M23.3869802,25.1557693 L23.3939,25.1627008 L25.5529108,22.9779423 C25.9486996,22.6413698 26.1985723,22.1389561 26.1985723,21.5776819 L26.1985723,12.8121388 C26.1985723,11.7931838 25.3784714,10.9772704 24.3668257,10.9772704 L15.6161956,10.9772704 C15.047472,10.9772704 14.5421086,11.2340605 14.2070326,11.6376033 L12.2358729,13.6320669 C11.779973,13.9657829 11.4855372,14.5056967 11.4855372,15.1149684 L11.4855372,23.8805116 C11.4855372,24.8994665 12.3056381,25.7153799 13.3172838,25.7153799 L22.0679139,25.7153799 C22.5877603,25.7153799 23.054669,25.5008313 23.3869802,25.1557693 Z" id="path-1"></path>
        <mask id="mask-2" maskContentUnits="userSpaceOnUse" maskUnits="objectBoundingBox" x="0" y="0" width="14.7130351" height="14.7381096" fill="white">
            <use xlink:href="#path-1"></use>
        </mask>
    </defs>
    <g id="Habitat-Web-Home" stroke="none" stroke-width="1" fill="none" fill-rule="evenodd">
        <g transform="translate(-1030.000000, -819.000000)" id="Modern-Packages">
            <g transform="translate(230.000000, 725.000000)">
                <g id="Group-14">
                    <g id="Group-13" transform="translate(0.000000, 94.000000)">
                        <g id="Group-12" transform="translate(799.000000, 0.000000)">
                            <g id="Group-24" transform="translate(1.000000, 0.000000)">
                                <path d="M14.9937298,25.1557693 L15.0006495,25.1627008 L17.1596603,22.9779423 C17.5554492,22.6413698 17.8053219,22.1389561 17.8053219,21.5776819 L17.8053219,12.8121388 C17.8053219,11.7931838 16.985221,10.9772704 15.9735752,10.9772704 L7.22294513,10.9772704 C6.65422154,10.9772704 6.14885819,11.2340605 5.81378212,11.6376033 L3.84262243,13.6320669 C3.38672254,13.9657829 3.09228672,14.5056967 3.09228672,15.1149684 L3.09228672,23.8805116 C3.09228672,24.8994665 3.91238764,25.7153799 4.92403339,25.7153799 L13.6746635,25.7153799 C14.1945098,25.7153799 14.6614185,25.5008313 14.9937298,25.1557693 Z" id="Combined-Shape" fill="#67727D" transform="translate(10.448804, 18.346325) rotate(-45.000000) translate(-10.448804, -18.346325) "></path>
                                <use id="Combined-Shape-Copy-2" stroke="#87B09A" mask="url(#mask-2)" transform="translate(18.842055, 18.346325) rotate(-45.000000) translate(-18.842055, -18.346325) " xlink:href="#path-1"></use>
                                <rect id="Rectangle-169" fill-opacity="0.14" fill="#C3C6C8" transform="translate(22.459971, 16.383039) rotate(45.000000) translate(-22.459971, -16.383039) " x="4.15488662" y="16.0762212" width="36.6101695" height="0.613636364" rx="0.244067797"></rect>
                            </g>
                        </g>
                    </g>
                </g>
            </g>
        </g>
    </g>
</svg>