<?xml version="1.0" encoding="UTF-8" standalone="no"?>
<svg width="23px" height="24px" viewBox="0 0 23 24" version="1.1" xmlns="http://www.w3.org/2000/svg" xmlns:xlink="http://www.w3.org/1999/xlink">
    <!-- Generator: Sketch 39.1 (31720) - http://www.bohemiancoding.com/sketch -->
    <title>subhero-build</title>
    <desc>Created with Sketch.</desc>
    <defs></defs>
    <g id="Habitat-Web-Home-V2" stroke="none" stroke-width="1" fill="none" fill-rule="evenodd">
        <g id="Habitat-Web-Home-Revised-Messaging" transform="translate(-230.000000, -801.000000)" fill="#87B09A">
            <g id="Modern-Packages" transform="translate(230.000000, 705.000000)">
                <g id="Group-14">
                    <g id="Group-13" transform="translate(0.000000, 52.000000)">
                        <g id="Group-9">
                            <g id="subhero-build" transform="translate(0.000000, 44.000000)">
                                <path d="M22.8712963,6.21061644 L18.1646135,0.23630137 C18.0465615,0.0873287671 17.8720498,0 17.68214,0 L5.32260644,0 C5.13269666,0 4.95818498,0.0873287671 4.84013295,0.23630137 L0.133450113,6.21061644 C0.04619427,6.31849315 0,6.45205479 0,6.59075342 L0,23.3835616 C0,23.7226027 0.27716562,24 0.6159236,24 L22.3836902,24 C22.7224481,24 22.9996138,23.7226027 22.9996138,23.3835616 L22.9996138,6.59075342 C23.0047465,6.45205479 22.9585522,6.31849315 22.8712963,6.21061644 L22.8712963,6.21061644 Z M21.1980372,6.07705479 L12.1182968,6.07705479 L12.1182968,1.23287671 L17.3844436,1.23287671 L21.1980372,6.07705479 L21.1980372,6.07705479 Z M5.62030285,1.23287671 L10.8864496,1.23287671 L10.8864496,6.07705479 L1.80670923,6.07705479 L5.62030285,1.23287671 L5.62030285,1.23287671 Z M1.48387097,7.5 L21.516129,7.5 L21.516129,22.5 L1.48387097,22.5 L1.48387097,7.5 Z M14.4228776,12.2722603 L10.2961895,16.4023973 L8.58186882,14.6866438 C8.34063208,14.4452055 7.95054713,14.4452055 7.70931039,14.6866438 C7.46807365,14.9280822 7.46807365,15.3184932 7.70931039,15.5599315 L9.85991029,17.7123288 C9.97796232,17.8304795 10.1370759,17.8921233 10.2961895,17.8921233 C10.4553031,17.8921233 10.609284,17.8304795 10.7324687,17.7123288 L15.2903034,13.1506849 C15.5315401,12.9092466 15.5315401,12.5188356 15.2903034,12.2773973 C15.0541993,12.0308219 14.6641144,12.0308219 14.4228776,12.2722603 Z" id="package"></path>
                            </g>
                        </g>
                    </g>
                </g>
            </g>
        </g>
    </g>
</svg>