<?xml version="1.0" encoding="UTF-8" standalone="no"?>
<svg width="36px" height="36px" viewBox="0 0 36 36" version="1.1" xmlns="http://www.w3.org/2000/svg" xmlns:xlink="http://www.w3.org/1999/xlink">
    <!-- Generator: Sketch 39.1 (31720) - http://www.bohemiancoding.com/sketch -->
    <title>subhero-manage</title>
    <desc>Created with Sketch.</desc>
    <defs>
        <path d="M16.1718534,19.2343534 L16.1875,19.25 L19.2389234,16.1674396 C19.7086006,15.7115849 20,15.0733346 20,14.3668636 L20,2.50813638 C20,1.12028458 18.8770691,0 17.4918636,0 L5.63313638,0 C4.91683486,0 4.27180853,0.299129058 3.81529408,0.779059009 L0.978907806,3.64409565 C0.383155718,4.10264216 1.48029737e-15,4.82303817 1.48029737e-15,5.63313638 L1.48029737e-15,17.4918636 C1.48029737e-15,18.8797154 1.12293091,20 2.50813638,20 L14.3668636,20 C15.0764688,20 15.7161252,19.7064376 16.1718534,19.2343534 Z" id="path-1"></path>
        <mask id="mask-2" maskContentUnits="userSpaceOnUse" maskUnits="objectBoundingBox" x="0" y="0" width="20" height="20" fill="white">
            <use xlink:href="#path-1"></use>
        </mask>
    </defs>
    <g id="Habitat-Web-Home" stroke="none" stroke-width="1" fill="none" fill-rule="evenodd">
        <g transform="translate(-230.000000, -819.000000)" id="Modern-Packages">
            <g transform="translate(230.000000, 725.000000)">
                <g id="Group-14">
                    <g id="Group-13" transform="translate(0.000000, 94.000000)">
                        <g id="Group-9">
                            <g id="icon-abstract-1">
                                <rect id="Rectangle-169" fill-opacity="0.14" fill="#C3C6C8" transform="translate(18.004109, 17.353553) rotate(-45.000000) translate(-18.004109, -17.353553) " x="-5.99589119" y="16.8535534" width="48" height="1" rx="0.4"></rect>
                                <g id="Group-7-Copy-9" transform="translate(14.000000, 18.000000) rotate(135.000000) translate(-14.000000, -18.000000) translate(4.000000, 8.000000)">
                                    <path d="M14.6241933,16.9210683 L14.640625,16.9375 L16.9375,14.6171875 L16.9329463,14.6126153 C17.2827564,14.2688728 17.5,13.7904949 17.5,13.2614815 L17.5,4.3947685 C17.5,3.3500646 16.6516832,2.5 15.6052315,2.5 L6.7385185,2.5 C6.22194445,2.5 5.7529597,2.70741339 5.41080366,3.04363467 L5.40625,3.0390625 L3.19570434,5.27193691 C2.77129054,5.61941647 2.5,6.14735098 2.5,6.7385185 L2.5,15.6052315 C2.5,16.6499354 3.34831675,17.5 4.3947685,17.5 L13.2614815,17.5 C13.795898,17.5 14.279381,17.2780111 14.6241933,16.9210683 Z" id="Combined-Shape" fill="#67727D"></path>
                                    <use id="Combined-Shape-Copy-2" stroke="#87B09A" mask="url(#mask-2)" xlink:href="#path-1"></use>
                                </g>
                            </g>
                        </g>
                    </g>
                </g>
            </g>
        </g>
    </g>
</svg>