<?xml version="1.0" encoding="UTF-8" standalone="no"?>
<svg width="64px" height="64px" viewBox="0 0 64 64" version="1.1" xmlns="http://www.w3.org/2000/svg" xmlns:xlink="http://www.w3.org/1999/xlink">
    <!-- Generator: Sketch 39.1 (31720) - http://www.bohemiancoding.com/sketch -->
    <title>usecase-production</title>
    <desc>Created with Sketch.</desc>
    <defs>
        <circle id="path-1" cx="24" cy="24" r="24"></circle>
        <filter x="-50%" y="-50%" width="200%" height="200%" filterUnits="objectBoundingBox" id="filter-2">
            <feOffset dx="0" dy="1" in="SourceAlpha" result="shadowOffsetOuter1"></feOffset>
            <feGaussianBlur stdDeviation="7.5" in="shadowOffsetOuter1" result="shadowBlurOuter1"></feGaussianBlur>
            <feColorMatrix values="0 0 0 0 0.360784314   0 0 0 0 0.4   0 0 0 0 0.439215686  0 0 0 0.135558197 0" type="matrix" in="shadowBlurOuter1"></feColorMatrix>
        </filter>
    </defs>
    <g id="Habitat-Web-Home-V2" stroke="none" stroke-width="1" fill="none" fill-rule="evenodd">
        <g id="Habitat-Web-Home-Revised-Messaging" transform="translate(-752.000000, -2027.000000)">
            <g id="Boxes" transform="translate(230.000000, 1265.000000)">
                <g id="Production" transform="translate(500.000000, 506.000000)">
                    <g id="Icon" transform="translate(30.000000, 264.000000)">
                        <g id="Oval-3">
                            <use fill="black" fill-opacity="1" filter="url(#filter-2)" xlink:href="#path-1"></use>
                            <use fill="#FFFFFF" fill-rule="evenodd" xlink:href="#path-1"></use>
                        </g>
                        <g id="Group-31" transform="translate(12.000000, 12.000000)" stroke="#5C6670" stroke-linecap="round" stroke-linejoin="round">
                            <path d="M2.5,0.4999 L2.5,23.4999" id="Stroke-221"></path>
                            <path d="M0.5,21.4999 L23.5,21.4999" id="Stroke-222"></path>
                            <path d="M9.5,14.4999 C9.5,15.6049 8.605,16.4999 7.5,16.4999 C6.395,16.4999 5.5,15.6049 5.5,14.4999 C5.5,13.3949 6.395,12.4999 7.5,12.4999 C8.605,12.4999 9.5,13.3949 9.5,14.4999 L9.5,14.4999 Z" id="Stroke-223"></path>
                            <path d="M15.5,8.4999 C15.5,9.6049 14.605,10.4999 13.5,10.4999 C12.395,10.4999 11.5,9.6049 11.5,8.4999 C11.5,7.3949 12.395,6.4999 13.5,6.4999 C14.605,6.4999 15.5,7.3949 15.5,8.4999 L15.5,8.4999 Z" id="Stroke-224"></path>
                            <path d="M22.5,4.4999 C22.5,5.6049 21.605,6.4999 20.5,6.4999 C19.395,6.4999 18.5,5.6049 18.5,4.4999 C18.5,3.3949 19.395,2.4999 20.5,2.4999 C21.605,2.4999 22.5,3.3949 22.5,4.4999 L22.5,4.4999 Z" id="Stroke-225"></path>
                            <path d="M7.5,19.4999 L7.5,18.4999" id="Stroke-226"></path>
                            <path d="M13.5,19.4999 L13.5,12.4999" id="Stroke-227"></path>
                            <path d="M20.5,19.4999 L20.5,8.4999" id="Stroke-228"></path>
                            <path d="M9,12.9999 L12,9.9999" id="Stroke-229"></path>
                            <path d="M15.5,7.4999 L18.5,5.4999" id="Stroke-230"></path>
                        </g>
                    </g>
                </g>
            </g>
        </g>
    </g>
</svg>