<?xml version="1.0" encoding="UTF-8" standalone="no"?>
<svg width="64px" height="64px" viewBox="0 0 64 64" version="1.1" xmlns="http://www.w3.org/2000/svg" xmlns:xlink="http://www.w3.org/1999/xlink">
    <!-- Generator: Sketch 39.1 (31720) - http://www.bohemiancoding.com/sketch -->
    <title>usecase-container</title>
    <desc>Created with Sketch.</desc>
    <defs>
        <circle id="path-1" cx="24" cy="24" r="24"></circle>
        <filter x="-50%" y="-50%" width="200%" height="200%" filterUnits="objectBoundingBox" id="filter-2">
            <feOffset dx="0" dy="1" in="SourceAlpha" result="shadowOffsetOuter1"></feOffset>
            <feGaussianBlur stdDeviation="7.5" in="shadowOffsetOuter1" result="shadowBlurOuter1"></feGaussianBlur>
            <feColorMatrix values="0 0 0 0 0.360784314   0 0 0 0 0.4   0 0 0 0 0.439215686  0 0 0 0.135558197 0" type="matrix" in="shadowBlurOuter1"></feColorMatrix>
        </filter>
    </defs>
    <g id="Habitat-Web-Home-V2" stroke="none" stroke-width="1" fill="none" fill-rule="evenodd">
        <g id="Habitat-Web-Home-Revised-Messaging" transform="translate(-752.000000, -1647.000000)">
            <g id="Boxes" transform="translate(230.000000, 1265.000000)">
                <g id="Containers" transform="translate(500.000000, 126.000000)">
                    <g id="Icon" transform="translate(30.000000, 264.000000)">
                        <g id="Oval-3">
                            <use fill="black" fill-opacity="1" filter="url(#filter-2)" xlink:href="#path-1"></use>
                            <use fill="#FFFFFF" fill-rule="evenodd" xlink:href="#path-1"></use>
                        </g>
                        <g id="Group-80" transform="translate(13.000000, 12.000000)" stroke-linecap="round" stroke="#5C6670" stroke-linejoin="round">
                            <polyline id="Stroke-637" points="11.5 23.4999 0.5 20.4999 0.5 3.4999 11.5 0.4999 22.5 3.4999 22.5 20.4999 11.5 23.4999"></polyline>
                            <path d="M11.5,23.4999 L11.5,0.4999" id="Stroke-638"></path>
                            <polyline id="Stroke-642" points="15.5 1.9999 15.5 11.4999 16.5 12.4999 17.5 11.4999 18.5 12.4999 19.5 11.4999 19.5 2.9999"></polyline>
                            <polyline id="Stroke-643" points="7.5 1.9999 7.5 11.4999 6.5 12.4999 5.5 11.4999 4.5 12.4999 3.5 11.4999 3.5 2.9999"></polyline>
                        </g>
                    </g>
                </g>
            </g>
        </g>
    </g>
</svg>