<?xml version="1.0" encoding="UTF-8" standalone="no"?>
<svg width="64px" height="64px" viewBox="0 0 64 64" version="1.1" xmlns="http://www.w3.org/2000/svg" xmlns:xlink="http://www.w3.org/1999/xlink">
    <!-- Generator: Sketch 39.1 (31720) - http://www.bohemiancoding.com/sketch -->
    <title>usecase-portable</title>
    <desc>Created with Sketch.</desc>
    <defs>
        <circle id="path-1" cx="24" cy="24" r="24"></circle>
        <filter x="-50%" y="-50%" width="200%" height="200%" filterUnits="objectBoundingBox" id="filter-2">
            <feOffset dx="0" dy="1" in="SourceAlpha" result="shadowOffsetOuter1"></feOffset>
            <feGaussianBlur stdDeviation="7.5" in="shadowOffsetOuter1" result="shadowBlurOuter1"></feGaussianBlur>
            <feColorMatrix values="0 0 0 0 0.360784314   0 0 0 0 0.4   0 0 0 0 0.439215686  0 0 0 0.135558197 0" type="matrix" in="shadowBlurOuter1"></feColorMatrix>
        </filter>
    </defs>
    <g id="Habitat-Web-Home-V2" stroke="none" stroke-width="1" fill="none" fill-rule="evenodd">
        <g id="Habitat-Web-Home-Revised-Messaging" transform="translate(-252.000000, -1647.000000)">
            <g id="Boxes" transform="translate(230.000000, 1265.000000)">
                <g id="Portability" transform="translate(0.000000, 126.000000)">
                    <g id="Icon" transform="translate(30.000000, 264.000000)">
                        <g id="Oval-3">
                            <use fill="black" fill-opacity="1" filter="url(#filter-2)" xlink:href="#path-1"></use>
                            <use fill="#FFFFFF" fill-rule="evenodd" xlink:href="#path-1"></use>
                        </g>
                        <g id="usecase-portable" transform="translate(12.000000, 14.000000)" stroke="#5C6670" stroke-linecap="round" stroke-linejoin="round">
                            <path d="M22.5,19.4999 L1.5,19.4999 C0.948,19.4999 0.5,19.0519 0.5,18.4999 L0.5,4.4999 C0.5,3.9479 0.948,3.4999 1.5,3.4999 L22.5,3.4999 C23.052,3.4999 23.5,3.9479 23.5,4.4999 L23.5,18.4999 C23.5,19.0519 23.052,19.4999 22.5,19.4999 L22.5,19.4999 Z" id="Stroke-65"></path>
                            <path d="M14.5,0.4999 L9.5,0.4999 C8.948,0.4999 8.5,0.9479 8.5,1.4999 L8.5,3.4999 L15.5,3.4999 L15.5,1.4999 C15.5,0.9479 15.052,0.4999 14.5,0.4999 L14.5,0.4999 Z" id="Stroke-66"></path>
                            <path d="M0.5,9.4999 L23.5,9.4999" id="Stroke-67"></path>
                            <polyline id="Stroke-68" points="4.5 9.4999 4.5 12.4999 7.5 12.4999 7.5 9.4999"></polyline>
                            <polyline id="Stroke-69" points="19.5 9.4999 19.5 12.4999 16.5 12.4999 16.5 9.4999"></polyline>
                        </g>
                    </g>
                </g>
            </g>
        </g>
    </g>
</svg>