<?xml version="1.0" encoding="UTF-8" standalone="no"?>
<svg width="64px" height="64px" viewBox="0 0 64 64" version="1.1" xmlns="http://www.w3.org/2000/svg" xmlns:xlink="http://www.w3.org/1999/xlink">
    <!-- Generator: Sketch 39.1 (31720) - http://www.bohemiancoding.com/sketch -->
    <title>usecase-legacy</title>
    <desc>Created with Sketch.</desc>
    <defs>
        <circle id="path-1" cx="24" cy="24" r="24"></circle>
        <filter x="-50%" y="-50%" width="200%" height="200%" filterUnits="objectBoundingBox" id="filter-2">
            <feOffset dx="0" dy="1" in="SourceAlpha" result="shadowOffsetOuter1"></feOffset>
            <feGaussianBlur stdDeviation="7.5" in="shadowOffsetOuter1" result="shadowBlurOuter1"></feGaussianBlur>
            <feColorMatrix values="0 0 0 0 0.360784314   0 0 0 0 0.4   0 0 0 0 0.439215686  0 0 0 0.135558197 0" type="matrix" in="shadowBlurOuter1"></feColorMatrix>
        </filter>
    </defs>
    <g id="Habitat-Web-Home-V2" stroke="none" stroke-width="1" fill="none" fill-rule="evenodd">
        <g id="Habitat-Web-Home-Revised-Messaging" transform="translate(-252.000000, -2027.000000)">
            <g id="Boxes" transform="translate(230.000000, 1265.000000)">
                <g id="Legacy" transform="translate(0.000000, 506.000000)">
                    <g id="Icon" transform="translate(30.000000, 264.000000)">
                        <g id="Oval-3">
                            <use fill="black" fill-opacity="1" filter="url(#filter-2)" xlink:href="#path-1"></use>
                            <use fill="#FFFFFF" fill-rule="evenodd" xlink:href="#path-1"></use>
                        </g>
                        <g id="Group-62" transform="translate(12.000000, 17.000000)" stroke="#5C6670" stroke-linecap="round" stroke-linejoin="round">
                            <path d="M18.5,4.4999 C17.954,4.4999 17.439,4.6089 16.948,4.7709 C15.884,2.2609 13.398,0.4999 10.5,0.4999 C6.932,0.4999 3.993,3.1719 3.561,6.6229 C1.807,7.0469 0.5,8.6159 0.5,10.4999 C0.5,12.7089 2.291,14.4999 4.5,14.4999 L18.5,14.4999 C21.261,14.4999 23.5,12.2609 23.5,9.4999 C23.5,6.7389 21.261,4.4999 18.5,4.4999 L18.5,4.4999 Z" id="Stroke-427"></path>
                        </g>
                    </g>
                </g>
            </g>
        </g>
    </g>
</svg>