
<svg width="64px" height="38px" viewBox="0 0 64 38" version="1.1" xmlns="http://www.w3.org/2000/svg" xmlns:xlink="http://www.w3.org/1999/xlink">
    <!-- Generator: Sketch 49.3 (51167) - http://www.bohemiancoding.com/sketch -->
    <desc>Created with Sketch.</desc>
    <defs></defs>
    <g id="Page-1" stroke="none" stroke-width="1" fill="none" fill-rule="evenodd">
        <g id="hab-cube">
            <g id="Group-7" transform="translate(0.865627, 0.189199)" fill-rule="nonzero">
                <g id="Group-6">
                    <path d="M2.2377009,22.0929692 C-0.7459003,21.1347199 -0.7459003,19.6441099 2.2377009,18.6858607 L26.2130677,10.9133944 C29.7294548,9.95514514 33.3523991,9.95514514 36.8687863,10.9133944 L60.8441531,18.6858607 C63.8277543,19.6441099 63.8277543,21.1347199 60.8441531,22.0929692 L36.8687863,29.8654354 C33.4589563,30.8236847 29.7294548,30.8236847 26.2130677,29.8654354 L2.2377009,22.0929692 Z" id="Fill-202-Copy" fill="#87B09A"></path>
                    <path d="M63.081854,10.1947075 L63.081854,16.5486517 C63.081854,17.2059562 62.3359537,17.8632608 60.8430875,18.3014639 L36.8677207,26.2986695 C33.3523991,27.2846264 29.7283893,27.2846264 26.2120021,26.2986695 L2.23663533,18.3014639 C0.7459003,17.8632608 0,17.2059562 0,16.5486517 L0,10.1947075 C0.105491614,10.7424613 0.852457486,11.2902151 2.13114372,11.7284181 L26.1065105,19.7256238 C29.6228976,20.7115806 33.245842,20.7115806 36.7622291,19.7256238 L60.7375959,11.7284181 C62.0162821,11.2902151 62.7611169,10.7424613 62.8687396,10.1947075 L63.081854,10.1947075 Z" id="Fill-199" fill="#799987"></path>
                    <path d="M63.081854,20.3894149 L63.081854,26.7433591 C63.081854,27.4006637 62.3359537,28.0579683 60.8430875,28.4961713 L36.8677207,36.493377 C33.3523991,37.4793338 29.7283893,37.4793338 26.2120021,36.493377 L2.23663533,28.4961713 C0.7459003,28.0579683 0,27.4006637 0,26.7433591 L0,20.3894149 C0.105491614,20.9371687 0.852457486,21.4849225 2.13114372,21.9231256 L26.1065105,29.9203312 C29.6228976,30.9062881 33.245842,30.9062881 36.7622291,29.9203312 L60.7375959,21.9231256 C62.0162821,21.4849225 62.7611169,20.9371687 62.8687396,20.3894149 L63.081854,20.3894149 Z" id="Fill-200" fill="#799987"></path>
                    <path d="M2.2377009,11.8982617 C-0.7459003,10.9400124 -0.7459003,9.44940247 2.2377009,8.49115321 L26.2130677,0.718686948 C29.7294548,-0.239562316 33.3523991,-0.239562316 36.8687863,0.718686948 L60.8441531,8.49115321 C63.8277543,9.44940247 63.8277543,10.9400124 60.8441531,11.8982617 L36.8687863,19.670728 C33.4589563,20.6289772 29.7294548,20.6289772 26.2130677,19.670728 L2.2377009,11.8982617 Z" id="Fill-202" fill="#87B09A"></path>
                </g>
            </g>
            <g id="light" transform="translate(2.865627, 24.189199)">
                <g id="path-1-link" fill="#000000" fill-rule="nonzero">
                    <ellipse id="path-1" cx="2.0142998" cy="1.7765847" rx="1.1469428" ry="1.14562599"></ellipse>
                </g>
                <g id="path-1-link" fill="#B9DA8D">
                    <ellipse id="path-1" cx="2.0142998" cy="1.7765847" rx="1.1469428" ry="1.14562599"></ellipse>
                </g>
            </g>
            <g id="light-copy" transform="translate(2.865627, 14.189199)">
                <g id="path-3-link" fill="#000000" fill-rule="nonzero">
                    <ellipse id="path-3" cx="2.0142998" cy="2.0387638" rx="1.1469428" ry="1.14562599"></ellipse>
                </g>
                <g id="path-3-link" fill="#B9DA8D">
                    <ellipse id="path-3" cx="2.0142998" cy="2.0387638" rx="1.1469428" ry="1.14562599"></ellipse>
                </g>
            </g>
        </g>
    </g>
</svg>
