<?xml version="1.0" encoding="UTF-8" standalone="no"?>
<svg width="170px" height="76px" viewBox="0 0 170 76" version="1.1" xmlns="http://www.w3.org/2000/svg" xmlns:xlink="http://www.w3.org/1999/xlink">
    <!-- Generator: Sketch 3.8.3 (29802) - http://www.bohemiancoding.com/sketch -->
    <title>habitat-logo-by-chef-white</title>
    <desc>Created with Sketch.</desc>
    <defs></defs>
    <g id="Symbols" stroke="none" stroke-width="1" fill="none" fill-rule="evenodd">
        <g id="Footer" transform="translate(-15.000000, -60.000000)">
            <g id="habitat-logo-by-chef-white" transform="translate(15.000000, 60.000000)">
                <g id="Mark" transform="translate(123.841060, 0.686131)">
                    <path d="M19.2651656,43.6044818 L2.0360596,26.4020073 C-0.0720529801,24.2971533 -0.0720529801,20.8855474 2.0360596,18.7806934 L19.2651656,1.57821898 C21.3721523,-0.526072993 24.7896026,-0.526072993 26.8977152,1.57821898 L44.1268212,18.7806934 C46.2343709,20.8855474 46.2343709,24.2971533 44.1268212,26.4020073 L26.8977152,43.6044818 C24.7901656,45.7087737 21.3721523,45.7087737 19.2651656,43.6044818" id="Shape" fill="#FFFFFF"></path>
                    <path d="M36.2679801,22.2423212 L33.1004636,19.0791387 C32.7880464,18.7683285 32.2560927,18.9886496 32.2560927,19.4287299 L32.2560927,20.5393285 C32.2560927,20.8119197 32.0343046,21.0328029 31.7607285,21.0328029 L30.0263907,21.0328029 C29.7539404,21.0328029 29.5321523,20.8119197 29.5321523,20.5393285 L29.5321523,18.2793504 C29.5321523,18.0067591 29.7539404,17.7858759 30.0263907,17.7858759 L30.6101325,17.7858759 C31.050894,17.7858759 31.2721192,17.2541825 30.959702,16.9428102 L27.7921854,13.7801898 C27.599106,13.5874088 27.2866887,13.5874088 27.0930464,13.7801898 L23.9249669,16.9428102 C23.6136755,17.2541825 23.8349007,17.7858759 24.2745364,17.7858759 L24.9686093,17.7858759 C25.2416225,17.7858759 25.4628477,18.0067591 25.4628477,18.2793504 L25.4628477,20.4960511 C25.4628477,20.7686423 25.2416225,20.9895255 24.9686093,20.9895255 L21.1672517,20.9895255 C20.8942384,20.9895255 20.6730132,20.7686423 20.6730132,20.4960511 L20.6730132,18.2793504 C20.6730132,18.0067591 20.8942384,17.7858759 21.1672517,17.7858759 L21.8866556,17.7858759 C22.3268543,17.7858759 22.5480795,17.2541825 22.2362252,16.9428102 L19.0681457,13.7801898 C18.8750662,13.5874088 18.562649,13.5874088 18.3695695,13.7801898 L15.2009272,16.9428102 C14.8896358,17.2541825 15.1108609,17.7858759 15.5510596,17.7858759 L16.1089073,17.7858759 C16.3819205,17.7858759 16.6037086,18.0067591 16.6037086,18.2793504 L16.6037086,20.5393285 C16.6037086,20.8119197 16.3819205,21.0328029 16.1089073,21.0328029 L14.3999007,21.0328029 C14.1274503,21.0328029 13.9056623,20.8119197 13.9056623,20.5393285 L13.9056623,19.4287299 C13.9056623,18.9886496 13.3737086,18.7683285 13.0612914,19.0791387 L9.89377483,22.2423212 C9.70069536,22.4351022 9.70069536,22.7475985 9.89377483,22.9403796 L13.0612914,26.103562 C13.3737086,26.4143723 13.9056623,26.1940511 13.9056623,25.7545328 L13.9056623,24.6433723 C13.9056623,24.370781 14.1274503,24.1498978 14.3999007,24.1498978 L16.1089073,24.1498978 C16.3819205,24.1498978 16.6037086,24.370781 16.6037086,24.6433723 L16.6037086,26.9033504 C16.6037086,27.1759416 16.3819205,27.3968248 16.1089073,27.3968248 L15.5510596,27.3968248 C15.1108609,27.3968248 14.8896358,27.9285182 15.2009272,28.2398905 L18.3695695,31.4025109 C18.562649,31.595292 18.8750662,31.595292 19.0681457,31.4025109 L22.2362252,28.2398905 C22.5480795,27.9285182 22.3268543,27.3968248 21.8866556,27.3968248 L21.1672517,27.3968248 C20.8942384,27.3968248 20.6730132,27.1759416 20.6730132,26.9033504 L20.6730132,24.6776569 C20.6730132,24.4045036 20.8942384,24.1836204 21.1672517,24.1836204 L24.9686093,24.1836204 C25.2416225,24.1836204 25.4628477,24.4045036 25.4628477,24.6776569 L25.4628477,26.9033504 C25.4628477,27.1759416 25.2416225,27.3968248 24.9686093,27.3968248 L24.2745364,27.3968248 C23.8349007,27.3968248 23.6136755,27.9285182 23.9249669,28.2398905 L27.0930464,31.4025109 C27.2866887,31.595292 27.599106,31.595292 27.7921854,31.4025109 L30.9602649,28.2398905 C31.2726821,27.9285182 31.051457,27.3968248 30.6106954,27.3968248 L30.0269536,27.3968248 C29.7545033,27.3968248 29.5327152,27.1759416 29.5327152,26.9033504 L29.5327152,24.6433723 C29.5327152,24.370781 29.7545033,24.1498978 30.0269536,24.1498978 L31.7612914,24.1498978 C32.0348675,24.1498978 32.2566556,24.370781 32.2566556,24.6433723 L32.2566556,25.7545328 C32.2566556,26.1940511 32.7886093,26.4143723 33.1010265,26.103562 L36.268543,22.9403796 C36.4610596,22.7475985 36.4610596,22.4351022 36.2679801,22.2423212" id="Shape" fill="#87B09A"></path>
                </g>
                <g id="Logotype" transform="translate(0.000000, 32.160584)" fill="#FFFFFF">
                    <path d="M56.1016887,25.409438 C52.0059272,25.409438 49.1271854,22.5846058 49.0950993,18.5244015 C49.0635762,14.4574526 51.9288079,11.5915912 56.0639735,11.5556204 C60.0617881,11.5263942 62.9838742,14.3012044 63.0249669,18.1652555 C63.0480464,20.353292 62.3838079,22.1962336 61.1037417,23.4951168 C59.8816556,24.7355474 58.1698344,25.397073 56.1534768,25.409438 L56.1016887,25.409438 L56.1016887,25.409438 Z M63.1955298,10.4309708 C61.1943709,8.68413869 58.4113245,7.83657664 55.5545364,8.10242336 C53.4143377,8.30251095 51.4531457,9.1219708 49.9760596,10.4045547 C49.6067881,10.7249197 49.0343046,10.4793066 49.0343046,9.99145255 L49.0343046,0.967277372 C49.0343046,0.656467153 48.7821192,0.404671533 48.4702649,0.404671533 L46.0975828,0.404671533 C45.8054305,0.404671533 45.5616887,0.627240876 45.5357947,0.917817518 C45.5267881,1.01954745 45.5166556,1.1139708 45.5065232,1.20389781 C45.4845695,1.40117518 45.4637417,1.58777372 45.4637417,1.78448905 L45.4626159,3.90789051 C45.4586755,8.57060584 45.455298,13.3929416 45.4704967,18.1354672 C45.4727483,18.9796569 45.500894,19.8800511 45.6877815,20.7433504 C46.8068543,25.923146 50.6296026,28.874438 56.197947,28.8738759 C56.2913907,28.8738759 56.3865232,28.8727518 56.4810927,28.8710657 C60.945,28.7918175 64.6151987,26.3042117 66.0596358,22.3766496 C67.6566225,18.0342993 66.5324834,13.3451679 63.1955298,10.4309708 L63.1955298,10.4309708 Z" id="Shape"></path>
                    <path d="M39.1838742,18.3979416 C39.1985099,20.3735255 38.5123179,22.1625109 37.2519536,23.4355401 C35.9955298,24.7035109 34.2206623,25.4066277 32.2532781,25.4144964 L32.2155629,25.4144964 C28.1333113,25.4144964 25.2725828,22.6245109 25.2534437,18.6182628 C25.2331788,14.4124891 28.0224172,11.5730438 32.1936093,11.5516861 L32.234702,11.5516861 C36.2353311,11.5516861 39.1557285,14.424854 39.1838742,18.3979416 M40.5962252,11.832708 C37.4973841,8.02205109 31.6532119,6.9120146 27.0024172,9.25067883 C22.7518543,11.3886934 20.6274172,16.2891533 21.8371192,21.1688175 C22.7968874,25.0390511 25.2765232,27.5822993 29.0086424,28.5242847 C30.0821192,28.7951898 31.1066225,28.9306423 32.0804636,28.9306423 C34.6912583,28.9300803 36.9372848,27.9588686 38.7819536,26.025438 C39.0065563,25.7893796 39.2058278,25.5420803 39.4028477,25.2751095 L39.4028477,27.7992482 C39.4028477,28.1100584 39.6550331,28.361854 39.9663245,28.361854 L42.1515563,28.361854 C42.4628477,28.361854 42.7150331,28.1100584 42.7150331,27.7992482 L42.7150331,27.7986861 C42.7150331,26.7133796 42.7229139,25.6353796 42.7307947,24.5618759 C42.7488079,22.0163796 42.7673841,19.3832044 42.6756291,16.8067956 C42.6153974,15.1285328 41.9156954,13.4542044 40.5962252,11.832708" id="Shape"></path>
                    <path d="M111.717583,18.3979416 C111.732219,20.3735255 111.046589,22.1625109 109.785662,23.4355401 C108.529238,24.7035109 106.754371,25.4066277 104.786987,25.4144964 L104.749834,25.4144964 C100.667583,25.4144964 97.8068543,22.6245109 97.7877152,18.6182628 C97.7674503,14.4124891 100.556689,11.5730438 104.727881,11.5516861 L104.768974,11.5516861 C108.76904,11.5516861 111.69,14.424854 111.717583,18.3979416 M113.129934,11.832708 C110.031093,8.02205109 104.186921,6.9120146 99.5366887,9.25067883 C95.2855629,11.3886934 93.1616887,16.2891533 94.3713907,21.1688175 C95.330596,25.0390511 97.8102318,27.5822993 101.542351,28.5242847 C102.615828,28.7951898 103.640894,28.9306423 104.614172,28.9306423 C107.22553,28.9300803 109.470993,27.9588686 111.315662,26.025438 C111.540265,25.7893796 111.739536,25.5420803 111.936556,25.2751095 L111.936556,27.7992482 C111.936556,28.1100584 112.188742,28.361854 112.500033,28.361854 L114.685828,28.361854 C114.997119,28.361854 115.249305,28.1100584 115.249305,27.7992482 L115.249305,27.7986861 C115.249305,26.7133796 115.257185,25.6353796 115.264503,24.5618759 C115.282517,22.0163796 115.301093,19.3832044 115.209338,16.8067956 C115.149106,15.1285328 114.449967,13.4542044 113.129934,11.832708" id="Shape"></path>
                    <path d="M11.9810596,8.21708029 C8.93907285,7.71967153 6.43635762,8.30925547 4.51682119,9.97178102 C4.1486755,10.2898978 3.57900662,10.0375401 3.57900662,9.55137226 L3.57900662,0.959970803 C3.57900662,0.64859854 3.32625828,0.39680292 3.01496689,0.39680292 L0.564039735,0.39680292 C0.25218543,0.397364964 0,0.64859854 0,0.959970803 L0,27.8177956 C0,28.1291679 0.25218543,28.3809635 0.564039735,28.3809635 L3.04930464,28.3809635 C3.36059603,28.3809635 3.61334437,28.1314161 3.61334437,27.8200438 C3.61390728,26.847146 3.61559603,24.8648175 3.61615894,23.9942117 C3.61784768,21.9736642 3.61897351,19.9531168 3.6307947,17.9331314 C3.64205298,15.8501971 4.2702649,14.1691241 5.44675497,13.0714526 C6.62943709,11.9681606 8.36096026,11.4544526 10.4668212,11.5842847 C13.6061921,11.7793139 15.6580132,13.7582701 15.8206954,16.7483431 C15.9445364,19.0083212 15.9518543,21.3216934 15.9591722,23.5575036 C15.9625497,24.5483869 15.9659272,25.538708 15.9788742,26.5284672 C15.9822517,26.8111752 15.9811258,27.0944453 15.98,27.3822117 L15.98,27.7925036 C15.9794371,28.104438 16.2321854,28.3562336 16.5434768,28.3562336 L19.0174834,28.3562336 C19.3287748,28.3562336 19.5815232,28.105 19.5815232,27.7930657 C19.5815232,26.6875255 19.5854636,25.5881679 19.589404,24.4927445 C19.5984106,22.0911314 19.6079801,19.6068978 19.5708278,17.1726861 C19.4965232,12.3301168 16.6594371,8.9820219 11.9810596,8.21708029" id="Shape"></path>
                    <path d="M91.7966225,20.0093212 L89.0411589,20.0093212 C88.7478808,20.0093212 88.5030132,20.2341387 88.4793709,20.5269635 L88.4467219,20.9288248 C88.4225166,21.2160292 88.4005629,21.4858102 88.3814238,21.7555912 C88.2260596,23.9604891 86.8863245,25.2470073 84.6099007,25.3774015 C83.0326159,25.4673285 80.3548344,25.191365 80.1257285,22.3243796 C79.932649,19.8941022 79.9281457,17.3952555 79.9230795,14.9801533 C79.9213907,14.1719343 79.919702,13.3637153 79.9112583,12.563365 C79.9078808,12.2497445 80.1600662,11.9968248 80.4736093,11.9968248 L87.5674503,11.9968248 C88.0881457,11.9968248 88.3301987,11.3521606 87.9378477,11.0098759 L85.2341722,8.65154015 C85.1311589,8.56161314 84.9994371,8.51215328 84.8632119,8.51215328 L80.4015563,8.51215328 C80.0902649,8.51215328 79.8375166,8.26035766 79.8375166,7.94954745 L79.8375166,4.20071533 C79.8375166,3.88990511 79.5853311,3.63754745 79.2740397,3.63754745 L76.9295033,3.63754745 C76.6182119,3.63754745 76.3660265,3.88934307 76.3654636,4.20015328 L76.3643377,5.32592701 C76.3637748,5.43271533 76.3108609,16.0525328 76.4054305,22.6205766 C76.427947,24.203292 77.2120861,25.7612774 78.6131788,27.0078905 C80.3356954,28.5405839 82.345298,28.8957956 84.1252318,28.8957956 C84.5924503,28.8957956 85.0439073,28.8710657 85.470596,28.8373431 C87.5207285,28.6732263 89.4154967,27.6036569 90.6696689,25.9029124 C91.8641722,24.2842263 92.3105629,22.2962774 91.8956954,20.4494015 L91.7966225,20.0093212 L91.7966225,20.0093212 Z" id="Shape"></path>
                    <path d="M133.023874,20.5112263 L132.956325,20.0250584 L130.101788,20.0250584 C129.806258,20.0250584 129.560828,20.2532482 129.539437,20.5477591 L129.507914,20.9833431 C129.490464,21.2340146 129.473013,21.4655766 129.457815,21.6977007 C129.310894,23.9301387 127.991424,25.2346423 125.740894,25.3723431 C124.139404,25.4701387 121.418841,25.1997956 121.194238,22.2771679 C121.003974,19.7946204 121.011854,17.2435036 121.019172,14.7761314 C121.020861,14.0280511 121.023113,13.2805328 121.020298,12.5324526 C121.019172,12.2205182 121.270232,11.9675985 121.582649,11.9675985 L128.536887,11.9675985 C129.071656,11.9675985 129.305828,11.2925839 128.885331,10.9621022 L125.927781,8.63748905 C125.828709,8.55880292 125.70543,8.51664964 125.579338,8.51664964 L121.515662,8.51664964 C121.203808,8.51664964 120.951623,8.26485401 120.951623,7.9540438 L120.951623,4.34516058 C120.951623,4.03435036 120.699437,3.78255474 120.388146,3.78255474 L117.93947,3.78255474 C117.628742,3.78255474 117.375993,4.03378832 117.375993,4.34459854 L117.374868,5.49060584 C117.374305,5.59514599 117.325894,16.0637737 117.475629,22.5643723 C117.542053,25.4341679 119.710397,27.9110949 122.747318,28.5855474 C123.553974,28.7642774 124.469272,28.8525182 125.534305,28.8525182 C125.691358,28.8525182 125.851225,28.8508321 126.015033,28.8474599 C128.161987,28.797438 130.075331,27.9144672 131.399868,26.3587299 C132.750861,24.7765766 133.326722,22.6992628 133.023874,20.5112263" id="Shape"></path>
                    <path d="M69.9696358,28.336 L72.3513245,28.336 C72.6626159,28.336 72.9153642,28.0847664 72.9153642,27.7733942 L72.9153642,9.14838686 C72.9153642,8.84151095 72.6693709,8.59140146 72.3620199,8.58521898 L69.9803311,8.54137956 C69.6645364,8.53519708 69.4061589,8.78867883 69.4061589,9.1039854 L69.4061589,27.7733942 C69.4061589,28.0847664 69.6583444,28.336 69.9696358,28.336" id="Shape"></path>
                    <path d="M69.9696358,6.17067883 L72.3513245,6.17067883 C72.6626159,6.17067883 72.9153642,5.91832117 72.9153642,5.60751095 L72.9153642,3.22950365 C72.9153642,2.91869343 72.6626159,2.66689781 72.3513245,2.66689781 L69.9696358,2.66689781 C69.6583444,2.66689781 69.4061589,2.91869343 69.4061589,3.22950365 L69.4061589,5.60751095 C69.4061589,5.91832117 69.6583444,6.17067883 69.9696358,6.17067883" id="Shape"></path>
                    <path d="M133.086921,36.8239854 L132.856689,37.1775109 L132.623642,36.8239854 L132.523444,36.8239854 L132.523444,37.473708 L132.61745,37.473708 L132.61745,36.9740511 L132.848808,37.3264526 L132.860629,37.3264526 L133.093675,36.9740511 L133.093675,37.473708 L133.184305,37.473708 L133.184305,36.8239854 L133.086921,36.8239854 L133.086921,36.8239854 Z M131.869338,36.8239854 L131.869338,36.9094161 L132.079305,36.9094161 L132.079305,37.473708 L132.171623,37.473708 L132.171623,36.9094161 L132.381026,36.9094161 L132.381026,36.8239854 L131.869338,36.8239854 L131.869338,36.8239854 Z" id="Shape"></path>
                    <g id="BY-CHEF" transform="translate(94.000000, 36.000000)">
                        <path d="M9.49115894,4.03943796 L9.49115894,4.02145255 C9.49115894,2.20267883 10.8646689,0.716635036 12.8314901,0.716635036 C14.0395033,0.716635036 14.7634106,1.11512409 15.3589735,1.70077372 L14.4616887,2.73212409 C13.9668874,2.2869854 13.4647682,2.0110219 12.8236093,2.0110219 C11.7445033,2.0110219 10.9659934,2.90691971 10.9659934,4.00234307 L10.9659934,4.02145255 C10.9659934,5.11856204 11.7253642,6.03188321 12.8236093,6.03188321 C13.5559603,6.03188321 14.0051656,5.73905839 14.5067219,5.2809927 L15.4040066,6.18588321 C14.7453974,6.89237226 14.0124834,7.33076642 12.7780132,7.33076642 C10.8933775,7.33132847 9.49115894,5.87732117 9.49115894,4.03943796" id="Shape"></path>
                        <polygon id="Shape" points="17.2486755 0.823985401 18.6565232 0.823985401 18.6565232 3.35543066 21.2566225 3.35543066 21.2566225 0.823985401 22.665596 0.823985401 22.665596 7.22116788 21.2566225 7.22116788 21.2566225 4.65094161 18.6565232 4.65094161 18.6565232 7.22116788 17.2486755 7.22116788"></polygon>
                        <polygon id="Shape" points="24.9363907 0.826233577 29.8421854 0.826233577 29.8421854 2.09589051 26.3571854 2.09589051 26.3571854 3.4150073 29.4233775 3.4150073 29.4233775 4.68522628 26.3571854 4.68522628 26.3571854 6.05155474 29.890596 6.05155474 29.890596 7.3240219 24.9363907 7.3240219"></polygon>
                        <polygon id="Shape" points="31.9424172 0.823985401 36.8189404 0.823985401 36.8189404 2.10263504 33.3502649 2.10263504 33.3502649 3.46446715 36.4091391 3.46446715 36.4091391 4.7419927 33.3502649 4.7419927 33.3502649 7.22116788 31.9424172 7.22116788"></polygon>
                        <path d="M5.22764901,7.33526277 L5.22764901,5.76940876 L6.61635762,3.66511679 L5.78437086,3.66511679 L4.86850993,5.13542336 L4.85668874,5.13542336 L3.95264901,3.66511679 L3.10377483,3.66511679 L4.50880795,5.78627007 L4.50880795,7.33526277 L5.22764901,7.33526277 L5.22764901,7.33526277 Z M1.78824503,4.33226277 C2.12036424,4.33226277 2.23294702,4.50649635 2.23294702,4.7419927 C2.23294702,4.97243066 2.09221854,5.15228467 1.79387417,5.15228467 L0.843675497,5.15228467 L0.843675497,4.33170073 L1.78824503,4.33170073 L1.78824503,4.33226277 Z M1.91152318,5.79132847 C2.20986755,5.79132847 2.37817881,5.9880438 2.37817881,6.23478102 C2.37817881,6.47645985 2.24364238,6.67317518 1.90589404,6.67317518 L0.842549669,6.67317518 L0.842549669,5.79132847 L1.91152318,5.79132847 L1.91152318,5.79132847 Z M2.0297351,7.33526277 C2.74350993,7.33526277 3.11390728,6.91485401 3.11390728,6.34156934 C3.11390728,5.90429927 2.87241722,5.56707299 2.46880795,5.43836496 L2.46880795,5.42656204 C2.77165563,5.27537226 2.94615894,4.98985401 2.94615894,4.61834307 C2.94615894,4.06248175 2.58082781,3.66455474 1.8839404,3.66455474 L0.124834437,3.66455474 L0.124834437,7.33470073 L2.0297351,7.33470073 L2.0297351,7.33526277 Z" id="Shape"></path>
                    </g>
                </g>
            </g>
        </g>
    </g>
</svg>