<svg xmlns="http://www.w3.org/2000/svg" xmlns:xlink="http://www.w3.org/1999/xlink" viewBox="0 0 1000 115.53"><defs><style>.cls-1,.cls-4{fill:none;}.cls-2{fill:#405464;}.cls-3{fill:#fff;}.cls-4{stroke:#ee9721;stroke-miterlimit:10;stroke-width:1.5px;}.cls-5{clip-path:url(#clip-path);}.cls-6{fill:#ee9721;}</style><clipPath id="clip-path"><rect class="cls-1" x="101.23" y="19.6" width="188.83" height="76.32"/></clipPath></defs><title>A2 Docs Banner</title><g id="Layer_2" data-name="Layer 2"><g id="Layer_1-2" data-name="Layer 1"><rect class="cls-2" width="1000" height="115.53"/><path class="cls-3" d="M446.75,63.82h.05l5.65-15.11h1.89L447.68,66.1h-1.87l-6.63-17.39h1.92Z"/><path class="cls-3" d="M458.49,66.1h-1.77V48.71h1.77Z"/><path class="cls-3" d="M464.88,64.53h9.31V66.1H463.11V48.71H473.9v1.57h-9v6h8.43v1.57h-8.43Z"/><path class="cls-3" d="M481.86,63.67h.05l4.35-15h2.11l4.35,15h0l4.25-15h1.87L493.75,66.1h-2.06l-4.38-14.94h-.05L482.89,66.1h-2.06l-5.14-17.39h1.87Z"/><path class="cls-3" d="M522,63.28A6.9,6.9,0,0,1,521,64.53a6.54,6.54,0,0,1-1.45,1,7.84,7.84,0,0,1-1.81.71,8.34,8.34,0,0,1-2.18.27,9.48,9.48,0,0,1-3.64-.69,8.55,8.55,0,0,1-4.75-4.79,9.73,9.73,0,0,1-.68-3.66,9.56,9.56,0,0,1,.69-3.67A8.73,8.73,0,0,1,511.92,49a9.31,9.31,0,0,1,3.6-.69,8.4,8.4,0,0,1,1.88.21,8.75,8.75,0,0,1,1.73.56,7.2,7.2,0,0,1,1.48.87,4.94,4.94,0,0,1,1.1,1.14l-1.47,1.08a4.18,4.18,0,0,0-.73-.83,4.88,4.88,0,0,0-1.06-.74,7.62,7.62,0,0,0-1.34-.52,6.06,6.06,0,0,0-1.56-.19,7.21,7.21,0,0,0-3,.61,6.89,6.89,0,0,0-2.27,1.65,7.35,7.35,0,0,0-1.43,2.42,8.64,8.64,0,0,0-.49,2.89,8.26,8.26,0,0,0,.51,2.89,7.41,7.41,0,0,0,1.43,2.41,6.82,6.82,0,0,0,2.28,1.65,7.1,7.1,0,0,0,3,.61,6.82,6.82,0,0,0,2.85-.61,5.45,5.45,0,0,0,2.26-2Z"/><path class="cls-3" d="M525.08,48.71h1.77v7.54h9.48V48.71h1.77V66.1h-1.77V57.87h-9.48V66.1h-1.77Z"/><path class="cls-3" d="M544.49,64.53h9.31V66.1H542.72V48.71h10.79v1.57h-9v6h8.43v1.57h-8.43Z"/><path class="cls-3" d="M559,66.1h-1.77V48.71h10.49v1.57H559v6h8.1v1.57H559Z"/><path class="cls-3" d="M576.65,66.1h-1.94l7.52-17.39H584l7.47,17.39h-2l-1.92-4.57h-9Zm2.56-6.19h7.67L583,50.67Z"/><path class="cls-3" d="M600.09,66.55a6.7,6.7,0,0,1-3.21-.68,5.67,5.67,0,0,1-2-1.71,6,6,0,0,1-1-2.25,10,10,0,0,1-.29-2.29V48.71h1.77V59.42a8.16,8.16,0,0,0,.25,2,5,5,0,0,0,.8,1.77,4.05,4.05,0,0,0,1.46,1.25,5.44,5.44,0,0,0,4.47,0,4.05,4.05,0,0,0,1.46-1.25,5,5,0,0,0,.8-1.77,8.65,8.65,0,0,0,.25-2V48.71h1.77V59.62a10,10,0,0,1-.29,2.29,6.19,6.19,0,0,1-1,2.25,5.7,5.7,0,0,1-2,1.71A6.76,6.76,0,0,1,600.09,66.55Z"/><path class="cls-3" d="M616.71,66.1h-1.77V50.28h-5.83V48.71h13.42v1.57h-5.82Z"/><path class="cls-3" d="M641.6,57.41a9.54,9.54,0,0,1-.69,3.66,8.73,8.73,0,0,1-4.78,4.79,9.74,9.74,0,0,1-7.2,0A8.89,8.89,0,0,1,626.05,64a8.76,8.76,0,0,1-1.9-2.88,10.08,10.08,0,0,1,0-7.33,8.76,8.76,0,0,1,1.9-2.88A8.89,8.89,0,0,1,628.93,49a9.74,9.74,0,0,1,7.2,0,8.73,8.73,0,0,1,4.78,4.79A9.56,9.56,0,0,1,641.6,57.41Zm-1.87,0a8.74,8.74,0,0,0-.49-2.9,7.3,7.3,0,0,0-1.43-2.41,6.77,6.77,0,0,0-2.27-1.66,7.73,7.73,0,0,0-6,0,6.77,6.77,0,0,0-2.27,1.66,7.14,7.14,0,0,0-1.43,2.41,8.8,8.8,0,0,0,0,5.79,6.89,6.89,0,0,0,3.7,4,7.73,7.73,0,0,0,6,0,7,7,0,0,0,2.27-1.64,7.2,7.2,0,0,0,1.43-2.41A8.68,8.68,0,0,0,639.73,57.42Z"/><path class="cls-3" d="M653.88,63.11h0l5.82-14.4h2.7V66.1h-1.77V51h0L654.32,66.1h-.93L647.1,51h-.05V66.1h-1.77V48.71H648Z"/><path class="cls-3" d="M666.93,66.1H665l7.52-17.39h1.72L681.7,66.1h-2l-1.92-4.57h-9Zm2.55-6.19h7.67l-3.83-9.24Z"/><path class="cls-3" d="M688.35,66.1h-1.77V50.28h-5.82V48.71h13.42v1.57h-5.83Z"/><path class="cls-3" d="M698.55,64.53h9.31V66.1H696.78V48.71h10.79v1.57h-9v6H707v1.57h-8.43Z"/><path class="cls-3" d="M727.52,66.1H716.41V64.26l7.13-7.2a10.7,10.7,0,0,0,.77-.85,6.79,6.79,0,0,0,.68-.94,5,5,0,0,0,.47-1.05,4,4,0,0,0,.17-1.14,3.32,3.32,0,0,0-.27-1.37,3.06,3.06,0,0,0-.75-1.05A3.27,3.27,0,0,0,723.5,50a3.62,3.62,0,0,0-1.31-.24,3.34,3.34,0,0,0-2.36.88,4,4,0,0,0-1.23,2.22l-1.74-.34a4.88,4.88,0,0,1,.65-1.7,5.26,5.26,0,0,1,1.18-1.35,5.43,5.43,0,0,1,1.58-.89,5.69,5.69,0,0,1,1.92-.32,6.59,6.59,0,0,1,2,.31,4.9,4.9,0,0,1,1.65.91A4.37,4.37,0,0,1,727,51a4.71,4.71,0,0,1,.43,2.08,4.78,4.78,0,0,1-.24,1.54,6.65,6.65,0,0,1-.61,1.36,7.3,7.3,0,0,1-.9,1.21q-.51.59-1.08,1.14l-6.26,6.22h9.21Z"/><path class="cls-3" d="M733.93,64.92a1.32,1.32,0,0,1-.37.93,1.34,1.34,0,0,1-1.91,0,1.34,1.34,0,0,1,0-1.85,1.34,1.34,0,0,1,1.91,0A1.32,1.32,0,0,1,733.93,64.92Z"/><path class="cls-3" d="M742.91,48.26a4.46,4.46,0,0,1,2.71.8,6,6,0,0,1,1.76,2.09,10.25,10.25,0,0,1,.94,2.94,19.56,19.56,0,0,1,.28,3.34,19.35,19.35,0,0,1-.28,3.33,10.21,10.21,0,0,1-.94,2.92,5.79,5.79,0,0,1-1.76,2.08,4.53,4.53,0,0,1-2.71.79,4.59,4.59,0,0,1-2.73-.79,5.67,5.67,0,0,1-1.75-2.08,9.62,9.62,0,0,1-.93-2.92,20.4,20.4,0,0,1-.27-3.33,20.62,20.62,0,0,1,.27-3.34,9.66,9.66,0,0,1,.93-2.94,5.87,5.87,0,0,1,1.75-2.09A4.53,4.53,0,0,1,742.91,48.26Zm0,1.5a2.69,2.69,0,0,0-1.92.72,5,5,0,0,0-1.21,1.82,9.85,9.85,0,0,0-.61,2.46,20.37,20.37,0,0,0-.17,2.67,20,20,0,0,0,.17,2.65,9.88,9.88,0,0,0,.61,2.45A4.84,4.84,0,0,0,741,64.32a2.72,2.72,0,0,0,1.92.7,2.69,2.69,0,0,0,1.9-.7A4.84,4.84,0,0,0,746,62.53a9.87,9.87,0,0,0,.63-2.45,20,20,0,0,0,.18-2.65,20.41,20.41,0,0,0-.18-2.67A9.84,9.84,0,0,0,746,52.3a5,5,0,0,0-1.21-1.82A2.66,2.66,0,0,0,742.91,49.76Z"/><path class="cls-3" d="M758.5,48.71h5.78a10.3,10.3,0,0,1,3.25.54,8.88,8.88,0,0,1,3,1.63,8.25,8.25,0,0,1,2.13,2.73,9.32,9.32,0,0,1,0,7.6,8.21,8.21,0,0,1-2.13,2.72,8.88,8.88,0,0,1-3,1.63,10.3,10.3,0,0,1-3.25.54H758.5Zm1.77,15.82h3.52a8.74,8.74,0,0,0,3.42-.61,7.07,7.07,0,0,0,2.42-1.61A6.59,6.59,0,0,0,771.07,60a7.42,7.42,0,0,0,0-5.25,6.59,6.59,0,0,0-1.44-2.28,7.07,7.07,0,0,0-2.42-1.61,8.74,8.74,0,0,0-3.42-.61h-3.52Z"/><path class="cls-3" d="M794.3,57.41a9.73,9.73,0,0,1-.68,3.66,8.73,8.73,0,0,1-4.78,4.79,9.74,9.74,0,0,1-7.2,0,8.65,8.65,0,0,1-4.78-4.79,10.08,10.08,0,0,1,0-7.33A8.65,8.65,0,0,1,781.64,49a9.74,9.74,0,0,1,7.2,0,8.73,8.73,0,0,1,4.78,4.79A9.74,9.74,0,0,1,794.3,57.41Zm-1.86,0a8.5,8.5,0,0,0-.5-2.9,7.11,7.11,0,0,0-1.42-2.41,6.77,6.77,0,0,0-2.27-1.66,7.73,7.73,0,0,0-6,0A6.81,6.81,0,0,0,780,52.11a7.28,7.28,0,0,0-1.42,2.41,8.8,8.8,0,0,0,0,5.79A7.18,7.18,0,0,0,780,62.72,7,7,0,0,0,785.24,65a7.17,7.17,0,0,0,3-.61,6.83,6.83,0,0,0,3.69-4A8.44,8.44,0,0,0,792.44,57.42Z"/><path class="cls-3" d="M812.63,63.28a7.25,7.25,0,0,1-1.06,1.25,7,7,0,0,1-1.45,1,7.92,7.92,0,0,1-1.82.71,8.34,8.34,0,0,1-2.18.27,9.39,9.39,0,0,1-3.63-.69A8.58,8.58,0,0,1,799.61,64a8.71,8.71,0,0,1-1.88-2.88,10.29,10.29,0,0,1,0-7.33A8.73,8.73,0,0,1,802.52,49a9.31,9.31,0,0,1,3.6-.69,8.4,8.4,0,0,1,1.88.21,8.55,8.55,0,0,1,1.73.56,6.94,6.94,0,0,1,1.48.87,4.94,4.94,0,0,1,1.1,1.14l-1.47,1.08a4.44,4.44,0,0,0-.72-.83,5,5,0,0,0-1.07-.74,7.62,7.62,0,0,0-1.34-.52,6.06,6.06,0,0,0-1.56-.19,7.21,7.21,0,0,0-3,.61,6.89,6.89,0,0,0-2.27,1.65,7.35,7.35,0,0,0-1.43,2.42,8.64,8.64,0,0,0-.49,2.89,8.26,8.26,0,0,0,.51,2.89,7.41,7.41,0,0,0,1.43,2.41,6.93,6.93,0,0,0,2.28,1.65,7.1,7.1,0,0,0,3,.61,6.79,6.79,0,0,0,2.85-.61,5.45,5.45,0,0,0,2.26-2Z"/><path class="cls-3" d="M824.11,51.51a4.23,4.23,0,0,0-1.45-1.27,4.42,4.42,0,0,0-2.14-.48,4.56,4.56,0,0,0-1.3.2,3.91,3.91,0,0,0-1.21.6,3.07,3.07,0,0,0-.87,1,3,3,0,0,0-.33,1.45,2.71,2.71,0,0,0,.32,1.38,3,3,0,0,0,.84.92,5.53,5.53,0,0,0,1.21.63l1.4.49c.61.19,1.22.41,1.83.64a6.53,6.53,0,0,1,1.65.89,4.14,4.14,0,0,1,1.67,3.55,4.79,4.79,0,0,1-.5,2.25,4.69,4.69,0,0,1-1.29,1.56,5.32,5.32,0,0,1-1.81.91,7.21,7.21,0,0,1-2,.3,8.28,8.28,0,0,1-1.57-.16,7.3,7.3,0,0,1-1.5-.48,6.66,6.66,0,0,1-1.33-.81A6.08,6.08,0,0,1,814.6,64l1.52-1.13a4.75,4.75,0,0,0,1.59,1.56,4.55,4.55,0,0,0,2.39.62,4.64,4.64,0,0,0,1.36-.21,3.85,3.85,0,0,0,1.24-.64,3.56,3.56,0,0,0,.91-1.05,3,3,0,0,0,.35-1.46,3.05,3.05,0,0,0-.35-1.52,3.24,3.24,0,0,0-1-1,5.69,5.69,0,0,0-1.35-.68l-1.6-.54c-.57-.18-1.14-.38-1.7-.61a5.75,5.75,0,0,1-1.49-.9,4.09,4.09,0,0,1-1.07-1.36,4.44,4.44,0,0,1-.41-2,4.38,4.38,0,0,1,.51-2.17,4.48,4.48,0,0,1,1.31-1.49,5.39,5.39,0,0,1,1.79-.86,7.4,7.4,0,0,1,1.94-.28,6.71,6.71,0,0,1,3,.63,5.22,5.22,0,0,1,1.89,1.49Z"/><path class="cls-3" d="M841.4,51.67l9.32,5.44v1L841.4,63.6V62.23l7.84-4.6L841.4,53Z"/><rect class="cls-4" x="392.66" y="32.59" width="506.11" height="50.34"/><g id="Automate_Inverse" data-name="Automate Inverse"><g class="cls-5"><path class="cls-6" d="M110.93,78.85l4.34,9.72h-8.71Zm-1-2.51L101.23,95.6h2.22l2.27-5.06h10.41l2.23,5.06h2.33L112,76.34Z"/><g class="cls-5"><path class="cls-6" d="M126.19,87.6V76.48h2.16v11c0,4.13,2.22,6.45,5.85,6.45s5.77-2.14,5.77-6.3V76.48h2.16v11c0,5.57-3.19,8.48-8,8.48s-8-2.92-8-8.32"/><polygon class="cls-6" points="155.01 78.47 148.59 78.47 148.59 76.48 163.61 76.48 163.61 78.47 157.2 78.47 157.2 95.6 155.01 95.6 155.01 78.47"/><path class="cls-6" d="M168.22,86h0a9.75,9.75,0,0,1,19.5,0h0a9.75,9.75,0,1,1-19.5,0Zm17.27,0h0a7.61,7.61,0,0,0-7.3-7.89H178a7.5,7.5,0,0,0-7.49,7.52c0,.13,0,.26,0,.38a7.59,7.59,0,0,0,7.3,7.89H178a7.5,7.5,0,0,0,7.49-7.52c0-.13,0-.25,0-.38"/><polygon class="cls-6" points="195.01 76.48 197.2 76.48 204.17 86.91 211.14 76.48 213.33 76.48 213.33 95.6 211.17 95.6 211.17 80.05 204.2 90.3 204.09 90.3 197.12 80.08 197.12 95.6 195.01 95.6 195.01 76.48"/><path class="cls-6" d="M228.52,76.34h2l8.72,19.26H236.9l-2.23-5.06H224.29L222,95.6h-2.22Zm5.33,12.23-4.34-9.72-4.37,9.72Z"/><polygon class="cls-6" points="248.35 78.47 241.93 78.47 241.93 76.48 256.95 76.48 256.95 78.47 250.54 78.47 250.54 95.6 248.35 95.6 248.35 78.47"/><polygon class="cls-6" points="263.75 76.48 277.57 76.48 277.57 78.44 265.91 78.44 265.91 84.97 276.34 84.97 276.34 86.94 265.91 86.94 265.91 93.63 277.71 93.63 277.71 95.6 263.75 95.6 263.75 76.48"/><path class="cls-3" d="M101.24,42v-.12A21.85,21.85,0,0,1,122.7,19.61h1c8.11,0,13,2.7,17,6.64l-6,6.94c-3.32-3-6.7-4.84-11-4.84-7.25,0-12.48,6-12.48,13.38v.13c0,7.37,5.1,13.52,12.48,13.52,4.91,0,7.92-2,11.3-5.05l6,6A22,22,0,0,1,123.29,64a21.7,21.7,0,0,1-22.05-21.35c0-.23,0-.47,0-.71"/><polygon class="cls-3" points="151.88 20.35 161.35 20.35 161.35 37.38 178.8 37.38 178.8 20.35 188.26 20.35 188.26 63.36 178.8 63.36 178.8 46.09 161.35 46.09 161.35 63.36 151.88 63.36 151.88 20.35"/><polygon class="cls-3" points="199.82 20.35 232.26 20.35 232.26 28.77 209.22 28.77 209.22 37.49 229.5 37.49 229.5 45.91 209.22 45.91 209.22 54.94 232.56 54.94 232.56 63.36 199.82 63.36 199.82 20.35"/><polygon class="cls-3" points="244.94 20.35 277.68 20.35 277.68 28.95 254.39 28.95 254.39 38.11 274.91 38.11 274.91 46.72 254.39 46.72 254.39 63.36 244.94 63.36 244.94 20.35"/><path class="cls-3" d="M284.75,26.15V22h1.78a2.91,2.91,0,0,1,1,.11,1,1,0,0,1,.49.4,1.21,1.21,0,0,1,.18.66,1.17,1.17,0,0,1-.15.61,1.44,1.44,0,0,1-.12.17,1.28,1.28,0,0,1-.71.37c.08.08.2.21.33.37a4.67,4.67,0,0,1,.48.68l.51.81h-1l-.61-.91a6,6,0,0,0-.45-.61.53.53,0,0,0-.25-.18,1.51,1.51,0,0,0-.43,0h-.17v1.74Zm.84-2.41h.63a3.57,3.57,0,0,0,.76,0,.55.55,0,0,0,.24-.18.59.59,0,0,0,.08-.31.46.46,0,0,0-.43-.51h-1.28Z"/><path class="cls-3" d="M286.32,27.8a3.63,3.63,0,0,1-1.46-.29,3.25,3.25,0,0,1-.63-.35,3.32,3.32,0,0,1-1-1,3.25,3.25,0,0,1-.35-.63,3.63,3.63,0,0,1-.29-1.46,3.69,3.69,0,0,1,.29-1.46,3.25,3.25,0,0,1,.35-.63,3.32,3.32,0,0,1,1-1,3.88,3.88,0,0,1,.63-.35,3.82,3.82,0,0,1,2.92,0,3.88,3.88,0,0,1,.63.35,3.32,3.32,0,0,1,1,1,3.25,3.25,0,0,1,.35.63,3.69,3.69,0,0,1,.29,1.46,3.63,3.63,0,0,1-.29,1.46,3.25,3.25,0,0,1-.35.63,3.32,3.32,0,0,1-1,1,3.25,3.25,0,0,1-.63.35,3.63,3.63,0,0,1-1.46.29m0-7.17a3.43,3.43,0,1,0,3.43,3.43,3.44,3.44,0,0,0-3.43-3.43"/></g></g></g></g></g></svg>