<?xml version="1.0" encoding="utf-8"?>
<!-- Generator: Adobe Illustrator 21.0.0, SVG Export Plug-In . SVG Version: 6.00 Build 0)  -->
<svg version="1.1" id="Layer_1" xmlns="http://www.w3.org/2000/svg" xmlns:xlink="http://www.w3.org/1999/xlink" x="0px" y="0px"
	 viewBox="0 0 420 240.5" style="enable-background:new 0 0 420 240.5;" xml:space="preserve">
<style type="text/css">
	.st0{fill:#7E868C;}
	.st1{fill-rule:evenodd;clip-rule:evenodd;fill:#455464;}
	.st2{fill:#FFFFFF;}
	.st3{fill-rule:evenodd;clip-rule:evenodd;fill:#EF8822;}
	.st4{fill-rule:evenodd;clip-rule:evenodd;fill:#87AF9A;}
	.st5{fill-rule:evenodd;clip-rule:evenodd;fill:#4197B5;}
	.st6{fill:#455464;}
	.st7{fill:#435363;}
	.st8{fill:#F38B00;}
</style>
<path class="st0" d="M87.6,51.7h0.5l0.8,2l0.8-2h0.5l-1,2.4l1.1,2.6l2.1-5H93l-2.4,5.7h-0.5l-1.2-2.8l-1.2,2.8h-0.5l-2.4-5.7h0.6
	l2.1,5l1.1-2.6L87.6,51.7z"/>
<path class="st0" d="M93.4,55.2c0-1.2,0.9-2.2,2.1-2.2s2.1,1,2.1,2.2c0,1.2-0.9,2.2-2.1,2.2C94.3,57.4,93.4,56.4,93.4,55.2z
	 M95.5,56.9c0.8,0,1.5-0.8,1.5-1.7c0-0.9-0.7-1.7-1.5-1.7c-0.8,0-1.5,0.8-1.5,1.7C94,56.2,94.7,56.9,95.5,56.9z"/>
<path class="st0" d="M100.5,53.6c-0.7,0-1.3,0.4-1.5,1.1v2.6h-0.5v-4.2H99v1c0.3-0.6,0.8-1,1.3-1c0.1,0,0.2,0,0.2,0V53.6z"/>
<path class="st0" d="M104.2,57.3l-1.5-2.1l-0.9,0.8v1.3h-0.5v-5.8h0.5v4l2.3-2.3h0.6l-1.7,1.7l1.8,2.5H104.2z"/>
<path class="st0" d="M109.6,57.2c0,0-0.4,0.1-0.8,0.1c-0.5,0-0.8-0.3-0.8-0.8v-3.9c0-0.4-0.2-0.9-0.9-0.9c-0.6,0-0.9,0.6-0.9,1.2
	v0.5h0.9v0.4h-0.9v3.2h-0.5v-3.2h-0.6v-0.4h0.6V53c0-0.9,0.5-1.6,1.4-1.6c0.9,0,1.4,0.5,1.4,1.2v3.7c0,0.2,0.1,0.5,0.4,0.5
	c0.2,0,0.5-0.1,0.5-0.1L109.6,57.2z"/>
<path class="st0" d="M109.9,55.2c0-1.2,0.9-2.2,2.1-2.2s2.1,1,2.1,2.2c0,1.2-0.9,2.2-2.1,2.2C110.7,57.4,109.9,56.4,109.9,55.2z
	 M111.9,56.9c0.8,0,1.5-0.8,1.5-1.7c0-0.9-0.7-1.7-1.5-1.7c-0.8,0-1.5,0.8-1.5,1.7C110.4,56.2,111.1,56.9,111.9,56.9z"/>
<path class="st0" d="M120.2,53.2h0.5l-1.8,4.2h-0.5l-0.9-2.1l-0.9,2.1h-0.5l-1.8-4.2h0.5l1.5,3.6l0.8-1.9l-0.7-1.7h0.5l0.5,1.4
	l0.5-1.4h0.5l-0.7,1.7l0.8,1.9L120.2,53.2z"/>
<path class="st0" d="M124.3,55.3c-0.4,0-0.7-0.3-0.7-0.7c0-0.4,0.3-0.7,0.7-0.7s0.7,0.3,0.7,0.7C125,55,124.7,55.3,124.3,55.3z"/>
<path class="st0" d="M128.5,57.3v-5.7h0.6v5.2h3.3v0.5H128.5z"/>
<path class="st0" d="M132.8,55.2c0-1.2,0.9-2.2,2.1-2.2s2.1,1,2.1,2.2c0,1.2-0.9,2.2-2.1,2.2C133.6,57.4,132.8,56.4,132.8,55.2z
	 M134.9,56.9c0.8,0,1.5-0.8,1.5-1.7c0-0.9-0.7-1.7-1.5-1.7c-0.8,0-1.5,0.8-1.5,1.7C133.3,56.2,134,56.9,134.9,56.9z"/>
<path class="st0" d="M139.6,53.1c0.8,0,1.4,0.4,1.7,1l-0.5,0.2c-0.2-0.4-0.7-0.7-1.2-0.7c-0.8,0-1.5,0.7-1.5,1.7
	c0,0.9,0.7,1.7,1.5,1.7c0.5,0,1.1-0.3,1.2-0.7l0.5,0.2c-0.2,0.6-0.9,1-1.7,1c-1.2,0-2.1-1-2.1-2.2C137.5,54,138.4,53.1,139.6,53.1z"
	/>
<path class="st0" d="M141.9,56.1c0-0.8,0.7-1.3,1.8-1.3c0.4,0,0.9,0.1,1.2,0.2v-0.4c0-0.7-0.5-1.2-1.2-1.2c-0.4,0-0.9,0.2-1.3,0.5
	l-0.2-0.4c0.5-0.4,1-0.5,1.6-0.5c1,0,1.7,0.6,1.7,1.7v1.9c0,0.2,0.1,0.2,0.2,0.2v0.5c-0.1,0-0.2,0-0.2,0c-0.2,0-0.4-0.1-0.4-0.4
	l0-0.3c-0.4,0.5-1,0.8-1.6,0.8C142.5,57.4,141.9,56.8,141.9,56.1z M144.7,56.4c0.1-0.1,0.1-0.2,0.1-0.3v-0.7
	c-0.4-0.1-0.8-0.2-1.1-0.2c-0.8,0-1.3,0.3-1.3,0.9c0,0.4,0.3,0.9,1,0.9C143.9,57,144.5,56.8,144.7,56.4z"/>
<path class="st0" d="M146.6,51.5h0.5v4.9c0,0.3,0.2,0.5,0.5,0.5c0.1,0,0.3,0,0.4-0.1l0.1,0.4c-0.2,0.1-0.5,0.1-0.8,0.1
	c-0.5,0-0.8-0.3-0.8-0.8V51.5z"/>
<path class="st0" d="M150.5,55.2c0-1.2,0.8-2.2,1.9-2.2c0.7,0,1.3,0.4,1.6,0.9v-2.5h0.5v5.1c0,0.2,0.1,0.2,0.2,0.2v0.5
	c-0.1,0-0.2,0-0.2,0c-0.3,0-0.5-0.2-0.5-0.4v-0.4c-0.3,0.5-0.9,0.9-1.6,0.9C151.3,57.4,150.5,56.4,150.5,55.2z M154,55.9v-1.3
	c-0.2-0.6-0.9-1-1.4-1c-0.9,0-1.5,0.8-1.5,1.7c0,0.9,0.7,1.7,1.6,1.7C153.2,56.9,153.9,56.5,154,55.9z"/>
<path class="st0" d="M155.5,55.2c0-1.2,0.9-2.1,2.1-2.1c1.2,0,2.1,1,2.1,2.1c0,0.1,0,0.2,0,0.2h-3.6c0.1,0.9,0.7,1.6,1.5,1.6
	c0.6,0,1.1-0.3,1.3-0.8l0.5,0.1c-0.3,0.6-1,1-1.8,1C156.4,57.4,155.5,56.4,155.5,55.2z M159.1,55c-0.1-0.9-0.7-1.5-1.5-1.5
	s-1.5,0.6-1.5,1.5H159.1z"/>
<path class="st0" d="M161.7,57.3l-1.7-4.2h0.6l1.4,3.7l1.4-3.7h0.5l-1.7,4.2H161.7z"/>
<path class="st0" d="M164.4,55.2c0-1.2,0.9-2.1,2.1-2.1c1.2,0,2.1,1,2.1,2.1c0,0.1,0,0.2,0,0.2H165c0.1,0.9,0.7,1.6,1.5,1.6
	c0.6,0,1.1-0.3,1.3-0.8l0.5,0.1c-0.3,0.6-1,1-1.8,1C165.3,57.4,164.4,56.4,164.4,55.2z M168,55c-0.1-0.9-0.7-1.5-1.5-1.5
	S165,54.1,165,55H168z"/>
<path class="st0" d="M169.4,51.5h0.5v4.9c0,0.3,0.2,0.5,0.5,0.5c0.1,0,0.3,0,0.4-0.1l0.1,0.4c-0.2,0.1-0.5,0.1-0.8,0.1
	c-0.5,0-0.8-0.3-0.8-0.8V51.5z"/>
<path class="st0" d="M171.2,55.2c0-1.2,0.9-2.2,2.1-2.2s2.1,1,2.1,2.2c0,1.2-0.9,2.2-2.1,2.2C172.1,57.4,171.2,56.4,171.2,55.2z
	 M173.3,56.9c0.8,0,1.5-0.8,1.5-1.7c0-0.9-0.7-1.7-1.5-1.7c-0.8,0-1.5,0.8-1.5,1.7C171.8,56.2,172.5,56.9,173.3,56.9z"/>
<path class="st0" d="M176.8,56.5V59h-0.5v-5.9h0.5V54c0.3-0.5,0.9-0.9,1.6-0.9c1.2,0,2,1,2,2.2c0,1.2-0.8,2.2-1.9,2.2
	C177.7,57.4,177.1,57,176.8,56.5z M179.7,55.2c0-0.9-0.7-1.7-1.6-1.7c-0.5,0-1.3,0.5-1.4,1v1.3c0.2,0.6,0.8,1,1.4,1
	C179.1,56.9,179.7,56.1,179.7,55.2z"/>
<path class="st0" d="M187.4,57.3h-0.5V55c0-1-0.3-1.4-0.9-1.4c-0.6,0-1.2,0.5-1.4,1.2v2.5H184V55c0-1-0.3-1.4-0.9-1.4
	c-0.6,0-1.2,0.5-1.4,1.2v2.6h-0.5v-4.2h0.5v0.9c0.3-0.6,0.9-1,1.6-1c0.7,0,1.1,0.4,1.2,1.1c0.4-0.7,0.9-1.1,1.6-1.1
	c0.9,0,1.3,0.7,1.3,1.8V57.3z"/>
<path class="st0" d="M188.2,55.2c0-1.2,0.9-2.1,2.1-2.1c1.2,0,2.1,1,2.1,2.1c0,0.1,0,0.2,0,0.2h-3.6c0.1,0.9,0.7,1.6,1.5,1.6
	c0.6,0,1.1-0.3,1.3-0.8l0.5,0.1c-0.3,0.6-1,1-1.8,1C189.1,57.4,188.2,56.4,188.2,55.2z M191.9,55c-0.1-0.9-0.7-1.5-1.5-1.5
	s-1.5,0.6-1.5,1.5H191.9z"/>
<path class="st0" d="M196.7,57.3h-0.5V55c0-1-0.3-1.4-0.9-1.4c-0.6,0-1.3,0.5-1.5,1.2v2.6h-0.5v-4.2h0.5v0.9c0.3-0.6,1-1,1.8-1
	c0.9,0,1.2,0.7,1.2,1.8V57.3z"/>
<path class="st0" d="M199.8,57.1c-0.1,0.1-0.5,0.2-0.9,0.2c-0.5,0-0.9-0.3-0.9-0.8v-3h-0.6v-0.4h0.6v-1.4h0.5v1.4h1v0.4h-1v2.8
	c0,0.3,0.2,0.4,0.5,0.4c0.3,0,0.6-0.1,0.6-0.2L199.8,57.1z"/>
<path class="st0" d="M203.4,55.3c-0.4,0-0.7-0.3-0.7-0.7c0-0.4,0.3-0.7,0.7-0.7s0.7,0.3,0.7,0.7C204.1,55,203.8,55.3,203.4,55.3z"/>
<path class="st0" d="M207.6,57.3v-5.7h0.6v5.7H207.6z"/>
<path class="st0" d="M212.9,57.3h-0.5V55c0-1-0.3-1.4-0.9-1.4c-0.6,0-1.3,0.5-1.5,1.2v2.6h-0.5v-4.2h0.5v0.9c0.3-0.6,1-1,1.8-1
	c0.9,0,1.2,0.7,1.2,1.8V57.3z"/>
<path class="st0" d="M216.1,57.1c-0.1,0.1-0.5,0.2-0.9,0.2c-0.5,0-0.9-0.3-0.9-0.8v-3h-0.6v-0.4h0.6v-1.4h0.5v1.4h1v0.4h-1v2.8
	c0,0.3,0.2,0.4,0.5,0.4c0.3,0,0.6-0.1,0.6-0.2L216.1,57.1z"/>
<path class="st0" d="M216.4,55.2c0-1.2,0.9-2.1,2.1-2.1c1.2,0,2.1,1,2.1,2.1c0,0.1,0,0.2,0,0.2H217c0.1,0.9,0.7,1.6,1.5,1.6
	c0.6,0,1.1-0.3,1.3-0.8l0.5,0.1c-0.3,0.6-1,1-1.8,1C217.3,57.4,216.4,56.4,216.4,55.2z M220.1,55c-0.1-0.9-0.7-1.5-1.5-1.5
	c-0.8,0-1.5,0.6-1.5,1.5H220.1z"/>
<path class="st0" d="M221.1,55.2c0-1.2,0.8-2.2,1.9-2.2c0.7,0,1.2,0.4,1.6,0.9v-0.9h0.5v4.2c0,1.2-0.9,1.8-2,1.8
	c-1,0-1.5-0.4-1.9-0.9l0.3-0.3c0.3,0.5,0.9,0.8,1.5,0.8c0.8,0,1.5-0.4,1.5-1.3v-0.8c-0.3,0.5-0.9,0.9-1.5,0.9
	C221.9,57.4,221.1,56.3,221.1,55.2z M224.6,55.9v-1.3c-0.2-0.6-0.8-1-1.4-1c-0.9,0-1.5,0.9-1.5,1.7c0,0.9,0.7,1.7,1.6,1.7
	C223.9,56.9,224.5,56.4,224.6,55.9z"/>
<path class="st0" d="M228.4,53.6c-0.7,0-1.3,0.4-1.5,1.1v2.6h-0.5v-4.2h0.5v1c0.3-0.6,0.8-1,1.3-1c0.1,0,0.2,0,0.2,0V53.6z"/>
<path class="st0" d="M228.8,56.1c0-0.8,0.7-1.3,1.8-1.3c0.4,0,0.9,0.1,1.2,0.2v-0.4c0-0.7-0.5-1.2-1.2-1.2c-0.4,0-0.9,0.2-1.3,0.5
	l-0.2-0.4c0.5-0.4,1-0.5,1.6-0.5c1,0,1.7,0.6,1.7,1.7v1.9c0,0.2,0.1,0.2,0.2,0.2v0.5c-0.1,0-0.2,0-0.2,0c-0.2,0-0.4-0.1-0.4-0.4
	l0-0.3c-0.4,0.5-1,0.8-1.6,0.8C229.4,57.4,228.8,56.8,228.8,56.1z M231.7,56.4c0.1-0.1,0.1-0.2,0.1-0.3v-0.7
	c-0.4-0.1-0.8-0.2-1.1-0.2c-0.8,0-1.3,0.3-1.3,0.9c0,0.4,0.3,0.9,1,0.9C230.9,57,231.4,56.8,231.7,56.4z"/>
<path class="st0" d="M235.5,57.1c-0.1,0.1-0.5,0.2-0.9,0.2c-0.5,0-0.9-0.3-0.9-0.8v-3h-0.6v-0.4h0.6v-1.4h0.5v1.4h1v0.4h-1v2.8
	c0,0.3,0.2,0.4,0.5,0.4c0.3,0,0.6-0.1,0.6-0.2L235.5,57.1z"/>
<path class="st0" d="M236.2,52.3v-0.8h0.5v0.8H236.2z M236.2,57.3v-4.2h0.5v4.2H236.2z"/>
<path class="st0" d="M237.6,55.2c0-1.2,0.9-2.2,2.1-2.2s2.1,1,2.1,2.2c0,1.2-0.9,2.2-2.1,2.2C238.5,57.4,237.6,56.4,237.6,55.2z
	 M239.7,56.9c0.8,0,1.5-0.8,1.5-1.7c0-0.9-0.7-1.7-1.5-1.7c-0.8,0-1.5,0.8-1.5,1.7C238.2,56.2,238.8,56.9,239.7,56.9z"/>
<path class="st0" d="M246.1,57.3h-0.5V55c0-1-0.3-1.4-0.9-1.4c-0.6,0-1.3,0.5-1.5,1.2v2.6h-0.5v-4.2h0.5v0.9c0.3-0.6,1-1,1.8-1
	c0.9,0,1.2,0.7,1.2,1.8V57.3z"/>
<path class="st0" d="M250.2,55.3c-0.4,0-0.7-0.3-0.7-0.7c0-0.4,0.3-0.7,0.7-0.7s0.7,0.3,0.7,0.7C250.9,55,250.6,55.3,250.2,55.3z"/>
<path class="st0" d="M258.4,52.1h-2v5.2h-0.6v-5.2h-2v-0.5h4.6V52.1z"/>
<path class="st0" d="M258.9,55.2c0-1.2,0.9-2.2,2.1-2.2s2.1,1,2.1,2.2c0,1.2-0.9,2.2-2.1,2.2C259.7,57.4,258.9,56.4,258.9,55.2z
	 M260.9,56.9c0.8,0,1.5-0.8,1.5-1.7c0-0.9-0.7-1.7-1.5-1.7c-0.8,0-1.5,0.8-1.5,1.7C259.4,56.2,260.1,56.9,260.9,56.9z"/>
<path class="st0" d="M263.6,55.2c0-1.2,0.9-2.2,2.1-2.2s2.1,1,2.1,2.2c0,1.2-0.9,2.2-2.1,2.2C264.5,57.4,263.6,56.4,263.6,55.2z
	 M265.7,56.9c0.8,0,1.5-0.8,1.5-1.7c0-0.9-0.7-1.7-1.5-1.7c-0.8,0-1.5,0.8-1.5,1.7C264.2,56.2,264.8,56.9,265.7,56.9z"/>
<path class="st0" d="M268.7,51.5h0.5v4.9c0,0.3,0.2,0.5,0.5,0.5c0.1,0,0.3,0,0.4-0.1l0.1,0.4c-0.2,0.1-0.5,0.1-0.8,0.1
	c-0.5,0-0.8-0.3-0.8-0.8V51.5z"/>
<path class="st0" d="M270.8,52.3v-0.8h0.5v0.8H270.8z M270.8,57.3v-4.2h0.5v4.2H270.8z"/>
<path class="st0" d="M276,57.3h-0.5V55c0-1-0.3-1.4-0.9-1.4c-0.6,0-1.3,0.5-1.5,1.2v2.6h-0.5v-4.2h0.5v0.9c0.3-0.6,1-1,1.8-1
	c0.9,0,1.2,0.7,1.2,1.8V57.3z"/>
<path class="st0" d="M276.8,55.2c0-1.2,0.8-2.2,1.9-2.2c0.7,0,1.2,0.4,1.6,0.9v-0.9h0.5v4.2c0,1.2-0.9,1.8-2,1.8
	c-1,0-1.5-0.4-1.9-0.9l0.3-0.3c0.3,0.5,0.9,0.8,1.5,0.8c0.8,0,1.5-0.4,1.5-1.3v-0.8c-0.3,0.5-0.9,0.9-1.5,0.9
	C277.6,57.4,276.8,56.3,276.8,55.2z M280.3,55.9v-1.3c-0.2-0.6-0.8-1-1.4-1c-0.9,0-1.5,0.9-1.5,1.7c0,0.9,0.7,1.7,1.6,1.7
	C279.6,56.9,280.2,56.4,280.3,55.9z"/>
<path class="st0" d="M285,51.4l0.4,0.2c-0.4,0.6-1,1.9-1,3c0,0.8,0.4,1.9,1,2.8l-0.4,0.2c-0.7-1-1.1-2-1.1-3.1
	C283.8,53.5,284.3,52.4,285,51.4z"/>
<path class="st0" d="M285.8,57.3l2.4-5.7h0.5l2.4,5.7h-0.6l-0.7-1.8h-2.5l-0.7,1.8H285.8z M288.4,52.3l-1.2,2.8h2.3L288.4,52.3z"/>
<path class="st0" d="M291.8,57.3v-5.7h2.4c1,0,1.7,0.9,1.7,1.8c0,0.9-0.7,1.8-1.6,1.8h-1.8v2.1H291.8z M292.3,54.7h1.8
	c0.7,0,1.1-0.6,1.1-1.3c0-0.7-0.5-1.3-1.2-1.3h-1.8V54.7z"/>
<path class="st0" d="M296.8,57.3v-5.7h0.6v5.7H296.8z"/>
<path class="st0" d="M298.3,56.8l0.2-0.4c0.5,0.4,0.9,0.6,1.5,0.6c0.7,0,1.1-0.3,1.1-0.8c0-0.5-0.4-0.6-1.3-0.8
	c-1-0.2-1.4-0.4-1.4-1.1c0-0.8,0.7-1.3,1.6-1.3c0.6,0,1.2,0.2,1.5,0.6l-0.3,0.3c-0.3-0.3-0.8-0.5-1.3-0.5c-0.6,0-1,0.2-1,0.8
	c0,0.4,0.3,0.5,1,0.7c1.1,0.3,1.6,0.5,1.6,1.2c0,0.8-0.6,1.2-1.6,1.2C299.4,57.4,298.7,57.2,298.3,56.8z"/>
<path class="st0" d="M308.5,57.3l-0.7-0.7c-0.4,0.5-1,0.8-1.7,0.8c-1,0-1.8-0.6-1.8-1.5c0-0.8,0.6-1.2,1.2-1.7
	c-0.6-0.6-0.8-1-0.8-1.4c0-0.7,0.6-1.2,1.4-1.2c0.7,0,1.3,0.5,1.3,1.1c0,0.7-0.6,1.1-1.2,1.5l1.6,1.7c0.2-0.4,0.3-0.9,0.3-1.4h0.5
	c0,0.7-0.2,1.3-0.5,1.7l1.1,1.1H308.5z M307.6,56.3l-1.7-1.8c-0.6,0.4-1,0.8-1,1.4c0,0.7,0.7,1.1,1.3,1.1
	C306.8,57,307.2,56.7,307.6,56.3z M306,53.9c0.6-0.4,1.1-0.7,1.1-1.2c0-0.4-0.4-0.7-0.8-0.7c-0.5,0-0.9,0.4-0.9,0.8
	C305.3,53.1,305.4,53.3,306,53.9z"/>
<path class="st0" d="M315.4,52.7c-0.3-0.4-0.9-0.6-1.6-0.6c-1,0-1.4,0.4-1.4,1.1c0,0.7,0.5,0.8,1.6,1.1c1.2,0.3,2,0.6,2,1.6
	c0,1-0.9,1.5-2,1.5c-0.9,0-1.7-0.3-2.3-0.8l0.3-0.5c0.4,0.4,1.2,0.8,2,0.8c0.9,0,1.4-0.3,1.4-1c0-0.7-0.6-0.9-1.7-1.2
	c-1.2-0.3-1.8-0.6-1.8-1.5c0-1.1,0.8-1.6,2-1.6c0.7,0,1.3,0.2,1.8,0.7L315.4,52.7z"/>
<path class="st0" d="M317,57.3v-5.7h1.9c1.8,0,2.7,1.3,2.7,2.8c0,1.7-1.1,2.8-2.7,2.8H317z M318.9,52.1h-1.4v4.7h1.4
	c1.4,0,2.2-1,2.2-2.4C321.1,53.1,320.3,52.1,318.9,52.1z"/>
<path class="st0" d="M322.8,57.3v-5.7h0.6v3.3l3.1-3.3h0.6l-2.3,2.5l2.4,3.2h-0.6l-2.2-2.9l-1.1,1.1v1.7H322.8z"/>
<path class="st0" d="M327.4,56.8l0.2-0.4c0.5,0.4,0.9,0.6,1.5,0.6c0.7,0,1.1-0.3,1.1-0.8c0-0.5-0.4-0.6-1.3-0.8
	c-1-0.2-1.4-0.4-1.4-1.1c0-0.8,0.7-1.3,1.6-1.3c0.6,0,1.2,0.2,1.5,0.6l-0.3,0.3c-0.3-0.3-0.8-0.5-1.3-0.5c-0.6,0-1,0.2-1,0.8
	c0,0.4,0.3,0.5,1,0.7c1.1,0.3,1.6,0.5,1.6,1.2c0,0.8-0.6,1.2-1.6,1.2C328.5,57.4,327.8,57.2,327.4,56.8z"/>
<path class="st0" d="M331.7,57.6l-0.4-0.2c0.6-1,1-2,1-2.8c0-1-0.6-2.3-1-3l0.4-0.2c0.6,1,1.1,2.1,1.1,3.1
	C332.8,55.6,332.4,56.6,331.7,57.6z"/>
<path class="st0" d="M22.3,101.2c-0.4,0-0.7-0.3-0.7-0.7c0-0.4,0.3-0.7,0.7-0.7s0.7,0.3,0.7,0.7C23,100.9,22.7,101.2,22.3,101.2z"/>
<path class="st0" d="M28.2,103.1v-5.3h2.2c0.9,0,1.6,0.8,1.6,1.7c0,0.9-0.6,1.7-1.5,1.7h-1.7v2H28.2z M28.7,100.7h1.7
	c0.6,0,1-0.6,1-1.2c0-0.7-0.5-1.2-1.1-1.2h-1.7V100.7z"/>
<path class="st0" d="M32.4,102c0-0.7,0.7-1.2,1.7-1.2c0.4,0,0.8,0.1,1.1,0.2v-0.4c0-0.7-0.4-1.1-1.1-1.1c-0.4,0-0.8,0.2-1.3,0.5
	l-0.2-0.3c0.5-0.3,1-0.5,1.5-0.5c0.9,0,1.6,0.6,1.6,1.6v1.8c0,0.1,0.1,0.2,0.2,0.2v0.5c-0.1,0-0.2,0-0.2,0c-0.2,0-0.4-0.1-0.4-0.4
	l0-0.3c-0.3,0.5-1,0.7-1.5,0.7C32.9,103.2,32.4,102.7,32.4,102z M35.1,102.3c0.1-0.1,0.1-0.2,0.1-0.3v-0.6c-0.3-0.1-0.7-0.2-1.1-0.2
	c-0.7,0-1.2,0.3-1.2,0.8c0,0.4,0.3,0.8,1,0.8C34.3,102.8,34.8,102.6,35.1,102.3z"/>
<path class="st0" d="M38.5,99.1c0.7,0,1.3,0.4,1.6,0.9l-0.5,0.2c-0.2-0.4-0.6-0.6-1.1-0.6c-0.8,0-1.4,0.7-1.4,1.6
	c0,0.9,0.6,1.6,1.4,1.6c0.5,0,1-0.3,1.1-0.7l0.5,0.1c-0.2,0.6-0.9,1-1.6,1c-1.1,0-2-0.9-2-2C36.6,100,37.4,99.1,38.5,99.1z"/>
<path class="st0" d="M43.7,103.1l-1.4-2l-0.8,0.8v1.2h-0.5v-5.5h0.5v3.7l2.2-2.1h0.6l-1.6,1.6l1.7,2.3H43.7z"/>
<path class="st0" d="M44.6,102c0-0.7,0.7-1.2,1.7-1.2c0.4,0,0.8,0.1,1.1,0.2v-0.4c0-0.7-0.4-1.1-1.1-1.1c-0.4,0-0.8,0.2-1.3,0.5
	l-0.2-0.3c0.5-0.3,1-0.5,1.5-0.5c0.9,0,1.6,0.6,1.6,1.6v1.8c0,0.1,0.1,0.2,0.2,0.2v0.5c-0.1,0-0.2,0-0.2,0c-0.2,0-0.4-0.1-0.4-0.4
	l0-0.3c-0.3,0.5-1,0.7-1.5,0.7C45.1,103.2,44.6,102.7,44.6,102z M47.3,102.3c0.1-0.1,0.1-0.2,0.1-0.3v-0.6c-0.3-0.1-0.7-0.2-1.1-0.2
	c-0.7,0-1.2,0.3-1.2,0.8c0,0.4,0.3,0.8,1,0.8C46.5,102.8,47,102.6,47.3,102.3z"/>
<path class="st0" d="M48.8,101.2c0-1.1,0.7-2,1.8-2c0.7,0,1.2,0.4,1.5,0.9v-0.8h0.5v3.9c0,1.1-0.9,1.7-1.9,1.7
	c-0.9,0-1.4-0.3-1.7-0.9l0.3-0.2c0.3,0.5,0.9,0.7,1.4,0.7c0.8,0,1.4-0.4,1.4-1.3v-0.8c-0.3,0.5-0.9,0.8-1.4,0.8
	C49.5,103.2,48.8,102.2,48.8,101.2z M52,101.8v-1.2c-0.2-0.6-0.8-1-1.4-1c-0.9,0-1.4,0.8-1.4,1.6c0,0.8,0.6,1.6,1.5,1.6
	C51.3,102.8,51.9,102.3,52,101.8z"/>
<path class="st0" d="M53.4,101.2c0-1.1,0.8-2,2-2c1.1,0,1.9,0.9,1.9,2c0,0.1,0,0.2,0,0.2h-3.3c0.1,0.8,0.7,1.5,1.4,1.5
	c0.5,0,1-0.3,1.2-0.7l0.4,0.1c-0.2,0.6-0.9,1-1.7,1C54.2,103.2,53.4,102.3,53.4,101.2z M56.8,101c-0.1-0.8-0.7-1.4-1.4-1.4
	s-1.4,0.6-1.4,1.4H56.8z"/>
<path class="st0" d="M22.3,109.7c-0.4,0-0.7-0.3-0.7-0.7c0-0.4,0.3-0.7,0.7-0.7s0.7,0.3,0.7,0.7C23,109.4,22.7,109.7,22.3,109.7z"/>
<path class="st0" d="M32,106.8h-1.9v4.9h-0.5v-4.9h-1.9v-0.5H32V106.8z"/>
<path class="st0" d="M32.4,109.7c0-1.1,0.8-2,2-2c1.1,0,1.9,0.9,1.9,2c0,0.1,0,0.2,0,0.2h-3.3c0.1,0.8,0.7,1.5,1.4,1.5
	c0.5,0,1-0.3,1.2-0.7l0.4,0.1c-0.2,0.6-0.9,1-1.7,1C33.2,111.7,32.4,110.8,32.4,109.7z M35.8,109.5c-0.1-0.8-0.7-1.4-1.4-1.4
	s-1.4,0.6-1.4,1.4H35.8z"/>
<path class="st0" d="M36.7,111.1l0.2-0.3c0.4,0.4,0.9,0.5,1.4,0.5c0.6,0,1-0.3,1-0.7c0-0.4-0.4-0.6-1.2-0.7c-0.9-0.2-1.3-0.4-1.3-1
	c0-0.8,0.7-1.2,1.5-1.2c0.6,0,1.1,0.2,1.4,0.5l-0.2,0.3c-0.3-0.3-0.7-0.5-1.2-0.5c-0.5,0-1,0.2-1,0.7c0,0.4,0.3,0.5,1,0.7
	c1,0.2,1.5,0.4,1.5,1.1c0,0.7-0.6,1.2-1.5,1.2C37.8,111.7,37.1,111.5,36.7,111.1z"/>
<path class="st0" d="M42.6,111.4c-0.1,0.1-0.5,0.2-0.9,0.2c-0.4,0-0.8-0.2-0.8-0.8v-2.8h-0.5v-0.4h0.5v-1.3h0.5v1.3h0.9v0.4h-0.9
	v2.7c0,0.3,0.2,0.4,0.5,0.4c0.3,0,0.5-0.1,0.6-0.2L42.6,111.4z"/>
<path class="st0" d="M22.3,118.2c-0.4,0-0.7-0.3-0.7-0.7c0-0.4,0.3-0.7,0.7-0.7s0.7,0.3,0.7,0.7C23,117.9,22.7,118.2,22.3,118.2z"/>
<path class="st0" d="M27.6,120.1l2.2-5.3h0.4l2.2,5.3h-0.6l-0.7-1.7h-2.4l-0.7,1.7H27.6z M30.1,115.4L29,118h2.2L30.1,115.4z"/>
<path class="st0" d="M33.7,119.3v2.4h-0.5v-5.5h0.5v0.8c0.3-0.5,0.9-0.8,1.5-0.8c1.1,0,1.9,1,1.9,2c0,1.1-0.7,2-1.8,2
	C34.5,120.2,34,119.8,33.7,119.3z M36.4,118.2c0-0.8-0.6-1.6-1.5-1.6c-0.5,0-1.2,0.4-1.3,1v1.2c0.2,0.6,0.8,1,1.4,1
	C35.8,119.8,36.4,119,36.4,118.2z"/>
<path class="st0" d="M38.3,119.3v2.4h-0.5v-5.5h0.5v0.8c0.3-0.5,0.9-0.8,1.5-0.8c1.1,0,1.9,1,1.9,2c0,1.1-0.7,2-1.8,2
	C39.1,120.2,38.6,119.8,38.3,119.3z M41,118.2c0-0.8-0.6-1.6-1.5-1.6c-0.5,0-1.2,0.4-1.3,1v1.2c0.2,0.6,0.8,1,1.4,1
	C40.5,119.8,41,119,41,118.2z"/>
<path class="st0" d="M44.3,116.7c-0.7,0-1.2,0.4-1.4,1v2.4h-0.5v-3.9h0.5v0.9c0.3-0.5,0.7-1,1.2-1c0.1,0,0.2,0,0.2,0V116.7z"/>
<path class="st0" d="M44.7,118.2c0-1.1,0.8-2,1.9-2c1.1,0,1.9,0.9,1.9,2c0,1.1-0.8,2-1.9,2C45.5,120.2,44.7,119.3,44.7,118.2z
	 M46.7,119.8c0.8,0,1.4-0.7,1.4-1.6c0-0.9-0.6-1.6-1.4-1.6c-0.8,0-1.4,0.7-1.4,1.6C45.3,119.1,45.9,119.8,46.7,119.8z"/>
<path class="st0" d="M50.6,120.1l-1.6-3.9h0.5l1.3,3.4l1.4-3.4h0.5l-1.6,3.9H50.6z"/>
<path class="st0" d="M53.2,118.2c0-1.1,0.8-2,2-2c1.1,0,1.9,0.9,1.9,2c0,0.1,0,0.2,0,0.2h-3.3c0.1,0.8,0.7,1.5,1.4,1.5
	c0.5,0,1-0.3,1.2-0.7l0.4,0.1c-0.2,0.6-0.9,1-1.7,1C54,120.2,53.2,119.3,53.2,118.2z M56.6,118c-0.1-0.8-0.7-1.4-1.4-1.4
	s-1.4,0.6-1.4,1.4H56.6z"/>
<path class="st0" d="M156.3,101.2c-0.4,0-0.7-0.3-0.7-0.7c0-0.4,0.3-0.7,0.7-0.7s0.7,0.3,0.7,0.7C157,100.9,156.7,101.2,156.3,101.2
	z"/>
<path class="st0" d="M162.2,103.1v-5.3h2.2c0.9,0,1.6,0.8,1.6,1.7c0,0.9-0.6,1.7-1.5,1.7h-1.7v2H162.2z M162.7,100.7h1.7
	c0.6,0,1-0.6,1-1.2c0-0.7-0.5-1.2-1.1-1.2h-1.7V100.7z"/>
<path class="st0" d="M168.7,99.7c-0.7,0-1.2,0.4-1.4,1v2.4h-0.5v-3.9h0.5v0.9c0.3-0.5,0.7-1,1.2-1c0.1,0,0.2,0,0.2,0V99.7z"/>
<path class="st0" d="M169.1,101.2c0-1.1,0.8-2,1.9-2c1.1,0,1.9,0.9,1.9,2c0,1.1-0.8,2-1.9,2C169.9,103.2,169.1,102.3,169.1,101.2z
	 M171,102.8c0.8,0,1.4-0.7,1.4-1.6c0-0.9-0.6-1.6-1.4-1.6c-0.8,0-1.4,0.7-1.4,1.6C169.6,102.1,170.2,102.8,171,102.8z"/>
<path class="st0" d="M175,103.1l-1.6-3.9h0.5l1.3,3.4l1.4-3.4h0.5l-1.6,3.9H175z"/>
<path class="st0" d="M177.8,98.4v-0.8h0.5v0.8H177.8z M177.8,103.1v-3.9h0.5v3.9H177.8z"/>
<path class="st0" d="M179.1,102.6l0.2-0.3c0.4,0.4,0.9,0.5,1.4,0.5c0.6,0,1-0.3,1-0.7c0-0.4-0.4-0.6-1.2-0.7c-0.9-0.2-1.3-0.4-1.3-1
	c0-0.8,0.7-1.2,1.5-1.2c0.6,0,1.1,0.2,1.4,0.5l-0.2,0.3c-0.3-0.3-0.7-0.5-1.2-0.5c-0.5,0-1,0.2-1,0.7c0,0.4,0.3,0.5,1,0.7
	c1,0.2,1.5,0.4,1.5,1.1c0,0.7-0.6,1.2-1.5,1.2C180.1,103.2,179.5,103,179.1,102.6z"/>
<path class="st0" d="M183,98.4v-0.8h0.5v0.8H183z M183,103.1v-3.9h0.5v3.9H183z"/>
<path class="st0" d="M184.4,101.2c0-1.1,0.8-2,1.9-2c1.1,0,1.9,0.9,1.9,2c0,1.1-0.8,2-1.9,2C185.2,103.2,184.4,102.3,184.4,101.2z
	 M186.3,102.8c0.8,0,1.4-0.7,1.4-1.6c0-0.9-0.6-1.6-1.4-1.6c-0.8,0-1.4,0.7-1.4,1.6C184.9,102.1,185.5,102.8,186.3,102.8z"/>
<path class="st0" d="M192.4,103.1h-0.5v-2.2c0-0.9-0.3-1.3-0.8-1.3c-0.6,0-1.2,0.5-1.4,1.1v2.4h-0.5v-3.9h0.5v0.9c0.3-0.6,1-1,1.7-1
	c0.9,0,1.2,0.7,1.2,1.7V103.1z"/>
<path class="st0" d="M156.3,109.7c-0.4,0-0.7-0.3-0.7-0.7c0-0.4,0.3-0.7,0.7-0.7s0.7,0.3,0.7,0.7C157,109.4,156.7,109.7,156.3,109.7
	z"/>
<path class="st0" d="M164.4,106.3c0.9,0,1.6,0.5,2,1.2l-0.4,0.3c-0.3-0.7-1-0.9-1.6-0.9c-1.3,0-2,1.1-2,2.2c0,1.2,0.9,2.2,2,2.2
	c0.6,0,1.3-0.3,1.6-1l0.4,0.2c-0.3,0.8-1.3,1.2-2.1,1.2c-1.5,0-2.5-1.4-2.5-2.7C161.8,107.6,162.8,106.3,164.4,106.3z"/>
<path class="st0" d="M167,109.7c0-1.1,0.8-2,1.9-2c1.1,0,1.9,0.9,1.9,2c0,1.1-0.8,2-1.9,2C167.8,111.7,167,110.8,167,109.7z
	 M168.9,111.3c0.8,0,1.4-0.7,1.4-1.6c0-0.9-0.6-1.6-1.4-1.6c-0.8,0-1.4,0.7-1.4,1.6C167.5,110.6,168.1,111.3,168.9,111.3z"/>
<path class="st0" d="M175,111.6h-0.5v-2.2c0-0.9-0.3-1.3-0.8-1.3c-0.6,0-1.2,0.5-1.4,1.1v2.4h-0.5v-3.9h0.5v0.9c0.3-0.6,1-1,1.7-1
	c0.9,0,1.2,0.7,1.2,1.7V111.6z"/>
<path class="st0" d="M176.2,108.6h-0.5v-0.4h0.5v-0.6c0-0.7,0.4-1.5,1.4-1.5c0.6,0,1,0.2,1.1,0.4l-0.2,0.4c-0.2-0.1-0.5-0.3-0.9-0.3
	c-0.6,0-0.9,0.6-0.9,1.1v0.6h2v3.5h-0.5v-3h-1.4v3h-0.5V108.6z"/>
<path class="st0" d="M179.5,109.7c0-1.1,0.7-2,1.8-2c0.7,0,1.2,0.4,1.5,0.9v-0.8h0.5v3.9c0,1.1-0.9,1.7-1.9,1.7
	c-0.9,0-1.4-0.3-1.7-0.9l0.3-0.2c0.3,0.5,0.9,0.7,1.4,0.7c0.8,0,1.4-0.4,1.4-1.3v-0.8c-0.3,0.5-0.9,0.8-1.4,0.8
	C180.3,111.7,179.5,110.7,179.5,109.7z M182.8,110.3v-1.2c-0.2-0.6-0.8-1-1.4-1c-0.9,0-1.4,0.8-1.4,1.6c0,0.8,0.6,1.6,1.5,1.6
	C182.1,111.3,182.7,110.8,182.8,110.3z"/>
<path class="st0" d="M184.4,110v-2.3h0.5v2.2c0,0.9,0.3,1.3,0.9,1.3c0.6,0,1.2-0.4,1.4-1.1v-2.5h0.5v3.3c0,0.1,0.1,0.2,0.2,0.2v0.5
	c-0.1,0-0.2,0-0.2,0c-0.2,0-0.4-0.2-0.4-0.4v-0.5c-0.3,0.6-1,1-1.7,1C184.8,111.7,184.4,111.1,184.4,110z"/>
<path class="st0" d="M190.8,108.2c-0.7,0-1.2,0.4-1.4,1v2.4h-0.5v-3.9h0.5v0.9c0.3-0.5,0.7-1,1.2-1c0.1,0,0.2,0,0.2,0V108.2z"/>
<path class="st0" d="M191.2,109.7c0-1.1,0.8-2,2-2c1.1,0,1.9,0.9,1.9,2c0,0.1,0,0.2,0,0.2h-3.3c0.1,0.8,0.7,1.5,1.4,1.5
	c0.5,0,1-0.3,1.2-0.7l0.4,0.1c-0.2,0.6-0.9,1-1.7,1C192.1,111.7,191.2,110.8,191.2,109.7z M194.7,109.5c-0.1-0.8-0.7-1.4-1.4-1.4
	c-0.8,0-1.4,0.6-1.4,1.4H194.7z"/>
<path class="st0" d="M156.3,118.2c-0.4,0-0.7-0.3-0.7-0.7c0-0.4,0.3-0.7,0.7-0.7s0.7,0.3,0.7,0.7C157,117.9,156.7,118.2,156.3,118.2
	z"/>
<path class="st0" d="M165.8,119.7v0.5h-3.6v-5.3h3.5v0.5h-3v1.9h2.6v0.4h-2.6v2H165.8z"/>
<path class="st0" d="M166.7,116.2l1.2,1.5l0.1,0.1l0.1-0.1l1.2-1.5h0.5l-1.5,2l1.5,1.9h-0.5l-1.2-1.5l-0.1-0.1l-0.1,0.1l-1.2,1.5
	h-0.6l1.5-1.9l-1.5-2H166.7z"/>
<path class="st0" d="M170.1,118.2c0-1.1,0.8-2,2-2c1.1,0,1.9,0.9,1.9,2c0,0.1,0,0.2,0,0.2h-3.3c0.1,0.8,0.7,1.5,1.4,1.5
	c0.5,0,1-0.3,1.2-0.7l0.4,0.1c-0.2,0.6-0.9,1-1.7,1C171,120.2,170.1,119.3,170.1,118.2z M173.6,118c-0.1-0.8-0.7-1.4-1.4-1.4
	s-1.4,0.6-1.4,1.4H173.6z"/>
<path class="st0" d="M176.5,116.1c0.7,0,1.3,0.4,1.6,0.9l-0.5,0.2c-0.2-0.4-0.6-0.6-1.1-0.6c-0.8,0-1.4,0.7-1.4,1.6
	c0,0.9,0.6,1.6,1.4,1.6c0.5,0,1-0.3,1.1-0.7l0.5,0.1c-0.2,0.6-0.9,1-1.6,1c-1.1,0-2-0.9-2-2C174.5,117,175.3,116.1,176.5,116.1z"/>
<path class="st0" d="M178.9,118.5v-2.3h0.5v2.2c0,0.9,0.3,1.3,0.9,1.3c0.6,0,1.2-0.4,1.4-1.1v-2.5h0.5v3.3c0,0.1,0.1,0.2,0.2,0.2
	v0.5c-0.1,0-0.2,0-0.2,0c-0.2,0-0.4-0.2-0.4-0.4v-0.5c-0.3,0.6-1,1-1.7,1C179.3,120.2,178.9,119.6,178.9,118.5z"/>
<path class="st0" d="M185.3,119.9c-0.1,0.1-0.5,0.2-0.9,0.2c-0.4,0-0.8-0.2-0.8-0.8v-2.8H183v-0.4h0.5v-1.3h0.5v1.3h0.9v0.4h-0.9
	v2.7c0,0.3,0.2,0.4,0.5,0.4c0.3,0,0.5-0.1,0.6-0.2L185.3,119.9z"/>
<path class="st0" d="M185.6,118.2c0-1.1,0.8-2,2-2c1.1,0,1.9,0.9,1.9,2c0,0.1,0,0.2,0,0.2h-3.3c0.1,0.8,0.7,1.5,1.4,1.5
	c0.5,0,1-0.3,1.2-0.7l0.4,0.1c-0.2,0.6-0.9,1-1.7,1C186.4,120.2,185.6,119.3,185.6,118.2z M189,118c-0.1-0.8-0.7-1.4-1.4-1.4
	c-0.8,0-1.4,0.6-1.4,1.4H189z"/>
<path class="st0" d="M156.3,126.7c-0.4,0-0.7-0.3-0.7-0.7c0-0.4,0.3-0.7,0.7-0.7s0.7,0.3,0.7,0.7C157,126.4,156.7,126.7,156.3,126.7
	z"/>
<path class="st0" d="M166.1,126v-2.7h0.5v2.7c0,1.4-0.6,2.7-2.2,2.7c-1.7,0-2.2-1.3-2.2-2.7v-2.7h0.5v2.7c0,1.1,0.4,2.2,1.7,2.2
	C165.7,128.2,166.1,127.1,166.1,126z"/>
<path class="st0" d="M168.2,127.8v2.4h-0.5v-5.5h0.5v0.8c0.3-0.5,0.9-0.8,1.5-0.8c1.1,0,1.9,1,1.9,2c0,1.1-0.7,2-1.8,2
	C169.1,128.7,168.5,128.3,168.2,127.8z M171,126.7c0-0.8-0.6-1.6-1.5-1.6c-0.5,0-1.2,0.4-1.3,1v1.2c0.2,0.6,0.8,1,1.4,1
	C170.4,128.3,171,127.5,171,126.7z"/>
<path class="st0" d="M172.1,126.7c0-1.1,0.8-2,1.8-2c0.7,0,1.2,0.4,1.5,0.9v-2.4h0.5v4.8c0,0.1,0.1,0.2,0.2,0.2v0.5
	c-0.1,0-0.2,0-0.2,0c-0.2,0-0.4-0.2-0.4-0.4v-0.4c-0.3,0.5-0.9,0.8-1.5,0.8C172.9,128.7,172.1,127.7,172.1,126.7z M175.3,127.3v-1.2
	c-0.2-0.5-0.8-1-1.4-1c-0.8,0-1.4,0.8-1.4,1.6c0,0.8,0.6,1.6,1.5,1.6C174.6,128.3,175.3,127.8,175.3,127.3z"/>
<path class="st0" d="M176.7,127.5c0-0.7,0.7-1.2,1.7-1.2c0.4,0,0.8,0.1,1.1,0.2v-0.4c0-0.7-0.4-1.1-1.1-1.1c-0.4,0-0.8,0.2-1.3,0.5
	l-0.2-0.3c0.5-0.3,1-0.5,1.5-0.5c0.9,0,1.6,0.6,1.6,1.6v1.8c0,0.1,0.1,0.2,0.2,0.2v0.5c-0.1,0-0.2,0-0.2,0c-0.2,0-0.4-0.1-0.4-0.4
	l0-0.3c-0.3,0.5-1,0.7-1.5,0.7C177.2,128.7,176.7,128.2,176.7,127.5z M179.4,127.8c0.1-0.1,0.1-0.2,0.1-0.3v-0.6
	c-0.3-0.1-0.7-0.2-1.1-0.2c-0.7,0-1.2,0.3-1.2,0.8c0,0.4,0.3,0.8,1,0.8C178.6,128.3,179.1,128.1,179.4,127.8z"/>
<path class="st0" d="M183,128.4c-0.1,0.1-0.5,0.2-0.9,0.2c-0.4,0-0.8-0.2-0.8-0.8v-2.8h-0.5v-0.4h0.5v-1.3h0.5v1.3h0.9v0.4h-0.9v2.7
	c0,0.3,0.2,0.4,0.5,0.4c0.3,0,0.5-0.1,0.6-0.2L183,128.4z"/>
<path class="st0" d="M183.3,126.7c0-1.1,0.8-2,2-2c1.1,0,1.9,0.9,1.9,2c0,0.1,0,0.2,0,0.2h-3.3c0.1,0.8,0.7,1.5,1.4,1.5
	c0.5,0,1-0.3,1.2-0.7l0.4,0.1c-0.2,0.6-0.9,1-1.7,1C184.2,128.7,183.3,127.8,183.3,126.7z M186.8,126.5c-0.1-0.8-0.7-1.4-1.4-1.4
	c-0.8,0-1.4,0.6-1.4,1.4H186.8z"/>
<path class="st0" d="M290.3,101.2c-0.4,0-0.7-0.3-0.7-0.7c0-0.4,0.3-0.7,0.7-0.7s0.7,0.3,0.7,0.7C291,100.9,290.7,101.2,290.3,101.2
	z"/>
<path class="st0" d="M299.3,98.8c-0.3-0.3-0.8-0.6-1.5-0.6c-0.9,0-1.4,0.4-1.4,1c0,0.6,0.5,0.8,1.5,1c1.1,0.2,1.8,0.5,1.8,1.5
	c0,1-0.8,1.4-1.9,1.4c-0.8,0-1.6-0.3-2.1-0.8l0.3-0.4c0.4,0.4,1.1,0.7,1.9,0.7c0.8,0,1.4-0.3,1.4-0.9c0-0.7-0.5-0.9-1.6-1.1
	c-1.1-0.3-1.7-0.5-1.7-1.4c0-1,0.8-1.5,1.9-1.5c0.7,0,1.3,0.2,1.7,0.6L299.3,98.8z"/>
<path class="st0" d="M300.4,101.2c0-1.1,0.8-2,2-2c1.1,0,1.9,0.9,1.9,2c0,0.1,0,0.2,0,0.2h-3.3c0.1,0.8,0.7,1.5,1.4,1.5
	c0.5,0,1-0.3,1.2-0.7l0.4,0.1c-0.2,0.6-0.9,1-1.7,1C301.2,103.2,300.4,102.3,300.4,101.2z M303.8,101c-0.1-0.8-0.7-1.4-1.4-1.4
	c-0.8,0-1.4,0.6-1.4,1.4H303.8z"/>
<path class="st0" d="M306.7,99.1c0.7,0,1.3,0.4,1.6,0.9l-0.5,0.2c-0.2-0.4-0.6-0.6-1.1-0.6c-0.8,0-1.4,0.7-1.4,1.6
	c0,0.9,0.6,1.6,1.4,1.6c0.5,0,1-0.3,1.1-0.7l0.5,0.1c-0.2,0.6-0.9,1-1.6,1c-1.1,0-2-0.9-2-2C304.8,100,305.6,99.1,306.7,99.1z"/>
<path class="st0" d="M309.1,101.5v-2.3h0.5v2.2c0,0.9,0.3,1.3,0.9,1.3s1.2-0.4,1.4-1.1v-2.5h0.5v3.3c0,0.1,0.1,0.2,0.2,0.2v0.5
	c-0.1,0-0.2,0-0.2,0c-0.2,0-0.4-0.2-0.4-0.4v-0.5c-0.3,0.6-1,1-1.7,1C309.6,103.2,309.1,102.6,309.1,101.5z"/>
<path class="st0" d="M315.6,99.7c-0.7,0-1.2,0.4-1.4,1v2.4h-0.5v-3.9h0.5v0.9c0.3-0.5,0.7-1,1.2-1c0.1,0,0.2,0,0.2,0V99.7z"/>
<path class="st0" d="M316,101.2c0-1.1,0.8-2,2-2c1.1,0,1.9,0.9,1.9,2c0,0.1,0,0.2,0,0.2h-3.3c0.1,0.8,0.7,1.5,1.4,1.5
	c0.5,0,1-0.3,1.2-0.7l0.4,0.1c-0.2,0.6-0.9,1-1.7,1C316.8,103.2,316,102.3,316,101.2z M319.4,101c-0.1-0.8-0.7-1.4-1.4-1.4
	s-1.4,0.6-1.4,1.4H319.4z"/>
<path class="st0" d="M290.3,109.7c-0.4,0-0.7-0.3-0.7-0.7c0-0.4,0.3-0.7,0.7-0.7s0.7,0.3,0.7,0.7C291,109.4,290.7,109.7,290.3,109.7
	z"/>
<path class="st0" d="M298.4,106.3c0.9,0,1.6,0.5,2,1.2l-0.4,0.3c-0.3-0.7-1-0.9-1.6-0.9c-1.3,0-2,1.1-2,2.2c0,1.2,0.9,2.2,2,2.2
	c0.6,0,1.3-0.3,1.6-1l0.4,0.2c-0.3,0.8-1.3,1.2-2.1,1.2c-1.5,0-2.5-1.4-2.5-2.7C295.8,107.6,296.8,106.3,298.4,106.3z"/>
<path class="st0" d="M301,109.7c0-1.1,0.8-2,1.9-2c1.1,0,1.9,0.9,1.9,2c0,1.1-0.8,2-1.9,2C301.8,111.7,301,110.8,301,109.7z
	 M302.9,111.3c0.8,0,1.4-0.7,1.4-1.6c0-0.9-0.6-1.6-1.4-1.6c-0.8,0-1.4,0.7-1.4,1.6C301.5,110.6,302.1,111.3,302.9,111.3z"/>
<path class="st0" d="M311.5,111.6H311v-2.2c0-0.9-0.3-1.3-0.9-1.3c-0.6,0-1.1,0.5-1.3,1.1v2.4h-0.5v-2.2c0-0.9-0.3-1.3-0.9-1.3
	c-0.6,0-1.1,0.5-1.3,1.1v2.4h-0.5v-3.9h0.5v0.9c0.3-0.6,0.9-1,1.5-1c0.7,0,1.1,0.4,1.2,1c0.4-0.7,0.9-1,1.5-1c0.9,0,1.2,0.7,1.2,1.7
	V111.6z"/>
<path class="st0" d="M313.1,110.8v2.4h-0.5v-5.5h0.5v0.8c0.3-0.5,0.9-0.8,1.5-0.8c1.1,0,1.9,1,1.9,2c0,1.1-0.7,2-1.8,2
	C313.9,111.7,313.4,111.3,313.1,110.8z M315.8,109.7c0-0.8-0.6-1.6-1.5-1.6c-0.5,0-1.2,0.4-1.3,1v1.2c0.2,0.6,0.8,1,1.4,1
	C315.3,111.3,315.8,110.5,315.8,109.7z"/>
<path class="st0" d="M317.2,106.1h0.5v4.6c0,0.3,0.2,0.5,0.5,0.5c0.1,0,0.3,0,0.4-0.1l0.1,0.4c-0.2,0.1-0.5,0.1-0.7,0.1
	c-0.5,0-0.8-0.3-0.8-0.8V106.1z"/>
<path class="st0" d="M319.4,112.8c0,0,0.1,0,0.1,0c0.1,0,0.2,0,0.3,0c0.1,0,0.2-0.2,0.6-1.2l-1.7-3.9h0.5l1.4,3.4l1.3-3.4h0.5l-2,5
	c-0.2,0.4-0.4,0.5-0.8,0.5c-0.1,0-0.2,0-0.3,0V112.8z"/>
<path class="st0" d="M290.3,118.2c-0.4,0-0.7-0.3-0.7-0.7c0-0.4,0.3-0.7,0.7-0.7s0.7,0.3,0.7,0.7C291,117.9,290.7,118.2,290.3,118.2
	z"/>
<path class="st0" d="M295.6,120.1l2.2-5.3h0.4l2.2,5.3h-0.6l-0.7-1.7h-2.4l-0.7,1.7H295.6z M298.1,115.4L297,118h2.2L298.1,115.4z"
	/>
<path class="st0" d="M301.1,118.5v-2.3h0.5v2.2c0,0.9,0.3,1.3,0.9,1.3c0.6,0,1.2-0.4,1.4-1.1v-2.5h0.5v3.3c0,0.1,0.1,0.2,0.2,0.2
	v0.5c-0.1,0-0.2,0-0.2,0c-0.2,0-0.4-0.2-0.4-0.4v-0.5c-0.3,0.6-1,1-1.7,1C301.5,120.2,301.1,119.6,301.1,118.5z"/>
<path class="st0" d="M305.3,118.2c0-1.1,0.8-2,1.8-2c0.7,0,1.2,0.4,1.5,0.9v-2.4h0.5v4.8c0,0.1,0.1,0.2,0.2,0.2v0.5
	c-0.1,0-0.2,0-0.2,0c-0.2,0-0.4-0.2-0.4-0.4v-0.4c-0.3,0.5-0.9,0.8-1.5,0.8C306.1,120.2,305.3,119.2,305.3,118.2z M308.6,118.8v-1.2
	c-0.2-0.5-0.8-1-1.4-1c-0.8,0-1.4,0.8-1.4,1.6c0,0.8,0.6,1.6,1.5,1.6C307.8,119.8,308.5,119.3,308.6,118.8z"/>
<path class="st0" d="M310.3,115.4v-0.8h0.5v0.8H310.3z M310.3,120.1v-3.9h0.5v3.9H310.3z"/>
<path class="st0" d="M313.8,119.9c-0.1,0.1-0.5,0.2-0.9,0.2c-0.4,0-0.8-0.2-0.8-0.8v-2.8h-0.5v-0.4h0.5v-1.3h0.5v1.3h0.9v0.4h-0.9
	v2.7c0,0.3,0.2,0.4,0.5,0.4c0.3,0,0.5-0.1,0.6-0.2L313.8,119.9z"/>
<path class="st0" d="M290.3,126.7c-0.4,0-0.7-0.3-0.7-0.7c0-0.4,0.3-0.7,0.7-0.7s0.7,0.3,0.7,0.7C291,126.4,290.7,126.7,290.3,126.7
	z"/>
<path class="st0" d="M300.9,128.6v-4.4l-1.9,3.4h-0.3l-2-3.4v4.4h-0.5v-5.3h0.5l2.1,3.6l2.1-3.6h0.5v5.3H300.9z"/>
<path class="st0" d="M302.4,126.7c0-1.1,0.8-2,2-2c1.1,0,1.9,0.9,1.9,2c0,0.1,0,0.2,0,0.2h-3.3c0.1,0.8,0.7,1.5,1.4,1.5
	c0.5,0,1-0.3,1.2-0.7l0.4,0.1c-0.2,0.6-0.9,1-1.7,1C303.2,128.7,302.4,127.8,302.4,126.7z M305.8,126.5c-0.1-0.8-0.7-1.4-1.4-1.4
	c-0.8,0-1.4,0.6-1.4,1.4H305.8z"/>
<path class="st0" d="M306.7,127.5c0-0.7,0.7-1.2,1.7-1.2c0.4,0,0.8,0.1,1.1,0.2v-0.4c0-0.7-0.4-1.1-1.1-1.1c-0.4,0-0.8,0.2-1.3,0.5
	l-0.2-0.3c0.5-0.3,1-0.5,1.5-0.5c0.9,0,1.6,0.6,1.6,1.6v1.8c0,0.1,0.1,0.2,0.2,0.2v0.5c-0.1,0-0.2,0-0.2,0c-0.2,0-0.4-0.1-0.4-0.4
	l0-0.3c-0.3,0.5-1,0.7-1.5,0.7C307.3,128.7,306.7,128.2,306.7,127.5z M309.4,127.8c0.1-0.1,0.1-0.2,0.1-0.3v-0.6
	c-0.3-0.1-0.7-0.2-1.1-0.2c-0.7,0-1.2,0.3-1.2,0.8c0,0.4,0.3,0.8,1,0.8C308.7,128.3,309.1,128.1,309.4,127.8z"/>
<path class="st0" d="M310.8,128.1l0.2-0.3c0.4,0.4,0.9,0.5,1.4,0.5c0.6,0,1-0.3,1-0.7c0-0.4-0.4-0.6-1.2-0.7c-0.9-0.2-1.3-0.4-1.3-1
	c0-0.8,0.7-1.2,1.5-1.2c0.6,0,1.1,0.2,1.4,0.5l-0.2,0.3c-0.3-0.3-0.7-0.5-1.2-0.5c-0.5,0-1,0.2-1,0.7c0,0.4,0.3,0.5,1,0.7
	c1,0.2,1.5,0.4,1.5,1.1c0,0.7-0.6,1.2-1.5,1.2C311.9,128.7,311.2,128.5,310.8,128.1z"/>
<path class="st0" d="M314.8,127v-2.3h0.5v2.2c0,0.9,0.3,1.3,0.9,1.3c0.6,0,1.2-0.4,1.4-1.1v-2.5h0.5v3.3c0,0.1,0.1,0.2,0.2,0.2v0.5
	c-0.1,0-0.2,0-0.2,0c-0.2,0-0.4-0.2-0.4-0.4v-0.5c-0.3,0.6-1,1-1.7,1C315.2,128.7,314.8,128.1,314.8,127z"/>
<path class="st0" d="M321.2,125.2c-0.7,0-1.2,0.4-1.4,1v2.4h-0.5v-3.9h0.5v0.9c0.3-0.5,0.7-1,1.2-1c0.1,0,0.2,0,0.2,0V125.2z"/>
<path class="st0" d="M321.6,126.7c0-1.1,0.8-2,2-2c1.1,0,1.9,0.9,1.9,2c0,0.1,0,0.2,0,0.2h-3.3c0.1,0.8,0.7,1.5,1.4,1.5
	c0.5,0,1-0.3,1.2-0.7l0.4,0.1c-0.2,0.6-0.9,1-1.7,1C322.5,128.7,321.6,127.8,321.6,126.7z M325,126.5c-0.1-0.8-0.7-1.4-1.4-1.4
	c-0.8,0-1.4,0.6-1.4,1.4H325z"/>
<path class="st0" d="M290.3,135.2c-0.4,0-0.7-0.3-0.7-0.7c0-0.4,0.3-0.7,0.7-0.7s0.7,0.3,0.7,0.7C291,134.9,290.7,135.2,290.3,135.2
	z"/>
<path class="st0" d="M296.2,137.1v-5.3h0.5v4.9h3.1v0.5H296.2z"/>
<path class="st0" d="M300.2,135.2c0-1.1,0.8-2,1.9-2c1.1,0,1.9,0.9,1.9,2c0,1.1-0.8,2-1.9,2C301,137.2,300.2,136.3,300.2,135.2z
	 M302.2,136.8c0.8,0,1.4-0.7,1.4-1.6c0-0.9-0.6-1.6-1.4-1.6c-0.8,0-1.4,0.7-1.4,1.6C300.7,136.1,301.4,136.8,302.2,136.8z"/>
<path class="st0" d="M304.7,135.2c0-1.1,0.7-2,1.8-2c0.7,0,1.2,0.4,1.5,0.9v-0.8h0.5v3.9c0,1.1-0.9,1.7-1.9,1.7
	c-0.9,0-1.4-0.3-1.7-0.9l0.3-0.2c0.3,0.5,0.9,0.7,1.4,0.7c0.8,0,1.4-0.4,1.4-1.3v-0.8c-0.3,0.5-0.9,0.8-1.4,0.8
	C305.4,137.2,304.7,136.2,304.7,135.2z M308,135.8v-1.2c-0.2-0.6-0.8-1-1.4-1c-0.9,0-1.4,0.8-1.4,1.6c0,0.8,0.6,1.6,1.5,1.6
	C307.3,136.8,307.9,136.3,308,135.8z"/>
<path class="st1" d="M12.9,24.4V45v23h394.2V45V24.4H12.9z M404.1,65H15.9V45h388.2V65z"/>
<path class="st2" d="M169,34.2c0-0.5,0.1-0.9,0.3-1.4c0.2-0.5,0.4-0.9,0.8-1.2s0.7-0.7,1.2-0.9c0.5-0.2,1-0.3,1.6-0.3
	c0.7,0,1.3,0.2,1.9,0.5c0.5,0.3,0.9,0.7,1.2,1.2l-1.2,0.8c-0.1-0.2-0.2-0.4-0.4-0.6c-0.1-0.2-0.3-0.3-0.5-0.4
	c-0.2-0.1-0.3-0.2-0.5-0.2c-0.2,0-0.4-0.1-0.5-0.1c-0.4,0-0.7,0.1-1,0.2c-0.3,0.2-0.5,0.4-0.7,0.6c-0.2,0.2-0.3,0.5-0.4,0.8
	c-0.1,0.3-0.1,0.6-0.1,0.9c0,0.3,0.1,0.7,0.2,1s0.3,0.6,0.5,0.8c0.2,0.2,0.4,0.4,0.7,0.6c0.3,0.1,0.6,0.2,0.9,0.2
	c0.2,0,0.4,0,0.6-0.1c0.2,0,0.4-0.1,0.5-0.2c0.2-0.1,0.3-0.2,0.5-0.4c0.1-0.2,0.3-0.3,0.4-0.5l1.2,0.7c-0.1,0.3-0.3,0.6-0.5,0.8
	c-0.2,0.2-0.5,0.4-0.8,0.6c-0.3,0.2-0.6,0.3-0.9,0.4c-0.3,0.1-0.7,0.1-1,0.1c-0.6,0-1.1-0.1-1.5-0.4c-0.5-0.2-0.9-0.5-1.2-0.9
	c-0.3-0.4-0.6-0.8-0.8-1.3C169.1,35.2,169,34.7,169,34.2z"/>
<path class="st2" d="M180.4,38.2c-0.6,0-1.1-0.1-1.6-0.3s-0.9-0.5-1.2-0.9c-0.3-0.4-0.6-0.8-0.8-1.3c-0.2-0.5-0.3-1-0.3-1.5
	c0-0.5,0.1-1,0.3-1.5s0.5-0.9,0.8-1.3s0.7-0.7,1.2-0.9s1-0.3,1.5-0.3c0.6,0,1.1,0.1,1.5,0.3c0.5,0.2,0.9,0.5,1.2,0.9
	s0.6,0.8,0.8,1.3c0.2,0.5,0.3,1,0.3,1.5c0,0.5-0.1,1-0.3,1.5c-0.2,0.5-0.5,0.9-0.8,1.3c-0.3,0.4-0.7,0.7-1.2,0.9
	S180.9,38.2,180.4,38.2z M178.1,34.2c0,0.3,0.1,0.7,0.2,1c0.1,0.3,0.3,0.6,0.4,0.8c0.2,0.2,0.4,0.4,0.7,0.6c0.3,0.1,0.6,0.2,1,0.2
	c0.4,0,0.7-0.1,1-0.2c0.3-0.1,0.5-0.4,0.7-0.6c0.2-0.2,0.3-0.5,0.4-0.8c0.1-0.3,0.1-0.6,0.1-1c0-0.3-0.1-0.7-0.2-1
	c-0.1-0.3-0.3-0.6-0.5-0.8c-0.2-0.2-0.4-0.4-0.7-0.6s-0.6-0.2-1-0.2c-0.4,0-0.7,0.1-1,0.2c-0.3,0.2-0.5,0.3-0.7,0.6
	c-0.2,0.2-0.3,0.5-0.4,0.8C178.1,33.6,178.1,33.9,178.1,34.2z"/>
<path class="st2" d="M185.3,38.1v-7.8h1.5v6.5h4v1.3H185.3z"/>
<path class="st2" d="M191.8,38.1v-7.8h1.5v6.5h4v1.3H191.8z"/>
<path class="st2" d="M200.4,30.3h1.3l3,7.8h-1.6l-0.7-1.9h-2.7l-0.7,1.9h-1.6L200.4,30.3z M202.2,35.1l-1.1-3.1l-1.1,3.1H202.2z"/>
<path class="st2" d="M211.9,36.1c0,0.3-0.1,0.6-0.2,0.9c-0.1,0.2-0.3,0.5-0.5,0.6c-0.2,0.2-0.5,0.3-0.8,0.4c-0.3,0.1-0.6,0.1-1,0.1
	h-3.8v-7.8h4.2c0.3,0,0.5,0.1,0.7,0.2c0.2,0.1,0.4,0.3,0.6,0.5c0.2,0.2,0.3,0.4,0.4,0.6s0.1,0.5,0.1,0.7c0,0.4-0.1,0.7-0.3,1.1
	c-0.2,0.3-0.5,0.6-0.8,0.7c0.4,0.1,0.8,0.4,1.1,0.7C211.7,35.2,211.9,35.6,211.9,36.1z M207.1,31.6v2h2c0.3,0,0.5-0.1,0.7-0.3
	c0.2-0.2,0.3-0.4,0.3-0.7c0-0.3-0.1-0.5-0.2-0.7c-0.2-0.2-0.4-0.3-0.6-0.3H207.1z M210.3,35.8c0-0.1,0-0.3-0.1-0.4
	c0-0.1-0.1-0.2-0.2-0.3c-0.1-0.1-0.2-0.2-0.3-0.2c-0.1-0.1-0.2-0.1-0.4-0.1h-2.3v2.1h2.3c0.1,0,0.3,0,0.4-0.1s0.2-0.1,0.3-0.2
	c0.1-0.1,0.2-0.2,0.2-0.3C210.3,36.1,210.3,36,210.3,35.8z"/>
<path class="st2" d="M216.4,38.2c-0.6,0-1.1-0.1-1.6-0.3s-0.9-0.5-1.2-0.9s-0.6-0.8-0.8-1.3s-0.3-1-0.3-1.5c0-0.5,0.1-1,0.3-1.5
	s0.5-0.9,0.8-1.3c0.3-0.4,0.7-0.7,1.2-0.9s1-0.3,1.5-0.3c0.6,0,1.1,0.1,1.5,0.3c0.5,0.2,0.9,0.5,1.2,0.9s0.6,0.8,0.8,1.3
	c0.2,0.5,0.3,1,0.3,1.5c0,0.5-0.1,1-0.3,1.5c-0.2,0.5-0.5,0.9-0.8,1.3c-0.3,0.4-0.7,0.7-1.2,0.9C217.5,38.1,216.9,38.2,216.4,38.2z
	 M214.1,34.2c0,0.3,0.1,0.7,0.2,1c0.1,0.3,0.2,0.6,0.4,0.8c0.2,0.2,0.4,0.4,0.7,0.6c0.3,0.1,0.6,0.2,1,0.2c0.4,0,0.7-0.1,1-0.2
	c0.3-0.1,0.5-0.4,0.7-0.6c0.2-0.2,0.3-0.5,0.4-0.8c0.1-0.3,0.1-0.6,0.1-1c0-0.3-0.1-0.7-0.2-1c-0.1-0.3-0.3-0.6-0.5-0.8
	c-0.2-0.2-0.4-0.4-0.7-0.6c-0.3-0.1-0.6-0.2-1-0.2c-0.4,0-0.7,0.1-1,0.2c-0.3,0.2-0.5,0.3-0.7,0.6c-0.2,0.2-0.3,0.5-0.4,0.8
	C214.2,33.6,214.1,33.9,214.1,34.2z"/>
<path class="st2" d="M221.4,38.1v-7.8h3.5c0.4,0,0.7,0.1,1,0.2c0.3,0.2,0.6,0.3,0.8,0.6c0.2,0.2,0.4,0.5,0.5,0.8
	c0.1,0.3,0.2,0.6,0.2,0.9c0,0.5-0.1,1-0.4,1.4c-0.3,0.4-0.6,0.7-1,0.9l1.8,2.9H226l-1.6-2.6h-1.5v2.6H221.4z M222.9,34.2h1.9
	c0.1,0,0.3,0,0.4-0.1s0.2-0.2,0.3-0.3s0.2-0.2,0.2-0.4c0.1-0.2,0.1-0.3,0.1-0.5c0-0.2,0-0.4-0.1-0.5c-0.1-0.2-0.1-0.3-0.2-0.4
	s-0.2-0.2-0.3-0.3c-0.1-0.1-0.3-0.1-0.4-0.1h-1.8V34.2z"/>
<path class="st2" d="M230.9,30.3h1.3l3,7.8h-1.6l-0.7-1.9h-2.7l-0.7,1.9h-1.6L230.9,30.3z M232.7,35.1l-1.1-3.1l-1.1,3.1H232.7z"/>
<path class="st2" d="M241.9,31.7h-2.5v6.5h-1.5v-6.5h-2.5v-1.3h6.5V31.7z"/>
<path class="st2" d="M248.3,36.8v1.3h-5.4v-7.8h5.3v1.3h-3.8v1.9h3.3v1.2h-3.3v2H248.3z"/>
<path class="st1" d="M12.9,151.4L12.9,151.4V172v58h394.2v-58v-20.6v0H12.9z M404.1,227H15.9v-55h388.2V227z"/>
<path class="st2" d="M139.5,165.2c-0.6,0-1.1-0.1-1.6-0.3s-0.9-0.5-1.2-0.9c-0.3-0.4-0.6-0.8-0.8-1.3c-0.2-0.5-0.3-1-0.3-1.5
	c0-0.5,0.1-1,0.3-1.5s0.5-0.9,0.8-1.3c0.3-0.4,0.7-0.7,1.2-0.9c0.5-0.2,1-0.3,1.5-0.3c0.6,0,1.1,0.1,1.5,0.3
	c0.5,0.2,0.9,0.5,1.2,0.9s0.6,0.8,0.8,1.3c0.2,0.5,0.3,1,0.3,1.5c0,0.5-0.1,1-0.3,1.5c-0.2,0.5-0.5,0.9-0.8,1.3
	c-0.3,0.4-0.7,0.7-1.2,0.9C140.6,165.1,140.1,165.2,139.5,165.2z M137.2,161.2c0,0.3,0.1,0.7,0.2,1c0.1,0.3,0.3,0.6,0.4,0.8
	s0.4,0.4,0.7,0.6s0.6,0.2,1,0.2c0.4,0,0.7-0.1,1-0.2c0.3-0.1,0.5-0.3,0.7-0.6c0.2-0.2,0.3-0.5,0.4-0.8s0.1-0.6,0.1-1
	c0-0.3-0.1-0.7-0.2-1s-0.3-0.6-0.5-0.8c-0.2-0.2-0.4-0.4-0.7-0.6c-0.3-0.1-0.6-0.2-1-0.2c-0.4,0-0.7,0.1-1,0.2
	c-0.3,0.2-0.5,0.3-0.7,0.6c-0.2,0.2-0.3,0.5-0.4,0.8C137.3,160.6,137.2,160.9,137.2,161.2z"/>
<path class="st2" d="M149.1,159.4c-0.1-0.1-0.1-0.1-0.3-0.2s-0.3-0.2-0.5-0.3c-0.2-0.1-0.4-0.2-0.6-0.2c-0.2-0.1-0.5-0.1-0.7-0.1
	c-0.4,0-0.7,0.1-0.9,0.2c-0.2,0.2-0.3,0.4-0.3,0.6c0,0.2,0,0.3,0.1,0.4c0.1,0.1,0.2,0.2,0.3,0.3c0.1,0.1,0.3,0.2,0.6,0.2
	c0.2,0.1,0.5,0.1,0.8,0.2c0.4,0.1,0.7,0.2,1,0.3c0.3,0.1,0.6,0.3,0.8,0.4c0.2,0.2,0.4,0.4,0.5,0.6c0.1,0.2,0.2,0.5,0.2,0.9
	c0,0.4-0.1,0.8-0.2,1.1s-0.4,0.5-0.6,0.7c-0.3,0.2-0.6,0.3-0.9,0.4c-0.3,0.1-0.7,0.1-1.1,0.1c-0.6,0-1.2-0.1-1.7-0.3
	c-0.6-0.2-1.1-0.4-1.5-0.7l0.7-1.3c0.1,0.1,0.2,0.2,0.4,0.3c0.2,0.1,0.4,0.2,0.6,0.3s0.5,0.2,0.8,0.3s0.6,0.1,0.9,0.1
	c0.8,0,1.3-0.3,1.3-0.8c0-0.2,0-0.3-0.1-0.4s-0.2-0.2-0.4-0.3c-0.2-0.1-0.4-0.2-0.6-0.2s-0.5-0.2-0.8-0.2c-0.4-0.1-0.7-0.2-1-0.3
	c-0.3-0.1-0.5-0.3-0.7-0.4c-0.2-0.2-0.3-0.4-0.4-0.6c-0.1-0.2-0.1-0.5-0.1-0.8c0-0.4,0.1-0.7,0.2-1.1c0.1-0.3,0.4-0.6,0.6-0.8
	c0.3-0.2,0.6-0.4,0.9-0.5s0.7-0.2,1.1-0.2c0.5,0,1.1,0.1,1.5,0.3c0.5,0.2,0.9,0.4,1.2,0.6L149.1,159.4z"/>
<path class="st2" d="M155.9,159.4c-0.1-0.1-0.1-0.1-0.3-0.2s-0.3-0.2-0.5-0.3c-0.2-0.1-0.4-0.2-0.6-0.2c-0.2-0.1-0.5-0.1-0.7-0.1
	c-0.4,0-0.7,0.1-0.9,0.2c-0.2,0.2-0.3,0.4-0.3,0.6c0,0.2,0,0.3,0.1,0.4c0.1,0.1,0.2,0.2,0.3,0.3c0.1,0.1,0.3,0.2,0.6,0.2
	c0.2,0.1,0.5,0.1,0.8,0.2c0.4,0.1,0.7,0.2,1,0.3c0.3,0.1,0.6,0.3,0.8,0.4c0.2,0.2,0.4,0.4,0.5,0.6c0.1,0.2,0.2,0.5,0.2,0.9
	c0,0.4-0.1,0.8-0.2,1.1s-0.4,0.5-0.6,0.7c-0.3,0.2-0.6,0.3-0.9,0.4c-0.3,0.1-0.7,0.1-1.1,0.1c-0.6,0-1.2-0.1-1.7-0.3
	c-0.6-0.2-1.1-0.4-1.5-0.7l0.7-1.3c0.1,0.1,0.2,0.2,0.4,0.3c0.2,0.1,0.4,0.2,0.6,0.3s0.5,0.2,0.8,0.3s0.6,0.1,0.9,0.1
	c0.8,0,1.3-0.3,1.3-0.8c0-0.2,0-0.3-0.1-0.4s-0.2-0.2-0.4-0.3c-0.2-0.1-0.4-0.2-0.6-0.2s-0.5-0.2-0.8-0.2c-0.4-0.1-0.7-0.2-1-0.3
	c-0.3-0.1-0.5-0.3-0.7-0.4c-0.2-0.2-0.3-0.4-0.4-0.6c-0.1-0.2-0.1-0.5-0.1-0.8c0-0.4,0.1-0.7,0.2-1.1c0.1-0.3,0.4-0.6,0.6-0.8
	c0.3-0.2,0.6-0.4,0.9-0.5s0.7-0.2,1.1-0.2c0.5,0,1.1,0.1,1.5,0.3c0.5,0.2,0.9,0.4,1.2,0.6L155.9,159.4z"/>
<path class="st2" d="M162.8,157.3h1.3l3,7.8h-1.6l-0.7-1.9h-2.7l-0.7,1.9h-1.6L162.8,157.3z M164.6,162.1l-1.1-3.1l-1.1,3.1H164.6z"
	/>
<path class="st2" d="M171.3,163.9c0.4,0,0.7-0.1,0.9-0.2s0.4-0.3,0.6-0.6c0.1-0.2,0.3-0.5,0.3-0.8c0.1-0.3,0.1-0.6,0.1-0.9v-4h1.5v4
	c0,0.5-0.1,1-0.2,1.5c-0.1,0.5-0.3,0.9-0.6,1.2c-0.3,0.4-0.6,0.6-1.1,0.8s-0.9,0.3-1.6,0.3c-0.6,0-1.2-0.1-1.6-0.3
	c-0.4-0.2-0.8-0.5-1.1-0.9c-0.3-0.4-0.5-0.8-0.6-1.2c-0.1-0.5-0.2-1-0.2-1.5v-4h1.5v4c0,0.3,0,0.6,0.1,1c0.1,0.3,0.2,0.6,0.3,0.8
	c0.2,0.2,0.3,0.4,0.6,0.6C170.7,163.8,171,163.9,171.3,163.9z"/>
<path class="st2" d="M182.1,158.7h-2.5v6.5h-1.5v-6.5h-2.5v-1.3h6.5V158.7z"/>
<path class="st2" d="M186.4,165.2c-0.6,0-1.1-0.1-1.6-0.3s-0.9-0.5-1.2-0.9c-0.3-0.4-0.6-0.8-0.8-1.3c-0.2-0.5-0.3-1-0.3-1.5
	c0-0.5,0.1-1,0.3-1.5s0.5-0.9,0.8-1.3c0.3-0.4,0.7-0.7,1.2-0.9c0.5-0.2,1-0.3,1.5-0.3c0.6,0,1.1,0.1,1.5,0.3
	c0.5,0.2,0.9,0.5,1.2,0.9s0.6,0.8,0.8,1.3c0.2,0.5,0.3,1,0.3,1.5c0,0.5-0.1,1-0.3,1.5c-0.2,0.5-0.5,0.9-0.8,1.3
	c-0.3,0.4-0.7,0.7-1.2,0.9C187.5,165.1,186.9,165.2,186.4,165.2z M184.1,161.2c0,0.3,0.1,0.7,0.2,1c0.1,0.3,0.3,0.6,0.4,0.8
	s0.4,0.4,0.7,0.6s0.6,0.2,1,0.2c0.4,0,0.7-0.1,1-0.2c0.3-0.1,0.5-0.3,0.7-0.6c0.2-0.2,0.3-0.5,0.4-0.8s0.1-0.6,0.1-1
	c0-0.3-0.1-0.7-0.2-1s-0.3-0.6-0.5-0.8c-0.2-0.2-0.4-0.4-0.7-0.6c-0.3-0.1-0.6-0.2-1-0.2c-0.4,0-0.7,0.1-1,0.2
	c-0.3,0.2-0.5,0.3-0.7,0.6c-0.2,0.2-0.3,0.5-0.4,0.8C184.2,160.6,184.1,160.9,184.1,161.2z"/>
<path class="st2" d="M197.7,165.1V160l-2,3.9h-0.8l-2-3.9v5.2h-1.5v-7.8h1.6l2.3,4.4l2.3-4.4h1.6v7.8H197.7z"/>
<path class="st2" d="M203.1,157.3h1.3l3,7.8h-1.6l-0.7-1.9h-2.7l-0.7,1.9h-1.6L203.1,157.3z M204.9,162.1l-1.1-3.1l-1.1,3.1H204.9z"
	/>
<path class="st2" d="M214.1,158.7h-2.5v6.5h-1.5v-6.5h-2.5v-1.3h6.5V158.7z"/>
<path class="st2" d="M215.1,165.1v-7.8h1.5v7.8H215.1z"/>
<path class="st2" d="M221.6,165.2c-0.6,0-1.1-0.1-1.6-0.3s-0.9-0.5-1.2-0.9s-0.6-0.8-0.8-1.3s-0.3-1-0.3-1.5c0-0.5,0.1-1,0.3-1.5
	s0.5-0.9,0.8-1.3c0.3-0.4,0.7-0.7,1.2-0.9c0.5-0.2,1-0.3,1.5-0.3c0.6,0,1.1,0.1,1.5,0.3c0.5,0.2,0.9,0.5,1.2,0.9s0.6,0.8,0.8,1.3
	c0.2,0.5,0.3,1,0.3,1.5c0,0.5-0.1,1-0.3,1.5c-0.2,0.5-0.5,0.9-0.8,1.3c-0.3,0.4-0.7,0.7-1.2,0.9
	C222.6,165.1,222.1,165.2,221.6,165.2z M219.3,161.2c0,0.3,0.1,0.7,0.2,1c0.1,0.3,0.2,0.6,0.4,0.8c0.2,0.2,0.4,0.4,0.7,0.6
	c0.3,0.1,0.6,0.2,1,0.2c0.4,0,0.7-0.1,1-0.2c0.3-0.1,0.5-0.3,0.7-0.6c0.2-0.2,0.3-0.5,0.4-0.8s0.1-0.6,0.1-1c0-0.3-0.1-0.7-0.2-1
	c-0.1-0.3-0.3-0.6-0.5-0.8c-0.2-0.2-0.4-0.4-0.7-0.6c-0.3-0.1-0.6-0.2-1-0.2c-0.4,0-0.7,0.1-1,0.2s-0.5,0.3-0.7,0.6
	c-0.2,0.2-0.3,0.5-0.4,0.8C219.4,160.6,219.3,160.9,219.3,161.2z"/>
<path class="st2" d="M228.1,160.1v5h-1.5v-7.8h1.2l4.1,5.1v-5.1h1.5v7.8h-1.2L228.1,160.1z"/>
<path class="st2" d="M243,163.8v1.3h-5.4v-7.8h5.3v1.3h-3.8v1.9h3.3v1.2h-3.3v2H243z"/>
<path class="st2" d="M245.7,160.1v5h-1.5v-7.8h1.2l4.1,5.1v-5.1h1.5v7.8h-1.2L245.7,160.1z"/>
<path class="st2" d="M258,164.3c-0.6,0.6-1.3,0.9-2.2,0.9c-0.5,0-1-0.1-1.4-0.3s-0.8-0.5-1.2-0.8s-0.6-0.8-0.8-1.3
	c-0.2-0.5-0.3-1-0.3-1.6c0-0.5,0.1-1,0.3-1.5c0.2-0.5,0.5-0.9,0.8-1.2c0.3-0.4,0.7-0.6,1.2-0.8c0.5-0.2,1-0.3,1.5-0.3
	c0.7,0,1.4,0.2,1.9,0.5c0.5,0.3,0.9,0.7,1.2,1.2l-1.1,0.8c-0.2-0.4-0.5-0.7-0.8-0.9s-0.7-0.3-1.2-0.3c-0.3,0-0.6,0.1-0.9,0.2
	c-0.3,0.1-0.5,0.3-0.7,0.6c-0.2,0.2-0.3,0.5-0.5,0.8c-0.1,0.3-0.2,0.6-0.2,1c0,0.4,0.1,0.7,0.2,1c0.1,0.3,0.3,0.6,0.5,0.8
	c0.2,0.2,0.4,0.4,0.7,0.6c0.3,0.1,0.6,0.2,0.9,0.2c0.8,0,1.4-0.4,2-1.1v-0.5h-1.6v-1.1h2.8v4H258V164.3z"/>
<path class="st2" d="M260.6,165.1v-7.8h1.5v7.8H260.6z"/>
<path class="st2" d="M265.2,160.1v5h-1.5v-7.8h1.2l4.1,5.1v-5.1h1.5v7.8h-1.2L265.2,160.1z"/>
<path class="st2" d="M277.5,163.8v1.3h-5.4v-7.8h5.3v1.3h-3.8v1.9h3.3v1.2h-3.3v2H277.5z"/>
<path class="st2" d="M283.4,159.4c-0.1-0.1-0.1-0.1-0.3-0.2s-0.3-0.2-0.5-0.3c-0.2-0.1-0.4-0.2-0.6-0.2c-0.2-0.1-0.5-0.1-0.7-0.1
	c-0.4,0-0.7,0.1-0.9,0.2s-0.3,0.4-0.3,0.6c0,0.2,0,0.3,0.1,0.4s0.2,0.2,0.3,0.3c0.1,0.1,0.3,0.2,0.6,0.2c0.2,0.1,0.5,0.1,0.8,0.2
	c0.4,0.1,0.7,0.2,1,0.3s0.6,0.3,0.8,0.4c0.2,0.2,0.4,0.4,0.5,0.6c0.1,0.2,0.2,0.5,0.2,0.9c0,0.4-0.1,0.8-0.2,1.1
	c-0.2,0.3-0.4,0.5-0.6,0.7c-0.3,0.2-0.6,0.3-0.9,0.4s-0.7,0.1-1.1,0.1c-0.6,0-1.2-0.1-1.7-0.3c-0.6-0.2-1.1-0.4-1.5-0.7l0.7-1.3
	c0.1,0.1,0.2,0.2,0.4,0.3c0.2,0.1,0.4,0.2,0.6,0.3s0.5,0.2,0.8,0.3s0.6,0.1,0.9,0.1c0.8,0,1.3-0.3,1.3-0.8c0-0.2,0-0.3-0.1-0.4
	c-0.1-0.1-0.2-0.2-0.4-0.3s-0.4-0.2-0.6-0.2c-0.2-0.1-0.5-0.2-0.8-0.2c-0.4-0.1-0.7-0.2-1-0.3c-0.3-0.1-0.5-0.3-0.7-0.4
	c-0.2-0.2-0.3-0.4-0.4-0.6c-0.1-0.2-0.1-0.5-0.1-0.8c0-0.4,0.1-0.7,0.2-1.1c0.1-0.3,0.3-0.6,0.6-0.8c0.3-0.2,0.6-0.4,0.9-0.5
	s0.7-0.2,1.1-0.2c0.5,0,1.1,0.1,1.5,0.3c0.5,0.2,0.9,0.4,1.2,0.6L283.4,159.4z"/>
<path class="st1" d="M140.5,73.4H12.9h0V146h127.6L140.5,73.4L140.5,73.4z M15.9,143V94h121.6v49H15.9z"/>
<path class="st1" d="M273.7,73.4H146.1h0V146h127.6L273.7,73.4L273.7,73.4z M149.1,143V94h121.6v49H149.1z"/>
<path class="st1" d="M407,73.4H279.4h0V146H407L407,73.4L407,73.4z M282.4,143V94H404v49H282.4z"/>
<path class="st2" d="M67.2,85.1c0,0.3-0.1,0.6-0.2,0.9c-0.1,0.2-0.3,0.5-0.5,0.6c-0.2,0.2-0.5,0.3-0.8,0.4c-0.3,0.1-0.6,0.1-1,0.1
	h-3.8v-7.8h4.2c0.3,0,0.5,0.1,0.7,0.2c0.2,0.1,0.4,0.3,0.6,0.5c0.2,0.2,0.3,0.4,0.4,0.6s0.1,0.5,0.1,0.7c0,0.4-0.1,0.7-0.3,1.1
	c-0.2,0.3-0.5,0.6-0.8,0.7c0.4,0.1,0.8,0.4,1.1,0.7C67.1,84.2,67.2,84.6,67.2,85.1z M62.4,80.6v2h2c0.3,0,0.5-0.1,0.7-0.3
	c0.2-0.2,0.3-0.4,0.3-0.7c0-0.3-0.1-0.5-0.2-0.7c-0.2-0.2-0.4-0.3-0.6-0.3H62.4z M65.7,84.8c0-0.1,0-0.3-0.1-0.4
	c0-0.1-0.1-0.2-0.2-0.3c-0.1-0.1-0.2-0.2-0.3-0.2c-0.1-0.1-0.2-0.1-0.4-0.1h-2.3v2.1h2.3c0.1,0,0.3,0,0.4-0.1s0.2-0.1,0.3-0.2
	c0.1-0.1,0.2-0.2,0.2-0.3C65.6,85.1,65.7,85,65.7,84.8z"/>
<path class="st2" d="M71.7,85.9c0.4,0,0.7-0.1,0.9-0.2c0.2-0.1,0.4-0.3,0.6-0.6c0.1-0.2,0.3-0.5,0.3-0.8c0.1-0.3,0.1-0.6,0.1-0.9v-4
	h1.5v4c0,0.5-0.1,1-0.2,1.5s-0.3,0.9-0.6,1.2c-0.3,0.4-0.6,0.6-1.1,0.8s-0.9,0.3-1.6,0.3c-0.6,0-1.2-0.1-1.6-0.3
	c-0.4-0.2-0.8-0.5-1.1-0.9c-0.3-0.4-0.5-0.8-0.6-1.2c-0.1-0.5-0.2-1-0.2-1.5v-4h1.5v4c0,0.3,0,0.6,0.1,1s0.2,0.6,0.3,0.8
	s0.3,0.4,0.6,0.6C71,85.8,71.3,85.9,71.7,85.9z"/>
<path class="st2" d="M76.6,87.1v-7.8h1.5v7.8H76.6z"/>
<path class="st2" d="M79.8,87.1v-7.8h1.5v6.5h4v1.3H79.8z"/>
<path class="st2" d="M86.2,87.1v-7.8H89c0.6,0,1.2,0.1,1.7,0.3c0.5,0.2,0.9,0.5,1.2,0.8c0.3,0.4,0.6,0.8,0.7,1.2
	c0.2,0.5,0.2,1,0.2,1.5c0,0.6-0.1,1.1-0.3,1.6c-0.2,0.5-0.4,0.9-0.8,1.2c-0.3,0.3-0.7,0.6-1.2,0.8c-0.5,0.2-1,0.3-1.6,0.3H86.2z
	 M91.4,83.2c0-0.4-0.1-0.7-0.2-1c-0.1-0.3-0.3-0.6-0.5-0.8c-0.2-0.2-0.4-0.4-0.7-0.5c-0.3-0.1-0.6-0.2-1-0.2h-1.3v5.1H89
	c0.4,0,0.7-0.1,1-0.2c0.3-0.1,0.5-0.3,0.7-0.5c0.2-0.2,0.3-0.5,0.4-0.8C91.3,83.9,91.4,83.6,91.4,83.2z"/>
<path class="st2" d="M189.1,87.1v-7.8h2.8c0.6,0,1.2,0.1,1.7,0.3c0.5,0.2,0.9,0.5,1.2,0.8c0.3,0.4,0.6,0.8,0.7,1.2
	c0.2,0.5,0.2,1,0.2,1.5c0,0.6-0.1,1.1-0.3,1.6c-0.2,0.5-0.4,0.9-0.8,1.2c-0.3,0.3-0.7,0.6-1.2,0.8c-0.5,0.2-1,0.3-1.6,0.3H189.1z
	 M194.2,83.2c0-0.4-0.1-0.7-0.2-1c-0.1-0.3-0.3-0.6-0.5-0.8c-0.2-0.2-0.4-0.4-0.7-0.5c-0.3-0.1-0.6-0.2-1-0.2h-1.3v5.1h1.3
	c0.4,0,0.7-0.1,1-0.2c0.3-0.1,0.5-0.3,0.7-0.5c0.2-0.2,0.3-0.5,0.4-0.8C194.2,83.9,194.2,83.6,194.2,83.2z"/>
<path class="st2" d="M202.4,85.8v1.3H197v-7.8h5.3v1.3h-3.8v1.9h3.3v1.2h-3.3v2H202.4z"/>
<path class="st2" d="M203.6,87.1v-7.8h3.3c0.4,0,0.7,0.1,1,0.2c0.3,0.2,0.6,0.3,0.8,0.6c0.2,0.2,0.4,0.5,0.5,0.8
	c0.1,0.3,0.2,0.6,0.2,0.9c0,0.3-0.1,0.7-0.2,1c-0.1,0.3-0.3,0.6-0.5,0.8c-0.2,0.2-0.5,0.4-0.8,0.6s-0.6,0.2-1,0.2h-1.8v2.6H203.6z
	 M205.1,83.2h1.8c0.3,0,0.5-0.1,0.7-0.3c0.2-0.2,0.3-0.5,0.3-0.9c0-0.2,0-0.4-0.1-0.5s-0.1-0.3-0.2-0.4s-0.2-0.2-0.3-0.2
	s-0.3-0.1-0.4-0.1h-1.7V83.2z"/>
<path class="st2" d="M210.4,87.1v-7.8h1.5v6.5h4v1.3H210.4z"/>
<path class="st2" d="M220.2,87.2c-0.6,0-1.1-0.1-1.6-0.3s-0.9-0.5-1.2-0.9s-0.6-0.8-0.8-1.3s-0.3-1-0.3-1.5c0-0.5,0.1-1,0.3-1.5
	s0.5-0.9,0.8-1.3s0.7-0.7,1.2-0.9c0.5-0.2,1-0.3,1.5-0.3c0.6,0,1.1,0.1,1.5,0.3s0.9,0.5,1.2,0.9s0.6,0.8,0.8,1.3
	c0.2,0.5,0.3,1,0.3,1.5c0,0.5-0.1,1-0.3,1.5c-0.2,0.5-0.5,0.9-0.8,1.3c-0.3,0.4-0.7,0.7-1.2,0.9C221.2,87.1,220.7,87.2,220.2,87.2z
	 M217.9,83.2c0,0.3,0.1,0.7,0.2,1c0.1,0.3,0.3,0.6,0.4,0.8c0.2,0.2,0.4,0.4,0.7,0.6c0.3,0.1,0.6,0.2,1,0.2c0.4,0,0.7-0.1,1-0.2
	c0.3-0.1,0.5-0.4,0.7-0.6c0.2-0.2,0.3-0.5,0.4-0.8c0.1-0.3,0.1-0.6,0.1-1c0-0.3-0.1-0.7-0.2-1c-0.1-0.3-0.3-0.6-0.5-0.8
	c-0.2-0.2-0.4-0.4-0.7-0.6s-0.6-0.2-1-0.2c-0.4,0-0.7,0.1-1,0.2c-0.3,0.2-0.5,0.3-0.7,0.6c-0.2,0.2-0.3,0.5-0.4,0.8
	C218,82.6,217.9,82.9,217.9,83.2z"/>
<path class="st2" d="M226,79.3l1.9,3.8l2-3.8h1.6l-2.8,5.1v2.7h-1.5v-2.8l-2.8-5.1H226z"/>
<path class="st2" d="M326.7,87.1V82l-2,3.9h-0.8l-2-3.9v5.2h-1.5v-7.8h1.6l2.3,4.4l2.3-4.4h1.6v7.8H326.7z"/>
<path class="st2" d="M332.1,79.3h1.3l3,7.8h-1.6l-0.7-1.9h-2.7l-0.7,1.9h-1.6L332.1,79.3z M333.9,84.1l-1.1-3.1l-1.1,3.1H333.9z"/>
<path class="st2" d="M338.8,82.1v5h-1.5v-7.8h1.2l4.1,5.1v-5.1h1.5v7.8h-1.2L338.8,82.1z"/>
<path class="st2" d="M347.9,79.3h1.3l3,7.8h-1.6l-0.7-1.9h-2.7l-0.7,1.9h-1.6L347.9,79.3z M349.6,84.1l-1.1-3.1l-1.1,3.1H349.6z"/>
<path class="st2" d="M358.5,86.3c-0.6,0.6-1.3,0.9-2.2,0.9c-0.5,0-1-0.1-1.4-0.3c-0.5-0.2-0.8-0.5-1.2-0.8c-0.3-0.4-0.6-0.8-0.8-1.3
	c-0.2-0.5-0.3-1-0.3-1.6c0-0.5,0.1-1,0.3-1.5s0.5-0.9,0.8-1.2c0.3-0.4,0.7-0.6,1.2-0.8c0.5-0.2,1-0.3,1.5-0.3c0.7,0,1.4,0.2,1.9,0.5
	c0.5,0.3,0.9,0.7,1.2,1.2l-1.1,0.8c-0.2-0.4-0.5-0.7-0.8-0.9c-0.4-0.2-0.7-0.3-1.2-0.3c-0.3,0-0.6,0.1-0.9,0.2
	c-0.3,0.1-0.5,0.3-0.7,0.6c-0.2,0.2-0.3,0.5-0.5,0.8c-0.1,0.3-0.2,0.6-0.2,1c0,0.4,0.1,0.7,0.2,1c0.1,0.3,0.3,0.6,0.5,0.8
	s0.4,0.4,0.7,0.6c0.3,0.1,0.6,0.2,0.9,0.2c0.8,0,1.4-0.4,2-1.1v-0.5h-1.6v-1.1h2.8v4h-1.3V86.3z"/>
<path class="st2" d="M366.5,85.8v1.3H361v-7.8h5.3v1.3h-3.8v1.9h3.3v1.2h-3.3v2H366.5z"/>
<rect x="20.9" y="176.6" class="st3" width="123.3" height="46"/>
<rect x="148.3" y="176.6" class="st4" width="123.3" height="46"/>
<rect x="275.7" y="176.6" class="st5" width="123.3" height="46"/>
<path class="st2" d="M34.7,216.5v-5.7h0.6v5.7H34.7z"/>
<path class="st2" d="M40,216.5h-0.5v-2.3c0-1-0.3-1.4-0.9-1.4c-0.6,0-1.3,0.5-1.5,1.2v2.6h-0.5v-4.2H37v0.9c0.3-0.6,1-1,1.8-1
	c0.9,0,1.2,0.7,1.2,1.8V216.5z"/>
<path class="st2" d="M41.4,216.5v-3.2h-0.6v-0.4h0.6v-0.6c0-1,0.5-1.6,1.2-1.6c0.3,0,0.6,0.1,0.9,0.3l-0.2,0.4
	c-0.1-0.1-0.4-0.2-0.6-0.2c-0.5,0-0.8,0.4-0.8,1.2v0.6h1.2v0.4h-1.2v3.2H41.4z"/>
<path class="st2" d="M46,212.8c-0.7,0-1.3,0.4-1.5,1.1v2.6h-0.5v-4.2h0.5v1c0.3-0.6,0.8-1,1.3-1c0.1,0,0.2,0,0.2,0V212.8z"/>
<path class="st2" d="M46.4,215.3c0-0.8,0.7-1.3,1.8-1.3c0.4,0,0.9,0.1,1.2,0.2v-0.4c0-0.7-0.5-1.2-1.2-1.2c-0.4,0-0.9,0.2-1.3,0.5
	l-0.2-0.4c0.5-0.4,1-0.5,1.6-0.5c1,0,1.7,0.6,1.7,1.7v1.9c0,0.2,0.1,0.2,0.2,0.2v0.5c-0.1,0-0.2,0-0.2,0c-0.2,0-0.4-0.1-0.4-0.4
	l0-0.3c-0.4,0.5-1,0.8-1.6,0.8C47,216.6,46.4,216,46.4,215.3z M49.3,215.6c0.1-0.1,0.1-0.2,0.1-0.3v-0.7c-0.4-0.1-0.8-0.2-1.1-0.2
	c-0.8,0-1.3,0.3-1.3,0.9c0,0.4,0.3,0.9,1,0.9C48.5,216.1,49,215.9,49.3,215.6z"/>
<path class="st2" d="M50.8,215.9l0.2-0.4c0.5,0.4,0.9,0.6,1.5,0.6c0.7,0,1.1-0.3,1.1-0.8c0-0.5-0.4-0.6-1.3-0.8
	c-1-0.2-1.4-0.4-1.4-1.1c0-0.8,0.7-1.3,1.6-1.3c0.6,0,1.2,0.2,1.5,0.6l-0.3,0.3c-0.3-0.3-0.8-0.5-1.3-0.5c-0.6,0-1,0.2-1,0.8
	c0,0.4,0.3,0.5,1,0.7c1.1,0.3,1.6,0.5,1.6,1.2c0,0.8-0.6,1.2-1.6,1.2C51.9,216.6,51.2,216.3,50.8,215.9z"/>
<path class="st2" d="M57,216.3c-0.1,0.1-0.5,0.2-0.9,0.2c-0.5,0-0.9-0.3-0.9-0.8v-3h-0.6v-0.4h0.6v-1.4h0.5v1.4h1v0.4h-1v2.8
	c0,0.3,0.2,0.4,0.5,0.4c0.3,0,0.6-0.1,0.6-0.2L57,216.3z"/>
<path class="st2" d="M59.7,212.8c-0.7,0-1.3,0.4-1.5,1.1v2.6h-0.5v-4.2h0.5v1c0.3-0.6,0.8-1,1.3-1c0.1,0,0.2,0,0.2,0V212.8z"/>
<path class="st2" d="M60.4,214.8v-2.4H61v2.4c0,1,0.3,1.4,1,1.4c0.6,0,1.3-0.4,1.5-1.1v-2.6H64v3.5c0,0.2,0.1,0.2,0.2,0.2v0.5
	c-0.1,0-0.2,0-0.2,0c-0.2,0-0.4-0.2-0.4-0.4v-0.6c-0.4,0.6-1,1-1.8,1C60.9,216.6,60.4,215.9,60.4,214.8z"/>
<path class="st2" d="M67,212.2c0.8,0,1.4,0.4,1.7,1l-0.5,0.2c-0.2-0.4-0.7-0.7-1.2-0.7c-0.8,0-1.5,0.7-1.5,1.7
	c0,0.9,0.7,1.7,1.5,1.7c0.5,0,1.1-0.3,1.2-0.7l0.5,0.2c-0.2,0.6-0.9,1-1.7,1c-1.2,0-2.1-1-2.1-2.2S65.8,212.2,67,212.2z"/>
<path class="st2" d="M71.6,216.3c-0.1,0.1-0.5,0.2-0.9,0.2c-0.5,0-0.9-0.3-0.9-0.8v-3h-0.6v-0.4h0.6v-1.4h0.5v1.4h1v0.4h-1v2.8
	c0,0.3,0.2,0.4,0.5,0.4c0.3,0,0.6-0.1,0.6-0.2L71.6,216.3z"/>
<path class="st2" d="M72.2,214.8v-2.4h0.5v2.4c0,1,0.3,1.4,1,1.4c0.6,0,1.3-0.4,1.5-1.1v-2.6h0.5v3.5c0,0.2,0.1,0.2,0.2,0.2v0.5
	c-0.1,0-0.2,0-0.2,0c-0.2,0-0.4-0.2-0.4-0.4v-0.6c-0.4,0.6-1,1-1.8,1C72.7,216.6,72.2,215.9,72.2,214.8z"/>
<path class="st2" d="M79.1,212.8c-0.7,0-1.3,0.4-1.5,1.1v2.6H77v-4.2h0.5v1c0.3-0.6,0.8-1,1.3-1c0.1,0,0.2,0,0.2,0V212.8z"/>
<path class="st2" d="M79.6,214.4c0-1.2,0.9-2.1,2.1-2.1c1.2,0,2.1,1,2.1,2.1c0,0.1,0,0.2,0,0.2h-3.6c0.1,0.9,0.7,1.6,1.5,1.6
	c0.6,0,1.1-0.3,1.3-0.8l0.5,0.1c-0.3,0.6-1,1-1.8,1C80.5,216.6,79.6,215.6,79.6,214.4z M83.2,214.2c-0.1-0.9-0.7-1.5-1.5-1.5
	c-0.8,0-1.5,0.6-1.5,1.5H83.2z"/>
<path class="st2" d="M86.1,216.5l2.4-5.7H89l2.4,5.7h-0.6l-0.7-1.8h-2.6l-0.7,1.8H86.1z M88.7,211.5l-1.2,2.8h2.3L88.7,211.5z"/>
<path class="st2" d="M92,214.8v-2.4h0.5v2.4c0,1,0.3,1.4,1,1.4c0.6,0,1.3-0.4,1.5-1.1v-2.6h0.5v3.5c0,0.2,0.1,0.2,0.2,0.2v0.5
	c-0.1,0-0.2,0-0.2,0c-0.2,0-0.4-0.2-0.4-0.4v-0.6c-0.4,0.6-1,1-1.8,1C92.4,216.6,92,215.9,92,214.8z"/>
<path class="st2" d="M98.8,216.3c-0.1,0.1-0.5,0.2-0.9,0.2c-0.5,0-0.9-0.3-0.9-0.8v-3h-0.6v-0.4H97v-1.4h0.5v1.4h1v0.4h-1v2.8
	c0,0.3,0.2,0.4,0.5,0.4c0.3,0,0.6-0.1,0.6-0.2L98.8,216.3z"/>
<path class="st2" d="M99.2,214.4c0-1.2,0.9-2.2,2.1-2.2s2.1,1,2.1,2.2c0,1.2-0.9,2.2-2.1,2.2C100,216.6,99.2,215.6,99.2,214.4z
	 M101.2,216.1c0.8,0,1.5-0.8,1.5-1.7s-0.7-1.7-1.5-1.7c-0.8,0-1.5,0.8-1.5,1.7C99.7,215.3,100.4,216.1,101.2,216.1z"/>
<path class="st2" d="M110.4,216.5h-0.5v-2.3c0-1-0.3-1.4-0.9-1.4c-0.6,0-1.2,0.5-1.4,1.2v2.5H107v-2.3c0-1-0.3-1.4-0.9-1.4
	c-0.6,0-1.2,0.5-1.4,1.2v2.6h-0.5v-4.2h0.5v0.9c0.3-0.6,0.9-1,1.6-1c0.7,0,1.1,0.4,1.2,1.1c0.4-0.7,0.9-1.1,1.6-1.1
	c0.9,0,1.3,0.7,1.3,1.8V216.5z"/>
<path class="st2" d="M111.2,215.3c0-0.8,0.7-1.3,1.8-1.3c0.4,0,0.9,0.1,1.2,0.2v-0.4c0-0.7-0.5-1.2-1.2-1.2c-0.4,0-0.9,0.2-1.3,0.5
	l-0.2-0.4c0.5-0.4,1-0.5,1.6-0.5c1,0,1.7,0.6,1.7,1.7v1.9c0,0.2,0.1,0.2,0.2,0.2v0.5c-0.1,0-0.2,0-0.2,0c-0.2,0-0.4-0.1-0.4-0.4
	l0-0.3c-0.4,0.5-1,0.8-1.6,0.8C111.8,216.6,111.2,216,111.2,215.3z M114,215.6c0.1-0.1,0.1-0.2,0.1-0.3v-0.7
	c-0.4-0.1-0.8-0.2-1.1-0.2c-0.8,0-1.3,0.3-1.3,0.9c0,0.4,0.3,0.9,1,0.9C113.2,216.1,113.8,215.9,114,215.6z"/>
<path class="st2" d="M117.9,216.3c-0.1,0.1-0.5,0.2-0.9,0.2c-0.5,0-0.9-0.3-0.9-0.8v-3h-0.6v-0.4h0.6v-1.4h0.5v1.4h1v0.4h-1v2.8
	c0,0.3,0.2,0.4,0.5,0.4c0.3,0,0.6-0.1,0.6-0.2L117.9,216.3z"/>
<path class="st2" d="M118.6,211.4v-0.8h0.5v0.8H118.6z M118.6,216.5v-4.2h0.5v4.2H118.6z"/>
<path class="st2" d="M120,214.4c0-1.2,0.9-2.2,2.1-2.2s2.1,1,2.1,2.2c0,1.2-0.9,2.2-2.1,2.2C120.9,216.6,120,215.6,120,214.4z
	 M122.1,216.1c0.8,0,1.5-0.8,1.5-1.7s-0.7-1.7-1.5-1.7c-0.8,0-1.5,0.8-1.5,1.7C120.6,215.3,121.2,216.1,122.1,216.1z"/>
<path class="st2" d="M128.5,216.5H128v-2.3c0-1-0.3-1.4-0.9-1.4c-0.6,0-1.3,0.5-1.5,1.2v2.6H125v-4.2h0.5v0.9c0.3-0.6,1-1,1.8-1
	c0.9,0,1.2,0.7,1.2,1.8V216.5z"/>
<path class="st2" d="M165.7,216.5l2.4-5.7h0.5l2.4,5.7h-0.6l-0.7-1.8H167l-0.7,1.8H165.7z M168.3,211.5l-1.2,2.8h2.3L168.3,211.5z"
	/>
<path class="st2" d="M172.1,215.6v2.6h-0.5v-5.9h0.5v0.8c0.3-0.5,0.9-0.9,1.6-0.9c1.2,0,2,1,2,2.2c0,1.2-0.8,2.2-1.9,2.2
	C173,216.6,172.4,216.1,172.1,215.6z M175,214.4c0-0.9-0.7-1.7-1.6-1.7c-0.5,0-1.3,0.5-1.4,1v1.3c0.2,0.6,0.8,1,1.4,1
	C174.4,216.1,175,215.2,175,214.4z"/>
<path class="st2" d="M177,215.6v2.6h-0.5v-5.9h0.5v0.8c0.3-0.5,0.9-0.9,1.6-0.9c1.2,0,2,1,2,2.2c0,1.2-0.8,2.2-1.9,2.2
	C177.9,216.6,177.4,216.1,177,215.6z M179.9,214.4c0-0.9-0.7-1.7-1.6-1.7c-0.5,0-1.3,0.5-1.4,1v1.3c0.2,0.6,0.8,1,1.4,1
	C179.4,216.1,179.9,215.2,179.9,214.4z"/>
<path class="st2" d="M181.4,210.6h0.5v4.9c0,0.3,0.2,0.5,0.5,0.5c0.1,0,0.3,0,0.4-0.1l0.1,0.4c-0.2,0.1-0.5,0.1-0.8,0.1
	c-0.5,0-0.8-0.3-0.8-0.8V210.6z"/>
<path class="st2" d="M183.5,211.4v-0.8h0.5v0.8H183.5z M183.5,216.5v-4.2h0.5v4.2H183.5z"/>
<path class="st2" d="M187,212.2c0.8,0,1.4,0.4,1.7,1l-0.5,0.2c-0.2-0.4-0.7-0.7-1.2-0.7c-0.8,0-1.5,0.7-1.5,1.7
	c0,0.9,0.7,1.7,1.5,1.7c0.5,0,1.1-0.3,1.2-0.7l0.5,0.2c-0.2,0.6-0.9,1-1.7,1c-1.2,0-2.1-1-2.1-2.2S185.8,212.2,187,212.2z"/>
<path class="st2" d="M189.3,215.3c0-0.8,0.7-1.3,1.8-1.3c0.4,0,0.9,0.1,1.2,0.2v-0.4c0-0.7-0.5-1.2-1.2-1.2c-0.4,0-0.9,0.2-1.3,0.5
	l-0.2-0.4c0.5-0.4,1-0.5,1.6-0.5c1,0,1.7,0.6,1.7,1.7v1.9c0,0.2,0.1,0.2,0.2,0.2v0.5c-0.1,0-0.2,0-0.2,0c-0.2,0-0.4-0.1-0.4-0.4
	l0-0.3c-0.4,0.5-1,0.8-1.6,0.8C189.9,216.6,189.3,216,189.3,215.3z M192.1,215.6c0.1-0.1,0.1-0.2,0.1-0.3v-0.7
	c-0.4-0.1-0.8-0.2-1.1-0.2c-0.8,0-1.3,0.3-1.3,0.9c0,0.4,0.3,0.9,1,0.9C191.3,216.1,191.9,215.9,192.1,215.6z"/>
<path class="st2" d="M196,216.3c-0.1,0.1-0.5,0.2-0.9,0.2c-0.5,0-0.9-0.3-0.9-0.8v-3h-0.6v-0.4h0.6v-1.4h0.5v1.4h1v0.4h-1v2.8
	c0,0.3,0.2,0.4,0.5,0.4c0.3,0,0.6-0.1,0.6-0.2L196,216.3z"/>
<path class="st2" d="M196.7,211.4v-0.8h0.5v0.8H196.7z M196.7,216.5v-4.2h0.5v4.2H196.7z"/>
<path class="st2" d="M198.1,214.4c0-1.2,0.9-2.2,2.1-2.2s2.1,1,2.1,2.2c0,1.2-0.9,2.2-2.1,2.2C199,216.6,198.1,215.6,198.1,214.4z
	 M200.2,216.1c0.8,0,1.5-0.8,1.5-1.7s-0.7-1.7-1.5-1.7c-0.8,0-1.5,0.8-1.5,1.7C198.7,215.3,199.3,216.1,200.2,216.1z"/>
<path class="st2" d="M206.6,216.5h-0.5v-2.3c0-1-0.3-1.4-0.9-1.4c-0.6,0-1.3,0.5-1.5,1.2v2.6h-0.5v-4.2h0.5v0.9c0.3-0.6,1-1,1.8-1
	c0.9,0,1.2,0.7,1.2,1.8V216.5z"/>
<path class="st2" d="M209.4,216.5l2.4-5.7h0.5l2.4,5.7H214l-0.7-1.8h-2.5l-0.7,1.8H209.4z M212,211.5l-1.2,2.8h2.3L212,211.5z"/>
<path class="st2" d="M215.2,214.8v-2.4h0.5v2.4c0,1,0.3,1.4,1,1.4s1.3-0.4,1.5-1.1v-2.6h0.5v3.5c0,0.2,0.1,0.2,0.2,0.2v0.5
	c-0.1,0-0.2,0-0.2,0c-0.2,0-0.4-0.2-0.4-0.4v-0.6c-0.4,0.6-1,1-1.8,1C215.7,216.6,215.2,215.9,215.2,214.8z"/>
<path class="st2" d="M222,216.3c-0.1,0.1-0.5,0.2-0.9,0.2c-0.5,0-0.9-0.3-0.9-0.8v-3h-0.6v-0.4h0.6v-1.4h0.5v1.4h1v0.4h-1v2.8
	c0,0.3,0.2,0.4,0.5,0.4c0.3,0,0.6-0.1,0.6-0.2L222,216.3z"/>
<path class="st2" d="M222.4,214.4c0-1.2,0.9-2.2,2.1-2.2s2.1,1,2.1,2.2c0,1.2-0.9,2.2-2.1,2.2C223.2,216.6,222.4,215.6,222.4,214.4z
	 M224.5,216.1c0.8,0,1.5-0.8,1.5-1.7s-0.7-1.7-1.5-1.7c-0.8,0-1.5,0.8-1.5,1.7C222.9,215.3,223.6,216.1,224.5,216.1z"/>
<path class="st2" d="M233.6,216.5h-0.5v-2.3c0-1-0.3-1.4-0.9-1.4c-0.6,0-1.2,0.5-1.4,1.2v2.5h-0.5v-2.3c0-1-0.3-1.4-0.9-1.4
	c-0.6,0-1.2,0.5-1.4,1.2v2.6h-0.5v-4.2h0.5v0.9c0.3-0.6,0.9-1,1.6-1c0.7,0,1.1,0.4,1.2,1.1c0.4-0.7,0.9-1.1,1.6-1.1
	c0.9,0,1.3,0.7,1.3,1.8V216.5z"/>
<path class="st2" d="M234.4,215.3c0-0.8,0.7-1.3,1.8-1.3c0.4,0,0.9,0.1,1.2,0.2v-0.4c0-0.7-0.5-1.2-1.2-1.2c-0.4,0-0.9,0.2-1.3,0.5
	l-0.2-0.4c0.5-0.4,1-0.5,1.6-0.5c1,0,1.7,0.6,1.7,1.7v1.9c0,0.2,0.1,0.2,0.2,0.2v0.5c-0.1,0-0.2,0-0.2,0c-0.2,0-0.4-0.1-0.4-0.4
	l0-0.3c-0.4,0.5-1,0.8-1.6,0.8C235,216.6,234.4,216,234.4,215.3z M237.3,215.6c0.1-0.1,0.1-0.2,0.1-0.3v-0.7
	c-0.4-0.1-0.8-0.2-1.1-0.2c-0.8,0-1.3,0.3-1.3,0.9c0,0.4,0.3,0.9,1,0.9C236.5,216.1,237,215.9,237.3,215.6z"/>
<path class="st2" d="M241.1,216.3c-0.1,0.1-0.5,0.2-0.9,0.2c-0.5,0-0.9-0.3-0.9-0.8v-3h-0.6v-0.4h0.6v-1.4h0.5v1.4h1v0.4h-1v2.8
	c0,0.3,0.2,0.4,0.5,0.4c0.3,0,0.6-0.1,0.6-0.2L241.1,216.3z"/>
<path class="st2" d="M241.8,211.4v-0.8h0.5v0.8H241.8z M241.8,216.5v-4.2h0.5v4.2H241.8z"/>
<path class="st2" d="M243.2,214.4c0-1.2,0.9-2.2,2.1-2.2s2.1,1,2.1,2.2c0,1.2-0.9,2.2-2.1,2.2C244.1,216.6,243.2,215.6,243.2,214.4z
	 M245.3,216.1c0.8,0,1.5-0.8,1.5-1.7s-0.7-1.7-1.5-1.7c-0.8,0-1.5,0.8-1.5,1.7C243.8,215.3,244.5,216.1,245.3,216.1z"/>
<path class="st2" d="M251.8,216.5h-0.5v-2.3c0-1-0.3-1.4-0.9-1.4c-0.6,0-1.3,0.5-1.5,1.2v2.6h-0.5v-4.2h0.5v0.9c0.3-0.6,1-1,1.8-1
	c0.9,0,1.2,0.7,1.2,1.8V216.5z"/>
<path class="st2" d="M294.6,210.8c1,0,1.7,0.5,2.1,1.2l-0.4,0.3c-0.4-0.8-1.1-1-1.7-1c-1.4,0-2.1,1.2-2.1,2.4c0,1.3,0.9,2.4,2.1,2.4
	c0.6,0,1.4-0.3,1.8-1.1l0.5,0.2c-0.4,0.8-1.4,1.3-2.2,1.3c-1.6,0-2.7-1.5-2.7-2.9C291.9,212.2,292.9,210.8,294.6,210.8z"/>
<path class="st2" d="M297.4,214.4c0-1.2,0.9-2.2,2.1-2.2s2.1,1,2.1,2.2c0,1.2-0.9,2.2-2.1,2.2C298.2,216.6,297.4,215.6,297.4,214.4z
	 M299.4,216.1c0.8,0,1.5-0.8,1.5-1.7s-0.7-1.7-1.5-1.7c-0.8,0-1.5,0.8-1.5,1.7C297.9,215.3,298.6,216.1,299.4,216.1z"/>
<path class="st2" d="M308.6,216.5h-0.5v-2.3c0-1-0.3-1.4-0.9-1.4c-0.6,0-1.2,0.5-1.4,1.2v2.5h-0.5v-2.3c0-1-0.3-1.4-0.9-1.4
	c-0.6,0-1.2,0.5-1.4,1.2v2.6h-0.5v-4.2h0.5v0.9c0.3-0.6,0.9-1,1.6-1c0.7,0,1.1,0.4,1.2,1.1c0.4-0.7,0.9-1.1,1.6-1.1
	c0.9,0,1.3,0.7,1.3,1.8V216.5z"/>
<path class="st2" d="M310.3,215.6v2.6h-0.5v-5.9h0.5v0.8c0.3-0.5,0.9-0.9,1.6-0.9c1.2,0,2,1,2,2.2c0,1.2-0.8,2.2-1.9,2.2
	C311.2,216.6,310.6,216.1,310.3,215.6z M313.2,214.4c0-0.9-0.7-1.7-1.6-1.7c-0.5,0-1.3,0.5-1.4,1v1.3c0.2,0.6,0.8,1,1.4,1
	C312.6,216.1,313.2,215.2,313.2,214.4z"/>
<path class="st2" d="M314.7,210.6h0.5v4.9c0,0.3,0.2,0.5,0.5,0.5c0.1,0,0.3,0,0.4-0.1l0.1,0.4c-0.2,0.1-0.5,0.1-0.8,0.1
	c-0.5,0-0.8-0.3-0.8-0.8V210.6z"/>
<path class="st2" d="M316.8,211.4v-0.8h0.5v0.8H316.8z M316.8,216.5v-4.2h0.5v4.2H316.8z"/>
<path class="st2" d="M318.2,215.3c0-0.8,0.7-1.3,1.8-1.3c0.4,0,0.9,0.1,1.2,0.2v-0.4c0-0.7-0.5-1.2-1.2-1.2c-0.4,0-0.9,0.2-1.3,0.5
	l-0.2-0.4c0.5-0.4,1-0.5,1.6-0.5c1,0,1.7,0.6,1.7,1.7v1.9c0,0.2,0.1,0.2,0.2,0.2v0.5c-0.1,0-0.2,0-0.2,0c-0.2,0-0.4-0.1-0.4-0.4
	l0-0.3c-0.4,0.5-1,0.8-1.6,0.8C318.7,216.6,318.2,216,318.2,215.3z M321,215.6c0.1-0.1,0.1-0.2,0.1-0.3v-0.7
	c-0.4-0.1-0.8-0.2-1.1-0.2c-0.8,0-1.3,0.3-1.3,0.9c0,0.4,0.3,0.9,1,0.9C320.2,216.1,320.7,215.9,321,215.6z"/>
<path class="st2" d="M326.4,216.5h-0.5v-2.3c0-1-0.3-1.4-0.9-1.4c-0.6,0-1.3,0.5-1.5,1.2v2.6h-0.5v-4.2h0.5v0.9c0.3-0.6,1-1,1.8-1
	c0.9,0,1.2,0.7,1.2,1.8V216.5z"/>
<path class="st2" d="M329.3,212.2c0.8,0,1.4,0.4,1.7,1l-0.5,0.2c-0.2-0.4-0.7-0.7-1.2-0.7c-0.8,0-1.5,0.7-1.5,1.7
	c0,0.9,0.7,1.7,1.5,1.7c0.5,0,1.1-0.3,1.2-0.7l0.5,0.2c-0.2,0.6-0.9,1-1.7,1c-1.2,0-2.1-1-2.1-2.2S328.1,212.2,329.3,212.2z"/>
<path class="st2" d="M331.6,214.4c0-1.2,0.9-2.1,2.1-2.1c1.2,0,2.1,1,2.1,2.1c0,0.1,0,0.2,0,0.2h-3.6c0.1,0.9,0.7,1.6,1.5,1.6
	c0.6,0,1.1-0.3,1.3-0.8l0.5,0.1c-0.3,0.6-1,1-1.8,1C332.5,216.6,331.6,215.6,331.6,214.4z M335.3,214.2c-0.1-0.9-0.7-1.5-1.5-1.5
	c-0.8,0-1.5,0.6-1.5,1.5H335.3z"/>
<path class="st2" d="M338.2,216.5l2.4-5.7h0.5l2.4,5.7h-0.6l-0.7-1.8h-2.6l-0.7,1.8H338.2z M340.8,211.5l-1.2,2.8h2.3L340.8,211.5z"
	/>
<path class="st2" d="M344,214.8v-2.4h0.5v2.4c0,1,0.3,1.4,1,1.4c0.6,0,1.3-0.4,1.5-1.1v-2.6h0.5v3.5c0,0.2,0.1,0.2,0.2,0.2v0.5
	c-0.1,0-0.2,0-0.2,0c-0.2,0-0.4-0.2-0.4-0.4v-0.6c-0.4,0.6-1,1-1.8,1C344.5,216.6,344,215.9,344,214.8z"/>
<path class="st2" d="M350.8,216.3c-0.1,0.1-0.5,0.2-0.9,0.2c-0.5,0-0.9-0.3-0.9-0.8v-3h-0.6v-0.4h0.6v-1.4h0.5v1.4h1v0.4h-1v2.8
	c0,0.3,0.2,0.4,0.5,0.4c0.3,0,0.6-0.1,0.6-0.2L350.8,216.3z"/>
<path class="st2" d="M351.2,214.4c0-1.2,0.9-2.2,2.1-2.2s2.1,1,2.1,2.2c0,1.2-0.9,2.2-2.1,2.2C352.1,216.6,351.2,215.6,351.2,214.4z
	 M353.3,216.1c0.8,0,1.5-0.8,1.5-1.7s-0.7-1.7-1.5-1.7c-0.8,0-1.5,0.8-1.5,1.7C351.8,215.3,352.4,216.1,353.3,216.1z"/>
<path class="st2" d="M362.4,216.5h-0.5v-2.3c0-1-0.3-1.4-0.9-1.4c-0.6,0-1.2,0.5-1.4,1.2v2.5h-0.5v-2.3c0-1-0.3-1.4-0.9-1.4
	c-0.6,0-1.2,0.5-1.4,1.2v2.6h-0.5v-4.2h0.5v0.9c0.3-0.6,0.9-1,1.6-1c0.7,0,1.1,0.4,1.2,1.1c0.4-0.7,0.9-1.1,1.6-1.1
	c0.9,0,1.3,0.7,1.3,1.8V216.5z"/>
<path class="st2" d="M363.2,215.3c0-0.8,0.7-1.3,1.8-1.3c0.4,0,0.9,0.1,1.2,0.2v-0.4c0-0.7-0.5-1.2-1.2-1.2c-0.4,0-0.9,0.2-1.3,0.5
	l-0.2-0.4c0.5-0.4,1-0.5,1.6-0.5c1,0,1.7,0.6,1.7,1.7v1.9c0,0.2,0.1,0.2,0.2,0.2v0.5c-0.1,0-0.2,0-0.2,0c-0.2,0-0.4-0.1-0.4-0.4
	l0-0.3c-0.4,0.5-1,0.8-1.6,0.8C363.8,216.6,363.2,216,363.2,215.3z M366.1,215.6c0.1-0.1,0.1-0.2,0.1-0.3v-0.7
	c-0.4-0.1-0.8-0.2-1.1-0.2c-0.8,0-1.3,0.3-1.3,0.9c0,0.4,0.3,0.9,1,0.9C365.3,216.1,365.8,215.9,366.1,215.6z"/>
<path class="st2" d="M370,216.3c-0.1,0.1-0.5,0.2-0.9,0.2c-0.5,0-0.9-0.3-0.9-0.8v-3h-0.6v-0.4h0.6v-1.4h0.5v1.4h1v0.4h-1v2.8
	c0,0.3,0.2,0.4,0.5,0.4c0.3,0,0.6-0.1,0.6-0.2L370,216.3z"/>
<path class="st2" d="M370.6,211.4v-0.8h0.5v0.8H370.6z M370.6,216.5v-4.2h0.5v4.2H370.6z"/>
<path class="st2" d="M372.1,214.4c0-1.2,0.9-2.2,2.1-2.2s2.1,1,2.1,2.2c0,1.2-0.9,2.2-2.1,2.2C372.9,216.6,372.1,215.6,372.1,214.4z
	 M374.1,216.1c0.8,0,1.5-0.8,1.5-1.7s-0.7-1.7-1.5-1.7c-0.8,0-1.5,0.8-1.5,1.7C372.6,215.3,373.3,216.1,374.1,216.1z"/>
<path class="st2" d="M380.6,216.5H380v-2.3c0-1-0.3-1.4-0.9-1.4c-0.6,0-1.3,0.5-1.5,1.2v2.6h-0.5v-4.2h0.5v0.9c0.3-0.6,1-1,1.8-1
	c0.9,0,1.2,0.7,1.2,1.8V216.5z"/>
<polygon class="st6" points="420,240.5 412.5,240.5 412.5,237.5 417,237.5 417,233 420,233 "/>
<path class="st6" d="M404.6,240.5h-11.9v-3h11.9V240.5z M384.7,240.5h-11.9v-3h11.9V240.5z M364.9,240.5h-11.9v-3h11.9V240.5z
	 M345,240.5h-11.9v-3H345V240.5z M325.1,240.5h-11.9v-3h11.9V240.5z M305.3,240.5h-11.9v-3h11.9V240.5z M285.4,240.5h-11.9v-3h11.9
	V240.5z M265.6,240.5h-11.9v-3h11.9V240.5z M245.7,240.5h-11.9v-3h11.9V240.5z M225.9,240.5H214v-3h11.9V240.5z M206,240.5h-11.9v-3
	H206V240.5z M186.2,240.5h-11.9v-3h11.9V240.5z M166.3,240.5h-11.9v-3h11.9V240.5z M146.5,240.5h-11.9v-3h11.9V240.5z M126.6,240.5
	h-11.9v-3h11.9V240.5z M106.8,240.5H94.9v-3h11.9V240.5z M86.9,240.5H75v-3h11.9V240.5z M67.1,240.5H55.1v-3h11.9V240.5z
	 M47.2,240.5H35.3v-3h11.9V240.5z M27.4,240.5H15.4v-3h11.9V240.5z"/>
<polygon class="st6" points="7.5,240.5 0,240.5 0,233 3,233 3,237.5 7.5,237.5 "/>
<path class="st6" d="M3,225.3H0v-11.5h3V225.3z M3,206.1H0v-11.5h3V206.1z M3,186.9H0v-11.5h3V186.9z M3,167.7H0v-11.5h3V167.7z
	 M3,148.5H0v-11.5h3V148.5z M3,129.3H0v-11.5h3V129.3z M3,110.1H0V98.5h3V110.1z M3,90.8H0V79.3h3V90.8z M3,71.6H0V60.1h3V71.6z
	 M3,52.4H0V40.9h3V52.4z M3,33.2H0V21.7h3V33.2z"/>
<polygon class="st6" points="3,14 0,14 0,6.5 7.5,6.5 7.5,9.5 3,9.5 "/>
<path class="st6" d="M404.6,9.5h-11.9v-3h11.9V9.5z M384.7,9.5h-11.9v-3h11.9V9.5z M364.9,9.5h-11.9v-3h11.9V9.5z M345,9.5h-11.9v-3
	H345V9.5z M325.1,9.5h-11.9v-3h11.9V9.5z M305.3,9.5h-11.9v-3h11.9V9.5z M285.4,9.5h-11.9v-3h11.9V9.5z M265.6,9.5h-11.9v-3h11.9
	V9.5z M245.7,9.5h-11.9v-3h11.9V9.5z M225.9,9.5H214v-3h11.9V9.5z"/>
<polygon class="st6" points="420,14 417,14 417,9.5 412.5,9.5 412.5,6.5 420,6.5 "/>
<path class="st6" d="M420,225.3h-3v-11.5h3V225.3z M420,206.1h-3v-11.5h3V206.1z M420,186.9h-3v-11.5h3V186.9z M420,167.7h-3v-11.5
	h3V167.7z M420,148.5h-3v-11.5h3V148.5z M420,129.3h-3v-11.5h3V129.3z M420,110.1h-3V98.5h3V110.1z M420,90.8h-3V79.3h3V90.8z
	 M420,71.6h-3V60.1h3V71.6z M420,52.4h-3V40.9h3V52.4z M420,33.2h-3V21.7h3V33.2z"/>
<path class="st7" d="M13.7,8.4L13.7,8.4c0-4.6,3.4-8.4,8.4-8.4c3,0,4.8,1,6.3,2.5l-2.3,2.6c-1.2-1.1-2.5-1.8-4.1-1.8
	c-2.7,0-4.7,2.3-4.7,5v0c0,2.8,1.9,5.1,4.7,5.1c1.8,0,3-0.7,4.2-1.9l2.3,2.3c-1.7,1.8-3.5,2.9-6.6,2.9C17.2,16.6,13.7,13,13.7,8.4z"
	/>
<path class="st7" d="M31.4,0.3h3.5v6.4h6.5V0.3H45v16.1h-3.5V9.9h-6.5v6.5h-3.5V0.3z"/>
<path class="st7" d="M48.8,0.3h12.1v3.1h-8.6v3.3h7.6v3.1h-7.6v3.4h8.7v3.1H48.8V0.3z"/>
<path class="st7" d="M64.2,0.3h12.2v3.2h-8.7v3.4h7.7v3.2h-7.7v6.2h-3.5V0.3z"/>
<path class="st8" d="M85.6,0.2h1.7l7.3,16.2h-2l-1.9-4.2H82l-1.9,4.2h-1.9L85.6,0.2z M90,10.4l-3.7-8.2l-3.7,8.2H90z"/>
<path class="st8" d="M96.9,9.6V0.3h1.8v9.2c0,3.5,1.9,5.4,4.9,5.4c3,0,4.8-1.8,4.8-5.3V0.3h1.8v9.2c0,4.7-2.7,7.1-6.7,7.1
	C99.6,16.6,96.9,14.2,96.9,9.6z"/>
<path class="st8" d="M118.8,2h-5.4V0.3h12.6V2h-5.4v14.4h-1.8V2z"/>
<path class="st8" d="M127.7,8.4L127.7,8.4c0-4.5,3.3-8.4,8.2-8.4c4.9,0,8.2,3.8,8.2,8.3v0c0,4.4-3.3,8.3-8.2,8.3
	C130.9,16.6,127.7,12.8,127.7,8.4z M142.2,8.4L142.2,8.4c0-3.7-2.7-6.7-6.3-6.7c-3.7,0-6.3,2.9-6.3,6.6v0c0,3.7,2.7,6.6,6.3,6.6
	C139.6,14.9,142.2,12,142.2,8.4z"/>
<path class="st8" d="M147.9,0.3h1.8l5.9,8.8l5.9-8.8h1.8v16.1h-1.8v-13l-5.9,8.6h-0.1l-5.9-8.6v13h-1.8V0.3z"/>
<path class="st8" d="M173.8,0.2h1.7l7.3,16.2h-2l-1.9-4.2h-8.7l-1.9,4.2h-1.9L173.8,0.2z M178.2,10.4l-3.7-8.2l-3.7,8.2H178.2z"/>
<path class="st8" d="M188.1,2h-5.4V0.3h12.6V2H190v14.4h-1.8V2z"/>
<path class="st8" d="M198.8,0.3h11.6v1.7h-9.8v5.5h8.8v1.7h-8.8v5.6h9.9v1.7h-11.7V0.3z"/>
<path class="st2" d="M94.8,201.3L94.8,201.3l-0.2-0.3v0.5h-0.1v-0.6h0.1l0.2,0.3l0.2-0.3h0.1v0.6h-0.1v-0.5L94.8,201.3z M94.2,201.4
	L94.2,201.4l-0.1-0.5h-0.2v-0.1h0.5v0.1h-0.2V201.4z"/>
<path class="st2" d="M69.9,203.5L69.9,203.5c0-1.6,1.2-2.9,3-2.9c1.1,0,1.7,0.4,2.2,0.9l-0.8,0.9c-0.4-0.4-0.9-0.6-1.4-0.6
	c-1,0-1.6,0.8-1.6,1.8v0c0,1,0.7,1.8,1.6,1.8c0.6,0,1-0.3,1.5-0.7l0.8,0.8c-0.6,0.6-1.2,1-2.3,1C71.2,206.4,69.9,205.1,69.9,203.5"
	/>
<polygon class="st2" points="76.6,200.7 77.9,200.7 77.9,202.9 80.1,202.9 80.1,200.7 81.4,200.7 81.4,206.3 80.1,206.3 80.1,204.1 
	77.9,204.1 77.9,206.3 76.6,206.3 "/>
<polygon class="st2" points="82.9,200.7 87.2,200.7 87.2,201.8 84.2,201.8 84.2,202.9 86.8,202.9 86.8,204 84.2,204 84.2,205.2 
	87.2,205.2 87.2,206.3 82.9,206.3 "/>
<polygon class="st2" points="88.9,200.7 93.2,200.7 93.2,201.8 90.1,201.8 90.1,203 92.8,203 92.8,204.1 90.1,204.1 90.1,206.3 
	88.9,206.3 "/>
<path class="st2" d="M81.7,193c-2,0-3.6-1.6-3.6-3.6c0-2,1.6-3.6,3.6-3.6c1.6,0,3,1.1,3.4,2.6h1.4c-0.5-2.2-2.4-3.9-4.8-3.9
	c-2.7,0-4.9,2.2-4.9,4.9c0,2.7,2.2,4.9,4.9,4.9c2.4,0,4.3-1.7,4.8-3.9h-1.4C84.7,191.9,83.3,193,81.7,193"/>
<path class="st2" d="M79.3,191.9c0.6,0.6,1.5,1,2.4,1v-1.4c-0.5,0-1-0.2-1.4-0.6L79.3,191.9z"/>
<path class="st2" d="M78.3,189.5c0,0.5,0.1,0.9,0.3,1.4l1.3-0.6c-0.1-0.2-0.2-0.5-0.2-0.8c0-1.1,0.9-2,2-2v-1.4
	C79.8,186.1,78.3,187.6,78.3,189.5"/>
<path class="st2" d="M82.9,186.3l-0.5,1.3c0.4,0.2,0.8,0.5,1,0.9h1.5C84.6,187.5,83.9,186.7,82.9,186.3"/>
<path class="st2" d="M82.4,191.3l0.5,1.3c1-0.4,1.7-1.2,2-2.2h-1.5C83.2,190.8,82.8,191.1,82.4,191.3"/>
<path class="st2" d="M81.7,196c-1.8,0-3.4-0.7-4.6-1.9l-0.9,0.9c1.4,1.4,3.4,2.3,5.6,2.3c4,0,7.3-3,7.8-6.9h-1.4
	C87.7,193.6,85,196,81.7,196"/>
<path class="st2" d="M81.7,182.9c1.5,0,2.8,0.5,3.9,1.3l0.8-1.1c-1.3-1-3-1.6-4.7-1.6c-3.4,0-6.2,2.1-7.4,5l1.2,0.5
	C76.5,184.6,78.9,182.9,81.7,182.9"/>
<path class="st2" d="M88.2,188.5h1.4c-0.1-1.2-0.5-2.2-1.1-3.2l-1.1,0.7C87.7,186.7,88,187.6,88.2,188.5"/>
<path class="st2" d="M86.6,188.5H88c-0.4-2.3-1.9-4.2-4-5l-0.5,1.2C85.1,185.4,86.3,186.8,86.6,188.5"/>
<path class="st2" d="M81.7,184.4L81.7,184.4l0-1.3h0c-2.7,0-5,1.7-6,4.1l1.2,0.5C77.7,185.7,79.5,184.4,81.7,184.4"/>
<path class="st2" d="M76.6,189.5L76.6,189.5l-1.3,0v0c0,2.7,1.7,5,4,5.9l0.5-1.2C78,193.4,76.6,191.6,76.6,189.5"/>
<path class="st2" d="M81.7,194.5v1.3c3.2,0,5.8-2.3,6.3-5.4h-1.4C86.2,192.8,84.1,194.5,81.7,194.5"/>
<path class="st2" d="M74.5,192.6c-0.4-1-0.7-2.1-0.7-3.2l1.3,0c0,0.9,0.2,1.8,0.6,2.6L74.5,192.6z"/>
<path class="st2" d="M200.3,201.8c-1.4,0-2.3-1-2.4-2.3c0-1.4,1-2.3,2.3-2.4c1.3,0,2.3,0.9,2.3,2.2c0,0.7-0.2,1.4-0.6,1.8
	C201.6,201.6,201,201.8,200.3,201.8L200.3,201.8z M202.7,196.8c-0.7-0.6-1.6-0.9-2.6-0.8c-0.7,0.1-1.4,0.3-1.9,0.8
	c-0.1,0.1-0.3,0-0.3-0.1v-3c0-0.1-0.1-0.2-0.2-0.2h-0.8c-0.1,0-0.2,0.1-0.2,0.2c0,0,0,0.1,0,0.1c0,0.1,0,0.1,0,0.2l0,0.7
	c0,1.6,0,3.2,0,4.8c0,0.3,0,0.6,0.1,0.9c0.4,1.7,1.7,2.7,3.5,2.7c0,0,0.1,0,0.1,0c1.5,0,2.7-0.9,3.2-2.2
	C204.2,199.3,203.8,197.7,202.7,196.8"/>
<path class="st2" d="M194.6,199.4c0,0.7-0.2,1.3-0.7,1.7c-0.4,0.4-1,0.7-1.7,0.7h0c-1.4,0-2.3-0.9-2.3-2.3c0-1.4,0.9-2.4,2.3-2.4h0
	C193.6,197.1,194.6,198.1,194.6,199.4 M195.1,197.2c-1-1.3-3-1.7-4.6-0.9c-1.4,0.7-2.1,2.4-1.7,4c0.3,1.3,1.2,2.2,2.4,2.5
	c0.4,0.1,0.7,0.1,1,0.1c0.9,0,1.6-0.3,2.3-1c0.1-0.1,0.1-0.2,0.2-0.3v0.9c0,0.1,0.1,0.2,0.2,0.2h0.7c0.1,0,0.2-0.1,0.2-0.2v0
	c0-0.4,0-0.7,0-1.1c0-0.9,0-1.7,0-2.6C195.8,198.3,195.5,197.8,195.1,197.2"/>
<path class="st2" d="M219,199.4c0,0.7-0.2,1.3-0.7,1.7c-0.4,0.4-1,0.7-1.7,0.7h0c-1.4,0-2.3-0.9-2.3-2.3c0-1.4,0.9-2.4,2.3-2.4h0
	C218,197.1,219,198.1,219,199.4 M219.5,197.2c-1-1.3-3-1.7-4.6-0.9c-1.4,0.7-2.1,2.4-1.7,4c0.3,1.3,1.2,2.2,2.4,2.5
	c0.4,0.1,0.7,0.1,1,0.1c0.9,0,1.6-0.3,2.3-1c0.1-0.1,0.1-0.2,0.2-0.3v0.9c0,0.1,0.1,0.2,0.2,0.2h0.7c0.1,0,0.2-0.1,0.2-0.2v0
	c0-0.4,0-0.7,0-1.1c0-0.9,0-1.7,0-2.6C220.2,198.3,219.9,197.8,219.5,197.2"/>
<path class="st2" d="M185.4,196c-1-0.2-1.9,0-2.5,0.6c-0.1,0.1-0.3,0-0.3-0.1v-2.9c0-0.1-0.1-0.2-0.2-0.2h-0.8
	c-0.1,0-0.2,0.1-0.2,0.2v9.1c0,0.1,0.1,0.2,0.2,0.2h0.8c0.1,0,0.2-0.1,0.2-0.2c0-0.3,0-1,0-1.3c0-0.7,0-1.4,0-2
	c0-0.7,0.2-1.3,0.6-1.6c0.4-0.4,1-0.5,1.7-0.5c1.1,0.1,1.7,0.7,1.8,1.7c0,0.8,0,1.5,0,2.3c0,0.3,0,0.7,0,1c0,0.1,0,0.2,0,0.3v0.1
	c0,0.1,0.1,0.2,0.2,0.2h0.8c0.1,0,0.2-0.1,0.2-0.2c0-0.4,0-0.7,0-1.1c0-0.8,0-1.6,0-2.5C188,197.4,187,196.3,185.4,196"/>
<path class="st2" d="M212.3,200h-0.9c-0.1,0-0.2,0.1-0.2,0.2l0,0.1c0,0.1,0,0.2,0,0.3c-0.1,0.7-0.5,1.2-1.3,1.2
	c-0.5,0-1.4-0.1-1.5-1c-0.1-0.8-0.1-1.7-0.1-2.5c0-0.3,0-0.5,0-0.8c0-0.1,0.1-0.2,0.2-0.2h2.4c0.2,0,0.3-0.2,0.1-0.3l-0.9-0.8
	c0,0-0.1,0-0.1,0h-1.5c-0.1,0-0.2-0.1-0.2-0.2v-1.3c0-0.1-0.1-0.2-0.2-0.2h-0.8c-0.1,0-0.2,0.1-0.2,0.2l0,0.4c0,0,0,3.6,0,5.8
	c0,0.5,0.3,1.1,0.7,1.5c0.6,0.5,1.3,0.6,1.9,0.6c0.2,0,0.3,0,0.5,0c0.7-0.1,1.3-0.4,1.8-1c0.4-0.5,0.6-1.2,0.4-1.8L212.3,200z"/>
<path class="st2" d="M226.2,200.2l0-0.2h-1c-0.1,0-0.2,0.1-0.2,0.2l0,0.1c0,0.1,0,0.2,0,0.2c0,0.8-0.5,1.2-1.3,1.2
	c-0.5,0-1.5-0.1-1.5-1c-0.1-0.8-0.1-1.7-0.1-2.5c0-0.3,0-0.5,0-0.8c0-0.1,0.1-0.2,0.2-0.2h2.3c0.2,0,0.3-0.2,0.1-0.3l-1-0.8
	c0,0-0.1,0-0.1,0h-1.4c-0.1,0-0.2-0.1-0.2-0.2v-1.2c0-0.1-0.1-0.2-0.2-0.2h-0.8c-0.1,0-0.2,0.1-0.2,0.2l0,0.4c0,0,0,3.6,0,5.8
	c0,1,0.8,1.8,1.8,2c0.3,0.1,0.6,0.1,0.9,0.1c0.1,0,0.1,0,0.2,0c0.7,0,1.4-0.3,1.8-0.8C226.1,201.6,226.3,200.9,226.2,200.2"/>
<path class="st2" d="M205,202.8h0.8c0.1,0,0.2-0.1,0.2-0.2v-6.3c0-0.1-0.1-0.2-0.2-0.2l-0.8,0c-0.1,0-0.2,0.1-0.2,0.2v6.3
	C204.8,202.7,204.9,202.8,205,202.8"/>
<path class="st2" d="M205,195.3h0.8c0.1,0,0.2-0.1,0.2-0.2v-0.8c0-0.1-0.1-0.2-0.2-0.2H205c-0.1,0-0.2,0.1-0.2,0.2v0.8
	C204.8,195.2,204.9,195.3,205,195.3"/>
<path class="st2" d="M238,189l-5.8-5.8c-0.7-0.7-1.9-0.7-2.6,0l-5.8,5.8c-0.7,0.7-0.7,1.9,0,2.6l5.8,5.8c0.7,0.7,1.9,0.7,2.6,0
	l5.8-5.8C238.7,190.8,238.7,189.7,238,189z M235.3,190.4l-1.1,1.1c-0.1,0.1-0.3,0-0.3-0.1v-0.4c0-0.1-0.1-0.2-0.2-0.2h-0.6
	c-0.1,0-0.2,0.1-0.2,0.2v0.8c0,0.1,0.1,0.2,0.2,0.2h0.2c0.1,0,0.2,0.2,0.1,0.3l-1.1,1.1c-0.1,0.1-0.2,0.1-0.2,0l-1.1-1.1
	c-0.1-0.1,0-0.3,0.1-0.3h0.2c0.1,0,0.2-0.1,0.2-0.2v-0.8c0-0.1-0.1-0.2-0.2-0.2h-1.3c-0.1,0-0.2,0.1-0.2,0.2v0.8
	c0,0.1,0.1,0.2,0.2,0.2h0.2c0.1,0,0.2,0.2,0.1,0.3l-1.1,1.1c-0.1,0.1-0.2,0.1-0.2,0l-1.1-1.1c-0.1-0.1,0-0.3,0.1-0.3h0.2
	c0.1,0,0.2-0.1,0.2-0.2v-0.8c0-0.1-0.1-0.2-0.2-0.2H228c-0.1,0-0.2,0.1-0.2,0.2v0.4c0,0.1-0.2,0.2-0.3,0.1l-1.1-1.1
	c-0.1-0.1-0.1-0.2,0-0.2l1.1-1.1c0.1-0.1,0.3,0,0.3,0.1v0.4c0,0.1,0.1,0.2,0.2,0.2h0.6c0.1,0,0.2-0.1,0.2-0.2v-0.8
	c0-0.1-0.1-0.2-0.2-0.2h-0.2c-0.1,0-0.2-0.2-0.1-0.3l1.1-1.1c0.1-0.1,0.2-0.1,0.2,0l1.1,1.1c0.1,0.1,0,0.3-0.1,0.3h-0.2
	c-0.1,0-0.2,0.1-0.2,0.2v0.7c0,0.1,0.1,0.2,0.2,0.2h1.3c0.1,0,0.2-0.1,0.2-0.2v-0.7c0-0.1-0.1-0.2-0.2-0.2h-0.2
	c-0.1,0-0.2-0.2-0.1-0.3l1.1-1.1c0.1-0.1,0.2-0.1,0.2,0l1.1,1.1c0.1,0.1,0,0.3-0.1,0.3h-0.2c-0.1,0-0.2,0.1-0.2,0.2v0.8
	c0,0.1,0.1,0.2,0.2,0.2h0.6c0.1,0,0.2-0.1,0.2-0.2v-0.4c0-0.1,0.2-0.2,0.3-0.1l1.1,1.1C235.4,190.2,235.4,190.3,235.3,190.4z"/>
<path class="st2" d="M316.6,196.4c0,1.4-1.2,2.6-2.6,2.6c-1.4,0-2.6-1.2-2.6-2.6c0-1.4,1.2-2.6,2.6-2.6
	C315.5,193.8,316.6,195,316.6,196.4L316.6,196.4z"/>
<path class="st2" d="M321.6,196.4c0,4.2-3.4,7.6-7.6,7.5c-1.7,0-3.3-0.6-4.6-1.6l2.2-2.2c0.7,0.5,1.5,0.7,2.4,0.7
	c2.5,0,4.6-2,4.6-4.5c0-2.5-2-4.6-4.5-4.6c-2.5,0-4.6,2-4.6,4.5c0,0.9,0.3,1.7,0.7,2.4L308,201c-1-1.3-1.5-2.9-1.5-4.6
	c0-4.2,3.4-7.6,7.6-7.5C318.3,188.8,321.7,192.2,321.6,196.4L321.6,196.4z"/>
<polygon class="st2" points="324.5,200.6 324.5,191.9 326.2,191.9 326.2,200.6 324.5,200.6 "/>
<polygon class="st2" points="335.2,200.6 330.3,195.5 330.3,200.6 328.5,200.6 328.5,191.9 329.1,191.9 333.9,196.8 333.9,191.9 
	335.6,191.9 335.6,200.6 335.2,200.6 "/>
<path class="st2" d="M340.4,196.9c-0.3-0.1-0.8-0.2-1.3-0.5c-0.7-0.5-1.1-1.1-1.1-2c0-0.7,0.2-1.3,0.6-1.8c0.6-0.7,1.6-0.9,2-0.9
	c1.3,0,2,0.5,2.6,0.9l0.3,0.2l-0.9,1.5l-0.3-0.2c-0.6-0.4-0.9-0.6-1.7-0.6c-0.1,0-0.5,0.1-0.8,0.3c-0.1,0.1-0.2,0.2-0.1,0.5
	c0,0.4,0.3,0.7,1.1,0.9c0.1,0,0.2,0,0.2,0.1c0.8,0.3,1.5,0.7,1.9,1.2c0.4,0.5,0.7,1.1,0.7,1.7c0,0.6-0.3,1.2-0.7,1.7
	c-0.5,0.6-1.2,0.9-2,0.9c-0.4,0-0.9,0-1.5-0.2c-0.8-0.2-1.5-0.7-2.1-1.3l1.3-1.2c0.9,1,1.9,1,2.3,1c0.7,0,1-0.7,1-0.9
	C342,197.7,341.4,197.2,340.4,196.9L340.4,196.9L340.4,196.9L340.4,196.9z"/>
<path class="st2" d="M348.7,195.4c0.5,0,0.9-0.4,0.9-0.9c0-0.5-0.4-0.9-0.9-0.9h-1.1v1.7H348.7L348.7,195.4z M348.7,191.9
	c1.4,0,2.6,1.2,2.6,2.6c0,1.4-1.2,2.6-2.6,2.6h-1.1v3.5h-1.7v-8.7H348.7L348.7,191.9z"/>
<path class="st2" d="M353.1,198.8h5.7v1.7h-5.7V198.8L353.1,198.8z M353.1,195.2h4.8v1.7h-4.8V195.2L353.1,195.2z M358.9,193.6h-5.8
	v-1.7h5.8V193.6L358.9,193.6z"/>
<path class="st2" d="M367,194c-1.7-1.1-4.2-0.1-4.2,2.3c0,2.4,2.7,3.4,4.3,2.2l1.1,1.3c-0.8,0.6-1.8,1-2.9,1c-2.5,0-4.5-2-4.5-4.5
	c0-2.5,2-4.5,4.5-4.5c1,0,2,0.4,2.8,1L367,194L367,194z"/>
</svg>
