<?xml version="1.0" encoding="utf-8"?>
<!-- Generator: Adobe Illustrator 19.1.0, SVG Export Plug-In . SVG Version: 6.00 Build 0)  -->
<svg version="1.1" id="Layer_1" xmlns="http://www.w3.org/2000/svg" xmlns:xlink="http://www.w3.org/1999/xlink" x="0px" y="0px"
	 viewBox="-2474 3235.8 432 165.8" style="enable-background:new -2474 3235.8 432 165.8;" xml:space="preserve">
<style type="text/css">
	.st0{fill:#445464;}
	.st1{enable-background:new    ;}
	.st2{fill:#FFFFFF;}
	.st3{fill:#59B8B3;}
</style>
<rect x="-2474" y="3235.8" class="st0" width="52.2" height="42.4"/>
<g class="st1">
	<path class="st2" d="M-2464.2,3253.5h0.8l2.2,5.3l2.2-5.3h0.7l-2.6,6.2h-0.6L-2464.2,3253.5z"/>
	<path class="st2" d="M-2457.1,3253.5h4.4v0.6h-3.7v2.1h3.3v0.6h-3.3v2.1h3.8v0.6h-4.5V3253.5L-2457.1,3253.5z"/>
	<path class="st2" d="M-2451.3,3253.5h2.6c0.8,0,1.4,0.2,1.7,0.6c0.3,0.3,0.5,0.7,0.5,1.2l0,0c0,1-0.7,1.6-1.7,1.8l1.9,2.5h-0.8
		l-1.8-2.4h-1.8v2.4h-0.7v-6.1H-2451.3z M-2448.7,3256.6c0.9,0,1.6-0.5,1.6-1.3l0,0c0-0.8-0.6-1.2-1.6-1.2h-1.9v2.5H-2448.7z"/>
	<path class="st2" d="M-2444.9,3253.5h0.7v6.1h-0.7V3253.5z"/>
	<path class="st2" d="M-2442.4,3253.5h4.4v0.6h-3.7v2.2h3.3v0.6h-3.3v2.7h-0.7V3253.5L-2442.4,3253.5z"/>
	<path class="st2" d="M-2434.7,3257.2l-2.5-3.7h0.8l2.1,3.1l2.1-3.1h0.8l-2.5,3.7v2.4h-0.7v-2.4H-2434.7z"/>
</g>
<rect x="-2474" y="3281.6" class="st3" width="52.2" height="17.1"/>
<rect x="-2474" y="3302.2" class="st3" width="52.2" height="17.1"/>
<rect x="-2474" y="3322.8" class="st3" width="52.2" height="17.1"/>
<g class="st1">
	<path class="st2" d="M-2456,3285.8h0.8v6h3.7v0.7h-4.5V3285.8z"/>
	<path class="st2" d="M-2450.2,3285.7h0.8v0.8h-0.8V3285.7z M-2450.2,3287.5h0.7v4.9h-0.7V3287.5z"/>
	<path class="st2" d="M-2447.7,3287.5h0.7v0.9c0.3-0.5,0.8-1,1.7-1c1.2,0,1.9,0.8,1.9,2v3.1h-0.7v-2.9c0-0.9-0.5-1.5-1.4-1.5
		c-0.8,0-1.5,0.6-1.5,1.5v2.8h-0.7V3287.5z"/>
	<path class="st2" d="M-2441.6,3291.2v-3h-0.7v-0.6h0.7v-1.5h0.7v1.5h1.6v0.6h-1.6v2.9c0,0.6,0.3,0.8,0.8,0.8c0.2,0,0.5,0,0.7-0.2
		v0.6c-0.3,0.1-0.5,0.2-0.9,0.2C-2441,3292.5-2441.6,3292.2-2441.6,3291.2z"/>
</g>
<g class="st1">
	<path class="st2" d="M-2463.6,3312.1l0.5-0.6c0.7,0.6,1.4,0.9,2.3,0.9c0.9,0,1.5-0.5,1.5-1.1l0,0c0-0.6-0.3-1-1.7-1.3
		c-1.5-0.3-2.2-0.8-2.2-1.9l0,0c0-1,0.9-1.8,2.2-1.8c1,0,1.7,0.3,2.3,0.8l-0.4,0.6c-0.6-0.5-1.2-0.7-1.9-0.7c-0.9,0-1.4,0.5-1.4,1.1
		l0,0c0,0.6,0.3,1,1.8,1.3s2.2,0.9,2.2,1.9l0,0c0,1.1-1,1.9-2.3,1.9C-2461.9,3313.1-2462.8,3312.8-2463.6,3312.1z"/>
	<path class="st2" d="M-2453.6,3308.1h0.8l-2.1,5.1c-0.4,1-0.9,1.4-1.6,1.4c-0.4,0-0.7-0.1-1-0.2l0.2-0.6c0.2,0.1,0.5,0.2,0.8,0.2
		c0.4,0,0.7-0.2,1-0.9l-2.2-4.9h0.8l1.8,4.1L-2453.6,3308.1z"/>
	<path class="st2" d="M-2451.7,3308.1h0.7v0.9c0.3-0.5,0.8-1,1.7-1c1.2,0,1.9,0.8,1.9,2v3.1h-0.7v-2.9c0-0.9-0.5-1.5-1.4-1.5
		c-0.8,0-1.5,0.6-1.5,1.5v2.8h-0.7V3308.1z"/>
	<path class="st2" d="M-2445.6,3311.7v-3h-0.7v-0.6h0.7v-1.5h0.7v1.5h1.6v0.6h-1.6v2.9c0,0.6,0.3,0.8,0.8,0.8c0.2,0,0.5,0,0.7-0.2
		v0.6c-0.3,0.1-0.5,0.2-0.9,0.2C-2445,3313.1-2445.6,3312.7-2445.6,3311.7z"/>
	<path class="st2" d="M-2442.4,3311.6L-2442.4,3311.6c0-1.1,0.9-1.6,2.1-1.6c0.6,0,1.1,0.1,1.5,0.2v-0.2c0-0.9-0.5-1.3-1.5-1.3
		c-0.6,0-1,0.2-1.5,0.4l-0.2-0.6c0.5-0.2,1.1-0.4,1.8-0.4s1.2,0.2,1.6,0.5c0.3,0.3,0.5,0.8,0.5,1.4v3h-0.7v-0.7
		c-0.3,0.4-0.9,0.8-1.8,0.8C-2441.5,3313.1-2442.4,3312.6-2442.4,3311.6z M-2438.8,3311.2v-0.5c-0.4-0.1-0.8-0.2-1.4-0.2
		c-0.9,0-1.4,0.4-1.4,1l0,0c0,0.6,0.6,1,1.2,1C-2439.5,3312.6-2438.8,3312-2438.8,3311.2z"/>
	<path class="st2" d="M-2434.6,3310l1.5-1.9h0.8l-1.9,2.4l1.9,2.5h-0.8l-1.5-2l-1.5,2h-0.8l1.9-2.5l-1.8-2.4h0.8L-2434.6,3310z"/>
</g>
<g class="st1">
	<path class="st2" d="M-2456.8,3330.8v-3.9h0.8v3.8c0,1.4,0.8,2.2,2,2.2s2-0.7,2-2.2v-3.9h0.8v3.8c0,1.9-1.1,2.9-2.8,2.9
		C-2455.6,3333.7-2456.8,3332.7-2456.8,3330.8z"/>
	<path class="st2" d="M-2449.6,3328.7h0.7v0.9c0.3-0.5,0.8-1,1.7-1c1.2,0,1.9,0.8,1.9,2v3.1h-0.7v-2.9c0-0.9-0.5-1.5-1.4-1.5
		c-0.8,0-1.5,0.6-1.5,1.5v2.8h-0.7V3328.7z"/>
	<path class="st2" d="M-2443.7,3326.8h0.8v0.8h-0.8V3326.8z M-2443.6,3328.7h0.7v4.9h-0.7V3328.7z"/>
	<path class="st2" d="M-2441,3332.3v-3h-0.7v-0.6h0.7v-1.5h0.7v1.5h1.6v0.6h-1.6v2.9c0,0.6,0.3,0.8,0.8,0.8c0.2,0,0.5,0,0.7-0.2v0.6
		c-0.3,0.1-0.5,0.2-0.9,0.2C-2440.4,3333.7-2441,3333.3-2441,3332.3z"/>
</g>
<g>
	<rect x="-2414.2" y="3235.8" class="st0" width="48.4" height="42.4"/>
	<g class="st1">
		<path class="st2" d="M-2403,3253.5h2.6c0.7,0,1.3,0.2,1.6,0.5s0.4,0.6,0.4,1l0,0c0,0.8-0.5,1.2-1,1.4c0.7,0.2,1.3,0.6,1.3,1.5l0,0
			c0,1.1-0.9,1.7-2.2,1.7h-2.7L-2403,3253.5L-2403,3253.5z M-2399.1,3255.1c0-0.6-0.5-1-1.4-1h-1.9v2.1h1.8
			C-2399.7,3256.2-2399.1,3255.9-2399.1,3255.1L-2399.1,3255.1z M-2400.4,3256.8h-1.9v2.2h2.1c0.9,0,1.5-0.4,1.5-1.1l0,0
			C-2398.8,3257.2-2399.3,3256.8-2400.4,3256.8z"/>
		<path class="st2" d="M-2396.8,3257.1v-3.6h0.7v3.5c0,1.3,0.7,2.1,1.9,2.1c1.1,0,1.8-0.7,1.8-2v-3.6h0.7v3.5c0,1.8-1,2.7-2.6,2.7
			C-2395.8,3259.7-2396.8,3258.8-2396.8,3257.1z"/>
		<path class="st2" d="M-2390,3253.5h0.7v6.1h-0.7V3253.5z"/>
		<path class="st2" d="M-2387.5,3253.5h0.7v5.5h3.5v0.6h-4.1L-2387.5,3253.5L-2387.5,3253.5z"/>
		<path class="st2" d="M-2382.1,3253.5h2.1c1.9,0,3.3,1.3,3.3,3l0,0c0,1.7-1.3,3.1-3.3,3.1h-2.1V3253.5z M-2381.4,3254.1v4.9h1.4
			c1.6,0,2.5-1.1,2.5-2.4l0,0c0-1.4-1-2.4-2.5-2.4h-1.4V3254.1z"/>
	</g>
	<rect x="-2414.2" y="3281.6" class="st3" width="48.4" height="17.1"/>
	<rect x="-2414.2" y="3302.2" class="st3" width="48.4" height="17.1"/>
	<rect x="-2414.2" y="3322.8" class="st3" width="48.4" height="17.1"/>
	<g class="st1">
		<path class="st2" d="M-2398.1,3285.8h0.8v6h3.7v0.7h-4.5V3285.8z"/>
		<path class="st2" d="M-2392.3,3285.7h0.8v0.8h-0.8V3285.7z M-2392.3,3287.5h0.7v4.9h-0.7V3287.5z"/>
		<path class="st2" d="M-2389.8,3287.5h0.7v0.9c0.3-0.5,0.8-1,1.7-1c1.2,0,1.9,0.8,1.9,2v3.1h-0.7v-2.9c0-0.9-0.5-1.5-1.4-1.5
			c-0.8,0-1.5,0.6-1.5,1.5v2.8h-0.7V3287.5z"/>
		<path class="st2" d="M-2383.7,3291.2v-3h-0.7v-0.6h0.7v-1.5h0.7v1.5h1.6v0.6h-1.6v2.9c0,0.6,0.3,0.8,0.8,0.8c0.2,0,0.5,0,0.7-0.2
			v0.6c-0.3,0.1-0.5,0.2-0.9,0.2C-2383.1,3292.5-2383.7,3292.2-2383.7,3291.2z"/>
	</g>
	<g class="st1">
		<path class="st2" d="M-2405.7,3312.1l0.5-0.6c0.7,0.6,1.4,0.9,2.3,0.9s1.5-0.5,1.5-1.1l0,0c0-0.6-0.3-1-1.7-1.3
			c-1.5-0.3-2.2-0.8-2.2-1.9l0,0c0-1,0.9-1.8,2.2-1.8c1,0,1.7,0.3,2.3,0.8l-0.4,0.6c-0.6-0.5-1.2-0.7-1.9-0.7
			c-0.9,0-1.4,0.5-1.4,1.1l0,0c0,0.6,0.3,1,1.8,1.3s2.2,0.9,2.2,1.9l0,0c0,1.1-1,1.9-2.3,1.9
			C-2404,3313.1-2404.9,3312.8-2405.7,3312.1z"/>
		<path class="st2" d="M-2395.7,3308.1h0.8l-2.1,5.1c-0.4,1-0.9,1.4-1.6,1.4c-0.4,0-0.7-0.1-1-0.2l0.2-0.6c0.2,0.1,0.5,0.2,0.8,0.2
			c0.4,0,0.7-0.2,1-0.9l-2.2-4.9h0.8l1.8,4.1L-2395.7,3308.1z"/>
		<path class="st2" d="M-2393.8,3308.1h0.7v0.9c0.3-0.5,0.8-1,1.7-1c1.2,0,1.9,0.8,1.9,2v3.1h-0.7v-2.9c0-0.9-0.5-1.5-1.4-1.5
			c-0.8,0-1.5,0.6-1.5,1.5v2.8h-0.7V3308.1z"/>
		<path class="st2" d="M-2387.7,3311.7v-3h-0.7v-0.6h0.7v-1.5h0.7v1.5h1.6v0.6h-1.6v2.9c0,0.6,0.3,0.8,0.8,0.8c0.2,0,0.5,0,0.7-0.2
			v0.6c-0.3,0.1-0.5,0.2-0.9,0.2C-2387.1,3313.1-2387.7,3312.7-2387.7,3311.7z"/>
		<path class="st2" d="M-2384.5,3311.6L-2384.5,3311.6c0-1.1,0.9-1.6,2.1-1.6c0.6,0,1.1,0.1,1.5,0.2v-0.2c0-0.9-0.5-1.3-1.5-1.3
			c-0.6,0-1,0.2-1.5,0.4l-0.2-0.6c0.5-0.2,1.1-0.4,1.8-0.4s1.2,0.2,1.6,0.5c0.3,0.3,0.5,0.8,0.5,1.4v3h-0.7v-0.7
			c-0.3,0.4-0.9,0.8-1.8,0.8C-2383.5,3313.1-2384.5,3312.6-2384.5,3311.6z M-2380.8,3311.2v-0.5c-0.4-0.1-0.8-0.2-1.4-0.2
			c-0.9,0-1.4,0.4-1.4,1l0,0c0,0.6,0.6,1,1.2,1C-2381.6,3312.6-2380.8,3312-2380.8,3311.2z"/>
		<path class="st2" d="M-2376.7,3310l1.5-1.9h0.8l-1.9,2.4l1.9,2.5h-0.8l-1.5-2l-1.5,2h-0.8l1.9-2.5l-1.8-2.4h0.8L-2376.7,3310z"/>
	</g>
	<g class="st1">
		<path class="st2" d="M-2398.9,3330.8v-3.9h0.8v3.8c0,1.4,0.8,2.2,2,2.2s2-0.7,2-2.2v-3.9h0.8v3.8c0,1.9-1.1,2.9-2.8,2.9
			C-2397.7,3333.7-2398.9,3332.7-2398.9,3330.8z"/>
		<path class="st2" d="M-2391.7,3328.7h0.7v0.9c0.3-0.5,0.8-1,1.7-1c1.2,0,1.9,0.8,1.9,2v3.1h-0.7v-2.9c0-0.9-0.5-1.5-1.4-1.5
			c-0.8,0-1.5,0.6-1.5,1.5v2.8h-0.7V3328.7z"/>
		<path class="st2" d="M-2385.8,3326.8h0.8v0.8h-0.8V3326.8z M-2385.7,3328.7h0.7v4.9h-0.7V3328.7z"/>
		<path class="st2" d="M-2383.1,3332.3v-3h-0.7v-0.6h0.7v-1.5h0.7v1.5h1.6v0.6h-1.6v2.9c0,0.6,0.3,0.8,0.8,0.8c0.2,0,0.5,0,0.7-0.2
			v0.6c-0.3,0.1-0.5,0.2-0.9,0.2C-2382.5,3333.7-2383.1,3333.3-2383.1,3332.3z"/>
	</g>
	<rect x="-2414.2" y="3343.3" class="st3" width="48.4" height="17.1"/>
	<rect x="-2414.2" y="3363.9" class="st3" width="48.4" height="17.1"/>
	<rect x="-2414.2" y="3384.5" class="st3" width="48.4" height="17.1"/>
	<g class="st1">
		<path class="st2" d="M-2408.9,3353.2l0.5-0.6c0.7,0.6,1.4,0.9,2.3,0.9c0.9,0,1.5-0.5,1.5-1.1l0,0c0-0.6-0.3-1-1.7-1.3
			c-1.5-0.3-2.2-0.8-2.2-1.9l0,0c0-1,0.9-1.8,2.2-1.8c1,0,1.7,0.3,2.3,0.8l-0.4,0.6c-0.6-0.5-1.2-0.7-1.9-0.7
			c-0.9,0-1.4,0.5-1.4,1.1l0,0c0,0.6,0.3,1,1.8,1.3s2.2,0.9,2.2,1.9l0,0c0,1.1-1,1.9-2.3,1.9
			C-2407.2,3354.3-2408.1,3353.9-2408.9,3353.2z"/>
		<path class="st2" d="M-2402.8,3351.7L-2402.8,3351.7c0-1.4,1-2.6,2.4-2.6c1.5,0,2.3,1.2,2.3,2.6c0,0.1,0,0.2,0,0.2h-3.9
			c0.1,1.1,0.9,1.7,1.7,1.7c0.7,0,1.2-0.3,1.5-0.7l0.5,0.4c-0.5,0.6-1.1,0.9-2,0.9C-2401.7,3354.3-2402.8,3353.3-2402.8,3351.7z
			 M-2398.9,3351.5c-0.1-0.9-0.6-1.7-1.6-1.7c-0.9,0-1.5,0.7-1.6,1.7H-2398.9z"/>
		<path class="st2" d="M-2397.2,3351.8L-2397.2,3351.8c0-1.4,1.1-2.6,2.5-2.6c0.9,0,1.5,0.4,2,0.9l-0.5,0.5
			c-0.4-0.4-0.8-0.7-1.5-0.7c-1,0-1.8,0.8-1.8,1.9l0,0c0,1.1,0.8,1.9,1.8,1.9c0.6,0,1.1-0.3,1.5-0.7l0.5,0.4c-0.5,0.6-1.1,1-2,1
			C-2396.1,3354.3-2397.2,3353.1-2397.2,3351.8z"/>
		<path class="st2" d="M-2391.5,3352.3v-3.1h0.7v2.9c0,0.9,0.5,1.5,1.4,1.5c0.8,0,1.5-0.6,1.5-1.5v-2.8h0.7v4.9h-0.7v-0.9
			c-0.3,0.5-0.8,1-1.7,1C-2390.8,3354.3-2391.5,3353.5-2391.5,3352.3z"/>
		<path class="st2" d="M-2385.6,3349.3h0.7v1.3c0.4-0.8,1.1-1.4,2-1.4v0.8h-0.1c-1.1,0-1.9,0.8-1.9,2.3v2h-0.7V3349.3z"/>
		<path class="st2" d="M-2381.7,3347.4h0.8v0.8h-0.8V3347.4z M-2381.7,3349.3h0.7v4.9h-0.7V3349.3z"/>
		<path class="st2" d="M-2379,3352.9v-3h-0.7v-0.6h0.7v-1.5h0.7v1.5h1.6v0.6h-1.6v2.9c0,0.6,0.3,0.8,0.8,0.8c0.2,0,0.5,0,0.7-0.2
			v0.6c-0.3,0.1-0.5,0.2-0.9,0.2C-2378.4,3354.3-2379,3353.9-2379,3352.9z"/>
		<path class="st2" d="M-2371.7,3349.3h0.8l-2.1,5.1c-0.4,1-0.9,1.4-1.6,1.4c-0.4,0-0.7-0.1-1-0.2l0.2-0.6c0.2,0.1,0.5,0.2,0.8,0.2
			c0.4,0,0.7-0.2,1-0.9l-2.2-4.9h0.8l1.8,4.1L-2371.7,3349.3z"/>
	</g>
	<g class="st1">
		<path class="st2" d="M-2399.9,3375l-0.9-0.8c-0.6,0.4-1.3,0.7-2.1,0.7c-2,0-3.4-1.6-3.4-3.4l0,0c0-1.8,1.4-3.4,3.4-3.4
			s3.4,1.6,3.4,3.4l0,0c0,0.8-0.3,1.6-0.8,2.2l0.9,0.7L-2399.9,3375z M-2401.3,3373.7l-1.2-1.1l0.5-0.6l1.2,1.1
			c0.4-0.5,0.6-1.1,0.6-1.7l0,0c0-1.5-1.1-2.7-2.6-2.7s-2.6,1.2-2.6,2.7l0,0c0,1.5,1.1,2.7,2.6,2.7
			C-2402.3,3374.2-2401.8,3374-2401.3,3373.7z"/>
		<path class="st2" d="M-2398.1,3372.9v-3.1h0.7v2.9c0,0.9,0.5,1.5,1.4,1.5c0.8,0,1.5-0.6,1.5-1.5v-2.8h0.7v4.9h-0.7v-0.9
			c-0.3,0.5-0.8,1-1.7,1C-2397.4,3374.9-2398.1,3374.1-2398.1,3372.9z"/>
		<path class="st2" d="M-2392.6,3373.3L-2392.6,3373.3c0-1.1,0.9-1.6,2.1-1.6c0.6,0,1.1,0.1,1.5,0.2v-0.2c0-0.9-0.5-1.3-1.5-1.3
			c-0.6,0-1,0.2-1.5,0.4l-0.2-0.6c0.5-0.2,1.1-0.4,1.8-0.4s1.2,0.2,1.6,0.5c0.3,0.3,0.5,0.8,0.5,1.4v3h-0.7v-0.7
			c-0.3,0.4-0.9,0.8-1.8,0.8C-2391.6,3374.9-2392.6,3374.4-2392.6,3373.3z M-2388.9,3373v-0.5c-0.4-0.1-0.8-0.2-1.4-0.2
			c-0.9,0-1.4,0.4-1.4,1l0,0c0,0.6,0.6,1,1.2,1C-2389.7,3374.3-2388.9,3373.7-2388.9,3373z"/>
		<path class="st2" d="M-2386.6,3367.8h0.7v6.9h-0.7V3367.8z"/>
		<path class="st2" d="M-2384.2,3368h0.8v0.8h-0.8V3368z M-2384.1,3369.9h0.7v4.9h-0.7V3369.9z"/>
		<path class="st2" d="M-2381.4,3373.5v-3h-0.7v-0.6h0.7v-1.5h0.7v1.5h1.6v0.6h-1.6v2.9c0,0.6,0.3,0.8,0.8,0.8c0.2,0,0.5,0,0.7-0.2
			v0.6c-0.3,0.1-0.5,0.2-0.9,0.2C-2380.8,3374.9-2381.4,3374.5-2381.4,3373.5z"/>
		<path class="st2" d="M-2374.2,3369.9h0.8l-2.1,5.1c-0.4,1-0.9,1.4-1.6,1.4c-0.4,0-0.7-0.1-1-0.2l0.2-0.6c0.2,0.1,0.5,0.2,0.8,0.2
			c0.4,0,0.7-0.2,1-0.9l-2.2-4.9h0.8l1.8,4.1L-2374.2,3369.9z"/>
	</g>
	<g class="st1">
		<path class="st2" d="M-2406.1,3388.7h2.5c1.5,0,2.5,0.8,2.5,2.1l0,0c0,1.4-1.2,2.2-2.6,2.2h-1.6v2.3h-0.8L-2406.1,3388.7
			L-2406.1,3388.7z M-2403.7,3392.3c1.1,0,1.8-0.6,1.8-1.5l0,0c0-1-0.7-1.4-1.8-1.4h-1.7v2.9H-2403.7z"/>
		<path class="st2" d="M-2399.9,3393.5v-3.1h0.7v2.9c0,0.9,0.5,1.5,1.4,1.5c0.8,0,1.5-0.6,1.5-1.5v-2.8h0.7v4.9h-0.7v-0.9
			c-0.3,0.5-0.8,1-1.7,1C-2399.3,3395.4-2399.9,3394.7-2399.9,3393.5z"/>
		<path class="st2" d="M-2393.3,3394.4v0.9h-0.7v-6.9h0.7v3c0.4-0.6,1-1.1,1.9-1.1c1.2,0,2.3,0.9,2.3,2.5l0,0c0,1.6-1.2,2.6-2.3,2.6
			C-2392.3,3395.4-2392.9,3395-2393.3,3394.4z M-2389.8,3392.9L-2389.8,3392.9c0-1.2-0.8-1.9-1.7-1.9s-1.8,0.8-1.8,1.9l0,0
			c0,1.1,0.9,1.9,1.8,1.9C-2390.6,3394.8-2389.8,3394.1-2389.8,3392.9z"/>
		<path class="st2" d="M-2387.6,3388.4h0.7v6.9h-0.7V3388.4z"/>
		<path class="st2" d="M-2385.2,3388.5h0.8v0.8h-0.8V3388.5z M-2385.1,3390.4h0.7v4.9h-0.7V3390.4z"/>
		<path class="st2" d="M-2383.1,3394.7l0.4-0.5c0.5,0.4,1.1,0.6,1.7,0.6s1-0.3,1-0.8l0,0c0-0.5-0.6-0.7-1.2-0.9
			c-0.8-0.2-1.6-0.5-1.6-1.4l0,0c0-0.8,0.7-1.4,1.7-1.4c0.6,0,1.3,0.2,1.8,0.5l-0.3,0.6c-0.5-0.3-1-0.5-1.5-0.5c-0.6,0-1,0.3-1,0.7
			l0,0c0,0.5,0.6,0.6,1.3,0.8c0.8,0.2,1.6,0.5,1.6,1.4l0,0c0,0.9-0.8,1.5-1.7,1.5C-2381.8,3395.4-2382.6,3395.2-2383.1,3394.7z"/>
		<path class="st2" d="M-2378,3388.4h0.7v2.9c0.3-0.5,0.8-1,1.7-1c1.2,0,1.9,0.8,1.9,2v3.1h-0.7v-2.9c0-0.9-0.5-1.5-1.4-1.5
			c-0.8,0-1.5,0.6-1.5,1.5v2.8h-0.7V3388.4z"/>
	</g>
</g>
<g>
	<rect x="-2358.2" y="3235.8" class="st0" width="87.2" height="42.4"/>
	<g class="st1">
		<path class="st2" d="M-2343.1,3253.5h0.6l2.8,6.2h-0.7l-0.7-1.6h-3.3l-0.7,1.6h-0.7L-2343.1,3253.5z M-2341.4,3257.4l-1.4-3.1
			l-1.4,3.1H-2341.4z"/>
		<path class="st2" d="M-2339.1,3256.6L-2339.1,3256.6c0-1.8,1.3-3.2,3.1-3.2c1.1,0,1.8,0.4,2.4,1l-0.5,0.5
			c-0.5-0.5-1.1-0.8-1.9-0.8c-1.4,0-2.4,1.1-2.4,2.5l0,0c0,1.4,1,2.5,2.4,2.5c0.8,0,1.4-0.3,2-0.9l0.5,0.4c-0.6,0.6-1.3,1.1-2.5,1.1
			C-2337.8,3259.7-2339.1,3258.3-2339.1,3256.6z"/>
		<path class="st2" d="M-2332.8,3256.6L-2332.8,3256.6c0-1.8,1.3-3.2,3.1-3.2c1.1,0,1.8,0.4,2.4,1l-0.5,0.5
			c-0.5-0.5-1.1-0.8-1.9-0.8c-1.4,0-2.4,1.1-2.4,2.5l0,0c0,1.4,1,2.5,2.4,2.5c0.8,0,1.4-0.3,2-0.9l0.5,0.4c-0.6,0.6-1.3,1.1-2.5,1.1
			C-2331.5,3259.7-2332.8,3258.3-2332.8,3256.6z"/>
		<path class="st2" d="M-2326.1,3253.5h4.4v0.6h-3.7v2.1h3.3v0.6h-3.3v2.1h3.8v0.6h-4.5V3253.5L-2326.1,3253.5z"/>
		<path class="st2" d="M-2320.2,3253.5h2.3c1.4,0,2.3,0.7,2.3,1.9l0,0c0,1.3-1.1,2-2.4,2h-1.5v2.2h-0.7L-2320.2,3253.5
			L-2320.2,3253.5z M-2318,3256.8c1,0,1.7-0.5,1.7-1.3l0,0c0-0.9-0.7-1.3-1.6-1.3h-1.5v2.7L-2318,3256.8L-2318,3256.8z"/>
		<path class="st2" d="M-2312.8,3254.1h-2.1v-0.6h4.8v0.6h-2.1v5.5h-0.7L-2312.8,3254.1L-2312.8,3254.1z"/>
		<path class="st2" d="M-2307.2,3253.5h0.6l2.8,6.2h-0.7l-0.7-1.6h-3.3l-0.7,1.6h-0.7L-2307.2,3253.5z M-2305.5,3257.4l-1.4-3.1
			l-1.4,3.1H-2305.5z"/>
		<path class="st2" d="M-2302.6,3253.5h0.6l3.9,4.9v-4.9h0.7v6.1h-0.6l-4-5v5h-0.7L-2302.6,3253.5L-2302.6,3253.5z"/>
		<path class="st2" d="M-2295.9,3256.6L-2295.9,3256.6c0-1.8,1.3-3.2,3.1-3.2c1.1,0,1.8,0.4,2.4,1l-0.5,0.5
			c-0.5-0.5-1.1-0.8-1.9-0.8c-1.4,0-2.4,1.1-2.4,2.5l0,0c0,1.4,1,2.5,2.4,2.5c0.8,0,1.4-0.3,2-0.9l0.5,0.4c-0.6,0.6-1.3,1.1-2.5,1.1
			C-2294.6,3259.7-2295.9,3258.3-2295.9,3256.6z"/>
		<path class="st2" d="M-2289.2,3253.5h4.4v0.6h-3.7v2.1h3.3v0.6h-3.3v2.1h3.8v0.6h-4.5L-2289.2,3253.5L-2289.2,3253.5z"/>
	</g>
	<rect x="-2358.2" y="3281.6" class="st3" width="87.2" height="17.1"/>
	<rect x="-2358.2" y="3302.2" class="st3" width="87.2" height="17.1"/>
	<rect x="-2358.2" y="3322.8" class="st3" width="87.2" height="17.1"/>
	<rect x="-2358.2" y="3343.3" class="st3" width="87.2" height="17.1"/>
	<g class="st1">
		<path class="st2" d="M-2335.5,3285.8h2.5c1.5,0,2.5,0.8,2.5,2.1l0,0c0,1.4-1.2,2.2-2.6,2.2h-1.6v2.3h-0.8L-2335.5,3285.8
			L-2335.5,3285.8z M-2333.1,3289.4c1.1,0,1.8-0.6,1.8-1.5l0,0c0-1-0.7-1.4-1.8-1.4h-1.7v2.9H-2333.1z"/>
		<path class="st2" d="M-2329.2,3287.5h0.7v1.3c0.4-0.8,1.1-1.4,2-1.4v0.8h-0.1c-1.1,0-1.9,0.8-1.9,2.3v2h-0.7V3287.5z"/>
		<path class="st2" d="M-2325.9,3290L-2325.9,3290c0-1.4,1.1-2.6,2.6-2.6s2.6,1.2,2.6,2.5l0,0c0,1.4-1.1,2.6-2.6,2.6
			C-2324.8,3292.6-2325.9,3291.4-2325.9,3290z M-2321.5,3290L-2321.5,3290c0-1.1-0.8-1.9-1.8-1.9c-1.1,0-1.8,0.9-1.8,1.9l0,0
			c0,1.1,0.8,1.9,1.8,1.9S-2321.5,3291.1-2321.5,3290z"/>
		<path class="st2" d="M-2320.2,3287.5h0.8l1.7,4.1l1.7-4.1h0.8l-2.1,5h-0.6L-2320.2,3287.5z"/>
		<path class="st2" d="M-2314.1,3285.7h0.8v0.8h-0.8V3285.7z M-2314.1,3287.5h0.7v4.9h-0.7V3287.5z"/>
		<path class="st2" d="M-2312.1,3291.8l0.4-0.5c0.5,0.4,1.1,0.6,1.7,0.6s1-0.3,1-0.8l0,0c0-0.5-0.6-0.7-1.2-0.9
			c-0.8-0.2-1.6-0.5-1.6-1.4l0,0c0-0.8,0.7-1.4,1.7-1.4c0.6,0,1.3,0.2,1.8,0.5l-0.3,0.6c-0.5-0.3-1-0.5-1.5-0.5c-0.6,0-1,0.3-1,0.7
			l0,0c0,0.5,0.6,0.6,1.3,0.8c0.8,0.2,1.6,0.5,1.6,1.4l0,0c0,0.9-0.8,1.5-1.7,1.5C-2310.7,3292.6-2311.5,3292.3-2312.1,3291.8z"/>
		<path class="st2" d="M-2306.9,3285.7h0.8v0.8h-0.8V3285.7z M-2306.9,3287.5h0.7v4.9h-0.7V3287.5z"/>
		<path class="st2" d="M-2304.7,3290L-2304.7,3290c0-1.4,1.1-2.6,2.6-2.6s2.6,1.2,2.6,2.5l0,0c0,1.4-1.1,2.6-2.6,2.6
			C-2303.7,3292.6-2304.7,3291.4-2304.7,3290z M-2300.4,3290L-2300.4,3290c0-1.1-0.8-1.9-1.8-1.9c-1.1,0-1.8,0.9-1.8,1.9l0,0
			c0,1.1,0.8,1.9,1.8,1.9C-2301.1,3291.9-2300.4,3291.1-2300.4,3290z"/>
		<path class="st2" d="M-2298.3,3287.5h0.7v0.9c0.3-0.5,0.8-1,1.7-1c1.2,0,1.9,0.8,1.9,2v3.1h-0.7v-2.9c0-0.9-0.5-1.5-1.4-1.5
			c-0.8,0-1.5,0.6-1.5,1.5v2.8h-0.7V3287.5z"/>
	</g>
	<g class="st1">
		<path class="st2" d="M-2330.4,3306.4h2.3c2.1,0,3.5,1.4,3.5,3.3l0,0c0,1.9-1.4,3.3-3.5,3.3h-2.3V3306.4z M-2329.7,3307.1v5.3h1.6
			c1.7,0,2.8-1.1,2.8-2.6l0,0c0-1.5-1.1-2.6-2.8-2.6L-2329.7,3307.1L-2329.7,3307.1z"/>
		<path class="st2" d="M-2323.4,3310.6L-2323.4,3310.6c0-1.4,1-2.6,2.4-2.6c1.5,0,2.3,1.2,2.3,2.6c0,0.1,0,0.2,0,0.2h-3.9
			c0.1,1.1,0.9,1.7,1.7,1.7c0.7,0,1.2-0.3,1.5-0.7l0.5,0.4c-0.5,0.6-1.1,0.9-2,0.9C-2322.3,3313.2-2323.4,3312.1-2323.4,3310.6z
			 M-2319.5,3310.3c-0.1-0.9-0.6-1.7-1.6-1.7c-0.9,0-1.5,0.7-1.6,1.7H-2319.5z"/>
		<path class="st2" d="M-2317.5,3308.1h0.7v1c0.4-0.6,1-1.1,1.9-1.1c1.2,0,2.3,0.9,2.3,2.5l0,0c0,1.6-1.2,2.6-2.3,2.6
			c-0.9,0-1.5-0.5-1.9-1v2.5h-0.7V3308.1z M-2313.3,3310.6L-2313.3,3310.6c0-1.2-0.8-1.9-1.7-1.9s-1.8,0.8-1.8,1.9l0,0
			c0,1.1,0.9,1.9,1.8,1.9S-2313.3,3311.8-2313.3,3310.6z"/>
		<path class="st2" d="M-2311.1,3306.1h0.7v6.9h-0.7V3306.1z"/>
		<path class="st2" d="M-2309,3310.6L-2309,3310.6c0-1.4,1.1-2.6,2.6-2.6s2.6,1.2,2.6,2.5l0,0c0,1.4-1.1,2.6-2.6,2.6
			C-2307.9,3313.2-2309,3312-2309,3310.6z M-2304.6,3310.6L-2304.6,3310.6c0-1.1-0.8-1.9-1.8-1.9c-1.1,0-1.8,0.9-1.8,1.9l0,0
			c0,1.1,0.8,1.9,1.8,1.9S-2304.6,3311.6-2304.6,3310.6z"/>
		<path class="st2" d="M-2299.2,3308.1h0.8l-2.1,5.1c-0.4,1-0.9,1.4-1.6,1.4c-0.4,0-0.7-0.1-1-0.2l0.2-0.6c0.2,0.1,0.5,0.2,0.8,0.2
			c0.4,0,0.7-0.2,1-0.9l-2.2-4.9h0.8l1.8,4.1L-2299.2,3308.1z"/>
	</g>
	<g class="st1">
		<path class="st2" d="M-2330.2,3332.6l0.5-0.6c0.7,0.6,1.4,0.9,2.3,0.9s1.5-0.5,1.5-1.1l0,0c0-0.6-0.3-1-1.7-1.3
			c-1.5-0.3-2.2-0.8-2.2-1.9l0,0c0-1,0.9-1.8,2.2-1.8c1,0,1.7,0.3,2.3,0.8l-0.4,0.6c-0.6-0.5-1.2-0.7-1.9-0.7
			c-0.9,0-1.4,0.5-1.4,1.1l0,0c0,0.6,0.3,1,1.8,1.3s2.2,0.9,2.2,1.9l0,0c0,1.1-1,1.9-2.3,1.9
			C-2328.6,3333.7-2329.4,3333.4-2330.2,3332.6z"/>
		<path class="st2" d="M-2323.8,3328.7h0.7v0.8c0.3-0.5,0.8-0.9,1.6-0.9s1.3,0.4,1.6,1c0.4-0.5,0.9-1,1.7-1c1.1,0,1.8,0.8,1.8,2v3
			h-0.7v-2.9c0-1-0.5-1.5-1.3-1.5c-0.7,0-1.3,0.6-1.3,1.5v2.8h-0.7v-2.9c0-0.9-0.5-1.5-1.3-1.5s-1.4,0.6-1.4,1.5v2.8h-0.7
			L-2323.8,3328.7L-2323.8,3328.7z"/>
		<path class="st2" d="M-2315.1,3331.2L-2315.1,3331.2c0-1.4,1.1-2.6,2.6-2.6s2.6,1.2,2.6,2.5l0,0c0,1.4-1.1,2.6-2.6,2.6
			S-2315.1,3332.6-2315.1,3331.2z M-2310.7,3331.2L-2310.7,3331.2c0-1.1-0.8-1.9-1.8-1.9c-1.1,0-1.8,0.9-1.8,1.9l0,0
			c0,1.1,0.8,1.9,1.8,1.9C-2311.5,3333.1-2310.7,3332.2-2310.7,3331.2z"/>
		<path class="st2" d="M-2308.6,3326.7h0.7v4.8l2.7-2.8h0.9l-2.1,2.1l2.1,2.8h-0.9l-1.8-2.3l-1,1v1.3h-0.7v-6.9L-2308.6,3326.7
			L-2308.6,3326.7z"/>
		<path class="st2" d="M-2303.8,3331.2L-2303.8,3331.2c0-1.4,1-2.6,2.4-2.6c1.5,0,2.3,1.2,2.3,2.6c0,0.1,0,0.2,0,0.2h-3.9
			c0.1,1.1,0.9,1.7,1.7,1.7c0.7,0,1.2-0.3,1.5-0.7l0.5,0.4c-0.5,0.6-1.1,0.9-2,0.9C-2302.7,3333.7-2303.8,3332.7-2303.8,3331.2z
			 M-2299.9,3330.9c-0.1-0.9-0.6-1.7-1.6-1.7c-0.9,0-1.5,0.7-1.6,1.7H-2299.9z"/>
	</g>
	<g class="st1">
		<path class="st2" d="M-2338.5,3347.5h4.8v0.7h-4v2.4h3.6v0.7h-3.6v2.9h-0.8V3347.5z"/>
		<path class="st2" d="M-2332.4,3352.3v-3.1h0.7v2.9c0,0.9,0.5,1.5,1.4,1.5c0.8,0,1.5-0.6,1.5-1.5v-2.8h0.7v4.9h-0.7v-0.9
			c-0.3,0.5-0.8,1-1.7,1C-2331.8,3354.3-2332.4,3353.5-2332.4,3352.3z"/>
		<path class="st2" d="M-2326.5,3349.3h0.7v0.9c0.3-0.5,0.8-1,1.7-1c1.2,0,1.9,0.8,1.9,2v3.1h-0.7v-2.9c0-0.9-0.5-1.5-1.4-1.5
			c-0.8,0-1.5,0.6-1.5,1.5v2.8h-0.7V3349.3z"/>
		<path class="st2" d="M-2321,3351.8L-2321,3351.8c0-1.4,1.1-2.6,2.5-2.6c0.9,0,1.5,0.4,2,0.9l-0.5,0.5c-0.4-0.4-0.8-0.7-1.5-0.7
			c-1,0-1.8,0.8-1.8,1.9l0,0c0,1.1,0.8,1.9,1.8,1.9c0.6,0,1.1-0.3,1.5-0.7l0.5,0.4c-0.5,0.6-1.1,1-2,1
			C-2319.9,3354.3-2321,3353.1-2321,3351.8z"/>
		<path class="st2" d="M-2315,3352.9v-3h-0.7v-0.6h0.7v-1.5h0.7v1.5h1.6v0.6h-1.6v2.9c0,0.6,0.3,0.8,0.8,0.8c0.2,0,0.5,0,0.7-0.2
			v0.6c-0.3,0.1-0.5,0.2-0.9,0.2C-2314.4,3354.3-2315,3353.9-2315,3352.9z"/>
		<path class="st2" d="M-2311.4,3347.4h0.8v0.8h-0.8V3347.4z M-2311.3,3349.3h0.7v4.9h-0.7V3349.3z"/>
		<path class="st2" d="M-2309.2,3351.8L-2309.2,3351.8c0-1.4,1.1-2.6,2.6-2.6c1.5,0,2.6,1.2,2.6,2.5l0,0c0,1.4-1.1,2.6-2.6,2.6
			S-2309.2,3353.1-2309.2,3351.8z M-2304.8,3351.8L-2304.8,3351.8c0-1.1-0.8-1.9-1.8-1.9c-1.1,0-1.8,0.9-1.8,1.9l0,0
			c0,1.1,0.8,1.9,1.8,1.9C-2305.6,3353.6-2304.8,3352.8-2304.8,3351.8z"/>
		<path class="st2" d="M-2302.8,3349.3h0.7v0.9c0.3-0.5,0.8-1,1.7-1c1.2,0,1.9,0.8,1.9,2v3.1h-0.7v-2.9c0-0.9-0.5-1.5-1.4-1.5
			c-0.8,0-1.5,0.6-1.5,1.5v2.8h-0.7V3349.3z"/>
		<path class="st2" d="M-2297.3,3352.8L-2297.3,3352.8c0-1.1,0.9-1.6,2.1-1.6c0.6,0,1.1,0.1,1.5,0.2v-0.2c0-0.9-0.5-1.3-1.5-1.3
			c-0.6,0-1,0.2-1.5,0.4l-0.2-0.6c0.5-0.2,1.1-0.4,1.8-0.4c0.7,0,1.2,0.2,1.6,0.5c0.3,0.3,0.5,0.8,0.5,1.4v3h-0.7v-0.7
			c-0.3,0.4-0.9,0.8-1.8,0.8C-2296.4,3354.3-2297.3,3353.8-2297.3,3352.8z M-2293.7,3352.4v-0.5c-0.4-0.1-0.8-0.2-1.4-0.2
			c-0.9,0-1.4,0.4-1.4,1l0,0c0,0.6,0.6,1,1.2,1C-2294.4,3353.7-2293.7,3353.2-2293.7,3352.4z"/>
		<path class="st2" d="M-2291.3,3347.3h0.7v6.9h-0.7V3347.3z"/>
	</g>
</g>
<g>
	<rect x="-2263.8" y="3235.8" class="st0" width="53.4" height="42.4"/>
	<g class="st1">
		<path class="st2" d="M-2251.6,3257.1v-3.6h0.7v3.5c0,1.3,0.7,2.1,1.9,2.1c1.1,0,1.8-0.7,1.8-2v-3.6h0.7v3.5c0,1.8-1,2.7-2.6,2.7
			C-2250.6,3259.7-2251.6,3258.8-2251.6,3257.1z"/>
		<path class="st2" d="M-2244.9,3253.5h0.6l3.9,4.9v-4.9h0.7v6.1h-0.6l-4-5v5h-0.7L-2244.9,3253.5L-2244.9,3253.5z"/>
		<path class="st2" d="M-2237.9,3253.5h0.7v6.1h-0.7V3253.5z"/>
		<path class="st2" d="M-2235.7,3256.6L-2235.7,3256.6c0-1.7,1.3-3.2,3.1-3.2c1.8,0,3.1,1.5,3.1,3.2l0,0c0,1.7-1.3,3.2-3.1,3.2
			C-2234.4,3259.8-2235.7,3258.3-2235.7,3256.6z M-2230.1,3256.6L-2230.1,3256.6c0-1.4-1-2.5-2.4-2.5s-2.4,1.1-2.4,2.5l0,0
			c0,1.4,1,2.5,2.4,2.5S-2230.1,3258-2230.1,3256.6z"/>
		<path class="st2" d="M-2227.9,3253.5h0.6l3.9,4.9v-4.9h0.7v6.1h-0.6l-4-5v5h-0.7L-2227.9,3253.5L-2227.9,3253.5z"/>
	</g>
	<rect x="-2263.8" y="3281.6" class="st3" width="53.4" height="17.1"/>
	<rect x="-2263.8" y="3302.2" class="st3" width="53.4" height="17.1"/>
	<rect x="-2263.8" y="3322.8" class="st3" width="53.4" height="17.1"/>
	<rect x="-2263.8" y="3343.3" class="st3" width="53.4" height="17.1"/>
	<g class="st1">
		<path class="st2" d="M-2258,3285.8h2.5c1.5,0,2.5,0.8,2.5,2.1l0,0c0,1.4-1.2,2.2-2.6,2.2h-1.6v2.3h-0.8V3285.8z M-2255.6,3289.4
			c1.1,0,1.8-0.6,1.8-1.5l0,0c0-1-0.7-1.4-1.8-1.4h-1.7v2.9H-2255.6z"/>
		<path class="st2" d="M-2251.8,3287.5h0.7v1.3c0.4-0.8,1.1-1.4,2-1.4v0.8h-0.1c-1.1,0-1.9,0.8-1.9,2.3v2h-0.7V3287.5z"/>
		<path class="st2" d="M-2248.4,3290L-2248.4,3290c0-1.4,1.1-2.6,2.6-2.6s2.6,1.2,2.6,2.5l0,0c0,1.4-1.1,2.6-2.6,2.6
			C-2247.4,3292.6-2248.4,3291.4-2248.4,3290z M-2244.1,3290L-2244.1,3290c0-1.1-0.8-1.9-1.8-1.9c-1.1,0-1.8,0.9-1.8,1.9l0,0
			c0,1.1,0.8,1.9,1.8,1.9C-2244.8,3291.9-2244.1,3291.1-2244.1,3290z"/>
		<path class="st2" d="M-2242.8,3287.5h0.8l1.7,4.1l1.7-4.1h0.8l-2.1,5h-0.6L-2242.8,3287.5z"/>
		<path class="st2" d="M-2236.7,3285.7h0.8v0.8h-0.8V3285.7z M-2236.6,3287.5h0.7v4.9h-0.7V3287.5z"/>
		<path class="st2" d="M-2234.6,3291.8l0.4-0.5c0.5,0.4,1.1,0.6,1.7,0.6s1-0.3,1-0.8l0,0c0-0.5-0.6-0.7-1.2-0.9
			c-0.8-0.2-1.6-0.5-1.6-1.4l0,0c0-0.8,0.7-1.4,1.7-1.4c0.6,0,1.3,0.2,1.8,0.5l-0.3,0.6c-0.5-0.3-1-0.5-1.5-0.5c-0.6,0-1,0.3-1,0.7
			l0,0c0,0.5,0.6,0.6,1.3,0.8c0.8,0.2,1.6,0.5,1.6,1.4l0,0c0,0.9-0.8,1.5-1.8,1.5C-2233.3,3292.6-2234.1,3292.3-2234.6,3291.8z"/>
		<path class="st2" d="M-2229.5,3285.7h0.8v0.8h-0.8V3285.7z M-2229.4,3287.5h0.7v4.9h-0.7V3287.5z"/>
		<path class="st2" d="M-2227.3,3290L-2227.3,3290c0-1.4,1.1-2.6,2.6-2.6s2.6,1.2,2.6,2.5l0,0c0,1.4-1.1,2.6-2.6,2.6
			C-2226.2,3292.6-2227.3,3291.4-2227.3,3290z M-2222.9,3290L-2222.9,3290c0-1.1-0.8-1.9-1.8-1.9c-1.1,0-1.8,0.9-1.8,1.9l0,0
			c0,1.1,0.8,1.9,1.8,1.9C-2223.7,3291.9-2222.9,3291.1-2222.9,3290z"/>
		<path class="st2" d="M-2220.8,3287.5h0.7v0.9c0.3-0.5,0.8-1,1.7-1c1.2,0,1.9,0.8,1.9,2v3.1h-0.7v-2.9c0-0.9-0.5-1.5-1.4-1.5
			c-0.8,0-1.5,0.6-1.5,1.5v2.8h-0.7V3287.5z"/>
	</g>
	<g class="st1">
		<path class="st2" d="M-2253,3306.4h2.3c2.1,0,3.5,1.4,3.5,3.3l0,0c0,1.9-1.4,3.3-3.5,3.3h-2.3V3306.4z M-2252.3,3307.1v5.3h1.6
			c1.7,0,2.8-1.1,2.8-2.6l0,0c0-1.5-1.1-2.6-2.8-2.6L-2252.3,3307.1L-2252.3,3307.1z"/>
		<path class="st2" d="M-2246,3310.6L-2246,3310.6c0-1.4,1-2.6,2.4-2.6c1.5,0,2.3,1.2,2.3,2.6c0,0.1,0,0.2,0,0.2h-3.9
			c0.1,1.1,0.9,1.7,1.7,1.7c0.7,0,1.2-0.3,1.5-0.7l0.5,0.4c-0.5,0.6-1.1,0.9-2,0.9C-2244.9,3313.2-2246,3312.1-2246,3310.6z
			 M-2242.1,3310.3c-0.1-0.9-0.6-1.7-1.6-1.7c-0.9,0-1.5,0.7-1.6,1.7H-2242.1z"/>
		<path class="st2" d="M-2240.1,3308.1h0.7v1c0.4-0.6,1-1.1,1.9-1.1c1.2,0,2.3,0.9,2.3,2.5l0,0c0,1.6-1.2,2.6-2.3,2.6
			c-0.9,0-1.5-0.5-1.9-1v2.5h-0.7V3308.1z M-2235.9,3310.6L-2235.9,3310.6c0-1.2-0.8-1.9-1.7-1.9s-1.8,0.8-1.8,1.9l0,0
			c0,1.1,0.9,1.9,1.8,1.9C-2236.6,3312.5-2235.9,3311.8-2235.9,3310.6z"/>
		<path class="st2" d="M-2233.7,3306.1h0.7v6.9h-0.7V3306.1z"/>
		<path class="st2" d="M-2231.6,3310.6L-2231.6,3310.6c0-1.4,1.1-2.6,2.6-2.6s2.6,1.2,2.6,2.5l0,0c0,1.4-1.1,2.6-2.6,2.6
			C-2230.5,3313.2-2231.6,3312-2231.6,3310.6z M-2227.2,3310.6L-2227.2,3310.6c0-1.1-0.8-1.9-1.8-1.9c-1.1,0-1.8,0.9-1.8,1.9l0,0
			c0,1.1,0.8,1.9,1.8,1.9C-2227.9,3312.5-2227.2,3311.6-2227.2,3310.6z"/>
		<path class="st2" d="M-2221.7,3308.1h0.8l-2.1,5.1c-0.4,1-0.9,1.4-1.6,1.4c-0.4,0-0.7-0.1-1-0.2l0.2-0.6c0.2,0.1,0.5,0.2,0.8,0.2
			c0.4,0,0.7-0.2,1-0.9l-2.2-4.9h0.8l1.8,4.1L-2221.7,3308.1z"/>
	</g>
	<g class="st1">
		<path class="st2" d="M-2252.8,3332.6l0.5-0.6c0.7,0.6,1.4,0.9,2.3,0.9s1.5-0.5,1.5-1.1l0,0c0-0.6-0.3-1-1.7-1.3
			c-1.5-0.3-2.2-0.8-2.2-1.9l0,0c0-1,0.9-1.8,2.2-1.8c1,0,1.7,0.3,2.3,0.8l-0.4,0.6c-0.6-0.5-1.2-0.7-1.9-0.7
			c-0.9,0-1.4,0.5-1.4,1.1l0,0c0,0.6,0.3,1,1.8,1.3s2.2,0.9,2.2,1.9l0,0c0,1.1-1,1.9-2.3,1.9
			C-2251.1,3333.7-2252,3333.4-2252.8,3332.6z"/>
		<path class="st2" d="M-2246.4,3328.7h0.7v0.8c0.3-0.5,0.8-0.9,1.6-0.9c0.8,0,1.3,0.4,1.6,1c0.4-0.5,0.9-1,1.7-1
			c1.1,0,1.8,0.8,1.8,2v3h-0.7v-2.9c0-1-0.5-1.5-1.3-1.5c-0.7,0-1.3,0.6-1.3,1.5v2.8h-0.7v-2.9c0-0.9-0.5-1.5-1.3-1.5
			c-0.8,0-1.4,0.6-1.4,1.5v2.8h-0.7L-2246.4,3328.7L-2246.4,3328.7z"/>
		<path class="st2" d="M-2237.6,3331.2L-2237.6,3331.2c0-1.4,1.1-2.6,2.6-2.6s2.6,1.2,2.6,2.5l0,0c0,1.4-1.1,2.6-2.6,2.6
			C-2236.6,3333.7-2237.6,3332.6-2237.6,3331.2z M-2233.3,3331.2L-2233.3,3331.2c0-1.1-0.8-1.9-1.8-1.9c-1.1,0-1.8,0.9-1.8,1.9l0,0
			c0,1.1,0.8,1.9,1.8,1.9C-2234,3333.1-2233.3,3332.2-2233.3,3331.2z"/>
		<path class="st2" d="M-2231.2,3326.7h0.7v4.8l2.7-2.8h0.9l-2.1,2.1l2.1,2.8h-0.9l-1.8-2.3l-1,1v1.3h-0.7v-6.9L-2231.2,3326.7
			L-2231.2,3326.7z"/>
		<path class="st2" d="M-2226.3,3331.2L-2226.3,3331.2c0-1.4,1-2.6,2.4-2.6c1.5,0,2.3,1.2,2.3,2.6c0,0.1,0,0.2,0,0.2h-3.9
			c0.1,1.1,0.9,1.7,1.7,1.7c0.7,0,1.2-0.3,1.5-0.7l0.5,0.4c-0.5,0.6-1.1,0.9-2,0.9C-2225.2,3333.7-2226.3,3332.7-2226.3,3331.2z
			 M-2222.4,3330.9c-0.1-0.9-0.6-1.7-1.6-1.7c-0.9,0-1.5,0.7-1.6,1.7H-2222.4z"/>
	</g>
	<g class="st1">
		<path class="st2" d="M-2261,3347.5h4.8v0.7h-4v2.4h3.6v0.7h-3.6v2.9h-0.8V3347.5z"/>
		<path class="st2" d="M-2255,3352.3v-3.1h0.7v2.9c0,0.9,0.5,1.5,1.4,1.5c0.8,0,1.5-0.6,1.5-1.5v-2.8h0.7v4.9h-0.7v-0.9
			c-0.3,0.5-0.8,1-1.7,1C-2254.3,3354.3-2255,3353.5-2255,3352.3z"/>
		<path class="st2" d="M-2249.1,3349.3h0.7v0.9c0.3-0.5,0.8-1,1.7-1c1.2,0,1.9,0.8,1.9,2v3.1h-0.7v-2.9c0-0.9-0.5-1.5-1.4-1.5
			c-0.8,0-1.5,0.6-1.5,1.5v2.8h-0.7V3349.3z"/>
		<path class="st2" d="M-2243.5,3351.8L-2243.5,3351.8c0-1.4,1.1-2.6,2.5-2.6c0.9,0,1.5,0.4,2,0.9l-0.5,0.5
			c-0.4-0.4-0.8-0.7-1.5-0.7c-1,0-1.8,0.8-1.8,1.9l0,0c0,1.1,0.8,1.9,1.8,1.9c0.6,0,1.1-0.3,1.5-0.7l0.5,0.4c-0.5,0.6-1.1,1-2,1
			C-2242.4,3354.3-2243.5,3353.1-2243.5,3351.8z"/>
		<path class="st2" d="M-2237.5,3352.9v-3h-0.7v-0.6h0.7v-1.5h0.7v1.5h1.6v0.6h-1.6v2.9c0,0.6,0.3,0.8,0.8,0.8c0.2,0,0.5,0,0.7-0.2
			v0.6c-0.3,0.1-0.5,0.2-0.9,0.2C-2236.9,3354.3-2237.5,3353.9-2237.5,3352.9z"/>
		<path class="st2" d="M-2233.9,3347.4h0.8v0.8h-0.8V3347.4z M-2233.9,3349.3h0.7v4.9h-0.7V3349.3z"/>
		<path class="st2" d="M-2231.8,3351.8L-2231.8,3351.8c0-1.4,1.1-2.6,2.6-2.6s2.6,1.2,2.6,2.5l0,0c0,1.4-1.1,2.6-2.6,2.6
			C-2230.7,3354.3-2231.8,3353.1-2231.8,3351.8z M-2227.4,3351.8L-2227.4,3351.8c0-1.1-0.8-1.9-1.8-1.9c-1.1,0-1.8,0.9-1.8,1.9l0,0
			c0,1.1,0.8,1.9,1.8,1.9C-2228.1,3353.6-2227.4,3352.8-2227.4,3351.8z"/>
		<path class="st2" d="M-2225.3,3349.3h0.7v0.9c0.3-0.5,0.8-1,1.7-1c1.2,0,1.9,0.8,1.9,2v3.1h-0.7v-2.9c0-0.9-0.5-1.5-1.4-1.5
			c-0.8,0-1.5,0.6-1.5,1.5v2.8h-0.7V3349.3z"/>
		<path class="st2" d="M-2219.8,3352.8L-2219.8,3352.8c0-1.1,0.9-1.6,2.1-1.6c0.6,0,1.1,0.1,1.5,0.2v-0.2c0-0.9-0.5-1.3-1.5-1.3
			c-0.6,0-1,0.2-1.5,0.4l-0.2-0.6c0.5-0.2,1.1-0.4,1.8-0.4c0.7,0,1.2,0.2,1.6,0.5c0.3,0.3,0.5,0.8,0.5,1.4v3h-0.7v-0.7
			c-0.3,0.4-0.9,0.8-1.8,0.8C-2218.9,3354.3-2219.8,3353.8-2219.8,3352.8z M-2216.2,3352.4v-0.5c-0.4-0.1-0.8-0.2-1.4-0.2
			c-0.9,0-1.4,0.4-1.4,1l0,0c0,0.6,0.6,1,1.2,1C-2217,3353.7-2216.2,3353.2-2216.2,3352.4z"/>
		<path class="st2" d="M-2213.9,3347.3h0.7v6.9h-0.7V3347.3z"/>
	</g>
</g>
<g>
	<rect x="-2203.3" y="3235.8" class="st0" width="77.1" height="42.4"/>
	<g class="st1">
		<path class="st2" d="M-2191.8,3253.5h2.6c0.8,0,1.4,0.2,1.7,0.6c0.3,0.3,0.5,0.7,0.5,1.2l0,0c0,1-0.7,1.6-1.7,1.8l1.9,2.5h-0.8
			l-1.8-2.4h-1.8v2.4h-0.7v-6.1H-2191.8z M-2189.3,3256.6c0.9,0,1.6-0.5,1.6-1.3l0,0c0-0.8-0.6-1.2-1.6-1.2h-1.9v2.5H-2189.3z"/>
		<path class="st2" d="M-2185.5,3253.5h4.4v0.6h-3.7v2.1h3.3v0.6h-3.3v2.1h3.8v0.6h-4.5V3253.5L-2185.5,3253.5z"/>
		<path class="st2" d="M-2179.7,3253.5h0.7v2.7h3.5v-2.7h0.7v6.1h-0.7v-2.8h-3.5v2.8h-0.7V3253.5z"/>
		<path class="st2" d="M-2173,3253.5h4.4v0.6h-3.7v2.1h3.3v0.6h-3.3v2.1h3.8v0.6h-4.5V3253.5L-2173,3253.5z"/>
		<path class="st2" d="M-2164.9,3253.5h0.6l2.8,6.2h-0.7l-0.7-1.6h-3.3l-0.7,1.6h-0.7L-2164.9,3253.5z M-2163.2,3257.4l-1.4-3.1
			l-1.4,3.1H-2163.2z"/>
		<path class="st2" d="M-2160.2,3253.5h2.6c0.8,0,1.4,0.2,1.7,0.6c0.3,0.3,0.5,0.7,0.5,1.2l0,0c0,1-0.7,1.6-1.7,1.8l1.9,2.5h-0.8
			l-1.8-2.4h-1.8v2.4h-0.7v-6.1H-2160.2z M-2157.6,3256.6c0.9,0,1.6-0.5,1.6-1.3l0,0c0-0.8-0.6-1.2-1.6-1.2h-1.9v2.5H-2157.6z"/>
		<path class="st2" d="M-2154.3,3258.7l0.4-0.5c0.6,0.6,1.3,0.9,2.1,0.9s1.4-0.4,1.4-1l0,0c0-0.6-0.3-0.9-1.6-1.2
			c-1.4-0.3-2.1-0.8-2.1-1.8l0,0c0-1,0.8-1.7,2-1.7c0.9,0,1.5,0.3,2.2,0.8l-0.4,0.5c-0.6-0.5-1.1-0.7-1.8-0.7c-0.8,0-1.3,0.4-1.3,1
			l0,0c0,0.6,0.3,0.9,1.7,1.2s2,0.8,2,1.7l0,0c0,1.1-0.9,1.7-2.1,1.7C-2152.8,3259.7-2153.6,3259.4-2154.3,3258.7z"/>
		<path class="st2" d="M-2146.1,3253.5h0.6l2.8,6.2h-0.7l-0.7-1.6h-3.3l-0.7,1.6h-0.7L-2146.1,3253.5z M-2144.4,3257.4l-1.4-3.1
			l-1.4,3.1H-2144.4z"/>
		<path class="st2" d="M-2141.5,3253.5h0.7v5.5h3.5v0.6h-4.1L-2141.5,3253.5L-2141.5,3253.5z"/>
	</g>
	<rect x="-2203.3" y="3281.6" class="st3" width="77.1" height="17.1"/>
	<rect x="-2203.3" y="3302.2" class="st3" width="77.1" height="17.1"/>
	<rect x="-2203.3" y="3322.8" class="st3" width="77.1" height="17.1"/>
	<rect x="-2203.3" y="3343.3" class="st3" width="77.1" height="17.1"/>
	<g class="st1">
		<path class="st2" d="M-2185.6,3285.8h2.5c1.5,0,2.5,0.8,2.5,2.1l0,0c0,1.4-1.2,2.2-2.6,2.2h-1.6v2.3h-0.8V3285.8z M-2183.3,3289.4
			c1.1,0,1.8-0.6,1.8-1.5l0,0c0-1-0.7-1.4-1.8-1.4h-1.7v2.9H-2183.3z"/>
		<path class="st2" d="M-2179.4,3287.5h0.7v1.3c0.4-0.8,1.1-1.4,2-1.4v0.8h-0.1c-1.1,0-1.9,0.8-1.9,2.3v2h-0.7V3287.5z"/>
		<path class="st2" d="M-2176.1,3290L-2176.1,3290c0-1.4,1.1-2.6,2.6-2.6s2.6,1.2,2.6,2.5l0,0c0,1.4-1.1,2.6-2.6,2.6
			C-2175,3292.6-2176.1,3291.4-2176.1,3290z M-2171.7,3290L-2171.7,3290c0-1.1-0.8-1.9-1.8-1.9c-1.1,0-1.8,0.9-1.8,1.9l0,0
			c0,1.1,0.8,1.9,1.8,1.9S-2171.7,3291.1-2171.7,3290z"/>
		<path class="st2" d="M-2170.4,3287.5h0.8l1.7,4.1l1.7-4.1h0.8l-2.1,5h-0.6L-2170.4,3287.5z"/>
		<path class="st2" d="M-2164.3,3285.7h0.8v0.8h-0.8V3285.7z M-2164.3,3287.5h0.7v4.9h-0.7V3287.5z"/>
		<path class="st2" d="M-2162.3,3291.8l0.4-0.5c0.5,0.4,1.1,0.6,1.7,0.6c0.6,0,1-0.3,1-0.8l0,0c0-0.5-0.6-0.7-1.2-0.9
			c-0.8-0.2-1.6-0.5-1.6-1.4l0,0c0-0.8,0.7-1.4,1.7-1.4c0.6,0,1.3,0.2,1.8,0.5l-0.3,0.6c-0.5-0.3-1-0.5-1.5-0.5c-0.6,0-1,0.3-1,0.7
			l0,0c0,0.5,0.6,0.6,1.3,0.8c0.8,0.2,1.6,0.5,1.6,1.4l0,0c0,0.9-0.8,1.5-1.7,1.5C-2160.9,3292.6-2161.7,3292.3-2162.3,3291.8z"/>
		<path class="st2" d="M-2157.1,3285.7h0.8v0.8h-0.8V3285.7z M-2157,3287.5h0.7v4.9h-0.7V3287.5z"/>
		<path class="st2" d="M-2154.9,3290L-2154.9,3290c0-1.4,1.1-2.6,2.6-2.6s2.6,1.2,2.6,2.5l0,0c0,1.4-1.1,2.6-2.6,2.6
			C-2153.8,3292.6-2154.9,3291.4-2154.9,3290z M-2150.5,3290L-2150.5,3290c0-1.1-0.8-1.9-1.8-1.9c-1.1,0-1.8,0.9-1.8,1.9l0,0
			c0,1.1,0.8,1.9,1.8,1.9S-2150.5,3291.1-2150.5,3290z"/>
		<path class="st2" d="M-2148.5,3287.5h0.7v0.9c0.3-0.5,0.8-1,1.7-1c1.2,0,1.9,0.8,1.9,2v3.1h-0.7v-2.9c0-0.9-0.5-1.5-1.4-1.5
			c-0.8,0-1.5,0.6-1.5,1.5v2.8h-0.7V3287.5z"/>
	</g>
	<g class="st1">
		<path class="st2" d="M-2180.6,3306.4h2.3c2.1,0,3.5,1.4,3.5,3.3l0,0c0,1.9-1.4,3.3-3.5,3.3h-2.3V3306.4z M-2179.9,3307.1v5.3h1.6
			c1.7,0,2.8-1.1,2.8-2.6l0,0c0-1.5-1.1-2.6-2.8-2.6L-2179.9,3307.1L-2179.9,3307.1z"/>
		<path class="st2" d="M-2173.6,3310.6L-2173.6,3310.6c0-1.4,1-2.6,2.4-2.6c1.5,0,2.3,1.2,2.3,2.6c0,0.1,0,0.2,0,0.2h-3.9
			c0.1,1.1,0.9,1.7,1.7,1.7c0.7,0,1.2-0.3,1.5-0.7l0.5,0.4c-0.5,0.6-1.1,0.9-2,0.9C-2172.5,3313.2-2173.6,3312.1-2173.6,3310.6z
			 M-2169.7,3310.3c-0.1-0.9-0.6-1.7-1.6-1.7c-0.9,0-1.5,0.7-1.6,1.7H-2169.7z"/>
		<path class="st2" d="M-2167.7,3308.1h0.7v1c0.4-0.6,1-1.1,1.9-1.1c1.2,0,2.3,0.9,2.3,2.5l0,0c0,1.6-1.2,2.6-2.3,2.6
			c-0.9,0-1.5-0.5-1.9-1v2.5h-0.7V3308.1z M-2163.5,3310.6L-2163.5,3310.6c0-1.2-0.8-1.9-1.7-1.9c-0.9,0-1.8,0.8-1.8,1.9l0,0
			c0,1.1,0.9,1.9,1.8,1.9C-2164.3,3312.5-2163.5,3311.8-2163.5,3310.6z"/>
		<path class="st2" d="M-2161.3,3306.1h0.7v6.9h-0.7V3306.1z"/>
		<path class="st2" d="M-2159.2,3310.6L-2159.2,3310.6c0-1.4,1.1-2.6,2.6-2.6s2.6,1.2,2.6,2.5l0,0c0,1.4-1.1,2.6-2.6,2.6
			C-2158.1,3313.2-2159.2,3312-2159.2,3310.6z M-2154.8,3310.6L-2154.8,3310.6c0-1.1-0.8-1.9-1.8-1.9c-1.1,0-1.8,0.9-1.8,1.9l0,0
			c0,1.1,0.8,1.9,1.8,1.9S-2154.8,3311.6-2154.8,3310.6z"/>
		<path class="st2" d="M-2149.4,3308.1h0.8l-2.1,5.1c-0.4,1-0.9,1.4-1.6,1.4c-0.4,0-0.7-0.1-1-0.2l0.2-0.6c0.2,0.1,0.5,0.2,0.8,0.2
			c0.4,0,0.7-0.2,1-0.9l-2.2-4.9h0.8l1.8,4.1L-2149.4,3308.1z"/>
	</g>
	<g class="st1">
		<path class="st2" d="M-2180.4,3332.6l0.5-0.6c0.7,0.6,1.4,0.9,2.3,0.9c0.9,0,1.5-0.5,1.5-1.1l0,0c0-0.6-0.3-1-1.7-1.3
			c-1.5-0.3-2.2-0.8-2.2-1.9l0,0c0-1,0.9-1.8,2.2-1.8c1,0,1.7,0.3,2.3,0.8l-0.4,0.6c-0.6-0.5-1.2-0.7-1.9-0.7
			c-0.9,0-1.4,0.5-1.4,1.1l0,0c0,0.6,0.3,1,1.8,1.3s2.2,0.9,2.2,1.9l0,0c0,1.1-1,1.9-2.3,1.9
			C-2178.7,3333.7-2179.6,3333.4-2180.4,3332.6z"/>
		<path class="st2" d="M-2174,3328.7h0.7v0.8c0.3-0.5,0.8-0.9,1.6-0.9c0.8,0,1.3,0.4,1.6,1c0.4-0.5,0.9-1,1.7-1c1.1,0,1.8,0.8,1.8,2
			v3h-0.7v-2.9c0-1-0.5-1.5-1.3-1.5c-0.7,0-1.4,0.6-1.4,1.5v2.8h-0.7v-2.9c0-0.9-0.5-1.5-1.3-1.5c-0.8,0-1.4,0.6-1.4,1.5v2.8h-0.7
			v-4.7L-2174,3328.7L-2174,3328.7z"/>
		<path class="st2" d="M-2165.3,3331.2L-2165.3,3331.2c0-1.4,1.1-2.6,2.6-2.6s2.6,1.2,2.6,2.5l0,0c0,1.4-1.1,2.6-2.6,2.6
			C-2164.2,3333.7-2165.3,3332.6-2165.3,3331.2z M-2160.9,3331.2L-2160.9,3331.2c0-1.1-0.8-1.9-1.8-1.9c-1.1,0-1.8,0.9-1.8,1.9l0,0
			c0,1.1,0.8,1.9,1.8,1.9C-2161.6,3333.1-2160.9,3332.2-2160.9,3331.2z"/>
		<path class="st2" d="M-2158.8,3326.7h0.7v4.8l2.7-2.8h0.9l-2.1,2.1l2.1,2.8h-0.9l-1.8-2.3l-1,1v1.3h-0.7v-6.9L-2158.8,3326.7
			L-2158.8,3326.7z"/>
		<path class="st2" d="M-2154,3331.2L-2154,3331.2c0-1.4,1-2.6,2.4-2.6c1.5,0,2.3,1.2,2.3,2.6c0,0.1,0,0.2,0,0.2h-3.9
			c0.1,1.1,0.9,1.7,1.7,1.7c0.7,0,1.2-0.3,1.5-0.7l0.5,0.4c-0.5,0.6-1.1,0.9-2,0.9C-2152.9,3333.7-2154,3332.7-2154,3331.2z
			 M-2150.1,3330.9c-0.1-0.9-0.6-1.7-1.6-1.7c-0.9,0-1.5,0.7-1.6,1.7H-2150.1z"/>
	</g>
	<g class="st1">
		<path class="st2" d="M-2188.7,3347.5h4.8v0.7h-4v2.4h3.6v0.7h-3.6v2.9h-0.8V3347.5z"/>
		<path class="st2" d="M-2182.6,3352.3v-3.1h0.7v2.9c0,0.9,0.5,1.5,1.4,1.5c0.8,0,1.5-0.6,1.5-1.5v-2.8h0.7v4.9h-0.7v-0.9
			c-0.3,0.5-0.8,1-1.7,1C-2181.9,3354.3-2182.6,3353.5-2182.6,3352.3z"/>
		<path class="st2" d="M-2176.7,3349.3h0.7v0.9c0.3-0.5,0.8-1,1.7-1c1.2,0,1.9,0.8,1.9,2v3.1h-0.7v-2.9c0-0.9-0.5-1.5-1.4-1.5
			c-0.8,0-1.5,0.6-1.5,1.5v2.8h-0.7V3349.3z"/>
		<path class="st2" d="M-2171.2,3351.8L-2171.2,3351.8c0-1.4,1.1-2.6,2.5-2.6c0.9,0,1.5,0.4,2,0.9l-0.5,0.5
			c-0.4-0.4-0.8-0.7-1.5-0.7c-1,0-1.8,0.8-1.8,1.9l0,0c0,1.1,0.8,1.9,1.8,1.9c0.6,0,1.1-0.3,1.5-0.7l0.5,0.4c-0.5,0.6-1.1,1-2,1
			C-2170.1,3354.3-2171.2,3353.1-2171.2,3351.8z"/>
		<path class="st2" d="M-2165.2,3352.9v-3h-0.7v-0.6h0.7v-1.5h0.7v1.5h1.6v0.6h-1.6v2.9c0,0.6,0.3,0.8,0.8,0.8c0.2,0,0.5,0,0.7-0.2
			v0.6c-0.3,0.1-0.5,0.2-0.9,0.2C-2164.6,3354.3-2165.2,3353.9-2165.2,3352.9z"/>
		<path class="st2" d="M-2161.6,3347.4h0.8v0.8h-0.8V3347.4z M-2161.5,3349.3h0.7v4.9h-0.7V3349.3z"/>
		<path class="st2" d="M-2159.4,3351.8L-2159.4,3351.8c0-1.4,1.1-2.6,2.6-2.6s2.6,1.2,2.6,2.5l0,0c0,1.4-1.1,2.6-2.6,2.6
			S-2159.4,3353.1-2159.4,3351.8z M-2155,3351.8L-2155,3351.8c0-1.1-0.8-1.9-1.8-1.9c-1.1,0-1.8,0.9-1.8,1.9l0,0
			c0,1.1,0.8,1.9,1.8,1.9C-2155.8,3353.6-2155,3352.8-2155,3351.8z"/>
		<path class="st2" d="M-2153,3349.3h0.7v0.9c0.3-0.5,0.8-1,1.7-1c1.2,0,1.9,0.8,1.9,2v3.1h-0.7v-2.9c0-0.9-0.5-1.5-1.4-1.5
			c-0.8,0-1.5,0.6-1.5,1.5v2.8h-0.7V3349.3z"/>
		<path class="st2" d="M-2147.5,3352.8L-2147.5,3352.8c0-1.1,0.9-1.6,2.1-1.6c0.6,0,1.1,0.1,1.5,0.2v-0.2c0-0.9-0.5-1.3-1.5-1.3
			c-0.6,0-1,0.2-1.5,0.4l-0.2-0.6c0.5-0.2,1.1-0.4,1.8-0.4c0.7,0,1.2,0.2,1.6,0.5c0.3,0.3,0.5,0.8,0.5,1.4v3h-0.7v-0.7
			c-0.3,0.4-0.9,0.8-1.8,0.8C-2146.5,3354.3-2147.5,3353.8-2147.5,3352.8z M-2143.8,3352.4v-0.5c-0.4-0.1-0.8-0.2-1.4-0.2
			c-0.9,0-1.4,0.4-1.4,1l0,0c0,0.6,0.6,1,1.2,1C-2144.6,3353.7-2143.8,3353.2-2143.8,3352.4z"/>
		<path class="st2" d="M-2141.5,3347.3h0.7v6.9h-0.7V3347.3z"/>
	</g>
</g>
<g>
	<rect x="-2119.1" y="3235.8" class="st0" width="77.1" height="42.4"/>
	<g class="st1">
		<path class="st2" d="M-2105.8,3253.5h2.1c1.9,0,3.3,1.3,3.3,3l0,0c0,1.7-1.3,3.1-3.3,3.1h-2.1V3253.5z M-2105.1,3254.1v4.9h1.4
			c1.5,0,2.5-1.1,2.5-2.4l0,0c0-1.4-1-2.4-2.5-2.4h-1.4V3254.1z"/>
		<path class="st2" d="M-2098.9,3253.5h4.4v0.6h-3.7v2.1h3.3v0.6h-3.3v2.1h3.8v0.6h-4.5V3253.5L-2098.9,3253.5z"/>
		<path class="st2" d="M-2093,3253.5h0.7v5.5h3.5v0.6h-4.1L-2093,3253.5L-2093,3253.5z"/>
		<path class="st2" d="M-2087.6,3253.5h0.7v6.1h-0.7V3253.5z"/>
		<path class="st2" d="M-2085.6,3253.5h0.8l2.2,5.3l2.2-5.3h0.7l-2.6,6.2h-0.6L-2085.6,3253.5z"/>
		<path class="st2" d="M-2078.5,3253.5h4.4v0.6h-3.7v2.1h3.3v0.6h-3.3v2.1h3.8v0.6h-4.5V3253.5L-2078.5,3253.5z"/>
		<path class="st2" d="M-2072.6,3253.5h2.6c0.8,0,1.4,0.2,1.7,0.6c0.3,0.3,0.5,0.7,0.5,1.2l0,0c0,1-0.7,1.6-1.7,1.8l1.9,2.5h-0.8
			l-1.8-2.4h-1.8v2.4h-0.7v-6.1H-2072.6z M-2070.1,3256.6c0.9,0,1.6-0.5,1.6-1.3l0,0c0-0.8-0.6-1.2-1.6-1.2h-1.9v2.5H-2070.1z"/>
		<path class="st2" d="M-2066.3,3253.5h4.4v0.6h-3.7v2.1h3.3v0.6h-3.3v2.1h3.8v0.6h-4.5L-2066.3,3253.5L-2066.3,3253.5z"/>
		<path class="st2" d="M-2060.4,3253.5h2.1c1.9,0,3.3,1.3,3.3,3l0,0c0,1.7-1.3,3.1-3.3,3.1h-2.1V3253.5z M-2059.8,3254.1v4.9h1.4
			c1.5,0,2.5-1.1,2.5-2.4l0,0c0-1.4-1-2.4-2.5-2.4h-1.4V3254.1z"/>
	</g>
	<rect x="-2119.1" y="3281.6" class="st3" width="77.1" height="17.1"/>
	<rect x="-2119.1" y="3302.2" class="st3" width="77.1" height="17.1"/>
	<rect x="-2119.1" y="3322.8" class="st3" width="77.1" height="17.1"/>
	<rect x="-2119.1" y="3343.3" class="st3" width="77.1" height="17.1"/>
	<g class="st1">
		<path class="st2" d="M-2101.4,3285.8h2.5c1.5,0,2.5,0.8,2.5,2.1l0,0c0,1.4-1.2,2.2-2.6,2.2h-1.6v2.3h-0.8V3285.8z M-2099,3289.4
			c1.1,0,1.8-0.6,1.8-1.5l0,0c0-1-0.7-1.4-1.8-1.4h-1.7v2.9H-2099z"/>
		<path class="st2" d="M-2095.2,3287.5h0.7v1.3c0.4-0.8,1.1-1.4,2-1.4v0.8h-0.1c-1.1,0-1.9,0.8-1.9,2.3v2h-0.7V3287.5z"/>
		<path class="st2" d="M-2091.9,3290L-2091.9,3290c0-1.4,1.1-2.6,2.6-2.6s2.6,1.2,2.6,2.5l0,0c0,1.4-1.1,2.6-2.6,2.6
			C-2090.8,3292.6-2091.9,3291.4-2091.9,3290z M-2087.5,3290L-2087.5,3290c0-1.1-0.8-1.9-1.8-1.9c-1.1,0-1.8,0.9-1.8,1.9l0,0
			c0,1.1,0.8,1.9,1.8,1.9C-2088.2,3291.9-2087.5,3291.1-2087.5,3290z"/>
		<path class="st2" d="M-2086.2,3287.5h0.8l1.7,4.1l1.7-4.1h0.8l-2.1,5h-0.6L-2086.2,3287.5z"/>
		<path class="st2" d="M-2080.1,3285.7h0.8v0.8h-0.8V3285.7z M-2080.1,3287.5h0.7v4.9h-0.7V3287.5z"/>
		<path class="st2" d="M-2078,3291.8l0.4-0.5c0.5,0.4,1.1,0.6,1.7,0.6c0.6,0,1-0.3,1-0.8l0,0c0-0.5-0.6-0.7-1.2-0.9
			c-0.8-0.2-1.6-0.5-1.6-1.4l0,0c0-0.8,0.7-1.4,1.7-1.4c0.6,0,1.3,0.2,1.8,0.5l-0.3,0.6c-0.5-0.3-1-0.5-1.5-0.5c-0.6,0-1,0.3-1,0.7
			l0,0c0,0.5,0.6,0.6,1.3,0.8c0.8,0.2,1.6,0.5,1.6,1.4l0,0c0,0.9-0.8,1.5-1.8,1.5C-2076.7,3292.6-2077.5,3292.3-2078,3291.8z"/>
		<path class="st2" d="M-2072.9,3285.7h0.8v0.8h-0.8V3285.7z M-2072.8,3287.5h0.7v4.9h-0.7V3287.5z"/>
		<path class="st2" d="M-2070.7,3290L-2070.7,3290c0-1.4,1.1-2.6,2.6-2.6s2.6,1.2,2.6,2.5l0,0c0,1.4-1.1,2.6-2.6,2.6
			C-2069.6,3292.6-2070.7,3291.4-2070.7,3290z M-2066.3,3290L-2066.3,3290c0-1.1-0.8-1.9-1.8-1.9c-1.1,0-1.8,0.9-1.8,1.9l0,0
			c0,1.1,0.8,1.9,1.8,1.9S-2066.3,3291.1-2066.3,3290z"/>
		<path class="st2" d="M-2064.2,3287.5h0.7v0.9c0.3-0.5,0.8-1,1.7-1c1.2,0,1.9,0.8,1.9,2v3.1h-0.7v-2.9c0-0.9-0.5-1.5-1.4-1.5
			c-0.8,0-1.5,0.6-1.5,1.5v2.8h-0.7V3287.5z"/>
	</g>
	<g class="st1">
		<path class="st2" d="M-2096.4,3306.4h2.3c2.1,0,3.5,1.4,3.5,3.3l0,0c0,1.9-1.4,3.3-3.5,3.3h-2.3V3306.4z M-2095.7,3307.1v5.3h1.6
			c1.7,0,2.8-1.1,2.8-2.6l0,0c0-1.5-1.1-2.6-2.8-2.6L-2095.7,3307.1L-2095.7,3307.1z"/>
		<path class="st2" d="M-2089.4,3310.6L-2089.4,3310.6c0-1.4,1-2.6,2.4-2.6c1.5,0,2.3,1.2,2.3,2.6c0,0.1,0,0.2,0,0.2h-3.9
			c0.1,1.1,0.9,1.7,1.7,1.7c0.7,0,1.2-0.3,1.5-0.7l0.5,0.4c-0.5,0.6-1.1,0.9-2,0.9C-2088.3,3313.2-2089.4,3312.1-2089.4,3310.6z
			 M-2085.5,3310.3c-0.1-0.9-0.6-1.7-1.6-1.7c-0.9,0-1.5,0.7-1.6,1.7H-2085.5z"/>
		<path class="st2" d="M-2083.5,3308.1h0.7v1c0.4-0.6,1-1.1,1.9-1.1c1.2,0,2.3,0.9,2.3,2.5l0,0c0,1.6-1.2,2.6-2.3,2.6
			c-0.9,0-1.5-0.5-1.9-1v2.5h-0.7V3308.1z M-2079.3,3310.6L-2079.3,3310.6c0-1.2-0.8-1.9-1.7-1.9s-1.8,0.8-1.8,1.9l0,0
			c0,1.1,0.9,1.9,1.8,1.9C-2080,3312.5-2079.3,3311.8-2079.3,3310.6z"/>
		<path class="st2" d="M-2077.1,3306.1h0.7v6.9h-0.7V3306.1z"/>
		<path class="st2" d="M-2075,3310.6L-2075,3310.6c0-1.4,1.1-2.6,2.6-2.6s2.6,1.2,2.6,2.5l0,0c0,1.4-1.1,2.6-2.6,2.6
			C-2073.9,3313.2-2075,3312-2075,3310.6z M-2070.6,3310.6L-2070.6,3310.6c0-1.1-0.8-1.9-1.8-1.9c-1.1,0-1.8,0.9-1.8,1.9l0,0
			c0,1.1,0.8,1.9,1.8,1.9C-2071.3,3312.5-2070.6,3311.6-2070.6,3310.6z"/>
		<path class="st2" d="M-2065.1,3308.1h0.8l-2.1,5.1c-0.4,1-0.9,1.4-1.6,1.4c-0.4,0-0.7-0.1-1-0.2l0.2-0.6c0.2,0.1,0.5,0.2,0.8,0.2
			c0.4,0,0.7-0.2,1-0.9l-2.2-4.9h0.8l1.8,4.1L-2065.1,3308.1z"/>
	</g>
	<g class="st1">
		<path class="st2" d="M-2096.2,3332.6l0.5-0.6c0.7,0.6,1.4,0.9,2.3,0.9s1.5-0.5,1.5-1.1l0,0c0-0.6-0.3-1-1.7-1.3
			c-1.5-0.3-2.2-0.8-2.2-1.9l0,0c0-1,0.9-1.8,2.2-1.8c1,0,1.7,0.3,2.3,0.8l-0.4,0.6c-0.6-0.5-1.2-0.7-1.9-0.7
			c-0.9,0-1.4,0.5-1.4,1.1l0,0c0,0.6,0.3,1,1.8,1.3s2.2,0.9,2.2,1.9l0,0c0,1.1-1,1.9-2.3,1.9
			C-2094.5,3333.7-2095.4,3333.4-2096.2,3332.6z"/>
		<path class="st2" d="M-2089.8,3328.7h0.7v0.8c0.3-0.5,0.8-0.9,1.6-0.9c0.8,0,1.3,0.4,1.6,1c0.4-0.5,0.9-1,1.7-1
			c1.1,0,1.8,0.8,1.8,2v3h-0.7v-2.9c0-1-0.5-1.5-1.3-1.5c-0.7,0-1.3,0.6-1.3,1.5v2.8h-0.7v-2.9c0-0.9-0.5-1.5-1.3-1.5
			s-1.4,0.6-1.4,1.5v2.8h-0.7L-2089.8,3328.7L-2089.8,3328.7z"/>
		<path class="st2" d="M-2081.1,3331.2L-2081.1,3331.2c0-1.4,1.1-2.6,2.6-2.6s2.6,1.2,2.6,2.5l0,0c0,1.4-1.1,2.6-2.6,2.6
			S-2081.1,3332.6-2081.1,3331.2z M-2076.7,3331.2L-2076.7,3331.2c0-1.1-0.8-1.9-1.8-1.9c-1.1,0-1.8,0.9-1.8,1.9l0,0
			c0,1.1,0.8,1.9,1.8,1.9C-2077.4,3333.1-2076.7,3332.2-2076.7,3331.2z"/>
		<path class="st2" d="M-2074.6,3326.7h0.7v4.8l2.7-2.8h0.9l-2.1,2.1l2.1,2.8h-0.9l-1.8-2.3l-1,1v1.3h-0.7v-6.9L-2074.6,3326.7
			L-2074.6,3326.7z"/>
		<path class="st2" d="M-2069.7,3331.2L-2069.7,3331.2c0-1.4,1-2.6,2.4-2.6c1.5,0,2.3,1.2,2.3,2.6c0,0.1,0,0.2,0,0.2h-3.9
			c0.1,1.1,0.9,1.7,1.7,1.7c0.7,0,1.2-0.3,1.5-0.7l0.5,0.4c-0.5,0.6-1.1,0.9-2,0.9C-2068.6,3333.7-2069.7,3332.7-2069.7,3331.2z
			 M-2065.8,3330.9c-0.1-0.9-0.6-1.7-1.6-1.7c-0.9,0-1.5,0.7-1.6,1.7H-2065.8z"/>
	</g>
	<g class="st1">
		<path class="st2" d="M-2104.5,3347.5h4.8v0.7h-4v2.4h3.6v0.7h-3.6v2.9h-0.8V3347.5z"/>
		<path class="st2" d="M-2098.4,3352.3v-3.1h0.7v2.9c0,0.9,0.5,1.5,1.4,1.5c0.8,0,1.5-0.6,1.5-1.5v-2.8h0.7v4.9h-0.7v-0.9
			c-0.3,0.5-0.8,1-1.7,1C-2097.7,3354.3-2098.4,3353.5-2098.4,3352.3z"/>
		<path class="st2" d="M-2092.5,3349.3h0.7v0.9c0.3-0.5,0.8-1,1.7-1c1.2,0,1.9,0.8,1.9,2v3.1h-0.7v-2.9c0-0.9-0.5-1.5-1.4-1.5
			c-0.8,0-1.5,0.6-1.5,1.5v2.8h-0.7V3349.3z"/>
		<path class="st2" d="M-2086.9,3351.8L-2086.9,3351.8c0-1.4,1.1-2.6,2.5-2.6c0.9,0,1.5,0.4,2,0.9l-0.5,0.5
			c-0.4-0.4-0.8-0.7-1.5-0.7c-1,0-1.8,0.8-1.8,1.9l0,0c0,1.1,0.8,1.9,1.8,1.9c0.6,0,1.1-0.3,1.5-0.7l0.5,0.4c-0.5,0.6-1.1,1-2,1
			C-2085.9,3354.3-2086.9,3353.1-2086.9,3351.8z"/>
		<path class="st2" d="M-2080.9,3352.9v-3h-0.7v-0.6h0.7v-1.5h0.7v1.5h1.6v0.6h-1.6v2.9c0,0.6,0.3,0.8,0.8,0.8c0.2,0,0.5,0,0.7-0.2
			v0.6c-0.3,0.1-0.5,0.2-0.9,0.2C-2080.3,3354.3-2080.9,3353.9-2080.9,3352.9z"/>
		<path class="st2" d="M-2077.3,3347.4h0.8v0.8h-0.8V3347.4z M-2077.3,3349.3h0.7v4.9h-0.7V3349.3z"/>
		<path class="st2" d="M-2075.2,3351.8L-2075.2,3351.8c0-1.4,1.1-2.6,2.6-2.6s2.6,1.2,2.6,2.5l0,0c0,1.4-1.1,2.6-2.6,2.6
			S-2075.2,3353.1-2075.2,3351.8z M-2070.8,3351.8L-2070.8,3351.8c0-1.1-0.8-1.9-1.8-1.9c-1.1,0-1.8,0.9-1.8,1.9l0,0
			c0,1.1,0.8,1.9,1.8,1.9C-2071.5,3353.6-2070.8,3352.8-2070.8,3351.8z"/>
		<path class="st2" d="M-2068.7,3349.3h0.7v0.9c0.3-0.5,0.8-1,1.7-1c1.2,0,1.9,0.8,1.9,2v3.1h-0.7v-2.9c0-0.9-0.5-1.5-1.4-1.5
			c-0.8,0-1.5,0.6-1.5,1.5v2.8h-0.7V3349.3z"/>
		<path class="st2" d="M-2063.2,3352.8L-2063.2,3352.8c0-1.1,0.9-1.6,2.1-1.6c0.6,0,1.1,0.1,1.5,0.2v-0.2c0-0.9-0.5-1.3-1.5-1.3
			c-0.6,0-1,0.2-1.5,0.4l-0.2-0.6c0.5-0.2,1.1-0.4,1.8-0.4c0.7,0,1.2,0.2,1.6,0.5c0.3,0.3,0.5,0.8,0.5,1.4v3h-0.7v-0.7
			c-0.3,0.4-0.9,0.8-1.8,0.8C-2062.3,3354.3-2063.2,3353.8-2063.2,3352.8z M-2059.6,3352.4v-0.5c-0.4-0.1-0.8-0.2-1.4-0.2
			c-0.9,0-1.4,0.4-1.4,1l0,0c0,0.6,0.6,1,1.2,1C-2060.4,3353.7-2059.6,3353.2-2059.6,3352.4z"/>
		<path class="st2" d="M-2057.3,3347.3h0.7v6.9h-0.7V3347.3z"/>
	</g>
</g>
</svg>
