<?xml version="1.0" encoding="utf-8"?>
<!-- Generator: Adobe Illustrator 19.1.0, SVG Export Plug-In . SVG Version: 6.00 Build 0)  -->
<svg version="1.1" id="Layer_1" xmlns="http://www.w3.org/2000/svg" xmlns:xlink="http://www.w3.org/1999/xlink" x="0px" y="0px"
	 viewBox="-2000 2920.6 344.5 84.8" style="enable-background:new -2000 2920.6 344.5 84.8;" xml:space="preserve">
<style type="text/css">
	.st0{fill:#445464;}
	.st1{enable-background:new    ;}
	.st2{fill:#FFFFFF;}
	.st3{fill:#59B8B3;}
	.st4{fill:#6CB2E2;}
</style>
<g>
	<g>
		<rect x="-2000" y="2941.8" class="st0" width="41.8" height="42.4"/>
		<g class="st1">
			<path class="st2" d="M-1995.4,2959.5h0.8l2.2,5.3l2.2-5.3h0.7l-2.6,6.2h-0.6L-1995.4,2959.5z"/>
			<path class="st2" d="M-1988.3,2959.5h4.4v0.6h-3.7v2.1h3.3v0.6h-3.3v2.1h3.8v0.6h-4.5V2959.5z"/>
			<path class="st2" d="M-1982.5,2959.5h2.6c0.8,0,1.4,0.2,1.7,0.6c0.3,0.3,0.5,0.7,0.5,1.2v0c0,1-0.7,1.6-1.7,1.8l1.9,2.5h-0.8
				l-1.8-2.4h-1.8v2.4h-0.7V2959.5z M-1979.9,2962.7c0.9,0,1.6-0.5,1.6-1.3v0c0-0.8-0.6-1.2-1.6-1.2h-1.9v2.5H-1979.9z"/>
			<path class="st2" d="M-1976.1,2959.5h0.7v6.1h-0.7V2959.5z"/>
			<path class="st2" d="M-1973.6,2959.5h4.4v0.6h-3.7v2.2h3.3v0.6h-3.3v2.7h-0.7V2959.5z"/>
			<path class="st2" d="M-1965.9,2963.2l-2.5-3.7h0.8l2.1,3.1l2.1-3.1h0.8l-2.5,3.7v2.4h-0.7V2963.2z"/>
		</g>
	</g>
	<g>
		<rect x="-1952.7" y="2941.8" class="st0" width="38.7" height="42.4"/>
		<g class="st1">
			<path class="st2" d="M-1946.4,2959.5h2.6c0.7,0,1.3,0.2,1.6,0.5c0.3,0.3,0.4,0.6,0.4,1v0c0,0.8-0.5,1.2-1,1.4
				c0.7,0.2,1.3,0.6,1.3,1.5v0c0,1.1-0.9,1.7-2.2,1.7h-2.7V2959.5z M-1942.4,2961.1c0-0.6-0.5-1-1.4-1h-1.9v2.1h1.8
				C-1943,2962.3-1942.4,2961.9-1942.4,2961.1L-1942.4,2961.1z M-1943.7,2962.9h-1.9v2.2h2.1c0.9,0,1.5-0.4,1.5-1.1v0
				C-1942.1,2963.3-1942.7,2962.9-1943.7,2962.9z"/>
			<path class="st2" d="M-1940.1,2963.1v-3.6h0.7v3.5c0,1.3,0.7,2.1,1.9,2.1c1.1,0,1.8-0.7,1.8-2v-3.6h0.7v3.5c0,1.8-1,2.7-2.6,2.7
				C-1939.1,2965.8-1940.1,2964.8-1940.1,2963.1z"/>
			<path class="st2" d="M-1933.3,2959.5h0.7v6.1h-0.7V2959.5z"/>
			<path class="st2" d="M-1930.8,2959.5h0.7v5.5h3.5v0.6h-4.1V2959.5z"/>
			<path class="st2" d="M-1925.4,2959.5h2.1c1.9,0,3.3,1.3,3.3,3v0c0,1.7-1.3,3.1-3.3,3.1h-2.1V2959.5z M-1924.7,2960.2v4.9h1.4
				c1.6,0,2.5-1.1,2.5-2.4v0c0-1.4-1-2.4-2.5-2.4H-1924.7z"/>
		</g>
	</g>
	<g>
		<rect x="-1908.4" y="2941.8" class="st0" width="69.8" height="42.4"/>
		<g class="st1">
			<path class="st2" d="M-1902.1,2959.5h0.6l2.8,6.2h-0.7l-0.7-1.6h-3.3l-0.7,1.6h-0.7L-1902.1,2959.5z M-1900.4,2963.4l-1.4-3.1
				l-1.4,3.1H-1900.4z"/>
			<path class="st2" d="M-1898.1,2962.6L-1898.1,2962.6c0-1.8,1.3-3.2,3.1-3.2c1.1,0,1.8,0.4,2.4,1l-0.5,0.5
				c-0.5-0.5-1.1-0.8-1.9-0.8c-1.4,0-2.4,1.1-2.4,2.5v0c0,1.4,1,2.5,2.4,2.5c0.8,0,1.4-0.3,2-0.9l0.5,0.4c-0.6,0.6-1.3,1.1-2.5,1.1
				C-1896.8,2965.8-1898.1,2964.4-1898.1,2962.6z"/>
			<path class="st2" d="M-1891.8,2962.6L-1891.8,2962.6c0-1.8,1.3-3.2,3.1-3.2c1.1,0,1.8,0.4,2.4,1l-0.5,0.5
				c-0.5-0.5-1.1-0.8-1.9-0.8c-1.4,0-2.4,1.1-2.4,2.5v0c0,1.4,1,2.5,2.4,2.5c0.8,0,1.4-0.3,2-0.9l0.5,0.4c-0.6,0.6-1.3,1.1-2.5,1.1
				C-1890.5,2965.8-1891.8,2964.4-1891.8,2962.6z"/>
			<path class="st2" d="M-1885.1,2959.5h4.4v0.6h-3.7v2.1h3.3v0.6h-3.3v2.1h3.8v0.6h-4.5V2959.5z"/>
			<path class="st2" d="M-1879.2,2959.5h2.3c1.4,0,2.3,0.7,2.3,1.9v0c0,1.3-1.1,2-2.4,2h-1.5v2.2h-0.7V2959.5z M-1877,2962.9
				c1,0,1.7-0.5,1.7-1.3v0c0-0.9-0.7-1.3-1.6-1.3h-1.6v2.7H-1877z"/>
			<path class="st2" d="M-1871.7,2960.2h-2.1v-0.6h4.8v0.6h-2.1v5.5h-0.7V2960.2z"/>
			<path class="st2" d="M-1866.2,2959.5h0.6l2.8,6.2h-0.7l-0.7-1.6h-3.3l-0.7,1.6h-0.7L-1866.2,2959.5z M-1864.5,2963.4l-1.4-3.1
				l-1.4,3.1H-1864.5z"/>
			<path class="st2" d="M-1861.5,2959.5h0.6l3.9,4.9v-4.9h0.7v6.1h-0.6l-4-5v5h-0.7V2959.5z"/>
			<path class="st2" d="M-1854.9,2962.6L-1854.9,2962.6c0-1.8,1.3-3.2,3.1-3.2c1.1,0,1.8,0.4,2.4,1l-0.5,0.5
				c-0.5-0.5-1.1-0.8-1.9-0.8c-1.4,0-2.4,1.1-2.4,2.5v0c0,1.4,1,2.5,2.4,2.5c0.8,0,1.4-0.3,2-0.9l0.5,0.4c-0.6,0.6-1.3,1.1-2.5,1.1
				C-1853.6,2965.8-1854.9,2964.4-1854.9,2962.6z"/>
			<path class="st2" d="M-1848.2,2959.5h4.4v0.6h-3.7v2.1h3.3v0.6h-3.3v2.1h3.8v0.6h-4.5V2959.5z"/>
		</g>
	</g>
	<g>
		<rect x="-1833.1" y="2941.8" class="st0" width="42.7" height="42.4"/>
		<g class="st1">
			<path class="st2" d="M-1826.2,2963.1v-3.6h0.7v3.5c0,1.3,0.7,2.1,1.9,2.1c1.1,0,1.8-0.7,1.8-2v-3.6h0.7v3.5c0,1.8-1,2.7-2.6,2.7
				C-1825.2,2965.8-1826.2,2964.8-1826.2,2963.1z"/>
			<path class="st2" d="M-1819.5,2959.5h0.6l3.9,4.9v-4.9h0.7v6.1h-0.6l-4-5v5h-0.7V2959.5z"/>
			<path class="st2" d="M-1812.5,2959.5h0.7v6.1h-0.7V2959.5z"/>
			<path class="st2" d="M-1810.3,2962.6L-1810.3,2962.6c0-1.7,1.3-3.2,3.1-3.2s3.1,1.5,3.1,3.2v0c0,1.7-1.3,3.2-3.1,3.2
				S-1810.3,2964.3-1810.3,2962.6z M-1804.7,2962.6L-1804.7,2962.6c0-1.4-1-2.5-2.4-2.5s-2.4,1.1-2.4,2.5v0c0,1.4,1,2.5,2.4,2.5
				S-1804.7,2964-1804.7,2962.6z"/>
			<path class="st2" d="M-1802.5,2959.5h0.6l3.9,4.9v-4.9h0.7v6.1h-0.6l-4-5v5h-0.7V2959.5z"/>
		</g>
	</g>
	<g>
		<rect x="-1784.8" y="2941.8" class="st0" width="61.7" height="42.4"/>
		<g class="st1">
			<path class="st2" d="M-1781.1,2959.5h2.6c0.8,0,1.4,0.2,1.7,0.6c0.3,0.3,0.5,0.7,0.5,1.2v0c0,1-0.7,1.6-1.7,1.8l1.9,2.5h-0.8
				l-1.8-2.4h-1.8v2.4h-0.7V2959.5z M-1778.5,2962.7c0.9,0,1.6-0.5,1.6-1.3v0c0-0.8-0.6-1.2-1.6-1.2h-1.9v2.5H-1778.5z"/>
			<path class="st2" d="M-1774.7,2959.5h4.4v0.6h-3.7v2.1h3.3v0.6h-3.3v2.1h3.8v0.6h-4.5V2959.5z"/>
			<path class="st2" d="M-1768.9,2959.5h0.7v2.7h3.5v-2.7h0.7v6.1h-0.7v-2.8h-3.5v2.8h-0.7V2959.5z"/>
			<path class="st2" d="M-1762.2,2959.5h4.4v0.6h-3.7v2.1h3.3v0.6h-3.3v2.1h3.8v0.6h-4.5V2959.5z"/>
			<path class="st2" d="M-1754.1,2959.5h0.6l2.8,6.2h-0.7l-0.7-1.6h-3.3l-0.7,1.6h-0.7L-1754.1,2959.5z M-1752.4,2963.4l-1.4-3.1
				l-1.4,3.1H-1752.4z"/>
			<path class="st2" d="M-1749.4,2959.5h2.6c0.8,0,1.4,0.2,1.7,0.6c0.3,0.3,0.5,0.7,0.5,1.2v0c0,1-0.7,1.6-1.7,1.8l1.9,2.5h-0.8
				l-1.8-2.4h-1.8v2.4h-0.7V2959.5z M-1746.9,2962.7c0.9,0,1.6-0.5,1.6-1.3v0c0-0.8-0.6-1.2-1.6-1.2h-1.9v2.5H-1746.9z"/>
			<path class="st2" d="M-1743.5,2964.8l0.4-0.5c0.6,0.6,1.3,0.9,2.1,0.9c0.8,0,1.4-0.4,1.4-1v0c0-0.6-0.3-0.9-1.6-1.2
				c-1.4-0.3-2.1-0.8-2.1-1.8v0c0-1,0.8-1.7,2-1.7c0.9,0,1.5,0.3,2.2,0.8l-0.4,0.5c-0.6-0.5-1.1-0.7-1.8-0.7c-0.8,0-1.3,0.4-1.3,1v0
				c0,0.6,0.3,0.9,1.7,1.2c1.4,0.3,2,0.8,2,1.7v0c0,1.1-0.9,1.7-2.1,1.7C-1742,2965.7-1742.8,2965.4-1743.5,2964.8z"/>
			<path class="st2" d="M-1735.4,2959.5h0.6l2.8,6.2h-0.7l-0.7-1.6h-3.3l-0.7,1.6h-0.7L-1735.4,2959.5z M-1733.7,2963.4l-1.4-3.1
				l-1.4,3.1H-1733.7z"/>
			<path class="st2" d="M-1730.7,2959.5h0.7v5.5h3.5v0.6h-4.1V2959.5z"/>
		</g>
	</g>
	<g>
		<rect x="-1717.6" y="2941.8" class="st0" width="61.7" height="42.4"/>
		<g class="st1">
			<path class="st2" d="M-1712,2959.5h2.1c1.9,0,3.3,1.3,3.3,3v0c0,1.7-1.3,3.1-3.3,3.1h-2.1V2959.5z M-1711.3,2960.2v4.9h1.4
				c1.6,0,2.5-1.1,2.5-2.4v0c0-1.4-1-2.4-2.5-2.4H-1711.3z"/>
			<path class="st2" d="M-1705.1,2959.5h4.4v0.6h-3.7v2.1h3.3v0.6h-3.3v2.1h3.8v0.6h-4.5V2959.5z"/>
			<path class="st2" d="M-1699.3,2959.5h0.7v5.5h3.5v0.6h-4.1V2959.5z"/>
			<path class="st2" d="M-1693.8,2959.5h0.7v6.1h-0.7V2959.5z"/>
			<path class="st2" d="M-1691.8,2959.5h0.8l2.2,5.3l2.2-5.3h0.7l-2.6,6.2h-0.6L-1691.8,2959.5z"/>
			<path class="st2" d="M-1684.7,2959.5h4.4v0.6h-3.7v2.1h3.3v0.6h-3.3v2.1h3.8v0.6h-4.5V2959.5z"/>
			<path class="st2" d="M-1678.9,2959.5h2.6c0.8,0,1.4,0.2,1.7,0.6c0.3,0.3,0.5,0.7,0.5,1.2v0c0,1-0.7,1.6-1.7,1.8l1.9,2.5h-0.8
				l-1.8-2.4h-1.8v2.4h-0.7V2959.5z M-1676.3,2962.7c0.9,0,1.6-0.5,1.6-1.3v0c0-0.8-0.6-1.2-1.6-1.2h-1.9v2.5H-1676.3z"/>
			<path class="st2" d="M-1672.5,2959.5h4.4v0.6h-3.7v2.1h3.3v0.6h-3.3v2.1h3.8v0.6h-4.5V2959.5z"/>
			<path class="st2" d="M-1666.7,2959.5h2.1c1.9,0,3.3,1.3,3.3,3v0c0,1.7-1.3,3.1-3.3,3.1h-2.1V2959.5z M-1666,2960.2v4.9h1.4
				c1.5,0,2.5-1.1,2.5-2.4v0c0-1.4-1-2.4-2.5-2.4H-1666z"/>
		</g>
	</g>
</g>
<g>
	<rect x="-2000" y="2990.3" class="st3" width="162.1" height="15.1"/>
	<rect x="-1833.1" y="2990.3" class="st3" width="177.4" height="15.1"/>
	<g class="st1">
		<path class="st2" d="M-1940.2,2994.7h2.1c1.3,0,2.1,0.7,2.1,1.8v0c0,1.2-1,1.8-2.2,1.8h-1.4v2h-0.6V2994.7z M-1938.2,2997.7
			c0.9,0,1.5-0.5,1.5-1.2v0c0-0.8-0.6-1.2-1.5-1.2h-1.4v2.5H-1938.2z"/>
		<path class="st2" d="M-1935.3,2998.2L-1935.3,2998.2c0-1.2,0.8-2.2,2-2.2c1.2,0,1.9,1,1.9,2.2c0,0.1,0,0.1,0,0.2h-3.3
			c0.1,0.9,0.7,1.4,1.5,1.4c0.6,0,1-0.2,1.3-0.6l0.4,0.3c-0.4,0.5-0.9,0.8-1.7,0.8C-1934.3,3000.4-1935.3,2999.5-1935.3,2998.2z
			 M-1932,2998c-0.1-0.8-0.5-1.4-1.3-1.4c-0.7,0-1.3,0.6-1.3,1.4H-1932z"/>
		<path class="st2" d="M-1930.3,2996.1h0.6v1.1c0.3-0.7,0.9-1.2,1.7-1.2v0.7h0c-0.9,0-1.6,0.6-1.6,1.9v1.6h-0.6V2996.1z"/>
		<path class="st2" d="M-1924.6,2996.1h0.6v0.8c0.3-0.5,0.8-0.9,1.6-0.9c1,0,2,0.8,2,2.1v0c0,1.3-1,2.2-2,2.2
			c-0.8,0-1.3-0.4-1.6-0.9v2.1h-0.6V2996.1z M-1921.1,2998.2L-1921.1,2998.2c0-1-0.7-1.6-1.5-1.6c-0.8,0-1.5,0.6-1.5,1.6v0
			c0,1,0.7,1.6,1.5,1.6C-1921.7,2999.8-1921.1,2999.2-1921.1,2998.2z"/>
		<path class="st2" d="M-1919.3,2996.1h0.6v1.1c0.3-0.7,0.9-1.2,1.7-1.2v0.7h0c-0.9,0-1.6,0.6-1.6,1.9v1.6h-0.6V2996.1z"/>
		<path class="st2" d="M-1916.5,2998.2L-1916.5,2998.2c0-1.2,0.9-2.2,2.2-2.2c1.2,0,2.2,1,2.2,2.1v0c0,1.2-0.9,2.2-2.2,2.2
			C-1915.6,3000.4-1916.5,2999.4-1916.5,2998.2z M-1912.8,2998.2L-1912.8,2998.2c0-0.9-0.7-1.6-1.5-1.6c-0.9,0-1.5,0.7-1.5,1.6v0
			c0,0.9,0.7,1.6,1.5,1.6C-1913.5,2999.8-1912.8,2999.1-1912.8,2998.2z"/>
		<path class="st2" d="M-1911.8,3001.5v-0.5c0.1,0,0.2,0,0.3,0c0.3,0,0.5-0.2,0.5-0.6v-4.4h0.6v4.4c0,0.7-0.4,1.1-1,1.1
			C-1911.6,3001.6-1911.7,3001.6-1911.8,3001.5z M-1911.1,2994.6h0.7v0.7h-0.7V2994.6z"/>
		<path class="st2" d="M-1909.2,2998.2L-1909.2,2998.2c0-1.2,0.8-2.2,2-2.2c1.2,0,1.9,1,1.9,2.2c0,0.1,0,0.1,0,0.2h-3.3
			c0.1,0.9,0.7,1.4,1.5,1.4c0.6,0,1-0.2,1.3-0.6l0.4,0.3c-0.4,0.5-0.9,0.8-1.7,0.8C-1908.3,3000.4-1909.2,2999.5-1909.2,2998.2z
			 M-1905.9,2998c-0.1-0.8-0.5-1.4-1.3-1.4c-0.7,0-1.3,0.6-1.3,1.4H-1905.9z"/>
		<path class="st2" d="M-1904.5,2998.2L-1904.5,2998.2c0-1.2,0.9-2.2,2.1-2.2c0.8,0,1.3,0.3,1.7,0.7l-0.4,0.4
			c-0.3-0.3-0.7-0.6-1.3-0.6c-0.8,0-1.5,0.7-1.5,1.6v0c0,0.9,0.7,1.6,1.5,1.6c0.5,0,0.9-0.3,1.3-0.6l0.4,0.4
			c-0.4,0.5-0.9,0.8-1.7,0.8C-1903.6,3000.4-1904.5,2999.4-1904.5,2998.2z"/>
		<path class="st2" d="M-1899.5,2999.2v-2.5h-0.6v-0.5h0.6v-1.2h0.6v1.2h1.3v0.5h-1.3v2.4c0,0.5,0.3,0.7,0.7,0.7
			c0.2,0,0.4,0,0.6-0.1v0.5c-0.2,0.1-0.4,0.2-0.7,0.2C-1899,3000.3-1899.5,3000-1899.5,2999.2z"/>
	</g>
	<g class="st1">
		<path class="st2" d="M-1787.1,2999.5l0.4-0.5c0.6,0.5,1.1,0.8,1.9,0.8c0.8,0,1.2-0.4,1.2-1v0c0-0.5-0.3-0.8-1.5-1.1
			c-1.3-0.3-1.9-0.7-1.9-1.6v0c0-0.9,0.8-1.5,1.8-1.5c0.8,0,1.4,0.2,2,0.7l-0.4,0.5c-0.5-0.4-1-0.6-1.6-0.6c-0.7,0-1.2,0.4-1.2,0.9
			v0c0,0.5,0.3,0.8,1.5,1.1c1.2,0.3,1.8,0.7,1.8,1.6v0c0,1-0.8,1.6-1.9,1.6C-1785.7,3000.4-1786.5,3000.1-1787.1,2999.5z"/>
		<path class="st2" d="M-1781.7,2994.4h0.6v2.4c0.3-0.4,0.7-0.8,1.4-0.8c1,0,1.6,0.7,1.6,1.7v2.6h-0.6v-2.4c0-0.8-0.4-1.2-1.1-1.2
			c-0.7,0-1.2,0.5-1.2,1.3v2.4h-0.6V2994.4z"/>
		<path class="st2" d="M-1777.1,2999.1L-1777.1,2999.1c0-0.9,0.7-1.4,1.8-1.4c0.5,0,0.9,0.1,1.3,0.2v-0.1c0-0.7-0.5-1.1-1.2-1.1
			c-0.5,0-0.9,0.1-1.3,0.3l-0.2-0.5c0.5-0.2,0.9-0.3,1.5-0.3c0.6,0,1,0.2,1.3,0.5c0.3,0.3,0.4,0.7,0.4,1.2v2.5h-0.6v-0.6
			c-0.3,0.4-0.8,0.7-1.5,0.7C-1776.3,3000.4-1777.1,2999.9-1777.1,2999.1z M-1774.1,2998.8v-0.4c-0.3-0.1-0.7-0.2-1.2-0.2
			c-0.8,0-1.2,0.3-1.2,0.9v0c0,0.5,0.5,0.8,1,0.8C-1774.7,2999.9-1774.1,2999.4-1774.1,2998.8z"/>
		<path class="st2" d="M-1772.2,2996.1h0.6v1.1c0.3-0.7,0.9-1.2,1.7-1.2v0.7h0c-0.9,0-1.6,0.6-1.6,1.9v1.6h-0.6V2996.1z"/>
		<path class="st2" d="M-1769.4,2998.2L-1769.4,2998.2c0-1.2,0.8-2.2,2-2.2c1.2,0,1.9,1,1.9,2.2c0,0.1,0,0.1,0,0.2h-3.3
			c0.1,0.9,0.7,1.4,1.5,1.4c0.6,0,1-0.2,1.3-0.6l0.4,0.3c-0.4,0.5-0.9,0.8-1.7,0.8C-1768.4,3000.4-1769.4,2999.5-1769.4,2998.2z
			 M-1766.1,2998c-0.1-0.8-0.5-1.4-1.3-1.4c-0.7,0-1.3,0.6-1.3,1.4H-1766.1z"/>
		<path class="st2" d="M-1764.6,2998.2L-1764.6,2998.2c0-1.4,1-2.2,2-2.2c0.8,0,1.3,0.4,1.6,0.9v-2.5h0.6v5.8h-0.6v-0.8
			c-0.3,0.5-0.8,0.9-1.6,0.9C-1763.6,3000.4-1764.6,2999.6-1764.6,2998.2z M-1761,2998.2L-1761,2998.2c0-1-0.7-1.6-1.5-1.6
			c-0.8,0-1.5,0.6-1.5,1.6v0c0,1,0.7,1.6,1.5,1.6C-1761.8,2999.8-1761,2999.2-1761,2998.2z"/>
		<path class="st2" d="M-1756.1,2999.5v0.8h-0.6v-5.8h0.6v2.5c0.3-0.5,0.8-0.9,1.6-0.9c1,0,2,0.8,2,2.1v0c0,1.3-1,2.2-2,2.2
			C-1755.2,3000.4-1755.7,2999.9-1756.1,2999.5z M-1753.1,2998.2L-1753.1,2998.2c0-1-0.7-1.6-1.5-1.6c-0.8,0-1.5,0.6-1.5,1.6v0
			c0,1,0.7,1.6,1.5,1.6C-1753.8,2999.8-1753.1,2999.2-1753.1,2998.2z"/>
		<path class="st2" d="M-1748.5,2996.1h0.7l-1.7,4.3c-0.4,0.9-0.8,1.2-1.4,1.2c-0.3,0-0.6-0.1-0.9-0.2l0.2-0.5
			c0.2,0.1,0.4,0.2,0.6,0.2c0.4,0,0.6-0.2,0.8-0.8l-1.9-4.1h0.7l1.5,3.4L-1748.5,2996.1z"/>
		<path class="st2" d="M-1744.7,2999.1L-1744.7,2999.1c0-0.9,0.7-1.4,1.8-1.4c0.5,0,0.9,0.1,1.3,0.2v-0.1c0-0.7-0.5-1.1-1.2-1.1
			c-0.5,0-0.9,0.1-1.3,0.3l-0.2-0.5c0.5-0.2,0.9-0.3,1.5-0.3c0.6,0,1,0.2,1.3,0.5c0.3,0.3,0.4,0.7,0.4,1.2v2.5h-0.6v-0.6
			c-0.3,0.4-0.8,0.7-1.5,0.7C-1744,3000.4-1744.7,2999.9-1744.7,2999.1z M-1741.7,2998.8v-0.4c-0.3-0.1-0.7-0.2-1.2-0.2
			c-0.8,0-1.2,0.3-1.2,0.9v0c0,0.5,0.5,0.8,1,0.8C-1742.3,2999.9-1741.7,2999.4-1741.7,2998.8z"/>
		<path class="st2" d="M-1739.7,2994.4h0.6v5.8h-0.6V2994.4z"/>
		<path class="st2" d="M-1737.6,2994.4h0.6v5.8h-0.6V2994.4z"/>
		<path class="st2" d="M-1733.2,2996.1h0.6v0.8c0.3-0.5,0.8-0.9,1.6-0.9c1,0,2,0.8,2,2.1v0c0,1.3-1,2.2-2,2.2
			c-0.8,0-1.3-0.4-1.6-0.9v2.1h-0.6V2996.1z M-1729.6,2998.2L-1729.6,2998.2c0-1-0.7-1.6-1.5-1.6c-0.8,0-1.5,0.6-1.5,1.6v0
			c0,1,0.7,1.6,1.5,1.6C-1730.3,2999.8-1729.6,2999.2-1729.6,2998.2z"/>
		<path class="st2" d="M-1727.9,2996.1h0.6v1.1c0.3-0.7,0.9-1.2,1.7-1.2v0.7h0c-0.9,0-1.6,0.6-1.6,1.9v1.6h-0.6V2996.1z"/>
		<path class="st2" d="M-1725.1,2998.2L-1725.1,2998.2c0-1.2,0.9-2.2,2.2-2.2c1.2,0,2.2,1,2.2,2.1v0c0,1.2-0.9,2.2-2.2,2.2
			C-1724.2,3000.4-1725.1,2999.4-1725.1,2998.2z M-1721.4,2998.2L-1721.4,2998.2c0-0.9-0.7-1.6-1.5-1.6c-0.9,0-1.5,0.7-1.5,1.6v0
			c0,0.9,0.7,1.6,1.5,1.6C-1722,2999.8-1721.4,2999.1-1721.4,2998.2z"/>
		<path class="st2" d="M-1720.4,3001.5v-0.5c0.1,0,0.2,0,0.3,0c0.3,0,0.5-0.2,0.5-0.6v-4.4h0.6v4.4c0,0.7-0.4,1.1-1,1.1
			C-1720.1,3001.6-1720.2,3001.6-1720.4,3001.5z M-1719.6,2994.6h0.7v0.7h-0.7V2994.6z"/>
		<path class="st2" d="M-1717.8,2998.2L-1717.8,2998.2c0-1.2,0.8-2.2,2-2.2c1.2,0,1.9,1,1.9,2.2c0,0.1,0,0.1,0,0.2h-3.3
			c0.1,0.9,0.7,1.4,1.5,1.4c0.6,0,1-0.2,1.3-0.6l0.4,0.3c-0.4,0.5-0.9,0.8-1.7,0.8C-1716.9,3000.4-1717.8,2999.5-1717.8,2998.2z
			 M-1714.5,2998c-0.1-0.8-0.5-1.4-1.3-1.4c-0.7,0-1.3,0.6-1.3,1.4H-1714.5z"/>
		<path class="st2" d="M-1713.1,2998.2L-1713.1,2998.2c0-1.2,0.9-2.2,2.1-2.2c0.8,0,1.3,0.3,1.7,0.7l-0.4,0.4
			c-0.3-0.3-0.7-0.6-1.3-0.6c-0.8,0-1.5,0.7-1.5,1.6v0c0,0.9,0.7,1.6,1.5,1.6c0.5,0,0.9-0.3,1.3-0.6l0.4,0.4
			c-0.4,0.5-0.9,0.8-1.7,0.8C-1712.1,3000.4-1713.1,2999.4-1713.1,2998.2z"/>
		<path class="st2" d="M-1708,2999.2v-2.5h-0.6v-0.5h0.6v-1.2h0.6v1.2h1.3v0.5h-1.3v2.4c0,0.5,0.3,0.7,0.7,0.7c0.2,0,0.4,0,0.6-0.1
			v0.5c-0.2,0.1-0.4,0.2-0.7,0.2C-1707.5,3000.3-1708,3000-1708,2999.2z"/>
		<path class="st2" d="M-1705.3,2999.7l0.3-0.4c0.4,0.3,0.9,0.5,1.4,0.5c0.5,0,0.9-0.3,0.9-0.7v0c0-0.4-0.5-0.6-1-0.7
			c-0.6-0.2-1.4-0.4-1.4-1.2v0c0-0.7,0.6-1.2,1.4-1.2c0.5,0,1.1,0.2,1.5,0.5l-0.3,0.5c-0.4-0.2-0.8-0.4-1.2-0.4
			c-0.5,0-0.8,0.3-0.8,0.6v0c0,0.4,0.5,0.5,1.1,0.7c0.6,0.2,1.3,0.4,1.3,1.2v0c0,0.8-0.6,1.2-1.5,1.2
			C-1704.2,3000.4-1704.9,3000.1-1705.3,2999.7z"/>
	</g>
</g>
<g>
	<rect x="-2000" y="2920.6" class="st4" width="86.2" height="15.1"/>
	<rect x="-1908.5" y="2920.6" class="st4" width="253" height="15.1"/>
	<g class="st1">
		<path class="st2" d="M-1981.9,2925.6h-1.9v-0.6h4.4v0.6h-1.9v5h-0.6V2925.6z"/>
		<path class="st2" d="M-1979.6,2928.5L-1979.6,2928.5c0-1.2,0.8-2.2,2-2.2c1.2,0,1.9,1,1.9,2.2c0,0.1,0,0.1,0,0.2h-3.3
			c0.1,0.9,0.7,1.4,1.5,1.4c0.6,0,1-0.2,1.3-0.6l0.4,0.3c-0.4,0.5-0.9,0.8-1.7,0.8C-1978.7,2930.7-1979.6,2929.8-1979.6,2928.5z
			 M-1976.3,2928.3c-0.1-0.8-0.5-1.4-1.3-1.4c-0.7,0-1.3,0.6-1.3,1.4H-1976.3z"/>
		<path class="st2" d="M-1975,2930.1l0.3-0.4c0.4,0.3,0.9,0.5,1.4,0.5c0.5,0,0.9-0.3,0.9-0.7v0c0-0.4-0.5-0.6-1-0.7
			c-0.6-0.2-1.4-0.4-1.4-1.2v0c0-0.7,0.6-1.2,1.4-1.2c0.5,0,1.1,0.2,1.5,0.5l-0.3,0.5c-0.4-0.2-0.8-0.4-1.2-0.4
			c-0.5,0-0.8,0.3-0.8,0.6v0c0,0.4,0.5,0.5,1.1,0.7c0.6,0.2,1.3,0.4,1.3,1.2v0c0,0.8-0.6,1.2-1.5,1.2
			C-1973.8,2930.7-1974.5,2930.4-1975,2930.1z"/>
		<path class="st2" d="M-1970.5,2929.5v-2.5h-0.6v-0.5h0.6v-1.2h0.6v1.2h1.3v0.5h-1.3v2.4c0,0.5,0.3,0.7,0.7,0.7
			c0.2,0,0.4,0,0.6-0.1v0.5c-0.2,0.1-0.4,0.2-0.7,0.2C-1970,2930.7-1970.5,2930.3-1970.5,2929.5z"/>
		<path class="st2" d="M-1964.9,2929.5v-2.5h-0.6v-0.5h0.6v-1.2h0.6v1.2h1.3v0.5h-1.3v2.4c0,0.5,0.3,0.7,0.7,0.7
			c0.2,0,0.4,0,0.6-0.1v0.5c-0.2,0.1-0.4,0.2-0.7,0.2C-1964.4,2930.7-1964.9,2930.3-1964.9,2929.5z"/>
		<path class="st2" d="M-1961.8,2924.7h0.6v2.4c0.3-0.4,0.7-0.8,1.4-0.8c1,0,1.6,0.7,1.6,1.7v2.6h-0.6v-2.4c0-0.8-0.4-1.2-1.1-1.2
			c-0.7,0-1.2,0.5-1.2,1.3v2.4h-0.6V2924.7z"/>
		<path class="st2" d="M-1957.2,2928.5L-1957.2,2928.5c0-1.2,0.8-2.2,2-2.2c1.2,0,1.9,1,1.9,2.2c0,0.1,0,0.1,0,0.2h-3.3
			c0.1,0.9,0.7,1.4,1.5,1.4c0.6,0,1-0.2,1.3-0.6l0.4,0.3c-0.4,0.5-0.9,0.8-1.7,0.8C-1956.2,2930.7-1957.2,2929.8-1957.2,2928.5z
			 M-1953.9,2928.3c-0.1-0.8-0.5-1.4-1.3-1.4c-0.7,0-1.3,0.6-1.3,1.4H-1953.9z"/>
		<path class="st2" d="M-1950,2928.5L-1950,2928.5c0-1.2,0.9-2.2,2.1-2.2c0.8,0,1.3,0.3,1.7,0.7l-0.4,0.4c-0.3-0.3-0.7-0.6-1.3-0.6
			c-0.8,0-1.5,0.7-1.5,1.6v0c0,0.9,0.7,1.6,1.5,1.6c0.5,0,0.9-0.3,1.3-0.6l0.4,0.4c-0.4,0.5-0.9,0.8-1.7,0.8
			C-1949.1,2930.7-1950,2929.7-1950,2928.5z"/>
		<path class="st2" d="M-1945.6,2928.5L-1945.6,2928.5c0-1.2,0.9-2.2,2.2-2.2c1.2,0,2.2,1,2.2,2.1v0c0,1.2-0.9,2.2-2.2,2.2
			C-1944.7,2930.7-1945.6,2929.7-1945.6,2928.5z M-1941.9,2928.5L-1941.9,2928.5c0-0.9-0.7-1.6-1.5-1.6c-0.9,0-1.5,0.7-1.5,1.6v0
			c0,0.9,0.7,1.6,1.5,1.6C-1942.5,2930.1-1941.9,2929.4-1941.9,2928.5z"/>
		<path class="st2" d="M-1940.4,2928.5L-1940.4,2928.5c0-1.4,1-2.2,2-2.2c0.8,0,1.3,0.4,1.6,0.9v-2.5h0.6v5.8h-0.6v-0.8
			c-0.3,0.5-0.8,0.9-1.6,0.9C-1939.4,2930.7-1940.4,2929.9-1940.4,2928.5z M-1936.8,2928.5L-1936.8,2928.5c0-1-0.7-1.6-1.5-1.6
			c-0.8,0-1.5,0.6-1.5,1.6v0c0,1,0.7,1.6,1.5,1.6C-1937.5,2930.1-1936.8,2929.5-1936.8,2928.5z"/>
		<path class="st2" d="M-1935.1,2928.5L-1935.1,2928.5c0-1.2,0.8-2.2,2-2.2c1.2,0,1.9,1,1.9,2.2c0,0.1,0,0.1,0,0.2h-3.3
			c0.1,0.9,0.7,1.4,1.5,1.4c0.6,0,1-0.2,1.3-0.6l0.4,0.3c-0.4,0.5-0.9,0.8-1.7,0.8C-1934.2,2930.7-1935.1,2929.8-1935.1,2928.5z
			 M-1931.8,2928.3c-0.1-0.8-0.5-1.4-1.3-1.4c-0.7,0-1.3,0.6-1.3,1.4H-1931.8z"/>
	</g>
	<g class="st1">
		<path class="st2" d="M-1813.4,2925.6h-1.9v-0.6h4.4v0.6h-1.9v5h-0.6V2925.6z"/>
		<path class="st2" d="M-1811.1,2928.5L-1811.1,2928.5c0-1.2,0.8-2.2,2-2.2c1.2,0,1.9,1,1.9,2.2c0,0.1,0,0.1,0,0.2h-3.3
			c0.1,0.9,0.7,1.4,1.5,1.4c0.6,0,1-0.2,1.3-0.6l0.4,0.3c-0.4,0.5-0.9,0.8-1.7,0.8C-1810.1,2930.7-1811.1,2929.8-1811.1,2928.5z
			 M-1807.8,2928.3c-0.1-0.8-0.5-1.4-1.3-1.4c-0.7,0-1.3,0.6-1.3,1.4H-1807.8z"/>
		<path class="st2" d="M-1806.4,2930.1l0.3-0.4c0.4,0.3,0.9,0.5,1.4,0.5c0.5,0,0.9-0.3,0.9-0.7v0c0-0.4-0.5-0.6-1-0.7
			c-0.6-0.2-1.4-0.4-1.4-1.2v0c0-0.7,0.6-1.2,1.4-1.2c0.5,0,1.1,0.2,1.5,0.5l-0.3,0.5c-0.4-0.2-0.8-0.4-1.2-0.4
			c-0.5,0-0.8,0.3-0.8,0.6v0c0,0.4,0.5,0.5,1.1,0.7c0.6,0.2,1.3,0.4,1.3,1.2v0c0,0.8-0.6,1.2-1.5,1.2
			C-1805.3,2930.7-1806,2930.4-1806.4,2930.1z"/>
		<path class="st2" d="M-1802,2929.5v-2.5h-0.6v-0.5h0.6v-1.2h0.6v1.2h1.3v0.5h-1.3v2.4c0,0.5,0.3,0.7,0.7,0.7c0.2,0,0.4,0,0.6-0.1
			v0.5c-0.2,0.1-0.4,0.2-0.7,0.2C-1801.5,2930.7-1802,2930.3-1802,2929.5z"/>
		<path class="st2" d="M-1796.3,2929.5v-2.5h-0.6v-0.5h0.6v-1.2h0.6v1.2h1.3v0.5h-1.3v2.4c0,0.5,0.3,0.7,0.7,0.7
			c0.2,0,0.4,0,0.6-0.1v0.5c-0.2,0.1-0.4,0.2-0.7,0.2C-1795.8,2930.7-1796.3,2930.3-1796.3,2929.5z"/>
		<path class="st2" d="M-1793.3,2924.7h0.6v2.4c0.3-0.4,0.7-0.8,1.4-0.8c1,0,1.6,0.7,1.6,1.7v2.6h-0.6v-2.4c0-0.8-0.4-1.2-1.1-1.2
			c-0.7,0-1.2,0.5-1.2,1.3v2.4h-0.6V2924.7z"/>
		<path class="st2" d="M-1788.6,2928.5L-1788.6,2928.5c0-1.2,0.8-2.2,2-2.2c1.2,0,1.9,1,1.9,2.2c0,0.1,0,0.1,0,0.2h-3.3
			c0.1,0.9,0.7,1.4,1.5,1.4c0.6,0,1-0.2,1.3-0.6l0.4,0.3c-0.4,0.5-0.9,0.8-1.7,0.8C-1787.7,2930.7-1788.6,2929.8-1788.6,2928.5z
			 M-1785.4,2928.3c-0.1-0.8-0.5-1.4-1.3-1.4c-0.7,0-1.3,0.6-1.3,1.4H-1785.4z"/>
		<path class="st2" d="M-1781.6,2929.4L-1781.6,2929.4c0-0.9,0.7-1.4,1.8-1.4c0.5,0,0.9,0.1,1.3,0.2v-0.1c0-0.7-0.5-1.1-1.2-1.1
			c-0.5,0-0.9,0.1-1.3,0.3l-0.2-0.5c0.5-0.2,0.9-0.3,1.5-0.3c0.6,0,1,0.2,1.3,0.5c0.3,0.3,0.4,0.7,0.4,1.2v2.5h-0.6v-0.6
			c-0.3,0.4-0.8,0.7-1.5,0.7C-1780.8,2930.7-1781.6,2930.2-1781.6,2929.4z M-1778.5,2929.1v-0.4c-0.3-0.1-0.7-0.2-1.2-0.2
			c-0.8,0-1.2,0.3-1.2,0.9v0c0,0.5,0.5,0.8,1,0.8C-1779.1,2930.2-1778.5,2929.7-1778.5,2929.1z"/>
		<path class="st2" d="M-1776.6,2926.5h0.6v1.1c0.3-0.7,0.9-1.2,1.7-1.2v0.7h0c-0.9,0-1.6,0.6-1.6,1.9v1.6h-0.6V2926.5z"/>
		<path class="st2" d="M-1773.2,2929.5v-2.5h-0.6v-0.5h0.6v-1.2h0.6v1.2h1.3v0.5h-1.3v2.4c0,0.5,0.3,0.7,0.7,0.7
			c0.2,0,0.4,0,0.6-0.1v0.5c-0.2,0.1-0.4,0.2-0.7,0.2C-1772.7,2930.7-1773.2,2930.3-1773.2,2929.5z"/>
		<path class="st2" d="M-1770.1,2924.9h0.7v0.7h-0.7V2924.9z M-1770.1,2926.5h0.6v4.1h-0.6V2926.5z"/>
		<path class="st2" d="M-1767.8,2927h-0.6v-0.5h0.6v-0.4c0-0.5,0.1-0.8,0.4-1.1c0.2-0.2,0.5-0.3,0.9-0.3c0.3,0,0.5,0,0.7,0.1v0.5
			c-0.2-0.1-0.4-0.1-0.6-0.1c-0.5,0-0.7,0.3-0.7,0.9v0.3h1.3v0.5h-1.3v3.6h-0.6V2927z"/>
		<path class="st2" d="M-1765.5,2929.4L-1765.5,2929.4c0-0.9,0.7-1.4,1.8-1.4c0.5,0,0.9,0.1,1.3,0.2v-0.1c0-0.7-0.5-1.1-1.2-1.1
			c-0.5,0-0.9,0.1-1.3,0.3l-0.2-0.5c0.5-0.2,0.9-0.3,1.5-0.3c0.6,0,1,0.2,1.3,0.5c0.3,0.3,0.4,0.7,0.4,1.2v2.5h-0.6v-0.6
			c-0.3,0.4-0.8,0.7-1.5,0.7C-1764.8,2930.7-1765.5,2930.2-1765.5,2929.4z M-1762.5,2929.1v-0.4c-0.3-0.1-0.7-0.2-1.2-0.2
			c-0.8,0-1.2,0.3-1.2,0.9v0c0,0.5,0.5,0.8,1,0.8C-1763.1,2930.2-1762.5,2929.7-1762.5,2929.1z"/>
		<path class="st2" d="M-1760.9,2928.5L-1760.9,2928.5c0-1.2,0.9-2.2,2.1-2.2c0.8,0,1.3,0.3,1.7,0.7l-0.4,0.4
			c-0.3-0.3-0.7-0.6-1.3-0.6c-0.8,0-1.5,0.7-1.5,1.6v0c0,0.9,0.7,1.6,1.5,1.6c0.5,0,0.9-0.3,1.3-0.6l0.4,0.4
			c-0.4,0.5-0.9,0.8-1.7,0.8C-1759.9,2930.7-1760.9,2929.7-1760.9,2928.5z"/>
		<path class="st2" d="M-1755.8,2929.5v-2.5h-0.6v-0.5h0.6v-1.2h0.6v1.2h1.3v0.5h-1.3v2.4c0,0.5,0.3,0.7,0.7,0.7
			c0.2,0,0.4,0,0.6-0.1v0.5c-0.2,0.1-0.4,0.2-0.7,0.2C-1755.3,2930.7-1755.8,2930.3-1755.8,2929.5z"/>
		<path class="st2" d="M-1753.1,2930.1l0.3-0.4c0.4,0.3,0.9,0.5,1.4,0.5c0.5,0,0.9-0.3,0.9-0.7v0c0-0.4-0.5-0.6-1-0.7
			c-0.6-0.2-1.4-0.4-1.4-1.2v0c0-0.7,0.6-1.2,1.4-1.2c0.5,0,1.1,0.2,1.5,0.5l-0.3,0.5c-0.4-0.2-0.8-0.4-1.2-0.4
			c-0.5,0-0.8,0.3-0.8,0.6v0c0,0.4,0.5,0.5,1.1,0.7c0.6,0.2,1.3,0.4,1.3,1.2v0c0,0.8-0.6,1.2-1.5,1.2
			C-1752,2930.7-1752.7,2930.4-1753.1,2930.1z"/>
	</g>
</g>
</svg>
