<?xml version="1.0" encoding="utf-8"?>
<!-- Generator: Adobe Illustrator 19.1.0, SVG Export Plug-In . SVG Version: 6.00 Build 0)  -->
<svg version="1.1" id="Layer_1" xmlns="http://www.w3.org/2000/svg" xmlns:xlink="http://www.w3.org/1999/xlink" x="0px" y="0px"
	 viewBox="-1956 2942 432 42.4" style="enable-background:new -1956 2942 432 42.4;" xml:space="preserve">
<style type="text/css">
	.st0{fill:#445464;}
	.st1{enable-background:new    ;}
	.st2{fill:#FFFFFF;}
</style>
<g>
	<rect x="-1956" y="2942" class="st0" width="52.2" height="42.4"/>
	<g class="st1">
		<path class="st2" d="M-1946.2,2959.7h0.8l2.2,5.3l2.2-5.3h0.7l-2.6,6.2h-0.6L-1946.2,2959.7z"/>
		<path class="st2" d="M-1939.1,2959.7h4.4v0.6h-3.7v2.1h3.3v0.6h-3.3v2.1h3.8v0.6h-4.5V2959.7z"/>
		<path class="st2" d="M-1933.3,2959.7h2.6c0.8,0,1.4,0.2,1.7,0.6c0.3,0.3,0.5,0.7,0.5,1.2v0c0,1-0.7,1.6-1.7,1.8l1.9,2.5h-0.8
			l-1.8-2.4h-1.8v2.4h-0.7V2959.7z M-1930.7,2962.9c0.9,0,1.6-0.5,1.6-1.3v0c0-0.8-0.6-1.2-1.6-1.2h-1.9v2.5H-1930.7z"/>
		<path class="st2" d="M-1926.9,2959.7h0.7v6.1h-0.7V2959.7z"/>
		<path class="st2" d="M-1924.4,2959.7h4.4v0.6h-3.7v2.2h3.3v0.6h-3.3v2.7h-0.7V2959.7z"/>
		<path class="st2" d="M-1916.7,2963.4l-2.5-3.7h0.8l2.1,3.1l2.1-3.1h0.8l-2.5,3.7v2.4h-0.7V2963.4z"/>
	</g>
</g>
<g>
	<rect x="-1896.2" y="2942" class="st0" width="48.4" height="42.4"/>
	<g class="st1">
		<path class="st2" d="M-1885,2959.7h2.6c0.7,0,1.3,0.2,1.6,0.5c0.3,0.3,0.4,0.6,0.4,1v0c0,0.8-0.5,1.2-1,1.4
			c0.7,0.2,1.3,0.6,1.3,1.5v0c0,1.1-0.9,1.7-2.2,1.7h-2.7V2959.7z M-1881.1,2961.4c0-0.6-0.5-1-1.4-1h-1.9v2.1h1.8
			C-1881.7,2962.5-1881.1,2962.1-1881.1,2961.4L-1881.1,2961.4z M-1882.4,2963.1h-1.9v2.2h2.1c0.9,0,1.5-0.4,1.5-1.1v0
			C-1880.8,2963.5-1881.3,2963.1-1882.4,2963.1z"/>
		<path class="st2" d="M-1878.8,2963.3v-3.6h0.7v3.5c0,1.3,0.7,2.1,1.9,2.1c1.1,0,1.8-0.7,1.8-2v-3.6h0.7v3.5c0,1.8-1,2.7-2.6,2.7
			C-1877.8,2966-1878.8,2965-1878.8,2963.3z"/>
		<path class="st2" d="M-1872,2959.7h0.7v6.1h-0.7V2959.7z"/>
		<path class="st2" d="M-1869.5,2959.7h0.7v5.5h3.5v0.6h-4.1V2959.7z"/>
		<path class="st2" d="M-1864.1,2959.7h2.1c1.9,0,3.3,1.3,3.3,3v0c0,1.7-1.3,3.1-3.3,3.1h-2.1V2959.7z M-1863.4,2960.4v4.9h1.4
			c1.6,0,2.5-1.1,2.5-2.4v0c0-1.4-1-2.4-2.5-2.4H-1863.4z"/>
	</g>
</g>
<g>
	<rect x="-1840.2" y="2942" class="st0" width="87.2" height="42.4"/>
	<g class="st1">
		<path class="st2" d="M-1825.1,2959.7h0.6l2.8,6.2h-0.7l-0.7-1.6h-3.3l-0.7,1.6h-0.7L-1825.1,2959.7z M-1823.4,2963.6l-1.4-3.1
			l-1.4,3.1H-1823.4z"/>
		<path class="st2" d="M-1821.1,2962.8L-1821.1,2962.8c0-1.8,1.3-3.2,3.1-3.2c1.1,0,1.8,0.4,2.4,1l-0.5,0.5
			c-0.5-0.5-1.1-0.8-1.9-0.8c-1.4,0-2.4,1.1-2.4,2.5v0c0,1.4,1,2.5,2.4,2.5c0.8,0,1.4-0.3,2-0.9l0.5,0.4c-0.6,0.6-1.3,1.1-2.5,1.1
			C-1819.8,2966-1821.1,2964.6-1821.1,2962.8z"/>
		<path class="st2" d="M-1814.8,2962.8L-1814.8,2962.8c0-1.8,1.3-3.2,3.1-3.2c1.1,0,1.8,0.4,2.4,1l-0.5,0.5
			c-0.5-0.5-1.1-0.8-1.9-0.8c-1.4,0-2.4,1.1-2.4,2.5v0c0,1.4,1,2.5,2.4,2.5c0.8,0,1.4-0.3,2-0.9l0.5,0.4c-0.6,0.6-1.3,1.1-2.5,1.1
			C-1813.5,2966-1814.8,2964.6-1814.8,2962.8z"/>
		<path class="st2" d="M-1808.1,2959.7h4.4v0.6h-3.7v2.1h3.3v0.6h-3.3v2.1h3.8v0.6h-4.5V2959.7z"/>
		<path class="st2" d="M-1802.2,2959.7h2.3c1.4,0,2.3,0.7,2.3,1.9v0c0,1.3-1.1,2-2.4,2h-1.5v2.2h-0.7V2959.7z M-1800,2963.1
			c1,0,1.7-0.5,1.7-1.3v0c0-0.9-0.7-1.3-1.6-1.3h-1.5v2.7H-1800z"/>
		<path class="st2" d="M-1794.8,2960.4h-2.1v-0.6h4.8v0.6h-2.1v5.5h-0.7V2960.4z"/>
		<path class="st2" d="M-1789.2,2959.7h0.6l2.8,6.2h-0.7l-0.7-1.6h-3.3l-0.7,1.6h-0.7L-1789.2,2959.7z M-1787.5,2963.6l-1.4-3.1
			l-1.4,3.1H-1787.5z"/>
		<path class="st2" d="M-1784.6,2959.7h0.6l3.9,4.9v-4.9h0.7v6.1h-0.6l-4-5v5h-0.7V2959.7z"/>
		<path class="st2" d="M-1777.9,2962.8L-1777.9,2962.8c0-1.8,1.3-3.2,3.1-3.2c1.1,0,1.8,0.4,2.4,1l-0.5,0.5
			c-0.5-0.5-1.1-0.8-1.9-0.8c-1.4,0-2.4,1.1-2.4,2.5v0c0,1.4,1,2.5,2.4,2.5c0.8,0,1.4-0.3,2-0.9l0.5,0.4c-0.6,0.6-1.3,1.1-2.5,1.1
			C-1776.6,2966-1777.9,2964.6-1777.9,2962.8z"/>
		<path class="st2" d="M-1771.2,2959.7h4.4v0.6h-3.7v2.1h3.3v0.6h-3.3v2.1h3.8v0.6h-4.5V2959.7z"/>
	</g>
</g>
<g>
	<rect x="-1745.8" y="2942" class="st0" width="53.4" height="42.4"/>
	<g class="st1">
		<path class="st2" d="M-1733.6,2963.3v-3.6h0.7v3.5c0,1.3,0.7,2.1,1.9,2.1c1.1,0,1.8-0.7,1.8-2v-3.6h0.7v3.5c0,1.8-1,2.7-2.6,2.7
			C-1732.6,2966-1733.6,2965-1733.6,2963.3z"/>
		<path class="st2" d="M-1726.9,2959.7h0.6l3.9,4.9v-4.9h0.7v6.1h-0.6l-4-5v5h-0.7V2959.7z"/>
		<path class="st2" d="M-1719.9,2959.7h0.7v6.1h-0.7V2959.7z"/>
		<path class="st2" d="M-1717.7,2962.8L-1717.7,2962.8c0-1.7,1.3-3.2,3.1-3.2s3.1,1.5,3.1,3.2v0c0,1.7-1.3,3.2-3.1,3.2
			S-1717.7,2964.5-1717.7,2962.8z M-1712.1,2962.8L-1712.1,2962.8c0-1.4-1-2.5-2.4-2.5s-2.4,1.1-2.4,2.5v0c0,1.4,1,2.5,2.4,2.5
			S-1712.1,2964.2-1712.1,2962.8z"/>
		<path class="st2" d="M-1709.9,2959.7h0.6l3.9,4.9v-4.9h0.7v6.1h-0.6l-4-5v5h-0.7V2959.7z"/>
	</g>
</g>
<g>
	<rect x="-1685.3" y="2942" class="st0" width="77.1" height="42.4"/>
	<g class="st1">
		<path class="st2" d="M-1673.8,2959.7h2.6c0.8,0,1.4,0.2,1.7,0.6c0.3,0.3,0.5,0.7,0.5,1.2v0c0,1-0.7,1.6-1.7,1.8l1.9,2.5h-0.8
			l-1.8-2.4h-1.8v2.4h-0.7V2959.7z M-1671.3,2962.9c0.9,0,1.6-0.5,1.6-1.3v0c0-0.8-0.6-1.2-1.6-1.2h-1.9v2.5H-1671.3z"/>
		<path class="st2" d="M-1667.5,2959.7h4.4v0.6h-3.7v2.1h3.3v0.6h-3.3v2.1h3.8v0.6h-4.5V2959.7z"/>
		<path class="st2" d="M-1661.7,2959.7h0.7v2.7h3.5v-2.7h0.7v6.1h-0.7v-2.8h-3.5v2.8h-0.7V2959.7z"/>
		<path class="st2" d="M-1655,2959.7h4.4v0.6h-3.7v2.1h3.3v0.6h-3.3v2.1h3.8v0.6h-4.5V2959.7z"/>
		<path class="st2" d="M-1646.9,2959.7h0.6l2.8,6.2h-0.7l-0.7-1.6h-3.3l-0.7,1.6h-0.7L-1646.9,2959.7z M-1645.2,2963.6l-1.4-3.1
			l-1.4,3.1H-1645.2z"/>
		<path class="st2" d="M-1642.2,2959.7h2.6c0.8,0,1.4,0.2,1.7,0.6c0.3,0.3,0.5,0.7,0.5,1.2v0c0,1-0.7,1.6-1.7,1.8l1.9,2.5h-0.8
			l-1.8-2.4h-1.8v2.4h-0.7V2959.7z M-1639.6,2962.9c0.9,0,1.6-0.5,1.6-1.3v0c0-0.8-0.6-1.2-1.6-1.2h-1.9v2.5H-1639.6z"/>
		<path class="st2" d="M-1636.3,2965l0.4-0.5c0.6,0.6,1.3,0.9,2.1,0.9c0.8,0,1.4-0.4,1.4-1v0c0-0.6-0.3-0.9-1.6-1.2
			c-1.4-0.3-2.1-0.8-2.1-1.8v0c0-1,0.8-1.7,2-1.7c0.9,0,1.5,0.3,2.2,0.8l-0.4,0.5c-0.6-0.5-1.1-0.7-1.8-0.7c-0.8,0-1.3,0.4-1.3,1v0
			c0,0.6,0.3,0.9,1.7,1.2c1.4,0.3,2,0.8,2,1.7v0c0,1.1-0.9,1.7-2.1,1.7C-1634.8,2966-1635.6,2965.6-1636.3,2965z"/>
		<path class="st2" d="M-1628.1,2959.7h0.6l2.8,6.2h-0.7l-0.7-1.6h-3.3l-0.7,1.6h-0.7L-1628.1,2959.7z M-1626.4,2963.6l-1.4-3.1
			l-1.4,3.1H-1626.4z"/>
		<path class="st2" d="M-1623.5,2959.7h0.7v5.5h3.5v0.6h-4.1V2959.7z"/>
	</g>
</g>
<g>
	<rect x="-1601.1" y="2942" class="st0" width="77.1" height="42.4"/>
	<g class="st1">
		<path class="st2" d="M-1587.8,2959.7h2.1c1.9,0,3.3,1.3,3.3,3v0c0,1.7-1.3,3.1-3.3,3.1h-2.1V2959.7z M-1587.1,2960.4v4.9h1.4
			c1.5,0,2.5-1.1,2.5-2.4v0c0-1.4-1-2.4-2.5-2.4H-1587.1z"/>
		<path class="st2" d="M-1580.9,2959.7h4.4v0.6h-3.7v2.1h3.3v0.6h-3.3v2.1h3.8v0.6h-4.5V2959.7z"/>
		<path class="st2" d="M-1575,2959.7h0.7v5.5h3.5v0.6h-4.1V2959.7z"/>
		<path class="st2" d="M-1569.6,2959.7h0.7v6.1h-0.7V2959.7z"/>
		<path class="st2" d="M-1567.6,2959.7h0.8l2.2,5.3l2.2-5.3h0.7l-2.6,6.2h-0.6L-1567.6,2959.7z"/>
		<path class="st2" d="M-1560.5,2959.7h4.4v0.6h-3.7v2.1h3.3v0.6h-3.3v2.1h3.8v0.6h-4.5V2959.7z"/>
		<path class="st2" d="M-1554.6,2959.7h2.6c0.8,0,1.4,0.2,1.7,0.6c0.3,0.3,0.5,0.7,0.5,1.2v0c0,1-0.7,1.6-1.7,1.8l1.9,2.5h-0.8
			l-1.8-2.4h-1.8v2.4h-0.7V2959.7z M-1552.1,2962.9c0.9,0,1.6-0.5,1.6-1.3v0c0-0.8-0.6-1.2-1.6-1.2h-1.9v2.5H-1552.1z"/>
		<path class="st2" d="M-1548.3,2959.7h4.4v0.6h-3.7v2.1h3.3v0.6h-3.3v2.1h3.8v0.6h-4.5V2959.7z"/>
		<path class="st2" d="M-1542.4,2959.7h2.1c1.9,0,3.3,1.3,3.3,3v0c0,1.7-1.3,3.1-3.3,3.1h-2.1V2959.7z M-1541.8,2960.4v4.9h1.4
			c1.5,0,2.5-1.1,2.5-2.4v0c0-1.4-1-2.4-2.5-2.4H-1541.8z"/>
	</g>
</g>
</svg>
