<?xml version="1.0" encoding="utf-8"?>
<!-- Generator: Adobe Illustrator 19.1.0, SVG Export Plug-In . SVG Version: 6.00 Build 0)  -->
<svg version="1.1" id="Layer_1" xmlns="http://www.w3.org/2000/svg" xmlns:xlink="http://www.w3.org/1999/xlink" x="0px" y="0px"
	 viewBox="-1964.6 2840.1 440.6 238.5" style="enable-background:new -1964.6 2840.1 440.6 238.5;" xml:space="preserve">
<style type="text/css">
	.st0{fill:#445464;}
	.st1{enable-background:new    ;}
	.st2{fill:#FFFFFF;}
	.st3{fill:#F08921;}
	.st4{fill:none;stroke:#F08921;stroke-width:2.5015;stroke-miterlimit:10;}
	.st5{fill:#59B8B3;}
	.st6{fill:none;stroke:#F08921;stroke-width:2.501;stroke-miterlimit:10;}
</style>
<g>
	<rect x="-1956" y="2912.8" class="st0" width="52.2" height="42.4"/>
	<g class="st1">
		<path class="st2" d="M-1946.2,2930.5h0.8l2.2,5.3l2.2-5.3h0.7l-2.6,6.2h-0.6L-1946.2,2930.5z"/>
		<path class="st2" d="M-1939.1,2930.5h4.4v0.6h-3.7v2.1h3.3v0.6h-3.3v2.1h3.8v0.6h-4.5V2930.5z"/>
		<path class="st2" d="M-1933.3,2930.5h2.6c0.8,0,1.4,0.2,1.7,0.6c0.3,0.3,0.5,0.7,0.5,1.2v0c0,1-0.7,1.6-1.7,1.8l1.9,2.5h-0.8
			l-1.8-2.4h-1.8v2.4h-0.7V2930.5z M-1930.7,2933.6c0.9,0,1.6-0.5,1.6-1.3v0c0-0.8-0.6-1.2-1.6-1.2h-1.9v2.5H-1930.7z"/>
		<path class="st2" d="M-1926.9,2930.5h0.7v6.1h-0.7V2930.5z"/>
		<path class="st2" d="M-1924.4,2930.5h4.4v0.6h-3.7v2.2h3.3v0.6h-3.3v2.7h-0.7V2930.5z"/>
		<path class="st2" d="M-1916.7,2934.2l-2.5-3.7h0.8l2.1,3.1l2.1-3.1h0.8l-2.5,3.7v2.4h-0.7V2934.2z"/>
	</g>
	<circle class="st3" cx="-1939.9" cy="2864.8" r="24.7"/>
	<g>
		<g>
			<line class="st4" x1="-1939.9" y1="2879.5" x2="-1939.9" y2="2905.9"/>
			<g>
				<polygon class="st3" points="-1943,2905 -1939.9,2910.4 -1936.8,2905 				"/>
			</g>
		</g>
	</g>
	<g class="st1">
		<path class="st2" d="M-1954.9,2861.3l0.4-0.5c0.6,0.6,1.3,0.9,2.1,0.9c0.8,0,1.4-0.4,1.4-1v0c0-0.6-0.3-0.9-1.6-1.2
			c-1.4-0.3-2.1-0.8-2.1-1.8v0c0-1,0.8-1.7,2-1.7c0.9,0,1.5,0.3,2.2,0.8l-0.4,0.5c-0.6-0.5-1.1-0.7-1.8-0.7c-0.8,0-1.3,0.4-1.3,1v0
			c0,0.6,0.3,0.9,1.7,1.2c1.4,0.3,2,0.8,2,1.7v0c0,1.1-0.9,1.7-2.1,1.7C-1953.4,2862.3-1954.2,2862-1954.9,2861.3z"/>
		<path class="st2" d="M-1949.1,2860.5v-2.8h0.7v2.6c0,0.8,0.5,1.4,1.3,1.4c0.8,0,1.4-0.6,1.4-1.4v-2.6h0.7v4.5h-0.7v-0.8
			c-0.3,0.5-0.8,0.9-1.5,0.9C-1948.5,2862.3-1949.1,2861.6-1949.1,2860.5z"/>
		<path class="st2" d="M-1943,2861.4v0.9h-0.7v-6.4h0.7v2.8c0.4-0.5,0.9-1,1.7-1c1.1,0,2.2,0.9,2.2,2.3v0c0,1.5-1.1,2.4-2.2,2.4
			C-1942.1,2862.3-1942.6,2861.9-1943,2861.4z M-1939.8,2860L-1939.8,2860c0-1.1-0.7-1.8-1.6-1.8c-0.8,0-1.6,0.7-1.6,1.7v0
			c0,1.1,0.8,1.8,1.6,1.8C-1940.5,2861.7-1939.8,2861.1-1939.8,2860z"/>
		<path class="st2" d="M-1937.8,2857.7h0.7v0.8c0.3-0.4,0.7-0.9,1.5-0.9c0.7,0,1.2,0.4,1.5,0.9c0.3-0.5,0.8-0.9,1.6-0.9
			c1,0,1.7,0.7,1.7,1.8v2.8h-0.7v-2.6c0-0.9-0.4-1.4-1.2-1.4c-0.7,0-1.2,0.5-1.2,1.4v2.6h-0.7v-2.7c0-0.8-0.4-1.3-1.2-1.3
			c-0.7,0-1.3,0.6-1.3,1.4v2.6h-0.7V2857.7z"/>
		<path class="st2" d="M-1929.5,2856h0.8v0.7h-0.8V2856z M-1929.4,2857.7h0.7v4.5h-0.7V2857.7z"/>
		<path class="st2" d="M-1927,2861v-2.7h-0.6v-0.6h0.6v-1.4h0.7v1.4h1.4v0.6h-1.4v2.6c0,0.6,0.3,0.8,0.8,0.8c0.2,0,0.4,0,0.7-0.2
			v0.6c-0.2,0.1-0.5,0.2-0.8,0.2C-1926.4,2862.3-1927,2861.9-1927,2861z"/>
	</g>
	<g class="st1">
		<path class="st2" d="M-1956,2869.7L-1956,2869.7c0-1.8,1.3-3.2,3.1-3.2c1.1,0,1.8,0.4,2.4,1l-0.5,0.5c-0.5-0.5-1.1-0.8-1.9-0.8
			c-1.4,0-2.4,1.1-2.4,2.5v0c0,1.4,1,2.5,2.4,2.5c0.8,0,1.4-0.3,2-0.9l0.5,0.4c-0.6,0.6-1.3,1.1-2.5,1.1
			C-1954.7,2872.8-1956,2871.4-1956,2869.7z"/>
		<path class="st2" d="M-1949.4,2866.3h0.7v2.7c0.3-0.5,0.8-0.9,1.6-0.9c1.1,0,1.7,0.7,1.7,1.8v2.8h-0.7v-2.6c0-0.8-0.5-1.4-1.3-1.4
			c-0.8,0-1.4,0.6-1.4,1.4v2.6h-0.7V2866.3z"/>
		<path class="st2" d="M-1944.3,2871.4L-1944.3,2871.4c0-1,0.8-1.5,1.9-1.5c0.6,0,1,0.1,1.4,0.2v-0.2c0-0.8-0.5-1.2-1.3-1.2
			c-0.5,0-1,0.1-1.4,0.3l-0.2-0.6c0.5-0.2,1-0.4,1.6-0.4c0.6,0,1.1,0.2,1.5,0.5c0.3,0.3,0.5,0.7,0.5,1.3v2.8h-0.6v-0.7
			c-0.3,0.4-0.8,0.8-1.6,0.8C-1943.5,2872.8-1944.3,2872.3-1944.3,2871.4z M-1941,2871.1v-0.4c-0.3-0.1-0.8-0.2-1.3-0.2
			c-0.8,0-1.3,0.4-1.3,0.9v0c0,0.6,0.5,0.9,1.1,0.9C-1941.7,2872.3-1941,2871.8-1941,2871.1z"/>
		<path class="st2" d="M-1938.9,2868.2h0.7v0.8c0.3-0.5,0.8-0.9,1.6-0.9c1.1,0,1.7,0.7,1.7,1.8v2.8h-0.7v-2.6c0-0.8-0.5-1.4-1.3-1.4
			c-0.8,0-1.4,0.6-1.4,1.4v2.6h-0.7V2868.2z"/>
		<path class="st2" d="M-1933.6,2873.5l0.3-0.5c0.5,0.4,1.1,0.6,1.7,0.6c1,0,1.6-0.6,1.6-1.6v-0.5c-0.4,0.5-0.9,1-1.8,1
			c-1.1,0-2.1-0.8-2.1-2.1v0c0-1.3,1.1-2.1,2.1-2.1c0.8,0,1.4,0.4,1.8,0.9v-0.8h0.7v3.7c0,0.7-0.2,1.2-0.6,1.6
			c-0.4,0.4-1,0.6-1.7,0.6C-1932.3,2874.1-1933,2873.9-1933.6,2873.5z M-1929.9,2870.2L-1929.9,2870.2c0-0.9-0.8-1.6-1.7-1.6
			c-0.9,0-1.6,0.6-1.6,1.5v0c0,0.9,0.7,1.5,1.6,1.5C-1930.7,2871.8-1929.9,2871.2-1929.9,2870.2z"/>
		<path class="st2" d="M-1928,2870.5L-1928,2870.5c0-1.3,0.9-2.4,2.2-2.4c1.3,0,2.1,1.1,2.1,2.4c0,0.1,0,0.1,0,0.2h-3.6
			c0.1,1,0.8,1.5,1.6,1.5c0.6,0,1.1-0.3,1.4-0.6l0.4,0.4c-0.5,0.5-1,0.8-1.9,0.8C-1927,2872.8-1928,2871.9-1928,2870.5z
			 M-1924.4,2870.2c-0.1-0.8-0.5-1.5-1.4-1.5c-0.8,0-1.4,0.7-1.5,1.5H-1924.4z"/>
	</g>
	<rect x="-1956" y="2958.6" class="st5" width="52.2" height="17.1"/>
	<rect x="-1956" y="2979.2" class="st5" width="52.2" height="17.1"/>
	<rect x="-1956" y="2999.8" class="st5" width="52.2" height="17.1"/>
	<g class="st1">
		<path class="st2" d="M-1938,2962.8h0.8v6h3.7v0.7h-4.5V2962.8z"/>
		<path class="st2" d="M-1932.2,2962.7h0.8v0.8h-0.8V2962.7z M-1932.2,2964.5h0.7v4.9h-0.7V2964.5z"/>
		<path class="st2" d="M-1929.7,2964.5h0.7v0.9c0.3-0.5,0.8-1,1.7-1c1.2,0,1.9,0.8,1.9,2v3.1h-0.7v-2.9c0-0.9-0.5-1.5-1.4-1.5
			c-0.8,0-1.5,0.6-1.5,1.5v2.8h-0.7V2964.5z"/>
		<path class="st2" d="M-1923.6,2968.2v-3h-0.7v-0.6h0.7v-1.5h0.7v1.5h1.6v0.6h-1.6v2.9c0,0.6,0.3,0.8,0.8,0.8c0.2,0,0.5,0,0.7-0.2
			v0.6c-0.3,0.1-0.5,0.2-0.9,0.2C-1923,2969.5-1923.6,2969.2-1923.6,2968.2z"/>
	</g>
	<g class="st1">
		<path class="st2" d="M-1945.6,2989.1l0.5-0.6c0.7,0.6,1.4,0.9,2.3,0.9c0.9,0,1.5-0.5,1.5-1.1v0c0-0.6-0.3-1-1.7-1.3
			c-1.5-0.3-2.2-0.8-2.2-1.9v0c0-1,0.9-1.8,2.2-1.8c1,0,1.7,0.3,2.3,0.8l-0.4,0.6c-0.6-0.5-1.2-0.7-1.9-0.7c-0.9,0-1.4,0.5-1.4,1.1
			v0c0,0.6,0.3,1,1.8,1.3c1.5,0.3,2.2,0.9,2.2,1.9v0c0,1.1-1,1.9-2.3,1.9C-1943.9,2990.1-1944.8,2989.8-1945.6,2989.1z"/>
		<path class="st2" d="M-1935.6,2985.1h0.8l-2.1,5.1c-0.4,1-0.9,1.4-1.6,1.4c-0.4,0-0.7-0.1-1-0.2l0.2-0.6c0.2,0.1,0.5,0.2,0.8,0.2
			c0.4,0,0.7-0.2,1-0.9l-2.2-4.9h0.8l1.8,4.1L-1935.6,2985.1z"/>
		<path class="st2" d="M-1933.7,2985.1h0.7v0.9c0.3-0.5,0.8-1,1.7-1c1.2,0,1.9,0.8,1.9,2v3.1h-0.7v-2.9c0-0.9-0.5-1.5-1.4-1.5
			c-0.8,0-1.5,0.6-1.5,1.5v2.8h-0.7V2985.1z"/>
		<path class="st2" d="M-1927.6,2988.7v-3h-0.7v-0.6h0.7v-1.5h0.7v1.5h1.6v0.6h-1.6v2.9c0,0.6,0.3,0.8,0.8,0.8c0.2,0,0.5,0,0.7-0.2
			v0.6c-0.3,0.1-0.5,0.2-0.9,0.2C-1927,2990.1-1927.6,2989.7-1927.6,2988.7z"/>
		<path class="st2" d="M-1924.4,2988.6L-1924.4,2988.6c0-1.1,0.9-1.6,2.1-1.6c0.6,0,1.1,0.1,1.5,0.2v-0.2c0-0.9-0.5-1.3-1.5-1.3
			c-0.6,0-1,0.2-1.5,0.4l-0.2-0.6c0.5-0.2,1.1-0.4,1.8-0.4c0.7,0,1.2,0.2,1.6,0.5c0.3,0.3,0.5,0.8,0.5,1.4v3h-0.7v-0.7
			c-0.3,0.4-0.9,0.8-1.8,0.8C-1923.5,2990.1-1924.4,2989.6-1924.4,2988.6z M-1920.8,2988.2v-0.5c-0.4-0.1-0.8-0.2-1.4-0.2
			c-0.9,0-1.4,0.4-1.4,1v0c0,0.6,0.6,1,1.2,1C-1921.5,2989.6-1920.8,2989-1920.8,2988.2z"/>
		<path class="st2" d="M-1916.6,2987l1.5-1.9h0.8l-1.9,2.4l1.9,2.5h-0.8l-1.5-2l-1.5,2h-0.8l1.9-2.5l-1.8-2.4h0.8L-1916.6,2987z"/>
	</g>
	<g class="st1">
		<path class="st2" d="M-1938.8,3007.8v-3.9h0.8v3.8c0,1.4,0.8,2.2,2,2.2c1.2,0,2-0.7,2-2.2v-3.9h0.8v3.8c0,1.9-1.1,2.9-2.8,2.9
			C-1937.6,3010.7-1938.8,3009.7-1938.8,3007.8z"/>
		<path class="st2" d="M-1931.6,3005.7h0.7v0.9c0.3-0.5,0.8-1,1.7-1c1.2,0,1.9,0.8,1.9,2v3.1h-0.7v-2.9c0-0.9-0.5-1.5-1.4-1.5
			c-0.8,0-1.5,0.6-1.5,1.5v2.8h-0.7V3005.7z"/>
		<path class="st2" d="M-1925.7,3003.8h0.8v0.8h-0.8V3003.8z M-1925.6,3005.7h0.7v4.9h-0.7V3005.7z"/>
		<path class="st2" d="M-1923,3009.3v-3h-0.7v-0.6h0.7v-1.5h0.7v1.5h1.6v0.6h-1.6v2.9c0,0.6,0.3,0.8,0.8,0.8c0.2,0,0.5,0,0.7-0.2
			v0.6c-0.3,0.1-0.5,0.2-0.9,0.2C-1922.4,3010.7-1923,3010.3-1923,3009.3z"/>
	</g>
	<circle class="st3" cx="-1882" cy="2864.8" r="24.7"/>
	<g>
		<g>
			<line class="st4" x1="-1882" y1="2879.5" x2="-1882" y2="2905.9"/>
			<g>
				<polygon class="st3" points="-1885.1,2905 -1882,2910.4 -1878.9,2905 				"/>
			</g>
		</g>
	</g>
	<g class="st1">
		<path class="st2" d="M-1897.9,2856h0.6l2.8,6.2h-0.7l-0.7-1.6h-3.3l-0.7,1.6h-0.7L-1897.9,2856z M-1896.2,2860l-1.4-3.1l-1.4,3.1
			H-1896.2z"/>
		<path class="st2" d="M-1893.4,2857.7h0.7v0.9c0.4-0.5,0.9-1,1.7-1c1.1,0,2.2,0.9,2.2,2.3v0c0,1.5-1.1,2.4-2.2,2.4
			c-0.8,0-1.4-0.5-1.7-1v2.3h-0.7V2857.7z M-1889.5,2860L-1889.5,2860c0-1.1-0.7-1.8-1.6-1.8c-0.8,0-1.6,0.7-1.6,1.7v0
			c0,1.1,0.8,1.8,1.6,1.8C-1890.2,2861.7-1889.5,2861.1-1889.5,2860z"/>
		<path class="st2" d="M-1887.5,2857.7h0.7v0.9c0.4-0.5,0.9-1,1.7-1c1.1,0,2.2,0.9,2.2,2.3v0c0,1.5-1.1,2.4-2.2,2.4
			c-0.8,0-1.4-0.5-1.7-1v2.3h-0.7V2857.7z M-1883.7,2860L-1883.7,2860c0-1.1-0.7-1.8-1.6-1.8c-0.8,0-1.6,0.7-1.6,1.7v0
			c0,1.1,0.8,1.8,1.6,1.8C-1884.4,2861.7-1883.7,2861.1-1883.7,2860z"/>
		<path class="st2" d="M-1881.7,2857.7h0.7v1.2c0.3-0.8,1-1.3,1.8-1.3v0.7h-0.1c-1,0-1.8,0.7-1.8,2.1v1.8h-0.7V2857.7z"/>
		<path class="st2" d="M-1878.7,2860L-1878.7,2860c0-1.3,1-2.4,2.4-2.4c1.4,0,2.4,1.1,2.4,2.3v0c0,1.3-1,2.4-2.4,2.4
			C-1877.7,2862.3-1878.7,2861.3-1878.7,2860z M-1874.6,2860L-1874.6,2860c0-1-0.7-1.8-1.7-1.8c-1,0-1.7,0.8-1.7,1.8v0
			c0,1,0.7,1.8,1.7,1.8C-1875.3,2861.7-1874.6,2860.9-1874.6,2860z"/>
		<path class="st2" d="M-1873.4,2857.7h0.7l1.5,3.8l1.5-3.8h0.7l-2,4.6h-0.6L-1873.4,2857.7z"/>
		<path class="st2" d="M-1868.4,2860L-1868.4,2860c0-1.3,0.9-2.4,2.2-2.4c1.3,0,2.1,1.1,2.1,2.4c0,0.1,0,0.1,0,0.2h-3.6
			c0.1,1,0.8,1.5,1.6,1.5c0.6,0,1.1-0.3,1.4-0.6l0.4,0.4c-0.5,0.5-1,0.8-1.9,0.8C-1867.4,2862.3-1868.4,2861.4-1868.4,2860z
			 M-1864.8,2859.7c-0.1-0.8-0.5-1.5-1.4-1.5c-0.8,0-1.4,0.7-1.5,1.5H-1864.8z"/>
	</g>
	<g class="st1">
		<path class="st2" d="M-1898,2869.7L-1898,2869.7c0-1.8,1.3-3.2,3.1-3.2c1.1,0,1.8,0.4,2.4,1l-0.5,0.5c-0.5-0.5-1.1-0.8-1.9-0.8
			c-1.4,0-2.4,1.1-2.4,2.5v0c0,1.4,1,2.5,2.4,2.5c0.8,0,1.4-0.3,2-0.9l0.5,0.4c-0.6,0.6-1.3,1.1-2.5,1.1
			C-1896.7,2872.8-1898,2871.4-1898,2869.7z"/>
		<path class="st2" d="M-1891.4,2866.3h0.7v2.7c0.3-0.5,0.8-0.9,1.6-0.9c1.1,0,1.7,0.7,1.7,1.8v2.8h-0.7v-2.6c0-0.8-0.5-1.4-1.3-1.4
			c-0.8,0-1.4,0.6-1.4,1.4v2.6h-0.7V2866.3z"/>
		<path class="st2" d="M-1886.4,2871.4L-1886.4,2871.4c0-1,0.8-1.5,1.9-1.5c0.6,0,1,0.1,1.4,0.2v-0.2c0-0.8-0.5-1.2-1.3-1.2
			c-0.5,0-1,0.1-1.4,0.3l-0.2-0.6c0.5-0.2,1-0.4,1.6-0.4c0.6,0,1.1,0.2,1.5,0.5c0.3,0.3,0.5,0.7,0.5,1.3v2.8h-0.6v-0.7
			c-0.3,0.4-0.8,0.8-1.6,0.8C-1885.5,2872.8-1886.4,2872.3-1886.4,2871.4z M-1883,2871.1v-0.4c-0.3-0.1-0.8-0.2-1.3-0.2
			c-0.8,0-1.3,0.4-1.3,0.9v0c0,0.6,0.5,0.9,1.1,0.9C-1883.7,2872.3-1883,2871.8-1883,2871.1z"/>
		<path class="st2" d="M-1881,2868.2h0.7v0.8c0.3-0.5,0.8-0.9,1.6-0.9c1.1,0,1.7,0.7,1.7,1.8v2.8h-0.7v-2.6c0-0.8-0.5-1.4-1.3-1.4
			c-0.8,0-1.4,0.6-1.4,1.4v2.6h-0.7V2868.2z"/>
		<path class="st2" d="M-1875.6,2873.5l0.3-0.5c0.5,0.4,1.1,0.6,1.7,0.6c1,0,1.6-0.6,1.6-1.6v-0.5c-0.4,0.5-0.9,1-1.8,1
			c-1.1,0-2.1-0.8-2.1-2.1v0c0-1.3,1.1-2.1,2.1-2.1c0.8,0,1.4,0.4,1.8,0.9v-0.8h0.7v3.7c0,0.7-0.2,1.2-0.6,1.6
			c-0.4,0.4-1,0.6-1.7,0.6C-1874.3,2874.1-1875,2873.9-1875.6,2873.5z M-1871.9,2870.2L-1871.9,2870.2c0-0.9-0.8-1.6-1.7-1.6
			c-0.9,0-1.6,0.6-1.6,1.5v0c0,0.9,0.7,1.5,1.6,1.5C-1872.7,2871.8-1871.9,2871.2-1871.9,2870.2z"/>
		<path class="st2" d="M-1870,2870.5L-1870,2870.5c0-1.3,0.9-2.4,2.2-2.4c1.3,0,2.1,1.1,2.1,2.4c0,0.1,0,0.1,0,0.2h-3.6
			c0.1,1,0.8,1.5,1.6,1.5c0.6,0,1.1-0.3,1.4-0.6l0.4,0.4c-0.5,0.5-1,0.8-1.9,0.8C-1869,2872.8-1870,2871.9-1870,2870.5z
			 M-1866.4,2870.2c-0.1-0.8-0.5-1.5-1.4-1.5c-0.8,0-1.4,0.7-1.5,1.5H-1866.4z"/>
	</g>
	<g>
		<rect x="-1896.2" y="2912.8" class="st0" width="48.4" height="42.4"/>
		<g class="st1">
			<path class="st2" d="M-1885,2930.5h2.6c0.7,0,1.3,0.2,1.6,0.5c0.3,0.3,0.4,0.6,0.4,1v0c0,0.8-0.5,1.2-1,1.4
				c0.7,0.2,1.3,0.6,1.3,1.5v0c0,1.1-0.9,1.7-2.2,1.7h-2.7V2930.5z M-1881.1,2932.1c0-0.6-0.5-1-1.4-1h-1.9v2.1h1.8
				C-1881.7,2933.2-1881.1,2932.9-1881.1,2932.1L-1881.1,2932.1z M-1882.4,2933.8h-1.9v2.2h2.1c0.9,0,1.5-0.4,1.5-1.1v0
				C-1880.8,2934.2-1881.3,2933.8-1882.4,2933.8z"/>
			<path class="st2" d="M-1878.8,2934.1v-3.6h0.7v3.5c0,1.3,0.7,2.1,1.9,2.1c1.1,0,1.8-0.7,1.8-2v-3.6h0.7v3.5c0,1.8-1,2.7-2.6,2.7
				C-1877.8,2936.7-1878.8,2935.8-1878.8,2934.1z"/>
			<path class="st2" d="M-1872,2930.5h0.7v6.1h-0.7V2930.5z"/>
			<path class="st2" d="M-1869.5,2930.5h0.7v5.5h3.5v0.6h-4.1V2930.5z"/>
			<path class="st2" d="M-1864.1,2930.5h2.1c1.9,0,3.3,1.3,3.3,3v0c0,1.7-1.3,3.1-3.3,3.1h-2.1V2930.5z M-1863.4,2931.1v4.9h1.4
				c1.6,0,2.5-1.1,2.5-2.4v0c0-1.4-1-2.4-2.5-2.4H-1863.4z"/>
		</g>
		<rect x="-1896.2" y="2958.6" class="st5" width="48.4" height="17.1"/>
		<rect x="-1896.2" y="2979.2" class="st5" width="48.4" height="17.1"/>
		<rect x="-1896.2" y="2999.8" class="st5" width="48.4" height="17.1"/>
		<g class="st1">
			<path class="st2" d="M-1880.1,2962.8h0.8v6h3.7v0.7h-4.5V2962.8z"/>
			<path class="st2" d="M-1874.3,2962.7h0.8v0.8h-0.8V2962.7z M-1874.3,2964.5h0.7v4.9h-0.7V2964.5z"/>
			<path class="st2" d="M-1871.8,2964.5h0.7v0.9c0.3-0.5,0.8-1,1.7-1c1.2,0,1.9,0.8,1.9,2v3.1h-0.7v-2.9c0-0.9-0.5-1.5-1.4-1.5
				c-0.8,0-1.5,0.6-1.5,1.5v2.8h-0.7V2964.5z"/>
			<path class="st2" d="M-1865.7,2968.2v-3h-0.7v-0.6h0.7v-1.5h0.7v1.5h1.6v0.6h-1.6v2.9c0,0.6,0.3,0.8,0.8,0.8c0.2,0,0.5,0,0.7-0.2
				v0.6c-0.3,0.1-0.5,0.2-0.9,0.2C-1865.1,2969.5-1865.7,2969.2-1865.7,2968.2z"/>
		</g>
		<g class="st1">
			<path class="st2" d="M-1887.7,2989.1l0.5-0.6c0.7,0.6,1.4,0.9,2.3,0.9c0.9,0,1.5-0.5,1.5-1.1v0c0-0.6-0.3-1-1.7-1.3
				c-1.5-0.3-2.2-0.8-2.2-1.9v0c0-1,0.9-1.8,2.2-1.8c1,0,1.7,0.3,2.3,0.8l-0.4,0.6c-0.6-0.5-1.2-0.7-1.9-0.7c-0.9,0-1.4,0.5-1.4,1.1
				v0c0,0.6,0.3,1,1.8,1.3c1.5,0.3,2.2,0.9,2.2,1.9v0c0,1.1-1,1.9-2.3,1.9C-1886,2990.1-1886.9,2989.8-1887.7,2989.1z"/>
			<path class="st2" d="M-1877.7,2985.1h0.8l-2.1,5.1c-0.4,1-0.9,1.4-1.6,1.4c-0.4,0-0.7-0.1-1-0.2l0.2-0.6c0.2,0.1,0.5,0.2,0.8,0.2
				c0.4,0,0.7-0.2,1-0.9l-2.2-4.9h0.8l1.8,4.1L-1877.7,2985.1z"/>
			<path class="st2" d="M-1875.8,2985.1h0.7v0.9c0.3-0.5,0.8-1,1.7-1c1.2,0,1.9,0.8,1.9,2v3.1h-0.7v-2.9c0-0.9-0.5-1.5-1.4-1.5
				c-0.8,0-1.5,0.6-1.5,1.5v2.8h-0.7V2985.1z"/>
			<path class="st2" d="M-1869.7,2988.7v-3h-0.7v-0.6h0.7v-1.5h0.7v1.5h1.6v0.6h-1.6v2.9c0,0.6,0.3,0.8,0.8,0.8c0.2,0,0.5,0,0.7-0.2
				v0.6c-0.3,0.1-0.5,0.2-0.9,0.2C-1869.1,2990.1-1869.7,2989.7-1869.7,2988.7z"/>
			<path class="st2" d="M-1866.5,2988.6L-1866.5,2988.6c0-1.1,0.9-1.6,2.1-1.6c0.6,0,1.1,0.1,1.5,0.2v-0.2c0-0.9-0.5-1.3-1.5-1.3
				c-0.6,0-1,0.2-1.5,0.4l-0.2-0.6c0.5-0.2,1.1-0.4,1.8-0.4c0.7,0,1.2,0.2,1.6,0.5c0.3,0.3,0.5,0.8,0.5,1.4v3h-0.7v-0.7
				c-0.3,0.4-0.9,0.8-1.8,0.8C-1865.5,2990.1-1866.5,2989.6-1866.5,2988.6z M-1862.8,2988.2v-0.5c-0.4-0.1-0.8-0.2-1.4-0.2
				c-0.9,0-1.4,0.4-1.4,1v0c0,0.6,0.6,1,1.2,1C-1863.6,2989.6-1862.8,2989-1862.8,2988.2z"/>
			<path class="st2" d="M-1858.7,2987l1.5-1.9h0.8l-1.9,2.4l1.9,2.5h-0.8l-1.5-2l-1.5,2h-0.8l1.9-2.5l-1.8-2.4h0.8L-1858.7,2987z"/>
		</g>
		<g class="st1">
			<path class="st2" d="M-1880.9,3007.8v-3.9h0.8v3.8c0,1.4,0.8,2.2,2,2.2c1.2,0,2-0.7,2-2.2v-3.9h0.8v3.8c0,1.9-1.1,2.9-2.8,2.9
				C-1879.7,3010.7-1880.9,3009.7-1880.9,3007.8z"/>
			<path class="st2" d="M-1873.7,3005.7h0.7v0.9c0.3-0.5,0.8-1,1.7-1c1.2,0,1.9,0.8,1.9,2v3.1h-0.7v-2.9c0-0.9-0.5-1.5-1.4-1.5
				c-0.8,0-1.5,0.6-1.5,1.5v2.8h-0.7V3005.7z"/>
			<path class="st2" d="M-1867.8,3003.8h0.8v0.8h-0.8V3003.8z M-1867.7,3005.7h0.7v4.9h-0.7V3005.7z"/>
			<path class="st2" d="M-1865.1,3009.3v-3h-0.7v-0.6h0.7v-1.5h0.7v1.5h1.6v0.6h-1.6v2.9c0,0.6,0.3,0.8,0.8,0.8c0.2,0,0.5,0,0.7-0.2
				v0.6c-0.3,0.1-0.5,0.2-0.9,0.2C-1864.5,3010.7-1865.1,3010.3-1865.1,3009.3z"/>
		</g>
		<rect x="-1896.2" y="3020.3" class="st5" width="48.4" height="17.1"/>
		<rect x="-1896.2" y="3040.9" class="st5" width="48.4" height="17.1"/>
		<rect x="-1896.2" y="3061.5" class="st5" width="48.4" height="17.1"/>
		<g class="st1">
			<path class="st2" d="M-1890.9,3030.2l0.5-0.6c0.7,0.6,1.4,0.9,2.3,0.9c0.9,0,1.5-0.5,1.5-1.1v0c0-0.6-0.3-1-1.7-1.3
				c-1.5-0.3-2.2-0.8-2.2-1.9v0c0-1,0.9-1.8,2.2-1.8c1,0,1.7,0.3,2.3,0.8l-0.4,0.6c-0.6-0.5-1.2-0.7-1.9-0.7c-0.9,0-1.4,0.5-1.4,1.1
				v0c0,0.6,0.3,1,1.8,1.3c1.5,0.3,2.2,0.9,2.2,1.9v0c0,1.1-1,1.9-2.3,1.9C-1889.2,3031.3-1890.1,3030.9-1890.9,3030.2z"/>
			<path class="st2" d="M-1884.8,3028.7L-1884.8,3028.7c0-1.4,1-2.6,2.4-2.6c1.5,0,2.3,1.2,2.3,2.6c0,0.1,0,0.2,0,0.2h-3.9
				c0.1,1.1,0.9,1.7,1.7,1.7c0.7,0,1.2-0.3,1.5-0.7l0.5,0.4c-0.5,0.6-1.1,0.9-2,0.9C-1883.7,3031.3-1884.8,3030.3-1884.8,3028.7z
				 M-1880.9,3028.5c-0.1-0.9-0.6-1.7-1.6-1.7c-0.9,0-1.5,0.7-1.6,1.7H-1880.9z"/>
			<path class="st2" d="M-1879.2,3028.8L-1879.2,3028.8c0-1.4,1.1-2.6,2.5-2.6c0.9,0,1.5,0.4,2,0.9l-0.5,0.5
				c-0.4-0.4-0.8-0.7-1.5-0.7c-1,0-1.8,0.8-1.8,1.9v0c0,1.1,0.8,1.9,1.8,1.9c0.6,0,1.1-0.3,1.5-0.7l0.5,0.4c-0.5,0.6-1.1,1-2,1
				C-1878.1,3031.3-1879.2,3030.1-1879.2,3028.8z"/>
			<path class="st2" d="M-1873.5,3029.3v-3.1h0.7v2.9c0,0.9,0.5,1.5,1.4,1.5c0.8,0,1.5-0.6,1.5-1.5v-2.8h0.7v4.9h-0.7v-0.9
				c-0.3,0.5-0.8,1-1.7,1C-1872.8,3031.3-1873.5,3030.5-1873.5,3029.3z"/>
			<path class="st2" d="M-1867.6,3026.3h0.7v1.3c0.4-0.8,1.1-1.4,2-1.4v0.8h-0.1c-1.1,0-1.9,0.8-1.9,2.3v2h-0.7V3026.3z"/>
			<path class="st2" d="M-1863.7,3024.4h0.8v0.8h-0.8V3024.4z M-1863.7,3026.3h0.7v4.9h-0.7V3026.3z"/>
			<path class="st2" d="M-1861,3029.9v-3h-0.7v-0.6h0.7v-1.5h0.7v1.5h1.6v0.6h-1.6v2.9c0,0.6,0.3,0.8,0.8,0.8c0.2,0,0.5,0,0.7-0.2
				v0.6c-0.3,0.1-0.5,0.2-0.9,0.2C-1860.4,3031.3-1861,3030.9-1861,3029.9z"/>
			<path class="st2" d="M-1853.7,3026.3h0.8l-2.1,5.1c-0.4,1-0.9,1.4-1.6,1.4c-0.4,0-0.7-0.1-1-0.2l0.2-0.6c0.2,0.1,0.5,0.2,0.8,0.2
				c0.4,0,0.7-0.2,1-0.9l-2.2-4.9h0.8l1.8,4.1L-1853.7,3026.3z"/>
		</g>
		<g class="st1">
			<path class="st2" d="M-1881.9,3052l-0.9-0.8c-0.6,0.4-1.3,0.7-2.1,0.7c-2,0-3.4-1.6-3.4-3.4v0c0-1.8,1.4-3.4,3.4-3.4
				c2,0,3.4,1.6,3.4,3.4v0c0,0.8-0.3,1.6-0.8,2.2l0.9,0.7L-1881.9,3052z M-1883.3,3050.7l-1.2-1.1l0.5-0.6l1.2,1.1
				c0.4-0.5,0.6-1.1,0.6-1.7v0c0-1.5-1.1-2.7-2.6-2.7c-1.5,0-2.6,1.2-2.6,2.7v0c0,1.5,1.1,2.7,2.6,2.7
				C-1884.3,3051.2-1883.8,3051-1883.3,3050.7z"/>
			<path class="st2" d="M-1880.1,3049.9v-3.1h0.7v2.9c0,0.9,0.5,1.5,1.4,1.5c0.8,0,1.5-0.6,1.5-1.5v-2.8h0.7v4.9h-0.7v-0.9
				c-0.3,0.5-0.8,1-1.7,1C-1879.4,3051.9-1880.1,3051.1-1880.1,3049.9z"/>
			<path class="st2" d="M-1874.6,3050.3L-1874.6,3050.3c0-1.1,0.9-1.6,2.1-1.6c0.6,0,1.1,0.1,1.5,0.2v-0.2c0-0.9-0.5-1.3-1.5-1.3
				c-0.6,0-1,0.2-1.5,0.4l-0.2-0.6c0.5-0.2,1.1-0.4,1.8-0.4c0.7,0,1.2,0.2,1.6,0.5c0.3,0.3,0.5,0.8,0.5,1.4v3h-0.7v-0.7
				c-0.3,0.4-0.9,0.8-1.8,0.8C-1873.6,3051.9-1874.6,3051.4-1874.6,3050.3z M-1870.9,3050v-0.5c-0.4-0.1-0.8-0.2-1.4-0.2
				c-0.9,0-1.4,0.4-1.4,1v0c0,0.6,0.6,1,1.2,1C-1871.7,3051.3-1870.9,3050.7-1870.9,3050z"/>
			<path class="st2" d="M-1868.6,3044.8h0.7v6.9h-0.7V3044.8z"/>
			<path class="st2" d="M-1866.2,3045h0.8v0.8h-0.8V3045z M-1866.1,3046.9h0.7v4.9h-0.7V3046.9z"/>
			<path class="st2" d="M-1863.4,3050.5v-3h-0.7v-0.6h0.7v-1.5h0.7v1.5h1.6v0.6h-1.6v2.9c0,0.6,0.3,0.8,0.8,0.8c0.2,0,0.5,0,0.7-0.2
				v0.6c-0.3,0.1-0.5,0.2-0.9,0.2C-1862.8,3051.9-1863.4,3051.5-1863.4,3050.5z"/>
			<path class="st2" d="M-1856.2,3046.9h0.8l-2.1,5.1c-0.4,1-0.9,1.4-1.6,1.4c-0.4,0-0.7-0.1-1-0.2l0.2-0.6c0.2,0.1,0.5,0.2,0.8,0.2
				c0.4,0,0.7-0.2,1-0.9l-2.2-4.9h0.8l1.8,4.1L-1856.2,3046.9z"/>
		</g>
		<g class="st1">
			<path class="st2" d="M-1888.1,3065.7h2.5c1.5,0,2.5,0.8,2.5,2.1v0c0,1.4-1.2,2.2-2.6,2.2h-1.6v2.3h-0.8V3065.7z M-1885.7,3069.3
				c1.1,0,1.8-0.6,1.8-1.5v0c0-1-0.7-1.4-1.8-1.4h-1.7v2.9H-1885.7z"/>
			<path class="st2" d="M-1881.9,3070.5v-3.1h0.7v2.9c0,0.9,0.5,1.5,1.4,1.5c0.8,0,1.5-0.6,1.5-1.5v-2.8h0.7v4.9h-0.7v-0.9
				c-0.3,0.5-0.8,1-1.7,1C-1881.3,3072.4-1881.9,3071.7-1881.9,3070.5z"/>
			<path class="st2" d="M-1875.3,3071.4v0.9h-0.7v-6.9h0.7v3c0.4-0.6,1-1.1,1.9-1.1c1.2,0,2.3,0.9,2.3,2.5v0c0,1.6-1.2,2.6-2.3,2.6
				C-1874.3,3072.4-1874.9,3072-1875.3,3071.4z M-1871.8,3069.9L-1871.8,3069.9c0-1.2-0.8-1.9-1.7-1.9c-0.9,0-1.8,0.8-1.8,1.9v0
				c0,1.1,0.9,1.9,1.8,1.9C-1872.6,3071.8-1871.8,3071.1-1871.8,3069.9z"/>
			<path class="st2" d="M-1869.6,3065.4h0.7v6.9h-0.7V3065.4z"/>
			<path class="st2" d="M-1867.2,3065.5h0.8v0.8h-0.8V3065.5z M-1867.1,3067.4h0.7v4.9h-0.7V3067.4z"/>
			<path class="st2" d="M-1865.1,3071.7l0.4-0.5c0.5,0.4,1.1,0.6,1.7,0.6c0.6,0,1-0.3,1-0.8v0c0-0.5-0.6-0.7-1.2-0.9
				c-0.8-0.2-1.6-0.5-1.6-1.4v0c0-0.8,0.7-1.4,1.7-1.4c0.6,0,1.3,0.2,1.8,0.5l-0.3,0.6c-0.5-0.3-1-0.5-1.5-0.5c-0.6,0-1,0.3-1,0.7v0
				c0,0.5,0.6,0.6,1.3,0.8c0.8,0.2,1.6,0.5,1.6,1.4v0c0,0.9-0.8,1.5-1.7,1.5C-1863.8,3072.4-1864.6,3072.2-1865.1,3071.7z"/>
			<path class="st2" d="M-1860,3065.4h0.7v2.9c0.3-0.5,0.8-1,1.7-1c1.2,0,1.9,0.8,1.9,2v3.1h-0.7v-2.9c0-0.9-0.5-1.5-1.4-1.5
				c-0.8,0-1.5,0.6-1.5,1.5v2.8h-0.7V3065.4z"/>
		</g>
	</g>
	<g>
		<rect x="-1840.2" y="2912.8" class="st0" width="87.2" height="42.4"/>
		<g class="st1">
			<path class="st2" d="M-1825.1,2930.5h0.6l2.8,6.2h-0.7l-0.7-1.6h-3.3l-0.7,1.6h-0.7L-1825.1,2930.5z M-1823.4,2934.4l-1.4-3.1
				l-1.4,3.1H-1823.4z"/>
			<path class="st2" d="M-1821.1,2933.6L-1821.1,2933.6c0-1.8,1.3-3.2,3.1-3.2c1.1,0,1.8,0.4,2.4,1l-0.5,0.5
				c-0.5-0.5-1.1-0.8-1.9-0.8c-1.4,0-2.4,1.1-2.4,2.5v0c0,1.4,1,2.5,2.4,2.5c0.8,0,1.4-0.3,2-0.9l0.5,0.4c-0.6,0.6-1.3,1.1-2.5,1.1
				C-1819.8,2936.7-1821.1,2935.3-1821.1,2933.6z"/>
			<path class="st2" d="M-1814.8,2933.6L-1814.8,2933.6c0-1.8,1.3-3.2,3.1-3.2c1.1,0,1.8,0.4,2.4,1l-0.5,0.5
				c-0.5-0.5-1.1-0.8-1.9-0.8c-1.4,0-2.4,1.1-2.4,2.5v0c0,1.4,1,2.5,2.4,2.5c0.8,0,1.4-0.3,2-0.9l0.5,0.4c-0.6,0.6-1.3,1.1-2.5,1.1
				C-1813.5,2936.7-1814.8,2935.3-1814.8,2933.6z"/>
			<path class="st2" d="M-1808.1,2930.5h4.4v0.6h-3.7v2.1h3.3v0.6h-3.3v2.1h3.8v0.6h-4.5V2930.5z"/>
			<path class="st2" d="M-1802.2,2930.5h2.3c1.4,0,2.3,0.7,2.3,1.9v0c0,1.3-1.1,2-2.4,2h-1.5v2.2h-0.7V2930.5z M-1800,2933.8
				c1,0,1.7-0.5,1.7-1.3v0c0-0.9-0.7-1.3-1.6-1.3h-1.5v2.7H-1800z"/>
			<path class="st2" d="M-1794.8,2931.1h-2.1v-0.6h4.8v0.6h-2.1v5.5h-0.7V2931.1z"/>
			<path class="st2" d="M-1789.2,2930.5h0.6l2.8,6.2h-0.7l-0.7-1.6h-3.3l-0.7,1.6h-0.7L-1789.2,2930.5z M-1787.5,2934.4l-1.4-3.1
				l-1.4,3.1H-1787.5z"/>
			<path class="st2" d="M-1784.6,2930.5h0.6l3.9,4.9v-4.9h0.7v6.1h-0.6l-4-5v5h-0.7V2930.5z"/>
			<path class="st2" d="M-1777.9,2933.6L-1777.9,2933.6c0-1.8,1.3-3.2,3.1-3.2c1.1,0,1.8,0.4,2.4,1l-0.5,0.5
				c-0.5-0.5-1.1-0.8-1.9-0.8c-1.4,0-2.4,1.1-2.4,2.5v0c0,1.4,1,2.5,2.4,2.5c0.8,0,1.4-0.3,2-0.9l0.5,0.4c-0.6,0.6-1.3,1.1-2.5,1.1
				C-1776.6,2936.7-1777.9,2935.3-1777.9,2933.6z"/>
			<path class="st2" d="M-1771.2,2930.5h4.4v0.6h-3.7v2.1h3.3v0.6h-3.3v2.1h3.8v0.6h-4.5V2930.5z"/>
		</g>
		<rect x="-1840.2" y="2958.6" class="st5" width="87.2" height="17.1"/>
		<rect x="-1840.2" y="2979.2" class="st5" width="87.2" height="17.1"/>
		<rect x="-1840.2" y="2999.8" class="st5" width="87.2" height="17.1"/>
		<rect x="-1840.2" y="3020.3" class="st5" width="87.2" height="17.1"/>
		<g class="st1">
			<path class="st2" d="M-1817.5,2962.8h2.5c1.5,0,2.5,0.8,2.5,2.1v0c0,1.4-1.2,2.2-2.6,2.2h-1.6v2.3h-0.8V2962.8z M-1815.1,2966.4
				c1.1,0,1.8-0.6,1.8-1.5v0c0-1-0.7-1.4-1.8-1.4h-1.7v2.9H-1815.1z"/>
			<path class="st2" d="M-1811.2,2964.5h0.7v1.3c0.4-0.8,1.1-1.4,2-1.4v0.8h-0.1c-1.1,0-1.9,0.8-1.9,2.3v2h-0.7V2964.5z"/>
			<path class="st2" d="M-1807.9,2967L-1807.9,2967c0-1.4,1.1-2.6,2.6-2.6c1.5,0,2.6,1.2,2.6,2.5v0c0,1.4-1.1,2.6-2.6,2.6
				C-1806.8,2969.6-1807.9,2968.4-1807.9,2967z M-1803.5,2967L-1803.5,2967c0-1.1-0.8-1.9-1.8-1.9c-1.1,0-1.8,0.9-1.8,1.9v0
				c0,1.1,0.8,1.9,1.8,1.9C-1804.3,2968.9-1803.5,2968.1-1803.5,2967z"/>
			<path class="st2" d="M-1802.2,2964.5h0.8l1.7,4.1l1.7-4.1h0.8l-2.1,5h-0.6L-1802.2,2964.5z"/>
			<path class="st2" d="M-1796.1,2962.7h0.8v0.8h-0.8V2962.7z M-1796.1,2964.5h0.7v4.9h-0.7V2964.5z"/>
			<path class="st2" d="M-1794.1,2968.8l0.4-0.5c0.5,0.4,1.1,0.6,1.7,0.6c0.6,0,1-0.3,1-0.8v0c0-0.5-0.6-0.7-1.2-0.9
				c-0.8-0.2-1.6-0.5-1.6-1.4v0c0-0.8,0.7-1.4,1.7-1.4c0.6,0,1.3,0.2,1.8,0.5l-0.3,0.6c-0.5-0.3-1-0.5-1.5-0.5c-0.6,0-1,0.3-1,0.7v0
				c0,0.5,0.6,0.6,1.3,0.8c0.8,0.2,1.6,0.5,1.6,1.4v0c0,0.9-0.8,1.5-1.7,1.5C-1792.7,2969.6-1793.5,2969.3-1794.1,2968.8z"/>
			<path class="st2" d="M-1788.9,2962.7h0.8v0.8h-0.8V2962.7z M-1788.9,2964.5h0.7v4.9h-0.7V2964.5z"/>
			<path class="st2" d="M-1786.7,2967L-1786.7,2967c0-1.4,1.1-2.6,2.6-2.6c1.5,0,2.6,1.2,2.6,2.5v0c0,1.4-1.1,2.6-2.6,2.6
				C-1785.7,2969.6-1786.7,2968.4-1786.7,2967z M-1782.4,2967L-1782.4,2967c0-1.1-0.8-1.9-1.8-1.9c-1.1,0-1.8,0.9-1.8,1.9v0
				c0,1.1,0.8,1.9,1.8,1.9C-1783.1,2968.9-1782.4,2968.1-1782.4,2967z"/>
			<path class="st2" d="M-1780.3,2964.5h0.7v0.9c0.3-0.5,0.8-1,1.7-1c1.2,0,1.9,0.8,1.9,2v3.1h-0.7v-2.9c0-0.9-0.5-1.5-1.4-1.5
				c-0.8,0-1.5,0.6-1.5,1.5v2.8h-0.7V2964.5z"/>
		</g>
		<g class="st1">
			<path class="st2" d="M-1812.4,2983.4h2.3c2.1,0,3.5,1.4,3.5,3.3v0c0,1.9-1.4,3.3-3.5,3.3h-2.3V2983.4z M-1811.7,2984.1v5.3h1.6
				c1.7,0,2.8-1.1,2.8-2.6v0c0-1.5-1.1-2.6-2.8-2.6H-1811.7z"/>
			<path class="st2" d="M-1805.4,2987.6L-1805.4,2987.6c0-1.4,1-2.6,2.4-2.6c1.5,0,2.3,1.2,2.3,2.6c0,0.1,0,0.2,0,0.2h-3.9
				c0.1,1.1,0.9,1.7,1.7,1.7c0.7,0,1.2-0.3,1.5-0.7l0.5,0.4c-0.5,0.6-1.1,0.9-2,0.9C-1804.3,2990.2-1805.4,2989.1-1805.4,2987.6z
				 M-1801.5,2987.3c-0.1-0.9-0.6-1.7-1.6-1.7c-0.9,0-1.5,0.7-1.6,1.7H-1801.5z"/>
			<path class="st2" d="M-1799.5,2985.1h0.7v1c0.4-0.6,1-1.1,1.9-1.1c1.2,0,2.3,0.9,2.3,2.5v0c0,1.6-1.2,2.6-2.3,2.6
				c-0.9,0-1.5-0.5-1.9-1v2.5h-0.7V2985.1z M-1795.3,2987.6L-1795.3,2987.6c0-1.2-0.8-1.9-1.7-1.9c-0.9,0-1.8,0.8-1.8,1.9v0
				c0,1.1,0.9,1.9,1.8,1.9C-1796.1,2989.5-1795.3,2988.8-1795.3,2987.6z"/>
			<path class="st2" d="M-1793.1,2983.1h0.7v6.9h-0.7V2983.1z"/>
			<path class="st2" d="M-1791,2987.6L-1791,2987.6c0-1.4,1.1-2.6,2.6-2.6c1.5,0,2.6,1.2,2.6,2.5v0c0,1.4-1.1,2.6-2.6,2.6
				C-1789.9,2990.2-1791,2989-1791,2987.6z M-1786.6,2987.6L-1786.6,2987.6c0-1.1-0.8-1.9-1.8-1.9c-1.1,0-1.8,0.9-1.8,1.9v0
				c0,1.1,0.8,1.9,1.8,1.9C-1787.4,2989.5-1786.6,2988.6-1786.6,2987.6z"/>
			<path class="st2" d="M-1781.2,2985.1h0.8l-2.1,5.1c-0.4,1-0.9,1.4-1.6,1.4c-0.4,0-0.7-0.1-1-0.2l0.2-0.6c0.2,0.1,0.5,0.2,0.8,0.2
				c0.4,0,0.7-0.2,1-0.9l-2.2-4.9h0.8l1.8,4.1L-1781.2,2985.1z"/>
		</g>
		<g class="st1">
			<path class="st2" d="M-1812.2,3009.6l0.5-0.6c0.7,0.6,1.4,0.9,2.3,0.9c0.9,0,1.5-0.5,1.5-1.1v0c0-0.6-0.3-1-1.7-1.3
				c-1.5-0.3-2.2-0.8-2.2-1.9v0c0-1,0.9-1.8,2.2-1.8c1,0,1.7,0.3,2.3,0.8l-0.4,0.6c-0.6-0.5-1.2-0.7-1.9-0.7c-0.9,0-1.4,0.5-1.4,1.1
				v0c0,0.6,0.3,1,1.8,1.3c1.5,0.3,2.2,0.9,2.2,1.9v0c0,1.1-1,1.9-2.3,1.9C-1810.6,3010.7-1811.4,3010.4-1812.2,3009.6z"/>
			<path class="st2" d="M-1805.8,3005.7h0.7v0.8c0.3-0.5,0.8-0.9,1.6-0.9c0.8,0,1.3,0.4,1.6,1c0.4-0.5,0.9-1,1.7-1
				c1.1,0,1.8,0.8,1.8,2v3h-0.7v-2.9c0-1-0.5-1.5-1.3-1.5c-0.7,0-1.3,0.6-1.3,1.5v2.8h-0.7v-2.9c0-0.9-0.5-1.5-1.3-1.5
				c-0.8,0-1.4,0.6-1.4,1.5v2.8h-0.7V3005.7z"/>
			<path class="st2" d="M-1797.1,3008.2L-1797.1,3008.2c0-1.4,1.1-2.6,2.6-2.6c1.5,0,2.6,1.2,2.6,2.5v0c0,1.4-1.1,2.6-2.6,2.6
				C-1796,3010.7-1797.1,3009.6-1797.1,3008.2z M-1792.7,3008.2L-1792.7,3008.2c0-1.1-0.8-1.9-1.8-1.9c-1.1,0-1.8,0.9-1.8,1.9v0
				c0,1.1,0.8,1.9,1.8,1.9C-1793.5,3010.1-1792.7,3009.2-1792.7,3008.2z"/>
			<path class="st2" d="M-1790.6,3003.7h0.7v4.8l2.7-2.8h0.9l-2.1,2.1l2.1,2.8h-0.9l-1.8-2.3l-1,1v1.3h-0.7V3003.7z"/>
			<path class="st2" d="M-1785.8,3008.2L-1785.8,3008.2c0-1.4,1-2.6,2.4-2.6c1.5,0,2.3,1.2,2.3,2.6c0,0.1,0,0.2,0,0.2h-3.9
				c0.1,1.1,0.9,1.7,1.7,1.7c0.7,0,1.2-0.3,1.5-0.7l0.5,0.4c-0.5,0.6-1.1,0.9-2,0.9C-1784.7,3010.7-1785.8,3009.7-1785.8,3008.2z
				 M-1781.9,3007.9c-0.1-0.9-0.6-1.7-1.6-1.7c-0.9,0-1.5,0.7-1.6,1.7H-1781.9z"/>
		</g>
		<g class="st1">
			<path class="st2" d="M-1820.5,3024.5h4.8v0.7h-4v2.4h3.6v0.7h-3.6v2.9h-0.8V3024.5z"/>
			<path class="st2" d="M-1814.4,3029.3v-3.1h0.7v2.9c0,0.9,0.5,1.5,1.4,1.5c0.8,0,1.5-0.6,1.5-1.5v-2.8h0.7v4.9h-0.7v-0.9
				c-0.3,0.5-0.8,1-1.7,1C-1813.8,3031.3-1814.4,3030.5-1814.4,3029.3z"/>
			<path class="st2" d="M-1808.5,3026.3h0.7v0.9c0.3-0.5,0.8-1,1.7-1c1.2,0,1.9,0.8,1.9,2v3.1h-0.7v-2.9c0-0.9-0.5-1.5-1.4-1.5
				c-0.8,0-1.5,0.6-1.5,1.5v2.8h-0.7V3026.3z"/>
			<path class="st2" d="M-1803,3028.8L-1803,3028.8c0-1.4,1.1-2.6,2.5-2.6c0.9,0,1.5,0.4,2,0.9l-0.5,0.5c-0.4-0.4-0.8-0.7-1.5-0.7
				c-1,0-1.8,0.8-1.8,1.9v0c0,1.1,0.8,1.9,1.8,1.9c0.6,0,1.1-0.3,1.5-0.7l0.5,0.4c-0.5,0.6-1.1,1-2,1
				C-1801.9,3031.3-1803,3030.1-1803,3028.8z"/>
			<path class="st2" d="M-1797,3029.9v-3h-0.7v-0.6h0.7v-1.5h0.7v1.5h1.6v0.6h-1.6v2.9c0,0.6,0.3,0.8,0.8,0.8c0.2,0,0.5,0,0.7-0.2
				v0.6c-0.3,0.1-0.5,0.2-0.9,0.2C-1796.4,3031.3-1797,3030.9-1797,3029.9z"/>
			<path class="st2" d="M-1793.4,3024.4h0.8v0.8h-0.8V3024.4z M-1793.3,3026.3h0.7v4.9h-0.7V3026.3z"/>
			<path class="st2" d="M-1791.2,3028.8L-1791.2,3028.8c0-1.4,1.1-2.6,2.6-2.6c1.5,0,2.6,1.2,2.6,2.5v0c0,1.4-1.1,2.6-2.6,2.6
				C-1790.1,3031.3-1791.2,3030.1-1791.2,3028.8z M-1786.8,3028.8L-1786.8,3028.8c0-1.1-0.8-1.9-1.8-1.9c-1.1,0-1.8,0.9-1.8,1.9v0
				c0,1.1,0.8,1.9,1.8,1.9C-1787.6,3030.6-1786.8,3029.8-1786.8,3028.8z"/>
			<path class="st2" d="M-1784.8,3026.3h0.7v0.9c0.3-0.5,0.8-1,1.7-1c1.2,0,1.9,0.8,1.9,2v3.1h-0.7v-2.9c0-0.9-0.5-1.5-1.4-1.5
				c-0.8,0-1.5,0.6-1.5,1.5v2.8h-0.7V3026.3z"/>
			<path class="st2" d="M-1779.3,3029.8L-1779.3,3029.8c0-1.1,0.9-1.6,2.1-1.6c0.6,0,1.1,0.1,1.5,0.2v-0.2c0-0.9-0.5-1.3-1.5-1.3
				c-0.6,0-1,0.2-1.5,0.4l-0.2-0.6c0.5-0.2,1.1-0.4,1.8-0.4c0.7,0,1.2,0.2,1.6,0.5c0.3,0.3,0.5,0.8,0.5,1.4v3h-0.7v-0.7
				c-0.3,0.4-0.9,0.8-1.8,0.8C-1778.4,3031.3-1779.3,3030.8-1779.3,3029.8z M-1775.7,3029.4v-0.5c-0.4-0.1-0.8-0.2-1.4-0.2
				c-0.9,0-1.4,0.4-1.4,1v0c0,0.6,0.6,1,1.2,1C-1776.4,3030.7-1775.7,3030.2-1775.7,3029.4z"/>
			<path class="st2" d="M-1773.3,3024.3h0.7v6.9h-0.7V3024.3z"/>
		</g>
	</g>
	<circle class="st3" cx="-1729.1" cy="2864.8" r="24.7"/>
	<line class="st4" x1="-1729.1" y1="2879.5" x2="-1729.1" y2="2905.9"/>
	<g>
		<polygon class="st3" points="-1732.2,2905 -1729.1,2910.4 -1726,2905 		"/>
	</g>
	<g class="st1">
		<path class="st2" d="M-1743.5,2856.1h2.1c1.9,0,3.3,1.3,3.3,3v0c0,1.7-1.3,3.1-3.3,3.1h-2.1V2856.1z M-1742.8,2856.7v4.9h1.4
			c1.6,0,2.5-1.1,2.5-2.4v0c0-1.4-1-2.4-2.5-2.4H-1742.8z"/>
		<path class="st2" d="M-1737.1,2860L-1737.1,2860c0-1.3,0.9-2.4,2.2-2.4c1.3,0,2.1,1.1,2.1,2.4c0,0.1,0,0.1,0,0.2h-3.6
			c0.1,1,0.8,1.5,1.6,1.5c0.6,0,1.1-0.3,1.4-0.6l0.4,0.4c-0.5,0.5-1,0.8-1.9,0.8C-1736.1,2862.3-1737.1,2861.4-1737.1,2860z
			 M-1733.5,2859.7c-0.1-0.8-0.5-1.5-1.4-1.5c-0.8,0-1.4,0.7-1.5,1.5H-1733.5z"/>
		<path class="st2" d="M-1731.5,2855.8h0.7v6.4h-0.7V2855.8z"/>
		<path class="st2" d="M-1729.3,2856h0.8v0.7h-0.8V2856z M-1729.2,2857.7h0.7v4.5h-0.7V2857.7z"/>
		<path class="st2" d="M-1727.4,2857.7h0.7l1.5,3.8l1.5-3.8h0.7l-2,4.6h-0.6L-1727.4,2857.7z"/>
		<path class="st2" d="M-1722.4,2860L-1722.4,2860c0-1.3,0.9-2.4,2.2-2.4c1.3,0,2.1,1.1,2.1,2.4c0,0.1,0,0.1,0,0.2h-3.6
			c0.1,1,0.8,1.5,1.6,1.5c0.6,0,1.1-0.3,1.4-0.6l0.4,0.4c-0.5,0.5-1,0.8-1.9,0.8C-1721.4,2862.3-1722.4,2861.4-1722.4,2860z
			 M-1718.8,2859.7c-0.1-0.8-0.5-1.5-1.4-1.5c-0.8,0-1.4,0.7-1.5,1.5H-1718.8z"/>
		<path class="st2" d="M-1716.9,2857.7h0.7v1.2c0.3-0.8,1-1.3,1.8-1.3v0.7h-0.1c-1,0-1.8,0.7-1.8,2.1v1.8h-0.7V2857.7z"/>
	</g>
	<g class="st1">
		<path class="st2" d="M-1745.2,2869.7L-1745.2,2869.7c0-1.8,1.3-3.2,3.1-3.2c1.1,0,1.8,0.4,2.4,1l-0.5,0.5
			c-0.5-0.5-1.1-0.8-1.9-0.8c-1.4,0-2.4,1.1-2.4,2.5v0c0,1.4,1,2.5,2.4,2.5c0.8,0,1.4-0.3,2-0.9l0.5,0.4c-0.6,0.6-1.3,1.1-2.5,1.1
			C-1743.9,2872.8-1745.2,2871.4-1745.2,2869.7z"/>
		<path class="st2" d="M-1738.6,2866.3h0.7v2.7c0.3-0.5,0.8-0.9,1.6-0.9c1.1,0,1.7,0.7,1.7,1.8v2.8h-0.7v-2.6c0-0.8-0.5-1.4-1.3-1.4
			c-0.8,0-1.4,0.6-1.4,1.4v2.6h-0.7V2866.3z"/>
		<path class="st2" d="M-1733.5,2871.4L-1733.5,2871.4c0-1,0.8-1.5,1.9-1.5c0.6,0,1,0.1,1.4,0.2v-0.2c0-0.8-0.5-1.2-1.3-1.2
			c-0.5,0-1,0.1-1.4,0.3l-0.2-0.6c0.5-0.2,1-0.4,1.6-0.4c0.6,0,1.1,0.2,1.5,0.5c0.3,0.3,0.5,0.7,0.5,1.3v2.8h-0.6v-0.7
			c-0.3,0.4-0.8,0.8-1.6,0.8C-1732.7,2872.8-1733.5,2872.3-1733.5,2871.4z M-1730.2,2871.1v-0.4c-0.3-0.1-0.8-0.2-1.3-0.2
			c-0.8,0-1.3,0.4-1.3,0.9v0c0,0.6,0.5,0.9,1.1,0.9C-1730.9,2872.3-1730.2,2871.8-1730.2,2871.1z"/>
		<path class="st2" d="M-1728.1,2868.2h0.7v0.8c0.3-0.5,0.8-0.9,1.5-0.9c1.1,0,1.7,0.7,1.7,1.8v2.8h-0.7v-2.6c0-0.8-0.5-1.4-1.3-1.4
			c-0.8,0-1.4,0.6-1.4,1.4v2.6h-0.7V2868.2z"/>
		<path class="st2" d="M-1722.8,2873.5l0.3-0.5c0.5,0.4,1.1,0.6,1.7,0.6c1,0,1.6-0.6,1.6-1.6v-0.5c-0.4,0.5-0.9,1-1.8,1
			c-1.1,0-2.1-0.8-2.1-2.1v0c0-1.3,1.1-2.1,2.1-2.1c0.8,0,1.4,0.4,1.8,0.9v-0.8h0.7v3.7c0,0.7-0.2,1.2-0.6,1.6
			c-0.4,0.4-1,0.6-1.7,0.6C-1721.5,2874.1-1722.2,2873.9-1722.8,2873.5z M-1719.1,2870.2L-1719.1,2870.2c0-0.9-0.8-1.6-1.7-1.6
			c-0.9,0-1.6,0.6-1.6,1.5v0c0,0.9,0.7,1.5,1.6,1.5C-1719.9,2871.8-1719.1,2871.2-1719.1,2870.2z"/>
		<path class="st2" d="M-1717.2,2870.5L-1717.2,2870.5c0-1.3,0.9-2.4,2.2-2.4c1.3,0,2.1,1.1,2.1,2.4c0,0.1,0,0.1,0,0.2h-3.6
			c0.1,1,0.8,1.5,1.6,1.5c0.6,0,1.1-0.3,1.4-0.6l0.4,0.4c-0.5,0.5-1,0.8-1.9,0.8C-1716.2,2872.8-1717.2,2871.9-1717.2,2870.5z
			 M-1713.6,2870.2c-0.1-0.8-0.5-1.5-1.4-1.5c-0.8,0-1.4,0.7-1.5,1.5H-1713.6z"/>
	</g>
	<g>
		<rect x="-1745.8" y="2912.8" class="st0" width="53.4" height="42.4"/>
		<g class="st1">
			<path class="st2" d="M-1733.6,2934.1v-3.6h0.7v3.5c0,1.3,0.7,2.1,1.9,2.1c1.1,0,1.8-0.7,1.8-2v-3.6h0.7v3.5c0,1.8-1,2.7-2.6,2.7
				C-1732.6,2936.7-1733.6,2935.8-1733.6,2934.1z"/>
			<path class="st2" d="M-1726.9,2930.5h0.6l3.9,4.9v-4.9h0.7v6.1h-0.6l-4-5v5h-0.7V2930.5z"/>
			<path class="st2" d="M-1719.9,2930.5h0.7v6.1h-0.7V2930.5z"/>
			<path class="st2" d="M-1717.7,2933.6L-1717.7,2933.6c0-1.7,1.3-3.2,3.1-3.2s3.1,1.5,3.1,3.2v0c0,1.7-1.3,3.2-3.1,3.2
				S-1717.7,2935.3-1717.7,2933.6z M-1712.1,2933.6L-1712.1,2933.6c0-1.4-1-2.5-2.4-2.5s-2.4,1.1-2.4,2.5v0c0,1.4,1,2.5,2.4,2.5
				S-1712.1,2935-1712.1,2933.6z"/>
			<path class="st2" d="M-1709.9,2930.5h0.6l3.9,4.9v-4.9h0.7v6.1h-0.6l-4-5v5h-0.7V2930.5z"/>
		</g>
		<rect x="-1745.8" y="2958.6" class="st5" width="53.4" height="17.1"/>
		<rect x="-1745.8" y="2979.2" class="st5" width="53.4" height="17.1"/>
		<rect x="-1745.8" y="2999.8" class="st5" width="53.4" height="17.1"/>
		<rect x="-1745.8" y="3020.3" class="st5" width="53.4" height="17.1"/>
		<g class="st1">
			<path class="st2" d="M-1740,2962.8h2.5c1.5,0,2.5,0.8,2.5,2.1v0c0,1.4-1.2,2.2-2.6,2.2h-1.6v2.3h-0.8V2962.8z M-1737.6,2966.4
				c1.1,0,1.8-0.6,1.8-1.5v0c0-1-0.7-1.4-1.8-1.4h-1.7v2.9H-1737.6z"/>
			<path class="st2" d="M-1733.8,2964.5h0.7v1.3c0.4-0.8,1.1-1.4,2-1.4v0.8h-0.1c-1.1,0-1.9,0.8-1.9,2.3v2h-0.7V2964.5z"/>
			<path class="st2" d="M-1730.4,2967L-1730.4,2967c0-1.4,1.1-2.6,2.6-2.6c1.5,0,2.6,1.2,2.6,2.5v0c0,1.4-1.1,2.6-2.6,2.6
				C-1729.4,2969.6-1730.4,2968.4-1730.4,2967z M-1726.1,2967L-1726.1,2967c0-1.1-0.8-1.9-1.8-1.9c-1.1,0-1.8,0.9-1.8,1.9v0
				c0,1.1,0.8,1.9,1.8,1.9C-1726.8,2968.9-1726.1,2968.1-1726.1,2967z"/>
			<path class="st2" d="M-1724.8,2964.5h0.8l1.7,4.1l1.7-4.1h0.8l-2.1,5h-0.6L-1724.8,2964.5z"/>
			<path class="st2" d="M-1718.7,2962.7h0.8v0.8h-0.8V2962.7z M-1718.6,2964.5h0.7v4.9h-0.7V2964.5z"/>
			<path class="st2" d="M-1716.6,2968.8l0.4-0.5c0.5,0.4,1.1,0.6,1.7,0.6c0.6,0,1-0.3,1-0.8v0c0-0.5-0.6-0.7-1.2-0.9
				c-0.8-0.2-1.6-0.5-1.6-1.4v0c0-0.8,0.7-1.4,1.7-1.4c0.6,0,1.3,0.2,1.8,0.5l-0.3,0.6c-0.5-0.3-1-0.5-1.5-0.5c-0.6,0-1,0.3-1,0.7v0
				c0,0.5,0.6,0.6,1.3,0.8c0.8,0.2,1.6,0.5,1.6,1.4v0c0,0.9-0.8,1.5-1.8,1.5C-1715.3,2969.6-1716.1,2969.3-1716.6,2968.8z"/>
			<path class="st2" d="M-1711.5,2962.7h0.8v0.8h-0.8V2962.7z M-1711.4,2964.5h0.7v4.9h-0.7V2964.5z"/>
			<path class="st2" d="M-1709.3,2967L-1709.3,2967c0-1.4,1.1-2.6,2.6-2.6c1.5,0,2.6,1.2,2.6,2.5v0c0,1.4-1.1,2.6-2.6,2.6
				C-1708.2,2969.6-1709.3,2968.4-1709.3,2967z M-1704.9,2967L-1704.9,2967c0-1.1-0.8-1.9-1.8-1.9c-1.1,0-1.8,0.9-1.8,1.9v0
				c0,1.1,0.8,1.9,1.8,1.9C-1705.7,2968.9-1704.9,2968.1-1704.9,2967z"/>
			<path class="st2" d="M-1702.8,2964.5h0.7v0.9c0.3-0.5,0.8-1,1.7-1c1.2,0,1.9,0.8,1.9,2v3.1h-0.7v-2.9c0-0.9-0.5-1.5-1.4-1.5
				c-0.8,0-1.5,0.6-1.5,1.5v2.8h-0.7V2964.5z"/>
		</g>
		<g class="st1">
			<path class="st2" d="M-1735,2983.4h2.3c2.1,0,3.5,1.4,3.5,3.3v0c0,1.9-1.4,3.3-3.5,3.3h-2.3V2983.4z M-1734.3,2984.1v5.3h1.6
				c1.7,0,2.8-1.1,2.8-2.6v0c0-1.5-1.1-2.6-2.8-2.6H-1734.3z"/>
			<path class="st2" d="M-1728,2987.6L-1728,2987.6c0-1.4,1-2.6,2.4-2.6c1.5,0,2.3,1.2,2.3,2.6c0,0.1,0,0.2,0,0.2h-3.9
				c0.1,1.1,0.9,1.7,1.7,1.7c0.7,0,1.2-0.3,1.5-0.7l0.5,0.4c-0.5,0.6-1.1,0.9-2,0.9C-1726.9,2990.2-1728,2989.1-1728,2987.6z
				 M-1724.1,2987.3c-0.1-0.9-0.6-1.7-1.6-1.7c-0.9,0-1.5,0.7-1.6,1.7H-1724.1z"/>
			<path class="st2" d="M-1722.1,2985.1h0.7v1c0.4-0.6,1-1.1,1.9-1.1c1.2,0,2.3,0.9,2.3,2.5v0c0,1.6-1.2,2.6-2.3,2.6
				c-0.9,0-1.5-0.5-1.9-1v2.5h-0.7V2985.1z M-1717.9,2987.6L-1717.9,2987.6c0-1.2-0.8-1.9-1.7-1.9c-0.9,0-1.8,0.8-1.8,1.9v0
				c0,1.1,0.9,1.9,1.8,1.9C-1718.6,2989.5-1717.9,2988.8-1717.9,2987.6z"/>
			<path class="st2" d="M-1715.7,2983.1h0.7v6.9h-0.7V2983.1z"/>
			<path class="st2" d="M-1713.6,2987.6L-1713.6,2987.6c0-1.4,1.1-2.6,2.6-2.6c1.5,0,2.6,1.2,2.6,2.5v0c0,1.4-1.1,2.6-2.6,2.6
				C-1712.5,2990.2-1713.6,2989-1713.6,2987.6z M-1709.2,2987.6L-1709.2,2987.6c0-1.1-0.8-1.9-1.8-1.9c-1.1,0-1.8,0.9-1.8,1.9v0
				c0,1.1,0.8,1.9,1.8,1.9C-1709.9,2989.5-1709.2,2988.6-1709.2,2987.6z"/>
			<path class="st2" d="M-1703.7,2985.1h0.8l-2.1,5.1c-0.4,1-0.9,1.4-1.6,1.4c-0.4,0-0.7-0.1-1-0.2l0.2-0.6c0.2,0.1,0.5,0.2,0.8,0.2
				c0.4,0,0.7-0.2,1-0.9l-2.2-4.9h0.8l1.8,4.1L-1703.7,2985.1z"/>
		</g>
		<g class="st1">
			<path class="st2" d="M-1734.8,3009.6l0.5-0.6c0.7,0.6,1.4,0.9,2.3,0.9c0.9,0,1.5-0.5,1.5-1.1v0c0-0.6-0.3-1-1.7-1.3
				c-1.5-0.3-2.2-0.8-2.2-1.9v0c0-1,0.9-1.8,2.2-1.8c1,0,1.7,0.3,2.3,0.8l-0.4,0.6c-0.6-0.5-1.2-0.7-1.9-0.7c-0.9,0-1.4,0.5-1.4,1.1
				v0c0,0.6,0.3,1,1.8,1.3c1.5,0.3,2.2,0.9,2.2,1.9v0c0,1.1-1,1.9-2.3,1.9C-1733.1,3010.7-1734,3010.4-1734.8,3009.6z"/>
			<path class="st2" d="M-1728.4,3005.7h0.7v0.8c0.3-0.5,0.8-0.9,1.6-0.9c0.8,0,1.3,0.4,1.6,1c0.4-0.5,0.9-1,1.7-1
				c1.1,0,1.8,0.8,1.8,2v3h-0.7v-2.9c0-1-0.5-1.5-1.3-1.5c-0.7,0-1.3,0.6-1.3,1.5v2.8h-0.7v-2.9c0-0.9-0.5-1.5-1.3-1.5
				s-1.4,0.6-1.4,1.5v2.8h-0.7V3005.7z"/>
			<path class="st2" d="M-1719.6,3008.2L-1719.6,3008.2c0-1.4,1.1-2.6,2.6-2.6c1.5,0,2.6,1.2,2.6,2.5v0c0,1.4-1.1,2.6-2.6,2.6
				C-1718.6,3010.7-1719.6,3009.6-1719.6,3008.2z M-1715.3,3008.2L-1715.3,3008.2c0-1.1-0.8-1.9-1.8-1.9c-1.1,0-1.8,0.9-1.8,1.9v0
				c0,1.1,0.8,1.9,1.8,1.9C-1716,3010.1-1715.3,3009.2-1715.3,3008.2z"/>
			<path class="st2" d="M-1713.2,3003.7h0.7v4.8l2.7-2.8h0.9l-2.1,2.1l2.1,2.8h-0.9l-1.8-2.3l-1,1v1.3h-0.7V3003.7z"/>
			<path class="st2" d="M-1708.3,3008.2L-1708.3,3008.2c0-1.4,1-2.6,2.4-2.6c1.5,0,2.3,1.2,2.3,2.6c0,0.1,0,0.2,0,0.2h-3.9
				c0.1,1.1,0.9,1.7,1.7,1.7c0.7,0,1.2-0.3,1.5-0.7l0.5,0.4c-0.5,0.6-1.1,0.9-2,0.9C-1707.2,3010.7-1708.3,3009.7-1708.3,3008.2z
				 M-1704.4,3007.9c-0.1-0.9-0.6-1.7-1.6-1.7c-0.9,0-1.5,0.7-1.6,1.7H-1704.4z"/>
		</g>
		<g class="st1">
			<path class="st2" d="M-1743,3024.5h4.8v0.7h-4v2.4h3.6v0.7h-3.6v2.9h-0.8V3024.5z"/>
			<path class="st2" d="M-1737,3029.3v-3.1h0.7v2.9c0,0.9,0.5,1.5,1.4,1.5c0.8,0,1.5-0.6,1.5-1.5v-2.8h0.7v4.9h-0.7v-0.9
				c-0.3,0.5-0.8,1-1.7,1C-1736.3,3031.3-1737,3030.5-1737,3029.3z"/>
			<path class="st2" d="M-1731.1,3026.3h0.7v0.9c0.3-0.5,0.8-1,1.7-1c1.2,0,1.9,0.8,1.9,2v3.1h-0.7v-2.9c0-0.9-0.5-1.5-1.4-1.5
				c-0.8,0-1.5,0.6-1.5,1.5v2.8h-0.7V3026.3z"/>
			<path class="st2" d="M-1725.5,3028.8L-1725.5,3028.8c0-1.4,1.1-2.6,2.5-2.6c0.9,0,1.5,0.4,2,0.9l-0.5,0.5
				c-0.4-0.4-0.8-0.7-1.5-0.7c-1,0-1.8,0.8-1.8,1.9v0c0,1.1,0.8,1.9,1.8,1.9c0.6,0,1.1-0.3,1.5-0.7l0.5,0.4c-0.5,0.6-1.1,1-2,1
				C-1724.4,3031.3-1725.5,3030.1-1725.5,3028.8z"/>
			<path class="st2" d="M-1719.5,3029.9v-3h-0.7v-0.6h0.7v-1.5h0.7v1.5h1.6v0.6h-1.6v2.9c0,0.6,0.3,0.8,0.8,0.8c0.2,0,0.5,0,0.7-0.2
				v0.6c-0.3,0.1-0.5,0.2-0.9,0.2C-1718.9,3031.3-1719.5,3030.9-1719.5,3029.9z"/>
			<path class="st2" d="M-1715.9,3024.4h0.8v0.8h-0.8V3024.4z M-1715.9,3026.3h0.7v4.9h-0.7V3026.3z"/>
			<path class="st2" d="M-1713.8,3028.8L-1713.8,3028.8c0-1.4,1.1-2.6,2.6-2.6c1.5,0,2.6,1.2,2.6,2.5v0c0,1.4-1.1,2.6-2.6,2.6
				C-1712.7,3031.3-1713.8,3030.1-1713.8,3028.8z M-1709.4,3028.8L-1709.4,3028.8c0-1.1-0.8-1.9-1.8-1.9c-1.1,0-1.8,0.9-1.8,1.9v0
				c0,1.1,0.8,1.9,1.8,1.9C-1710.1,3030.6-1709.4,3029.8-1709.4,3028.8z"/>
			<path class="st2" d="M-1707.3,3026.3h0.7v0.9c0.3-0.5,0.8-1,1.7-1c1.2,0,1.9,0.8,1.9,2v3.1h-0.7v-2.9c0-0.9-0.5-1.5-1.4-1.5
				c-0.8,0-1.5,0.6-1.5,1.5v2.8h-0.7V3026.3z"/>
			<path class="st2" d="M-1701.8,3029.8L-1701.8,3029.8c0-1.1,0.9-1.6,2.1-1.6c0.6,0,1.1,0.1,1.5,0.2v-0.2c0-0.9-0.5-1.3-1.5-1.3
				c-0.6,0-1,0.2-1.5,0.4l-0.2-0.6c0.5-0.2,1.1-0.4,1.8-0.4c0.7,0,1.2,0.2,1.6,0.5c0.3,0.3,0.5,0.8,0.5,1.4v3h-0.7v-0.7
				c-0.3,0.4-0.9,0.8-1.8,0.8C-1700.9,3031.3-1701.8,3030.8-1701.8,3029.8z M-1698.2,3029.4v-0.5c-0.4-0.1-0.8-0.2-1.4-0.2
				c-0.9,0-1.4,0.4-1.4,1v0c0,0.6,0.6,1,1.2,1C-1699,3030.7-1698.2,3030.2-1698.2,3029.4z"/>
			<path class="st2" d="M-1695.9,3024.3h0.7v6.9h-0.7V3024.3z"/>
		</g>
	</g>
	<g>
		<rect x="-1685.3" y="2912.8" class="st0" width="77.1" height="42.4"/>
		<g class="st1">
			<path class="st2" d="M-1673.8,2930.5h2.6c0.8,0,1.4,0.2,1.7,0.6c0.3,0.3,0.5,0.7,0.5,1.2v0c0,1-0.7,1.6-1.7,1.8l1.9,2.5h-0.8
				l-1.8-2.4h-1.8v2.4h-0.7V2930.5z M-1671.3,2933.6c0.9,0,1.6-0.5,1.6-1.3v0c0-0.8-0.6-1.2-1.6-1.2h-1.9v2.5H-1671.3z"/>
			<path class="st2" d="M-1667.5,2930.5h4.4v0.6h-3.7v2.1h3.3v0.6h-3.3v2.1h3.8v0.6h-4.5V2930.5z"/>
			<path class="st2" d="M-1661.7,2930.5h0.7v2.7h3.5v-2.7h0.7v6.1h-0.7v-2.8h-3.5v2.8h-0.7V2930.5z"/>
			<path class="st2" d="M-1655,2930.5h4.4v0.6h-3.7v2.1h3.3v0.6h-3.3v2.1h3.8v0.6h-4.5V2930.5z"/>
			<path class="st2" d="M-1646.9,2930.5h0.6l2.8,6.2h-0.7l-0.7-1.6h-3.3l-0.7,1.6h-0.7L-1646.9,2930.5z M-1645.2,2934.4l-1.4-3.1
				l-1.4,3.1H-1645.2z"/>
			<path class="st2" d="M-1642.2,2930.5h2.6c0.8,0,1.4,0.2,1.7,0.6c0.3,0.3,0.5,0.7,0.5,1.2v0c0,1-0.7,1.6-1.7,1.8l1.9,2.5h-0.8
				l-1.8-2.4h-1.8v2.4h-0.7V2930.5z M-1639.6,2933.6c0.9,0,1.6-0.5,1.6-1.3v0c0-0.8-0.6-1.2-1.6-1.2h-1.9v2.5H-1639.6z"/>
			<path class="st2" d="M-1636.3,2935.7l0.4-0.5c0.6,0.6,1.3,0.9,2.1,0.9c0.8,0,1.4-0.4,1.4-1v0c0-0.6-0.3-0.9-1.6-1.2
				c-1.4-0.3-2.1-0.8-2.1-1.8v0c0-1,0.8-1.7,2-1.7c0.9,0,1.5,0.3,2.2,0.8l-0.4,0.5c-0.6-0.5-1.1-0.7-1.8-0.7c-0.8,0-1.3,0.4-1.3,1v0
				c0,0.6,0.3,0.9,1.7,1.2c1.4,0.3,2,0.8,2,1.7v0c0,1.1-0.9,1.7-2.1,1.7C-1634.8,2936.7-1635.6,2936.4-1636.3,2935.7z"/>
			<path class="st2" d="M-1628.1,2930.5h0.6l2.8,6.2h-0.7l-0.7-1.6h-3.3l-0.7,1.6h-0.7L-1628.1,2930.5z M-1626.4,2934.4l-1.4-3.1
				l-1.4,3.1H-1626.4z"/>
			<path class="st2" d="M-1623.5,2930.5h0.7v5.5h3.5v0.6h-4.1V2930.5z"/>
		</g>
		<rect x="-1685.3" y="2958.6" class="st5" width="77.1" height="17.1"/>
		<rect x="-1685.3" y="2979.2" class="st5" width="77.1" height="17.1"/>
		<rect x="-1685.3" y="2999.8" class="st5" width="77.1" height="17.1"/>
		<rect x="-1685.3" y="3020.3" class="st5" width="77.1" height="17.1"/>
		<g class="st1">
			<path class="st2" d="M-1667.6,2962.8h2.5c1.5,0,2.5,0.8,2.5,2.1v0c0,1.4-1.2,2.2-2.6,2.2h-1.6v2.3h-0.8V2962.8z M-1665.3,2966.4
				c1.1,0,1.8-0.6,1.8-1.5v0c0-1-0.7-1.4-1.8-1.4h-1.7v2.9H-1665.3z"/>
			<path class="st2" d="M-1661.4,2964.5h0.7v1.3c0.4-0.8,1.1-1.4,2-1.4v0.8h-0.1c-1.1,0-1.9,0.8-1.9,2.3v2h-0.7V2964.5z"/>
			<path class="st2" d="M-1658.1,2967L-1658.1,2967c0-1.4,1.1-2.6,2.6-2.6c1.5,0,2.6,1.2,2.6,2.5v0c0,1.4-1.1,2.6-2.6,2.6
				C-1657,2969.6-1658.1,2968.4-1658.1,2967z M-1653.7,2967L-1653.7,2967c0-1.1-0.8-1.9-1.8-1.9c-1.1,0-1.8,0.9-1.8,1.9v0
				c0,1.1,0.8,1.9,1.8,1.9C-1654.5,2968.9-1653.7,2968.1-1653.7,2967z"/>
			<path class="st2" d="M-1652.4,2964.5h0.8l1.7,4.1l1.7-4.1h0.8l-2.1,5h-0.6L-1652.4,2964.5z"/>
			<path class="st2" d="M-1646.3,2962.7h0.8v0.8h-0.8V2962.7z M-1646.3,2964.5h0.7v4.9h-0.7V2964.5z"/>
			<path class="st2" d="M-1644.3,2968.8l0.4-0.5c0.5,0.4,1.1,0.6,1.7,0.6c0.6,0,1-0.3,1-0.8v0c0-0.5-0.6-0.7-1.2-0.9
				c-0.8-0.2-1.6-0.5-1.6-1.4v0c0-0.8,0.7-1.4,1.7-1.4c0.6,0,1.3,0.2,1.8,0.5l-0.3,0.6c-0.5-0.3-1-0.5-1.5-0.5c-0.6,0-1,0.3-1,0.7v0
				c0,0.5,0.6,0.6,1.3,0.8c0.8,0.2,1.6,0.5,1.6,1.4v0c0,0.9-0.8,1.5-1.7,1.5C-1642.9,2969.6-1643.7,2969.3-1644.3,2968.8z"/>
			<path class="st2" d="M-1639.1,2962.7h0.8v0.8h-0.8V2962.7z M-1639,2964.5h0.7v4.9h-0.7V2964.5z"/>
			<path class="st2" d="M-1636.9,2967L-1636.9,2967c0-1.4,1.1-2.6,2.6-2.6c1.5,0,2.6,1.2,2.6,2.5v0c0,1.4-1.1,2.6-2.6,2.6
				C-1635.8,2969.6-1636.9,2968.4-1636.9,2967z M-1632.5,2967L-1632.5,2967c0-1.1-0.8-1.9-1.8-1.9c-1.1,0-1.8,0.9-1.8,1.9v0
				c0,1.1,0.8,1.9,1.8,1.9C-1633.3,2968.9-1632.5,2968.1-1632.5,2967z"/>
			<path class="st2" d="M-1630.5,2964.5h0.7v0.9c0.3-0.5,0.8-1,1.7-1c1.2,0,1.9,0.8,1.9,2v3.1h-0.7v-2.9c0-0.9-0.5-1.5-1.4-1.5
				c-0.8,0-1.5,0.6-1.5,1.5v2.8h-0.7V2964.5z"/>
		</g>
		<g class="st1">
			<path class="st2" d="M-1662.6,2983.4h2.3c2.1,0,3.5,1.4,3.5,3.3v0c0,1.9-1.4,3.3-3.5,3.3h-2.3V2983.4z M-1661.9,2984.1v5.3h1.6
				c1.7,0,2.8-1.1,2.8-2.6v0c0-1.5-1.1-2.6-2.8-2.6H-1661.9z"/>
			<path class="st2" d="M-1655.6,2987.6L-1655.6,2987.6c0-1.4,1-2.6,2.4-2.6c1.5,0,2.3,1.2,2.3,2.6c0,0.1,0,0.2,0,0.2h-3.9
				c0.1,1.1,0.9,1.7,1.7,1.7c0.7,0,1.2-0.3,1.5-0.7l0.5,0.4c-0.5,0.6-1.1,0.9-2,0.9C-1654.5,2990.2-1655.6,2989.1-1655.6,2987.6z
				 M-1651.7,2987.3c-0.1-0.9-0.6-1.7-1.6-1.7c-0.9,0-1.5,0.7-1.6,1.7H-1651.7z"/>
			<path class="st2" d="M-1649.7,2985.1h0.7v1c0.4-0.6,1-1.1,1.9-1.1c1.2,0,2.3,0.9,2.3,2.5v0c0,1.6-1.2,2.6-2.3,2.6
				c-0.9,0-1.5-0.5-1.9-1v2.5h-0.7V2985.1z M-1645.5,2987.6L-1645.5,2987.6c0-1.2-0.8-1.9-1.7-1.9c-0.9,0-1.8,0.8-1.8,1.9v0
				c0,1.1,0.9,1.9,1.8,1.9C-1646.3,2989.5-1645.5,2988.8-1645.5,2987.6z"/>
			<path class="st2" d="M-1643.3,2983.1h0.7v6.9h-0.7V2983.1z"/>
			<path class="st2" d="M-1641.2,2987.6L-1641.2,2987.6c0-1.4,1.1-2.6,2.6-2.6c1.5,0,2.6,1.2,2.6,2.5v0c0,1.4-1.1,2.6-2.6,2.6
				C-1640.1,2990.2-1641.2,2989-1641.2,2987.6z M-1636.8,2987.6L-1636.8,2987.6c0-1.1-0.8-1.9-1.8-1.9c-1.1,0-1.8,0.9-1.8,1.9v0
				c0,1.1,0.8,1.9,1.8,1.9C-1637.6,2989.5-1636.8,2988.6-1636.8,2987.6z"/>
			<path class="st2" d="M-1631.4,2985.1h0.8l-2.1,5.1c-0.4,1-0.9,1.4-1.6,1.4c-0.4,0-0.7-0.1-1-0.2l0.2-0.6c0.2,0.1,0.5,0.2,0.8,0.2
				c0.4,0,0.7-0.2,1-0.9l-2.2-4.9h0.8l1.8,4.1L-1631.4,2985.1z"/>
		</g>
		<g class="st1">
			<path class="st2" d="M-1662.4,3009.6l0.5-0.6c0.7,0.6,1.4,0.9,2.3,0.9c0.9,0,1.5-0.5,1.5-1.1v0c0-0.6-0.3-1-1.7-1.3
				c-1.5-0.3-2.2-0.8-2.2-1.9v0c0-1,0.9-1.8,2.2-1.8c1,0,1.7,0.3,2.3,0.8l-0.4,0.6c-0.6-0.5-1.2-0.7-1.9-0.7c-0.9,0-1.4,0.5-1.4,1.1
				v0c0,0.6,0.3,1,1.8,1.3c1.5,0.3,2.2,0.9,2.2,1.9v0c0,1.1-1,1.9-2.3,1.9C-1660.7,3010.7-1661.6,3010.4-1662.4,3009.6z"/>
			<path class="st2" d="M-1656,3005.7h0.7v0.8c0.3-0.5,0.8-0.9,1.6-0.9c0.8,0,1.3,0.4,1.6,1c0.4-0.5,0.9-1,1.7-1
				c1.1,0,1.8,0.8,1.8,2v3h-0.7v-2.9c0-1-0.5-1.5-1.3-1.5c-0.7,0-1.4,0.6-1.4,1.5v2.8h-0.7v-2.9c0-0.9-0.5-1.5-1.3-1.5
				s-1.4,0.6-1.4,1.5v2.8h-0.7V3005.7z"/>
			<path class="st2" d="M-1647.3,3008.2L-1647.3,3008.2c0-1.4,1.1-2.6,2.6-2.6c1.5,0,2.6,1.2,2.6,2.5v0c0,1.4-1.1,2.6-2.6,2.6
				C-1646.2,3010.7-1647.3,3009.6-1647.3,3008.2z M-1642.9,3008.2L-1642.9,3008.2c0-1.1-0.8-1.9-1.8-1.9c-1.1,0-1.8,0.9-1.8,1.9v0
				c0,1.1,0.8,1.9,1.8,1.9C-1643.6,3010.1-1642.9,3009.2-1642.9,3008.2z"/>
			<path class="st2" d="M-1640.8,3003.7h0.7v4.8l2.7-2.8h0.9l-2.1,2.1l2.1,2.8h-0.9l-1.8-2.3l-1,1v1.3h-0.7V3003.7z"/>
			<path class="st2" d="M-1636,3008.2L-1636,3008.2c0-1.4,1-2.6,2.4-2.6c1.5,0,2.3,1.2,2.3,2.6c0,0.1,0,0.2,0,0.2h-3.9
				c0.1,1.1,0.9,1.7,1.7,1.7c0.7,0,1.2-0.3,1.5-0.7l0.5,0.4c-0.5,0.6-1.1,0.9-2,0.9C-1634.9,3010.7-1636,3009.7-1636,3008.2z
				 M-1632.1,3007.9c-0.1-0.9-0.6-1.7-1.6-1.7c-0.9,0-1.5,0.7-1.6,1.7H-1632.1z"/>
		</g>
		<g class="st1">
			<path class="st2" d="M-1670.7,3024.5h4.8v0.7h-4v2.4h3.6v0.7h-3.6v2.9h-0.8V3024.5z"/>
			<path class="st2" d="M-1664.6,3029.3v-3.1h0.7v2.9c0,0.9,0.5,1.5,1.4,1.5c0.8,0,1.5-0.6,1.5-1.5v-2.8h0.7v4.9h-0.7v-0.9
				c-0.3,0.5-0.8,1-1.7,1C-1663.9,3031.3-1664.6,3030.5-1664.6,3029.3z"/>
			<path class="st2" d="M-1658.7,3026.3h0.7v0.9c0.3-0.5,0.8-1,1.7-1c1.2,0,1.9,0.8,1.9,2v3.1h-0.7v-2.9c0-0.9-0.5-1.5-1.4-1.5
				c-0.8,0-1.5,0.6-1.5,1.5v2.8h-0.7V3026.3z"/>
			<path class="st2" d="M-1653.2,3028.8L-1653.2,3028.8c0-1.4,1.1-2.6,2.5-2.6c0.9,0,1.5,0.4,2,0.9l-0.5,0.5
				c-0.4-0.4-0.8-0.7-1.5-0.7c-1,0-1.8,0.8-1.8,1.9v0c0,1.1,0.8,1.9,1.8,1.9c0.6,0,1.1-0.3,1.5-0.7l0.5,0.4c-0.5,0.6-1.1,1-2,1
				C-1652.1,3031.3-1653.2,3030.1-1653.2,3028.8z"/>
			<path class="st2" d="M-1647.2,3029.9v-3h-0.7v-0.6h0.7v-1.5h0.7v1.5h1.6v0.6h-1.6v2.9c0,0.6,0.3,0.8,0.8,0.8c0.2,0,0.5,0,0.7-0.2
				v0.6c-0.3,0.1-0.5,0.2-0.9,0.2C-1646.6,3031.3-1647.2,3030.9-1647.2,3029.9z"/>
			<path class="st2" d="M-1643.6,3024.4h0.8v0.8h-0.8V3024.4z M-1643.5,3026.3h0.7v4.9h-0.7V3026.3z"/>
			<path class="st2" d="M-1641.4,3028.8L-1641.4,3028.8c0-1.4,1.1-2.6,2.6-2.6c1.5,0,2.6,1.2,2.6,2.5v0c0,1.4-1.1,2.6-2.6,2.6
				C-1640.3,3031.3-1641.4,3030.1-1641.4,3028.8z M-1637,3028.8L-1637,3028.8c0-1.1-0.8-1.9-1.8-1.9c-1.1,0-1.8,0.9-1.8,1.9v0
				c0,1.1,0.8,1.9,1.8,1.9C-1637.8,3030.6-1637,3029.8-1637,3028.8z"/>
			<path class="st2" d="M-1635,3026.3h0.7v0.9c0.3-0.5,0.8-1,1.7-1c1.2,0,1.9,0.8,1.9,2v3.1h-0.7v-2.9c0-0.9-0.5-1.5-1.4-1.5
				c-0.8,0-1.5,0.6-1.5,1.5v2.8h-0.7V3026.3z"/>
			<path class="st2" d="M-1629.5,3029.8L-1629.5,3029.8c0-1.1,0.9-1.6,2.1-1.6c0.6,0,1.1,0.1,1.5,0.2v-0.2c0-0.9-0.5-1.3-1.5-1.3
				c-0.6,0-1,0.2-1.5,0.4l-0.2-0.6c0.5-0.2,1.1-0.4,1.8-0.4c0.7,0,1.2,0.2,1.6,0.5c0.3,0.3,0.5,0.8,0.5,1.4v3h-0.7v-0.7
				c-0.3,0.4-0.9,0.8-1.8,0.8C-1628.5,3031.3-1629.5,3030.8-1629.5,3029.8z M-1625.8,3029.4v-0.5c-0.4-0.1-0.8-0.2-1.4-0.2
				c-0.9,0-1.4,0.4-1.4,1v0c0,0.6,0.6,1,1.2,1C-1626.6,3030.7-1625.8,3030.2-1625.8,3029.4z"/>
			<path class="st2" d="M-1623.5,3024.3h0.7v6.9h-0.7V3024.3z"/>
		</g>
	</g>
	<g>
		<rect x="-1601.1" y="2912.8" class="st0" width="77.1" height="42.4"/>
		<g class="st1">
			<path class="st2" d="M-1587.8,2930.5h2.1c1.9,0,3.3,1.3,3.3,3v0c0,1.7-1.3,3.1-3.3,3.1h-2.1V2930.5z M-1587.1,2931.1v4.9h1.4
				c1.5,0,2.5-1.1,2.5-2.4v0c0-1.4-1-2.4-2.5-2.4H-1587.1z"/>
			<path class="st2" d="M-1580.9,2930.5h4.4v0.6h-3.7v2.1h3.3v0.6h-3.3v2.1h3.8v0.6h-4.5V2930.5z"/>
			<path class="st2" d="M-1575,2930.5h0.7v5.5h3.5v0.6h-4.1V2930.5z"/>
			<path class="st2" d="M-1569.6,2930.5h0.7v6.1h-0.7V2930.5z"/>
			<path class="st2" d="M-1567.6,2930.5h0.8l2.2,5.3l2.2-5.3h0.7l-2.6,6.2h-0.6L-1567.6,2930.5z"/>
			<path class="st2" d="M-1560.5,2930.5h4.4v0.6h-3.7v2.1h3.3v0.6h-3.3v2.1h3.8v0.6h-4.5V2930.5z"/>
			<path class="st2" d="M-1554.6,2930.5h2.6c0.8,0,1.4,0.2,1.7,0.6c0.3,0.3,0.5,0.7,0.5,1.2v0c0,1-0.7,1.6-1.7,1.8l1.9,2.5h-0.8
				l-1.8-2.4h-1.8v2.4h-0.7V2930.5z M-1552.1,2933.6c0.9,0,1.6-0.5,1.6-1.3v0c0-0.8-0.6-1.2-1.6-1.2h-1.9v2.5H-1552.1z"/>
			<path class="st2" d="M-1548.3,2930.5h4.4v0.6h-3.7v2.1h3.3v0.6h-3.3v2.1h3.8v0.6h-4.5V2930.5z"/>
			<path class="st2" d="M-1542.4,2930.5h2.1c1.9,0,3.3,1.3,3.3,3v0c0,1.7-1.3,3.1-3.3,3.1h-2.1V2930.5z M-1541.8,2931.1v4.9h1.4
				c1.5,0,2.5-1.1,2.5-2.4v0c0-1.4-1-2.4-2.5-2.4H-1541.8z"/>
		</g>
		<rect x="-1601.1" y="2958.6" class="st5" width="77.1" height="17.1"/>
		<rect x="-1601.1" y="2979.2" class="st5" width="77.1" height="17.1"/>
		<rect x="-1601.1" y="2999.8" class="st5" width="77.1" height="17.1"/>
		<rect x="-1601.1" y="3020.3" class="st5" width="77.1" height="17.1"/>
		<g class="st1">
			<path class="st2" d="M-1583.4,2962.8h2.5c1.5,0,2.5,0.8,2.5,2.1v0c0,1.4-1.2,2.2-2.6,2.2h-1.6v2.3h-0.8V2962.8z M-1581,2966.4
				c1.1,0,1.8-0.6,1.8-1.5v0c0-1-0.7-1.4-1.8-1.4h-1.7v2.9H-1581z"/>
			<path class="st2" d="M-1577.2,2964.5h0.7v1.3c0.4-0.8,1.1-1.4,2-1.4v0.8h-0.1c-1.1,0-1.9,0.8-1.9,2.3v2h-0.7V2964.5z"/>
			<path class="st2" d="M-1573.9,2967L-1573.9,2967c0-1.4,1.1-2.6,2.6-2.6c1.5,0,2.6,1.2,2.6,2.5v0c0,1.4-1.1,2.6-2.6,2.6
				C-1572.8,2969.6-1573.9,2968.4-1573.9,2967z M-1569.5,2967L-1569.5,2967c0-1.1-0.8-1.9-1.8-1.9c-1.1,0-1.8,0.9-1.8,1.9v0
				c0,1.1,0.8,1.9,1.8,1.9C-1570.2,2968.9-1569.5,2968.1-1569.5,2967z"/>
			<path class="st2" d="M-1568.2,2964.5h0.8l1.7,4.1l1.7-4.1h0.8l-2.1,5h-0.6L-1568.2,2964.5z"/>
			<path class="st2" d="M-1562.1,2962.7h0.8v0.8h-0.8V2962.7z M-1562.1,2964.5h0.7v4.9h-0.7V2964.5z"/>
			<path class="st2" d="M-1560,2968.8l0.4-0.5c0.5,0.4,1.1,0.6,1.7,0.6c0.6,0,1-0.3,1-0.8v0c0-0.5-0.6-0.7-1.2-0.9
				c-0.8-0.2-1.6-0.5-1.6-1.4v0c0-0.8,0.7-1.4,1.7-1.4c0.6,0,1.3,0.2,1.8,0.5l-0.3,0.6c-0.5-0.3-1-0.5-1.5-0.5c-0.6,0-1,0.3-1,0.7v0
				c0,0.5,0.6,0.6,1.3,0.8c0.8,0.2,1.6,0.5,1.6,1.4v0c0,0.9-0.8,1.5-1.8,1.5C-1558.7,2969.6-1559.5,2969.3-1560,2968.8z"/>
			<path class="st2" d="M-1554.9,2962.7h0.8v0.8h-0.8V2962.7z M-1554.8,2964.5h0.7v4.9h-0.7V2964.5z"/>
			<path class="st2" d="M-1552.7,2967L-1552.7,2967c0-1.4,1.1-2.6,2.6-2.6c1.5,0,2.6,1.2,2.6,2.5v0c0,1.4-1.1,2.6-2.6,2.6
				C-1551.6,2969.6-1552.7,2968.4-1552.7,2967z M-1548.3,2967L-1548.3,2967c0-1.1-0.8-1.9-1.8-1.9c-1.1,0-1.8,0.9-1.8,1.9v0
				c0,1.1,0.8,1.9,1.8,1.9C-1549.1,2968.9-1548.3,2968.1-1548.3,2967z"/>
			<path class="st2" d="M-1546.2,2964.5h0.7v0.9c0.3-0.5,0.8-1,1.7-1c1.2,0,1.9,0.8,1.9,2v3.1h-0.7v-2.9c0-0.9-0.5-1.5-1.4-1.5
				c-0.8,0-1.5,0.6-1.5,1.5v2.8h-0.7V2964.5z"/>
		</g>
		<g class="st1">
			<path class="st2" d="M-1578.4,2983.4h2.3c2.1,0,3.5,1.4,3.5,3.3v0c0,1.9-1.4,3.3-3.5,3.3h-2.3V2983.4z M-1577.7,2984.1v5.3h1.6
				c1.7,0,2.8-1.1,2.8-2.6v0c0-1.5-1.1-2.6-2.8-2.6H-1577.7z"/>
			<path class="st2" d="M-1571.4,2987.6L-1571.4,2987.6c0-1.4,1-2.6,2.4-2.6c1.5,0,2.3,1.2,2.3,2.6c0,0.1,0,0.2,0,0.2h-3.9
				c0.1,1.1,0.9,1.7,1.7,1.7c0.7,0,1.2-0.3,1.5-0.7l0.5,0.4c-0.5,0.6-1.1,0.9-2,0.9C-1570.3,2990.2-1571.4,2989.1-1571.4,2987.6z
				 M-1567.5,2987.3c-0.1-0.9-0.6-1.7-1.6-1.7c-0.9,0-1.5,0.7-1.6,1.7H-1567.5z"/>
			<path class="st2" d="M-1565.5,2985.1h0.7v1c0.4-0.6,1-1.1,1.9-1.1c1.2,0,2.3,0.9,2.3,2.5v0c0,1.6-1.2,2.6-2.3,2.6
				c-0.9,0-1.5-0.5-1.9-1v2.5h-0.7V2985.1z M-1561.3,2987.6L-1561.3,2987.6c0-1.2-0.8-1.9-1.7-1.9c-0.9,0-1.8,0.8-1.8,1.9v0
				c0,1.1,0.9,1.9,1.8,1.9C-1562,2989.5-1561.3,2988.8-1561.3,2987.6z"/>
			<path class="st2" d="M-1559.1,2983.1h0.7v6.9h-0.7V2983.1z"/>
			<path class="st2" d="M-1557,2987.6L-1557,2987.6c0-1.4,1.1-2.6,2.6-2.6c1.5,0,2.6,1.2,2.6,2.5v0c0,1.4-1.1,2.6-2.6,2.6
				C-1555.9,2990.2-1557,2989-1557,2987.6z M-1552.6,2987.6L-1552.6,2987.6c0-1.1-0.8-1.9-1.8-1.9c-1.1,0-1.8,0.9-1.8,1.9v0
				c0,1.1,0.8,1.9,1.8,1.9C-1553.3,2989.5-1552.6,2988.6-1552.6,2987.6z"/>
			<path class="st2" d="M-1547.1,2985.1h0.8l-2.1,5.1c-0.4,1-0.9,1.4-1.6,1.4c-0.4,0-0.7-0.1-1-0.2l0.2-0.6c0.2,0.1,0.5,0.2,0.8,0.2
				c0.4,0,0.7-0.2,1-0.9l-2.2-4.9h0.8l1.8,4.1L-1547.1,2985.1z"/>
		</g>
		<g class="st1">
			<path class="st2" d="M-1578.2,3009.6l0.5-0.6c0.7,0.6,1.4,0.9,2.3,0.9c0.9,0,1.5-0.5,1.5-1.1v0c0-0.6-0.3-1-1.7-1.3
				c-1.5-0.3-2.2-0.8-2.2-1.9v0c0-1,0.9-1.8,2.2-1.8c1,0,1.7,0.3,2.3,0.8l-0.4,0.6c-0.6-0.5-1.2-0.7-1.9-0.7c-0.9,0-1.4,0.5-1.4,1.1
				v0c0,0.6,0.3,1,1.8,1.3c1.5,0.3,2.2,0.9,2.2,1.9v0c0,1.1-1,1.9-2.3,1.9C-1576.5,3010.7-1577.4,3010.4-1578.2,3009.6z"/>
			<path class="st2" d="M-1571.8,3005.7h0.7v0.8c0.3-0.5,0.8-0.9,1.6-0.9c0.8,0,1.3,0.4,1.6,1c0.4-0.5,0.9-1,1.7-1
				c1.1,0,1.8,0.8,1.8,2v3h-0.7v-2.9c0-1-0.5-1.5-1.3-1.5c-0.7,0-1.3,0.6-1.3,1.5v2.8h-0.7v-2.9c0-0.9-0.5-1.5-1.3-1.5
				c-0.8,0-1.4,0.6-1.4,1.5v2.8h-0.7V3005.7z"/>
			<path class="st2" d="M-1563.1,3008.2L-1563.1,3008.2c0-1.4,1.1-2.6,2.6-2.6c1.5,0,2.6,1.2,2.6,2.5v0c0,1.4-1.1,2.6-2.6,2.6
				C-1562,3010.7-1563.1,3009.6-1563.1,3008.2z M-1558.7,3008.2L-1558.7,3008.2c0-1.1-0.8-1.9-1.8-1.9c-1.1,0-1.8,0.9-1.8,1.9v0
				c0,1.1,0.8,1.9,1.8,1.9C-1559.4,3010.1-1558.7,3009.2-1558.7,3008.2z"/>
			<path class="st2" d="M-1556.6,3003.7h0.7v4.8l2.7-2.8h0.9l-2.1,2.1l2.1,2.8h-0.9l-1.8-2.3l-1,1v1.3h-0.7V3003.7z"/>
			<path class="st2" d="M-1551.7,3008.2L-1551.7,3008.2c0-1.4,1-2.6,2.4-2.6c1.5,0,2.3,1.2,2.3,2.6c0,0.1,0,0.2,0,0.2h-3.9
				c0.1,1.1,0.9,1.7,1.7,1.7c0.7,0,1.2-0.3,1.5-0.7l0.5,0.4c-0.5,0.6-1.1,0.9-2,0.9C-1550.6,3010.7-1551.7,3009.7-1551.7,3008.2z
				 M-1547.8,3007.9c-0.1-0.9-0.6-1.7-1.6-1.7c-0.9,0-1.5,0.7-1.6,1.7H-1547.8z"/>
		</g>
		<g class="st1">
			<path class="st2" d="M-1586.5,3024.5h4.8v0.7h-4v2.4h3.6v0.7h-3.6v2.9h-0.8V3024.5z"/>
			<path class="st2" d="M-1580.4,3029.3v-3.1h0.7v2.9c0,0.9,0.5,1.5,1.4,1.5c0.8,0,1.5-0.6,1.5-1.5v-2.8h0.7v4.9h-0.7v-0.9
				c-0.3,0.5-0.8,1-1.7,1C-1579.7,3031.3-1580.4,3030.5-1580.4,3029.3z"/>
			<path class="st2" d="M-1574.5,3026.3h0.7v0.9c0.3-0.5,0.8-1,1.7-1c1.2,0,1.9,0.8,1.9,2v3.1h-0.7v-2.9c0-0.9-0.5-1.5-1.4-1.5
				c-0.8,0-1.5,0.6-1.5,1.5v2.8h-0.7V3026.3z"/>
			<path class="st2" d="M-1568.9,3028.8L-1568.9,3028.8c0-1.4,1.1-2.6,2.5-2.6c0.9,0,1.5,0.4,2,0.9l-0.5,0.5
				c-0.4-0.4-0.8-0.7-1.5-0.7c-1,0-1.8,0.8-1.8,1.9v0c0,1.1,0.8,1.9,1.8,1.9c0.6,0,1.1-0.3,1.5-0.7l0.5,0.4c-0.5,0.6-1.1,1-2,1
				C-1567.9,3031.3-1568.9,3030.1-1568.9,3028.8z"/>
			<path class="st2" d="M-1562.9,3029.9v-3h-0.7v-0.6h0.7v-1.5h0.7v1.5h1.6v0.6h-1.6v2.9c0,0.6,0.3,0.8,0.8,0.8c0.2,0,0.5,0,0.7-0.2
				v0.6c-0.3,0.1-0.5,0.2-0.9,0.2C-1562.3,3031.3-1562.9,3030.9-1562.9,3029.9z"/>
			<path class="st2" d="M-1559.3,3024.4h0.8v0.8h-0.8V3024.4z M-1559.3,3026.3h0.7v4.9h-0.7V3026.3z"/>
			<path class="st2" d="M-1557.2,3028.8L-1557.2,3028.8c0-1.4,1.1-2.6,2.6-2.6c1.5,0,2.6,1.2,2.6,2.5v0c0,1.4-1.1,2.6-2.6,2.6
				C-1556.1,3031.3-1557.2,3030.1-1557.2,3028.8z M-1552.8,3028.8L-1552.8,3028.8c0-1.1-0.8-1.9-1.8-1.9c-1.1,0-1.8,0.9-1.8,1.9v0
				c0,1.1,0.8,1.9,1.8,1.9C-1553.5,3030.6-1552.8,3029.8-1552.8,3028.8z"/>
			<path class="st2" d="M-1550.7,3026.3h0.7v0.9c0.3-0.5,0.8-1,1.7-1c1.2,0,1.9,0.8,1.9,2v3.1h-0.7v-2.9c0-0.9-0.5-1.5-1.4-1.5
				c-0.8,0-1.5,0.6-1.5,1.5v2.8h-0.7V3026.3z"/>
			<path class="st2" d="M-1545.2,3029.8L-1545.2,3029.8c0-1.1,0.9-1.6,2.1-1.6c0.6,0,1.1,0.1,1.5,0.2v-0.2c0-0.9-0.5-1.3-1.5-1.3
				c-0.6,0-1,0.2-1.5,0.4l-0.2-0.6c0.5-0.2,1.1-0.4,1.8-0.4c0.7,0,1.2,0.2,1.6,0.5c0.3,0.3,0.5,0.8,0.5,1.4v3h-0.7v-0.7
				c-0.3,0.4-0.9,0.8-1.8,0.8C-1544.3,3031.3-1545.2,3030.8-1545.2,3029.8z M-1541.6,3029.4v-0.5c-0.4-0.1-0.8-0.2-1.4-0.2
				c-0.9,0-1.4,0.4-1.4,1v0c0,0.6,0.6,1,1.2,1C-1542.4,3030.7-1541.6,3030.2-1541.6,3029.4z"/>
			<path class="st2" d="M-1539.3,3024.3h0.7v6.9h-0.7V3024.3z"/>
		</g>
	</g>
	<g>
		<g>
			<polyline class="st6" points="-1858.4,2910.4 -1858.4,2900.8 -1831.5,2900.8 -1831.5,2905.9 			"/>
			<g>
				<polygon class="st3" points="-1834.6,2905 -1831.5,2910.4 -1828.4,2905 				"/>
			</g>
		</g>
	</g>
	<g>
		<g>
			<polyline class="st6" points="-1703.2,2910.4 -1703.2,2900.8 -1676.3,2900.8 -1676.3,2905.9 			"/>
			<g>
				<polygon class="st3" points="-1679.5,2905 -1676.3,2910.4 -1673.2,2905 				"/>
			</g>
		</g>
	</g>
	<g>
		<g>
			<polyline class="st6" points="-1619,2910.4 -1619,2900.8 -1592.1,2900.8 -1592.1,2905.9 			"/>
			<g>
				<polygon class="st3" points="-1595.3,2905 -1592.1,2910.4 -1589,2905 				"/>
			</g>
		</g>
	</g>
</g>
</svg>
