<?xml version="1.0" encoding="utf-8"?>
<!-- Generator: Adobe Illustrator 19.1.0, SVG Export Plug-In . SVG Version: 6.00 Build 0)  -->
<svg version="1.1" id="Layer_1" xmlns="http://www.w3.org/2000/svg" xmlns:xlink="http://www.w3.org/1999/xlink" x="0px" y="0px"
	 viewBox="0 0 169.2 169.2" enable-background="new 0 0 169.2 169.2" xml:space="preserve">
<g>
	<rect fill="#FFFFFF" width="169.2" height="169.2"/>
	<g>
		<path fill="#404447" d="M56.9,154.6l1.2-1.8c1,0.8,2.1,1.2,3,1.2c0.8,0,1.2-0.3,1.2-0.7v0c0-0.6-0.9-0.8-2-1.1
			c-1.3-0.4-2.9-1-2.9-2.9v0c0-2,1.6-3.1,3.5-3.1c1.2,0,2.6,0.4,3.6,1.1l-1,1.9c-1-0.6-1.9-0.9-2.6-0.9c-0.7,0-1,0.3-1,0.7v0
			c0,0.5,0.9,0.8,2,1.2c1.3,0.5,2.9,1.1,2.9,2.9v0c0,2.1-1.6,3.1-3.7,3.1C59.7,156.1,58.2,155.6,56.9,154.6z"/>
		<path fill="#404447" d="M66.2,151.1L66.2,151.1c0-2.8,2-5.1,4.8-5.1c3.2,0,4.7,2.5,4.7,5.2c0,0.2,0,0.5,0,0.7h-6.7
			c0.3,1.2,1.1,1.9,2.4,1.9c0.9,0,1.6-0.3,2.3-1l1.6,1.4c-0.9,1.1-2.2,1.8-3.9,1.8C68.3,156.1,66.2,154.1,66.2,151.1z M73,150.3
			c-0.2-1.2-0.9-2.1-2-2.1c-1.1,0-1.9,0.8-2.1,2.1H73z"/>
		<path fill="#404447" d="M77.7,146.2h2.7v1.9c0.6-1.3,1.5-2.2,3.1-2.1v2.9h-0.1c-1.8,0-2.9,1.1-2.9,3.4v3.6h-2.7V146.2z"/>
		<path fill="#404447" d="M84.4,146.2h2.9l2.2,6.5l2.2-6.5h2.8l-3.8,9.7h-2.5L84.4,146.2z"/>
		<path fill="#404447" d="M95,151.1L95,151.1c0-2.8,2-5.1,4.8-5.1c3.2,0,4.7,2.5,4.7,5.2c0,0.2,0,0.5,0,0.7h-6.7
			c0.3,1.2,1.1,1.9,2.4,1.9c0.9,0,1.6-0.3,2.3-1l1.6,1.4c-0.9,1.1-2.2,1.8-3.9,1.8C97.2,156.1,95,154.1,95,151.1z M101.8,150.3
			c-0.2-1.2-0.9-2.1-2-2.1c-1.1,0-1.9,0.8-2.1,2.1H101.8z"/>
		<path fill="#404447" d="M106.5,146.2h2.7v1.9c0.6-1.3,1.5-2.2,3.1-2.1v2.9h-0.1c-1.8,0-2.9,1.1-2.9,3.4v3.6h-2.7V146.2z"/>
	</g>
</g>
<g>
	<g>
		<g>
			<path fill="#404447" d="M128.1,122.7H41.9c-2.2,0-4-1.8-4-4V34c0-2.2,1.8-4,4-4h86.3c2.2,0,4,1.8,4,4v84.7
				C132.1,120.9,130.3,122.7,128.1,122.7L128.1,122.7z M45.8,114.8h78.3V38H45.8V114.8L45.8,114.8z"/>
		</g>
		<g>
			<path fill="#404447" d="M115.3,95H54.7c-1.1,0-2-0.9-2-2V46.9c0-1.1,0.9-2,2-2h60.5c1.1,0,2,0.9,2,2V93
				C117.3,94.1,116.4,95,115.3,95L115.3,95z M56.7,91h56.6V48.9H56.7V91L56.7,91z"/>
		</g>
	</g>
	<g>
		<g>
			<path fill="#404447" d="M64.9,106.9c0-0.9,0.7-1.7,1.7-1.7h8.3c0.9,0,1.7,0.7,1.7,1.7c0,0.9-0.7,1.7-1.7,1.7h-8.3
				C65.7,108.6,64.9,107.8,64.9,106.9L64.9,106.9z"/>
		</g>
		<g>
			<path fill="#404447" d="M79.2,106.9c0-0.9,0.7-1.7,1.7-1.7h8.3c0.9,0,1.7,0.7,1.7,1.7c0,0.9-0.7,1.7-1.7,1.7h-8.3
				C80,108.6,79.2,107.8,79.2,106.9L79.2,106.9z"/>
		</g>
		<g>
			<path fill="#404447" d="M93.5,106.9c0-0.9,0.7-1.7,1.7-1.7h8.3c0.9,0,1.7,0.7,1.7,1.7c0,0.9-0.7,1.7-1.7,1.7h-8.3
				C94.2,108.6,93.5,107.8,93.5,106.9L93.5,106.9z"/>
		</g>
	</g>
</g>
</svg>
