<?xml version="1.0" encoding="utf-8"?>
<!-- Generator: Adobe Illustrator 19.1.0, SVG Export Plug-In . SVG Version: 6.00 Build 0)  -->
<svg version="1.1" id="Layer_1" xmlns="http://www.w3.org/2000/svg" xmlns:xlink="http://www.w3.org/1999/xlink" x="0px" y="0px"
	 viewBox="0 0 169.2 169.2" enable-background="new 0 0 169.2 169.2" xml:space="preserve">
<g>
	<rect fill="#FFFFFF" width="169.2" height="169.2"/>
	<g>
		<path fill="#404447" d="M66.4,152.5v-6.2h2.7v5.4c0,1.3,0.6,2,1.7,2s1.7-0.7,1.7-2v-5.4h2.7v9.7h-2.7v-1.4
			c-0.6,0.8-1.4,1.5-2.8,1.5C67.6,156.1,66.4,154.7,66.4,152.5z"/>
		<path fill="#404447" d="M76.9,154.6l1.2-1.8c1,0.8,2.1,1.2,3,1.2c0.8,0,1.2-0.3,1.2-0.7v0c0-0.6-0.9-0.8-2-1.1
			c-1.3-0.4-2.9-1-2.9-2.9v0c0-2,1.6-3.1,3.5-3.1c1.2,0,2.6,0.4,3.6,1.1l-1,1.9c-1-0.6-1.9-0.9-2.6-0.9c-0.7,0-1,0.3-1,0.7v0
			c0,0.5,0.9,0.8,2,1.2c1.4,0.5,2.9,1.1,2.9,2.9v0c0,2.1-1.6,3.1-3.7,3.1C79.7,156.1,78.2,155.6,76.9,154.6z"/>
		<path fill="#404447" d="M86.2,151.1L86.2,151.1c0-2.8,2-5.1,4.8-5.1c3.2,0,4.7,2.5,4.7,5.2c0,0.2,0,0.5,0,0.7h-6.7
			c0.3,1.2,1.1,1.9,2.4,1.9c0.9,0,1.6-0.3,2.3-1l1.6,1.4c-0.9,1.1-2.2,1.8-3.9,1.8C88.4,156.1,86.2,154.1,86.2,151.1z M93,150.3
			c-0.2-1.2-0.9-2.1-2-2.1c-1.1,0-1.9,0.8-2.1,2.1H93z"/>
		<path fill="#404447" d="M97.7,146.2h2.7v1.9c0.6-1.3,1.5-2.2,3.1-2.1v2.9h-0.1c-1.8,0-2.9,1.1-2.9,3.4v3.6h-2.7V146.2z"/>
	</g>
</g>
<g>
	<g>
		<path fill="#404447" d="M84.1,78c-9.2,0-16.6-8.3-16.6-18.6c0-10.3,7.4-18.6,16.6-18.6c9.2,0,16.6,8.3,16.6,18.6
			C100.7,69.6,93.3,78,84.1,78L84.1,78z M84.1,47.7c-5.3,0-9.7,5.2-9.7,11.7c0,6.4,4.3,11.7,9.7,11.7c5.3,0,9.7-5.2,9.7-11.7
			C93.8,52.9,89.5,47.7,84.1,47.7L84.1,47.7z"/>
	</g>
	<g>
		<path fill="#404447" d="M109.1,120.8H58.5c-1.8,0-3.3-1.4-3.5-3.2L54,101.2c-0.4-6,4.3-12.9,10.2-15.1c12.7-4.6,26.7-4.5,39.3,0
			c6,2.2,10.6,9.1,10.2,15.1l-1.1,16.3C112.5,119.4,111,120.8,109.1,120.8L109.1,120.8z M61.8,113.9h44.1l0.9-13.1
			c0.2-2.7-2.3-6.9-5.7-8.2c-11.1-4-23.5-4-34.6,0c-3.3,1.2-5.8,5.5-5.7,8.2L61.8,113.9L61.8,113.9z"/>
	</g>
</g>
</svg>
