<?xml version="1.0" encoding="utf-8"?>
<!-- Generator: Adobe Illustrator 19.1.0, SVG Export Plug-In . SVG Version: 6.00 Build 0)  -->
<svg version="1.1" id="Layer_1" xmlns="http://www.w3.org/2000/svg" xmlns:xlink="http://www.w3.org/1999/xlink" x="0px" y="0px"
	 viewBox="0 0 169.2 169.2" enable-background="new 0 0 169.2 169.2" xml:space="preserve">
<g>
	<rect fill="#FFFFFF" width="169.2" height="169.2"/>
	<g>
		<path fill="#404447" d="M55.3,154.6l1.2-1.8c1,0.8,2.1,1.2,3,1.2c0.8,0,1.2-0.3,1.2-0.7v0c0-0.6-0.9-0.8-2-1.1
			c-1.4-0.4-2.9-1-2.9-2.9v0c0-2,1.6-3.1,3.5-3.1c1.2,0,2.6,0.4,3.6,1.1l-1,1.9c-1-0.6-1.9-0.9-2.6-0.9c-0.7,0-1,0.3-1,0.7v0
			c0,0.5,0.9,0.8,2,1.2c1.4,0.5,2.9,1.1,2.9,2.9v0c0,2.1-1.6,3.1-3.7,3.1C58.1,156.1,56.6,155.6,55.3,154.6z"/>
		<path fill="#404447" d="M64.7,151.1L64.7,151.1c0-2.8,2-5.1,4.8-5.1c3.2,0,4.7,2.5,4.7,5.2c0,0.2,0,0.5,0,0.7h-6.7
			c0.3,1.2,1.1,1.9,2.4,1.9c0.9,0,1.6-0.3,2.3-1l1.6,1.4c-0.9,1.1-2.2,1.8-3.9,1.8C66.8,156.1,64.7,154.1,64.7,151.1z M71.5,150.3
			c-0.2-1.2-0.9-2.1-2-2.1c-1.1,0-1.9,0.8-2.1,2.1H71.5z"/>
		<path fill="#404447" d="M75.6,153.1L75.6,153.1c0-2.1,1.6-3.1,3.9-3.1c1,0,1.7,0.2,2.4,0.4v-0.2c0-1.1-0.7-1.8-2.1-1.8
			c-1,0-1.8,0.2-2.7,0.5l-0.7-2.1c1.1-0.5,2.1-0.8,3.7-0.8c1.5,0,2.6,0.4,3.3,1.1c0.7,0.7,1,1.8,1,3.1v5.6h-2.6v-1
			c-0.7,0.7-1.6,1.2-2.9,1.2C77.1,156.1,75.6,155,75.6,153.1z M81.9,152.5V152c-0.5-0.2-1.1-0.4-1.7-0.4c-1.2,0-1.9,0.5-1.9,1.3v0
			c0,0.7,0.6,1.2,1.5,1.2C81,154.2,81.9,153.5,81.9,152.5z"/>
		<path fill="#404447" d="M86.8,146.2h2.7v1.9c0.6-1.3,1.5-2.2,3.1-2.1v2.9h-0.1c-1.8,0-2.9,1.1-2.9,3.4v3.6h-2.7V146.2z"/>
		<path fill="#404447" d="M93.6,151.1L93.6,151.1c0-2.8,2.1-5.1,5.1-5.1c1.8,0,3,0.6,3.9,1.6l-1.7,1.8c-0.6-0.6-1.2-1.1-2.2-1.1
			c-1.4,0-2.3,1.2-2.3,2.6v0c0,1.5,1,2.7,2.4,2.7c0.9,0,1.5-0.4,2.2-1l1.6,1.6c-0.9,1-2,1.8-3.9,1.8
			C95.7,156.1,93.6,153.9,93.6,151.1z"/>
		<path fill="#404447" d="M104.4,142.8h2.7v4.9c0.6-0.8,1.4-1.5,2.8-1.5c2.1,0,3.3,1.4,3.3,3.6v6.2h-2.7v-5.4c0-1.3-0.6-2-1.7-2
			c-1,0-1.7,0.7-1.7,2v5.4h-2.7V142.8z"/>
	</g>
</g>
<g>
	<g>
		<path fill="#404447" d="M77.2,109.9C54.5,109.9,36,91.5,36,68.8c0-22.7,18.5-41.2,41.2-41.2c22.7,0,41.2,18.5,41.2,41.2
			C118.4,91.5,99.9,109.9,77.2,109.9L77.2,109.9z M77.2,35.9c-18.1,0-32.9,14.8-32.9,32.9c0,18.1,14.8,32.9,32.9,32.9
			c18.2,0,32.9-14.8,32.9-32.9C110.1,50.6,95.3,35.9,77.2,35.9L77.2,35.9z"/>
	</g>
	<g>
		<path fill="#404447" d="M54,68.8h-4.1c0-15,12.2-27.3,27.3-27.3v4.1C64.4,45.6,54,56,54,68.8L54,68.8z"/>
	</g>
	<g>
		<path fill="#404447" d="M126.2,123.6c-1.1,0-2.1-0.4-2.9-1.2l-23-23c-1.6-1.6-1.6-4.2,0-5.8s4.2-1.6,5.8,0l23,23
			c1.6,1.6,1.6,4.2,0,5.8C128.3,123.2,127.3,123.6,126.2,123.6L126.2,123.6z"/>
	</g>
</g>
</svg>
