<?xml version="1.0" encoding="utf-8"?>
<!-- Generator: Adobe Illustrator 19.1.0, SVG Export Plug-In . SVG Version: 6.00 Build 0)  -->
<svg version="1.1" id="Layer_1" xmlns="http://www.w3.org/2000/svg" xmlns:xlink="http://www.w3.org/1999/xlink" x="0px" y="0px"
	 viewBox="0 0 169.2 169.2" enable-background="new 0 0 169.2 169.2" xml:space="preserve">
<g>
	<rect y="0" fill="#FFFFFF" width="169.2" height="169.2"/>
	<g>
		<path fill="#F08921" d="M34.7,149.6L34.7,149.6c0-3.6,2.7-6.6,6.6-6.6c2.4,0,3.8,0.8,5,1.9l-1.8,2c-1-0.9-2-1.4-3.2-1.4
			c-2.1,0-3.7,1.8-3.7,3.9v0c0,2.2,1.5,4,3.7,4c1.4,0,2.3-0.6,3.3-1.5l1.8,1.8c-1.3,1.4-2.7,2.3-5.2,2.3
			C37.5,156.1,34.7,153.2,34.7,149.6z"/>
		<path fill="#F08921" d="M48.3,142.7H51v4.9c0.6-0.8,1.4-1.5,2.8-1.5c2.1,0,3.3,1.4,3.3,3.6v6.2h-2.7v-5.4c0-1.3-0.6-2-1.7-2
			s-1.7,0.7-1.7,2v5.4h-2.7V142.7z"/>
		<path fill="#F08921" d="M59,151.1L59,151.1c0-2.8,2-5.1,4.8-5.1c3.2,0,4.7,2.5,4.7,5.2c0,0.2,0,0.5,0,0.7h-6.7
			c0.3,1.2,1.1,1.9,2.4,1.9c0.9,0,1.6-0.3,2.3-1l1.6,1.4c-0.9,1.1-2.2,1.8-3.9,1.8C61.2,156.1,59,154.1,59,151.1z M65.8,150.3
			c-0.2-1.2-0.9-2.1-2-2.1c-1.1,0-1.9,0.8-2.1,2.1H65.8z"/>
		<path fill="#F08921" d="M71,148.6h-1.1v-2.3H71v-0.6c0-1.1,0.3-1.8,0.8-2.3c0.5-0.5,1.2-0.8,2.2-0.8c0.9,0,1.4,0.1,1.9,0.3v2.3
			c-0.4-0.1-0.8-0.2-1.2-0.2c-0.6,0-1,0.3-1,1v0.4h2.2v2.2h-2.2v7.3H71V148.6z"/>
		<path fill="#F08921" d="M82.5,149.6L82.5,149.6c0-3.6,2.7-6.6,6.6-6.6c2.4,0,3.8,0.8,5,1.9l-1.8,2c-1-0.9-2-1.4-3.2-1.4
			c-2.1,0-3.7,1.8-3.7,3.9v0c0,2.2,1.5,4,3.7,4c1.4,0,2.3-0.6,3.3-1.5l1.8,1.8c-1.3,1.4-2.7,2.3-5.2,2.3
			C85.3,156.1,82.5,153.2,82.5,149.6z"/>
		<path fill="#F08921" d="M96.2,142.7H99v13.1h-2.7V142.7z"/>
		<path fill="#F08921" d="M101.6,142.7h2.9v2.4h-2.9V142.7z M101.7,146.2h2.7v9.7h-2.7V146.2z"/>
		<path fill="#F08921" d="M106.5,151.1L106.5,151.1c0-2.8,2-5.1,4.8-5.1c3.2,0,4.7,2.5,4.7,5.2c0,0.2,0,0.5,0,0.7h-6.7
			c0.3,1.2,1.1,1.9,2.4,1.9c0.9,0,1.6-0.3,2.3-1l1.6,1.4c-0.9,1.1-2.2,1.8-3.9,1.8C108.6,156.1,106.5,154.1,106.5,151.1z
			 M113.3,150.3c-0.2-1.2-0.9-2.1-2-2.1c-1.1,0-1.9,0.8-2.1,2.1H113.3z"/>
		<path fill="#F08921" d="M118,146.2h2.7v1.4c0.6-0.8,1.4-1.5,2.8-1.5c2.1,0,3.3,1.4,3.3,3.6v6.2h-2.7v-5.4c0-1.3-0.6-2-1.7-2
			c-1,0-1.7,0.7-1.7,2v5.4H118V146.2z"/>
		<path fill="#F08921" d="M129.7,153.2v-4.6h-1.2v-2.3h1.2v-2.5h2.7v2.5h2.3v2.3h-2.3v4.1c0,0.6,0.3,0.9,0.9,0.9
			c0.5,0,1-0.1,1.4-0.3v2.2c-0.6,0.3-1.2,0.6-2.2,0.6C130.8,156.1,129.7,155.4,129.7,153.2z"/>
	</g>
</g>
<g>
	<g>
		<path fill="#F08921" d="M139.6,132.2H30.5c-2.8,0-5-2.2-5-5V20c0-2.8,2.2-5,5-5h109.1c2.8,0,5,2.2,5,5v107.2
			C144.6,130,142.3,132.2,139.6,132.2L139.6,132.2z M35.5,122.2h99V25.1h-99V122.2L35.5,122.2z"/>
	</g>
	<path fill="#F08921" d="M47.8,35.8v73.8h73.8V35.8H47.8z M84.7,48.3c5.6,0,10.7,1.8,14.9,4.9l-2.5,3.4c-3.4-2.6-7.7-4.1-12.3-4.1
		c-8.7,0-16.2,5.5-19.2,13.2l-3.9-1.5C65.2,54.9,74.2,48.3,84.7,48.3z M68.8,73.1c0,6.7,4.1,12.4,10,14.8l-1.6,3.9
		c-3.7-1.5-6.9-4-9.1-7.3c-2.2-3.2-3.5-7.2-3.5-11.4H68.8z M66,65.8c1.5-3.7,4-7,7.3-9.2c3.3-2.3,7.2-3.6,11.5-3.6v4.2
		c-6.7,0-12.5,4.2-14.8,10.1L66,65.8z M69.3,73.1c0-8.5,6.9-15.4,15.4-15.4c7.4,0,13.6,5.3,15.1,12.3h-4.3
		c-1.4-4.7-5.7-8.1-10.8-8.1c-6.2,0-11.2,5-11.2,11.2c0,6.2,5,11.2,11.2,11.2c5.1,0,9.4-3.4,10.8-8.1h4.3c-1.4,7-7.7,12.3-15.1,12.3
		C76.2,88.5,69.3,81.6,69.3,73.1z M90.1,70c-0.7-1.2-1.8-2.2-3.1-2.7l1.6-4.2c3,1.2,5.4,3.7,6.3,6.8H90.1z M94.9,76.2
		c-1,3.1-3.3,5.7-6.3,6.8L87,78.9c1.3-0.5,2.4-1.5,3.1-2.7H94.9z M78.5,73.1c0,0.9,0.2,1.7,0.5,2.5l-4.1,1.8
		c-0.6-1.3-0.9-2.8-0.9-4.3c0-5.9,4.8-10.7,10.7-10.7v4.5C81.3,66.9,78.5,69.7,78.5,73.1z M84.7,79.3v4.5c-2.9,0-5.6-1.2-7.5-3.1
		l3.1-3.1C81.5,78.7,83,79.3,84.7,79.3z M84.7,89.1c7.7,0,14.2-5.5,15.6-12.8h4.3c-1.5,9.6-9.8,17-19.9,17V89.1z M100.3,70
		c-1.1-5.4-4.8-9.8-9.8-11.7l1.5-3.9c6.6,2.6,11.5,8.5,12.6,15.6H100.3z M62,83.1c-0.4-0.9-0.7-1.8-1-2.8c0-0.1,0-0.1-0.1-0.2
		c0-0.2-0.1-0.4-0.2-0.5c0-0.1-0.1-0.3-0.1-0.4c0-0.2-0.1-0.3-0.1-0.5c0-0.2-0.1-0.3-0.1-0.5c0-0.1-0.1-0.2-0.1-0.3
		c0-0.2-0.1-0.4-0.1-0.7c0-0.1,0-0.1,0-0.2c0-0.3-0.1-0.5-0.1-0.8c0,0,0,0,0-0.1c-0.1-1-0.2-2-0.2-3h4.2c0,0.9,0.1,1.8,0.2,2.7
		c0,0.1,0,0.3,0.1,0.4c0,0.2,0.1,0.3,0.1,0.5c0,0.1,0,0.2,0,0.3c0,0.2,0.1,0.4,0.1,0.6c0,0,0,0.1,0,0.1c0.1,0.2,0.1,0.4,0.2,0.7
		c0,0,0,0,0,0c0.1,0.2,0.1,0.5,0.2,0.7c0.2,0.8,0.5,1.6,0.9,2.3L62,83.1z M84.7,98c-6.9,0-13.1-2.8-17.6-7.3l3-3
		c3.7,3.7,8.9,6.1,14.6,6.1c10.3,0,18.9-7.6,20.4-17.5h4.3C107.8,88.5,97.4,98,84.7,98z M105.1,70c-0.4-2.8-1.4-5.5-2.9-7.8l3.6-2.2
		c1.9,3,3.1,6.4,3.6,10H105.1z"/>
</g>
</svg>
