<?xml version="1.0" encoding="utf-8"?>
<!-- Generator: Adobe Illustrator 19.1.0, SVG Export Plug-In . SVG Version: 6.00 Build 0)  -->
<svg version="1.1" id="Layer_1" xmlns="http://www.w3.org/2000/svg" xmlns:xlink="http://www.w3.org/1999/xlink" x="0px" y="0px"
	 viewBox="0 0 169.2 169.2" enable-background="new 0 0 169.2 169.2" xml:space="preserve">
<g>
	<rect fill="#FFFFFF" width="169.2" height="169.2"/>
	<g>
		<path fill="#404447" d="M39.7,151.1L39.7,151.1c0-2.8,2.1-5.1,5.1-5.1c1.8,0,3,0.6,3.9,1.6l-1.7,1.8c-0.6-0.6-1.2-1.1-2.2-1.1
			c-1.4,0-2.3,1.2-2.3,2.6v0c0,1.5,1,2.7,2.4,2.7c0.9,0,1.5-0.4,2.2-1l1.6,1.6c-0.9,1-2,1.8-3.9,1.8
			C41.9,156.1,39.7,153.9,39.7,151.1z"/>
		<path fill="#404447" d="M49.7,151.1L49.7,151.1c0-2.8,2.2-5.1,5.2-5.1c3,0,5.2,2.2,5.2,5v0c0,2.8-2.2,5-5.2,5
			C52,156.1,49.7,153.9,49.7,151.1z M57.5,151.1L57.5,151.1c0-1.5-1-2.7-2.5-2.7c-1.6,0-2.5,1.2-2.5,2.6v0c0,1.4,1,2.7,2.5,2.7
			C56.5,153.8,57.5,152.5,57.5,151.1z"/>
		<path fill="#404447" d="M61.7,151.1L61.7,151.1c0-2.8,2.2-5.1,5.2-5.1c3,0,5.2,2.2,5.2,5v0c0,2.8-2.2,5-5.2,5
			C63.9,156.1,61.7,153.9,61.7,151.1z M69.4,151.1L69.4,151.1c0-1.5-1-2.7-2.5-2.7c-1.6,0-2.5,1.2-2.5,2.6v0c0,1.4,1,2.7,2.5,2.7
			C68.5,153.8,69.4,152.5,69.4,151.1z"/>
		<path fill="#404447" d="M74.1,142.8h2.7v7l3.2-3.5h3.3l-3.7,3.8l3.8,5.9h-3.1l-2.5-3.9l-1,1v2.9h-2.7V142.8z"/>
		<path fill="#404447" d="M87.5,154.6v1.3h-2.7v-13.1h2.7v4.9c0.7-0.9,1.6-1.6,3-1.6c2.3,0,4.4,1.8,4.4,5v0c0,3.2-2.1,5-4.4,5
			C89.1,156.1,88.2,155.4,87.5,154.6z M92.2,151.1L92.2,151.1c0-1.6-1.1-2.7-2.4-2.7c-1.3,0-2.3,1.1-2.3,2.7v0
			c0,1.6,1.1,2.7,2.3,2.7C91.1,153.8,92.2,152.7,92.2,151.1z"/>
		<path fill="#404447" d="M96.5,151.1L96.5,151.1c0-2.8,2.2-5.1,5.2-5.1c3,0,5.2,2.2,5.2,5v0c0,2.8-2.2,5-5.2,5
			C98.7,156.1,96.5,153.9,96.5,151.1z M104.2,151.1L104.2,151.1c0-1.5-1-2.7-2.5-2.7c-1.6,0-2.5,1.2-2.5,2.6v0c0,1.4,1,2.7,2.5,2.7
			C103.3,153.8,104.2,152.5,104.2,151.1z"/>
		<path fill="#404447" d="M108.4,151.1L108.4,151.1c0-2.8,2.2-5.1,5.2-5.1c3,0,5.2,2.2,5.2,5v0c0,2.8-2.2,5-5.2,5
			C110.6,156.1,108.4,153.9,108.4,151.1z M116.1,151.1L116.1,151.1c0-1.5-1-2.7-2.5-2.7c-1.6,0-2.5,1.2-2.5,2.6v0
			c0,1.4,1,2.7,2.5,2.7C115.2,153.8,116.1,152.5,116.1,151.1z"/>
		<path fill="#404447" d="M120.8,142.8h2.7v7l3.2-3.5h3.3l-3.7,3.8l3.8,5.9H127l-2.5-3.9l-1,1v2.9h-2.7V142.8z"/>
	</g>
</g>
<g>
	<g>
		<path fill="#404447" d="M105.4,70.3H74.1c-1.1,0-2-0.9-2-2V50.5c0-1.1,0.9-2,2-2h31.4c1.1,0,2,0.9,2,2v17.7
			C107.5,69.4,106.6,70.3,105.4,70.3L105.4,70.3z M76.1,66.2h27.3V52.6H76.1V66.2L76.1,66.2z"/>
	</g>
	<g>
		<g>
			<path fill="#404447" d="M122.7,126.4H52.4c-2.3,0-4.1-1.8-4.1-4.1V34.1c0-2.3,1.8-4.1,4.1-4.1h70.2c2.3,0,4.1,1.8,4.1,4.1v88.3
				C126.7,124.6,124.9,126.4,122.7,126.4L122.7,126.4z M56.5,118.2h62V38.2h-62V118.2L56.5,118.2z"/>
		</g>
		<g>
			<path fill="#404447" d="M59.6,54.6H45.3c-2.3,0-4.1-1.8-4.1-4.1c0-2.3,1.8-4.1,4.1-4.1h14.3c2.3,0,4.1,1.8,4.1,4.1
				C63.7,52.8,61.9,54.6,59.6,54.6L59.6,54.6z"/>
		</g>
		<g>
			<path fill="#404447" d="M59.6,72.9H45.3c-2.3,0-4.1-1.8-4.1-4.1c0-2.3,1.8-4.1,4.1-4.1h14.3c2.3,0,4.1,1.8,4.1,4.1
				C63.7,71.1,61.9,72.9,59.6,72.9L59.6,72.9z"/>
		</g>
		<g>
			<path fill="#404447" d="M59.6,91.2H45.3c-2.3,0-4.1-1.8-4.1-4.1c0-2.3,1.8-4.1,4.1-4.1h14.3c2.3,0,4.1,1.8,4.1,4.1
				C63.7,89.4,61.9,91.2,59.6,91.2L59.6,91.2z"/>
		</g>
		<g>
			<path fill="#404447" d="M59.6,109.5H45.3c-2.3,0-4.1-1.8-4.1-4.1c0-2.3,1.8-4.1,4.1-4.1h14.3c2.3,0,4.1,1.8,4.1,4.1
				C63.7,107.6,61.9,109.5,59.6,109.5L59.6,109.5z"/>
		</g>
	</g>
</g>
</svg>
