<?xml version="1.0" encoding="utf-8"?>
<!-- Generator: Adobe Illustrator 19.1.0, SVG Export Plug-In . SVG Version: 6.00 Build 0)  -->
<svg version="1.1" id="Layer_1" xmlns="http://www.w3.org/2000/svg" xmlns:xlink="http://www.w3.org/1999/xlink" x="0px" y="0px"
	 viewBox="0 0 169.2 169.2" enable-background="new 0 0 169.2 169.2" xml:space="preserve">
<g>
	<rect fill="#FFFFFF" width="169.2" height="169.2"/>
	<g>
		<path fill="#404447" d="M62.8,149.6L62.8,149.6c0-3.6,2.8-6.6,6.7-6.6c3.9,0,6.7,2.9,6.7,6.5v0c0,3.6-2.8,6.5-6.7,6.5
			C65.6,156.1,62.8,153.2,62.8,149.6z M73.3,149.6L73.3,149.6c0-2.2-1.6-4-3.8-4c-2.2,0-3.8,1.8-3.8,3.9v0c0,2.2,1.6,4,3.8,4
			S73.3,151.8,73.3,149.6z"/>
		<path fill="#404447" d="M78.3,142.8h2.7v4.9c0.6-0.8,1.4-1.5,2.8-1.5c2.1,0,3.3,1.4,3.3,3.6v6.2h-2.7v-5.4c0-1.3-0.6-2-1.7-2
			s-1.7,0.7-1.7,2v5.4h-2.7V142.8z"/>
		<path fill="#404447" d="M89,153.1L89,153.1c0-2.1,1.6-3.1,3.9-3.1c1,0,1.7,0.2,2.4,0.4v-0.2c0-1.1-0.7-1.8-2.1-1.8
			c-1,0-1.8,0.2-2.7,0.5l-0.7-2.1c1.1-0.5,2.1-0.8,3.7-0.8c1.5,0,2.6,0.4,3.3,1.1c0.7,0.7,1,1.8,1,3.1v5.6h-2.6v-1
			c-0.7,0.7-1.6,1.2-2.9,1.2C90.5,156.1,89,155,89,153.1z M95.3,152.5V152c-0.5-0.2-1.1-0.4-1.7-0.4c-1.2,0-1.9,0.5-1.9,1.3v0
			c0,0.7,0.6,1.2,1.5,1.2C94.4,154.2,95.3,153.5,95.3,152.5z"/>
		<path fill="#404447" d="M100.3,142.8h2.9v2.4h-2.9V142.8z M100.3,146.2h2.7v9.7h-2.7V146.2z"/>
	</g>
</g>
<g>
	<g>
		<g>
			<path fill="#404447" d="M56.5,107.9c-1.4,0-2.6-1.1-2.6-2.4V83.7c0-1.3,1.2-2.4,2.6-2.4s2.6,1.1,2.6,2.4v21.7
				C59.1,106.8,58,107.9,56.5,107.9L56.5,107.9z"/>
		</g>
		<g>
			<path fill="#404447" d="M67.7,107.9c-1.4,0-2.6-1.1-2.6-2.4V62.7c0-1.3,1.2-2.4,2.6-2.4c1.4,0,2.6,1.1,2.6,2.4v42.8
				C70.4,106.8,69.2,107.9,67.7,107.9L67.7,107.9z"/>
		</g>
		<g>
			<path fill="#404447" d="M79,107.9c-1.4,0-2.6-1.1-2.6-2.4V52.6c0-1.3,1.2-2.4,2.6-2.4c1.4,0,2.6,1.1,2.6,2.4v52.9
				C81.6,106.8,80.4,107.9,79,107.9L79,107.9z"/>
		</g>
		<g>
			<path fill="#404447" d="M90.2,107.9c-1.4,0-2.6-1.1-2.6-2.4V71.1c0-1.3,1.2-2.4,2.6-2.4s2.6,1.1,2.6,2.4v34.4
				C92.8,106.8,91.6,107.9,90.2,107.9L90.2,107.9z"/>
		</g>
		<g>
			<path fill="#404447" d="M112.6,107.9c-1.4,0-2.6-1.1-2.6-2.4V93.5c0-1.3,1.2-2.4,2.6-2.4c1.4,0,2.6,1.1,2.6,2.4v11.9
				C115.3,106.8,114.1,107.9,112.6,107.9L112.6,107.9z"/>
		</g>
		<g>
			<path fill="#404447" d="M101.4,107.9c-1.4,0-2.6-1.1-2.6-2.4V52.6c0-1.3,1.2-2.4,2.6-2.4c1.4,0,2.6,1.1,2.6,2.4v52.9
				C104,106.8,102.9,107.9,101.4,107.9L101.4,107.9z"/>
		</g>
	</g>
	<g>
		<path fill="#404447" d="M127.2,123.1H42c-2.2,0-3.9-1.8-3.9-3.9V34c0-2.2,1.8-3.9,3.9-3.9h85.2c2.2,0,3.9,1.8,3.9,3.9v85.2
			C131.2,121.4,129.4,123.1,127.2,123.1L127.2,123.1z M45.9,115.3h77.4V37.9H45.9V115.3L45.9,115.3z"/>
	</g>
</g>
</svg>
