<?xml version="1.0" encoding="utf-8"?>
<!-- Generator: Adobe Illustrator 19.1.0, SVG Export Plug-In . SVG Version: 6.00 Build 0)  -->
<svg version="1.1" id="Layer_1" xmlns="http://www.w3.org/2000/svg" xmlns:xlink="http://www.w3.org/1999/xlink" x="0px" y="0px"
	 viewBox="0 0 169.2 169.2" enable-background="new 0 0 169.2 169.2" xml:space="preserve">
<g>
	<rect fill="#FFFFFF" width="169.2" height="169.2"/>
	<g>
		<path fill="#404447" d="M10.5,151.5L10.5,151.5c0-2.6,1.9-4.6,4.6-4.6c1.7,0,2.7,0.6,3.5,1.5l-1.5,1.6c-0.6-0.6-1.1-1-2-1
			c-1.3,0-2.1,1.1-2.1,2.4v0c0,1.4,0.9,2.4,2.2,2.4c0.8,0,1.4-0.4,2-0.9l1.5,1.5c-0.9,0.9-1.8,1.6-3.6,1.6
			C12.5,156.1,10.5,154,10.5,151.5z"/>
		<path fill="#404447" d="M19.7,151.5L19.7,151.5c0-2.6,2-4.6,4.8-4.6c2.7,0,4.8,2,4.8,4.6v0c0,2.5-2,4.6-4.8,4.6
			C21.7,156.1,19.7,154.1,19.7,151.5z M26.8,151.5L26.8,151.5c0-1.3-0.9-2.5-2.3-2.5c-1.4,0-2.3,1.1-2.3,2.4v0
			c0,1.3,0.9,2.4,2.3,2.4C25.9,153.9,26.8,152.8,26.8,151.5z"/>
		<path fill="#404447" d="M30.7,151.5L30.7,151.5c0-2.6,2-4.6,4.8-4.6c2.7,0,4.8,2,4.8,4.6v0c0,2.5-2,4.6-4.8,4.6
			C32.7,156.1,30.7,154.1,30.7,151.5z M37.8,151.5L37.8,151.5c0-1.3-0.9-2.5-2.3-2.5c-1.4,0-2.3,1.1-2.3,2.4v0
			c0,1.3,0.9,2.4,2.3,2.4C36.9,153.9,37.8,152.8,37.8,151.5z"/>
		<path fill="#404447" d="M42.1,143.9h2.5v6.4l2.9-3.2h3l-3.4,3.5l3.5,5.4h-2.9l-2.3-3.6l-0.9,0.9v2.7h-2.5V143.9z"/>
		<path fill="#404447" d="M54.3,154.7v1.2h-2.5v-12h2.5v4.5c0.6-0.8,1.5-1.4,2.8-1.4c2.1,0,4,1.6,4,4.6v0c0,3-1.9,4.6-4,4.6
			C55.7,156.1,54.9,155.4,54.3,154.7z M58.6,151.5L58.6,151.5c0-1.5-1-2.5-2.2-2.5c-1.2,0-2.1,1-2.1,2.4v0c0,1.5,1,2.4,2.1,2.4
			C57.6,153.9,58.6,153,58.6,151.5z"/>
		<path fill="#404447" d="M62.5,151.5L62.5,151.5c0-2.6,2-4.6,4.8-4.6c2.7,0,4.8,2,4.8,4.6v0c0,2.5-2,4.6-4.8,4.6
			C64.6,156.1,62.5,154.1,62.5,151.5z M69.6,151.5L69.6,151.5c0-1.3-0.9-2.5-2.3-2.5c-1.4,0-2.3,1.1-2.3,2.4v0
			c0,1.3,0.9,2.4,2.3,2.4C68.8,153.9,69.6,152.8,69.6,151.5z"/>
		<path fill="#404447" d="M73.5,151.5L73.5,151.5c0-2.6,2-4.6,4.8-4.6c2.7,0,4.8,2,4.8,4.6v0c0,2.5-2,4.6-4.8,4.6
			C75.5,156.1,73.5,154.1,73.5,151.5z M80.6,151.5L80.6,151.5c0-1.3-0.9-2.5-2.3-2.5c-1.4,0-2.3,1.1-2.3,2.4v0
			c0,1.3,0.9,2.4,2.3,2.4C79.7,153.9,80.6,152.8,80.6,151.5z"/>
		<path fill="#404447" d="M84.9,143.9h2.5v6.4l2.9-3.2h3l-3.4,3.5l3.5,5.4h-2.9l-2.3-3.6l-0.9,0.9v2.7h-2.5V143.9z"/>
		<path fill="#404447" d="M98.8,147.1h2.7l2,5.9l2-5.9h2.6l-3.5,8.9h-2.3L98.8,147.1z"/>
		<path fill="#404447" d="M108.6,151.5L108.6,151.5c0-2.6,1.8-4.6,4.4-4.6c3,0,4.3,2.3,4.3,4.8c0,0.2,0,0.4,0,0.7h-6.2
			c0.2,1.1,1,1.7,2.2,1.7c0.8,0,1.5-0.3,2.1-0.9l1.4,1.3c-0.8,1-2,1.6-3.6,1.6C110.5,156.1,108.6,154.2,108.6,151.5z M114.8,150.8
			c-0.1-1.1-0.8-1.9-1.9-1.9c-1,0-1.7,0.7-1.9,1.9H114.8z"/>
		<path fill="#404447" d="M119.1,147.1h2.5v1.8c0.5-1.2,1.3-2,2.8-1.9v2.6h-0.1c-1.7,0-2.7,1-2.7,3.1v3.3h-2.5V147.1z"/>
		<path fill="#404447" d="M125.3,154.7l1.1-1.7c1,0.7,2,1.1,2.8,1.1c0.7,0,1.1-0.3,1.1-0.7v0c0-0.5-0.9-0.7-1.8-1
			c-1.2-0.4-2.6-0.9-2.6-2.7v0c0-1.8,1.5-2.8,3.2-2.8c1.1,0,2.3,0.4,3.3,1l-1,1.7c-0.9-0.5-1.7-0.8-2.4-0.8c-0.6,0-0.9,0.3-0.9,0.6
			v0c0,0.5,0.8,0.7,1.8,1.1c1.2,0.4,2.7,1,2.7,2.6v0c0,2-1.5,2.9-3.4,2.9C127.9,156.1,126.5,155.6,125.3,154.7z"/>
		<path fill="#404447" d="M134.3,143.9h2.6v2.2h-2.6V143.9z M134.4,147.1h2.5v8.8h-2.5V147.1z"/>
		<path fill="#404447" d="M138.8,151.5L138.8,151.5c0-2.6,2-4.6,4.8-4.6c2.7,0,4.8,2,4.8,4.6v0c0,2.5-2,4.6-4.8,4.6
			C140.9,156.1,138.8,154.1,138.8,151.5z M145.9,151.5L145.9,151.5c0-1.3-0.9-2.5-2.3-2.5c-1.4,0-2.3,1.1-2.3,2.4v0
			c0,1.3,0.9,2.4,2.3,2.4C145.1,153.9,145.9,152.8,145.9,151.5z"/>
		<path fill="#404447" d="M150.2,147.1h2.5v1.3c0.6-0.7,1.3-1.4,2.6-1.4c1.9,0,3,1.3,3,3.3v5.7h-2.5V151c0-1.2-0.6-1.8-1.5-1.8
			c-1,0-1.6,0.6-1.6,1.8v4.9h-2.5V147.1z"/>
	</g>
</g>
<g>
	<g>
		<g>
			<g>
				<path fill="#404447" d="M105.1,71.3H73.7c-1.1,0-2-0.9-2-2V51.5c0-1.1,0.9-2,2-2h31.4c1.1,0,2,0.9,2,2v17.7
					C107.2,70.4,106.2,71.3,105.1,71.3L105.1,71.3z M75.8,67.2h27.3V53.6H75.8V67.2L75.8,67.2z"/>
			</g>
			<g>
				<g>
					<path fill="#404447" d="M122.3,127.4H52.1c-2.3,0-4.1-1.8-4.1-4.1V35.1c0-2.3,1.8-4.1,4.1-4.1h70.2c2.3,0,4.1,1.8,4.1,4.1v88.3
						C126.4,125.6,124.6,127.4,122.3,127.4L122.3,127.4z M56.2,119.2h62V39.2h-62V119.2L56.2,119.2z"/>
				</g>
				<g>
					<path fill="#404447" d="M59.3,55.6H44.9c-2.3,0-4.1-1.8-4.1-4.1c0-2.3,1.8-4.1,4.1-4.1h14.3c2.3,0,4.1,1.8,4.1,4.1
						C63.3,53.8,61.5,55.6,59.3,55.6L59.3,55.6z"/>
				</g>
				<g>
					<path fill="#404447" d="M59.3,73.9H44.9c-2.3,0-4.1-1.8-4.1-4.1c0-2.3,1.8-4.1,4.1-4.1h14.3c2.3,0,4.1,1.8,4.1,4.1
						C63.3,72.1,61.5,73.9,59.3,73.9L59.3,73.9z"/>
				</g>
				<g>
					<path fill="#404447" d="M59.3,92.2H44.9c-2.3,0-4.1-1.8-4.1-4.1c0-2.3,1.8-4.1,4.1-4.1h14.3c2.3,0,4.1,1.8,4.1,4.1
						C63.3,90.4,61.5,92.2,59.3,92.2L59.3,92.2z"/>
				</g>
				<g>
					<path fill="#404447" d="M59.3,110.5H44.9c-2.3,0-4.1-1.8-4.1-4.1c0-2.3,1.8-4.1,4.1-4.1h14.3c2.3,0,4.1,1.8,4.1,4.1
						C63.3,108.6,61.5,110.5,59.3,110.5L59.3,110.5z"/>
				</g>
			</g>
		</g>
	</g>
	<path fill="#404447" d="M92.9,108c-1.9,0-3.4,1.5-3.4,3.4c0,1.9,1.5,3.4,3.4,3.4c1.9,0,3.4-1.5,3.4-3.4
		C96.3,109.5,94.8,108,92.9,108L92.9,108z"/>
	<path fill="#404447" d="M101.8,108c-1.9,0-3.4,1.5-3.4,3.4c0,1.9,1.5,3.4,3.4,3.4c1.9,0,3.4-1.5,3.4-3.4
		C105.2,109.5,103.7,108,101.8,108L101.8,108z"/>
	<path fill="#404447" d="M110.7,108c-1.9,0-3.4,1.5-3.4,3.4c0,1.9,1.5,3.4,3.4,3.4c1.9,0,3.4-1.5,3.4-3.4
		C114.1,109.5,112.6,108,110.7,108L110.7,108z"/>
</g>
</svg>
