<?xml version="1.0" encoding="utf-8"?>
<!-- Generator: Adobe Illustrator 19.1.0, SVG Export Plug-In . SVG Version: 6.00 Build 0)  -->
<svg version="1.1" id="Layer_1" xmlns="http://www.w3.org/2000/svg" xmlns:xlink="http://www.w3.org/1999/xlink" x="0px" y="0px"
	 viewBox="0 0 169.2 169.2" enable-background="new 0 0 169.2 169.2" xml:space="preserve">
<g>
	<rect fill="#FFFFFF" width="169.2" height="169.2"/>
	<g>
		<path fill="#404447" d="M31,146.2h2.8l1.5,5.9l1.8-5.9h2.4l1.8,5.9l1.6-5.9h2.7l-3,9.7h-2.5l-1.9-5.9l-1.9,5.9h-2.4L31,146.2z"/>
		<path fill="#404447" d="M46.3,151.1L46.3,151.1c0-2.8,2.2-5.1,5.2-5.1c3,0,5.2,2.2,5.2,5v0c0,2.8-2.2,5-5.2,5
			C48.6,156.1,46.3,153.9,46.3,151.1z M54.1,151.1L54.1,151.1c0-1.5-1-2.7-2.5-2.7c-1.6,0-2.5,1.2-2.5,2.6v0c0,1.4,1,2.7,2.5,2.7
			C53.2,153.8,54.1,152.5,54.1,151.1z"/>
		<path fill="#404447" d="M58.8,146.2h2.7v1.9c0.6-1.3,1.5-2.2,3.1-2.1v2.9h-0.1c-1.8,0-2.9,1.1-2.9,3.4v3.6h-2.7V146.2z"/>
		<path fill="#404447" d="M66.3,142.8H69v7l3.2-3.5h3.3l-3.7,3.8l3.8,5.9h-3.1L70,152l-1,1v2.9h-2.7V142.8z"/>
		<path fill="#404447" d="M76.2,154.6l1.2-1.8c1,0.8,2.1,1.2,3,1.2c0.8,0,1.2-0.3,1.2-0.7v0c0-0.6-0.9-0.8-2-1.1
			c-1.4-0.4-2.9-1-2.9-2.9v0c0-2,1.6-3.1,3.5-3.1c1.2,0,2.6,0.4,3.6,1.1l-1,1.9c-1-0.6-1.9-0.9-2.6-0.9c-0.7,0-1,0.3-1,0.7v0
			c0,0.5,0.9,0.8,2,1.2c1.4,0.5,2.9,1.1,2.9,2.9v0c0,2.1-1.6,3.1-3.7,3.1C79,156.1,77.5,155.6,76.2,154.6z"/>
		<path fill="#404447" d="M86.3,153.2v-4.6h-1.2v-2.3h1.2v-2.5H89v2.5h2.3v2.3H89v4.1c0,0.6,0.3,0.9,0.9,0.9c0.5,0,1-0.1,1.4-0.3
			v2.2c-0.6,0.3-1.2,0.6-2.2,0.6C87.4,156.1,86.3,155.4,86.3,153.2z"/>
		<path fill="#404447" d="M92.7,153.1L92.7,153.1c0-2.1,1.6-3.1,3.9-3.1c1,0,1.7,0.2,2.4,0.4v-0.2c0-1.1-0.7-1.8-2.1-1.8
			c-1,0-1.8,0.2-2.7,0.5l-0.7-2.1c1.1-0.5,2.1-0.8,3.7-0.8c1.5,0,2.6,0.4,3.3,1.1c0.7,0.7,1,1.8,1,3.1v5.6h-2.6v-1
			c-0.7,0.7-1.6,1.2-2.9,1.2C94.2,156.1,92.7,155,92.7,153.1z M99,152.5V152c-0.5-0.2-1.1-0.4-1.7-0.4c-1.2,0-1.9,0.5-1.9,1.3v0
			c0,0.7,0.6,1.2,1.5,1.2C98.1,154.2,99,153.5,99,152.5z"/>
		<path fill="#404447" d="M104.3,153.2v-4.6h-1.2v-2.3h1.2v-2.5h2.7v2.5h2.3v2.3H107v4.1c0,0.6,0.3,0.9,0.9,0.9c0.5,0,1-0.1,1.4-0.3
			v2.2c-0.6,0.3-1.2,0.6-2.2,0.6C105.4,156.1,104.3,155.4,104.3,153.2z"/>
		<path fill="#404447" d="M111.4,142.8h2.9v2.4h-2.9V142.8z M111.4,146.2h2.7v9.7h-2.7V146.2z"/>
		<path fill="#404447" d="M116.3,151.1L116.3,151.1c0-2.8,2.2-5.1,5.2-5.1c3,0,5.2,2.2,5.2,5v0c0,2.8-2.2,5-5.2,5
			C118.5,156.1,116.3,153.9,116.3,151.1z M124,151.1L124,151.1c0-1.5-1-2.7-2.5-2.7c-1.6,0-2.5,1.2-2.5,2.6v0c0,1.4,1,2.7,2.5,2.7
			C123.1,153.8,124,152.5,124,151.1z"/>
		<path fill="#404447" d="M128.7,146.2h2.7v1.4c0.6-0.8,1.4-1.5,2.8-1.5c2.1,0,3.3,1.4,3.3,3.6v6.2h-2.7v-5.4c0-1.3-0.6-2-1.7-2
			c-1,0-1.7,0.7-1.7,2v5.4h-2.7V146.2z"/>
	</g>
</g>
<g>
	<g>
		<path fill="#404447" d="M131.1,108.7H36.3c-2.4,0-4.3-1.9-4.3-4.3V44.1c0-2.4,1.9-4.3,4.3-4.3h94.8c2.4,0,4.3,1.9,4.3,4.3v60.4
			C135.4,106.8,133.5,108.7,131.1,108.7L131.1,108.7z M40.6,100.1h86.2V48.4H40.6V100.1L40.6,100.1z"/>
	</g>
	<g>
		<path fill="#404447" d="M122.5,98H44.9c-1.2,0-2.2-1-2.2-2.2V52.7c0-1.2,1-2.2,2.2-2.2h77.6c1.2,0,2.2,1,2.2,2.2v43.1
			C124.7,97,123.7,98,122.5,98L122.5,98z M47.1,93.6h73.3V54.8H47.1V93.6L47.1,93.6z"/>
	</g>
	<g>
		<path fill="#404447" d="M144.4,121.3h-120c-2.4,0-4.3-1.9-4.3-4.3c0-2.4,1.9-4.3,4.3-4.3h120c2.4,0,4.3,1.9,4.3,4.3
			C148.7,119.4,146.8,121.3,144.4,121.3L144.4,121.3z"/>
	</g>
</g>
</svg>
