<?xml version="1.0" encoding="utf-8"?>
<!-- Generator: Adobe Illustrator 19.1.0, SVG Export Plug-In . SVG Version: 6.00 Build 0)  -->
<svg version="1.1" id="Layer_1" xmlns="http://www.w3.org/2000/svg" xmlns:xlink="http://www.w3.org/1999/xlink" x="0px" y="0px"
	 viewBox="0 0 169.2 169.2" enable-background="new 0 0 169.2 169.2" xml:space="preserve">
<g>
	<rect fill="#FFFFFF" width="169.2" height="169.2"/>
	<g>
		<path fill="#404447" d="M51.4,143.3h2.8v5.5l5.1-5.5h3.3l-5.1,5.3l5.4,7.3h-3.3l-3.9-5.4l-1.5,1.5v3.9h-2.8V143.3z"/>
		<path fill="#404447" d="M64.3,142.7h2.9v2.4h-2.9V142.7z M64.3,146.2h2.7v9.7h-2.7V146.2z"/>
		<path fill="#404447" d="M70.1,153.2v-4.6H69v-2.3h1.2v-2.5h2.7v2.5h2.3v2.3h-2.3v4.1c0,0.6,0.3,0.9,0.9,0.9c0.5,0,1-0.1,1.4-0.3
			v2.2c-0.6,0.3-1.2,0.6-2.2,0.6C71.2,156.1,70.1,155.4,70.1,153.2z"/>
		<path fill="#404447" d="M76.4,151.1L76.4,151.1c0-2.8,2.1-5.1,5.1-5.1c1.8,0,3,0.6,3.9,1.6l-1.7,1.8c-0.6-0.6-1.2-1.1-2.2-1.1
			c-1.4,0-2.3,1.2-2.3,2.6v0c0,1.5,1,2.7,2.4,2.7c0.9,0,1.5-0.4,2.2-1l1.6,1.6c-0.9,1-2,1.8-3.9,1.8
			C78.5,156.1,76.4,153.9,76.4,151.1z"/>
		<path fill="#404447" d="M87.1,142.7h2.7v4.9c0.6-0.8,1.4-1.5,2.8-1.5c2.1,0,3.3,1.4,3.3,3.6v6.2h-2.7v-5.4c0-1.3-0.6-2-1.7-2
			s-1.7,0.7-1.7,2v5.4h-2.7V142.7z"/>
		<path fill="#404447" d="M97.9,151.1L97.9,151.1c0-2.8,2-5.1,4.8-5.1c3.2,0,4.7,2.5,4.7,5.2c0,0.2,0,0.5,0,0.7h-6.7
			c0.3,1.2,1.1,1.9,2.4,1.9c0.9,0,1.6-0.3,2.3-1l1.6,1.4c-0.9,1.1-2.2,1.8-3.9,1.8C100,156.1,97.9,154.1,97.9,151.1z M104.7,150.3
			c-0.2-1.2-0.9-2.1-2-2.1c-1.1,0-1.9,0.8-2.1,2.1H104.7z"/>
		<path fill="#404447" d="M109.4,146.2h2.7v1.4c0.6-0.8,1.4-1.5,2.8-1.5c2.1,0,3.3,1.4,3.3,3.6v6.2h-2.7v-5.4c0-1.3-0.6-2-1.7-2
			c-1,0-1.7,0.7-1.7,2v5.4h-2.7V146.2z"/>
	</g>
</g>
<g>
	<path fill="#404447" d="M123.6,24.9h-79c-6.6,0-12,5.4-12,12v76.3c0,6.6,5.4,12,12,12h79c6.6,0,12-5.4,12-12V36.9
		C135.6,30.3,130.2,24.9,123.6,24.9z M77.9,88.8c0,9.2-7.3,16.6-16.2,16.6c-8.4,0-15.4-6.7-16.1-15.2h-0.2l0.1-31.5h0.1
		c0.2-9,7.4-16.3,16.2-16.3c8.8,0,16,7.4,16.1,16.4h0L77.8,87c0,0,0,0,0,0C77.9,87.6,77.9,88.2,77.9,88.8z M120.2,91.7v24H97.6v-0.1
		c-1.3,0-2.6-0.2-3.8-0.5c-1.4-0.4-2.7-1-3.9-1.7c-4.4-2.7-7.3-7.5-7.3-13c0-0.3,0-0.6,0-0.9h0v-24h22.7v0
		c8.3,0.2,14.9,6.9,14.9,15.2C120.2,91.1,120.2,91.4,120.2,91.7L120.2,91.7z M122.5,56.9L122.5,56.9c-0.3,8.5-7.1,15.3-15.4,15.3
		c-0.3,0-0.6,0-0.9,0v0l-24-0.1l0.1-22.9v-0.4h0c0.2-8.5,7-15.3,15.3-15.3c0.3,0,0.7,0,1,0v0l24,0.1L122.5,56.9z"/>
	<g>
		<path fill="#404447" d="M70.7,58.1c0,0.2,0,0.4,0,0.6c-0.3,4.4-4.3,7.8-9,7.8c-4.8,0-8.7-3.5-9-7.9c0-0.2,0-0.4,0-0.6
			c0-4.6,4.1-8.4,9.1-8.4C66.7,49.7,70.7,53.5,70.7,58.1z"/>
	</g>
</g>
</svg>
