<?xml version="1.0" encoding="utf-8"?>
<!-- Generator: Adobe Illustrator 19.1.0, SVG Export Plug-In . SVG Version: 6.00 Build 0)  -->
<svg version="1.1" id="Layer_1" xmlns="http://www.w3.org/2000/svg" xmlns:xlink="http://www.w3.org/1999/xlink" x="0px" y="0px"
	 viewBox="0 0 169.2 169.2" enable-background="new 0 0 169.2 169.2" xml:space="preserve">
<g>
	<rect x="0" y="0" fill="#FFFFFF" width="169.2" height="169.2"/>
	<g>
		<path fill="#F08921" d="M7.5,150L7.5,150c0-3.4,2.5-6.2,6.2-6.2c2.2,0,3.6,0.7,4.7,1.8l-1.7,1.9c-0.9-0.8-1.9-1.3-3-1.3
			c-2,0-3.5,1.7-3.5,3.7v0c0,2,1.4,3.7,3.5,3.7c1.4,0,2.2-0.5,3.1-1.4l1.7,1.7c-1.2,1.3-2.6,2.1-4.9,2.1
			C10.1,156.1,7.5,153.4,7.5,150z"/>
		<path fill="#F08921" d="M20.3,143.5h2.6v4.6c0.6-0.8,1.4-1.5,2.7-1.5c2,0,3.1,1.3,3.1,3.4v5.9h-2.6v-5.1c0-1.2-0.6-1.9-1.6-1.9
			c-1,0-1.6,0.6-1.6,1.9v5.1h-2.6V143.5z"/>
		<path fill="#F08921" d="M30.4,151.4L30.4,151.4c0-2.6,1.9-4.8,4.5-4.8c3,0,4.4,2.4,4.4,4.9c0,0.2,0,0.4,0,0.7H33
			c0.3,1.2,1.1,1.8,2.2,1.8c0.9,0,1.5-0.3,2.2-0.9l1.5,1.3c-0.8,1.1-2.1,1.7-3.7,1.7C32.5,156.1,30.4,154.2,30.4,151.4z M36.9,150.6
			c-0.2-1.2-0.8-1.9-1.9-1.9c-1.1,0-1.8,0.8-2,1.9H36.9z"/>
		<path fill="#F08921" d="M41.7,149h-1.1v-2.1h1.1v-0.6c0-1,0.3-1.7,0.7-2.2s1.2-0.7,2.1-0.7c0.8,0,1.4,0.1,1.8,0.3v2.1
			c-0.4-0.1-0.7-0.2-1.2-0.2c-0.6,0-0.9,0.3-0.9,1v0.4h2.1v2.1h-2.1v6.9h-2.6V149z"/>
		<path fill="#F08921" d="M52.3,154.2l1.5-1.9c1.1,0.9,2.2,1.4,3.6,1.4c1.1,0,1.7-0.4,1.7-1.1v0c0-0.7-0.4-1-2.4-1.5
			c-2.4-0.6-3.9-1.3-3.9-3.6v0c0-2.2,1.7-3.6,4.2-3.6c1.7,0,3.2,0.5,4.4,1.5l-1.4,2c-1.1-0.7-2.1-1.2-3.1-1.2c-1,0-1.5,0.5-1.5,1v0
			c0,0.8,0.5,1,2.6,1.6c2.4,0.6,3.8,1.5,3.8,3.6v0c0,2.4-1.8,3.7-4.4,3.7C55.6,156.1,53.8,155.4,52.3,154.2z"/>
		<path fill="#F08921" d="M63.7,152.7v-5.9h2.6v5.1c0,1.2,0.6,1.9,1.6,1.9c1,0,1.6-0.6,1.6-1.9v-5.1h2.6v9.1h-2.6v-1.3
			c-0.6,0.8-1.4,1.5-2.7,1.5C64.8,156.1,63.7,154.8,63.7,152.7z"/>
		<path fill="#F08921" d="M74.4,146.8h2.6v1.3c0.6-0.9,1.5-1.5,2.8-1.5c2.1,0,4.1,1.7,4.1,4.7v0c0,3-2,4.7-4.1,4.7
			c-1.4,0-2.2-0.6-2.8-1.4v3.9h-2.6V146.8z M81.3,151.4L81.3,151.4c0-1.5-1-2.5-2.2-2.5s-2.2,1-2.2,2.5v0c0,1.5,1,2.5,2.2,2.5
			S81.3,152.9,81.3,151.4z"/>
		<path fill="#F08921" d="M85.4,151.4L85.4,151.4c0-2.6,1.9-4.8,4.5-4.8c3,0,4.4,2.4,4.4,4.9c0,0.2,0,0.4,0,0.7H88
			c0.3,1.2,1.1,1.8,2.2,1.8c0.9,0,1.5-0.3,2.2-0.9l1.5,1.3c-0.8,1.1-2.1,1.7-3.7,1.7C87.4,156.1,85.4,154.2,85.4,151.4z M91.8,150.6
			c-0.2-1.2-0.8-1.9-1.9-1.9c-1.1,0-1.8,0.8-2,1.9H91.8z"/>
		<path fill="#F08921" d="M96.3,146.8h2.6v1.8c0.5-1.3,1.4-2.1,2.9-2v2.7h-0.1c-1.7,0-2.8,1-2.8,3.2v3.4h-2.6V146.8z"/>
		<path fill="#F08921" d="M103.4,146.8h2.6v1.3c0.6-0.8,1.4-1.5,2.7-1.5c1.2,0,2.1,0.5,2.6,1.4c0.8-0.9,1.8-1.4,3-1.4
			c1.9,0,3.1,1.2,3.1,3.3v5.9h-2.6v-5.1c0-1.2-0.5-1.9-1.5-1.9s-1.6,0.6-1.6,1.9v5.1H109v-5.1c0-1.2-0.5-1.9-1.5-1.9
			c-1,0-1.6,0.6-1.6,1.9v5.1h-2.6V146.8z"/>
		<path fill="#F08921" d="M119,153.3L119,153.3c0-2,1.5-2.9,3.7-2.9c0.9,0,1.6,0.2,2.2,0.4v-0.2c0-1.1-0.7-1.7-2-1.7
			c-1,0-1.7,0.2-2.5,0.5l-0.6-2c1-0.4,2-0.7,3.5-0.7c1.4,0,2.4,0.4,3.1,1c0.7,0.7,1,1.7,1,2.9v5.3h-2.5v-1c-0.6,0.7-1.5,1.2-2.8,1.2
			C120.4,156.1,119,155.1,119,153.3z M124.9,152.7v-0.5c-0.4-0.2-1-0.3-1.6-0.3c-1.1,0-1.8,0.4-1.8,1.3v0c0,0.7,0.6,1.1,1.4,1.1
			C124.1,154.3,124.9,153.6,124.9,152.7z"/>
		<path fill="#F08921" d="M129.6,146.8h2.6v1.8c0.5-1.3,1.4-2.1,2.9-2v2.7h-0.1c-1.7,0-2.8,1-2.8,3.2v3.4h-2.6V146.8z"/>
		<path fill="#F08921" d="M136.7,143.5h2.6v6.6l3-3.3h3.1l-3.5,3.6l3.6,5.5h-3l-2.4-3.7l-0.9,1v2.8h-2.6V143.5z"/>
		<path fill="#F08921" d="M145.9,151.4L145.9,151.4c0-2.6,1.9-4.8,4.5-4.8c3,0,4.4,2.4,4.4,4.9c0,0.2,0,0.4,0,0.7h-6.3
			c0.3,1.2,1.1,1.8,2.2,1.8c0.9,0,1.5-0.3,2.2-0.9l1.5,1.3c-0.8,1.1-2.1,1.7-3.7,1.7C147.9,156.1,145.9,154.2,145.9,151.4z
			 M152.3,150.6c-0.2-1.2-0.8-1.9-1.9-1.9c-1.1,0-1.8,0.8-2,1.9H152.3z"/>
		<path fill="#F08921" d="M157.2,153.3V149h-1.1v-2.2h1.1v-2.3h2.6v2.3h2.1v2.2h-2.1v3.9c0,0.6,0.3,0.9,0.8,0.9
			c0.5,0,0.9-0.1,1.3-0.3v2.1c-0.5,0.3-1.2,0.5-2,0.5C158.2,156,157.2,155.4,157.2,153.3z"/>
	</g>
</g>
<g>
	<g>
		<path fill="#F08921" d="M138,129.8H31.2c-2.7,0-4.9-2.2-4.9-4.9V19.9c0-2.7,2.2-4.9,4.9-4.9H138c2.7,0,4.9,2.2,4.9,4.9v104.9
			C142.9,127.6,140.7,129.8,138,129.8L138,129.8z M36.1,119.9h97V24.8h-97V119.9L36.1,119.9z"/>
	</g>
	<g>
		<path fill="#F08921" d="M84.8,88.7c-9,0-16.3-7.3-16.3-16.3c0-9,7.3-16.3,16.3-16.3c7.4,0,13.7,5,15.6,11.8h6.3
			C104.6,57.7,95.6,50,84.8,50c-12.3,0-22.4,10-22.4,22.4c0,12.3,10,22.4,22.4,22.4c10.8,0,19.8-7.7,21.9-17.9h-6.3
			C98.4,83.7,92.2,88.7,84.8,88.7"/>
		<path fill="#F08921" d="M73.8,83.4c2.8,2.8,6.7,4.6,11,4.6v-6.5c-2.5,0-4.8-1-6.4-2.6L73.8,83.4z"/>
		<path fill="#F08921" d="M69.2,72.4c0,2.2,0.5,4.3,1.3,6.2l5.9-2.6c-0.5-1.1-0.8-2.3-0.8-3.6c0-5,4-9,9-9v-6.5
			C76.2,56.9,69.2,63.8,69.2,72.4"/>
		<path fill="#F08921" d="M90.4,57.9L88,64c1.9,0.7,3.5,2.1,4.5,3.9h7C98.2,63.3,94.8,59.6,90.4,57.9"/>
		<path fill="#F08921" d="M88,80.8l2.4,6.1c4.4-1.7,7.8-5.4,9.2-10h-7C91.6,78.7,90,80.1,88,80.8"/>
		<path fill="#F08921" d="M56,81.1c-0.1-0.3-0.2-0.7-0.3-1c0,0,0,0,0-0.1c-0.1-0.3-0.2-0.6-0.2-1c0-0.1,0-0.1,0-0.2
			c-0.1-0.3-0.1-0.6-0.2-0.8c0-0.1,0-0.2-0.1-0.4c0-0.2-0.1-0.4-0.1-0.7c0-0.2-0.1-0.4-0.1-0.6c-0.2-1.3-0.3-2.6-0.3-4h-6.1
			c0,1.5,0.1,2.9,0.3,4.4h0c0,0,0,0.1,0,0.1c0,0.4,0.1,0.8,0.2,1.2c0,0.1,0,0.2,0.1,0.3c0.1,0.3,0.1,0.6,0.2,0.9
			c0,0.2,0.1,0.3,0.1,0.5c0.1,0.3,0.1,0.5,0.2,0.8c0.1,0.2,0.1,0.4,0.2,0.7c0,0.2,0.1,0.4,0.1,0.6c0.1,0.3,0.1,0.5,0.2,0.8
			c0,0.1,0.1,0.2,0.1,0.3l0,0c0.4,1.4,0.9,2.8,1.5,4.1l5.6-2.5C56.8,83.4,56.4,82.2,56,81.1z"/>
		<path fill="#F08921" d="M84.8,102.4c-8.3,0-15.8-3.4-21.2-8.8L59.2,98c6.5,6.5,15.6,10.6,25.6,10.6c18.4,0,33.6-13.8,35.9-31.6
			h-6.2C112.2,91.3,99.8,102.4,84.8,102.4"/>
		<path fill="#F08921" d="M84.8,42.4c6.7,0,12.9,2.2,17.9,6l3.7-4.9c-6-4.5-13.5-7.2-21.6-7.2c-15.3,0-28.4,9.6-33.7,23l5.7,2.2
			C61.1,50.3,72,42.4,84.8,42.4"/>
		<path fill="#F08921" d="M114.4,67.9h6.2c-0.7-5.3-2.5-10.3-5.2-14.6l-5.2,3.3C112.3,59.9,113.8,63.8,114.4,67.9"/>
		<path fill="#F08921" d="M107.5,67.9h6.2c-1.6-10.4-8.8-19-18.3-22.8l-2.2,5.7C100.4,53.7,105.9,60.1,107.5,67.9"/>
		<path fill="#F08921" d="M84.8,49.2L84.8,49.2l0-6.1h0c-12.4,0-23,7.7-27.3,18.7l5.7,2.2C66.6,55.4,75,49.2,84.8,49.2"/>
		<path fill="#F08921" d="M61.6,72.4L61.6,72.4l-6.1,0v0c0,12.3,7.6,22.8,18.4,27.2l2.3-5.7C67.6,90.5,61.6,82.1,61.6,72.4"/>
		<path fill="#F08921" d="M84.8,95.5v6.1c14.6,0,26.7-10.7,28.9-24.7h-6.2C105.4,87.5,96,95.5,84.8,95.5"/>
	</g>
</g>
</svg>
