<?xml version="1.0" encoding="utf-8"?>
<!-- Generator: Adobe Illustrator 21.0.0, SVG Export Plug-In . SVG Version: 6.00 Build 0)  -->
<svg version="1.1" id="Layer_1" xmlns="http://www.w3.org/2000/svg" xmlns:xlink="http://www.w3.org/1999/xlink" x="0px" y="0px"
	 viewBox="0 0 169.2 169.2" style="enable-background:new 0 0 169.2 169.2;" xml:space="preserve">
<style type="text/css">
	.st0{fill:#FFFFFF;}
	.st1{fill:#404447;}
</style>
<g>
	<rect y="0" class="st0" width="169.2" height="169.2"/>
	<g>
		<path class="st1" d="M40.6,153.2v-4.6h-1.2v-2.4h1.2v-2.5h2.8v2.5h2.3v2.4h-2.3v4.1c0,0.6,0.3,0.9,0.9,0.9c0.5,0,1-0.1,1.4-0.3
			v2.2c-0.6,0.3-1.2,0.6-2.2,0.6C41.7,156.1,40.6,155.4,40.6,153.2z"/>
		<path class="st1" d="M46.9,151.1L46.9,151.1c0-2.8,2-5.1,4.8-5.1c3.2,0,4.7,2.5,4.7,5.3c0,0.2,0,0.5,0,0.7h-6.8
			c0.3,1.2,1.1,1.9,2.4,1.9c0.9,0,1.6-0.3,2.4-1l1.6,1.4c-0.9,1.1-2.2,1.8-4,1.8C49.1,156.1,46.9,154.1,46.9,151.1z M53.8,150.3
			c-0.2-1.2-0.9-2.1-2-2.1c-1.1,0-1.9,0.8-2.1,2.1H53.8z"/>
		<path class="st1" d="M58.5,146.2h2.8v1.4c0.6-0.8,1.5-1.6,2.9-1.6c1.3,0,2.2,0.6,2.7,1.5c0.9-1,1.9-1.5,3.2-1.5
			c2,0,3.3,1.2,3.3,3.6v6.3h-2.8v-5.4c0-1.3-0.6-2-1.6-2c-1,0-1.7,0.7-1.7,2v5.4h-2.8v-5.4c0-1.3-0.6-2-1.6-2c-1,0-1.7,0.7-1.7,2
			v5.4h-2.8V146.2z"/>
		<path class="st1" d="M75.7,146.2h2.8v1.4c0.7-0.9,1.6-1.6,3-1.6c2.3,0,4.4,1.8,4.4,5v0c0,3.2-2.1,5-4.4,5c-1.5,0-2.4-0.7-3-1.4
			v4.2h-2.8V146.2z M83.1,151.1L83.1,151.1c0-1.6-1.1-2.7-2.4-2.7c-1.3,0-2.4,1.1-2.4,2.7v0c0,1.6,1.1,2.7,2.4,2.7
			C82,153.8,83.1,152.7,83.1,151.1z"/>
		<path class="st1" d="M88,142.7h2.8v13.2H88V142.7z"/>
		<path class="st1" d="M92.8,153.1L92.8,153.1c0-2.2,1.6-3.1,3.9-3.1c1,0,1.7,0.2,2.4,0.4v-0.2c0-1.1-0.7-1.8-2.1-1.8
			c-1.1,0-1.8,0.2-2.7,0.5l-0.7-2.1c1.1-0.5,2.1-0.8,3.8-0.8c1.5,0,2.6,0.4,3.3,1.1c0.7,0.7,1,1.8,1,3.1v5.6h-2.7v-1.1
			c-0.7,0.7-1.6,1.2-2.9,1.2C94.3,156.1,92.8,155,92.8,153.1z M99.1,152.5V152c-0.5-0.2-1.1-0.4-1.8-0.4c-1.2,0-1.9,0.5-1.9,1.3v0
			c0,0.7,0.6,1.2,1.5,1.2C98.3,154.2,99.1,153.5,99.1,152.5z"/>
		<path class="st1" d="M104.5,153.2v-4.6h-1.2v-2.4h1.2v-2.5h2.8v2.5h2.3v2.4h-2.3v4.1c0,0.6,0.3,0.9,0.9,0.9c0.5,0,1-0.1,1.4-0.3
			v2.2c-0.6,0.3-1.2,0.6-2.2,0.6C105.6,156.1,104.5,155.4,104.5,153.2z"/>
		<path class="st1" d="M110.8,151.1L110.8,151.1c0-2.8,2-5.1,4.8-5.1c3.2,0,4.7,2.5,4.7,5.3c0,0.2,0,0.5,0,0.7h-6.8
			c0.3,1.2,1.1,1.9,2.4,1.9c0.9,0,1.6-0.3,2.4-1l1.6,1.4c-0.9,1.1-2.2,1.8-4,1.8C112.9,156.1,110.8,154.1,110.8,151.1z M117.6,150.3
			c-0.2-1.2-0.9-2.1-2-2.1c-1.1,0-1.9,0.8-2.1,2.1H117.6z"/>
		<path class="st1" d="M121.6,154.6l1.2-1.8c1,0.8,2.2,1.2,3.1,1.2c0.8,0,1.2-0.3,1.2-0.7v0c0-0.6-0.9-0.8-2-1.1
			c-1.4-0.4-2.9-1-2.9-2.9v0c0-2,1.6-3.1,3.5-3.1c1.2,0,2.6,0.4,3.6,1.1l-1.1,1.9c-1-0.6-1.9-0.9-2.6-0.9c-0.7,0-1,0.3-1,0.7v0
			c0,0.5,0.9,0.8,2,1.2c1.4,0.5,2.9,1.1,2.9,2.9v0c0,2.2-1.6,3.1-3.7,3.1C124.4,156.1,122.9,155.6,121.6,154.6z"/>
	</g>
</g>
<g>
	<g>
		<g>
			<g>
				<path class="st1" d="M84.4,110.4c-0.2,0-0.4-0.1-0.6-0.2c-0.3-0.2-0.5-0.5-0.5-0.9V87.8c0-0.5,0.3-0.9,0.7-1l12.2-4.6
					c0.3-0.1,0.7-0.1,1,0.1s0.5,0.5,0.5,0.9v21.6c0,0.5-0.3,0.9-0.7,1l-12.2,4.6C84.7,110.4,84.5,110.4,84.4,110.4L84.4,110.4z
					 M85.5,88.5v19.3l10-3.8V84.7L85.5,88.5L85.5,88.5z"/>
			</g>
		</g>
		<g>
			<g>
				<path class="st1" d="M108.9,110.4c-0.1,0-0.3,0-0.4-0.1l-12.2-4.6c-0.4-0.2-0.7-0.6-0.7-1V83.2c0-0.4,0.2-0.7,0.5-0.9
					c0.3-0.2,0.7-0.2,1-0.1l12.2,4.6c0.4,0.2,0.7,0.6,0.7,1v21.6c0,0.4-0.2,0.7-0.5,0.9C109.4,110.4,109.2,110.4,108.9,110.4
					L108.9,110.4z M97.8,104l10,3.8V88.5l-10-3.8V104L97.8,104z"/>
			</g>
		</g>
	</g>
	<g>
		<g>
			<path class="st1" d="M103.1,67.7H71.7c-1.1,0-2-0.9-2-2V47.9c0-1.1,0.9-2,2-2h31.4c1.1,0,2,0.9,2,2v17.7
				C105.1,66.8,104.2,67.7,103.1,67.7L103.1,67.7z M73.8,63.6H101V49.9H73.8V63.6L73.8,63.6z"/>
		</g>
		<g>
			<g>
				<path class="st1" d="M120.3,123.8H50.1c-2.3,0-4.1-1.8-4.1-4.1V31.4c0-2.3,1.8-4.1,4.1-4.1h70.2c2.3,0,4.1,1.8,4.1,4.1v88.3
					C124.4,122,122.6,123.8,120.3,123.8L120.3,123.8z M54.2,115.6h62V35.5h-62L54.2,115.6L54.2,115.6z"/>
			</g>
			<g>
				<path class="st1" d="M57.2,52H42.9c-2.3,0-4.1-1.8-4.1-4.1s1.8-4.1,4.1-4.1h14.3c2.3,0,4.1,1.8,4.1,4.1S59.5,52,57.2,52L57.2,52
					z"/>
			</g>
			<g>
				<path class="st1" d="M57.2,70.3H42.9c-2.3,0-4.1-1.8-4.1-4.1c0-2.3,1.8-4.1,4.1-4.1h14.3c2.3,0,4.1,1.8,4.1,4.1
					C61.3,68.5,59.5,70.3,57.2,70.3L57.2,70.3z"/>
			</g>
			<g>
				<path class="st1" d="M57.2,88.6H42.9c-2.3,0-4.1-1.8-4.1-4.1c0-2.3,1.8-4.1,4.1-4.1h14.3c2.3,0,4.1,1.8,4.1,4.1
					C61.3,86.7,59.5,88.6,57.2,88.6L57.2,88.6z"/>
			</g>
			<g>
				<path class="st1" d="M57.2,106.8H42.9c-2.3,0-4.1-1.8-4.1-4.1c0-2.3,1.8-4.1,4.1-4.1h14.3c2.3,0,4.1,1.8,4.1,4.1
					S59.5,106.8,57.2,106.8L57.2,106.8z"/>
			</g>
		</g>
	</g>
</g>
</svg>
