<?xml version="1.0" encoding="utf-8"?>
<!-- Generator: Adobe Illustrator 19.1.0, SVG Export Plug-In . SVG Version: 6.00 Build 0)  -->
<svg version="1.1" id="Layer_1" xmlns="http://www.w3.org/2000/svg" xmlns:xlink="http://www.w3.org/1999/xlink" x="0px" y="0px"
	 viewBox="0 0 169.2 169.2" enable-background="new 0 0 169.2 169.2" xml:space="preserve">
<g>
	<rect fill="#FFFFFF" width="169.2" height="169.2"/>
	<g>
		<path fill="#404447" d="M58.5,157.8l0.9-2.1c1,0.6,2,0.9,3.3,0.9c1.9,0,2.8-0.9,2.8-2.6v-0.5c-0.8,1-1.7,1.6-3.2,1.6
			c-2.3,0-4.3-1.6-4.3-4.5v0c0-2.9,2.1-4.5,4.3-4.5c1.5,0,2.4,0.6,3.1,1.4v-1.3h2.7v7.5c0,1.7-0.4,3-1.2,3.8
			c-0.9,0.9-2.3,1.3-4.2,1.3C61.2,158.8,59.8,158.5,58.5,157.8z M65.5,150.6L65.5,150.6c0-1.4-1-2.3-2.4-2.3c-1.3,0-2.3,0.9-2.3,2.2
			v0c0,1.3,1,2.2,2.3,2.2C64.5,152.8,65.5,151.9,65.5,150.6z"/>
		<path fill="#404447" d="M70.6,146.2h2.7v1.9c0.6-1.3,1.5-2.2,3.1-2.1v2.9h-0.1c-1.8,0-2.9,1.1-2.9,3.4v3.6h-2.7V146.2z"/>
		<path fill="#404447" d="M77.4,151.1L77.4,151.1c0-2.8,2.2-5.1,5.2-5.1c3,0,5.2,2.2,5.2,5v0c0,2.8-2.2,5-5.2,5
			C79.6,156.1,77.4,153.9,77.4,151.1z M85.2,151.1L85.2,151.1c0-1.5-1-2.7-2.5-2.7c-1.6,0-2.5,1.2-2.5,2.6v0c0,1.4,1,2.7,2.5,2.7
			C84.2,153.8,85.2,152.5,85.2,151.1z"/>
		<path fill="#404447" d="M89.8,152.5v-6.2h2.7v5.4c0,1.3,0.6,2,1.7,2s1.7-0.7,1.7-2v-5.4h2.7v9.7h-2.7v-1.4
			c-0.6,0.8-1.4,1.5-2.8,1.5C91,156.1,89.8,154.7,89.8,152.5z"/>
		<path fill="#404447" d="M101.1,146.2h2.7v1.4c0.7-0.9,1.6-1.6,3-1.6c2.2,0,4.4,1.8,4.4,5v0c0,3.2-2.1,5-4.4,5
			c-1.5,0-2.4-0.7-3-1.4v4.1h-2.7V146.2z M108.5,151.1L108.5,151.1c0-1.6-1.1-2.7-2.4-2.7c-1.3,0-2.3,1.1-2.3,2.7v0
			c0,1.6,1.1,2.7,2.3,2.7C107.4,153.8,108.5,152.7,108.5,151.1z"/>
	</g>
</g>
<g>
	<g>
		<path fill="#404447" d="M69.9,77.2c-9.3,0-16.9-8.4-16.9-18.8c0-10.4,7.6-18.8,16.9-18.8c9.3,0,16.8,8.4,16.8,18.8
			C86.8,68.8,79.2,77.2,69.9,77.2L69.9,77.2z M69.9,47.3c-5,0-9.1,5-9.1,11.1c0,6.1,4.1,11.1,9.1,11.1c5,0,9.1-5,9.1-11.1
			C79,52.3,74.9,47.3,69.9,47.3L69.9,47.3z"/>
	</g>
	<g>
		<path fill="#404447" d="M94.6,119.8h-50c-2,0-3.7-1.6-3.9-3.6L39.7,100c-0.4-6.2,4.2-13.1,10.4-15.4c12.7-4.5,26.6-4.5,39.1,0
			c6.2,2.3,10.8,9.2,10.4,15.4l-1.1,16.1C98.3,118.2,96.6,119.8,94.6,119.8L94.6,119.8z M48.3,112H91l0.8-12.5
			c0.2-2.5-2.2-6.4-5.3-7.6c-10.8-3.9-22.9-3.9-33.8,0c-3.1,1.2-5.4,5.1-5.3,7.6L48.3,112L48.3,112z"/>
	</g>
	<g>
		<path fill="#404447" d="M94.6,119.8h-50c-2,0-3.7-1.6-3.9-3.6L39.7,100c-0.4-6.2,4.2-13.1,10.4-15.4c12.7-4.5,26.6-4.5,39.1,0
			c6.2,2.3,10.8,9.2,10.4,15.4l-1.1,16.1C98.3,118.2,96.6,119.8,94.6,119.8L94.6,119.8z M48.3,112H91l0.8-12.5
			c0.2-2.5-2.2-6.4-5.3-7.6c-10.8-3.9-22.9-3.9-33.8,0c-3.1,1.2-5.4,5.1-5.3,7.6L48.3,112L48.3,112z"/>
	</g>
	<g>
		<path fill="#404447" d="M124.8,119.8h-19.9c-2.1,0-3.9-1.7-3.9-3.9c0-2.1,1.7-3.9,3.9-3.9h16.3l0.7-10.3c0.1-2-1.8-5.1-4.2-6
			c-4.3-1.6-8.9-2.4-13.6-2.5c-2.1,0-3.8-1.8-3.8-3.9c0-2.1,1.8-3.9,3.9-3.8c5.5,0.1,10.9,1.1,16.1,2.9c5.5,2,9.7,8.3,9.3,13.9
			l-1,13.9C128.5,118.2,126.8,119.8,124.8,119.8L124.8,119.8z"/>
	</g>
	<g>
		<path fill="#404447" d="M109.5,81.3c-7.7,0-14-7-14-15.5s6.3-15.5,14-15.5c7.7,0,14,7,14,15.5S117.2,81.3,109.5,81.3L109.5,81.3z
			 M109.5,58c-3.4,0-6.2,3.5-6.2,7.8c0,4.3,2.8,7.8,6.2,7.8c3.4,0,6.2-3.5,6.2-7.8C115.7,61.5,112.9,58,109.5,58L109.5,58z"/>
	</g>
</g>
</svg>
