<?xml version="1.0" encoding="utf-8"?>
<!-- Generator: Adobe Illustrator 19.1.0, SVG Export Plug-In . SVG Version: 6.00 Build 0)  -->
<svg version="1.1" id="Layer_1" xmlns="http://www.w3.org/2000/svg" xmlns:xlink="http://www.w3.org/1999/xlink" x="0px" y="0px"
	 viewBox="0 0 169.2 169.2" enable-background="new 0 0 169.2 169.2" xml:space="preserve">
<g>
	<rect fill="#FFFFFF" width="169.2" height="169.2"/>
	<g>
		<path fill="#404447" d="M42.3,146.2H45v1.4c0.6-0.8,1.5-1.5,2.8-1.5c1.3,0,2.2,0.6,2.7,1.5c0.8-1,1.9-1.5,3.2-1.5
			c2,0,3.3,1.2,3.3,3.5v6.3h-2.7v-5.4c0-1.3-0.6-2-1.6-2s-1.7,0.7-1.7,2v5.4h-2.7v-5.4c0-1.3-0.6-2-1.6-2s-1.7,0.7-1.7,2v5.4h-2.7
			V146.2z"/>
		<path fill="#404447" d="M58.9,151.1L58.9,151.1c0-2.8,2-5.1,4.8-5.1c3.2,0,4.7,2.5,4.7,5.2c0,0.2,0,0.5,0,0.7h-6.7
			c0.3,1.2,1.1,1.9,2.4,1.9c0.9,0,1.6-0.3,2.3-1l1.6,1.4c-0.9,1.1-2.2,1.8-3.9,1.8C61.1,156.1,58.9,154.1,58.9,151.1z M65.7,150.3
			c-0.2-1.2-0.9-2.1-2-2.1c-1.1,0-1.9,0.8-2.1,2.1H65.7z"/>
		<path fill="#404447" d="M70.9,153.2v-4.6h-1.2v-2.3h1.2v-2.5h2.7v2.5h2.3v2.3h-2.3v4.1c0,0.6,0.3,0.9,0.9,0.9c0.5,0,1-0.1,1.4-0.3
			v2.2c-0.6,0.3-1.2,0.6-2.2,0.6C72,156.1,70.9,155.4,70.9,153.2z"/>
		<path fill="#404447" d="M77.3,153.1L77.3,153.1c0-2.1,1.6-3.1,3.9-3.1c1,0,1.7,0.2,2.4,0.4v-0.2c0-1.1-0.7-1.8-2.1-1.8
			c-1,0-1.8,0.2-2.7,0.5l-0.7-2.1c1.1-0.5,2.1-0.8,3.7-0.8c1.5,0,2.6,0.4,3.3,1.1c0.7,0.7,1,1.8,1,3.1v5.6h-2.6v-1
			c-0.7,0.7-1.6,1.2-2.9,1.2C78.8,156.1,77.3,155,77.3,153.1z M83.6,152.5V152c-0.5-0.2-1.1-0.4-1.7-0.4c-1.2,0-1.9,0.5-1.9,1.3v0
			c0,0.7,0.6,1.2,1.5,1.2C82.7,154.2,83.6,153.5,83.6,152.5z"/>
		<path fill="#404447" d="M88.1,151.1L88.1,151.1c0-3.3,2.1-5,4.4-5c1.5,0,2.4,0.7,3,1.4v-4.8h2.7v13.1h-2.7v-1.4
			c-0.7,0.9-1.6,1.6-3,1.6C90.3,156.1,88.1,154.3,88.1,151.1z M95.6,151.1L95.6,151.1c0-1.6-1.1-2.7-2.3-2.7s-2.4,1-2.4,2.7v0
			c0,1.6,1.1,2.7,2.4,2.7S95.6,152.7,95.6,151.1z"/>
		<path fill="#404447" d="M100.1,153.1L100.1,153.1c0-2.1,1.6-3.1,3.9-3.1c1,0,1.7,0.2,2.4,0.4v-0.2c0-1.1-0.7-1.8-2.1-1.8
			c-1,0-1.8,0.2-2.7,0.5l-0.7-2.1c1.1-0.5,2.1-0.8,3.7-0.8c1.5,0,2.6,0.4,3.3,1.1c0.7,0.7,1,1.8,1,3.1v5.6h-2.6v-1
			c-0.7,0.7-1.6,1.2-2.9,1.2C101.6,156.1,100.1,155,100.1,153.1z M106.4,152.5V152c-0.5-0.2-1.1-0.4-1.7-0.4c-1.2,0-1.9,0.5-1.9,1.3
			v0c0,0.7,0.6,1.2,1.5,1.2C105.5,154.2,106.4,153.5,106.4,152.5z"/>
		<path fill="#404447" d="M111.7,153.2v-4.6h-1.2v-2.3h1.2v-2.5h2.7v2.5h2.3v2.3h-2.3v4.1c0,0.6,0.3,0.9,0.9,0.9
			c0.5,0,1-0.1,1.4-0.3v2.2c-0.6,0.3-1.2,0.6-2.2,0.6C112.8,156.1,111.7,155.4,111.7,153.2z"/>
		<path fill="#404447" d="M118.2,153.1L118.2,153.1c0-2.1,1.6-3.1,3.9-3.1c1,0,1.7,0.2,2.4,0.4v-0.2c0-1.1-0.7-1.8-2.1-1.8
			c-1,0-1.8,0.2-2.7,0.5l-0.7-2.1c1.1-0.5,2.1-0.8,3.7-0.8c1.5,0,2.6,0.4,3.3,1.1c0.7,0.7,1,1.8,1,3.1v5.6h-2.6v-1
			c-0.7,0.7-1.6,1.2-2.9,1.2C119.7,156.1,118.2,155,118.2,153.1z M124.4,152.5V152c-0.5-0.2-1.1-0.4-1.7-0.4c-1.2,0-1.9,0.5-1.9,1.3
			v0c0,0.7,0.6,1.2,1.5,1.2C123.6,154.2,124.4,153.5,124.4,152.5z"/>
	</g>
</g>
<g>
	<g>
		<path fill="#404447" d="M125.5,37H43.8c-2.2,0-4-1.8-4-4s1.8-4,4-4h81.7c2.2,0,4,1.8,4,4S127.7,37,125.5,37L125.5,37z"/>
	</g>
	<g>
		<path fill="#404447" d="M125.5,57.7H43.8c-2.2,0-4-1.8-4-4s1.8-4,4-4h81.7c2.2,0,4,1.8,4,4S127.7,57.7,125.5,57.7L125.5,57.7z"/>
	</g>
	<g>
		<path fill="#404447" d="M125.5,78.5H43.8c-2.2,0-4-1.8-4-4c0-2.2,1.8-4,4-4h81.7c2.2,0,4,1.8,4,4
			C129.4,76.7,127.7,78.5,125.5,78.5L125.5,78.5z"/>
	</g>
	<g>
		<path fill="#404447" d="M125.5,99.2H43.8c-2.2,0-4-1.8-4-4c0-2.2,1.8-4,4-4h81.7c2.2,0,4,1.8,4,4
			C129.4,97.5,127.7,99.2,125.5,99.2L125.5,99.2z"/>
	</g>
	<g>
		<path fill="#404447" d="M125.5,120H43.8c-2.2,0-4-1.8-4-4c0-2.2,1.8-4,4-4h81.7c2.2,0,4,1.8,4,4C129.4,118.2,127.7,120,125.5,120
			L125.5,120z"/>
	</g>
</g>
</svg>
