<?xml version="1.0" encoding="utf-8"?>
<!-- Generator: Adobe Illustrator 19.1.0, SVG Export Plug-In . SVG Version: 6.00 Build 0)  -->
<svg version="1.1" id="Layer_1" xmlns="http://www.w3.org/2000/svg" xmlns:xlink="http://www.w3.org/1999/xlink" x="0px" y="0px"
	 viewBox="0 0 169.2 169.2" enable-background="new 0 0 169.2 169.2" xml:space="preserve">
<g>
	<rect fill="#FFFFFF" width="169.2" height="169.2"/>
	<g>
		<path fill="#404447" d="M14.5,146.2h2.9l2.2,6.5l2.2-6.5h2.8l-3.8,9.7h-2.5L14.5,146.2z"/>
		<path fill="#404447" d="M26.3,142.8h2.9v2.4h-2.9V142.8z M26.3,146.2h2.7v9.7h-2.7V146.2z"/>
		<path fill="#404447" d="M31.6,146.2h2.7v1.9c0.6-1.3,1.5-2.2,3.1-2.1v2.9h-0.1c-1.8,0-2.9,1.1-2.9,3.4v3.6h-2.7V146.2z"/>
		<path fill="#404447" d="M39.6,153.2v-4.6h-1.2v-2.3h1.2v-2.5h2.7v2.5h2.3v2.3h-2.3v4.1c0,0.6,0.3,0.9,0.9,0.9c0.5,0,1-0.1,1.4-0.3
			v2.2c-0.6,0.3-1.2,0.6-2.2,0.6C40.8,156.1,39.6,155.4,39.6,153.2z"/>
		<path fill="#404447" d="M46.6,152.5v-6.2h2.7v5.4c0,1.3,0.6,2,1.7,2s1.7-0.7,1.7-2v-5.4h2.7v9.7h-2.7v-1.4
			c-0.6,0.8-1.4,1.5-2.8,1.5C47.8,156.1,46.6,154.7,46.6,152.5z"/>
		<path fill="#404447" d="M57.3,153.1L57.3,153.1c0-2.1,1.6-3.1,3.9-3.1c1,0,1.7,0.2,2.4,0.4v-0.2c0-1.1-0.7-1.8-2.1-1.8
			c-1,0-1.8,0.2-2.7,0.5l-0.7-2.1c1.1-0.5,2.1-0.8,3.7-0.8c1.5,0,2.6,0.4,3.3,1.1c0.7,0.7,1,1.8,1,3.1v5.6h-2.6v-1
			c-0.7,0.7-1.6,1.2-2.9,1.2C58.8,156.1,57.3,155,57.3,153.1z M63.6,152.5V152c-0.5-0.2-1.1-0.4-1.7-0.4c-1.2,0-1.9,0.5-1.9,1.3v0
			c0,0.7,0.6,1.2,1.5,1.2C62.7,154.2,63.6,153.5,63.6,152.5z"/>
		<path fill="#404447" d="M68.6,142.8h2.7v13.1h-2.7V142.8z"/>
		<path fill="#404447" d="M79.3,146.2h2.7v1.4c0.6-0.8,1.5-1.5,2.8-1.5c1.3,0,2.2,0.6,2.7,1.5c0.8-1,1.9-1.5,3.2-1.5
			c2,0,3.3,1.2,3.3,3.5v6.3h-2.7v-5.4c0-1.3-0.6-2-1.6-2s-1.7,0.7-1.7,2v5.4h-2.7v-5.4c0-1.3-0.6-2-1.6-2s-1.7,0.7-1.7,2v5.4h-2.7
			V146.2z"/>
		<path fill="#404447" d="M95.9,153.1L95.9,153.1c0-2.1,1.6-3.1,3.9-3.1c1,0,1.7,0.2,2.4,0.4v-0.2c0-1.1-0.7-1.8-2.1-1.8
			c-1,0-1.8,0.2-2.7,0.5l-0.7-2.1c1.1-0.5,2.1-0.8,3.7-0.8c1.5,0,2.6,0.4,3.3,1.1c0.7,0.7,1,1.8,1,3.1v5.6h-2.6v-1
			c-0.7,0.7-1.6,1.2-2.9,1.2C97.4,156.1,95.9,155,95.9,153.1z M102.1,152.5V152c-0.5-0.2-1.1-0.4-1.7-0.4c-1.2,0-1.9,0.5-1.9,1.3v0
			c0,0.7,0.6,1.2,1.5,1.2C101.3,154.2,102.1,153.5,102.1,152.5z"/>
		<path fill="#404447" d="M106.6,151.1L106.6,151.1c0-2.8,2.1-5.1,5.1-5.1c1.8,0,3,0.6,3.9,1.6l-1.7,1.8c-0.6-0.6-1.2-1.1-2.2-1.1
			c-1.4,0-2.3,1.2-2.3,2.6v0c0,1.5,1,2.7,2.4,2.7c0.9,0,1.5-0.4,2.2-1l1.6,1.6c-0.9,1-2,1.8-3.9,1.8
			C108.8,156.1,106.6,153.9,106.6,151.1z"/>
		<path fill="#404447" d="M117.4,142.8h2.7v4.9c0.6-0.8,1.4-1.5,2.8-1.5c2.1,0,3.3,1.4,3.3,3.6v6.2h-2.7v-5.4c0-1.3-0.6-2-1.7-2
			s-1.7,0.7-1.7,2v5.4h-2.7V142.8z"/>
		<path fill="#404447" d="M128.6,142.8h2.9v2.4h-2.9V142.8z M128.7,146.2h2.7v9.7h-2.7V146.2z"/>
		<path fill="#404447" d="M134,146.2h2.7v1.4c0.6-0.8,1.4-1.5,2.8-1.5c2.1,0,3.3,1.4,3.3,3.6v6.2h-2.7v-5.4c0-1.3-0.6-2-1.7-2
			s-1.7,0.7-1.7,2v5.4H134V146.2z"/>
		<path fill="#404447" d="M144.8,151.1L144.8,151.1c0-2.8,2-5.1,4.8-5.1c3.2,0,4.7,2.5,4.7,5.2c0,0.2,0,0.5,0,0.7h-6.7
			c0.3,1.2,1.1,1.9,2.4,1.9c0.9,0,1.6-0.3,2.3-1l1.6,1.4c-0.9,1.1-2.2,1.8-3.9,1.8C146.9,156.1,144.8,154.1,144.8,151.1z
			 M151.6,150.3c-0.2-1.2-0.9-2.1-2-2.1c-1.1,0-1.9,0.8-2.1,2.1H151.6z"/>
	</g>
</g>
<g>
	<g>
		<path fill="#404447" d="M125.9,125.7H40.7c-2.3,0-4.2-1.9-4.2-4.2v-71c0-2.3,1.9-4.2,4.2-4.2h85.2c2.3,0,4.2,1.9,4.2,4.2v71
			C130.2,123.8,128.3,125.7,125.9,125.7L125.9,125.7z M45,117.2h76.7V54.7H45V117.2L45,117.2z"/>
	</g>
	<g>
		<path fill="#404447" d="M113.2,110.8H53.4c-1.2,0-2.1-0.9-2.1-2.1V63.1c0-1.2,1-2.1,2.1-2.1h59.8c1.2,0,2.1,0.9,2.1,2.1v45.6
			C115.3,109.9,114.4,110.8,113.2,110.8L113.2,110.8z M55.5,106.6h55.6V65.3H55.5V106.6L55.5,106.6z"/>
	</g>
	<g>
		<path fill="#404447" d="M120.5,39.6H46.1c-1.2,0-2.1-0.9-2.1-2.1c0-1.2,1-2.1,2.1-2.1h74.4c1.2,0,2.1,0.9,2.1,2.1
			C122.6,38.7,121.7,39.6,120.5,39.6L120.5,39.6z"/>
	</g>
	<g>
		<path fill="#404447" d="M112,29.7H54.6c-1.2,0-2.1-0.9-2.1-2.1c0-1.2,1-2.1,2.1-2.1H112c1.2,0,2.1,0.9,2.1,2.1
			C114.2,28.7,113.2,29.7,112,29.7L112,29.7z"/>
	</g>
</g>
</svg>
