<?xml version="1.0" encoding="utf-8"?>
<!-- Generator: Adobe Illustrator 19.1.0, SVG Export Plug-In . SVG Version: 6.00 Build 0)  -->
<svg version="1.1" id="Layer_1" xmlns="http://www.w3.org/2000/svg" xmlns:xlink="http://www.w3.org/1999/xlink" x="0px" y="0px"
	 viewBox="0 0 169.2 169.2" enable-background="new 0 0 169.2 169.2" xml:space="preserve">
<g>
	<rect fill="#FFFFFF" width="169.2" height="169.2"/>
	<g>
		<path fill="#404447" d="M10.7,151.1L10.7,151.1c0-3.3,2.1-5,4.4-5c1.5,0,2.4,0.7,3,1.4v-4.8h2.7v13.1h-2.7v-1.4
			c-0.7,0.9-1.6,1.6-3,1.6C12.9,156.1,10.7,154.3,10.7,151.1z M18.2,151.1L18.2,151.1c0-1.6-1.1-2.7-2.3-2.7s-2.4,1-2.4,2.7v0
			c0,1.6,1.1,2.7,2.4,2.7S18.2,152.7,18.2,151.1z"/>
		<path fill="#404447" d="M22.8,151.1L22.8,151.1c0-2.8,2-5.1,4.8-5.1c3.2,0,4.7,2.5,4.7,5.2c0,0.2,0,0.5,0,0.7h-6.7
			c0.3,1.2,1.1,1.9,2.4,1.9c0.9,0,1.6-0.3,2.3-1l1.6,1.4c-0.9,1.1-2.2,1.8-3.9,1.8C25,156.1,22.8,154.1,22.8,151.1z M29.7,150.3
			c-0.2-1.2-0.9-2.1-2-2.1c-1.1,0-1.9,0.8-2.1,2.1H29.7z"/>
		<path fill="#404447" d="M33,146.2h2.9l2.2,6.5l2.2-6.5h2.8l-3.8,9.7h-2.5L33,146.2z"/>
		<path fill="#404447" d="M43.7,151.1L43.7,151.1c0-2.8,2-5.1,4.8-5.1c3.2,0,4.7,2.5,4.7,5.2c0,0.2,0,0.5,0,0.7h-6.7
			c0.3,1.2,1.1,1.9,2.4,1.9c0.9,0,1.6-0.3,2.3-1l1.6,1.4c-0.9,1.1-2.2,1.8-3.9,1.8C45.8,156.1,43.7,154.1,43.7,151.1z M50.5,150.3
			c-0.2-1.2-0.9-2.1-2-2.1c-1.1,0-1.9,0.8-2.1,2.1H50.5z"/>
		<path fill="#404447" d="M55.3,142.7h2.7v13.1h-2.7V142.7z"/>
		<path fill="#404447" d="M60.2,151.1L60.2,151.1c0-2.8,2.2-5.1,5.2-5.1c3,0,5.2,2.2,5.2,5v0c0,2.8-2.2,5-5.2,5
			C62.4,156.1,60.2,153.9,60.2,151.1z M67.9,151.1L67.9,151.1c0-1.5-1-2.7-2.5-2.7c-1.6,0-2.5,1.2-2.5,2.6v0c0,1.4,1,2.7,2.5,2.7
			C67,153.8,67.9,152.5,67.9,151.1z"/>
		<path fill="#404447" d="M72.6,146.2h2.7v1.4c0.7-0.9,1.6-1.6,3-1.6c2.3,0,4.4,1.8,4.4,5v0c0,3.2-2.1,5-4.4,5c-1.5,0-2.4-0.7-3-1.4
			v4.1h-2.7V146.2z M80,151.1L80,151.1c0-1.6-1.1-2.7-2.4-2.7s-2.3,1.1-2.3,2.7v0c0,1.6,1.1,2.7,2.3,2.7S80,152.7,80,151.1z"/>
		<path fill="#404447" d="M84.7,146.2h2.7v1.4c0.6-0.8,1.5-1.5,2.8-1.5c1.3,0,2.2,0.6,2.7,1.5c0.8-1,1.9-1.5,3.2-1.5
			c2,0,3.3,1.2,3.3,3.5v6.3h-2.7v-5.4c0-1.3-0.6-2-1.6-2s-1.7,0.7-1.7,2v5.4h-2.7v-5.4c0-1.3-0.6-2-1.6-2s-1.7,0.7-1.7,2v5.4h-2.7
			V146.2z"/>
		<path fill="#404447" d="M101.4,151.1L101.4,151.1c0-2.8,2-5.1,4.8-5.1c3.2,0,4.7,2.5,4.7,5.2c0,0.2,0,0.5,0,0.7h-6.7
			c0.3,1.2,1.1,1.9,2.4,1.9c0.9,0,1.6-0.3,2.3-1l1.6,1.4c-0.9,1.1-2.2,1.8-3.9,1.8C103.5,156.1,101.4,154.1,101.4,151.1z
			 M108.2,150.3c-0.2-1.2-0.9-2.1-2-2.1c-1.1,0-1.9,0.8-2.1,2.1H108.2z"/>
		<path fill="#404447" d="M112.9,146.2h2.7v1.4c0.6-0.8,1.4-1.5,2.8-1.5c2.1,0,3.3,1.4,3.3,3.6v6.2H119v-5.4c0-1.3-0.6-2-1.7-2
			s-1.7,0.7-1.7,2v5.4h-2.7V146.2z"/>
		<path fill="#404447" d="M124.5,153.2v-4.6h-1.2v-2.3h1.2v-2.5h2.7v2.5h2.3v2.3h-2.3v4.1c0,0.6,0.3,0.9,0.9,0.9
			c0.5,0,1-0.1,1.4-0.3v2.2c-0.6,0.3-1.2,0.6-2.2,0.6C125.7,156.1,124.5,155.4,124.5,153.2z"/>
		<path fill="#404447" d="M137,142.7h2.7v7l3.2-3.5h3.3l-3.7,3.8l3.8,5.9h-3.1l-2.5-3.9l-1,1v2.9H137V142.7z"/>
		<path fill="#404447" d="M147.7,142.7h2.9v2.4h-2.9V142.7z M147.7,146.2h2.7v9.7h-2.7V146.2z"/>
		<path fill="#404447" d="M153.5,153.2v-4.6h-1.2v-2.3h1.2v-2.5h2.7v2.5h2.3v2.3h-2.3v4.1c0,0.6,0.3,0.9,0.9,0.9
			c0.5,0,1-0.1,1.4-0.3v2.2c-0.6,0.3-1.2,0.6-2.2,0.6C154.6,156.1,153.5,155.4,153.5,153.2z"/>
	</g>
</g>
<g>
	<g>
		<g>
			<path fill="#404447" d="M54.2,120.1c-3.1,0-5.8-1.1-7.8-3.1c-4.8-4.8-4-13.3,1.9-19.2l19.1-19.1c1.5-1.5,4-1.5,5.5,0l11.8,11.8
				c0.7,0.7,1.1,1.7,1.1,2.7s-0.4,2-1.1,2.7L65.6,115C62.4,118.2,58.2,120.1,54.2,120.1L54.2,120.1z M70.1,87l-16.3,16.3
				c-3,3-3.4,6.7-1.9,8.2c0.7,0.7,1.7,0.8,2.3,0.8c1.9,0,4.1-1,5.9-2.8l16.3-16.3L70.1,87L70.1,87z"/>
		</g>
		<g>
			<path fill="#404447" d="M117.9,54.9c-2.5,0-4.9-1-6.7-2.8c-3.7-3.7-3.7-9.6,0-13.3l6.5-6.5c1.5-1.5,4-1.5,5.5,0l7.8,7.8
				c0.7,0.7,1.1,1.7,1.1,2.7c0,1-0.4,2-1.1,2.7l-6.5,6.5C122.8,53.9,120.4,54.9,117.9,54.9L117.9,54.9z M120.5,40.5l-3.7,3.7
				c-0.6,0.6-0.6,1.7,0,2.3c0.8,0.8,1.5,0.8,2.3,0l3.7-3.7L120.5,40.5L120.5,40.5z"/>
		</g>
		<g>
			<path fill="#404447" d="M92.7,74.6c-1,0-2-0.4-2.7-1.1c-1.5-1.5-1.5-4,0-5.5l21.3-21.3c1.5-1.5,4-1.5,5.5,0c1.5,1.5,1.5,4,0,5.5
				L95.4,73.4C94.7,74.2,93.7,74.6,92.7,74.6L92.7,74.6z"/>
		</g>
	</g>
	<g>
		<path fill="#404447" d="M111.3,121.7L111.3,121.7c-4,0-7.7-1.6-10.6-4.4L63.6,80.2c-8.1,1.3-16.3-1.4-22.1-7.1
			c-7-7.1-9.3-17.7-5.8-27c0.5-1.2,1.5-2.2,2.8-2.4c1.3-0.3,2.6,0.1,3.6,1l10.5,10.5l5.7-1.5l1.5-5.7L49.2,37.5
			c-0.9-0.9-1.3-2.3-1-3.6c0.3-1.3,1.2-2.3,2.4-2.8c2.9-1.1,5.9-1.6,9-1.6c6.8,0,13.2,2.7,18,7.5c5.8,5.8,8.4,14.1,7.1,22.1
			l37.1,37.1c2.8,2.8,4.4,6.6,4.4,10.6c0,4-1.6,7.7-4.4,10.6C119.1,120.2,115.3,121.7,111.3,121.7L111.3,121.7z M64.9,72.1
			c1,0,2,0.4,2.7,1.1l38.6,38.6c2.7,2.7,7.4,2.7,10.2,0c1.4-1.4,2.1-3.2,2.1-5.1c0-1.9-0.8-3.7-2.1-5.1L77.8,63.1
			c-1-1-1.3-2.4-1-3.7c1.6-6.2-0.2-12.5-4.6-17c-3.3-3.3-7.6-5.1-12.2-5.2l6.8,6.8c1,1,1.4,2.4,1,3.7l-2.7,10
			c-0.4,1.3-1.4,2.4-2.7,2.7l-10,2.7c-1.3,0.4-2.8,0-3.8-1l-6.8-6.8c0.1,4.5,1.9,8.9,5.2,12.2c4.4,4.4,10.9,6.2,17,4.6
			C64.3,72.2,64.6,72.1,64.9,72.1L64.9,72.1z"/>
	</g>
	<path fill="#404447" d="M110.8,102.7c-1.8,0-3.2,1.4-3.2,3.2c0,1.8,1.4,3.2,3.2,3.2c1.8,0,3.2-1.4,3.2-3.2
		C114,104.1,112.6,102.7,110.8,102.7L110.8,102.7z"/>
</g>
</svg>
