<?xml version="1.0" encoding="utf-8"?>
<!-- Generator: Adobe Illustrator 19.1.0, SVG Export Plug-In . SVG Version: 6.00 Build 0)  -->
<svg version="1.1" id="Layer_1" xmlns="http://www.w3.org/2000/svg" xmlns:xlink="http://www.w3.org/1999/xlink" x="0px" y="0px"
	 viewBox="0 0 169.2 169.2" enable-background="new 0 0 169.2 169.2" xml:space="preserve">
<g>
	<rect fill="#FFFFFF" width="169.2" height="169.2"/>
	<g>
		<path fill="#404447" d="M67.4,148.6h-1.1v-2.3h1.1v-0.6c0-1.1,0.3-1.8,0.8-2.3c0.5-0.5,1.2-0.8,2.2-0.8c0.9,0,1.4,0.1,1.9,0.3v2.3
			c-0.4-0.1-0.8-0.2-1.2-0.2c-0.6,0-1,0.3-1,1v0.4h2.2v2.2h-2.2v7.3h-2.7V148.6z"/>
		<path fill="#404447" d="M73.9,142.8h2.9v2.4h-2.9V142.8z M73.9,146.2h2.7v9.7h-2.7V146.2z"/>
		<path fill="#404447" d="M79.4,142.8h2.7v13.1h-2.7V142.8z"/>
		<path fill="#404447" d="M84.2,151.1L84.2,151.1c0-2.8,2-5.1,4.8-5.1c3.2,0,4.7,2.5,4.7,5.2c0,0.2,0,0.5,0,0.7h-6.7
			c0.3,1.2,1.1,1.9,2.4,1.9c0.9,0,1.6-0.3,2.3-1l1.6,1.4c-0.9,1.1-2.2,1.8-3.9,1.8C86.4,156.1,84.2,154.1,84.2,151.1z M91,150.3
			c-0.2-1.2-0.9-2.1-2-2.1c-1.1,0-1.9,0.8-2.1,2.1H91z"/>
		<path fill="#404447" d="M95,154.6l1.2-1.8c1,0.8,2.1,1.2,3,1.2c0.8,0,1.2-0.3,1.2-0.7v0c0-0.6-0.9-0.8-2-1.1
			c-1.3-0.4-2.9-1-2.9-2.9v0c0-2,1.6-3.1,3.5-3.1c1.2,0,2.6,0.4,3.6,1.1l-1,1.9c-1-0.6-1.9-0.9-2.6-0.9c-0.7,0-1,0.3-1,0.7v0
			c0,0.5,0.9,0.8,2,1.2c1.4,0.5,2.9,1.1,2.9,2.9v0c0,2.1-1.6,3.1-3.7,3.1C97.7,156.1,96.2,155.6,95,154.6z"/>
	</g>
</g>
<g>
	<g>
		<g>
			<path fill="#404447" d="M106.1,69.7H74.7c-1.1,0-2-0.9-2-2V49.9c0-1.1,0.9-2,2-2h31.4c1.1,0,2,0.9,2,2v17.7
				C108.1,68.8,107.2,69.7,106.1,69.7L106.1,69.7z M76.8,65.6H104V51.9H76.8V65.6L76.8,65.6z"/>
		</g>
		<g>
			<g>
				<path fill="#404447" d="M123.3,125.8H53.1c-2.3,0-4.1-1.8-4.1-4.1V33.4c0-2.3,1.8-4.1,4.1-4.1h70.2c2.3,0,4.1,1.8,4.1,4.1v88.3
					C127.4,124,125.6,125.8,123.3,125.8L123.3,125.8z M57.2,117.6h62V37.5h-62V117.6L57.2,117.6z"/>
			</g>
			<g>
				<path fill="#404447" d="M60.2,54H45.9c-2.3,0-4.1-1.8-4.1-4.1c0-2.3,1.8-4.1,4.1-4.1h14.3c2.3,0,4.1,1.8,4.1,4.1
					C64.3,52.2,62.5,54,60.2,54L60.2,54z"/>
			</g>
			<g>
				<path fill="#404447" d="M60.2,72.3H45.9c-2.3,0-4.1-1.8-4.1-4.1c0-2.3,1.8-4.1,4.1-4.1h14.3c2.3,0,4.1,1.8,4.1,4.1
					C64.3,70.5,62.5,72.3,60.2,72.3L60.2,72.3z"/>
			</g>
			<g>
				<path fill="#404447" d="M60.2,90.6H45.9c-2.3,0-4.1-1.8-4.1-4.1c0-2.3,1.8-4.1,4.1-4.1h14.3c2.3,0,4.1,1.8,4.1,4.1
					C64.3,88.7,62.5,90.6,60.2,90.6L60.2,90.6z"/>
			</g>
			<g>
				<path fill="#404447" d="M60.2,108.8H45.9c-2.3,0-4.1-1.8-4.1-4.1c0-2.3,1.8-4.1,4.1-4.1h14.3c2.3,0,4.1,1.8,4.1,4.1
					C64.3,107,62.5,108.8,60.2,108.8L60.2,108.8z"/>
			</g>
		</g>
	</g>
	<g>
		<g>
			<g>
				<path fill="#404447" d="M88.6,113c-0.2,0-0.4-0.1-0.6-0.2c-0.3-0.2-0.5-0.5-0.5-0.9V90.7c0-0.4,0.3-0.8,0.7-1l12-4.5
					c0.3-0.1,0.7-0.1,1,0.1c0.3,0.2,0.5,0.5,0.5,0.9v21.3c0,0.4-0.3,0.8-0.7,1L89,113C88.8,113,88.7,113,88.6,113L88.6,113z
					 M89.7,91.4v19l9.9-3.7v-19L89.7,91.4L89.7,91.4z"/>
			</g>
			<g>
				<path fill="#404447" d="M91.1,95.9c-0.2,0-0.4-0.1-0.5-0.3c-0.1-0.3,0-0.6,0.3-0.7l7.2-2.7c0.3-0.1,0.6,0,0.7,0.3
					c0.1,0.3,0,0.6-0.3,0.7l-7.2,2.7C91.2,95.9,91.1,95.9,91.1,95.9L91.1,95.9z"/>
			</g>
			<g>
				<path fill="#404447" d="M91.1,102.8c-0.2,0-0.4-0.1-0.5-0.3c-0.1-0.3,0-0.6,0.3-0.7L98,99c0.3-0.1,0.6,0,0.7,0.3
					c0.1,0.3,0,0.6-0.3,0.7l-7.2,2.7C91.2,102.8,91.1,102.8,91.1,102.8L91.1,102.8z"/>
			</g>
			<g>
				<path fill="#404447" d="M91.1,106.2c-0.2,0-0.4-0.1-0.5-0.3c-0.1-0.3,0-0.6,0.3-0.7l7.2-2.7c0.3-0.1,0.6,0,0.7,0.3
					c0.1,0.3,0,0.6-0.3,0.7l-7.2,2.7C91.2,106.2,91.1,106.2,91.1,106.2L91.1,106.2z"/>
			</g>
			<g>
				<path fill="#404447" d="M91.1,99.3c-0.2,0-0.4-0.1-0.5-0.3c-0.1-0.3,0-0.6,0.3-0.7l7.2-2.7c0.3-0.1,0.6,0,0.7,0.3
					c0.1,0.3,0,0.6-0.3,0.7l-7.2,2.7C91.2,99.3,91.1,99.3,91.1,99.3L91.1,99.3z"/>
			</g>
		</g>
		<g>
			<g>
				<path fill="#404447" d="M108.2,110.8c-0.3,0-0.5-0.2-0.5-0.5v-6.2c0-0.2,0.1-0.3,0.2-0.4c0.1-0.1,0.3-0.1,0.5-0.1l4.4,1.7
					c0.3,0.1,0.4,0.4,0.3,0.7c-0.1,0.3-0.4,0.4-0.7,0.3l-3.7-1.4v5.4C108.7,110.6,108.5,110.8,108.2,110.8L108.2,110.8z"/>
			</g>
			<g>
				<path fill="#404447" d="M108.2,111.4c-0.1,0-0.3,0-0.4-0.1l-7.6-2.9c-0.4-0.2-0.7-0.6-0.7-1V86.2c0-0.4,0.2-0.7,0.5-0.9
					c0.3-0.2,0.7-0.2,1-0.1l12,4.5c0.4,0.2,0.7,0.6,0.7,1l0,15c0,0.3-0.1,0.5-0.3,0.7L109,111C108.8,111.2,108.5,111.4,108.2,111.4
					L108.2,111.4z M101.7,106.7l6.2,2.4l3.6-3.7l0-13.9l-9.9-3.7V106.7L101.7,106.7z"/>
			</g>
			<g>
				<path fill="#404447" d="M110.4,96c-0.1,0-0.1,0-0.2,0l-7.2-2.7c-0.3-0.1-0.4-0.4-0.3-0.7c0.1-0.3,0.4-0.4,0.7-0.3l7.2,2.7
					c0.3,0.1,0.4,0.4,0.3,0.7C110.8,95.8,110.6,96,110.4,96L110.4,96z"/>
			</g>
			<g>
				<path fill="#404447" d="M110.4,102.9c-0.1,0-0.1,0-0.2,0l-7.2-2.7c-0.3-0.1-0.4-0.4-0.3-0.7c0.1-0.3,0.4-0.4,0.7-0.3l7.2,2.7
					c0.3,0.1,0.4,0.4,0.3,0.7C110.8,102.7,110.6,102.9,110.4,102.9L110.4,102.9z"/>
			</g>
			<g>
				<path fill="#404447" d="M110.4,99.4c-0.1,0-0.1,0-0.2,0l-7.2-2.7c-0.3-0.1-0.4-0.4-0.3-0.7c0.1-0.3,0.4-0.4,0.7-0.3l7.2,2.7
					c0.3,0.1,0.4,0.4,0.3,0.7C110.8,99.3,110.6,99.4,110.4,99.4L110.4,99.4z"/>
			</g>
		</g>
	</g>
</g>
</svg>
