<?xml version="1.0" encoding="utf-8"?>
<!-- Generator: Adobe Illustrator 19.1.0, SVG Export Plug-In . SVG Version: 6.00 Build 0)  -->
<svg version="1.1" id="Layer_1" xmlns="http://www.w3.org/2000/svg" xmlns:xlink="http://www.w3.org/1999/xlink" x="0px" y="0px"
	 viewBox="0 0 169.2 169.2" enable-background="new 0 0 169.2 169.2" xml:space="preserve">
<g>
	<rect fill="#FFFFFF" width="169.2" height="169.2"/>
	<g>
		<path fill="#404447" d="M41.2,146.2H44v1.9c0.6-1.3,1.5-2.2,3.1-2.1v2.9h-0.1c-1.8,0-2.9,1.1-2.9,3.4v3.6h-2.7V146.2z"/>
		<path fill="#404447" d="M48,151.1L48,151.1c0-2.8,2-5.1,4.8-5.1c3.2,0,4.7,2.5,4.7,5.2c0,0.2,0,0.5,0,0.7h-6.7
			c0.3,1.2,1.1,1.9,2.4,1.9c0.9,0,1.6-0.3,2.3-1l1.6,1.4c-0.9,1.1-2.2,1.8-3.9,1.8C50.2,156.1,48,154.1,48,151.1z M54.8,150.3
			c-0.2-1.2-0.9-2.1-2-2.1c-1.1,0-1.9,0.8-2.1,2.1H54.8z"/>
		<path fill="#404447" d="M59.1,151.1L59.1,151.1c0-2.8,2.1-5.1,5.1-5.1c1.8,0,3,0.6,3.9,1.6l-1.7,1.8c-0.6-0.6-1.2-1.1-2.2-1.1
			c-1.4,0-2.3,1.2-2.3,2.6v0c0,1.5,1,2.7,2.4,2.7c0.9,0,1.5-0.4,2.2-1l1.6,1.6c-0.9,1-2,1.8-3.9,1.8
			C61.2,156.1,59.1,153.9,59.1,151.1z"/>
		<path fill="#404447" d="M69.9,142.8h2.9v2.4h-2.9V142.8z M69.9,146.2h2.7v9.7h-2.7V146.2z"/>
		<path fill="#404447" d="M75.2,146.2H78v1.4c0.7-0.9,1.6-1.6,3-1.6c2.3,0,4.4,1.8,4.4,5v0c0,3.2-2.1,5-4.4,5c-1.5,0-2.4-0.7-3-1.4
			v4.1h-2.7V146.2z M82.6,151.1L82.6,151.1c0-1.6-1.1-2.7-2.4-2.7c-1.3,0-2.3,1.1-2.3,2.7v0c0,1.6,1.1,2.7,2.3,2.7
			C81.6,153.8,82.6,152.7,82.6,151.1z"/>
		<path fill="#404447" d="M86.9,151.1L86.9,151.1c0-2.8,2-5.1,4.8-5.1c3.2,0,4.7,2.5,4.7,5.2c0,0.2,0,0.5,0,0.7h-6.7
			c0.3,1.2,1.1,1.9,2.4,1.9c0.9,0,1.6-0.3,2.3-1l1.6,1.4c-0.9,1.1-2.2,1.8-3.9,1.8C89.1,156.1,86.9,154.1,86.9,151.1z M93.7,150.3
			c-0.2-1.2-0.9-2.1-2-2.1c-1.1,0-1.9,0.8-2.1,2.1H93.7z"/>
		<path fill="#404447" d="M103.4,151.1L103.4,151.1c0-3.3,2.1-5,4.4-5c1.5,0,2.4,0.7,3,1.4v-4.8h2.7v13.1h-2.7v-1.4
			c-0.7,0.9-1.6,1.6-3,1.6C105.5,156.1,103.4,154.3,103.4,151.1z M110.8,151.1L110.8,151.1c0-1.6-1.1-2.7-2.3-2.7s-2.4,1-2.4,2.7v0
			c0,1.6,1.1,2.7,2.4,2.7S110.8,152.7,110.8,151.1z"/>
		<path fill="#404447" d="M115.2,154.6l1.2-1.8c1,0.8,2.1,1.2,3,1.2c0.8,0,1.2-0.3,1.2-0.7v0c0-0.6-0.9-0.8-2-1.1
			c-1.4-0.4-2.9-1-2.9-2.9v0c0-2,1.6-3.1,3.5-3.1c1.2,0,2.6,0.4,3.6,1.1l-1,1.9c-1-0.6-1.9-0.9-2.6-0.9c-0.7,0-1,0.3-1,0.7v0
			c0,0.5,0.9,0.8,2,1.2c1.4,0.5,2.9,1.1,2.9,2.9v0c0,2.1-1.6,3.1-3.7,3.1C118,156.1,116.5,155.6,115.2,154.6z"/>
		<path fill="#404447" d="M125.1,142.8h2.7v13.1h-2.7V142.8z"/>
	</g>
</g>
<g>
	<path fill="#404447" d="M74.9,30.8c2.8,0,6.2,4.5,9.2,4.5c2.9,0,6.3-4.5,9.2-4.5c0.2,0,0.4,0,0.5,0.1c3,0.7,4.1,6.9,6.8,8.2
		c0.5,0.3,1.2,0.4,1.9,0.4c2,0,4.5-0.8,6.5-0.8c0.9,0,1.7,0.2,2.3,0.6c2.4,1.9,0.7,8,2.6,10.4c1.9,2.4,8.2,2,9.5,4.8
		c1.3,2.7-2.9,7.4-2.2,10.5c0.7,2.9,6.5,5.4,6.5,8.5c0,3.1-5.8,5.6-6.5,8.5c-0.7,3,3.5,7.7,2.2,10.5c-1.3,2.8-7.6,2.4-9.5,4.8
		c-1.9,2.4-0.2,8.5-2.6,10.4c-0.6,0.5-1.4,0.6-2.3,0.6c-2,0-4.5-0.8-6.5-0.8c-0.7,0-1.3,0.1-1.9,0.4c-2.7,1.3-3.8,7.5-6.8,8.2
		c-0.2,0-0.4,0.1-0.5,0.1c-2.8,0-6.2-4.5-9.2-4.5c-2.9,0-6.3,4.5-9.2,4.5c-0.2,0-0.4,0-0.5-0.1c-3-0.7-4.1-6.9-6.8-8.2
		c-0.5-0.3-1.2-0.4-1.9-0.4c-2,0-4.5,0.8-6.5,0.8c-0.9,0-1.7-0.2-2.3-0.6c-2.4-1.9-0.7-8-2.6-10.4c-1.9-2.4-8.2-2-9.5-4.8
		c-1.3-2.7,2.9-7.4,2.2-10.5c-0.7-2.9-6.5-5.4-6.5-8.5c0-3.1,5.8-5.6,6.5-8.5c0.7-3-3.5-7.7-2.2-10.5c1.3-2.8,7.6-2.4,9.5-4.8
		c1.9-2.4,0.2-8.5,2.6-10.4c0.6-0.5,1.4-0.6,2.3-0.6c2,0,4.5,0.8,6.5,0.8c0.7,0,1.3-0.1,1.9-0.4c2.7-1.3,3.8-7.5,6.8-8.2
		C74.5,30.8,74.7,30.8,74.9,30.8 M74.9,22.4c-0.8,0-1.6,0.1-2.4,0.3c-5.1,1.2-7.5,5.3-9,8c-1.3-0.2-2.7-0.4-4.3-0.4
		c-3,0-5.5,0.8-7.6,2.5c-4.1,3.2-4.5,8-4.6,11.1c-3,0.8-7.6,2.3-9.8,7c-2.3,4.7-0.5,9.2,0.6,12c-2.3,2.1-5.8,5.4-5.8,10.6
		c0,5.2,3.5,8.5,5.8,10.6c-1.2,2.8-2.9,7.4-0.6,12c2.2,4.7,6.8,6.1,9.8,7c0.2,3.1,0.6,7.9,4.6,11.1c2.1,1.6,4.6,2.5,7.6,2.5
		c1.5,0,3-0.2,4.3-0.4c1.5,2.7,4,6.9,9.1,8c0.8,0.2,1.6,0.3,2.4,0.3c4,0,7-2,9.2-3.6c2.2,1.6,5.2,3.6,9.2,3.6c0.8,0,1.6-0.1,2.4-0.3
		c5.1-1.1,7.5-5.3,9-8c1.3,0.2,2.7,0.4,4.3,0.4c3,0,5.5-0.8,7.6-2.5c4-3.2,4.5-8,4.6-11.1c3-0.8,7.6-2.3,9.8-7
		c2.3-4.7,0.5-9.2-0.7-12c2.3-2.1,5.8-5.4,5.8-10.6c0-5.2-3.5-8.5-5.8-10.6c1.2-2.8,2.9-7.3,0.7-12c-2.3-4.7-6.8-6.2-9.8-7
		c-0.2-3.1-0.6-7.9-4.6-11.1c-2.1-1.6-4.6-2.5-7.6-2.5c-1.5,0-3,0.2-4.3,0.4c-1.5-2.7-4-6.9-9-8c-0.8-0.2-1.6-0.3-2.4-0.3
		c-4,0-7,2-9.2,3.6C81.8,24.4,78.9,22.4,74.9,22.4L74.9,22.4z"/>
	<g>
		<g>
			<path fill="#404447" d="M67.9,60.9c0-0.9,0.7-1.7,1.7-1.7h29.7c0.9,0,1.7,0.7,1.7,1.7c0,0.9-0.7,1.7-1.7,1.7H69.5
				C68.6,62.6,67.9,61.8,67.9,60.9L67.9,60.9z"/>
		</g>
		<g>
			<path fill="#404447" d="M67.9,68.1c0-0.9,0.7-1.7,1.7-1.7h36.8c0.9,0,1.7,0.7,1.7,1.7c0,0.9-0.7,1.7-1.7,1.7H69.5
				C68.6,69.8,67.9,69,67.9,68.1L67.9,68.1z"/>
		</g>
		<g>
			<path fill="#404447" d="M67.9,81.7c0-0.9,0.7-1.7,1.7-1.7h23.9c0.9,0,1.7,0.7,1.7,1.7s-0.7,1.7-1.7,1.7H69.5
				C68.6,83.4,67.9,82.6,67.9,81.7L67.9,81.7z"/>
		</g>
		<g>
			<path fill="#404447" d="M63.3,96.1c0-0.9,0.7-1.7,1.7-1.7h8.3c0.9,0,1.7,0.7,1.7,1.7c0,0.9-0.7,1.7-1.7,1.7h-8.3
				C64,97.7,63.3,97,63.3,96.1L63.3,96.1z"/>
		</g>
		<g>
			<path fill="#404447" d="M67.9,88.9c0-0.9,0.7-1.7,1.7-1.7h36.8c0.9,0,1.7,0.7,1.7,1.7c0,0.9-0.7,1.7-1.7,1.7H69.5
				C68.6,90.6,67.9,89.8,67.9,88.9L67.9,88.9z"/>
		</g>
		<g>
			<path fill="#404447" d="M63.3,53.6c0-0.9,0.7-1.7,1.7-1.7h8.3c0.9,0,1.7,0.7,1.7,1.7c0,0.9-0.7,1.7-1.7,1.7h-8.3
				C64,55.3,63.3,54.6,63.3,53.6L63.3,53.6z"/>
		</g>
		<g>
			<path fill="#404447" d="M77.5,53.6c0-0.9,0.7-1.7,1.7-1.7h8.3c0.9,0,1.7,0.7,1.7,1.7c0,0.9-0.7,1.7-1.7,1.7h-8.3
				C78.3,55.3,77.5,54.6,77.5,53.6L77.5,53.6z"/>
		</g>
		<g>
			<path fill="#404447" d="M91.8,53.6c0-0.9,0.7-1.7,1.7-1.7h8.3c0.9,0,1.7,0.7,1.7,1.7c0,0.9-0.7,1.7-1.7,1.7h-8.3
				C92.6,55.3,91.8,54.6,91.8,53.6L91.8,53.6z"/>
		</g>
		<g>
			<path fill="#404447" d="M67.9,74.8c0-0.9,0.7-1.7,1.7-1.7h23.9c0.9,0,1.7,0.7,1.7,1.7s-0.7,1.7-1.7,1.7H69.5
				C68.6,76.5,67.9,75.7,67.9,74.8L67.9,74.8z"/>
		</g>
	</g>
</g>
</svg>
