<?xml version="1.0" encoding="utf-8"?>
<!-- Generator: Adobe Illustrator 19.1.0, SVG Export Plug-In . SVG Version: 6.00 Build 0)  -->
<svg version="1.1" id="Layer_1" xmlns="http://www.w3.org/2000/svg" xmlns:xlink="http://www.w3.org/1999/xlink" x="0px" y="0px"
	 viewBox="0 0 169.2 169.2" enable-background="new 0 0 169.2 169.2" xml:space="preserve">
<g>
	<rect fill="#FFFFFF" width="169.2" height="169.2"/>
	<g>
		<path fill="#404447" d="M15.7,146.2h2.7v1.4c0.6-0.8,1.4-1.5,2.8-1.5c2.1,0,3.3,1.4,3.3,3.6v6.2h-2.7v-5.4c0-1.3-0.6-2-1.7-2
			c-1,0-1.7,0.7-1.7,2v5.4h-2.7V146.2z"/>
		<path fill="#404447" d="M26.4,151.1L26.4,151.1c0-2.8,2-5.1,4.8-5.1c3.2,0,4.7,2.5,4.7,5.2c0,0.2,0,0.5,0,0.7h-6.7
			c0.3,1.2,1.1,1.9,2.4,1.9c0.9,0,1.6-0.3,2.3-1l1.6,1.4c-0.9,1.1-2.2,1.8-3.9,1.8C28.6,156.1,26.4,154.1,26.4,151.1z M33.2,150.3
			c-0.2-1.2-0.9-2.1-2-2.1c-1.1,0-1.9,0.8-2.1,2.1H33.2z"/>
		<path fill="#404447" d="M38.4,153.2v-4.6h-1.2v-2.3h1.2v-2.5h2.7v2.5h2.3v2.3h-2.3v4.1c0,0.6,0.3,0.9,0.9,0.9c0.5,0,1-0.1,1.3-0.3
			v2.2c-0.6,0.3-1.2,0.6-2.2,0.6C39.5,156.1,38.4,155.4,38.4,153.2z"/>
		<path fill="#404447" d="M44.6,146.2h2.8l1.5,5.9l1.8-5.9h2.4l1.8,5.9l1.6-5.9h2.7l-3,9.7h-2.5l-1.9-5.9L50,156h-2.4L44.6,146.2z"
			/>
		<path fill="#404447" d="M60,151.1L60,151.1c0-2.8,2.2-5.1,5.2-5.1c3,0,5.2,2.2,5.2,5v0c0,2.8-2.2,5-5.2,5
			C62.2,156.1,60,153.9,60,151.1z M67.7,151.1L67.7,151.1c0-1.5-1-2.7-2.5-2.7c-1.6,0-2.5,1.2-2.5,2.6v0c0,1.4,1,2.7,2.5,2.7
			C66.8,153.8,67.7,152.5,67.7,151.1z"/>
		<path fill="#404447" d="M72.4,146.2h2.7v1.9c0.6-1.3,1.5-2.2,3.1-2.1v2.9h-0.1c-1.8,0-2.9,1.1-2.9,3.4v3.6h-2.7V146.2z"/>
		<path fill="#404447" d="M79.9,142.8h2.7v7l3.2-3.5h3.3l-3.7,3.8l3.8,5.9h-3.1l-2.5-3.9l-1,1v2.9h-2.7V142.8z"/>
		<path fill="#404447" d="M95.5,151.1L95.5,151.1c0-3.3,2.1-5,4.4-5c1.5,0,2.4,0.7,3,1.4v-4.8h2.7v13.1h-2.7v-1.4
			c-0.7,0.9-1.6,1.6-3,1.6C97.7,156.1,95.5,154.3,95.5,151.1z M103,151.1L103,151.1c0-1.6-1.1-2.7-2.3-2.7s-2.4,1-2.4,2.7v0
			c0,1.6,1.1,2.7,2.4,2.7S103,152.7,103,151.1z"/>
		<path fill="#404447" d="M107.7,151.1L107.7,151.1c0-2.8,2-5.1,4.8-5.1c3.2,0,4.7,2.5,4.7,5.2c0,0.2,0,0.5,0,0.7h-6.7
			c0.3,1.2,1.1,1.9,2.4,1.9c0.9,0,1.6-0.3,2.3-1l1.6,1.4c-0.9,1.1-2.2,1.8-3.9,1.8C109.8,156.1,107.7,154.1,107.7,151.1z
			 M114.5,150.3c-0.2-1.2-0.9-2.1-2-2.1c-1.1,0-1.9,0.8-2.1,2.1H114.5z"/>
		<path fill="#404447" d="M117.9,146.2h2.9l2.2,6.5l2.2-6.5h2.8l-3.8,9.7h-2.5L117.9,146.2z"/>
		<path fill="#404447" d="M129.6,142.8h2.9v2.4h-2.9V142.8z M129.6,146.2h2.7v9.7h-2.7V146.2z"/>
		<path fill="#404447" d="M134.5,151.1L134.5,151.1c0-2.8,2.1-5.1,5.1-5.1c1.8,0,3,0.6,3.9,1.6l-1.7,1.8c-0.6-0.6-1.2-1.1-2.2-1.1
			c-1.4,0-2.3,1.2-2.3,2.6v0c0,1.5,1,2.7,2.4,2.7c0.9,0,1.5-0.4,2.2-1l1.6,1.6c-0.9,1-2,1.8-3.9,1.8
			C136.6,156.1,134.5,153.9,134.5,151.1z"/>
		<path fill="#404447" d="M144.5,151.1L144.5,151.1c0-2.8,2-5.1,4.8-5.1c3.2,0,4.7,2.5,4.7,5.2c0,0.2,0,0.5,0,0.7h-6.7
			c0.3,1.2,1.1,1.9,2.4,1.9c0.9,0,1.6-0.3,2.3-1l1.6,1.4c-0.9,1.1-2.2,1.8-3.9,1.8C146.6,156.1,144.5,154.1,144.5,151.1z
			 M151.3,150.3c-0.2-1.2-0.9-2.1-2-2.1c-1.1,0-1.9,0.8-2.1,2.1H151.3z"/>
	</g>
</g>
<g>
	<g>
		<path fill="#404447" d="M127.1,124.1H38.5c-2.2,0-4-1.8-4-4V88.7c0-2.2,1.8-4,4-4h88.6c2.2,0,4,1.8,4,4V120
			C131.1,122.3,129.3,124.1,127.1,124.1L127.1,124.1z M42.5,116h80.6V92.7H42.5V116L42.5,116z"/>
	</g>
	<g>
		<g>
			<path fill="#404447" d="M117.1,78.6c-1.1,0-2.2-0.5-3-1.3c-1.5-1.7-1.3-4.2,0.3-5.7c5.1-4.5,7.8-10.4,7.8-16.7
				c0-6.3-2.8-12.2-7.8-16.7c-1.7-1.5-1.8-4-0.3-5.7c1.5-1.7,4-1.8,5.7-0.3c6.8,6,10.5,14.1,10.5,22.7c0,8.6-3.7,16.7-10.5,22.7
				C119,78.2,118,78.6,117.1,78.6L117.1,78.6z"/>
		</g>
		<g>
			<path fill="#404447" d="M107.9,70.7c-1.1,0-2.2-0.5-3-1.3c-1.5-1.7-1.3-4.2,0.3-5.7c2.7-2.4,4.2-5.6,4.2-8.9s-1.5-6.5-4.2-8.9
				c-1.7-1.5-1.8-4-0.3-5.7c1.5-1.7,4-1.8,5.7-0.3c4.4,4,6.9,9.3,6.9,14.9c0,5.7-2.4,11-6.9,14.9C109.9,70.4,108.9,70.7,107.9,70.7
				L107.9,70.7z"/>
		</g>
		<g>
			<path fill="#404447" d="M77.9,78.6c-1,0-1.9-0.3-2.7-1c-6.8-6-10.5-14.1-10.5-22.7c0-8.6,3.7-16.7,10.5-22.7
				c1.6-1.5,4.2-1.3,5.7,0.3c1.5,1.7,1.3,4.2-0.3,5.7c-5.1,4.5-7.8,10.4-7.8,16.7c0,6.3,2.8,12.2,7.8,16.7c1.7,1.5,1.8,4,0.3,5.7
				C80.1,78.1,79,78.6,77.9,78.6L77.9,78.6z"/>
		</g>
		<g>
			<path fill="#404447" d="M87,70.7c-1,0-1.9-0.3-2.7-1c-4.4-4-6.9-9.2-6.9-14.9c0-5.7,2.4-11,6.9-14.9c1.6-1.5,4.2-1.3,5.7,0.3
				c1.5,1.7,1.3,4.2-0.3,5.7c-2.7,2.4-4.2,5.6-4.2,8.9s1.5,6.5,4.2,8.9c1.7,1.5,1.8,4,0.3,5.7C89.2,70.3,88.1,70.7,87,70.7L87,70.7z
				"/>
		</g>
	</g>
	<path fill="#404447" d="M53.3,99.6c-2.6,0-4.7,2.1-4.7,4.7s2.1,4.7,4.7,4.7c2.6,0,4.7-2.1,4.7-4.7S56,99.6,53.3,99.6L53.3,99.6z"/>
	<path fill="#404447" d="M68.8,99.6c-2.6,0-4.7,2.1-4.7,4.7s2.1,4.7,4.7,4.7c2.6,0,4.7-2.1,4.7-4.7S71.4,99.6,68.8,99.6L68.8,99.6z"
		/>
	<path fill="#404447" d="M84.2,99.6c-2.6,0-4.7,2.1-4.7,4.7s2.1,4.7,4.7,4.7c2.6,0,4.7-2.1,4.7-4.7S86.8,99.6,84.2,99.6L84.2,99.6z"
		/>
	<g>
		<path fill="#404447" d="M97.5,91.5c-2.2,0-4-1.8-4-4V56.7c0-2.2,1.8-4,4-4c2.2,0,4,1.8,4,4v30.8C101.5,89.7,99.7,91.5,97.5,91.5
			L97.5,91.5z"/>
	</g>
</g>
</svg>
