<?xml version="1.0" encoding="utf-8"?>
<!-- Generator: Adobe Illustrator 19.1.0, SVG Export Plug-In . SVG Version: 6.00 Build 0)  -->
<svg version="1.1" id="Layer_1" xmlns="http://www.w3.org/2000/svg" xmlns:xlink="http://www.w3.org/1999/xlink" x="0px" y="0px"
	 viewBox="0 0 169.2 169.2" enable-background="new 0 0 169.2 169.2" xml:space="preserve">
<g>
	<rect fill="#FFFFFF" width="169.2" height="169.2"/>
	<g>
		<path fill="#404447" d="M59.9,151.1L59.9,151.1c0-2.8,2.1-5.1,5.1-5.1c1.8,0,3,0.6,3.9,1.6l-1.7,1.8c-0.6-0.6-1.2-1.1-2.2-1.1
			c-1.4,0-2.3,1.2-2.3,2.6v0c0,1.5,1,2.7,2.4,2.7c0.9,0,1.5-0.4,2.2-1l1.6,1.6c-0.9,1-2,1.8-3.9,1.8C62,156.1,59.9,153.9,59.9,151.1
			z"/>
		<path fill="#404447" d="M70.7,142.8h2.7v13.1h-2.7V142.8z"/>
		<path fill="#404447" d="M75.6,151.1L75.6,151.1c0-2.8,2.2-5.1,5.2-5.1c3,0,5.2,2.2,5.2,5v0c0,2.8-2.2,5-5.2,5
			C77.8,156.1,75.6,153.9,75.6,151.1z M83.3,151.1L83.3,151.1c0-1.5-1-2.7-2.5-2.7c-1.6,0-2.5,1.2-2.5,2.6v0c0,1.4,1,2.7,2.5,2.7
			C82.4,153.8,83.3,152.5,83.3,151.1z"/>
		<path fill="#404447" d="M87.9,152.5v-6.2h2.7v5.4c0,1.3,0.6,2,1.7,2c1,0,1.7-0.7,1.7-2v-5.4h2.7v9.7H94v-1.4
			c-0.6,0.8-1.4,1.5-2.8,1.5C89.1,156.1,87.9,154.7,87.9,152.5z"/>
		<path fill="#404447" d="M98.8,151.1L98.8,151.1c0-3.3,2.1-5,4.4-5c1.5,0,2.4,0.7,3,1.4v-4.8h2.7v13.1h-2.7v-1.4
			c-0.7,0.9-1.6,1.6-3,1.6C100.9,156.1,98.8,154.3,98.8,151.1z M106.2,151.1L106.2,151.1c0-1.6-1.1-2.7-2.3-2.7s-2.4,1-2.4,2.7v0
			c0,1.6,1.1,2.7,2.4,2.7S106.2,152.7,106.2,151.1z"/>
	</g>
</g>
<g>
	<g>
		<path fill="#404447" d="M112.4,104.4h-59c-10.3,0-18.7-8.4-18.7-18.7c0-10.3,8.4-18.7,18.7-18.7h0c0-0.2,0-0.5,0-0.7
			c0-15.4,12.5-27.9,27.9-27.9c12.9,0,23.8,8.7,27,20.8c0.8-0.1,1.7-0.1,2.5-0.1c12.5,0,22.7,10.2,22.7,22.7
			c0,6.4-2.7,12.5-7.5,16.8C122.8,102.1,117.7,104.4,112.4,104.4L112.4,104.4z M53.4,74.8c-5.9,0-10.8,4.8-10.8,10.8
			c0,5.9,4.8,10.8,10.8,10.8h59c3,0,5.9-1.3,8-3.6c3.4-3.1,5.1-7,5.1-11.2c0-8.1-6.6-14.8-14.8-14.8c-1.5,0-3,0.2-4.5,0.7
			c-1.1,0.4-2.4,0.2-3.4-0.5c-1-0.7-1.7-1.7-1.8-2.9c-1-10.2-9.5-17.9-19.8-17.9c-11,0-19.9,8.9-19.9,19.9c0,1.3,0.1,2.6,0.4,3.9
			c0.2,1.2-0.1,2.4-0.8,3.3c-0.8,0.9-1.9,1.5-3.1,1.5H53.4L53.4,74.8z"/>
	</g>
</g>
</svg>
