<?xml version="1.0" encoding="utf-8"?>
<!-- Generator: Adobe Illustrator 19.1.0, SVG Export Plug-In . SVG Version: 6.00 Build 0)  -->
<svg version="1.1" id="Layer_1" xmlns="http://www.w3.org/2000/svg" xmlns:xlink="http://www.w3.org/1999/xlink" x="0px" y="0px"
	 viewBox="0 0 169.2 169.2" enable-background="new 0 0 169.2 169.2" xml:space="preserve">
<g>
	<rect fill="#FFFFFF" width="169.2" height="169.2"/>
	<g>
		<path fill="#404447" d="M57.9,146.2h2.7v1.4c0.7-0.9,1.6-1.6,3-1.6c2.3,0,4.4,1.8,4.4,5v0c0,3.2-2.1,5-4.4,5c-1.5,0-2.4-0.7-3-1.4
			v4.1h-2.7V146.2z M65.3,151.1L65.3,151.1c0-1.6-1.1-2.7-2.4-2.7c-1.3,0-2.3,1.1-2.3,2.7v0c0,1.6,1.1,2.7,2.3,2.7
			C64.2,153.8,65.3,152.7,65.3,151.1z"/>
		<path fill="#404447" d="M69.5,151.1L69.5,151.1c0-2.8,2.2-5.1,5.2-5.1c3,0,5.2,2.2,5.2,5v0c0,2.8-2.2,5-5.2,5
			C71.8,156.1,69.5,153.9,69.5,151.1z M77.3,151.1L77.3,151.1c0-1.5-1-2.7-2.5-2.7c-1.6,0-2.5,1.2-2.5,2.6v0c0,1.4,1,2.7,2.5,2.7
			C76.3,153.8,77.3,152.5,77.3,151.1z"/>
		<path fill="#404447" d="M82.1,142.8h2.7v13.1h-2.7V142.8z"/>
		<path fill="#404447" d="M87.4,142.8h2.9v2.4h-2.9V142.8z M87.5,146.2h2.7v9.7h-2.7V146.2z"/>
		<path fill="#404447" d="M92.4,151.1L92.4,151.1c0-2.8,2.1-5.1,5.1-5.1c1.8,0,3,0.6,3.9,1.6l-1.7,1.8c-0.6-0.6-1.2-1.1-2.2-1.1
			c-1.4,0-2.3,1.2-2.3,2.6v0c0,1.5,1,2.7,2.4,2.7c0.9,0,1.5-0.4,2.2-1l1.6,1.6c-0.9,1-2,1.8-3.9,1.8
			C94.5,156.1,92.4,153.9,92.4,151.1z"/>
		<path fill="#404447" d="M102.9,158.2l0.9-2c0.4,0.2,0.8,0.4,1.2,0.4c0.5,0,0.7-0.1,1-0.6l-3.8-9.7h2.9l2.2,6.6l2.1-6.6h2.8
			l-3.7,9.9c-0.7,2-1.5,2.7-3.2,2.7C104.3,158.8,103.6,158.6,102.9,158.2z"/>
	</g>
</g>
<g>
	<g>
		<path fill="#404447" d="M130.2,124.6H40.4c-2.4,0-4.3-1.9-4.3-4.3V90c0-2.4,1.9-4.3,4.3-4.3h27.8c2.4,0,4.3,1.9,4.3,4.3v6h25.7v-6
			c0-2.4,1.9-4.3,4.3-4.3h27.8c2.4,0,4.3,1.9,4.3,4.3v30.3C134.4,122.6,132.5,124.6,130.2,124.6L130.2,124.6z M44.6,116h81.2V94.3
			h-19.2v1.8c0,4.7-3.8,8.6-8.6,8.6H72.4c-4.7,0-8.6-3.8-8.6-8.6v-1.8H44.6V116L44.6,116z"/>
	</g>
	<g>
		<path fill="#404447" d="M125.4,93.6c-2.4,0-4.3-1.9-4.3-4.3V59.4H50.6v29.9c0,2.4-1.9,4.3-4.3,4.3c-2.4,0-4.3-1.9-4.3-4.3V55.1
			c0-2.4,1.9-4.3,4.3-4.3h79.1c2.4,0,4.3,1.9,4.3,4.3v34.2C129.6,91.7,127.7,93.6,125.4,93.6L125.4,93.6z"/>
	</g>
	<g>
		<path fill="#404447" d="M120.4,46.6H51.3c-1.2,0-2.1-1-2.1-2.1c0-1.2,1-2.1,2.1-2.1h69.1c1.2,0,2.1,1,2.1,2.1
			C122.5,45.6,121.6,46.6,120.4,46.6L120.4,46.6z"/>
	</g>
	<g>
		<path fill="#404447" d="M116.3,38H55.4c-1.2,0-2.1-1-2.1-2.1c0-1.2,1-2.1,2.1-2.1h60.9c1.2,0,2.1,1,2.1,2.1
			C118.4,37.1,117.5,38,116.3,38L116.3,38z"/>
	</g>
</g>
</svg>
