<?xml version="1.0" encoding="utf-8"?>
<!-- Generator: Adobe Illustrator 19.1.0, SVG Export Plug-In . SVG Version: 6.00 Build 0)  -->
<svg version="1.1" id="Layer_1" xmlns="http://www.w3.org/2000/svg" xmlns:xlink="http://www.w3.org/1999/xlink" x="0px" y="0px"
	 viewBox="0 0 169.2 169.2" enable-background="new 0 0 169.2 169.2" xml:space="preserve">
<g>
	<rect fill="#FFFFFF" width="169.2" height="169.2"/>
	<g>
		<path fill="#404447" d="M65.7,151.1L65.7,151.1c0-2.8,2.1-5.1,5.1-5.1c1.8,0,3,0.6,3.9,1.6l-1.7,1.8c-0.6-0.6-1.2-1.1-2.2-1.1
			c-1.4,0-2.3,1.2-2.3,2.6v0c0,1.5,1,2.7,2.4,2.7c0.9,0,1.5-0.4,2.2-1l1.6,1.6c-0.9,1-2,1.8-3.9,1.8
			C67.8,156.1,65.7,153.9,65.7,151.1z"/>
		<path fill="#404447" d="M76.4,142.8h2.7v4.9c0.6-0.8,1.4-1.5,2.8-1.5c2.1,0,3.3,1.4,3.3,3.6v6.2h-2.7v-5.4c0-1.3-0.6-2-1.7-2
			s-1.7,0.7-1.7,2v5.4h-2.7V142.8z"/>
		<path fill="#404447" d="M87.2,151.1L87.2,151.1c0-2.8,2-5.1,4.8-5.1c3.2,0,4.7,2.5,4.7,5.2c0,0.2,0,0.5,0,0.7h-6.7
			c0.3,1.2,1.1,1.9,2.4,1.9c0.9,0,1.6-0.3,2.3-1l1.6,1.4c-0.9,1.1-2.2,1.8-3.9,1.8C89.3,156.1,87.2,154.1,87.2,151.1z M94,150.3
			c-0.2-1.2-0.9-2.1-2-2.1c-1.1,0-1.9,0.8-2.1,2.1H94z"/>
		<path fill="#404447" d="M99.1,148.6H98v-2.3h1.1v-0.6c0-1.1,0.3-1.8,0.8-2.3c0.5-0.5,1.2-0.8,2.2-0.8c0.9,0,1.4,0.1,1.9,0.3v2.3
			c-0.4-0.1-0.8-0.2-1.2-0.2c-0.6,0-1,0.3-1,1v0.4h2.2v2.2h-2.2v7.3h-2.7V148.6z"/>
	</g>
</g>
<g>
	<g>
		<g>
			<path fill="#404447" d="M127.7,122.6H42.5c-2.2,0-3.9-1.8-3.9-3.9V33.5c0-2.2,1.8-3.9,3.9-3.9h85.2c2.2,0,3.9,1.8,3.9,3.9v85.2
				C131.6,120.9,129.9,122.6,127.7,122.6L127.7,122.6z M46.4,114.8h77.4V37.4H46.4V114.8L46.4,114.8z"/>
		</g>
		<g>
			<path fill="#404447" d="M126.3,58.2H43.9c-1.1,0-2-0.9-2-2c0-1.1,0.9-2,2-2h82.4c1.1,0,2,0.9,2,2
				C128.3,57.4,127.4,58.2,126.3,58.2L126.3,58.2z"/>
		</g>
		<path fill="#404447" d="M56.3,41c-2.7,0-4.9,2.2-4.9,4.9c0,2.7,2.2,4.9,4.9,4.9s4.9-2.2,4.9-4.9C61.3,43.3,59.1,41,56.3,41
			L56.3,41z"/>
		<path fill="#404447" d="M69.7,41c-2.7,0-4.9,2.2-4.9,4.9c0,2.7,2.2,4.9,4.9,4.9s4.9-2.2,4.9-4.9C74.6,43.3,72.4,41,69.7,41
			L69.7,41z"/>
		<path fill="#404447" d="M83.1,41c-2.7,0-4.9,2.2-4.9,4.9c0,2.7,2.2,4.9,4.9,4.9c2.7,0,4.9-2.2,4.9-4.9C88,43.3,85.8,41,83.1,41
			L83.1,41z"/>
	</g>
	<g>
		<g>
			<g>
				<path fill="#404447" d="M108.6,102.7h-25c-2.2,0-3.9-1.8-3.9-3.9c0-2.2,1.8-3.9,3.9-3.9h25c2.2,0,3.9,1.8,3.9,3.9
					C112.5,100.9,110.7,102.7,108.6,102.7L108.6,102.7z"/>
			</g>
		</g>
		<g>
			<g>
				<path fill="#404447" d="M61.6,102.7c-1,0-2-0.4-2.8-1.1c-1.5-1.5-1.5-4,0-5.5l11.4-11.4L58.8,73.1c-1.5-1.5-1.5-4,0-5.5
					c1.5-1.5,4-1.5,5.5,0l14.2,14.2c1.5,1.5,1.5,4,0,5.5l-14.2,14.2C63.6,102.3,62.6,102.7,61.6,102.7L61.6,102.7z"/>
			</g>
		</g>
	</g>
</g>
</svg>
