<?xml version="1.0" encoding="utf-8"?>
<!-- Generator: Adobe Illustrator 19.1.0, SVG Export Plug-In . SVG Version: 6.00 Build 0)  -->
<svg version="1.1" id="Layer_1" xmlns="http://www.w3.org/2000/svg" xmlns:xlink="http://www.w3.org/1999/xlink" x="0px" y="0px"
	 viewBox="0 0 169.2 169.2" enable-background="new 0 0 169.2 169.2" xml:space="preserve">
<g>
	<rect fill="#FFFFFF" width="169.2" height="169.2"/>
	<g>
		<path fill="#404447" d="M62.8,143.3h5.8c1.6,0,2.8,0.4,3.7,1.3c0.7,0.7,1.1,1.7,1.1,2.9v0c0,2-1.1,3.3-2.7,3.9l3.1,4.5h-3.2
			l-2.7-4h0h-2.1v4h-2.8V143.3z M68.3,149.4c1.3,0,2.1-0.7,2.1-1.8v0c0-1.2-0.8-1.8-2.2-1.8h-2.8v3.6H68.3z"/>
		<path fill="#404447" d="M75.4,152.5v-6.2h2.7v5.4c0,1.3,0.6,2,1.7,2s1.7-0.7,1.7-2v-5.4h2.7v9.7h-2.7v-1.4
			c-0.6,0.8-1.4,1.5-2.8,1.5C76.6,156.1,75.4,154.7,75.4,152.5z"/>
		<path fill="#404447" d="M89.4,154.6v1.3h-2.7v-13.1h2.7v4.9c0.7-0.9,1.6-1.6,3-1.6c2.2,0,4.4,1.8,4.4,5v0c0,3.2-2.1,5-4.4,5
			C91,156.1,90.1,155.4,89.4,154.6z M94.1,151.1L94.1,151.1c0-1.6-1.1-2.7-2.4-2.7c-1.3,0-2.3,1.1-2.3,2.7v0c0,1.6,1.1,2.7,2.3,2.7
			C93,153.8,94.1,152.7,94.1,151.1z"/>
		<path fill="#404447" d="M98.3,158.2l0.9-2c0.4,0.2,0.8,0.4,1.2,0.4c0.5,0,0.7-0.1,1-0.6l-3.8-9.7h2.9l2.2,6.6l2.1-6.6h2.8
			l-3.7,9.9c-0.7,2-1.5,2.7-3.2,2.7C99.7,158.8,99,158.6,98.3,158.2z"/>
	</g>
</g>
<g>
	<g>
		<path fill="#404447" d="M48.8,111.8c-0.6-0.8-1.2-1.9-1-3l10-70.4c0.3-1.9,2-3.2,3.9-3l27.7,2.7c0.8,0.1,1.6,0.4,2.2,1l30.4,30.4
			c0.6,0.6,0.9,1.4,1,2.2l2.7,27.7c0.2,1.9-1.2,3.6-3.1,3.9l-70.8,9.6C50.7,112.9,49.6,112.6,48.8,111.8L48.8,111.8z M64.4,42.8
			l-8.8,62.3l62.7-8.5l-2.3-23L87.4,45.1L64.4,42.8L64.4,42.8z"/>
	</g>
	<g>
		<path fill="#404447" d="M120.9,101L60.1,40.2c-0.5-0.5-0.7-1.3-0.3-2c0.3-0.7,1-1.1,1.8-1l27.7,2.7c0.4,0,0.8,0.2,1.1,0.5
			l30.4,30.4c0.3,0.3,0.5,0.7,0.5,1.1l2.7,27.7c0.1,0.7-0.3,1.5-1,1.8C122.2,101.6,121.4,101.5,120.9,101L120.9,101z M66.1,41.2
			l53.7,53.7l-2.2-22.1L88.2,43.3L66.1,41.2L66.1,41.2z"/>
	</g>
	<g>
		<path fill="#404447" d="M50,111.1c-0.6-0.6-0.7-1.4-0.3-2.1l37.5-67c0.5-0.9,1.6-1.2,2.4-0.7c0.9,0.5,1.2,1.6,0.7,2.4l-34.4,61.5
			l61.5-34.4c0.9-0.5,1.9-0.2,2.4,0.7c0.5,0.9,0.2,1.9-0.7,2.4l-67,37.5C51.4,111.8,50.5,111.6,50,111.1L50,111.1z"/>
	</g>
	<g>
		<path fill="#404447" d="M90.6,70.5c-0.3-0.3-0.5-0.6-0.5-1.1L87,43c-0.1-1,0.6-1.9,1.6-2c1-0.1,1.9,0.6,2,1.6l2.9,25l25,2.9
			c1,0.1,1.7,1,1.6,2c-0.1,1-1,1.7-2,1.6L91.6,71C91.2,70.9,90.8,70.8,90.6,70.5L90.6,70.5z"/>
	</g>
	<g>
		<path fill="#404447" d="M119.2,98.9c-0.1-0.1-0.2-0.3-0.3-0.4l-18.8-37.7L62.5,42.1c-0.8-0.4-1.1-1.4-0.7-2.2
			c0.4-0.8,1.4-1.1,2.2-0.7l38.1,19c0.3,0.2,0.6,0.4,0.7,0.7l19,38.2c0.4,0.8,0.1,1.8-0.7,2.2C120.5,99.6,119.7,99.4,119.2,98.9
			L119.2,98.9z"/>
	</g>
</g>
</svg>
