<?xml version="1.0" encoding="utf-8"?>
<!-- Generator: Adobe Illustrator 19.1.0, SVG Export Plug-In . SVG Version: 6.00 Build 0)  -->
<svg version="1.1" id="Layer_1" xmlns="http://www.w3.org/2000/svg" xmlns:xlink="http://www.w3.org/1999/xlink" x="0px" y="0px"
	 viewBox="0 0 169.2 169.2" enable-background="new 0 0 169.2 169.2" xml:space="preserve">
<g>
	<rect fill="#FFFFFF" width="169.2" height="169.2"/>
	<g>
		<path fill="#404447" d="M62.7,146.2h2.7v1.4c0.6-0.8,1.4-1.5,2.8-1.5c2.1,0,3.3,1.4,3.3,3.6v6.2h-2.7v-5.4c0-1.3-0.6-2-1.7-2
			c-1,0-1.7,0.7-1.7,2v5.4h-2.7V146.2z"/>
		<path fill="#404447" d="M73.4,151.1L73.4,151.1c0-2.8,2.2-5.1,5.2-5.1c3,0,5.2,2.2,5.2,5v0c0,2.8-2.2,5-5.2,5
			C75.6,156.1,73.4,153.9,73.4,151.1z M81.2,151.1L81.2,151.1c0-1.5-1-2.7-2.5-2.7c-1.6,0-2.5,1.2-2.5,2.6v0c0,1.4,1,2.7,2.5,2.7
			C80.2,153.8,81.2,152.5,81.2,151.1z"/>
		<path fill="#404447" d="M85.4,151.1L85.4,151.1c0-3.3,2.1-5,4.4-5c1.5,0,2.4,0.7,3,1.4v-4.8h2.7v13.1h-2.7v-1.4
			c-0.7,0.9-1.6,1.6-3,1.6C87.5,156.1,85.4,154.3,85.4,151.1z M92.8,151.1L92.8,151.1c0-1.6-1.1-2.7-2.3-2.7s-2.4,1-2.4,2.7v0
			c0,1.6,1.1,2.7,2.4,2.7S92.8,152.7,92.8,151.1z"/>
		<path fill="#404447" d="M97.5,151.1L97.5,151.1c0-2.8,2-5.1,4.8-5.1c3.2,0,4.7,2.5,4.7,5.2c0,0.2,0,0.5,0,0.7h-6.7
			c0.3,1.2,1.1,1.9,2.4,1.9c0.9,0,1.6-0.3,2.3-1l1.6,1.4c-0.9,1.1-2.2,1.8-3.9,1.8C99.7,156.1,97.5,154.1,97.5,151.1z M104.3,150.3
			c-0.2-1.2-0.9-2.1-2-2.1c-1.1,0-1.9,0.8-2.1,2.1H104.3z"/>
	</g>
</g>
<g>
	<path fill="#404447" d="M128.1,122.7H41.9c-2.2,0-4-1.8-4-4V34c0-2.2,1.8-4,4-4h86.3c2.2,0,4,1.8,4,4v84.7
		C132.1,120.9,130.3,122.7,128.1,122.7L128.1,122.7z M45.8,114.8h78.3V38H45.8V114.8L45.8,114.8z"/>
</g>
</svg>
