<?xml version="1.0" encoding="utf-8"?>
<!-- Generator: Adobe Illustrator 19.1.0, SVG Export Plug-In . SVG Version: 6.00 Build 0)  -->
<svg version="1.1" id="Layer_1" xmlns="http://www.w3.org/2000/svg" xmlns:xlink="http://www.w3.org/1999/xlink" x="0px" y="0px"
	 viewBox="0 0 169.2 169.2" enable-background="new 0 0 169.2 169.2" xml:space="preserve">
<g>
	<g>
		<rect fill="#FFFFFF" width="169.2" height="169.2"/>
		<g>
			<path fill="#404447" d="M42.1,151.1L42.1,151.1c0-2.8,2.1-5.1,5.1-5.1c1.8,0,3,0.6,3.9,1.6l-1.7,1.8c-0.6-0.6-1.2-1.1-2.2-1.1
				c-1.4,0-2.3,1.2-2.3,2.6v0c0,1.5,1,2.7,2.4,2.7c0.9,0,1.5-0.4,2.2-1l1.6,1.6c-0.9,1-2,1.8-3.9,1.8
				C44.2,156.1,42.1,153.9,42.1,151.1z"/>
			<path fill="#404447" d="M52.1,151.1L52.1,151.1c0-2.8,2.2-5.1,5.2-5.1c3,0,5.2,2.2,5.2,5v0c0,2.8-2.2,5-5.2,5
				C54.3,156.1,52.1,153.9,52.1,151.1z M59.9,151.1L59.9,151.1c0-1.5-1-2.7-2.5-2.7c-1.6,0-2.5,1.2-2.5,2.6v0c0,1.4,1,2.7,2.5,2.7
				C58.9,153.8,59.9,152.5,59.9,151.1z"/>
			<path fill="#404447" d="M64.5,146.2h2.7v1.4c0.6-0.8,1.4-1.5,2.8-1.5c2.1,0,3.3,1.4,3.3,3.6v6.2h-2.7v-5.4c0-1.3-0.6-2-1.7-2
				c-1,0-1.7,0.7-1.7,2v5.4h-2.7V146.2z"/>
			<path fill="#404447" d="M76.2,153.2v-4.6h-1.2v-2.3h1.2v-2.5h2.7v2.5h2.3v2.3h-2.3v4.1c0,0.6,0.3,0.9,0.9,0.9
				c0.5,0,1-0.1,1.4-0.3v2.2c-0.6,0.3-1.2,0.6-2.2,0.6C77.3,156.1,76.2,155.4,76.2,153.2z"/>
			<path fill="#404447" d="M82.7,153.1L82.7,153.1c0-2.1,1.6-3.1,3.9-3.1c1,0,1.7,0.2,2.4,0.4v-0.2c0-1.1-0.7-1.8-2.1-1.8
				c-1,0-1.8,0.2-2.7,0.5l-0.7-2.1c1.1-0.5,2.1-0.8,3.7-0.8c1.5,0,2.6,0.4,3.3,1.1c0.7,0.7,1,1.8,1,3.1v5.6h-2.6v-1
				c-0.7,0.7-1.6,1.2-2.9,1.2C84.1,156.1,82.7,155,82.7,153.1z M88.9,152.5V152c-0.5-0.2-1.1-0.4-1.7-0.4c-1.2,0-1.9,0.5-1.9,1.3v0
				c0,0.7,0.6,1.2,1.5,1.2C88.1,154.2,88.9,153.5,88.9,152.5z"/>
			<path fill="#404447" d="M93.9,142.8h2.9v2.4h-2.9V142.8z M94,146.2h2.7v9.7H94V146.2z"/>
			<path fill="#404447" d="M99.3,146.2h2.7v1.4c0.6-0.8,1.4-1.5,2.8-1.5c2.1,0,3.3,1.4,3.3,3.6v6.2h-2.7v-5.4c0-1.3-0.6-2-1.7-2
				c-1,0-1.7,0.7-1.7,2v5.4h-2.7V146.2z"/>
			<path fill="#404447" d="M110.1,151.1L110.1,151.1c0-2.8,2-5.1,4.8-5.1c3.2,0,4.7,2.5,4.7,5.2c0,0.2,0,0.5,0,0.7h-6.7
				c0.3,1.2,1.1,1.9,2.4,1.9c0.9,0,1.6-0.3,2.3-1l1.6,1.4c-0.9,1.1-2.2,1.8-3.9,1.8C112.2,156.1,110.1,154.1,110.1,151.1z
				 M116.9,150.3c-0.2-1.2-0.9-2.1-2-2.1c-1.1,0-1.9,0.8-2.1,2.1H116.9z"/>
			<path fill="#404447" d="M121.6,146.2h2.7v1.9c0.6-1.3,1.5-2.2,3.1-2.1v2.9h-0.1c-1.8,0-2.9,1.1-2.9,3.4v3.6h-2.7V146.2z"/>
		</g>
	</g>
	<g>
		<g>
			<path fill="#404447" d="M40.6,69.4c-2.2,0-3.9-1.8-3.9-3.9V34.9c0-2.2,1.8-3.9,3.9-3.9h30.6c2.2,0,3.9,1.8,3.9,3.9
				c0,2.2-1.8,3.9-3.9,3.9H44.5v26.6C44.5,67.7,42.7,69.4,40.6,69.4L40.6,69.4z"/>
		</g>
		<g>
			<path fill="#404447" d="M126.9,69.4c-2.2,0-3.9-1.8-3.9-3.9V38.9H96.3c-2.2,0-3.9-1.8-3.9-3.9c0-2.2,1.8-3.9,3.9-3.9h30.6
				c2.2,0,3.9,1.8,3.9,3.9v30.6C130.9,67.7,129.1,69.4,126.9,69.4L126.9,69.4z"/>
		</g>
		<g>
			<path fill="#404447" d="M71.2,124.8H40.6c-2.2,0-3.9-1.8-3.9-3.9V90.2c0-2.2,1.8-3.9,3.9-3.9c2.2,0,3.9,1.8,3.9,3.9v26.6h26.6
				c2.2,0,3.9,1.8,3.9,3.9S73.3,124.8,71.2,124.8L71.2,124.8z"/>
		</g>
		<g>
			<path fill="#404447" d="M126.9,124.8H96.3c-2.2,0-3.9-1.8-3.9-3.9s1.8-3.9,3.9-3.9H123V90.2c0-2.2,1.8-3.9,3.9-3.9
				c2.2,0,3.9,1.8,3.9,3.9v30.6C130.9,123,129.1,124.8,126.9,124.8L126.9,124.8z"/>
		</g>
	</g>
</g>
</svg>
