<?xml version="1.0" encoding="utf-8"?>
<!-- Generator: Adobe Illustrator 19.1.0, SVG Export Plug-In . SVG Version: 6.00 Build 0)  -->
<svg version="1.1" id="Layer_1" xmlns="http://www.w3.org/2000/svg" xmlns:xlink="http://www.w3.org/1999/xlink" x="0px" y="0px"
	 viewBox="0 0 169.2 169.2" enable-background="new 0 0 169.2 169.2" xml:space="preserve">
<g>
	<rect fill="#FFFFFF" width="169.2" height="169.2"/>
	<g>
		<path fill="#F08921" d="M32.2,149.6L32.2,149.6c0-3.6,2.7-6.6,6.6-6.6c2.4,0,3.8,0.8,5,1.9l-1.8,2c-1-0.9-2-1.4-3.2-1.4
			c-2.1,0-3.7,1.8-3.7,3.9v0c0,2.2,1.5,4,3.7,4c1.4,0,2.3-0.6,3.3-1.5l1.8,1.8c-1.3,1.4-2.7,2.2-5.2,2.2
			C35,156.1,32.2,153.2,32.2,149.6z"/>
		<path fill="#F08921" d="M45.8,142.8h2.7v4.9c0.6-0.8,1.4-1.5,2.8-1.5c2.1,0,3.3,1.4,3.3,3.6v6.2h-2.7v-5.4c0-1.3-0.6-2-1.7-2
			c-1,0-1.7,0.7-1.7,2v5.4h-2.7V142.8z"/>
		<path fill="#F08921" d="M56.5,151.1L56.5,151.1c0-2.8,2-5.1,4.8-5.1c3.2,0,4.7,2.5,4.7,5.2c0,0.2,0,0.5,0,0.7h-6.7
			c0.3,1.2,1.1,1.9,2.4,1.9c0.9,0,1.6-0.3,2.3-1l1.6,1.4c-0.9,1.1-2.2,1.8-3.9,1.8C58.7,156.1,56.5,154.1,56.5,151.1z M63.3,150.3
			c-0.2-1.2-0.9-2.1-2-2.1c-1.1,0-1.9,0.8-2.1,2.1H63.3z"/>
		<path fill="#F08921" d="M68.5,148.6h-1.1v-2.3h1.1v-0.6c0-1.1,0.3-1.8,0.8-2.3s1.2-0.8,2.2-0.8c0.9,0,1.4,0.1,1.9,0.3v2.3
			c-0.4-0.1-0.8-0.2-1.2-0.2c-0.6,0-1,0.3-1,1v0.4h2.2v2.2h-2.2v7.3h-2.7V148.6z"/>
		<path fill="#F08921" d="M79.7,154.1l1.6-2c1.1,0.9,2.3,1.5,3.8,1.5c1.1,0,1.8-0.5,1.8-1.2v0c0-0.7-0.4-1.1-2.5-1.6
			c-2.5-0.6-4.2-1.3-4.2-3.9v0c0-2.3,1.8-3.8,4.4-3.8c1.8,0,3.4,0.6,4.7,1.6l-1.4,2.1c-1.1-0.8-2.2-1.2-3.3-1.2S83,146,83,146.7v0
			c0,0.8,0.5,1.1,2.7,1.7c2.6,0.7,4,1.6,4,3.8v0c0,2.5-1.9,3.9-4.6,3.9C83.2,156.1,81.2,155.4,79.7,154.1z"/>
		<path fill="#F08921" d="M91.3,151.1L91.3,151.1c0-2.8,2-5.1,4.8-5.1c3.2,0,4.7,2.5,4.7,5.2c0,0.2,0,0.5,0,0.7h-6.7
			c0.3,1.2,1.1,1.9,2.4,1.9c0.9,0,1.6-0.3,2.3-1l1.6,1.4c-0.9,1.1-2.2,1.8-3.9,1.8C93.5,156.1,91.3,154.1,91.3,151.1z M98.2,150.3
			c-0.2-1.2-0.9-2.1-2-2.1c-1.1,0-1.9,0.8-2.1,2.1H98.2z"/>
		<path fill="#F08921" d="M102.9,146.2h2.7v1.9c0.6-1.3,1.5-2.2,3.1-2.1v2.9h-0.1c-1.8,0-2.9,1.1-2.9,3.4v3.6h-2.7V146.2z"/>
		<path fill="#F08921" d="M109.5,146.2h2.9l2.2,6.5l2.2-6.5h2.8l-3.8,9.7h-2.5L109.5,146.2z"/>
		<path fill="#F08921" d="M120.2,151.1L120.2,151.1c0-2.8,2-5.1,4.8-5.1c3.2,0,4.7,2.5,4.7,5.2c0,0.2,0,0.5,0,0.7h-6.7
			c0.3,1.2,1.1,1.9,2.4,1.9c0.9,0,1.6-0.3,2.3-1l1.6,1.4c-0.9,1.1-2.2,1.8-3.9,1.8C122.3,156.1,120.2,154.1,120.2,151.1z M127,150.3
			c-0.2-1.2-0.9-2.1-2-2.1c-1.1,0-1.9,0.8-2.1,2.1H127z"/>
		<path fill="#F08921" d="M131.7,146.2h2.7v1.9c0.6-1.3,1.5-2.2,3.1-2.1v2.9h-0.1c-1.8,0-2.9,1.1-2.9,3.4v3.6h-2.7V146.2z"/>
	</g>
</g>
<g>
	<g>
		<path fill="#F08921" d="M139,129.8H32.2c-2.7,0-4.9-2.2-4.9-4.9V19.9c0-2.7,2.2-4.9,4.9-4.9H139c2.7,0,4.9,2.2,4.9,4.9v104.9
			C143.9,127.6,141.7,129.8,139,129.8L139,129.8z M37.1,119.9h97V24.8h-97V119.9L37.1,119.9z"/>
	</g>
	<g>
		<path fill="#F08921" d="M85.8,88.7c-9,0-16.3-7.3-16.3-16.3c0-9,7.3-16.3,16.3-16.3c7.4,0,13.7,5,15.6,11.8h6.3
			C105.6,57.7,96.6,50,85.8,50c-12.3,0-22.4,10-22.4,22.4c0,12.3,10,22.4,22.4,22.4c10.8,0,19.8-7.7,21.9-17.9h-6.3
			C99.4,83.7,93.2,88.7,85.8,88.7"/>
		<path fill="#F08921" d="M74.8,83.4c2.8,2.8,6.7,4.6,11,4.6v-6.5c-2.5,0-4.8-1-6.4-2.6L74.8,83.4z"/>
		<path fill="#F08921" d="M70.2,72.4c0,2.2,0.5,4.3,1.3,6.2l5.9-2.6c-0.5-1.1-0.8-2.3-0.8-3.6c0-5,4-9,9-9v-6.5
			C77.2,56.9,70.2,63.8,70.2,72.4"/>
		<path fill="#F08921" d="M91.4,57.9L89,64c1.9,0.7,3.5,2.1,4.5,3.9h7C99.2,63.3,95.8,59.6,91.4,57.9"/>
		<path fill="#F08921" d="M89,80.8l2.4,6.1c4.4-1.7,7.8-5.4,9.2-10h-7C92.6,78.7,91,80.1,89,80.8"/>
		<path fill="#F08921" d="M57,81.1c-0.1-0.3-0.2-0.7-0.3-1c0,0,0,0,0-0.1c-0.1-0.3-0.2-0.6-0.2-1c0-0.1,0-0.1,0-0.2
			c-0.1-0.3-0.1-0.6-0.2-0.8c0-0.1,0-0.2-0.1-0.4c0-0.2-0.1-0.4-0.1-0.7c0-0.2-0.1-0.4-0.1-0.6c-0.2-1.3-0.3-2.6-0.3-4h-6.1
			c0,1.5,0.1,2.9,0.3,4.4h0c0,0,0,0.1,0,0.1c0,0.4,0.1,0.8,0.2,1.2c0,0.1,0,0.2,0.1,0.3c0.1,0.3,0.1,0.6,0.2,0.9
			c0,0.2,0.1,0.3,0.1,0.5c0.1,0.3,0.1,0.5,0.2,0.8c0.1,0.2,0.1,0.4,0.2,0.7c0,0.2,0.1,0.4,0.1,0.6c0.1,0.3,0.1,0.5,0.2,0.8
			c0,0.1,0.1,0.2,0.1,0.3l0,0c0.4,1.4,0.9,2.8,1.5,4.1l5.6-2.5C57.8,83.4,57.4,82.2,57,81.1z"/>
		<path fill="#F08921" d="M85.8,102.4c-8.3,0-15.8-3.4-21.2-8.8L60.2,98c6.5,6.5,15.6,10.6,25.6,10.6c18.4,0,33.6-13.8,35.9-31.6
			h-6.2C113.2,91.3,100.8,102.4,85.8,102.4"/>
		<path fill="#F08921" d="M85.8,42.4c6.7,0,12.9,2.2,17.9,6l3.7-4.9c-6-4.5-13.5-7.2-21.6-7.2c-15.3,0-28.4,9.6-33.7,23l5.7,2.2
			C62.1,50.3,73,42.4,85.8,42.4"/>
		<path fill="#F08921" d="M115.4,67.9h6.2c-0.7-5.3-2.5-10.3-5.2-14.6l-5.2,3.3C113.3,59.9,114.8,63.8,115.4,67.9"/>
		<path fill="#F08921" d="M108.5,67.9h6.2c-1.6-10.4-8.8-19-18.3-22.8l-2.2,5.7C101.4,53.7,106.9,60.1,108.5,67.9"/>
		<path fill="#F08921" d="M85.8,49.2L85.8,49.2l0-6.1h0c-12.4,0-23,7.7-27.3,18.7l5.7,2.2C67.6,55.4,76,49.2,85.8,49.2"/>
		<path fill="#F08921" d="M62.6,72.4L62.6,72.4l-6.1,0v0c0,12.3,7.6,22.8,18.4,27.2l2.3-5.7C68.6,90.5,62.6,82.1,62.6,72.4"/>
		<path fill="#F08921" d="M85.8,95.5v6.1c14.6,0,26.7-10.7,28.9-24.7h-6.2C106.4,87.5,97,95.5,85.8,95.5"/>
	</g>
</g>
</svg>
