<?xml version="1.0" encoding="utf-8"?>
<!-- Generator: Adobe Illustrator 19.1.0, SVG Export Plug-In . SVG Version: 6.00 Build 0)  -->
<svg version="1.1" id="Layer_1" xmlns="http://www.w3.org/2000/svg" xmlns:xlink="http://www.w3.org/1999/xlink" x="0px" y="0px"
	 viewBox="0 0 169.2 169.2" enable-background="new 0 0 169.2 169.2" xml:space="preserve">
<g>
	<g>
		<rect fill="#FFFFFF" width="169.2" height="169.2"/>
		<g>
			<path fill="#404447" d="M68,146.2h2.7v1.9c0.6-1.3,1.5-2.2,3.1-2.1v2.9h-0.1c-1.8,0-2.9,1.1-2.9,3.4v3.6H68V146.2z"/>
			<path fill="#404447" d="M74.8,151.1L74.8,151.1c0-2.8,2.2-5.1,5.2-5.1c3,0,5.2,2.2,5.2,5v0c0,2.8-2.2,5-5.2,5
				C77,156.1,74.8,153.9,74.8,151.1z M82.5,151.1L82.5,151.1c0-1.5-1-2.7-2.5-2.7c-1.6,0-2.5,1.2-2.5,2.6v0c0,1.4,1,2.7,2.5,2.7
				C81.6,153.8,82.5,152.5,82.5,151.1z"/>
			<path fill="#404447" d="M87.3,142.8h2.7v13.1h-2.7V142.8z"/>
			<path fill="#404447" d="M92.2,151.1L92.2,151.1c0-2.8,2-5.1,4.8-5.1c3.2,0,4.7,2.5,4.7,5.2c0,0.2,0,0.5,0,0.7h-6.7
				c0.3,1.2,1.1,1.9,2.4,1.9c0.9,0,1.6-0.3,2.3-1l1.6,1.4c-0.9,1.1-2.2,1.8-3.9,1.8C94.3,156.1,92.2,154.1,92.2,151.1z M99,150.3
				c-0.2-1.2-0.9-2.1-2-2.1c-1.1,0-1.9,0.8-2.1,2.1H99z"/>
		</g>
	</g>
</g>
<g>
	<g>
		<path fill="#404447" d="M77.5,72.5H40.2c-2.3,0-4.1-1.8-4.1-4.1V31.1c0-2.3,1.8-4.1,4.1-4.1h37.3c2.3,0,4.1,1.8,4.1,4.1v37.3
			C81.6,70.7,79.7,72.5,77.5,72.5L77.5,72.5z M44.3,64.3h29v-29h-29V64.3L44.3,64.3z"/>
	</g>
	<g>
		<path fill="#404447" d="M128.5,72.5H91.2c-2.3,0-4.1-1.8-4.1-4.1V31.1c0-2.3,1.8-4.1,4.1-4.1h37.3c2.3,0,4.1,1.8,4.1,4.1v37.3
			C132.6,70.7,130.8,72.5,128.5,72.5L128.5,72.5z M95.3,64.3h29v-29h-29V64.3L95.3,64.3z"/>
	</g>
	<g>
		<path fill="#404447" d="M77.5,123.6H40.2c-2.3,0-4.1-1.8-4.1-4.1V82.1c0-2.3,1.8-4.1,4.1-4.1h37.3c2.3,0,4.1,1.8,4.1,4.1v37.3
			C81.6,121.7,79.7,123.6,77.5,123.6L77.5,123.6z M44.3,115.3h29v-29h-29V115.3L44.3,115.3z"/>
	</g>
	<g>
		<path fill="#404447" d="M128.5,123.6H91.2c-2.3,0-4.1-1.8-4.1-4.1V82.1c0-2.3,1.8-4.1,4.1-4.1h37.3c2.3,0,4.1,1.8,4.1,4.1v37.3
			C132.6,121.7,130.8,123.6,128.5,123.6L128.5,123.6z M95.3,115.3h29v-29h-29V115.3L95.3,115.3z"/>
	</g>
</g>
</svg>
