<?xml version="1.0" encoding="utf-8"?>
<!-- Generator: Adobe Illustrator 19.1.0, SVG Export Plug-In . SVG Version: 6.00 Build 0)  -->
<svg version="1.1" id="Layer_1" xmlns="http://www.w3.org/2000/svg" xmlns:xlink="http://www.w3.org/1999/xlink" x="0px" y="0px"
	 viewBox="0 0 169.2 169.2" enable-background="new 0 0 169.2 169.2" xml:space="preserve">
<g>
	<rect fill="#FFFFFF" width="169.2" height="169.2"/>
	<g>
		<path fill="#404447" d="M44.8,151.1L44.8,151.1c0-3.3,2.1-5,4.4-5c1.5,0,2.4,0.7,3,1.4v-4.8h2.7v13.1h-2.7v-1.4
			c-0.7,0.9-1.6,1.6-3,1.6C47,156.1,44.8,154.3,44.8,151.1z M52.2,151.1L52.2,151.1c0-1.6-1.1-2.7-2.3-2.7s-2.4,1-2.4,2.7v0
			c0,1.6,1.1,2.7,2.4,2.7S52.2,152.7,52.2,151.1z"/>
		<path fill="#404447" d="M56.8,153.1L56.8,153.1c0-2.1,1.6-3.1,3.9-3.1c1,0,1.7,0.2,2.4,0.4v-0.2c0-1.1-0.7-1.8-2.1-1.8
			c-1,0-1.8,0.2-2.7,0.5l-0.7-2.1c1.1-0.5,2.1-0.8,3.7-0.8c1.5,0,2.6,0.4,3.3,1.1c0.7,0.7,1,1.8,1,3.1v5.6H63v-1
			c-0.7,0.7-1.6,1.2-2.9,1.2C58.3,156.1,56.8,155,56.8,153.1z M63.1,152.5V152c-0.5-0.2-1.1-0.4-1.7-0.4c-1.2,0-1.9,0.5-1.9,1.3v0
			c0,0.7,0.6,1.2,1.5,1.2C62.2,154.2,63.1,153.5,63.1,152.5z"/>
		<path fill="#404447" d="M68.4,153.2v-4.6h-1.2v-2.3h1.2v-2.5h2.7v2.5h2.3v2.3h-2.3v4.1c0,0.6,0.3,0.9,0.9,0.9c0.5,0,1-0.1,1.4-0.3
			v2.2c-0.6,0.3-1.2,0.6-2.2,0.6C69.5,156.1,68.4,155.4,68.4,153.2z"/>
		<path fill="#404447" d="M74.9,153.1L74.9,153.1c0-2.1,1.6-3.1,3.9-3.1c1,0,1.7,0.2,2.4,0.4v-0.2c0-1.1-0.7-1.8-2.1-1.8
			c-1,0-1.8,0.2-2.7,0.5l-0.7-2.1c1.1-0.5,2.1-0.8,3.7-0.8c1.5,0,2.6,0.4,3.3,1.1c0.7,0.7,1,1.8,1,3.1v5.6h-2.6v-1
			c-0.7,0.7-1.6,1.2-2.9,1.2C76.3,156.1,74.9,155,74.9,153.1z M81.1,152.5V152c-0.5-0.2-1.1-0.4-1.7-0.4c-1.2,0-1.9,0.5-1.9,1.3v0
			c0,0.7,0.6,1.2,1.5,1.2C80.3,154.2,81.1,153.5,81.1,152.5z"/>
		<path fill="#404447" d="M94.2,154.6v1.3h-2.7v-13.1h2.7v4.9c0.7-0.9,1.6-1.6,3-1.6c2.2,0,4.4,1.8,4.4,5v0c0,3.2-2.1,5-4.4,5
			C95.8,156.1,94.9,155.4,94.2,154.6z M98.9,151.1L98.9,151.1c0-1.6-1.1-2.7-2.4-2.7c-1.3,0-2.3,1.1-2.3,2.7v0
			c0,1.6,1.1,2.7,2.3,2.7C97.8,153.8,98.9,152.7,98.9,151.1z"/>
		<path fill="#404447" d="M103.1,153.1L103.1,153.1c0-2.1,1.6-3.1,3.9-3.1c1,0,1.7,0.2,2.4,0.4v-0.2c0-1.1-0.7-1.8-2.1-1.8
			c-1,0-1.8,0.2-2.7,0.5l-0.7-2.1c1.1-0.5,2.1-0.8,3.7-0.8c1.5,0,2.6,0.4,3.3,1.1c0.7,0.7,1,1.8,1,3.1v5.6h-2.6v-1
			c-0.7,0.7-1.6,1.2-2.9,1.2C104.6,156.1,103.1,155,103.1,153.1z M109.3,152.5V152c-0.5-0.2-1.1-0.4-1.7-0.4c-1.2,0-1.9,0.5-1.9,1.3
			v0c0,0.7,0.6,1.2,1.5,1.2C108.5,154.2,109.3,153.5,109.3,152.5z"/>
		<path fill="#404447" d="M114.3,157.8l0.9-2.1c1,0.6,2,0.9,3.3,0.9c1.9,0,2.8-0.9,2.8-2.6v-0.5c-0.8,1-1.7,1.6-3.2,1.6
			c-2.3,0-4.3-1.6-4.3-4.5v0c0-2.9,2.1-4.5,4.3-4.5c1.5,0,2.4,0.6,3.1,1.4v-1.3h2.7v7.5c0,1.7-0.4,3-1.2,3.8
			c-0.9,0.9-2.3,1.3-4.2,1.3C117,158.8,115.6,158.5,114.3,157.8z M121.3,150.6L121.3,150.6c0-1.4-1-2.3-2.4-2.3
			c-1.3,0-2.3,0.9-2.3,2.2v0c0,1.3,1,2.2,2.3,2.2C120.3,152.8,121.3,151.9,121.3,150.6z"/>
	</g>
</g>
<g>
	<g>
		<path fill="#404447" d="M126.6,123.6h-82c-4.9,0-8.8-4-8.8-8.8V57.4c0-4.9,4-8.8,8.8-8.8h82c4.9,0,8.8,4,8.8,8.8v57.3
			C135.4,119.6,131.4,123.6,126.6,123.6L126.6,123.6z M44.5,57c-0.2,0-0.4,0.2-0.4,0.4v57.3c0,0.2,0.2,0.4,0.4,0.4h82
			c0.2,0,0.4-0.2,0.4-0.4V57.4c0-0.2-0.2-0.4-0.4-0.4H44.5L44.5,57z"/>
	</g>
	<g>
		<path fill="#404447" d="M102.4,56.6c-2.3,0-4.2-1.9-4.2-4.2V42c0-0.2-0.2-0.4-0.5-0.4H73.4c-0.2,0-0.4,0.2-0.4,0.4v10.4
			c0,2.3-1.9,4.2-4.2,4.2c-2.3,0-4.2-1.9-4.2-4.2V42c0-4.9,4-8.8,8.8-8.8h24.4c4.9,0,8.8,4,8.8,8.8v10.4
			C106.6,54.7,104.7,56.6,102.4,56.6L102.4,56.6z"/>
	</g>
	<g>
		<path fill="#404447" d="M76.5,82.4H41.6c-1.2,0-2.1-0.9-2.1-2.1c0-1.2,0.9-2.1,2.1-2.1h34.8c1.2,0,2.1,0.9,2.1,2.1
			C78.6,81.4,77.6,82.4,76.5,82.4L76.5,82.4z"/>
	</g>
	<g>
		<path fill="#404447" d="M128,82.4H93.2c-1.2,0-2.1-0.9-2.1-2.1c0-1.2,0.9-2.1,2.1-2.1H128c1.2,0,2.1,0.9,2.1,2.1
			C130.1,81.4,129.2,82.4,128,82.4L128,82.4z"/>
	</g>
	<g>
		<path fill="#404447" d="M91.4,94H79.7c-1.2,0-2.1-0.9-2.1-2.1V74.5c0-1.2,0.9-2.1,2.1-2.1h11.6c1.2,0,2.1,0.9,2.1,2.1v17.4
			C93.5,93,92.5,94,91.4,94L91.4,94z M81.8,89.8h7.4V76.6h-7.4V89.8L81.8,89.8z"/>
	</g>
</g>
</svg>
