<?xml version="1.0" encoding="utf-8"?>
<!-- Generator: Adobe Illustrator 19.1.0, SVG Export Plug-In . SVG Version: 6.00 Build 0)  -->
<svg version="1.1" id="Layer_1" xmlns="http://www.w3.org/2000/svg" xmlns:xlink="http://www.w3.org/1999/xlink" x="0px" y="0px"
	 viewBox="0 0 169.2 169.2" enable-background="new 0 0 169.2 169.2" xml:space="preserve">
<g>
	<rect fill="#FFFFFF" width="169.2" height="169.2"/>
	<g>
		<path fill="#404447" d="M27.7,151.1L27.7,151.1c0-2.8,2-5.1,4.8-5.1c3.2,0,4.7,2.5,4.7,5.2c0,0.2,0,0.5,0,0.7h-6.7
			c0.3,1.2,1.1,1.9,2.4,1.9c0.9,0,1.6-0.3,2.3-1l1.6,1.4c-0.9,1.1-2.2,1.8-3.9,1.8C29.8,156.1,27.7,154.1,27.7,151.1z M34.5,150.3
			c-0.2-1.2-0.9-2.1-2-2.1c-1.1,0-1.9,0.8-2.1,2.1H34.5z"/>
		<path fill="#404447" d="M39.2,146.2h2.7v1.4c0.6-0.8,1.4-1.5,2.8-1.5c2.1,0,3.3,1.4,3.3,3.6v6.2h-2.7v-5.4c0-1.3-0.6-2-1.7-2
			c-1,0-1.7,0.7-1.7,2v5.4h-2.7V146.2z"/>
		<path fill="#404447" d="M49.2,146.2h2.9l2.2,6.5l2.2-6.5h2.8l-3.8,9.7H53L49.2,146.2z"/>
		<path fill="#404447" d="M60.9,142.8h2.9v2.4h-2.9V142.8z M61,146.2h2.7v9.7H61V146.2z"/>
		<path fill="#404447" d="M66.3,146.2H69v1.9c0.6-1.3,1.5-2.2,3.1-2.1v2.9H72c-1.8,0-2.9,1.1-2.9,3.4v3.6h-2.7V146.2z"/>
		<path fill="#404447" d="M73.1,151.1L73.1,151.1c0-2.8,2.2-5.1,5.2-5.1c3,0,5.2,2.2,5.2,5v0c0,2.8-2.2,5-5.2,5
			C75.3,156.1,73.1,153.9,73.1,151.1z M80.8,151.1L80.8,151.1c0-1.5-1-2.7-2.5-2.7c-1.6,0-2.5,1.2-2.5,2.6v0c0,1.4,1,2.7,2.5,2.7
			C79.9,153.8,80.8,152.5,80.8,151.1z"/>
		<path fill="#404447" d="M85.5,146.2h2.7v1.4c0.6-0.8,1.4-1.5,2.8-1.5c2.1,0,3.3,1.4,3.3,3.6v6.2h-2.7v-5.4c0-1.3-0.6-2-1.7-2
			c-1,0-1.7,0.7-1.7,2v5.4h-2.7V146.2z"/>
		<path fill="#404447" d="M96.7,146.2h2.7v1.4c0.6-0.8,1.5-1.5,2.8-1.5c1.3,0,2.2,0.6,2.7,1.5c0.8-1,1.9-1.5,3.2-1.5
			c2,0,3.3,1.2,3.3,3.5v6.3h-2.7v-5.4c0-1.3-0.6-2-1.6-2c-1,0-1.7,0.7-1.7,2v5.4h-2.7v-5.4c0-1.3-0.6-2-1.6-2s-1.7,0.7-1.7,2v5.4
			h-2.7V146.2z"/>
		<path fill="#404447" d="M113.3,151.1L113.3,151.1c0-2.8,2-5.1,4.8-5.1c3.2,0,4.7,2.5,4.7,5.2c0,0.2,0,0.5,0,0.7h-6.7
			c0.3,1.2,1.1,1.9,2.4,1.9c0.9,0,1.6-0.3,2.3-1l1.6,1.4c-0.9,1.1-2.2,1.8-3.9,1.8C115.5,156.1,113.3,154.1,113.3,151.1z
			 M120.1,150.3c-0.2-1.2-0.9-2.1-2-2.1c-1.1,0-1.9,0.8-2.1,2.1H120.1z"/>
		<path fill="#404447" d="M124.8,146.2h2.7v1.4c0.6-0.8,1.4-1.5,2.8-1.5c2.1,0,3.3,1.4,3.3,3.6v6.2h-2.7v-5.4c0-1.3-0.6-2-1.7-2
			c-1,0-1.7,0.7-1.7,2v5.4h-2.7V146.2z"/>
		<path fill="#404447" d="M136.5,153.2v-4.6h-1.2v-2.3h1.2v-2.5h2.7v2.5h2.3v2.3h-2.3v4.1c0,0.6,0.3,0.9,0.9,0.9
			c0.5,0,1-0.1,1.4-0.3v2.2c-0.6,0.3-1.2,0.6-2.2,0.6C137.6,156.1,136.5,155.4,136.5,153.2z"/>
	</g>
</g>
<g>
	<g>
		<path fill="#404447" d="M131.6,123.6H41c-2.5,0-4.5-2-4.5-4.5V28.5c0-2.5,2-4.5,4.5-4.5h90.6c2.5,0,4.5,2,4.5,4.5v90.6
			C136.1,121.6,134.1,123.6,131.6,123.6L131.6,123.6z M45.5,114.6h81.7V33H45.5V114.6L45.5,114.6z"/>
	</g>
	<g>
		<path fill="#404447" d="M130.1,76H42.5c-1.2,0-2.2-1-2.2-2.2s1-2.2,2.2-2.2h87.6c1.2,0,2.2,1,2.2,2.2S131.4,76,130.1,76L130.1,76z
			"/>
	</g>
	<g>
		<path fill="#404447" d="M86.3,119.8c-1.2,0-2.2-1-2.2-2.2V30c0-1.2,1-2.2,2.2-2.2c1.2,0,2.2,1,2.2,2.2v87.6
			C88.6,118.8,87.6,119.8,86.3,119.8L86.3,119.8z"/>
	</g>
</g>
</svg>
