<?xml version="1.0" encoding="utf-8"?>
<!-- Generator: Adobe Illustrator 19.1.0, SVG Export Plug-In . SVG Version: 6.00 Build 0)  -->
<svg version="1.1" id="Layer_1" xmlns="http://www.w3.org/2000/svg" xmlns:xlink="http://www.w3.org/1999/xlink" x="0px" y="0px"
	 viewBox="0 0 169.2 169.2" enable-background="new 0 0 169.2 169.2" xml:space="preserve">
<g>
	<rect fill="#FFFFFF" width="169.2" height="169.2"/>
	<g>
		<path fill="#404447" d="M50.5,143.3h3l3.3,5.3l3.3-5.3h3v12.6h-2.8v-8.2l-3.5,5.4h-0.1l-3.5-5.3v8.2h-2.7V143.3z"/>
		<path fill="#404447" d="M65.2,153.1L65.2,153.1c0-2.1,1.6-3.1,3.9-3.1c1,0,1.7,0.2,2.4,0.4v-0.2c0-1.1-0.7-1.8-2.1-1.8
			c-1,0-1.8,0.2-2.7,0.5l-0.7-2.1c1.1-0.5,2.1-0.8,3.7-0.8c1.5,0,2.6,0.4,3.3,1.1c0.7,0.7,1,1.8,1,3.1v5.6h-2.6v-1
			c-0.7,0.7-1.6,1.2-2.9,1.2C66.7,156.1,65.2,155,65.2,153.1z M71.5,152.5V152c-0.5-0.2-1.1-0.4-1.7-0.4c-1.2,0-1.9,0.5-1.9,1.3v0
			c0,0.7,0.6,1.2,1.5,1.2C70.6,154.2,71.5,153.5,71.5,152.5z"/>
		<path fill="#404447" d="M76.5,146.2h2.7v1.4c0.6-0.8,1.4-1.5,2.8-1.5c2.1,0,3.3,1.4,3.3,3.6v6.2h-2.7v-5.4c0-1.3-0.6-2-1.7-2
			c-1,0-1.7,0.7-1.7,2v5.4h-2.7V146.2z"/>
		<path fill="#404447" d="M87.1,153.1L87.1,153.1c0-2.1,1.6-3.1,3.9-3.1c1,0,1.7,0.2,2.4,0.4v-0.2c0-1.1-0.7-1.8-2.1-1.8
			c-1,0-1.8,0.2-2.7,0.5l-0.7-2.1c1.1-0.5,2.1-0.8,3.7-0.8c1.5,0,2.6,0.4,3.3,1.1c0.7,0.7,1,1.8,1,3.1v5.6h-2.6v-1
			c-0.7,0.7-1.6,1.2-2.9,1.2C88.6,156.1,87.1,155,87.1,153.1z M93.4,152.5V152c-0.5-0.2-1.1-0.4-1.7-0.4c-1.2,0-1.9,0.5-1.9,1.3v0
			c0,0.7,0.6,1.2,1.5,1.2C92.5,154.2,93.4,153.5,93.4,152.5z"/>
		<path fill="#404447" d="M98.4,157.8l0.9-2.1c1,0.6,2,0.9,3.3,0.9c1.9,0,2.8-0.9,2.8-2.6v-0.5c-0.8,1-1.7,1.6-3.2,1.6
			c-2.3,0-4.3-1.6-4.3-4.5v0c0-2.9,2.1-4.5,4.3-4.5c1.5,0,2.4,0.6,3.1,1.4v-1.3h2.7v7.5c0,1.7-0.4,3-1.2,3.8
			c-0.9,0.9-2.3,1.3-4.2,1.3C101.1,158.8,99.6,158.5,98.4,157.8z M105.3,150.6L105.3,150.6c0-1.4-1-2.3-2.4-2.3
			c-1.3,0-2.3,0.9-2.3,2.2v0c0,1.3,1,2.2,2.3,2.2C104.3,152.8,105.3,151.9,105.3,150.6z"/>
		<path fill="#404447" d="M110,151.1L110,151.1c0-2.8,2-5.1,4.8-5.1c3.2,0,4.7,2.5,4.7,5.2c0,0.2,0,0.5,0,0.7h-6.7
			c0.3,1.2,1.1,1.9,2.4,1.9c0.9,0,1.6-0.3,2.3-1l1.6,1.4c-0.9,1.1-2.2,1.8-3.9,1.8C112.1,156.1,110,154.1,110,151.1z M116.8,150.3
			c-0.2-1.2-0.9-2.1-2-2.1c-1.1,0-1.9,0.8-2.1,2.1H116.8z"/>
	</g>
</g>
<g>
	<g>
		<g>
			<path fill="#404447" d="M127.8,123.3H42.2c-2.2,0-3.9-1.8-3.9-3.9V33.8c0-2.2,1.8-3.9,3.9-3.9h85.6c2.2,0,3.9,1.8,3.9,3.9v85.6
				C131.7,121.5,130,123.3,127.8,123.3L127.8,123.3z M46.1,115.4h77.7V37.7H46.1V115.4L46.1,115.4z"/>
		</g>
		<g>
			<path fill="#404447" d="M126.4,58.7H43.6c-1.1,0-2-0.9-2-2s0.9-2,2-2h82.8c1.1,0,2,0.9,2,2S127.5,58.7,126.4,58.7L126.4,58.7z"/>
		</g>
		<path fill="#404447" d="M56.1,41.4c-2.7,0-5,2.2-5,5c0,2.7,2.2,4.9,5,4.9c2.7,0,5-2.2,5-4.9C61.1,43.6,58.9,41.4,56.1,41.4
			L56.1,41.4z"/>
		<path fill="#404447" d="M69.6,41.4c-2.7,0-5,2.2-5,5c0,2.7,2.2,4.9,5,4.9c2.7,0,5-2.2,5-4.9C74.5,43.6,72.3,41.4,69.6,41.4
			L69.6,41.4z"/>
		<path fill="#404447" d="M83,41.4c-2.7,0-5,2.2-5,5c0,2.7,2.2,4.9,5,4.9c2.7,0,5-2.2,5-4.9C87.9,43.6,85.7,41.4,83,41.4L83,41.4z"
			/>
	</g>
	<g>
		<g>
			<path fill="#404447" d="M85,74.4H58.1c-1.1,0-2-0.9-2-2c0-1.1,0.9-2,2-2H85c1.1,0,2,0.9,2,2C87,73.6,86.1,74.4,85,74.4L85,74.4z"
				/>
		</g>
		<g>
			<path fill="#404447" d="M85,86.9H58.1c-1.1,0-2-0.9-2-2c0-1.1,0.9-2,2-2H85c1.1,0,2,0.9,2,2C87,86,86.1,86.9,85,86.9L85,86.9z"/>
		</g>
		<g>
			<path fill="#404447" d="M85,99.3H58.1c-1.1,0-2-0.9-2-2c0-1.1,0.9-2,2-2H85c1.1,0,2,0.9,2,2C87,98.5,86.1,99.3,85,99.3L85,99.3z"
				/>
		</g>
		<g>
			<path fill="#404447" d="M111.9,99.3h-17c-1.1,0-2-0.9-2-2V72.5c0-1.1,0.9-2,2-2h17c1.1,0,2,0.9,2,2v24.9
				C113.8,98.5,112.9,99.3,111.9,99.3L111.9,99.3z M96.8,95.4h13.1v-21H96.8V95.4L96.8,95.4z"/>
		</g>
	</g>
</g>
</svg>
