<?xml version="1.0" encoding="utf-8"?>
<!-- Generator: Adobe Illustrator 19.1.0, SVG Export Plug-In . SVG Version: 6.00 Build 0)  -->
<svg version="1.1" id="Layer_1" xmlns="http://www.w3.org/2000/svg" xmlns:xlink="http://www.w3.org/1999/xlink" x="0px" y="0px"
	 viewBox="0 0 169.2 169.2" enable-background="new 0 0 169.2 169.2" xml:space="preserve">
<g>
	<rect fill="#FFFFFF" width="169.2" height="169.2"/>
	<g>
		<path fill="#404447" d="M40.7,153.1L40.7,153.1c0-2.1,1.6-3.1,3.9-3.1c1,0,1.7,0.2,2.4,0.4v-0.2c0-1.1-0.7-1.8-2.1-1.8
			c-1,0-1.8,0.2-2.7,0.5l-0.7-2.1c1.1-0.5,2.1-0.8,3.7-0.8c1.5,0,2.6,0.4,3.3,1.1c0.7,0.7,1,1.8,1,3.1v5.6h-2.6v-1
			c-0.7,0.7-1.6,1.2-2.9,1.2C42.2,156.1,40.7,155,40.7,153.1z M47,152.5V152c-0.5-0.2-1.1-0.4-1.7-0.4c-1.2,0-1.9,0.5-1.9,1.3v0
			c0,0.7,0.6,1.2,1.5,1.2C46.1,154.2,47,153.5,47,152.5z"/>
		<path fill="#404447" d="M52.3,153.2v-4.6h-1.2v-2.3h1.2v-2.5H55v2.5h2.3v2.3H55v4.1c0,0.6,0.3,0.9,0.9,0.9c0.5,0,1-0.1,1.4-0.3
			v2.2c-0.6,0.3-1.2,0.6-2.2,0.6C53.4,156.1,52.3,155.4,52.3,153.2z"/>
		<path fill="#404447" d="M59.8,153.2v-4.6h-1.2v-2.3h1.2v-2.5h2.7v2.5h2.3v2.3h-2.3v4.1c0,0.6,0.3,0.9,0.9,0.9c0.5,0,1-0.1,1.4-0.3
			v2.2c-0.6,0.3-1.2,0.6-2.2,0.6C60.9,156.1,59.8,155.4,59.8,153.2z"/>
		<path fill="#404447" d="M66.8,146.2h2.7v1.9c0.6-1.3,1.5-2.2,3.1-2.1v2.9h-0.1c-1.8,0-2.9,1.1-2.9,3.4v3.6h-2.7V146.2z"/>
		<path fill="#404447" d="M74.4,142.8h2.9v2.4h-2.9V142.8z M74.4,146.2h2.7v9.7h-2.7V146.2z"/>
		<path fill="#404447" d="M82.5,154.6v1.3h-2.7v-13.1h2.7v4.9c0.7-0.9,1.6-1.6,3-1.6c2.3,0,4.4,1.8,4.4,5v0c0,3.2-2.1,5-4.4,5
			C84,156.1,83.1,155.4,82.5,154.6z M87.2,151.1L87.2,151.1c0-1.6-1.1-2.7-2.4-2.7c-1.3,0-2.3,1.1-2.3,2.7v0c0,1.6,1.1,2.7,2.3,2.7
			C86.1,153.8,87.2,152.7,87.2,151.1z"/>
		<path fill="#404447" d="M91.8,152.5v-6.2h2.7v5.4c0,1.3,0.6,2,1.7,2c1,0,1.7-0.7,1.7-2v-5.4h2.7v9.7h-2.7v-1.4
			c-0.6,0.8-1.4,1.5-2.8,1.5C93,156.1,91.8,154.7,91.8,152.5z"/>
		<path fill="#404447" d="M103.6,153.2v-4.6h-1.2v-2.3h1.2v-2.5h2.7v2.5h2.3v2.3h-2.3v4.1c0,0.6,0.3,0.9,0.9,0.9
			c0.5,0,1-0.1,1.4-0.3v2.2c-0.6,0.3-1.2,0.6-2.2,0.6C104.7,156.1,103.6,155.4,103.6,153.2z"/>
		<path fill="#404447" d="M109.9,151.1L109.9,151.1c0-2.8,2-5.1,4.8-5.1c3.2,0,4.7,2.5,4.7,5.2c0,0.2,0,0.5,0,0.7h-6.7
			c0.3,1.2,1.1,1.9,2.4,1.9c0.9,0,1.6-0.3,2.3-1l1.6,1.4c-0.9,1.1-2.2,1.8-3.9,1.8C112,156.1,109.9,154.1,109.9,151.1z M116.7,150.3
			c-0.2-1.2-0.9-2.1-2-2.1c-1.1,0-1.9,0.8-2.1,2.1H116.7z"/>
		<path fill="#404447" d="M120.6,154.6l1.2-1.8c1,0.8,2.1,1.2,3,1.2c0.8,0,1.2-0.3,1.2-0.7v0c0-0.6-0.9-0.8-2-1.1
			c-1.4-0.4-2.9-1-2.9-2.9v0c0-2,1.6-3.1,3.5-3.1c1.2,0,2.6,0.4,3.6,1.1l-1,1.9c-1-0.6-1.9-0.9-2.6-0.9c-0.7,0-1,0.3-1,0.7v0
			c0,0.5,0.9,0.8,2,1.2c1.4,0.5,2.9,1.1,2.9,2.9v0c0,2.1-1.6,3.1-3.7,3.1C123.4,156.1,121.9,155.6,120.6,154.6z"/>
	</g>
</g>
<g>
	<g>
		<g>
			<g>
				<path fill="#404447" d="M89.6,100.2c-3.8,0-6.8-3.1-6.8-6.8c0-3.8,3.1-6.8,6.8-6.8c3.8,0,6.8,3.1,6.8,6.8
					C96.4,97.2,93.4,100.2,89.6,100.2L89.6,100.2z M89.6,88.9c-2.5,0-4.6,2-4.6,4.6c0,2.5,2,4.6,4.6,4.6c2.5,0,4.6-2,4.6-4.6
					C94.2,90.9,92.1,88.9,89.6,88.9L89.6,88.9z"/>
			</g>
			<g>
				<g>
					<path fill="#404447" d="M85.3,90.2c-0.3,0-0.6-0.1-0.8-0.3l-1.6-1.6c-0.4-0.4-0.4-1.2,0-1.6c0.4-0.4,1.2-0.4,1.6,0l1.6,1.6
						c0.4,0.4,0.4,1.2,0,1.6C85.9,90.1,85.6,90.2,85.3,90.2L85.3,90.2z"/>
				</g>
				<g>
					<path fill="#404447" d="M95.5,100.4c-0.3,0-0.6-0.1-0.8-0.3l-1.9-1.9c-0.4-0.4-0.4-1.2,0-1.6c0.4-0.4,1.2-0.4,1.6,0l1.9,1.9
						c0.4,0.4,0.4,1.2,0,1.6C96.1,100.3,95.8,100.4,95.5,100.4L95.5,100.4z"/>
				</g>
			</g>
			<g>
				<g>
					<path fill="#404447" d="M93.9,90.3c-0.3,0-0.6-0.1-0.8-0.3c-0.4-0.4-0.4-1.2,0-1.6l1.6-1.6c0.4-0.4,1.2-0.4,1.6,0
						c0.4,0.4,0.4,1.2,0,1.6l-1.6,1.6C94.5,90.1,94.2,90.3,93.9,90.3L93.9,90.3z"/>
				</g>
				<g>
					<path fill="#404447" d="M83.7,100.4c-0.3,0-0.6-0.1-0.8-0.3c-0.4-0.4-0.4-1.2,0-1.6l1.9-1.9c0.4-0.4,1.2-0.4,1.6,0
						c0.4,0.4,0.4,1.2,0,1.6l-1.9,1.9C84.3,100.3,84,100.4,83.7,100.4L83.7,100.4z"/>
				</g>
			</g>
			<g>
				<g>
					<path fill="#404447" d="M89.6,88.5c-0.6,0-1.1-0.5-1.1-1.1v-2.2c0-0.6,0.5-1.1,1.1-1.1c0.6,0,1.1,0.5,1.1,1.1v2.2
						C90.7,88,90.2,88.5,89.6,88.5L89.6,88.5z"/>
				</g>
				<g>
					<path fill="#404447" d="M89.6,102.9L89.6,102.9c-0.6,0-1.1-0.5-1.1-1.1l0-2.6c0-0.6,0.5-1.1,1.1-1.1l0,0c0.6,0,1.1,0.5,1.1,1.1
						l0,2.6C90.7,102.3,90.2,102.9,89.6,102.9L89.6,102.9z"/>
				</g>
			</g>
			<g>
				<g>
					<path fill="#404447" d="M97.9,94.5h-2.2c-0.6,0-1.1-0.5-1.1-1.1c0-0.6,0.5-1.1,1.1-1.1h2.2c0.6,0,1.1,0.5,1.1,1.1
						C99,94,98.5,94.5,97.9,94.5L97.9,94.5z"/>
				</g>
				<g>
					<path fill="#404447" d="M83.9,94.5h-2.6c-0.6,0-1.1-0.5-1.1-1.1c0-0.6,0.5-1.1,1.1-1.1h2.6c0.6,0,1.1,0.5,1.1,1.1
						C85.1,94,84.6,94.5,83.9,94.5L83.9,94.5z"/>
				</g>
			</g>
		</g>
		<g>
			<g>
				<path fill="#404447" d="M105.5,107.9c-2.9,0-5.2-2.3-5.2-5.2c0-2.9,2.3-5.2,5.2-5.2c2.9,0,5.2,2.3,5.2,5.2
					C110.7,105.6,108.3,107.9,105.5,107.9L105.5,107.9z M105.5,99.2c-1.9,0-3.5,1.6-3.5,3.5c0,1.9,1.6,3.5,3.5,3.5
					c1.9,0,3.5-1.6,3.5-3.5C108.9,100.8,107.4,99.2,105.5,99.2L105.5,99.2z"/>
			</g>
			<g>
				<g>
					<path fill="#404447" d="M102.2,100.3c-0.2,0-0.4-0.1-0.6-0.3l-1.2-1.2c-0.3-0.3-0.3-0.9,0-1.2c0.3-0.3,0.9-0.3,1.2,0l1.2,1.2
						c0.3,0.3,0.3,0.9,0,1.2C102.7,100.2,102.4,100.3,102.2,100.3L102.2,100.3z"/>
				</g>
				<g>
					<path fill="#404447" d="M109.9,108c-0.2,0-0.4-0.1-0.6-0.3l-1.4-1.4c-0.3-0.3-0.3-0.9,0-1.2c0.3-0.3,0.9-0.3,1.2,0l1.4,1.4
						c0.3,0.3,0.3,0.9,0,1.2C110.4,108,110.2,108,109.9,108L109.9,108z"/>
				</g>
			</g>
			<g>
				<g>
					<path fill="#404447" d="M108.7,100.3c-0.2,0-0.4-0.1-0.6-0.3c-0.3-0.3-0.3-0.9,0-1.2l1.2-1.2c0.3-0.3,0.9-0.3,1.2,0
						c0.3,0.3,0.3,0.9,0,1.2l-1.2,1.2C109.2,100.2,109,100.3,108.7,100.3L108.7,100.3z"/>
				</g>
				<g>
					<path fill="#404447" d="M101,108c-0.2,0-0.4-0.1-0.6-0.3c-0.3-0.3-0.3-0.9,0-1.2l1.4-1.4c0.3-0.3,0.9-0.3,1.2,0
						c0.3,0.3,0.3,0.9,0,1.2l-1.4,1.4C101.4,108,101.2,108,101,108L101,108z"/>
				</g>
			</g>
			<g>
				<g>
					<path fill="#404447" d="M105.5,99c-0.5,0-0.9-0.4-0.9-0.9v-1.7c0-0.5,0.4-0.9,0.9-0.9c0.5,0,0.9,0.4,0.9,0.9v1.7
						C106.3,98.6,105.9,99,105.5,99L105.5,99z"/>
				</g>
				<g>
					<path fill="#404447" d="M105.5,109.9L105.5,109.9c-0.5,0-0.9-0.4-0.9-0.9l0-2c0-0.5,0.4-0.9,0.9-0.9l0,0c0.5,0,0.9,0.4,0.9,0.9
						l0,2C106.3,109.5,105.9,109.9,105.5,109.9L105.5,109.9z"/>
				</g>
			</g>
			<g>
				<g>
					<path fill="#404447" d="M111.8,103.6h-1.7c-0.5,0-0.9-0.4-0.9-0.9c0-0.5,0.4-0.9,0.9-0.9h1.7c0.5,0,0.9,0.4,0.9,0.9
						C112.6,103.2,112.3,103.6,111.8,103.6L111.8,103.6z"/>
				</g>
				<g>
					<path fill="#404447" d="M101.2,103.6h-2c-0.5,0-0.9-0.4-0.9-0.9c0-0.5,0.4-0.9,0.9-0.9h2c0.5,0,0.9,0.4,0.9,0.9
						C102,103.2,101.6,103.6,101.2,103.6L101.2,103.6z"/>
				</g>
			</g>
		</g>
		<g>
			<g>
				<path fill="#404447" d="M92.9,112.8c-2.1,0-3.8-1.7-3.8-3.8c0-2.1,1.7-3.8,3.8-3.8c2.1,0,3.8,1.7,3.8,3.8
					C96.7,111.1,95,112.8,92.9,112.8L92.9,112.8z M92.9,106.5c-1.4,0-2.5,1.1-2.5,2.5c0,1.4,1.1,2.5,2.5,2.5c1.4,0,2.5-1.1,2.5-2.5
					C95.4,107.6,94.3,106.5,92.9,106.5L92.9,106.5z"/>
			</g>
			<g>
				<g>
					<path fill="#404447" d="M90.5,107.3c-0.2,0-0.3-0.1-0.4-0.2l-0.9-0.9c-0.2-0.2-0.2-0.6,0-0.9c0.2-0.2,0.6-0.2,0.9,0l0.9,0.9
						c0.2,0.2,0.2,0.6,0,0.9C90.9,107.2,90.7,107.3,90.5,107.3L90.5,107.3z"/>
				</g>
				<g>
					<path fill="#404447" d="M96.2,112.9c-0.2,0-0.3-0.1-0.4-0.2l-1-1c-0.2-0.2-0.2-0.6,0-0.9c0.2-0.2,0.6-0.2,0.9,0l1,1
						c0.2,0.2,0.2,0.6,0,0.9C96.5,112.8,96.3,112.9,96.2,112.9L96.2,112.9z"/>
				</g>
			</g>
			<g>
				<g>
					<path fill="#404447" d="M95.3,107.3c-0.2,0-0.3-0.1-0.4-0.2c-0.2-0.2-0.2-0.6,0-0.9l0.9-0.9c0.2-0.2,0.6-0.2,0.9,0
						c0.2,0.2,0.2,0.6,0,0.9l-0.9,0.9C95.6,107.2,95.4,107.3,95.3,107.3L95.3,107.3z"/>
				</g>
				<g>
					<path fill="#404447" d="M89.7,112.9c-0.2,0-0.3-0.1-0.4-0.2c-0.2-0.2-0.2-0.6,0-0.9l1-1c0.2-0.2,0.6-0.2,0.9,0
						c0.2,0.2,0.2,0.6,0,0.9l-1,1C90,112.8,89.8,112.9,89.7,112.9L89.7,112.9z"/>
				</g>
			</g>
			<g>
				<g>
					<path fill="#404447" d="M92.9,106.3c-0.3,0-0.6-0.3-0.6-0.6v-1.2c0-0.3,0.3-0.6,0.6-0.6c0.3,0,0.6,0.3,0.6,0.6v1.2
						C93.5,106,93.3,106.3,92.9,106.3L92.9,106.3z"/>
				</g>
				<g>
					<path fill="#404447" d="M92.9,114.2L92.9,114.2c-0.3,0-0.6-0.3-0.6-0.6l0-1.5c0-0.3,0.3-0.6,0.6-0.6l0,0c0.3,0,0.6,0.3,0.6,0.6
						l0,1.5C93.5,114,93.3,114.2,92.9,114.2L92.9,114.2z"/>
				</g>
			</g>
			<g>
				<g>
					<path fill="#404447" d="M97.5,109.6h-1.2c-0.3,0-0.6-0.3-0.6-0.6c0-0.3,0.3-0.6,0.6-0.6h1.2c0.3,0,0.6,0.3,0.6,0.6
						C98.1,109.4,97.9,109.6,97.5,109.6L97.5,109.6z"/>
				</g>
				<g>
					<path fill="#404447" d="M89.8,109.6h-1.5c-0.3,0-0.6-0.3-0.6-0.6c0-0.3,0.3-0.6,0.6-0.6h1.5c0.3,0,0.6,0.3,0.6,0.6
						C90.4,109.4,90.1,109.6,89.8,109.6L89.8,109.6z"/>
				</g>
			</g>
		</g>
	</g>
	<g>
		<g>
			<path fill="#404447" d="M102.3,70.5H70.9c-1.1,0-2-0.9-2-2V50.8c0-1.1,0.9-2,2-2h31.4c1.1,0,2,0.9,2,2v17.7
				C104.3,69.6,103.4,70.5,102.3,70.5L102.3,70.5z M72.9,66.5h27.3V52.8H72.9V66.5L72.9,66.5z"/>
		</g>
		<g>
			<g>
				<path fill="#404447" d="M119.5,126.7H49.2c-2.3,0-4.1-1.8-4.1-4.1V34.3c0-2.3,1.8-4.1,4.1-4.1h70.2c2.3,0,4.1,1.8,4.1,4.1v88.3
					C123.6,124.8,121.7,126.7,119.5,126.7L119.5,126.7z M53.3,118.5h62V38.4h-62V118.5L53.3,118.5z"/>
			</g>
			<g>
				<path fill="#404447" d="M56.4,54.9H42.1c-2.3,0-4.1-1.8-4.1-4.1c0-2.3,1.8-4.1,4.1-4.1h14.3c2.3,0,4.1,1.8,4.1,4.1
					C60.5,53.1,58.7,54.9,56.4,54.9L56.4,54.9z"/>
			</g>
			<g>
				<path fill="#404447" d="M56.4,73.2H42.1c-2.3,0-4.1-1.8-4.1-4.1c0-2.3,1.8-4.1,4.1-4.1h14.3c2.3,0,4.1,1.8,4.1,4.1
					C60.5,71.3,58.7,73.2,56.4,73.2L56.4,73.2z"/>
			</g>
			<g>
				<path fill="#404447" d="M56.4,91.4H42.1c-2.3,0-4.1-1.8-4.1-4.1c0-2.3,1.8-4.1,4.1-4.1h14.3c2.3,0,4.1,1.8,4.1,4.1
					C60.5,89.6,58.7,91.4,56.4,91.4L56.4,91.4z"/>
			</g>
			<g>
				<path fill="#404447" d="M56.4,109.7H42.1c-2.3,0-4.1-1.8-4.1-4.1c0-2.3,1.8-4.1,4.1-4.1h14.3c2.3,0,4.1,1.8,4.1,4.1
					C60.5,107.9,58.7,109.7,56.4,109.7L56.4,109.7z"/>
			</g>
		</g>
	</g>
</g>
</svg>
