<?xml version="1.0" encoding="utf-8"?>
<!-- Generator: Adobe Illustrator 19.1.0, SVG Export Plug-In . SVG Version: 6.00 Build 0)  -->
<svg version="1.1" id="Layer_1" xmlns="http://www.w3.org/2000/svg" xmlns:xlink="http://www.w3.org/1999/xlink" x="0px" y="0px"
	 viewBox="0 0 169.2 169.2" enable-background="new 0 0 169.2 169.2" xml:space="preserve">
<g>
	<rect fill="#FFFFFF" width="169.2" height="169.2"/>
	<g>
		<path fill="#404447" d="M49.1,142.8h2.7v13.1h-2.7V142.8z"/>
		<path fill="#404447" d="M54.4,142.8h2.9v2.4h-2.9V142.8z M54.5,146.2h2.7v9.7h-2.7V146.2z"/>
		<path fill="#404447" d="M62.6,154.6v1.3h-2.7v-13.1h2.7v4.9c0.7-0.9,1.6-1.6,3-1.6c2.3,0,4.4,1.8,4.4,5v0c0,3.2-2.1,5-4.4,5
			C64.1,156.1,63.2,155.4,62.6,154.6z M67.2,151.1L67.2,151.1c0-1.6-1.1-2.7-2.4-2.7s-2.3,1.1-2.3,2.7v0c0,1.6,1.1,2.7,2.3,2.7
			S67.2,152.7,67.2,151.1z"/>
		<path fill="#404447" d="M72,146.2h2.7v1.9c0.6-1.3,1.5-2.2,3.1-2.1v2.9h-0.1c-1.8,0-2.9,1.1-2.9,3.4v3.6H72V146.2z"/>
		<path fill="#404447" d="M78.5,153.1L78.5,153.1c0-2.1,1.6-3.1,3.9-3.1c1,0,1.7,0.2,2.4,0.4v-0.2c0-1.1-0.7-1.8-2.1-1.8
			c-1,0-1.8,0.2-2.7,0.5l-0.7-2.1c1.1-0.5,2.1-0.8,3.7-0.8c1.5,0,2.6,0.4,3.3,1.1c0.7,0.7,1,1.8,1,3.1v5.6h-2.6v-1
			c-0.7,0.7-1.6,1.2-2.9,1.2C80,156.1,78.5,155,78.5,153.1z M84.8,152.5V152c-0.5-0.2-1.1-0.4-1.7-0.4c-1.2,0-1.9,0.5-1.9,1.3v0
			c0,0.7,0.6,1.2,1.5,1.2C83.9,154.2,84.8,153.5,84.8,152.5z"/>
		<path fill="#404447" d="M89.7,146.2h2.7v1.9c0.6-1.3,1.5-2.2,3.1-2.1v2.9h-0.1c-1.8,0-2.9,1.1-2.9,3.4v3.6h-2.7V146.2z"/>
		<path fill="#404447" d="M97.3,142.8h2.9v2.4h-2.9V142.8z M97.4,146.2h2.7v9.7h-2.7V146.2z"/>
		<path fill="#404447" d="M102.2,151.1L102.2,151.1c0-2.8,2-5.1,4.8-5.1c3.2,0,4.7,2.5,4.7,5.2c0,0.2,0,0.5,0,0.7h-6.7
			c0.3,1.2,1.1,1.9,2.4,1.9c0.9,0,1.6-0.3,2.3-1l1.6,1.4c-0.9,1.1-2.2,1.8-3.9,1.8C104.3,156.1,102.2,154.1,102.2,151.1z M109,150.3
			c-0.2-1.2-0.9-2.1-2-2.1c-1.1,0-1.9,0.8-2.1,2.1H109z"/>
		<path fill="#404447" d="M112.9,154.6l1.2-1.8c1,0.8,2.1,1.2,3,1.2c0.8,0,1.2-0.3,1.2-0.7v0c0-0.6-0.9-0.8-2-1.1
			c-1.4-0.4-2.9-1-2.9-2.9v0c0-2,1.6-3.1,3.5-3.1c1.2,0,2.6,0.4,3.6,1.1l-1,1.9c-1-0.6-1.9-0.9-2.6-0.9c-0.7,0-1,0.3-1,0.7v0
			c0,0.5,0.9,0.8,2,1.2c1.3,0.5,2.9,1.1,2.9,2.9v0c0,2.1-1.6,3.1-3.7,3.1C115.7,156.1,114.2,155.6,112.9,154.6z"/>
	</g>
</g>
<g>
	<g>
		<path fill="#404447" d="M100.6,126.2c-1.1,0-2-0.9-2-2V99.8c0-1.1,0.9-2,2-2H125c1.1,0,2,0.9,2,2c0,1.1-0.9,2-2,2h-22.3v22.3
			C102.7,125.3,101.8,126.2,100.6,126.2L100.6,126.2z"/>
	</g>
	<g>
		<path fill="#404447" d="M100.6,128.2H58.7c-2.2,0-4.1-1.8-4.1-4.1V40.8c0-2.2,1.8-4.1,4.1-4.1H125c2.2,0,4.1,1.8,4.1,4.1v59
			c0,1.1-0.4,2.1-1.2,2.9L103.5,127C102.7,127.8,101.7,128.2,100.6,128.2L100.6,128.2z M62.8,120.1H99l22-22V44.9H62.8V120.1
			L62.8,120.1z"/>
	</g>
	<g>
		<path fill="#404447" d="M96.2,58.3H72.4c-1.1,0-2-0.9-2-2s0.9-2,2-2h23.8c1.1,0,2,0.9,2,2S97.4,58.3,96.2,58.3L96.2,58.3z"/>
	</g>
	<g>
		<path fill="#404447" d="M112,68.1H72.4c-1.1,0-2-0.9-2-2c0-1.1,0.9-2,2-2H112c1.1,0,2,0.9,2,2C114,67.2,113.1,68.1,112,68.1
			L112,68.1z"/>
	</g>
	<g>
		<path fill="#404447" d="M112,77.9H72.4c-1.1,0-2-0.9-2-2c0-1.1,0.9-2,2-2H112c1.1,0,2,0.9,2,2C114,77,113.1,77.9,112,77.9
			L112,77.9z"/>
	</g>
	<g>
		<path fill="#404447" d="M89,87.7H72.4c-1.1,0-2-0.9-2-2c0-1.1,0.9-2,2-2H89c1.1,0,2,0.9,2,2C91,86.8,90.1,87.7,89,87.7L89,87.7z"
			/>
	</g>
	<g>
		<path fill="#404447" d="M84.1,44H60.2c-1.1,0-2-0.9-2-2s0.9-2,2-2h23.8c1.1,0,2,0.9,2,2S85.2,44,84.1,44L84.1,44z"/>
	</g>
	<g>
		<path fill="#404447" d="M47.3,118.6c-2.2,0-4.1-1.8-4.1-4.1V32.8c0-4.5,3.6-8.1,8.1-8.1h62.2c2.2,0,4.1,1.8,4.1,4.1
			c0,2.2-1.8,4.1-4.1,4.1H51.3v81.7C51.3,116.8,49.5,118.6,47.3,118.6L47.3,118.6z"/>
	</g>
</g>
</svg>
