<?xml version="1.0" encoding="utf-8"?>
<!-- Generator: Adobe Illustrator 19.1.0, SVG Export Plug-In . SVG Version: 6.00 Build 0)  -->
<svg version="1.1" id="Layer_1" xmlns="http://www.w3.org/2000/svg" xmlns:xlink="http://www.w3.org/1999/xlink" x="0px" y="0px"
	 viewBox="0 0 725.6 841.5" enable-background="new 0 0 725.6 841.5" xml:space="preserve">
<g>
	<g>
		<polyline fill="none" stroke="#7F888D" stroke-width="4" stroke-miterlimit="10" points="364,192.6 668.3,192.6 668.3,246.3 		"/>
		<g>
			<polygon fill="#7F888D" points="658.3,243.3 668.3,260.6 678.3,243.3 			"/>
		</g>
	</g>
</g>
<line fill="none" stroke="#7F888D" stroke-width="4" stroke-miterlimit="10" x1="368.3" y1="70.1" x2="368.3" y2="192.6"/>
<g>
	<g>
		<path fill="#445464" d="M666.5,781.7c14.7,0,27.1-3.9,31.5-9.4v-8.6c-0.2-0.2-0.3-0.4-0.5-0.6c-4.3,5.5-16.8,9.5-31.5,9.5
			c-14.1,0-26.1-3.6-30.9-8.7c-0.1,0-0.1,0.1-0.1,0.1v8.2C639.1,777.6,651.7,781.7,666.5,781.7z"/>
		<path fill="#445464" d="M642.4,758.6c6,2.6,14.6,4.3,24.1,4.3s18.1-1.7,24.1-4.3c2.8-1.2,5-2.6,6.6-4.2c0.3-0.3,0.5-0.6,0.8-0.9
			V745c-0.2-0.2-0.3-0.4-0.5-0.6c-1.5,2-4.1,3.7-7.4,5.2c-6,2.6-14.6,4.3-24.1,4.3c-9.5,0-18.1-1.7-24.1-4.3
			c-2.9-1.3-5.2-2.8-6.8-4.5c0,0-0.1,0.1-0.1,0.1v8.2c0.1,0.1,0.2,0.3,0.3,0.4C636.8,755.6,639.2,757.2,642.4,758.6z"/>
		<path fill="#445464" d="M642.7,739.8c5.7,2.7,14.2,4.5,23.7,4.5c9.6,0,18.1-1.8,23.8-4.6c2.9-1.4,5-3,6.3-4.9
			c0.7-1.1,1.1-2.3,1.1-3.5c0-7.1-14-12.9-31.3-12.9c-17.3,0-31.3,5.8-31.3,12.9c0,1,0.3,2,0.8,2.9
			C637.1,736.4,639.4,738.2,642.7,739.8z"/>
		<path fill="#445464" d="M720.6,692H613c-2.7,0-4.9,2.2-4.9,4.9v107.7c0,2.7,2.2,4.9,4.9,4.9h107.7c2.7,0,4.9-2.2,4.9-4.9V697
			C725.6,694.2,723.4,692,720.6,692z M715.7,799.7h-97.8v-97.8h97.8V799.7z"/>
	</g>
</g>
<g>
	<g>
		<path fill="#445464" d="M466.5,781.7c14.7,0,27.1-3.9,31.5-9.4v-8.6c-0.2-0.2-0.3-0.4-0.5-0.6c-4.3,5.5-16.8,9.5-31.5,9.5
			c-14.1,0-26.1-3.6-30.9-8.7c-0.1,0-0.1,0.1-0.1,0.1v8.2C439.1,777.6,451.7,781.7,466.5,781.7z"/>
		<path fill="#445464" d="M442.4,758.6c6,2.6,14.6,4.3,24.1,4.3c9.5,0,18.1-1.7,24.1-4.3c2.8-1.2,5-2.6,6.6-4.2
			c0.3-0.3,0.5-0.6,0.8-0.9V745c-0.2-0.2-0.3-0.4-0.5-0.6c-1.5,2-4.1,3.7-7.4,5.2c-6,2.6-14.6,4.3-24.1,4.3
			c-9.5,0-18.1-1.7-24.1-4.3c-2.9-1.3-5.2-2.8-6.8-4.5c0,0-0.1,0.1-0.1,0.1v8.2c0.1,0.1,0.2,0.3,0.3,0.4
			C436.8,755.6,439.2,757.2,442.4,758.6z"/>
		<path fill="#445464" d="M442.7,739.8c5.7,2.7,14.2,4.5,23.7,4.5c9.6,0,18.1-1.8,23.8-4.6c2.9-1.4,5-3,6.3-4.9
			c0.7-1.1,1.1-2.3,1.1-3.5c0-7.1-14-12.9-31.3-12.9c-17.3,0-31.3,5.8-31.3,12.9c0,1,0.3,2,0.8,2.9
			C437.1,736.4,439.4,738.2,442.7,739.8z"/>
		<path fill="#445464" d="M520.6,692H413c-2.7,0-4.9,2.2-4.9,4.9v107.7c0,2.7,2.2,4.9,4.9,4.9h107.7c2.7,0,4.9-2.2,4.9-4.9V697
			C525.6,694.2,523.4,692,520.6,692z M515.7,799.7h-97.8v-97.8h97.8V799.7z"/>
	</g>
</g>
<g>
	<g>
		<path fill="#445464" d="M266.5,781.7c14.7,0,27.1-3.9,31.5-9.4v-8.6c-0.2-0.2-0.3-0.4-0.5-0.6c-4.3,5.5-16.8,9.5-31.5,9.5
			c-14.1,0-26.1-3.6-30.9-8.7c-0.1,0-0.1,0.1-0.1,0.1v8.2C239.1,777.6,251.7,781.7,266.5,781.7z"/>
		<path fill="#445464" d="M242.4,758.6c6,2.6,14.6,4.3,24.1,4.3c9.5,0,18.1-1.7,24.1-4.3c2.8-1.2,5-2.6,6.6-4.2
			c0.3-0.3,0.5-0.6,0.8-0.9V745c-0.2-0.2-0.3-0.4-0.5-0.6c-1.5,2-4.1,3.7-7.4,5.2c-6,2.6-14.6,4.3-24.1,4.3
			c-9.5,0-18.1-1.7-24.1-4.3c-2.9-1.3-5.2-2.8-6.8-4.5c0,0-0.1,0.1-0.1,0.1v8.2c0.1,0.1,0.2,0.3,0.3,0.4
			C236.8,755.6,239.2,757.2,242.4,758.6z"/>
		<path fill="#445464" d="M242.7,739.8c5.7,2.7,14.2,4.5,23.7,4.5c9.6,0,18.1-1.8,23.8-4.6c2.9-1.4,5-3,6.3-4.9
			c0.7-1.1,1.1-2.3,1.1-3.5c0-7.1-14-12.9-31.3-12.9c-17.3,0-31.3,5.8-31.3,12.9c0,1,0.3,2,0.8,2.9
			C237.1,736.4,239.4,738.2,242.7,739.8z"/>
		<path fill="#445464" d="M320.6,692H213c-2.7,0-4.9,2.2-4.9,4.9v107.7c0,2.7,2.2,4.9,4.9,4.9h107.7c2.7,0,4.9-2.2,4.9-4.9V697
			C325.6,694.2,323.4,692,320.6,692z M315.7,799.7h-97.8v-97.8h97.8V799.7z"/>
	</g>
</g>
<g>
	<rect x="236.9" y="618.7" fill="#404447" width="59.8" height="28.5"/>
	<rect x="236.9" y="490.7" fill="#404447" fill-opacity="0.2" width="59.8" height="28.5"/>
	<rect x="236.9" y="522.7" fill="#404447" fill-opacity="0.4" width="59.8" height="28.5"/>
	<rect x="236.9" y="554.7" fill="#404447" fill-opacity="0.6" width="59.8" height="28.5"/>
	<rect x="236.9" y="586.7" fill="#404447" fill-opacity="0.8" width="59.8" height="28.5"/>
</g>
<g>
	<g>
		<path fill="#F08921" d="M314.4,396.2L314.4,396.2c0-3.6,2.7-6.6,6.6-6.6c2.4,0,3.8,0.8,5,1.9l-1.8,2c-1-0.9-2-1.4-3.2-1.4
			c-2.1,0-3.7,1.8-3.7,3.9v0c0,2.2,1.5,4,3.7,4c1.4,0,2.3-0.6,3.3-1.5l1.8,1.8c-1.3,1.4-2.7,2.3-5.2,2.3
			C317.2,402.7,314.4,399.8,314.4,396.2z"/>
		<path fill="#F08921" d="M328,389.3h2.7v4.9c0.6-0.8,1.4-1.5,2.8-1.5c2.1,0,3.3,1.4,3.3,3.6v6.2h-2.7v-5.4c0-1.3-0.6-2-1.7-2
			c-1,0-1.7,0.7-1.7,2v5.4H328V389.3z"/>
		<path fill="#F08921" d="M338.7,397.7L338.7,397.7c0-2.8,2-5.1,4.8-5.1c3.2,0,4.7,2.5,4.7,5.2c0,0.2,0,0.5,0,0.7h-6.7
			c0.3,1.2,1.1,1.9,2.4,1.9c0.9,0,1.6-0.3,2.3-1l1.6,1.4c-0.9,1.1-2.2,1.8-3.9,1.8C340.9,402.7,338.7,400.6,338.7,397.7z
			 M345.5,396.9c-0.2-1.2-0.9-2.1-2-2.1c-1.1,0-1.9,0.8-2.1,2.1H345.5z"/>
		<path fill="#F08921" d="M350.7,395.1h-1.1v-2.3h1.1v-0.6c0-1.1,0.3-1.8,0.8-2.3c0.5-0.5,1.2-0.8,2.2-0.8c0.9,0,1.4,0.1,1.9,0.3
			v2.3c-0.4-0.1-0.8-0.2-1.2-0.2c-0.6,0-1,0.3-1,1v0.4h2.2v2.2h-2.2v7.3h-2.7V395.1z"/>
		<path fill="#F08921" d="M361.9,400.6l1.6-2c1.1,0.9,2.3,1.5,3.8,1.5c1.1,0,1.8-0.5,1.8-1.2v0c0-0.7-0.4-1.1-2.5-1.6
			c-2.5-0.6-4.2-1.4-4.2-3.9v0c0-2.3,1.8-3.8,4.4-3.8c1.8,0,3.4,0.6,4.7,1.6l-1.4,2.1c-1.1-0.8-2.2-1.2-3.3-1.2s-1.6,0.5-1.6,1.1v0
			c0,0.8,0.5,1.1,2.7,1.7c2.6,0.7,4,1.6,4,3.8v0c0,2.5-1.9,3.9-4.6,3.9C365.4,402.6,363.4,401.9,361.9,400.6z"/>
		<path fill="#F08921" d="M373.5,397.7L373.5,397.7c0-2.8,2-5.1,4.8-5.1c3.2,0,4.7,2.5,4.7,5.2c0,0.2,0,0.5,0,0.7h-6.7
			c0.3,1.2,1.1,1.9,2.4,1.9c0.9,0,1.6-0.3,2.3-1l1.6,1.4c-0.9,1.1-2.2,1.8-3.9,1.8C375.7,402.7,373.5,400.6,373.5,397.7z
			 M380.3,396.9c-0.2-1.2-0.9-2.1-2-2.1c-1.1,0-1.9,0.8-2.1,2.1H380.3z"/>
		<path fill="#F08921" d="M385,392.8h2.7v1.9c0.6-1.3,1.5-2.2,3.1-2.1v2.9h-0.1c-1.8,0-2.9,1.1-2.9,3.4v3.6H385V392.8z"/>
		<path fill="#F08921" d="M391.7,392.8h2.9l2.2,6.5l2.2-6.5h2.8l-3.8,9.7h-2.5L391.7,392.8z"/>
		<path fill="#F08921" d="M402.4,397.7L402.4,397.7c0-2.8,2-5.1,4.8-5.1c3.2,0,4.7,2.5,4.7,5.2c0,0.2,0,0.5,0,0.7h-6.7
			c0.3,1.2,1.1,1.9,2.4,1.9c0.9,0,1.6-0.3,2.3-1l1.6,1.4c-0.9,1.1-2.2,1.8-3.9,1.8C404.5,402.7,402.4,400.6,402.4,397.7z
			 M409.2,396.9c-0.2-1.2-0.9-2.1-2-2.1c-1.1,0-1.9,0.8-2.1,2.1H409.2z"/>
		<path fill="#F08921" d="M413.9,392.8h2.7v1.9c0.6-1.3,1.5-2.2,3.1-2.1v2.9h-0.1c-1.8,0-2.9,1.1-2.9,3.4v3.6h-2.7V392.8z"/>
	</g>
</g>
<g>
	<line fill="#E6E7E8" x1="666.8" y1="415.3" x2="666.8" y2="684.7"/>
	<g>
		<line fill="none" stroke="#7F888D" stroke-width="4" stroke-miterlimit="10" x1="666.8" y1="415.3" x2="666.8" y2="670.4"/>
		<g>
			<polygon fill="#7F888D" points="656.8,667.5 666.8,684.7 676.8,667.5 			"/>
		</g>
	</g>
</g>
<g>
	<g>
		<g>
			<path fill="#445464" d="M119.6,378.8H14c-2.7,0-4.9-2.2-4.9-4.9V268.4c0-2.7,2.2-4.9,4.9-4.9h105.6c2.7,0,4.9,2.2,4.9,4.9V374
				C124.5,376.6,122.3,378.8,119.6,378.8L119.6,378.8z M18.9,369.1h95.9v-95.9H18.9V369.1L18.9,369.1z"/>
		</g>
		<g>
			<path fill="#445464" d="M117.9,299.1H15.7c-1.3,0-2.4-1.1-2.4-2.4s1.1-2.4,2.4-2.4h102.1c1.3,0,2.4,1.1,2.4,2.4
				S119.2,299.1,117.9,299.1L117.9,299.1z"/>
		</g>
		<path fill="#445464" d="M31.2,277.7c-3.4,0-6.1,2.7-6.1,6.1c0,3.4,2.7,6.1,6.1,6.1c3.4,0,6.1-2.7,6.1-6.1
			C37.3,280.5,34.6,277.7,31.2,277.7L31.2,277.7z"/>
		<path fill="#445464" d="M47.7,277.7c-3.4,0-6.1,2.7-6.1,6.1c0,3.4,2.7,6.1,6.1,6.1c3.4,0,6.1-2.7,6.1-6.1
			C53.9,280.5,51.1,277.7,47.7,277.7L47.7,277.7z"/>
		<path fill="#445464" d="M64.3,277.7c-3.4,0-6.1,2.7-6.1,6.1c0,3.4,2.7,6.1,6.1,6.1c3.4,0,6.1-2.7,6.1-6.1
			C70.4,280.5,67.7,277.7,64.3,277.7L64.3,277.7z"/>
	</g>
	<g>
		<g>
			<path fill="#445464" d="M66.8,318.5H33.7c-1.3,0-2.4-1.1-2.4-2.4c0-1.3,1.1-2.4,2.4-2.4h33.2c1.3,0,2.4,1.1,2.4,2.4
				C69.2,317.4,68.1,318.5,66.8,318.5L66.8,318.5z"/>
		</g>
		<g>
			<path fill="#445464" d="M66.8,333.9H33.7c-1.3,0-2.4-1.1-2.4-2.4c0-1.3,1.1-2.4,2.4-2.4h33.2c1.3,0,2.4,1.1,2.4,2.4
				C69.2,332.8,68.1,333.9,66.8,333.9L66.8,333.9z"/>
		</g>
		<g>
			<path fill="#445464" d="M66.8,349.2H33.7c-1.3,0-2.4-1.1-2.4-2.4c0-1.3,1.1-2.4,2.4-2.4h33.2c1.3,0,2.4,1.1,2.4,2.4
				C69.2,348.1,68.1,349.2,66.8,349.2L66.8,349.2z"/>
		</g>
		<g>
			<path fill="#445464" d="M100,349.2h-21c-1.3,0-2.4-1.1-2.4-2.4v-30.7c0-1.3,1.1-2.4,2.4-2.4h21c1.3,0,2.4,1.1,2.4,2.4v30.7
				C102.4,348.1,101.3,349.2,100,349.2L100,349.2z M81.4,344.4h16.2v-25.9H81.4V344.4L81.4,344.4z"/>
		</g>
	</g>
</g>
<g>
	<g>
		<path fill="#445464" d="M691.5,312.1h-36.1c-1.3,0-2.4-1.1-2.4-2.4v-20.4c0-1.3,1-2.4,2.4-2.4h36.1c1.3,0,2.4,1.1,2.4,2.4v20.4
			C693.9,311,692.8,312.1,691.5,312.1L691.5,312.1z M657.8,307.4h31.4v-15.7h-31.4V307.4L657.8,307.4z"/>
	</g>
	<g>
		<g>
			<path fill="#445464" d="M711.3,376.6h-80.7c-2.6,0-4.7-2.1-4.7-4.7V270.4c0-2.6,2.1-4.7,4.7-4.7h80.7c2.6,0,4.7,2.1,4.7,4.7
				v101.4C716,374.5,713.9,376.6,711.3,376.6L711.3,376.6z M635.3,367.2h71.3v-92h-71.3V367.2L635.3,367.2z"/>
		</g>
		<g>
			<path fill="#445464" d="M638.8,294.1h-16.5c-2.6,0-4.7-2.1-4.7-4.7s2.1-4.7,4.7-4.7h16.5c2.6,0,4.7,2.1,4.7,4.7
				S641.4,294.1,638.8,294.1L638.8,294.1z"/>
		</g>
		<g>
			<path fill="#445464" d="M638.8,315.1h-16.5c-2.6,0-4.7-2.1-4.7-4.7c0-2.6,2.1-4.7,4.7-4.7h16.5c2.6,0,4.7,2.1,4.7,4.7
				C643.5,313,641.4,315.1,638.8,315.1L638.8,315.1z"/>
		</g>
		<g>
			<path fill="#445464" d="M638.8,336.1h-16.5c-2.6,0-4.7-2.1-4.7-4.7s2.1-4.7,4.7-4.7h16.5c2.6,0,4.7,2.1,4.7,4.7
				S641.4,336.1,638.8,336.1L638.8,336.1z"/>
		</g>
		<g>
			<path fill="#445464" d="M638.8,357.1h-16.5c-2.6,0-4.7-2.1-4.7-4.7c0-2.6,2.1-4.7,4.7-4.7h16.5c2.6,0,4.7,2.1,4.7,4.7
				C643.5,355,641.4,357.1,638.8,357.1L638.8,357.1z"/>
		</g>
	</g>
</g>
<g>
	<path fill="#445464" d="M150.1,549.4h3l3.3,5.3l3.3-5.3h3V562H160v-8.2l-3.5,5.4h-0.1l-3.5-5.3v8.2h-2.7V549.4z"/>
	<path fill="#445464" d="M165,557.2L165,557.2c0-2.8,2-5.1,4.8-5.1c3.2,0,4.7,2.5,4.7,5.2c0,0.2,0,0.5,0,0.7h-6.7
		c0.3,1.2,1.1,1.9,2.4,1.9c0.9,0,1.6-0.3,2.3-1l1.6,1.4c-0.9,1.1-2.2,1.8-3.9,1.8C167.1,562.2,165,560.2,165,557.2z M171.8,556.4
		c-0.2-1.2-0.9-2.1-2-2.1c-1.1,0-1.9,0.8-2.1,2.1H171.8z"/>
	<path fill="#445464" d="M175.7,560.7l1.2-1.8c1,0.8,2.1,1.2,3,1.2c0.8,0,1.2-0.3,1.2-0.7v0c0-0.6-0.9-0.8-2-1.1
		c-1.4-0.4-2.9-1-2.9-2.9v0c0-2,1.6-3.1,3.5-3.1c1.2,0,2.6,0.4,3.6,1.1l-1,1.9c-1-0.6-1.9-0.9-2.6-0.9c-0.7,0-1,0.3-1,0.7v0
		c0,0.5,0.9,0.8,2,1.2c1.4,0.5,2.9,1.1,2.9,2.9v0c0,2.1-1.6,3.1-3.7,3.1C178.5,562.2,177,561.7,175.7,560.7z"/>
	<path fill="#445464" d="M184.6,560.7l1.2-1.8c1,0.8,2.1,1.2,3,1.2c0.8,0,1.2-0.3,1.2-0.7v0c0-0.6-0.9-0.8-2-1.1
		c-1.4-0.4-2.9-1-2.9-2.9v0c0-2,1.6-3.1,3.5-3.1c1.2,0,2.6,0.4,3.6,1.1l-1,1.9c-1-0.6-1.9-0.9-2.6-0.9c-0.7,0-1,0.3-1,0.7v0
		c0,0.5,0.9,0.8,2,1.2c1.4,0.5,2.9,1.1,2.9,2.9v0c0,2.1-1.6,3.1-3.7,3.1C187.4,562.2,185.9,561.7,184.6,560.7z"/>
	<path fill="#445464" d="M193.8,559.2L193.8,559.2c0-2.1,1.6-3.1,3.9-3.1c1,0,1.7,0.2,2.4,0.4v-0.2c0-1.1-0.7-1.8-2.1-1.8
		c-1,0-1.8,0.2-2.7,0.5l-0.7-2.1c1.1-0.5,2.1-0.8,3.7-0.8c1.5,0,2.6,0.4,3.3,1.1c0.7,0.7,1,1.8,1,3.1v5.6H200v-1
		c-0.7,0.7-1.6,1.2-2.9,1.2C195.3,562.2,193.8,561.1,193.8,559.2z M200.1,558.6v-0.5c-0.5-0.2-1.1-0.4-1.7-0.4
		c-1.2,0-1.9,0.5-1.9,1.3v0c0,0.7,0.6,1.2,1.5,1.2C199.2,560.3,200.1,559.6,200.1,558.6z"/>
	<path fill="#445464" d="M205.1,563.9l0.9-2.1c1,0.6,2,0.9,3.3,0.9c1.9,0,2.8-0.9,2.8-2.6v-0.5c-0.8,1-1.7,1.6-3.2,1.6
		c-2.2,0-4.3-1.6-4.3-4.5v0c0-2.9,2.1-4.5,4.3-4.5c1.5,0,2.4,0.6,3.1,1.4v-1.3h2.7v7.5c0,1.7-0.4,3-1.2,3.8
		c-0.9,0.9-2.3,1.3-4.2,1.3C207.8,564.9,206.3,564.5,205.1,563.9z M212,556.7L212,556.7c0-1.4-1-2.3-2.4-2.3c-1.3,0-2.3,0.9-2.3,2.2
		v0c0,1.3,1,2.2,2.3,2.2C211,558.9,212,558,212,556.7z"/>
	<path fill="#445464" d="M216.7,557.2L216.7,557.2c0-2.8,2-5.1,4.8-5.1c3.2,0,4.7,2.5,4.7,5.2c0,0.2,0,0.5,0,0.7h-6.7
		c0.3,1.2,1.1,1.9,2.4,1.9c0.9,0,1.6-0.3,2.3-1l1.6,1.4c-0.9,1.1-2.2,1.8-3.9,1.8C218.9,562.2,216.7,560.2,216.7,557.2z
		 M223.5,556.4c-0.2-1.2-0.9-2.1-2-2.1c-1.1,0-1.9,0.8-2.1,2.1H223.5z"/>
	<path fill="#445464" d="M169.5,582.7c-1.1,0.7-2.3,1.1-3.7,1.1c-3.9,0-6.7-2.9-6.7-6.5v0c0-3.6,2.8-6.5,6.7-6.5
		c3.9,0,6.7,2.9,6.7,6.5v0c0,1.3-0.4,2.6-1.1,3.6l1.3,1.1l-1.8,2L169.5,582.7z M167.5,580.9l-2.1-1.7l1.8-2l2.1,1.9
		c0.2-0.5,0.3-1.1,0.3-1.7v0c0-2.2-1.6-4-3.8-4c-2.2,0-3.8,1.8-3.8,3.9v0c0,2.2,1.6,4,3.8,4C166.4,581.2,167,581.1,167.5,580.9z"/>
	<path fill="#445464" d="M174.6,580.2v-6.2h2.7v5.4c0,1.3,0.6,2,1.7,2c1,0,1.7-0.7,1.7-2v-5.4h2.7v9.7h-2.7v-1.4
		c-0.6,0.8-1.4,1.5-2.8,1.5C175.8,583.8,174.6,582.4,174.6,580.2z"/>
	<path fill="#445464" d="M185.4,578.8L185.4,578.8c0-2.8,2-5.1,4.8-5.1c3.2,0,4.7,2.5,4.7,5.2c0,0.2,0,0.5,0,0.7h-6.7
		c0.3,1.2,1.1,1.9,2.4,1.9c0.9,0,1.6-0.3,2.3-1l1.6,1.4c-0.9,1.1-2.2,1.8-3.9,1.8C187.6,583.8,185.4,581.8,185.4,578.8z M192.2,578
		c-0.2-1.2-0.9-2.1-2-2.1c-1.1,0-1.9,0.8-2.1,2.1H192.2z"/>
	<path fill="#445464" d="M196.9,580.2v-6.2h2.7v5.4c0,1.3,0.6,2,1.7,2c1,0,1.7-0.7,1.7-2v-5.4h2.7v9.7H203v-1.4
		c-0.6,0.8-1.4,1.5-2.8,1.5C198.1,583.8,196.9,582.4,196.9,580.2z"/>
	<path fill="#445464" d="M207.7,578.8L207.7,578.8c0-2.8,2-5.1,4.8-5.1c3.2,0,4.7,2.5,4.7,5.2c0,0.2,0,0.5,0,0.7h-6.7
		c0.3,1.2,1.1,1.9,2.4,1.9c0.9,0,1.6-0.3,2.3-1l1.6,1.4c-0.9,1.1-2.2,1.8-3.9,1.8C209.8,583.8,207.7,581.8,207.7,578.8z M214.5,578
		c-0.2-1.2-0.9-2.1-2-2.1c-1.1,0-1.9,0.8-2.1,2.1H214.5z"/>
	<path fill="#445464" d="M218.4,582.3l1.2-1.8c1,0.8,2.1,1.2,3,1.2c0.8,0,1.2-0.3,1.2-0.7v0c0-0.6-0.9-0.8-2-1.1
		c-1.4-0.4-2.9-1-2.9-2.9v0c0-2,1.6-3.1,3.5-3.1c1.2,0,2.6,0.4,3.6,1.1l-1,1.9c-1-0.6-1.9-0.9-2.6-0.9c-0.7,0-1,0.3-1,0.7v0
		c0,0.5,0.9,0.8,2,1.2c1.4,0.5,2.9,1.1,2.9,2.9v0c0,2.1-1.6,3.1-3.7,3.1C221.2,583.8,219.7,583.3,218.4,582.3z"/>
</g>
<g>
	<g>
		<polyline fill="none" stroke="#7F888D" stroke-width="4" stroke-miterlimit="10" points="266.9,666.6 266.9,469.2 466.4,470.2 
			466.4,667.5 		"/>
		<g>
			<polygon fill="#7F888D" points="278.9,663.1 266.9,683.8 254.9,663.1 			"/>
		</g>
		<g>
			<polygon fill="#7F888D" points="454.5,664 466.4,684.7 478.4,664 			"/>
		</g>
	</g>
</g>
<line fill="none" stroke="#7F888D" stroke-width="4" stroke-miterlimit="10" x1="367.5" y1="467.6" x2="367.5" y2="415.6"/>
<path fill="none" stroke="#7F888D" stroke-width="4" stroke-miterlimit="10" d="M154.4,331.5"/>
<g>
	<line fill="#E6E7E8" x1="306.1" y1="321.2" x2="237.7" y2="321.2"/>
	<g>
		<line fill="none" stroke="#7F888D" stroke-width="4" stroke-miterlimit="10" x1="291.7" y1="321.2" x2="237.7" y2="321.2"/>
		<g>
			<polygon fill="#7F888D" points="288.8,311.2 306.1,321.2 288.8,331.1 			"/>
		</g>
	</g>
</g>
<line fill="#E6E7E8" stroke="#7F888D" stroke-width="4" stroke-miterlimit="10" x1="185.3" y1="321.2" x2="127.7" y2="321.2"/>
<g>
	<g>
		<path fill="#F08921" d="M419.2,376.6H314.4c-2.7,0-4.8-2.2-4.8-4.8v-103c0-2.7,2.2-4.8,4.8-4.8h104.8c2.7,0,4.8,2.2,4.8,4.8v103
			C424.1,374.5,421.9,376.6,419.2,376.6L419.2,376.6z M319.2,367h95.2v-93.3h-95.2V367L319.2,367z"/>
	</g>
	<path fill="#F08921" d="M331,284v71h71v-71H331z M366.5,296c5.4,0,10.3,1.8,14.3,4.7l-2.4,3.3c-3.3-2.5-7.4-3.9-11.9-3.9
		c-8.4,0-15.6,5.2-18.5,12.6l-3.8-1.5C347.7,302.3,356.4,296,366.5,296z M351.2,319.9c0,6.4,4,11.9,9.6,14.2l-1.5,3.8
		c-3.6-1.4-6.6-3.9-8.7-7c-2.1-3.1-3.4-6.9-3.4-11H351.2z M348.5,312.8c1.4-3.6,3.9-6.7,7-8.9c3.1-2.2,6.9-3.5,11-3.5v4
		c-6.5,0-12,4-14.3,9.7L348.5,312.8z M351.7,319.9c0-8.2,6.6-14.8,14.8-14.8c7.1,0,13.1,5.1,14.5,11.8h-4.2
		c-1.3-4.5-5.4-7.8-10.3-7.8c-5.9,0-10.8,4.8-10.8,10.8c0,5.9,4.8,10.8,10.8,10.8c4.9,0,9-3.3,10.3-7.8h4.2
		c-1.4,6.7-7.4,11.8-14.5,11.8C358.3,334.7,351.7,328,351.7,319.9z M371.7,316.9c-0.7-1.2-1.7-2.1-3-2.6l1.6-4
		c2.9,1.1,5.2,3.6,6.1,6.6H371.7z M376.3,322.8c-0.9,3-3.2,5.4-6.1,6.6l-1.6-4c1.3-0.5,2.3-1.4,3-2.6H376.3z M360.5,319.9
		c0,0.9,0.2,1.7,0.5,2.4l-3.9,1.7c-0.6-1.3-0.9-2.7-0.9-4.1c0-5.7,4.6-10.3,10.3-10.3v4.3C363.2,313.9,360.5,316.6,360.5,319.9z
		 M366.5,325.8v4.3c-2.8,0-5.4-1.2-7.2-3l3-3C363.4,325.2,364.9,325.8,366.5,325.8z M366.5,335.2c7.4,0,13.6-5.3,15-12.3h4.1
		c-1.4,9.3-9.5,16.4-19.1,16.4V335.2z M381.5,316.9c-1-5.2-4.7-9.4-9.5-11.3l1.5-3.8c6.3,2.5,11,8.2,12.1,15H381.5z M344.6,329.5
		c-0.4-0.9-0.7-1.8-1-2.7c0-0.1,0-0.1-0.1-0.2c0-0.2-0.1-0.3-0.1-0.5c0-0.1-0.1-0.3-0.1-0.4c0-0.1-0.1-0.3-0.1-0.4
		c0-0.2-0.1-0.3-0.1-0.5c0-0.1-0.1-0.2-0.1-0.3c0-0.2-0.1-0.4-0.1-0.6c0-0.1,0-0.1,0-0.2c0-0.3-0.1-0.5-0.1-0.8c0,0,0,0,0-0.1
		c-0.1-0.9-0.2-1.9-0.2-2.9h4.1c0,0.9,0.1,1.8,0.2,2.6c0,0.1,0,0.3,0.1,0.4c0,0.2,0.1,0.3,0.1,0.4c0,0.1,0,0.2,0,0.2
		c0,0.2,0.1,0.4,0.1,0.6c0,0,0,0.1,0,0.1c0.1,0.2,0.1,0.4,0.2,0.6c0,0,0,0,0,0c0.1,0.2,0.1,0.5,0.2,0.7c0.2,0.8,0.5,1.5,0.8,2.2
		L344.6,329.5z M366.5,343.7c-6.6,0-12.6-2.7-16.9-7l2.9-2.9c3.6,3.6,8.5,5.8,14,5.8c9.9,0,18.2-7.3,19.6-16.8h4.1
		C388.7,334.6,378.7,343.7,366.5,343.7z M386.1,316.9c-0.4-2.7-1.4-5.3-2.8-7.5l3.4-2.1c1.8,2.9,3,6.1,3.4,9.7H386.1z"/>
</g>
<line fill="#E6E7E8" stroke="#7F888D" stroke-width="4" stroke-miterlimit="10" x1="615.4" y1="320.3" x2="428" y2="320.3"/>
<g>
	<g>
		<polyline fill="none" stroke="#7F888D" stroke-width="4" stroke-miterlimit="10" points="62.2,246.2 62.2,192.6 368.3,192.6 
			368.3,243.3 		"/>
		<g>
			<polygon fill="#7F888D" points="72.2,243.3 62.2,260.5 52.2,243.3 			"/>
		</g>
		<g>
			<polygon fill="#7F888D" points="356.3,239.8 368.3,260.5 380.3,239.8 			"/>
		</g>
	</g>
</g>
<path fill="#7F888D" stroke="#FFFFFF" stroke-miterlimit="10" d="M241.3,321.2c0-2.8-1.9-4.6-3.1-5.7c0.6-1.5,1.6-3.9,0.4-6.4
	c-1.2-2.5-3.7-3.3-5.3-3.8c-0.1-1.7-0.3-4.2-2.5-6c-1.1-0.9-2.5-1.3-4.1-1.3c-0.8,0-1.6,0.1-2.3,0.2c-0.8-1.5-2.1-3.7-4.9-4.3
	c-0.4-0.1-0.8-0.1-1.3-0.1c-2.1,0-3.7,1.1-4.9,2c-1.2-0.9-2.8-2-4.9-2c-0.4,0-0.9,0.1-1.3,0.1c-2.7,0.6-4,2.9-4.9,4.3
	c-0.7-0.1-1.5-0.2-2.3-0.2c-1.6,0-3,0.4-4.1,1.3c-2.2,1.7-2.4,4.3-2.5,6c-1.6,0.5-4.1,1.2-5.3,3.8c-1.2,2.5-0.3,4.9,0.4,6.4
	c-1.2,1.1-3.1,2.9-3.1,5.7s1.9,4.6,3.1,5.7c-0.6,1.5-1.6,4-0.4,6.5c1.2,2.5,3.7,3.3,5.3,3.8c0.1,1.7,0.3,4.2,2.5,6
	c1.1,0.9,2.5,1.3,4.1,1.3c0.8,0,1.6-0.1,2.3-0.2c0.8,1.5,2.1,3.7,4.9,4.3c0.4,0.1,0.9,0.1,1.3,0.1c2.1,0,3.7-1.1,4.9-2
	c1.2,0.9,2.8,2,4.9,2c0.5,0,0.9,0,1.3-0.1c2.7-0.6,4.1-2.8,4.9-4.3c0.7,0.1,1.4,0.2,2.3,0.2c1.6,0,3-0.5,4.1-1.3
	c2.2-1.7,2.4-4.3,2.5-6c1.6-0.5,4.1-1.2,5.3-3.8c1.2-2.5,0.3-4.9-0.4-6.5C239.4,325.7,241.3,323.9,241.3,321.2z M233.2,325.7
	c-0.4,1.6,1.9,4.2,1.2,5.6c-0.7,1.5-4.1,1.3-5.1,2.6c-1,1.3-0.1,4.5-1.4,5.6c-0.3,0.3-0.8,0.3-1.2,0.3c-1.1,0-2.4-0.4-3.5-0.4
	c-0.4,0-0.7,0-1,0.2c-1.5,0.7-2,4-3.7,4.4c-0.1,0-0.2,0-0.3,0c-1.5,0-3.3-2.4-4.9-2.4s-3.4,2.4-4.9,2.4c-0.1,0-0.2,0-0.3,0
	c-1.6-0.4-2.2-3.7-3.7-4.4c-0.3-0.1-0.6-0.2-1-0.2c-1.1,0-2.4,0.4-3.5,0.4c-0.5,0-0.9-0.1-1.2-0.3c-1.3-1-0.4-4.3-1.4-5.6
	c-1-1.3-4.4-1.1-5.1-2.6c-0.7-1.5,1.5-4,1.2-5.6c-0.4-1.6-3.5-2.9-3.5-4.6c0-1.7,3.1-3,3.5-4.6c0.4-1.6-1.9-4.1-1.2-5.6
	c0.7-1.5,4.1-1.3,5.1-2.6c1-1.3,0.1-4.5,1.4-5.6c0.3-0.2,0.8-0.3,1.2-0.3c1.1,0,2.4,0.4,3.5,0.4c0.4,0,0.7-0.1,1-0.2
	c1.5-0.7,2-4,3.7-4.4c0.1,0,0.2,0,0.3,0c1.5,0,3.3,2.4,4.9,2.4s3.4-2.4,4.9-2.4c0.1,0,0.2,0,0.3,0c1.6,0.4,2.2,3.7,3.7,4.4
	c0.3,0.1,0.6,0.2,1,0.2c1.1,0,2.4-0.4,3.5-0.4c0.5,0,0.9,0.1,1.2,0.4c1.3,1,0.4,4.3,1.4,5.6c1,1.3,4.4,1.1,5.1,2.6
	c0.7,1.5-1.5,4-1.2,5.6c0.4,1.6,3.5,2.9,3.5,4.6C236.7,322.8,233.6,324.1,233.2,325.7z"/>
<path fill="#FFFFFF" d="M233.2,325.7c-0.4,1.6,1.9,4.2,1.2,5.6c-0.7,1.5-4.1,1.3-5.1,2.6c-1,1.3-0.1,4.5-1.4,5.6
	c-0.3,0.3-0.8,0.3-1.2,0.3c-1.1,0-2.4-0.4-3.5-0.4c-0.4,0-0.7,0-1,0.2c-1.5,0.7-2,4-3.7,4.4c-0.1,0-0.2,0-0.3,0
	c-1.5,0-3.3-2.4-4.9-2.4s-3.4,2.4-4.9,2.4c-0.1,0-0.2,0-0.3,0c-1.6-0.4-2.2-3.7-3.7-4.4c-0.3-0.1-0.6-0.2-1-0.2
	c-1.1,0-2.4,0.4-3.5,0.4c-0.5,0-0.9-0.1-1.2-0.3c-1.3-1-0.4-4.3-1.4-5.6c-1-1.3-4.4-1.1-5.1-2.6c-0.7-1.5,1.5-4,1.2-5.6
	c-0.4-1.6-3.5-2.9-3.5-4.6c0-1.7,3.1-3,3.5-4.6c0.4-1.6-1.9-4.1-1.2-5.6c0.7-1.5,4.1-1.3,5.1-2.6c1-1.3,0.1-4.5,1.4-5.6
	c0.3-0.2,0.8-0.3,1.2-0.3c1.1,0,2.4,0.4,3.5,0.4c0.4,0,0.7-0.1,1-0.2c1.5-0.7,2-4,3.7-4.4c0.1,0,0.2,0,0.3,0c1.5,0,3.3,2.4,4.9,2.4
	s3.4-2.4,4.9-2.4c0.1,0,0.2,0,0.3,0c1.6,0.4,2.2,3.7,3.7,4.4c0.3,0.1,0.6,0.2,1,0.2c1.1,0,2.4-0.4,3.5-0.4c0.5,0,0.9,0.1,1.2,0.4
	c1.3,1,0.4,4.3,1.4,5.6c1,1.3,4.4,1.1,5.1,2.6c0.7,1.5-1.5,4-1.2,5.6c0.4,1.6,3.5,2.9,3.5,4.6C236.7,322.8,233.6,324.1,233.2,325.7z
	"/>
<g>
	<path fill="#7F888D" d="M203,314.6h2.6l5.4,12.7H208l-1.2-2.8h-5.3l-1.2,2.8h-2.8L203,314.6z M205.9,322l-1.7-4.1l-1.7,4.1H205.9z"
		/>
	<path fill="#7F888D" d="M212.9,314.6h5.1c3,0,4.8,1.8,4.8,4.4v0c0,2.9-2.3,4.4-5.1,4.4h-2.1v3.8h-2.8V314.6z M217.9,321
		c1.4,0,2.2-0.8,2.2-1.9v0c0-1.2-0.9-1.9-2.3-1.9h-2.1v3.9H217.9z"/>
	<path fill="#7F888D" d="M225,314.6h2.8v12.6H225V314.6z"/>
</g>
<g>
	<path fill="#445464" d="M622.7,389.8h5.9c1.4,0,2.6,0.4,3.3,1.1c0.6,0.6,0.9,1.3,0.9,2.1v0c0,1.4-0.8,2.2-1.7,2.7
		c1.5,0.6,2.4,1.4,2.4,3.1v0c0,2.3-1.9,3.5-4.7,3.5h-6V389.8z M628,394.9c1.2,0,2-0.4,2-1.3v0c0-0.8-0.6-1.3-1.8-1.3h-2.7v2.7H628z
		 M628.7,400c1.2,0,2-0.4,2-1.4v0c0-0.8-0.6-1.4-2.1-1.4h-3.2v2.8H628.7z"/>
	<path fill="#445464" d="M635,397.7L635,397.7c0-2.8,2.2-5.1,5.2-5.1c3,0,5.2,2.2,5.2,5v0c0,2.8-2.2,5-5.2,5
		C637.2,402.7,635,400.4,635,397.7z M642.7,397.7L642.7,397.7c0-1.5-1-2.7-2.5-2.7c-1.6,0-2.5,1.2-2.5,2.6v0c0,1.4,1,2.7,2.5,2.7
		C641.8,400.3,642.7,399.1,642.7,397.7z"/>
	<path fill="#445464" d="M646.9,397.7L646.9,397.7c0-2.8,2.2-5.1,5.2-5.1c3,0,5.2,2.2,5.2,5v0c0,2.8-2.2,5-5.2,5
		C649.2,402.7,646.9,400.4,646.9,397.7z M654.7,397.7L654.7,397.7c0-1.5-1-2.7-2.5-2.7c-1.6,0-2.5,1.2-2.5,2.6v0
		c0,1.4,1,2.7,2.5,2.7C653.7,400.3,654.7,399.1,654.7,397.7z"/>
	<path fill="#445464" d="M659.4,389.3h2.7v7l3.2-3.5h3.3l-3.7,3.8l3.8,5.9h-3.1l-2.5-3.9l-1,1v2.9h-2.7V389.3z"/>
	<path fill="#445464" d="M669.3,401.2l1.2-1.8c1,0.8,2.1,1.2,3,1.2c0.8,0,1.2-0.3,1.2-0.7v0c0-0.6-0.9-0.8-2-1.1
		c-1.4-0.4-2.9-1-2.9-2.9v0c0-2,1.6-3.1,3.5-3.1c1.2,0,2.6,0.4,3.6,1.1l-1,1.9c-1-0.6-1.9-0.9-2.6-0.9c-0.7,0-1,0.3-1,0.7v0
		c0,0.5,0.9,0.8,2,1.2c1.4,0.5,2.9,1.1,2.9,2.9v0c0,2.1-1.6,3.1-3.7,3.1C672,402.6,670.5,402.2,669.3,401.2z"/>
	<path fill="#445464" d="M679.1,389.3h2.7v4.9c0.6-0.8,1.4-1.5,2.8-1.5c2.1,0,3.3,1.4,3.3,3.6v6.2h-2.7v-5.4c0-1.3-0.6-2-1.7-2
		c-1,0-1.7,0.7-1.7,2v5.4h-2.7V389.3z"/>
	<path fill="#445464" d="M689.8,397.7L689.8,397.7c0-2.8,2-5.1,4.8-5.1c3.2,0,4.7,2.5,4.7,5.2c0,0.2,0,0.5,0,0.7h-6.7
		c0.3,1.2,1.1,1.9,2.4,1.9c0.9,0,1.6-0.3,2.3-1l1.6,1.4c-0.9,1.1-2.2,1.8-3.9,1.8C691.9,402.7,689.8,400.6,689.8,397.7z
		 M696.6,396.9c-0.2-1.2-0.9-2.1-2-2.1c-1.1,0-1.9,0.8-2.1,2.1H696.6z"/>
	<path fill="#445464" d="M701.4,389.3h2.7v13.1h-2.7V389.3z"/>
	<path fill="#445464" d="M707.2,395.1h-1.1v-2.3h1.1v-0.6c0-1.1,0.3-1.8,0.8-2.3s1.2-0.8,2.2-0.8c0.9,0,1.4,0.1,1.9,0.3v2.3
		c-0.4-0.1-0.8-0.2-1.2-0.2c-0.6,0-1,0.3-1,1v0.4h2.2v2.2h-2.2v7.3h-2.7V395.1z"/>
</g>
<g>
	<path fill="#445464" d="M32.6,389.8h3l3.3,5.3l3.3-5.3h3v12.6h-2.8v-8.2l-3.5,5.4h-0.1l-3.5-5.3v8.2h-2.7V389.8z"/>
	<path fill="#445464" d="M47.3,399.7L47.3,399.7c0-2.1,1.6-3.1,3.9-3.1c1,0,1.7,0.2,2.4,0.4v-0.2c0-1.1-0.7-1.8-2.1-1.8
		c-1,0-1.8,0.2-2.7,0.5l-0.7-2.1c1.1-0.5,2.1-0.8,3.7-0.8c1.5,0,2.6,0.4,3.3,1.1c0.7,0.7,1,1.8,1,3.1v5.6h-2.6v-1
		c-0.7,0.7-1.6,1.2-2.9,1.2C48.8,402.6,47.3,401.6,47.3,399.7z M53.6,399v-0.5c-0.5-0.2-1.1-0.4-1.7-0.4c-1.2,0-1.9,0.5-1.9,1.3v0
		c0,0.7,0.6,1.2,1.5,1.2C52.7,400.7,53.6,400,53.6,399z"/>
	<path fill="#445464" d="M58.6,392.8h2.7v1.4c0.6-0.8,1.4-1.5,2.8-1.5c2.1,0,3.3,1.4,3.3,3.6v6.2h-2.7v-5.4c0-1.3-0.6-2-1.7-2
		c-1,0-1.7,0.7-1.7,2v5.4h-2.7V392.8z"/>
	<path fill="#445464" d="M69.2,399.7L69.2,399.7c0-2.1,1.6-3.1,3.9-3.1c1,0,1.7,0.2,2.4,0.4v-0.2c0-1.1-0.7-1.8-2.1-1.8
		c-1,0-1.8,0.2-2.7,0.5l-0.7-2.1c1.1-0.5,2.1-0.8,3.7-0.8c1.5,0,2.6,0.4,3.3,1.1c0.7,0.7,1,1.8,1,3.1v5.6h-2.6v-1
		c-0.7,0.7-1.6,1.2-2.9,1.2C70.7,402.6,69.2,401.6,69.2,399.7z M75.5,399v-0.5c-0.5-0.2-1.1-0.4-1.7-0.4c-1.2,0-1.9,0.5-1.9,1.3v0
		c0,0.7,0.6,1.2,1.5,1.2C74.6,400.7,75.5,400,75.5,399z"/>
	<path fill="#445464" d="M80.5,404.3l0.9-2.1c1,0.6,2,0.9,3.3,0.9c1.9,0,2.8-0.9,2.8-2.6v-0.5c-0.8,1-1.7,1.6-3.2,1.6
		c-2.2,0-4.3-1.6-4.3-4.5v0c0-2.9,2.1-4.5,4.3-4.5c1.5,0,2.4,0.6,3.1,1.4v-1.3h2.7v7.5c0,1.7-0.4,3-1.2,3.8
		c-0.9,0.9-2.3,1.3-4.2,1.3C83.2,405.4,81.7,405,80.5,404.3z M87.4,397.1L87.4,397.1c0-1.4-1-2.3-2.4-2.3c-1.3,0-2.3,0.9-2.3,2.2v0
		c0,1.3,1,2.2,2.3,2.2C86.4,399.4,87.4,398.5,87.4,397.1z"/>
	<path fill="#445464" d="M92.1,397.7L92.1,397.7c0-2.8,2-5.1,4.8-5.1c3.2,0,4.7,2.5,4.7,5.2c0,0.2,0,0.5,0,0.7h-6.7
		c0.3,1.2,1.1,1.9,2.4,1.9c0.9,0,1.6-0.3,2.3-1l1.6,1.4c-0.9,1.1-2.2,1.8-3.9,1.8C94.2,402.7,92.1,400.6,92.1,397.7z M98.9,396.9
		c-0.2-1.2-0.9-2.1-2-2.1c-1.1,0-1.9,0.8-2.1,2.1H98.9z"/>
</g>
<g>
	<path fill="#445464" d="M208.4,829.8l1.6-2c1.1,0.9,2.3,1.5,3.8,1.5c1.1,0,1.8-0.4,1.8-1.2v0c0-0.7-0.4-1.1-2.5-1.6
		c-2.5-0.6-4.2-1.4-4.2-3.9v0c0-2.3,1.8-3.8,4.4-3.8c1.8,0,3.4,0.6,4.7,1.6l-1.4,2.1c-1.1-0.8-2.2-1.2-3.3-1.2
		c-1.1,0-1.6,0.5-1.6,1.1v0c0,0.8,0.5,1.1,2.7,1.7c2.6,0.7,4,1.6,4,3.8v0c0,2.5-1.9,3.9-4.6,3.9C211.9,831.9,210,831.2,208.4,829.8z
		"/>
	<path fill="#445464" d="M220.1,826.9L220.1,826.9c0-2.8,2-5.1,4.8-5.1c3.2,0,4.7,2.5,4.7,5.2c0,0.2,0,0.5,0,0.7h-6.7
		c0.3,1.2,1.1,1.9,2.4,1.9c0.9,0,1.6-0.3,2.3-1l1.6,1.4c-0.9,1.1-2.2,1.8-3.9,1.8C222.2,831.9,220.1,829.9,220.1,826.9z
		 M226.9,826.1c-0.2-1.2-0.9-2.1-2-2.1c-1.1,0-1.9,0.8-2.1,2.1H226.9z"/>
	<path fill="#445464" d="M231,828.9L231,828.9c0-2.1,1.6-3.1,3.9-3.1c1,0,1.7,0.2,2.4,0.4V826c0-1.1-0.7-1.8-2.1-1.8
		c-1,0-1.8,0.2-2.7,0.5l-0.7-2.1c1.1-0.5,2.1-0.8,3.7-0.8c1.5,0,2.6,0.4,3.3,1.1c0.7,0.7,1,1.8,1,3.1v5.6h-2.6v-1
		c-0.7,0.7-1.6,1.2-2.9,1.2C232.5,831.9,231,830.8,231,828.9z M237.3,828.3v-0.5c-0.5-0.2-1.1-0.4-1.7-0.4c-1.2,0-1.9,0.5-1.9,1.3v0
		c0,0.7,0.6,1.2,1.5,1.2C236.4,830,237.3,829.3,237.3,828.3z"/>
	<path fill="#445464" d="M242.2,822h2.7v1.9c0.6-1.3,1.5-2.2,3.1-2.1v2.9h-0.1c-1.8,0-2.9,1.1-2.9,3.4v3.6h-2.7V822z"/>
	<path fill="#445464" d="M249,826.9L249,826.9c0-2.8,2.1-5.1,5.1-5.1c1.8,0,3,0.6,3.9,1.6l-1.7,1.8c-0.6-0.6-1.2-1.1-2.2-1.1
		c-1.4,0-2.3,1.2-2.3,2.6v0c0,1.5,1,2.7,2.4,2.7c0.9,0,1.5-0.4,2.2-1l1.6,1.6c-0.9,1-2,1.8-3.9,1.8C251.1,831.9,249,829.7,249,826.9
		z"/>
	<path fill="#445464" d="M259.8,818.5h2.7v4.9c0.6-0.8,1.4-1.5,2.8-1.5c2.1,0,3.3,1.4,3.3,3.6v6.2h-2.7v-5.4c0-1.3-0.6-2-1.7-2
		c-1,0-1.7,0.7-1.7,2v5.4h-2.7V818.5z"/>
	<path fill="#445464" d="M276.8,819.1h2.8v12.6h-2.8V819.1z"/>
	<path fill="#445464" d="M282.4,822h2.7v1.4c0.6-0.8,1.4-1.5,2.8-1.5c2.1,0,3.3,1.4,3.3,3.6v6.2h-2.7v-5.4c0-1.3-0.6-2-1.7-2
		c-1,0-1.7,0.7-1.7,2v5.4h-2.7V822z"/>
	<path fill="#445464" d="M293.2,826.9L293.2,826.9c0-3.3,2.1-5,4.4-5c1.5,0,2.4,0.7,3,1.4v-4.8h2.7v13.1h-2.7v-1.4
		c-0.7,0.9-1.6,1.6-3,1.6C295.4,831.9,293.2,830.1,293.2,826.9z M300.6,826.9L300.6,826.9c0-1.6-1.1-2.7-2.3-2.7s-2.4,1-2.4,2.7v0
		c0,1.6,1.1,2.7,2.4,2.7S300.6,828.5,300.6,826.9z"/>
	<path fill="#445464" d="M305.3,826.9L305.3,826.9c0-2.8,2-5.1,4.8-5.1c3.2,0,4.7,2.5,4.7,5.2c0,0.2,0,0.5,0,0.7H308
		c0.3,1.2,1.1,1.9,2.4,1.9c0.9,0,1.6-0.3,2.3-1l1.6,1.4c-0.9,1.1-2.2,1.8-3.9,1.8C307.5,831.9,305.3,829.9,305.3,826.9z
		 M312.1,826.1c-0.2-1.2-0.9-2.1-2-2.1c-1.1,0-1.9,0.8-2.1,2.1H312.1z"/>
	<path fill="#445464" d="M318.9,826.8l-3.3-4.8h2.9l1.8,2.8l1.8-2.8h2.9l-3.3,4.7l3.4,5h-2.9l-1.9-3l-1.9,3h-2.9L318.9,826.8z"/>
</g>
<g>
	<path fill="#445464" d="M419.8,819.1h4.9c4,0,6.7,2.7,6.7,6.3v0c0,3.5-2.7,6.3-6.7,6.3h-4.9V819.1z M424.7,829.2
		c2.3,0,3.8-1.5,3.8-3.8v0c0-2.2-1.5-3.8-3.8-3.8h-2.1v7.6H424.7z"/>
	<path fill="#445464" d="M433,828.9L433,828.9c0-2.1,1.6-3.1,3.9-3.1c1,0,1.7,0.2,2.4,0.4V826c0-1.1-0.7-1.8-2.1-1.8
		c-1,0-1.8,0.2-2.7,0.5l-0.7-2.1c1.1-0.5,2.1-0.8,3.7-0.8c1.5,0,2.6,0.4,3.3,1.1c0.7,0.7,1,1.8,1,3.1v5.6h-2.6v-1
		c-0.7,0.7-1.6,1.2-2.9,1.2C434.5,831.9,433,830.8,433,828.9z M439.3,828.3v-0.5c-0.5-0.2-1.1-0.4-1.7-0.4c-1.2,0-1.9,0.5-1.9,1.3v0
		c0,0.7,0.6,1.2,1.5,1.2C438.4,830,439.3,829.3,439.3,828.3z"/>
	<path fill="#445464" d="M444.6,828.9v-4.6h-1.2V822h1.2v-2.5h2.7v2.5h2.3v2.3h-2.3v4.1c0,0.6,0.3,0.9,0.9,0.9c0.5,0,1-0.1,1.3-0.3
		v2.2c-0.6,0.3-1.2,0.6-2.2,0.6C445.7,831.8,444.6,831.2,444.6,828.9z"/>
	<path fill="#445464" d="M451,828.9L451,828.9c0-2.1,1.6-3.1,3.9-3.1c1,0,1.7,0.2,2.4,0.4V826c0-1.1-0.7-1.8-2.1-1.8
		c-1,0-1.8,0.2-2.7,0.5l-0.7-2.1c1.1-0.5,2.1-0.8,3.7-0.8c1.5,0,2.6,0.4,3.3,1.1c0.7,0.7,1,1.8,1,3.1v5.6h-2.6v-1
		c-0.7,0.7-1.6,1.2-2.9,1.2C452.5,831.9,451,830.8,451,828.9z M457.3,828.3v-0.5c-0.5-0.2-1.1-0.4-1.7-0.4c-1.2,0-1.9,0.5-1.9,1.3v0
		c0,0.7,0.6,1.2,1.5,1.2C456.5,830,457.3,829.3,457.3,828.3z"/>
	<path fill="#445464" d="M467.1,829.8l1.6-2c1.1,0.9,2.3,1.5,3.8,1.5c1.1,0,1.8-0.4,1.8-1.2v0c0-0.7-0.4-1.1-2.5-1.6
		c-2.5-0.6-4.2-1.4-4.2-3.9v0c0-2.3,1.8-3.8,4.4-3.8c1.8,0,3.4,0.6,4.7,1.6l-1.4,2.1c-1.1-0.8-2.2-1.2-3.3-1.2
		c-1.1,0-1.6,0.5-1.6,1.1v0c0,0.8,0.5,1.1,2.7,1.7c2.6,0.7,4,1.6,4,3.8v0c0,2.5-1.9,3.9-4.6,3.9
		C470.5,831.9,468.6,831.2,467.1,829.8z"/>
	<path fill="#445464" d="M479.6,828.9v-4.6h-1.2V822h1.2v-2.5h2.7v2.5h2.3v2.3h-2.3v4.1c0,0.6,0.3,0.9,0.9,0.9c0.5,0,1-0.1,1.3-0.3
		v2.2c-0.6,0.3-1.2,0.6-2.2,0.6C480.7,831.8,479.6,831.2,479.6,828.9z"/>
	<path fill="#445464" d="M485.8,826.9L485.8,826.9c0-2.8,2.2-5.1,5.2-5.1c3,0,5.2,2.2,5.2,5v0c0,2.8-2.2,5-5.2,5
		C488.1,831.9,485.8,829.7,485.8,826.9z M493.6,826.9L493.6,826.9c0-1.5-1-2.7-2.5-2.7c-1.6,0-2.5,1.2-2.5,2.6v0
		c0,1.4,1,2.7,2.5,2.7C492.7,829.5,493.6,828.3,493.6,826.9z"/>
	<path fill="#445464" d="M498.3,822h2.7v1.9c0.6-1.3,1.5-2.2,3.1-2.1v2.9h-0.1c-1.8,0-2.9,1.1-2.9,3.4v3.6h-2.7V822z"/>
	<path fill="#445464" d="M505.1,826.9L505.1,826.9c0-2.8,2-5.1,4.8-5.1c3.2,0,4.7,2.5,4.7,5.2c0,0.2,0,0.5,0,0.7h-6.7
		c0.3,1.2,1.1,1.9,2.4,1.9c0.9,0,1.6-0.3,2.3-1l1.6,1.4c-0.9,1.1-2.2,1.8-3.9,1.8C507.2,831.9,505.1,829.9,505.1,826.9z
		 M511.9,826.1c-0.2-1.2-0.9-2.1-2-2.1c-1.1,0-1.9,0.8-2.1,2.1H511.9z"/>
</g>
<g>
	<path fill="#445464" d="M613.5,825.4L613.5,825.4c0-3.6,2.7-6.6,6.6-6.6c2.4,0,3.8,0.8,5,1.9l-1.8,2c-1-0.9-2-1.4-3.2-1.4
		c-2.1,0-3.7,1.8-3.7,3.9v0c0,2.2,1.5,4,3.7,4c1.4,0,2.3-0.6,3.3-1.5l1.8,1.8c-1.3,1.4-2.7,2.3-5.2,2.3
		C616.3,831.9,613.5,829,613.5,825.4z"/>
	<path fill="#445464" d="M626.4,826.9L626.4,826.9c0-2.8,2.2-5.1,5.2-5.1c3,0,5.2,2.2,5.2,5v0c0,2.8-2.2,5-5.2,5
		C628.6,831.9,626.4,829.7,626.4,826.9z M634.2,826.9L634.2,826.9c0-1.5-1-2.7-2.5-2.7c-1.6,0-2.5,1.2-2.5,2.6v0
		c0,1.4,1,2.7,2.5,2.7C633.2,829.5,634.2,828.3,634.2,826.9z"/>
	<path fill="#445464" d="M638.4,826.9L638.4,826.9c0-2.8,2.2-5.1,5.2-5.1c3,0,5.2,2.2,5.2,5v0c0,2.8-2.2,5-5.2,5
		C640.6,831.9,638.4,829.7,638.4,826.9z M646.1,826.9L646.1,826.9c0-1.5-1-2.7-2.5-2.7c-1.6,0-2.5,1.2-2.5,2.6v0
		c0,1.4,1,2.7,2.5,2.7C645.2,829.5,646.1,828.3,646.1,826.9z"/>
	<path fill="#445464" d="M650.8,818.5h2.7v7l3.2-3.5h3.3l-3.7,3.8l3.8,5.9H657l-2.5-3.9l-1,1v2.9h-2.7V818.5z"/>
	<path fill="#445464" d="M664.2,830.4v1.3h-2.7v-13.1h2.7v4.9c0.7-0.9,1.6-1.6,3-1.6c2.3,0,4.4,1.8,4.4,5v0c0,3.2-2.1,5-4.4,5
		C665.7,831.9,664.8,831.2,664.2,830.4z M668.9,826.9L668.9,826.9c0-1.6-1.1-2.7-2.4-2.7s-2.3,1.1-2.3,2.7v0c0,1.6,1.1,2.7,2.3,2.7
		S668.9,828.5,668.9,826.9z"/>
	<path fill="#445464" d="M673.1,826.9L673.1,826.9c0-2.8,2.2-5.1,5.2-5.1c3,0,5.2,2.2,5.2,5v0c0,2.8-2.2,5-5.2,5
		C675.3,831.9,673.1,829.7,673.1,826.9z M680.9,826.9L680.9,826.9c0-1.5-1-2.7-2.5-2.7c-1.6,0-2.5,1.2-2.5,2.6v0
		c0,1.4,1,2.7,2.5,2.7C679.9,829.5,680.9,828.3,680.9,826.9z"/>
	<path fill="#445464" d="M685.1,826.9L685.1,826.9c0-2.8,2.2-5.1,5.2-5.1c3,0,5.2,2.2,5.2,5v0c0,2.8-2.2,5-5.2,5
		C687.3,831.9,685.1,829.7,685.1,826.9z M692.8,826.9L692.8,826.9c0-1.5-1-2.7-2.5-2.7c-1.6,0-2.5,1.2-2.5,2.6v0
		c0,1.4,1,2.7,2.5,2.7C691.9,829.5,692.8,828.3,692.8,826.9z"/>
	<path fill="#445464" d="M697.5,818.5h2.7v7l3.2-3.5h3.3l-3.7,3.8l3.8,5.9h-3.1l-2.5-3.9l-1,1v2.9h-2.7V818.5z"/>
	<path fill="#445464" d="M707.4,830.4l1.2-1.8c1,0.8,2.1,1.2,3,1.2c0.8,0,1.2-0.3,1.2-0.7v0c0-0.6-0.9-0.8-2-1.1
		c-1.4-0.4-2.9-1-2.9-2.9v0c0-2,1.6-3.1,3.5-3.1c1.2,0,2.6,0.4,3.6,1.1l-1,1.9c-1-0.6-1.9-0.9-2.6-0.9c-0.7,0-1,0.3-1,0.7v0
		c0,0.5,0.9,0.8,2,1.2c1.4,0.5,2.9,1.1,2.9,2.9v0c0,2.1-1.6,3.1-3.7,3.1C710.2,831.9,708.7,831.4,707.4,830.4z"/>
</g>
<g>
	<g>
		<g>
			<path fill="#445464" d="M510,74.2h-41.6c-1.1,0-1.9-0.9-1.9-1.9V30.7c0-1.1,0.9-1.9,1.9-1.9H510c1.1,0,1.9,0.9,1.9,1.9v41.6
				C511.9,73.3,511,74.2,510,74.2L510,74.2z M470.3,70.4h37.8V32.6h-37.8V70.4L470.3,70.4z"/>
		</g>
		<g>
			<path fill="#445464" d="M509.3,42.8h-40.2c-0.5,0-1-0.4-1-1c0-0.5,0.4-1,1-1h40.2c0.5,0,1,0.4,1,1
				C510.2,42.3,509.8,42.8,509.3,42.8L509.3,42.8z"/>
		</g>
		<path fill="#445464" d="M475.1,34.4c-1.3,0-2.4,1.1-2.4,2.4c0,1.3,1.1,2.4,2.4,2.4c1.3,0,2.4-1.1,2.4-2.4
			C477.6,35.4,476.5,34.4,475.1,34.4L475.1,34.4z"/>
		<path fill="#445464" d="M481.7,34.4c-1.3,0-2.4,1.1-2.4,2.4c0,1.3,1.1,2.4,2.4,2.4s2.4-1.1,2.4-2.4
			C484.1,35.4,483,34.4,481.7,34.4L481.7,34.4z"/>
		<path fill="#445464" d="M488.2,34.4c-1.3,0-2.4,1.1-2.4,2.4c0,1.3,1.1,2.4,2.4,2.4c1.3,0,2.4-1.1,2.4-2.4
			C490.6,35.4,489.5,34.4,488.2,34.4L488.2,34.4z"/>
	</g>
	<g>
		<g>
			<g>
				<path fill="#445464" d="M500.6,64.4h-12.2c-1.1,0-1.9-0.9-1.9-1.9c0-1.1,0.9-1.9,1.9-1.9h12.2c1.1,0,1.9,0.9,1.9,1.9
					C502.5,63.6,501.7,64.4,500.6,64.4L500.6,64.4z"/>
			</g>
		</g>
		<g>
			<g>
				<path fill="#445464" d="M477.7,64.4c-0.5,0-1-0.2-1.4-0.6c-0.7-0.7-0.7-2,0-2.7l5.6-5.6l-5.6-5.6c-0.7-0.7-0.7-2,0-2.7
					c0.7-0.7,2-0.7,2.7,0l6.9,6.9c0.7,0.7,0.7,2,0,2.7l-6.9,6.9C478.7,64.2,478.2,64.4,477.7,64.4L477.7,64.4z"/>
			</g>
		</g>
	</g>
</g>
<g>
	<path fill="#F08921" d="M340.4,63L340.4,63c0-2,1.5-3.7,3.7-3.7c1.3,0,2.1,0.4,2.8,1.1l-1,1.1c-0.5-0.5-1.1-0.8-1.8-0.8
		c-1.2,0-2,1-2,2.2v0c0,1.2,0.8,2.2,2,2.2c0.8,0,1.3-0.3,1.8-0.8l1,1c-0.7,0.8-1.5,1.3-2.9,1.3C342,66.6,340.4,65,340.4,63z"/>
	<path fill="#F08921" d="M348,59.1h1.5v2.7c0.4-0.5,0.8-0.9,1.6-0.9c1.2,0,1.8,0.8,1.8,2v3.5h-1.5v-3c0-0.7-0.3-1.1-0.9-1.1
		c-0.6,0-1,0.4-1,1.1v3H348V59.1z"/>
	<path fill="#F08921" d="M354,63.8L354,63.8c0-1.6,1.1-2.8,2.7-2.8c1.8,0,2.6,1.4,2.6,2.9c0,0.1,0,0.3,0,0.4h-3.8
		c0.2,0.7,0.6,1.1,1.3,1.1c0.5,0,0.9-0.2,1.3-0.6l0.9,0.8c-0.5,0.6-1.2,1-2.2,1C355.2,66.6,354,65.5,354,63.8z M357.8,63.4
		c-0.1-0.7-0.5-1.1-1.1-1.1c-0.6,0-1,0.5-1.2,1.1H357.8z"/>
	<path fill="#F08921" d="M360.7,62.4H360v-1.3h0.6v-0.3c0-0.6,0.2-1,0.4-1.3c0.3-0.3,0.7-0.4,1.2-0.4c0.5,0,0.8,0.1,1.1,0.2v1.3
		c-0.2-0.1-0.4-0.1-0.7-0.1c-0.4,0-0.6,0.2-0.6,0.6v0.2h1.2v1.2h-1.2v4.1h-1.5V62.4z"/>
	<path fill="#F08921" d="M367.1,63L367.1,63c0-2,1.5-3.7,3.7-3.7c1.3,0,2.1,0.4,2.8,1.1l-1,1.1c-0.5-0.5-1.1-0.8-1.8-0.8
		c-1.2,0-2,1-2,2.2v0c0,1.2,0.8,2.2,2,2.2c0.8,0,1.3-0.3,1.8-0.8l1,1c-0.7,0.8-1.5,1.3-2.9,1.3C368.7,66.6,367.1,65,367.1,63z"/>
	<path fill="#F08921" d="M374.8,59.1h1.5v7.3h-1.5V59.1z"/>
	<path fill="#F08921" d="M377.8,59.1h1.6v1.4h-1.6V59.1z M377.8,61.1h1.5v5.4h-1.5V61.1z"/>
	<path fill="#F08921" d="M380.5,63.8L380.5,63.8c0-1.6,1.1-2.8,2.7-2.8c1.8,0,2.6,1.4,2.6,2.9c0,0.1,0,0.3,0,0.4H382
		c0.2,0.7,0.6,1.1,1.3,1.1c0.5,0,0.9-0.2,1.3-0.6l0.9,0.8c-0.5,0.6-1.2,1-2.2,1C381.7,66.6,380.5,65.5,380.5,63.8z M384.3,63.4
		c-0.1-0.7-0.5-1.1-1.1-1.1c-0.6,0-1,0.5-1.2,1.1H384.3z"/>
	<path fill="#F08921" d="M386.9,61.1h1.5v0.8c0.4-0.5,0.8-0.9,1.6-0.9c1.2,0,1.8,0.8,1.8,2v3.5h-1.5v-3c0-0.7-0.3-1.1-0.9-1.1
		c-0.6,0-1,0.4-1,1.1v3h-1.5V61.1z"/>
	<path fill="#F08921" d="M393.4,64.9v-2.6h-0.6v-1.3h0.6v-1.4h1.5v1.4h1.3v1.3H395v2.3c0,0.4,0.2,0.5,0.5,0.5c0.3,0,0.5-0.1,0.8-0.2
		v1.2c-0.3,0.2-0.7,0.3-1.2,0.3C394.1,66.6,393.4,66.2,393.4,64.9z"/>
</g>
<g>
	<path fill="#7F888D" stroke="#FFFFFF" stroke-miterlimit="10" d="M396.3,192.6c0-2.8-1.9-4.6-3.1-5.7c0.6-1.5,1.6-3.9,0.4-6.4
		c-1.2-2.5-3.7-3.3-5.3-3.8c-0.1-1.7-0.3-4.2-2.5-6c-1.1-0.9-2.5-1.3-4.1-1.3c-0.8,0-1.6,0.1-2.3,0.2c-0.8-1.5-2.1-3.7-4.9-4.3
		c-0.4-0.1-0.8-0.1-1.3-0.1c-2.1,0-3.7,1.1-4.9,2c-1.2-0.9-2.8-2-4.9-2c-0.4,0-0.9,0.1-1.3,0.1c-2.7,0.6-4,2.9-4.9,4.3
		c-0.7-0.1-1.5-0.2-2.3-0.2c-1.6,0-3,0.4-4.1,1.3c-2.2,1.7-2.4,4.3-2.5,6c-1.6,0.5-4.1,1.2-5.3,3.8c-1.2,2.5-0.3,4.9,0.4,6.4
		c-1.2,1.1-3.1,2.9-3.1,5.7s1.9,4.6,3.1,5.7c-0.6,1.5-1.6,4-0.4,6.5c1.2,2.5,3.7,3.3,5.3,3.8c0.1,1.7,0.3,4.2,2.5,6
		c1.1,0.9,2.5,1.3,4.1,1.3c0.8,0,1.6-0.1,2.3-0.2c0.8,1.5,2.1,3.7,4.9,4.3c0.4,0.1,0.9,0.1,1.3,0.1c2.1,0,3.7-1.1,4.9-2
		c1.2,0.9,2.8,2,4.9,2c0.5,0,0.9,0,1.3-0.1c2.7-0.6,4.1-2.8,4.9-4.3c0.7,0.1,1.4,0.2,2.3,0.2c1.6,0,3-0.5,4.1-1.3
		c2.2-1.7,2.4-4.3,2.5-6c1.6-0.5,4.1-1.2,5.3-3.8c1.2-2.5,0.3-4.9-0.4-6.5C394.4,197.2,396.3,195.4,396.3,192.6z M388.2,197.2
		c-0.4,1.6,1.9,4.2,1.2,5.6c-0.7,1.5-4.1,1.3-5.1,2.6c-1,1.3-0.1,4.5-1.4,5.6c-0.3,0.3-0.8,0.3-1.2,0.3c-1.1,0-2.4-0.4-3.5-0.4
		c-0.4,0-0.7,0-1,0.2c-1.5,0.7-2,4-3.7,4.4c-0.1,0-0.2,0-0.3,0c-1.5,0-3.3-2.4-4.9-2.4s-3.4,2.4-4.9,2.4c-0.1,0-0.2,0-0.3,0
		c-1.6-0.4-2.2-3.7-3.7-4.4c-0.3-0.1-0.6-0.2-1-0.2c-1.1,0-2.4,0.4-3.5,0.4c-0.5,0-0.9-0.1-1.2-0.3c-1.3-1-0.4-4.3-1.4-5.6
		c-1-1.3-4.4-1.1-5.1-2.6c-0.7-1.5,1.5-4,1.2-5.6c-0.4-1.6-3.5-2.9-3.5-4.6c0-1.7,3.1-3,3.5-4.6c0.4-1.6-1.9-4.1-1.2-5.6
		c0.7-1.5,4.1-1.3,5.1-2.6c1-1.3,0.1-4.5,1.4-5.6c0.3-0.2,0.8-0.3,1.2-0.3c1.1,0,2.4,0.4,3.5,0.4c0.4,0,0.7-0.1,1-0.2
		c1.5-0.7,2-4,3.7-4.4c0.1,0,0.2,0,0.3,0c1.5,0,3.3,2.4,4.9,2.4s3.4-2.4,4.9-2.4c0.1,0,0.2,0,0.3,0c1.6,0.4,2.2,3.7,3.7,4.4
		c0.3,0.1,0.6,0.2,1,0.2c1.1,0,2.4-0.4,3.5-0.4c0.5,0,0.9,0.1,1.2,0.4c1.3,1,0.4,4.3,1.4,5.6c1,1.3,4.4,1.1,5.1,2.6
		c0.7,1.5-1.5,4-1.2,5.6c0.4,1.6,3.5,2.9,3.5,4.6C391.7,194.3,388.6,195.6,388.2,197.2z"/>
	<path fill="#FFFFFF" d="M388.2,197.2c-0.4,1.6,1.9,4.2,1.2,5.6c-0.7,1.5-4.1,1.3-5.1,2.6c-1,1.3-0.1,4.5-1.4,5.6
		c-0.3,0.3-0.8,0.3-1.2,0.3c-1.1,0-2.4-0.4-3.5-0.4c-0.4,0-0.7,0-1,0.2c-1.5,0.7-2,4-3.7,4.4c-0.1,0-0.2,0-0.3,0
		c-1.5,0-3.3-2.4-4.9-2.4s-3.4,2.4-4.9,2.4c-0.1,0-0.2,0-0.3,0c-1.6-0.4-2.2-3.7-3.7-4.4c-0.3-0.1-0.6-0.2-1-0.2
		c-1.1,0-2.4,0.4-3.5,0.4c-0.5,0-0.9-0.1-1.2-0.3c-1.3-1-0.4-4.3-1.4-5.6c-1-1.3-4.4-1.1-5.1-2.6c-0.7-1.5,1.5-4,1.2-5.6
		c-0.4-1.6-3.5-2.9-3.5-4.6c0-1.7,3.1-3,3.5-4.6c0.4-1.6-1.9-4.1-1.2-5.6c0.7-1.5,4.1-1.3,5.1-2.6c1-1.3,0.1-4.5,1.4-5.6
		c0.3-0.2,0.8-0.3,1.2-0.3c1.1,0,2.4,0.4,3.5,0.4c0.4,0,0.7-0.1,1-0.2c1.5-0.7,2-4,3.7-4.4c0.1,0,0.2,0,0.3,0c1.5,0,3.3,2.4,4.9,2.4
		s3.4-2.4,4.9-2.4c0.1,0,0.2,0,0.3,0c1.6,0.4,2.2,3.7,3.7,4.4c0.3,0.1,0.6,0.2,1,0.2c1.1,0,2.4-0.4,3.5-0.4c0.5,0,0.9,0.1,1.2,0.4
		c1.3,1,0.4,4.3,1.4,5.6c1,1.3,4.4,1.1,5.1,2.6c0.7,1.5-1.5,4-1.2,5.6c0.4,1.6,3.5,2.9,3.5,4.6C391.7,194.3,388.6,195.6,388.2,197.2
		z"/>
	<g>
		<path fill="#7F888D" d="M358,186h2.6l5.4,12.7H363l-1.2-2.8h-5.3l-1.2,2.8h-2.8L358,186z M360.9,193.4l-1.7-4.1l-1.7,4.1H360.9z"
			/>
		<path fill="#7F888D" d="M367.9,186.1h5.1c3,0,4.8,1.8,4.8,4.4v0c0,2.9-2.3,4.4-5.1,4.4h-2.1v3.8h-2.8V186.1z M372.8,192.5
			c1.4,0,2.2-0.8,2.2-1.9v0c0-1.2-0.9-1.9-2.3-1.9h-2.1v3.9H372.8z"/>
		<path fill="#7F888D" d="M380,186.1h2.8v12.6H380V186.1z"/>
	</g>
	<g>
		<path fill="#7F888D" d="M358,186h2.6l5.4,12.7H363l-1.2-2.8h-5.3l-1.2,2.8h-2.8L358,186z M360.9,193.4l-1.7-4.1l-1.7,4.1H360.9z"
			/>
		<path fill="#7F888D" d="M367.9,186.1h5.1c3,0,4.8,1.8,4.8,4.4v0c0,2.9-2.3,4.4-5.1,4.4h-2.1v3.8h-2.8V186.1z M372.8,192.5
			c1.4,0,2.2-0.8,2.2-1.9v0c0-1.2-0.9-1.9-2.3-1.9h-2.1v3.9H372.8z"/>
		<path fill="#7F888D" d="M380,186.1h2.8v12.6H380V186.1z"/>
	</g>
</g>
<line fill="#E6E7E8" stroke="#7F888D" stroke-width="4" stroke-miterlimit="10" x1="356.4" y1="122.3" x2="268.3" y2="122.3"/>
<polyline fill="none" stroke="#7F888D" stroke-width="4" stroke-miterlimit="10" points="366.8,122.3 247.7,122.3 247.7,92.3 "/>
<polyline fill="none" stroke="#7F888D" stroke-width="4" stroke-miterlimit="10" points="370.1,122.3 489.2,122.3 489.2,92.3 "/>
<g>
	<path fill="#445464" d="M476.7,79.4h1.5v3.1l2.9-3.1h1.9l-2.9,3l3,4.1h-1.9l-2.2-3l-0.8,0.8v2.2h-1.5V79.4z"/>
	<path fill="#445464" d="M483.9,81.1h1.5v0.8c0.4-0.5,0.8-0.9,1.6-0.9c1.2,0,1.8,0.8,1.8,2v3.5h-1.5v-3c0-0.7-0.3-1.1-0.9-1.1
		c-0.6,0-1,0.4-1,1.1v3h-1.5V81.1z"/>
	<path fill="#445464" d="M490.2,79.1h1.6v1.4h-1.6V79.1z M490.3,81.1h1.5v5.4h-1.5V81.1z"/>
	<path fill="#445464" d="M493.5,82.4h-0.6v-1.3h0.6v-0.3c0-0.6,0.2-1,0.4-1.3c0.3-0.3,0.7-0.4,1.2-0.4c0.5,0,0.8,0.1,1.1,0.2v1.3
		c-0.2-0.1-0.4-0.1-0.7-0.1c-0.4,0-0.6,0.2-0.6,0.6v0.2h1.2v1.2H495v4.1h-1.5V82.4z"/>
	<path fill="#445464" d="M496.7,83.8L496.7,83.8c0-1.6,1.1-2.8,2.7-2.8c1.8,0,2.6,1.4,2.6,2.9c0,0.1,0,0.3,0,0.4h-3.8
		c0.2,0.7,0.6,1.1,1.3,1.1c0.5,0,0.9-0.2,1.3-0.6l0.9,0.8c-0.5,0.6-1.2,1-2.2,1C497.9,86.6,496.7,85.5,496.7,83.8z M500.5,83.4
		c-0.1-0.7-0.5-1.1-1.1-1.1c-0.6,0-1,0.5-1.2,1.1H500.5z"/>
</g>
<g>
	<path fill="#445464" d="M234.4,83.5v-4h1.5v4c0,1.1,0.6,1.7,1.5,1.7s1.5-0.6,1.5-1.7v-4h1.5v4c0,2.1-1.2,3.2-3.1,3.2
		C235.6,86.6,234.4,85.5,234.4,83.5z"/>
	<path fill="#445464" d="M241.6,85.8l0.7-1c0.6,0.4,1.2,0.6,1.7,0.6c0.4,0,0.6-0.2,0.6-0.4v0c0-0.3-0.5-0.4-1.1-0.6
		c-0.8-0.2-1.6-0.6-1.6-1.6v0c0-1.1,0.9-1.7,2-1.7c0.7,0,1.4,0.2,2,0.6l-0.6,1.1c-0.5-0.3-1.1-0.5-1.5-0.5c-0.4,0-0.6,0.2-0.6,0.4v0
		c0,0.3,0.5,0.4,1.1,0.6c0.8,0.3,1.6,0.6,1.6,1.6v0c0,1.2-0.9,1.7-2.1,1.7C243.1,86.6,242.3,86.3,241.6,85.8z"/>
	<path fill="#445464" d="M246.8,83.8L246.8,83.8c0-1.6,1.1-2.8,2.7-2.8c1.8,0,2.6,1.4,2.6,2.9c0,0.1,0,0.3,0,0.4h-3.8
		c0.2,0.7,0.6,1.1,1.3,1.1c0.5,0,0.9-0.2,1.3-0.6l0.9,0.8c-0.5,0.6-1.2,1-2.2,1C248,86.6,246.8,85.5,246.8,83.8z M250.6,83.4
		c-0.1-0.7-0.5-1.1-1.1-1.1c-0.6,0-1,0.5-1.2,1.1H250.6z"/>
	<path fill="#445464" d="M253.2,81.1h1.5v1.1c0.3-0.7,0.8-1.2,1.7-1.2v1.6h-0.1c-1,0-1.6,0.6-1.6,1.9v2h-1.5V81.1z"/>
	<path fill="#445464" d="M257,85.8l0.7-1c0.6,0.4,1.2,0.6,1.7,0.6c0.4,0,0.6-0.2,0.6-0.4v0c0-0.3-0.5-0.4-1.1-0.6
		c-0.8-0.2-1.6-0.6-1.6-1.6v0c0-1.1,0.9-1.7,2-1.7c0.7,0,1.4,0.2,2,0.6l-0.6,1.1c-0.5-0.3-1.1-0.5-1.5-0.5c-0.4,0-0.6,0.2-0.6,0.4v0
		c0,0.3,0.5,0.4,1.1,0.6c0.8,0.3,1.6,0.6,1.6,1.6v0c0,1.2-0.9,1.7-2.1,1.7C258.5,86.6,257.7,86.3,257,85.8z"/>
</g>
<g>
	<g>
		<path fill="#F08921" d="M390.2,53.8H348c-1.1,0-1.9-0.9-1.9-1.9V10.3c0-1.1,0.9-1.9,1.9-1.9h42.2c1.1,0,1.9,0.9,1.9,1.9v41.5
			C392.1,52.9,391.3,53.8,390.2,53.8L390.2,53.8z M349.9,49.9h38.3V12.3h-38.3V49.9L349.9,49.9z"/>
	</g>
	<g>
		<path fill="#F08921" d="M369.1,37.5c-3.5,0-6.4-2.9-6.4-6.4c0-3.5,2.9-6.4,6.4-6.4c2.9,0,5.4,2,6.2,4.6h2.5
			c-0.8-4-4.4-7.1-8.7-7.1c-4.9,0-8.9,4-8.9,8.9c0,4.9,4,8.9,8.9,8.9c4.3,0,7.8-3,8.7-7.1h-2.5C374.5,35.5,372.1,37.5,369.1,37.5"/>
		<path fill="#F08921" d="M364.8,35.4c1.1,1.1,2.6,1.8,4.3,1.8v-2.6c-1,0-1.9-0.4-2.5-1L364.8,35.4z"/>
		<path fill="#F08921" d="M363,31.1c0,0.9,0.2,1.7,0.5,2.5l2.3-1c-0.2-0.4-0.3-0.9-0.3-1.4c0-2,1.6-3.6,3.6-3.6v-2.6
			C365.7,24.9,363,27.7,363,31.1"/>
		<path fill="#F08921" d="M371.4,25.4l-0.9,2.4c0.8,0.3,1.4,0.8,1.8,1.5h2.8C374.5,27.5,373.1,26,371.4,25.4"/>
		<path fill="#F08921" d="M370.4,34.4l0.9,2.4c1.7-0.7,3.1-2.1,3.6-3.9h-2.8C371.8,33.6,371.2,34.1,370.4,34.4"/>
		<path fill="#F08921" d="M357.8,34.5c0-0.1-0.1-0.3-0.1-0.4c0,0,0,0,0,0c0-0.1-0.1-0.3-0.1-0.4c0,0,0-0.1,0-0.1
			c0-0.1,0-0.2-0.1-0.3c0,0,0-0.1,0-0.1c0-0.1,0-0.2,0-0.3c0-0.1,0-0.2,0-0.2c-0.1-0.5-0.1-1-0.1-1.6h-2.4c0,0.6,0,1.2,0.1,1.7h0
			c0,0,0,0,0,0c0,0.2,0,0.3,0.1,0.5c0,0,0,0.1,0,0.1c0,0.1,0,0.3,0.1,0.4c0,0.1,0,0.1,0,0.2c0,0.1,0,0.2,0.1,0.3
			c0,0.1,0,0.2,0.1,0.3c0,0.1,0,0.2,0.1,0.2c0,0.1,0.1,0.2,0.1,0.3c0,0,0,0.1,0,0.1l0,0c0.2,0.6,0.4,1.1,0.6,1.6l2.2-1
			C358.1,35.4,357.9,35,357.8,34.5z"/>
		<path fill="#F08921" d="M369.1,42.9c-3.3,0-6.2-1.3-8.4-3.5l-1.7,1.7c2.6,2.6,6.2,4.2,10.1,4.2c7.3,0,13.3-5.5,14.2-12.5h-2.4
			C380,38.6,375.1,42.9,369.1,42.9"/>
		<path fill="#F08921" d="M369.1,19.2c2.7,0,5.1,0.9,7.1,2.4l1.5-1.9c-2.4-1.8-5.3-2.8-8.5-2.8c-6.1,0-11.2,3.8-13.3,9.1l2.3,0.9
			C359.8,22.4,364.1,19.2,369.1,19.2"/>
		<path fill="#F08921" d="M380.9,29.3h2.4c-0.3-2.1-1-4.1-2.1-5.8l-2.1,1.3C380,26.1,380.6,27.7,380.9,29.3"/>
		<path fill="#F08921" d="M378.1,29.3h2.5c-0.6-4.1-3.5-7.5-7.2-9l-0.9,2.3C375.3,23.7,377.5,26.2,378.1,29.3"/>
		<path fill="#F08921" d="M369.1,21.9L369.1,21.9l0-2.4h0c-4.9,0-9.1,3.1-10.8,7.4l2.3,0.9C361.9,24.3,365.3,21.9,369.1,21.9"/>
		<path fill="#F08921" d="M360,31.1L360,31.1l-2.4,0v0c0,4.9,3,9,7.3,10.7l0.9-2.2C362.4,38.2,360,34.9,360,31.1"/>
		<path fill="#F08921" d="M369.1,40.2v2.4c5.8,0,10.6-4.2,11.4-9.8h-2.5C377.3,37,373.6,40.2,369.1,40.2"/>
	</g>
</g>
<g>
	<g>
		<path fill="#445464" d="M249.3,52.5c-4.5,0-8.2-4.1-8.2-9.1c0-5,3.7-9.1,8.2-9.1s8.2,4.1,8.2,9.1
			C257.5,48.4,253.8,52.5,249.3,52.5L249.3,52.5z M249.3,38.6c-2.1,0-3.9,2.1-3.9,4.8c0,2.6,1.7,4.8,3.9,4.8c2.1,0,3.9-2.1,3.9-4.8
			C253.2,40.7,251.4,38.6,249.3,38.6L249.3,38.6z"/>
	</g>
	<g>
		<path fill="#445464" d="M260.7,73.7h-23.2c-1.1,0-2.1-0.9-2.2-2c-0.2-2.5-0.3-5-0.5-7.5c-0.2-3,2.1-6.4,5-7.5
			c6-2.1,12.5-2.1,18.4,0c3,1.1,5.3,4.5,5.1,7.5l-0.5,7.5C262.8,72.8,261.9,73.7,260.7,73.7L260.7,73.7z M239.6,69.3h19.2l0.4-5.5
			c0.1-0.9-0.8-2.7-2.2-3.2c-4.9-1.8-10.5-1.8-15.5,0c-1.4,0.5-2.3,2.2-2.2,3.2C239.3,65.7,239.4,67.5,239.6,69.3L239.6,69.3z"/>
	</g>
	<g>
		<path fill="#445464" d="M260.7,73.7h-23.2c-1.1,0-2.1-0.9-2.2-2c-0.2-2.5-0.3-5-0.5-7.5c-0.2-3,2.1-6.4,5-7.5
			c6-2.1,12.5-2.1,18.4,0c3,1.1,5.3,4.5,5.1,7.5l-0.5,7.5C262.8,72.8,261.9,73.7,260.7,73.7L260.7,73.7z M239.6,69.3h19.2l0.4-5.5
			c0.1-0.9-0.8-2.7-2.2-3.2c-4.9-1.8-10.5-1.8-15.5,0c-1.4,0.5-2.3,2.2-2.2,3.2C239.3,65.7,239.4,67.5,239.6,69.3L239.6,69.3z"/>
	</g>
	<g>
		<path fill="#445464" d="M274.8,70.1h-9.2c-0.6,0-1.1-0.5-1.1-1.1c0-0.6,0.5-1.1,1.1-1.1h8.2l0.4-5.5c0.1-1.2-1-3-2.4-3.5
			c-2.1-0.8-4.3-1.2-6.6-1.2c-0.6,0-1.1-0.5-1.1-1.1c0-0.6,0.5-1.1,1.1-1.1h0c2.5,0,4.9,0.5,7.3,1.3c2.3,0.8,4,3.4,3.9,5.7l-0.4,6.5
			C275.8,69.7,275.4,70.1,274.8,70.1L274.8,70.1z"/>
	</g>
	<g>
		<path fill="#445464" d="M267.7,53.3c-3.2,0-5.8-2.9-5.8-6.5c0-3.6,2.6-6.5,5.8-6.5c3.2,0,5.8,2.9,5.8,6.5
			C273.5,50.4,270.9,53.3,267.7,53.3L267.7,53.3z M267.7,42.5c-2,0-3.6,1.9-3.6,4.3c0,2.4,1.6,4.3,3.6,4.3c2,0,3.6-1.9,3.6-4.3
			C271.3,44.4,269.7,42.5,267.7,42.5L267.7,42.5z"/>
	</g>
	<g>
		<path fill="#445464" d="M232.7,70.1h-9.2c-0.6,0-1-0.4-1.1-1l-0.4-6.5c-0.2-2.3,1.6-4.9,3.9-5.7c2.3-0.8,4.8-1.3,7.3-1.3
			c0.6,0.1,1.1,0.5,1.1,1.1c0,0.6-0.5,1.1-1.1,1.1c-2.2,0-4.5,0.4-6.6,1.2c-1.5,0.5-2.5,2.3-2.4,3.5l0.4,5.5h8.2
			c0.6,0,1.1,0.5,1.1,1.1C233.8,69.6,233.3,70.1,232.7,70.1L232.7,70.1z"/>
	</g>
	<g>
		<path fill="#445464" d="M230.6,53.3c-3.2,0-5.8-2.9-5.8-6.5c0-3.6,2.6-6.5,5.8-6.5c3.2,0,5.8,2.9,5.8,6.5
			C236.4,50.4,233.8,53.3,230.6,53.3L230.6,53.3z M230.6,42.5c-2,0-3.6,1.9-3.6,4.3c0,2.4,1.6,4.3,3.6,4.3c2,0,3.6-1.9,3.6-4.3
			C234.2,44.4,232.6,42.5,230.6,42.5L230.6,42.5z"/>
	</g>
</g>
<g>
	<rect x="347.6" y="103" fill="#FFFFFF" stroke="#7F888D" stroke-width="4" stroke-miterlimit="10" width="40" height="39.8"/>
	<g>
		<g>
			<path fill="#7F888D" stroke="#7F888D" stroke-miterlimit="10" d="M366.2,124.4c-0.8-0.8-0.8-2,0-2.8c0.8-0.8,2-0.8,2.8,0
				c0.8,0.8,0.8,2,0,2.8C368.2,125.2,366.9,125.2,366.2,124.4L366.2,124.4z M368.2,122.4c-0.3-0.3-0.9-0.3-1.3,0
				c-0.3,0.4-0.3,0.9,0,1.3c0.4,0.3,0.9,0.3,1.3,0C368.5,123.3,368.5,122.7,368.2,122.4L368.2,122.4z"/>
		</g>
		<g>
			<path fill="#7F888D" stroke="#7F888D" stroke-miterlimit="10" d="M370.1,135.9H365c-0.5,0-1-0.4-1-1v-5.1c0-0.5,0.4-1,1-1h5.1
				c0.5,0,1,0.4,1,1v5.1C371.1,135.5,370.6,135.9,370.1,135.9L370.1,135.9z M366,134h3.1v-3.1H366V134L366,134z"/>
		</g>
		<g>
			<path fill="#7F888D" stroke="#7F888D" stroke-miterlimit="10" d="M370.1,117H365c-0.5,0-1-0.4-1-1v-5.1c0-0.5,0.4-1,1-1h5.1
				c0.5,0,1,0.4,1,1v5.1C371.1,116.5,370.7,117,370.1,117L370.1,117z M366,115h3.1v-3.1H366V115L366,115z"/>
		</g>
		<g>
			<path fill="#7F888D" stroke="#7F888D" stroke-miterlimit="10" d="M360.7,135.9h-5.1c-0.5,0-1-0.4-1-1v-5.1c0-0.5,0.4-1,1-1h5.1
				c0.5,0,1,0.4,1,1v5.1C361.7,135.5,361.3,135.9,360.7,135.9L360.7,135.9z M356.6,134h3.1v-3.1h-3.1V134L356.6,134z"/>
		</g>
		<g>
			<path fill="#7F888D" stroke="#7F888D" stroke-miterlimit="10" d="M379.5,135.9h-5.1c-0.5,0-1-0.4-1-1v-5.1c0-0.5,0.4-1,1-1h5.1
				c0.5,0,1,0.4,1,1v5.1C380.5,135.5,380.1,135.9,379.5,135.9L379.5,135.9z M375.4,134h3.1v-3.1h-3.1V134L375.4,134z"/>
		</g>
		<rect x="369.1" y="122.6" fill="#7F888D" stroke="#7F888D" stroke-miterlimit="10" width="8.4" height="0.8"/>
		<rect x="357.4" y="122.6" fill="#7F888D" stroke="#7F888D" stroke-miterlimit="10" width="8.4" height="0.8"/>
		<rect x="376.7" y="123.2" fill="#7F888D" stroke="#7F888D" stroke-miterlimit="10" width="0.8" height="5.9"/>
		<rect x="357.4" y="123.2" fill="#7F888D" stroke="#7F888D" stroke-miterlimit="10" width="0.9" height="6"/>
		<rect x="367.2" y="124.1" fill="#7F888D" stroke="#7F888D" stroke-miterlimit="10" width="0.8" height="5.9"/>
		<rect x="367.2" y="115.9" fill="#7F888D" stroke="#7F888D" stroke-miterlimit="10" width="0.8" height="5.9"/>
	</g>
</g>
<g>
</g>
<g>
</g>
<g>
</g>
<g>
</g>
<g>
</g>
<g>
</g>
<g>
</g>
</svg>
