<?xml version="1.0" encoding="utf-8"?>
<!-- Generator: Adobe Illustrator 19.1.0, SVG Export Plug-In . SVG Version: 6.00 Build 0)  -->
<svg version="1.1" id="Layer_1" xmlns="http://www.w3.org/2000/svg" xmlns:xlink="http://www.w3.org/1999/xlink" x="0px" y="0px"
	 viewBox="0 0 287.9 115.8" enable-background="new 0 0 287.9 115.8" xml:space="preserve">
<rect fill="#445464" width="287.9" height="115.8"/>
<g>
	<g>
		<path fill="#FFFFFF" d="M162.9,54.1h3c1.8,0,2.8,1,2.8,2.5v0c0,1.7-1.3,2.6-3,2.6h-1.2v2.2h-1.6V54.1z M165.8,57.8
			c0.8,0,1.3-0.5,1.3-1.1v0c0-0.7-0.5-1.1-1.3-1.1h-1.2v2.2H165.8z"/>
		<path fill="#FFFFFF" d="M169.8,53.8h1.7v1.4h-1.7V53.8z M169.8,55.8h1.6v5.6h-1.6V55.8z"/>
		<path fill="#FFFFFF" d="M172.9,55.8h1.6v0.8c0.4-0.5,0.9-0.9,1.8-0.9c1.3,0,2.6,1,2.6,2.9v0c0,1.9-1.2,2.9-2.6,2.9
			c-0.9,0-1.4-0.4-1.8-0.8v2.4h-1.6V55.8z M177.2,58.6L177.2,58.6c0-1-0.6-1.6-1.4-1.6c-0.7,0-1.4,0.6-1.4,1.6v0
			c0,0.9,0.6,1.6,1.4,1.6C176.6,60.2,177.2,59.6,177.2,58.6z"/>
		<path fill="#FFFFFF" d="M179.7,58.7L179.7,58.7c0-1.6,1.1-2.9,2.8-2.9c1.9,0,2.7,1.5,2.7,3.1c0,0.1,0,0.3,0,0.4h-3.9
			c0.2,0.7,0.7,1.1,1.4,1.1c0.5,0,0.9-0.2,1.4-0.6l0.9,0.8c-0.5,0.7-1.3,1-2.3,1C181,61.6,179.7,60.4,179.7,58.7z M183.7,58.2
			c-0.1-0.7-0.5-1.2-1.2-1.2c-0.7,0-1.1,0.5-1.2,1.2H183.7z"/>
		<path fill="#FFFFFF" d="M186.5,53.8h1.6v7.7h-1.6V53.8z"/>
		<path fill="#FFFFFF" d="M189.6,53.8h1.7v1.4h-1.7V53.8z M189.7,55.8h1.6v5.6h-1.6V55.8z"/>
		<path fill="#FFFFFF" d="M192.8,55.8h1.6v0.8c0.4-0.5,0.8-0.9,1.6-0.9c1.2,0,1.9,0.8,1.9,2.1v3.6h-1.6v-3.1c0-0.8-0.4-1.1-1-1.1
			c-0.6,0-1,0.4-1,1.1v3.1h-1.6V55.8z"/>
		<path fill="#FFFFFF" d="M199,58.7L199,58.7c0-1.6,1.1-2.9,2.8-2.9c1.9,0,2.7,1.5,2.7,3.1c0,0.1,0,0.3,0,0.4h-3.9
			c0.2,0.7,0.7,1.1,1.4,1.1c0.5,0,0.9-0.2,1.4-0.6l0.9,0.8c-0.5,0.7-1.3,1-2.3,1C200.3,61.6,199,60.4,199,58.7z M203,58.2
			c-0.1-0.7-0.5-1.2-1.2-1.2c-0.7,0-1.1,0.5-1.2,1.2H203z"/>
		<path fill="#FFFFFF" d="M208.7,57.8L208.7,57.8c0-2.1,1.6-3.8,3.8-3.8c1.4,0,2.2,0.5,2.9,1.1l-1,1.2c-0.6-0.5-1.1-0.8-1.9-0.8
			c-1.2,0-2.1,1-2.1,2.3v0c0,1.3,0.9,2.3,2.1,2.3c0.8,0,1.4-0.3,1.9-0.9l1,1c-0.8,0.8-1.6,1.3-3,1.3
			C210.3,61.6,208.7,59.9,208.7,57.8z"/>
	</g>
</g>
<rect x="99.9" y="9.9" fill="#7F888D" width="178.2" height="96"/>
<rect x="189.9" y="19.9" fill="#6CB1E1" width="78.5" height="76"/>
<g>
	<g>
		<path fill="#FFFFFF" d="M229.1,72.2c-0.3,0-0.5-0.1-0.8-0.2l-19.4-9.6c-0.7-0.3-1.1-1.1-1.1-1.9V41.2c0-0.8,0.4-1.6,1.1-1.9
			l19.4-9.6c0.5-0.2,1.1-0.2,1.6,0l19.4,9.6c0.7,0.3,1.1,1.1,1.1,1.9v19.3c0,0.8-0.4,1.6-1.1,1.9l-19.4,9.6
			C229.7,72.2,229.4,72.2,229.1,72.2L229.1,72.2z M211.6,59.2l17.5,8.7l17.5-8.7V42.6l-17.5-8.7l-17.5,8.7V59.2L211.6,59.2z"/>
	</g>
	<g>
		<path fill="#FFFFFF" d="M229.1,53.5c-0.3,0-0.5-0.1-0.8-0.2l-19.4-9.6c-1-0.5-1.4-1.7-0.9-2.7c0.4-1,1.6-1.5,2.5-1l18.7,9.3
			l18.7-9.3c1-0.5,2.1,0,2.5,1c0.4,1,0,2.3-0.9,2.7l-19.4,9.6C229.7,53.4,229.4,53.5,229.1,53.5L229.1,53.5z"/>
	</g>
	<g>
		<path fill="#FFFFFF" d="M239.6,47.7c-0.1,0-0.3,0-0.4-0.1L219.8,38c-0.5-0.2-0.7-0.9-0.5-1.4c0.2-0.5,0.8-0.7,1.3-0.5l19.4,9.6
			c0.5,0.2,0.7,0.9,0.5,1.4C240.3,47.5,240,47.7,239.6,47.7L239.6,47.7z"/>
	</g>
	<g>
		<path fill="#FFFFFF" d="M229.1,71.5c-1.1,0-1.9-0.9-1.9-2.1v-16c0-1.1,0.9-2.1,1.9-2.1c1.1,0,1.9,0.9,1.9,2.1v16
			C231,70.6,230.2,71.5,229.1,71.5L229.1,71.5z"/>
	</g>
</g>
<g>
	<g>
		<path fill="#FFFFFF" d="M207.5,80h3c1.8,0,2.8,1,2.8,2.5v0c0,1.7-1.3,2.6-3,2.6h-1.2v2.2h-1.6V80z M210.4,83.7
			c0.8,0,1.3-0.5,1.3-1.1v0c0-0.7-0.5-1.1-1.3-1.1h-1.2v2.2H210.4z"/>
		<path fill="#FFFFFF" d="M213.9,85.8L213.9,85.8c0-1.2,0.9-1.8,2.3-1.8c0.6,0,1,0.1,1.4,0.2v-0.1c0-0.7-0.4-1-1.2-1
			c-0.6,0-1,0.1-1.6,0.3l-0.4-1.2c0.6-0.3,1.2-0.5,2.2-0.5c0.9,0,1.5,0.2,1.9,0.6c0.4,0.4,0.6,1,0.6,1.8v3.3h-1.5v-0.6
			c-0.4,0.4-0.9,0.7-1.7,0.7C214.8,87.5,213.9,86.9,213.9,85.8z M217.6,85.4v-0.3c-0.3-0.1-0.6-0.2-1-0.2c-0.7,0-1.1,0.3-1.1,0.8v0
			c0,0.4,0.4,0.7,0.9,0.7C217.1,86.4,217.6,86,217.6,85.4z"/>
		<path fill="#FFFFFF" d="M220.2,84.6L220.2,84.6c0-1.6,1.2-2.9,2.9-2.9c1.1,0,1.7,0.4,2.2,0.9l-1,1c-0.4-0.4-0.7-0.6-1.3-0.6
			c-0.8,0-1.4,0.7-1.4,1.5v0c0,0.9,0.6,1.6,1.4,1.6c0.5,0,0.9-0.2,1.3-0.6l0.9,0.9c-0.5,0.6-1.2,1-2.3,1
			C221.4,87.5,220.2,86.2,220.2,84.6z"/>
		<path fill="#FFFFFF" d="M226.5,79.7h1.6v4.1l1.9-2h1.9l-2.1,2.2l2.2,3.4h-1.8l-1.5-2.3l-0.6,0.6v1.7h-1.6V79.7z"/>
		<path fill="#FFFFFF" d="M232.3,85.8L232.3,85.8c0-1.2,0.9-1.8,2.3-1.8c0.6,0,1,0.1,1.4,0.2v-0.1c0-0.7-0.4-1-1.2-1
			c-0.6,0-1,0.1-1.6,0.3l-0.4-1.2c0.6-0.3,1.2-0.5,2.2-0.5c0.9,0,1.5,0.2,1.9,0.6c0.4,0.4,0.6,1,0.6,1.8v3.3h-1.5v-0.6
			c-0.4,0.4-0.9,0.7-1.7,0.7C233.1,87.5,232.3,86.9,232.3,85.8z M235.9,85.4v-0.3c-0.3-0.1-0.6-0.2-1-0.2c-0.7,0-1.1,0.3-1.1,0.8v0
			c0,0.4,0.4,0.7,0.9,0.7C235.4,86.4,235.9,86,235.9,85.4z"/>
		<path fill="#FFFFFF" d="M238.8,88.5l0.5-1.2c0.6,0.3,1.2,0.5,1.9,0.5c1.1,0,1.6-0.5,1.6-1.5V86c-0.5,0.6-1,0.9-1.8,0.9
			c-1.3,0-2.5-1-2.5-2.6v0c0-1.7,1.2-2.6,2.5-2.6c0.9,0,1.4,0.4,1.8,0.8v-0.7h1.6v4.4c0,1-0.2,1.7-0.7,2.2c-0.5,0.5-1.3,0.8-2.4,0.8
			C240.4,89.1,239.5,88.9,238.8,88.5z M242.9,84.3L242.9,84.3c0-0.8-0.6-1.3-1.4-1.3c-0.8,0-1.4,0.5-1.4,1.3v0
			c0,0.8,0.6,1.3,1.4,1.3C242.3,85.6,242.9,85.1,242.9,84.3z"/>
		<path fill="#FFFFFF" d="M245.6,84.6L245.6,84.6c0-1.6,1.1-2.9,2.8-2.9c1.9,0,2.7,1.5,2.7,3.1c0,0.1,0,0.3,0,0.4h-3.9
			c0.2,0.7,0.7,1.1,1.4,1.1c0.5,0,0.9-0.2,1.4-0.6l0.9,0.8c-0.5,0.7-1.3,1-2.3,1C246.9,87.5,245.6,86.3,245.6,84.6z M249.6,84.1
			c-0.1-0.7-0.5-1.2-1.2-1.2c-0.7,0-1.1,0.5-1.2,1.2H249.6z"/>
	</g>
</g>
<rect x="106.2" y="19.9" fill="#7F888D" width="78.5" height="76"/>
<g>
	<g>
		<path fill="#FFFFFF" d="M153.9,47.8h-12.4c-0.4,0-0.8-0.4-0.8-0.8v-7c0-0.4,0.4-0.8,0.8-0.8h12.4c0.4,0,0.8,0.4,0.8,0.8v7
			C154.7,47.4,154.4,47.8,153.9,47.8L153.9,47.8z M142.4,46.2h10.8v-5.4h-10.8V46.2L142.4,46.2z"/>
	</g>
	<g>
		<g>
			<path fill="#FFFFFF" d="M160.7,69.9H133c-0.9,0-1.6-0.7-1.6-1.6V33.5c0-0.9,0.7-1.6,1.6-1.6h27.7c0.9,0,1.6,0.7,1.6,1.6v34.8
				C162.3,69.2,161.6,69.9,160.7,69.9L160.7,69.9z M134.6,66.7h24.4V35.1h-24.4V66.7L134.6,66.7z"/>
		</g>
		<g>
			<path fill="#FFFFFF" d="M135.9,41.6h-5.6c-0.9,0-1.6-0.7-1.6-1.6c0-0.9,0.7-1.6,1.6-1.6h5.6c0.9,0,1.6,0.7,1.6,1.6
				C137.5,40.9,136.7,41.6,135.9,41.6L135.9,41.6z"/>
		</g>
		<g>
			<path fill="#FFFFFF" d="M135.9,48.8h-5.6c-0.9,0-1.6-0.7-1.6-1.6c0-0.9,0.7-1.6,1.6-1.6h5.6c0.9,0,1.6,0.7,1.6,1.6
				C137.5,48.1,136.7,48.8,135.9,48.8L135.9,48.8z"/>
		</g>
		<g>
			<path fill="#FFFFFF" d="M135.9,56h-5.6c-0.9,0-1.6-0.7-1.6-1.6c0-0.9,0.7-1.6,1.6-1.6h5.6c0.9,0,1.6,0.7,1.6,1.6
				C137.5,55.3,136.7,56,135.9,56L135.9,56z"/>
		</g>
		<g>
			<path fill="#FFFFFF" d="M135.9,63.2h-5.6c-0.9,0-1.6-0.7-1.6-1.6c0-0.9,0.7-1.6,1.6-1.6h5.6c0.9,0,1.6,0.7,1.6,1.6
				C137.5,62.5,136.7,63.2,135.9,63.2L135.9,63.2z"/>
		</g>
	</g>
</g>
<g>
	<g>
		<path fill="#FFFFFF" d="M111.6,86.3l1-1.1c0.7,0.5,1.4,0.9,2.2,0.9c0.7,0,1.1-0.3,1.1-0.7v0c0-0.4-0.3-0.6-1.5-0.9
			c-1.5-0.4-2.4-0.8-2.4-2.2v0c0-1.3,1.1-2.2,2.6-2.2c1.1,0,2,0.3,2.7,0.9l-0.8,1.2c-0.7-0.5-1.3-0.7-1.9-0.7
			c-0.6,0-0.9,0.3-0.9,0.6v0c0,0.5,0.3,0.6,1.6,1c1.5,0.4,2.3,0.9,2.3,2.2v0c0,1.5-1.1,2.3-2.7,2.3
			C113.6,87.5,112.5,87.1,111.6,86.3z"/>
		<path fill="#FFFFFF" d="M118.6,85.4v-3.6h1.6v3.1c0,0.8,0.4,1.1,1,1.1s1-0.4,1-1.1v-3.1h1.6v5.6h-1.6v-0.8
			c-0.4,0.5-0.8,0.9-1.6,0.9C119.3,87.5,118.6,86.7,118.6,85.4z"/>
		<path fill="#FFFFFF" d="M125.2,81.8h1.6v0.8c0.4-0.5,0.9-0.9,1.8-0.9c1.3,0,2.6,1,2.6,2.9v0c0,1.9-1.2,2.9-2.6,2.9
			c-0.9,0-1.4-0.4-1.8-0.8v2.4h-1.6V81.8z M129.5,84.6L129.5,84.6c0-1-0.6-1.6-1.4-1.6c-0.7,0-1.4,0.6-1.4,1.6v0
			c0,0.9,0.6,1.6,1.4,1.6C128.9,86.1,129.5,85.5,129.5,84.6z"/>
		<path fill="#FFFFFF" d="M132,84.6L132,84.6c0-1.6,1.1-2.9,2.8-2.9c1.9,0,2.7,1.5,2.7,3.1c0,0.1,0,0.3,0,0.4h-3.9
			c0.2,0.7,0.7,1.1,1.4,1.1c0.5,0,0.9-0.2,1.4-0.6l0.9,0.8c-0.5,0.7-1.3,1-2.3,1C133.2,87.5,132,86.3,132,84.6z M136,84.1
			c-0.1-0.7-0.5-1.2-1.2-1.2c-0.7,0-1.1,0.5-1.2,1.2H136z"/>
		<path fill="#FFFFFF" d="M138.7,81.8h1.6v1.1c0.3-0.8,0.9-1.3,1.8-1.2v1.7H142c-1.1,0-1.7,0.6-1.7,2v2.1h-1.6V81.8z"/>
		<path fill="#FFFFFF" d="M143.1,81.8h1.6v0.8c0.4-0.5,0.9-0.9,1.7-0.9c0.7,0,1.3,0.3,1.6,0.9c0.5-0.6,1.1-0.9,1.8-0.9
			c1.2,0,1.9,0.7,1.9,2.1v3.7h-1.6v-3.1c0-0.8-0.3-1.1-0.9-1.1c-0.6,0-1,0.4-1,1.1v3.1h-1.6v-3.1c0-0.8-0.3-1.1-0.9-1.1
			s-1,0.4-1,1.1v3.1h-1.6V81.8z"/>
		<path fill="#FFFFFF" d="M152.7,85.8L152.7,85.8c0-1.2,0.9-1.8,2.3-1.8c0.6,0,1,0.1,1.4,0.2v-0.1c0-0.7-0.4-1-1.2-1
			c-0.6,0-1,0.1-1.6,0.3l-0.4-1.2c0.6-0.3,1.2-0.5,2.2-0.5c0.9,0,1.5,0.2,1.9,0.6c0.4,0.4,0.6,1,0.6,1.8v3.3h-1.5v-0.6
			c-0.4,0.4-0.9,0.7-1.7,0.7C153.6,87.5,152.7,86.9,152.7,85.8z M156.4,85.4v-0.3c-0.3-0.1-0.6-0.2-1-0.2c-0.7,0-1.1,0.3-1.1,0.8v0
			c0,0.4,0.4,0.7,0.9,0.7C155.9,86.4,156.4,86,156.4,85.4z"/>
		<path fill="#FFFFFF" d="M159.3,81.8h1.6v1.1c0.3-0.8,0.9-1.3,1.8-1.2v1.7h-0.1c-1.1,0-1.7,0.6-1.7,2v2.1h-1.6V81.8z"/>
		<path fill="#FFFFFF" d="M163.7,79.7h1.6v4.1l1.9-2h1.9l-2.1,2.2l2.2,3.4h-1.8l-1.5-2.3l-0.6,0.6v1.7h-1.6V79.7z"/>
		<path fill="#FFFFFF" d="M169.4,84.6L169.4,84.6c0-1.6,1.1-2.9,2.8-2.9c1.9,0,2.7,1.5,2.7,3.1c0,0.1,0,0.3,0,0.4h-3.9
			c0.2,0.7,0.7,1.1,1.4,1.1c0.5,0,0.9-0.2,1.4-0.6l0.9,0.8c-0.5,0.7-1.3,1-2.3,1C170.6,87.5,169.4,86.3,169.4,84.6z M173.3,84.1
			c-0.1-0.7-0.5-1.2-1.2-1.2c-0.7,0-1.1,0.5-1.2,1.2H173.3z"/>
		<path fill="#FFFFFF" d="M176.3,85.8v-2.7h-0.7v-1.4h0.7v-1.4h1.6v1.4h1.3v1.4h-1.3v2.4c0,0.4,0.2,0.5,0.5,0.5
			c0.3,0,0.6-0.1,0.8-0.2v1.3c-0.3,0.2-0.7,0.3-1.3,0.3C177,87.5,176.3,87.1,176.3,85.8z"/>
	</g>
</g>
<rect x="11.2" y="19.9" fill="#445464" width="78.5" height="76"/>
<g>
	<g>
		<path fill="#FFFFFF" d="M58.9,47.8H46.6c-0.4,0-0.8-0.4-0.8-0.8v-7c0-0.4,0.4-0.8,0.8-0.8h12.4c0.4,0,0.8,0.4,0.8,0.8v7
			C59.7,47.4,59.4,47.8,58.9,47.8L58.9,47.8z M47.4,46.2h10.8v-5.4H47.4V46.2L47.4,46.2z"/>
	</g>
	<g>
		<g>
			<path fill="#FFFFFF" d="M65.7,69.9H38c-0.9,0-1.6-0.7-1.6-1.6V33.5c0-0.9,0.7-1.6,1.6-1.6h27.7c0.9,0,1.6,0.7,1.6,1.6v34.8
				C67.3,69.2,66.6,69.9,65.7,69.9L65.7,69.9z M39.6,66.7h24.4V35.1H39.6V66.7L39.6,66.7z"/>
		</g>
		<g>
			<path fill="#FFFFFF" d="M40.9,41.6h-5.6c-0.9,0-1.6-0.7-1.6-1.6c0-0.9,0.7-1.6,1.6-1.6h5.6c0.9,0,1.6,0.7,1.6,1.6
				C42.5,40.9,41.7,41.6,40.9,41.6L40.9,41.6z"/>
		</g>
		<g>
			<path fill="#FFFFFF" d="M40.9,48.8h-5.6c-0.9,0-1.6-0.7-1.6-1.6c0-0.9,0.7-1.6,1.6-1.6h5.6c0.9,0,1.6,0.7,1.6,1.6
				C42.5,48.1,41.7,48.8,40.9,48.8L40.9,48.8z"/>
		</g>
		<g>
			<path fill="#FFFFFF" d="M40.9,56h-5.6c-0.9,0-1.6-0.7-1.6-1.6s0.7-1.6,1.6-1.6h5.6c0.9,0,1.6,0.7,1.6,1.6S41.7,56,40.9,56
				L40.9,56z"/>
		</g>
		<g>
			<path fill="#FFFFFF" d="M40.9,63.2h-5.6c-0.9,0-1.6-0.7-1.6-1.6c0-0.9,0.7-1.6,1.6-1.6h5.6c0.9,0,1.6,0.7,1.6,1.6
				C42.5,62.5,41.7,63.2,40.9,63.2L40.9,63.2z"/>
		</g>
	</g>
</g>
<g>
	<g>
		<path fill="#FFFFFF" d="M27.4,80h1.7l1.5,5l1.6-5h1.4l1.6,5l1.5-5h1.7L36,87.4h-1.4L33,82.6l-1.7,4.8h-1.4L27.4,80z"/>
		<path fill="#FFFFFF" d="M39.2,81.8h1.6v1.1c0.3-0.8,0.9-1.3,1.8-1.2v1.7h-0.1c-1.1,0-1.7,0.6-1.7,2v2.1h-1.6V81.8z"/>
		<path fill="#FFFFFF" d="M43,85.8L43,85.8c0-1.2,0.9-1.8,2.3-1.8c0.6,0,1,0.1,1.4,0.2v-0.1c0-0.7-0.4-1-1.2-1c-0.6,0-1,0.1-1.6,0.3
			l-0.4-1.2c0.6-0.3,1.2-0.5,2.2-0.5c0.9,0,1.5,0.2,1.9,0.6c0.4,0.4,0.6,1,0.6,1.8v3.3h-1.5v-0.6c-0.4,0.4-0.9,0.7-1.7,0.7
			C43.9,87.5,43,86.9,43,85.8z M46.7,85.4v-0.3c-0.3-0.1-0.6-0.2-1-0.2c-0.7,0-1.1,0.3-1.1,0.8v0c0,0.4,0.4,0.7,0.9,0.7
			C46.2,86.4,46.7,86,46.7,85.4z"/>
		<path fill="#FFFFFF" d="M49.6,81.8h1.6v0.8c0.4-0.5,0.9-0.9,1.8-0.9c1.3,0,2.6,1,2.6,2.9v0c0,1.9-1.2,2.9-2.6,2.9
			c-0.9,0-1.4-0.4-1.8-0.8v2.4h-1.6V81.8z M53.9,84.6L53.9,84.6c0-1-0.6-1.6-1.4-1.6s-1.4,0.6-1.4,1.6v0c0,0.9,0.6,1.6,1.4,1.6
			S53.9,85.5,53.9,84.6z"/>
		<path fill="#FFFFFF" d="M56.6,81.8h1.6v0.8c0.4-0.5,0.9-0.9,1.8-0.9c1.3,0,2.6,1,2.6,2.9v0c0,1.9-1.2,2.9-2.6,2.9
			c-0.9,0-1.4-0.4-1.8-0.8v2.4h-1.6V81.8z M61,84.6L61,84.6c0-1-0.6-1.6-1.4-1.6s-1.4,0.6-1.4,1.6v0c0,0.9,0.6,1.6,1.4,1.6
			S61,85.5,61,84.6z"/>
		<path fill="#FFFFFF" d="M63.5,84.6L63.5,84.6c0-1.6,1.1-2.9,2.8-2.9c1.9,0,2.7,1.5,2.7,3.1c0,0.1,0,0.3,0,0.4H65
			c0.2,0.7,0.7,1.1,1.4,1.1c0.5,0,0.9-0.2,1.4-0.6l0.9,0.8c-0.5,0.7-1.3,1-2.3,1C64.7,87.5,63.5,86.3,63.5,84.6z M67.4,84.1
			c-0.1-0.7-0.5-1.2-1.2-1.2c-0.7,0-1.1,0.5-1.2,1.2H67.4z"/>
		<path fill="#FFFFFF" d="M70.2,81.8h1.6v1.1c0.3-0.8,0.9-1.3,1.8-1.2v1.7h-0.1c-1.1,0-1.7,0.6-1.7,2v2.1h-1.6V81.8z"/>
	</g>
</g>
</svg>
