<svg id="Layer_2" data-name="Layer 2" xmlns="http://www.w3.org/2000/svg" xmlns:xlink="http://www.w3.org/1999/xlink" viewBox="0 0 220 1224"><defs><style>.cls-1{fill:none;}.cls-2{clip-path:url(#clip-path);}.cls-3{fill:url(#linear-gradient);}.cls-4{clip-path:url(#clip-path-2);}.cls-5{fill:url(#linear-gradient-2);}.cls-6{clip-path:url(#clip-path-3);}.cls-7{fill:url(#linear-gradient-3);}.cls-8{clip-path:url(#clip-path-4);}.cls-9{fill:url(#linear-gradient-4);}.cls-10{clip-path:url(#clip-path-5);}.cls-11{fill:url(#linear-gradient-5);}</style><clipPath id="clip-path"><polygon class="cls-1" points="212.89 11.48 -21.61 11.48 -21.61 214.48 212.89 214.48 191.89 121.98 212.89 100.48 212.89 11.48"/></clipPath><linearGradient id="linear-gradient" x1="-29.05" y1="531.36" x2="-30.05" y2="531.36" gradientTransform="translate(27548.8 -91282) scale(916 172)" gradientUnits="userSpaceOnUse"><stop offset="0" stop-color="#35809b"/><stop offset="1" stop-color="#25b8a7"/></linearGradient><clipPath id="clip-path-2"><polygon class="cls-1" points="1.6 466.48 212.1 466.48 212.1 366.48 193.5 353.89 212.1 263.48 1.6 263.48 22.6 355.98 1.6 377.48 1.6 466.48"/></clipPath><linearGradient id="linear-gradient-2" x1="-29.26" y1="532.81" x2="-30.25" y2="532.81" xlink:href="#linear-gradient"/><clipPath id="clip-path-3"><polygon class="cls-1" points="1.25 965.4 211.75 965.4 211.75 865.4 193.15 852.81 211.75 762.4 1.25 762.4 22.25 854.9 1.25 876.4 1.25 965.4"/></clipPath><linearGradient id="linear-gradient-3" x1="-29.66" y1="535.71" x2="-30.66" y2="535.71" xlink:href="#linear-gradient"/><clipPath id="clip-path-4"><polygon class="cls-1" points="214.63 510.91 4.13 510.91 4.13 607.65 25.43 610.37 4.13 713.91 214.63 713.91 193.63 621.41 214.63 599.91 214.63 510.91"/></clipPath><linearGradient id="linear-gradient-4" x1="-29.46" y1="534.27" x2="-30.45" y2="534.27" xlink:href="#linear-gradient"/><clipPath id="clip-path-5"><polygon class="cls-1" points="218.75 1011.09 8.25 1011.09 8.25 1107.83 29.55 1110.55 8.25 1214.09 218.75 1214.09 197.75 1121.59 218.75 1100.09 218.75 1011.09"/></clipPath><linearGradient id="linear-gradient-5" x1="-29.87" y1="537.17" x2="-30.86" y2="537.17" xlink:href="#linear-gradient"/></defs><title>Artboard 2</title><g class="cls-2"><path id="circles" class="cls-3" d="M736.17,153.06a1.33,1.33,0,0,0-.14.19,83.68,83.68,0,0,1-145.27-.7,1,1,0,0,0-1.37-.37,1,1,0,0,0-.37,1.38,85.67,85.67,0,0,0,148.4,1.27.79.79,0,0,0,.14-.17c4.66-7.53,8.41-16,18.82-41.14.13-.33.26-.64.38-.93l5,11.56a1,1,0,0,0,1.32.53,1,1,0,0,0,.52-1.32l-5.89-13.65a1,1,0,0,0-1.29-.53,1,1,0,0,0-.24.1L742.79,115a1,1,0,0,0,.78,1.84L754.81,112l-.3.72C744.41,137.16,740.6,145.78,736.17,153.06ZM549.38,68.17a1,1,0,0,0,.14.37c4.57,7.4,8.32,15.84,18.67,40.86l.4,1-11.31-4.8a1,1,0,0,0-.78,1.84l13.61,5.77a1,1,0,0,0,1.3-.52L577.31,99a1,1,0,1,0-1.84-.79l-5,11.5-.46-1.09c-9.94-24-13.81-32.82-18.2-40.13a.82.82,0,0,0-.1-.24A86,86,0,0,0,404,67.14a1,1,0,0,0,1.71,1,84,84,0,0,1,143.64,0ZM364.17,153.06a1.33,1.33,0,0,0-.14.19,83.68,83.68,0,0,1-145.27-.7,1,1,0,0,0-1.37-.37,1,1,0,0,0-.37,1.38,85.67,85.67,0,0,0,148.4,1.27.79.79,0,0,0,.14-.17c4.66-7.53,8.41-16,18.82-41.14l.34-.83,4.95,11.46a1,1,0,1,0,1.84-.79l-5.9-13.65a1,1,0,0,0-1.3-.52L370.7,115a1,1,0,1,0,.78,1.84L382.83,112l-.32.76C372.41,137.16,368.6,145.78,364.17,153.06ZM178.6,68.59c4.33,7.21,8.18,16,18.11,39.94l.47,1.13-11.6-4.92a1,1,0,1,0-.78,1.84l13.61,5.77a1,1,0,0,0,1.3-.52l5.9-13.65a1,1,0,1,0-1.84-.79l-4.84,11.22c-.12-.27-.23-.55-.35-.85-10.41-25.16-14.16-33.6-18.82-41.14a1.09,1.09,0,0,0-.36-.35,86,86,0,1,0,1.35,88.15,1,1,0,0,0-.36-1.37,1,1,0,0,0-1.37.37,84,84,0,1,1-.76-85.17A.86.86,0,0,0,178.6,68.59ZM218,67.14a1,1,0,0,0,1.71,1A84,84,0,0,1,364,69.26a1,1,0,0,0,1.72-1A86,86,0,0,0,218,67.14Zm333.72,87.14a1,1,0,0,0-.35-1.38,1,1,0,0,0-1.37.35,83.68,83.68,0,0,1-145.27-.7,1,1,0,0,0-1.37-.37,1,1,0,0,0-.37,1.38,85.68,85.68,0,0,0,148.73.72ZM590,67.14a1,1,0,0,0,1.71,1A84,84,0,0,1,736,69.26a1,1,0,1,0,1.72-1A86,86,0,0,0,590,67.14Zm185,87.28a86,86,0,1,0,.78-87.2,1,1,0,0,0,.35,1.37,1,1,0,0,0,1.37-.34,84,84,0,1,1-.76,85.17,1,1,0,0,0-1.74,1ZM201.5,115a.79.79,0,0,0-1.09-.56,1.13,1.13,0,0,0-.46,1.34l.32,1a.81.81,0,0,0,1.1.56,1.14,1.14,0,0,0,.46-1.35Zm4,10a.79.79,0,0,0-1.1-.55,1.14,1.14,0,0,0-.44,1.35c.11.32.21.64.32,1a.79.79,0,0,0,1.1.54,1.12,1.12,0,0,0,.44-1.34C205.72,125.67,205.61,125.35,205.5,125Zm5,10a.78.78,0,0,0-1.1-.52,1.14,1.14,0,0,0-.42,1.36c.12.32.23.64.34.95a.78.78,0,0,0,1.1.51,1.15,1.15,0,0,0,.42-1.36C210.7,135.63,210.59,135.32,210.48,135Zm3.94,9.93a.74.74,0,0,0-1.09-.45,1.2,1.2,0,0,0-.35,1.41c.13.31.25.62.38.92a.73.73,0,0,0,1.1.43,1.19,1.19,0,0,0,.33-1.4C214.67,145.54,214.55,145.23,214.42,144.93ZM387.3,106.76l.33-1a1.13,1.13,0,0,0-.46-1.34.81.81,0,0,0-1.1.56l-.32,1a1.13,1.13,0,0,0,.46,1.34A.79.79,0,0,0,387.3,106.76Zm4-11c.11-.32.22-.64.32-1a1.12,1.12,0,0,0-.44-1.34.79.79,0,0,0-1.1.54c-.11.31-.21.63-.32,1a1.12,1.12,0,0,0,.44,1.34A.79.79,0,0,0,391.3,95.77Zm5-10c.11-.31.22-.62.34-.93a1.15,1.15,0,0,0-.42-1.36.77.77,0,0,0-1.1.51c-.11.31-.22.62-.34.94a1.13,1.13,0,0,0,.42,1.36A.77.77,0,0,0,396.28,85.77Zm3.94-10c.13-.31.25-.61.37-.92a1.2,1.2,0,0,0-.33-1.4.73.73,0,0,0-1.1.43l-.38.93a1.19,1.19,0,0,0,.35,1.4A.73.73,0,0,0,400.22,75.8ZM573.5,115a.79.79,0,0,0-1.09-.56,1.13,1.13,0,0,0-.46,1.34l.32,1a.81.81,0,0,0,1.1.56,1.14,1.14,0,0,0,.46-1.35Zm4,10a.79.79,0,0,0-1.1-.55,1.14,1.14,0,0,0-.44,1.35c.11.32.21.64.32,1a.79.79,0,0,0,1.1.54,1.12,1.12,0,0,0,.44-1.34C577.72,125.67,577.61,125.35,577.5,125Zm5,10a.78.78,0,0,0-1.1-.52,1.14,1.14,0,0,0-.42,1.36c.12.32.23.64.34.95a.78.78,0,0,0,1.1.51,1.15,1.15,0,0,0,.42-1.36C582.7,135.63,582.59,135.32,582.48,135Zm3.94,9.93a.74.74,0,0,0-1.09-.45,1.2,1.2,0,0,0-.35,1.41c.13.31.25.62.38.92a.73.73,0,0,0,1.1.43,1.19,1.19,0,0,0,.33-1.4C586.67,145.54,586.55,145.23,586.42,144.93ZM759.5,106.77l.33-1a1.13,1.13,0,0,0-.46-1.34.8.8,0,0,0-1.1.56L758,106a1.14,1.14,0,0,0,.46,1.35A.79.79,0,0,0,759.5,106.77Zm4-11c.11-.32.22-.63.32-.94a1.14,1.14,0,0,0-.44-1.35.79.79,0,0,0-1.1.55c-.11.31-.21.63-.32,1a1.12,1.12,0,0,0,.44,1.34A.79.79,0,0,0,763.5,95.77Zm5-10c.11-.31.22-.62.34-.93a1.16,1.16,0,0,0-.42-1.37.78.78,0,0,0-1.1.52c-.11.31-.22.62-.34.94a1.13,1.13,0,0,0,.42,1.36A.78.78,0,0,0,768.48,85.78Zm3.94-10c.13-.31.25-.62.37-.92a1.2,1.2,0,0,0-.33-1.4.73.73,0,0,0-1.1.43c-.13.3-.25.61-.38.93a1.19,1.19,0,0,0,.35,1.4A.73.73,0,0,0,772.42,75.81Z"/></g><g class="cls-4"><path id="circles-2" data-name="circles" class="cls-5" d="M550.78,403.64a.94.94,0,0,0-.14.19,83.68,83.68,0,0,1-145.27-.7,1,1,0,0,0-1.37-.37,1,1,0,0,0-.37,1.38A85.67,85.67,0,0,0,552,405.41a1.15,1.15,0,0,0,.14-.17c4.66-7.54,8.41-16,18.81-41.14.14-.33.27-.64.39-.94l5,11.57a1,1,0,0,0,1.84-.79l-5.89-13.65a1,1,0,0,0-1.3-.53.92.92,0,0,0-.23.09l-13.39,5.69a1,1,0,1,0,.79,1.84l11.24-4.77-.3.72C559,387.73,555.21,396.36,550.78,403.64ZM364,318.75a.94.94,0,0,0,.14.37c4.57,7.4,8.32,15.83,18.67,40.85.14.34.27.67.4,1l-11.31-4.79a1,1,0,0,0-.78,1.84l13.6,5.77a1,1,0,0,0,1.31-.52l5.89-13.66a1,1,0,0,0-1.83-.79l-5,11.5-.45-1.09c-9.94-24-13.81-32.81-18.2-40.12a.72.72,0,0,0-.1-.24,86,86,0,0,0-147.72-1.12,1,1,0,0,0,.34,1.36,1,1,0,0,0,1.37-.34,84,84,0,0,1,143.64,0ZM178.78,403.64a.94.94,0,0,0-.14.19,83.68,83.68,0,0,1-145.27-.7,1,1,0,0,0-1.37-.37,1,1,0,0,0-.37,1.38A85.67,85.67,0,0,0,180,405.41a1.15,1.15,0,0,0,.14-.17c4.66-7.54,8.41-16,18.81-41.14l.35-.84,4.95,11.47a1,1,0,1,0,1.83-.79l-5.89-13.65a1,1,0,0,0-1.31-.53l-13.6,5.78a1,1,0,0,0-.53,1.31,1,1,0,0,0,1.31.53l11.35-4.82-.32.77C187,387.73,183.21,396.36,178.78,403.64ZM-6.79,319.17c4.33,7.2,8.18,15.94,18.11,39.94l.47,1.13L.19,355.32a1,1,0,0,0-1.31.53,1,1,0,0,0,.53,1.31L13,362.93a1,1,0,0,0,1.31-.52l5.89-13.66a1,1,0,0,0-1.83-.79l-4.85,11.23c-.11-.27-.22-.56-.35-.85C2.78,333.18-1,324.73-5.63,317.2a1,1,0,0,0-.37-.35,86.14,86.14,0,0,0-73.32-40.79,86.09,86.09,0,0,0-86.18,86,86.09,86.09,0,0,0,86.18,86A86.15,86.15,0,0,0-4.64,405,1,1,0,0,0-5,403.63a1,1,0,0,0-1.37.37,84.19,84.19,0,0,1-72.95,42.06,84.09,84.09,0,0,1-84.18-84,84.09,84.09,0,0,1,84.18-84A84.16,84.16,0,0,1-7.13,318.83.92.92,0,0,0-6.79,319.17Zm39.43-1.45a1,1,0,0,0,.34,1.36,1,1,0,0,0,1.37-.34,84,84,0,0,1,144.29,1.1,1,1,0,0,0,1.36.36,1,1,0,0,0,.36-1.36,86,86,0,0,0-147.72-1.12Zm333.72,87.14a1,1,0,0,0-.35-1.39,1,1,0,0,0-1.37.36,83.68,83.68,0,0,1-145.27-.7,1,1,0,0,0-1.37-.37,1,1,0,0,0-.37,1.38,85.68,85.68,0,0,0,148.73.72Zm38.28-87.14a1,1,0,0,0,.34,1.36,1,1,0,0,0,1.37-.34,84,84,0,0,1,144.29,1.1,1,1,0,0,0,1.36.36,1,1,0,0,0,.36-1.36,86,86,0,0,0-147.72-1.12Zm185,87.28a86,86,0,1,0,.78-87.2,1,1,0,0,0,.34,1.37,1,1,0,0,0,1.38-.34,84,84,0,1,1-.76,85.17,1,1,0,0,0-1.74,1ZM16.11,365.61a.79.79,0,0,0-1.09-.55,1.12,1.12,0,0,0-.46,1.34l.32,1a.79.79,0,0,0,1.1.55,1.11,1.11,0,0,0,.45-1.34Zm4,10a.79.79,0,0,0-1.1-.55,1.11,1.11,0,0,0-.45,1.34c.11.33.22.64.33,1a.79.79,0,0,0,1.1.55,1.13,1.13,0,0,0,.44-1.35C20.33,376.24,20.22,375.93,20.11,375.61Zm5,10a.77.77,0,0,0-1.09-.52,1.13,1.13,0,0,0-.42,1.36c.12.32.23.63.34.94a.78.78,0,0,0,1.1.52,1.15,1.15,0,0,0,.41-1.37C25.31,386.21,25.2,385.89,25.08,385.58Zm4,9.92a.74.74,0,0,0-1.1-.44,1.2,1.2,0,0,0-.34,1.4l.38.93a.73.73,0,0,0,1.1.43,1.2,1.2,0,0,0,.33-1.4C29.28,396.11,29.15,395.81,29,395.5Zm172.88-38.16.32-.95a1.11,1.11,0,0,0-.45-1.34.79.79,0,0,0-1.1.56l-.32.94a1.11,1.11,0,0,0,.46,1.34A.79.79,0,0,0,201.91,357.34Zm4-11c.11-.32.22-.63.32-.94a1.13,1.13,0,0,0-.44-1.35.79.79,0,0,0-1.1.55l-.33.95a1.11,1.11,0,0,0,.45,1.34A.79.79,0,0,0,205.91,346.34Zm5-10c.12-.31.23-.63.34-.93a1.15,1.15,0,0,0-.41-1.37.78.78,0,0,0-1.1.52c-.11.31-.22.62-.34.94a1.13,1.13,0,0,0,.42,1.36A.77.77,0,0,0,210.88,336.35Zm4-10,.37-.91a1.19,1.19,0,0,0-.33-1.4.73.73,0,0,0-1.1.43c-.13.3-.25.61-.38.92a1.21,1.21,0,0,0,.34,1.41A.75.75,0,0,0,214.83,326.37Zm173.28,39.24a.79.79,0,0,0-1.09-.55,1.12,1.12,0,0,0-.46,1.34l.32,1a.79.79,0,0,0,1.1.55,1.11,1.11,0,0,0,.45-1.34Zm4,10a.79.79,0,0,0-1.1-.55,1.11,1.11,0,0,0-.45,1.34c.11.33.22.64.33,1a.79.79,0,0,0,1.1.55,1.13,1.13,0,0,0,.44-1.35C392.33,376.24,392.22,375.93,392.11,375.61Zm5,10a.77.77,0,0,0-1.09-.52,1.13,1.13,0,0,0-.42,1.36c.12.32.23.63.34.94a.78.78,0,0,0,1.1.52,1.15,1.15,0,0,0,.41-1.37C397.31,386.21,397.2,385.89,397.08,385.58ZM401,395.5a.74.74,0,0,0-1.1-.44,1.2,1.2,0,0,0-.34,1.4l.38.93a.73.73,0,0,0,1.1.43,1.2,1.2,0,0,0,.33-1.4C401.28,396.11,401.15,395.81,401,395.5Zm173.08-38.15.32-1a1.11,1.11,0,0,0-.45-1.34.79.79,0,0,0-1.1.55l-.32.95a1.11,1.11,0,0,0,.46,1.34A.79.79,0,0,0,574.11,357.35Zm4-11c.11-.32.22-.63.32-.94a1.13,1.13,0,0,0-.44-1.35.79.79,0,0,0-1.1.55c-.11.31-.22.62-.33.95a1.11,1.11,0,0,0,.45,1.34A.79.79,0,0,0,578.11,346.35Zm5-10c.12-.32.23-.63.34-.94a1.14,1.14,0,0,0-.41-1.36.78.78,0,0,0-1.1.51c-.11.31-.22.63-.34.95a1.13,1.13,0,0,0,.42,1.36A.77.77,0,0,0,583.08,336.36Zm3.95-10,.37-.91a1.21,1.21,0,0,0-.33-1.41.74.74,0,0,0-1.1.44c-.13.3-.25.61-.38.92a1.2,1.2,0,0,0,.34,1.4A.74.74,0,0,0,587,326.38Z"/></g><g class="cls-6"><path id="circles-3" data-name="circles" class="cls-7" d="M178.78,902.55a1.43,1.43,0,0,0-.14.2,83.69,83.69,0,0,1-145.27-.7,1,1,0,0,0-1.37-.37,1,1,0,0,0-.37,1.38A85.68,85.68,0,0,0,180,904.33a1.15,1.15,0,0,0,.14-.17c4.66-7.54,8.41-16,18.82-41.15l.38-.93,5,11.57a1,1,0,0,0,1.83-.79l-5.89-13.66a1,1,0,0,0-1.29-.53l-.24.1-13.38,5.68a1,1,0,0,0-.53,1.32,1,1,0,0,0,1.31.52l11.24-4.77c-.1.24-.19.48-.3.73C187,886.65,183.21,895.28,178.78,902.55ZM-8,817.66a1.09,1.09,0,0,0,.14.38c4.58,7.4,8.32,15.83,18.67,40.85l.4,1-11.31-4.8a1,1,0,0,0-1.31.53,1,1,0,0,0,.53,1.31l13.61,5.78a1,1,0,0,0,1.31-.53l5.89-13.65a1,1,0,0,0-1.84-.79l-5,11.5-.46-1.09C2.72,834.09-1.15,825.3-5.53,818a1.12,1.12,0,0,0-.11-.25,85.82,85.82,0,0,0-74.19-42.5,85.84,85.84,0,0,0-73.53,41.38A1,1,0,0,0-153,818a1,1,0,0,0,1.37-.34,83.82,83.82,0,0,1,71.82-40.42A83.83,83.83,0,0,1-8,817.66Zm-185.21,84.89a1.43,1.43,0,0,0-.14.2,83.85,83.85,0,0,1-72.44,41.77,83.86,83.86,0,0,1-72.83-42.47,1,1,0,0,0-1.37-.37,1,1,0,0,0-.37,1.38,85.86,85.86,0,0,0,74.57,43.48A85.8,85.8,0,0,0-192,904.33a1.15,1.15,0,0,0,.14-.17c4.66-7.54,8.41-16,18.82-41.15l.34-.83,4.95,11.47a1,1,0,0,0,1.31.52,1,1,0,0,0,.53-1.31l-5.89-13.66a1,1,0,0,0-1.31-.52l-13.61,5.77a1,1,0,0,0-.53,1.32,1,1,0,0,0,1.31.52l11.35-4.81-.32.77C-185,886.65-188.79,895.28-193.22,902.55Zm-185.57-84.46c4.33,7.2,8.18,15.94,18.11,39.94l.47,1.12-11.6-4.92a1,1,0,0,0-1.31.53,1,1,0,0,0,.53,1.31l13.61,5.78a1,1,0,0,0,1.31-.53l5.89-13.65a1,1,0,0,0-.53-1.31,1,1,0,0,0-1.31.52l-4.84,11.22-.35-.84c-10.41-25.16-14.16-33.61-18.82-41.15a1.06,1.06,0,0,0-.36-.34A86.18,86.18,0,0,0-451.32,775a86.09,86.09,0,0,0-86.18,86,86.09,86.09,0,0,0,86.18,86,86.18,86.18,0,0,0,74.69-43.06,1,1,0,0,0-.37-1.36,1,1,0,0,0-1.37.36A84.15,84.15,0,0,1-451.32,945a84.09,84.09,0,0,1-84.18-84,84.09,84.09,0,0,1,84.18-84,84.16,84.16,0,0,1,72.19,40.78A1,1,0,0,0-378.79,818.09Zm39.43-1.46A1,1,0,0,0-339,818a1,1,0,0,0,1.37-.34,83.82,83.82,0,0,1,71.82-40.42,83.81,83.81,0,0,1,72.47,41.52,1,1,0,0,0,1.36.35,1,1,0,0,0,.36-1.36,85.82,85.82,0,0,0-74.19-42.5A85.84,85.84,0,0,0-339.36,816.63ZM-5.64,903.77A1,1,0,0,0-6,902.39a1,1,0,0,0-1.37.36A83.85,83.85,0,0,1-79.8,944.52a83.86,83.86,0,0,1-72.83-42.47,1,1,0,0,0-1.37-.37,1,1,0,0,0-.37,1.38A85.86,85.86,0,0,0-79.8,946.54,85.85,85.85,0,0,0-5.64,903.77Zm38.28-87.14a1,1,0,0,0,1.71,1,84,84,0,0,1,144.29,1.1,1,1,0,0,0,1.36.35,1,1,0,0,0,.36-1.36,86,86,0,0,0-147.72-1.12Zm185,87.28a86,86,0,1,0,.78-87.19,1,1,0,0,0,1.72,1,84,84,0,1,1-.76,85.16,1,1,0,0,0-1.74,1Zm-573.51-39.38A.79.79,0,0,0-357,864a1.12,1.12,0,0,0-.46,1.34l.32.94a.79.79,0,0,0,1.1.56,1.13,1.13,0,0,0,.46-1.34Zm4,10A.79.79,0,0,0-353,874a1.12,1.12,0,0,0-.44,1.34c.11.32.21.64.32.95a.79.79,0,0,0,1.1.55,1.14,1.14,0,0,0,.44-1.35C-351.67,875.16-351.78,874.85-351.89,874.53Zm5,10A.77.77,0,0,0-348,884a1.15,1.15,0,0,0-.42,1.36c.12.32.23.63.34.94a.77.77,0,0,0,1.1.51,1.15,1.15,0,0,0,.42-1.36C-346.69,885.12-346.8,884.81-346.91,884.5Zm3.94,9.92a.73.73,0,0,0-1.09-.44,1.18,1.18,0,0,0-.35,1.4c.13.31.26.62.38.93a.74.74,0,0,0,1.1.43,1.21,1.21,0,0,0,.34-1.41C-342.72,895-342.84,894.73-343,894.42Zm172.89-38.16.32-1a1.12,1.12,0,0,0-.46-1.34.79.79,0,0,0-1.1.55l-.32,1a1.13,1.13,0,0,0,.46,1.34A.79.79,0,0,0-170.08,856.26Zm4-11c.11-.32.22-.64.32-1a1.12,1.12,0,0,0-.44-1.34.79.79,0,0,0-1.1.55c-.11.31-.21.62-.32.94a1.13,1.13,0,0,0,.44,1.35A.79.79,0,0,0-166.09,845.26Zm5-10c.11-.32.22-.63.34-.94a1.15,1.15,0,0,0-.42-1.36.78.78,0,0,0-1.1.51c-.11.31-.22.63-.34.95a1.15,1.15,0,0,0,.42,1.36A.78.78,0,0,0-161.11,835.27Zm3.94-10c.13-.31.25-.61.38-.91a1.21,1.21,0,0,0-.34-1.41.74.74,0,0,0-1.1.43c-.12.31-.25.62-.38.93a1.18,1.18,0,0,0,.35,1.4A.73.73,0,0,0-157.17,825.29ZM16.12,864.53A.79.79,0,0,0,15,864a1.12,1.12,0,0,0-.46,1.34c.17.47.17.47.32.94a.79.79,0,0,0,1.1.56,1.13,1.13,0,0,0,.46-1.34Zm4,10A.79.79,0,0,0,19,874a1.12,1.12,0,0,0-.44,1.34c.11.32.21.64.32.95a.79.79,0,0,0,1.1.55,1.14,1.14,0,0,0,.44-1.35C20.33,875.16,20.22,874.85,20.11,874.53Zm5,10A.77.77,0,0,0,24,884a1.15,1.15,0,0,0-.42,1.36c.12.32.23.63.34.94a.77.77,0,0,0,1.1.51,1.15,1.15,0,0,0,.42-1.36C25.31,885.12,25.2,884.81,25.09,884.5ZM29,894.42a.73.73,0,0,0-1.09-.44,1.18,1.18,0,0,0-.35,1.4c.13.31.26.62.38.93a.74.74,0,0,0,1.1.43,1.21,1.21,0,0,0,.34-1.41C29.28,895,29.16,894.73,29,894.42Zm173.09-38.16.32-.94A1.12,1.12,0,0,0,202,854a.79.79,0,0,0-1.1.55c-.15.47-.15.47-.32,1a1.13,1.13,0,0,0,.46,1.34A.79.79,0,0,0,202.12,856.26Zm4-11c.11-.32.22-.64.32-.95A1.12,1.12,0,0,0,206,843a.79.79,0,0,0-1.1.55c-.11.31-.21.62-.32.94a1.13,1.13,0,0,0,.44,1.35A.79.79,0,0,0,206.11,845.27Zm5-10c.11-.32.22-.63.34-.94A1.15,1.15,0,0,0,211,833a.77.77,0,0,0-1.1.51c-.11.31-.22.63-.34.94a1.16,1.16,0,0,0,.42,1.37A.78.78,0,0,0,211.09,835.28Zm3.94-10c.13-.31.25-.61.38-.91a1.21,1.21,0,0,0-.34-1.41.74.74,0,0,0-1.1.43c-.12.31-.25.62-.38.93a1.18,1.18,0,0,0,.35,1.4A.73.73,0,0,0,215,825.3Z"/></g><g class="cls-8"><path id="circles-4" data-name="circles" class="cls-9" d="M364.91,653.31a1.43,1.43,0,0,0-.14.2,83.69,83.69,0,0,1-145.27-.7,1,1,0,0,0-1.37-.37,1,1,0,0,0-.37,1.38,85.68,85.68,0,0,0,148.4,1.27,1.15,1.15,0,0,0,.14-.17c4.66-7.54,8.41-16,18.82-41.15l.38-.93,5,11.57a1,1,0,1,0,1.83-.8L386.44,610a1,1,0,0,0-1.29-.53l-.24.1-13.38,5.68a1,1,0,0,0,.78,1.84l11.24-4.77c-.1.23-.19.47-.3.72C373.15,637.41,369.34,646,364.91,653.31ZM178.12,568.42a1.09,1.09,0,0,0,.14.38c4.58,7.4,8.32,15.83,18.67,40.85.14.34.28.66.4,1L186,605.82a1,1,0,0,0-.78,1.84l13.61,5.78a1,1,0,0,0,1.31-.53l5.89-13.65a1,1,0,0,0-1.84-.79l-5,11.5-.45-1.09c-10-24-13.81-32.82-18.2-40.13a1.28,1.28,0,0,0-.11-.24,86,86,0,0,0-147.72-1.12,1,1,0,0,0,1.71,1,84,84,0,0,1,143.64,0ZM-7.09,653.31a1.43,1.43,0,0,0-.14.2,83.85,83.85,0,0,1-72.43,41.77,83.86,83.86,0,0,1-72.84-42.47,1,1,0,0,0-1.37-.37,1,1,0,0,0-.37,1.38A85.86,85.86,0,0,0-79.66,697.3,85.8,85.8,0,0,0-5.84,655.09a1.15,1.15,0,0,0,.14-.17c4.66-7.54,8.41-16,18.82-41.15l.34-.83,4.95,11.47a1,1,0,0,0,1.84-.8L14.36,610a1,1,0,0,0-1.31-.52L-.56,615.21a1,1,0,0,0-.53,1.31,1,1,0,0,0,1.31.53l11.35-4.81-.32.76C1.15,637.41-2.66,646-7.09,653.31Zm-185.57-84.46c4.33,7.2,8.18,15.94,18.11,39.94l.47,1.12-11.6-4.92a1,1,0,0,0-1.31.53,1,1,0,0,0,.53,1.31l13.61,5.78a1,1,0,0,0,1.31-.53l5.89-13.65a1,1,0,0,0-.52-1.31,1,1,0,0,0-1.32.52l-4.84,11.22-.35-.84c-10.41-25.16-14.16-33.61-18.82-41.15a1.06,1.06,0,0,0-.36-.34,86.18,86.18,0,0,0-73.33-40.8,86.09,86.09,0,0,0-86.18,86,86.09,86.09,0,0,0,86.18,86,86.18,86.18,0,0,0,74.69-43.06,1,1,0,0,0-.37-1.36,1,1,0,0,0-1.37.36,84.15,84.15,0,0,1-72.95,42.06,84.09,84.09,0,0,1-84.18-84,84.09,84.09,0,0,1,84.18-84A84.16,84.16,0,0,1-193,568.51,1.1,1.1,0,0,0-192.66,568.85Zm39.43-1.46a1,1,0,0,0,.34,1.37,1,1,0,0,0,1.37-.34A83.82,83.82,0,0,1-79.7,528,83.81,83.81,0,0,1-7.23,569.51a1,1,0,0,0,1.36.36,1,1,0,0,0,.36-1.36A85.8,85.8,0,0,0-79.7,526,85.84,85.84,0,0,0-153.23,567.39Zm333.72,87.14a1,1,0,0,0-.35-1.38,1,1,0,0,0-1.37.36,83.69,83.69,0,0,1-145.27-.7,1,1,0,0,0-1.37-.37,1,1,0,0,0-.37,1.38,85.68,85.68,0,0,0,148.73.71Zm38.28-87.14a1,1,0,0,0,1.71,1,84,84,0,0,1,144.29,1.09,1,1,0,0,0,1.72-1,86,86,0,0,0-147.72-1.12Zm185,87.28a86,86,0,1,0,.78-87.2,1,1,0,0,0,1.72,1,84,84,0,1,1-.76,85.16,1,1,0,0,0-1.74,1Zm-573.51-39.38a.79.79,0,0,0-1.1-.55,1.12,1.12,0,0,0-.46,1.34l.33.94a.78.78,0,0,0,1.09.56,1.13,1.13,0,0,0,.46-1.34Zm4,10a.79.79,0,0,0-1.1-.55,1.12,1.12,0,0,0-.44,1.34c.11.32.21.64.32.95a.79.79,0,0,0,1.1.55,1.14,1.14,0,0,0,.44-1.35C-165.54,625.92-165.65,625.61-165.76,625.29Zm5,10a.77.77,0,0,0-1.1-.51,1.15,1.15,0,0,0-.42,1.36c.12.32.23.63.35.94a.76.76,0,0,0,1.09.51,1.13,1.13,0,0,0,.42-1.36C-160.56,635.88-160.67,635.57-160.78,635.25Zm3.94,9.93a.73.73,0,0,0-1.09-.44,1.2,1.2,0,0,0-.35,1.4c.13.31.26.62.38.93a.74.74,0,0,0,1.1.43,1.21,1.21,0,0,0,.34-1.41C-156.59,645.79-156.71,645.49-156.84,645.18ZM16.05,607l.32-.95a1.12,1.12,0,0,0-.46-1.34.78.78,0,0,0-1.09.55l-.33,1a1.13,1.13,0,0,0,.46,1.34A.79.79,0,0,0,16.05,607Zm4-11c.11-.32.22-.64.32-.95a1.12,1.12,0,0,0-.44-1.34.79.79,0,0,0-1.1.55c-.11.31-.21.62-.32.94a1.13,1.13,0,0,0,.44,1.35A.79.79,0,0,0,20,596Zm5-10c.11-.32.22-.63.34-.94a1.13,1.13,0,0,0-.42-1.36.76.76,0,0,0-1.09.51c-.12.31-.23.63-.35,1a1.16,1.16,0,0,0,.42,1.36A.78.78,0,0,0,25,586Zm3.94-10c.13-.31.25-.61.38-.91a1.21,1.21,0,0,0-.34-1.41.74.74,0,0,0-1.1.43c-.12.31-.25.62-.38.93a1.2,1.2,0,0,0,.35,1.4A.73.73,0,0,0,29,576.05Zm173.29,39.24a.79.79,0,0,0-1.1-.55,1.12,1.12,0,0,0-.46,1.34c.17.47.17.47.33.94a.78.78,0,0,0,1.09.56,1.13,1.13,0,0,0,.46-1.34Zm4,10a.79.79,0,0,0-1.1-.55,1.12,1.12,0,0,0-.44,1.34c.11.32.21.64.32.95a.79.79,0,0,0,1.1.55,1.14,1.14,0,0,0,.44-1.35C206.46,625.92,206.35,625.61,206.24,625.29Zm5,10a.77.77,0,0,0-1.1-.51,1.15,1.15,0,0,0-.42,1.36c.12.32.23.63.35.94a.76.76,0,0,0,1.09.51,1.13,1.13,0,0,0,.42-1.36C211.44,635.88,211.33,635.57,211.22,635.25Zm3.94,9.93a.73.73,0,0,0-1.09-.44,1.2,1.2,0,0,0-.35,1.4c.13.31.26.62.38.93a.74.74,0,0,0,1.1.43,1.21,1.21,0,0,0,.34-1.41C215.41,645.79,215.29,645.49,215.16,645.18ZM388.25,607l.32-.94a1.12,1.12,0,0,0-.46-1.34.78.78,0,0,0-1.09.55l-.33,1a1.13,1.13,0,0,0,.46,1.34A.79.79,0,0,0,388.25,607Zm4-11c.11-.32.22-.64.32-.95a1.12,1.12,0,0,0-.44-1.34.79.79,0,0,0-1.1.54c-.11.31-.21.63-.32,1a1.14,1.14,0,0,0,.44,1.35A.79.79,0,0,0,392.24,596Zm5-10c.11-.32.22-.63.34-.94a1.13,1.13,0,0,0-.42-1.36.76.76,0,0,0-1.09.51c-.12.31-.23.63-.35.94a1.16,1.16,0,0,0,.42,1.37A.78.78,0,0,0,397.22,586Zm3.94-10c.13-.31.25-.61.38-.91a1.21,1.21,0,0,0-.34-1.41.73.73,0,0,0-1.1.43c-.12.31-.25.62-.38.93a1.2,1.2,0,0,0,.35,1.4A.73.73,0,0,0,401.16,576.06Z"/></g><g class="cls-10"><path id="circles-5" data-name="circles" class="cls-11" d="M-7.38,1153.39a.9.9,0,0,0-.15.19A83.84,83.84,0,0,1-80,1195.36a83.85,83.85,0,0,1-72.84-42.48,1,1,0,0,0-1.37-.37,1,1,0,0,0-.36,1.38A85.86,85.86,0,0,0-80,1197.38a85.83,85.83,0,0,0,73.83-42.22A.76.76,0,0,0-6,1155c4.66-7.53,8.41-16,18.82-41.14.14-.33.26-.64.39-.93l5,11.56a1,1,0,0,0,1.84-.79L14.14,1110a1,1,0,0,0-1.29-.53.94.94,0,0,0-.23.1l-13.39,5.68a1,1,0,0,0-.53,1.31,1,1,0,0,0,1.31.53l11.24-4.77-.29.72C.86,1137.49-2.95,1146.11-7.38,1153.39Zm-186.8-84.89a1,1,0,0,0,.14.37c4.58,7.4,8.32,15.84,18.67,40.86l.41,1-11.31-4.8a1,1,0,0,0-1.32.53,1,1,0,0,0,.53,1.31l13.61,5.77a1,1,0,0,0,1.31-.52l5.89-13.65a1,1,0,0,0-.52-1.32,1,1,0,0,0-1.32.53l-5,11.5-.45-1.09c-9.95-24-13.81-32.82-18.2-40.13a1.22,1.22,0,0,0-.1-.24,85.82,85.82,0,0,0-74.2-42.51,85.82,85.82,0,0,0-73.52,41.39,1,1,0,0,0,.34,1.36,1,1,0,0,0,1.37-.33A83.81,83.81,0,0,1-266,1028.07,83.81,83.81,0,0,1-194.18,1068.5Zm-185.2,84.89a.9.9,0,0,0-.15.19A83.84,83.84,0,0,1-452,1195.36a83.85,83.85,0,0,1-72.84-42.48,1,1,0,0,0-1.37-.37,1,1,0,0,0-.36,1.38A85.86,85.86,0,0,0-452,1197.38a85.83,85.83,0,0,0,73.83-42.22.76.76,0,0,0,.13-.17c4.66-7.53,8.41-16,18.82-41.14l.34-.83,4.95,11.46a1,1,0,0,0,1.32.52,1,1,0,0,0,.52-1.31l-5.89-13.65a1,1,0,0,0-1.31-.52l-13.61,5.77a1,1,0,0,0-.53,1.31,1,1,0,0,0,1.32.53l11.34-4.81-.31.76C-371.14,1137.49-374.95,1146.11-379.38,1153.39ZM-565,1068.92c4.34,7.2,8.19,15.95,18.12,39.94l.46,1.13-11.59-4.92a1,1,0,0,0-1.32.53,1,1,0,0,0,.53,1.31l13.61,5.77a1,1,0,0,0,1.31-.52l5.89-13.65a1,1,0,0,0-.52-1.32,1,1,0,0,0-1.32.53l-4.84,11.22-.35-.85c-10.41-25.16-14.16-33.6-18.82-41.14a1,1,0,0,0-.36-.35,86.14,86.14,0,0,0-73.33-40.79,86.09,86.09,0,0,0-86.18,86,86.09,86.09,0,0,0,86.18,86,86.17,86.17,0,0,0,74.69-43.06,1,1,0,0,0-.37-1.37,1,1,0,0,0-1.37.37,84.14,84.14,0,0,1-73,42.06,84.08,84.08,0,0,1-84.17-84,84.08,84.08,0,0,1,84.17-84,84.14,84.14,0,0,1,72.19,40.77A1,1,0,0,0-565,1068.92Zm39.44-1.45a1,1,0,0,0,.34,1.36,1,1,0,0,0,1.37-.33A83.81,83.81,0,0,1-452,1028.07a83.82,83.82,0,0,1,72.47,41.52,1,1,0,0,0,1.37.36,1,1,0,0,0,.36-1.36,85.82,85.82,0,0,0-74.2-42.51A85.81,85.81,0,0,0-525.52,1067.47Zm333.71,87.14a1,1,0,0,0-.35-1.38,1,1,0,0,0-1.37.35A83.84,83.84,0,0,1-266,1195.36a83.85,83.85,0,0,1-72.84-42.48,1,1,0,0,0-1.37-.37,1,1,0,0,0-.36,1.38A85.86,85.86,0,0,0-266,1197.38,85.83,85.83,0,0,0-191.81,1154.61Zm38.29-87.14a1,1,0,0,0,.34,1.36,1,1,0,0,0,1.37-.33A83.81,83.81,0,0,1-80,1028.07a83.82,83.82,0,0,1,72.47,41.52,1,1,0,0,0,1.37.36,1,1,0,0,0,.36-1.36A85.82,85.82,0,0,0-80,1026.08,85.81,85.81,0,0,0-153.52,1067.47Zm185,87.28a86,86,0,1,0,.78-87.2,1,1,0,1,0,1.71,1,84,84,0,1,1-.76,85.17,1,1,0,1,0-1.73,1ZM-542,1115.37a.79.79,0,0,0-1.1-.56,1.11,1.11,0,0,0-.45,1.34l.32.95a.79.79,0,0,0,1.09.55,1.11,1.11,0,0,0,.46-1.34Zm4,10a.79.79,0,0,0-1.09-.55,1.12,1.12,0,0,0-.45,1.35c.11.32.22.63.32.94a.79.79,0,0,0,1.1.55,1.11,1.11,0,0,0,.45-1.34Zm5,10a.78.78,0,0,0-1.1-.52,1.14,1.14,0,0,0-.41,1.36c.11.32.23.64.34.95a.78.78,0,0,0,1.1.51,1.15,1.15,0,0,0,.41-1.36C-532.85,1136-533,1135.65-533.08,1135.33Zm3.94,9.92a.74.74,0,0,0-1.09-.44,1.2,1.2,0,0,0-.34,1.41c.12.31.25.62.38.92a.72.72,0,0,0,1.09.43,1.19,1.19,0,0,0,.34-1.4C-528.89,1145.87-529,1145.56-529.14,1145.25Zm172.89-38.16.32-.95a1.12,1.12,0,0,0-.46-1.34.79.79,0,0,0-1.09.56l-.32,1a1.11,1.11,0,0,0,.45,1.34A.81.81,0,0,0-356.25,1107.09Zm4-11c.11-.33.22-.64.33-.95a1.11,1.11,0,0,0-.45-1.34.79.79,0,0,0-1.1.54c-.1.31-.21.63-.32,1a1.11,1.11,0,0,0,.45,1.34A.78.78,0,0,0-352.26,1096.1Zm5-10,.34-.93a1.14,1.14,0,0,0-.41-1.36.77.77,0,0,0-1.1.51c-.11.31-.23.62-.34.94a1.14,1.14,0,0,0,.41,1.36A.77.77,0,0,0-347.28,1086.1Zm3.94-10,.38-.92a1.19,1.19,0,0,0-.34-1.4.72.72,0,0,0-1.09.43c-.13.31-.26.61-.38.93a1.19,1.19,0,0,0,.34,1.4A.73.73,0,0,0-343.34,1076.13ZM-170,1115.37a.79.79,0,0,0-1.1-.56,1.11,1.11,0,0,0-.45,1.34l.32.95a.79.79,0,0,0,1.09.55,1.11,1.11,0,0,0,.46-1.34Zm4,10a.79.79,0,0,0-1.09-.55,1.12,1.12,0,0,0-.45,1.35c.11.32.22.63.32.94a.79.79,0,0,0,1.1.55,1.11,1.11,0,0,0,.45-1.34Zm5,10a.78.78,0,0,0-1.1-.52,1.14,1.14,0,0,0-.41,1.36c.11.32.23.64.34.95a.78.78,0,0,0,1.1.51,1.15,1.15,0,0,0,.41-1.36C-160.85,1136-161,1135.65-161.08,1135.33Zm3.94,9.92a.74.74,0,0,0-1.09-.44,1.2,1.2,0,0,0-.34,1.41c.12.31.25.62.38.92a.72.72,0,0,0,1.09.43,1.19,1.19,0,0,0,.34-1.4C-156.89,1145.87-157,1145.56-157.14,1145.25ZM16,1107.1l.32-.95a1.12,1.12,0,0,0-.46-1.34.79.79,0,0,0-1.09.56l-.32.94a1.1,1.1,0,0,0,.45,1.34A.79.79,0,0,0,16,1107.1Zm4-11,.33-.94a1.13,1.13,0,0,0-.45-1.35.8.8,0,0,0-1.1.55c-.1.31-.21.63-.32,1a1.11,1.11,0,0,0,.45,1.34A.78.78,0,0,0,19.94,1096.1Zm5-10,.34-.93a1.16,1.16,0,0,0-.41-1.37.78.78,0,0,0-1.1.52c-.11.31-.23.62-.34.94a1.14,1.14,0,0,0,.41,1.36A.78.78,0,0,0,24.92,1086.11Zm3.94-10c.13-.31.25-.62.38-.92a1.19,1.19,0,0,0-.34-1.4.72.72,0,0,0-1.09.43c-.13.3-.26.61-.38.93a1.19,1.19,0,0,0,.34,1.4A.74.74,0,0,0,28.86,1076.14Z"/></g></svg>