<svg xmlns="http://www.w3.org/2000/svg" viewBox="0 0 1030.89 100.46"><defs><style>.cls-1{fill:#fff;}.cls-2{fill:#ee9721;}</style></defs><title>Chef Habitat Inverse</title><g id="Layer_2" data-name="Layer 2"><g id="Layer_1-2" data-name="Layer 1"><path class="cls-1" d="M0,50.52H0A49.62,49.62,0,0,1,48.79.06h1.84a50.06,50.06,0,0,1,38.27,15L75.28,30.72a35.82,35.82,0,0,0-24.82-11A28.72,28.72,0,0,0,22,48.71c0,.42,0,.84,0,1.25v.28A28.83,28.83,0,0,0,49.19,80.69l1,0A35,35,0,0,0,75.72,69.37L89.29,83.11a49.66,49.66,0,0,1-39.65,17.31A49,49,0,0,1,0,52.13c0-.54,0-1.08,0-1.61"/><polygon class="cls-1" points="106.65 1.72 127.99 1.72 127.99 40.31 167.36 40.31 167.36 1.72 188.71 1.72 188.71 98.77 167.36 98.77 167.36 59.83 127.99 59.83 127.99 98.77 106.65 98.77 106.65 1.72"/><polygon class="cls-1" points="211.97 1.72 285.2 1.72 285.2 20.74 233.2 20.74 233.2 40.42 278.97 40.42 278.97 59.39 233.2 59.39 233.2 79.8 285.87 79.8 285.87 98.77 211.97 98.77 211.97 1.72"/><polygon class="cls-1" points="304.89 1.72 378.78 1.72 378.78 21.12 326.23 21.12 326.23 41.8 372.55 41.8 372.55 61.21 326.23 61.21 326.23 98.77 304.89 98.77 304.89 1.72"/><path class="cls-2" d="M418.12,1.75h13.47V42.29h48.69V1.75h13.6v97h-13.6V54.34H431.59V98.71H418.12Z"/><path class="cls-2" d="M523.71,98.5h-15L550.5,2.2h12.24l41.35,96.3H588.86l-9.8-23.67h-45.7ZM538.12,63h36l-18-45.15Z"/><path class="cls-2" d="M619.5,2.42h33.18a49.72,49.72,0,0,1,10.88,1.22,28.91,28.91,0,0,1,9.73,4.08,22.06,22.06,0,0,1,6.94,7.48,23.07,23.07,0,0,1,2.65,11.56,20.09,20.09,0,0,1-4.63,13.47A23.56,23.56,0,0,1,666,47.71V48a28.24,28.24,0,0,1,8.57,2.38,22.44,22.44,0,0,1,6.8,4.83,20.91,20.91,0,0,1,4.42,7.07,25.36,25.36,0,0,1,1.57,9.12A23.85,23.85,0,0,1,676.76,92a36.41,36.41,0,0,1-11.5,5,55.93,55.93,0,0,1-14.07,1.7H619.5ZM633,43.08h17.55a29.25,29.25,0,0,0,7.27-.88,18,18,0,0,0,6.06-2.72,13.33,13.33,0,0,0,4.08-4.62,14.19,14.19,0,0,0,1.49-6.74q0-7.74-5.71-11.08t-15.37-3.33H633Zm0,44.21h16.87a49.25,49.25,0,0,0,8.5-.75,24.91,24.91,0,0,0,7.75-2.65,15.57,15.57,0,0,0,5.58-5.1,14.46,14.46,0,0,0,2.11-8.09q0-8.58-5.85-12.38t-16.87-3.81H633Z"/><path class="cls-2" d="M723.53,98.71H710.07V1.83h13.46Z"/><path class="cls-2" d="M783,98.71H769.54v-85H738.67V1.83h75.21v11.9H783Z"/><path class="cls-2" d="M828.85,98.71h-15L855.64,2.08h12.24l41.35,96.63H894L884.2,75H838.5Zm14.41-35.62h36l-18-45.31Z"/><path class="cls-2" d="M953.57,98.71H940.1v-85H909.23V1.83h75.21v11.9H953.57Z"/><path class="cls-2" d="M1003.56,20.42h-1.89V3.51h-6.23V1.83h14.34V3.51h-6.22Z"/><path class="cls-2" d="M1021.75,17.21h0L1028,1.83h2.89V20.42H1029V4.27h0l-6.73,16.15h-1l-6.72-16.15h-.06V20.42h-1.89V1.83h2.89Z"/></g></g></svg>