<?xml version="1.0" encoding="UTF-8"?>
<svg width="69px" height="46px" viewBox="0 0 69 46" version="1.1" xmlns="http://www.w3.org/2000/svg" xmlns:xlink="http://www.w3.org/1999/xlink">
    <!-- Generator: Sketch 45.2 (43514) - http://www.bohemiancoding.com/sketch -->
    <title>fork@2x</title>
    <desc>Created with Sketch.</desc>
    <defs></defs>
    <g id="Habitat-Web-UI/Global-Nav-Pages/desktop" stroke="none" stroke-width="1" fill="none" fill-rule="evenodd">
        <g id="Habitat-Web---Tutorials---V2" transform="translate(-979.000000, -1385.000000)">
            <g id="build-a-sample-app" transform="translate(370.000000, 1100.000000)">
                <g id="fork" transform="translate(609.515625, 284.607359)">
                    <path d="M53.6968854,41.5484061 C53.0682702,41.5484061 52.5586768,41.0388128 52.5586768,40.4101976 L52.5586768,29.8893565 C52.5586768,29.2607413 53.0682702,28.751148 53.6968854,28.751148 C54.3255006,28.751148 54.8350939,29.2607413 54.8350939,29.8893565 L54.8350939,40.4101976 C54.8350939,41.0388128 54.3255006,41.5484061 53.6968854,41.5484061 Z" id="Shape" fill="#87AF9A" fill-rule="nonzero"></path>
                    <path d="M44.7164199,24.6384211 C46.5757387,23.5365612 48.886386,23.5297756 50.7521442,24.6206963 C52.6179023,25.711617 53.7452332,27.7286104 53.6968854,29.8893565 C51.8375666,30.9912165 49.5269193,30.998002 47.6611612,29.9070813 C45.795403,28.8161606 44.6680721,26.7991673 44.7164199,24.6384211 L44.7164199,24.6384211 Z" id="Shape" fill="#759684"></path>
                    <path d="M44.7164199,24.6384211 C46.5757387,23.5365612 48.886386,23.5297756 50.7521442,24.6206963 C52.6179023,25.711617 53.7452332,27.7286104 53.6968854,29.8893565 L44.7164199,24.6384211 Z" id="Shape" fill="#87AF9A"></path>
                    <path d="M62.7039091,24.6384211 C60.8445903,23.5365612 58.533943,23.5297756 56.6681848,24.6206963 C54.8024267,25.711617 53.6750958,27.7286104 53.7234436,29.8893565 C55.5827624,30.9912165 57.8934097,30.998002 59.7591678,29.9070813 C61.624926,28.8161606 62.7522569,26.7991673 62.7039091,24.6384211 L62.7039091,24.6384211 Z" id="Shape" fill="#759684"></path>
                    <path d="M62.7039091,24.6384211 C60.8445903,23.5365612 58.533943,23.5297756 56.6681848,24.6206963 C54.8024267,25.711617 53.6750958,27.7286104 53.7234436,29.8893565 L62.7039091,24.6384211 Z" id="Shape" fill="#87AF9A"></path>
                    <path d="M50.4605791,45.9684493 L25.1809672,45.9684493 C24.8145736,45.9718992 24.4637022,45.820728 24.2145445,45.552071 C23.9653868,45.283414 23.8410318,44.9221672 23.8720273,44.5570707 C24.6436436,37.4306924 30.6603307,32.0303023 37.8283612,32.0303023 C44.9963916,32.0303023 51.0130787,37.4306924 51.784695,44.5570707 C51.8159836,44.9248392 51.6896306,45.2885947 51.4370937,45.5577745 C51.1845568,45.8269542 50.829594,45.9762344 50.4605791,45.9684493 L50.4605791,45.9684493 Z" id="Shape" fill="#847264"></path>
                    <path d="M61.6377871,45.9684493 L43.1381041,45.9684493 C42.8704491,45.9704548 42.6143071,45.8597276 42.4323975,45.6633808 C42.2504879,45.4670339 42.1596073,45.203197 42.1820089,44.9364736 C42.6391234,39.6400478 47.0718305,35.5734325 52.3879456,35.5734325 C57.7040606,35.5734325 62.1367677,39.6400478 62.5938822,44.9364736 C62.6162838,45.203197 62.5254032,45.4670339 62.3434936,45.6633808 C62.161584,45.8597276 61.905442,45.9704548 61.6377871,45.9684493 Z" id="Shape" fill="#847264"></path>
                    <path d="M67.5337073,45.9684493 L58.1624569,45.9684493 C58.026436,45.9700325 57.896083,45.9140471 57.8035766,45.8143136 C57.7110701,45.7145801 57.6650299,45.5803916 57.6768213,45.4448734 C57.9548175,42.7990272 60.1857746,40.7901938 62.8461851,40.7901938 C65.5065957,40.7901938 67.7375528,42.7990272 68.015549,45.4448734 C68.0272744,45.5797287 67.9817342,45.7132965 67.8900694,45.8129008 C67.7984046,45.912505 67.6690705,45.9689581 67.5337073,45.9684493 L67.5337073,45.9684493 Z" id="Shape" fill="#847264"></path>
                    <path d="M36.7072258,25.2075254 L34.8102115,27.1045396 L33.1598091,25.4769014 C32.86806,25.1849787 32.4722591,25.0209636 32.0595408,25.0209636 C31.6468226,25.0209636 31.2510217,25.1849787 30.9592726,25.4769014 L29.1722852,27.2638888 L31.9115737,30.0031774 L30.0145595,31.9001917 L27.2752709,29.1609031 L25.4769014,30.9592726 C25.1849787,31.2510217 25.0209636,31.6468226 25.0209636,32.0595408 C25.0209636,32.4722591 25.1849787,32.86806 25.4769014,33.1598091 L27.1159217,34.7988294 L25.2189075,36.6958437 L23.5836812,35.0568234 C21.9252373,33.3938614 21.9252373,30.7024562 23.5836812,29.0394942 L25.3706686,27.2525067 L15.7679825,17.6725848 L17.6649967,15.7755705 L27.2638888,25.3592865 L29.0508762,23.5722991 C29.8485909,22.7739131 30.9309272,22.3253281 32.0595408,22.3253281 C33.1881545,22.3253281 34.2704908,22.7739131 35.0682055,23.5722991 L36.7072258,25.2075254 Z" id="Shape" fill="#C5D2D8" fill-rule="nonzero"></path>
                    <path d="M14.246577,18.3555099 L18.3555099,14.246577 L19.0422291,14.9332962 C19.2241024,15.114791 19.3263097,15.3611781 19.3263097,15.6181183 C19.3263097,15.8750586 19.2241024,16.1214457 19.0422291,16.3029405 L16.3143226,19.0422291 C16.1328278,19.2241024 15.8864407,19.3263097 15.6295004,19.3263097 C15.3725602,19.3263097 15.1261731,19.2241024 14.9446783,19.0422291 L14.246577,18.3555099 Z" id="Shape" fill="#DFE9EF" fill-rule="nonzero"></path>
                    <path d="M18.3555099,14.246577 L5.34199213,1.22926523 C4.20629396,0.0935670622 2.36496341,0.0935670622 1.22926523,1.22926523 C0.0935670622,2.36496341 0.0935670622,4.20629396 1.22926523,5.34199213 L14.246577,18.3555099 L18.3555099,14.246577 Z M2.59890952,2.59890952 C2.9769406,2.22166538 3.58914676,2.22209062 3.9666534,2.59985957 C4.34416004,2.97762851 4.34416004,3.58983482 3.9666534,3.96760377 C3.58914676,4.34537272 2.9769406,4.34579796 2.59890952,3.96855381 C2.41703614,3.78705902 2.31482884,3.54067191 2.31482884,3.28373167 C2.31482884,3.02679142 2.41703614,2.78040432 2.59890952,2.59890952 L2.59890952,2.59890952 Z" id="Shape" fill="#DEBFA5" fill-rule="nonzero"></path>
                    <path d="M37.538118,40.2774066 C37.538118,40.2774066 40.3456991,41.5787584 40.9527437,40.9641257 C41.5597882,40.3494931 40.2660245,37.5495001 40.2660245,37.5495001 L32.742466,30.0031774 C31.9856262,29.2477247 30.7600171,29.2477247 30.0031774,30.0031774 L30.0031774,30.0031774 C29.2477247,30.7600171 29.2477247,31.9856262 30.0031774,32.742466 L37.538118,40.2774066 Z" id="Shape" fill="#DFE9EF" fill-rule="nonzero"></path>
                    <path d="M32.742466,45.0730586 C32.742466,45.0730586 35.5500471,46.3744104 36.1570916,45.7597778 C36.7641362,45.1451452 35.4703725,42.3451521 35.4703725,42.3451521 L27.946814,34.7988294 C27.1899742,34.0433768 25.9643651,34.0433768 25.2075254,34.7988294 L25.2075254,34.7988294 C24.4520727,35.5556692 24.4520727,36.7812783 25.2075254,37.538118 L32.742466,45.0730586 Z" id="Shape" fill="#DFE9EF" fill-rule="nonzero"></path>
                    <path d="M42.33377,35.4817546 C42.33377,35.4817546 45.1413511,36.7831063 45.7483957,36.1684737 C46.3554402,35.5538411 45.0616765,32.7538481 45.0616765,32.7538481 L37.538118,25.2075254 C36.7812783,24.4520727 35.5556692,24.4520727 34.7988294,25.2075254 L34.7988294,25.2075254 C34.0433768,25.9643651 34.0433768,27.1899742 34.7988294,27.946814 L42.33377,35.4817546 Z" id="Shape" fill="#DFE9EF" fill-rule="nonzero"></path>
                    <path d="M51.7733129,40.596105 C51.5695011,40.5971118 51.3662437,40.6174376 51.1662684,40.6568094 C50.719149,40.7510734 50.2590015,40.5688072 49.9977076,40.193938 C48.6242693,38.2513954 46.583082,37.010748 44.3066649,37.010748 C42.0302478,37.010748 39.9700903,38.2513954 38.6156221,40.193938 C38.3543282,40.5688072 37.8941807,40.7510734 37.4470613,40.6568094 C37.234649,40.6149767 37.018564,40.5946393 36.8020765,40.596105 C34.7267429,40.596105 32.9814898,42.2806536 32.4655019,44.5722468 C32.3841176,44.9114082 32.4627311,45.2691607 32.6788083,45.5429572 C32.8948854,45.8167536 33.2245693,45.9763641 33.5733582,45.9760374 L55.0134133,45.9760374 C55.3630481,45.9766467 55.6935642,45.8165301 55.9098053,45.5417854 C56.1260464,45.2670407 56.2040172,44.9081552 56.1212696,44.5684528 C55.5938997,42.2730656 53.8486465,40.596105 51.7733129,40.596105 Z" id="Shape" fill="#9B8676" fill-rule="nonzero"></path>
                </g>
            </g>
        </g>
    </g>
</svg>