<svg xmlns="http://www.w3.org/2000/svg" width="100" height="100" viewBox="0 0 100 100">
  <g fill="#FFF" fill-rule="evenodd">
    <g fill-rule="nonzero" transform="translate(57.277 22)">
      <path d="M6.12616427 15.1117711C6.12616427 15.1117711 6.55978605 13.4615993 4.6687133 11.3175805L4.60848806 11.2453102C2.72946036 9.02902116 3.01854154 5.70458754 5.23483062 3.8376049 6.17434447 3.04263164 7.39089445 2.60900987 8.63153453 2.60900987L8.75198503 2.60900987C11.6548419 2.60900987 14.0156716 4.95779449 14.0156716 7.86065138 14.0156716 9.10129146 13.5820498 10.3057964 12.7750315 11.2573553 12.7629865 11.2694003 12.7509414 11.2934904 12.7148063 11.3175805 11.7150672 12.3173196 11.185085 13.6904553 11.2573553 15.1117711 14.3408879 14.0518067 16.4126364 11.1730399 16.4367265 7.90883157 16.4608166 3.84964995 13.1845632.392720789 9.1374266.2 9.08924641.2 9.04106621.2 8.99288601.2L8.70380483.2 8.41472364.2C8.36654345.2 8.31836325.2 8.27018305.2 4.19895638.392720789.934748009 3.861695.946793059 7.90883157.970883157 11.1609949 3.05467669 14.0518067 6.12616427 15.1117711M16.075375 21.2186111C16.2199156 21.1583858 16.3765013 21.1102056 16.5330869 21.0861155 16.7137626 21.0499804 16.8823933 21.0258903 17.0630691 21.0258903L17.038979 20.8813497C17.0269339 20.7729443 16.9907988 20.6645388 16.9546636 20.5561334L16.8944384 20.3875027C16.8703483 20.3393225 16.8462582 20.2911423 16.8221681 20.2429621L16.7498978 20.1104665C16.569222 20.0863764 16.3765013 20.0381963 16.1958255 19.9900161 16.0271948 19.9418359 15.8585641 19.8816106 15.7019785 19.8213854 15.4490325 19.725025 15.2201765 19.5804844 15.0154107 19.3998086 14.8829151 19.3034482 14.8106448 19.1348176 14.8226899 18.9661869 14.8347349 18.8939166 14.8708701 18.8336913 14.9190503 18.7734661 14.9792755 18.7132408 15.0395008 18.6530156 15.1238161 18.6168804L14.9551854 18.52052C14.9070052 18.4964299 14.84678 18.4602948 14.7865547 18.4241596L14.5817889 18.3277992C14.4372483 18.2555289 14.3047528 18.1953037 14.1843023 18.1471235L14.0036265 18.0748532C13.8590859 18.0989433 13.7145454 18.0989433 13.5700048 18.0989433 13.4134191 18.0989433 13.2568335 18.0989433 13.1002478 18.0868983 12.7991216 18.0628082 12.5100404 18.014628 12.2330043 17.9423577 12.1125538 17.9182676 11.9921033 17.8700874 11.8716528 17.8219072 11.7752924 17.785772 11.6909771 17.7375918 11.6066617 17.6773666 11.4621211 17.5810062 11.3657607 17.4726007 11.3778058 17.3641953L11.1609949 17.3280602C11.0284993 17.3039701 10.7514632 17.2678349 10.5707875 17.2437448 10.5707875 17.2678349 10.5466974 17.3039701 10.5466974 17.3521502L10.4985172 17.5689611C10.4021568 18.0025829 10.6551028 18.4362047 11.0887246 18.5687002 12.1366439 18.8698265 12.9195721 19.3757185 13.148428 19.9900161 13.6061399 21.2306561 11.678932 22.4472061 8.72789493 22.4472061 5.77685784 22.4472061 3.8376049 21.2547462 4.29531677 20.0020611 4.51212766 19.3998086 5.27096577 18.9059616 6.28274991 18.6048354 6.72841674 18.4602948 6.99340782 18.014628 6.89704743 17.5569161L6.83682218 17.2678349 6.43933555 17.3160151C6.25865981 17.3401052 6.10207417 17.3641953 5.96957863 17.3882854L5.75276774 17.4244205C5.74072269 17.5569161 5.6684524 17.6773666 5.5480019 17.7375918 5.46368656 17.7978171 5.39141626 17.8459973 5.29505587 17.8821324 5.18665042 17.9303126 5.06619993 17.9784928 4.95779449 18.014628 4.82529894 18.0507631 4.68075835 18.0868983 4.53621776 18.1109884 4.39167717 18.1350785 4.23509153 18.1591686 4.07850589 18.1712136 3.77737965 18.2073488 3.47625342 18.2073488 3.16308214 18.1712136L3.11490194 18.1953037C3.07876679 18.2073488 3.03058659 18.2314389 2.9824064 18.2555289L2.59696482 18.4362047C2.46446927 18.508475 2.33197373 18.5807453 2.23561334 18.6409705L2.11516284 18.7132408 2.06698265 18.7373309C2.25970344 18.8336913 2.36810888 18.9541418 2.39219898 19.0866374 2.44037918 19.2191329 2.38015393 19.3757185 2.24765839 19.5202591 2.16334304 19.6045745 2.06698265 19.6768448 1.97062225 19.7491151 1.85017176 19.8334304 1.71767622 19.9057007 1.57313562 19.9538809 1.23587424 20.1104665.886567812 20.218872.525216332 20.2790972.501126233 20.3272774.477036135 20.3754576.464991085 20.4236378L.356585641 20.7368091.308405444 21.0620254C.320450493 21.0981606.320450493 21.1463408.320450493 21.206566.669756924 21.206566 1.0311084 21.2667913 1.35632474 21.3872418 1.62131582 21.4595121 1.83812671 21.6281428 2.0067574 21.8329086 2.13925294 22.0376744 2.15129799 22.2785754 2.06698265 22.5074314 1.9585772 22.8085576 1.74176631 23.0735487 1.47677523 23.2662695L1.52495543 23.3144497 1.66949602 23.4228551C1.80199156 23.5071705 1.9585772 23.639666 2.15129799 23.7480714L2.70537026 24.0491977C2.77764056 24.0973779 2.8619559 24.121468 2.9101361 24.1455581L2.99445145 24.1816932C3.45216332 24.0010175 3.93396529 23.880567 4.42781232 23.8323868 4.6687133 23.8082967 4.89756924 23.7962516 5.13847023 23.8203417 5.36732616 23.8323868 5.60822715 23.8564769 5.83708309 23.9046571 6.05389398 23.9528373 6.25865981 24.0251076 6.46342565 24.0973779 6.64410139 24.1816932 6.82477713 24.2780536 6.98136277 24.3864591 7.29453406 24.5912249 7.52338999 24.8923511 7.65588554 25.2416576L8.06541721 25.2537026C8.31836325 25.2657477 8.64357958 25.2777927 8.98084096 25.2657477 9.31810234 25.2537026 9.64331868 25.2537026 9.88421966 25.2296125L10.2937513 25.1934774C10.3298865 25.0248467 10.4021568 24.856216 10.5105622 24.7237204 10.5587424 24.6514501 10.6189677 24.5791798 10.6791929 24.5189546 10.7394182 24.4466843 10.8116885 24.3864591 10.8839588 24.3262338 11.0284993 24.2057833 11.19713 24.0973779 11.3778058 24.0251076 11.5705266 23.9287472 11.7752924 23.8564769 11.9800582 23.8082967 12.1968691 23.7601165 12.4257251 23.7239813 12.654581 23.6998912 12.895482 23.6878462 13.1243379 23.6878462 13.3652389 23.6998912 13.8590859 23.7360264 14.3408879 23.8323868 14.8106448 24.0130625L15.0635909 23.8685219C15.2442666 23.7721615 15.4128973 23.6758011 15.5694829 23.5553507 15.7260686 23.4349002 15.9067443 23.3264947 16.0031047 23.2301343L16.1717354 23.0735487C15.8946993 22.8928729 15.6658433 22.6399269 15.5092577 22.3388007 15.4610775 22.2303952 15.4369874 22.1099447 15.4369874 22.0015393 15.4249424 21.8931338 15.4490325 21.7847284 15.5092577 21.688368 15.593573 21.4836022 15.822429 21.3390616 16.075375 21.2186111"/>
      <path d="M4.7891638,7.88474147 C4.77711875,8.84834542 5.24687567,9.72763402 6.00571378,10.3419315 C6.94522763,11.1007696 7.70406573,12.642536 7.75224593,14.3288429 C7.80042613,16.1958255 7.66793059,18.3639344 7.59566029,19.4600339 C6.5959212,19.6045745 5.88526328,19.9418359 5.88526328,20.3272774 C5.88526328,20.8452146 7.12590337,21.447467 8.66766968,21.447467 C10.209436,21.447467 11.4500761,20.8452146 11.4500761,20.3272774 C11.4500761,19.9418359 10.7514632,19.6045745 9.73967907,19.4600339 C9.65536373,18.3639344 9.53491323,16.1958255 9.58309343,14.3288429 C9.63127363,12.642536 10.4021568,11.1007696 11.3296256,10.3419315 C12.0884637,9.72763402 12.5582206,8.84834542 12.5461756,7.88474147 C12.5341305,6.04184893 10.7875984,4.56030786 8.65562463,4.56030786 C6.5236509,4.56030786 4.80120884,6.04184893 4.7891638,7.88474147"/>
    </g>
    <g transform="translate(20 22)">
      <path d="M12.0452547,0.228465848 C12.2750616,0.228465848 12.5048686,0.342470762 12.849579,0.228465848 L21.1226292,4.21863784 C21.5833921,4.33264275 21.9281025,4.78866241 22.041857,5.24354201 L24.1101195,14.1359253 C24.226172,14.593085 24.1101195,15.1631096 23.7654091,15.5039843 L18.0202354,22.573429 C17.6755249,22.9143037 17.215911,23.1434536 16.7574462,23.1434536 L7.56516819,23.1434536 C7.10440525,23.1434536 6.64594039,22.9143037 6.30008093,22.573429 L0.554907181,15.5039843 L0.440003707,15.3911194 C0.210196757,15.0491047 0.0964423166,14.7059499 0.210196757,14.2510703 L2.27845931,5.35868698 C2.39451181,4.90266732 2.7380732,4.56065258 3.19883614,4.33264275 L11.4707373,0.342470762 C11.5867898,0.342470762 11.8165968,0.228465848 12.0452547,0.228465848 Z M12.0452547,3.30614251 C11.7005442,3.30614251 11.5867898,3.53415233 11.5867898,3.87616708 L11.5867898,3.99017199 L11.5867898,4.44619165 L11.5867898,5.35823096 C11.5867898,5.47223587 11.4707373,5.58624079 11.4707373,5.58624079 L11.4707373,5.81425061 C11.1260269,5.81425061 10.8962199,5.92825553 10.5515095,5.92825553 C9.28872031,6.15626536 8.13968556,6.84029484 7.3342122,7.75233415 L7.22045776,7.63832924 L6.99065081,7.63832924 C6.75969483,7.41031941 6.52988788,7.2963145 6.30008093,7.06830467 C6.18517745,6.95429975 6.07142301,6.84029484 5.9553705,6.72628993 L5.84161606,6.61228501 C5.72556355,6.4982801 5.61066008,6.4982801 5.49690564,6.4982801 C5.38085313,6.4982801 5.15104618,6.4982801 5.15104618,6.61228501 C5.0361427,6.84029484 5.0361427,7.18230958 5.26709869,7.2963145 L5.38085313,7.41031941 L5.84161606,7.63832924 C6.07142301,7.75233415 6.30008093,7.98034398 6.52988788,8.20835381 C6.64594039,8.32235872 6.64594039,8.43636364 6.64594039,8.43636364 L6.75969483,8.55036855 C5.84161606,9.8044226 5.49690564,11.4004914 5.72556355,12.9965602 L5.49690564,12.9965602 C5.49690564,13.1105651 5.38085313,13.1105651 5.26709869,13.22457 C4.92238826,13.3385749 4.69258131,13.3385749 4.34787089,13.3385749 L3.77335351,13.3385749 C3.54354656,13.4525799 3.42749405,13.6805897 3.42749405,14.0226044 C3.54354656,14.2506143 3.77335351,14.3646192 3.88710795,14.3646192 L4.00201143,14.3646192 L4.46162533,14.2506143 C4.69258131,14.1366093 5.0361427,14.0226044 5.38085313,14.0226044 C5.49690564,14.0226044 5.61066008,14.0226044 5.61066008,14.1366093 L5.84161606,14.1366093 C6.30008093,15.6186732 7.3342122,16.8727273 8.71420293,17.6707617 L8.59815042,17.8987715 L8.59815042,18.1267813 C8.48324695,18.3547912 8.36949251,18.6968059 8.13968556,18.9248157 C8.02363305,19.0388206 7.90872958,19.1528256 7.90872958,19.2668305 L7.90872958,19.3808354 C7.79497514,19.6088452 7.90872958,19.95086 8.13968556,20.0648649 C8.36949251,20.1788698 8.71420293,20.0648649 8.82795737,19.836855 L8.82795737,19.7228501 C8.94400988,19.6088452 8.94400988,19.3808354 8.94400988,19.2668305 C9.05776432,18.9248157 9.1726678,18.6968059 9.28872031,18.3547912 C9.40247475,18.3547912 9.40247475,18.2407862 9.51852726,18.2407862 L9.6322817,18.0127764 C11.1260269,18.582801 12.7358246,18.582801 14.2284207,18.0127764 L14.3433242,18.2407862 C14.4593767,18.2407862 14.5731311,18.3547912 14.5731311,18.3547912 C14.6891836,18.582801 14.8029381,18.9248157 14.9178415,19.1528256 C14.9178415,19.2679705 15.0338941,19.4948403 15.0338941,19.6088452 L15.0338941,19.7228501 C15.1476485,19.95086 15.4923589,20.0648649 15.7221659,19.95086 C15.9519728,19.8379951 16.0668763,19.4948403 15.9519728,19.2679705 C15.8382184,19.1528256 15.8382184,19.0388206 15.7221659,18.9248157 C15.6084114,18.6979459 15.3774554,18.4687961 15.263701,18.1279214 L15.263701,17.8987715 C15.263701,17.7847666 15.1476485,17.7847666 15.1476485,17.6707617 C16.5264902,16.8727273 17.5617705,15.6186732 18.0202354,14.1366093 L18.2500423,14.1366093 C18.3660948,14.0226044 18.4809983,14.0226044 18.4809983,14.0226044 C18.8245597,14.1366093 19.0555157,14.1366093 19.3990771,14.2506143 L19.85984,14.3646192 L19.9735944,14.3646192 C20.2045504,14.3646192 20.5481118,14.1366093 20.5481118,13.9085995 C20.5481118,13.6805897 20.4343574,13.4525799 20.2045504,13.4525799 L19.6300331,13.4525799 C19.2853226,13.4525799 19.0555157,13.3385749 18.7108053,13.3385749 C18.5947527,13.3385749 18.5947527,13.22457 18.4809983,13.1105651 L18.2500423,13.1105651 C18.4809983,11.5144963 18.1362879,10.0324324 17.215911,8.66437346 L17.3319636,8.55036855 C17.3319636,8.43636364 17.3319636,8.32235872 17.445718,8.32235872 C17.6755249,8.09434889 17.9064809,7.98034398 18.1362879,7.75233415 L18.5947527,7.52432432 L18.7108053,7.41031941 C18.9394632,7.18230958 18.9394632,6.95429975 18.8245597,6.72628993 C18.5947527,6.4982801 18.3649458,6.4982801 18.1362879,6.61228501 L18.0202354,6.72628993 C17.9064809,6.84029484 17.7904284,6.95429975 17.6755249,7.06830467 C17.445718,7.2963145 17.215911,7.52432432 16.9872531,7.63832924 L16.6413937,7.63832924 L16.4127358,7.75233415 C15.3774554,6.61228501 13.8848593,5.92825553 12.2750616,5.81425061 L12.2750616,5.58624079 C12.1613072,5.47223587 12.1613072,5.47223587 12.1613072,5.35823096 L12.1613072,4.44619165 L12.1613072,3.99017199 L12.1613072,3.87616708 C12.1613072,3.53415233 11.9303512,3.30614251 11.7005442,3.30614251 L12.0452547,3.30614251 Z"/>
      <path d="M12.0452547,14.592629 C12.2750616,14.592629 12.3911141,14.592629 12.5048686,14.8206388 L13.7688068,17.1007371 L13.3103419,17.214742 C12.3911141,17.4427518 11.3558338,17.3287469 10.4377551,17.1007371 L11.7005442,14.8206388 C11.8165968,14.592629 11.9303512,14.592629 12.0452547,14.592629 Z M9.86323768,13.4525799 C10.0930446,13.4525799 10.3217025,13.6805897 10.3217025,13.9085995 L10.3217025,14.0226044 L9.28872031,16.4167076 C8.36949251,15.846683 7.56516819,14.9346437 7.22045776,13.7945946 L9.86323768,13.4525799 Z M14.2284207,13.4525799 L16.9872531,13.9085995 C16.6413937,14.9346437 15.8382184,15.846683 14.9178415,16.5307125 L13.9986137,14.1366093 C13.8848593,13.9085995 13.8848593,13.6805897 14.2284207,13.4525799 Z M11.7005442,11.4004914 L12.5048686,11.4004914 L12.9656315,11.970516 L12.849579,12.7685504 L12.1613072,13.1105651 L11.4707373,12.7685504 L11.3558338,11.970516 L11.7005442,11.4004914 Z M16.4127358,9.46240786 C16.9872531,10.3744472 17.215911,11.5144963 17.1010076,12.6545455 L14.5731311,11.970516 C14.3433242,11.8565111 14.2284207,11.6285012 14.2284207,11.4004914 C14.2284207,11.2864865 14.3433242,11.2864865 14.3433242,11.1724816 L16.4127358,9.46240786 Z M7.67892263,9.46240786 L9.6322817,11.1724816 C9.86323768,11.2864865 9.86323768,11.6285012 9.6322817,11.7425061 C9.51852726,11.8565111 9.51852726,11.8565111 9.40247475,11.8565111 L6.8745983,12.5405405 C6.8745983,11.6285012 7.10440525,10.4884521 7.67892263,9.46240786 Z M12.7358246,7.18230958 C13.8848593,7.2963145 14.9178415,7.86633907 15.6084114,8.66437346 L13.4240964,10.1464373 C13.1942894,10.2604423 12.9656315,10.2604423 12.849579,10.0324324 C12.849579,9.91842752 12.7358246,9.91842752 12.7358246,9.8044226 L12.7358246,7.18230958 Z M11.4707373,7.18230958 L11.3558338,9.8044226 C11.3558338,10.0324324 11.1260269,10.2604423 10.8962199,10.2604423 C10.7813164,10.2604423 10.667562,10.2604423 10.667562,10.1464373 L8.48324695,8.66437346 C9.1726678,7.98034398 9.97699212,7.52432432 10.8962199,7.2963145 L11.4707373,7.18230958 Z"/>
    </g>
    <g fill-rule="nonzero" transform="translate(15 57.84)">
      <path d="M26.3164267 12.5888967C26.110571 13.1301484 25.8933659 13.4631963 25.1810896 13.4631963 24.4676392 13.4631963 24.2512168 13.129757 24.0469266 12.5888967L21.9359274 7.1572028C21.8349564 6.89420847 21.805213 6.73531607 21.805213 6.54433209 21.805213 5.87040912 22.3288535 5.5228809 22.8971091 5.5228809 23.4790623 5.5228809 23.728359 5.94398492 23.8277646 6.26490062L25.1662179 10.4117576 25.1955699 10.4117576 26.5332405 6.26490062C26.6361683 5.94398492 26.8827255 5.5228809 27.4642874 5.5228809L29.5240183 5.5228809C30.0566601 5.5228809 30.4069278 5.81366183 30.4793295 6.32438743 30.993186 5.76865536 31.6663262 5.44930511 32.4455252 5.44930511 33.3233471 5.44930511 34.0606704 5.81366183 34.6128803 6.51263188 35.1924853 5.84105708 36.1176618 5.44930511 36.8358085 5.44930511 38.5437062 5.44930511 39.7040904 6.44101289 39.7040904 8.27375462L39.7040904 12.2985071C39.7040904 12.9963031 39.2677233 13.4635876 38.6599403 13.4635876 38.0490264 13.4635876 37.6157902 12.9966944 37.6157902 12.2985071L37.6157902 8.64085087C37.6157902 7.79551195 37.1449834 7.19712158 36.3814388 7.19712158 35.6061535 7.19712158 35.1361294 7.79590331 35.1361294 8.64085087L35.1361294 12.2985071C35.1361294 12.9963031 34.6978055 13.4635876 34.0919793 13.4635876 33.4810654 13.4635876 33.0490033 12.9966944 33.0490033 12.2985071L33.0490033 8.64085087C33.0490033 7.79551195 32.576631 7.19712158 31.8134778 7.19712158 30.9501363 7.19712158 30.5666029 7.79590331 30.5666029 8.64085087L30.5666029 12.2985071C30.5666029 12.9963031 30.1318013 13.4635876 29.5240183 13.4635876 28.9134957 13.4635876 28.4794768 12.9966944 28.4794768 12.2985071L28.4794768 7.06797258 26.3164267 12.5888967zM40.421063 6.58738176C40.3639244 6.39639778 40.3177438 6.22459047 40.3177438 6.09231059 40.3177438 5.84262252 40.4942475 5.52248954 40.9313973 5.52248954 41.2073065 5.52248954 41.4687354 5.62267786 41.645239 6.18036672L43.2901277 11.4856511 43.3190883 11.4856511 44.9350163 6.36978526C45.1115199 5.81405319 45.2254059 5.52248954 45.6946472 5.52248954 46.1588009 5.52248954 46.2762091 5.81405319 46.4499732 6.36978526L48.0674666 11.4856511 48.09721 11.4856511 49.7405332 6.18036672C49.9170368 5.62267786 50.1792484 5.52248954 50.4528095 5.52248954 50.8915248 5.52248954 51.0641148 5.84223116 51.0641148 6.09191923 51.0641148 6.22263367 51.0206738 6.39600642 50.962361 6.58659903L48.8380556 12.7916215C48.6646829 13.287084 48.4603927 13.4628049 48.0964273 13.4628049 47.7449855 13.4628049 47.528563 13.287084 47.3708447 12.7916215L45.7099103 7.54895477 45.6809496 7.54895477 44.0207979 12.7916215C43.8611228 13.287084 43.6447004 13.4628049 43.2952153 13.4628049 42.9296845 13.4628049 42.7273511 13.287084 42.5508475 12.7916215L40.421063 6.58738176zM52.8835502 9.49284291C52.8835502 8.17121814 53.4377169 6.62182149 55.0121606 6.62182149 56.5866043 6.62182149 57.1415537 8.17082678 57.1415537 9.49284291 57.1415537 10.8097714 56.5866043 12.3622989 55.0121606 12.3622989 53.4377169 12.3622989 52.8835502 10.8101627 52.8835502 9.49284291zM58.3492925 6.14123066C58.3492925 5.69507957 57.9978507 5.52248954 57.7509021 5.52248954 57.4879078 5.52248954 57.1568167 5.69507957 57.1568167 6.14123066L57.1568167 6.54863706 57.1255079 6.54863706C56.5294657 5.89584756 55.902506 5.52248954 55.0121606 5.52248954 52.8244548 5.52248954 51.6006702 7.42724162 51.6006702 9.49284291 51.6006702 11.5580528 52.8244548 13.4631963 55.0121606 13.4631963 55.8445846 13.4631963 56.5713413 13.0870987 57.1255079 12.3035948L57.1568167 12.3035948 57.1568167 12.8409329C57.1568167 13.2902149 57.4879078 13.4631963 57.7509021 13.4631963 57.9978507 13.4631963 58.3492925 13.2906063 58.3492925 12.8409329L58.3492925 6.14123066zM60.0356654 6.20815333C60.0356654 5.78587523 60.2818312 5.52444634 60.6739745 5.52444634 61.0669006 5.52444634 61.3177627 5.78548387 61.3177627 6.20815333L61.3177627 6.86720459 61.3475061 6.86720459C61.637113 6.26685742 62.3525202 5.52483771 63.0949312 5.52483771 63.5434305 5.52483771 63.8079903 5.81561864 63.8079903 6.18036672 63.8079903 6.54511481 63.5434305 6.77758301 63.0053097 6.88051085 62.2476355 7.01122529 61.3177627 7.58065498 61.3177627 9.08308835L61.3177627 12.7771411C61.3177627 13.1998106 61.0669006 13.4628049 60.6739745 13.4628049 60.2818312 13.4628049 60.0356654 13.1998106 60.0356654 12.7771411L60.0356654 6.20815333zM65.439964 9.02986331C65.4826223 7.84051842 66.0485297 6.56390012 67.6382365 6.62221285 69.0530051 6.62221285 69.6936624 7.9133115 69.6936624 9.02986331L65.439964 9.02986331zM70.2623094 9.99221905C70.8141279 9.99221905 70.9761512 9.75740268 70.9761512 9.3081207 70.9761512 7.42724162 69.7523665 5.5228809 67.6382365 5.5228809 65.4665765 5.5228809 64.1551271 7.38380059 64.1551271 9.49636516 64.1551271 11.5592269 65.2352824 13.4635876 67.7118123 13.4635876 69.2267692 13.4635876 70.8145192 12.5094505 70.8145192 11.8820994 70.8145192 11.5146118 70.5843992 11.3111043 70.3491915 11.3111043 69.868992 11.3111043 69.4310595 12.3630816 67.7243359 12.3630816 66.2849116 12.3630816 65.4403554 11.3251933 65.4403554 9.99261041L70.2623094 9.99261041 70.2623094 9.99221905zM4.22529448 2.84217094e-14C3.53948885.00107746566 2.98380201.556764304 2.98272455 1.24256993L2.98272455 10.4379788C2.98272424 11.1244214 3.53885218 11.6810748 4.22529448 11.6817228L13.4222688 11.6817228C14.1088639 11.6812907 14.6652302 11.1245741 14.6652301 10.4379788L14.6652301 1.24256993C14.6637226.556790159 14.108049.00129145722 13.4222688 2.84217094e-14L4.22529448 2.84217094e-14zM3.67973779 10.4375874L3.67973779 1.24256993C3.67994498 1.09815852 3.73756469.959755713 3.83989907.857861792 3.94223346.75596787 4.08088352.698945685 4.22529448.699361407L13.4222688.699361407C13.7224424.699361407 13.9674341.942396344 13.9674341 1.24256993L13.9674341 10.4379788C13.9674341 10.7405005 13.7224424 10.9851009 13.4222688 10.9851009L4.22529448 10.9851009C3.92394681 10.9851009 3.67973779 10.7405005 3.67973779 10.4375874z"/>
      <path d="M6.97068914,2.74891691 C6.28639651,2.74999437 5.7319362,3.30445469 5.73085874,3.98874732 L5.73085874,13.1868957 C5.73128903,13.8717104 6.28587549,14.4269971 6.97068914,14.4282915 L16.1676634,14.4282915 C16.8533048,14.4280759 17.4091942,13.8725368 17.409842,13.1868957 L17.409842,3.98874732 C17.4083317,3.30371773 16.8526947,2.749131 16.1676634,2.74891691 L6.97068914,2.74891691 Z M6.42591518,13.1872871 L6.42591518,3.98874732 C6.42634717,3.68846211 6.67001234,3.44532245 6.97029778,3.44553879 L16.1672721,3.44553879 C16.4690111,3.44553879 16.7116547,3.68818237 16.7116547,3.98874732 L16.7116547,13.1868957 C16.7116547,13.4894174 16.4690111,13.7312783 16.1672721,13.7312783 L6.97029778,13.7312783 C6.82595454,13.7313821 6.68748767,13.6741148 6.58538487,13.5720854 C6.48328206,13.470056 6.42591514,13.3316303 6.42591518,13.1872871 Z"/>
      <path d="M1.47950845 5.49548566C.794198421 5.49634765.23879925 6.05157178.237721242 6.73688151L.237721242 15.9338558C.23751329 16.263226.368289796 16.5791601.601226436 16.8120233.834163076 17.0448865 1.15013835 17.1755634 1.47950845 17.1752516L10.6757 17.1752516C11.0050425 17.1753555 11.3209371 17.0446242 11.5538908 16.8118173 11.7868445 16.5790105 11.9177748 16.2631982 11.9178786 15.9338558L11.9178786 6.73688151C11.916156 6.05168687 11.3608956 5.49677632 10.6757 5.49548566L1.47950845 5.49548566zM.933951764 15.9334644L.933951764 6.73649015C.933951764 6.43749064 1.17776942 6.1924989 1.47989981 6.1924989L10.6760914 6.1924989C10.9770477 6.1924989 11.2216481 6.43749064 11.2216481 6.73649015L11.2216481 15.9334644C11.2216481 16.2340294 10.9770477 16.4794125 10.6760914 16.4794125L1.47950845 16.4794125C1.17814252 16.4791965.933951686 16.2348305.933951764 15.9334644zM71.9666849 5.65516079L71.9666849 5.82461993 71.5631921 5.82461993 71.5631921 6.98226461 71.3604673 6.98226461 71.3604673 5.82461993 70.9593227 5.82461993 70.9593227 5.65516079 71.9666849 5.65516079zM73.2562181 6.98226461L73.2018189 6.18623713C73.1936004 6.07900433 73.1994708 5.95376893 73.1955572 5.82188041L73.1873386 5.82188041C73.1544643 5.9471158 73.1145455 6.08878834 73.0726699 6.20463108L72.7998916 6.96308794 72.6433474 6.96308794 72.3764394 6.18623713C72.3419997 6.07743888 72.3091254 5.945159 72.2762511 5.82188041L72.2680325 5.82188041C72.2649016 5.94828988 72.2680325 6.06256718 72.259814 6.18310625L72.2124593 6.98226461 72.0175617 6.98226461 72.1185328 5.65516079 72.3877889 5.65516079 72.6437387 6.37213342C72.676613 6.47349582 72.704791 6.58190271 72.7376653 6.70752946L72.7458838 6.70752946C72.7740618 6.58190271 72.8038052 6.46801677 72.8413758 6.37017662L73.0965429 5.65516079 73.3564064 5.65516079 73.4565947 6.98226461 73.2562181 6.98226461z"/>
    </g>
  </g>
</svg>
